<?xml version="1.0" encoding="utf-8" standalone="no"?>
<!DOCTYPE svg PUBLIC "-//W3C//DTD SVG 1.1//EN"
  "http://www.w3.org/Graphics/SVG/1.1/DTD/svg11.dtd">
<svg xmlns:xlink="http://www.w3.org/1999/xlink" width="460.8pt" height="345.6pt" viewBox="0 0 460.8 345.6" xmlns="http://www.w3.org/2000/svg" version="1.1">
 <metadata>
  <rdf:RDF xmlns:dc="http://purl.org/dc/elements/1.1/" xmlns:cc="http://creativecommons.org/ns#" xmlns:rdf="http://www.w3.org/1999/02/22-rdf-syntax-ns#">
   <cc:Work>
    <dc:type rdf:resource="http://purl.org/dc/dcmitype/StillImage"/>
    <dc:date>2022-04-29T09:23:27.880166</dc:date>
    <dc:format>image/svg+xml</dc:format>
    <dc:creator>
     <cc:Agent>
      <dc:title>Matplotlib v3.5.1, https://matplotlib.org/</dc:title>
     </cc:Agent>
    </dc:creator>
   </cc:Work>
  </rdf:RDF>
 </metadata>
 <defs>
  <style type="text/css">*{stroke-linejoin: round; stroke-linecap: butt}</style>
 </defs>
 <g id="figure_1">
  <g id="patch_1">
   <path d="M 0 345.6 
L 460.8 345.6 
L 460.8 0 
L 0 0 
z
" style="fill: #ffffff"/>
  </g>
  <g id="axes_1">
   <g id="patch_2">
    <path d="M 57.6 276.48 
L 414.72 276.48 
L 414.72 41.472 
L 57.6 41.472 
z
" style="fill: #ffffff"/>
   </g>
   <g id="matplotlib.axis_1">
    <g id="xtick_1">
     <g id="line2d_1">
      <path d="M 58.689745 276.48 
L 58.689745 41.472 
" clip-path="url(#p738d35fd25)" style="fill: none; stroke-dasharray: 2.96,1.28; stroke-dashoffset: 0; stroke: #808080; stroke-width: 0.8"/>
     </g>
     <g id="line2d_2">
      <defs>
       <path id="ma5134cf62f" d="M 0 0 
L 0 3.5 
" style="stroke: #000000; stroke-width: 0.8"/>
      </defs>
      <g>
       <use xlink:href="#ma5134cf62f" x="58.689745" y="276.48" style="stroke: #000000; stroke-width: 0.8"/>
      </g>
     </g>
     <g id="text_1">
      <!-- 26.01.2020 -->
      <g transform="translate(8.064534 318.688565)rotate(-30)scale(0.1 -0.1)">
       <defs>
        <path id="DejaVuSans-32" d="M 1228 531 
L 3431 531 
L 3431 0 
L 469 0 
L 469 531 
Q 828 903 1448 1529 
Q 2069 2156 2228 2338 
Q 2531 2678 2651 2914 
Q 2772 3150 2772 3378 
Q 2772 3750 2511 3984 
Q 2250 4219 1831 4219 
Q 1534 4219 1204 4116 
Q 875 4013 500 3803 
L 500 4441 
Q 881 4594 1212 4672 
Q 1544 4750 1819 4750 
Q 2544 4750 2975 4387 
Q 3406 4025 3406 3419 
Q 3406 3131 3298 2873 
Q 3191 2616 2906 2266 
Q 2828 2175 2409 1742 
Q 1991 1309 1228 531 
z
" transform="scale(0.015625)"/>
        <path id="DejaVuSans-36" d="M 2113 2584 
Q 1688 2584 1439 2293 
Q 1191 2003 1191 1497 
Q 1191 994 1439 701 
Q 1688 409 2113 409 
Q 2538 409 2786 701 
Q 3034 994 3034 1497 
Q 3034 2003 2786 2293 
Q 2538 2584 2113 2584 
z
M 3366 4563 
L 3366 3988 
Q 3128 4100 2886 4159 
Q 2644 4219 2406 4219 
Q 1781 4219 1451 3797 
Q 1122 3375 1075 2522 
Q 1259 2794 1537 2939 
Q 1816 3084 2150 3084 
Q 2853 3084 3261 2657 
Q 3669 2231 3669 1497 
Q 3669 778 3244 343 
Q 2819 -91 2113 -91 
Q 1303 -91 875 529 
Q 447 1150 447 2328 
Q 447 3434 972 4092 
Q 1497 4750 2381 4750 
Q 2619 4750 2861 4703 
Q 3103 4656 3366 4563 
z
" transform="scale(0.015625)"/>
        <path id="DejaVuSans-2e" d="M 684 794 
L 1344 794 
L 1344 0 
L 684 0 
L 684 794 
z
" transform="scale(0.015625)"/>
        <path id="DejaVuSans-30" d="M 2034 4250 
Q 1547 4250 1301 3770 
Q 1056 3291 1056 2328 
Q 1056 1369 1301 889 
Q 1547 409 2034 409 
Q 2525 409 2770 889 
Q 3016 1369 3016 2328 
Q 3016 3291 2770 3770 
Q 2525 4250 2034 4250 
z
M 2034 4750 
Q 2819 4750 3233 4129 
Q 3647 3509 3647 2328 
Q 3647 1150 3233 529 
Q 2819 -91 2034 -91 
Q 1250 -91 836 529 
Q 422 1150 422 2328 
Q 422 3509 836 4129 
Q 1250 4750 2034 4750 
z
" transform="scale(0.015625)"/>
        <path id="DejaVuSans-31" d="M 794 531 
L 1825 531 
L 1825 4091 
L 703 3866 
L 703 4441 
L 1819 4666 
L 2450 4666 
L 2450 531 
L 3481 531 
L 3481 0 
L 794 0 
L 794 531 
z
" transform="scale(0.015625)"/>
       </defs>
       <use xlink:href="#DejaVuSans-32"/>
       <use xlink:href="#DejaVuSans-36" x="63.623047"/>
       <use xlink:href="#DejaVuSans-2e" x="127.246094"/>
       <use xlink:href="#DejaVuSans-30" x="159.033203"/>
       <use xlink:href="#DejaVuSans-31" x="222.65625"/>
       <use xlink:href="#DejaVuSans-2e" x="286.279297"/>
       <use xlink:href="#DejaVuSans-32" x="318.066406"/>
       <use xlink:href="#DejaVuSans-30" x="381.689453"/>
       <use xlink:href="#DejaVuSans-32" x="445.3125"/>
       <use xlink:href="#DejaVuSans-30" x="508.935547"/>
      </g>
     </g>
    </g>
    <g id="xtick_2">
     <g id="line2d_3">
      <path d="M 94.579129 276.48 
L 94.579129 41.472 
" clip-path="url(#p738d35fd25)" style="fill: none; stroke-dasharray: 2.96,1.28; stroke-dashoffset: 0; stroke: #808080; stroke-width: 0.8"/>
     </g>
     <g id="line2d_4">
      <g>
       <use xlink:href="#ma5134cf62f" x="94.579129" y="276.48" style="stroke: #000000; stroke-width: 0.8"/>
      </g>
     </g>
     <g id="text_2">
      <!-- 22.04.2020 -->
      <g transform="translate(43.953918 318.688565)rotate(-30)scale(0.1 -0.1)">
       <defs>
        <path id="DejaVuSans-34" d="M 2419 4116 
L 825 1625 
L 2419 1625 
L 2419 4116 
z
M 2253 4666 
L 3047 4666 
L 3047 1625 
L 3713 1625 
L 3713 1100 
L 3047 1100 
L 3047 0 
L 2419 0 
L 2419 1100 
L 313 1100 
L 313 1709 
L 2253 4666 
z
" transform="scale(0.015625)"/>
       </defs>
       <use xlink:href="#DejaVuSans-32"/>
       <use xlink:href="#DejaVuSans-32" x="63.623047"/>
       <use xlink:href="#DejaVuSans-2e" x="127.246094"/>
       <use xlink:href="#DejaVuSans-30" x="159.033203"/>
       <use xlink:href="#DejaVuSans-34" x="222.65625"/>
       <use xlink:href="#DejaVuSans-2e" x="286.279297"/>
       <use xlink:href="#DejaVuSans-32" x="318.066406"/>
       <use xlink:href="#DejaVuSans-30" x="381.689453"/>
       <use xlink:href="#DejaVuSans-32" x="445.3125"/>
       <use xlink:href="#DejaVuSans-30" x="508.935547"/>
      </g>
     </g>
    </g>
    <g id="xtick_3">
     <g id="line2d_5">
      <path d="M 130.468513 276.48 
L 130.468513 41.472 
" clip-path="url(#p738d35fd25)" style="fill: none; stroke-dasharray: 2.96,1.28; stroke-dashoffset: 0; stroke: #808080; stroke-width: 0.8"/>
     </g>
     <g id="line2d_6">
      <g>
       <use xlink:href="#ma5134cf62f" x="130.468513" y="276.48" style="stroke: #000000; stroke-width: 0.8"/>
      </g>
     </g>
     <g id="text_3">
      <!-- 18.07.2020 -->
      <g transform="translate(79.843303 318.688565)rotate(-30)scale(0.1 -0.1)">
       <defs>
        <path id="DejaVuSans-38" d="M 2034 2216 
Q 1584 2216 1326 1975 
Q 1069 1734 1069 1313 
Q 1069 891 1326 650 
Q 1584 409 2034 409 
Q 2484 409 2743 651 
Q 3003 894 3003 1313 
Q 3003 1734 2745 1975 
Q 2488 2216 2034 2216 
z
M 1403 2484 
Q 997 2584 770 2862 
Q 544 3141 544 3541 
Q 544 4100 942 4425 
Q 1341 4750 2034 4750 
Q 2731 4750 3128 4425 
Q 3525 4100 3525 3541 
Q 3525 3141 3298 2862 
Q 3072 2584 2669 2484 
Q 3125 2378 3379 2068 
Q 3634 1759 3634 1313 
Q 3634 634 3220 271 
Q 2806 -91 2034 -91 
Q 1263 -91 848 271 
Q 434 634 434 1313 
Q 434 1759 690 2068 
Q 947 2378 1403 2484 
z
M 1172 3481 
Q 1172 3119 1398 2916 
Q 1625 2713 2034 2713 
Q 2441 2713 2670 2916 
Q 2900 3119 2900 3481 
Q 2900 3844 2670 4047 
Q 2441 4250 2034 4250 
Q 1625 4250 1398 4047 
Q 1172 3844 1172 3481 
z
" transform="scale(0.015625)"/>
        <path id="DejaVuSans-37" d="M 525 4666 
L 3525 4666 
L 3525 4397 
L 1831 0 
L 1172 0 
L 2766 4134 
L 525 4134 
L 525 4666 
z
" transform="scale(0.015625)"/>
       </defs>
       <use xlink:href="#DejaVuSans-31"/>
       <use xlink:href="#DejaVuSans-38" x="63.623047"/>
       <use xlink:href="#DejaVuSans-2e" x="127.246094"/>
       <use xlink:href="#DejaVuSans-30" x="159.033203"/>
       <use xlink:href="#DejaVuSans-37" x="222.65625"/>
       <use xlink:href="#DejaVuSans-2e" x="286.279297"/>
       <use xlink:href="#DejaVuSans-32" x="318.066406"/>
       <use xlink:href="#DejaVuSans-30" x="381.689453"/>
       <use xlink:href="#DejaVuSans-32" x="445.3125"/>
       <use xlink:href="#DejaVuSans-30" x="508.935547"/>
      </g>
     </g>
    </g>
    <g id="xtick_4">
     <g id="line2d_7">
      <path d="M 166.357898 276.48 
L 166.357898 41.472 
" clip-path="url(#p738d35fd25)" style="fill: none; stroke-dasharray: 2.96,1.28; stroke-dashoffset: 0; stroke: #808080; stroke-width: 0.8"/>
     </g>
     <g id="line2d_8">
      <g>
       <use xlink:href="#ma5134cf62f" x="166.357898" y="276.48" style="stroke: #000000; stroke-width: 0.8"/>
      </g>
     </g>
     <g id="text_4">
      <!-- 13.10.2020 -->
      <g transform="translate(115.732687 318.688565)rotate(-30)scale(0.1 -0.1)">
       <defs>
        <path id="DejaVuSans-33" d="M 2597 2516 
Q 3050 2419 3304 2112 
Q 3559 1806 3559 1356 
Q 3559 666 3084 287 
Q 2609 -91 1734 -91 
Q 1441 -91 1130 -33 
Q 819 25 488 141 
L 488 750 
Q 750 597 1062 519 
Q 1375 441 1716 441 
Q 2309 441 2620 675 
Q 2931 909 2931 1356 
Q 2931 1769 2642 2001 
Q 2353 2234 1838 2234 
L 1294 2234 
L 1294 2753 
L 1863 2753 
Q 2328 2753 2575 2939 
Q 2822 3125 2822 3475 
Q 2822 3834 2567 4026 
Q 2313 4219 1838 4219 
Q 1578 4219 1281 4162 
Q 984 4106 628 3988 
L 628 4550 
Q 988 4650 1302 4700 
Q 1616 4750 1894 4750 
Q 2613 4750 3031 4423 
Q 3450 4097 3450 3541 
Q 3450 3153 3228 2886 
Q 3006 2619 2597 2516 
z
" transform="scale(0.015625)"/>
       </defs>
       <use xlink:href="#DejaVuSans-31"/>
       <use xlink:href="#DejaVuSans-33" x="63.623047"/>
       <use xlink:href="#DejaVuSans-2e" x="127.246094"/>
       <use xlink:href="#DejaVuSans-31" x="159.033203"/>
       <use xlink:href="#DejaVuSans-30" x="222.65625"/>
       <use xlink:href="#DejaVuSans-2e" x="286.279297"/>
       <use xlink:href="#DejaVuSans-32" x="318.066406"/>
       <use xlink:href="#DejaVuSans-30" x="381.689453"/>
       <use xlink:href="#DejaVuSans-32" x="445.3125"/>
       <use xlink:href="#DejaVuSans-30" x="508.935547"/>
      </g>
     </g>
    </g>
    <g id="xtick_5">
     <g id="line2d_9">
      <path d="M 202.247282 276.48 
L 202.247282 41.472 
" clip-path="url(#p738d35fd25)" style="fill: none; stroke-dasharray: 2.96,1.28; stroke-dashoffset: 0; stroke: #808080; stroke-width: 0.8"/>
     </g>
     <g id="line2d_10">
      <g>
       <use xlink:href="#ma5134cf62f" x="202.247282" y="276.48" style="stroke: #000000; stroke-width: 0.8"/>
      </g>
     </g>
     <g id="text_5">
      <!-- 08.01.2021 -->
      <g transform="translate(151.622071 318.688565)rotate(-30)scale(0.1 -0.1)">
       <use xlink:href="#DejaVuSans-30"/>
       <use xlink:href="#DejaVuSans-38" x="63.623047"/>
       <use xlink:href="#DejaVuSans-2e" x="127.246094"/>
       <use xlink:href="#DejaVuSans-30" x="159.033203"/>
       <use xlink:href="#DejaVuSans-31" x="222.65625"/>
       <use xlink:href="#DejaVuSans-2e" x="286.279297"/>
       <use xlink:href="#DejaVuSans-32" x="318.066406"/>
       <use xlink:href="#DejaVuSans-30" x="381.689453"/>
       <use xlink:href="#DejaVuSans-32" x="445.3125"/>
       <use xlink:href="#DejaVuSans-31" x="508.935547"/>
      </g>
     </g>
    </g>
    <g id="xtick_6">
     <g id="line2d_11">
      <path d="M 238.136666 276.48 
L 238.136666 41.472 
" clip-path="url(#p738d35fd25)" style="fill: none; stroke-dasharray: 2.96,1.28; stroke-dashoffset: 0; stroke: #808080; stroke-width: 0.8"/>
     </g>
     <g id="line2d_12">
      <g>
       <use xlink:href="#ma5134cf62f" x="238.136666" y="276.48" style="stroke: #000000; stroke-width: 0.8"/>
      </g>
     </g>
     <g id="text_6">
      <!-- 05.04.2021 -->
      <g transform="translate(187.511456 318.688565)rotate(-30)scale(0.1 -0.1)">
       <defs>
        <path id="DejaVuSans-35" d="M 691 4666 
L 3169 4666 
L 3169 4134 
L 1269 4134 
L 1269 2991 
Q 1406 3038 1543 3061 
Q 1681 3084 1819 3084 
Q 2600 3084 3056 2656 
Q 3513 2228 3513 1497 
Q 3513 744 3044 326 
Q 2575 -91 1722 -91 
Q 1428 -91 1123 -41 
Q 819 9 494 109 
L 494 744 
Q 775 591 1075 516 
Q 1375 441 1709 441 
Q 2250 441 2565 725 
Q 2881 1009 2881 1497 
Q 2881 1984 2565 2268 
Q 2250 2553 1709 2553 
Q 1456 2553 1204 2497 
Q 953 2441 691 2322 
L 691 4666 
z
" transform="scale(0.015625)"/>
       </defs>
       <use xlink:href="#DejaVuSans-30"/>
       <use xlink:href="#DejaVuSans-35" x="63.623047"/>
       <use xlink:href="#DejaVuSans-2e" x="127.246094"/>
       <use xlink:href="#DejaVuSans-30" x="159.033203"/>
       <use xlink:href="#DejaVuSans-34" x="222.65625"/>
       <use xlink:href="#DejaVuSans-2e" x="286.279297"/>
       <use xlink:href="#DejaVuSans-32" x="318.066406"/>
       <use xlink:href="#DejaVuSans-30" x="381.689453"/>
       <use xlink:href="#DejaVuSans-32" x="445.3125"/>
       <use xlink:href="#DejaVuSans-31" x="508.935547"/>
      </g>
     </g>
    </g>
    <g id="xtick_7">
     <g id="line2d_13">
      <path d="M 274.026051 276.48 
L 274.026051 41.472 
" clip-path="url(#p738d35fd25)" style="fill: none; stroke-dasharray: 2.96,1.28; stroke-dashoffset: 0; stroke: #808080; stroke-width: 0.8"/>
     </g>
     <g id="line2d_14">
      <g>
       <use xlink:href="#ma5134cf62f" x="274.026051" y="276.48" style="stroke: #000000; stroke-width: 0.8"/>
      </g>
     </g>
     <g id="text_7">
      <!-- 01.07.2021 -->
      <g transform="translate(223.40084 318.688565)rotate(-30)scale(0.1 -0.1)">
       <use xlink:href="#DejaVuSans-30"/>
       <use xlink:href="#DejaVuSans-31" x="63.623047"/>
       <use xlink:href="#DejaVuSans-2e" x="127.246094"/>
       <use xlink:href="#DejaVuSans-30" x="159.033203"/>
       <use xlink:href="#DejaVuSans-37" x="222.65625"/>
       <use xlink:href="#DejaVuSans-2e" x="286.279297"/>
       <use xlink:href="#DejaVuSans-32" x="318.066406"/>
       <use xlink:href="#DejaVuSans-30" x="381.689453"/>
       <use xlink:href="#DejaVuSans-32" x="445.3125"/>
       <use xlink:href="#DejaVuSans-31" x="508.935547"/>
      </g>
     </g>
    </g>
    <g id="xtick_8">
     <g id="line2d_15">
      <path d="M 309.915435 276.48 
L 309.915435 41.472 
" clip-path="url(#p738d35fd25)" style="fill: none; stroke-dasharray: 2.96,1.28; stroke-dashoffset: 0; stroke: #808080; stroke-width: 0.8"/>
     </g>
     <g id="line2d_16">
      <g>
       <use xlink:href="#ma5134cf62f" x="309.915435" y="276.48" style="stroke: #000000; stroke-width: 0.8"/>
      </g>
     </g>
     <g id="text_8">
      <!-- 26.09.2021 -->
      <g transform="translate(259.290224 318.688565)rotate(-30)scale(0.1 -0.1)">
       <defs>
        <path id="DejaVuSans-39" d="M 703 97 
L 703 672 
Q 941 559 1184 500 
Q 1428 441 1663 441 
Q 2288 441 2617 861 
Q 2947 1281 2994 2138 
Q 2813 1869 2534 1725 
Q 2256 1581 1919 1581 
Q 1219 1581 811 2004 
Q 403 2428 403 3163 
Q 403 3881 828 4315 
Q 1253 4750 1959 4750 
Q 2769 4750 3195 4129 
Q 3622 3509 3622 2328 
Q 3622 1225 3098 567 
Q 2575 -91 1691 -91 
Q 1453 -91 1209 -44 
Q 966 3 703 97 
z
M 1959 2075 
Q 2384 2075 2632 2365 
Q 2881 2656 2881 3163 
Q 2881 3666 2632 3958 
Q 2384 4250 1959 4250 
Q 1534 4250 1286 3958 
Q 1038 3666 1038 3163 
Q 1038 2656 1286 2365 
Q 1534 2075 1959 2075 
z
" transform="scale(0.015625)"/>
       </defs>
       <use xlink:href="#DejaVuSans-32"/>
       <use xlink:href="#DejaVuSans-36" x="63.623047"/>
       <use xlink:href="#DejaVuSans-2e" x="127.246094"/>
       <use xlink:href="#DejaVuSans-30" x="159.033203"/>
       <use xlink:href="#DejaVuSans-39" x="222.65625"/>
       <use xlink:href="#DejaVuSans-2e" x="286.279297"/>
       <use xlink:href="#DejaVuSans-32" x="318.066406"/>
       <use xlink:href="#DejaVuSans-30" x="381.689453"/>
       <use xlink:href="#DejaVuSans-32" x="445.3125"/>
       <use xlink:href="#DejaVuSans-31" x="508.935547"/>
      </g>
     </g>
    </g>
    <g id="xtick_9">
     <g id="line2d_17">
      <path d="M 345.804819 276.48 
L 345.804819 41.472 
" clip-path="url(#p738d35fd25)" style="fill: none; stroke-dasharray: 2.96,1.28; stroke-dashoffset: 0; stroke: #808080; stroke-width: 0.8"/>
     </g>
     <g id="line2d_18">
      <g>
       <use xlink:href="#ma5134cf62f" x="345.804819" y="276.48" style="stroke: #000000; stroke-width: 0.8"/>
      </g>
     </g>
     <g id="text_9">
      <!-- 22.12.2021 -->
      <g transform="translate(295.179608 318.688565)rotate(-30)scale(0.1 -0.1)">
       <use xlink:href="#DejaVuSans-32"/>
       <use xlink:href="#DejaVuSans-32" x="63.623047"/>
       <use xlink:href="#DejaVuSans-2e" x="127.246094"/>
       <use xlink:href="#DejaVuSans-31" x="159.033203"/>
       <use xlink:href="#DejaVuSans-32" x="222.65625"/>
       <use xlink:href="#DejaVuSans-2e" x="286.279297"/>
       <use xlink:href="#DejaVuSans-32" x="318.066406"/>
       <use xlink:href="#DejaVuSans-30" x="381.689453"/>
       <use xlink:href="#DejaVuSans-32" x="445.3125"/>
       <use xlink:href="#DejaVuSans-31" x="508.935547"/>
      </g>
     </g>
    </g>
    <g id="xtick_10">
     <g id="line2d_19">
      <path d="M 381.694204 276.48 
L 381.694204 41.472 
" clip-path="url(#p738d35fd25)" style="fill: none; stroke-dasharray: 2.96,1.28; stroke-dashoffset: 0; stroke: #808080; stroke-width: 0.8"/>
     </g>
     <g id="line2d_20">
      <g>
       <use xlink:href="#ma5134cf62f" x="381.694204" y="276.48" style="stroke: #000000; stroke-width: 0.8"/>
      </g>
     </g>
     <g id="text_10">
      <!-- 19.03.2022 -->
      <g transform="translate(331.068993 318.688565)rotate(-30)scale(0.1 -0.1)">
       <use xlink:href="#DejaVuSans-31"/>
       <use xlink:href="#DejaVuSans-39" x="63.623047"/>
       <use xlink:href="#DejaVuSans-2e" x="127.246094"/>
       <use xlink:href="#DejaVuSans-30" x="159.033203"/>
       <use xlink:href="#DejaVuSans-33" x="222.65625"/>
       <use xlink:href="#DejaVuSans-2e" x="286.279297"/>
       <use xlink:href="#DejaVuSans-32" x="318.066406"/>
       <use xlink:href="#DejaVuSans-30" x="381.689453"/>
       <use xlink:href="#DejaVuSans-32" x="445.3125"/>
       <use xlink:href="#DejaVuSans-32" x="508.935547"/>
      </g>
     </g>
    </g>
   </g>
   <g id="matplotlib.axis_2">
    <g id="ytick_1">
     <g id="line2d_21">
      <path d="M 57.6 265.797818 
L 414.72 265.797818 
" clip-path="url(#p738d35fd25)" style="fill: none; stroke-dasharray: 2.96,1.28; stroke-dashoffset: 0; stroke: #808080; stroke-width: 0.8"/>
     </g>
     <g id="line2d_22">
      <defs>
       <path id="mf4ba2b5c95" d="M 0 0 
L -3.5 0 
" style="stroke: #000000; stroke-width: 0.8"/>
      </defs>
      <g>
       <use xlink:href="#mf4ba2b5c95" x="57.6" y="265.797818" style="stroke: #000000; stroke-width: 0.8"/>
      </g>
     </g>
     <g id="text_11">
      <!-- 0 -->
      <g transform="translate(44.2375 269.597037)scale(0.1 -0.1)">
       <use xlink:href="#DejaVuSans-30"/>
      </g>
     </g>
    </g>
    <g id="ytick_2">
     <g id="line2d_23">
      <path d="M 57.6 236.745486 
L 414.72 236.745486 
" clip-path="url(#p738d35fd25)" style="fill: none; stroke-dasharray: 2.96,1.28; stroke-dashoffset: 0; stroke: #808080; stroke-width: 0.8"/>
     </g>
     <g id="line2d_24">
      <g>
       <use xlink:href="#mf4ba2b5c95" x="57.6" y="236.745486" style="stroke: #000000; stroke-width: 0.8"/>
      </g>
     </g>
     <g id="text_12">
      <!-- 250 -->
      <g transform="translate(31.5125 240.544705)scale(0.1 -0.1)">
       <use xlink:href="#DejaVuSans-32"/>
       <use xlink:href="#DejaVuSans-35" x="63.623047"/>
       <use xlink:href="#DejaVuSans-30" x="127.246094"/>
      </g>
     </g>
    </g>
    <g id="ytick_3">
     <g id="line2d_25">
      <path d="M 57.6 207.693155 
L 414.72 207.693155 
" clip-path="url(#p738d35fd25)" style="fill: none; stroke-dasharray: 2.96,1.28; stroke-dashoffset: 0; stroke: #808080; stroke-width: 0.8"/>
     </g>
     <g id="line2d_26">
      <g>
       <use xlink:href="#mf4ba2b5c95" x="57.6" y="207.693155" style="stroke: #000000; stroke-width: 0.8"/>
      </g>
     </g>
     <g id="text_13">
      <!-- 500 -->
      <g transform="translate(31.5125 211.492374)scale(0.1 -0.1)">
       <use xlink:href="#DejaVuSans-35"/>
       <use xlink:href="#DejaVuSans-30" x="63.623047"/>
       <use xlink:href="#DejaVuSans-30" x="127.246094"/>
      </g>
     </g>
    </g>
    <g id="ytick_4">
     <g id="line2d_27">
      <path d="M 57.6 178.640823 
L 414.72 178.640823 
" clip-path="url(#p738d35fd25)" style="fill: none; stroke-dasharray: 2.96,1.28; stroke-dashoffset: 0; stroke: #808080; stroke-width: 0.8"/>
     </g>
     <g id="line2d_28">
      <g>
       <use xlink:href="#mf4ba2b5c95" x="57.6" y="178.640823" style="stroke: #000000; stroke-width: 0.8"/>
      </g>
     </g>
     <g id="text_14">
      <!-- 750 -->
      <g transform="translate(31.5125 182.440042)scale(0.1 -0.1)">
       <use xlink:href="#DejaVuSans-37"/>
       <use xlink:href="#DejaVuSans-35" x="63.623047"/>
       <use xlink:href="#DejaVuSans-30" x="127.246094"/>
      </g>
     </g>
    </g>
    <g id="ytick_5">
     <g id="line2d_29">
      <path d="M 57.6 149.588491 
L 414.72 149.588491 
" clip-path="url(#p738d35fd25)" style="fill: none; stroke-dasharray: 2.96,1.28; stroke-dashoffset: 0; stroke: #808080; stroke-width: 0.8"/>
     </g>
     <g id="line2d_30">
      <g>
       <use xlink:href="#mf4ba2b5c95" x="57.6" y="149.588491" style="stroke: #000000; stroke-width: 0.8"/>
      </g>
     </g>
     <g id="text_15">
      <!-- 1000 -->
      <g transform="translate(25.15 153.38771)scale(0.1 -0.1)">
       <use xlink:href="#DejaVuSans-31"/>
       <use xlink:href="#DejaVuSans-30" x="63.623047"/>
       <use xlink:href="#DejaVuSans-30" x="127.246094"/>
       <use xlink:href="#DejaVuSans-30" x="190.869141"/>
      </g>
     </g>
    </g>
    <g id="ytick_6">
     <g id="line2d_31">
      <path d="M 57.6 120.53616 
L 414.72 120.53616 
" clip-path="url(#p738d35fd25)" style="fill: none; stroke-dasharray: 2.96,1.28; stroke-dashoffset: 0; stroke: #808080; stroke-width: 0.8"/>
     </g>
     <g id="line2d_32">
      <g>
       <use xlink:href="#mf4ba2b5c95" x="57.6" y="120.53616" style="stroke: #000000; stroke-width: 0.8"/>
      </g>
     </g>
     <g id="text_16">
      <!-- 1250 -->
      <g transform="translate(25.15 124.335378)scale(0.1 -0.1)">
       <use xlink:href="#DejaVuSans-31"/>
       <use xlink:href="#DejaVuSans-32" x="63.623047"/>
       <use xlink:href="#DejaVuSans-35" x="127.246094"/>
       <use xlink:href="#DejaVuSans-30" x="190.869141"/>
      </g>
     </g>
    </g>
    <g id="ytick_7">
     <g id="line2d_33">
      <path d="M 57.6 91.483828 
L 414.72 91.483828 
" clip-path="url(#p738d35fd25)" style="fill: none; stroke-dasharray: 2.96,1.28; stroke-dashoffset: 0; stroke: #808080; stroke-width: 0.8"/>
     </g>
     <g id="line2d_34">
      <g>
       <use xlink:href="#mf4ba2b5c95" x="57.6" y="91.483828" style="stroke: #000000; stroke-width: 0.8"/>
      </g>
     </g>
     <g id="text_17">
      <!-- 1500 -->
      <g transform="translate(25.15 95.283047)scale(0.1 -0.1)">
       <use xlink:href="#DejaVuSans-31"/>
       <use xlink:href="#DejaVuSans-35" x="63.623047"/>
       <use xlink:href="#DejaVuSans-30" x="127.246094"/>
       <use xlink:href="#DejaVuSans-30" x="190.869141"/>
      </g>
     </g>
    </g>
    <g id="ytick_8">
     <g id="line2d_35">
      <path d="M 57.6 62.431496 
L 414.72 62.431496 
" clip-path="url(#p738d35fd25)" style="fill: none; stroke-dasharray: 2.96,1.28; stroke-dashoffset: 0; stroke: #808080; stroke-width: 0.8"/>
     </g>
     <g id="line2d_36">
      <g>
       <use xlink:href="#mf4ba2b5c95" x="57.6" y="62.431496" style="stroke: #000000; stroke-width: 0.8"/>
      </g>
     </g>
     <g id="text_18">
      <!-- 1750 -->
      <g transform="translate(25.15 66.230715)scale(0.1 -0.1)">
       <use xlink:href="#DejaVuSans-31"/>
       <use xlink:href="#DejaVuSans-37" x="63.623047"/>
       <use xlink:href="#DejaVuSans-35" x="127.246094"/>
       <use xlink:href="#DejaVuSans-30" x="190.869141"/>
      </g>
     </g>
    </g>
    <g id="text_19">
     <!-- Inzidenz pro 7 Tage pro 100.000 Einwohner -->
     <g transform="translate(19.070312 267.301)rotate(-90)scale(0.1 -0.1)">
      <defs>
       <path id="DejaVuSans-49" d="M 628 4666 
L 1259 4666 
L 1259 0 
L 628 0 
L 628 4666 
z
" transform="scale(0.015625)"/>
       <path id="DejaVuSans-6e" d="M 3513 2113 
L 3513 0 
L 2938 0 
L 2938 2094 
Q 2938 2591 2744 2837 
Q 2550 3084 2163 3084 
Q 1697 3084 1428 2787 
Q 1159 2491 1159 1978 
L 1159 0 
L 581 0 
L 581 3500 
L 1159 3500 
L 1159 2956 
Q 1366 3272 1645 3428 
Q 1925 3584 2291 3584 
Q 2894 3584 3203 3211 
Q 3513 2838 3513 2113 
z
" transform="scale(0.015625)"/>
       <path id="DejaVuSans-7a" d="M 353 3500 
L 3084 3500 
L 3084 2975 
L 922 459 
L 3084 459 
L 3084 0 
L 275 0 
L 275 525 
L 2438 3041 
L 353 3041 
L 353 3500 
z
" transform="scale(0.015625)"/>
       <path id="DejaVuSans-69" d="M 603 3500 
L 1178 3500 
L 1178 0 
L 603 0 
L 603 3500 
z
M 603 4863 
L 1178 4863 
L 1178 4134 
L 603 4134 
L 603 4863 
z
" transform="scale(0.015625)"/>
       <path id="DejaVuSans-64" d="M 2906 2969 
L 2906 4863 
L 3481 4863 
L 3481 0 
L 2906 0 
L 2906 525 
Q 2725 213 2448 61 
Q 2172 -91 1784 -91 
Q 1150 -91 751 415 
Q 353 922 353 1747 
Q 353 2572 751 3078 
Q 1150 3584 1784 3584 
Q 2172 3584 2448 3432 
Q 2725 3281 2906 2969 
z
M 947 1747 
Q 947 1113 1208 752 
Q 1469 391 1925 391 
Q 2381 391 2643 752 
Q 2906 1113 2906 1747 
Q 2906 2381 2643 2742 
Q 2381 3103 1925 3103 
Q 1469 3103 1208 2742 
Q 947 2381 947 1747 
z
" transform="scale(0.015625)"/>
       <path id="DejaVuSans-65" d="M 3597 1894 
L 3597 1613 
L 953 1613 
Q 991 1019 1311 708 
Q 1631 397 2203 397 
Q 2534 397 2845 478 
Q 3156 559 3463 722 
L 3463 178 
Q 3153 47 2828 -22 
Q 2503 -91 2169 -91 
Q 1331 -91 842 396 
Q 353 884 353 1716 
Q 353 2575 817 3079 
Q 1281 3584 2069 3584 
Q 2775 3584 3186 3129 
Q 3597 2675 3597 1894 
z
M 3022 2063 
Q 3016 2534 2758 2815 
Q 2500 3097 2075 3097 
Q 1594 3097 1305 2825 
Q 1016 2553 972 2059 
L 3022 2063 
z
" transform="scale(0.015625)"/>
       <path id="DejaVuSans-20" transform="scale(0.015625)"/>
       <path id="DejaVuSans-70" d="M 1159 525 
L 1159 -1331 
L 581 -1331 
L 581 3500 
L 1159 3500 
L 1159 2969 
Q 1341 3281 1617 3432 
Q 1894 3584 2278 3584 
Q 2916 3584 3314 3078 
Q 3713 2572 3713 1747 
Q 3713 922 3314 415 
Q 2916 -91 2278 -91 
Q 1894 -91 1617 61 
Q 1341 213 1159 525 
z
M 3116 1747 
Q 3116 2381 2855 2742 
Q 2594 3103 2138 3103 
Q 1681 3103 1420 2742 
Q 1159 2381 1159 1747 
Q 1159 1113 1420 752 
Q 1681 391 2138 391 
Q 2594 391 2855 752 
Q 3116 1113 3116 1747 
z
" transform="scale(0.015625)"/>
       <path id="DejaVuSans-72" d="M 2631 2963 
Q 2534 3019 2420 3045 
Q 2306 3072 2169 3072 
Q 1681 3072 1420 2755 
Q 1159 2438 1159 1844 
L 1159 0 
L 581 0 
L 581 3500 
L 1159 3500 
L 1159 2956 
Q 1341 3275 1631 3429 
Q 1922 3584 2338 3584 
Q 2397 3584 2469 3576 
Q 2541 3569 2628 3553 
L 2631 2963 
z
" transform="scale(0.015625)"/>
       <path id="DejaVuSans-6f" d="M 1959 3097 
Q 1497 3097 1228 2736 
Q 959 2375 959 1747 
Q 959 1119 1226 758 
Q 1494 397 1959 397 
Q 2419 397 2687 759 
Q 2956 1122 2956 1747 
Q 2956 2369 2687 2733 
Q 2419 3097 1959 3097 
z
M 1959 3584 
Q 2709 3584 3137 3096 
Q 3566 2609 3566 1747 
Q 3566 888 3137 398 
Q 2709 -91 1959 -91 
Q 1206 -91 779 398 
Q 353 888 353 1747 
Q 353 2609 779 3096 
Q 1206 3584 1959 3584 
z
" transform="scale(0.015625)"/>
       <path id="DejaVuSans-54" d="M -19 4666 
L 3928 4666 
L 3928 4134 
L 2272 4134 
L 2272 0 
L 1638 0 
L 1638 4134 
L -19 4134 
L -19 4666 
z
" transform="scale(0.015625)"/>
       <path id="DejaVuSans-61" d="M 2194 1759 
Q 1497 1759 1228 1600 
Q 959 1441 959 1056 
Q 959 750 1161 570 
Q 1363 391 1709 391 
Q 2188 391 2477 730 
Q 2766 1069 2766 1631 
L 2766 1759 
L 2194 1759 
z
M 3341 1997 
L 3341 0 
L 2766 0 
L 2766 531 
Q 2569 213 2275 61 
Q 1981 -91 1556 -91 
Q 1019 -91 701 211 
Q 384 513 384 1019 
Q 384 1609 779 1909 
Q 1175 2209 1959 2209 
L 2766 2209 
L 2766 2266 
Q 2766 2663 2505 2880 
Q 2244 3097 1772 3097 
Q 1472 3097 1187 3025 
Q 903 2953 641 2809 
L 641 3341 
Q 956 3463 1253 3523 
Q 1550 3584 1831 3584 
Q 2591 3584 2966 3190 
Q 3341 2797 3341 1997 
z
" transform="scale(0.015625)"/>
       <path id="DejaVuSans-67" d="M 2906 1791 
Q 2906 2416 2648 2759 
Q 2391 3103 1925 3103 
Q 1463 3103 1205 2759 
Q 947 2416 947 1791 
Q 947 1169 1205 825 
Q 1463 481 1925 481 
Q 2391 481 2648 825 
Q 2906 1169 2906 1791 
z
M 3481 434 
Q 3481 -459 3084 -895 
Q 2688 -1331 1869 -1331 
Q 1566 -1331 1297 -1286 
Q 1028 -1241 775 -1147 
L 775 -588 
Q 1028 -725 1275 -790 
Q 1522 -856 1778 -856 
Q 2344 -856 2625 -561 
Q 2906 -266 2906 331 
L 2906 616 
Q 2728 306 2450 153 
Q 2172 0 1784 0 
Q 1141 0 747 490 
Q 353 981 353 1791 
Q 353 2603 747 3093 
Q 1141 3584 1784 3584 
Q 2172 3584 2450 3431 
Q 2728 3278 2906 2969 
L 2906 3500 
L 3481 3500 
L 3481 434 
z
" transform="scale(0.015625)"/>
       <path id="DejaVuSans-45" d="M 628 4666 
L 3578 4666 
L 3578 4134 
L 1259 4134 
L 1259 2753 
L 3481 2753 
L 3481 2222 
L 1259 2222 
L 1259 531 
L 3634 531 
L 3634 0 
L 628 0 
L 628 4666 
z
" transform="scale(0.015625)"/>
       <path id="DejaVuSans-77" d="M 269 3500 
L 844 3500 
L 1563 769 
L 2278 3500 
L 2956 3500 
L 3675 769 
L 4391 3500 
L 4966 3500 
L 4050 0 
L 3372 0 
L 2619 2869 
L 1863 0 
L 1184 0 
L 269 3500 
z
" transform="scale(0.015625)"/>
       <path id="DejaVuSans-68" d="M 3513 2113 
L 3513 0 
L 2938 0 
L 2938 2094 
Q 2938 2591 2744 2837 
Q 2550 3084 2163 3084 
Q 1697 3084 1428 2787 
Q 1159 2491 1159 1978 
L 1159 0 
L 581 0 
L 581 4863 
L 1159 4863 
L 1159 2956 
Q 1366 3272 1645 3428 
Q 1925 3584 2291 3584 
Q 2894 3584 3203 3211 
Q 3513 2838 3513 2113 
z
" transform="scale(0.015625)"/>
      </defs>
      <use xlink:href="#DejaVuSans-49"/>
      <use xlink:href="#DejaVuSans-6e" x="29.492188"/>
      <use xlink:href="#DejaVuSans-7a" x="92.871094"/>
      <use xlink:href="#DejaVuSans-69" x="145.361328"/>
      <use xlink:href="#DejaVuSans-64" x="173.144531"/>
      <use xlink:href="#DejaVuSans-65" x="236.621094"/>
      <use xlink:href="#DejaVuSans-6e" x="298.144531"/>
      <use xlink:href="#DejaVuSans-7a" x="361.523438"/>
      <use xlink:href="#DejaVuSans-20" x="414.013672"/>
      <use xlink:href="#DejaVuSans-70" x="445.800781"/>
      <use xlink:href="#DejaVuSans-72" x="509.277344"/>
      <use xlink:href="#DejaVuSans-6f" x="548.140625"/>
      <use xlink:href="#DejaVuSans-20" x="609.322266"/>
      <use xlink:href="#DejaVuSans-37" x="641.109375"/>
      <use xlink:href="#DejaVuSans-20" x="704.732422"/>
      <use xlink:href="#DejaVuSans-54" x="736.519531"/>
      <use xlink:href="#DejaVuSans-61" x="781.103516"/>
      <use xlink:href="#DejaVuSans-67" x="842.382812"/>
      <use xlink:href="#DejaVuSans-65" x="905.859375"/>
      <use xlink:href="#DejaVuSans-20" x="967.382812"/>
      <use xlink:href="#DejaVuSans-70" x="999.169922"/>
      <use xlink:href="#DejaVuSans-72" x="1062.646484"/>
      <use xlink:href="#DejaVuSans-6f" x="1101.509766"/>
      <use xlink:href="#DejaVuSans-20" x="1162.691406"/>
      <use xlink:href="#DejaVuSans-31" x="1194.478516"/>
      <use xlink:href="#DejaVuSans-30" x="1258.101562"/>
      <use xlink:href="#DejaVuSans-30" x="1321.724609"/>
      <use xlink:href="#DejaVuSans-2e" x="1385.347656"/>
      <use xlink:href="#DejaVuSans-30" x="1417.134766"/>
      <use xlink:href="#DejaVuSans-30" x="1480.757812"/>
      <use xlink:href="#DejaVuSans-30" x="1544.380859"/>
      <use xlink:href="#DejaVuSans-20" x="1608.003906"/>
      <use xlink:href="#DejaVuSans-45" x="1639.791016"/>
      <use xlink:href="#DejaVuSans-69" x="1702.974609"/>
      <use xlink:href="#DejaVuSans-6e" x="1730.757812"/>
      <use xlink:href="#DejaVuSans-77" x="1794.136719"/>
      <use xlink:href="#DejaVuSans-6f" x="1875.923828"/>
      <use xlink:href="#DejaVuSans-68" x="1937.105469"/>
      <use xlink:href="#DejaVuSans-6e" x="2000.484375"/>
      <use xlink:href="#DejaVuSans-65" x="2063.863281"/>
      <use xlink:href="#DejaVuSans-72" x="2125.386719"/>
     </g>
    </g>
   </g>
   <g id="line2d_37">
    <path d="M 73.832727 265.797818 
L 77.545422 265.797818 
L 77.957944 265.256491 
L 78.782987 265.16627 
L 79.195509 265.16627 
L 79.60803 264.534722 
L 80.433074 264.264059 
L 80.845595 264.624943 
L 81.258117 264.624943 
L 81.670639 264.35428 
L 82.08316 264.35428 
L 82.495682 264.624943 
L 83.733247 264.173838 
L 84.145769 263.632511 
L 84.970812 263.271627 
L 85.795855 263.54229 
L 86.208377 263.361848 
L 86.620899 263.54229 
L 87.445942 264.35428 
L 87.858464 264.35428 
L 88.270985 263.903174 
L 88.683507 263.903174 
L 89.096029 263.361848 
L 89.921072 262.820521 
L 90.333594 262.369415 
L 90.746115 262.369415 
L 91.158637 263.091184 
L 91.571159 262.7303 
L 91.98368 263.54229 
L 92.396202 263.000963 
L 92.808724 263.361848 
L 93.221245 263.271627 
L 93.633767 263.452069 
L 94.046289 263.452069 
L 94.45881 263.903174 
L 94.871332 263.361848 
L 95.283854 264.173838 
L 95.696375 264.264059 
L 96.108897 264.805386 
L 96.93394 264.444501 
L 97.346462 264.534722 
L 97.758983 264.985828 
L 98.584027 264.895607 
L 98.996548 264.895607 
L 99.821592 265.16627 
L 100.234113 265.16627 
L 101.059157 265.617376 
L 103.946808 265.617376 
L 104.35933 265.346713 
L 105.596895 265.346713 
L 106.009417 265.076049 
L 106.83446 265.076049 
L 107.246982 265.346713 
L 108.484547 265.346713 
L 108.897068 265.707597 
L 109.722112 265.617376 
L 111.78472 265.707597 
L 112.609763 265.797818 
L 117.147501 265.797818 
L 117.560023 265.617376 
L 117.972545 265.617376 
L 118.385066 265.16627 
L 120.035153 265.16627 
L 120.447675 265.346713 
L 120.860196 265.346713 
L 121.272718 265.797818 
L 124.16037 265.797818 
L 124.985413 265.436934 
L 125.810456 265.436934 
L 126.222978 265.256491 
L 127.048021 265.256491 
L 127.873065 265.617376 
L 132.823324 265.527155 
L 133.235846 265.346713 
L 134.885933 265.256491 
L 135.298454 265.527155 
L 135.710976 265.527155 
L 136.123498 265.707597 
L 136.948541 265.617376 
L 139.011149 265.707597 
L 139.836193 265.797818 
L 140.661236 265.617376 
L 141.898801 264.895607 
L 143.136366 264.985828 
L 143.961409 265.256491 
L 144.786453 265.617376 
L 146.024018 265.527155 
L 146.849061 265.436934 
L 147.261583 265.527155 
L 147.674104 265.436934 
L 148.086626 264.985828 
L 148.499148 265.076049 
L 148.911669 264.895607 
L 150.561756 264.985828 
L 150.974277 265.256491 
L 152.211842 264.985828 
L 152.624364 264.624943 
L 153.036886 264.624943 
L 153.449407 264.35428 
L 154.686972 264.624943 
L 155.512016 265.256491 
L 155.924537 265.16627 
L 156.337059 265.527155 
L 156.749581 265.617376 
L 157.574624 265.346713 
L 158.399667 264.895607 
L 158.812189 264.805386 
L 159.224711 264.534722 
L 160.874797 264.444501 
L 162.937406 264.083617 
L 163.349927 264.444501 
L 163.762449 264.264059 
L 164.174971 264.35428 
L 164.587492 264.083617 
L 167.062622 264.083617 
L 167.475144 263.722732 
L 168.300187 256.865926 
L 168.712709 255.963715 
L 169.12523 255.873494 
L 169.950274 252.174428 
L 170.362795 249.287351 
L 170.775317 251.452658 
L 171.187839 252.264649 
L 171.60036 251.903764 
L 172.012882 248.926467 
L 172.425404 250.00912 
L 172.837925 250.099342 
L 173.250447 251.001553 
L 173.662969 251.452658 
L 174.07549 251.452658 
L 174.488012 252.35487 
L 174.900534 254.249514 
L 175.313055 254.610398 
L 176.138099 256.3246 
L 176.55062 256.234378 
L 176.963142 257.13659 
L 177.375664 256.865926 
L 177.788185 257.497474 
L 178.200707 257.317032 
L 178.613229 256.685484 
L 179.02575 257.768138 
L 179.438272 257.407253 
L 179.850794 258.309464 
L 180.263315 257.407253 
L 180.675837 257.13659 
L 181.088359 257.677916 
L 181.50088 257.317032 
L 181.913402 256.414821 
L 182.325924 253.527744 
L 182.738445 252.084206 
L 183.150967 252.715754 
L 183.563489 252.445091 
L 183.97601 251.903764 
L 184.388532 251.633101 
L 184.801053 251.723322 
L 185.213575 255.241946 
L 186.038618 254.971283 
L 186.45114 255.693052 
L 186.863662 255.512609 
L 187.276183 255.783273 
L 187.688705 255.693052 
L 188.101227 256.144157 
L 188.513748 254.610398 
L 188.92627 253.617966 
L 189.338792 253.076639 
L 189.751313 252.084206 
L 190.163835 252.35487 
L 190.576357 250.00912 
L 190.988878 249.106909 
L 191.4014 250.730889 
L 191.813922 249.467794 
L 192.226443 249.467794 
L 192.638965 249.918899 
L 193.051487 248.204698 
L 193.464008 249.467794 
L 194.289052 250.550447 
L 194.701573 252.35487 
L 195.114095 252.174428 
L 195.526617 252.896197 
L 196.35166 255.783273 
L 197.176703 257.497474 
L 197.589225 258.941012 
L 198.001747 259.662781 
L 198.414268 259.211676 
L 198.82679 258.941012 
L 199.239312 259.031233 
L 199.651833 258.941012 
L 200.064355 259.392118 
L 200.476877 259.392118 
L 200.889398 259.211676 
L 201.30192 258.850791 
L 201.714441 259.843224 
L 202.126963 257.317032 
L 202.539485 256.865926 
L 202.952006 255.422388 
L 203.77705 255.422388 
L 204.189571 256.234378 
L 204.602093 253.708187 
L 205.014615 256.234378 
L 205.427136 255.693052 
L 205.839658 256.053936 
L 206.25218 255.332167 
L 206.664701 255.693052 
L 207.077223 254.700619 
L 207.489745 257.226811 
L 208.314788 257.497474 
L 208.72731 258.309464 
L 209.139831 258.219243 
L 209.552353 257.587695 
L 209.964875 259.301897 
L 210.377396 258.941012 
L 211.20244 259.57256 
L 211.614961 259.392118 
L 212.027483 259.753002 
L 212.440005 259.753002 
L 212.852526 259.392118 
L 213.265048 259.753002 
L 213.67757 259.933445 
L 214.502613 258.941012 
L 214.915135 259.121455 
L 215.327656 259.482339 
L 215.740178 259.57256 
L 216.1527 258.850791 
L 216.565221 258.670349 
L 216.977743 258.309464 
L 217.390265 259.121455 
L 217.802786 257.587695 
L 218.215308 257.497474 
L 218.62783 256.956147 
L 219.040351 256.865926 
L 219.865394 257.858359 
L 220.277916 255.512609 
L 221.102959 256.414821 
L 221.515481 256.865926 
L 221.928003 254.79084 
L 222.340524 251.903764 
L 222.753046 250.550447 
L 223.165568 251.001553 
L 223.578089 250.460226 
L 223.990611 249.467794 
L 224.403133 248.926467 
L 225.228176 249.738457 
L 225.640698 250.460226 
L 226.053219 249.016688 
L 226.465741 250.460226 
L 226.878263 251.001553 
L 227.290784 250.00912 
L 227.703306 249.738457 
L 228.528349 248.475361 
L 228.940871 250.099342 
L 229.765914 246.580717 
L 230.178436 246.400275 
L 230.590958 246.400275 
L 231.003479 248.024256 
L 231.416001 245.137179 
L 232.241044 245.2274 
L 232.653566 241.347892 
L 233.066088 241.438113 
L 233.478609 240.535902 
L 233.891131 238.551037 
L 234.303653 240.084796 
L 234.716174 238.641258 
L 235.128696 236.656393 
L 235.541218 240.175017 
L 236.366261 242.520767 
L 236.778782 242.430545 
L 237.603826 245.94917 
L 238.016347 248.475361 
L 238.428869 249.558015 
L 238.841391 248.294919 
L 239.253912 250.099342 
L 239.666434 250.730889 
L 240.491477 250.099342 
L 240.903999 249.287351 
L 241.316521 249.016688 
L 241.729042 249.648236 
L 242.141564 246.219833 
L 242.554086 246.310054 
L 242.966607 246.219833 
L 243.379129 247.212265 
L 243.791651 247.753592 
L 244.204172 249.016688 
L 244.616694 249.467794 
L 245.029216 251.903764 
L 245.441737 253.076639 
L 245.854259 252.986418 
L 246.266781 251.54288 
L 246.679302 250.821111 
L 247.091824 251.001553 
L 247.504346 249.106909 
L 247.916867 248.024256 
L 248.329389 247.753592 
L 248.741911 248.746025 
L 249.154432 248.836246 
L 249.566954 250.099342 
L 250.391997 250.189563 
L 250.804519 250.189563 
L 252.042084 247.663371 
L 252.454606 247.031823 
L 252.867127 247.122044 
L 254.104692 251.993985 
L 254.517214 253.16686 
L 254.929735 255.693052 
L 255.342257 256.685484 
L 255.754779 256.414821 
L 256.1673 255.783273 
L 256.992344 257.317032 
L 257.404865 257.677916 
L 257.817387 257.046369 
L 258.229909 257.226811 
L 258.64243 257.587695 
L 259.054952 259.57256 
L 259.467474 260.655214 
L 259.879995 260.835656 
L 260.292517 261.376983 
L 260.705039 262.279194 
L 261.11756 262.910742 
L 261.942604 262.459636 
L 262.355125 263.000963 
L 263.180169 263.271627 
L 263.59269 263.091184 
L 264.417734 263.54229 
L 265.242777 263.181405 
L 265.655299 263.54229 
L 266.06782 263.54229 
L 266.480342 263.903174 
L 266.892864 263.812953 
L 267.305385 263.452069 
L 267.717907 263.812953 
L 268.955472 263.903174 
L 269.780515 264.264059 
L 271.01808 265.346713 
L 271.430602 265.436934 
L 272.255645 265.346713 
L 274.318253 265.436934 
L 274.730775 265.617376 
L 277.618427 265.707597 
L 278.44347 265.797818 
L 278.855992 265.707597 
L 279.268513 265.346713 
L 279.681035 265.16627 
L 281.743643 265.16627 
L 282.156165 265.617376 
L 282.981208 265.527155 
L 283.39373 265.527155 
L 283.806252 265.346713 
L 285.043817 265.256491 
L 285.456338 265.16627 
L 285.86886 264.715165 
L 286.281382 264.624943 
L 286.693903 264.805386 
L 287.106425 264.624943 
L 287.518947 264.264059 
L 288.34399 264.35428 
L 288.756511 264.444501 
L 289.169033 264.264059 
L 289.581555 263.361848 
L 289.994076 263.54229 
L 290.406598 263.993396 
L 290.81912 263.54229 
L 291.231641 263.361848 
L 292.056685 261.737867 
L 292.469206 261.828088 
L 292.881728 261.106319 
L 293.29425 260.835656 
L 293.706771 259.843224 
L 294.119293 258.038801 
L 294.531815 257.407253 
L 294.944336 257.677916 
L 295.356858 257.768138 
L 295.76938 257.226811 
L 296.181901 256.956147 
L 296.594423 256.956147 
L 297.006945 257.407253 
L 297.419466 256.144157 
L 297.831988 255.241946 
L 298.24451 254.700619 
L 298.657031 254.520177 
L 299.069553 254.79084 
L 299.482075 254.79084 
L 299.894596 252.174428 
L 301.132161 252.715754 
L 301.544683 253.076639 
L 301.957205 252.174428 
L 302.369726 252.084206 
L 302.782248 253.076639 
L 303.19477 252.986418 
L 304.019813 251.272216 
L 304.432335 251.001553 
L 305.257378 251.091774 
L 306.082421 254.339735 
L 306.494943 254.971283 
L 307.732508 257.94858 
L 308.557551 259.301897 
L 308.970073 259.482339 
L 309.382594 260.655214 
L 309.795116 261.196541 
L 310.207638 261.376983 
L 311.032681 261.467204 
L 311.445203 260.564993 
L 312.270246 261.647646 
L 312.682768 261.737867 
L 313.095289 261.647646 
L 313.507811 261.737867 
L 313.920333 262.008531 
L 314.332854 263.271627 
L 314.745376 262.820521 
L 315.157898 261.91831 
L 315.982941 262.459636 
L 316.395463 262.369415 
L 316.807984 261.91831 
L 317.220506 261.91831 
L 317.633028 262.279194 
L 318.045549 263.181405 
L 318.458071 262.549857 
L 318.870593 261.376983 
L 319.695636 260.38455 
L 320.108158 260.38455 
L 320.933201 258.670349 
L 321.345723 258.399686 
L 321.758244 258.489907 
L 322.170766 258.850791 
L 322.583288 257.497474 
L 322.995809 254.249514 
L 323.408331 253.888629 
L 323.820852 252.715754 
L 324.233374 252.445091 
L 324.645896 253.257081 
L 325.058417 253.347302 
L 325.470939 256.234378 
L 325.883461 257.858359 
L 326.295982 254.520177 
L 326.708504 253.708187 
L 327.121026 253.97885 
L 328.771112 245.317622 
L 329.183634 247.302486 
L 329.596156 245.94917 
L 330.008677 245.678506 
L 330.421199 246.580717 
L 330.833721 245.137179 
L 331.246242 242.430545 
L 331.658764 242.430545 
L 332.071286 240.355459 
L 332.483807 240.084796 
L 332.896329 238.911921 
L 333.308851 239.272806 
L 333.721372 233.679096 
L 334.133894 232.686663 
L 334.958937 229.799587 
L 335.371459 229.528924 
L 335.783981 228.987597 
L 336.196502 227.63428 
L 336.609024 230.070251 
L 337.021546 228.626713 
L 337.434067 226.190742 
L 337.846589 226.82229 
L 338.259111 226.190742 
L 339.084154 229.438703 
L 339.496676 229.528924 
L 339.909197 229.799587 
L 340.321719 231.152904 
L 340.73424 233.679096 
L 341.146762 234.671528 
L 341.971805 232.055115 
L 342.384327 237.378162 
L 342.796849 241.077229 
L 343.20937 243.242536 
L 343.621892 243.783862 
L 344.034414 245.498064 
L 344.446935 245.858948 
L 344.859457 247.302486 
L 345.271979 248.294919 
L 345.6845 248.475361 
L 346.097022 251.272216 
L 346.509544 251.723322 
L 346.922065 253.437523 
L 347.334587 255.693052 
L 347.747109 255.332167 
L 348.15963 254.249514 
L 348.572152 252.445091 
L 348.984674 249.738457 
L 349.809717 245.678506 
L 350.222239 245.678506 
L 350.63476 244.144747 
L 351.047282 243.60342 
L 352.284847 236.836835 
L 353.10989 234.671528 
L 353.522412 236.475951 
L 353.934934 231.694231 
L 354.347455 233.859538 
L 354.759977 234.03998 
L 355.172499 236.927057 
L 355.58502 237.107499 
L 355.997542 236.836835 
L 356.410064 236.38573 
L 356.822585 235.754182 
L 357.235107 231.152904 
L 357.647629 228.265828 
L 358.472672 217.25885 
L 358.885193 215.273985 
L 359.297715 207.785631 
L 359.710237 203.364796 
L 360.122758 197.590644 
L 360.947802 179.095312 
L 361.360323 175.215803 
L 361.772845 169.982978 
L 362.185367 170.794968 
L 363.01041 133.533641 
L 363.422932 130.105238 
L 363.835453 132.902093 
L 364.247975 120.090693 
L 365.073018 129.744354 
L 365.48554 124.150644 
L 365.898062 129.654133 
L 366.310583 129.293248 
L 366.723105 122.256 
L 367.135627 125.41374 
L 367.96067 116.391627 
L 368.785713 124.150644 
L 369.198235 124.962634 
L 370.023278 135.338064 
L 370.4358 132.992314 
L 370.848322 136.420717 
L 371.260843 144.360177 
L 371.673365 129.47369 
L 372.085887 129.293248 
L 372.91093 123.06799 
L 373.323452 129.834575 
L 373.735973 126.767057 
L 374.148495 135.78917 
L 374.561017 155.547597 
L 374.973538 159.517327 
L 375.38606 146.1646 
L 375.798581 145.172167 
L 376.211103 146.525484 
L 376.623625 151.668088 
L 377.86119 90.227499 
L 378.273711 105.745533 
L 378.686233 103.850889 
L 379.098755 104.392216 
L 379.511276 104.66288 
L 379.923798 91.490595 
L 380.33632 98.888727 
L 380.748841 100.151823 
L 381.161363 75.16057 
L 381.573885 72.453936 
L 381.986406 74.980128 
L 382.398928 74.799686 
L 382.81145 98.076737 
L 383.223971 89.235066 
L 383.636493 104.482437 
L 384.049015 108.632609 
L 384.874058 91.671037 
L 385.28658 92.302585 
L 385.699101 75.341012 
L 386.111623 69.296197 
L 386.524145 52.154182 
L 386.936666 57.206565 
L 387.76171 74.258359 
L 388.174231 75.16057 
L 388.586753 77.867204 
L 388.999275 71.371283 
L 389.411796 59.462093 
L 389.824318 66.589563 
L 390.23684 70.198408 
L 391.061883 70.198408 
L 391.474405 80.573838 
L 391.886926 106.557523 
L 392.299448 122.165779 
L 392.71197 120.361356 
L 393.124491 143.728629 
L 393.537013 143.728629 
L 393.949534 143.277523 
L 394.362056 174.674477 
L 394.774578 167.547007 
L 395.187099 176.839784 
L 395.599621 175.75713 
L 396.012143 160.509759 
L 396.424664 160.509759 
L 396.837186 160.960865 
L 397.249708 135.698948 
L 397.662229 147.337474 
L 398.487273 180.268187 
L 398.487273 180.268187 
" clip-path="url(#p738d35fd25)" style="fill: none; stroke: #1f77b4; stroke-width: 1.5; stroke-linecap: square"/>
   </g>
   <g id="patch_3">
    <path d="M 57.6 276.48 
L 57.6 41.472 
" style="fill: none; stroke: #000000; stroke-width: 0.8; stroke-linejoin: miter; stroke-linecap: square"/>
   </g>
   <g id="patch_4">
    <path d="M 414.72 276.48 
L 414.72 41.472 
" style="fill: none; stroke: #000000; stroke-width: 0.8; stroke-linejoin: miter; stroke-linecap: square"/>
   </g>
   <g id="patch_5">
    <path d="M 57.6 276.48 
L 414.72 276.48 
" style="fill: none; stroke: #000000; stroke-width: 0.8; stroke-linejoin: miter; stroke-linecap: square"/>
   </g>
   <g id="patch_6">
    <path d="M 57.6 41.472 
L 414.72 41.472 
" style="fill: none; stroke: #000000; stroke-width: 0.8; stroke-linejoin: miter; stroke-linecap: square"/>
   </g>
  </g>
  <g id="text_20">
   <!-- Inzidenzverlauf LK Altenkirchen -->
   <g transform="translate(88.519219 20.589187)scale(0.18 -0.18)">
    <defs>
     <path id="DejaVuSans-76" d="M 191 3500 
L 800 3500 
L 1894 563 
L 2988 3500 
L 3597 3500 
L 2284 0 
L 1503 0 
L 191 3500 
z
" transform="scale(0.015625)"/>
     <path id="DejaVuSans-6c" d="M 603 4863 
L 1178 4863 
L 1178 0 
L 603 0 
L 603 4863 
z
" transform="scale(0.015625)"/>
     <path id="DejaVuSans-75" d="M 544 1381 
L 544 3500 
L 1119 3500 
L 1119 1403 
Q 1119 906 1312 657 
Q 1506 409 1894 409 
Q 2359 409 2629 706 
Q 2900 1003 2900 1516 
L 2900 3500 
L 3475 3500 
L 3475 0 
L 2900 0 
L 2900 538 
Q 2691 219 2414 64 
Q 2138 -91 1772 -91 
Q 1169 -91 856 284 
Q 544 659 544 1381 
z
M 1991 3584 
L 1991 3584 
z
" transform="scale(0.015625)"/>
     <path id="DejaVuSans-66" d="M 2375 4863 
L 2375 4384 
L 1825 4384 
Q 1516 4384 1395 4259 
Q 1275 4134 1275 3809 
L 1275 3500 
L 2222 3500 
L 2222 3053 
L 1275 3053 
L 1275 0 
L 697 0 
L 697 3053 
L 147 3053 
L 147 3500 
L 697 3500 
L 697 3744 
Q 697 4328 969 4595 
Q 1241 4863 1831 4863 
L 2375 4863 
z
" transform="scale(0.015625)"/>
     <path id="DejaVuSans-4c" d="M 628 4666 
L 1259 4666 
L 1259 531 
L 3531 531 
L 3531 0 
L 628 0 
L 628 4666 
z
" transform="scale(0.015625)"/>
     <path id="DejaVuSans-4b" d="M 628 4666 
L 1259 4666 
L 1259 2694 
L 3353 4666 
L 4166 4666 
L 1850 2491 
L 4331 0 
L 3500 0 
L 1259 2247 
L 1259 0 
L 628 0 
L 628 4666 
z
" transform="scale(0.015625)"/>
     <path id="DejaVuSans-41" d="M 2188 4044 
L 1331 1722 
L 3047 1722 
L 2188 4044 
z
M 1831 4666 
L 2547 4666 
L 4325 0 
L 3669 0 
L 3244 1197 
L 1141 1197 
L 716 0 
L 50 0 
L 1831 4666 
z
" transform="scale(0.015625)"/>
     <path id="DejaVuSans-74" d="M 1172 4494 
L 1172 3500 
L 2356 3500 
L 2356 3053 
L 1172 3053 
L 1172 1153 
Q 1172 725 1289 603 
Q 1406 481 1766 481 
L 2356 481 
L 2356 0 
L 1766 0 
Q 1100 0 847 248 
Q 594 497 594 1153 
L 594 3053 
L 172 3053 
L 172 3500 
L 594 3500 
L 594 4494 
L 1172 4494 
z
" transform="scale(0.015625)"/>
     <path id="DejaVuSans-6b" d="M 581 4863 
L 1159 4863 
L 1159 1991 
L 2875 3500 
L 3609 3500 
L 1753 1863 
L 3688 0 
L 2938 0 
L 1159 1709 
L 1159 0 
L 581 0 
L 581 4863 
z
" transform="scale(0.015625)"/>
     <path id="DejaVuSans-63" d="M 3122 3366 
L 3122 2828 
Q 2878 2963 2633 3030 
Q 2388 3097 2138 3097 
Q 1578 3097 1268 2742 
Q 959 2388 959 1747 
Q 959 1106 1268 751 
Q 1578 397 2138 397 
Q 2388 397 2633 464 
Q 2878 531 3122 666 
L 3122 134 
Q 2881 22 2623 -34 
Q 2366 -91 2075 -91 
Q 1284 -91 818 406 
Q 353 903 353 1747 
Q 353 2603 823 3093 
Q 1294 3584 2113 3584 
Q 2378 3584 2631 3529 
Q 2884 3475 3122 3366 
z
" transform="scale(0.015625)"/>
    </defs>
    <use xlink:href="#DejaVuSans-49"/>
    <use xlink:href="#DejaVuSans-6e" x="29.492188"/>
    <use xlink:href="#DejaVuSans-7a" x="92.871094"/>
    <use xlink:href="#DejaVuSans-69" x="145.361328"/>
    <use xlink:href="#DejaVuSans-64" x="173.144531"/>
    <use xlink:href="#DejaVuSans-65" x="236.621094"/>
    <use xlink:href="#DejaVuSans-6e" x="298.144531"/>
    <use xlink:href="#DejaVuSans-7a" x="361.523438"/>
    <use xlink:href="#DejaVuSans-76" x="414.013672"/>
    <use xlink:href="#DejaVuSans-65" x="473.193359"/>
    <use xlink:href="#DejaVuSans-72" x="534.716797"/>
    <use xlink:href="#DejaVuSans-6c" x="575.830078"/>
    <use xlink:href="#DejaVuSans-61" x="603.613281"/>
    <use xlink:href="#DejaVuSans-75" x="664.892578"/>
    <use xlink:href="#DejaVuSans-66" x="728.271484"/>
    <use xlink:href="#DejaVuSans-20" x="763.476562"/>
    <use xlink:href="#DejaVuSans-4c" x="795.263672"/>
    <use xlink:href="#DejaVuSans-4b" x="850.976562"/>
    <use xlink:href="#DejaVuSans-20" x="916.552734"/>
    <use xlink:href="#DejaVuSans-41" x="948.339844"/>
    <use xlink:href="#DejaVuSans-6c" x="1016.748047"/>
    <use xlink:href="#DejaVuSans-74" x="1044.53125"/>
    <use xlink:href="#DejaVuSans-65" x="1083.740234"/>
    <use xlink:href="#DejaVuSans-6e" x="1145.263672"/>
    <use xlink:href="#DejaVuSans-6b" x="1208.642578"/>
    <use xlink:href="#DejaVuSans-69" x="1266.552734"/>
    <use xlink:href="#DejaVuSans-72" x="1294.335938"/>
    <use xlink:href="#DejaVuSans-63" x="1333.199219"/>
    <use xlink:href="#DejaVuSans-68" x="1388.179688"/>
    <use xlink:href="#DejaVuSans-65" x="1451.558594"/>
    <use xlink:href="#DejaVuSans-6e" x="1513.082031"/>
   </g>
  </g>
 </g>
 <defs>
  <clipPath id="p738d35fd25">
   <rect x="57.6" y="41.472" width="357.12" height="235.008"/>
  </clipPath>
 </defs>
</svg>
