<?xml version="1.0" encoding="utf-8" standalone="no"?>
<!DOCTYPE svg PUBLIC "-//W3C//DTD SVG 1.1//EN"
  "http://www.w3.org/Graphics/SVG/1.1/DTD/svg11.dtd">
<svg xmlns:xlink="http://www.w3.org/1999/xlink" width="460.8pt" height="345.6pt" viewBox="0 0 460.8 345.6" xmlns="http://www.w3.org/2000/svg" version="1.1">
 <metadata>
  <rdf:RDF xmlns:dc="http://purl.org/dc/elements/1.1/" xmlns:cc="http://creativecommons.org/ns#" xmlns:rdf="http://www.w3.org/1999/02/22-rdf-syntax-ns#">
   <cc:Work>
    <dc:type rdf:resource="http://purl.org/dc/dcmitype/StillImage"/>
    <dc:date>2022-11-01T09:30:27.444707</dc:date>
    <dc:format>image/svg+xml</dc:format>
    <dc:creator>
     <cc:Agent>
      <dc:title>Matplotlib v3.6.1, https://matplotlib.org/</dc:title>
     </cc:Agent>
    </dc:creator>
   </cc:Work>
  </rdf:RDF>
 </metadata>
 <defs>
  <style type="text/css">*{stroke-linejoin: round; stroke-linecap: butt}</style>
 </defs>
 <g id="figure_1">
  <g id="patch_1">
   <path d="M 0 345.6 
L 460.8 345.6 
L 460.8 0 
L 0 0 
z
" style="fill: #ffffff"/>
  </g>
  <g id="axes_1">
   <g id="patch_2">
    <path d="M 57.6 276.48 
L 414.72 276.48 
L 414.72 41.472 
L 57.6 41.472 
z
" style="fill: #ffffff"/>
   </g>
   <g id="matplotlib.axis_1">
    <g id="xtick_1">
     <g id="line2d_1">
      <path d="M 60.917171 276.48 
L 60.917171 41.472 
" clip-path="url(#p3823d96112)" style="fill: none; stroke-dasharray: 2.96,1.28; stroke-dashoffset: 0; stroke: #808080; stroke-width: 0.8"/>
     </g>
     <g id="line2d_2">
      <defs>
       <path id="m564be37730" d="M 0 0 
L 0 3.5 
" style="stroke: #000000; stroke-width: 0.8"/>
      </defs>
      <g>
       <use xlink:href="#m564be37730" x="60.917171" y="276.48" style="stroke: #000000; stroke-width: 0.8"/>
      </g>
     </g>
     <g id="text_1">
      <!-- 24.01.2020 -->
      <g transform="translate(10.29196 318.688565) rotate(-30) scale(0.1 -0.1)">
       <defs>
        <path id="DejaVuSans-32" d="M 1228 531 
L 3431 531 
L 3431 0 
L 469 0 
L 469 531 
Q 828 903 1448 1529 
Q 2069 2156 2228 2338 
Q 2531 2678 2651 2914 
Q 2772 3150 2772 3378 
Q 2772 3750 2511 3984 
Q 2250 4219 1831 4219 
Q 1534 4219 1204 4116 
Q 875 4013 500 3803 
L 500 4441 
Q 881 4594 1212 4672 
Q 1544 4750 1819 4750 
Q 2544 4750 2975 4387 
Q 3406 4025 3406 3419 
Q 3406 3131 3298 2873 
Q 3191 2616 2906 2266 
Q 2828 2175 2409 1742 
Q 1991 1309 1228 531 
z
" transform="scale(0.015625)"/>
        <path id="DejaVuSans-34" d="M 2419 4116 
L 825 1625 
L 2419 1625 
L 2419 4116 
z
M 2253 4666 
L 3047 4666 
L 3047 1625 
L 3713 1625 
L 3713 1100 
L 3047 1100 
L 3047 0 
L 2419 0 
L 2419 1100 
L 313 1100 
L 313 1709 
L 2253 4666 
z
" transform="scale(0.015625)"/>
        <path id="DejaVuSans-2e" d="M 684 794 
L 1344 794 
L 1344 0 
L 684 0 
L 684 794 
z
" transform="scale(0.015625)"/>
        <path id="DejaVuSans-30" d="M 2034 4250 
Q 1547 4250 1301 3770 
Q 1056 3291 1056 2328 
Q 1056 1369 1301 889 
Q 1547 409 2034 409 
Q 2525 409 2770 889 
Q 3016 1369 3016 2328 
Q 3016 3291 2770 3770 
Q 2525 4250 2034 4250 
z
M 2034 4750 
Q 2819 4750 3233 4129 
Q 3647 3509 3647 2328 
Q 3647 1150 3233 529 
Q 2819 -91 2034 -91 
Q 1250 -91 836 529 
Q 422 1150 422 2328 
Q 422 3509 836 4129 
Q 1250 4750 2034 4750 
z
" transform="scale(0.015625)"/>
        <path id="DejaVuSans-31" d="M 794 531 
L 1825 531 
L 1825 4091 
L 703 3866 
L 703 4441 
L 1819 4666 
L 2450 4666 
L 2450 531 
L 3481 531 
L 3481 0 
L 794 0 
L 794 531 
z
" transform="scale(0.015625)"/>
       </defs>
       <use xlink:href="#DejaVuSans-32"/>
       <use xlink:href="#DejaVuSans-34" x="63.623047"/>
       <use xlink:href="#DejaVuSans-2e" x="127.246094"/>
       <use xlink:href="#DejaVuSans-30" x="159.033203"/>
       <use xlink:href="#DejaVuSans-31" x="222.65625"/>
       <use xlink:href="#DejaVuSans-2e" x="286.279297"/>
       <use xlink:href="#DejaVuSans-32" x="318.066406"/>
       <use xlink:href="#DejaVuSans-30" x="381.689453"/>
       <use xlink:href="#DejaVuSans-32" x="445.3125"/>
       <use xlink:href="#DejaVuSans-30" x="508.935547"/>
      </g>
     </g>
    </g>
    <g id="xtick_2">
     <g id="line2d_3">
      <path d="M 96.952824 276.48 
L 96.952824 41.472 
" clip-path="url(#p3823d96112)" style="fill: none; stroke-dasharray: 2.96,1.28; stroke-dashoffset: 0; stroke: #808080; stroke-width: 0.8"/>
     </g>
     <g id="line2d_4">
      <g>
       <use xlink:href="#m564be37730" x="96.952824" y="276.48" style="stroke: #000000; stroke-width: 0.8"/>
      </g>
     </g>
     <g id="text_2">
      <!-- 11.05.2020 -->
      <g transform="translate(46.327614 318.688565) rotate(-30) scale(0.1 -0.1)">
       <defs>
        <path id="DejaVuSans-35" d="M 691 4666 
L 3169 4666 
L 3169 4134 
L 1269 4134 
L 1269 2991 
Q 1406 3038 1543 3061 
Q 1681 3084 1819 3084 
Q 2600 3084 3056 2656 
Q 3513 2228 3513 1497 
Q 3513 744 3044 326 
Q 2575 -91 1722 -91 
Q 1428 -91 1123 -41 
Q 819 9 494 109 
L 494 744 
Q 775 591 1075 516 
Q 1375 441 1709 441 
Q 2250 441 2565 725 
Q 2881 1009 2881 1497 
Q 2881 1984 2565 2268 
Q 2250 2553 1709 2553 
Q 1456 2553 1204 2497 
Q 953 2441 691 2322 
L 691 4666 
z
" transform="scale(0.015625)"/>
       </defs>
       <use xlink:href="#DejaVuSans-31"/>
       <use xlink:href="#DejaVuSans-31" x="63.623047"/>
       <use xlink:href="#DejaVuSans-2e" x="127.246094"/>
       <use xlink:href="#DejaVuSans-30" x="159.033203"/>
       <use xlink:href="#DejaVuSans-35" x="222.65625"/>
       <use xlink:href="#DejaVuSans-2e" x="286.279297"/>
       <use xlink:href="#DejaVuSans-32" x="318.066406"/>
       <use xlink:href="#DejaVuSans-30" x="381.689453"/>
       <use xlink:href="#DejaVuSans-32" x="445.3125"/>
       <use xlink:href="#DejaVuSans-30" x="508.935547"/>
      </g>
     </g>
    </g>
    <g id="xtick_3">
     <g id="line2d_5">
      <path d="M 132.988478 276.48 
L 132.988478 41.472 
" clip-path="url(#p3823d96112)" style="fill: none; stroke-dasharray: 2.96,1.28; stroke-dashoffset: 0; stroke: #808080; stroke-width: 0.8"/>
     </g>
     <g id="line2d_6">
      <g>
       <use xlink:href="#m564be37730" x="132.988478" y="276.48" style="stroke: #000000; stroke-width: 0.8"/>
      </g>
     </g>
     <g id="text_3">
      <!-- 27.08.2020 -->
      <g transform="translate(82.363267 318.688565) rotate(-30) scale(0.1 -0.1)">
       <defs>
        <path id="DejaVuSans-37" d="M 525 4666 
L 3525 4666 
L 3525 4397 
L 1831 0 
L 1172 0 
L 2766 4134 
L 525 4134 
L 525 4666 
z
" transform="scale(0.015625)"/>
        <path id="DejaVuSans-38" d="M 2034 2216 
Q 1584 2216 1326 1975 
Q 1069 1734 1069 1313 
Q 1069 891 1326 650 
Q 1584 409 2034 409 
Q 2484 409 2743 651 
Q 3003 894 3003 1313 
Q 3003 1734 2745 1975 
Q 2488 2216 2034 2216 
z
M 1403 2484 
Q 997 2584 770 2862 
Q 544 3141 544 3541 
Q 544 4100 942 4425 
Q 1341 4750 2034 4750 
Q 2731 4750 3128 4425 
Q 3525 4100 3525 3541 
Q 3525 3141 3298 2862 
Q 3072 2584 2669 2484 
Q 3125 2378 3379 2068 
Q 3634 1759 3634 1313 
Q 3634 634 3220 271 
Q 2806 -91 2034 -91 
Q 1263 -91 848 271 
Q 434 634 434 1313 
Q 434 1759 690 2068 
Q 947 2378 1403 2484 
z
M 1172 3481 
Q 1172 3119 1398 2916 
Q 1625 2713 2034 2713 
Q 2441 2713 2670 2916 
Q 2900 3119 2900 3481 
Q 2900 3844 2670 4047 
Q 2441 4250 2034 4250 
Q 1625 4250 1398 4047 
Q 1172 3844 1172 3481 
z
" transform="scale(0.015625)"/>
       </defs>
       <use xlink:href="#DejaVuSans-32"/>
       <use xlink:href="#DejaVuSans-37" x="63.623047"/>
       <use xlink:href="#DejaVuSans-2e" x="127.246094"/>
       <use xlink:href="#DejaVuSans-30" x="159.033203"/>
       <use xlink:href="#DejaVuSans-38" x="222.65625"/>
       <use xlink:href="#DejaVuSans-2e" x="286.279297"/>
       <use xlink:href="#DejaVuSans-32" x="318.066406"/>
       <use xlink:href="#DejaVuSans-30" x="381.689453"/>
       <use xlink:href="#DejaVuSans-32" x="445.3125"/>
       <use xlink:href="#DejaVuSans-30" x="508.935547"/>
      </g>
     </g>
    </g>
    <g id="xtick_4">
     <g id="line2d_7">
      <path d="M 169.024132 276.48 
L 169.024132 41.472 
" clip-path="url(#p3823d96112)" style="fill: none; stroke-dasharray: 2.96,1.28; stroke-dashoffset: 0; stroke: #808080; stroke-width: 0.8"/>
     </g>
     <g id="line2d_8">
      <g>
       <use xlink:href="#m564be37730" x="169.024132" y="276.48" style="stroke: #000000; stroke-width: 0.8"/>
      </g>
     </g>
     <g id="text_4">
      <!-- 13.12.2020 -->
      <g transform="translate(118.398921 318.688565) rotate(-30) scale(0.1 -0.1)">
       <defs>
        <path id="DejaVuSans-33" d="M 2597 2516 
Q 3050 2419 3304 2112 
Q 3559 1806 3559 1356 
Q 3559 666 3084 287 
Q 2609 -91 1734 -91 
Q 1441 -91 1130 -33 
Q 819 25 488 141 
L 488 750 
Q 750 597 1062 519 
Q 1375 441 1716 441 
Q 2309 441 2620 675 
Q 2931 909 2931 1356 
Q 2931 1769 2642 2001 
Q 2353 2234 1838 2234 
L 1294 2234 
L 1294 2753 
L 1863 2753 
Q 2328 2753 2575 2939 
Q 2822 3125 2822 3475 
Q 2822 3834 2567 4026 
Q 2313 4219 1838 4219 
Q 1578 4219 1281 4162 
Q 984 4106 628 3988 
L 628 4550 
Q 988 4650 1302 4700 
Q 1616 4750 1894 4750 
Q 2613 4750 3031 4423 
Q 3450 4097 3450 3541 
Q 3450 3153 3228 2886 
Q 3006 2619 2597 2516 
z
" transform="scale(0.015625)"/>
       </defs>
       <use xlink:href="#DejaVuSans-31"/>
       <use xlink:href="#DejaVuSans-33" x="63.623047"/>
       <use xlink:href="#DejaVuSans-2e" x="127.246094"/>
       <use xlink:href="#DejaVuSans-31" x="159.033203"/>
       <use xlink:href="#DejaVuSans-32" x="222.65625"/>
       <use xlink:href="#DejaVuSans-2e" x="286.279297"/>
       <use xlink:href="#DejaVuSans-32" x="318.066406"/>
       <use xlink:href="#DejaVuSans-30" x="381.689453"/>
       <use xlink:href="#DejaVuSans-32" x="445.3125"/>
       <use xlink:href="#DejaVuSans-30" x="508.935547"/>
      </g>
     </g>
    </g>
    <g id="xtick_5">
     <g id="line2d_9">
      <path d="M 205.059785 276.48 
L 205.059785 41.472 
" clip-path="url(#p3823d96112)" style="fill: none; stroke-dasharray: 2.96,1.28; stroke-dashoffset: 0; stroke: #808080; stroke-width: 0.8"/>
     </g>
     <g id="line2d_10">
      <g>
       <use xlink:href="#m564be37730" x="205.059785" y="276.48" style="stroke: #000000; stroke-width: 0.8"/>
      </g>
     </g>
     <g id="text_5">
      <!-- 31.03.2021 -->
      <g transform="translate(154.434574 318.688565) rotate(-30) scale(0.1 -0.1)">
       <use xlink:href="#DejaVuSans-33"/>
       <use xlink:href="#DejaVuSans-31" x="63.623047"/>
       <use xlink:href="#DejaVuSans-2e" x="127.246094"/>
       <use xlink:href="#DejaVuSans-30" x="159.033203"/>
       <use xlink:href="#DejaVuSans-33" x="222.65625"/>
       <use xlink:href="#DejaVuSans-2e" x="286.279297"/>
       <use xlink:href="#DejaVuSans-32" x="318.066406"/>
       <use xlink:href="#DejaVuSans-30" x="381.689453"/>
       <use xlink:href="#DejaVuSans-32" x="445.3125"/>
       <use xlink:href="#DejaVuSans-31" x="508.935547"/>
      </g>
     </g>
    </g>
    <g id="xtick_6">
     <g id="line2d_11">
      <path d="M 241.095439 276.48 
L 241.095439 41.472 
" clip-path="url(#p3823d96112)" style="fill: none; stroke-dasharray: 2.96,1.28; stroke-dashoffset: 0; stroke: #808080; stroke-width: 0.8"/>
     </g>
     <g id="line2d_12">
      <g>
       <use xlink:href="#m564be37730" x="241.095439" y="276.48" style="stroke: #000000; stroke-width: 0.8"/>
      </g>
     </g>
     <g id="text_6">
      <!-- 17.07.2021 -->
      <g transform="translate(190.470228 318.688565) rotate(-30) scale(0.1 -0.1)">
       <use xlink:href="#DejaVuSans-31"/>
       <use xlink:href="#DejaVuSans-37" x="63.623047"/>
       <use xlink:href="#DejaVuSans-2e" x="127.246094"/>
       <use xlink:href="#DejaVuSans-30" x="159.033203"/>
       <use xlink:href="#DejaVuSans-37" x="222.65625"/>
       <use xlink:href="#DejaVuSans-2e" x="286.279297"/>
       <use xlink:href="#DejaVuSans-32" x="318.066406"/>
       <use xlink:href="#DejaVuSans-30" x="381.689453"/>
       <use xlink:href="#DejaVuSans-32" x="445.3125"/>
       <use xlink:href="#DejaVuSans-31" x="508.935547"/>
      </g>
     </g>
    </g>
    <g id="xtick_7">
     <g id="line2d_13">
      <path d="M 277.131092 276.48 
L 277.131092 41.472 
" clip-path="url(#p3823d96112)" style="fill: none; stroke-dasharray: 2.96,1.28; stroke-dashoffset: 0; stroke: #808080; stroke-width: 0.8"/>
     </g>
     <g id="line2d_14">
      <g>
       <use xlink:href="#m564be37730" x="277.131092" y="276.48" style="stroke: #000000; stroke-width: 0.8"/>
      </g>
     </g>
     <g id="text_7">
      <!-- 02.11.2021 -->
      <g transform="translate(226.505881 318.688565) rotate(-30) scale(0.1 -0.1)">
       <use xlink:href="#DejaVuSans-30"/>
       <use xlink:href="#DejaVuSans-32" x="63.623047"/>
       <use xlink:href="#DejaVuSans-2e" x="127.246094"/>
       <use xlink:href="#DejaVuSans-31" x="159.033203"/>
       <use xlink:href="#DejaVuSans-31" x="222.65625"/>
       <use xlink:href="#DejaVuSans-2e" x="286.279297"/>
       <use xlink:href="#DejaVuSans-32" x="318.066406"/>
       <use xlink:href="#DejaVuSans-30" x="381.689453"/>
       <use xlink:href="#DejaVuSans-32" x="445.3125"/>
       <use xlink:href="#DejaVuSans-31" x="508.935547"/>
      </g>
     </g>
    </g>
    <g id="xtick_8">
     <g id="line2d_15">
      <path d="M 313.166746 276.48 
L 313.166746 41.472 
" clip-path="url(#p3823d96112)" style="fill: none; stroke-dasharray: 2.96,1.28; stroke-dashoffset: 0; stroke: #808080; stroke-width: 0.8"/>
     </g>
     <g id="line2d_16">
      <g>
       <use xlink:href="#m564be37730" x="313.166746" y="276.48" style="stroke: #000000; stroke-width: 0.8"/>
      </g>
     </g>
     <g id="text_8">
      <!-- 18.02.2022 -->
      <g transform="translate(262.541535 318.688565) rotate(-30) scale(0.1 -0.1)">
       <use xlink:href="#DejaVuSans-31"/>
       <use xlink:href="#DejaVuSans-38" x="63.623047"/>
       <use xlink:href="#DejaVuSans-2e" x="127.246094"/>
       <use xlink:href="#DejaVuSans-30" x="159.033203"/>
       <use xlink:href="#DejaVuSans-32" x="222.65625"/>
       <use xlink:href="#DejaVuSans-2e" x="286.279297"/>
       <use xlink:href="#DejaVuSans-32" x="318.066406"/>
       <use xlink:href="#DejaVuSans-30" x="381.689453"/>
       <use xlink:href="#DejaVuSans-32" x="445.3125"/>
       <use xlink:href="#DejaVuSans-32" x="508.935547"/>
      </g>
     </g>
    </g>
    <g id="xtick_9">
     <g id="line2d_17">
      <path d="M 349.202399 276.48 
L 349.202399 41.472 
" clip-path="url(#p3823d96112)" style="fill: none; stroke-dasharray: 2.96,1.28; stroke-dashoffset: 0; stroke: #808080; stroke-width: 0.8"/>
     </g>
     <g id="line2d_18">
      <g>
       <use xlink:href="#m564be37730" x="349.202399" y="276.48" style="stroke: #000000; stroke-width: 0.8"/>
      </g>
     </g>
     <g id="text_9">
      <!-- 06.06.2022 -->
      <g transform="translate(298.577189 318.688565) rotate(-30) scale(0.1 -0.1)">
       <defs>
        <path id="DejaVuSans-36" d="M 2113 2584 
Q 1688 2584 1439 2293 
Q 1191 2003 1191 1497 
Q 1191 994 1439 701 
Q 1688 409 2113 409 
Q 2538 409 2786 701 
Q 3034 994 3034 1497 
Q 3034 2003 2786 2293 
Q 2538 2584 2113 2584 
z
M 3366 4563 
L 3366 3988 
Q 3128 4100 2886 4159 
Q 2644 4219 2406 4219 
Q 1781 4219 1451 3797 
Q 1122 3375 1075 2522 
Q 1259 2794 1537 2939 
Q 1816 3084 2150 3084 
Q 2853 3084 3261 2657 
Q 3669 2231 3669 1497 
Q 3669 778 3244 343 
Q 2819 -91 2113 -91 
Q 1303 -91 875 529 
Q 447 1150 447 2328 
Q 447 3434 972 4092 
Q 1497 4750 2381 4750 
Q 2619 4750 2861 4703 
Q 3103 4656 3366 4563 
z
" transform="scale(0.015625)"/>
       </defs>
       <use xlink:href="#DejaVuSans-30"/>
       <use xlink:href="#DejaVuSans-36" x="63.623047"/>
       <use xlink:href="#DejaVuSans-2e" x="127.246094"/>
       <use xlink:href="#DejaVuSans-30" x="159.033203"/>
       <use xlink:href="#DejaVuSans-36" x="222.65625"/>
       <use xlink:href="#DejaVuSans-2e" x="286.279297"/>
       <use xlink:href="#DejaVuSans-32" x="318.066406"/>
       <use xlink:href="#DejaVuSans-30" x="381.689453"/>
       <use xlink:href="#DejaVuSans-32" x="445.3125"/>
       <use xlink:href="#DejaVuSans-32" x="508.935547"/>
      </g>
     </g>
    </g>
    <g id="xtick_10">
     <g id="line2d_19">
      <path d="M 385.238053 276.48 
L 385.238053 41.472 
" clip-path="url(#p3823d96112)" style="fill: none; stroke-dasharray: 2.96,1.28; stroke-dashoffset: 0; stroke: #808080; stroke-width: 0.8"/>
     </g>
     <g id="line2d_20">
      <g>
       <use xlink:href="#m564be37730" x="385.238053" y="276.48" style="stroke: #000000; stroke-width: 0.8"/>
      </g>
     </g>
     <g id="text_10">
      <!-- 22.09.2022 -->
      <g transform="translate(334.612842 318.688565) rotate(-30) scale(0.1 -0.1)">
       <defs>
        <path id="DejaVuSans-39" d="M 703 97 
L 703 672 
Q 941 559 1184 500 
Q 1428 441 1663 441 
Q 2288 441 2617 861 
Q 2947 1281 2994 2138 
Q 2813 1869 2534 1725 
Q 2256 1581 1919 1581 
Q 1219 1581 811 2004 
Q 403 2428 403 3163 
Q 403 3881 828 4315 
Q 1253 4750 1959 4750 
Q 2769 4750 3195 4129 
Q 3622 3509 3622 2328 
Q 3622 1225 3098 567 
Q 2575 -91 1691 -91 
Q 1453 -91 1209 -44 
Q 966 3 703 97 
z
M 1959 2075 
Q 2384 2075 2632 2365 
Q 2881 2656 2881 3163 
Q 2881 3666 2632 3958 
Q 2384 4250 1959 4250 
Q 1534 4250 1286 3958 
Q 1038 3666 1038 3163 
Q 1038 2656 1286 2365 
Q 1534 2075 1959 2075 
z
" transform="scale(0.015625)"/>
       </defs>
       <use xlink:href="#DejaVuSans-32"/>
       <use xlink:href="#DejaVuSans-32" x="63.623047"/>
       <use xlink:href="#DejaVuSans-2e" x="127.246094"/>
       <use xlink:href="#DejaVuSans-30" x="159.033203"/>
       <use xlink:href="#DejaVuSans-39" x="222.65625"/>
       <use xlink:href="#DejaVuSans-2e" x="286.279297"/>
       <use xlink:href="#DejaVuSans-32" x="318.066406"/>
       <use xlink:href="#DejaVuSans-30" x="381.689453"/>
       <use xlink:href="#DejaVuSans-32" x="445.3125"/>
       <use xlink:href="#DejaVuSans-32" x="508.935547"/>
      </g>
     </g>
    </g>
   </g>
   <g id="matplotlib.axis_2">
    <g id="ytick_1">
     <g id="line2d_21">
      <path d="M 57.6 265.797818 
L 414.72 265.797818 
" clip-path="url(#p3823d96112)" style="fill: none; stroke-dasharray: 2.96,1.28; stroke-dashoffset: 0; stroke: #808080; stroke-width: 0.8"/>
     </g>
     <g id="line2d_22">
      <defs>
       <path id="maec888c316" d="M 0 0 
L -3.5 0 
" style="stroke: #000000; stroke-width: 0.8"/>
      </defs>
      <g>
       <use xlink:href="#maec888c316" x="57.6" y="265.797818" style="stroke: #000000; stroke-width: 0.8"/>
      </g>
     </g>
     <g id="text_11">
      <!-- 0 -->
      <g transform="translate(44.2375 269.597037) scale(0.1 -0.1)">
       <use xlink:href="#DejaVuSans-30"/>
      </g>
     </g>
    </g>
    <g id="ytick_2">
     <g id="line2d_23">
      <path d="M 57.6 231.625868 
L 414.72 231.625868 
" clip-path="url(#p3823d96112)" style="fill: none; stroke-dasharray: 2.96,1.28; stroke-dashoffset: 0; stroke: #808080; stroke-width: 0.8"/>
     </g>
     <g id="line2d_24">
      <g>
       <use xlink:href="#maec888c316" x="57.6" y="231.625868" style="stroke: #000000; stroke-width: 0.8"/>
      </g>
     </g>
     <g id="text_12">
      <!-- 500 -->
      <g transform="translate(31.5125 235.425087) scale(0.1 -0.1)">
       <use xlink:href="#DejaVuSans-35"/>
       <use xlink:href="#DejaVuSans-30" x="63.623047"/>
       <use xlink:href="#DejaVuSans-30" x="127.246094"/>
      </g>
     </g>
    </g>
    <g id="ytick_3">
     <g id="line2d_25">
      <path d="M 57.6 197.453918 
L 414.72 197.453918 
" clip-path="url(#p3823d96112)" style="fill: none; stroke-dasharray: 2.96,1.28; stroke-dashoffset: 0; stroke: #808080; stroke-width: 0.8"/>
     </g>
     <g id="line2d_26">
      <g>
       <use xlink:href="#maec888c316" x="57.6" y="197.453918" style="stroke: #000000; stroke-width: 0.8"/>
      </g>
     </g>
     <g id="text_13">
      <!-- 1000 -->
      <g transform="translate(25.15 201.253136) scale(0.1 -0.1)">
       <use xlink:href="#DejaVuSans-31"/>
       <use xlink:href="#DejaVuSans-30" x="63.623047"/>
       <use xlink:href="#DejaVuSans-30" x="127.246094"/>
       <use xlink:href="#DejaVuSans-30" x="190.869141"/>
      </g>
     </g>
    </g>
    <g id="ytick_4">
     <g id="line2d_27">
      <path d="M 57.6 163.281967 
L 414.72 163.281967 
" clip-path="url(#p3823d96112)" style="fill: none; stroke-dasharray: 2.96,1.28; stroke-dashoffset: 0; stroke: #808080; stroke-width: 0.8"/>
     </g>
     <g id="line2d_28">
      <g>
       <use xlink:href="#maec888c316" x="57.6" y="163.281967" style="stroke: #000000; stroke-width: 0.8"/>
      </g>
     </g>
     <g id="text_14">
      <!-- 1500 -->
      <g transform="translate(25.15 167.081186) scale(0.1 -0.1)">
       <use xlink:href="#DejaVuSans-31"/>
       <use xlink:href="#DejaVuSans-35" x="63.623047"/>
       <use xlink:href="#DejaVuSans-30" x="127.246094"/>
       <use xlink:href="#DejaVuSans-30" x="190.869141"/>
      </g>
     </g>
    </g>
    <g id="ytick_5">
     <g id="line2d_29">
      <path d="M 57.6 129.110017 
L 414.72 129.110017 
" clip-path="url(#p3823d96112)" style="fill: none; stroke-dasharray: 2.96,1.28; stroke-dashoffset: 0; stroke: #808080; stroke-width: 0.8"/>
     </g>
     <g id="line2d_30">
      <g>
       <use xlink:href="#maec888c316" x="57.6" y="129.110017" style="stroke: #000000; stroke-width: 0.8"/>
      </g>
     </g>
     <g id="text_15">
      <!-- 2000 -->
      <g transform="translate(25.15 132.909236) scale(0.1 -0.1)">
       <use xlink:href="#DejaVuSans-32"/>
       <use xlink:href="#DejaVuSans-30" x="63.623047"/>
       <use xlink:href="#DejaVuSans-30" x="127.246094"/>
       <use xlink:href="#DejaVuSans-30" x="190.869141"/>
      </g>
     </g>
    </g>
    <g id="ytick_6">
     <g id="line2d_31">
      <path d="M 57.6 94.938067 
L 414.72 94.938067 
" clip-path="url(#p3823d96112)" style="fill: none; stroke-dasharray: 2.96,1.28; stroke-dashoffset: 0; stroke: #808080; stroke-width: 0.8"/>
     </g>
     <g id="line2d_32">
      <g>
       <use xlink:href="#maec888c316" x="57.6" y="94.938067" style="stroke: #000000; stroke-width: 0.8"/>
      </g>
     </g>
     <g id="text_16">
      <!-- 2500 -->
      <g transform="translate(25.15 98.737285) scale(0.1 -0.1)">
       <use xlink:href="#DejaVuSans-32"/>
       <use xlink:href="#DejaVuSans-35" x="63.623047"/>
       <use xlink:href="#DejaVuSans-30" x="127.246094"/>
       <use xlink:href="#DejaVuSans-30" x="190.869141"/>
      </g>
     </g>
    </g>
    <g id="ytick_7">
     <g id="line2d_33">
      <path d="M 57.6 60.766116 
L 414.72 60.766116 
" clip-path="url(#p3823d96112)" style="fill: none; stroke-dasharray: 2.96,1.28; stroke-dashoffset: 0; stroke: #808080; stroke-width: 0.8"/>
     </g>
     <g id="line2d_34">
      <g>
       <use xlink:href="#maec888c316" x="57.6" y="60.766116" style="stroke: #000000; stroke-width: 0.8"/>
      </g>
     </g>
     <g id="text_17">
      <!-- 3000 -->
      <g transform="translate(25.15 64.565335) scale(0.1 -0.1)">
       <use xlink:href="#DejaVuSans-33"/>
       <use xlink:href="#DejaVuSans-30" x="63.623047"/>
       <use xlink:href="#DejaVuSans-30" x="127.246094"/>
       <use xlink:href="#DejaVuSans-30" x="190.869141"/>
      </g>
     </g>
    </g>
    <g id="text_18">
     <!-- Inzidenz pro 7 Tage pro 100.000 Einwohner -->
     <g transform="translate(19.070312 267.301) rotate(-90) scale(0.1 -0.1)">
      <defs>
       <path id="DejaVuSans-49" d="M 628 4666 
L 1259 4666 
L 1259 0 
L 628 0 
L 628 4666 
z
" transform="scale(0.015625)"/>
       <path id="DejaVuSans-6e" d="M 3513 2113 
L 3513 0 
L 2938 0 
L 2938 2094 
Q 2938 2591 2744 2837 
Q 2550 3084 2163 3084 
Q 1697 3084 1428 2787 
Q 1159 2491 1159 1978 
L 1159 0 
L 581 0 
L 581 3500 
L 1159 3500 
L 1159 2956 
Q 1366 3272 1645 3428 
Q 1925 3584 2291 3584 
Q 2894 3584 3203 3211 
Q 3513 2838 3513 2113 
z
" transform="scale(0.015625)"/>
       <path id="DejaVuSans-7a" d="M 353 3500 
L 3084 3500 
L 3084 2975 
L 922 459 
L 3084 459 
L 3084 0 
L 275 0 
L 275 525 
L 2438 3041 
L 353 3041 
L 353 3500 
z
" transform="scale(0.015625)"/>
       <path id="DejaVuSans-69" d="M 603 3500 
L 1178 3500 
L 1178 0 
L 603 0 
L 603 3500 
z
M 603 4863 
L 1178 4863 
L 1178 4134 
L 603 4134 
L 603 4863 
z
" transform="scale(0.015625)"/>
       <path id="DejaVuSans-64" d="M 2906 2969 
L 2906 4863 
L 3481 4863 
L 3481 0 
L 2906 0 
L 2906 525 
Q 2725 213 2448 61 
Q 2172 -91 1784 -91 
Q 1150 -91 751 415 
Q 353 922 353 1747 
Q 353 2572 751 3078 
Q 1150 3584 1784 3584 
Q 2172 3584 2448 3432 
Q 2725 3281 2906 2969 
z
M 947 1747 
Q 947 1113 1208 752 
Q 1469 391 1925 391 
Q 2381 391 2643 752 
Q 2906 1113 2906 1747 
Q 2906 2381 2643 2742 
Q 2381 3103 1925 3103 
Q 1469 3103 1208 2742 
Q 947 2381 947 1747 
z
" transform="scale(0.015625)"/>
       <path id="DejaVuSans-65" d="M 3597 1894 
L 3597 1613 
L 953 1613 
Q 991 1019 1311 708 
Q 1631 397 2203 397 
Q 2534 397 2845 478 
Q 3156 559 3463 722 
L 3463 178 
Q 3153 47 2828 -22 
Q 2503 -91 2169 -91 
Q 1331 -91 842 396 
Q 353 884 353 1716 
Q 353 2575 817 3079 
Q 1281 3584 2069 3584 
Q 2775 3584 3186 3129 
Q 3597 2675 3597 1894 
z
M 3022 2063 
Q 3016 2534 2758 2815 
Q 2500 3097 2075 3097 
Q 1594 3097 1305 2825 
Q 1016 2553 972 2059 
L 3022 2063 
z
" transform="scale(0.015625)"/>
       <path id="DejaVuSans-20" transform="scale(0.015625)"/>
       <path id="DejaVuSans-70" d="M 1159 525 
L 1159 -1331 
L 581 -1331 
L 581 3500 
L 1159 3500 
L 1159 2969 
Q 1341 3281 1617 3432 
Q 1894 3584 2278 3584 
Q 2916 3584 3314 3078 
Q 3713 2572 3713 1747 
Q 3713 922 3314 415 
Q 2916 -91 2278 -91 
Q 1894 -91 1617 61 
Q 1341 213 1159 525 
z
M 3116 1747 
Q 3116 2381 2855 2742 
Q 2594 3103 2138 3103 
Q 1681 3103 1420 2742 
Q 1159 2381 1159 1747 
Q 1159 1113 1420 752 
Q 1681 391 2138 391 
Q 2594 391 2855 752 
Q 3116 1113 3116 1747 
z
" transform="scale(0.015625)"/>
       <path id="DejaVuSans-72" d="M 2631 2963 
Q 2534 3019 2420 3045 
Q 2306 3072 2169 3072 
Q 1681 3072 1420 2755 
Q 1159 2438 1159 1844 
L 1159 0 
L 581 0 
L 581 3500 
L 1159 3500 
L 1159 2956 
Q 1341 3275 1631 3429 
Q 1922 3584 2338 3584 
Q 2397 3584 2469 3576 
Q 2541 3569 2628 3553 
L 2631 2963 
z
" transform="scale(0.015625)"/>
       <path id="DejaVuSans-6f" d="M 1959 3097 
Q 1497 3097 1228 2736 
Q 959 2375 959 1747 
Q 959 1119 1226 758 
Q 1494 397 1959 397 
Q 2419 397 2687 759 
Q 2956 1122 2956 1747 
Q 2956 2369 2687 2733 
Q 2419 3097 1959 3097 
z
M 1959 3584 
Q 2709 3584 3137 3096 
Q 3566 2609 3566 1747 
Q 3566 888 3137 398 
Q 2709 -91 1959 -91 
Q 1206 -91 779 398 
Q 353 888 353 1747 
Q 353 2609 779 3096 
Q 1206 3584 1959 3584 
z
" transform="scale(0.015625)"/>
       <path id="DejaVuSans-54" d="M -19 4666 
L 3928 4666 
L 3928 4134 
L 2272 4134 
L 2272 0 
L 1638 0 
L 1638 4134 
L -19 4134 
L -19 4666 
z
" transform="scale(0.015625)"/>
       <path id="DejaVuSans-61" d="M 2194 1759 
Q 1497 1759 1228 1600 
Q 959 1441 959 1056 
Q 959 750 1161 570 
Q 1363 391 1709 391 
Q 2188 391 2477 730 
Q 2766 1069 2766 1631 
L 2766 1759 
L 2194 1759 
z
M 3341 1997 
L 3341 0 
L 2766 0 
L 2766 531 
Q 2569 213 2275 61 
Q 1981 -91 1556 -91 
Q 1019 -91 701 211 
Q 384 513 384 1019 
Q 384 1609 779 1909 
Q 1175 2209 1959 2209 
L 2766 2209 
L 2766 2266 
Q 2766 2663 2505 2880 
Q 2244 3097 1772 3097 
Q 1472 3097 1187 3025 
Q 903 2953 641 2809 
L 641 3341 
Q 956 3463 1253 3523 
Q 1550 3584 1831 3584 
Q 2591 3584 2966 3190 
Q 3341 2797 3341 1997 
z
" transform="scale(0.015625)"/>
       <path id="DejaVuSans-67" d="M 2906 1791 
Q 2906 2416 2648 2759 
Q 2391 3103 1925 3103 
Q 1463 3103 1205 2759 
Q 947 2416 947 1791 
Q 947 1169 1205 825 
Q 1463 481 1925 481 
Q 2391 481 2648 825 
Q 2906 1169 2906 1791 
z
M 3481 434 
Q 3481 -459 3084 -895 
Q 2688 -1331 1869 -1331 
Q 1566 -1331 1297 -1286 
Q 1028 -1241 775 -1147 
L 775 -588 
Q 1028 -725 1275 -790 
Q 1522 -856 1778 -856 
Q 2344 -856 2625 -561 
Q 2906 -266 2906 331 
L 2906 616 
Q 2728 306 2450 153 
Q 2172 0 1784 0 
Q 1141 0 747 490 
Q 353 981 353 1791 
Q 353 2603 747 3093 
Q 1141 3584 1784 3584 
Q 2172 3584 2450 3431 
Q 2728 3278 2906 2969 
L 2906 3500 
L 3481 3500 
L 3481 434 
z
" transform="scale(0.015625)"/>
       <path id="DejaVuSans-45" d="M 628 4666 
L 3578 4666 
L 3578 4134 
L 1259 4134 
L 1259 2753 
L 3481 2753 
L 3481 2222 
L 1259 2222 
L 1259 531 
L 3634 531 
L 3634 0 
L 628 0 
L 628 4666 
z
" transform="scale(0.015625)"/>
       <path id="DejaVuSans-77" d="M 269 3500 
L 844 3500 
L 1563 769 
L 2278 3500 
L 2956 3500 
L 3675 769 
L 4391 3500 
L 4966 3500 
L 4050 0 
L 3372 0 
L 2619 2869 
L 1863 0 
L 1184 0 
L 269 3500 
z
" transform="scale(0.015625)"/>
       <path id="DejaVuSans-68" d="M 3513 2113 
L 3513 0 
L 2938 0 
L 2938 2094 
Q 2938 2591 2744 2837 
Q 2550 3084 2163 3084 
Q 1697 3084 1428 2787 
Q 1159 2491 1159 1978 
L 1159 0 
L 581 0 
L 581 4863 
L 1159 4863 
L 1159 2956 
Q 1366 3272 1645 3428 
Q 1925 3584 2291 3584 
Q 2894 3584 3203 3211 
Q 3513 2838 3513 2113 
z
" transform="scale(0.015625)"/>
      </defs>
      <use xlink:href="#DejaVuSans-49"/>
      <use xlink:href="#DejaVuSans-6e" x="29.492188"/>
      <use xlink:href="#DejaVuSans-7a" x="92.871094"/>
      <use xlink:href="#DejaVuSans-69" x="145.361328"/>
      <use xlink:href="#DejaVuSans-64" x="173.144531"/>
      <use xlink:href="#DejaVuSans-65" x="236.621094"/>
      <use xlink:href="#DejaVuSans-6e" x="298.144531"/>
      <use xlink:href="#DejaVuSans-7a" x="361.523438"/>
      <use xlink:href="#DejaVuSans-20" x="414.013672"/>
      <use xlink:href="#DejaVuSans-70" x="445.800781"/>
      <use xlink:href="#DejaVuSans-72" x="509.277344"/>
      <use xlink:href="#DejaVuSans-6f" x="548.140625"/>
      <use xlink:href="#DejaVuSans-20" x="609.322266"/>
      <use xlink:href="#DejaVuSans-37" x="641.109375"/>
      <use xlink:href="#DejaVuSans-20" x="704.732422"/>
      <use xlink:href="#DejaVuSans-54" x="736.519531"/>
      <use xlink:href="#DejaVuSans-61" x="781.103516"/>
      <use xlink:href="#DejaVuSans-67" x="842.382812"/>
      <use xlink:href="#DejaVuSans-65" x="905.859375"/>
      <use xlink:href="#DejaVuSans-20" x="967.382812"/>
      <use xlink:href="#DejaVuSans-70" x="999.169922"/>
      <use xlink:href="#DejaVuSans-72" x="1062.646484"/>
      <use xlink:href="#DejaVuSans-6f" x="1101.509766"/>
      <use xlink:href="#DejaVuSans-20" x="1162.691406"/>
      <use xlink:href="#DejaVuSans-31" x="1194.478516"/>
      <use xlink:href="#DejaVuSans-30" x="1258.101562"/>
      <use xlink:href="#DejaVuSans-30" x="1321.724609"/>
      <use xlink:href="#DejaVuSans-2e" x="1385.347656"/>
      <use xlink:href="#DejaVuSans-30" x="1417.134766"/>
      <use xlink:href="#DejaVuSans-30" x="1480.757812"/>
      <use xlink:href="#DejaVuSans-30" x="1544.380859"/>
      <use xlink:href="#DejaVuSans-20" x="1608.003906"/>
      <use xlink:href="#DejaVuSans-45" x="1639.791016"/>
      <use xlink:href="#DejaVuSans-69" x="1702.974609"/>
      <use xlink:href="#DejaVuSans-6e" x="1730.757812"/>
      <use xlink:href="#DejaVuSans-77" x="1794.136719"/>
      <use xlink:href="#DejaVuSans-6f" x="1875.923828"/>
      <use xlink:href="#DejaVuSans-68" x="1937.105469"/>
      <use xlink:href="#DejaVuSans-6e" x="2000.484375"/>
      <use xlink:href="#DejaVuSans-65" x="2063.863281"/>
      <use xlink:href="#DejaVuSans-72" x="2125.386719"/>
     </g>
    </g>
   </g>
   <g id="line2d_35">
    <path d="M 73.832727 265.797818 
L 78.837679 265.736532 
L 80.172333 264.204377 
L 80.505996 263.714088 
L 80.83966 263.591516 
L 81.173323 263.101226 
L 81.506987 261.936789 
L 81.84065 261.936789 
L 82.174314 261.201354 
L 82.507977 261.262641 
L 84.843621 256.482318 
L 85.177285 256.29846 
L 85.510948 255.317881 
L 85.844612 255.440453 
L 86.178275 255.317881 
L 86.511939 255.379167 
L 86.845602 255.256595 
L 87.179266 255.746884 
L 87.512929 257.033894 
L 87.846593 258.933766 
L 88.180256 258.933766 
L 88.513919 259.853058 
L 88.847583 258.811193 
L 89.181246 259.791772 
L 89.51491 259.914345 
L 89.848573 259.301483 
L 90.182237 258.933766 
L 90.5159 259.362769 
L 91.183227 262.488364 
L 91.516891 262.978654 
L 91.850554 263.03994 
L 92.184218 263.468943 
L 93.852535 264.510808 
L 94.519862 265.062384 
L 95.520852 265.491387 
L 96.855506 265.491387 
L 97.189169 265.368815 
L 97.856496 265.552673 
L 98.857487 265.491387 
L 99.19115 265.430101 
L 99.524814 265.552673 
L 100.525804 265.61396 
L 101.193131 265.675246 
L 102.861448 265.61396 
L 103.195112 265.430101 
L 103.862439 265.491387 
L 104.529765 265.552673 
L 105.197092 265.61396 
L 105.530756 265.797818 
L 118.209967 265.736532 
L 118.877294 265.675246 
L 120.545612 265.736532 
L 120.879275 265.797818 
L 121.546602 265.736532 
L 121.880265 264.817239 
L 123.882246 264.878525 
L 124.21591 265.736532 
L 124.883236 265.675246 
L 125.2169 265.61396 
L 125.550563 265.184956 
L 126.885217 265.12367 
L 127.218881 265.062384 
L 127.886208 265.246243 
L 128.219871 264.755953 
L 128.553535 264.694667 
L 128.887198 264.388236 
L 129.220861 264.32695 
L 129.888188 263.959233 
L 130.221852 264.081805 
L 130.555515 264.388236 
L 130.889179 264.143091 
L 131.222842 264.449522 
L 131.556506 264.572095 
L 131.890169 264.878525 
L 132.557496 264.755953 
L 132.891159 264.32695 
L 133.558486 264.081805 
L 134.225813 263.959233 
L 134.89314 264.204377 
L 135.226804 264.633381 
L 135.894131 264.32695 
L 136.895121 264.510808 
L 137.228784 264.449522 
L 137.562448 264.572095 
L 137.896111 265.001098 
L 138.229775 265.184956 
L 138.897102 265.184956 
L 139.230765 264.878525 
L 140.231756 265.246243 
L 141.232746 265.062384 
L 141.566409 265.368815 
L 141.900073 265.430101 
L 142.233736 265.12367 
L 142.901063 265.184956 
L 143.902054 265.307529 
L 144.235717 265.184956 
L 144.903044 265.491387 
L 146.571361 265.491387 
L 146.905025 265.61396 
L 148.907006 265.552673 
L 149.240669 265.491387 
L 149.907996 265.001098 
L 150.241659 265.001098 
L 150.575323 264.633381 
L 150.908986 264.572095 
L 151.24265 264.388236 
L 151.576313 263.959233 
L 151.909977 263.775374 
L 152.24364 262.978654 
L 152.577304 262.978654 
L 153.24463 262.365792 
L 153.578294 261.691644 
L 154.245621 259.362769 
L 154.579284 258.933766 
L 154.912948 257.340325 
L 155.580275 257.033894 
L 155.913938 256.543604 
L 156.247602 256.543604 
L 156.581265 253.295437 
L 156.914929 251.395565 
L 157.582255 249.55698 
L 157.915919 249.495693 
L 158.249582 248.698973 
L 158.583246 246.615243 
L 158.916909 250.414986 
L 159.250573 250.598845 
L 159.584236 249.86341 
L 159.9179 250.598845 
L 160.251563 250.047269 
L 160.585227 249.189262 
L 160.91889 248.944118 
L 161.252553 245.879808 
L 161.586217 246.186239 
L 161.91988 246.98296 
L 162.253544 247.350677 
L 162.587207 246.98296 
L 162.920871 247.840966 
L 163.588198 251.15042 
L 164.255525 249.127976 
L 164.922852 249.06669 
L 165.256515 248.882831 
L 165.590178 247.840966 
L 165.923842 248.453828 
L 166.591169 250.905276 
L 166.924832 249.55698 
L 167.258496 249.005404 
L 167.592159 249.86341 
L 167.925823 250.3537 
L 168.259486 251.15042 
L 168.59315 250.476272 
L 169.260477 251.518137 
L 169.59414 252.621289 
L 169.927803 251.701996 
L 170.261467 252.008427 
L 170.59513 251.64071 
L 170.928794 253.418009 
L 171.929784 254.398588 
L 172.263448 254.888877 
L 172.597111 256.421032 
L 172.930775 256.421032 
L 173.264438 257.279039 
L 174.265428 258.627335 
L 174.599092 259.424055 
L 175.266419 259.791772 
L 175.600082 259.607914 
L 175.933746 259.730486 
L 176.267409 259.607914 
L 176.601073 259.240197 
L 176.934736 259.117624 
L 177.2684 258.566049 
L 177.602063 257.09518 
L 178.26939 256.850035 
L 178.603053 257.033894 
L 178.936717 256.972608 
L 179.27038 256.482318 
L 179.604044 255.563026 
L 179.937707 256.482318 
L 180.271371 256.604891 
L 180.605034 255.501739 
L 180.938698 255.379167 
L 181.272361 254.52116 
L 181.606024 254.827591 
L 181.939688 255.992029 
L 182.273351 256.237174 
L 182.607015 256.29846 
L 182.940678 257.340325 
L 183.274342 257.033894 
L 183.608005 258.504762 
L 183.941669 258.627335 
L 184.275332 259.17891 
L 184.608996 258.933766 
L 184.942659 259.117624 
L 185.276323 258.749907 
L 185.609986 259.240197 
L 186.610976 256.911322 
L 186.94464 257.769328 
L 187.278303 257.708042 
L 187.611967 258.014473 
L 187.94563 258.137045 
L 188.279294 258.504762 
L 188.612957 259.730486 
L 188.946621 260.036917 
L 189.280284 260.527206 
L 189.613947 260.282062 
L 190.281274 260.894923 
L 190.614938 260.95621 
L 190.948601 260.404634 
L 191.282265 261.201354 
L 191.615928 260.711065 
L 191.949592 261.140068 
L 192.283255 260.711065 
L 192.616919 260.46592 
L 192.950582 260.527206 
L 193.617909 260.036917 
L 194.285236 258.014473 
L 194.618899 257.769328 
L 194.952563 257.033894 
L 195.61989 257.279039 
L 195.953553 256.972608 
L 196.62088 258.014473 
L 196.954544 258.320904 
L 197.288207 259.301483 
L 197.621871 258.749907 
L 197.955534 257.769328 
L 198.289197 258.014473 
L 198.622861 258.075759 
L 198.956524 258.38219 
L 199.623851 257.769328 
L 199.957515 257.8919 
L 200.291178 259.607914 
L 200.624842 259.056338 
L 200.958505 259.301483 
L 201.292169 259.17891 
L 201.625832 259.362769 
L 201.959495 258.688621 
L 202.293159 259.117624 
L 202.960486 257.646756 
L 203.294149 257.217752 
L 203.627813 257.033894 
L 203.961476 256.175887 
L 204.29514 256.911322 
L 204.628803 256.543604 
L 204.962467 255.992029 
L 205.29613 255.869456 
L 205.629794 255.072736 
L 205.963457 255.01145 
L 206.29712 255.563026 
L 206.630784 255.379167 
L 206.964447 255.80817 
L 207.631774 254.827591 
L 207.965438 253.050292 
L 208.299101 252.560003 
L 208.632765 251.334279 
L 208.966428 249.373121 
L 209.300092 248.576401 
L 209.633755 248.26997 
L 209.967418 248.331256 
L 210.301082 249.250549 
L 210.634745 248.576401 
L 210.968409 249.06669 
L 211.302072 250.660131 
L 211.635736 250.3537 
L 211.969399 249.55698 
L 212.303063 249.618266 
L 212.636726 249.924697 
L 212.97039 250.905276 
L 213.304053 250.782703 
L 213.97138 251.272993 
L 214.305043 251.64071 
L 214.638707 252.376144 
L 214.97237 252.498716 
L 215.306034 251.763282 
L 215.973361 251.395565 
L 216.307024 251.579424 
L 216.640688 252.560003 
L 216.974351 252.743861 
L 217.308015 253.847012 
L 217.641678 254.276016 
L 217.975341 255.317881 
L 218.309005 255.992029 
L 218.642668 256.053315 
L 219.309995 258.320904 
L 219.643659 258.566049 
L 219.977322 259.853058 
L 220.310986 260.098203 
L 220.644649 259.975631 
L 221.311976 260.46592 
L 221.64564 260.282062 
L 221.979303 260.833637 
L 222.312966 260.894923 
L 222.980293 261.630358 
L 223.313957 261.323927 
L 223.64762 261.262641 
L 224.314947 262.365792 
L 224.648611 262.365792 
L 224.982274 262.733509 
L 225.315938 262.733509 
L 225.983265 263.83666 
L 226.650591 263.530229 
L 226.984255 263.897946 
L 227.651582 264.204377 
L 227.985245 264.143091 
L 228.318909 264.388236 
L 228.986236 265.246243 
L 229.987226 265.062384 
L 230.654553 265.368815 
L 230.988216 265.368815 
L 231.989207 265.736532 
L 233.991188 265.368815 
L 234.992178 265.552673 
L 235.325841 265.491387 
L 235.993168 265.675246 
L 236.994159 265.552673 
L 237.327822 265.307529 
L 237.661486 265.430101 
L 238.328812 265.246243 
L 238.662476 265.307529 
L 238.996139 265.184956 
L 239.329803 265.184956 
L 239.663466 265.368815 
L 239.99713 265.307529 
L 240.330793 265.368815 
L 240.664457 264.878525 
L 240.99812 264.633381 
L 241.331784 264.817239 
L 242.666437 264.817239 
L 243.000101 265.307529 
L 243.333764 265.552673 
L 244.334755 265.552673 
L 244.668418 265.675246 
L 245.002082 265.491387 
L 245.335745 265.552673 
L 247.004062 265.307529 
L 247.337726 265.430101 
L 247.671389 265.368815 
L 248.005053 265.430101 
L 248.338716 265.001098 
L 248.67238 264.878525 
L 249.67337 264.143091 
L 250.007034 264.081805 
L 250.340697 263.714088 
L 250.67436 263.83666 
L 251.008024 263.407657 
L 251.341687 263.285085 
L 251.675351 262.488364 
L 252.009014 262.54965 
L 252.342678 261.446499 
L 252.676341 260.95621 
L 253.010005 260.159489 
L 253.343668 260.282062 
L 253.677332 260.220775 
L 254.678322 257.953187 
L 255.011985 258.075759 
L 255.345649 257.58547 
L 255.679312 257.646756 
L 256.012976 257.401611 
L 256.346639 257.8919 
L 256.680303 258.137045 
L 257.013966 258.933766 
L 257.681293 258.995052 
L 258.014957 258.504762 
L 258.34862 258.38219 
L 259.015947 257.58547 
L 259.34961 257.09518 
L 259.683274 257.09518 
L 260.016937 257.58547 
L 260.350601 256.850035 
L 260.684264 256.788749 
L 261.017928 256.543604 
L 261.685255 256.482318 
L 262.018918 256.237174 
L 262.352582 256.175887 
L 263.019908 257.217752 
L 263.687235 258.995052 
L 264.354562 260.159489 
L 264.688226 259.791772 
L 265.021889 260.527206 
L 266.02288 259.301483 
L 266.356543 259.240197 
L 266.690206 258.811193 
L 267.02387 259.6692 
L 267.357533 259.362769 
L 267.691197 259.485341 
L 268.02486 259.117624 
L 268.358524 258.995052 
L 268.692187 258.566049 
L 269.025851 258.688621 
L 269.359514 258.443476 
L 270.026841 259.362769 
L 270.360505 259.546627 
L 270.694168 258.933766 
L 271.027831 258.627335 
L 271.695158 257.033894 
L 272.028822 255.317881 
L 272.362485 255.317881 
L 272.696149 251.824568 
L 273.029812 250.476272 
L 273.697139 246.308812 
L 274.030803 245.266947 
L 274.364466 245.20566 
L 274.698129 244.654085 
L 275.031793 244.592799 
L 275.365456 244.837943 
L 275.69912 244.592799 
L 276.032783 246.553957 
L 276.366447 245.144374 
L 276.70011 241.773634 
L 277.033774 242.018779 
L 277.367437 243.489647 
L 277.701101 241.83492 
L 278.368428 232.396848 
L 278.702091 226.084371 
L 279.035754 226.145657 
L 279.703081 219.281605 
L 280.036745 214.072279 
L 280.370408 213.275559 
L 280.704072 214.133565 
L 281.037735 218.23974 
L 281.371399 214.501282 
L 281.705062 207.330799 
L 282.038726 205.921217 
L 282.372389 205.06321 
L 282.706053 197.770154 
L 283.039716 197.402437 
L 283.373379 196.299286 
L 283.707043 198.076585 
L 284.040706 202.18276 
L 284.37437 200.957036 
L 284.708033 200.711891 
L 285.041697 206.105075 
L 285.37536 207.514657 
L 285.709024 204.634207 
L 286.376351 212.111121 
L 286.710014 219.159032 
L 287.043677 214.317424 
L 287.377341 217.381733 
L 287.711004 215.910865 
L 288.044668 220.139611 
L 288.378331 221.181476 
L 288.711995 220.446042 
L 289.045658 215.17543 
L 289.379322 224.49093 
L 289.712985 226.635947 
L 290.046649 229.761542 
L 291.047639 233.438713 
L 291.381302 235.216013 
L 292.048629 237.544887 
L 292.382293 237.728746 
L 293.04962 238.46418 
L 293.383283 239.75119 
L 294.384274 246.49267 
L 294.717937 246.615243 
L 295.0516 249.434407 
L 295.385264 249.740838 
L 295.718927 248.453828 
L 296.052591 250.108555 
L 296.386254 249.802124 
L 296.719918 250.292414 
L 297.053581 251.518137 
L 297.720908 252.314858 
L 298.054572 251.579424 
L 298.388235 251.763282 
L 298.721899 251.701996 
L 300.056552 244.960516 
L 300.390216 246.98296 
L 300.723879 242.141351 
L 301.391206 239.322187 
L 301.72487 239.812476 
L 302.058533 234.970868 
L 302.392197 232.090417 
L 302.72586 227.310095 
L 303.059523 225.839226 
L 303.393187 221.794338 
L 304.060514 205.185783 
L 304.394177 199.302309 
L 304.727841 198.934592 
L 305.061504 201.140894 
L 305.395168 195.073562 
L 305.728831 185.758062 
L 306.062495 184.225908 
L 306.396158 178.526293 
L 306.729822 181.713174 
L 307.063485 174.174974 
L 307.397148 162.408026 
L 307.730812 163.388605 
L 308.398139 138.506415 
L 308.731802 136.606543 
L 309.065466 126.739467 
L 309.399129 128.884484 
L 309.732793 138.199984 
L 310.066456 128.394194 
L 310.733783 132.622941 
L 311.067447 131.152073 
L 311.40111 138.506415 
L 311.734773 133.235803 
L 312.068437 131.335931 
L 312.735764 122.020431 
L 313.069427 131.152073 
L 313.403091 135.871109 
L 313.736754 129.313487 
L 314.070418 134.277668 
L 314.404081 131.51979 
L 314.737745 132.31651 
L 315.071408 143.899599 
L 315.405071 144.389888 
L 315.738735 149.783072 
L 316.072398 148.434776 
L 316.406062 151.560372 
L 316.739725 152.969954 
L 317.073389 171.846099 
L 317.407052 161.55002 
L 317.740716 157.443845 
L 318.074379 149.108924 
L 318.408043 158.424424 
L 318.741706 151.192655 
L 319.07537 147.147767 
L 319.409033 125.513744 
L 319.742696 122.265576 
L 320.07636 123.4913 
L 320.410023 118.159402 
L 320.743687 108.108468 
L 321.07735 105.228017 
L 321.411014 84.697145 
L 321.744677 78.384668 
L 322.078341 81.019974 
L 322.412004 69.988461 
L 322.745668 68.027303 
L 323.079331 67.108011 
L 323.412994 64.043701 
L 324.080321 69.68203 
L 324.413985 58.2828 
L 324.747648 57.118363 
L 325.081312 57.669938 
L 325.414975 52.82833 
L 325.748639 52.154182 
L 326.082302 65.269425 
L 326.749629 102.102422 
L 327.083293 108.782616 
L 327.416956 108.660043 
L 327.750619 116.565961 
L 328.417946 138.506415 
L 328.75161 127.781332 
L 329.418937 147.760628 
L 330.419927 177.607 
L 330.753591 175.52327 
L 331.087254 184.287194 
L 331.420917 189.190089 
L 331.754581 192.37697 
L 332.421908 207.453371 
L 332.755571 210.51768 
L 333.089235 218.484884 
L 333.422898 217.74945 
L 333.756562 214.501282 
L 334.090225 214.685141 
L 334.423889 213.030414 
L 334.757552 208.801667 
L 335.091216 208.862954 
L 335.424879 197.892727 
L 335.758542 204.082631 
L 336.425869 209.782246 
L 336.759533 209.659674 
L 337.093196 213.0917 
L 337.42686 213.0917 
L 337.760523 212.29498 
L 338.094187 214.807713 
L 338.42785 213.643276 
L 339.095177 215.236717 
L 339.428841 217.504305 
L 339.762504 217.504305 
L 340.096167 217.872023 
L 340.429831 213.0917 
L 340.763494 218.546171 
L 341.097158 219.404177 
L 341.430821 221.733052 
L 341.764485 220.507328 
L 342.098148 216.646299 
L 342.765475 229.945401 
L 343.432802 236.625595 
L 343.766465 237.544887 
L 344.100129 235.338585 
L 344.433792 238.341608 
L 344.767456 238.95447 
L 345.101119 243.550934 
L 345.434783 243.734792 
L 345.768446 247.77968 
L 346.10211 246.615243 
L 346.435773 250.108555 
L 346.769437 250.966562 
L 347.1031 247.840966 
L 347.436764 246.247526 
L 347.770427 245.512091 
L 348.10409 240.364052 
L 348.437754 240.670483 
L 349.105081 240.670483 
L 349.438744 246.921674 
L 350.106071 241.099486 
L 350.439735 240.731769 
L 350.773398 240.854341 
L 351.440725 240.854341 
L 351.774388 232.396848 
L 352.108052 234.051575 
L 352.441715 236.38045 
L 352.775379 241.896207 
L 353.109042 238.219036 
L 353.776369 238.157749 
L 354.443696 228.045529 
L 354.77736 222.345914 
L 355.111023 213.765848 
L 355.444687 217.381733 
L 356.112013 217.443019 
L 356.445677 212.969128 
L 356.77934 211.927263 
L 357.113004 211.865977 
L 357.446667 213.520703 
L 357.780331 210.51768 
L 358.447658 210.456394 
L 358.781321 216.707585 
L 359.448648 219.649322 
L 359.782312 218.975174 
L 360.115975 219.894467 
L 360.783302 219.894467 
L 361.116965 220.875046 
L 361.450629 220.200898 
L 361.784292 220.446042 
L 362.451619 218.362312 
L 363.118946 218.423598 
L 363.786273 211.00797 
L 364.4536 206.534079 
L 364.787263 206.779223 
L 365.45459 206.534079 
L 365.788254 209.414529 
L 366.121917 207.024368 
L 366.455581 209.414529 
L 367.122908 216.033437 
L 367.790235 216.217296 
L 368.123898 219.404177 
L 368.457561 230.987266 
L 369.124888 237.17717 
L 369.458552 237.973891 
L 369.792215 238.035177 
L 370.125879 237.973891 
L 370.459542 240.180193 
L 370.793206 241.0382 
L 371.126869 243.183216 
L 371.460533 244.40894 
L 371.794196 246.124953 
L 372.461523 246.186239 
L 372.795186 253.601868 
L 373.12885 249.802124 
L 373.462513 249.127976 
L 373.796177 250.231128 
L 374.12984 249.434407 
L 374.797167 249.434407 
L 375.130831 246.799101 
L 375.464494 254.092157 
L 375.798158 255.685598 
L 376.131821 255.80817 
L 376.465484 256.359746 
L 377.132811 256.359746 
L 377.800138 252.008427 
L 378.467465 250.598845 
L 378.801129 250.476272 
L 379.468456 250.476272 
L 379.802119 251.334279 
L 380.135782 251.456851 
L 380.469446 252.376144 
L 380.803109 251.64071 
L 381.136773 250.537558 
L 381.8041 250.537558 
L 382.137763 247.840966 
L 382.80509 245.941095 
L 383.138754 243.489647 
L 383.472417 242.815499 
L 384.473407 242.754213 
L 384.807071 241.099486 
L 385.140734 238.648039 
L 385.474398 240.425338 
L 385.808061 238.219036 
L 386.475388 238.219036 
L 386.809052 233.622572 
L 387.810042 212.29498 
L 388.143706 212.785269 
L 388.811032 212.785269 
L 389.144696 223.939355 
L 389.478359 212.662697 
L 389.812023 197.52501 
L 390.145686 188.883658 
L 390.47935 183.796904 
L 391.146677 183.796904 
L 391.48034 156.340694 
L 391.814004 164.43047 
L 392.147667 175.829701 
L 392.814994 184.961342 
L 393.482321 184.961342 
L 394.483311 202.795621 
L 394.816975 210.762825 
L 395.150638 213.336845 
L 395.817965 213.336845 
L 396.151629 224.49093 
L 397.152619 235.399871 
L 397.486282 235.706302 
L 398.153609 235.706302 
L 398.487273 239.260901 
L 398.487273 239.260901 
" clip-path="url(#p3823d96112)" style="fill: none; stroke: #1f77b4; stroke-width: 1.5; stroke-linecap: square"/>
   </g>
   <g id="patch_3">
    <path d="M 57.6 276.48 
L 57.6 41.472 
" style="fill: none; stroke: #000000; stroke-width: 0.8; stroke-linejoin: miter; stroke-linecap: square"/>
   </g>
   <g id="patch_4">
    <path d="M 414.72 276.48 
L 414.72 41.472 
" style="fill: none; stroke: #000000; stroke-width: 0.8; stroke-linejoin: miter; stroke-linecap: square"/>
   </g>
   <g id="patch_5">
    <path d="M 57.6 276.48 
L 414.72 276.48 
" style="fill: none; stroke: #000000; stroke-width: 0.8; stroke-linejoin: miter; stroke-linecap: square"/>
   </g>
   <g id="patch_6">
    <path d="M 57.6 41.472 
L 414.72 41.472 
" style="fill: none; stroke: #000000; stroke-width: 0.8; stroke-linejoin: miter; stroke-linecap: square"/>
   </g>
  </g>
  <g id="text_19">
   <!-- Inzidenzverlauf LK Altötting -->
   <g transform="translate(106.382813 20.589187) scale(0.18 -0.18)">
    <defs>
     <path id="DejaVuSans-76" d="M 191 3500 
L 800 3500 
L 1894 563 
L 2988 3500 
L 3597 3500 
L 2284 0 
L 1503 0 
L 191 3500 
z
" transform="scale(0.015625)"/>
     <path id="DejaVuSans-6c" d="M 603 4863 
L 1178 4863 
L 1178 0 
L 603 0 
L 603 4863 
z
" transform="scale(0.015625)"/>
     <path id="DejaVuSans-75" d="M 544 1381 
L 544 3500 
L 1119 3500 
L 1119 1403 
Q 1119 906 1312 657 
Q 1506 409 1894 409 
Q 2359 409 2629 706 
Q 2900 1003 2900 1516 
L 2900 3500 
L 3475 3500 
L 3475 0 
L 2900 0 
L 2900 538 
Q 2691 219 2414 64 
Q 2138 -91 1772 -91 
Q 1169 -91 856 284 
Q 544 659 544 1381 
z
M 1991 3584 
L 1991 3584 
z
" transform="scale(0.015625)"/>
     <path id="DejaVuSans-66" d="M 2375 4863 
L 2375 4384 
L 1825 4384 
Q 1516 4384 1395 4259 
Q 1275 4134 1275 3809 
L 1275 3500 
L 2222 3500 
L 2222 3053 
L 1275 3053 
L 1275 0 
L 697 0 
L 697 3053 
L 147 3053 
L 147 3500 
L 697 3500 
L 697 3744 
Q 697 4328 969 4595 
Q 1241 4863 1831 4863 
L 2375 4863 
z
" transform="scale(0.015625)"/>
     <path id="DejaVuSans-4c" d="M 628 4666 
L 1259 4666 
L 1259 531 
L 3531 531 
L 3531 0 
L 628 0 
L 628 4666 
z
" transform="scale(0.015625)"/>
     <path id="DejaVuSans-4b" d="M 628 4666 
L 1259 4666 
L 1259 2694 
L 3353 4666 
L 4166 4666 
L 1850 2491 
L 4331 0 
L 3500 0 
L 1259 2247 
L 1259 0 
L 628 0 
L 628 4666 
z
" transform="scale(0.015625)"/>
     <path id="DejaVuSans-41" d="M 2188 4044 
L 1331 1722 
L 3047 1722 
L 2188 4044 
z
M 1831 4666 
L 2547 4666 
L 4325 0 
L 3669 0 
L 3244 1197 
L 1141 1197 
L 716 0 
L 50 0 
L 1831 4666 
z
" transform="scale(0.015625)"/>
     <path id="DejaVuSans-74" d="M 1172 4494 
L 1172 3500 
L 2356 3500 
L 2356 3053 
L 1172 3053 
L 1172 1153 
Q 1172 725 1289 603 
Q 1406 481 1766 481 
L 2356 481 
L 2356 0 
L 1766 0 
Q 1100 0 847 248 
Q 594 497 594 1153 
L 594 3053 
L 172 3053 
L 172 3500 
L 594 3500 
L 594 4494 
L 1172 4494 
z
" transform="scale(0.015625)"/>
     <path id="DejaVuSans-f6" d="M 1959 3097 
Q 1497 3097 1228 2736 
Q 959 2375 959 1747 
Q 959 1119 1226 758 
Q 1494 397 1959 397 
Q 2419 397 2687 759 
Q 2956 1122 2956 1747 
Q 2956 2369 2687 2733 
Q 2419 3097 1959 3097 
z
M 1959 3584 
Q 2709 3584 3137 3096 
Q 3566 2609 3566 1747 
Q 3566 888 3137 398 
Q 2709 -91 1959 -91 
Q 1206 -91 779 398 
Q 353 888 353 1747 
Q 353 2609 779 3096 
Q 1206 3584 1959 3584 
z
M 2254 4850 
L 2888 4850 
L 2888 4219 
L 2254 4219 
L 2254 4850 
z
M 1032 4850 
L 1666 4850 
L 1666 4219 
L 1032 4219 
L 1032 4850 
z
" transform="scale(0.015625)"/>
    </defs>
    <use xlink:href="#DejaVuSans-49"/>
    <use xlink:href="#DejaVuSans-6e" x="29.492188"/>
    <use xlink:href="#DejaVuSans-7a" x="92.871094"/>
    <use xlink:href="#DejaVuSans-69" x="145.361328"/>
    <use xlink:href="#DejaVuSans-64" x="173.144531"/>
    <use xlink:href="#DejaVuSans-65" x="236.621094"/>
    <use xlink:href="#DejaVuSans-6e" x="298.144531"/>
    <use xlink:href="#DejaVuSans-7a" x="361.523438"/>
    <use xlink:href="#DejaVuSans-76" x="414.013672"/>
    <use xlink:href="#DejaVuSans-65" x="473.193359"/>
    <use xlink:href="#DejaVuSans-72" x="534.716797"/>
    <use xlink:href="#DejaVuSans-6c" x="575.830078"/>
    <use xlink:href="#DejaVuSans-61" x="603.613281"/>
    <use xlink:href="#DejaVuSans-75" x="664.892578"/>
    <use xlink:href="#DejaVuSans-66" x="728.271484"/>
    <use xlink:href="#DejaVuSans-20" x="763.476562"/>
    <use xlink:href="#DejaVuSans-4c" x="795.263672"/>
    <use xlink:href="#DejaVuSans-4b" x="850.976562"/>
    <use xlink:href="#DejaVuSans-20" x="916.552734"/>
    <use xlink:href="#DejaVuSans-41" x="948.339844"/>
    <use xlink:href="#DejaVuSans-6c" x="1016.748047"/>
    <use xlink:href="#DejaVuSans-74" x="1044.53125"/>
    <use xlink:href="#DejaVuSans-f6" x="1083.740234"/>
    <use xlink:href="#DejaVuSans-74" x="1144.921875"/>
    <use xlink:href="#DejaVuSans-74" x="1184.130859"/>
    <use xlink:href="#DejaVuSans-69" x="1223.339844"/>
    <use xlink:href="#DejaVuSans-6e" x="1251.123047"/>
    <use xlink:href="#DejaVuSans-67" x="1314.501953"/>
   </g>
  </g>
 </g>
 <defs>
  <clipPath id="p3823d96112">
   <rect x="57.6" y="41.472" width="357.12" height="235.008"/>
  </clipPath>
 </defs>
</svg>
