<?xml version="1.0" encoding="utf-8" standalone="no"?>
<!DOCTYPE svg PUBLIC "-//W3C//DTD SVG 1.1//EN"
  "http://www.w3.org/Graphics/SVG/1.1/DTD/svg11.dtd">
<svg xmlns:xlink="http://www.w3.org/1999/xlink" width="460.8pt" height="345.6pt" viewBox="0 0 460.8 345.6" xmlns="http://www.w3.org/2000/svg" version="1.1">
 <metadata>
  <rdf:RDF xmlns:dc="http://purl.org/dc/elements/1.1/" xmlns:cc="http://creativecommons.org/ns#" xmlns:rdf="http://www.w3.org/1999/02/22-rdf-syntax-ns#">
   <cc:Work>
    <dc:type rdf:resource="http://purl.org/dc/dcmitype/StillImage"/>
    <dc:date>2022-05-06T09:23:07.653256</dc:date>
    <dc:format>image/svg+xml</dc:format>
    <dc:creator>
     <cc:Agent>
      <dc:title>Matplotlib v3.5.2, https://matplotlib.org/</dc:title>
     </cc:Agent>
    </dc:creator>
   </cc:Work>
  </rdf:RDF>
 </metadata>
 <defs>
  <style type="text/css">*{stroke-linejoin: round; stroke-linecap: butt}</style>
 </defs>
 <g id="figure_1">
  <g id="patch_1">
   <path d="M 0 345.6 
L 460.8 345.6 
L 460.8 0 
L 0 0 
z
" style="fill: #ffffff"/>
  </g>
  <g id="axes_1">
   <g id="patch_2">
    <path d="M 57.6 276.48 
L 414.72 276.48 
L 414.72 41.472 
L 57.6 41.472 
z
" style="fill: #ffffff"/>
   </g>
   <g id="matplotlib.axis_1">
    <g id="xtick_1">
     <g id="line2d_1">
      <path d="M 59.641017 276.48 
L 59.641017 41.472 
" clip-path="url(#p08586c5907)" style="fill: none; stroke-dasharray: 2.96,1.28; stroke-dashoffset: 0; stroke: #808080; stroke-width: 0.8"/>
     </g>
     <g id="line2d_2">
      <defs>
       <path id="m84c06efeb1" d="M 0 0 
L 0 3.5 
" style="stroke: #000000; stroke-width: 0.8"/>
      </defs>
      <g>
       <use xlink:href="#m84c06efeb1" x="59.641017" y="276.48" style="stroke: #000000; stroke-width: 0.8"/>
      </g>
     </g>
     <g id="text_1">
      <!-- 28.01.2020 -->
      <g transform="translate(9.015806 318.688565)rotate(-30)scale(0.1 -0.1)">
       <defs>
        <path id="DejaVuSans-32" d="M 1228 531 
L 3431 531 
L 3431 0 
L 469 0 
L 469 531 
Q 828 903 1448 1529 
Q 2069 2156 2228 2338 
Q 2531 2678 2651 2914 
Q 2772 3150 2772 3378 
Q 2772 3750 2511 3984 
Q 2250 4219 1831 4219 
Q 1534 4219 1204 4116 
Q 875 4013 500 3803 
L 500 4441 
Q 881 4594 1212 4672 
Q 1544 4750 1819 4750 
Q 2544 4750 2975 4387 
Q 3406 4025 3406 3419 
Q 3406 3131 3298 2873 
Q 3191 2616 2906 2266 
Q 2828 2175 2409 1742 
Q 1991 1309 1228 531 
z
" transform="scale(0.015625)"/>
        <path id="DejaVuSans-38" d="M 2034 2216 
Q 1584 2216 1326 1975 
Q 1069 1734 1069 1313 
Q 1069 891 1326 650 
Q 1584 409 2034 409 
Q 2484 409 2743 651 
Q 3003 894 3003 1313 
Q 3003 1734 2745 1975 
Q 2488 2216 2034 2216 
z
M 1403 2484 
Q 997 2584 770 2862 
Q 544 3141 544 3541 
Q 544 4100 942 4425 
Q 1341 4750 2034 4750 
Q 2731 4750 3128 4425 
Q 3525 4100 3525 3541 
Q 3525 3141 3298 2862 
Q 3072 2584 2669 2484 
Q 3125 2378 3379 2068 
Q 3634 1759 3634 1313 
Q 3634 634 3220 271 
Q 2806 -91 2034 -91 
Q 1263 -91 848 271 
Q 434 634 434 1313 
Q 434 1759 690 2068 
Q 947 2378 1403 2484 
z
M 1172 3481 
Q 1172 3119 1398 2916 
Q 1625 2713 2034 2713 
Q 2441 2713 2670 2916 
Q 2900 3119 2900 3481 
Q 2900 3844 2670 4047 
Q 2441 4250 2034 4250 
Q 1625 4250 1398 4047 
Q 1172 3844 1172 3481 
z
" transform="scale(0.015625)"/>
        <path id="DejaVuSans-2e" d="M 684 794 
L 1344 794 
L 1344 0 
L 684 0 
L 684 794 
z
" transform="scale(0.015625)"/>
        <path id="DejaVuSans-30" d="M 2034 4250 
Q 1547 4250 1301 3770 
Q 1056 3291 1056 2328 
Q 1056 1369 1301 889 
Q 1547 409 2034 409 
Q 2525 409 2770 889 
Q 3016 1369 3016 2328 
Q 3016 3291 2770 3770 
Q 2525 4250 2034 4250 
z
M 2034 4750 
Q 2819 4750 3233 4129 
Q 3647 3509 3647 2328 
Q 3647 1150 3233 529 
Q 2819 -91 2034 -91 
Q 1250 -91 836 529 
Q 422 1150 422 2328 
Q 422 3509 836 4129 
Q 1250 4750 2034 4750 
z
" transform="scale(0.015625)"/>
        <path id="DejaVuSans-31" d="M 794 531 
L 1825 531 
L 1825 4091 
L 703 3866 
L 703 4441 
L 1819 4666 
L 2450 4666 
L 2450 531 
L 3481 531 
L 3481 0 
L 794 0 
L 794 531 
z
" transform="scale(0.015625)"/>
       </defs>
       <use xlink:href="#DejaVuSans-32"/>
       <use xlink:href="#DejaVuSans-38" x="63.623047"/>
       <use xlink:href="#DejaVuSans-2e" x="127.246094"/>
       <use xlink:href="#DejaVuSans-30" x="159.033203"/>
       <use xlink:href="#DejaVuSans-31" x="222.65625"/>
       <use xlink:href="#DejaVuSans-2e" x="286.279297"/>
       <use xlink:href="#DejaVuSans-32" x="318.066406"/>
       <use xlink:href="#DejaVuSans-30" x="381.689453"/>
       <use xlink:href="#DejaVuSans-32" x="445.3125"/>
       <use xlink:href="#DejaVuSans-30" x="508.935547"/>
      </g>
     </g>
    </g>
    <g id="xtick_2">
     <g id="line2d_3">
      <path d="M 95.622881 276.48 
L 95.622881 41.472 
" clip-path="url(#p08586c5907)" style="fill: none; stroke-dasharray: 2.96,1.28; stroke-dashoffset: 0; stroke: #808080; stroke-width: 0.8"/>
     </g>
     <g id="line2d_4">
      <g>
       <use xlink:href="#m84c06efeb1" x="95.622881" y="276.48" style="stroke: #000000; stroke-width: 0.8"/>
      </g>
     </g>
     <g id="text_2">
      <!-- 25.04.2020 -->
      <g transform="translate(44.99767 318.688565)rotate(-30)scale(0.1 -0.1)">
       <defs>
        <path id="DejaVuSans-35" d="M 691 4666 
L 3169 4666 
L 3169 4134 
L 1269 4134 
L 1269 2991 
Q 1406 3038 1543 3061 
Q 1681 3084 1819 3084 
Q 2600 3084 3056 2656 
Q 3513 2228 3513 1497 
Q 3513 744 3044 326 
Q 2575 -91 1722 -91 
Q 1428 -91 1123 -41 
Q 819 9 494 109 
L 494 744 
Q 775 591 1075 516 
Q 1375 441 1709 441 
Q 2250 441 2565 725 
Q 2881 1009 2881 1497 
Q 2881 1984 2565 2268 
Q 2250 2553 1709 2553 
Q 1456 2553 1204 2497 
Q 953 2441 691 2322 
L 691 4666 
z
" transform="scale(0.015625)"/>
        <path id="DejaVuSans-34" d="M 2419 4116 
L 825 1625 
L 2419 1625 
L 2419 4116 
z
M 2253 4666 
L 3047 4666 
L 3047 1625 
L 3713 1625 
L 3713 1100 
L 3047 1100 
L 3047 0 
L 2419 0 
L 2419 1100 
L 313 1100 
L 313 1709 
L 2253 4666 
z
" transform="scale(0.015625)"/>
       </defs>
       <use xlink:href="#DejaVuSans-32"/>
       <use xlink:href="#DejaVuSans-35" x="63.623047"/>
       <use xlink:href="#DejaVuSans-2e" x="127.246094"/>
       <use xlink:href="#DejaVuSans-30" x="159.033203"/>
       <use xlink:href="#DejaVuSans-34" x="222.65625"/>
       <use xlink:href="#DejaVuSans-2e" x="286.279297"/>
       <use xlink:href="#DejaVuSans-32" x="318.066406"/>
       <use xlink:href="#DejaVuSans-30" x="381.689453"/>
       <use xlink:href="#DejaVuSans-32" x="445.3125"/>
       <use xlink:href="#DejaVuSans-30" x="508.935547"/>
      </g>
     </g>
    </g>
    <g id="xtick_3">
     <g id="line2d_5">
      <path d="M 131.604745 276.48 
L 131.604745 41.472 
" clip-path="url(#p08586c5907)" style="fill: none; stroke-dasharray: 2.96,1.28; stroke-dashoffset: 0; stroke: #808080; stroke-width: 0.8"/>
     </g>
     <g id="line2d_6">
      <g>
       <use xlink:href="#m84c06efeb1" x="131.604745" y="276.48" style="stroke: #000000; stroke-width: 0.8"/>
      </g>
     </g>
     <g id="text_3">
      <!-- 22.07.2020 -->
      <g transform="translate(80.979534 318.688565)rotate(-30)scale(0.1 -0.1)">
       <defs>
        <path id="DejaVuSans-37" d="M 525 4666 
L 3525 4666 
L 3525 4397 
L 1831 0 
L 1172 0 
L 2766 4134 
L 525 4134 
L 525 4666 
z
" transform="scale(0.015625)"/>
       </defs>
       <use xlink:href="#DejaVuSans-32"/>
       <use xlink:href="#DejaVuSans-32" x="63.623047"/>
       <use xlink:href="#DejaVuSans-2e" x="127.246094"/>
       <use xlink:href="#DejaVuSans-30" x="159.033203"/>
       <use xlink:href="#DejaVuSans-37" x="222.65625"/>
       <use xlink:href="#DejaVuSans-2e" x="286.279297"/>
       <use xlink:href="#DejaVuSans-32" x="318.066406"/>
       <use xlink:href="#DejaVuSans-30" x="381.689453"/>
       <use xlink:href="#DejaVuSans-32" x="445.3125"/>
       <use xlink:href="#DejaVuSans-30" x="508.935547"/>
      </g>
     </g>
    </g>
    <g id="xtick_4">
     <g id="line2d_7">
      <path d="M 167.586609 276.48 
L 167.586609 41.472 
" clip-path="url(#p08586c5907)" style="fill: none; stroke-dasharray: 2.96,1.28; stroke-dashoffset: 0; stroke: #808080; stroke-width: 0.8"/>
     </g>
     <g id="line2d_8">
      <g>
       <use xlink:href="#m84c06efeb1" x="167.586609" y="276.48" style="stroke: #000000; stroke-width: 0.8"/>
      </g>
     </g>
     <g id="text_4">
      <!-- 18.10.2020 -->
      <g transform="translate(116.961398 318.688565)rotate(-30)scale(0.1 -0.1)">
       <use xlink:href="#DejaVuSans-31"/>
       <use xlink:href="#DejaVuSans-38" x="63.623047"/>
       <use xlink:href="#DejaVuSans-2e" x="127.246094"/>
       <use xlink:href="#DejaVuSans-31" x="159.033203"/>
       <use xlink:href="#DejaVuSans-30" x="222.65625"/>
       <use xlink:href="#DejaVuSans-2e" x="286.279297"/>
       <use xlink:href="#DejaVuSans-32" x="318.066406"/>
       <use xlink:href="#DejaVuSans-30" x="381.689453"/>
       <use xlink:href="#DejaVuSans-32" x="445.3125"/>
       <use xlink:href="#DejaVuSans-30" x="508.935547"/>
      </g>
     </g>
    </g>
    <g id="xtick_5">
     <g id="line2d_9">
      <path d="M 203.568473 276.48 
L 203.568473 41.472 
" clip-path="url(#p08586c5907)" style="fill: none; stroke-dasharray: 2.96,1.28; stroke-dashoffset: 0; stroke: #808080; stroke-width: 0.8"/>
     </g>
     <g id="line2d_10">
      <g>
       <use xlink:href="#m84c06efeb1" x="203.568473" y="276.48" style="stroke: #000000; stroke-width: 0.8"/>
      </g>
     </g>
     <g id="text_5">
      <!-- 14.01.2021 -->
      <g transform="translate(152.943262 318.688565)rotate(-30)scale(0.1 -0.1)">
       <use xlink:href="#DejaVuSans-31"/>
       <use xlink:href="#DejaVuSans-34" x="63.623047"/>
       <use xlink:href="#DejaVuSans-2e" x="127.246094"/>
       <use xlink:href="#DejaVuSans-30" x="159.033203"/>
       <use xlink:href="#DejaVuSans-31" x="222.65625"/>
       <use xlink:href="#DejaVuSans-2e" x="286.279297"/>
       <use xlink:href="#DejaVuSans-32" x="318.066406"/>
       <use xlink:href="#DejaVuSans-30" x="381.689453"/>
       <use xlink:href="#DejaVuSans-32" x="445.3125"/>
       <use xlink:href="#DejaVuSans-31" x="508.935547"/>
      </g>
     </g>
    </g>
    <g id="xtick_6">
     <g id="line2d_11">
      <path d="M 239.550337 276.48 
L 239.550337 41.472 
" clip-path="url(#p08586c5907)" style="fill: none; stroke-dasharray: 2.96,1.28; stroke-dashoffset: 0; stroke: #808080; stroke-width: 0.8"/>
     </g>
     <g id="line2d_12">
      <g>
       <use xlink:href="#m84c06efeb1" x="239.550337" y="276.48" style="stroke: #000000; stroke-width: 0.8"/>
      </g>
     </g>
     <g id="text_6">
      <!-- 12.04.2021 -->
      <g transform="translate(188.925126 318.688565)rotate(-30)scale(0.1 -0.1)">
       <use xlink:href="#DejaVuSans-31"/>
       <use xlink:href="#DejaVuSans-32" x="63.623047"/>
       <use xlink:href="#DejaVuSans-2e" x="127.246094"/>
       <use xlink:href="#DejaVuSans-30" x="159.033203"/>
       <use xlink:href="#DejaVuSans-34" x="222.65625"/>
       <use xlink:href="#DejaVuSans-2e" x="286.279297"/>
       <use xlink:href="#DejaVuSans-32" x="318.066406"/>
       <use xlink:href="#DejaVuSans-30" x="381.689453"/>
       <use xlink:href="#DejaVuSans-32" x="445.3125"/>
       <use xlink:href="#DejaVuSans-31" x="508.935547"/>
      </g>
     </g>
    </g>
    <g id="xtick_7">
     <g id="line2d_13">
      <path d="M 275.532201 276.48 
L 275.532201 41.472 
" clip-path="url(#p08586c5907)" style="fill: none; stroke-dasharray: 2.96,1.28; stroke-dashoffset: 0; stroke: #808080; stroke-width: 0.8"/>
     </g>
     <g id="line2d_14">
      <g>
       <use xlink:href="#m84c06efeb1" x="275.532201" y="276.48" style="stroke: #000000; stroke-width: 0.8"/>
      </g>
     </g>
     <g id="text_7">
      <!-- 09.07.2021 -->
      <g transform="translate(224.90699 318.688565)rotate(-30)scale(0.1 -0.1)">
       <defs>
        <path id="DejaVuSans-39" d="M 703 97 
L 703 672 
Q 941 559 1184 500 
Q 1428 441 1663 441 
Q 2288 441 2617 861 
Q 2947 1281 2994 2138 
Q 2813 1869 2534 1725 
Q 2256 1581 1919 1581 
Q 1219 1581 811 2004 
Q 403 2428 403 3163 
Q 403 3881 828 4315 
Q 1253 4750 1959 4750 
Q 2769 4750 3195 4129 
Q 3622 3509 3622 2328 
Q 3622 1225 3098 567 
Q 2575 -91 1691 -91 
Q 1453 -91 1209 -44 
Q 966 3 703 97 
z
M 1959 2075 
Q 2384 2075 2632 2365 
Q 2881 2656 2881 3163 
Q 2881 3666 2632 3958 
Q 2384 4250 1959 4250 
Q 1534 4250 1286 3958 
Q 1038 3666 1038 3163 
Q 1038 2656 1286 2365 
Q 1534 2075 1959 2075 
z
" transform="scale(0.015625)"/>
       </defs>
       <use xlink:href="#DejaVuSans-30"/>
       <use xlink:href="#DejaVuSans-39" x="63.623047"/>
       <use xlink:href="#DejaVuSans-2e" x="127.246094"/>
       <use xlink:href="#DejaVuSans-30" x="159.033203"/>
       <use xlink:href="#DejaVuSans-37" x="222.65625"/>
       <use xlink:href="#DejaVuSans-2e" x="286.279297"/>
       <use xlink:href="#DejaVuSans-32" x="318.066406"/>
       <use xlink:href="#DejaVuSans-30" x="381.689453"/>
       <use xlink:href="#DejaVuSans-32" x="445.3125"/>
       <use xlink:href="#DejaVuSans-31" x="508.935547"/>
      </g>
     </g>
    </g>
    <g id="xtick_8">
     <g id="line2d_15">
      <path d="M 311.514065 276.48 
L 311.514065 41.472 
" clip-path="url(#p08586c5907)" style="fill: none; stroke-dasharray: 2.96,1.28; stroke-dashoffset: 0; stroke: #808080; stroke-width: 0.8"/>
     </g>
     <g id="line2d_16">
      <g>
       <use xlink:href="#m84c06efeb1" x="311.514065" y="276.48" style="stroke: #000000; stroke-width: 0.8"/>
      </g>
     </g>
     <g id="text_8">
      <!-- 05.10.2021 -->
      <g transform="translate(260.888854 318.688565)rotate(-30)scale(0.1 -0.1)">
       <use xlink:href="#DejaVuSans-30"/>
       <use xlink:href="#DejaVuSans-35" x="63.623047"/>
       <use xlink:href="#DejaVuSans-2e" x="127.246094"/>
       <use xlink:href="#DejaVuSans-31" x="159.033203"/>
       <use xlink:href="#DejaVuSans-30" x="222.65625"/>
       <use xlink:href="#DejaVuSans-2e" x="286.279297"/>
       <use xlink:href="#DejaVuSans-32" x="318.066406"/>
       <use xlink:href="#DejaVuSans-30" x="381.689453"/>
       <use xlink:href="#DejaVuSans-32" x="445.3125"/>
       <use xlink:href="#DejaVuSans-31" x="508.935547"/>
      </g>
     </g>
    </g>
    <g id="xtick_9">
     <g id="line2d_17">
      <path d="M 347.495929 276.48 
L 347.495929 41.472 
" clip-path="url(#p08586c5907)" style="fill: none; stroke-dasharray: 2.96,1.28; stroke-dashoffset: 0; stroke: #808080; stroke-width: 0.8"/>
     </g>
     <g id="line2d_18">
      <g>
       <use xlink:href="#m84c06efeb1" x="347.495929" y="276.48" style="stroke: #000000; stroke-width: 0.8"/>
      </g>
     </g>
     <g id="text_9">
      <!-- 01.01.2022 -->
      <g transform="translate(296.870718 318.688565)rotate(-30)scale(0.1 -0.1)">
       <use xlink:href="#DejaVuSans-30"/>
       <use xlink:href="#DejaVuSans-31" x="63.623047"/>
       <use xlink:href="#DejaVuSans-2e" x="127.246094"/>
       <use xlink:href="#DejaVuSans-30" x="159.033203"/>
       <use xlink:href="#DejaVuSans-31" x="222.65625"/>
       <use xlink:href="#DejaVuSans-2e" x="286.279297"/>
       <use xlink:href="#DejaVuSans-32" x="318.066406"/>
       <use xlink:href="#DejaVuSans-30" x="381.689453"/>
       <use xlink:href="#DejaVuSans-32" x="445.3125"/>
       <use xlink:href="#DejaVuSans-32" x="508.935547"/>
      </g>
     </g>
    </g>
    <g id="xtick_10">
     <g id="line2d_19">
      <path d="M 383.477793 276.48 
L 383.477793 41.472 
" clip-path="url(#p08586c5907)" style="fill: none; stroke-dasharray: 2.96,1.28; stroke-dashoffset: 0; stroke: #808080; stroke-width: 0.8"/>
     </g>
     <g id="line2d_20">
      <g>
       <use xlink:href="#m84c06efeb1" x="383.477793" y="276.48" style="stroke: #000000; stroke-width: 0.8"/>
      </g>
     </g>
     <g id="text_10">
      <!-- 30.03.2022 -->
      <g transform="translate(332.852582 318.688565)rotate(-30)scale(0.1 -0.1)">
       <defs>
        <path id="DejaVuSans-33" d="M 2597 2516 
Q 3050 2419 3304 2112 
Q 3559 1806 3559 1356 
Q 3559 666 3084 287 
Q 2609 -91 1734 -91 
Q 1441 -91 1130 -33 
Q 819 25 488 141 
L 488 750 
Q 750 597 1062 519 
Q 1375 441 1716 441 
Q 2309 441 2620 675 
Q 2931 909 2931 1356 
Q 2931 1769 2642 2001 
Q 2353 2234 1838 2234 
L 1294 2234 
L 1294 2753 
L 1863 2753 
Q 2328 2753 2575 2939 
Q 2822 3125 2822 3475 
Q 2822 3834 2567 4026 
Q 2313 4219 1838 4219 
Q 1578 4219 1281 4162 
Q 984 4106 628 3988 
L 628 4550 
Q 988 4650 1302 4700 
Q 1616 4750 1894 4750 
Q 2613 4750 3031 4423 
Q 3450 4097 3450 3541 
Q 3450 3153 3228 2886 
Q 3006 2619 2597 2516 
z
" transform="scale(0.015625)"/>
       </defs>
       <use xlink:href="#DejaVuSans-33"/>
       <use xlink:href="#DejaVuSans-30" x="63.623047"/>
       <use xlink:href="#DejaVuSans-2e" x="127.246094"/>
       <use xlink:href="#DejaVuSans-30" x="159.033203"/>
       <use xlink:href="#DejaVuSans-33" x="222.65625"/>
       <use xlink:href="#DejaVuSans-2e" x="286.279297"/>
       <use xlink:href="#DejaVuSans-32" x="318.066406"/>
       <use xlink:href="#DejaVuSans-30" x="381.689453"/>
       <use xlink:href="#DejaVuSans-32" x="445.3125"/>
       <use xlink:href="#DejaVuSans-32" x="508.935547"/>
      </g>
     </g>
    </g>
   </g>
   <g id="matplotlib.axis_2">
    <g id="ytick_1">
     <g id="line2d_21">
      <path d="M 57.6 265.797818 
L 414.72 265.797818 
" clip-path="url(#p08586c5907)" style="fill: none; stroke-dasharray: 2.96,1.28; stroke-dashoffset: 0; stroke: #808080; stroke-width: 0.8"/>
     </g>
     <g id="line2d_22">
      <defs>
       <path id="me2b431251c" d="M 0 0 
L -3.5 0 
" style="stroke: #000000; stroke-width: 0.8"/>
      </defs>
      <g>
       <use xlink:href="#me2b431251c" x="57.6" y="265.797818" style="stroke: #000000; stroke-width: 0.8"/>
      </g>
     </g>
     <g id="text_11">
      <!-- 0 -->
      <g transform="translate(44.2375 269.597037)scale(0.1 -0.1)">
       <use xlink:href="#DejaVuSans-30"/>
      </g>
     </g>
    </g>
    <g id="ytick_2">
     <g id="line2d_23">
      <path d="M 57.6 235.797768 
L 414.72 235.797768 
" clip-path="url(#p08586c5907)" style="fill: none; stroke-dasharray: 2.96,1.28; stroke-dashoffset: 0; stroke: #808080; stroke-width: 0.8"/>
     </g>
     <g id="line2d_24">
      <g>
       <use xlink:href="#me2b431251c" x="57.6" y="235.797768" style="stroke: #000000; stroke-width: 0.8"/>
      </g>
     </g>
     <g id="text_12">
      <!-- 250 -->
      <g transform="translate(31.5125 239.596987)scale(0.1 -0.1)">
       <use xlink:href="#DejaVuSans-32"/>
       <use xlink:href="#DejaVuSans-35" x="63.623047"/>
       <use xlink:href="#DejaVuSans-30" x="127.246094"/>
      </g>
     </g>
    </g>
    <g id="ytick_3">
     <g id="line2d_25">
      <path d="M 57.6 205.797719 
L 414.72 205.797719 
" clip-path="url(#p08586c5907)" style="fill: none; stroke-dasharray: 2.96,1.28; stroke-dashoffset: 0; stroke: #808080; stroke-width: 0.8"/>
     </g>
     <g id="line2d_26">
      <g>
       <use xlink:href="#me2b431251c" x="57.6" y="205.797719" style="stroke: #000000; stroke-width: 0.8"/>
      </g>
     </g>
     <g id="text_13">
      <!-- 500 -->
      <g transform="translate(31.5125 209.596937)scale(0.1 -0.1)">
       <use xlink:href="#DejaVuSans-35"/>
       <use xlink:href="#DejaVuSans-30" x="63.623047"/>
       <use xlink:href="#DejaVuSans-30" x="127.246094"/>
      </g>
     </g>
    </g>
    <g id="ytick_4">
     <g id="line2d_27">
      <path d="M 57.6 175.797669 
L 414.72 175.797669 
" clip-path="url(#p08586c5907)" style="fill: none; stroke-dasharray: 2.96,1.28; stroke-dashoffset: 0; stroke: #808080; stroke-width: 0.8"/>
     </g>
     <g id="line2d_28">
      <g>
       <use xlink:href="#me2b431251c" x="57.6" y="175.797669" style="stroke: #000000; stroke-width: 0.8"/>
      </g>
     </g>
     <g id="text_14">
      <!-- 750 -->
      <g transform="translate(31.5125 179.596888)scale(0.1 -0.1)">
       <use xlink:href="#DejaVuSans-37"/>
       <use xlink:href="#DejaVuSans-35" x="63.623047"/>
       <use xlink:href="#DejaVuSans-30" x="127.246094"/>
      </g>
     </g>
    </g>
    <g id="ytick_5">
     <g id="line2d_29">
      <path d="M 57.6 145.797619 
L 414.72 145.797619 
" clip-path="url(#p08586c5907)" style="fill: none; stroke-dasharray: 2.96,1.28; stroke-dashoffset: 0; stroke: #808080; stroke-width: 0.8"/>
     </g>
     <g id="line2d_30">
      <g>
       <use xlink:href="#me2b431251c" x="57.6" y="145.797619" style="stroke: #000000; stroke-width: 0.8"/>
      </g>
     </g>
     <g id="text_15">
      <!-- 1000 -->
      <g transform="translate(25.15 149.596838)scale(0.1 -0.1)">
       <use xlink:href="#DejaVuSans-31"/>
       <use xlink:href="#DejaVuSans-30" x="63.623047"/>
       <use xlink:href="#DejaVuSans-30" x="127.246094"/>
       <use xlink:href="#DejaVuSans-30" x="190.869141"/>
      </g>
     </g>
    </g>
    <g id="ytick_6">
     <g id="line2d_31">
      <path d="M 57.6 115.797569 
L 414.72 115.797569 
" clip-path="url(#p08586c5907)" style="fill: none; stroke-dasharray: 2.96,1.28; stroke-dashoffset: 0; stroke: #808080; stroke-width: 0.8"/>
     </g>
     <g id="line2d_32">
      <g>
       <use xlink:href="#me2b431251c" x="57.6" y="115.797569" style="stroke: #000000; stroke-width: 0.8"/>
      </g>
     </g>
     <g id="text_16">
      <!-- 1250 -->
      <g transform="translate(25.15 119.596788)scale(0.1 -0.1)">
       <use xlink:href="#DejaVuSans-31"/>
       <use xlink:href="#DejaVuSans-32" x="63.623047"/>
       <use xlink:href="#DejaVuSans-35" x="127.246094"/>
       <use xlink:href="#DejaVuSans-30" x="190.869141"/>
      </g>
     </g>
    </g>
    <g id="ytick_7">
     <g id="line2d_33">
      <path d="M 57.6 85.79752 
L 414.72 85.79752 
" clip-path="url(#p08586c5907)" style="fill: none; stroke-dasharray: 2.96,1.28; stroke-dashoffset: 0; stroke: #808080; stroke-width: 0.8"/>
     </g>
     <g id="line2d_34">
      <g>
       <use xlink:href="#me2b431251c" x="57.6" y="85.79752" style="stroke: #000000; stroke-width: 0.8"/>
      </g>
     </g>
     <g id="text_17">
      <!-- 1500 -->
      <g transform="translate(25.15 89.596738)scale(0.1 -0.1)">
       <use xlink:href="#DejaVuSans-31"/>
       <use xlink:href="#DejaVuSans-35" x="63.623047"/>
       <use xlink:href="#DejaVuSans-30" x="127.246094"/>
       <use xlink:href="#DejaVuSans-30" x="190.869141"/>
      </g>
     </g>
    </g>
    <g id="ytick_8">
     <g id="line2d_35">
      <path d="M 57.6 55.79747 
L 414.72 55.79747 
" clip-path="url(#p08586c5907)" style="fill: none; stroke-dasharray: 2.96,1.28; stroke-dashoffset: 0; stroke: #808080; stroke-width: 0.8"/>
     </g>
     <g id="line2d_36">
      <g>
       <use xlink:href="#me2b431251c" x="57.6" y="55.79747" style="stroke: #000000; stroke-width: 0.8"/>
      </g>
     </g>
     <g id="text_18">
      <!-- 1750 -->
      <g transform="translate(25.15 59.596689)scale(0.1 -0.1)">
       <use xlink:href="#DejaVuSans-31"/>
       <use xlink:href="#DejaVuSans-37" x="63.623047"/>
       <use xlink:href="#DejaVuSans-35" x="127.246094"/>
       <use xlink:href="#DejaVuSans-30" x="190.869141"/>
      </g>
     </g>
    </g>
    <g id="text_19">
     <!-- Inzidenz pro 7 Tage pro 100.000 Einwohner -->
     <g transform="translate(19.070312 267.301)rotate(-90)scale(0.1 -0.1)">
      <defs>
       <path id="DejaVuSans-49" d="M 628 4666 
L 1259 4666 
L 1259 0 
L 628 0 
L 628 4666 
z
" transform="scale(0.015625)"/>
       <path id="DejaVuSans-6e" d="M 3513 2113 
L 3513 0 
L 2938 0 
L 2938 2094 
Q 2938 2591 2744 2837 
Q 2550 3084 2163 3084 
Q 1697 3084 1428 2787 
Q 1159 2491 1159 1978 
L 1159 0 
L 581 0 
L 581 3500 
L 1159 3500 
L 1159 2956 
Q 1366 3272 1645 3428 
Q 1925 3584 2291 3584 
Q 2894 3584 3203 3211 
Q 3513 2838 3513 2113 
z
" transform="scale(0.015625)"/>
       <path id="DejaVuSans-7a" d="M 353 3500 
L 3084 3500 
L 3084 2975 
L 922 459 
L 3084 459 
L 3084 0 
L 275 0 
L 275 525 
L 2438 3041 
L 353 3041 
L 353 3500 
z
" transform="scale(0.015625)"/>
       <path id="DejaVuSans-69" d="M 603 3500 
L 1178 3500 
L 1178 0 
L 603 0 
L 603 3500 
z
M 603 4863 
L 1178 4863 
L 1178 4134 
L 603 4134 
L 603 4863 
z
" transform="scale(0.015625)"/>
       <path id="DejaVuSans-64" d="M 2906 2969 
L 2906 4863 
L 3481 4863 
L 3481 0 
L 2906 0 
L 2906 525 
Q 2725 213 2448 61 
Q 2172 -91 1784 -91 
Q 1150 -91 751 415 
Q 353 922 353 1747 
Q 353 2572 751 3078 
Q 1150 3584 1784 3584 
Q 2172 3584 2448 3432 
Q 2725 3281 2906 2969 
z
M 947 1747 
Q 947 1113 1208 752 
Q 1469 391 1925 391 
Q 2381 391 2643 752 
Q 2906 1113 2906 1747 
Q 2906 2381 2643 2742 
Q 2381 3103 1925 3103 
Q 1469 3103 1208 2742 
Q 947 2381 947 1747 
z
" transform="scale(0.015625)"/>
       <path id="DejaVuSans-65" d="M 3597 1894 
L 3597 1613 
L 953 1613 
Q 991 1019 1311 708 
Q 1631 397 2203 397 
Q 2534 397 2845 478 
Q 3156 559 3463 722 
L 3463 178 
Q 3153 47 2828 -22 
Q 2503 -91 2169 -91 
Q 1331 -91 842 396 
Q 353 884 353 1716 
Q 353 2575 817 3079 
Q 1281 3584 2069 3584 
Q 2775 3584 3186 3129 
Q 3597 2675 3597 1894 
z
M 3022 2063 
Q 3016 2534 2758 2815 
Q 2500 3097 2075 3097 
Q 1594 3097 1305 2825 
Q 1016 2553 972 2059 
L 3022 2063 
z
" transform="scale(0.015625)"/>
       <path id="DejaVuSans-20" transform="scale(0.015625)"/>
       <path id="DejaVuSans-70" d="M 1159 525 
L 1159 -1331 
L 581 -1331 
L 581 3500 
L 1159 3500 
L 1159 2969 
Q 1341 3281 1617 3432 
Q 1894 3584 2278 3584 
Q 2916 3584 3314 3078 
Q 3713 2572 3713 1747 
Q 3713 922 3314 415 
Q 2916 -91 2278 -91 
Q 1894 -91 1617 61 
Q 1341 213 1159 525 
z
M 3116 1747 
Q 3116 2381 2855 2742 
Q 2594 3103 2138 3103 
Q 1681 3103 1420 2742 
Q 1159 2381 1159 1747 
Q 1159 1113 1420 752 
Q 1681 391 2138 391 
Q 2594 391 2855 752 
Q 3116 1113 3116 1747 
z
" transform="scale(0.015625)"/>
       <path id="DejaVuSans-72" d="M 2631 2963 
Q 2534 3019 2420 3045 
Q 2306 3072 2169 3072 
Q 1681 3072 1420 2755 
Q 1159 2438 1159 1844 
L 1159 0 
L 581 0 
L 581 3500 
L 1159 3500 
L 1159 2956 
Q 1341 3275 1631 3429 
Q 1922 3584 2338 3584 
Q 2397 3584 2469 3576 
Q 2541 3569 2628 3553 
L 2631 2963 
z
" transform="scale(0.015625)"/>
       <path id="DejaVuSans-6f" d="M 1959 3097 
Q 1497 3097 1228 2736 
Q 959 2375 959 1747 
Q 959 1119 1226 758 
Q 1494 397 1959 397 
Q 2419 397 2687 759 
Q 2956 1122 2956 1747 
Q 2956 2369 2687 2733 
Q 2419 3097 1959 3097 
z
M 1959 3584 
Q 2709 3584 3137 3096 
Q 3566 2609 3566 1747 
Q 3566 888 3137 398 
Q 2709 -91 1959 -91 
Q 1206 -91 779 398 
Q 353 888 353 1747 
Q 353 2609 779 3096 
Q 1206 3584 1959 3584 
z
" transform="scale(0.015625)"/>
       <path id="DejaVuSans-54" d="M -19 4666 
L 3928 4666 
L 3928 4134 
L 2272 4134 
L 2272 0 
L 1638 0 
L 1638 4134 
L -19 4134 
L -19 4666 
z
" transform="scale(0.015625)"/>
       <path id="DejaVuSans-61" d="M 2194 1759 
Q 1497 1759 1228 1600 
Q 959 1441 959 1056 
Q 959 750 1161 570 
Q 1363 391 1709 391 
Q 2188 391 2477 730 
Q 2766 1069 2766 1631 
L 2766 1759 
L 2194 1759 
z
M 3341 1997 
L 3341 0 
L 2766 0 
L 2766 531 
Q 2569 213 2275 61 
Q 1981 -91 1556 -91 
Q 1019 -91 701 211 
Q 384 513 384 1019 
Q 384 1609 779 1909 
Q 1175 2209 1959 2209 
L 2766 2209 
L 2766 2266 
Q 2766 2663 2505 2880 
Q 2244 3097 1772 3097 
Q 1472 3097 1187 3025 
Q 903 2953 641 2809 
L 641 3341 
Q 956 3463 1253 3523 
Q 1550 3584 1831 3584 
Q 2591 3584 2966 3190 
Q 3341 2797 3341 1997 
z
" transform="scale(0.015625)"/>
       <path id="DejaVuSans-67" d="M 2906 1791 
Q 2906 2416 2648 2759 
Q 2391 3103 1925 3103 
Q 1463 3103 1205 2759 
Q 947 2416 947 1791 
Q 947 1169 1205 825 
Q 1463 481 1925 481 
Q 2391 481 2648 825 
Q 2906 1169 2906 1791 
z
M 3481 434 
Q 3481 -459 3084 -895 
Q 2688 -1331 1869 -1331 
Q 1566 -1331 1297 -1286 
Q 1028 -1241 775 -1147 
L 775 -588 
Q 1028 -725 1275 -790 
Q 1522 -856 1778 -856 
Q 2344 -856 2625 -561 
Q 2906 -266 2906 331 
L 2906 616 
Q 2728 306 2450 153 
Q 2172 0 1784 0 
Q 1141 0 747 490 
Q 353 981 353 1791 
Q 353 2603 747 3093 
Q 1141 3584 1784 3584 
Q 2172 3584 2450 3431 
Q 2728 3278 2906 2969 
L 2906 3500 
L 3481 3500 
L 3481 434 
z
" transform="scale(0.015625)"/>
       <path id="DejaVuSans-45" d="M 628 4666 
L 3578 4666 
L 3578 4134 
L 1259 4134 
L 1259 2753 
L 3481 2753 
L 3481 2222 
L 1259 2222 
L 1259 531 
L 3634 531 
L 3634 0 
L 628 0 
L 628 4666 
z
" transform="scale(0.015625)"/>
       <path id="DejaVuSans-77" d="M 269 3500 
L 844 3500 
L 1563 769 
L 2278 3500 
L 2956 3500 
L 3675 769 
L 4391 3500 
L 4966 3500 
L 4050 0 
L 3372 0 
L 2619 2869 
L 1863 0 
L 1184 0 
L 269 3500 
z
" transform="scale(0.015625)"/>
       <path id="DejaVuSans-68" d="M 3513 2113 
L 3513 0 
L 2938 0 
L 2938 2094 
Q 2938 2591 2744 2837 
Q 2550 3084 2163 3084 
Q 1697 3084 1428 2787 
Q 1159 2491 1159 1978 
L 1159 0 
L 581 0 
L 581 4863 
L 1159 4863 
L 1159 2956 
Q 1366 3272 1645 3428 
Q 1925 3584 2291 3584 
Q 2894 3584 3203 3211 
Q 3513 2838 3513 2113 
z
" transform="scale(0.015625)"/>
      </defs>
      <use xlink:href="#DejaVuSans-49"/>
      <use xlink:href="#DejaVuSans-6e" x="29.492188"/>
      <use xlink:href="#DejaVuSans-7a" x="92.871094"/>
      <use xlink:href="#DejaVuSans-69" x="145.361328"/>
      <use xlink:href="#DejaVuSans-64" x="173.144531"/>
      <use xlink:href="#DejaVuSans-65" x="236.621094"/>
      <use xlink:href="#DejaVuSans-6e" x="298.144531"/>
      <use xlink:href="#DejaVuSans-7a" x="361.523438"/>
      <use xlink:href="#DejaVuSans-20" x="414.013672"/>
      <use xlink:href="#DejaVuSans-70" x="445.800781"/>
      <use xlink:href="#DejaVuSans-72" x="509.277344"/>
      <use xlink:href="#DejaVuSans-6f" x="548.140625"/>
      <use xlink:href="#DejaVuSans-20" x="609.322266"/>
      <use xlink:href="#DejaVuSans-37" x="641.109375"/>
      <use xlink:href="#DejaVuSans-20" x="704.732422"/>
      <use xlink:href="#DejaVuSans-54" x="736.519531"/>
      <use xlink:href="#DejaVuSans-61" x="781.103516"/>
      <use xlink:href="#DejaVuSans-67" x="842.382812"/>
      <use xlink:href="#DejaVuSans-65" x="905.859375"/>
      <use xlink:href="#DejaVuSans-20" x="967.382812"/>
      <use xlink:href="#DejaVuSans-70" x="999.169922"/>
      <use xlink:href="#DejaVuSans-72" x="1062.646484"/>
      <use xlink:href="#DejaVuSans-6f" x="1101.509766"/>
      <use xlink:href="#DejaVuSans-20" x="1162.691406"/>
      <use xlink:href="#DejaVuSans-31" x="1194.478516"/>
      <use xlink:href="#DejaVuSans-30" x="1258.101562"/>
      <use xlink:href="#DejaVuSans-30" x="1321.724609"/>
      <use xlink:href="#DejaVuSans-2e" x="1385.347656"/>
      <use xlink:href="#DejaVuSans-30" x="1417.134766"/>
      <use xlink:href="#DejaVuSans-30" x="1480.757812"/>
      <use xlink:href="#DejaVuSans-30" x="1544.380859"/>
      <use xlink:href="#DejaVuSans-20" x="1608.003906"/>
      <use xlink:href="#DejaVuSans-45" x="1639.791016"/>
      <use xlink:href="#DejaVuSans-69" x="1702.974609"/>
      <use xlink:href="#DejaVuSans-6e" x="1730.757812"/>
      <use xlink:href="#DejaVuSans-77" x="1794.136719"/>
      <use xlink:href="#DejaVuSans-6f" x="1875.923828"/>
      <use xlink:href="#DejaVuSans-68" x="1937.105469"/>
      <use xlink:href="#DejaVuSans-6e" x="2000.484375"/>
      <use xlink:href="#DejaVuSans-65" x="2063.863281"/>
      <use xlink:href="#DejaVuSans-72" x="2125.386719"/>
     </g>
    </g>
   </g>
   <g id="line2d_37">
    <path d="M 73.832727 265.797818 
L 77.512691 265.797818 
L 77.921575 265.244337 
L 78.33046 264.967597 
L 79.14823 264.87535 
L 79.557115 264.506363 
L 80.374884 263.214907 
L 80.783769 263.12266 
L 81.601539 262.661426 
L 82.419308 262.569179 
L 83.645963 263.676141 
L 84.054848 263.860635 
L 85.281502 263.860635 
L 85.690387 263.583894 
L 86.099272 263.768388 
L 86.508157 263.491648 
L 86.917041 263.583894 
L 88.143696 262.938167 
L 88.552581 263.307154 
L 88.961466 263.307154 
L 89.37035 263.676141 
L 89.779235 263.491648 
L 90.597005 264.137375 
L 91.00589 264.783103 
L 91.414774 264.783103 
L 91.823659 265.059844 
L 92.232544 265.15209 
L 92.641429 265.521078 
L 93.459199 265.613325 
L 94.685853 265.613325 
L 95.094738 265.428831 
L 95.912507 265.521078 
L 96.730277 265.521078 
L 98.365816 264.87535 
L 98.774701 263.860635 
L 100.001356 263.952882 
L 100.819125 264.414116 
L 101.22801 264.414116 
L 101.636895 265.059844 
L 102.04578 264.506363 
L 102.454665 264.229622 
L 103.272434 264.137375 
L 103.681319 263.952882 
L 104.090204 263.952882 
L 104.499089 264.321869 
L 104.907973 263.676141 
L 105.316858 263.860635 
L 106.952398 263.768388 
L 107.361282 263.676141 
L 107.770167 264.783103 
L 111.450131 265.521078 
L 112.676785 265.428831 
L 113.903439 265.244337 
L 114.721209 265.336584 
L 115.130094 265.336584 
L 115.947864 265.613325 
L 117.992288 265.705571 
L 118.810057 265.797818 
L 122.490021 265.705571 
L 123.30779 264.87535 
L 123.716675 264.783103 
L 124.12556 264.87535 
L 124.94333 264.783103 
L 125.352214 264.783103 
L 126.169984 265.613325 
L 127.396638 265.797818 
L 127.805523 265.244337 
L 128.623293 265.15209 
L 129.032178 264.783103 
L 130.258832 264.783103 
L 130.667717 265.15209 
L 132.712141 265.521078 
L 133.121026 265.428831 
L 133.938796 265.521078 
L 134.34768 265.428831 
L 135.16545 265.521078 
L 136.392104 265.613325 
L 136.800989 265.336584 
L 138.027644 264.967597 
L 139.254298 264.321869 
L 140.072068 264.59861 
L 140.480953 264.59861 
L 141.298722 264.87535 
L 141.707607 264.967597 
L 142.116492 264.414116 
L 142.525377 264.137375 
L 143.343146 264.229622 
L 143.752031 263.860635 
L 144.569801 263.860635 
L 144.978686 264.137375 
L 145.796455 264.045129 
L 146.20534 263.768388 
L 146.614225 263.860635 
L 147.02311 263.768388 
L 148.249764 263.952882 
L 148.658649 263.399401 
L 149.067534 263.491648 
L 149.476419 262.84592 
L 150.294188 263.030414 
L 150.703073 262.476933 
L 151.111958 262.84592 
L 151.520843 263.491648 
L 151.929728 263.768388 
L 152.338612 264.414116 
L 152.747497 264.506363 
L 153.156382 264.321869 
L 153.565267 265.244337 
L 155.609691 265.15209 
L 156.018576 265.059844 
L 156.42746 264.783103 
L 157.24523 264.87535 
L 157.654115 264.59861 
L 158.063 264.783103 
L 158.471885 264.690856 
L 158.880769 264.967597 
L 159.698539 265.059844 
L 160.516309 265.15209 
L 160.925193 264.783103 
L 162.151848 264.229622 
L 162.560733 263.676141 
L 163.787387 263.583894 
L 164.196272 263.214907 
L 164.605157 263.307154 
L 165.014042 263.12266 
L 165.422926 263.583894 
L 165.831811 263.583894 
L 166.240696 263.214907 
L 166.649581 263.399401 
L 167.058466 263.768388 
L 167.876235 263.12266 
L 168.28512 263.214907 
L 168.694005 262.84592 
L 169.10289 262.753673 
L 169.511775 262.015699 
L 170.329544 259.0638 
L 171.147314 257.587851 
L 171.965084 254.451459 
L 172.373968 252.145289 
L 172.782853 251.868548 
L 173.191738 252.606523 
L 173.600623 251.868548 
L 174.009508 249.839118 
L 174.827277 250.853833 
L 175.236162 251.776301 
L 176.053932 245.872505 
L 176.462817 245.319024 
L 176.871701 246.702726 
L 177.280586 246.61048 
L 177.689471 245.503518 
L 178.098356 245.411271 
L 178.507241 247.809688 
L 178.916125 251.591808 
L 179.733895 248.63991 
L 180.14278 248.455416 
L 180.551665 246.979467 
L 180.96055 246.702726 
L 181.369434 247.071714 
L 181.778319 244.950037 
L 182.187204 249.101144 
L 182.596089 249.101144 
L 183.004974 249.285637 
L 183.413858 251.315067 
L 183.822743 251.499561 
L 184.231628 252.422029 
L 184.640513 252.791016 
L 185.049398 251.407314 
L 185.458283 252.237536 
L 185.867167 252.69877 
L 186.276052 252.514276 
L 186.684937 253.252251 
L 187.093822 252.97551 
L 187.502707 253.252251 
L 187.911591 254.543706 
L 188.320476 252.422029 
L 188.729361 252.329782 
L 189.138246 254.912693 
L 189.956016 254.082472 
L 190.3649 254.266966 
L 190.773785 252.69877 
L 191.18267 254.635953 
L 191.591555 253.528991 
L 192.00044 249.470131 
L 192.409324 248.547663 
L 192.818209 250.853833 
L 193.227094 249.746871 
L 193.635979 249.931365 
L 194.453749 250.66934 
L 194.862633 252.422029 
L 195.271518 254.7282 
L 195.680403 252.606523 
L 196.089288 254.635953 
L 196.498173 253.436744 
L 196.907057 253.528991 
L 197.315942 254.174719 
L 197.724827 252.053042 
L 198.133712 252.606523 
L 198.542597 252.514276 
L 198.951482 251.776301 
L 199.360366 252.053042 
L 199.769251 253.621238 
L 200.178136 253.436744 
L 200.587021 254.451459 
L 200.995906 252.97551 
L 201.40479 252.606523 
L 201.813675 251.130574 
L 202.22256 251.776301 
L 203.04033 250.023612 
L 203.449215 251.868548 
L 203.858099 252.053042 
L 204.266984 252.791016 
L 204.675869 253.160004 
L 205.084754 253.160004 
L 205.493639 254.082472 
L 205.902523 255.558421 
L 206.311408 255.281681 
L 206.720293 255.927408 
L 207.129178 255.373927 
L 207.538063 257.03437 
L 207.946948 256.388642 
L 208.355832 255.466174 
L 209.173602 255.927408 
L 209.582487 255.281681 
L 209.991372 255.835162 
L 210.400256 255.466174 
L 210.809141 256.111902 
L 211.218026 255.927408 
L 211.626911 255.558421 
L 212.035796 256.665383 
L 212.444681 255.927408 
L 212.853565 256.480889 
L 213.26245 256.573136 
L 213.671335 257.587851 
L 214.08022 258.141332 
L 214.489105 258.233579 
L 214.897989 257.587851 
L 215.306874 258.233579 
L 215.715759 258.233579 
L 216.124644 258.602566 
L 216.533529 257.218864 
L 216.942414 256.849877 
L 217.351298 256.665383 
L 217.760183 257.03437 
L 218.169068 257.587851 
L 218.577953 256.75763 
L 218.986838 256.388642 
L 219.395722 256.75763 
L 219.804607 256.665383 
L 220.213492 256.75763 
L 220.622377 255.742915 
L 221.031262 255.742915 
L 221.849031 256.480889 
L 222.257916 257.680098 
L 222.666801 257.587851 
L 223.075686 256.111902 
L 223.893455 256.665383 
L 225.12011 256.296396 
L 225.528995 256.573136 
L 225.93788 258.141332 
L 226.346764 258.233579 
L 226.755649 257.772345 
L 227.164534 257.864592 
L 227.982304 255.373927 
L 228.391188 253.436744 
L 229.208958 252.145289 
L 229.617843 253.160004 
L 230.026728 253.436744 
L 230.435613 254.082472 
L 231.253382 257.218864 
L 231.662267 257.772345 
L 232.071152 257.587851 
L 232.480037 256.204149 
L 232.888921 256.111902 
L 233.297806 256.296396 
L 233.706691 255.281681 
L 234.115576 256.111902 
L 234.524461 256.573136 
L 234.933346 258.141332 
L 235.34223 257.864592 
L 235.751115 258.602566 
L 236.16 256.665383 
L 236.568885 255.927408 
L 236.97777 256.204149 
L 237.386654 255.00494 
L 238.204424 253.990225 
L 238.613309 252.514276 
L 239.022194 253.344497 
L 239.431079 253.897978 
L 239.839963 252.97551 
L 240.248848 252.791016 
L 240.657733 250.94608 
L 241.066618 250.577093 
L 241.475503 250.484846 
L 241.884387 250.208106 
L 242.293272 250.484846 
L 242.702157 249.746871 
L 243.111042 250.208106 
L 243.519927 250.94608 
L 243.928812 251.960795 
L 245.155466 251.407314 
L 245.564351 252.97551 
L 245.973236 252.883263 
L 246.791005 251.315067 
L 247.19989 251.407314 
L 247.608775 253.436744 
L 248.426545 251.591808 
L 248.835429 252.053042 
L 249.244314 253.805732 
L 250.062084 255.281681 
L 250.470969 255.097187 
L 250.879853 255.558421 
L 251.288738 255.466174 
L 251.697623 255.650668 
L 252.106508 255.466174 
L 252.515393 256.573136 
L 252.924278 256.019655 
L 253.333162 258.510319 
L 253.742047 259.801775 
L 254.150932 260.631996 
L 255.377586 261.000984 
L 255.786471 261.277724 
L 256.195356 258.694813 
L 256.604241 259.248294 
L 257.013126 258.602566 
L 257.830895 259.432788 
L 258.648665 259.801775 
L 259.466435 260.81649 
L 259.875319 261.738958 
L 260.284204 261.462218 
L 260.693089 262.015699 
L 261.101974 261.831205 
L 261.510859 263.676141 
L 262.328628 263.768388 
L 263.146398 263.768388 
L 263.555283 264.045129 
L 263.964168 264.690856 
L 264.373052 264.59861 
L 264.781937 264.967597 
L 265.599707 264.783103 
L 266.008592 265.15209 
L 266.417477 264.967597 
L 266.826361 265.059844 
L 268.053016 264.690856 
L 268.461901 264.87535 
L 268.870785 264.87535 
L 269.27967 265.059844 
L 269.688555 264.967597 
L 270.506325 265.428831 
L 270.91521 265.613325 
L 271.324094 265.613325 
L 271.732979 265.428831 
L 272.141864 264.783103 
L 272.959634 264.87535 
L 274.186288 264.87535 
L 274.595173 265.059844 
L 275.004058 265.705571 
L 276.639597 265.428831 
L 278.275136 265.428831 
L 278.684021 265.244337 
L 279.092906 265.428831 
L 279.910676 265.336584 
L 280.31956 264.229622 
L 280.728445 263.860635 
L 281.13733 263.307154 
L 281.546215 263.307154 
L 281.9551 262.661426 
L 282.772869 262.384686 
L 283.181754 262.661426 
L 283.590639 260.447503 
L 283.999524 259.986268 
L 284.408409 260.078515 
L 285.226178 259.801775 
L 285.635063 259.248294 
L 286.043948 259.986268 
L 286.452833 261.923452 
L 286.861717 262.661426 
L 287.270602 262.569179 
L 287.679487 263.307154 
L 288.088372 263.676141 
L 288.497257 264.229622 
L 288.906142 264.321869 
L 289.315026 264.783103 
L 290.132796 264.045129 
L 291.35945 263.676141 
L 291.768335 262.753673 
L 292.17722 261.462218 
L 292.586105 261.738958 
L 292.99499 260.724243 
L 293.403875 260.170762 
L 293.812759 258.510319 
L 294.221644 258.233579 
L 294.630529 257.772345 
L 295.039414 258.049085 
L 295.448299 258.141332 
L 296.266068 254.451459 
L 296.674953 254.359212 
L 297.083838 252.053042 
L 297.492723 251.130574 
L 297.901608 247.994182 
L 298.310492 243.381841 
L 298.719377 244.673296 
L 299.128262 241.998138 
L 299.537147 242.367126 
L 299.946032 241.813645 
L 300.354916 240.706683 
L 300.763801 241.167917 
L 301.172686 242.643866 
L 301.581571 239.691968 
L 301.990456 240.153202 
L 302.399341 241.260164 
L 302.808225 240.337696 
L 303.625995 243.843075 
L 304.03488 244.119815 
L 304.443765 246.333739 
L 304.852649 249.285637 
L 305.261534 248.547663 
L 305.670419 252.237536 
L 306.079304 252.514276 
L 306.488189 253.528991 
L 307.305958 258.233579 
L 307.714843 259.709528 
L 308.532613 260.447503 
L 308.941498 261.185477 
L 309.350382 262.200192 
L 309.759267 262.569179 
L 310.168152 262.476933 
L 310.577037 262.753673 
L 310.985922 262.84592 
L 311.803691 262.200192 
L 312.621461 260.724243 
L 313.439231 259.894022 
L 314.665885 258.971553 
L 315.07477 259.340541 
L 315.483655 258.602566 
L 315.89254 258.971553 
L 316.301424 258.971553 
L 316.710309 259.432788 
L 317.119194 259.709528 
L 317.528079 260.447503 
L 317.936964 258.418073 
L 318.345848 257.03437 
L 318.754733 256.573136 
L 319.163618 254.912693 
L 319.572503 254.543706 
L 320.799157 252.791016 
L 321.208042 253.897978 
L 321.616927 252.883263 
L 322.025812 253.528991 
L 322.434697 253.436744 
L 322.843581 253.805732 
L 323.252466 254.635953 
L 323.661351 256.480889 
L 324.070236 254.635953 
L 324.479121 253.897978 
L 325.29689 253.160004 
L 325.705775 251.776301 
L 326.523545 247.256207 
L 326.93243 248.086429 
L 327.341314 247.440701 
L 327.750199 247.901935 
L 328.159084 247.717441 
L 328.567969 247.901935 
L 328.976854 248.824403 
L 329.385738 245.503518 
L 329.794623 246.333739 
L 330.203508 245.042284 
L 330.612393 242.643866 
L 331.430163 239.599721 
L 331.839047 238.585006 
L 332.247932 238.585006 
L 332.656817 232.312222 
L 333.065702 231.758741 
L 333.474587 230.467286 
L 333.883471 231.758741 
L 334.292356 231.666495 
L 334.701241 231.758741 
L 335.110126 231.389754 
L 335.519011 234.157159 
L 335.927896 233.142444 
L 336.33678 234.249406 
L 336.745665 234.618393 
L 337.15455 234.157159 
L 337.563435 231.850988 
L 338.790089 241.905892 
L 339.198974 241.721398 
L 339.607859 241.721398 
L 340.016744 244.027569 
L 340.425629 244.119815 
L 340.834513 243.658581 
L 341.243398 243.843075 
L 341.652283 243.012854 
L 342.061168 244.027569 
L 342.470053 243.750828 
L 342.878937 244.673296 
L 343.287822 244.765543 
L 343.696707 246.241492 
L 344.105592 246.241492 
L 344.514477 248.178675 
L 344.923362 250.94608 
L 345.332246 250.94608 
L 345.741131 250.66934 
L 346.150016 252.69877 
L 346.558901 253.713485 
L 346.967786 252.97551 
L 347.37667 252.791016 
L 347.785555 252.97551 
L 348.19444 252.514276 
L 348.603325 252.69877 
L 349.01221 249.285637 
L 349.421095 242.736113 
L 349.829979 240.060955 
L 350.238864 238.308266 
L 350.647749 232.035482 
L 351.465519 228.62235 
L 351.874403 225.670451 
L 352.283288 227.423141 
L 352.692173 226.961907 
L 353.101058 224.747983 
L 353.509943 224.747983 
L 353.918828 224.563489 
L 354.736597 218.198459 
L 355.145482 208.420296 
L 356.372136 192.184855 
L 356.781021 190.985647 
L 357.189906 183.698148 
L 358.007676 179.823781 
L 358.825445 171.706061 
L 359.23433 171.429321 
L 359.643215 169.768878 
L 360.0521 173.18201 
L 360.460985 172.720776 
L 361.278754 162.020145 
L 361.687639 148.82885 
L 362.096524 146.061445 
L 362.914294 129.457017 
L 363.323178 119.586608 
L 363.732063 120.693569 
L 364.140948 120.601323 
L 364.549833 127.243094 
L 364.958718 131.947682 
L 365.367602 132.87015 
L 365.776487 140.618883 
L 366.185372 144.032015 
L 366.594257 144.493249 
L 367.003142 139.880908 
L 367.412027 145.04673 
L 367.820911 136.467776 
L 368.229796 142.187079 
L 368.638681 143.294041 
L 369.047566 143.939768 
L 369.456451 145.04673 
L 369.865335 155.562868 
L 370.27422 151.780748 
L 370.683105 155.470621 
L 371.09199 154.086919 
L 371.500875 151.504008 
L 371.90976 146.430432 
L 372.318644 144.308756 
L 372.727529 125.398157 
L 373.136414 113.037083 
L 373.545299 104.458129 
L 373.954184 98.369839 
L 374.363068 84.99405 
L 374.771953 76.230602 
L 375.180838 63.131553 
L 375.998608 75.861615 
L 376.407493 72.079495 
L 376.816377 77.614304 
L 377.225262 69.404337 
L 377.634147 69.588831 
L 378.043032 71.34152 
L 378.451917 61.563358 
L 378.860801 57.412251 
L 379.269686 64.238515 
L 379.678571 62.393579 
L 380.087456 66.913673 
L 380.496341 61.932345 
L 380.905226 61.286617 
L 381.31411 66.913673 
L 381.722995 60.548642 
L 382.13188 58.980447 
L 382.540765 52.154182 
L 382.94965 68.112882 
L 383.358534 76.784083 
L 383.767419 80.566203 
L 384.176304 87.853701 
L 384.585189 99.292307 
L 384.994074 105.657338 
L 385.402959 124.291195 
L 385.811843 120.232335 
L 386.629613 131.394201 
L 387.038498 130.010498 
L 387.447383 135.822048 
L 387.856267 134.438346 
L 388.265152 125.490404 
L 389.082922 133.515878 
L 389.900692 152.241982 
L 390.309576 163.772835 
L 390.718461 168.477423 
L 391.127346 168.292929 
L 391.536231 178.624573 
L 391.945116 194.029792 
L 392.354 193.291817 
L 392.762885 196.70495 
L 393.17177 193.568558 
L 393.580655 194.767766 
L 393.98954 199.472354 
L 394.398425 194.122039 
L 394.807309 187.203527 
L 396.033964 197.442924 
L 396.442849 200.671563 
L 396.851733 205.376151 
L 397.260618 204.176942 
L 397.669503 204.453683 
L 398.078388 209.342764 
L 398.487273 212.110169 
L 398.487273 212.110169 
" clip-path="url(#p08586c5907)" style="fill: none; stroke: #1f77b4; stroke-width: 1.5; stroke-linecap: square"/>
   </g>
   <g id="patch_3">
    <path d="M 57.6 276.48 
L 57.6 41.472 
" style="fill: none; stroke: #000000; stroke-width: 0.8; stroke-linejoin: miter; stroke-linecap: square"/>
   </g>
   <g id="patch_4">
    <path d="M 414.72 276.48 
L 414.72 41.472 
" style="fill: none; stroke: #000000; stroke-width: 0.8; stroke-linejoin: miter; stroke-linecap: square"/>
   </g>
   <g id="patch_5">
    <path d="M 57.6 276.48 
L 414.72 276.48 
" style="fill: none; stroke: #000000; stroke-width: 0.8; stroke-linejoin: miter; stroke-linecap: square"/>
   </g>
   <g id="patch_6">
    <path d="M 57.6 41.472 
L 414.72 41.472 
" style="fill: none; stroke: #000000; stroke-width: 0.8; stroke-linejoin: miter; stroke-linecap: square"/>
   </g>
  </g>
  <g id="text_20">
   <!-- Inzidenzverlauf LK Ahrweiler -->
   <g transform="translate(102.3525 20.589187)scale(0.18 -0.18)">
    <defs>
     <path id="DejaVuSans-76" d="M 191 3500 
L 800 3500 
L 1894 563 
L 2988 3500 
L 3597 3500 
L 2284 0 
L 1503 0 
L 191 3500 
z
" transform="scale(0.015625)"/>
     <path id="DejaVuSans-6c" d="M 603 4863 
L 1178 4863 
L 1178 0 
L 603 0 
L 603 4863 
z
" transform="scale(0.015625)"/>
     <path id="DejaVuSans-75" d="M 544 1381 
L 544 3500 
L 1119 3500 
L 1119 1403 
Q 1119 906 1312 657 
Q 1506 409 1894 409 
Q 2359 409 2629 706 
Q 2900 1003 2900 1516 
L 2900 3500 
L 3475 3500 
L 3475 0 
L 2900 0 
L 2900 538 
Q 2691 219 2414 64 
Q 2138 -91 1772 -91 
Q 1169 -91 856 284 
Q 544 659 544 1381 
z
M 1991 3584 
L 1991 3584 
z
" transform="scale(0.015625)"/>
     <path id="DejaVuSans-66" d="M 2375 4863 
L 2375 4384 
L 1825 4384 
Q 1516 4384 1395 4259 
Q 1275 4134 1275 3809 
L 1275 3500 
L 2222 3500 
L 2222 3053 
L 1275 3053 
L 1275 0 
L 697 0 
L 697 3053 
L 147 3053 
L 147 3500 
L 697 3500 
L 697 3744 
Q 697 4328 969 4595 
Q 1241 4863 1831 4863 
L 2375 4863 
z
" transform="scale(0.015625)"/>
     <path id="DejaVuSans-4c" d="M 628 4666 
L 1259 4666 
L 1259 531 
L 3531 531 
L 3531 0 
L 628 0 
L 628 4666 
z
" transform="scale(0.015625)"/>
     <path id="DejaVuSans-4b" d="M 628 4666 
L 1259 4666 
L 1259 2694 
L 3353 4666 
L 4166 4666 
L 1850 2491 
L 4331 0 
L 3500 0 
L 1259 2247 
L 1259 0 
L 628 0 
L 628 4666 
z
" transform="scale(0.015625)"/>
     <path id="DejaVuSans-41" d="M 2188 4044 
L 1331 1722 
L 3047 1722 
L 2188 4044 
z
M 1831 4666 
L 2547 4666 
L 4325 0 
L 3669 0 
L 3244 1197 
L 1141 1197 
L 716 0 
L 50 0 
L 1831 4666 
z
" transform="scale(0.015625)"/>
    </defs>
    <use xlink:href="#DejaVuSans-49"/>
    <use xlink:href="#DejaVuSans-6e" x="29.492188"/>
    <use xlink:href="#DejaVuSans-7a" x="92.871094"/>
    <use xlink:href="#DejaVuSans-69" x="145.361328"/>
    <use xlink:href="#DejaVuSans-64" x="173.144531"/>
    <use xlink:href="#DejaVuSans-65" x="236.621094"/>
    <use xlink:href="#DejaVuSans-6e" x="298.144531"/>
    <use xlink:href="#DejaVuSans-7a" x="361.523438"/>
    <use xlink:href="#DejaVuSans-76" x="414.013672"/>
    <use xlink:href="#DejaVuSans-65" x="473.193359"/>
    <use xlink:href="#DejaVuSans-72" x="534.716797"/>
    <use xlink:href="#DejaVuSans-6c" x="575.830078"/>
    <use xlink:href="#DejaVuSans-61" x="603.613281"/>
    <use xlink:href="#DejaVuSans-75" x="664.892578"/>
    <use xlink:href="#DejaVuSans-66" x="728.271484"/>
    <use xlink:href="#DejaVuSans-20" x="763.476562"/>
    <use xlink:href="#DejaVuSans-4c" x="795.263672"/>
    <use xlink:href="#DejaVuSans-4b" x="850.976562"/>
    <use xlink:href="#DejaVuSans-20" x="916.552734"/>
    <use xlink:href="#DejaVuSans-41" x="948.339844"/>
    <use xlink:href="#DejaVuSans-68" x="1016.748047"/>
    <use xlink:href="#DejaVuSans-72" x="1080.126953"/>
    <use xlink:href="#DejaVuSans-77" x="1121.240234"/>
    <use xlink:href="#DejaVuSans-65" x="1203.027344"/>
    <use xlink:href="#DejaVuSans-69" x="1264.550781"/>
    <use xlink:href="#DejaVuSans-6c" x="1292.333984"/>
    <use xlink:href="#DejaVuSans-65" x="1320.117188"/>
    <use xlink:href="#DejaVuSans-72" x="1381.640625"/>
   </g>
  </g>
 </g>
 <defs>
  <clipPath id="p08586c5907">
   <rect x="57.6" y="41.472" width="357.12" height="235.008"/>
  </clipPath>
 </defs>
</svg>
