<?xml version="1.0" encoding="utf-8" standalone="no"?>
<!DOCTYPE svg PUBLIC "-//W3C//DTD SVG 1.1//EN"
  "http://www.w3.org/Graphics/SVG/1.1/DTD/svg11.dtd">
<svg xmlns:xlink="http://www.w3.org/1999/xlink" width="460.8pt" height="345.6pt" viewBox="0 0 460.8 345.6" xmlns="http://www.w3.org/2000/svg" version="1.1">
 <metadata>
  <rdf:RDF xmlns:dc="http://purl.org/dc/elements/1.1/" xmlns:cc="http://creativecommons.org/ns#" xmlns:rdf="http://www.w3.org/1999/02/22-rdf-syntax-ns#">
   <cc:Work>
    <dc:type rdf:resource="http://purl.org/dc/dcmitype/StillImage"/>
    <dc:date>2022-10-19T09:36:36.314206</dc:date>
    <dc:format>image/svg+xml</dc:format>
    <dc:creator>
     <cc:Agent>
      <dc:title>Matplotlib v3.6.1, https://matplotlib.org/</dc:title>
     </cc:Agent>
    </dc:creator>
   </cc:Work>
  </rdf:RDF>
 </metadata>
 <defs>
  <style type="text/css">*{stroke-linejoin: round; stroke-linecap: butt}</style>
 </defs>
 <g id="figure_1">
  <g id="patch_1">
   <path d="M 0 345.6 
L 460.8 345.6 
L 460.8 0 
L 0 0 
z
" style="fill: #ffffff"/>
  </g>
  <g id="axes_1">
   <g id="patch_2">
    <path d="M 57.6 276.48 
L 414.72 276.48 
L 414.72 41.472 
L 57.6 41.472 
z
" style="fill: #ffffff"/>
   </g>
   <g id="matplotlib.axis_1">
    <g id="xtick_1">
     <g id="line2d_1">
      <path d="M 58.375 276.48 
L 58.375 41.472 
" clip-path="url(#p118118bb06)" style="fill: none; stroke-dasharray: 2.96,1.28; stroke-dashoffset: 0; stroke: #808080; stroke-width: 0.8"/>
     </g>
     <g id="line2d_2">
      <defs>
       <path id="me4ee6b88d7" d="M 0 0 
L 0 3.5 
" style="stroke: #000000; stroke-width: 0.8"/>
      </defs>
      <g>
       <use xlink:href="#me4ee6b88d7" x="58.375" y="276.48" style="stroke: #000000; stroke-width: 0.8"/>
      </g>
     </g>
     <g id="text_1">
      <!-- 17.01.2020 -->
      <g transform="translate(7.749789 318.688565) rotate(-30) scale(0.1 -0.1)">
       <defs>
        <path id="DejaVuSans-31" d="M 794 531 
L 1825 531 
L 1825 4091 
L 703 3866 
L 703 4441 
L 1819 4666 
L 2450 4666 
L 2450 531 
L 3481 531 
L 3481 0 
L 794 0 
L 794 531 
z
" transform="scale(0.015625)"/>
        <path id="DejaVuSans-37" d="M 525 4666 
L 3525 4666 
L 3525 4397 
L 1831 0 
L 1172 0 
L 2766 4134 
L 525 4134 
L 525 4666 
z
" transform="scale(0.015625)"/>
        <path id="DejaVuSans-2e" d="M 684 794 
L 1344 794 
L 1344 0 
L 684 0 
L 684 794 
z
" transform="scale(0.015625)"/>
        <path id="DejaVuSans-30" d="M 2034 4250 
Q 1547 4250 1301 3770 
Q 1056 3291 1056 2328 
Q 1056 1369 1301 889 
Q 1547 409 2034 409 
Q 2525 409 2770 889 
Q 3016 1369 3016 2328 
Q 3016 3291 2770 3770 
Q 2525 4250 2034 4250 
z
M 2034 4750 
Q 2819 4750 3233 4129 
Q 3647 3509 3647 2328 
Q 3647 1150 3233 529 
Q 2819 -91 2034 -91 
Q 1250 -91 836 529 
Q 422 1150 422 2328 
Q 422 3509 836 4129 
Q 1250 4750 2034 4750 
z
" transform="scale(0.015625)"/>
        <path id="DejaVuSans-32" d="M 1228 531 
L 3431 531 
L 3431 0 
L 469 0 
L 469 531 
Q 828 903 1448 1529 
Q 2069 2156 2228 2338 
Q 2531 2678 2651 2914 
Q 2772 3150 2772 3378 
Q 2772 3750 2511 3984 
Q 2250 4219 1831 4219 
Q 1534 4219 1204 4116 
Q 875 4013 500 3803 
L 500 4441 
Q 881 4594 1212 4672 
Q 1544 4750 1819 4750 
Q 2544 4750 2975 4387 
Q 3406 4025 3406 3419 
Q 3406 3131 3298 2873 
Q 3191 2616 2906 2266 
Q 2828 2175 2409 1742 
Q 1991 1309 1228 531 
z
" transform="scale(0.015625)"/>
       </defs>
       <use xlink:href="#DejaVuSans-31"/>
       <use xlink:href="#DejaVuSans-37" x="63.623047"/>
       <use xlink:href="#DejaVuSans-2e" x="127.246094"/>
       <use xlink:href="#DejaVuSans-30" x="159.033203"/>
       <use xlink:href="#DejaVuSans-31" x="222.65625"/>
       <use xlink:href="#DejaVuSans-2e" x="286.279297"/>
       <use xlink:href="#DejaVuSans-32" x="318.066406"/>
       <use xlink:href="#DejaVuSans-30" x="381.689453"/>
       <use xlink:href="#DejaVuSans-32" x="445.3125"/>
       <use xlink:href="#DejaVuSans-30" x="508.935547"/>
      </g>
     </g>
    </g>
    <g id="xtick_2">
     <g id="line2d_3">
      <path d="M 94.222273 276.48 
L 94.222273 41.472 
" clip-path="url(#p118118bb06)" style="fill: none; stroke-dasharray: 2.96,1.28; stroke-dashoffset: 0; stroke: #808080; stroke-width: 0.8"/>
     </g>
     <g id="line2d_4">
      <g>
       <use xlink:href="#me4ee6b88d7" x="94.222273" y="276.48" style="stroke: #000000; stroke-width: 0.8"/>
      </g>
     </g>
     <g id="text_2">
      <!-- 02.05.2020 -->
      <g transform="translate(43.597062 318.688565) rotate(-30) scale(0.1 -0.1)">
       <defs>
        <path id="DejaVuSans-35" d="M 691 4666 
L 3169 4666 
L 3169 4134 
L 1269 4134 
L 1269 2991 
Q 1406 3038 1543 3061 
Q 1681 3084 1819 3084 
Q 2600 3084 3056 2656 
Q 3513 2228 3513 1497 
Q 3513 744 3044 326 
Q 2575 -91 1722 -91 
Q 1428 -91 1123 -41 
Q 819 9 494 109 
L 494 744 
Q 775 591 1075 516 
Q 1375 441 1709 441 
Q 2250 441 2565 725 
Q 2881 1009 2881 1497 
Q 2881 1984 2565 2268 
Q 2250 2553 1709 2553 
Q 1456 2553 1204 2497 
Q 953 2441 691 2322 
L 691 4666 
z
" transform="scale(0.015625)"/>
       </defs>
       <use xlink:href="#DejaVuSans-30"/>
       <use xlink:href="#DejaVuSans-32" x="63.623047"/>
       <use xlink:href="#DejaVuSans-2e" x="127.246094"/>
       <use xlink:href="#DejaVuSans-30" x="159.033203"/>
       <use xlink:href="#DejaVuSans-35" x="222.65625"/>
       <use xlink:href="#DejaVuSans-2e" x="286.279297"/>
       <use xlink:href="#DejaVuSans-32" x="318.066406"/>
       <use xlink:href="#DejaVuSans-30" x="381.689453"/>
       <use xlink:href="#DejaVuSans-32" x="445.3125"/>
       <use xlink:href="#DejaVuSans-30" x="508.935547"/>
      </g>
     </g>
    </g>
    <g id="xtick_3">
     <g id="line2d_5">
      <path d="M 130.069545 276.48 
L 130.069545 41.472 
" clip-path="url(#p118118bb06)" style="fill: none; stroke-dasharray: 2.96,1.28; stroke-dashoffset: 0; stroke: #808080; stroke-width: 0.8"/>
     </g>
     <g id="line2d_6">
      <g>
       <use xlink:href="#me4ee6b88d7" x="130.069545" y="276.48" style="stroke: #000000; stroke-width: 0.8"/>
      </g>
     </g>
     <g id="text_3">
      <!-- 16.08.2020 -->
      <g transform="translate(79.444335 318.688565) rotate(-30) scale(0.1 -0.1)">
       <defs>
        <path id="DejaVuSans-36" d="M 2113 2584 
Q 1688 2584 1439 2293 
Q 1191 2003 1191 1497 
Q 1191 994 1439 701 
Q 1688 409 2113 409 
Q 2538 409 2786 701 
Q 3034 994 3034 1497 
Q 3034 2003 2786 2293 
Q 2538 2584 2113 2584 
z
M 3366 4563 
L 3366 3988 
Q 3128 4100 2886 4159 
Q 2644 4219 2406 4219 
Q 1781 4219 1451 3797 
Q 1122 3375 1075 2522 
Q 1259 2794 1537 2939 
Q 1816 3084 2150 3084 
Q 2853 3084 3261 2657 
Q 3669 2231 3669 1497 
Q 3669 778 3244 343 
Q 2819 -91 2113 -91 
Q 1303 -91 875 529 
Q 447 1150 447 2328 
Q 447 3434 972 4092 
Q 1497 4750 2381 4750 
Q 2619 4750 2861 4703 
Q 3103 4656 3366 4563 
z
" transform="scale(0.015625)"/>
        <path id="DejaVuSans-38" d="M 2034 2216 
Q 1584 2216 1326 1975 
Q 1069 1734 1069 1313 
Q 1069 891 1326 650 
Q 1584 409 2034 409 
Q 2484 409 2743 651 
Q 3003 894 3003 1313 
Q 3003 1734 2745 1975 
Q 2488 2216 2034 2216 
z
M 1403 2484 
Q 997 2584 770 2862 
Q 544 3141 544 3541 
Q 544 4100 942 4425 
Q 1341 4750 2034 4750 
Q 2731 4750 3128 4425 
Q 3525 4100 3525 3541 
Q 3525 3141 3298 2862 
Q 3072 2584 2669 2484 
Q 3125 2378 3379 2068 
Q 3634 1759 3634 1313 
Q 3634 634 3220 271 
Q 2806 -91 2034 -91 
Q 1263 -91 848 271 
Q 434 634 434 1313 
Q 434 1759 690 2068 
Q 947 2378 1403 2484 
z
M 1172 3481 
Q 1172 3119 1398 2916 
Q 1625 2713 2034 2713 
Q 2441 2713 2670 2916 
Q 2900 3119 2900 3481 
Q 2900 3844 2670 4047 
Q 2441 4250 2034 4250 
Q 1625 4250 1398 4047 
Q 1172 3844 1172 3481 
z
" transform="scale(0.015625)"/>
       </defs>
       <use xlink:href="#DejaVuSans-31"/>
       <use xlink:href="#DejaVuSans-36" x="63.623047"/>
       <use xlink:href="#DejaVuSans-2e" x="127.246094"/>
       <use xlink:href="#DejaVuSans-30" x="159.033203"/>
       <use xlink:href="#DejaVuSans-38" x="222.65625"/>
       <use xlink:href="#DejaVuSans-2e" x="286.279297"/>
       <use xlink:href="#DejaVuSans-32" x="318.066406"/>
       <use xlink:href="#DejaVuSans-30" x="381.689453"/>
       <use xlink:href="#DejaVuSans-32" x="445.3125"/>
       <use xlink:href="#DejaVuSans-30" x="508.935547"/>
      </g>
     </g>
    </g>
    <g id="xtick_4">
     <g id="line2d_7">
      <path d="M 165.916818 276.48 
L 165.916818 41.472 
" clip-path="url(#p118118bb06)" style="fill: none; stroke-dasharray: 2.96,1.28; stroke-dashoffset: 0; stroke: #808080; stroke-width: 0.8"/>
     </g>
     <g id="line2d_8">
      <g>
       <use xlink:href="#me4ee6b88d7" x="165.916818" y="276.48" style="stroke: #000000; stroke-width: 0.8"/>
      </g>
     </g>
     <g id="text_4">
      <!-- 30.11.2020 -->
      <g transform="translate(115.291607 318.688565) rotate(-30) scale(0.1 -0.1)">
       <defs>
        <path id="DejaVuSans-33" d="M 2597 2516 
Q 3050 2419 3304 2112 
Q 3559 1806 3559 1356 
Q 3559 666 3084 287 
Q 2609 -91 1734 -91 
Q 1441 -91 1130 -33 
Q 819 25 488 141 
L 488 750 
Q 750 597 1062 519 
Q 1375 441 1716 441 
Q 2309 441 2620 675 
Q 2931 909 2931 1356 
Q 2931 1769 2642 2001 
Q 2353 2234 1838 2234 
L 1294 2234 
L 1294 2753 
L 1863 2753 
Q 2328 2753 2575 2939 
Q 2822 3125 2822 3475 
Q 2822 3834 2567 4026 
Q 2313 4219 1838 4219 
Q 1578 4219 1281 4162 
Q 984 4106 628 3988 
L 628 4550 
Q 988 4650 1302 4700 
Q 1616 4750 1894 4750 
Q 2613 4750 3031 4423 
Q 3450 4097 3450 3541 
Q 3450 3153 3228 2886 
Q 3006 2619 2597 2516 
z
" transform="scale(0.015625)"/>
       </defs>
       <use xlink:href="#DejaVuSans-33"/>
       <use xlink:href="#DejaVuSans-30" x="63.623047"/>
       <use xlink:href="#DejaVuSans-2e" x="127.246094"/>
       <use xlink:href="#DejaVuSans-31" x="159.033203"/>
       <use xlink:href="#DejaVuSans-31" x="222.65625"/>
       <use xlink:href="#DejaVuSans-2e" x="286.279297"/>
       <use xlink:href="#DejaVuSans-32" x="318.066406"/>
       <use xlink:href="#DejaVuSans-30" x="381.689453"/>
       <use xlink:href="#DejaVuSans-32" x="445.3125"/>
       <use xlink:href="#DejaVuSans-30" x="508.935547"/>
      </g>
     </g>
    </g>
    <g id="xtick_5">
     <g id="line2d_9">
      <path d="M 201.764091 276.48 
L 201.764091 41.472 
" clip-path="url(#p118118bb06)" style="fill: none; stroke-dasharray: 2.96,1.28; stroke-dashoffset: 0; stroke: #808080; stroke-width: 0.8"/>
     </g>
     <g id="line2d_10">
      <g>
       <use xlink:href="#me4ee6b88d7" x="201.764091" y="276.48" style="stroke: #000000; stroke-width: 0.8"/>
      </g>
     </g>
     <g id="text_5">
      <!-- 16.03.2021 -->
      <g transform="translate(151.13888 318.688565) rotate(-30) scale(0.1 -0.1)">
       <use xlink:href="#DejaVuSans-31"/>
       <use xlink:href="#DejaVuSans-36" x="63.623047"/>
       <use xlink:href="#DejaVuSans-2e" x="127.246094"/>
       <use xlink:href="#DejaVuSans-30" x="159.033203"/>
       <use xlink:href="#DejaVuSans-33" x="222.65625"/>
       <use xlink:href="#DejaVuSans-2e" x="286.279297"/>
       <use xlink:href="#DejaVuSans-32" x="318.066406"/>
       <use xlink:href="#DejaVuSans-30" x="381.689453"/>
       <use xlink:href="#DejaVuSans-32" x="445.3125"/>
       <use xlink:href="#DejaVuSans-31" x="508.935547"/>
      </g>
     </g>
    </g>
    <g id="xtick_6">
     <g id="line2d_11">
      <path d="M 237.611364 276.48 
L 237.611364 41.472 
" clip-path="url(#p118118bb06)" style="fill: none; stroke-dasharray: 2.96,1.28; stroke-dashoffset: 0; stroke: #808080; stroke-width: 0.8"/>
     </g>
     <g id="line2d_12">
      <g>
       <use xlink:href="#me4ee6b88d7" x="237.611364" y="276.48" style="stroke: #000000; stroke-width: 0.8"/>
      </g>
     </g>
     <g id="text_6">
      <!-- 30.06.2021 -->
      <g transform="translate(186.986153 318.688565) rotate(-30) scale(0.1 -0.1)">
       <use xlink:href="#DejaVuSans-33"/>
       <use xlink:href="#DejaVuSans-30" x="63.623047"/>
       <use xlink:href="#DejaVuSans-2e" x="127.246094"/>
       <use xlink:href="#DejaVuSans-30" x="159.033203"/>
       <use xlink:href="#DejaVuSans-36" x="222.65625"/>
       <use xlink:href="#DejaVuSans-2e" x="286.279297"/>
       <use xlink:href="#DejaVuSans-32" x="318.066406"/>
       <use xlink:href="#DejaVuSans-30" x="381.689453"/>
       <use xlink:href="#DejaVuSans-32" x="445.3125"/>
       <use xlink:href="#DejaVuSans-31" x="508.935547"/>
      </g>
     </g>
    </g>
    <g id="xtick_7">
     <g id="line2d_13">
      <path d="M 273.458636 276.48 
L 273.458636 41.472 
" clip-path="url(#p118118bb06)" style="fill: none; stroke-dasharray: 2.96,1.28; stroke-dashoffset: 0; stroke: #808080; stroke-width: 0.8"/>
     </g>
     <g id="line2d_14">
      <g>
       <use xlink:href="#me4ee6b88d7" x="273.458636" y="276.48" style="stroke: #000000; stroke-width: 0.8"/>
      </g>
     </g>
     <g id="text_7">
      <!-- 14.10.2021 -->
      <g transform="translate(222.833426 318.688565) rotate(-30) scale(0.1 -0.1)">
       <defs>
        <path id="DejaVuSans-34" d="M 2419 4116 
L 825 1625 
L 2419 1625 
L 2419 4116 
z
M 2253 4666 
L 3047 4666 
L 3047 1625 
L 3713 1625 
L 3713 1100 
L 3047 1100 
L 3047 0 
L 2419 0 
L 2419 1100 
L 313 1100 
L 313 1709 
L 2253 4666 
z
" transform="scale(0.015625)"/>
       </defs>
       <use xlink:href="#DejaVuSans-31"/>
       <use xlink:href="#DejaVuSans-34" x="63.623047"/>
       <use xlink:href="#DejaVuSans-2e" x="127.246094"/>
       <use xlink:href="#DejaVuSans-31" x="159.033203"/>
       <use xlink:href="#DejaVuSans-30" x="222.65625"/>
       <use xlink:href="#DejaVuSans-2e" x="286.279297"/>
       <use xlink:href="#DejaVuSans-32" x="318.066406"/>
       <use xlink:href="#DejaVuSans-30" x="381.689453"/>
       <use xlink:href="#DejaVuSans-32" x="445.3125"/>
       <use xlink:href="#DejaVuSans-31" x="508.935547"/>
      </g>
     </g>
    </g>
    <g id="xtick_8">
     <g id="line2d_15">
      <path d="M 309.305909 276.48 
L 309.305909 41.472 
" clip-path="url(#p118118bb06)" style="fill: none; stroke-dasharray: 2.96,1.28; stroke-dashoffset: 0; stroke: #808080; stroke-width: 0.8"/>
     </g>
     <g id="line2d_16">
      <g>
       <use xlink:href="#me4ee6b88d7" x="309.305909" y="276.48" style="stroke: #000000; stroke-width: 0.8"/>
      </g>
     </g>
     <g id="text_8">
      <!-- 28.01.2022 -->
      <g transform="translate(258.680698 318.688565) rotate(-30) scale(0.1 -0.1)">
       <use xlink:href="#DejaVuSans-32"/>
       <use xlink:href="#DejaVuSans-38" x="63.623047"/>
       <use xlink:href="#DejaVuSans-2e" x="127.246094"/>
       <use xlink:href="#DejaVuSans-30" x="159.033203"/>
       <use xlink:href="#DejaVuSans-31" x="222.65625"/>
       <use xlink:href="#DejaVuSans-2e" x="286.279297"/>
       <use xlink:href="#DejaVuSans-32" x="318.066406"/>
       <use xlink:href="#DejaVuSans-30" x="381.689453"/>
       <use xlink:href="#DejaVuSans-32" x="445.3125"/>
       <use xlink:href="#DejaVuSans-32" x="508.935547"/>
      </g>
     </g>
    </g>
    <g id="xtick_9">
     <g id="line2d_17">
      <path d="M 345.153182 276.48 
L 345.153182 41.472 
" clip-path="url(#p118118bb06)" style="fill: none; stroke-dasharray: 2.96,1.28; stroke-dashoffset: 0; stroke: #808080; stroke-width: 0.8"/>
     </g>
     <g id="line2d_18">
      <g>
       <use xlink:href="#me4ee6b88d7" x="345.153182" y="276.48" style="stroke: #000000; stroke-width: 0.8"/>
      </g>
     </g>
     <g id="text_9">
      <!-- 14.05.2022 -->
      <g transform="translate(294.527971 318.688565) rotate(-30) scale(0.1 -0.1)">
       <use xlink:href="#DejaVuSans-31"/>
       <use xlink:href="#DejaVuSans-34" x="63.623047"/>
       <use xlink:href="#DejaVuSans-2e" x="127.246094"/>
       <use xlink:href="#DejaVuSans-30" x="159.033203"/>
       <use xlink:href="#DejaVuSans-35" x="222.65625"/>
       <use xlink:href="#DejaVuSans-2e" x="286.279297"/>
       <use xlink:href="#DejaVuSans-32" x="318.066406"/>
       <use xlink:href="#DejaVuSans-30" x="381.689453"/>
       <use xlink:href="#DejaVuSans-32" x="445.3125"/>
       <use xlink:href="#DejaVuSans-32" x="508.935547"/>
      </g>
     </g>
    </g>
    <g id="xtick_10">
     <g id="line2d_19">
      <path d="M 381.000455 276.48 
L 381.000455 41.472 
" clip-path="url(#p118118bb06)" style="fill: none; stroke-dasharray: 2.96,1.28; stroke-dashoffset: 0; stroke: #808080; stroke-width: 0.8"/>
     </g>
     <g id="line2d_20">
      <g>
       <use xlink:href="#me4ee6b88d7" x="381.000455" y="276.48" style="stroke: #000000; stroke-width: 0.8"/>
      </g>
     </g>
     <g id="text_10">
      <!-- 28.08.2022 -->
      <g transform="translate(330.375244 318.688565) rotate(-30) scale(0.1 -0.1)">
       <use xlink:href="#DejaVuSans-32"/>
       <use xlink:href="#DejaVuSans-38" x="63.623047"/>
       <use xlink:href="#DejaVuSans-2e" x="127.246094"/>
       <use xlink:href="#DejaVuSans-30" x="159.033203"/>
       <use xlink:href="#DejaVuSans-38" x="222.65625"/>
       <use xlink:href="#DejaVuSans-2e" x="286.279297"/>
       <use xlink:href="#DejaVuSans-32" x="318.066406"/>
       <use xlink:href="#DejaVuSans-30" x="381.689453"/>
       <use xlink:href="#DejaVuSans-32" x="445.3125"/>
       <use xlink:href="#DejaVuSans-32" x="508.935547"/>
      </g>
     </g>
    </g>
   </g>
   <g id="matplotlib.axis_2">
    <g id="ytick_1">
     <g id="line2d_21">
      <path d="M 57.6 265.797818 
L 414.72 265.797818 
" clip-path="url(#p118118bb06)" style="fill: none; stroke-dasharray: 2.96,1.28; stroke-dashoffset: 0; stroke: #808080; stroke-width: 0.8"/>
     </g>
     <g id="line2d_22">
      <defs>
       <path id="m3e4673d11a" d="M 0 0 
L -3.5 0 
" style="stroke: #000000; stroke-width: 0.8"/>
      </defs>
      <g>
       <use xlink:href="#m3e4673d11a" x="57.6" y="265.797818" style="stroke: #000000; stroke-width: 0.8"/>
      </g>
     </g>
     <g id="text_11">
      <!-- 0 -->
      <g transform="translate(44.2375 269.597037) scale(0.1 -0.1)">
       <use xlink:href="#DejaVuSans-30"/>
      </g>
     </g>
    </g>
    <g id="ytick_2">
     <g id="line2d_23">
      <path d="M 57.6 222.946812 
L 414.72 222.946812 
" clip-path="url(#p118118bb06)" style="fill: none; stroke-dasharray: 2.96,1.28; stroke-dashoffset: 0; stroke: #808080; stroke-width: 0.8"/>
     </g>
     <g id="line2d_24">
      <g>
       <use xlink:href="#m3e4673d11a" x="57.6" y="222.946812" style="stroke: #000000; stroke-width: 0.8"/>
      </g>
     </g>
     <g id="text_12">
      <!-- 500 -->
      <g transform="translate(31.5125 226.746031) scale(0.1 -0.1)">
       <use xlink:href="#DejaVuSans-35"/>
       <use xlink:href="#DejaVuSans-30" x="63.623047"/>
       <use xlink:href="#DejaVuSans-30" x="127.246094"/>
      </g>
     </g>
    </g>
    <g id="ytick_3">
     <g id="line2d_25">
      <path d="M 57.6 180.095806 
L 414.72 180.095806 
" clip-path="url(#p118118bb06)" style="fill: none; stroke-dasharray: 2.96,1.28; stroke-dashoffset: 0; stroke: #808080; stroke-width: 0.8"/>
     </g>
     <g id="line2d_26">
      <g>
       <use xlink:href="#m3e4673d11a" x="57.6" y="180.095806" style="stroke: #000000; stroke-width: 0.8"/>
      </g>
     </g>
     <g id="text_13">
      <!-- 1000 -->
      <g transform="translate(25.15 183.895025) scale(0.1 -0.1)">
       <use xlink:href="#DejaVuSans-31"/>
       <use xlink:href="#DejaVuSans-30" x="63.623047"/>
       <use xlink:href="#DejaVuSans-30" x="127.246094"/>
       <use xlink:href="#DejaVuSans-30" x="190.869141"/>
      </g>
     </g>
    </g>
    <g id="ytick_4">
     <g id="line2d_27">
      <path d="M 57.6 137.2448 
L 414.72 137.2448 
" clip-path="url(#p118118bb06)" style="fill: none; stroke-dasharray: 2.96,1.28; stroke-dashoffset: 0; stroke: #808080; stroke-width: 0.8"/>
     </g>
     <g id="line2d_28">
      <g>
       <use xlink:href="#m3e4673d11a" x="57.6" y="137.2448" style="stroke: #000000; stroke-width: 0.8"/>
      </g>
     </g>
     <g id="text_14">
      <!-- 1500 -->
      <g transform="translate(25.15 141.044019) scale(0.1 -0.1)">
       <use xlink:href="#DejaVuSans-31"/>
       <use xlink:href="#DejaVuSans-35" x="63.623047"/>
       <use xlink:href="#DejaVuSans-30" x="127.246094"/>
       <use xlink:href="#DejaVuSans-30" x="190.869141"/>
      </g>
     </g>
    </g>
    <g id="ytick_5">
     <g id="line2d_29">
      <path d="M 57.6 94.393794 
L 414.72 94.393794 
" clip-path="url(#p118118bb06)" style="fill: none; stroke-dasharray: 2.96,1.28; stroke-dashoffset: 0; stroke: #808080; stroke-width: 0.8"/>
     </g>
     <g id="line2d_30">
      <g>
       <use xlink:href="#m3e4673d11a" x="57.6" y="94.393794" style="stroke: #000000; stroke-width: 0.8"/>
      </g>
     </g>
     <g id="text_15">
      <!-- 2000 -->
      <g transform="translate(25.15 98.193013) scale(0.1 -0.1)">
       <use xlink:href="#DejaVuSans-32"/>
       <use xlink:href="#DejaVuSans-30" x="63.623047"/>
       <use xlink:href="#DejaVuSans-30" x="127.246094"/>
       <use xlink:href="#DejaVuSans-30" x="190.869141"/>
      </g>
     </g>
    </g>
    <g id="ytick_6">
     <g id="line2d_31">
      <path d="M 57.6 51.542788 
L 414.72 51.542788 
" clip-path="url(#p118118bb06)" style="fill: none; stroke-dasharray: 2.96,1.28; stroke-dashoffset: 0; stroke: #808080; stroke-width: 0.8"/>
     </g>
     <g id="line2d_32">
      <g>
       <use xlink:href="#m3e4673d11a" x="57.6" y="51.542788" style="stroke: #000000; stroke-width: 0.8"/>
      </g>
     </g>
     <g id="text_16">
      <!-- 2500 -->
      <g transform="translate(25.15 55.342007) scale(0.1 -0.1)">
       <use xlink:href="#DejaVuSans-32"/>
       <use xlink:href="#DejaVuSans-35" x="63.623047"/>
       <use xlink:href="#DejaVuSans-30" x="127.246094"/>
       <use xlink:href="#DejaVuSans-30" x="190.869141"/>
      </g>
     </g>
    </g>
    <g id="text_17">
     <!-- Inzidenz pro 7 Tage pro 100.000 Einwohner -->
     <g transform="translate(19.070312 267.301) rotate(-90) scale(0.1 -0.1)">
      <defs>
       <path id="DejaVuSans-49" d="M 628 4666 
L 1259 4666 
L 1259 0 
L 628 0 
L 628 4666 
z
" transform="scale(0.015625)"/>
       <path id="DejaVuSans-6e" d="M 3513 2113 
L 3513 0 
L 2938 0 
L 2938 2094 
Q 2938 2591 2744 2837 
Q 2550 3084 2163 3084 
Q 1697 3084 1428 2787 
Q 1159 2491 1159 1978 
L 1159 0 
L 581 0 
L 581 3500 
L 1159 3500 
L 1159 2956 
Q 1366 3272 1645 3428 
Q 1925 3584 2291 3584 
Q 2894 3584 3203 3211 
Q 3513 2838 3513 2113 
z
" transform="scale(0.015625)"/>
       <path id="DejaVuSans-7a" d="M 353 3500 
L 3084 3500 
L 3084 2975 
L 922 459 
L 3084 459 
L 3084 0 
L 275 0 
L 275 525 
L 2438 3041 
L 353 3041 
L 353 3500 
z
" transform="scale(0.015625)"/>
       <path id="DejaVuSans-69" d="M 603 3500 
L 1178 3500 
L 1178 0 
L 603 0 
L 603 3500 
z
M 603 4863 
L 1178 4863 
L 1178 4134 
L 603 4134 
L 603 4863 
z
" transform="scale(0.015625)"/>
       <path id="DejaVuSans-64" d="M 2906 2969 
L 2906 4863 
L 3481 4863 
L 3481 0 
L 2906 0 
L 2906 525 
Q 2725 213 2448 61 
Q 2172 -91 1784 -91 
Q 1150 -91 751 415 
Q 353 922 353 1747 
Q 353 2572 751 3078 
Q 1150 3584 1784 3584 
Q 2172 3584 2448 3432 
Q 2725 3281 2906 2969 
z
M 947 1747 
Q 947 1113 1208 752 
Q 1469 391 1925 391 
Q 2381 391 2643 752 
Q 2906 1113 2906 1747 
Q 2906 2381 2643 2742 
Q 2381 3103 1925 3103 
Q 1469 3103 1208 2742 
Q 947 2381 947 1747 
z
" transform="scale(0.015625)"/>
       <path id="DejaVuSans-65" d="M 3597 1894 
L 3597 1613 
L 953 1613 
Q 991 1019 1311 708 
Q 1631 397 2203 397 
Q 2534 397 2845 478 
Q 3156 559 3463 722 
L 3463 178 
Q 3153 47 2828 -22 
Q 2503 -91 2169 -91 
Q 1331 -91 842 396 
Q 353 884 353 1716 
Q 353 2575 817 3079 
Q 1281 3584 2069 3584 
Q 2775 3584 3186 3129 
Q 3597 2675 3597 1894 
z
M 3022 2063 
Q 3016 2534 2758 2815 
Q 2500 3097 2075 3097 
Q 1594 3097 1305 2825 
Q 1016 2553 972 2059 
L 3022 2063 
z
" transform="scale(0.015625)"/>
       <path id="DejaVuSans-20" transform="scale(0.015625)"/>
       <path id="DejaVuSans-70" d="M 1159 525 
L 1159 -1331 
L 581 -1331 
L 581 3500 
L 1159 3500 
L 1159 2969 
Q 1341 3281 1617 3432 
Q 1894 3584 2278 3584 
Q 2916 3584 3314 3078 
Q 3713 2572 3713 1747 
Q 3713 922 3314 415 
Q 2916 -91 2278 -91 
Q 1894 -91 1617 61 
Q 1341 213 1159 525 
z
M 3116 1747 
Q 3116 2381 2855 2742 
Q 2594 3103 2138 3103 
Q 1681 3103 1420 2742 
Q 1159 2381 1159 1747 
Q 1159 1113 1420 752 
Q 1681 391 2138 391 
Q 2594 391 2855 752 
Q 3116 1113 3116 1747 
z
" transform="scale(0.015625)"/>
       <path id="DejaVuSans-72" d="M 2631 2963 
Q 2534 3019 2420 3045 
Q 2306 3072 2169 3072 
Q 1681 3072 1420 2755 
Q 1159 2438 1159 1844 
L 1159 0 
L 581 0 
L 581 3500 
L 1159 3500 
L 1159 2956 
Q 1341 3275 1631 3429 
Q 1922 3584 2338 3584 
Q 2397 3584 2469 3576 
Q 2541 3569 2628 3553 
L 2631 2963 
z
" transform="scale(0.015625)"/>
       <path id="DejaVuSans-6f" d="M 1959 3097 
Q 1497 3097 1228 2736 
Q 959 2375 959 1747 
Q 959 1119 1226 758 
Q 1494 397 1959 397 
Q 2419 397 2687 759 
Q 2956 1122 2956 1747 
Q 2956 2369 2687 2733 
Q 2419 3097 1959 3097 
z
M 1959 3584 
Q 2709 3584 3137 3096 
Q 3566 2609 3566 1747 
Q 3566 888 3137 398 
Q 2709 -91 1959 -91 
Q 1206 -91 779 398 
Q 353 888 353 1747 
Q 353 2609 779 3096 
Q 1206 3584 1959 3584 
z
" transform="scale(0.015625)"/>
       <path id="DejaVuSans-54" d="M -19 4666 
L 3928 4666 
L 3928 4134 
L 2272 4134 
L 2272 0 
L 1638 0 
L 1638 4134 
L -19 4134 
L -19 4666 
z
" transform="scale(0.015625)"/>
       <path id="DejaVuSans-61" d="M 2194 1759 
Q 1497 1759 1228 1600 
Q 959 1441 959 1056 
Q 959 750 1161 570 
Q 1363 391 1709 391 
Q 2188 391 2477 730 
Q 2766 1069 2766 1631 
L 2766 1759 
L 2194 1759 
z
M 3341 1997 
L 3341 0 
L 2766 0 
L 2766 531 
Q 2569 213 2275 61 
Q 1981 -91 1556 -91 
Q 1019 -91 701 211 
Q 384 513 384 1019 
Q 384 1609 779 1909 
Q 1175 2209 1959 2209 
L 2766 2209 
L 2766 2266 
Q 2766 2663 2505 2880 
Q 2244 3097 1772 3097 
Q 1472 3097 1187 3025 
Q 903 2953 641 2809 
L 641 3341 
Q 956 3463 1253 3523 
Q 1550 3584 1831 3584 
Q 2591 3584 2966 3190 
Q 3341 2797 3341 1997 
z
" transform="scale(0.015625)"/>
       <path id="DejaVuSans-67" d="M 2906 1791 
Q 2906 2416 2648 2759 
Q 2391 3103 1925 3103 
Q 1463 3103 1205 2759 
Q 947 2416 947 1791 
Q 947 1169 1205 825 
Q 1463 481 1925 481 
Q 2391 481 2648 825 
Q 2906 1169 2906 1791 
z
M 3481 434 
Q 3481 -459 3084 -895 
Q 2688 -1331 1869 -1331 
Q 1566 -1331 1297 -1286 
Q 1028 -1241 775 -1147 
L 775 -588 
Q 1028 -725 1275 -790 
Q 1522 -856 1778 -856 
Q 2344 -856 2625 -561 
Q 2906 -266 2906 331 
L 2906 616 
Q 2728 306 2450 153 
Q 2172 0 1784 0 
Q 1141 0 747 490 
Q 353 981 353 1791 
Q 353 2603 747 3093 
Q 1141 3584 1784 3584 
Q 2172 3584 2450 3431 
Q 2728 3278 2906 2969 
L 2906 3500 
L 3481 3500 
L 3481 434 
z
" transform="scale(0.015625)"/>
       <path id="DejaVuSans-45" d="M 628 4666 
L 3578 4666 
L 3578 4134 
L 1259 4134 
L 1259 2753 
L 3481 2753 
L 3481 2222 
L 1259 2222 
L 1259 531 
L 3634 531 
L 3634 0 
L 628 0 
L 628 4666 
z
" transform="scale(0.015625)"/>
       <path id="DejaVuSans-77" d="M 269 3500 
L 844 3500 
L 1563 769 
L 2278 3500 
L 2956 3500 
L 3675 769 
L 4391 3500 
L 4966 3500 
L 4050 0 
L 3372 0 
L 2619 2869 
L 1863 0 
L 1184 0 
L 269 3500 
z
" transform="scale(0.015625)"/>
       <path id="DejaVuSans-68" d="M 3513 2113 
L 3513 0 
L 2938 0 
L 2938 2094 
Q 2938 2591 2744 2837 
Q 2550 3084 2163 3084 
Q 1697 3084 1428 2787 
Q 1159 2491 1159 1978 
L 1159 0 
L 581 0 
L 581 4863 
L 1159 4863 
L 1159 2956 
Q 1366 3272 1645 3428 
Q 1925 3584 2291 3584 
Q 2894 3584 3203 3211 
Q 3513 2838 3513 2113 
z
" transform="scale(0.015625)"/>
      </defs>
      <use xlink:href="#DejaVuSans-49"/>
      <use xlink:href="#DejaVuSans-6e" x="29.492188"/>
      <use xlink:href="#DejaVuSans-7a" x="92.871094"/>
      <use xlink:href="#DejaVuSans-69" x="145.361328"/>
      <use xlink:href="#DejaVuSans-64" x="173.144531"/>
      <use xlink:href="#DejaVuSans-65" x="236.621094"/>
      <use xlink:href="#DejaVuSans-6e" x="298.144531"/>
      <use xlink:href="#DejaVuSans-7a" x="361.523438"/>
      <use xlink:href="#DejaVuSans-20" x="414.013672"/>
      <use xlink:href="#DejaVuSans-70" x="445.800781"/>
      <use xlink:href="#DejaVuSans-72" x="509.277344"/>
      <use xlink:href="#DejaVuSans-6f" x="548.140625"/>
      <use xlink:href="#DejaVuSans-20" x="609.322266"/>
      <use xlink:href="#DejaVuSans-37" x="641.109375"/>
      <use xlink:href="#DejaVuSans-20" x="704.732422"/>
      <use xlink:href="#DejaVuSans-54" x="736.519531"/>
      <use xlink:href="#DejaVuSans-61" x="781.103516"/>
      <use xlink:href="#DejaVuSans-67" x="842.382812"/>
      <use xlink:href="#DejaVuSans-65" x="905.859375"/>
      <use xlink:href="#DejaVuSans-20" x="967.382812"/>
      <use xlink:href="#DejaVuSans-70" x="999.169922"/>
      <use xlink:href="#DejaVuSans-72" x="1062.646484"/>
      <use xlink:href="#DejaVuSans-6f" x="1101.509766"/>
      <use xlink:href="#DejaVuSans-20" x="1162.691406"/>
      <use xlink:href="#DejaVuSans-31" x="1194.478516"/>
      <use xlink:href="#DejaVuSans-30" x="1258.101562"/>
      <use xlink:href="#DejaVuSans-30" x="1321.724609"/>
      <use xlink:href="#DejaVuSans-2e" x="1385.347656"/>
      <use xlink:href="#DejaVuSans-30" x="1417.134766"/>
      <use xlink:href="#DejaVuSans-30" x="1480.757812"/>
      <use xlink:href="#DejaVuSans-30" x="1544.380859"/>
      <use xlink:href="#DejaVuSans-20" x="1608.003906"/>
      <use xlink:href="#DejaVuSans-45" x="1639.791016"/>
      <use xlink:href="#DejaVuSans-69" x="1702.974609"/>
      <use xlink:href="#DejaVuSans-6e" x="1730.757812"/>
      <use xlink:href="#DejaVuSans-77" x="1794.136719"/>
      <use xlink:href="#DejaVuSans-6f" x="1875.923828"/>
      <use xlink:href="#DejaVuSans-68" x="1937.105469"/>
      <use xlink:href="#DejaVuSans-6e" x="2000.484375"/>
      <use xlink:href="#DejaVuSans-65" x="2063.863281"/>
      <use xlink:href="#DejaVuSans-72" x="2125.386719"/>
     </g>
    </g>
   </g>
   <g id="line2d_33">
    <path d="M 73.832727 265.797818 
L 78.567273 265.691949 
L 79.581818 265.268473 
L 79.92 264.950866 
L 80.258182 264.950866 
L 80.596364 264.739128 
L 80.934545 264.209783 
L 81.610909 264.209783 
L 82.287273 263.4687 
L 82.625455 263.256962 
L 82.963636 263.362831 
L 83.301818 263.892176 
L 83.64 263.998045 
L 83.978182 263.362831 
L 84.316364 263.786307 
L 84.654545 263.892176 
L 84.992727 263.786307 
L 85.669091 263.892176 
L 86.007273 263.4687 
L 86.345455 264.315652 
L 86.683636 263.680438 
L 87.021818 263.786307 
L 87.36 264.103914 
L 87.698182 263.892176 
L 88.712727 264.209783 
L 89.050909 264.739128 
L 89.389091 265.056735 
L 90.403636 264.844997 
L 90.741818 265.056735 
L 91.418182 264.950866 
L 92.770909 265.374342 
L 93.109091 265.268473 
L 94.123636 265.58608 
L 94.8 265.480211 
L 95.814545 265.691949 
L 99.534545 265.691949 
L 100.210909 265.374342 
L 101.901818 265.480211 
L 102.916364 265.691949 
L 128.956364 265.691949 
L 129.294545 265.268473 
L 130.647273 265.162604 
L 131.323636 264.844997 
L 131.661818 265.268473 
L 132 265.056735 
L 132.338182 264.209783 
L 133.014545 264.315652 
L 133.690909 264.633259 
L 134.029091 264.315652 
L 134.367273 264.52739 
L 134.705455 265.374342 
L 136.058182 265.268473 
L 136.396364 265.58608 
L 137.749091 265.58608 
L 138.087273 265.797818 
L 139.778182 265.691949 
L 140.792727 265.480211 
L 143.498182 265.58608 
L 144.174545 265.691949 
L 145.865455 265.58608 
L 146.541818 265.268473 
L 147.556364 265.268473 
L 148.232727 264.739128 
L 148.570909 264.844997 
L 149.923636 264.52739 
L 150.261818 264.633259 
L 150.6 259.551547 
L 150.938182 256.798953 
L 151.614545 255.740263 
L 151.952727 255.740263 
L 152.290909 253.199408 
L 152.629091 251.92898 
L 152.967273 256.05787 
L 153.305455 257.11656 
L 153.643636 256.904822 
L 154.32 254.575704 
L 154.658182 255.740263 
L 154.996364 253.517015 
L 155.334545 250.446814 
L 155.672727 251.293766 
L 156.010909 250.976159 
L 156.349091 250.340945 
L 156.687273 250.764421 
L 157.025455 249.705731 
L 157.363636 252.246587 
L 157.701818 253.517015 
L 158.378182 252.458325 
L 158.716364 253.834621 
L 159.054545 253.517015 
L 159.392727 255.105049 
L 159.730909 255.740263 
L 160.069091 254.258097 
L 160.407273 254.681573 
L 160.745455 254.681573 
L 161.421818 250.658552 
L 161.76 250.446814 
L 162.098182 248.858779 
L 162.436364 251.717242 
L 163.112727 251.717242 
L 163.789091 256.163739 
L 164.127273 254.152228 
L 164.465455 255.528525 
L 164.803636 255.316787 
L 165.141818 255.316787 
L 165.48 256.375477 
L 165.818182 256.375477 
L 166.156364 253.834621 
L 166.494545 254.787442 
L 166.832727 253.093539 
L 167.170909 253.517015 
L 167.509091 252.564194 
L 167.847273 252.775932 
L 168.185455 253.411146 
L 168.523636 256.163739 
L 168.861818 257.11656 
L 169.2 258.598726 
L 169.538182 257.645905 
L 169.876364 257.11656 
L 170.552727 254.787442 
L 170.890909 254.681573 
L 171.229091 255.105049 
L 171.567273 252.98767 
L 172.243636 252.775932 
L 172.92 254.258097 
L 173.258182 253.199408 
L 173.596364 252.98767 
L 174.610909 259.128071 
L 175.287273 260.504368 
L 175.625455 261.774796 
L 175.963636 260.080892 
L 176.301818 260.504368 
L 176.978182 260.821975 
L 177.654545 259.339809 
L 177.992727 258.069381 
L 178.330909 258.916333 
L 178.669091 258.598726 
L 179.007273 257.540036 
L 179.345455 255.316787 
L 179.683636 254.469835 
L 180.36 254.787442 
L 180.698182 255.210918 
L 181.036364 254.152228 
L 181.712727 254.152228 
L 182.389091 251.717242 
L 182.727273 251.717242 
L 183.065455 250.764421 
L 183.403636 248.223565 
L 183.741818 244.51815 
L 184.08 244.729888 
L 184.418182 244.51815 
L 185.094545 245.57684 
L 185.432727 244.412281 
L 186.109091 251.187897 
L 186.447273 252.98767 
L 186.785455 254.152228 
L 187.123636 253.94049 
L 187.461818 254.575704 
L 187.8 256.269608 
L 188.138182 255.740263 
L 188.814545 255.740263 
L 189.490909 258.598726 
L 189.829091 257.328298 
L 190.167273 258.916333 
L 190.505455 259.339809 
L 190.843636 259.445678 
L 191.181818 257.751774 
L 191.52 257.857643 
L 191.858182 257.010691 
L 192.196364 257.963512 
L 192.534545 256.798953 
L 192.872727 257.11656 
L 193.210909 257.11656 
L 193.549091 258.069381 
L 193.887273 255.422656 
L 194.225455 256.375477 
L 194.563636 256.269608 
L 195.24 255.210918 
L 195.578182 255.846132 
L 195.916364 256.05787 
L 196.254545 259.128071 
L 196.592727 258.386988 
L 196.930909 258.810464 
L 197.269091 260.610237 
L 197.945455 260.716106 
L 198.283636 261.139582 
L 198.621818 260.821975 
L 198.96 261.35132 
L 199.298182 261.563058 
L 199.636364 261.245451 
L 200.650909 261.774796 
L 200.989091 261.668927 
L 201.327273 261.986534 
L 201.665455 261.668927 
L 202.341818 260.610237 
L 203.018182 259.869154 
L 203.356364 258.916333 
L 203.694545 259.022202 
L 204.032727 259.339809 
L 204.370909 258.386988 
L 204.709091 257.963512 
L 205.047273 257.11656 
L 205.385455 256.587215 
L 205.723636 254.152228 
L 206.061818 253.199408 
L 206.4 252.775932 
L 206.738182 253.622884 
L 207.076364 253.411146 
L 207.414545 252.98767 
L 207.752727 253.622884 
L 208.090909 256.481346 
L 208.429091 257.222429 
L 208.767273 256.693084 
L 209.105455 256.904822 
L 209.443636 258.17525 
L 209.781818 258.916333 
L 210.12 259.022202 
L 210.458182 257.963512 
L 210.796364 254.575704 
L 211.134545 255.316787 
L 211.472727 254.787442 
L 211.810909 253.728753 
L 212.149091 253.517015 
L 212.487273 251.92898 
L 212.825455 252.564194 
L 213.163636 255.210918 
L 213.501818 254.575704 
L 213.84 254.258097 
L 214.178182 252.458325 
L 214.516364 252.352456 
L 214.854545 252.564194 
L 215.192727 250.87029 
L 215.530909 250.552683 
L 215.869091 250.87029 
L 216.207273 250.658552 
L 216.545455 251.611373 
L 216.883636 250.87029 
L 217.56 253.093539 
L 217.898182 251.293766 
L 218.236364 251.823111 
L 218.574545 252.98767 
L 218.912727 252.98767 
L 219.250909 253.834621 
L 219.589091 252.775932 
L 219.927273 252.775932 
L 220.265455 254.469835 
L 220.603636 254.363966 
L 220.941818 253.728753 
L 221.28 255.952001 
L 221.618182 256.163739 
L 221.956364 258.386988 
L 222.294545 257.010691 
L 222.632727 257.540036 
L 223.309091 256.481346 
L 223.647273 254.575704 
L 223.985455 255.316787 
L 224.323636 254.575704 
L 224.661818 257.328298 
L 225 257.540036 
L 225.338182 258.069381 
L 226.014545 262.304141 
L 226.352727 262.198272 
L 227.029091 262.833486 
L 227.367273 263.574569 
L 228.043636 263.362831 
L 228.381818 263.4687 
L 228.72 264.315652 
L 229.058182 264.739128 
L 229.396364 264.844997 
L 229.734545 264.739128 
L 230.410909 264.950866 
L 230.749091 264.633259 
L 231.763636 264.421521 
L 232.44 264.633259 
L 232.778182 264.209783 
L 233.116364 264.52739 
L 233.792727 264.209783 
L 234.130909 264.421521 
L 234.807273 264.421521 
L 236.16 265.58608 
L 240.218182 265.691949 
L 240.894545 265.797818 
L 241.570909 265.691949 
L 242.247273 264.421521 
L 242.585455 262.092403 
L 242.923636 261.986534 
L 243.261818 261.35132 
L 243.6 260.186761 
L 243.938182 259.975023 
L 244.276364 260.610237 
L 244.614545 260.29263 
L 244.952727 262.092403 
L 245.290909 261.35132 
L 245.629091 261.668927 
L 245.967273 262.515879 
L 246.305455 262.727617 
L 246.643636 262.727617 
L 247.658182 264.421521 
L 247.996364 264.315652 
L 248.672727 264.633259 
L 249.010909 264.633259 
L 249.349091 264.844997 
L 249.687273 264.633259 
L 250.363636 264.844997 
L 251.04 264.52739 
L 251.378182 263.998045 
L 251.716364 263.892176 
L 252.054545 262.833486 
L 252.392727 262.621748 
L 252.730909 262.092403 
L 253.069091 261.35132 
L 253.407273 261.35132 
L 254.083636 260.398499 
L 254.421818 260.821975 
L 254.76 260.821975 
L 255.098182 261.245451 
L 255.436364 261.986534 
L 255.774545 261.457189 
L 256.112727 261.880665 
L 256.450909 261.880665 
L 256.789091 261.457189 
L 257.127273 260.610237 
L 257.465455 260.821975 
L 257.803636 259.975023 
L 258.141818 260.504368 
L 258.48 260.29263 
L 258.818182 260.29263 
L 259.156364 258.916333 
L 259.832727 255.422656 
L 260.170909 255.634394 
L 260.509091 253.305277 
L 261.185455 250.340945 
L 261.523636 250.87029 
L 261.861818 252.140718 
L 262.2 252.670063 
L 262.538182 250.552683 
L 263.552727 254.681573 
L 263.890909 254.469835 
L 264.229091 252.881801 
L 264.567273 253.093539 
L 264.905455 255.316787 
L 265.243636 254.787442 
L 265.581818 253.728753 
L 266.258182 254.363966 
L 266.596364 256.693084 
L 266.934545 256.375477 
L 267.272727 256.269608 
L 267.610909 257.222429 
L 267.949091 257.010691 
L 268.287273 256.05787 
L 268.625455 256.481346 
L 268.963636 256.587215 
L 269.64 257.645905 
L 269.978182 257.857643 
L 270.316364 259.128071 
L 270.654545 259.128071 
L 270.992727 259.551547 
L 271.330909 259.339809 
L 271.669091 259.657416 
L 272.345455 257.222429 
L 272.683636 256.904822 
L 273.021818 258.069381 
L 273.36 258.281119 
L 274.036364 257.11656 
L 274.374545 257.751774 
L 274.712727 259.551547 
L 275.050909 259.339809 
L 275.389091 259.445678 
L 275.727273 259.23394 
L 276.065455 258.598726 
L 276.403636 259.23394 
L 276.741818 259.445678 
L 277.08 258.916333 
L 277.418182 258.916333 
L 277.756364 257.540036 
L 278.094545 257.010691 
L 278.432727 258.810464 
L 279.109091 257.540036 
L 279.447273 257.434167 
L 279.785455 258.17525 
L 280.123636 259.551547 
L 280.461818 259.128071 
L 280.8 258.281119 
L 281.138182 256.587215 
L 281.476364 257.010691 
L 281.814545 254.787442 
L 282.152727 253.622884 
L 282.490909 251.92898 
L 282.829091 249.070517 
L 283.167273 248.223565 
L 283.505455 248.964648 
L 283.843636 246.63553 
L 284.181818 247.270744 
L 284.52 246.741399 
L 284.858182 246.529661 
L 285.196364 248.117696 
L 285.534545 246.847268 
L 285.872727 244.200543 
L 286.210909 244.51815 
L 286.549091 244.624019 
L 286.887273 243.353591 
L 287.225455 240.812735 
L 287.563636 240.600997 
L 287.901818 238.271879 
L 288.24 238.589486 
L 288.578182 238.377748 
L 288.916364 237.954272 
L 289.254545 238.801224 
L 289.592727 240.812735 
L 289.930909 239.330569 
L 290.269091 240.812735 
L 290.945455 242.40077 
L 291.283636 241.447949 
L 291.621818 241.871425 
L 291.96 242.612508 
L 292.298182 244.835757 
L 292.636364 244.729888 
L 292.974545 243.035984 
L 293.312727 243.353591 
L 293.650909 245.894447 
L 293.989091 246.953137 
L 294.327273 245.894447 
L 294.665455 245.365102 
L 295.003636 246.317923 
L 295.341818 250.446814 
L 295.68 251.293766 
L 296.018182 251.293766 
L 296.356364 251.505504 
L 296.694545 253.411146 
L 297.032727 253.94049 
L 297.370909 255.952001 
L 297.709091 255.528525 
L 298.385455 256.375477 
L 298.723636 256.05787 
L 299.061818 254.787442 
L 299.4 255.528525 
L 299.738182 254.787442 
L 300.076364 252.881801 
L 300.414545 249.917469 
L 300.752727 249.176386 
L 301.429091 247.270744 
L 302.105455 242.083163 
L 302.443636 243.247722 
L 302.781818 244.835757 
L 303.12 245.259233 
L 303.458182 245.894447 
L 303.796364 239.542307 
L 304.134545 236.04863 
L 304.472727 236.366237 
L 304.810909 234.354726 
L 305.149091 225.144123 
L 305.487273 221.968053 
L 305.825455 214.133748 
L 306.163636 217.098079 
L 306.84 201.005992 
L 307.178182 197.512315 
L 307.516364 189.042795 
L 307.854545 185.443249 
L 308.192727 186.607808 
L 308.530909 178.138288 
L 308.869091 184.913904 
L 309.545455 171.997887 
L 309.883636 180.785013 
L 310.221818 180.467406 
L 310.56 177.185468 
L 310.898182 179.196978 
L 311.236364 171.786149 
L 311.574545 176.550254 
L 311.912727 168.610079 
L 312.250909 167.022044 
L 312.589091 158.446655 
L 313.265455 154.000157 
L 313.603636 157.811441 
L 313.941818 150.188873 
L 314.28 161.410987 
L 314.618182 161.199249 
L 315.632727 171.468542 
L 315.970909 173.162446 
L 316.309091 184.490428 
L 316.647273 182.16131 
L 316.985455 182.902393 
L 317.323636 188.089974 
L 317.661818 190.948437 
L 318 185.972594 
L 318.338182 184.702166 
L 318.676364 180.04393 
L 319.014545 182.478917 
L 319.352727 181.10262 
L 319.690909 184.808035 
L 320.029091 185.33738 
L 320.367273 186.607808 
L 321.043636 183.008262 
L 321.381818 182.690655 
L 321.72 184.066952 
L 322.396364 173.903529 
L 322.734545 167.127913 
L 323.072727 155.164716 
L 323.410909 157.070358 
L 323.749091 153.894288 
L 324.087273 154.847109 
L 324.425455 151.988646 
L 325.101818 119.698602 
L 325.44 100.642183 
L 325.778182 89.843545 
L 326.116364 65.705413 
L 326.454545 52.154182 
L 327.130909 68.352138 
L 327.469091 81.374025 
L 327.807273 103.183038 
L 328.145455 100.112838 
L 328.483636 111.017344 
L 328.821818 127.850515 
L 329.16 122.768803 
L 329.498182 81.691632 
L 329.836364 68.987352 
L 330.174545 72.163422 
L 330.512727 77.986217 
L 330.850909 86.032261 
L 331.189091 75.868837 
L 331.527273 78.092086 
L 331.865455 127.215301 
L 332.203636 133.990917 
L 332.541818 136.743511 
L 332.88 142.248698 
L 333.218182 145.636506 
L 333.556364 151.988646 
L 333.894545 155.376454 
L 334.232727 149.765397 
L 334.570909 155.376454 
L 334.909091 153.153205 
L 335.247273 143.519126 
L 335.585455 143.09565 
L 335.923636 142.248698 
L 336.261818 145.636506 
L 336.6 162.469677 
L 337.276364 169.880507 
L 337.614545 169.880507 
L 337.952727 174.115267 
L 338.290909 173.374184 
L 338.629091 171.045066 
L 338.967273 163.104891 
L 339.305455 169.774638 
L 339.643636 172.950708 
L 339.981818 189.148664 
L 340.32 193.277555 
L 340.658182 206.405311 
L 340.996364 208.734429 
L 341.334545 205.240752 
L 341.672727 208.946167 
L 342.010909 217.098079 
L 342.349091 217.521555 
L 342.687273 220.591756 
L 343.363636 220.591756 
L 343.701818 220.062411 
L 344.04 223.661957 
L 344.378182 225.46173 
L 344.716364 230.331704 
L 345.054545 230.119966 
L 345.730909 230.119966 
L 346.407273 237.424927 
L 346.745455 238.16601 
L 347.421818 242.294901 
L 348.098182 242.294901 
L 348.436364 244.094674 
L 349.450909 252.670063 
L 350.127273 252.775932 
L 350.465455 252.775932 
L 350.803636 253.94049 
L 351.141818 254.575704 
L 351.48 252.881801 
L 351.818182 250.129207 
L 352.156364 249.388124 
L 352.832727 249.388124 
L 353.170909 254.469835 
L 353.509091 242.824246 
L 354.185455 233.613643 
L 354.523636 233.93125 
L 355.2 233.93125 
L 355.538182 224.720647 
L 355.876364 226.52042 
L 356.214545 226.626289 
L 356.552727 233.084298 
L 356.890909 227.261503 
L 357.567273 227.155634 
L 357.905455 220.803494 
L 358.243636 219.638935 
L 358.581818 217.839162 
L 358.92 209.157905 
L 359.258182 208.840298 
L 360.272727 209.263774 
L 360.610909 209.898988 
L 360.949091 205.134883 
L 361.287273 205.558359 
L 361.625455 208.840298 
L 362.301818 208.840298 
L 362.978182 210.851809 
L 363.316364 210.216595 
L 363.992727 206.299442 
L 364.669091 206.299442 
L 365.007273 202.594027 
L 365.345455 194.336245 
L 365.683636 194.653852 
L 366.021818 191.901258 
L 366.36 183.855214 
L 367.036364 183.855214 
L 367.374545 176.444385 
L 367.712727 175.279826 
L 368.050909 176.444385 
L 368.389091 173.903529 
L 368.727273 180.573275 
L 369.403636 180.573275 
L 370.08 195.289066 
L 370.418182 195.818411 
L 370.756364 199.841433 
L 371.094545 201.535337 
L 371.770909 201.535337 
L 372.109091 204.923145 
L 373.461818 224.932385 
L 374.138182 224.932385 
L 374.814545 228.849538 
L 375.152727 232.449084 
L 375.490909 233.507774 
L 375.829091 234.037119 
L 376.505455 234.037119 
L 376.843636 236.577975 
L 377.181818 236.683844 
L 377.52 233.296036 
L 377.858182 234.566464 
L 378.196364 233.190167 
L 378.872727 233.190167 
L 379.210909 234.778202 
L 379.549091 235.413416 
L 379.887273 238.483617 
L 380.225455 237.213189 
L 380.563636 240.28339 
L 381.24 240.28339 
L 381.578182 241.130342 
L 381.916364 243.777067 
L 382.254545 243.988805 
L 382.592727 246.423792 
L 382.930909 245.047495 
L 383.607273 245.047495 
L 383.945455 246.63553 
L 384.283636 245.788578 
L 384.621818 246.741399 
L 384.96 246.423792 
L 385.298182 247.059006 
L 385.974545 247.059006 
L 386.312727 243.671198 
L 386.650909 242.083163 
L 387.665455 229.167145 
L 388.341818 229.167145 
L 388.68 226.202813 
L 389.356364 214.133748 
L 389.694545 212.545713 
L 390.032727 213.075058 
L 390.709091 213.075058 
L 391.047273 208.522691 
L 391.385455 206.405311 
L 391.723636 207.675739 
L 392.061818 206.934656 
L 392.4 204.076193 
L 393.076364 204.076193 
L 393.414545 220.274149 
L 394.090909 194.018638 
L 394.767273 182.584786 
L 395.443636 182.584786 
L 395.781818 158.658393 
L 396.796364 183.008262 
L 397.134545 185.972594 
L 397.810909 185.972594 
L 398.149091 183.961083 
L 398.487273 199.523826 
L 398.487273 199.523826 
" clip-path="url(#p118118bb06)" style="fill: none; stroke: #1f77b4; stroke-width: 1.5; stroke-linecap: square"/>
   </g>
   <g id="patch_3">
    <path d="M 57.6 276.48 
L 57.6 41.472 
" style="fill: none; stroke: #000000; stroke-width: 0.8; stroke-linejoin: miter; stroke-linecap: square"/>
   </g>
   <g id="patch_4">
    <path d="M 414.72 276.48 
L 414.72 41.472 
" style="fill: none; stroke: #000000; stroke-width: 0.8; stroke-linejoin: miter; stroke-linecap: square"/>
   </g>
   <g id="patch_5">
    <path d="M 57.6 276.48 
L 414.72 276.48 
" style="fill: none; stroke: #000000; stroke-width: 0.8; stroke-linejoin: miter; stroke-linecap: square"/>
   </g>
   <g id="patch_6">
    <path d="M 57.6 41.472 
L 414.72 41.472 
" style="fill: none; stroke: #000000; stroke-width: 0.8; stroke-linejoin: miter; stroke-linecap: square"/>
   </g>
  </g>
  <g id="text_18">
   <!-- Inzidenzverlauf LK Birkenfeld -->
   <g transform="translate(99.627188 20.589187) scale(0.18 -0.18)">
    <defs>
     <path id="DejaVuSans-76" d="M 191 3500 
L 800 3500 
L 1894 563 
L 2988 3500 
L 3597 3500 
L 2284 0 
L 1503 0 
L 191 3500 
z
" transform="scale(0.015625)"/>
     <path id="DejaVuSans-6c" d="M 603 4863 
L 1178 4863 
L 1178 0 
L 603 0 
L 603 4863 
z
" transform="scale(0.015625)"/>
     <path id="DejaVuSans-75" d="M 544 1381 
L 544 3500 
L 1119 3500 
L 1119 1403 
Q 1119 906 1312 657 
Q 1506 409 1894 409 
Q 2359 409 2629 706 
Q 2900 1003 2900 1516 
L 2900 3500 
L 3475 3500 
L 3475 0 
L 2900 0 
L 2900 538 
Q 2691 219 2414 64 
Q 2138 -91 1772 -91 
Q 1169 -91 856 284 
Q 544 659 544 1381 
z
M 1991 3584 
L 1991 3584 
z
" transform="scale(0.015625)"/>
     <path id="DejaVuSans-66" d="M 2375 4863 
L 2375 4384 
L 1825 4384 
Q 1516 4384 1395 4259 
Q 1275 4134 1275 3809 
L 1275 3500 
L 2222 3500 
L 2222 3053 
L 1275 3053 
L 1275 0 
L 697 0 
L 697 3053 
L 147 3053 
L 147 3500 
L 697 3500 
L 697 3744 
Q 697 4328 969 4595 
Q 1241 4863 1831 4863 
L 2375 4863 
z
" transform="scale(0.015625)"/>
     <path id="DejaVuSans-4c" d="M 628 4666 
L 1259 4666 
L 1259 531 
L 3531 531 
L 3531 0 
L 628 0 
L 628 4666 
z
" transform="scale(0.015625)"/>
     <path id="DejaVuSans-4b" d="M 628 4666 
L 1259 4666 
L 1259 2694 
L 3353 4666 
L 4166 4666 
L 1850 2491 
L 4331 0 
L 3500 0 
L 1259 2247 
L 1259 0 
L 628 0 
L 628 4666 
z
" transform="scale(0.015625)"/>
     <path id="DejaVuSans-42" d="M 1259 2228 
L 1259 519 
L 2272 519 
Q 2781 519 3026 730 
Q 3272 941 3272 1375 
Q 3272 1813 3026 2020 
Q 2781 2228 2272 2228 
L 1259 2228 
z
M 1259 4147 
L 1259 2741 
L 2194 2741 
Q 2656 2741 2882 2914 
Q 3109 3088 3109 3444 
Q 3109 3797 2882 3972 
Q 2656 4147 2194 4147 
L 1259 4147 
z
M 628 4666 
L 2241 4666 
Q 2963 4666 3353 4366 
Q 3744 4066 3744 3513 
Q 3744 3084 3544 2831 
Q 3344 2578 2956 2516 
Q 3422 2416 3680 2098 
Q 3938 1781 3938 1306 
Q 3938 681 3513 340 
Q 3088 0 2303 0 
L 628 0 
L 628 4666 
z
" transform="scale(0.015625)"/>
     <path id="DejaVuSans-6b" d="M 581 4863 
L 1159 4863 
L 1159 1991 
L 2875 3500 
L 3609 3500 
L 1753 1863 
L 3688 0 
L 2938 0 
L 1159 1709 
L 1159 0 
L 581 0 
L 581 4863 
z
" transform="scale(0.015625)"/>
    </defs>
    <use xlink:href="#DejaVuSans-49"/>
    <use xlink:href="#DejaVuSans-6e" x="29.492188"/>
    <use xlink:href="#DejaVuSans-7a" x="92.871094"/>
    <use xlink:href="#DejaVuSans-69" x="145.361328"/>
    <use xlink:href="#DejaVuSans-64" x="173.144531"/>
    <use xlink:href="#DejaVuSans-65" x="236.621094"/>
    <use xlink:href="#DejaVuSans-6e" x="298.144531"/>
    <use xlink:href="#DejaVuSans-7a" x="361.523438"/>
    <use xlink:href="#DejaVuSans-76" x="414.013672"/>
    <use xlink:href="#DejaVuSans-65" x="473.193359"/>
    <use xlink:href="#DejaVuSans-72" x="534.716797"/>
    <use xlink:href="#DejaVuSans-6c" x="575.830078"/>
    <use xlink:href="#DejaVuSans-61" x="603.613281"/>
    <use xlink:href="#DejaVuSans-75" x="664.892578"/>
    <use xlink:href="#DejaVuSans-66" x="728.271484"/>
    <use xlink:href="#DejaVuSans-20" x="763.476562"/>
    <use xlink:href="#DejaVuSans-4c" x="795.263672"/>
    <use xlink:href="#DejaVuSans-4b" x="850.976562"/>
    <use xlink:href="#DejaVuSans-20" x="916.552734"/>
    <use xlink:href="#DejaVuSans-42" x="948.339844"/>
    <use xlink:href="#DejaVuSans-69" x="1016.943359"/>
    <use xlink:href="#DejaVuSans-72" x="1044.726562"/>
    <use xlink:href="#DejaVuSans-6b" x="1085.839844"/>
    <use xlink:href="#DejaVuSans-65" x="1140.125"/>
    <use xlink:href="#DejaVuSans-6e" x="1201.648438"/>
    <use xlink:href="#DejaVuSans-66" x="1265.027344"/>
    <use xlink:href="#DejaVuSans-65" x="1300.232422"/>
    <use xlink:href="#DejaVuSans-6c" x="1361.755859"/>
    <use xlink:href="#DejaVuSans-64" x="1389.539062"/>
   </g>
  </g>
 </g>
 <defs>
  <clipPath id="p118118bb06">
   <rect x="57.6" y="41.472" width="357.12" height="235.008"/>
  </clipPath>
 </defs>
</svg>
