<?xml version="1.0" encoding="utf-8" standalone="no"?>
<!DOCTYPE svg PUBLIC "-//W3C//DTD SVG 1.1//EN"
  "http://www.w3.org/Graphics/SVG/1.1/DTD/svg11.dtd">
<svg xmlns:xlink="http://www.w3.org/1999/xlink" width="460.8pt" height="345.6pt" viewBox="0 0 460.8 345.6" xmlns="http://www.w3.org/2000/svg" version="1.1">
 <metadata>
  <rdf:RDF xmlns:dc="http://purl.org/dc/elements/1.1/" xmlns:cc="http://creativecommons.org/ns#" xmlns:rdf="http://www.w3.org/1999/02/22-rdf-syntax-ns#">
   <cc:Work>
    <dc:type rdf:resource="http://purl.org/dc/dcmitype/StillImage"/>
    <dc:date>2023-01-12T09:20:46.998379</dc:date>
    <dc:format>image/svg+xml</dc:format>
    <dc:creator>
     <cc:Agent>
      <dc:title>Matplotlib v3.6.3, https://matplotlib.org/</dc:title>
     </cc:Agent>
    </dc:creator>
   </cc:Work>
  </rdf:RDF>
 </metadata>
 <defs>
  <style type="text/css">*{stroke-linejoin: round; stroke-linecap: butt}</style>
 </defs>
 <g id="figure_1">
  <g id="patch_1">
   <path d="M 0 345.6 
L 460.8 345.6 
L 460.8 0 
L 0 0 
z
" style="fill: #ffffff"/>
  </g>
  <g id="axes_1">
   <g id="patch_2">
    <path d="M 57.6 276.48 
L 414.72 276.48 
L 414.72 41.472 
L 57.6 41.472 
z
" style="fill: #ffffff"/>
   </g>
   <g id="matplotlib.axis_1">
    <g id="xtick_1">
     <g id="line2d_1">
      <path d="M 60.875024 276.48 
L 60.875024 41.472 
" clip-path="url(#p975214350b)" style="fill: none; stroke-dasharray: 2.96,1.28; stroke-dashoffset: 0; stroke: #808080; stroke-width: 0.8"/>
     </g>
     <g id="line2d_2">
      <defs>
       <path id="mdd496dad67" d="M 0 0 
L 0 3.5 
" style="stroke: #000000; stroke-width: 0.8"/>
      </defs>
      <g>
       <use xlink:href="#mdd496dad67" x="60.875024" y="276.48" style="stroke: #000000; stroke-width: 0.8"/>
      </g>
     </g>
     <g id="text_1">
      <!-- 21.01.2020 -->
      <g transform="translate(10.249813 318.688565) rotate(-30) scale(0.1 -0.1)">
       <defs>
        <path id="DejaVuSans-32" d="M 1228 531 
L 3431 531 
L 3431 0 
L 469 0 
L 469 531 
Q 828 903 1448 1529 
Q 2069 2156 2228 2338 
Q 2531 2678 2651 2914 
Q 2772 3150 2772 3378 
Q 2772 3750 2511 3984 
Q 2250 4219 1831 4219 
Q 1534 4219 1204 4116 
Q 875 4013 500 3803 
L 500 4441 
Q 881 4594 1212 4672 
Q 1544 4750 1819 4750 
Q 2544 4750 2975 4387 
Q 3406 4025 3406 3419 
Q 3406 3131 3298 2873 
Q 3191 2616 2906 2266 
Q 2828 2175 2409 1742 
Q 1991 1309 1228 531 
z
" transform="scale(0.015625)"/>
        <path id="DejaVuSans-31" d="M 794 531 
L 1825 531 
L 1825 4091 
L 703 3866 
L 703 4441 
L 1819 4666 
L 2450 4666 
L 2450 531 
L 3481 531 
L 3481 0 
L 794 0 
L 794 531 
z
" transform="scale(0.015625)"/>
        <path id="DejaVuSans-2e" d="M 684 794 
L 1344 794 
L 1344 0 
L 684 0 
L 684 794 
z
" transform="scale(0.015625)"/>
        <path id="DejaVuSans-30" d="M 2034 4250 
Q 1547 4250 1301 3770 
Q 1056 3291 1056 2328 
Q 1056 1369 1301 889 
Q 1547 409 2034 409 
Q 2525 409 2770 889 
Q 3016 1369 3016 2328 
Q 3016 3291 2770 3770 
Q 2525 4250 2034 4250 
z
M 2034 4750 
Q 2819 4750 3233 4129 
Q 3647 3509 3647 2328 
Q 3647 1150 3233 529 
Q 2819 -91 2034 -91 
Q 1250 -91 836 529 
Q 422 1150 422 2328 
Q 422 3509 836 4129 
Q 1250 4750 2034 4750 
z
" transform="scale(0.015625)"/>
       </defs>
       <use xlink:href="#DejaVuSans-32"/>
       <use xlink:href="#DejaVuSans-31" x="63.623047"/>
       <use xlink:href="#DejaVuSans-2e" x="127.246094"/>
       <use xlink:href="#DejaVuSans-30" x="159.033203"/>
       <use xlink:href="#DejaVuSans-31" x="222.65625"/>
       <use xlink:href="#DejaVuSans-2e" x="286.279297"/>
       <use xlink:href="#DejaVuSans-32" x="318.066406"/>
       <use xlink:href="#DejaVuSans-30" x="381.689453"/>
       <use xlink:href="#DejaVuSans-32" x="445.3125"/>
       <use xlink:href="#DejaVuSans-30" x="508.935547"/>
      </g>
     </g>
    </g>
    <g id="xtick_2">
     <g id="line2d_3">
      <path d="M 96.913232 276.48 
L 96.913232 41.472 
" clip-path="url(#p975214350b)" style="fill: none; stroke-dasharray: 2.96,1.28; stroke-dashoffset: 0; stroke: #808080; stroke-width: 0.8"/>
     </g>
     <g id="line2d_4">
      <g>
       <use xlink:href="#mdd496dad67" x="96.913232" y="276.48" style="stroke: #000000; stroke-width: 0.8"/>
      </g>
     </g>
     <g id="text_2">
      <!-- 16.05.2020 -->
      <g transform="translate(46.288021 318.688565) rotate(-30) scale(0.1 -0.1)">
       <defs>
        <path id="DejaVuSans-36" d="M 2113 2584 
Q 1688 2584 1439 2293 
Q 1191 2003 1191 1497 
Q 1191 994 1439 701 
Q 1688 409 2113 409 
Q 2538 409 2786 701 
Q 3034 994 3034 1497 
Q 3034 2003 2786 2293 
Q 2538 2584 2113 2584 
z
M 3366 4563 
L 3366 3988 
Q 3128 4100 2886 4159 
Q 2644 4219 2406 4219 
Q 1781 4219 1451 3797 
Q 1122 3375 1075 2522 
Q 1259 2794 1537 2939 
Q 1816 3084 2150 3084 
Q 2853 3084 3261 2657 
Q 3669 2231 3669 1497 
Q 3669 778 3244 343 
Q 2819 -91 2113 -91 
Q 1303 -91 875 529 
Q 447 1150 447 2328 
Q 447 3434 972 4092 
Q 1497 4750 2381 4750 
Q 2619 4750 2861 4703 
Q 3103 4656 3366 4563 
z
" transform="scale(0.015625)"/>
        <path id="DejaVuSans-35" d="M 691 4666 
L 3169 4666 
L 3169 4134 
L 1269 4134 
L 1269 2991 
Q 1406 3038 1543 3061 
Q 1681 3084 1819 3084 
Q 2600 3084 3056 2656 
Q 3513 2228 3513 1497 
Q 3513 744 3044 326 
Q 2575 -91 1722 -91 
Q 1428 -91 1123 -41 
Q 819 9 494 109 
L 494 744 
Q 775 591 1075 516 
Q 1375 441 1709 441 
Q 2250 441 2565 725 
Q 2881 1009 2881 1497 
Q 2881 1984 2565 2268 
Q 2250 2553 1709 2553 
Q 1456 2553 1204 2497 
Q 953 2441 691 2322 
L 691 4666 
z
" transform="scale(0.015625)"/>
       </defs>
       <use xlink:href="#DejaVuSans-31"/>
       <use xlink:href="#DejaVuSans-36" x="63.623047"/>
       <use xlink:href="#DejaVuSans-2e" x="127.246094"/>
       <use xlink:href="#DejaVuSans-30" x="159.033203"/>
       <use xlink:href="#DejaVuSans-35" x="222.65625"/>
       <use xlink:href="#DejaVuSans-2e" x="286.279297"/>
       <use xlink:href="#DejaVuSans-32" x="318.066406"/>
       <use xlink:href="#DejaVuSans-30" x="381.689453"/>
       <use xlink:href="#DejaVuSans-32" x="445.3125"/>
       <use xlink:href="#DejaVuSans-30" x="508.935547"/>
      </g>
     </g>
    </g>
    <g id="xtick_3">
     <g id="line2d_5">
      <path d="M 132.95144 276.48 
L 132.95144 41.472 
" clip-path="url(#p975214350b)" style="fill: none; stroke-dasharray: 2.96,1.28; stroke-dashoffset: 0; stroke: #808080; stroke-width: 0.8"/>
     </g>
     <g id="line2d_6">
      <g>
       <use xlink:href="#mdd496dad67" x="132.95144" y="276.48" style="stroke: #000000; stroke-width: 0.8"/>
      </g>
     </g>
     <g id="text_3">
      <!-- 09.09.2020 -->
      <g transform="translate(82.326229 318.688565) rotate(-30) scale(0.1 -0.1)">
       <defs>
        <path id="DejaVuSans-39" d="M 703 97 
L 703 672 
Q 941 559 1184 500 
Q 1428 441 1663 441 
Q 2288 441 2617 861 
Q 2947 1281 2994 2138 
Q 2813 1869 2534 1725 
Q 2256 1581 1919 1581 
Q 1219 1581 811 2004 
Q 403 2428 403 3163 
Q 403 3881 828 4315 
Q 1253 4750 1959 4750 
Q 2769 4750 3195 4129 
Q 3622 3509 3622 2328 
Q 3622 1225 3098 567 
Q 2575 -91 1691 -91 
Q 1453 -91 1209 -44 
Q 966 3 703 97 
z
M 1959 2075 
Q 2384 2075 2632 2365 
Q 2881 2656 2881 3163 
Q 2881 3666 2632 3958 
Q 2384 4250 1959 4250 
Q 1534 4250 1286 3958 
Q 1038 3666 1038 3163 
Q 1038 2656 1286 2365 
Q 1534 2075 1959 2075 
z
" transform="scale(0.015625)"/>
       </defs>
       <use xlink:href="#DejaVuSans-30"/>
       <use xlink:href="#DejaVuSans-39" x="63.623047"/>
       <use xlink:href="#DejaVuSans-2e" x="127.246094"/>
       <use xlink:href="#DejaVuSans-30" x="159.033203"/>
       <use xlink:href="#DejaVuSans-39" x="222.65625"/>
       <use xlink:href="#DejaVuSans-2e" x="286.279297"/>
       <use xlink:href="#DejaVuSans-32" x="318.066406"/>
       <use xlink:href="#DejaVuSans-30" x="381.689453"/>
       <use xlink:href="#DejaVuSans-32" x="445.3125"/>
       <use xlink:href="#DejaVuSans-30" x="508.935547"/>
      </g>
     </g>
    </g>
    <g id="xtick_4">
     <g id="line2d_7">
      <path d="M 168.989648 276.48 
L 168.989648 41.472 
" clip-path="url(#p975214350b)" style="fill: none; stroke-dasharray: 2.96,1.28; stroke-dashoffset: 0; stroke: #808080; stroke-width: 0.8"/>
     </g>
     <g id="line2d_8">
      <g>
       <use xlink:href="#mdd496dad67" x="168.989648" y="276.48" style="stroke: #000000; stroke-width: 0.8"/>
      </g>
     </g>
     <g id="text_4">
      <!-- 03.01.2021 -->
      <g transform="translate(118.364437 318.688565) rotate(-30) scale(0.1 -0.1)">
       <defs>
        <path id="DejaVuSans-33" d="M 2597 2516 
Q 3050 2419 3304 2112 
Q 3559 1806 3559 1356 
Q 3559 666 3084 287 
Q 2609 -91 1734 -91 
Q 1441 -91 1130 -33 
Q 819 25 488 141 
L 488 750 
Q 750 597 1062 519 
Q 1375 441 1716 441 
Q 2309 441 2620 675 
Q 2931 909 2931 1356 
Q 2931 1769 2642 2001 
Q 2353 2234 1838 2234 
L 1294 2234 
L 1294 2753 
L 1863 2753 
Q 2328 2753 2575 2939 
Q 2822 3125 2822 3475 
Q 2822 3834 2567 4026 
Q 2313 4219 1838 4219 
Q 1578 4219 1281 4162 
Q 984 4106 628 3988 
L 628 4550 
Q 988 4650 1302 4700 
Q 1616 4750 1894 4750 
Q 2613 4750 3031 4423 
Q 3450 4097 3450 3541 
Q 3450 3153 3228 2886 
Q 3006 2619 2597 2516 
z
" transform="scale(0.015625)"/>
       </defs>
       <use xlink:href="#DejaVuSans-30"/>
       <use xlink:href="#DejaVuSans-33" x="63.623047"/>
       <use xlink:href="#DejaVuSans-2e" x="127.246094"/>
       <use xlink:href="#DejaVuSans-30" x="159.033203"/>
       <use xlink:href="#DejaVuSans-31" x="222.65625"/>
       <use xlink:href="#DejaVuSans-2e" x="286.279297"/>
       <use xlink:href="#DejaVuSans-32" x="318.066406"/>
       <use xlink:href="#DejaVuSans-30" x="381.689453"/>
       <use xlink:href="#DejaVuSans-32" x="445.3125"/>
       <use xlink:href="#DejaVuSans-31" x="508.935547"/>
      </g>
     </g>
    </g>
    <g id="xtick_5">
     <g id="line2d_9">
      <path d="M 205.027856 276.48 
L 205.027856 41.472 
" clip-path="url(#p975214350b)" style="fill: none; stroke-dasharray: 2.96,1.28; stroke-dashoffset: 0; stroke: #808080; stroke-width: 0.8"/>
     </g>
     <g id="line2d_10">
      <g>
       <use xlink:href="#mdd496dad67" x="205.027856" y="276.48" style="stroke: #000000; stroke-width: 0.8"/>
      </g>
     </g>
     <g id="text_5">
      <!-- 29.04.2021 -->
      <g transform="translate(154.402645 318.688565) rotate(-30) scale(0.1 -0.1)">
       <defs>
        <path id="DejaVuSans-34" d="M 2419 4116 
L 825 1625 
L 2419 1625 
L 2419 4116 
z
M 2253 4666 
L 3047 4666 
L 3047 1625 
L 3713 1625 
L 3713 1100 
L 3047 1100 
L 3047 0 
L 2419 0 
L 2419 1100 
L 313 1100 
L 313 1709 
L 2253 4666 
z
" transform="scale(0.015625)"/>
       </defs>
       <use xlink:href="#DejaVuSans-32"/>
       <use xlink:href="#DejaVuSans-39" x="63.623047"/>
       <use xlink:href="#DejaVuSans-2e" x="127.246094"/>
       <use xlink:href="#DejaVuSans-30" x="159.033203"/>
       <use xlink:href="#DejaVuSans-34" x="222.65625"/>
       <use xlink:href="#DejaVuSans-2e" x="286.279297"/>
       <use xlink:href="#DejaVuSans-32" x="318.066406"/>
       <use xlink:href="#DejaVuSans-30" x="381.689453"/>
       <use xlink:href="#DejaVuSans-32" x="445.3125"/>
       <use xlink:href="#DejaVuSans-31" x="508.935547"/>
      </g>
     </g>
    </g>
    <g id="xtick_6">
     <g id="line2d_11">
      <path d="M 241.066064 276.48 
L 241.066064 41.472 
" clip-path="url(#p975214350b)" style="fill: none; stroke-dasharray: 2.96,1.28; stroke-dashoffset: 0; stroke: #808080; stroke-width: 0.8"/>
     </g>
     <g id="line2d_12">
      <g>
       <use xlink:href="#mdd496dad67" x="241.066064" y="276.48" style="stroke: #000000; stroke-width: 0.8"/>
      </g>
     </g>
     <g id="text_6">
      <!-- 23.08.2021 -->
      <g transform="translate(190.440853 318.688565) rotate(-30) scale(0.1 -0.1)">
       <defs>
        <path id="DejaVuSans-38" d="M 2034 2216 
Q 1584 2216 1326 1975 
Q 1069 1734 1069 1313 
Q 1069 891 1326 650 
Q 1584 409 2034 409 
Q 2484 409 2743 651 
Q 3003 894 3003 1313 
Q 3003 1734 2745 1975 
Q 2488 2216 2034 2216 
z
M 1403 2484 
Q 997 2584 770 2862 
Q 544 3141 544 3541 
Q 544 4100 942 4425 
Q 1341 4750 2034 4750 
Q 2731 4750 3128 4425 
Q 3525 4100 3525 3541 
Q 3525 3141 3298 2862 
Q 3072 2584 2669 2484 
Q 3125 2378 3379 2068 
Q 3634 1759 3634 1313 
Q 3634 634 3220 271 
Q 2806 -91 2034 -91 
Q 1263 -91 848 271 
Q 434 634 434 1313 
Q 434 1759 690 2068 
Q 947 2378 1403 2484 
z
M 1172 3481 
Q 1172 3119 1398 2916 
Q 1625 2713 2034 2713 
Q 2441 2713 2670 2916 
Q 2900 3119 2900 3481 
Q 2900 3844 2670 4047 
Q 2441 4250 2034 4250 
Q 1625 4250 1398 4047 
Q 1172 3844 1172 3481 
z
" transform="scale(0.015625)"/>
       </defs>
       <use xlink:href="#DejaVuSans-32"/>
       <use xlink:href="#DejaVuSans-33" x="63.623047"/>
       <use xlink:href="#DejaVuSans-2e" x="127.246094"/>
       <use xlink:href="#DejaVuSans-30" x="159.033203"/>
       <use xlink:href="#DejaVuSans-38" x="222.65625"/>
       <use xlink:href="#DejaVuSans-2e" x="286.279297"/>
       <use xlink:href="#DejaVuSans-32" x="318.066406"/>
       <use xlink:href="#DejaVuSans-30" x="381.689453"/>
       <use xlink:href="#DejaVuSans-32" x="445.3125"/>
       <use xlink:href="#DejaVuSans-31" x="508.935547"/>
      </g>
     </g>
    </g>
    <g id="xtick_7">
     <g id="line2d_13">
      <path d="M 277.104271 276.48 
L 277.104271 41.472 
" clip-path="url(#p975214350b)" style="fill: none; stroke-dasharray: 2.96,1.28; stroke-dashoffset: 0; stroke: #808080; stroke-width: 0.8"/>
     </g>
     <g id="line2d_14">
      <g>
       <use xlink:href="#mdd496dad67" x="277.104271" y="276.48" style="stroke: #000000; stroke-width: 0.8"/>
      </g>
     </g>
     <g id="text_7">
      <!-- 17.12.2021 -->
      <g transform="translate(226.479061 318.688565) rotate(-30) scale(0.1 -0.1)">
       <defs>
        <path id="DejaVuSans-37" d="M 525 4666 
L 3525 4666 
L 3525 4397 
L 1831 0 
L 1172 0 
L 2766 4134 
L 525 4134 
L 525 4666 
z
" transform="scale(0.015625)"/>
       </defs>
       <use xlink:href="#DejaVuSans-31"/>
       <use xlink:href="#DejaVuSans-37" x="63.623047"/>
       <use xlink:href="#DejaVuSans-2e" x="127.246094"/>
       <use xlink:href="#DejaVuSans-31" x="159.033203"/>
       <use xlink:href="#DejaVuSans-32" x="222.65625"/>
       <use xlink:href="#DejaVuSans-2e" x="286.279297"/>
       <use xlink:href="#DejaVuSans-32" x="318.066406"/>
       <use xlink:href="#DejaVuSans-30" x="381.689453"/>
       <use xlink:href="#DejaVuSans-32" x="445.3125"/>
       <use xlink:href="#DejaVuSans-31" x="508.935547"/>
      </g>
     </g>
    </g>
    <g id="xtick_8">
     <g id="line2d_15">
      <path d="M 313.142479 276.48 
L 313.142479 41.472 
" clip-path="url(#p975214350b)" style="fill: none; stroke-dasharray: 2.96,1.28; stroke-dashoffset: 0; stroke: #808080; stroke-width: 0.8"/>
     </g>
     <g id="line2d_16">
      <g>
       <use xlink:href="#mdd496dad67" x="313.142479" y="276.48" style="stroke: #000000; stroke-width: 0.8"/>
      </g>
     </g>
     <g id="text_8">
      <!-- 12.04.2022 -->
      <g transform="translate(262.517269 318.688565) rotate(-30) scale(0.1 -0.1)">
       <use xlink:href="#DejaVuSans-31"/>
       <use xlink:href="#DejaVuSans-32" x="63.623047"/>
       <use xlink:href="#DejaVuSans-2e" x="127.246094"/>
       <use xlink:href="#DejaVuSans-30" x="159.033203"/>
       <use xlink:href="#DejaVuSans-34" x="222.65625"/>
       <use xlink:href="#DejaVuSans-2e" x="286.279297"/>
       <use xlink:href="#DejaVuSans-32" x="318.066406"/>
       <use xlink:href="#DejaVuSans-30" x="381.689453"/>
       <use xlink:href="#DejaVuSans-32" x="445.3125"/>
       <use xlink:href="#DejaVuSans-32" x="508.935547"/>
      </g>
     </g>
    </g>
    <g id="xtick_9">
     <g id="line2d_17">
      <path d="M 349.180687 276.48 
L 349.180687 41.472 
" clip-path="url(#p975214350b)" style="fill: none; stroke-dasharray: 2.96,1.28; stroke-dashoffset: 0; stroke: #808080; stroke-width: 0.8"/>
     </g>
     <g id="line2d_18">
      <g>
       <use xlink:href="#mdd496dad67" x="349.180687" y="276.48" style="stroke: #000000; stroke-width: 0.8"/>
      </g>
     </g>
     <g id="text_9">
      <!-- 06.08.2022 -->
      <g transform="translate(298.555476 318.688565) rotate(-30) scale(0.1 -0.1)">
       <use xlink:href="#DejaVuSans-30"/>
       <use xlink:href="#DejaVuSans-36" x="63.623047"/>
       <use xlink:href="#DejaVuSans-2e" x="127.246094"/>
       <use xlink:href="#DejaVuSans-30" x="159.033203"/>
       <use xlink:href="#DejaVuSans-38" x="222.65625"/>
       <use xlink:href="#DejaVuSans-2e" x="286.279297"/>
       <use xlink:href="#DejaVuSans-32" x="318.066406"/>
       <use xlink:href="#DejaVuSans-30" x="381.689453"/>
       <use xlink:href="#DejaVuSans-32" x="445.3125"/>
       <use xlink:href="#DejaVuSans-32" x="508.935547"/>
      </g>
     </g>
    </g>
    <g id="xtick_10">
     <g id="line2d_19">
      <path d="M 385.218895 276.48 
L 385.218895 41.472 
" clip-path="url(#p975214350b)" style="fill: none; stroke-dasharray: 2.96,1.28; stroke-dashoffset: 0; stroke: #808080; stroke-width: 0.8"/>
     </g>
     <g id="line2d_20">
      <g>
       <use xlink:href="#mdd496dad67" x="385.218895" y="276.48" style="stroke: #000000; stroke-width: 0.8"/>
      </g>
     </g>
     <g id="text_10">
      <!-- 30.11.2022 -->
      <g transform="translate(334.593684 318.688565) rotate(-30) scale(0.1 -0.1)">
       <use xlink:href="#DejaVuSans-33"/>
       <use xlink:href="#DejaVuSans-30" x="63.623047"/>
       <use xlink:href="#DejaVuSans-2e" x="127.246094"/>
       <use xlink:href="#DejaVuSans-31" x="159.033203"/>
       <use xlink:href="#DejaVuSans-31" x="222.65625"/>
       <use xlink:href="#DejaVuSans-2e" x="286.279297"/>
       <use xlink:href="#DejaVuSans-32" x="318.066406"/>
       <use xlink:href="#DejaVuSans-30" x="381.689453"/>
       <use xlink:href="#DejaVuSans-32" x="445.3125"/>
       <use xlink:href="#DejaVuSans-32" x="508.935547"/>
      </g>
     </g>
    </g>
   </g>
   <g id="matplotlib.axis_2">
    <g id="ytick_1">
     <g id="line2d_21">
      <path d="M 57.6 265.797818 
L 414.72 265.797818 
" clip-path="url(#p975214350b)" style="fill: none; stroke-dasharray: 2.96,1.28; stroke-dashoffset: 0; stroke: #808080; stroke-width: 0.8"/>
     </g>
     <g id="line2d_22">
      <defs>
       <path id="ma001b2b2e0" d="M 0 0 
L -3.5 0 
" style="stroke: #000000; stroke-width: 0.8"/>
      </defs>
      <g>
       <use xlink:href="#ma001b2b2e0" x="57.6" y="265.797818" style="stroke: #000000; stroke-width: 0.8"/>
      </g>
     </g>
     <g id="text_11">
      <!-- 0 -->
      <g transform="translate(44.2375 269.597037) scale(0.1 -0.1)">
       <use xlink:href="#DejaVuSans-30"/>
      </g>
     </g>
    </g>
    <g id="ytick_2">
     <g id="line2d_23">
      <path d="M 57.6 237.327235 
L 414.72 237.327235 
" clip-path="url(#p975214350b)" style="fill: none; stroke-dasharray: 2.96,1.28; stroke-dashoffset: 0; stroke: #808080; stroke-width: 0.8"/>
     </g>
     <g id="line2d_24">
      <g>
       <use xlink:href="#ma001b2b2e0" x="57.6" y="237.327235" style="stroke: #000000; stroke-width: 0.8"/>
      </g>
     </g>
     <g id="text_12">
      <!-- 500 -->
      <g transform="translate(31.5125 241.126454) scale(0.1 -0.1)">
       <use xlink:href="#DejaVuSans-35"/>
       <use xlink:href="#DejaVuSans-30" x="63.623047"/>
       <use xlink:href="#DejaVuSans-30" x="127.246094"/>
      </g>
     </g>
    </g>
    <g id="ytick_3">
     <g id="line2d_25">
      <path d="M 57.6 208.856652 
L 414.72 208.856652 
" clip-path="url(#p975214350b)" style="fill: none; stroke-dasharray: 2.96,1.28; stroke-dashoffset: 0; stroke: #808080; stroke-width: 0.8"/>
     </g>
     <g id="line2d_26">
      <g>
       <use xlink:href="#ma001b2b2e0" x="57.6" y="208.856652" style="stroke: #000000; stroke-width: 0.8"/>
      </g>
     </g>
     <g id="text_13">
      <!-- 1000 -->
      <g transform="translate(25.15 212.65587) scale(0.1 -0.1)">
       <use xlink:href="#DejaVuSans-31"/>
       <use xlink:href="#DejaVuSans-30" x="63.623047"/>
       <use xlink:href="#DejaVuSans-30" x="127.246094"/>
       <use xlink:href="#DejaVuSans-30" x="190.869141"/>
      </g>
     </g>
    </g>
    <g id="ytick_4">
     <g id="line2d_27">
      <path d="M 57.6 180.386068 
L 414.72 180.386068 
" clip-path="url(#p975214350b)" style="fill: none; stroke-dasharray: 2.96,1.28; stroke-dashoffset: 0; stroke: #808080; stroke-width: 0.8"/>
     </g>
     <g id="line2d_28">
      <g>
       <use xlink:href="#ma001b2b2e0" x="57.6" y="180.386068" style="stroke: #000000; stroke-width: 0.8"/>
      </g>
     </g>
     <g id="text_14">
      <!-- 1500 -->
      <g transform="translate(25.15 184.185287) scale(0.1 -0.1)">
       <use xlink:href="#DejaVuSans-31"/>
       <use xlink:href="#DejaVuSans-35" x="63.623047"/>
       <use xlink:href="#DejaVuSans-30" x="127.246094"/>
       <use xlink:href="#DejaVuSans-30" x="190.869141"/>
      </g>
     </g>
    </g>
    <g id="ytick_5">
     <g id="line2d_29">
      <path d="M 57.6 151.915485 
L 414.72 151.915485 
" clip-path="url(#p975214350b)" style="fill: none; stroke-dasharray: 2.96,1.28; stroke-dashoffset: 0; stroke: #808080; stroke-width: 0.8"/>
     </g>
     <g id="line2d_30">
      <g>
       <use xlink:href="#ma001b2b2e0" x="57.6" y="151.915485" style="stroke: #000000; stroke-width: 0.8"/>
      </g>
     </g>
     <g id="text_15">
      <!-- 2000 -->
      <g transform="translate(25.15 155.714704) scale(0.1 -0.1)">
       <use xlink:href="#DejaVuSans-32"/>
       <use xlink:href="#DejaVuSans-30" x="63.623047"/>
       <use xlink:href="#DejaVuSans-30" x="127.246094"/>
       <use xlink:href="#DejaVuSans-30" x="190.869141"/>
      </g>
     </g>
    </g>
    <g id="ytick_6">
     <g id="line2d_31">
      <path d="M 57.6 123.444901 
L 414.72 123.444901 
" clip-path="url(#p975214350b)" style="fill: none; stroke-dasharray: 2.96,1.28; stroke-dashoffset: 0; stroke: #808080; stroke-width: 0.8"/>
     </g>
     <g id="line2d_32">
      <g>
       <use xlink:href="#ma001b2b2e0" x="57.6" y="123.444901" style="stroke: #000000; stroke-width: 0.8"/>
      </g>
     </g>
     <g id="text_16">
      <!-- 2500 -->
      <g transform="translate(25.15 127.24412) scale(0.1 -0.1)">
       <use xlink:href="#DejaVuSans-32"/>
       <use xlink:href="#DejaVuSans-35" x="63.623047"/>
       <use xlink:href="#DejaVuSans-30" x="127.246094"/>
       <use xlink:href="#DejaVuSans-30" x="190.869141"/>
      </g>
     </g>
    </g>
    <g id="ytick_7">
     <g id="line2d_33">
      <path d="M 57.6 94.974318 
L 414.72 94.974318 
" clip-path="url(#p975214350b)" style="fill: none; stroke-dasharray: 2.96,1.28; stroke-dashoffset: 0; stroke: #808080; stroke-width: 0.8"/>
     </g>
     <g id="line2d_34">
      <g>
       <use xlink:href="#ma001b2b2e0" x="57.6" y="94.974318" style="stroke: #000000; stroke-width: 0.8"/>
      </g>
     </g>
     <g id="text_17">
      <!-- 3000 -->
      <g transform="translate(25.15 98.773537) scale(0.1 -0.1)">
       <use xlink:href="#DejaVuSans-33"/>
       <use xlink:href="#DejaVuSans-30" x="63.623047"/>
       <use xlink:href="#DejaVuSans-30" x="127.246094"/>
       <use xlink:href="#DejaVuSans-30" x="190.869141"/>
      </g>
     </g>
    </g>
    <g id="ytick_8">
     <g id="line2d_35">
      <path d="M 57.6 66.503735 
L 414.72 66.503735 
" clip-path="url(#p975214350b)" style="fill: none; stroke-dasharray: 2.96,1.28; stroke-dashoffset: 0; stroke: #808080; stroke-width: 0.8"/>
     </g>
     <g id="line2d_36">
      <g>
       <use xlink:href="#ma001b2b2e0" x="57.6" y="66.503735" style="stroke: #000000; stroke-width: 0.8"/>
      </g>
     </g>
     <g id="text_18">
      <!-- 3500 -->
      <g transform="translate(25.15 70.302954) scale(0.1 -0.1)">
       <use xlink:href="#DejaVuSans-33"/>
       <use xlink:href="#DejaVuSans-35" x="63.623047"/>
       <use xlink:href="#DejaVuSans-30" x="127.246094"/>
       <use xlink:href="#DejaVuSans-30" x="190.869141"/>
      </g>
     </g>
    </g>
    <g id="text_19">
     <!-- Inzidenz pro 7 Tage pro 100.000 Einwohner -->
     <g transform="translate(19.070312 267.301) rotate(-90) scale(0.1 -0.1)">
      <defs>
       <path id="DejaVuSans-49" d="M 628 4666 
L 1259 4666 
L 1259 0 
L 628 0 
L 628 4666 
z
" transform="scale(0.015625)"/>
       <path id="DejaVuSans-6e" d="M 3513 2113 
L 3513 0 
L 2938 0 
L 2938 2094 
Q 2938 2591 2744 2837 
Q 2550 3084 2163 3084 
Q 1697 3084 1428 2787 
Q 1159 2491 1159 1978 
L 1159 0 
L 581 0 
L 581 3500 
L 1159 3500 
L 1159 2956 
Q 1366 3272 1645 3428 
Q 1925 3584 2291 3584 
Q 2894 3584 3203 3211 
Q 3513 2838 3513 2113 
z
" transform="scale(0.015625)"/>
       <path id="DejaVuSans-7a" d="M 353 3500 
L 3084 3500 
L 3084 2975 
L 922 459 
L 3084 459 
L 3084 0 
L 275 0 
L 275 525 
L 2438 3041 
L 353 3041 
L 353 3500 
z
" transform="scale(0.015625)"/>
       <path id="DejaVuSans-69" d="M 603 3500 
L 1178 3500 
L 1178 0 
L 603 0 
L 603 3500 
z
M 603 4863 
L 1178 4863 
L 1178 4134 
L 603 4134 
L 603 4863 
z
" transform="scale(0.015625)"/>
       <path id="DejaVuSans-64" d="M 2906 2969 
L 2906 4863 
L 3481 4863 
L 3481 0 
L 2906 0 
L 2906 525 
Q 2725 213 2448 61 
Q 2172 -91 1784 -91 
Q 1150 -91 751 415 
Q 353 922 353 1747 
Q 353 2572 751 3078 
Q 1150 3584 1784 3584 
Q 2172 3584 2448 3432 
Q 2725 3281 2906 2969 
z
M 947 1747 
Q 947 1113 1208 752 
Q 1469 391 1925 391 
Q 2381 391 2643 752 
Q 2906 1113 2906 1747 
Q 2906 2381 2643 2742 
Q 2381 3103 1925 3103 
Q 1469 3103 1208 2742 
Q 947 2381 947 1747 
z
" transform="scale(0.015625)"/>
       <path id="DejaVuSans-65" d="M 3597 1894 
L 3597 1613 
L 953 1613 
Q 991 1019 1311 708 
Q 1631 397 2203 397 
Q 2534 397 2845 478 
Q 3156 559 3463 722 
L 3463 178 
Q 3153 47 2828 -22 
Q 2503 -91 2169 -91 
Q 1331 -91 842 396 
Q 353 884 353 1716 
Q 353 2575 817 3079 
Q 1281 3584 2069 3584 
Q 2775 3584 3186 3129 
Q 3597 2675 3597 1894 
z
M 3022 2063 
Q 3016 2534 2758 2815 
Q 2500 3097 2075 3097 
Q 1594 3097 1305 2825 
Q 1016 2553 972 2059 
L 3022 2063 
z
" transform="scale(0.015625)"/>
       <path id="DejaVuSans-20" transform="scale(0.015625)"/>
       <path id="DejaVuSans-70" d="M 1159 525 
L 1159 -1331 
L 581 -1331 
L 581 3500 
L 1159 3500 
L 1159 2969 
Q 1341 3281 1617 3432 
Q 1894 3584 2278 3584 
Q 2916 3584 3314 3078 
Q 3713 2572 3713 1747 
Q 3713 922 3314 415 
Q 2916 -91 2278 -91 
Q 1894 -91 1617 61 
Q 1341 213 1159 525 
z
M 3116 1747 
Q 3116 2381 2855 2742 
Q 2594 3103 2138 3103 
Q 1681 3103 1420 2742 
Q 1159 2381 1159 1747 
Q 1159 1113 1420 752 
Q 1681 391 2138 391 
Q 2594 391 2855 752 
Q 3116 1113 3116 1747 
z
" transform="scale(0.015625)"/>
       <path id="DejaVuSans-72" d="M 2631 2963 
Q 2534 3019 2420 3045 
Q 2306 3072 2169 3072 
Q 1681 3072 1420 2755 
Q 1159 2438 1159 1844 
L 1159 0 
L 581 0 
L 581 3500 
L 1159 3500 
L 1159 2956 
Q 1341 3275 1631 3429 
Q 1922 3584 2338 3584 
Q 2397 3584 2469 3576 
Q 2541 3569 2628 3553 
L 2631 2963 
z
" transform="scale(0.015625)"/>
       <path id="DejaVuSans-6f" d="M 1959 3097 
Q 1497 3097 1228 2736 
Q 959 2375 959 1747 
Q 959 1119 1226 758 
Q 1494 397 1959 397 
Q 2419 397 2687 759 
Q 2956 1122 2956 1747 
Q 2956 2369 2687 2733 
Q 2419 3097 1959 3097 
z
M 1959 3584 
Q 2709 3584 3137 3096 
Q 3566 2609 3566 1747 
Q 3566 888 3137 398 
Q 2709 -91 1959 -91 
Q 1206 -91 779 398 
Q 353 888 353 1747 
Q 353 2609 779 3096 
Q 1206 3584 1959 3584 
z
" transform="scale(0.015625)"/>
       <path id="DejaVuSans-54" d="M -19 4666 
L 3928 4666 
L 3928 4134 
L 2272 4134 
L 2272 0 
L 1638 0 
L 1638 4134 
L -19 4134 
L -19 4666 
z
" transform="scale(0.015625)"/>
       <path id="DejaVuSans-61" d="M 2194 1759 
Q 1497 1759 1228 1600 
Q 959 1441 959 1056 
Q 959 750 1161 570 
Q 1363 391 1709 391 
Q 2188 391 2477 730 
Q 2766 1069 2766 1631 
L 2766 1759 
L 2194 1759 
z
M 3341 1997 
L 3341 0 
L 2766 0 
L 2766 531 
Q 2569 213 2275 61 
Q 1981 -91 1556 -91 
Q 1019 -91 701 211 
Q 384 513 384 1019 
Q 384 1609 779 1909 
Q 1175 2209 1959 2209 
L 2766 2209 
L 2766 2266 
Q 2766 2663 2505 2880 
Q 2244 3097 1772 3097 
Q 1472 3097 1187 3025 
Q 903 2953 641 2809 
L 641 3341 
Q 956 3463 1253 3523 
Q 1550 3584 1831 3584 
Q 2591 3584 2966 3190 
Q 3341 2797 3341 1997 
z
" transform="scale(0.015625)"/>
       <path id="DejaVuSans-67" d="M 2906 1791 
Q 2906 2416 2648 2759 
Q 2391 3103 1925 3103 
Q 1463 3103 1205 2759 
Q 947 2416 947 1791 
Q 947 1169 1205 825 
Q 1463 481 1925 481 
Q 2391 481 2648 825 
Q 2906 1169 2906 1791 
z
M 3481 434 
Q 3481 -459 3084 -895 
Q 2688 -1331 1869 -1331 
Q 1566 -1331 1297 -1286 
Q 1028 -1241 775 -1147 
L 775 -588 
Q 1028 -725 1275 -790 
Q 1522 -856 1778 -856 
Q 2344 -856 2625 -561 
Q 2906 -266 2906 331 
L 2906 616 
Q 2728 306 2450 153 
Q 2172 0 1784 0 
Q 1141 0 747 490 
Q 353 981 353 1791 
Q 353 2603 747 3093 
Q 1141 3584 1784 3584 
Q 2172 3584 2450 3431 
Q 2728 3278 2906 2969 
L 2906 3500 
L 3481 3500 
L 3481 434 
z
" transform="scale(0.015625)"/>
       <path id="DejaVuSans-45" d="M 628 4666 
L 3578 4666 
L 3578 4134 
L 1259 4134 
L 1259 2753 
L 3481 2753 
L 3481 2222 
L 1259 2222 
L 1259 531 
L 3634 531 
L 3634 0 
L 628 0 
L 628 4666 
z
" transform="scale(0.015625)"/>
       <path id="DejaVuSans-77" d="M 269 3500 
L 844 3500 
L 1563 769 
L 2278 3500 
L 2956 3500 
L 3675 769 
L 4391 3500 
L 4966 3500 
L 4050 0 
L 3372 0 
L 2619 2869 
L 1863 0 
L 1184 0 
L 269 3500 
z
" transform="scale(0.015625)"/>
       <path id="DejaVuSans-68" d="M 3513 2113 
L 3513 0 
L 2938 0 
L 2938 2094 
Q 2938 2591 2744 2837 
Q 2550 3084 2163 3084 
Q 1697 3084 1428 2787 
Q 1159 2491 1159 1978 
L 1159 0 
L 581 0 
L 581 4863 
L 1159 4863 
L 1159 2956 
Q 1366 3272 1645 3428 
Q 1925 3584 2291 3584 
Q 2894 3584 3203 3211 
Q 3513 2838 3513 2113 
z
" transform="scale(0.015625)"/>
      </defs>
      <use xlink:href="#DejaVuSans-49"/>
      <use xlink:href="#DejaVuSans-6e" x="29.492188"/>
      <use xlink:href="#DejaVuSans-7a" x="92.871094"/>
      <use xlink:href="#DejaVuSans-69" x="145.361328"/>
      <use xlink:href="#DejaVuSans-64" x="173.144531"/>
      <use xlink:href="#DejaVuSans-65" x="236.621094"/>
      <use xlink:href="#DejaVuSans-6e" x="298.144531"/>
      <use xlink:href="#DejaVuSans-7a" x="361.523438"/>
      <use xlink:href="#DejaVuSans-20" x="414.013672"/>
      <use xlink:href="#DejaVuSans-70" x="445.800781"/>
      <use xlink:href="#DejaVuSans-72" x="509.277344"/>
      <use xlink:href="#DejaVuSans-6f" x="548.140625"/>
      <use xlink:href="#DejaVuSans-20" x="609.322266"/>
      <use xlink:href="#DejaVuSans-37" x="641.109375"/>
      <use xlink:href="#DejaVuSans-20" x="704.732422"/>
      <use xlink:href="#DejaVuSans-54" x="736.519531"/>
      <use xlink:href="#DejaVuSans-61" x="781.103516"/>
      <use xlink:href="#DejaVuSans-67" x="842.382812"/>
      <use xlink:href="#DejaVuSans-65" x="905.859375"/>
      <use xlink:href="#DejaVuSans-20" x="967.382812"/>
      <use xlink:href="#DejaVuSans-70" x="999.169922"/>
      <use xlink:href="#DejaVuSans-72" x="1062.646484"/>
      <use xlink:href="#DejaVuSans-6f" x="1101.509766"/>
      <use xlink:href="#DejaVuSans-20" x="1162.691406"/>
      <use xlink:href="#DejaVuSans-31" x="1194.478516"/>
      <use xlink:href="#DejaVuSans-30" x="1258.101562"/>
      <use xlink:href="#DejaVuSans-30" x="1321.724609"/>
      <use xlink:href="#DejaVuSans-2e" x="1385.347656"/>
      <use xlink:href="#DejaVuSans-30" x="1417.134766"/>
      <use xlink:href="#DejaVuSans-30" x="1480.757812"/>
      <use xlink:href="#DejaVuSans-30" x="1544.380859"/>
      <use xlink:href="#DejaVuSans-20" x="1608.003906"/>
      <use xlink:href="#DejaVuSans-45" x="1639.791016"/>
      <use xlink:href="#DejaVuSans-69" x="1702.974609"/>
      <use xlink:href="#DejaVuSans-6e" x="1730.757812"/>
      <use xlink:href="#DejaVuSans-77" x="1794.136719"/>
      <use xlink:href="#DejaVuSans-6f" x="1875.923828"/>
      <use xlink:href="#DejaVuSans-68" x="1937.105469"/>
      <use xlink:href="#DejaVuSans-6e" x="2000.484375"/>
      <use xlink:href="#DejaVuSans-65" x="2063.863281"/>
      <use xlink:href="#DejaVuSans-72" x="2125.386719"/>
     </g>
    </g>
   </g>
   <g id="line2d_37">
    <path d="M 73.832727 265.797818 
L 77.871492 265.697735 
L 80.66756 265.297404 
L 81.288908 265.063877 
L 82.220931 264.963794 
L 82.842279 264.997155 
L 83.463628 265.197321 
L 84.39565 265.063877 
L 85.327673 265.097238 
L 86.259696 264.49674 
L 86.881044 264.696906 
L 87.502392 264.696906 
L 87.813067 264.897072 
L 88.434415 265.597652 
L 89.987786 265.697735 
L 90.609134 265.564291 
L 92.162505 265.631013 
L 92.783854 265.764457 
L 93.715876 265.664374 
L 94.958573 265.597652 
L 95.579922 265.697735 
L 96.511944 265.697735 
L 97.133293 265.764457 
L 116.395094 265.664374 
L 116.705768 265.397487 
L 117.63779 265.297404 
L 117.948465 265.063877 
L 118.569813 265.030516 
L 118.880487 265.230682 
L 119.191161 265.030516 
L 119.81251 264.897072 
L 120.123184 265.063877 
L 121.055207 264.83035 
L 121.676555 265.097238 
L 121.987229 265.097238 
L 122.297903 264.963794 
L 122.608578 264.696906 
L 122.919252 264.763628 
L 124.161949 264.363297 
L 124.783297 264.49674 
L 125.093971 264.329936 
L 125.71532 264.329936 
L 126.025994 264.563462 
L 126.336668 264.596823 
L 126.647342 264.49674 
L 127.268691 264.863711 
L 127.579365 265.063877 
L 128.200713 264.963794 
L 128.511388 264.930433 
L 128.822062 265.097238 
L 131.928804 265.364126 
L 132.550152 265.397487 
L 133.171501 265.430848 
L 133.482175 265.330765 
L 133.792849 264.997155 
L 134.103523 264.430019 
L 134.724872 263.629355 
L 135.34622 262.161473 
L 135.967569 260.726951 
L 136.278243 260.827034 
L 136.588917 260.726951 
L 136.899591 260.960478 
L 137.210265 261.360809 
L 137.831614 261.327449 
L 138.142288 262.028029 
L 138.452962 262.06139 
L 138.763636 262.261556 
L 139.074311 261.794502 
L 139.384985 261.927946 
L 139.695659 261.927946 
L 140.006333 261.72778 
L 140.627682 262.06139 
L 140.938356 262.06139 
L 141.24903 262.194834 
L 141.559704 261.494253 
L 142.181053 258.691932 
L 142.491727 258.425044 
L 142.802401 257.624381 
L 143.113075 257.357493 
L 143.423749 256.823718 
L 143.734424 256.023055 
L 144.355772 257.22405 
L 144.97712 255.055587 
L 145.598469 254.955504 
L 145.909143 255.15567 
L 146.219817 254.988865 
L 146.530492 253.220733 
L 146.841166 254.221562 
L 147.462514 252.553514 
L 147.773188 252.920485 
L 148.083863 252.453431 
L 148.394537 252.319987 
L 148.705211 251.586046 
L 149.015885 249.817915 
L 149.326559 250.184885 
L 149.637234 249.517666 
L 150.569256 244.780409 
L 150.87993 246.081486 
L 151.190605 246.848789 
L 151.501279 246.581901 
L 151.811953 247.282481 
L 152.122627 249.050612 
L 152.433301 251.485963 
L 152.743976 251.953017 
L 153.05465 252.720319 
L 153.365324 252.453431 
L 153.675998 252.553514 
L 153.986672 253.020568 
L 154.297347 252.75368 
L 154.608021 252.119821 
L 154.918695 249.717832 
L 155.229369 248.95053 
L 155.540043 248.983891 
L 155.850718 248.850447 
L 156.161392 249.117334 
L 156.472066 249.617749 
L 156.78274 249.450944 
L 157.093415 251.219075 
L 157.404089 250.818744 
L 157.714763 251.252436 
L 158.025437 252.887124 
L 158.336111 252.686958 
L 158.646786 252.219904 
L 158.95746 252.686958 
L 159.268134 254.12148 
L 159.889482 255.255752 
L 160.200157 254.521811 
L 160.821505 255.989694 
L 161.753528 256.490108 
L 162.064202 256.156499 
L 162.374876 256.723635 
L 162.68555 256.056416 
L 162.996224 255.055587 
L 163.306899 255.18903 
L 163.617573 254.288284 
L 163.928247 255.956333 
L 164.238921 255.389196 
L 164.549595 255.222391 
L 164.86027 255.722806 
L 165.170944 256.490108 
L 165.481618 256.623552 
L 165.792292 257.25741 
L 166.102967 256.857079 
L 166.724315 259.792844 
L 167.034989 259.29243 
L 167.345663 259.092264 
L 167.656338 258.224879 
L 167.967012 258.458405 
L 168.58836 258.491766 
L 168.899034 257.857908 
L 169.209709 258.091435 
L 169.520383 257.957991 
L 169.831057 258.458405 
L 170.141731 258.391683 
L 170.452405 256.623552 
L 170.76308 255.556001 
L 171.073754 254.054758 
L 172.005776 252.453431 
L 172.316451 252.386709 
L 172.627125 254.82206 
L 172.937799 255.455918 
L 173.559147 257.490937 
L 173.869822 258.091435 
L 174.180496 258.191518 
L 174.49117 259.425873 
L 174.801844 258.62521 
L 175.733867 257.424215 
L 176.044541 257.791186 
L 176.355215 257.92463 
L 176.66589 257.057245 
L 177.287238 258.124796 
L 177.597912 258.2916 
L 177.908586 258.024713 
L 178.529935 258.591849 
L 178.840609 259.559317 
L 179.151283 258.324961 
L 179.461957 258.658571 
L 179.772632 259.492595 
L 180.39398 259.6594 
L 180.704654 260.293259 
L 181.015328 259.99301 
L 181.326003 261.494253 
L 181.636677 260.827034 
L 181.947351 260.860395 
L 182.258025 261.060561 
L 182.568699 260.69359 
L 183.190048 260.526785 
L 183.500722 259.826205 
L 183.811396 260.35998 
L 184.12207 259.058903 
L 184.432745 259.29243 
L 184.743419 258.792015 
L 185.054093 257.724464 
L 185.364767 257.123967 
L 185.675441 256.990523 
L 185.986116 256.123138 
L 186.29679 257.023884 
L 186.607464 257.190689 
L 187.228813 258.158157 
L 187.539487 258.024713 
L 187.850161 257.557659 
L 188.160835 257.59102 
L 188.471509 256.857079 
L 188.782184 256.823718 
L 189.092858 256.957162 
L 189.403532 256.957162 
L 190.02488 257.290771 
L 190.335555 257.290771 
L 190.646229 257.891269 
L 190.956903 256.957162 
L 191.267577 256.423386 
L 191.578251 256.123138 
L 192.1996 252.153182 
L 192.820948 250.218246 
L 193.131622 250.885466 
L 193.442297 250.485134 
L 193.752971 250.852105 
L 194.063645 250.451773 
L 194.374319 251.852934 
L 194.684993 252.253265 
L 194.995668 253.554343 
L 195.306342 251.852934 
L 195.617016 251.752851 
L 195.92769 250.985549 
L 196.238365 252.019739 
L 196.549039 252.586875 
L 196.859713 251.452602 
L 197.170387 251.419241 
L 197.791736 254.855421 
L 198.10241 254.855421 
L 198.413084 255.455918 
L 198.723758 254.755338 
L 199.034432 255.889611 
L 199.655781 252.887124 
L 199.966455 252.253265 
L 200.277129 252.686958 
L 200.587803 252.353348 
L 200.898478 253.154011 
L 201.209152 253.621065 
L 201.519826 253.754509 
L 201.8305 254.888782 
L 202.141174 255.022226 
L 202.451849 254.355006 
L 203.073197 255.15567 
L 203.383871 255.055587 
L 203.694545 256.089777 
L 204.00522 256.22322 
L 204.315894 256.523469 
L 204.626568 257.25741 
L 205.247916 257.290771 
L 205.558591 258.2916 
L 206.490613 256.690274 
L 206.801288 256.957162 
L 207.111962 257.691103 
L 207.422636 257.92463 
L 207.73331 257.22405 
L 208.043984 258.425044 
L 208.354659 258.491766 
L 208.665333 259.158986 
L 208.976007 259.058903 
L 209.286681 259.559317 
L 209.597355 260.560146 
L 209.90803 259.892927 
L 210.529378 260.293259 
L 211.461401 261.260727 
L 211.772075 260.793673 
L 212.082749 262.42836 
L 212.393423 262.328278 
L 212.704097 262.595165 
L 213.014772 262.695248 
L 213.325446 263.762799 
L 213.946794 264.063048 
L 214.568143 264.663545 
L 214.878817 264.663545 
L 215.189491 264.263214 
L 215.500165 264.163131 
L 216.121514 264.763628 
L 216.742862 264.696906 
L 217.053536 264.696906 
L 217.364211 264.930433 
L 217.674885 264.930433 
L 217.985559 264.730267 
L 218.606907 265.063877 
L 219.228256 265.030516 
L 219.53893 265.197321 
L 219.849604 265.097238 
L 220.160278 265.330765 
L 221.713649 265.297404 
L 222.024324 265.597652 
L 222.334998 265.731096 
L 223.577695 265.631013 
L 224.820391 265.430848 
L 225.44174 265.330765 
L 226.063088 265.364126 
L 226.373763 265.063877 
L 226.995111 264.83035 
L 227.305785 265.030516 
L 228.237808 265.097238 
L 228.548482 265.297404 
L 231.033876 265.264043 
L 231.34455 265.464209 
L 231.965898 265.397487 
L 232.897921 265.330765 
L 233.519269 264.930433 
L 234.140618 265.030516 
L 234.761966 264.930433 
L 235.693989 264.83035 
L 236.004663 264.563462 
L 236.936686 264.363297 
L 237.24736 264.229853 
L 237.558034 264.296575 
L 237.868708 264.229853 
L 238.490057 264.396658 
L 239.111405 264.329936 
L 239.422079 264.563462 
L 239.732753 264.229853 
L 240.664776 263.962965 
L 240.97545 263.962965 
L 241.286124 263.595994 
L 241.596799 262.795331 
L 241.907473 262.828692 
L 242.528821 262.294917 
L 243.15017 262.294917 
L 243.460844 261.794502 
L 243.771518 261.894585 
L 244.392866 261.327449 
L 245.014215 261.427531 
L 245.324889 261.427531 
L 245.635563 261.560975 
L 245.946237 260.960478 
L 246.256912 260.960478 
L 246.567586 261.327449 
L 247.188934 261.194005 
L 247.499609 261.194005 
L 248.120957 262.42836 
L 248.742305 261.794502 
L 249.05298 261.927946 
L 249.674328 261.927946 
L 249.985002 261.39417 
L 250.295676 261.927946 
L 250.606351 261.39417 
L 250.917025 261.694419 
L 251.849047 261.794502 
L 252.159722 261.494253 
L 252.470396 260.426702 
L 252.78107 260.493424 
L 253.402418 259.592678 
L 254.023767 259.592678 
L 254.334441 260.493424 
L 254.645115 260.326619 
L 254.955789 260.326619 
L 255.577138 261.227366 
L 256.198486 261.227366 
L 256.509161 259.425873 
L 256.819835 259.092264 
L 257.130509 258.95882 
L 257.441183 258.091435 
L 257.751857 257.757825 
L 258.373206 257.757825 
L 258.68388 257.324132 
L 259.615903 254.988865 
L 259.926577 254.521811 
L 260.547925 254.521811 
L 261.169274 251.152353 
L 261.479948 250.485134 
L 262.101296 250.084802 
L 262.41197 249.884637 
L 263.033319 249.751193 
L 263.343993 249.951359 
L 263.654667 247.849618 
L 264.276016 246.648623 
L 264.897364 246.848789 
L 265.208038 246.481818 
L 265.518712 247.215759 
L 265.829387 247.149037 
L 266.450735 244.680326 
L 267.072084 244.646965 
L 267.382758 245.147379 
L 267.693432 244.546882 
L 268.004106 243.679497 
L 268.31478 243.379248 
L 268.625455 244.613604 
L 269.246803 244.713687 
L 269.557477 244.380077 
L 269.868151 244.213272 
L 270.178826 246.081486 
L 270.4895 241.677839 
L 270.800174 239.042322 
L 271.421522 239.042322 
L 271.732197 236.640333 
L 272.042871 235.706225 
L 272.353545 236.573611 
L 272.664219 241.544395 
L 272.974893 243.312526 
L 273.285568 243.045638 
L 273.596242 242.978916 
L 273.906916 245.881321 
L 274.21759 246.748706 
L 274.528264 247.282481 
L 275.149613 249.65111 
L 275.460287 249.484305 
L 275.770961 249.450944 
L 276.081635 250.551856 
L 276.39231 252.386709 
L 276.702984 252.586875 
L 277.013658 253.687787 
L 277.635007 254.388367 
L 277.945681 254.48845 
L 278.256355 255.656084 
L 278.567029 255.85625 
L 278.877703 257.424215 
L 279.188378 258.224879 
L 279.499052 259.392512 
L 280.1204 259.459234 
L 280.431074 259.425873 
L 280.741749 259.192347 
L 281.363097 257.324132 
L 281.673771 256.990523 
L 282.605794 257.090606 
L 282.916468 255.85625 
L 283.227142 253.921314 
L 283.537816 253.08729 
L 283.848491 251.819573 
L 284.469839 251.586046 
L 285.091187 249.250778 
L 285.401862 250.485134 
L 286.02321 242.74539 
L 286.333884 242.778751 
L 286.644559 242.244975 
L 286.955233 232.703738 
L 287.265907 227.966481 
L 288.19793 207.482847 
L 288.508604 207.349403 
L 288.819278 207.983261 
L 289.129952 213.020767 
L 289.440626 212.120021 
L 289.751301 207.282681 
L 290.061975 206.148408 
L 290.372649 205.614633 
L 290.993997 205.714716 
L 291.615346 190.468753 
L 291.92602 188.867427 
L 292.236694 184.630584 
L 292.547368 185.231081 
L 292.858043 184.764028 
L 293.168717 184.697306 
L 293.479391 186.19855 
L 293.790065 185.064277 
L 294.411414 191.903275 
L 294.722088 192.40369 
L 295.032762 192.637216 
L 295.343436 192.603855 
L 295.65411 191.469582 
L 295.964785 186.498798 
L 296.586133 168.317071 
L 296.896807 163.613174 
L 297.518156 163.212843 
L 297.82883 158.542307 
L 298.139504 164.84753 
L 298.450178 174.855821 
L 298.760853 175.556401 
L 299.071527 178.592249 
L 299.382201 179.092663 
L 299.692875 179.32619 
L 300.003549 176.490508 
L 300.314224 181.060961 
L 300.624898 174.622294 
L 300.935572 180.827434 
L 301.246246 181.427931 
L 301.55692 181.528014 
L 301.867595 181.427931 
L 302.178269 183.963365 
L 302.488943 182.462121 
L 302.799617 184.397057 
L 303.110291 180.460463 
L 303.420966 178.458805 
L 304.042314 178.425444 
L 304.352988 182.228594 
L 304.974337 164.347116 
L 305.285011 171.419641 
L 305.595685 173.654826 
L 305.906359 172.487192 
L 306.217033 172.353748 
L 306.527708 174.922543 
L 306.838382 183.763199 
L 307.149056 198.008332 
L 307.45973 198.9758 
L 307.770405 196.373645 
L 308.391753 196.607171 
L 308.702427 188.600539 
L 309.63445 150.569036 
L 309.945124 150.402231 
L 310.255798 150.802563 
L 310.566472 150.435592 
L 310.877147 141.227965 
L 311.498495 131.253036 
L 311.809169 127.816856 
L 312.119843 122.745989 
L 312.741192 123.513291 
L 313.051866 118.175537 
L 313.36254 127.516608 
L 313.673214 125.815198 
L 313.983889 121.178024 
L 314.294563 139.226307 
L 314.605237 138.692532 
L 314.915911 138.592449 
L 315.226585 175.289513 
L 315.53726 164.48056 
L 315.847934 174.755738 
L 316.158608 176.990922 
L 316.469282 144.997755 
L 316.779957 137.424815 
L 317.090631 133.45486 
L 317.401305 93.855391 
L 317.711979 78.30918 
L 318.022653 55.089947 
L 318.333328 52.154182 
L 318.644002 69.468524 
L 318.954676 69.66869 
L 319.26535 70.769602 
L 319.886699 132.754279 
L 320.508047 188.96751 
L 320.818721 193.47124 
L 321.129395 196.20684 
L 321.44007 196.306923 
L 322.372092 204.046667 
L 322.682766 205.381106 
L 322.993441 207.749735 
L 323.304115 209.150895 
L 323.614789 209.884837 
L 323.925463 210.985748 
L 324.236137 216.323503 
L 324.546812 217.92483 
L 324.857486 222.662087 
L 325.478834 227.099096 
L 325.789508 228.200008 
L 326.100183 231.936436 
L 326.410857 234.104899 
L 326.721531 234.972284 
L 327.032205 239.008961 
L 327.653554 241.911365 
L 328.274902 241.611117 
L 328.585576 242.41178 
L 328.896251 243.846302 
L 329.206925 239.709542 
L 329.828273 237.407635 
L 330.138947 237.140747 
L 330.449622 241.644478 
L 331.07097 230.535275 
L 331.381644 227.399345 
L 332.002993 224.83055 
L 332.313667 224.863911 
L 332.624341 216.356864 
L 332.935015 218.191717 
L 333.556364 220.593707 
L 334.177712 215.589562 
L 334.488386 214.922343 
L 334.79906 215.122508 
L 335.731083 204.180111 
L 336.041757 203.44617 
L 336.352431 204.680526 
L 336.663106 203.579614 
L 337.284454 202.445341 
L 337.595128 202.512063 
L 337.905803 207.482847 
L 338.216477 210.585417 
L 338.837825 212.920685 
L 339.148499 213.321016 
L 339.459174 215.656284 
L 339.769848 219.926488 
L 340.080522 220.660429 
L 340.391196 220.260097 
L 340.70187 219.059103 
L 341.012545 219.025742 
L 341.323219 220.526985 
L 341.633893 219.526156 
L 341.944567 219.125825 
L 342.255241 217.457776 
L 342.565916 217.824747 
L 342.87659 218.925659 
L 343.497938 219.192546 
L 343.808612 222.461921 
L 344.119287 223.09578 
L 344.429961 224.12997 
L 345.051309 225.230882 
L 345.361983 225.731296 
L 345.672658 227.766315 
L 346.294006 230.501914 
L 346.915355 237.807966 
L 347.847377 240.777092 
L 348.468726 244.646965 
L 348.7794 244.313355 
L 349.090074 243.045638 
L 349.400748 243.179082 
L 349.711422 243.012277 
L 351.264793 245.480989 
L 351.575468 245.914682 
L 351.886142 245.347545 
L 352.196816 245.581072 
L 352.50749 244.713687 
L 352.818164 244.346716 
L 353.128839 244.747048 
L 353.439513 245.347545 
L 354.060861 244.613604 
L 354.371535 244.246633 
L 354.68221 243.212443 
L 354.992884 242.712029 
L 355.303558 240.943897 
L 355.614232 240.00979 
L 355.924906 239.976429 
L 357.167603 243.145721 
L 357.478278 243.612775 
L 357.788952 243.512692 
L 358.099626 243.979745 
L 358.4103 243.846302 
L 358.720974 243.179082 
L 359.031649 243.612775 
L 359.342323 243.646136 
L 359.652997 244.046467 
L 359.963671 246.081486 
L 360.274345 245.914682 
L 360.58502 246.048125 
L 360.895694 246.448457 
L 361.206368 247.082315 
L 361.517042 246.88215 
L 361.827716 247.716174 
L 362.138391 247.115676 
L 362.759739 247.782896 
L 363.070413 247.816257 
L 363.691762 248.717003 
L 364.002436 247.716174 
L 364.31311 247.349203 
L 364.934458 247.015593 
L 365.245133 244.947213 
L 365.866481 239.576098 
L 366.487829 236.707054 
L 367.109178 235.572782 
L 367.419852 239.175766 
L 368.351875 229.701251 
L 368.973223 226.031545 
L 369.283897 225.564491 
L 369.594572 220.460263 
L 369.905246 221.160844 
L 370.21592 222.295116 
L 370.837268 225.831379 
L 371.147943 226.698764 
L 371.769291 226.89893 
L 372.390639 229.767973 
L 372.701314 231.569465 
L 373.633336 233.971455 
L 373.94401 236.273362 
L 374.254685 239.542737 
L 375.186707 243.746219 
L 375.497381 243.77958 
L 375.808056 244.279994 
L 376.11873 248.450115 
L 376.429404 247.882979 
L 377.050753 249.517666 
L 377.361427 249.584388 
L 377.672101 250.184885 
L 377.982775 250.184885 
L 378.293449 247.649452 
L 378.604124 250.051441 
L 378.914798 250.151524 
L 379.225472 250.6853 
L 379.84682 251.185714 
L 380.157495 251.252436 
L 380.468169 250.318329 
L 380.778843 249.817915 
L 381.089517 250.651939 
L 381.400191 250.018081 
L 381.710866 251.01891 
L 382.332214 251.118992 
L 382.642888 252.686958 
L 382.953562 251.652768 
L 383.264237 251.419241 
L 383.885585 249.817915 
L 384.196259 248.95053 
L 384.506933 248.917169 
L 384.817608 246.848789 
L 385.128282 246.715345 
L 385.438956 246.148208 
L 385.74963 246.748706 
L 386.060304 246.315013 
L 386.370979 246.648623 
L 386.681653 246.448457 
L 386.992327 246.515179 
L 387.92435 239.609459 
L 388.235024 238.508547 
L 388.856372 237.541079 
L 389.167047 235.739586 
L 389.477721 238.008132 
L 389.788395 238.908878 
L 390.099069 239.008961 
L 390.720418 238.60863 
L 391.031092 238.27502 
L 391.341766 238.942239 
L 391.65244 238.60863 
L 392.273789 238.875517 
L 393.205811 241.244146 
L 393.516485 245.547711 
L 393.82716 245.480989 
L 394.137834 245.147379 
L 394.448508 247.149037 
L 394.759182 247.482647 
L 395.380531 247.649452 
L 395.691205 244.446799 
L 396.312553 247.315842 
L 396.623227 246.848789 
L 396.933902 248.583559 
L 397.244576 248.249949 
L 397.55525 248.149866 
L 398.487273 254.788699 
L 398.487273 254.788699 
" clip-path="url(#p975214350b)" style="fill: none; stroke: #1f77b4; stroke-width: 1.5; stroke-linecap: square"/>
   </g>
   <g id="patch_3">
    <path d="M 57.6 276.48 
L 57.6 41.472 
" style="fill: none; stroke: #000000; stroke-width: 0.8; stroke-linejoin: miter; stroke-linecap: square"/>
   </g>
   <g id="patch_4">
    <path d="M 414.72 276.48 
L 414.72 41.472 
" style="fill: none; stroke: #000000; stroke-width: 0.8; stroke-linejoin: miter; stroke-linecap: square"/>
   </g>
   <g id="patch_5">
    <path d="M 57.6 276.48 
L 414.72 276.48 
" style="fill: none; stroke: #000000; stroke-width: 0.8; stroke-linejoin: miter; stroke-linecap: square"/>
   </g>
   <g id="patch_6">
    <path d="M 57.6 41.472 
L 414.72 41.472 
" style="fill: none; stroke: #000000; stroke-width: 0.8; stroke-linejoin: miter; stroke-linecap: square"/>
   </g>
  </g>
  <g id="text_20">
   <!-- Inzidenzverlauf LK Cloppenburg -->
   <g transform="translate(87.415312 20.589187) scale(0.18 -0.18)">
    <defs>
     <path id="DejaVuSans-76" d="M 191 3500 
L 800 3500 
L 1894 563 
L 2988 3500 
L 3597 3500 
L 2284 0 
L 1503 0 
L 191 3500 
z
" transform="scale(0.015625)"/>
     <path id="DejaVuSans-6c" d="M 603 4863 
L 1178 4863 
L 1178 0 
L 603 0 
L 603 4863 
z
" transform="scale(0.015625)"/>
     <path id="DejaVuSans-75" d="M 544 1381 
L 544 3500 
L 1119 3500 
L 1119 1403 
Q 1119 906 1312 657 
Q 1506 409 1894 409 
Q 2359 409 2629 706 
Q 2900 1003 2900 1516 
L 2900 3500 
L 3475 3500 
L 3475 0 
L 2900 0 
L 2900 538 
Q 2691 219 2414 64 
Q 2138 -91 1772 -91 
Q 1169 -91 856 284 
Q 544 659 544 1381 
z
M 1991 3584 
L 1991 3584 
z
" transform="scale(0.015625)"/>
     <path id="DejaVuSans-66" d="M 2375 4863 
L 2375 4384 
L 1825 4384 
Q 1516 4384 1395 4259 
Q 1275 4134 1275 3809 
L 1275 3500 
L 2222 3500 
L 2222 3053 
L 1275 3053 
L 1275 0 
L 697 0 
L 697 3053 
L 147 3053 
L 147 3500 
L 697 3500 
L 697 3744 
Q 697 4328 969 4595 
Q 1241 4863 1831 4863 
L 2375 4863 
z
" transform="scale(0.015625)"/>
     <path id="DejaVuSans-4c" d="M 628 4666 
L 1259 4666 
L 1259 531 
L 3531 531 
L 3531 0 
L 628 0 
L 628 4666 
z
" transform="scale(0.015625)"/>
     <path id="DejaVuSans-4b" d="M 628 4666 
L 1259 4666 
L 1259 2694 
L 3353 4666 
L 4166 4666 
L 1850 2491 
L 4331 0 
L 3500 0 
L 1259 2247 
L 1259 0 
L 628 0 
L 628 4666 
z
" transform="scale(0.015625)"/>
     <path id="DejaVuSans-43" d="M 4122 4306 
L 4122 3641 
Q 3803 3938 3442 4084 
Q 3081 4231 2675 4231 
Q 1875 4231 1450 3742 
Q 1025 3253 1025 2328 
Q 1025 1406 1450 917 
Q 1875 428 2675 428 
Q 3081 428 3442 575 
Q 3803 722 4122 1019 
L 4122 359 
Q 3791 134 3420 21 
Q 3050 -91 2638 -91 
Q 1578 -91 968 557 
Q 359 1206 359 2328 
Q 359 3453 968 4101 
Q 1578 4750 2638 4750 
Q 3056 4750 3426 4639 
Q 3797 4528 4122 4306 
z
" transform="scale(0.015625)"/>
     <path id="DejaVuSans-62" d="M 3116 1747 
Q 3116 2381 2855 2742 
Q 2594 3103 2138 3103 
Q 1681 3103 1420 2742 
Q 1159 2381 1159 1747 
Q 1159 1113 1420 752 
Q 1681 391 2138 391 
Q 2594 391 2855 752 
Q 3116 1113 3116 1747 
z
M 1159 2969 
Q 1341 3281 1617 3432 
Q 1894 3584 2278 3584 
Q 2916 3584 3314 3078 
Q 3713 2572 3713 1747 
Q 3713 922 3314 415 
Q 2916 -91 2278 -91 
Q 1894 -91 1617 61 
Q 1341 213 1159 525 
L 1159 0 
L 581 0 
L 581 4863 
L 1159 4863 
L 1159 2969 
z
" transform="scale(0.015625)"/>
    </defs>
    <use xlink:href="#DejaVuSans-49"/>
    <use xlink:href="#DejaVuSans-6e" x="29.492188"/>
    <use xlink:href="#DejaVuSans-7a" x="92.871094"/>
    <use xlink:href="#DejaVuSans-69" x="145.361328"/>
    <use xlink:href="#DejaVuSans-64" x="173.144531"/>
    <use xlink:href="#DejaVuSans-65" x="236.621094"/>
    <use xlink:href="#DejaVuSans-6e" x="298.144531"/>
    <use xlink:href="#DejaVuSans-7a" x="361.523438"/>
    <use xlink:href="#DejaVuSans-76" x="414.013672"/>
    <use xlink:href="#DejaVuSans-65" x="473.193359"/>
    <use xlink:href="#DejaVuSans-72" x="534.716797"/>
    <use xlink:href="#DejaVuSans-6c" x="575.830078"/>
    <use xlink:href="#DejaVuSans-61" x="603.613281"/>
    <use xlink:href="#DejaVuSans-75" x="664.892578"/>
    <use xlink:href="#DejaVuSans-66" x="728.271484"/>
    <use xlink:href="#DejaVuSans-20" x="763.476562"/>
    <use xlink:href="#DejaVuSans-4c" x="795.263672"/>
    <use xlink:href="#DejaVuSans-4b" x="850.976562"/>
    <use xlink:href="#DejaVuSans-20" x="916.552734"/>
    <use xlink:href="#DejaVuSans-43" x="948.339844"/>
    <use xlink:href="#DejaVuSans-6c" x="1018.164062"/>
    <use xlink:href="#DejaVuSans-6f" x="1045.947266"/>
    <use xlink:href="#DejaVuSans-70" x="1107.128906"/>
    <use xlink:href="#DejaVuSans-70" x="1170.605469"/>
    <use xlink:href="#DejaVuSans-65" x="1234.082031"/>
    <use xlink:href="#DejaVuSans-6e" x="1295.605469"/>
    <use xlink:href="#DejaVuSans-62" x="1358.984375"/>
    <use xlink:href="#DejaVuSans-75" x="1422.460938"/>
    <use xlink:href="#DejaVuSans-72" x="1485.839844"/>
    <use xlink:href="#DejaVuSans-67" x="1525.203125"/>
   </g>
  </g>
 </g>
 <defs>
  <clipPath id="p975214350b">
   <rect x="57.6" y="41.472" width="357.12" height="235.008"/>
  </clipPath>
 </defs>
</svg>
