<?xml version="1.0" encoding="utf-8" standalone="no"?>
<!DOCTYPE svg PUBLIC "-//W3C//DTD SVG 1.1//EN"
  "http://www.w3.org/Graphics/SVG/1.1/DTD/svg11.dtd">
<svg xmlns:xlink="http://www.w3.org/1999/xlink" width="460.8pt" height="345.6pt" viewBox="0 0 460.8 345.6" xmlns="http://www.w3.org/2000/svg" version="1.1">
 <metadata>
  <rdf:RDF xmlns:dc="http://purl.org/dc/elements/1.1/" xmlns:cc="http://creativecommons.org/ns#" xmlns:rdf="http://www.w3.org/1999/02/22-rdf-syntax-ns#">
   <cc:Work>
    <dc:type rdf:resource="http://purl.org/dc/dcmitype/StillImage"/>
    <dc:date>2022-02-27T09:19:10.477993</dc:date>
    <dc:format>image/svg+xml</dc:format>
    <dc:creator>
     <cc:Agent>
      <dc:title>Matplotlib v3.5.1, https://matplotlib.org/</dc:title>
     </cc:Agent>
    </dc:creator>
   </cc:Work>
  </rdf:RDF>
 </metadata>
 <defs>
  <style type="text/css">*{stroke-linejoin: round; stroke-linecap: butt}</style>
 </defs>
 <g id="figure_1">
  <g id="patch_1">
   <path d="M 0 345.6 
L 460.8 345.6 
L 460.8 0 
L 0 0 
z
" style="fill: #ffffff"/>
  </g>
  <g id="axes_1">
   <g id="patch_2">
    <path d="M 57.6 276.48 
L 414.72 276.48 
L 414.72 41.472 
L 57.6 41.472 
z
" style="fill: #ffffff"/>
   </g>
   <g id="matplotlib.axis_1">
    <g id="xtick_1">
     <g id="line2d_1">
      <path d="M 93.192006 276.48 
L 93.192006 41.472 
" clip-path="url(#p57775c3e72)" style="fill: none; stroke-dasharray: 2.96,1.28; stroke-dashoffset: 0; stroke: #808080; stroke-width: 0.8"/>
     </g>
     <g id="line2d_2">
      <defs>
       <path id="mcf55e5b422" d="M 0 0 
L 0 3.5 
" style="stroke: #000000; stroke-width: 0.8"/>
      </defs>
      <g>
       <use xlink:href="#mcf55e5b422" x="93.192006" y="276.48" style="stroke: #000000; stroke-width: 0.8"/>
      </g>
     </g>
     <g id="text_1">
      <!-- 15.04.2020 -->
      <g transform="translate(42.566795 318.688565)rotate(-30)scale(0.1 -0.1)">
       <defs>
        <path id="DejaVuSans-31" d="M 794 531 
L 1825 531 
L 1825 4091 
L 703 3866 
L 703 4441 
L 1819 4666 
L 2450 4666 
L 2450 531 
L 3481 531 
L 3481 0 
L 794 0 
L 794 531 
z
" transform="scale(0.015625)"/>
        <path id="DejaVuSans-35" d="M 691 4666 
L 3169 4666 
L 3169 4134 
L 1269 4134 
L 1269 2991 
Q 1406 3038 1543 3061 
Q 1681 3084 1819 3084 
Q 2600 3084 3056 2656 
Q 3513 2228 3513 1497 
Q 3513 744 3044 326 
Q 2575 -91 1722 -91 
Q 1428 -91 1123 -41 
Q 819 9 494 109 
L 494 744 
Q 775 591 1075 516 
Q 1375 441 1709 441 
Q 2250 441 2565 725 
Q 2881 1009 2881 1497 
Q 2881 1984 2565 2268 
Q 2250 2553 1709 2553 
Q 1456 2553 1204 2497 
Q 953 2441 691 2322 
L 691 4666 
z
" transform="scale(0.015625)"/>
        <path id="DejaVuSans-2e" d="M 684 794 
L 1344 794 
L 1344 0 
L 684 0 
L 684 794 
z
" transform="scale(0.015625)"/>
        <path id="DejaVuSans-30" d="M 2034 4250 
Q 1547 4250 1301 3770 
Q 1056 3291 1056 2328 
Q 1056 1369 1301 889 
Q 1547 409 2034 409 
Q 2525 409 2770 889 
Q 3016 1369 3016 2328 
Q 3016 3291 2770 3770 
Q 2525 4250 2034 4250 
z
M 2034 4750 
Q 2819 4750 3233 4129 
Q 3647 3509 3647 2328 
Q 3647 1150 3233 529 
Q 2819 -91 2034 -91 
Q 1250 -91 836 529 
Q 422 1150 422 2328 
Q 422 3509 836 4129 
Q 1250 4750 2034 4750 
z
" transform="scale(0.015625)"/>
        <path id="DejaVuSans-34" d="M 2419 4116 
L 825 1625 
L 2419 1625 
L 2419 4116 
z
M 2253 4666 
L 3047 4666 
L 3047 1625 
L 3713 1625 
L 3713 1100 
L 3047 1100 
L 3047 0 
L 2419 0 
L 2419 1100 
L 313 1100 
L 313 1709 
L 2253 4666 
z
" transform="scale(0.015625)"/>
        <path id="DejaVuSans-32" d="M 1228 531 
L 3431 531 
L 3431 0 
L 469 0 
L 469 531 
Q 828 903 1448 1529 
Q 2069 2156 2228 2338 
Q 2531 2678 2651 2914 
Q 2772 3150 2772 3378 
Q 2772 3750 2511 3984 
Q 2250 4219 1831 4219 
Q 1534 4219 1204 4116 
Q 875 4013 500 3803 
L 500 4441 
Q 881 4594 1212 4672 
Q 1544 4750 1819 4750 
Q 2544 4750 2975 4387 
Q 3406 4025 3406 3419 
Q 3406 3131 3298 2873 
Q 3191 2616 2906 2266 
Q 2828 2175 2409 1742 
Q 1991 1309 1228 531 
z
" transform="scale(0.015625)"/>
       </defs>
       <use xlink:href="#DejaVuSans-31"/>
       <use xlink:href="#DejaVuSans-35" x="63.623047"/>
       <use xlink:href="#DejaVuSans-2e" x="127.246094"/>
       <use xlink:href="#DejaVuSans-30" x="159.033203"/>
       <use xlink:href="#DejaVuSans-34" x="222.65625"/>
       <use xlink:href="#DejaVuSans-2e" x="286.279297"/>
       <use xlink:href="#DejaVuSans-32" x="318.066406"/>
       <use xlink:href="#DejaVuSans-30" x="381.689453"/>
       <use xlink:href="#DejaVuSans-32" x="445.3125"/>
       <use xlink:href="#DejaVuSans-30" x="508.935547"/>
      </g>
     </g>
    </g>
    <g id="xtick_2">
     <g id="line2d_3">
      <path d="M 128.966612 276.48 
L 128.966612 41.472 
" clip-path="url(#p57775c3e72)" style="fill: none; stroke-dasharray: 2.96,1.28; stroke-dashoffset: 0; stroke: #808080; stroke-width: 0.8"/>
     </g>
     <g id="line2d_4">
      <g>
       <use xlink:href="#mcf55e5b422" x="128.966612" y="276.48" style="stroke: #000000; stroke-width: 0.8"/>
      </g>
     </g>
     <g id="text_2">
      <!-- 04.07.2020 -->
      <g transform="translate(78.341401 318.688565)rotate(-30)scale(0.1 -0.1)">
       <defs>
        <path id="DejaVuSans-37" d="M 525 4666 
L 3525 4666 
L 3525 4397 
L 1831 0 
L 1172 0 
L 2766 4134 
L 525 4134 
L 525 4666 
z
" transform="scale(0.015625)"/>
       </defs>
       <use xlink:href="#DejaVuSans-30"/>
       <use xlink:href="#DejaVuSans-34" x="63.623047"/>
       <use xlink:href="#DejaVuSans-2e" x="127.246094"/>
       <use xlink:href="#DejaVuSans-30" x="159.033203"/>
       <use xlink:href="#DejaVuSans-37" x="222.65625"/>
       <use xlink:href="#DejaVuSans-2e" x="286.279297"/>
       <use xlink:href="#DejaVuSans-32" x="318.066406"/>
       <use xlink:href="#DejaVuSans-30" x="381.689453"/>
       <use xlink:href="#DejaVuSans-32" x="445.3125"/>
       <use xlink:href="#DejaVuSans-30" x="508.935547"/>
      </g>
     </g>
    </g>
    <g id="xtick_3">
     <g id="line2d_5">
      <path d="M 164.741217 276.48 
L 164.741217 41.472 
" clip-path="url(#p57775c3e72)" style="fill: none; stroke-dasharray: 2.96,1.28; stroke-dashoffset: 0; stroke: #808080; stroke-width: 0.8"/>
     </g>
     <g id="line2d_6">
      <g>
       <use xlink:href="#mcf55e5b422" x="164.741217" y="276.48" style="stroke: #000000; stroke-width: 0.8"/>
      </g>
     </g>
     <g id="text_3">
      <!-- 22.09.2020 -->
      <g transform="translate(114.116006 318.688565)rotate(-30)scale(0.1 -0.1)">
       <defs>
        <path id="DejaVuSans-39" d="M 703 97 
L 703 672 
Q 941 559 1184 500 
Q 1428 441 1663 441 
Q 2288 441 2617 861 
Q 2947 1281 2994 2138 
Q 2813 1869 2534 1725 
Q 2256 1581 1919 1581 
Q 1219 1581 811 2004 
Q 403 2428 403 3163 
Q 403 3881 828 4315 
Q 1253 4750 1959 4750 
Q 2769 4750 3195 4129 
Q 3622 3509 3622 2328 
Q 3622 1225 3098 567 
Q 2575 -91 1691 -91 
Q 1453 -91 1209 -44 
Q 966 3 703 97 
z
M 1959 2075 
Q 2384 2075 2632 2365 
Q 2881 2656 2881 3163 
Q 2881 3666 2632 3958 
Q 2384 4250 1959 4250 
Q 1534 4250 1286 3958 
Q 1038 3666 1038 3163 
Q 1038 2656 1286 2365 
Q 1534 2075 1959 2075 
z
" transform="scale(0.015625)"/>
       </defs>
       <use xlink:href="#DejaVuSans-32"/>
       <use xlink:href="#DejaVuSans-32" x="63.623047"/>
       <use xlink:href="#DejaVuSans-2e" x="127.246094"/>
       <use xlink:href="#DejaVuSans-30" x="159.033203"/>
       <use xlink:href="#DejaVuSans-39" x="222.65625"/>
       <use xlink:href="#DejaVuSans-2e" x="286.279297"/>
       <use xlink:href="#DejaVuSans-32" x="318.066406"/>
       <use xlink:href="#DejaVuSans-30" x="381.689453"/>
       <use xlink:href="#DejaVuSans-32" x="445.3125"/>
       <use xlink:href="#DejaVuSans-30" x="508.935547"/>
      </g>
     </g>
    </g>
    <g id="xtick_4">
     <g id="line2d_7">
      <path d="M 200.515823 276.48 
L 200.515823 41.472 
" clip-path="url(#p57775c3e72)" style="fill: none; stroke-dasharray: 2.96,1.28; stroke-dashoffset: 0; stroke: #808080; stroke-width: 0.8"/>
     </g>
     <g id="line2d_8">
      <g>
       <use xlink:href="#mcf55e5b422" x="200.515823" y="276.48" style="stroke: #000000; stroke-width: 0.8"/>
      </g>
     </g>
     <g id="text_4">
      <!-- 11.12.2020 -->
      <g transform="translate(149.890612 318.688565)rotate(-30)scale(0.1 -0.1)">
       <use xlink:href="#DejaVuSans-31"/>
       <use xlink:href="#DejaVuSans-31" x="63.623047"/>
       <use xlink:href="#DejaVuSans-2e" x="127.246094"/>
       <use xlink:href="#DejaVuSans-31" x="159.033203"/>
       <use xlink:href="#DejaVuSans-32" x="222.65625"/>
       <use xlink:href="#DejaVuSans-2e" x="286.279297"/>
       <use xlink:href="#DejaVuSans-32" x="318.066406"/>
       <use xlink:href="#DejaVuSans-30" x="381.689453"/>
       <use xlink:href="#DejaVuSans-32" x="445.3125"/>
       <use xlink:href="#DejaVuSans-30" x="508.935547"/>
      </g>
     </g>
    </g>
    <g id="xtick_5">
     <g id="line2d_9">
      <path d="M 236.290428 276.48 
L 236.290428 41.472 
" clip-path="url(#p57775c3e72)" style="fill: none; stroke-dasharray: 2.96,1.28; stroke-dashoffset: 0; stroke: #808080; stroke-width: 0.8"/>
     </g>
     <g id="line2d_10">
      <g>
       <use xlink:href="#mcf55e5b422" x="236.290428" y="276.48" style="stroke: #000000; stroke-width: 0.8"/>
      </g>
     </g>
     <g id="text_5">
      <!-- 01.03.2021 -->
      <g transform="translate(185.665217 318.688565)rotate(-30)scale(0.1 -0.1)">
       <defs>
        <path id="DejaVuSans-33" d="M 2597 2516 
Q 3050 2419 3304 2112 
Q 3559 1806 3559 1356 
Q 3559 666 3084 287 
Q 2609 -91 1734 -91 
Q 1441 -91 1130 -33 
Q 819 25 488 141 
L 488 750 
Q 750 597 1062 519 
Q 1375 441 1716 441 
Q 2309 441 2620 675 
Q 2931 909 2931 1356 
Q 2931 1769 2642 2001 
Q 2353 2234 1838 2234 
L 1294 2234 
L 1294 2753 
L 1863 2753 
Q 2328 2753 2575 2939 
Q 2822 3125 2822 3475 
Q 2822 3834 2567 4026 
Q 2313 4219 1838 4219 
Q 1578 4219 1281 4162 
Q 984 4106 628 3988 
L 628 4550 
Q 988 4650 1302 4700 
Q 1616 4750 1894 4750 
Q 2613 4750 3031 4423 
Q 3450 4097 3450 3541 
Q 3450 3153 3228 2886 
Q 3006 2619 2597 2516 
z
" transform="scale(0.015625)"/>
       </defs>
       <use xlink:href="#DejaVuSans-30"/>
       <use xlink:href="#DejaVuSans-31" x="63.623047"/>
       <use xlink:href="#DejaVuSans-2e" x="127.246094"/>
       <use xlink:href="#DejaVuSans-30" x="159.033203"/>
       <use xlink:href="#DejaVuSans-33" x="222.65625"/>
       <use xlink:href="#DejaVuSans-2e" x="286.279297"/>
       <use xlink:href="#DejaVuSans-32" x="318.066406"/>
       <use xlink:href="#DejaVuSans-30" x="381.689453"/>
       <use xlink:href="#DejaVuSans-32" x="445.3125"/>
       <use xlink:href="#DejaVuSans-31" x="508.935547"/>
      </g>
     </g>
    </g>
    <g id="xtick_6">
     <g id="line2d_11">
      <path d="M 272.065034 276.48 
L 272.065034 41.472 
" clip-path="url(#p57775c3e72)" style="fill: none; stroke-dasharray: 2.96,1.28; stroke-dashoffset: 0; stroke: #808080; stroke-width: 0.8"/>
     </g>
     <g id="line2d_12">
      <g>
       <use xlink:href="#mcf55e5b422" x="272.065034" y="276.48" style="stroke: #000000; stroke-width: 0.8"/>
      </g>
     </g>
     <g id="text_6">
      <!-- 20.05.2021 -->
      <g transform="translate(221.439823 318.688565)rotate(-30)scale(0.1 -0.1)">
       <use xlink:href="#DejaVuSans-32"/>
       <use xlink:href="#DejaVuSans-30" x="63.623047"/>
       <use xlink:href="#DejaVuSans-2e" x="127.246094"/>
       <use xlink:href="#DejaVuSans-30" x="159.033203"/>
       <use xlink:href="#DejaVuSans-35" x="222.65625"/>
       <use xlink:href="#DejaVuSans-2e" x="286.279297"/>
       <use xlink:href="#DejaVuSans-32" x="318.066406"/>
       <use xlink:href="#DejaVuSans-30" x="381.689453"/>
       <use xlink:href="#DejaVuSans-32" x="445.3125"/>
       <use xlink:href="#DejaVuSans-31" x="508.935547"/>
      </g>
     </g>
    </g>
    <g id="xtick_7">
     <g id="line2d_13">
      <path d="M 307.839639 276.48 
L 307.839639 41.472 
" clip-path="url(#p57775c3e72)" style="fill: none; stroke-dasharray: 2.96,1.28; stroke-dashoffset: 0; stroke: #808080; stroke-width: 0.8"/>
     </g>
     <g id="line2d_14">
      <g>
       <use xlink:href="#mcf55e5b422" x="307.839639" y="276.48" style="stroke: #000000; stroke-width: 0.8"/>
      </g>
     </g>
     <g id="text_7">
      <!-- 08.08.2021 -->
      <g transform="translate(257.214429 318.688565)rotate(-30)scale(0.1 -0.1)">
       <defs>
        <path id="DejaVuSans-38" d="M 2034 2216 
Q 1584 2216 1326 1975 
Q 1069 1734 1069 1313 
Q 1069 891 1326 650 
Q 1584 409 2034 409 
Q 2484 409 2743 651 
Q 3003 894 3003 1313 
Q 3003 1734 2745 1975 
Q 2488 2216 2034 2216 
z
M 1403 2484 
Q 997 2584 770 2862 
Q 544 3141 544 3541 
Q 544 4100 942 4425 
Q 1341 4750 2034 4750 
Q 2731 4750 3128 4425 
Q 3525 4100 3525 3541 
Q 3525 3141 3298 2862 
Q 3072 2584 2669 2484 
Q 3125 2378 3379 2068 
Q 3634 1759 3634 1313 
Q 3634 634 3220 271 
Q 2806 -91 2034 -91 
Q 1263 -91 848 271 
Q 434 634 434 1313 
Q 434 1759 690 2068 
Q 947 2378 1403 2484 
z
M 1172 3481 
Q 1172 3119 1398 2916 
Q 1625 2713 2034 2713 
Q 2441 2713 2670 2916 
Q 2900 3119 2900 3481 
Q 2900 3844 2670 4047 
Q 2441 4250 2034 4250 
Q 1625 4250 1398 4047 
Q 1172 3844 1172 3481 
z
" transform="scale(0.015625)"/>
       </defs>
       <use xlink:href="#DejaVuSans-30"/>
       <use xlink:href="#DejaVuSans-38" x="63.623047"/>
       <use xlink:href="#DejaVuSans-2e" x="127.246094"/>
       <use xlink:href="#DejaVuSans-30" x="159.033203"/>
       <use xlink:href="#DejaVuSans-38" x="222.65625"/>
       <use xlink:href="#DejaVuSans-2e" x="286.279297"/>
       <use xlink:href="#DejaVuSans-32" x="318.066406"/>
       <use xlink:href="#DejaVuSans-30" x="381.689453"/>
       <use xlink:href="#DejaVuSans-32" x="445.3125"/>
       <use xlink:href="#DejaVuSans-31" x="508.935547"/>
      </g>
     </g>
    </g>
    <g id="xtick_8">
     <g id="line2d_15">
      <path d="M 343.614245 276.48 
L 343.614245 41.472 
" clip-path="url(#p57775c3e72)" style="fill: none; stroke-dasharray: 2.96,1.28; stroke-dashoffset: 0; stroke: #808080; stroke-width: 0.8"/>
     </g>
     <g id="line2d_16">
      <g>
       <use xlink:href="#mcf55e5b422" x="343.614245" y="276.48" style="stroke: #000000; stroke-width: 0.8"/>
      </g>
     </g>
     <g id="text_8">
      <!-- 27.10.2021 -->
      <g transform="translate(292.989034 318.688565)rotate(-30)scale(0.1 -0.1)">
       <use xlink:href="#DejaVuSans-32"/>
       <use xlink:href="#DejaVuSans-37" x="63.623047"/>
       <use xlink:href="#DejaVuSans-2e" x="127.246094"/>
       <use xlink:href="#DejaVuSans-31" x="159.033203"/>
       <use xlink:href="#DejaVuSans-30" x="222.65625"/>
       <use xlink:href="#DejaVuSans-2e" x="286.279297"/>
       <use xlink:href="#DejaVuSans-32" x="318.066406"/>
       <use xlink:href="#DejaVuSans-30" x="381.689453"/>
       <use xlink:href="#DejaVuSans-32" x="445.3125"/>
       <use xlink:href="#DejaVuSans-31" x="508.935547"/>
      </g>
     </g>
    </g>
    <g id="xtick_9">
     <g id="line2d_17">
      <path d="M 379.38885 276.48 
L 379.38885 41.472 
" clip-path="url(#p57775c3e72)" style="fill: none; stroke-dasharray: 2.96,1.28; stroke-dashoffset: 0; stroke: #808080; stroke-width: 0.8"/>
     </g>
     <g id="line2d_18">
      <g>
       <use xlink:href="#mcf55e5b422" x="379.38885" y="276.48" style="stroke: #000000; stroke-width: 0.8"/>
      </g>
     </g>
     <g id="text_9">
      <!-- 15.01.2022 -->
      <g transform="translate(328.76364 318.688565)rotate(-30)scale(0.1 -0.1)">
       <use xlink:href="#DejaVuSans-31"/>
       <use xlink:href="#DejaVuSans-35" x="63.623047"/>
       <use xlink:href="#DejaVuSans-2e" x="127.246094"/>
       <use xlink:href="#DejaVuSans-30" x="159.033203"/>
       <use xlink:href="#DejaVuSans-31" x="222.65625"/>
       <use xlink:href="#DejaVuSans-2e" x="286.279297"/>
       <use xlink:href="#DejaVuSans-32" x="318.066406"/>
       <use xlink:href="#DejaVuSans-30" x="381.689453"/>
       <use xlink:href="#DejaVuSans-32" x="445.3125"/>
       <use xlink:href="#DejaVuSans-32" x="508.935547"/>
      </g>
     </g>
    </g>
   </g>
   <g id="matplotlib.axis_2">
    <g id="ytick_1">
     <g id="line2d_19">
      <path d="M 57.6 265.797818 
L 414.72 265.797818 
" clip-path="url(#p57775c3e72)" style="fill: none; stroke-dasharray: 2.96,1.28; stroke-dashoffset: 0; stroke: #808080; stroke-width: 0.8"/>
     </g>
     <g id="line2d_20">
      <defs>
       <path id="mc60edcca38" d="M 0 0 
L -3.5 0 
" style="stroke: #000000; stroke-width: 0.8"/>
      </defs>
      <g>
       <use xlink:href="#mc60edcca38" x="57.6" y="265.797818" style="stroke: #000000; stroke-width: 0.8"/>
      </g>
     </g>
     <g id="text_10">
      <!-- 0 -->
      <g transform="translate(44.2375 269.597037)scale(0.1 -0.1)">
       <use xlink:href="#DejaVuSans-30"/>
      </g>
     </g>
    </g>
    <g id="ytick_2">
     <g id="line2d_21">
      <path d="M 57.6 237.408183 
L 414.72 237.408183 
" clip-path="url(#p57775c3e72)" style="fill: none; stroke-dasharray: 2.96,1.28; stroke-dashoffset: 0; stroke: #808080; stroke-width: 0.8"/>
     </g>
     <g id="line2d_22">
      <g>
       <use xlink:href="#mc60edcca38" x="57.6" y="237.408183" style="stroke: #000000; stroke-width: 0.8"/>
      </g>
     </g>
     <g id="text_11">
      <!-- 200 -->
      <g transform="translate(31.5125 241.207401)scale(0.1 -0.1)">
       <use xlink:href="#DejaVuSans-32"/>
       <use xlink:href="#DejaVuSans-30" x="63.623047"/>
       <use xlink:href="#DejaVuSans-30" x="127.246094"/>
      </g>
     </g>
    </g>
    <g id="ytick_3">
     <g id="line2d_23">
      <path d="M 57.6 209.018547 
L 414.72 209.018547 
" clip-path="url(#p57775c3e72)" style="fill: none; stroke-dasharray: 2.96,1.28; stroke-dashoffset: 0; stroke: #808080; stroke-width: 0.8"/>
     </g>
     <g id="line2d_24">
      <g>
       <use xlink:href="#mc60edcca38" x="57.6" y="209.018547" style="stroke: #000000; stroke-width: 0.8"/>
      </g>
     </g>
     <g id="text_12">
      <!-- 400 -->
      <g transform="translate(31.5125 212.817766)scale(0.1 -0.1)">
       <use xlink:href="#DejaVuSans-34"/>
       <use xlink:href="#DejaVuSans-30" x="63.623047"/>
       <use xlink:href="#DejaVuSans-30" x="127.246094"/>
      </g>
     </g>
    </g>
    <g id="ytick_4">
     <g id="line2d_25">
      <path d="M 57.6 180.628911 
L 414.72 180.628911 
" clip-path="url(#p57775c3e72)" style="fill: none; stroke-dasharray: 2.96,1.28; stroke-dashoffset: 0; stroke: #808080; stroke-width: 0.8"/>
     </g>
     <g id="line2d_26">
      <g>
       <use xlink:href="#mc60edcca38" x="57.6" y="180.628911" style="stroke: #000000; stroke-width: 0.8"/>
      </g>
     </g>
     <g id="text_13">
      <!-- 600 -->
      <g transform="translate(31.5125 184.42813)scale(0.1 -0.1)">
       <defs>
        <path id="DejaVuSans-36" d="M 2113 2584 
Q 1688 2584 1439 2293 
Q 1191 2003 1191 1497 
Q 1191 994 1439 701 
Q 1688 409 2113 409 
Q 2538 409 2786 701 
Q 3034 994 3034 1497 
Q 3034 2003 2786 2293 
Q 2538 2584 2113 2584 
z
M 3366 4563 
L 3366 3988 
Q 3128 4100 2886 4159 
Q 2644 4219 2406 4219 
Q 1781 4219 1451 3797 
Q 1122 3375 1075 2522 
Q 1259 2794 1537 2939 
Q 1816 3084 2150 3084 
Q 2853 3084 3261 2657 
Q 3669 2231 3669 1497 
Q 3669 778 3244 343 
Q 2819 -91 2113 -91 
Q 1303 -91 875 529 
Q 447 1150 447 2328 
Q 447 3434 972 4092 
Q 1497 4750 2381 4750 
Q 2619 4750 2861 4703 
Q 3103 4656 3366 4563 
z
" transform="scale(0.015625)"/>
       </defs>
       <use xlink:href="#DejaVuSans-36"/>
       <use xlink:href="#DejaVuSans-30" x="63.623047"/>
       <use xlink:href="#DejaVuSans-30" x="127.246094"/>
      </g>
     </g>
    </g>
    <g id="ytick_5">
     <g id="line2d_27">
      <path d="M 57.6 152.239276 
L 414.72 152.239276 
" clip-path="url(#p57775c3e72)" style="fill: none; stroke-dasharray: 2.96,1.28; stroke-dashoffset: 0; stroke: #808080; stroke-width: 0.8"/>
     </g>
     <g id="line2d_28">
      <g>
       <use xlink:href="#mc60edcca38" x="57.6" y="152.239276" style="stroke: #000000; stroke-width: 0.8"/>
      </g>
     </g>
     <g id="text_14">
      <!-- 800 -->
      <g transform="translate(31.5125 156.038494)scale(0.1 -0.1)">
       <use xlink:href="#DejaVuSans-38"/>
       <use xlink:href="#DejaVuSans-30" x="63.623047"/>
       <use xlink:href="#DejaVuSans-30" x="127.246094"/>
      </g>
     </g>
    </g>
    <g id="ytick_6">
     <g id="line2d_29">
      <path d="M 57.6 123.84964 
L 414.72 123.84964 
" clip-path="url(#p57775c3e72)" style="fill: none; stroke-dasharray: 2.96,1.28; stroke-dashoffset: 0; stroke: #808080; stroke-width: 0.8"/>
     </g>
     <g id="line2d_30">
      <g>
       <use xlink:href="#mc60edcca38" x="57.6" y="123.84964" style="stroke: #000000; stroke-width: 0.8"/>
      </g>
     </g>
     <g id="text_15">
      <!-- 1000 -->
      <g transform="translate(25.15 127.648859)scale(0.1 -0.1)">
       <use xlink:href="#DejaVuSans-31"/>
       <use xlink:href="#DejaVuSans-30" x="63.623047"/>
       <use xlink:href="#DejaVuSans-30" x="127.246094"/>
       <use xlink:href="#DejaVuSans-30" x="190.869141"/>
      </g>
     </g>
    </g>
    <g id="ytick_7">
     <g id="line2d_31">
      <path d="M 57.6 95.460004 
L 414.72 95.460004 
" clip-path="url(#p57775c3e72)" style="fill: none; stroke-dasharray: 2.96,1.28; stroke-dashoffset: 0; stroke: #808080; stroke-width: 0.8"/>
     </g>
     <g id="line2d_32">
      <g>
       <use xlink:href="#mc60edcca38" x="57.6" y="95.460004" style="stroke: #000000; stroke-width: 0.8"/>
      </g>
     </g>
     <g id="text_16">
      <!-- 1200 -->
      <g transform="translate(25.15 99.259223)scale(0.1 -0.1)">
       <use xlink:href="#DejaVuSans-31"/>
       <use xlink:href="#DejaVuSans-32" x="63.623047"/>
       <use xlink:href="#DejaVuSans-30" x="127.246094"/>
       <use xlink:href="#DejaVuSans-30" x="190.869141"/>
      </g>
     </g>
    </g>
    <g id="ytick_8">
     <g id="line2d_33">
      <path d="M 57.6 67.070369 
L 414.72 67.070369 
" clip-path="url(#p57775c3e72)" style="fill: none; stroke-dasharray: 2.96,1.28; stroke-dashoffset: 0; stroke: #808080; stroke-width: 0.8"/>
     </g>
     <g id="line2d_34">
      <g>
       <use xlink:href="#mc60edcca38" x="57.6" y="67.070369" style="stroke: #000000; stroke-width: 0.8"/>
      </g>
     </g>
     <g id="text_17">
      <!-- 1400 -->
      <g transform="translate(25.15 70.869587)scale(0.1 -0.1)">
       <use xlink:href="#DejaVuSans-31"/>
       <use xlink:href="#DejaVuSans-34" x="63.623047"/>
       <use xlink:href="#DejaVuSans-30" x="127.246094"/>
       <use xlink:href="#DejaVuSans-30" x="190.869141"/>
      </g>
     </g>
    </g>
    <g id="text_18">
     <!-- Inzidenz pro 7 Tage pro 100.000 Einwohner -->
     <g transform="translate(19.070312 267.301)rotate(-90)scale(0.1 -0.1)">
      <defs>
       <path id="DejaVuSans-49" d="M 628 4666 
L 1259 4666 
L 1259 0 
L 628 0 
L 628 4666 
z
" transform="scale(0.015625)"/>
       <path id="DejaVuSans-6e" d="M 3513 2113 
L 3513 0 
L 2938 0 
L 2938 2094 
Q 2938 2591 2744 2837 
Q 2550 3084 2163 3084 
Q 1697 3084 1428 2787 
Q 1159 2491 1159 1978 
L 1159 0 
L 581 0 
L 581 3500 
L 1159 3500 
L 1159 2956 
Q 1366 3272 1645 3428 
Q 1925 3584 2291 3584 
Q 2894 3584 3203 3211 
Q 3513 2838 3513 2113 
z
" transform="scale(0.015625)"/>
       <path id="DejaVuSans-7a" d="M 353 3500 
L 3084 3500 
L 3084 2975 
L 922 459 
L 3084 459 
L 3084 0 
L 275 0 
L 275 525 
L 2438 3041 
L 353 3041 
L 353 3500 
z
" transform="scale(0.015625)"/>
       <path id="DejaVuSans-69" d="M 603 3500 
L 1178 3500 
L 1178 0 
L 603 0 
L 603 3500 
z
M 603 4863 
L 1178 4863 
L 1178 4134 
L 603 4134 
L 603 4863 
z
" transform="scale(0.015625)"/>
       <path id="DejaVuSans-64" d="M 2906 2969 
L 2906 4863 
L 3481 4863 
L 3481 0 
L 2906 0 
L 2906 525 
Q 2725 213 2448 61 
Q 2172 -91 1784 -91 
Q 1150 -91 751 415 
Q 353 922 353 1747 
Q 353 2572 751 3078 
Q 1150 3584 1784 3584 
Q 2172 3584 2448 3432 
Q 2725 3281 2906 2969 
z
M 947 1747 
Q 947 1113 1208 752 
Q 1469 391 1925 391 
Q 2381 391 2643 752 
Q 2906 1113 2906 1747 
Q 2906 2381 2643 2742 
Q 2381 3103 1925 3103 
Q 1469 3103 1208 2742 
Q 947 2381 947 1747 
z
" transform="scale(0.015625)"/>
       <path id="DejaVuSans-65" d="M 3597 1894 
L 3597 1613 
L 953 1613 
Q 991 1019 1311 708 
Q 1631 397 2203 397 
Q 2534 397 2845 478 
Q 3156 559 3463 722 
L 3463 178 
Q 3153 47 2828 -22 
Q 2503 -91 2169 -91 
Q 1331 -91 842 396 
Q 353 884 353 1716 
Q 353 2575 817 3079 
Q 1281 3584 2069 3584 
Q 2775 3584 3186 3129 
Q 3597 2675 3597 1894 
z
M 3022 2063 
Q 3016 2534 2758 2815 
Q 2500 3097 2075 3097 
Q 1594 3097 1305 2825 
Q 1016 2553 972 2059 
L 3022 2063 
z
" transform="scale(0.015625)"/>
       <path id="DejaVuSans-20" transform="scale(0.015625)"/>
       <path id="DejaVuSans-70" d="M 1159 525 
L 1159 -1331 
L 581 -1331 
L 581 3500 
L 1159 3500 
L 1159 2969 
Q 1341 3281 1617 3432 
Q 1894 3584 2278 3584 
Q 2916 3584 3314 3078 
Q 3713 2572 3713 1747 
Q 3713 922 3314 415 
Q 2916 -91 2278 -91 
Q 1894 -91 1617 61 
Q 1341 213 1159 525 
z
M 3116 1747 
Q 3116 2381 2855 2742 
Q 2594 3103 2138 3103 
Q 1681 3103 1420 2742 
Q 1159 2381 1159 1747 
Q 1159 1113 1420 752 
Q 1681 391 2138 391 
Q 2594 391 2855 752 
Q 3116 1113 3116 1747 
z
" transform="scale(0.015625)"/>
       <path id="DejaVuSans-72" d="M 2631 2963 
Q 2534 3019 2420 3045 
Q 2306 3072 2169 3072 
Q 1681 3072 1420 2755 
Q 1159 2438 1159 1844 
L 1159 0 
L 581 0 
L 581 3500 
L 1159 3500 
L 1159 2956 
Q 1341 3275 1631 3429 
Q 1922 3584 2338 3584 
Q 2397 3584 2469 3576 
Q 2541 3569 2628 3553 
L 2631 2963 
z
" transform="scale(0.015625)"/>
       <path id="DejaVuSans-6f" d="M 1959 3097 
Q 1497 3097 1228 2736 
Q 959 2375 959 1747 
Q 959 1119 1226 758 
Q 1494 397 1959 397 
Q 2419 397 2687 759 
Q 2956 1122 2956 1747 
Q 2956 2369 2687 2733 
Q 2419 3097 1959 3097 
z
M 1959 3584 
Q 2709 3584 3137 3096 
Q 3566 2609 3566 1747 
Q 3566 888 3137 398 
Q 2709 -91 1959 -91 
Q 1206 -91 779 398 
Q 353 888 353 1747 
Q 353 2609 779 3096 
Q 1206 3584 1959 3584 
z
" transform="scale(0.015625)"/>
       <path id="DejaVuSans-54" d="M -19 4666 
L 3928 4666 
L 3928 4134 
L 2272 4134 
L 2272 0 
L 1638 0 
L 1638 4134 
L -19 4134 
L -19 4666 
z
" transform="scale(0.015625)"/>
       <path id="DejaVuSans-61" d="M 2194 1759 
Q 1497 1759 1228 1600 
Q 959 1441 959 1056 
Q 959 750 1161 570 
Q 1363 391 1709 391 
Q 2188 391 2477 730 
Q 2766 1069 2766 1631 
L 2766 1759 
L 2194 1759 
z
M 3341 1997 
L 3341 0 
L 2766 0 
L 2766 531 
Q 2569 213 2275 61 
Q 1981 -91 1556 -91 
Q 1019 -91 701 211 
Q 384 513 384 1019 
Q 384 1609 779 1909 
Q 1175 2209 1959 2209 
L 2766 2209 
L 2766 2266 
Q 2766 2663 2505 2880 
Q 2244 3097 1772 3097 
Q 1472 3097 1187 3025 
Q 903 2953 641 2809 
L 641 3341 
Q 956 3463 1253 3523 
Q 1550 3584 1831 3584 
Q 2591 3584 2966 3190 
Q 3341 2797 3341 1997 
z
" transform="scale(0.015625)"/>
       <path id="DejaVuSans-67" d="M 2906 1791 
Q 2906 2416 2648 2759 
Q 2391 3103 1925 3103 
Q 1463 3103 1205 2759 
Q 947 2416 947 1791 
Q 947 1169 1205 825 
Q 1463 481 1925 481 
Q 2391 481 2648 825 
Q 2906 1169 2906 1791 
z
M 3481 434 
Q 3481 -459 3084 -895 
Q 2688 -1331 1869 -1331 
Q 1566 -1331 1297 -1286 
Q 1028 -1241 775 -1147 
L 775 -588 
Q 1028 -725 1275 -790 
Q 1522 -856 1778 -856 
Q 2344 -856 2625 -561 
Q 2906 -266 2906 331 
L 2906 616 
Q 2728 306 2450 153 
Q 2172 0 1784 0 
Q 1141 0 747 490 
Q 353 981 353 1791 
Q 353 2603 747 3093 
Q 1141 3584 1784 3584 
Q 2172 3584 2450 3431 
Q 2728 3278 2906 2969 
L 2906 3500 
L 3481 3500 
L 3481 434 
z
" transform="scale(0.015625)"/>
       <path id="DejaVuSans-45" d="M 628 4666 
L 3578 4666 
L 3578 4134 
L 1259 4134 
L 1259 2753 
L 3481 2753 
L 3481 2222 
L 1259 2222 
L 1259 531 
L 3634 531 
L 3634 0 
L 628 0 
L 628 4666 
z
" transform="scale(0.015625)"/>
       <path id="DejaVuSans-77" d="M 269 3500 
L 844 3500 
L 1563 769 
L 2278 3500 
L 2956 3500 
L 3675 769 
L 4391 3500 
L 4966 3500 
L 4050 0 
L 3372 0 
L 2619 2869 
L 1863 0 
L 1184 0 
L 269 3500 
z
" transform="scale(0.015625)"/>
       <path id="DejaVuSans-68" d="M 3513 2113 
L 3513 0 
L 2938 0 
L 2938 2094 
Q 2938 2591 2744 2837 
Q 2550 3084 2163 3084 
Q 1697 3084 1428 2787 
Q 1159 2491 1159 1978 
L 1159 0 
L 581 0 
L 581 4863 
L 1159 4863 
L 1159 2956 
Q 1366 3272 1645 3428 
Q 1925 3584 2291 3584 
Q 2894 3584 3203 3211 
Q 3513 2838 3513 2113 
z
" transform="scale(0.015625)"/>
      </defs>
      <use xlink:href="#DejaVuSans-49"/>
      <use xlink:href="#DejaVuSans-6e" x="29.492188"/>
      <use xlink:href="#DejaVuSans-7a" x="92.871094"/>
      <use xlink:href="#DejaVuSans-69" x="145.361328"/>
      <use xlink:href="#DejaVuSans-64" x="173.144531"/>
      <use xlink:href="#DejaVuSans-65" x="236.621094"/>
      <use xlink:href="#DejaVuSans-6e" x="298.144531"/>
      <use xlink:href="#DejaVuSans-7a" x="361.523438"/>
      <use xlink:href="#DejaVuSans-20" x="414.013672"/>
      <use xlink:href="#DejaVuSans-70" x="445.800781"/>
      <use xlink:href="#DejaVuSans-72" x="509.277344"/>
      <use xlink:href="#DejaVuSans-6f" x="548.140625"/>
      <use xlink:href="#DejaVuSans-20" x="609.322266"/>
      <use xlink:href="#DejaVuSans-37" x="641.109375"/>
      <use xlink:href="#DejaVuSans-20" x="704.732422"/>
      <use xlink:href="#DejaVuSans-54" x="736.519531"/>
      <use xlink:href="#DejaVuSans-61" x="781.103516"/>
      <use xlink:href="#DejaVuSans-67" x="842.382812"/>
      <use xlink:href="#DejaVuSans-65" x="905.859375"/>
      <use xlink:href="#DejaVuSans-20" x="967.382812"/>
      <use xlink:href="#DejaVuSans-70" x="999.169922"/>
      <use xlink:href="#DejaVuSans-72" x="1062.646484"/>
      <use xlink:href="#DejaVuSans-6f" x="1101.509766"/>
      <use xlink:href="#DejaVuSans-20" x="1162.691406"/>
      <use xlink:href="#DejaVuSans-31" x="1194.478516"/>
      <use xlink:href="#DejaVuSans-30" x="1258.101562"/>
      <use xlink:href="#DejaVuSans-30" x="1321.724609"/>
      <use xlink:href="#DejaVuSans-2e" x="1385.347656"/>
      <use xlink:href="#DejaVuSans-30" x="1417.134766"/>
      <use xlink:href="#DejaVuSans-30" x="1480.757812"/>
      <use xlink:href="#DejaVuSans-30" x="1544.380859"/>
      <use xlink:href="#DejaVuSans-20" x="1608.003906"/>
      <use xlink:href="#DejaVuSans-45" x="1639.791016"/>
      <use xlink:href="#DejaVuSans-69" x="1702.974609"/>
      <use xlink:href="#DejaVuSans-6e" x="1730.757812"/>
      <use xlink:href="#DejaVuSans-77" x="1794.136719"/>
      <use xlink:href="#DejaVuSans-6f" x="1875.923828"/>
      <use xlink:href="#DejaVuSans-68" x="1937.105469"/>
      <use xlink:href="#DejaVuSans-6e" x="2000.484375"/>
      <use xlink:href="#DejaVuSans-65" x="2063.863281"/>
      <use xlink:href="#DejaVuSans-72" x="2125.386719"/>
     </g>
    </g>
   </g>
   <g id="line2d_35">
    <path d="M 73.832727 265.797818 
L 74.27991 265.797818 
L 74.727092 265.154313 
L 76.515823 264.832561 
L 76.963005 264.70386 
L 77.410188 264.382107 
L 77.85737 264.896911 
L 78.304553 264.575159 
L 79.198918 263.674252 
L 79.646101 263.802953 
L 80.093283 263.609901 
L 80.540466 263.030747 
L 80.987648 262.258541 
L 81.434831 261.808088 
L 81.882014 261.164583 
L 82.329196 261.550686 
L 82.776379 261.357634 
L 83.223561 259.362769 
L 83.670744 259.748872 
L 84.117926 259.55582 
L 84.565109 259.105367 
L 85.012292 258.20446 
L 85.459474 258.20446 
L 85.906657 255.051286 
L 86.353839 256.402646 
L 86.801022 255.759141 
L 87.248204 255.501739 
L 87.695387 255.115636 
L 88.142569 256.080894 
L 88.589752 256.016543 
L 89.036935 259.427119 
L 89.484117 259.041016 
L 90.378482 260.199325 
L 90.825665 261.743737 
L 91.272847 262.258541 
L 91.72003 261.550686 
L 92.167213 261.100232 
L 92.614395 262.451593 
L 93.50876 263.4812 
L 93.955943 263.609901 
L 94.403125 263.609901 
L 95.297491 264.317757 
L 95.744673 264.060355 
L 96.639038 264.253406 
L 97.086221 264.060355 
L 97.980586 264.76821 
L 98.427769 264.575159 
L 98.874951 264.639509 
L 99.322134 264.446458 
L 99.769316 264.382107 
L 100.216499 263.867303 
L 100.663681 264.060355 
L 102.005229 262.322892 
L 102.452412 260.585428 
L 102.899594 260.392377 
L 103.346777 256.273945 
L 104.688325 252.605967 
L 105.135507 251.769411 
L 105.58269 252.155514 
L 106.029872 251.64071 
L 106.477055 256.273945 
L 106.924237 257.303553 
L 108.265785 262.194191 
L 109.16015 263.545551 
L 109.607333 262.902046 
L 110.501698 263.41685 
L 110.948881 263.674252 
L 111.396063 263.674252 
L 111.843246 264.510808 
L 112.290428 264.639509 
L 112.737611 265.476066 
L 113.184793 265.411715 
L 116.315071 265.797818 
L 117.209437 265.797818 
L 117.656619 265.669117 
L 118.998167 265.604767 
L 119.892532 265.540416 
L 123.469992 265.540416 
L 123.917175 265.669117 
L 124.81154 265.669117 
L 125.258723 265.797818 
L 127.941818 265.733468 
L 129.283366 265.411715 
L 129.730548 265.411715 
L 130.177731 265.283014 
L 131.072096 265.347365 
L 131.519279 265.347365 
L 131.966461 265.540416 
L 132.860826 265.540416 
L 133.308009 265.669117 
L 134.202374 265.669117 
L 134.649557 265.797818 
L 135.543922 265.733468 
L 139.568565 265.669117 
L 140.015748 265.604767 
L 140.910113 265.283014 
L 141.804478 265.347365 
L 143.146026 265.411715 
L 144.040391 265.733468 
L 144.934756 265.669117 
L 145.381938 265.669117 
L 146.276304 265.347365 
L 146.723486 265.347365 
L 147.170669 265.218664 
L 148.512216 265.218664 
L 149.406582 265.540416 
L 149.853764 265.476066 
L 150.300947 265.604767 
L 151.195312 265.540416 
L 151.642494 265.540416 
L 152.53686 265.347365 
L 152.984042 265.411715 
L 153.878407 265.347365 
L 154.772772 265.347365 
L 155.219955 265.540416 
L 158.350233 265.476066 
L 158.797415 265.154313 
L 159.691781 265.154313 
L 160.138963 265.283014 
L 161.033328 265.283014 
L 161.480511 264.961262 
L 161.927693 265.283014 
L 162.822059 265.218664 
L 163.716424 265.154313 
L 164.163606 265.154313 
L 164.610789 265.347365 
L 165.057971 265.025612 
L 165.505154 264.961262 
L 165.952337 265.025612 
L 166.399519 264.832561 
L 168.635432 264.76821 
L 169.082615 263.609901 
L 169.529797 263.4812 
L 170.424162 263.4812 
L 170.871345 262.387242 
L 171.76571 261.743737 
L 172.660075 261.679387 
L 174.001623 261.743737 
L 174.448805 261.872438 
L 174.895988 261.743737 
L 175.343171 262.515943 
L 175.790353 262.322892 
L 176.684718 262.322892 
L 177.131901 261.164583 
L 177.579083 260.907181 
L 178.026266 259.877573 
L 178.473449 257.947058 
L 178.920631 257.432254 
L 180.262179 257.367904 
L 180.709361 257.239203 
L 181.156544 257.818357 
L 181.603727 256.209595 
L 182.050909 255.244337 
L 182.945274 255.244337 
L 183.392457 253.378173 
L 184.286822 251.383308 
L 185.181187 254.729533 
L 186.075552 254.729533 
L 186.522735 255.308688 
L 186.969917 255.308688 
L 187.4171 256.273945 
L 187.864282 258.397512 
L 188.758648 253.828627 
L 189.20583 253.699926 
L 189.653013 256.273945 
L 190.547378 256.595698 
L 190.99456 255.63044 
L 191.441743 255.244337 
L 191.888926 257.432254 
L 192.336108 257.496605 
L 192.783291 256.724399 
L 193.230473 255.56609 
L 193.677656 254.858234 
L 194.124838 254.472131 
L 194.572021 255.244337 
L 195.019204 254.600832 
L 195.466386 254.665183 
L 195.913569 254.986935 
L 196.360751 256.531347 
L 196.807934 254.922585 
L 197.255116 254.34343 
L 197.702299 255.694791 
L 198.149482 256.402646 
L 198.596664 256.402646 
L 199.043847 255.887842 
L 199.491029 256.080894 
L 199.938212 257.947058 
L 201.27976 255.887842 
L 201.726942 254.858234 
L 202.174125 255.373038 
L 202.621307 253.056421 
L 203.06849 251.512009 
L 203.515672 252.477266 
L 203.962855 252.412916 
L 204.410038 251.318957 
L 204.85722 250.611102 
L 205.304403 248.809288 
L 205.751585 248.101433 
L 206.64595 245.656114 
L 207.093133 247.136175 
L 207.540316 247.586629 
L 207.987498 248.294484 
L 208.434681 251.512009 
L 208.881863 252.477266 
L 209.329046 252.605967 
L 209.776228 251.962462 
L 210.223411 252.477266 
L 210.670594 252.477266 
L 211.117776 253.378173 
L 211.564959 253.056421 
L 212.012141 254.021678 
L 212.906506 257.882708 
L 213.353689 256.338296 
L 213.800872 257.432254 
L 214.248054 255.051286 
L 214.695237 254.986935 
L 215.142419 255.244337 
L 215.589602 255.694791 
L 216.036784 255.759141 
L 216.483967 256.402646 
L 216.93115 255.437389 
L 217.378332 257.818357 
L 217.825515 257.689656 
L 218.272697 258.526212 
L 218.71988 258.719264 
L 219.614245 257.947058 
L 220.061427 258.075759 
L 220.50861 258.075759 
L 220.955793 258.461862 
L 221.402975 258.397512 
L 221.850158 258.654913 
L 222.744523 260.006274 
L 223.191705 260.263676 
L 224.086071 260.521078 
L 224.533253 260.521078 
L 224.980436 260.328026 
L 225.427618 260.714129 
L 225.874801 260.714129 
L 226.321983 260.521078 
L 227.216349 260.456727 
L 227.663531 261.486335 
L 228.110714 262.194191 
L 228.557896 262.322892 
L 229.005079 262.708995 
L 229.452261 262.515943 
L 229.899444 262.001139 
L 230.346627 262.194191 
L 230.793809 261.486335 
L 231.240992 261.486335 
L 232.582539 260.714129 
L 233.029722 261.228933 
L 233.476905 261.100232 
L 233.924087 260.521078 
L 234.37127 260.649779 
L 234.818452 260.971531 
L 235.265635 260.649779 
L 235.712817 261.421985 
L 236.16 261.357634 
L 236.607183 261.486335 
L 237.054365 262.580294 
L 237.501548 262.644644 
L 237.94873 262.451593 
L 238.395913 262.515943 
L 238.843095 262.966396 
L 239.290278 261.872438 
L 239.737461 261.743737 
L 240.184643 260.77848 
L 240.631826 260.199325 
L 241.079008 260.070624 
L 241.526191 260.328026 
L 241.973373 259.684521 
L 242.420556 260.77848 
L 242.867739 259.941923 
L 243.314921 258.397512 
L 243.762104 258.461862 
L 244.656469 257.625306 
L 245.103651 257.046151 
L 245.550834 256.8531 
L 245.998017 257.239203 
L 246.445199 258.333161 
L 246.892382 257.818357 
L 248.233929 254.986935 
L 248.681112 255.179987 
L 249.128295 254.729533 
L 249.575477 252.99207 
L 250.469842 253.378173 
L 250.917025 253.120771 
L 251.364207 254.986935 
L 251.81139 253.378173 
L 252.258573 254.34343 
L 252.705755 256.8531 
L 253.60012 253.699926 
L 254.047303 254.600832 
L 254.494485 253.635575 
L 254.941668 254.536482 
L 255.836033 252.92772 
L 256.283216 252.026813 
L 256.730398 253.442524 
L 257.177581 253.249472 
L 257.624763 252.348565 
L 258.071946 253.120771 
L 258.519128 253.056421 
L 258.966311 252.477266 
L 259.413494 252.863369 
L 259.860676 252.734668 
L 260.307859 252.219864 
L 260.755041 252.670318 
L 261.202224 252.541617 
L 261.649406 251.962462 
L 262.096589 251.64071 
L 262.543772 253.506874 
L 262.990954 253.699926 
L 263.438137 254.600832 
L 263.885319 254.407781 
L 264.332502 254.536482 
L 264.779684 254.793884 
L 265.226867 255.759141 
L 266.121232 256.531347 
L 266.568415 256.209595 
L 267.015597 256.660048 
L 267.46278 256.466997 
L 268.357145 258.075759 
L 268.804328 257.689656 
L 269.25151 258.268811 
L 269.698693 259.298418 
L 270.145875 259.684521 
L 271.487423 260.263676 
L 271.934606 261.808088 
L 272.828971 261.421985 
L 273.276153 262.06549 
L 273.723336 262.966396 
L 274.170518 263.159448 
L 274.617701 263.931654 
L 275.064884 263.609901 
L 275.512066 263.996004 
L 275.959249 265.733468 
L 276.406431 265.604767 
L 276.853614 264.70386 
L 277.300796 264.575159 
L 277.747979 264.189056 
L 278.642344 264.896911 
L 279.089527 264.060355 
L 279.536709 264.575159 
L 279.983892 264.253406 
L 280.431074 264.382107 
L 281.32544 264.961262 
L 282.219805 264.70386 
L 282.666987 264.382107 
L 283.11417 264.510808 
L 283.561352 264.446458 
L 284.008535 264.060355 
L 284.9029 263.931654 
L 285.797265 264.253406 
L 286.244448 264.446458 
L 286.69163 264.382107 
L 287.138813 264.832561 
L 287.585995 264.832561 
L 288.033178 264.639509 
L 289.374726 264.639509 
L 290.716273 264.961262 
L 291.163456 265.540416 
L 291.610639 265.476066 
L 292.505004 265.540416 
L 293.846551 265.347365 
L 295.188099 265.476066 
L 296.082464 265.411715 
L 296.976829 265.218664 
L 297.424012 264.896911 
L 297.871195 264.896911 
L 298.318377 264.575159 
L 299.212742 264.639509 
L 299.659925 264.70386 
L 301.001473 263.867303 
L 301.448655 264.124705 
L 301.895838 264.124705 
L 302.790203 263.867303 
L 303.237385 263.931654 
L 303.684568 264.189056 
L 305.026116 263.867303 
L 305.473298 264.060355 
L 305.920481 264.060355 
L 306.367663 264.382107 
L 306.814846 264.124705 
L 307.262029 264.510808 
L 307.709211 264.382107 
L 308.156394 264.382107 
L 309.050759 263.996004 
L 309.945124 262.644644 
L 310.392307 262.387242 
L 310.839489 262.001139 
L 311.286672 262.001139 
L 311.733854 261.743737 
L 312.181037 261.357634 
L 312.628219 260.070624 
L 313.075402 260.199325 
L 313.522585 258.590563 
L 314.41695 258.011409 
L 314.864132 257.367904 
L 315.311315 255.56609 
L 315.758497 254.600832 
L 316.20568 252.92772 
L 316.652863 254.150379 
L 317.100045 253.313823 
L 317.547228 253.571225 
L 318.441593 255.051286 
L 318.888775 257.239203 
L 319.335958 258.719264 
L 319.78314 258.333161 
L 320.230323 258.912315 
L 320.677506 258.912315 
L 321.124688 259.234068 
L 321.571871 259.298418 
L 322.466236 257.818357 
L 322.913418 257.947058 
L 323.360601 258.397512 
L 323.807784 257.754007 
L 324.254966 257.367904 
L 324.702149 257.947058 
L 325.596514 260.456727 
L 326.043696 260.521078 
L 326.490879 260.392377 
L 326.938062 261.100232 
L 327.385244 260.77848 
L 328.279609 259.620171 
L 328.726792 259.813222 
L 329.621157 260.971531 
L 330.06834 260.907181 
L 330.515522 261.486335 
L 331.409887 263.223798 
L 331.85707 263.352499 
L 332.304252 263.288149 
L 333.198618 263.4812 
L 333.6458 263.4812 
L 334.092983 263.609901 
L 334.540165 263.352499 
L 334.987348 262.966396 
L 335.43453 263.095097 
L 335.881713 262.902046 
L 336.776078 262.837696 
L 338.117626 263.867303 
L 338.564808 263.545551 
L 339.459174 263.4812 
L 339.906356 263.159448 
L 340.353539 262.580294 
L 340.800721 261.486335 
L 341.247904 260.907181 
L 341.695086 259.813222 
L 342.142269 259.362769 
L 342.589452 259.362769 
L 343.036634 259.169717 
L 343.483817 258.526212 
L 344.378182 258.075759 
L 344.825364 258.20446 
L 345.272547 257.625306 
L 345.71973 257.625306 
L 346.166912 257.882708 
L 346.614095 259.041016 
L 347.061277 258.912315 
L 347.50846 258.333161 
L 348.402825 257.754007 
L 349.29719 257.818357 
L 349.744373 256.016543 
L 350.191555 255.244337 
L 350.638738 254.858234 
L 351.08592 255.437389 
L 351.533103 255.63044 
L 351.980285 255.63044 
L 352.874651 252.155514 
L 353.321833 250.997205 
L 353.769016 251.061555 
L 354.663381 245.977866 
L 355.110563 245.977866 
L 355.557746 245.849165 
L 356.004929 243.983001 
L 356.452111 244.176053 
L 356.899294 241.151579 
L 357.346476 241.022878 
L 357.793659 241.344631 
L 358.240841 240.443724 
L 358.688024 240.443724 
L 359.135207 239.285415 
L 359.582389 237.805354 
L 360.029572 238.963663 
L 360.476754 238.384508 
L 360.923937 236.904447 
L 361.371119 237.097498 
L 361.818302 236.582694 
L 362.265485 237.29055 
L 362.712667 237.226199 
L 363.15985 236.711395 
L 363.607032 237.3549 
L 364.054215 239.414116 
L 364.94858 240.765476 
L 365.842945 243.146445 
L 366.290128 243.339496 
L 366.73731 244.047352 
L 367.631675 243.8543 
L 368.078858 243.918651 
L 368.526041 245.463062 
L 368.973223 245.977866 
L 369.420406 247.136175 
L 369.867588 247.522278 
L 370.314771 250.804153 
L 370.761953 247.844031 
L 371.209136 248.358835 
L 371.656319 248.551886 
L 372.103501 248.165783 
L 372.550684 247.393577 
L 373.445049 246.878773 
L 374.339414 246.685722 
L 374.786597 239.607168 
L 376.128144 226.479667 
L 376.575327 219.594164 
L 377.022509 221.58903 
L 377.469692 215.604434 
L 377.916875 213.80262 
L 378.364057 210.070291 
L 378.81124 210.456394 
L 379.258422 208.139777 
L 379.705605 203.763943 
L 380.152787 203.892644 
L 380.59997 202.605634 
L 381.047153 196.685389 
L 381.941518 173.454861 
L 382.835883 146.170252 
L 383.283065 143.27448 
L 383.730248 133.943658 
L 384.177431 119.014344 
L 384.624613 111.549687 
L 385.071796 95.783816 
L 385.518978 93.016745 
L 385.966161 87.418252 
L 386.413343 85.165985 
L 386.860526 81.562357 
L 387.754891 66.375641 
L 388.202074 61.291952 
L 388.649256 54.792552 
L 389.096439 54.985604 
L 389.543621 54.856903 
L 389.990804 56.723067 
L 390.437986 52.540285 
L 390.885169 52.154182 
L 391.332352 54.020346 
L 391.779534 56.787417 
L 392.226717 61.420653 
L 392.673899 58.717932 
L 393.121082 57.495273 
L 393.568264 63.479869 
L 394.015447 62.900714 
L 394.46263 77.830028 
L 394.909812 83.685923 
L 395.356995 79.824894 
L 395.804177 86.581696 
L 396.25136 87.418252 
L 396.698542 85.230335 
L 397.145725 92.308889 
L 397.592908 85.294686 
L 398.04009 85.359036 
L 398.487273 90.764478 
L 398.487273 90.764478 
" clip-path="url(#p57775c3e72)" style="fill: none; stroke: #1f77b4; stroke-width: 1.5; stroke-linecap: square"/>
   </g>
   <g id="patch_3">
    <path d="M 57.6 276.48 
L 57.6 41.472 
" style="fill: none; stroke: #000000; stroke-width: 0.8; stroke-linejoin: miter; stroke-linecap: square"/>
   </g>
   <g id="patch_4">
    <path d="M 414.72 276.48 
L 414.72 41.472 
" style="fill: none; stroke: #000000; stroke-width: 0.8; stroke-linejoin: miter; stroke-linecap: square"/>
   </g>
   <g id="patch_5">
    <path d="M 57.6 276.48 
L 414.72 276.48 
" style="fill: none; stroke: #000000; stroke-width: 0.8; stroke-linejoin: miter; stroke-linecap: square"/>
   </g>
   <g id="patch_6">
    <path d="M 57.6 41.472 
L 414.72 41.472 
" style="fill: none; stroke: #000000; stroke-width: 0.8; stroke-linejoin: miter; stroke-linecap: square"/>
   </g>
  </g>
  <g id="text_19">
   <!-- Inzidenzverlauf LK Coesfeld -->
   <g transform="translate(106.111406 20.589187)scale(0.18 -0.18)">
    <defs>
     <path id="DejaVuSans-76" d="M 191 3500 
L 800 3500 
L 1894 563 
L 2988 3500 
L 3597 3500 
L 2284 0 
L 1503 0 
L 191 3500 
z
" transform="scale(0.015625)"/>
     <path id="DejaVuSans-6c" d="M 603 4863 
L 1178 4863 
L 1178 0 
L 603 0 
L 603 4863 
z
" transform="scale(0.015625)"/>
     <path id="DejaVuSans-75" d="M 544 1381 
L 544 3500 
L 1119 3500 
L 1119 1403 
Q 1119 906 1312 657 
Q 1506 409 1894 409 
Q 2359 409 2629 706 
Q 2900 1003 2900 1516 
L 2900 3500 
L 3475 3500 
L 3475 0 
L 2900 0 
L 2900 538 
Q 2691 219 2414 64 
Q 2138 -91 1772 -91 
Q 1169 -91 856 284 
Q 544 659 544 1381 
z
M 1991 3584 
L 1991 3584 
z
" transform="scale(0.015625)"/>
     <path id="DejaVuSans-66" d="M 2375 4863 
L 2375 4384 
L 1825 4384 
Q 1516 4384 1395 4259 
Q 1275 4134 1275 3809 
L 1275 3500 
L 2222 3500 
L 2222 3053 
L 1275 3053 
L 1275 0 
L 697 0 
L 697 3053 
L 147 3053 
L 147 3500 
L 697 3500 
L 697 3744 
Q 697 4328 969 4595 
Q 1241 4863 1831 4863 
L 2375 4863 
z
" transform="scale(0.015625)"/>
     <path id="DejaVuSans-4c" d="M 628 4666 
L 1259 4666 
L 1259 531 
L 3531 531 
L 3531 0 
L 628 0 
L 628 4666 
z
" transform="scale(0.015625)"/>
     <path id="DejaVuSans-4b" d="M 628 4666 
L 1259 4666 
L 1259 2694 
L 3353 4666 
L 4166 4666 
L 1850 2491 
L 4331 0 
L 3500 0 
L 1259 2247 
L 1259 0 
L 628 0 
L 628 4666 
z
" transform="scale(0.015625)"/>
     <path id="DejaVuSans-43" d="M 4122 4306 
L 4122 3641 
Q 3803 3938 3442 4084 
Q 3081 4231 2675 4231 
Q 1875 4231 1450 3742 
Q 1025 3253 1025 2328 
Q 1025 1406 1450 917 
Q 1875 428 2675 428 
Q 3081 428 3442 575 
Q 3803 722 4122 1019 
L 4122 359 
Q 3791 134 3420 21 
Q 3050 -91 2638 -91 
Q 1578 -91 968 557 
Q 359 1206 359 2328 
Q 359 3453 968 4101 
Q 1578 4750 2638 4750 
Q 3056 4750 3426 4639 
Q 3797 4528 4122 4306 
z
" transform="scale(0.015625)"/>
     <path id="DejaVuSans-73" d="M 2834 3397 
L 2834 2853 
Q 2591 2978 2328 3040 
Q 2066 3103 1784 3103 
Q 1356 3103 1142 2972 
Q 928 2841 928 2578 
Q 928 2378 1081 2264 
Q 1234 2150 1697 2047 
L 1894 2003 
Q 2506 1872 2764 1633 
Q 3022 1394 3022 966 
Q 3022 478 2636 193 
Q 2250 -91 1575 -91 
Q 1294 -91 989 -36 
Q 684 19 347 128 
L 347 722 
Q 666 556 975 473 
Q 1284 391 1588 391 
Q 1994 391 2212 530 
Q 2431 669 2431 922 
Q 2431 1156 2273 1281 
Q 2116 1406 1581 1522 
L 1381 1569 
Q 847 1681 609 1914 
Q 372 2147 372 2553 
Q 372 3047 722 3315 
Q 1072 3584 1716 3584 
Q 2034 3584 2315 3537 
Q 2597 3491 2834 3397 
z
" transform="scale(0.015625)"/>
    </defs>
    <use xlink:href="#DejaVuSans-49"/>
    <use xlink:href="#DejaVuSans-6e" x="29.492188"/>
    <use xlink:href="#DejaVuSans-7a" x="92.871094"/>
    <use xlink:href="#DejaVuSans-69" x="145.361328"/>
    <use xlink:href="#DejaVuSans-64" x="173.144531"/>
    <use xlink:href="#DejaVuSans-65" x="236.621094"/>
    <use xlink:href="#DejaVuSans-6e" x="298.144531"/>
    <use xlink:href="#DejaVuSans-7a" x="361.523438"/>
    <use xlink:href="#DejaVuSans-76" x="414.013672"/>
    <use xlink:href="#DejaVuSans-65" x="473.193359"/>
    <use xlink:href="#DejaVuSans-72" x="534.716797"/>
    <use xlink:href="#DejaVuSans-6c" x="575.830078"/>
    <use xlink:href="#DejaVuSans-61" x="603.613281"/>
    <use xlink:href="#DejaVuSans-75" x="664.892578"/>
    <use xlink:href="#DejaVuSans-66" x="728.271484"/>
    <use xlink:href="#DejaVuSans-20" x="763.476562"/>
    <use xlink:href="#DejaVuSans-4c" x="795.263672"/>
    <use xlink:href="#DejaVuSans-4b" x="850.976562"/>
    <use xlink:href="#DejaVuSans-20" x="916.552734"/>
    <use xlink:href="#DejaVuSans-43" x="948.339844"/>
    <use xlink:href="#DejaVuSans-6f" x="1018.164062"/>
    <use xlink:href="#DejaVuSans-65" x="1079.345703"/>
    <use xlink:href="#DejaVuSans-73" x="1140.869141"/>
    <use xlink:href="#DejaVuSans-66" x="1192.96875"/>
    <use xlink:href="#DejaVuSans-65" x="1228.173828"/>
    <use xlink:href="#DejaVuSans-6c" x="1289.697266"/>
    <use xlink:href="#DejaVuSans-64" x="1317.480469"/>
   </g>
  </g>
 </g>
 <defs>
  <clipPath id="p57775c3e72">
   <rect x="57.6" y="41.472" width="357.12" height="235.008"/>
  </clipPath>
 </defs>
</svg>
