<?xml version="1.0" encoding="utf-8" standalone="no"?>
<!DOCTYPE svg PUBLIC "-//W3C//DTD SVG 1.1//EN"
  "http://www.w3.org/Graphics/SVG/1.1/DTD/svg11.dtd">
<svg xmlns:xlink="http://www.w3.org/1999/xlink" width="460.8pt" height="345.6pt" viewBox="0 0 460.8 345.6" xmlns="http://www.w3.org/2000/svg" version="1.1">
 <metadata>
  <rdf:RDF xmlns:dc="http://purl.org/dc/elements/1.1/" xmlns:cc="http://creativecommons.org/ns#" xmlns:rdf="http://www.w3.org/1999/02/22-rdf-syntax-ns#">
   <cc:Work>
    <dc:type rdf:resource="http://purl.org/dc/dcmitype/StillImage"/>
    <dc:date>2022-05-07T09:21:22.924954</dc:date>
    <dc:format>image/svg+xml</dc:format>
    <dc:creator>
     <cc:Agent>
      <dc:title>Matplotlib v3.5.2, https://matplotlib.org/</dc:title>
     </cc:Agent>
    </dc:creator>
   </cc:Work>
  </rdf:RDF>
 </metadata>
 <defs>
  <style type="text/css">*{stroke-linejoin: round; stroke-linecap: butt}</style>
 </defs>
 <g id="figure_1">
  <g id="patch_1">
   <path d="M 0 345.6 
L 460.8 345.6 
L 460.8 0 
L 0 0 
z
" style="fill: #ffffff"/>
  </g>
  <g id="axes_1">
   <g id="patch_2">
    <path d="M 57.6 276.48 
L 414.72 276.48 
L 414.72 41.472 
L 57.6 41.472 
z
" style="fill: #ffffff"/>
   </g>
   <g id="matplotlib.axis_1">
    <g id="xtick_1">
     <g id="line2d_1">
      <path d="M 59.250497 276.48 
L 59.250497 41.472 
" clip-path="url(#p18b2d2d771)" style="fill: none; stroke-dasharray: 2.96,1.28; stroke-dashoffset: 0; stroke: #808080; stroke-width: 0.8"/>
     </g>
     <g id="line2d_2">
      <defs>
       <path id="mb911dcb820" d="M 0 0 
L 0 3.5 
" style="stroke: #000000; stroke-width: 0.8"/>
      </defs>
      <g>
       <use xlink:href="#mb911dcb820" x="59.250497" y="276.48" style="stroke: #000000; stroke-width: 0.8"/>
      </g>
     </g>
     <g id="text_1">
      <!-- 27.01.2020 -->
      <g transform="translate(8.625287 318.688565)rotate(-30)scale(0.1 -0.1)">
       <defs>
        <path id="DejaVuSans-32" d="M 1228 531 
L 3431 531 
L 3431 0 
L 469 0 
L 469 531 
Q 828 903 1448 1529 
Q 2069 2156 2228 2338 
Q 2531 2678 2651 2914 
Q 2772 3150 2772 3378 
Q 2772 3750 2511 3984 
Q 2250 4219 1831 4219 
Q 1534 4219 1204 4116 
Q 875 4013 500 3803 
L 500 4441 
Q 881 4594 1212 4672 
Q 1544 4750 1819 4750 
Q 2544 4750 2975 4387 
Q 3406 4025 3406 3419 
Q 3406 3131 3298 2873 
Q 3191 2616 2906 2266 
Q 2828 2175 2409 1742 
Q 1991 1309 1228 531 
z
" transform="scale(0.015625)"/>
        <path id="DejaVuSans-37" d="M 525 4666 
L 3525 4666 
L 3525 4397 
L 1831 0 
L 1172 0 
L 2766 4134 
L 525 4134 
L 525 4666 
z
" transform="scale(0.015625)"/>
        <path id="DejaVuSans-2e" d="M 684 794 
L 1344 794 
L 1344 0 
L 684 0 
L 684 794 
z
" transform="scale(0.015625)"/>
        <path id="DejaVuSans-30" d="M 2034 4250 
Q 1547 4250 1301 3770 
Q 1056 3291 1056 2328 
Q 1056 1369 1301 889 
Q 1547 409 2034 409 
Q 2525 409 2770 889 
Q 3016 1369 3016 2328 
Q 3016 3291 2770 3770 
Q 2525 4250 2034 4250 
z
M 2034 4750 
Q 2819 4750 3233 4129 
Q 3647 3509 3647 2328 
Q 3647 1150 3233 529 
Q 2819 -91 2034 -91 
Q 1250 -91 836 529 
Q 422 1150 422 2328 
Q 422 3509 836 4129 
Q 1250 4750 2034 4750 
z
" transform="scale(0.015625)"/>
        <path id="DejaVuSans-31" d="M 794 531 
L 1825 531 
L 1825 4091 
L 703 3866 
L 703 4441 
L 1819 4666 
L 2450 4666 
L 2450 531 
L 3481 531 
L 3481 0 
L 794 0 
L 794 531 
z
" transform="scale(0.015625)"/>
       </defs>
       <use xlink:href="#DejaVuSans-32"/>
       <use xlink:href="#DejaVuSans-37" x="63.623047"/>
       <use xlink:href="#DejaVuSans-2e" x="127.246094"/>
       <use xlink:href="#DejaVuSans-30" x="159.033203"/>
       <use xlink:href="#DejaVuSans-31" x="222.65625"/>
       <use xlink:href="#DejaVuSans-2e" x="286.279297"/>
       <use xlink:href="#DejaVuSans-32" x="318.066406"/>
       <use xlink:href="#DejaVuSans-30" x="381.689453"/>
       <use xlink:href="#DejaVuSans-32" x="445.3125"/>
       <use xlink:href="#DejaVuSans-30" x="508.935547"/>
      </g>
     </g>
    </g>
    <g id="xtick_2">
     <g id="line2d_3">
      <path d="M 95.187101 276.48 
L 95.187101 41.472 
" clip-path="url(#p18b2d2d771)" style="fill: none; stroke-dasharray: 2.96,1.28; stroke-dashoffset: 0; stroke: #808080; stroke-width: 0.8"/>
     </g>
     <g id="line2d_4">
      <g>
       <use xlink:href="#mb911dcb820" x="95.187101" y="276.48" style="stroke: #000000; stroke-width: 0.8"/>
      </g>
     </g>
     <g id="text_2">
      <!-- 24.04.2020 -->
      <g transform="translate(44.56189 318.688565)rotate(-30)scale(0.1 -0.1)">
       <defs>
        <path id="DejaVuSans-34" d="M 2419 4116 
L 825 1625 
L 2419 1625 
L 2419 4116 
z
M 2253 4666 
L 3047 4666 
L 3047 1625 
L 3713 1625 
L 3713 1100 
L 3047 1100 
L 3047 0 
L 2419 0 
L 2419 1100 
L 313 1100 
L 313 1709 
L 2253 4666 
z
" transform="scale(0.015625)"/>
       </defs>
       <use xlink:href="#DejaVuSans-32"/>
       <use xlink:href="#DejaVuSans-34" x="63.623047"/>
       <use xlink:href="#DejaVuSans-2e" x="127.246094"/>
       <use xlink:href="#DejaVuSans-30" x="159.033203"/>
       <use xlink:href="#DejaVuSans-34" x="222.65625"/>
       <use xlink:href="#DejaVuSans-2e" x="286.279297"/>
       <use xlink:href="#DejaVuSans-32" x="318.066406"/>
       <use xlink:href="#DejaVuSans-30" x="381.689453"/>
       <use xlink:href="#DejaVuSans-32" x="445.3125"/>
       <use xlink:href="#DejaVuSans-30" x="508.935547"/>
      </g>
     </g>
    </g>
    <g id="xtick_3">
     <g id="line2d_5">
      <path d="M 131.123705 276.48 
L 131.123705 41.472 
" clip-path="url(#p18b2d2d771)" style="fill: none; stroke-dasharray: 2.96,1.28; stroke-dashoffset: 0; stroke: #808080; stroke-width: 0.8"/>
     </g>
     <g id="line2d_6">
      <g>
       <use xlink:href="#mb911dcb820" x="131.123705" y="276.48" style="stroke: #000000; stroke-width: 0.8"/>
      </g>
     </g>
     <g id="text_3">
      <!-- 21.07.2020 -->
      <g transform="translate(80.498494 318.688565)rotate(-30)scale(0.1 -0.1)">
       <use xlink:href="#DejaVuSans-32"/>
       <use xlink:href="#DejaVuSans-31" x="63.623047"/>
       <use xlink:href="#DejaVuSans-2e" x="127.246094"/>
       <use xlink:href="#DejaVuSans-30" x="159.033203"/>
       <use xlink:href="#DejaVuSans-37" x="222.65625"/>
       <use xlink:href="#DejaVuSans-2e" x="286.279297"/>
       <use xlink:href="#DejaVuSans-32" x="318.066406"/>
       <use xlink:href="#DejaVuSans-30" x="381.689453"/>
       <use xlink:href="#DejaVuSans-32" x="445.3125"/>
       <use xlink:href="#DejaVuSans-30" x="508.935547"/>
      </g>
     </g>
    </g>
    <g id="xtick_4">
     <g id="line2d_7">
      <path d="M 167.060309 276.48 
L 167.060309 41.472 
" clip-path="url(#p18b2d2d771)" style="fill: none; stroke-dasharray: 2.96,1.28; stroke-dashoffset: 0; stroke: #808080; stroke-width: 0.8"/>
     </g>
     <g id="line2d_8">
      <g>
       <use xlink:href="#mb911dcb820" x="167.060309" y="276.48" style="stroke: #000000; stroke-width: 0.8"/>
      </g>
     </g>
     <g id="text_4">
      <!-- 17.10.2020 -->
      <g transform="translate(116.435098 318.688565)rotate(-30)scale(0.1 -0.1)">
       <use xlink:href="#DejaVuSans-31"/>
       <use xlink:href="#DejaVuSans-37" x="63.623047"/>
       <use xlink:href="#DejaVuSans-2e" x="127.246094"/>
       <use xlink:href="#DejaVuSans-31" x="159.033203"/>
       <use xlink:href="#DejaVuSans-30" x="222.65625"/>
       <use xlink:href="#DejaVuSans-2e" x="286.279297"/>
       <use xlink:href="#DejaVuSans-32" x="318.066406"/>
       <use xlink:href="#DejaVuSans-30" x="381.689453"/>
       <use xlink:href="#DejaVuSans-32" x="445.3125"/>
       <use xlink:href="#DejaVuSans-30" x="508.935547"/>
      </g>
     </g>
    </g>
    <g id="xtick_5">
     <g id="line2d_9">
      <path d="M 202.996913 276.48 
L 202.996913 41.472 
" clip-path="url(#p18b2d2d771)" style="fill: none; stroke-dasharray: 2.96,1.28; stroke-dashoffset: 0; stroke: #808080; stroke-width: 0.8"/>
     </g>
     <g id="line2d_10">
      <g>
       <use xlink:href="#mb911dcb820" x="202.996913" y="276.48" style="stroke: #000000; stroke-width: 0.8"/>
      </g>
     </g>
     <g id="text_5">
      <!-- 13.01.2021 -->
      <g transform="translate(152.371702 318.688565)rotate(-30)scale(0.1 -0.1)">
       <defs>
        <path id="DejaVuSans-33" d="M 2597 2516 
Q 3050 2419 3304 2112 
Q 3559 1806 3559 1356 
Q 3559 666 3084 287 
Q 2609 -91 1734 -91 
Q 1441 -91 1130 -33 
Q 819 25 488 141 
L 488 750 
Q 750 597 1062 519 
Q 1375 441 1716 441 
Q 2309 441 2620 675 
Q 2931 909 2931 1356 
Q 2931 1769 2642 2001 
Q 2353 2234 1838 2234 
L 1294 2234 
L 1294 2753 
L 1863 2753 
Q 2328 2753 2575 2939 
Q 2822 3125 2822 3475 
Q 2822 3834 2567 4026 
Q 2313 4219 1838 4219 
Q 1578 4219 1281 4162 
Q 984 4106 628 3988 
L 628 4550 
Q 988 4650 1302 4700 
Q 1616 4750 1894 4750 
Q 2613 4750 3031 4423 
Q 3450 4097 3450 3541 
Q 3450 3153 3228 2886 
Q 3006 2619 2597 2516 
z
" transform="scale(0.015625)"/>
       </defs>
       <use xlink:href="#DejaVuSans-31"/>
       <use xlink:href="#DejaVuSans-33" x="63.623047"/>
       <use xlink:href="#DejaVuSans-2e" x="127.246094"/>
       <use xlink:href="#DejaVuSans-30" x="159.033203"/>
       <use xlink:href="#DejaVuSans-31" x="222.65625"/>
       <use xlink:href="#DejaVuSans-2e" x="286.279297"/>
       <use xlink:href="#DejaVuSans-32" x="318.066406"/>
       <use xlink:href="#DejaVuSans-30" x="381.689453"/>
       <use xlink:href="#DejaVuSans-32" x="445.3125"/>
       <use xlink:href="#DejaVuSans-31" x="508.935547"/>
      </g>
     </g>
    </g>
    <g id="xtick_6">
     <g id="line2d_11">
      <path d="M 238.933516 276.48 
L 238.933516 41.472 
" clip-path="url(#p18b2d2d771)" style="fill: none; stroke-dasharray: 2.96,1.28; stroke-dashoffset: 0; stroke: #808080; stroke-width: 0.8"/>
     </g>
     <g id="line2d_12">
      <g>
       <use xlink:href="#mb911dcb820" x="238.933516" y="276.48" style="stroke: #000000; stroke-width: 0.8"/>
      </g>
     </g>
     <g id="text_6">
      <!-- 11.04.2021 -->
      <g transform="translate(188.308306 318.688565)rotate(-30)scale(0.1 -0.1)">
       <use xlink:href="#DejaVuSans-31"/>
       <use xlink:href="#DejaVuSans-31" x="63.623047"/>
       <use xlink:href="#DejaVuSans-2e" x="127.246094"/>
       <use xlink:href="#DejaVuSans-30" x="159.033203"/>
       <use xlink:href="#DejaVuSans-34" x="222.65625"/>
       <use xlink:href="#DejaVuSans-2e" x="286.279297"/>
       <use xlink:href="#DejaVuSans-32" x="318.066406"/>
       <use xlink:href="#DejaVuSans-30" x="381.689453"/>
       <use xlink:href="#DejaVuSans-32" x="445.3125"/>
       <use xlink:href="#DejaVuSans-31" x="508.935547"/>
      </g>
     </g>
    </g>
    <g id="xtick_7">
     <g id="line2d_13">
      <path d="M 274.87012 276.48 
L 274.87012 41.472 
" clip-path="url(#p18b2d2d771)" style="fill: none; stroke-dasharray: 2.96,1.28; stroke-dashoffset: 0; stroke: #808080; stroke-width: 0.8"/>
     </g>
     <g id="line2d_14">
      <g>
       <use xlink:href="#mb911dcb820" x="274.87012" y="276.48" style="stroke: #000000; stroke-width: 0.8"/>
      </g>
     </g>
     <g id="text_7">
      <!-- 08.07.2021 -->
      <g transform="translate(224.244909 318.688565)rotate(-30)scale(0.1 -0.1)">
       <defs>
        <path id="DejaVuSans-38" d="M 2034 2216 
Q 1584 2216 1326 1975 
Q 1069 1734 1069 1313 
Q 1069 891 1326 650 
Q 1584 409 2034 409 
Q 2484 409 2743 651 
Q 3003 894 3003 1313 
Q 3003 1734 2745 1975 
Q 2488 2216 2034 2216 
z
M 1403 2484 
Q 997 2584 770 2862 
Q 544 3141 544 3541 
Q 544 4100 942 4425 
Q 1341 4750 2034 4750 
Q 2731 4750 3128 4425 
Q 3525 4100 3525 3541 
Q 3525 3141 3298 2862 
Q 3072 2584 2669 2484 
Q 3125 2378 3379 2068 
Q 3634 1759 3634 1313 
Q 3634 634 3220 271 
Q 2806 -91 2034 -91 
Q 1263 -91 848 271 
Q 434 634 434 1313 
Q 434 1759 690 2068 
Q 947 2378 1403 2484 
z
M 1172 3481 
Q 1172 3119 1398 2916 
Q 1625 2713 2034 2713 
Q 2441 2713 2670 2916 
Q 2900 3119 2900 3481 
Q 2900 3844 2670 4047 
Q 2441 4250 2034 4250 
Q 1625 4250 1398 4047 
Q 1172 3844 1172 3481 
z
" transform="scale(0.015625)"/>
       </defs>
       <use xlink:href="#DejaVuSans-30"/>
       <use xlink:href="#DejaVuSans-38" x="63.623047"/>
       <use xlink:href="#DejaVuSans-2e" x="127.246094"/>
       <use xlink:href="#DejaVuSans-30" x="159.033203"/>
       <use xlink:href="#DejaVuSans-37" x="222.65625"/>
       <use xlink:href="#DejaVuSans-2e" x="286.279297"/>
       <use xlink:href="#DejaVuSans-32" x="318.066406"/>
       <use xlink:href="#DejaVuSans-30" x="381.689453"/>
       <use xlink:href="#DejaVuSans-32" x="445.3125"/>
       <use xlink:href="#DejaVuSans-31" x="508.935547"/>
      </g>
     </g>
    </g>
    <g id="xtick_8">
     <g id="line2d_15">
      <path d="M 310.806724 276.48 
L 310.806724 41.472 
" clip-path="url(#p18b2d2d771)" style="fill: none; stroke-dasharray: 2.96,1.28; stroke-dashoffset: 0; stroke: #808080; stroke-width: 0.8"/>
     </g>
     <g id="line2d_16">
      <g>
       <use xlink:href="#mb911dcb820" x="310.806724" y="276.48" style="stroke: #000000; stroke-width: 0.8"/>
      </g>
     </g>
     <g id="text_8">
      <!-- 04.10.2021 -->
      <g transform="translate(260.181513 318.688565)rotate(-30)scale(0.1 -0.1)">
       <use xlink:href="#DejaVuSans-30"/>
       <use xlink:href="#DejaVuSans-34" x="63.623047"/>
       <use xlink:href="#DejaVuSans-2e" x="127.246094"/>
       <use xlink:href="#DejaVuSans-31" x="159.033203"/>
       <use xlink:href="#DejaVuSans-30" x="222.65625"/>
       <use xlink:href="#DejaVuSans-2e" x="286.279297"/>
       <use xlink:href="#DejaVuSans-32" x="318.066406"/>
       <use xlink:href="#DejaVuSans-30" x="381.689453"/>
       <use xlink:href="#DejaVuSans-32" x="445.3125"/>
       <use xlink:href="#DejaVuSans-31" x="508.935547"/>
      </g>
     </g>
    </g>
    <g id="xtick_9">
     <g id="line2d_17">
      <path d="M 346.743328 276.48 
L 346.743328 41.472 
" clip-path="url(#p18b2d2d771)" style="fill: none; stroke-dasharray: 2.96,1.28; stroke-dashoffset: 0; stroke: #808080; stroke-width: 0.8"/>
     </g>
     <g id="line2d_18">
      <g>
       <use xlink:href="#mb911dcb820" x="346.743328" y="276.48" style="stroke: #000000; stroke-width: 0.8"/>
      </g>
     </g>
     <g id="text_9">
      <!-- 31.12.2021 -->
      <g transform="translate(296.118117 318.688565)rotate(-30)scale(0.1 -0.1)">
       <use xlink:href="#DejaVuSans-33"/>
       <use xlink:href="#DejaVuSans-31" x="63.623047"/>
       <use xlink:href="#DejaVuSans-2e" x="127.246094"/>
       <use xlink:href="#DejaVuSans-31" x="159.033203"/>
       <use xlink:href="#DejaVuSans-32" x="222.65625"/>
       <use xlink:href="#DejaVuSans-2e" x="286.279297"/>
       <use xlink:href="#DejaVuSans-32" x="318.066406"/>
       <use xlink:href="#DejaVuSans-30" x="381.689453"/>
       <use xlink:href="#DejaVuSans-32" x="445.3125"/>
       <use xlink:href="#DejaVuSans-31" x="508.935547"/>
      </g>
     </g>
    </g>
    <g id="xtick_10">
     <g id="line2d_19">
      <path d="M 382.679931 276.48 
L 382.679931 41.472 
" clip-path="url(#p18b2d2d771)" style="fill: none; stroke-dasharray: 2.96,1.28; stroke-dashoffset: 0; stroke: #808080; stroke-width: 0.8"/>
     </g>
     <g id="line2d_20">
      <g>
       <use xlink:href="#mb911dcb820" x="382.679931" y="276.48" style="stroke: #000000; stroke-width: 0.8"/>
      </g>
     </g>
     <g id="text_10">
      <!-- 29.03.2022 -->
      <g transform="translate(332.054721 318.688565)rotate(-30)scale(0.1 -0.1)">
       <defs>
        <path id="DejaVuSans-39" d="M 703 97 
L 703 672 
Q 941 559 1184 500 
Q 1428 441 1663 441 
Q 2288 441 2617 861 
Q 2947 1281 2994 2138 
Q 2813 1869 2534 1725 
Q 2256 1581 1919 1581 
Q 1219 1581 811 2004 
Q 403 2428 403 3163 
Q 403 3881 828 4315 
Q 1253 4750 1959 4750 
Q 2769 4750 3195 4129 
Q 3622 3509 3622 2328 
Q 3622 1225 3098 567 
Q 2575 -91 1691 -91 
Q 1453 -91 1209 -44 
Q 966 3 703 97 
z
M 1959 2075 
Q 2384 2075 2632 2365 
Q 2881 2656 2881 3163 
Q 2881 3666 2632 3958 
Q 2384 4250 1959 4250 
Q 1534 4250 1286 3958 
Q 1038 3666 1038 3163 
Q 1038 2656 1286 2365 
Q 1534 2075 1959 2075 
z
" transform="scale(0.015625)"/>
       </defs>
       <use xlink:href="#DejaVuSans-32"/>
       <use xlink:href="#DejaVuSans-39" x="63.623047"/>
       <use xlink:href="#DejaVuSans-2e" x="127.246094"/>
       <use xlink:href="#DejaVuSans-30" x="159.033203"/>
       <use xlink:href="#DejaVuSans-33" x="222.65625"/>
       <use xlink:href="#DejaVuSans-2e" x="286.279297"/>
       <use xlink:href="#DejaVuSans-32" x="318.066406"/>
       <use xlink:href="#DejaVuSans-30" x="381.689453"/>
       <use xlink:href="#DejaVuSans-32" x="445.3125"/>
       <use xlink:href="#DejaVuSans-32" x="508.935547"/>
      </g>
     </g>
    </g>
   </g>
   <g id="matplotlib.axis_2">
    <g id="ytick_1">
     <g id="line2d_21">
      <path d="M 57.6 265.797818 
L 414.72 265.797818 
" clip-path="url(#p18b2d2d771)" style="fill: none; stroke-dasharray: 2.96,1.28; stroke-dashoffset: 0; stroke: #808080; stroke-width: 0.8"/>
     </g>
     <g id="line2d_22">
      <defs>
       <path id="m4c98034b3c" d="M 0 0 
L -3.5 0 
" style="stroke: #000000; stroke-width: 0.8"/>
      </defs>
      <g>
       <use xlink:href="#m4c98034b3c" x="57.6" y="265.797818" style="stroke: #000000; stroke-width: 0.8"/>
      </g>
     </g>
     <g id="text_11">
      <!-- 0 -->
      <g transform="translate(44.2375 269.597037)scale(0.1 -0.1)">
       <use xlink:href="#DejaVuSans-30"/>
      </g>
     </g>
    </g>
    <g id="ytick_2">
     <g id="line2d_23">
      <path d="M 57.6 223.249249 
L 414.72 223.249249 
" clip-path="url(#p18b2d2d771)" style="fill: none; stroke-dasharray: 2.96,1.28; stroke-dashoffset: 0; stroke: #808080; stroke-width: 0.8"/>
     </g>
     <g id="line2d_24">
      <g>
       <use xlink:href="#m4c98034b3c" x="57.6" y="223.249249" style="stroke: #000000; stroke-width: 0.8"/>
      </g>
     </g>
     <g id="text_12">
      <!-- 500 -->
      <g transform="translate(31.5125 227.048468)scale(0.1 -0.1)">
       <defs>
        <path id="DejaVuSans-35" d="M 691 4666 
L 3169 4666 
L 3169 4134 
L 1269 4134 
L 1269 2991 
Q 1406 3038 1543 3061 
Q 1681 3084 1819 3084 
Q 2600 3084 3056 2656 
Q 3513 2228 3513 1497 
Q 3513 744 3044 326 
Q 2575 -91 1722 -91 
Q 1428 -91 1123 -41 
Q 819 9 494 109 
L 494 744 
Q 775 591 1075 516 
Q 1375 441 1709 441 
Q 2250 441 2565 725 
Q 2881 1009 2881 1497 
Q 2881 1984 2565 2268 
Q 2250 2553 1709 2553 
Q 1456 2553 1204 2497 
Q 953 2441 691 2322 
L 691 4666 
z
" transform="scale(0.015625)"/>
       </defs>
       <use xlink:href="#DejaVuSans-35"/>
       <use xlink:href="#DejaVuSans-30" x="63.623047"/>
       <use xlink:href="#DejaVuSans-30" x="127.246094"/>
      </g>
     </g>
    </g>
    <g id="ytick_3">
     <g id="line2d_25">
      <path d="M 57.6 180.70068 
L 414.72 180.70068 
" clip-path="url(#p18b2d2d771)" style="fill: none; stroke-dasharray: 2.96,1.28; stroke-dashoffset: 0; stroke: #808080; stroke-width: 0.8"/>
     </g>
     <g id="line2d_26">
      <g>
       <use xlink:href="#m4c98034b3c" x="57.6" y="180.70068" style="stroke: #000000; stroke-width: 0.8"/>
      </g>
     </g>
     <g id="text_13">
      <!-- 1000 -->
      <g transform="translate(25.15 184.499899)scale(0.1 -0.1)">
       <use xlink:href="#DejaVuSans-31"/>
       <use xlink:href="#DejaVuSans-30" x="63.623047"/>
       <use xlink:href="#DejaVuSans-30" x="127.246094"/>
       <use xlink:href="#DejaVuSans-30" x="190.869141"/>
      </g>
     </g>
    </g>
    <g id="ytick_4">
     <g id="line2d_27">
      <path d="M 57.6 138.152111 
L 414.72 138.152111 
" clip-path="url(#p18b2d2d771)" style="fill: none; stroke-dasharray: 2.96,1.28; stroke-dashoffset: 0; stroke: #808080; stroke-width: 0.8"/>
     </g>
     <g id="line2d_28">
      <g>
       <use xlink:href="#m4c98034b3c" x="57.6" y="138.152111" style="stroke: #000000; stroke-width: 0.8"/>
      </g>
     </g>
     <g id="text_14">
      <!-- 1500 -->
      <g transform="translate(25.15 141.95133)scale(0.1 -0.1)">
       <use xlink:href="#DejaVuSans-31"/>
       <use xlink:href="#DejaVuSans-35" x="63.623047"/>
       <use xlink:href="#DejaVuSans-30" x="127.246094"/>
       <use xlink:href="#DejaVuSans-30" x="190.869141"/>
      </g>
     </g>
    </g>
    <g id="ytick_5">
     <g id="line2d_29">
      <path d="M 57.6 95.603542 
L 414.72 95.603542 
" clip-path="url(#p18b2d2d771)" style="fill: none; stroke-dasharray: 2.96,1.28; stroke-dashoffset: 0; stroke: #808080; stroke-width: 0.8"/>
     </g>
     <g id="line2d_30">
      <g>
       <use xlink:href="#m4c98034b3c" x="57.6" y="95.603542" style="stroke: #000000; stroke-width: 0.8"/>
      </g>
     </g>
     <g id="text_15">
      <!-- 2000 -->
      <g transform="translate(25.15 99.40276)scale(0.1 -0.1)">
       <use xlink:href="#DejaVuSans-32"/>
       <use xlink:href="#DejaVuSans-30" x="63.623047"/>
       <use xlink:href="#DejaVuSans-30" x="127.246094"/>
       <use xlink:href="#DejaVuSans-30" x="190.869141"/>
      </g>
     </g>
    </g>
    <g id="ytick_6">
     <g id="line2d_31">
      <path d="M 57.6 53.054973 
L 414.72 53.054973 
" clip-path="url(#p18b2d2d771)" style="fill: none; stroke-dasharray: 2.96,1.28; stroke-dashoffset: 0; stroke: #808080; stroke-width: 0.8"/>
     </g>
     <g id="line2d_32">
      <g>
       <use xlink:href="#m4c98034b3c" x="57.6" y="53.054973" style="stroke: #000000; stroke-width: 0.8"/>
      </g>
     </g>
     <g id="text_16">
      <!-- 2500 -->
      <g transform="translate(25.15 56.854191)scale(0.1 -0.1)">
       <use xlink:href="#DejaVuSans-32"/>
       <use xlink:href="#DejaVuSans-35" x="63.623047"/>
       <use xlink:href="#DejaVuSans-30" x="127.246094"/>
       <use xlink:href="#DejaVuSans-30" x="190.869141"/>
      </g>
     </g>
    </g>
    <g id="text_17">
     <!-- Inzidenz pro 7 Tage pro 100.000 Einwohner -->
     <g transform="translate(19.070312 267.301)rotate(-90)scale(0.1 -0.1)">
      <defs>
       <path id="DejaVuSans-49" d="M 628 4666 
L 1259 4666 
L 1259 0 
L 628 0 
L 628 4666 
z
" transform="scale(0.015625)"/>
       <path id="DejaVuSans-6e" d="M 3513 2113 
L 3513 0 
L 2938 0 
L 2938 2094 
Q 2938 2591 2744 2837 
Q 2550 3084 2163 3084 
Q 1697 3084 1428 2787 
Q 1159 2491 1159 1978 
L 1159 0 
L 581 0 
L 581 3500 
L 1159 3500 
L 1159 2956 
Q 1366 3272 1645 3428 
Q 1925 3584 2291 3584 
Q 2894 3584 3203 3211 
Q 3513 2838 3513 2113 
z
" transform="scale(0.015625)"/>
       <path id="DejaVuSans-7a" d="M 353 3500 
L 3084 3500 
L 3084 2975 
L 922 459 
L 3084 459 
L 3084 0 
L 275 0 
L 275 525 
L 2438 3041 
L 353 3041 
L 353 3500 
z
" transform="scale(0.015625)"/>
       <path id="DejaVuSans-69" d="M 603 3500 
L 1178 3500 
L 1178 0 
L 603 0 
L 603 3500 
z
M 603 4863 
L 1178 4863 
L 1178 4134 
L 603 4134 
L 603 4863 
z
" transform="scale(0.015625)"/>
       <path id="DejaVuSans-64" d="M 2906 2969 
L 2906 4863 
L 3481 4863 
L 3481 0 
L 2906 0 
L 2906 525 
Q 2725 213 2448 61 
Q 2172 -91 1784 -91 
Q 1150 -91 751 415 
Q 353 922 353 1747 
Q 353 2572 751 3078 
Q 1150 3584 1784 3584 
Q 2172 3584 2448 3432 
Q 2725 3281 2906 2969 
z
M 947 1747 
Q 947 1113 1208 752 
Q 1469 391 1925 391 
Q 2381 391 2643 752 
Q 2906 1113 2906 1747 
Q 2906 2381 2643 2742 
Q 2381 3103 1925 3103 
Q 1469 3103 1208 2742 
Q 947 2381 947 1747 
z
" transform="scale(0.015625)"/>
       <path id="DejaVuSans-65" d="M 3597 1894 
L 3597 1613 
L 953 1613 
Q 991 1019 1311 708 
Q 1631 397 2203 397 
Q 2534 397 2845 478 
Q 3156 559 3463 722 
L 3463 178 
Q 3153 47 2828 -22 
Q 2503 -91 2169 -91 
Q 1331 -91 842 396 
Q 353 884 353 1716 
Q 353 2575 817 3079 
Q 1281 3584 2069 3584 
Q 2775 3584 3186 3129 
Q 3597 2675 3597 1894 
z
M 3022 2063 
Q 3016 2534 2758 2815 
Q 2500 3097 2075 3097 
Q 1594 3097 1305 2825 
Q 1016 2553 972 2059 
L 3022 2063 
z
" transform="scale(0.015625)"/>
       <path id="DejaVuSans-20" transform="scale(0.015625)"/>
       <path id="DejaVuSans-70" d="M 1159 525 
L 1159 -1331 
L 581 -1331 
L 581 3500 
L 1159 3500 
L 1159 2969 
Q 1341 3281 1617 3432 
Q 1894 3584 2278 3584 
Q 2916 3584 3314 3078 
Q 3713 2572 3713 1747 
Q 3713 922 3314 415 
Q 2916 -91 2278 -91 
Q 1894 -91 1617 61 
Q 1341 213 1159 525 
z
M 3116 1747 
Q 3116 2381 2855 2742 
Q 2594 3103 2138 3103 
Q 1681 3103 1420 2742 
Q 1159 2381 1159 1747 
Q 1159 1113 1420 752 
Q 1681 391 2138 391 
Q 2594 391 2855 752 
Q 3116 1113 3116 1747 
z
" transform="scale(0.015625)"/>
       <path id="DejaVuSans-72" d="M 2631 2963 
Q 2534 3019 2420 3045 
Q 2306 3072 2169 3072 
Q 1681 3072 1420 2755 
Q 1159 2438 1159 1844 
L 1159 0 
L 581 0 
L 581 3500 
L 1159 3500 
L 1159 2956 
Q 1341 3275 1631 3429 
Q 1922 3584 2338 3584 
Q 2397 3584 2469 3576 
Q 2541 3569 2628 3553 
L 2631 2963 
z
" transform="scale(0.015625)"/>
       <path id="DejaVuSans-6f" d="M 1959 3097 
Q 1497 3097 1228 2736 
Q 959 2375 959 1747 
Q 959 1119 1226 758 
Q 1494 397 1959 397 
Q 2419 397 2687 759 
Q 2956 1122 2956 1747 
Q 2956 2369 2687 2733 
Q 2419 3097 1959 3097 
z
M 1959 3584 
Q 2709 3584 3137 3096 
Q 3566 2609 3566 1747 
Q 3566 888 3137 398 
Q 2709 -91 1959 -91 
Q 1206 -91 779 398 
Q 353 888 353 1747 
Q 353 2609 779 3096 
Q 1206 3584 1959 3584 
z
" transform="scale(0.015625)"/>
       <path id="DejaVuSans-54" d="M -19 4666 
L 3928 4666 
L 3928 4134 
L 2272 4134 
L 2272 0 
L 1638 0 
L 1638 4134 
L -19 4134 
L -19 4666 
z
" transform="scale(0.015625)"/>
       <path id="DejaVuSans-61" d="M 2194 1759 
Q 1497 1759 1228 1600 
Q 959 1441 959 1056 
Q 959 750 1161 570 
Q 1363 391 1709 391 
Q 2188 391 2477 730 
Q 2766 1069 2766 1631 
L 2766 1759 
L 2194 1759 
z
M 3341 1997 
L 3341 0 
L 2766 0 
L 2766 531 
Q 2569 213 2275 61 
Q 1981 -91 1556 -91 
Q 1019 -91 701 211 
Q 384 513 384 1019 
Q 384 1609 779 1909 
Q 1175 2209 1959 2209 
L 2766 2209 
L 2766 2266 
Q 2766 2663 2505 2880 
Q 2244 3097 1772 3097 
Q 1472 3097 1187 3025 
Q 903 2953 641 2809 
L 641 3341 
Q 956 3463 1253 3523 
Q 1550 3584 1831 3584 
Q 2591 3584 2966 3190 
Q 3341 2797 3341 1997 
z
" transform="scale(0.015625)"/>
       <path id="DejaVuSans-67" d="M 2906 1791 
Q 2906 2416 2648 2759 
Q 2391 3103 1925 3103 
Q 1463 3103 1205 2759 
Q 947 2416 947 1791 
Q 947 1169 1205 825 
Q 1463 481 1925 481 
Q 2391 481 2648 825 
Q 2906 1169 2906 1791 
z
M 3481 434 
Q 3481 -459 3084 -895 
Q 2688 -1331 1869 -1331 
Q 1566 -1331 1297 -1286 
Q 1028 -1241 775 -1147 
L 775 -588 
Q 1028 -725 1275 -790 
Q 1522 -856 1778 -856 
Q 2344 -856 2625 -561 
Q 2906 -266 2906 331 
L 2906 616 
Q 2728 306 2450 153 
Q 2172 0 1784 0 
Q 1141 0 747 490 
Q 353 981 353 1791 
Q 353 2603 747 3093 
Q 1141 3584 1784 3584 
Q 2172 3584 2450 3431 
Q 2728 3278 2906 2969 
L 2906 3500 
L 3481 3500 
L 3481 434 
z
" transform="scale(0.015625)"/>
       <path id="DejaVuSans-45" d="M 628 4666 
L 3578 4666 
L 3578 4134 
L 1259 4134 
L 1259 2753 
L 3481 2753 
L 3481 2222 
L 1259 2222 
L 1259 531 
L 3634 531 
L 3634 0 
L 628 0 
L 628 4666 
z
" transform="scale(0.015625)"/>
       <path id="DejaVuSans-77" d="M 269 3500 
L 844 3500 
L 1563 769 
L 2278 3500 
L 2956 3500 
L 3675 769 
L 4391 3500 
L 4966 3500 
L 4050 0 
L 3372 0 
L 2619 2869 
L 1863 0 
L 1184 0 
L 269 3500 
z
" transform="scale(0.015625)"/>
       <path id="DejaVuSans-68" d="M 3513 2113 
L 3513 0 
L 2938 0 
L 2938 2094 
Q 2938 2591 2744 2837 
Q 2550 3084 2163 3084 
Q 1697 3084 1428 2787 
Q 1159 2491 1159 1978 
L 1159 0 
L 581 0 
L 581 4863 
L 1159 4863 
L 1159 2956 
Q 1366 3272 1645 3428 
Q 1925 3584 2291 3584 
Q 2894 3584 3203 3211 
Q 3513 2838 3513 2113 
z
" transform="scale(0.015625)"/>
      </defs>
      <use xlink:href="#DejaVuSans-49"/>
      <use xlink:href="#DejaVuSans-6e" x="29.492188"/>
      <use xlink:href="#DejaVuSans-7a" x="92.871094"/>
      <use xlink:href="#DejaVuSans-69" x="145.361328"/>
      <use xlink:href="#DejaVuSans-64" x="173.144531"/>
      <use xlink:href="#DejaVuSans-65" x="236.621094"/>
      <use xlink:href="#DejaVuSans-6e" x="298.144531"/>
      <use xlink:href="#DejaVuSans-7a" x="361.523438"/>
      <use xlink:href="#DejaVuSans-20" x="414.013672"/>
      <use xlink:href="#DejaVuSans-70" x="445.800781"/>
      <use xlink:href="#DejaVuSans-72" x="509.277344"/>
      <use xlink:href="#DejaVuSans-6f" x="548.140625"/>
      <use xlink:href="#DejaVuSans-20" x="609.322266"/>
      <use xlink:href="#DejaVuSans-37" x="641.109375"/>
      <use xlink:href="#DejaVuSans-20" x="704.732422"/>
      <use xlink:href="#DejaVuSans-54" x="736.519531"/>
      <use xlink:href="#DejaVuSans-61" x="781.103516"/>
      <use xlink:href="#DejaVuSans-67" x="842.382812"/>
      <use xlink:href="#DejaVuSans-65" x="905.859375"/>
      <use xlink:href="#DejaVuSans-20" x="967.382812"/>
      <use xlink:href="#DejaVuSans-70" x="999.169922"/>
      <use xlink:href="#DejaVuSans-72" x="1062.646484"/>
      <use xlink:href="#DejaVuSans-6f" x="1101.509766"/>
      <use xlink:href="#DejaVuSans-20" x="1162.691406"/>
      <use xlink:href="#DejaVuSans-31" x="1194.478516"/>
      <use xlink:href="#DejaVuSans-30" x="1258.101562"/>
      <use xlink:href="#DejaVuSans-30" x="1321.724609"/>
      <use xlink:href="#DejaVuSans-2e" x="1385.347656"/>
      <use xlink:href="#DejaVuSans-30" x="1417.134766"/>
      <use xlink:href="#DejaVuSans-30" x="1480.757812"/>
      <use xlink:href="#DejaVuSans-30" x="1544.380859"/>
      <use xlink:href="#DejaVuSans-20" x="1608.003906"/>
      <use xlink:href="#DejaVuSans-45" x="1639.791016"/>
      <use xlink:href="#DejaVuSans-69" x="1702.974609"/>
      <use xlink:href="#DejaVuSans-6e" x="1730.757812"/>
      <use xlink:href="#DejaVuSans-77" x="1794.136719"/>
      <use xlink:href="#DejaVuSans-6f" x="1875.923828"/>
      <use xlink:href="#DejaVuSans-68" x="1937.105469"/>
      <use xlink:href="#DejaVuSans-6e" x="2000.484375"/>
      <use xlink:href="#DejaVuSans-65" x="2063.863281"/>
      <use xlink:href="#DejaVuSans-72" x="2125.386719"/>
     </g>
    </g>
   </g>
   <g id="line2d_33">
    <path d="M 73.832727 265.797818 
L 74.241098 265.797818 
L 74.649468 265.412041 
L 76.691321 265.141996 
L 77.099691 264.949107 
L 77.508062 265.25773 
L 78.324803 264.756219 
L 78.733173 264.524752 
L 79.141544 264.601908 
L 79.549914 264.486174 
L 81.183396 263.020219 
L 81.591767 263.251686 
L 82.000137 263.135953 
L 82.408508 261.940042 
L 82.816878 262.171509 
L 83.225249 262.055775 
L 83.633619 261.785731 
L 84.04199 261.245642 
L 84.45036 261.245642 
L 84.858731 259.355332 
L 85.267101 260.165465 
L 85.675472 259.779688 
L 86.492213 259.39391 
L 86.900583 259.972576 
L 87.308954 259.933999 
L 87.717324 261.97862 
L 88.125695 261.747153 
L 88.942436 262.441553 
L 89.350806 263.367419 
L 89.759177 263.676041 
L 90.575918 262.981642 
L 90.984288 263.791775 
L 92.2094 264.486174 
L 92.61777 264.486174 
L 93.434511 264.91053 
L 93.842882 264.756219 
L 94.659623 264.871952 
L 95.067993 264.756219 
L 95.884734 265.180574 
L 96.293105 265.064841 
L 96.701475 265.103418 
L 97.518216 264.949107 
L 97.926587 264.640485 
L 98.334957 264.756219 
L 99.560069 263.714619 
L 99.968439 262.67302 
L 100.37681 262.557286 
L 100.78518 260.08831 
L 102.010292 257.889377 
L 102.418662 257.387866 
L 102.827033 257.619333 
L 103.235403 257.310711 
L 103.643774 260.08831 
L 104.052144 260.705554 
L 105.277256 263.637464 
L 106.093997 264.447597 
L 106.502367 264.061819 
L 107.727479 264.524752 
L 108.135849 264.524752 
L 108.54422 265.026263 
L 108.95259 265.103418 
L 109.360961 265.604929 
L 110.177702 265.604929 
L 110.994443 265.682085 
L 112.219554 265.75924 
L 113.444666 265.797818 
L 114.261407 265.720663 
L 115.894889 265.643507 
L 120.386964 265.720663 
L 121.203705 265.797818 
L 123.245557 265.75924 
L 124.470669 265.566352 
L 127.737633 265.643507 
L 128.554374 265.720663 
L 134.271561 265.682085 
L 135.088302 265.489196 
L 136.313413 265.527774 
L 137.130154 265.566352 
L 137.946895 265.75924 
L 142.0306 265.450618 
L 142.847341 265.643507 
L 143.255712 265.604929 
L 143.664082 265.682085 
L 145.705935 265.527774 
L 146.522676 265.527774 
L 147.747787 265.527774 
L 148.156158 265.643507 
L 151.014751 265.604929 
L 151.423122 265.412041 
L 153.464974 265.489196 
L 153.873345 265.296307 
L 154.281715 265.489196 
L 156.731938 265.527774 
L 157.140309 265.334885 
L 159.590532 265.180574 
L 159.998902 265.25773 
L 160.407273 265.180574 
L 160.815643 264.486174 
L 161.632384 264.409019 
L 162.040755 264.409019 
L 162.449125 263.753197 
L 163.265866 263.367419 
L 164.490978 263.328842 
L 165.307719 263.367419 
L 165.716089 263.444575 
L 166.12446 263.367419 
L 166.53283 263.830352 
L 166.941201 263.714619 
L 167.757942 263.714619 
L 168.166312 263.020219 
L 168.574683 262.865908 
L 168.983053 262.248664 
L 169.391424 261.091331 
L 169.799794 260.782709 
L 171.024906 260.744132 
L 171.433276 260.666976 
L 171.841647 261.014176 
L 172.250017 260.049732 
L 172.658388 259.471065 
L 173.475129 259.471065 
L 173.883499 258.35231 
L 174.70024 257.1564 
L 175.516981 259.162443 
L 176.333722 259.162443 
L 176.742093 259.509643 
L 177.150463 259.509643 
L 177.558834 260.08831 
L 177.967204 261.361376 
L 178.783945 258.622355 
L 179.192316 258.545199 
L 179.600686 260.08831 
L 180.417427 260.281198 
L 180.825798 259.702532 
L 181.234168 259.471065 
L 181.642539 260.782709 
L 182.050909 260.821287 
L 182.45928 260.358354 
L 182.86765 259.663954 
L 183.276021 259.239599 
L 183.684391 259.008132 
L 184.092762 259.471065 
L 184.501132 259.085288 
L 184.909503 259.123866 
L 185.317873 259.316754 
L 185.726244 260.242621 
L 186.134614 259.278177 
L 186.542985 258.930977 
L 186.951355 259.74111 
L 187.359726 260.165465 
L 187.768096 260.165465 
L 188.176467 259.856843 
L 188.584837 259.972576 
L 188.993208 261.091331 
L 190.62669 259.239599 
L 191.03506 259.548221 
L 191.443431 258.159422 
L 191.851801 257.233555 
L 192.260172 257.812222 
L 192.668542 257.773644 
L 193.076913 257.117822 
L 193.485283 256.693467 
L 193.893654 255.613289 
L 194.302024 255.188934 
L 195.118765 253.722979 
L 195.527136 254.610268 
L 195.935506 254.880312 
L 196.343877 255.304667 
L 196.752247 257.233555 
L 197.160617 257.812222 
L 197.568988 257.889377 
L 197.977358 257.5036 
L 198.385729 257.812222 
L 198.794099 257.812222 
L 199.20247 258.35231 
L 199.61084 258.159422 
L 200.019211 258.738088 
L 200.835952 261.052754 
L 201.244322 260.126887 
L 201.652693 260.782709 
L 202.061063 259.355332 
L 202.469434 259.316754 
L 203.694545 259.779688 
L 204.102916 260.165465 
L 204.511286 259.586799 
L 204.919657 261.014176 
L 205.328027 260.93702 
L 205.736398 261.438531 
L 206.144768 261.554265 
L 206.961509 261.091331 
L 209.003362 261.515687 
L 209.820103 262.32582 
L 210.636844 262.557286 
L 211.453585 262.634442 
L 211.861955 262.518709 
L 212.270326 262.750175 
L 212.678696 262.750175 
L 213.087067 262.634442 
L 213.903808 262.595864 
L 214.720549 263.637464 
L 215.128919 263.714619 
L 215.53729 263.946086 
L 215.94566 263.830352 
L 216.354031 263.52173 
L 216.762401 263.637464 
L 217.170772 263.213108 
L 217.579142 263.213108 
L 218.804254 262.750175 
L 219.212624 263.058797 
L 219.620995 262.981642 
L 220.029365 262.634442 
L 220.437736 262.711597 
L 220.846106 262.904486 
L 221.254477 262.711597 
L 221.662847 263.17453 
L 222.071218 263.135953 
L 222.479588 263.213108 
L 222.887959 263.86893 
L 223.296329 263.907508 
L 223.7047 263.791775 
L 224.11307 263.830352 
L 224.521441 264.100397 
L 224.929811 263.444575 
L 225.338182 263.367419 
L 225.746552 262.788753 
L 226.154923 262.441553 
L 226.563293 262.364398 
L 226.971664 262.518709 
L 227.380034 262.132931 
L 227.788405 262.788753 
L 228.196775 262.287242 
L 228.605146 261.361376 
L 229.013516 261.399954 
L 229.830257 260.898443 
L 230.238628 260.551243 
L 230.646998 260.43551 
L 231.055369 260.666976 
L 231.463739 261.322798 
L 231.87211 261.014176 
L 233.097221 259.316754 
L 233.505592 259.432488 
L 233.913962 259.162443 
L 234.322333 258.120844 
L 235.139074 258.35231 
L 235.547444 258.197999 
L 235.955815 259.316754 
L 236.364185 258.35231 
L 236.772556 258.930977 
L 237.180926 260.43551 
L 237.997667 258.545199 
L 238.406038 259.085288 
L 238.814408 258.506621 
L 239.222779 259.04671 
L 240.03952 258.082266 
L 240.44789 257.542177 
L 240.856261 258.390888 
L 241.264631 258.275155 
L 241.673002 257.735066 
L 242.081372 258.197999 
L 242.489743 258.159422 
L 242.898113 257.812222 
L 243.306484 258.043688 
L 243.714854 257.966533 
L 244.123225 257.657911 
L 244.531595 257.927955 
L 244.939966 257.8508 
L 245.348336 257.5036 
L 245.756707 257.310711 
L 246.165077 258.429466 
L 246.573448 258.545199 
L 246.981818 259.085288 
L 247.390189 258.969555 
L 248.20693 259.201021 
L 248.6153 259.779688 
L 249.432041 260.242621 
L 249.840412 260.049732 
L 250.248782 260.319776 
L 250.657153 260.204043 
L 251.473894 261.168487 
L 251.882264 260.93702 
L 252.290635 261.28422 
L 252.699005 261.901464 
L 253.515746 262.248664 
L 254.332487 262.480131 
L 254.740858 263.405997 
L 255.557599 263.17453 
L 255.965969 263.560308 
L 256.37434 264.100397 
L 256.78271 264.21613 
L 257.191081 264.679063 
L 257.599451 264.486174 
L 258.007822 264.717641 
L 258.416192 265.75924 
L 258.824563 265.682085 
L 259.232933 265.141996 
L 259.641304 265.064841 
L 260.049674 264.833374 
L 260.866415 265.25773 
L 261.274786 264.756219 
L 261.683156 265.064841 
L 262.091527 264.871952 
L 262.499897 264.949107 
L 263.316638 265.296307 
L 264.133379 265.141996 
L 264.54175 264.949107 
L 264.95012 265.026263 
L 265.358491 264.987685 
L 265.766861 264.756219 
L 266.583602 264.679063 
L 268.217084 264.949107 
L 268.625455 265.219152 
L 269.033825 265.219152 
L 269.442196 265.103418 
L 271.075678 265.180574 
L 271.892419 265.296307 
L 272.300789 265.643507 
L 273.11753 265.643507 
L 274.342642 265.604929 
L 274.751012 265.527774 
L 276.384494 265.604929 
L 277.609605 265.450618 
L 278.017976 265.25773 
L 278.426346 265.25773 
L 278.834717 265.064841 
L 279.651458 265.103418 
L 281.28494 264.409019 
L 281.69331 264.56333 
L 283.326792 264.640485 
L 283.735163 264.794796 
L 284.960274 264.640485 
L 285.368645 264.756219 
L 285.777015 264.756219 
L 287.002127 265.296307 
L 288.635609 264.987685 
L 289.043979 264.601908 
L 289.45235 263.907508 
L 291.494202 263.135953 
L 291.902573 262.364398 
L 292.310943 262.441553 
L 292.719314 261.477109 
L 293.536055 261.129909 
L 293.944425 260.744132 
L 294.352796 259.663954 
L 294.761166 259.085288 
L 295.169537 258.082266 
L 295.577907 258.815244 
L 295.986278 258.313733 
L 296.394648 258.468044 
L 297.211389 259.355332 
L 297.61976 260.666976 
L 298.02813 261.554265 
L 298.436501 261.322798 
L 298.844871 261.669998 
L 299.253242 261.669998 
L 299.661612 261.862887 
L 300.069983 261.901464 
L 300.886724 261.014176 
L 301.295094 261.091331 
L 301.703465 261.361376 
L 302.111835 260.975598 
L 302.520206 260.744132 
L 302.928576 261.091331 
L 303.745317 262.595864 
L 304.153688 262.634442 
L 304.562058 262.557286 
L 304.970429 262.981642 
L 305.378799 262.788753 
L 306.19554 262.094353 
L 306.603911 262.210086 
L 307.420652 262.904486 
L 307.829022 262.865908 
L 308.237393 263.213108 
L 309.054134 264.254708 
L 309.462504 264.331863 
L 309.870875 264.293286 
L 310.687616 264.409019 
L 311.912727 264.331863 
L 312.321098 264.100397 
L 312.729468 264.177552 
L 313.137839 264.061819 
L 313.95458 264.023241 
L 315.179691 264.640485 
L 315.588062 264.447597 
L 316.404803 264.409019 
L 316.813173 264.21613 
L 317.221544 263.86893 
L 317.629914 263.213108 
L 318.038285 262.865908 
L 318.446655 262.210086 
L 318.855026 261.940042 
L 319.263396 261.940042 
L 319.671767 261.824309 
L 320.080137 261.438531 
L 320.896878 261.168487 
L 321.305249 261.245642 
L 321.713619 260.898443 
L 322.12199 260.898443 
L 322.53036 261.052754 
L 322.938731 261.747153 
L 323.347101 261.669998 
L 323.755472 261.322798 
L 324.980583 260.975598 
L 325.388954 261.014176 
L 325.797324 259.933999 
L 326.205695 259.471065 
L 326.614065 259.239599 
L 327.022436 259.586799 
L 327.430806 259.702532 
L 327.839177 259.702532 
L 328.655918 257.619333 
L 329.064288 256.924933 
L 329.472659 256.963511 
L 330.2894 253.915868 
L 331.106141 253.838712 
L 331.514511 252.719957 
L 331.922882 252.835691 
L 332.331252 251.022536 
L 332.739623 250.94538 
L 333.147993 251.138269 
L 333.556364 250.598181 
L 333.964734 250.598181 
L 334.781475 249.016492 
L 335.189846 249.710892 
L 335.598216 249.363692 
L 336.006587 248.476404 
L 336.414957 248.437826 
L 336.823328 248.129204 
L 337.231698 248.553559 
L 337.640069 248.514982 
L 338.048439 248.206359 
L 338.45681 248.592137 
L 338.86518 249.826625 
L 340.090292 251.601202 
L 340.498662 252.218447 
L 340.907033 252.33418 
L 341.315403 252.758535 
L 342.132144 252.642802 
L 342.540515 252.68138 
L 342.948885 253.607246 
L 343.357256 253.915868 
L 343.765626 254.610268 
L 344.173997 254.841734 
L 344.582367 256.8092 
L 344.990738 255.034623 
L 345.399108 255.343245 
L 345.807479 255.458978 
L 346.215849 255.227512 
L 346.62422 254.764579 
L 347.849331 254.378801 
L 348.257702 254.340223 
L 348.666072 250.09667 
L 349.891184 242.226807 
L 350.299554 238.098986 
L 350.707925 239.294897 
L 351.116295 235.707165 
L 351.524666 234.626988 
L 351.933036 232.389478 
L 352.341407 232.620944 
L 352.749777 231.232145 
L 353.158148 228.608857 
L 353.566518 228.686013 
L 353.974889 227.914458 
L 354.383259 224.365304 
L 355.2 210.438732 
L 356.016741 194.043184 
L 356.425111 192.307185 
L 356.833482 186.71341 
L 357.241852 177.763369 
L 357.650223 173.288349 
L 358.058593 163.875376 
L 358.466964 162.25511 
L 358.875334 158.898844 
L 359.283705 157.548623 
L 359.692075 155.388268 
L 360.508816 146.245339 
L 360.917187 143.197696 
L 361.325557 139.301342 
L 361.733928 139.417076 
L 362.142298 139.33992 
L 362.550669 140.458675 
L 362.959039 137.951121 
L 363.36741 137.719654 
L 363.77578 138.838409 
L 364.184151 140.497253 
L 364.592521 143.274852 
L 365.000892 141.654586 
L 365.409262 140.921608 
L 365.817633 144.50934 
L 366.226003 144.16214 
L 366.634374 153.11218 
L 367.042744 156.622757 
L 367.451115 154.308091 
L 367.859485 158.358756 
L 368.267856 158.898844 
L 368.676226 157.548623 
L 369.084597 161.792176 
L 369.492967 157.510045 
L 369.901338 157.587201 
L 370.309708 160.86631 
L 370.718079 161.599288 
L 371.126449 158.050134 
L 371.53482 164.49262 
L 371.94319 159.631822 
L 372.351561 152.919292 
L 372.759931 144.277873 
L 373.168302 141.538852 
L 373.576672 136.176544 
L 373.985043 132.395923 
L 374.393413 124.063127 
L 374.801784 118.315041 
L 375.210154 114.920198 
L 375.618525 103.578336 
L 376.026895 95.399851 
L 376.435266 96.557184 
L 376.843636 91.657808 
L 377.660377 69.707063 
L 378.068748 64.961998 
L 378.477118 66.852308 
L 378.885489 63.611777 
L 379.293859 67.971064 
L 379.70223 54.275959 
L 380.1106 52.154182 
L 380.518971 59.831156 
L 380.927341 55.201825 
L 381.335712 54.931781 
L 381.744082 57.169291 
L 382.152453 57.593646 
L 382.560823 73.71915 
L 382.969194 69.938529 
L 383.377564 73.140483 
L 383.785935 86.2955 
L 384.602676 103.269714 
L 385.011046 103.153981 
L 385.419417 102.035226 
L 385.827787 113.955754 
L 386.236158 113.454243 
L 386.644528 113.531398 
L 387.461269 111.679666 
L 387.86964 111.872555 
L 388.27801 108.400556 
L 388.686381 113.569976 
L 389.094751 116.77193 
L 389.503122 113.994332 
L 389.911492 139.031298 
L 390.319863 131.740101 
L 390.728233 131.508635 
L 391.136604 132.62739 
L 391.544974 146.05245 
L 391.953345 132.434501 
L 392.361715 140.844453 
L 392.770086 125.374771 
L 393.178456 136.832366 
L 393.586827 137.063832 
L 393.995197 147.556983 
L 394.403568 140.728719 
L 394.811938 163.952531 
L 396.03705 180.888168 
L 396.44542 180.618124 
L 397.262161 188.217942 
L 397.670532 193.734562 
L 398.078902 196.01065 
L 398.487273 196.936516 
L 398.487273 196.936516 
" clip-path="url(#p18b2d2d771)" style="fill: none; stroke: #1f77b4; stroke-width: 1.5; stroke-linecap: square"/>
   </g>
   <g id="patch_3">
    <path d="M 57.6 276.48 
L 57.6 41.472 
" style="fill: none; stroke: #000000; stroke-width: 0.8; stroke-linejoin: miter; stroke-linecap: square"/>
   </g>
   <g id="patch_4">
    <path d="M 414.72 276.48 
L 414.72 41.472 
" style="fill: none; stroke: #000000; stroke-width: 0.8; stroke-linejoin: miter; stroke-linecap: square"/>
   </g>
   <g id="patch_5">
    <path d="M 57.6 276.48 
L 414.72 276.48 
" style="fill: none; stroke: #000000; stroke-width: 0.8; stroke-linejoin: miter; stroke-linecap: square"/>
   </g>
   <g id="patch_6">
    <path d="M 57.6 41.472 
L 414.72 41.472 
" style="fill: none; stroke: #000000; stroke-width: 0.8; stroke-linejoin: miter; stroke-linecap: square"/>
   </g>
  </g>
  <g id="text_18">
   <!-- Inzidenzverlauf LK Coesfeld -->
   <g transform="translate(106.111406 20.589187)scale(0.18 -0.18)">
    <defs>
     <path id="DejaVuSans-76" d="M 191 3500 
L 800 3500 
L 1894 563 
L 2988 3500 
L 3597 3500 
L 2284 0 
L 1503 0 
L 191 3500 
z
" transform="scale(0.015625)"/>
     <path id="DejaVuSans-6c" d="M 603 4863 
L 1178 4863 
L 1178 0 
L 603 0 
L 603 4863 
z
" transform="scale(0.015625)"/>
     <path id="DejaVuSans-75" d="M 544 1381 
L 544 3500 
L 1119 3500 
L 1119 1403 
Q 1119 906 1312 657 
Q 1506 409 1894 409 
Q 2359 409 2629 706 
Q 2900 1003 2900 1516 
L 2900 3500 
L 3475 3500 
L 3475 0 
L 2900 0 
L 2900 538 
Q 2691 219 2414 64 
Q 2138 -91 1772 -91 
Q 1169 -91 856 284 
Q 544 659 544 1381 
z
M 1991 3584 
L 1991 3584 
z
" transform="scale(0.015625)"/>
     <path id="DejaVuSans-66" d="M 2375 4863 
L 2375 4384 
L 1825 4384 
Q 1516 4384 1395 4259 
Q 1275 4134 1275 3809 
L 1275 3500 
L 2222 3500 
L 2222 3053 
L 1275 3053 
L 1275 0 
L 697 0 
L 697 3053 
L 147 3053 
L 147 3500 
L 697 3500 
L 697 3744 
Q 697 4328 969 4595 
Q 1241 4863 1831 4863 
L 2375 4863 
z
" transform="scale(0.015625)"/>
     <path id="DejaVuSans-4c" d="M 628 4666 
L 1259 4666 
L 1259 531 
L 3531 531 
L 3531 0 
L 628 0 
L 628 4666 
z
" transform="scale(0.015625)"/>
     <path id="DejaVuSans-4b" d="M 628 4666 
L 1259 4666 
L 1259 2694 
L 3353 4666 
L 4166 4666 
L 1850 2491 
L 4331 0 
L 3500 0 
L 1259 2247 
L 1259 0 
L 628 0 
L 628 4666 
z
" transform="scale(0.015625)"/>
     <path id="DejaVuSans-43" d="M 4122 4306 
L 4122 3641 
Q 3803 3938 3442 4084 
Q 3081 4231 2675 4231 
Q 1875 4231 1450 3742 
Q 1025 3253 1025 2328 
Q 1025 1406 1450 917 
Q 1875 428 2675 428 
Q 3081 428 3442 575 
Q 3803 722 4122 1019 
L 4122 359 
Q 3791 134 3420 21 
Q 3050 -91 2638 -91 
Q 1578 -91 968 557 
Q 359 1206 359 2328 
Q 359 3453 968 4101 
Q 1578 4750 2638 4750 
Q 3056 4750 3426 4639 
Q 3797 4528 4122 4306 
z
" transform="scale(0.015625)"/>
     <path id="DejaVuSans-73" d="M 2834 3397 
L 2834 2853 
Q 2591 2978 2328 3040 
Q 2066 3103 1784 3103 
Q 1356 3103 1142 2972 
Q 928 2841 928 2578 
Q 928 2378 1081 2264 
Q 1234 2150 1697 2047 
L 1894 2003 
Q 2506 1872 2764 1633 
Q 3022 1394 3022 966 
Q 3022 478 2636 193 
Q 2250 -91 1575 -91 
Q 1294 -91 989 -36 
Q 684 19 347 128 
L 347 722 
Q 666 556 975 473 
Q 1284 391 1588 391 
Q 1994 391 2212 530 
Q 2431 669 2431 922 
Q 2431 1156 2273 1281 
Q 2116 1406 1581 1522 
L 1381 1569 
Q 847 1681 609 1914 
Q 372 2147 372 2553 
Q 372 3047 722 3315 
Q 1072 3584 1716 3584 
Q 2034 3584 2315 3537 
Q 2597 3491 2834 3397 
z
" transform="scale(0.015625)"/>
    </defs>
    <use xlink:href="#DejaVuSans-49"/>
    <use xlink:href="#DejaVuSans-6e" x="29.492188"/>
    <use xlink:href="#DejaVuSans-7a" x="92.871094"/>
    <use xlink:href="#DejaVuSans-69" x="145.361328"/>
    <use xlink:href="#DejaVuSans-64" x="173.144531"/>
    <use xlink:href="#DejaVuSans-65" x="236.621094"/>
    <use xlink:href="#DejaVuSans-6e" x="298.144531"/>
    <use xlink:href="#DejaVuSans-7a" x="361.523438"/>
    <use xlink:href="#DejaVuSans-76" x="414.013672"/>
    <use xlink:href="#DejaVuSans-65" x="473.193359"/>
    <use xlink:href="#DejaVuSans-72" x="534.716797"/>
    <use xlink:href="#DejaVuSans-6c" x="575.830078"/>
    <use xlink:href="#DejaVuSans-61" x="603.613281"/>
    <use xlink:href="#DejaVuSans-75" x="664.892578"/>
    <use xlink:href="#DejaVuSans-66" x="728.271484"/>
    <use xlink:href="#DejaVuSans-20" x="763.476562"/>
    <use xlink:href="#DejaVuSans-4c" x="795.263672"/>
    <use xlink:href="#DejaVuSans-4b" x="850.976562"/>
    <use xlink:href="#DejaVuSans-20" x="916.552734"/>
    <use xlink:href="#DejaVuSans-43" x="948.339844"/>
    <use xlink:href="#DejaVuSans-6f" x="1018.164062"/>
    <use xlink:href="#DejaVuSans-65" x="1079.345703"/>
    <use xlink:href="#DejaVuSans-73" x="1140.869141"/>
    <use xlink:href="#DejaVuSans-66" x="1192.96875"/>
    <use xlink:href="#DejaVuSans-65" x="1228.173828"/>
    <use xlink:href="#DejaVuSans-6c" x="1289.697266"/>
    <use xlink:href="#DejaVuSans-64" x="1317.480469"/>
   </g>
  </g>
 </g>
 <defs>
  <clipPath id="p18b2d2d771">
   <rect x="57.6" y="41.472" width="357.12" height="235.008"/>
  </clipPath>
 </defs>
</svg>
