<?xml version="1.0" encoding="utf-8" standalone="no"?>
<!DOCTYPE svg PUBLIC "-//W3C//DTD SVG 1.1//EN"
  "http://www.w3.org/Graphics/SVG/1.1/DTD/svg11.dtd">
<svg xmlns:xlink="http://www.w3.org/1999/xlink" width="460.8pt" height="345.6pt" viewBox="0 0 460.8 345.6" xmlns="http://www.w3.org/2000/svg" version="1.1">
 <metadata>
  <rdf:RDF xmlns:dc="http://purl.org/dc/elements/1.1/" xmlns:cc="http://creativecommons.org/ns#" xmlns:rdf="http://www.w3.org/1999/02/22-rdf-syntax-ns#">
   <cc:Work>
    <dc:type rdf:resource="http://purl.org/dc/dcmitype/StillImage"/>
    <dc:date>2022-01-20T09:21:14.410283</dc:date>
    <dc:format>image/svg+xml</dc:format>
    <dc:creator>
     <cc:Agent>
      <dc:title>Matplotlib v3.5.1, https://matplotlib.org/</dc:title>
     </cc:Agent>
    </dc:creator>
   </cc:Work>
  </rdf:RDF>
 </metadata>
 <defs>
  <style type="text/css">*{stroke-linejoin: round; stroke-linecap: butt}</style>
 </defs>
 <g id="figure_1">
  <g id="patch_1">
   <path d="M 0 345.6 
L 460.8 345.6 
L 460.8 0 
L 0 0 
z
" style="fill: #ffffff"/>
  </g>
  <g id="axes_1">
   <g id="patch_2">
    <path d="M 57.6 276.48 
L 414.72 276.48 
L 414.72 41.472 
L 57.6 41.472 
z
" style="fill: #ffffff"/>
   </g>
   <g id="matplotlib.axis_1">
    <g id="xtick_1">
     <g id="line2d_1">
      <path d="M 59.34203 276.48 
L 59.34203 41.472 
" clip-path="url(#p0e7a4a45f2)" style="fill: none; stroke-dasharray: 2.96,1.28; stroke-dashoffset: 0; stroke: #808080; stroke-width: 0.8"/>
     </g>
     <g id="line2d_2">
      <defs>
       <path id="mfc27249c77" d="M 0 0 
L 0 3.5 
" style="stroke: #000000; stroke-width: 0.8"/>
      </defs>
      <g>
       <use xlink:href="#mfc27249c77" x="59.34203" y="276.48" style="stroke: #000000; stroke-width: 0.8"/>
      </g>
     </g>
     <g id="text_1">
      <!-- 01.02.2020 -->
      <g transform="translate(8.716819 318.688565)rotate(-30)scale(0.1 -0.1)">
       <defs>
        <path id="DejaVuSans-30" d="M 2034 4250 
Q 1547 4250 1301 3770 
Q 1056 3291 1056 2328 
Q 1056 1369 1301 889 
Q 1547 409 2034 409 
Q 2525 409 2770 889 
Q 3016 1369 3016 2328 
Q 3016 3291 2770 3770 
Q 2525 4250 2034 4250 
z
M 2034 4750 
Q 2819 4750 3233 4129 
Q 3647 3509 3647 2328 
Q 3647 1150 3233 529 
Q 2819 -91 2034 -91 
Q 1250 -91 836 529 
Q 422 1150 422 2328 
Q 422 3509 836 4129 
Q 1250 4750 2034 4750 
z
" transform="scale(0.015625)"/>
        <path id="DejaVuSans-31" d="M 794 531 
L 1825 531 
L 1825 4091 
L 703 3866 
L 703 4441 
L 1819 4666 
L 2450 4666 
L 2450 531 
L 3481 531 
L 3481 0 
L 794 0 
L 794 531 
z
" transform="scale(0.015625)"/>
        <path id="DejaVuSans-2e" d="M 684 794 
L 1344 794 
L 1344 0 
L 684 0 
L 684 794 
z
" transform="scale(0.015625)"/>
        <path id="DejaVuSans-32" d="M 1228 531 
L 3431 531 
L 3431 0 
L 469 0 
L 469 531 
Q 828 903 1448 1529 
Q 2069 2156 2228 2338 
Q 2531 2678 2651 2914 
Q 2772 3150 2772 3378 
Q 2772 3750 2511 3984 
Q 2250 4219 1831 4219 
Q 1534 4219 1204 4116 
Q 875 4013 500 3803 
L 500 4441 
Q 881 4594 1212 4672 
Q 1544 4750 1819 4750 
Q 2544 4750 2975 4387 
Q 3406 4025 3406 3419 
Q 3406 3131 3298 2873 
Q 3191 2616 2906 2266 
Q 2828 2175 2409 1742 
Q 1991 1309 1228 531 
z
" transform="scale(0.015625)"/>
       </defs>
       <use xlink:href="#DejaVuSans-30"/>
       <use xlink:href="#DejaVuSans-31" x="63.623047"/>
       <use xlink:href="#DejaVuSans-2e" x="127.246094"/>
       <use xlink:href="#DejaVuSans-30" x="159.033203"/>
       <use xlink:href="#DejaVuSans-32" x="222.65625"/>
       <use xlink:href="#DejaVuSans-2e" x="286.279297"/>
       <use xlink:href="#DejaVuSans-32" x="318.066406"/>
       <use xlink:href="#DejaVuSans-30" x="381.689453"/>
       <use xlink:href="#DejaVuSans-32" x="445.3125"/>
       <use xlink:href="#DejaVuSans-30" x="508.935547"/>
      </g>
     </g>
    </g>
    <g id="xtick_2">
     <g id="line2d_3">
      <path d="M 95.205032 276.48 
L 95.205032 41.472 
" clip-path="url(#p0e7a4a45f2)" style="fill: none; stroke-dasharray: 2.96,1.28; stroke-dashoffset: 0; stroke: #808080; stroke-width: 0.8"/>
     </g>
     <g id="line2d_4">
      <g>
       <use xlink:href="#mfc27249c77" x="95.205032" y="276.48" style="stroke: #000000; stroke-width: 0.8"/>
      </g>
     </g>
     <g id="text_2">
      <!-- 17.04.2020 -->
      <g transform="translate(44.579821 318.688565)rotate(-30)scale(0.1 -0.1)">
       <defs>
        <path id="DejaVuSans-37" d="M 525 4666 
L 3525 4666 
L 3525 4397 
L 1831 0 
L 1172 0 
L 2766 4134 
L 525 4134 
L 525 4666 
z
" transform="scale(0.015625)"/>
        <path id="DejaVuSans-34" d="M 2419 4116 
L 825 1625 
L 2419 1625 
L 2419 4116 
z
M 2253 4666 
L 3047 4666 
L 3047 1625 
L 3713 1625 
L 3713 1100 
L 3047 1100 
L 3047 0 
L 2419 0 
L 2419 1100 
L 313 1100 
L 313 1709 
L 2253 4666 
z
" transform="scale(0.015625)"/>
       </defs>
       <use xlink:href="#DejaVuSans-31"/>
       <use xlink:href="#DejaVuSans-37" x="63.623047"/>
       <use xlink:href="#DejaVuSans-2e" x="127.246094"/>
       <use xlink:href="#DejaVuSans-30" x="159.033203"/>
       <use xlink:href="#DejaVuSans-34" x="222.65625"/>
       <use xlink:href="#DejaVuSans-2e" x="286.279297"/>
       <use xlink:href="#DejaVuSans-32" x="318.066406"/>
       <use xlink:href="#DejaVuSans-30" x="381.689453"/>
       <use xlink:href="#DejaVuSans-32" x="445.3125"/>
       <use xlink:href="#DejaVuSans-30" x="508.935547"/>
      </g>
     </g>
    </g>
    <g id="xtick_3">
     <g id="line2d_5">
      <path d="M 131.068034 276.48 
L 131.068034 41.472 
" clip-path="url(#p0e7a4a45f2)" style="fill: none; stroke-dasharray: 2.96,1.28; stroke-dashoffset: 0; stroke: #808080; stroke-width: 0.8"/>
     </g>
     <g id="line2d_6">
      <g>
       <use xlink:href="#mfc27249c77" x="131.068034" y="276.48" style="stroke: #000000; stroke-width: 0.8"/>
      </g>
     </g>
     <g id="text_3">
      <!-- 02.07.2020 -->
      <g transform="translate(80.442823 318.688565)rotate(-30)scale(0.1 -0.1)">
       <use xlink:href="#DejaVuSans-30"/>
       <use xlink:href="#DejaVuSans-32" x="63.623047"/>
       <use xlink:href="#DejaVuSans-2e" x="127.246094"/>
       <use xlink:href="#DejaVuSans-30" x="159.033203"/>
       <use xlink:href="#DejaVuSans-37" x="222.65625"/>
       <use xlink:href="#DejaVuSans-2e" x="286.279297"/>
       <use xlink:href="#DejaVuSans-32" x="318.066406"/>
       <use xlink:href="#DejaVuSans-30" x="381.689453"/>
       <use xlink:href="#DejaVuSans-32" x="445.3125"/>
       <use xlink:href="#DejaVuSans-30" x="508.935547"/>
      </g>
     </g>
    </g>
    <g id="xtick_4">
     <g id="line2d_7">
      <path d="M 166.931036 276.48 
L 166.931036 41.472 
" clip-path="url(#p0e7a4a45f2)" style="fill: none; stroke-dasharray: 2.96,1.28; stroke-dashoffset: 0; stroke: #808080; stroke-width: 0.8"/>
     </g>
     <g id="line2d_8">
      <g>
       <use xlink:href="#mfc27249c77" x="166.931036" y="276.48" style="stroke: #000000; stroke-width: 0.8"/>
      </g>
     </g>
     <g id="text_4">
      <!-- 16.09.2020 -->
      <g transform="translate(116.305825 318.688565)rotate(-30)scale(0.1 -0.1)">
       <defs>
        <path id="DejaVuSans-36" d="M 2113 2584 
Q 1688 2584 1439 2293 
Q 1191 2003 1191 1497 
Q 1191 994 1439 701 
Q 1688 409 2113 409 
Q 2538 409 2786 701 
Q 3034 994 3034 1497 
Q 3034 2003 2786 2293 
Q 2538 2584 2113 2584 
z
M 3366 4563 
L 3366 3988 
Q 3128 4100 2886 4159 
Q 2644 4219 2406 4219 
Q 1781 4219 1451 3797 
Q 1122 3375 1075 2522 
Q 1259 2794 1537 2939 
Q 1816 3084 2150 3084 
Q 2853 3084 3261 2657 
Q 3669 2231 3669 1497 
Q 3669 778 3244 343 
Q 2819 -91 2113 -91 
Q 1303 -91 875 529 
Q 447 1150 447 2328 
Q 447 3434 972 4092 
Q 1497 4750 2381 4750 
Q 2619 4750 2861 4703 
Q 3103 4656 3366 4563 
z
" transform="scale(0.015625)"/>
        <path id="DejaVuSans-39" d="M 703 97 
L 703 672 
Q 941 559 1184 500 
Q 1428 441 1663 441 
Q 2288 441 2617 861 
Q 2947 1281 2994 2138 
Q 2813 1869 2534 1725 
Q 2256 1581 1919 1581 
Q 1219 1581 811 2004 
Q 403 2428 403 3163 
Q 403 3881 828 4315 
Q 1253 4750 1959 4750 
Q 2769 4750 3195 4129 
Q 3622 3509 3622 2328 
Q 3622 1225 3098 567 
Q 2575 -91 1691 -91 
Q 1453 -91 1209 -44 
Q 966 3 703 97 
z
M 1959 2075 
Q 2384 2075 2632 2365 
Q 2881 2656 2881 3163 
Q 2881 3666 2632 3958 
Q 2384 4250 1959 4250 
Q 1534 4250 1286 3958 
Q 1038 3666 1038 3163 
Q 1038 2656 1286 2365 
Q 1534 2075 1959 2075 
z
" transform="scale(0.015625)"/>
       </defs>
       <use xlink:href="#DejaVuSans-31"/>
       <use xlink:href="#DejaVuSans-36" x="63.623047"/>
       <use xlink:href="#DejaVuSans-2e" x="127.246094"/>
       <use xlink:href="#DejaVuSans-30" x="159.033203"/>
       <use xlink:href="#DejaVuSans-39" x="222.65625"/>
       <use xlink:href="#DejaVuSans-2e" x="286.279297"/>
       <use xlink:href="#DejaVuSans-32" x="318.066406"/>
       <use xlink:href="#DejaVuSans-30" x="381.689453"/>
       <use xlink:href="#DejaVuSans-32" x="445.3125"/>
       <use xlink:href="#DejaVuSans-30" x="508.935547"/>
      </g>
     </g>
    </g>
    <g id="xtick_5">
     <g id="line2d_9">
      <path d="M 202.794038 276.48 
L 202.794038 41.472 
" clip-path="url(#p0e7a4a45f2)" style="fill: none; stroke-dasharray: 2.96,1.28; stroke-dashoffset: 0; stroke: #808080; stroke-width: 0.8"/>
     </g>
     <g id="line2d_10">
      <g>
       <use xlink:href="#mfc27249c77" x="202.794038" y="276.48" style="stroke: #000000; stroke-width: 0.8"/>
      </g>
     </g>
     <g id="text_5">
      <!-- 01.12.2020 -->
      <g transform="translate(152.168827 318.688565)rotate(-30)scale(0.1 -0.1)">
       <use xlink:href="#DejaVuSans-30"/>
       <use xlink:href="#DejaVuSans-31" x="63.623047"/>
       <use xlink:href="#DejaVuSans-2e" x="127.246094"/>
       <use xlink:href="#DejaVuSans-31" x="159.033203"/>
       <use xlink:href="#DejaVuSans-32" x="222.65625"/>
       <use xlink:href="#DejaVuSans-2e" x="286.279297"/>
       <use xlink:href="#DejaVuSans-32" x="318.066406"/>
       <use xlink:href="#DejaVuSans-30" x="381.689453"/>
       <use xlink:href="#DejaVuSans-32" x="445.3125"/>
       <use xlink:href="#DejaVuSans-30" x="508.935547"/>
      </g>
     </g>
    </g>
    <g id="xtick_6">
     <g id="line2d_11">
      <path d="M 238.65704 276.48 
L 238.65704 41.472 
" clip-path="url(#p0e7a4a45f2)" style="fill: none; stroke-dasharray: 2.96,1.28; stroke-dashoffset: 0; stroke: #808080; stroke-width: 0.8"/>
     </g>
     <g id="line2d_12">
      <g>
       <use xlink:href="#mfc27249c77" x="238.65704" y="276.48" style="stroke: #000000; stroke-width: 0.8"/>
      </g>
     </g>
     <g id="text_6">
      <!-- 15.02.2021 -->
      <g transform="translate(188.031829 318.688565)rotate(-30)scale(0.1 -0.1)">
       <defs>
        <path id="DejaVuSans-35" d="M 691 4666 
L 3169 4666 
L 3169 4134 
L 1269 4134 
L 1269 2991 
Q 1406 3038 1543 3061 
Q 1681 3084 1819 3084 
Q 2600 3084 3056 2656 
Q 3513 2228 3513 1497 
Q 3513 744 3044 326 
Q 2575 -91 1722 -91 
Q 1428 -91 1123 -41 
Q 819 9 494 109 
L 494 744 
Q 775 591 1075 516 
Q 1375 441 1709 441 
Q 2250 441 2565 725 
Q 2881 1009 2881 1497 
Q 2881 1984 2565 2268 
Q 2250 2553 1709 2553 
Q 1456 2553 1204 2497 
Q 953 2441 691 2322 
L 691 4666 
z
" transform="scale(0.015625)"/>
       </defs>
       <use xlink:href="#DejaVuSans-31"/>
       <use xlink:href="#DejaVuSans-35" x="63.623047"/>
       <use xlink:href="#DejaVuSans-2e" x="127.246094"/>
       <use xlink:href="#DejaVuSans-30" x="159.033203"/>
       <use xlink:href="#DejaVuSans-32" x="222.65625"/>
       <use xlink:href="#DejaVuSans-2e" x="286.279297"/>
       <use xlink:href="#DejaVuSans-32" x="318.066406"/>
       <use xlink:href="#DejaVuSans-30" x="381.689453"/>
       <use xlink:href="#DejaVuSans-32" x="445.3125"/>
       <use xlink:href="#DejaVuSans-31" x="508.935547"/>
      </g>
     </g>
    </g>
    <g id="xtick_7">
     <g id="line2d_13">
      <path d="M 274.520042 276.48 
L 274.520042 41.472 
" clip-path="url(#p0e7a4a45f2)" style="fill: none; stroke-dasharray: 2.96,1.28; stroke-dashoffset: 0; stroke: #808080; stroke-width: 0.8"/>
     </g>
     <g id="line2d_14">
      <g>
       <use xlink:href="#mfc27249c77" x="274.520042" y="276.48" style="stroke: #000000; stroke-width: 0.8"/>
      </g>
     </g>
     <g id="text_7">
      <!-- 02.05.2021 -->
      <g transform="translate(223.894832 318.688565)rotate(-30)scale(0.1 -0.1)">
       <use xlink:href="#DejaVuSans-30"/>
       <use xlink:href="#DejaVuSans-32" x="63.623047"/>
       <use xlink:href="#DejaVuSans-2e" x="127.246094"/>
       <use xlink:href="#DejaVuSans-30" x="159.033203"/>
       <use xlink:href="#DejaVuSans-35" x="222.65625"/>
       <use xlink:href="#DejaVuSans-2e" x="286.279297"/>
       <use xlink:href="#DejaVuSans-32" x="318.066406"/>
       <use xlink:href="#DejaVuSans-30" x="381.689453"/>
       <use xlink:href="#DejaVuSans-32" x="445.3125"/>
       <use xlink:href="#DejaVuSans-31" x="508.935547"/>
      </g>
     </g>
    </g>
    <g id="xtick_8">
     <g id="line2d_15">
      <path d="M 310.383044 276.48 
L 310.383044 41.472 
" clip-path="url(#p0e7a4a45f2)" style="fill: none; stroke-dasharray: 2.96,1.28; stroke-dashoffset: 0; stroke: #808080; stroke-width: 0.8"/>
     </g>
     <g id="line2d_16">
      <g>
       <use xlink:href="#mfc27249c77" x="310.383044" y="276.48" style="stroke: #000000; stroke-width: 0.8"/>
      </g>
     </g>
     <g id="text_8">
      <!-- 17.07.2021 -->
      <g transform="translate(259.757834 318.688565)rotate(-30)scale(0.1 -0.1)">
       <use xlink:href="#DejaVuSans-31"/>
       <use xlink:href="#DejaVuSans-37" x="63.623047"/>
       <use xlink:href="#DejaVuSans-2e" x="127.246094"/>
       <use xlink:href="#DejaVuSans-30" x="159.033203"/>
       <use xlink:href="#DejaVuSans-37" x="222.65625"/>
       <use xlink:href="#DejaVuSans-2e" x="286.279297"/>
       <use xlink:href="#DejaVuSans-32" x="318.066406"/>
       <use xlink:href="#DejaVuSans-30" x="381.689453"/>
       <use xlink:href="#DejaVuSans-32" x="445.3125"/>
       <use xlink:href="#DejaVuSans-31" x="508.935547"/>
      </g>
     </g>
    </g>
    <g id="xtick_9">
     <g id="line2d_17">
      <path d="M 346.246047 276.48 
L 346.246047 41.472 
" clip-path="url(#p0e7a4a45f2)" style="fill: none; stroke-dasharray: 2.96,1.28; stroke-dashoffset: 0; stroke: #808080; stroke-width: 0.8"/>
     </g>
     <g id="line2d_18">
      <g>
       <use xlink:href="#mfc27249c77" x="346.246047" y="276.48" style="stroke: #000000; stroke-width: 0.8"/>
      </g>
     </g>
     <g id="text_9">
      <!-- 01.10.2021 -->
      <g transform="translate(295.620836 318.688565)rotate(-30)scale(0.1 -0.1)">
       <use xlink:href="#DejaVuSans-30"/>
       <use xlink:href="#DejaVuSans-31" x="63.623047"/>
       <use xlink:href="#DejaVuSans-2e" x="127.246094"/>
       <use xlink:href="#DejaVuSans-31" x="159.033203"/>
       <use xlink:href="#DejaVuSans-30" x="222.65625"/>
       <use xlink:href="#DejaVuSans-2e" x="286.279297"/>
       <use xlink:href="#DejaVuSans-32" x="318.066406"/>
       <use xlink:href="#DejaVuSans-30" x="381.689453"/>
       <use xlink:href="#DejaVuSans-32" x="445.3125"/>
       <use xlink:href="#DejaVuSans-31" x="508.935547"/>
      </g>
     </g>
    </g>
    <g id="xtick_10">
     <g id="line2d_19">
      <path d="M 382.109049 276.48 
L 382.109049 41.472 
" clip-path="url(#p0e7a4a45f2)" style="fill: none; stroke-dasharray: 2.96,1.28; stroke-dashoffset: 0; stroke: #808080; stroke-width: 0.8"/>
     </g>
     <g id="line2d_20">
      <g>
       <use xlink:href="#mfc27249c77" x="382.109049" y="276.48" style="stroke: #000000; stroke-width: 0.8"/>
      </g>
     </g>
     <g id="text_10">
      <!-- 16.12.2021 -->
      <g transform="translate(331.483838 318.688565)rotate(-30)scale(0.1 -0.1)">
       <use xlink:href="#DejaVuSans-31"/>
       <use xlink:href="#DejaVuSans-36" x="63.623047"/>
       <use xlink:href="#DejaVuSans-2e" x="127.246094"/>
       <use xlink:href="#DejaVuSans-31" x="159.033203"/>
       <use xlink:href="#DejaVuSans-32" x="222.65625"/>
       <use xlink:href="#DejaVuSans-2e" x="286.279297"/>
       <use xlink:href="#DejaVuSans-32" x="318.066406"/>
       <use xlink:href="#DejaVuSans-30" x="381.689453"/>
       <use xlink:href="#DejaVuSans-32" x="445.3125"/>
       <use xlink:href="#DejaVuSans-31" x="508.935547"/>
      </g>
     </g>
    </g>
   </g>
   <g id="matplotlib.axis_2">
    <g id="ytick_1">
     <g id="line2d_21">
      <path d="M 57.6 265.797818 
L 414.72 265.797818 
" clip-path="url(#p0e7a4a45f2)" style="fill: none; stroke-dasharray: 2.96,1.28; stroke-dashoffset: 0; stroke: #808080; stroke-width: 0.8"/>
     </g>
     <g id="line2d_22">
      <defs>
       <path id="m4cb0e93e54" d="M 0 0 
L -3.5 0 
" style="stroke: #000000; stroke-width: 0.8"/>
      </defs>
      <g>
       <use xlink:href="#m4cb0e93e54" x="57.6" y="265.797818" style="stroke: #000000; stroke-width: 0.8"/>
      </g>
     </g>
     <g id="text_11">
      <!-- 0 -->
      <g transform="translate(44.2375 269.597037)scale(0.1 -0.1)">
       <use xlink:href="#DejaVuSans-30"/>
      </g>
     </g>
    </g>
    <g id="ytick_2">
     <g id="line2d_23">
      <path d="M 57.6 233.711254 
L 414.72 233.711254 
" clip-path="url(#p0e7a4a45f2)" style="fill: none; stroke-dasharray: 2.96,1.28; stroke-dashoffset: 0; stroke: #808080; stroke-width: 0.8"/>
     </g>
     <g id="line2d_24">
      <g>
       <use xlink:href="#m4cb0e93e54" x="57.6" y="233.711254" style="stroke: #000000; stroke-width: 0.8"/>
      </g>
     </g>
     <g id="text_12">
      <!-- 250 -->
      <g transform="translate(31.5125 237.510473)scale(0.1 -0.1)">
       <use xlink:href="#DejaVuSans-32"/>
       <use xlink:href="#DejaVuSans-35" x="63.623047"/>
       <use xlink:href="#DejaVuSans-30" x="127.246094"/>
      </g>
     </g>
    </g>
    <g id="ytick_3">
     <g id="line2d_25">
      <path d="M 57.6 201.62469 
L 414.72 201.62469 
" clip-path="url(#p0e7a4a45f2)" style="fill: none; stroke-dasharray: 2.96,1.28; stroke-dashoffset: 0; stroke: #808080; stroke-width: 0.8"/>
     </g>
     <g id="line2d_26">
      <g>
       <use xlink:href="#m4cb0e93e54" x="57.6" y="201.62469" style="stroke: #000000; stroke-width: 0.8"/>
      </g>
     </g>
     <g id="text_13">
      <!-- 500 -->
      <g transform="translate(31.5125 205.423908)scale(0.1 -0.1)">
       <use xlink:href="#DejaVuSans-35"/>
       <use xlink:href="#DejaVuSans-30" x="63.623047"/>
       <use xlink:href="#DejaVuSans-30" x="127.246094"/>
      </g>
     </g>
    </g>
    <g id="ytick_4">
     <g id="line2d_27">
      <path d="M 57.6 169.538125 
L 414.72 169.538125 
" clip-path="url(#p0e7a4a45f2)" style="fill: none; stroke-dasharray: 2.96,1.28; stroke-dashoffset: 0; stroke: #808080; stroke-width: 0.8"/>
     </g>
     <g id="line2d_28">
      <g>
       <use xlink:href="#m4cb0e93e54" x="57.6" y="169.538125" style="stroke: #000000; stroke-width: 0.8"/>
      </g>
     </g>
     <g id="text_14">
      <!-- 750 -->
      <g transform="translate(31.5125 173.337344)scale(0.1 -0.1)">
       <use xlink:href="#DejaVuSans-37"/>
       <use xlink:href="#DejaVuSans-35" x="63.623047"/>
       <use xlink:href="#DejaVuSans-30" x="127.246094"/>
      </g>
     </g>
    </g>
    <g id="ytick_5">
     <g id="line2d_29">
      <path d="M 57.6 137.451561 
L 414.72 137.451561 
" clip-path="url(#p0e7a4a45f2)" style="fill: none; stroke-dasharray: 2.96,1.28; stroke-dashoffset: 0; stroke: #808080; stroke-width: 0.8"/>
     </g>
     <g id="line2d_30">
      <g>
       <use xlink:href="#m4cb0e93e54" x="57.6" y="137.451561" style="stroke: #000000; stroke-width: 0.8"/>
      </g>
     </g>
     <g id="text_15">
      <!-- 1000 -->
      <g transform="translate(25.15 141.25078)scale(0.1 -0.1)">
       <use xlink:href="#DejaVuSans-31"/>
       <use xlink:href="#DejaVuSans-30" x="63.623047"/>
       <use xlink:href="#DejaVuSans-30" x="127.246094"/>
       <use xlink:href="#DejaVuSans-30" x="190.869141"/>
      </g>
     </g>
    </g>
    <g id="ytick_6">
     <g id="line2d_31">
      <path d="M 57.6 105.364997 
L 414.72 105.364997 
" clip-path="url(#p0e7a4a45f2)" style="fill: none; stroke-dasharray: 2.96,1.28; stroke-dashoffset: 0; stroke: #808080; stroke-width: 0.8"/>
     </g>
     <g id="line2d_32">
      <g>
       <use xlink:href="#m4cb0e93e54" x="57.6" y="105.364997" style="stroke: #000000; stroke-width: 0.8"/>
      </g>
     </g>
     <g id="text_16">
      <!-- 1250 -->
      <g transform="translate(25.15 109.164216)scale(0.1 -0.1)">
       <use xlink:href="#DejaVuSans-31"/>
       <use xlink:href="#DejaVuSans-32" x="63.623047"/>
       <use xlink:href="#DejaVuSans-35" x="127.246094"/>
       <use xlink:href="#DejaVuSans-30" x="190.869141"/>
      </g>
     </g>
    </g>
    <g id="ytick_7">
     <g id="line2d_33">
      <path d="M 57.6 73.278433 
L 414.72 73.278433 
" clip-path="url(#p0e7a4a45f2)" style="fill: none; stroke-dasharray: 2.96,1.28; stroke-dashoffset: 0; stroke: #808080; stroke-width: 0.8"/>
     </g>
     <g id="line2d_34">
      <g>
       <use xlink:href="#m4cb0e93e54" x="57.6" y="73.278433" style="stroke: #000000; stroke-width: 0.8"/>
      </g>
     </g>
     <g id="text_17">
      <!-- 1500 -->
      <g transform="translate(25.15 77.077651)scale(0.1 -0.1)">
       <use xlink:href="#DejaVuSans-31"/>
       <use xlink:href="#DejaVuSans-35" x="63.623047"/>
       <use xlink:href="#DejaVuSans-30" x="127.246094"/>
       <use xlink:href="#DejaVuSans-30" x="190.869141"/>
      </g>
     </g>
    </g>
    <g id="text_18">
     <!-- Inzidenz pro 7 Tage pro 100.000 Einwohner -->
     <g transform="translate(19.070312 267.301)rotate(-90)scale(0.1 -0.1)">
      <defs>
       <path id="DejaVuSans-49" d="M 628 4666 
L 1259 4666 
L 1259 0 
L 628 0 
L 628 4666 
z
" transform="scale(0.015625)"/>
       <path id="DejaVuSans-6e" d="M 3513 2113 
L 3513 0 
L 2938 0 
L 2938 2094 
Q 2938 2591 2744 2837 
Q 2550 3084 2163 3084 
Q 1697 3084 1428 2787 
Q 1159 2491 1159 1978 
L 1159 0 
L 581 0 
L 581 3500 
L 1159 3500 
L 1159 2956 
Q 1366 3272 1645 3428 
Q 1925 3584 2291 3584 
Q 2894 3584 3203 3211 
Q 3513 2838 3513 2113 
z
" transform="scale(0.015625)"/>
       <path id="DejaVuSans-7a" d="M 353 3500 
L 3084 3500 
L 3084 2975 
L 922 459 
L 3084 459 
L 3084 0 
L 275 0 
L 275 525 
L 2438 3041 
L 353 3041 
L 353 3500 
z
" transform="scale(0.015625)"/>
       <path id="DejaVuSans-69" d="M 603 3500 
L 1178 3500 
L 1178 0 
L 603 0 
L 603 3500 
z
M 603 4863 
L 1178 4863 
L 1178 4134 
L 603 4134 
L 603 4863 
z
" transform="scale(0.015625)"/>
       <path id="DejaVuSans-64" d="M 2906 2969 
L 2906 4863 
L 3481 4863 
L 3481 0 
L 2906 0 
L 2906 525 
Q 2725 213 2448 61 
Q 2172 -91 1784 -91 
Q 1150 -91 751 415 
Q 353 922 353 1747 
Q 353 2572 751 3078 
Q 1150 3584 1784 3584 
Q 2172 3584 2448 3432 
Q 2725 3281 2906 2969 
z
M 947 1747 
Q 947 1113 1208 752 
Q 1469 391 1925 391 
Q 2381 391 2643 752 
Q 2906 1113 2906 1747 
Q 2906 2381 2643 2742 
Q 2381 3103 1925 3103 
Q 1469 3103 1208 2742 
Q 947 2381 947 1747 
z
" transform="scale(0.015625)"/>
       <path id="DejaVuSans-65" d="M 3597 1894 
L 3597 1613 
L 953 1613 
Q 991 1019 1311 708 
Q 1631 397 2203 397 
Q 2534 397 2845 478 
Q 3156 559 3463 722 
L 3463 178 
Q 3153 47 2828 -22 
Q 2503 -91 2169 -91 
Q 1331 -91 842 396 
Q 353 884 353 1716 
Q 353 2575 817 3079 
Q 1281 3584 2069 3584 
Q 2775 3584 3186 3129 
Q 3597 2675 3597 1894 
z
M 3022 2063 
Q 3016 2534 2758 2815 
Q 2500 3097 2075 3097 
Q 1594 3097 1305 2825 
Q 1016 2553 972 2059 
L 3022 2063 
z
" transform="scale(0.015625)"/>
       <path id="DejaVuSans-20" transform="scale(0.015625)"/>
       <path id="DejaVuSans-70" d="M 1159 525 
L 1159 -1331 
L 581 -1331 
L 581 3500 
L 1159 3500 
L 1159 2969 
Q 1341 3281 1617 3432 
Q 1894 3584 2278 3584 
Q 2916 3584 3314 3078 
Q 3713 2572 3713 1747 
Q 3713 922 3314 415 
Q 2916 -91 2278 -91 
Q 1894 -91 1617 61 
Q 1341 213 1159 525 
z
M 3116 1747 
Q 3116 2381 2855 2742 
Q 2594 3103 2138 3103 
Q 1681 3103 1420 2742 
Q 1159 2381 1159 1747 
Q 1159 1113 1420 752 
Q 1681 391 2138 391 
Q 2594 391 2855 752 
Q 3116 1113 3116 1747 
z
" transform="scale(0.015625)"/>
       <path id="DejaVuSans-72" d="M 2631 2963 
Q 2534 3019 2420 3045 
Q 2306 3072 2169 3072 
Q 1681 3072 1420 2755 
Q 1159 2438 1159 1844 
L 1159 0 
L 581 0 
L 581 3500 
L 1159 3500 
L 1159 2956 
Q 1341 3275 1631 3429 
Q 1922 3584 2338 3584 
Q 2397 3584 2469 3576 
Q 2541 3569 2628 3553 
L 2631 2963 
z
" transform="scale(0.015625)"/>
       <path id="DejaVuSans-6f" d="M 1959 3097 
Q 1497 3097 1228 2736 
Q 959 2375 959 1747 
Q 959 1119 1226 758 
Q 1494 397 1959 397 
Q 2419 397 2687 759 
Q 2956 1122 2956 1747 
Q 2956 2369 2687 2733 
Q 2419 3097 1959 3097 
z
M 1959 3584 
Q 2709 3584 3137 3096 
Q 3566 2609 3566 1747 
Q 3566 888 3137 398 
Q 2709 -91 1959 -91 
Q 1206 -91 779 398 
Q 353 888 353 1747 
Q 353 2609 779 3096 
Q 1206 3584 1959 3584 
z
" transform="scale(0.015625)"/>
       <path id="DejaVuSans-54" d="M -19 4666 
L 3928 4666 
L 3928 4134 
L 2272 4134 
L 2272 0 
L 1638 0 
L 1638 4134 
L -19 4134 
L -19 4666 
z
" transform="scale(0.015625)"/>
       <path id="DejaVuSans-61" d="M 2194 1759 
Q 1497 1759 1228 1600 
Q 959 1441 959 1056 
Q 959 750 1161 570 
Q 1363 391 1709 391 
Q 2188 391 2477 730 
Q 2766 1069 2766 1631 
L 2766 1759 
L 2194 1759 
z
M 3341 1997 
L 3341 0 
L 2766 0 
L 2766 531 
Q 2569 213 2275 61 
Q 1981 -91 1556 -91 
Q 1019 -91 701 211 
Q 384 513 384 1019 
Q 384 1609 779 1909 
Q 1175 2209 1959 2209 
L 2766 2209 
L 2766 2266 
Q 2766 2663 2505 2880 
Q 2244 3097 1772 3097 
Q 1472 3097 1187 3025 
Q 903 2953 641 2809 
L 641 3341 
Q 956 3463 1253 3523 
Q 1550 3584 1831 3584 
Q 2591 3584 2966 3190 
Q 3341 2797 3341 1997 
z
" transform="scale(0.015625)"/>
       <path id="DejaVuSans-67" d="M 2906 1791 
Q 2906 2416 2648 2759 
Q 2391 3103 1925 3103 
Q 1463 3103 1205 2759 
Q 947 2416 947 1791 
Q 947 1169 1205 825 
Q 1463 481 1925 481 
Q 2391 481 2648 825 
Q 2906 1169 2906 1791 
z
M 3481 434 
Q 3481 -459 3084 -895 
Q 2688 -1331 1869 -1331 
Q 1566 -1331 1297 -1286 
Q 1028 -1241 775 -1147 
L 775 -588 
Q 1028 -725 1275 -790 
Q 1522 -856 1778 -856 
Q 2344 -856 2625 -561 
Q 2906 -266 2906 331 
L 2906 616 
Q 2728 306 2450 153 
Q 2172 0 1784 0 
Q 1141 0 747 490 
Q 353 981 353 1791 
Q 353 2603 747 3093 
Q 1141 3584 1784 3584 
Q 2172 3584 2450 3431 
Q 2728 3278 2906 2969 
L 2906 3500 
L 3481 3500 
L 3481 434 
z
" transform="scale(0.015625)"/>
       <path id="DejaVuSans-45" d="M 628 4666 
L 3578 4666 
L 3578 4134 
L 1259 4134 
L 1259 2753 
L 3481 2753 
L 3481 2222 
L 1259 2222 
L 1259 531 
L 3634 531 
L 3634 0 
L 628 0 
L 628 4666 
z
" transform="scale(0.015625)"/>
       <path id="DejaVuSans-77" d="M 269 3500 
L 844 3500 
L 1563 769 
L 2278 3500 
L 2956 3500 
L 3675 769 
L 4391 3500 
L 4966 3500 
L 4050 0 
L 3372 0 
L 2619 2869 
L 1863 0 
L 1184 0 
L 269 3500 
z
" transform="scale(0.015625)"/>
       <path id="DejaVuSans-68" d="M 3513 2113 
L 3513 0 
L 2938 0 
L 2938 2094 
Q 2938 2591 2744 2837 
Q 2550 3084 2163 3084 
Q 1697 3084 1428 2787 
Q 1159 2491 1159 1978 
L 1159 0 
L 581 0 
L 581 4863 
L 1159 4863 
L 1159 2956 
Q 1366 3272 1645 3428 
Q 1925 3584 2291 3584 
Q 2894 3584 3203 3211 
Q 3513 2838 3513 2113 
z
" transform="scale(0.015625)"/>
      </defs>
      <use xlink:href="#DejaVuSans-49"/>
      <use xlink:href="#DejaVuSans-6e" x="29.492188"/>
      <use xlink:href="#DejaVuSans-7a" x="92.871094"/>
      <use xlink:href="#DejaVuSans-69" x="145.361328"/>
      <use xlink:href="#DejaVuSans-64" x="173.144531"/>
      <use xlink:href="#DejaVuSans-65" x="236.621094"/>
      <use xlink:href="#DejaVuSans-6e" x="298.144531"/>
      <use xlink:href="#DejaVuSans-7a" x="361.523438"/>
      <use xlink:href="#DejaVuSans-20" x="414.013672"/>
      <use xlink:href="#DejaVuSans-70" x="445.800781"/>
      <use xlink:href="#DejaVuSans-72" x="509.277344"/>
      <use xlink:href="#DejaVuSans-6f" x="548.140625"/>
      <use xlink:href="#DejaVuSans-20" x="609.322266"/>
      <use xlink:href="#DejaVuSans-37" x="641.109375"/>
      <use xlink:href="#DejaVuSans-20" x="704.732422"/>
      <use xlink:href="#DejaVuSans-54" x="736.519531"/>
      <use xlink:href="#DejaVuSans-61" x="781.103516"/>
      <use xlink:href="#DejaVuSans-67" x="842.382812"/>
      <use xlink:href="#DejaVuSans-65" x="905.859375"/>
      <use xlink:href="#DejaVuSans-20" x="967.382812"/>
      <use xlink:href="#DejaVuSans-70" x="999.169922"/>
      <use xlink:href="#DejaVuSans-72" x="1062.646484"/>
      <use xlink:href="#DejaVuSans-6f" x="1101.509766"/>
      <use xlink:href="#DejaVuSans-20" x="1162.691406"/>
      <use xlink:href="#DejaVuSans-31" x="1194.478516"/>
      <use xlink:href="#DejaVuSans-30" x="1258.101562"/>
      <use xlink:href="#DejaVuSans-30" x="1321.724609"/>
      <use xlink:href="#DejaVuSans-2e" x="1385.347656"/>
      <use xlink:href="#DejaVuSans-30" x="1417.134766"/>
      <use xlink:href="#DejaVuSans-30" x="1480.757812"/>
      <use xlink:href="#DejaVuSans-30" x="1544.380859"/>
      <use xlink:href="#DejaVuSans-20" x="1608.003906"/>
      <use xlink:href="#DejaVuSans-45" x="1639.791016"/>
      <use xlink:href="#DejaVuSans-69" x="1702.974609"/>
      <use xlink:href="#DejaVuSans-6e" x="1730.757812"/>
      <use xlink:href="#DejaVuSans-77" x="1794.136719"/>
      <use xlink:href="#DejaVuSans-6f" x="1875.923828"/>
      <use xlink:href="#DejaVuSans-68" x="1937.105469"/>
      <use xlink:href="#DejaVuSans-6e" x="2000.484375"/>
      <use xlink:href="#DejaVuSans-65" x="2063.863281"/>
      <use xlink:href="#DejaVuSans-72" x="2125.386719"/>
     </g>
    </g>
   </g>
   <g id="line2d_35">
    <path d="M 73.832727 265.797818 
L 76.664017 265.797818 
L 77.135899 265.671775 
L 77.60778 265.419688 
L 78.079662 265.419688 
L 78.551543 265.167601 
L 79.967188 265.167601 
L 80.43907 265.293644 
L 80.910951 265.293644 
L 81.382833 265.167601 
L 81.854715 265.419688 
L 82.326596 265.293644 
L 82.798478 265.293644 
L 83.270359 264.915514 
L 83.742241 264.915514 
L 84.214123 264.663427 
L 84.686004 264.663427 
L 85.629767 263.402993 
L 86.101649 263.024862 
L 86.573531 263.150906 
L 87.045412 263.024862 
L 87.517294 263.150906 
L 88.461057 263.150906 
L 89.40482 262.268602 
L 89.876702 262.520689 
L 90.348584 262.268602 
L 90.820465 262.268602 
L 91.292347 262.394645 
L 91.764228 262.898819 
L 92.707992 264.663427 
L 93.179873 264.537384 
L 94.123636 265.293644 
L 94.595518 265.293644 
L 95.0674 265.041558 
L 96.483044 265.419688 
L 96.954926 265.419688 
L 97.426808 265.293644 
L 97.898689 265.293644 
L 98.370571 265.671775 
L 100.258097 265.671775 
L 100.729979 265.797818 
L 102.145624 265.797818 
L 102.617505 265.671775 
L 104.03315 265.671775 
L 104.976913 265.419688 
L 105.448795 265.419688 
L 105.920677 265.545731 
L 107.808203 265.545731 
L 108.280085 265.671775 
L 110.639493 265.671775 
L 111.111374 265.797818 
L 113.470782 265.797818 
L 113.942664 265.671775 
L 116.773953 265.671775 
L 117.245835 265.797818 
L 119.605243 265.797818 
L 120.077125 265.671775 
L 121.020888 265.671775 
L 121.49277 265.545731 
L 124.324059 265.545731 
L 124.795941 265.671775 
L 126.211586 265.671775 
L 126.683467 265.797818 
L 128.099112 265.797818 
L 128.570994 265.671775 
L 134.705455 265.671775 
L 135.177336 265.797818 
L 139.896152 265.797818 
L 140.368034 265.545731 
L 140.839915 265.545731 
L 141.311797 265.419688 
L 143.199323 265.419688 
L 143.671205 265.671775 
L 144.143087 265.671775 
L 144.614968 265.797818 
L 147.446258 265.797818 
L 147.91814 265.419688 
L 150.277548 265.419688 
L 150.749429 265.293644 
L 151.221311 265.671775 
L 153.580719 265.671775 
L 154.0526 265.797818 
L 154.524482 265.797818 
L 154.996364 265.671775 
L 156.88389 265.671775 
L 157.355772 265.419688 
L 159.71518 265.419688 
L 160.187061 265.293644 
L 160.658943 265.545731 
L 161.130825 265.545731 
L 161.602706 265.671775 
L 166.321522 265.671775 
L 166.793404 265.797818 
L 167.737167 265.545731 
L 168.209049 264.915514 
L 168.68093 264.789471 
L 170.096575 264.789471 
L 170.568457 264.663427 
L 171.040338 264.663427 
L 171.51222 265.293644 
L 171.984101 265.419688 
L 172.927865 265.167601 
L 173.399746 265.167601 
L 173.871628 265.419688 
L 174.34351 265.545731 
L 174.815391 265.293644 
L 175.287273 265.293644 
L 176.231036 265.545731 
L 176.702918 265.041558 
L 177.174799 265.041558 
L 177.646681 264.789471 
L 178.118562 264.789471 
L 178.590444 264.537384 
L 179.062326 264.41134 
L 180.006089 263.402993 
L 180.47797 262.520689 
L 180.949852 262.520689 
L 181.421734 261.890471 
L 181.893615 261.764428 
L 182.365497 261.512341 
L 182.837378 261.638385 
L 183.30926 261.260254 
L 183.781142 261.890471 
L 184.253023 259.99982 
L 184.724905 259.369603 
L 185.196786 256.092473 
L 185.668668 256.092473 
L 186.14055 255.96643 
L 186.612431 254.453908 
L 187.084313 250.168431 
L 187.556195 248.65591 
L 188.028076 246.639215 
L 188.499958 247.773606 
L 189.443721 243.866259 
L 189.915603 244.244389 
L 190.387484 245.00065 
L 190.859366 244.370433 
L 191.331247 246.261084 
L 191.803129 246.135041 
L 192.746892 249.03404 
L 193.218774 248.151736 
L 193.690655 249.286127 
L 194.162537 249.916344 
L 194.634419 249.538214 
L 195.1063 249.538214 
L 195.578182 249.03404 
L 196.050063 248.907997 
L 196.521945 249.790301 
L 196.993827 249.03404 
L 197.465708 250.294475 
L 197.93759 249.664257 
L 198.409471 251.050735 
L 198.881353 249.916344 
L 199.353235 249.538214 
L 199.825116 248.151736 
L 200.296998 247.269432 
L 200.768879 247.143389 
L 201.240761 246.639215 
L 201.712643 245.882954 
L 202.184524 246.891302 
L 202.656406 246.008998 
L 203.128288 245.756911 
L 203.600169 244.118346 
L 204.072051 239.328695 
L 204.543932 237.438043 
L 205.015814 233.404653 
L 205.487696 232.648393 
L 206.90334 220.674265 
L 207.847104 205.044879 
L 208.318985 204.162574 
L 208.790867 204.918835 
L 209.262748 204.666748 
L 210.206512 198.616663 
L 210.678393 201.137532 
L 211.150275 197.734359 
L 211.622156 195.465577 
L 212.56592 192.692621 
L 213.037801 186.264405 
L 213.509683 187.272753 
L 213.981564 191.1801 
L 214.453446 199.372924 
L 214.925328 203.910488 
L 215.869091 198.364576 
L 216.812854 206.17927 
L 217.284736 207.31366 
L 217.756617 210.464747 
L 218.228499 212.229355 
L 218.700381 215.632528 
L 219.172262 217.271093 
L 219.644144 213.741876 
L 220.116025 203.154227 
L 220.587907 203.910488 
L 221.059789 200.255228 
L 221.53167 195.087447 
L 222.003552 195.843707 
L 222.947315 203.784444 
L 223.419197 216.388788 
L 223.891078 215.380441 
L 224.36296 217.775266 
L 224.834841 222.943047 
L 225.306723 223.069091 
L 225.778605 224.833699 
L 226.250486 229.497307 
L 226.722368 227.606655 
L 227.194249 235.421348 
L 227.666131 236.681783 
L 228.138013 233.27861 
L 228.609894 233.65674 
L 230.025539 242.857912 
L 230.497421 239.832869 
L 230.969302 241.093303 
L 231.441184 244.370433 
L 231.913066 243.614172 
L 232.384947 244.370433 
L 232.856829 244.244389 
L 233.800592 249.412171 
L 234.744355 251.554909 
L 235.216237 252.437213 
L 235.688118 252.31117 
L 236.16 253.193474 
L 236.631882 253.06743 
L 237.103763 252.185126 
L 237.575645 250.672605 
L 238.047526 250.672605 
L 238.519408 250.546562 
L 238.99129 250.546562 
L 239.463171 252.059083 
L 239.935053 250.546562 
L 240.406934 250.798648 
L 240.878816 250.798648 
L 241.822579 251.806996 
L 242.294461 251.806996 
L 242.766342 250.294475 
L 243.238224 251.933039 
L 243.710106 251.050735 
L 244.181987 251.806996 
L 244.653869 249.03404 
L 246.069514 249.03404 
L 246.541395 250.420518 
L 247.013277 251.176779 
L 247.485159 251.680953 
L 247.95704 254.453908 
L 248.428922 254.075778 
L 248.900803 252.31117 
L 249.372685 252.815344 
L 249.844567 249.916344 
L 250.316448 248.403823 
L 250.78833 245.756911 
L 251.260211 243.866259 
L 251.732093 243.109998 
L 252.203975 244.496476 
L 252.675856 240.337043 
L 253.147738 239.706825 
L 253.619619 237.059913 
L 254.091501 237.564087 
L 254.563383 235.169261 
L 255.035264 236.051566 
L 255.507146 235.925522 
L 256.450909 232.648393 
L 256.922791 232.774436 
L 257.394672 231.514002 
L 257.866554 231.514002 
L 258.338436 231.261915 
L 258.810317 229.875437 
L 259.282199 232.396306 
L 259.75408 231.640045 
L 260.225962 230.379611 
L 260.697844 232.270262 
L 261.169725 237.312 
L 261.641607 236.555739 
L 262.113488 237.69013 
L 262.58537 243.109998 
L 263.057252 241.723521 
L 263.529133 242.479781 
L 264.001015 241.093303 
L 264.472896 237.185957 
L 265.41666 238.320348 
L 265.888541 233.65674 
L 266.360423 235.169261 
L 266.832304 239.202652 
L 267.304186 240.58913 
L 267.776068 241.597477 
L 268.247949 241.723521 
L 268.719831 241.219347 
L 269.191712 242.101651 
L 269.663594 245.630867 
L 270.135476 244.496476 
L 270.607357 244.748563 
L 271.079239 245.37878 
L 271.551121 244.62252 
L 272.023002 244.874607 
L 272.494884 241.975607 
L 272.966765 240.337043 
L 273.438647 241.093303 
L 273.910529 241.093303 
L 274.38241 240.841216 
L 274.854292 241.975607 
L 275.326173 242.227694 
L 275.798055 246.387128 
L 276.269937 247.143389 
L 276.741818 246.891302 
L 277.2137 247.647562 
L 277.685581 247.647562 
L 278.157463 247.395475 
L 278.629345 247.773606 
L 279.101226 247.143389 
L 279.573108 246.891302 
L 280.516871 251.050735 
L 280.988753 253.06743 
L 281.460634 253.319517 
L 281.932516 253.193474 
L 282.876279 257.983125 
L 283.348161 257.731038 
L 283.820042 256.72269 
L 284.291924 256.974777 
L 284.763805 257.478951 
L 285.235687 257.352907 
L 285.707569 259.369603 
L 286.17945 260.251907 
L 286.651332 260.630037 
L 287.595095 262.142558 
L 288.066977 262.016515 
L 288.538858 262.394645 
L 289.01074 262.016515 
L 289.482622 262.268602 
L 289.954503 263.024862 
L 290.426385 263.150906 
L 290.898266 263.402993 
L 291.370148 263.024862 
L 292.313911 263.024862 
L 292.785793 263.907167 
L 293.257674 264.159253 
L 293.729556 264.663427 
L 294.201438 264.41134 
L 294.673319 264.789471 
L 295.145201 264.663427 
L 295.617082 265.041558 
L 296.560846 265.293644 
L 297.032727 265.293644 
L 297.504609 265.545731 
L 298.448372 265.545731 
L 298.920254 265.419688 
L 299.392135 265.419688 
L 299.864017 265.167601 
L 300.80778 264.537384 
L 301.279662 264.537384 
L 302.223425 264.789471 
L 302.695307 264.537384 
L 303.167188 264.03321 
L 303.63907 264.03321 
L 304.110951 264.285297 
L 305.054715 264.285297 
L 305.526596 263.781123 
L 305.998478 264.03321 
L 306.470359 264.41134 
L 306.942241 264.537384 
L 307.414123 264.41134 
L 307.886004 264.41134 
L 308.357886 264.285297 
L 308.829767 264.663427 
L 309.301649 264.537384 
L 309.773531 264.537384 
L 310.717294 264.789471 
L 312.132939 264.41134 
L 312.60482 264.41134 
L 313.076702 264.789471 
L 314.020465 264.789471 
L 314.964228 265.041558 
L 315.907992 265.041558 
L 316.379873 264.537384 
L 316.851755 264.663427 
L 317.323636 264.41134 
L 317.795518 264.41134 
L 318.2674 264.537384 
L 318.739281 264.789471 
L 319.211163 264.789471 
L 319.683044 265.041558 
L 320.154926 264.915514 
L 320.626808 265.167601 
L 321.098689 265.041558 
L 321.570571 265.041558 
L 322.042452 265.167601 
L 322.514334 265.167601 
L 323.458097 265.419688 
L 323.929979 265.167601 
L 324.40186 265.293644 
L 324.873742 265.293644 
L 325.345624 264.285297 
L 325.817505 264.03321 
L 326.289387 263.529036 
L 326.761268 263.276949 
L 328.176913 262.268602 
L 328.648795 262.520689 
L 329.120677 262.394645 
L 329.592558 262.898819 
L 330.06444 263.024862 
L 331.008203 264.03321 
L 331.480085 264.159253 
L 332.895729 260.882124 
L 333.839493 256.72269 
L 334.783256 256.72269 
L 335.255137 256.34456 
L 335.727019 256.848734 
L 336.198901 257.731038 
L 336.670782 259.117516 
L 337.142664 260.882124 
L 337.614545 260.882124 
L 338.086427 260.75608 
L 338.558309 262.394645 
L 339.03019 261.512341 
L 339.502072 261.260254 
L 339.973953 261.512341 
L 340.445835 261.008167 
L 340.917717 261.008167 
L 341.389598 261.134211 
L 341.86148 259.243559 
L 342.333362 260.251907 
L 342.805243 260.125863 
L 343.749006 261.512341 
L 344.69277 260.503994 
L 345.164651 261.386298 
L 345.636533 260.630037 
L 346.108414 260.630037 
L 347.052178 259.873776 
L 347.524059 259.747733 
L 347.995941 260.251907 
L 348.467822 260.503994 
L 348.939704 261.260254 
L 349.411586 261.386298 
L 349.883467 261.134211 
L 350.82723 261.134211 
L 351.299112 260.630037 
L 351.770994 259.369603 
L 352.242875 258.865429 
L 352.714757 258.739385 
L 353.186638 257.857081 
L 353.65852 255.96643 
L 354.130402 256.218516 
L 354.602283 256.34456 
L 355.074165 254.958082 
L 355.546047 252.6893 
L 356.48981 251.554909 
L 356.961691 252.185126 
L 357.433573 251.554909 
L 357.905455 251.176779 
L 358.377336 248.27778 
L 358.849218 248.781953 
L 359.792981 241.975607 
L 360.264863 239.706825 
L 360.736744 238.950565 
L 361.208626 237.69013 
L 362.152389 218.027353 
L 362.624271 205.044879 
L 363.568034 187.398796 
L 364.039915 188.155057 
L 364.511797 187.776927 
L 364.983679 181.474755 
L 365.45556 170.382932 
L 367.343087 149.963894 
L 367.814968 150.594111 
L 368.28685 140.006462 
L 368.758732 123.494771 
L 369.230613 120.091598 
L 369.702495 111.898774 
L 370.174376 100.680907 
L 370.646258 99.924647 
L 371.11814 98.160039 
L 371.590021 87.572389 
L 372.061903 79.883739 
L 372.533784 67.657525 
L 373.005666 65.010613 
L 373.477548 63.876222 
L 373.949429 59.464702 
L 374.421311 61.60744 
L 374.893192 52.154182 
L 375.365074 58.456354 
L 376.308837 76.98474 
L 376.780719 81.396261 
L 377.2526 89.589084 
L 377.724482 87.446346 
L 378.196364 91.353693 
L 378.668245 108.873731 
L 379.140127 113.789426 
L 379.612008 116.310294 
L 380.08389 126.39377 
L 381.027653 127.780248 
L 381.499535 143.031504 
L 381.971416 148.325329 
L 382.443298 156.896283 
L 382.91518 160.929673 
L 383.387061 159.669239 
L 384.330825 161.055717 
L 384.802706 167.609976 
L 385.274588 171.517323 
L 385.746469 173.912148 
L 386.218351 177.819495 
L 386.690233 190.801969 
L 387.162114 192.188447 
L 387.633996 190.045709 
L 388.105877 198.742706 
L 389.049641 202.650053 
L 389.521522 205.675096 
L 389.993404 206.431356 
L 390.465285 206.683443 
L 390.937167 206.5574 
L 391.409049 200.255228 
L 391.88093 204.036531 
L 392.352812 208.952225 
L 392.824693 209.708486 
L 393.296575 206.809487 
L 393.768457 206.5574 
L 394.240338 209.834529 
L 394.71222 224.833699 
L 395.655983 232.522349 
L 396.599746 237.312 
L 397.071628 236.177609 
L 397.54351 236.807826 
L 398.015391 238.194304 
L 398.487273 235.673435 
L 398.487273 235.673435 
" clip-path="url(#p0e7a4a45f2)" style="fill: none; stroke: #1f77b4; stroke-width: 1.5; stroke-linecap: square"/>
   </g>
   <g id="patch_3">
    <path d="M 57.6 276.48 
L 57.6 41.472 
" style="fill: none; stroke: #000000; stroke-width: 0.8; stroke-linejoin: miter; stroke-linecap: square"/>
   </g>
   <g id="patch_4">
    <path d="M 414.72 276.48 
L 414.72 41.472 
" style="fill: none; stroke: #000000; stroke-width: 0.8; stroke-linejoin: miter; stroke-linecap: square"/>
   </g>
   <g id="patch_5">
    <path d="M 57.6 276.48 
L 414.72 276.48 
" style="fill: none; stroke: #000000; stroke-width: 0.8; stroke-linejoin: miter; stroke-linecap: square"/>
   </g>
   <g id="patch_6">
    <path d="M 57.6 41.472 
L 414.72 41.472 
" style="fill: none; stroke: #000000; stroke-width: 0.8; stroke-linejoin: miter; stroke-linecap: square"/>
   </g>
  </g>
  <g id="text_19">
   <!-- Inzidenzverlauf LK Elbe-Elster -->
   <g transform="translate(96.721875 20.589187)scale(0.18 -0.18)">
    <defs>
     <path id="DejaVuSans-76" d="M 191 3500 
L 800 3500 
L 1894 563 
L 2988 3500 
L 3597 3500 
L 2284 0 
L 1503 0 
L 191 3500 
z
" transform="scale(0.015625)"/>
     <path id="DejaVuSans-6c" d="M 603 4863 
L 1178 4863 
L 1178 0 
L 603 0 
L 603 4863 
z
" transform="scale(0.015625)"/>
     <path id="DejaVuSans-75" d="M 544 1381 
L 544 3500 
L 1119 3500 
L 1119 1403 
Q 1119 906 1312 657 
Q 1506 409 1894 409 
Q 2359 409 2629 706 
Q 2900 1003 2900 1516 
L 2900 3500 
L 3475 3500 
L 3475 0 
L 2900 0 
L 2900 538 
Q 2691 219 2414 64 
Q 2138 -91 1772 -91 
Q 1169 -91 856 284 
Q 544 659 544 1381 
z
M 1991 3584 
L 1991 3584 
z
" transform="scale(0.015625)"/>
     <path id="DejaVuSans-66" d="M 2375 4863 
L 2375 4384 
L 1825 4384 
Q 1516 4384 1395 4259 
Q 1275 4134 1275 3809 
L 1275 3500 
L 2222 3500 
L 2222 3053 
L 1275 3053 
L 1275 0 
L 697 0 
L 697 3053 
L 147 3053 
L 147 3500 
L 697 3500 
L 697 3744 
Q 697 4328 969 4595 
Q 1241 4863 1831 4863 
L 2375 4863 
z
" transform="scale(0.015625)"/>
     <path id="DejaVuSans-4c" d="M 628 4666 
L 1259 4666 
L 1259 531 
L 3531 531 
L 3531 0 
L 628 0 
L 628 4666 
z
" transform="scale(0.015625)"/>
     <path id="DejaVuSans-4b" d="M 628 4666 
L 1259 4666 
L 1259 2694 
L 3353 4666 
L 4166 4666 
L 1850 2491 
L 4331 0 
L 3500 0 
L 1259 2247 
L 1259 0 
L 628 0 
L 628 4666 
z
" transform="scale(0.015625)"/>
     <path id="DejaVuSans-62" d="M 3116 1747 
Q 3116 2381 2855 2742 
Q 2594 3103 2138 3103 
Q 1681 3103 1420 2742 
Q 1159 2381 1159 1747 
Q 1159 1113 1420 752 
Q 1681 391 2138 391 
Q 2594 391 2855 752 
Q 3116 1113 3116 1747 
z
M 1159 2969 
Q 1341 3281 1617 3432 
Q 1894 3584 2278 3584 
Q 2916 3584 3314 3078 
Q 3713 2572 3713 1747 
Q 3713 922 3314 415 
Q 2916 -91 2278 -91 
Q 1894 -91 1617 61 
Q 1341 213 1159 525 
L 1159 0 
L 581 0 
L 581 4863 
L 1159 4863 
L 1159 2969 
z
" transform="scale(0.015625)"/>
     <path id="DejaVuSans-2d" d="M 313 2009 
L 1997 2009 
L 1997 1497 
L 313 1497 
L 313 2009 
z
" transform="scale(0.015625)"/>
     <path id="DejaVuSans-73" d="M 2834 3397 
L 2834 2853 
Q 2591 2978 2328 3040 
Q 2066 3103 1784 3103 
Q 1356 3103 1142 2972 
Q 928 2841 928 2578 
Q 928 2378 1081 2264 
Q 1234 2150 1697 2047 
L 1894 2003 
Q 2506 1872 2764 1633 
Q 3022 1394 3022 966 
Q 3022 478 2636 193 
Q 2250 -91 1575 -91 
Q 1294 -91 989 -36 
Q 684 19 347 128 
L 347 722 
Q 666 556 975 473 
Q 1284 391 1588 391 
Q 1994 391 2212 530 
Q 2431 669 2431 922 
Q 2431 1156 2273 1281 
Q 2116 1406 1581 1522 
L 1381 1569 
Q 847 1681 609 1914 
Q 372 2147 372 2553 
Q 372 3047 722 3315 
Q 1072 3584 1716 3584 
Q 2034 3584 2315 3537 
Q 2597 3491 2834 3397 
z
" transform="scale(0.015625)"/>
     <path id="DejaVuSans-74" d="M 1172 4494 
L 1172 3500 
L 2356 3500 
L 2356 3053 
L 1172 3053 
L 1172 1153 
Q 1172 725 1289 603 
Q 1406 481 1766 481 
L 2356 481 
L 2356 0 
L 1766 0 
Q 1100 0 847 248 
Q 594 497 594 1153 
L 594 3053 
L 172 3053 
L 172 3500 
L 594 3500 
L 594 4494 
L 1172 4494 
z
" transform="scale(0.015625)"/>
    </defs>
    <use xlink:href="#DejaVuSans-49"/>
    <use xlink:href="#DejaVuSans-6e" x="29.492188"/>
    <use xlink:href="#DejaVuSans-7a" x="92.871094"/>
    <use xlink:href="#DejaVuSans-69" x="145.361328"/>
    <use xlink:href="#DejaVuSans-64" x="173.144531"/>
    <use xlink:href="#DejaVuSans-65" x="236.621094"/>
    <use xlink:href="#DejaVuSans-6e" x="298.144531"/>
    <use xlink:href="#DejaVuSans-7a" x="361.523438"/>
    <use xlink:href="#DejaVuSans-76" x="414.013672"/>
    <use xlink:href="#DejaVuSans-65" x="473.193359"/>
    <use xlink:href="#DejaVuSans-72" x="534.716797"/>
    <use xlink:href="#DejaVuSans-6c" x="575.830078"/>
    <use xlink:href="#DejaVuSans-61" x="603.613281"/>
    <use xlink:href="#DejaVuSans-75" x="664.892578"/>
    <use xlink:href="#DejaVuSans-66" x="728.271484"/>
    <use xlink:href="#DejaVuSans-20" x="763.476562"/>
    <use xlink:href="#DejaVuSans-4c" x="795.263672"/>
    <use xlink:href="#DejaVuSans-4b" x="850.976562"/>
    <use xlink:href="#DejaVuSans-20" x="916.552734"/>
    <use xlink:href="#DejaVuSans-45" x="948.339844"/>
    <use xlink:href="#DejaVuSans-6c" x="1011.523438"/>
    <use xlink:href="#DejaVuSans-62" x="1039.306641"/>
    <use xlink:href="#DejaVuSans-65" x="1102.783203"/>
    <use xlink:href="#DejaVuSans-2d" x="1164.306641"/>
    <use xlink:href="#DejaVuSans-45" x="1200.390625"/>
    <use xlink:href="#DejaVuSans-6c" x="1263.574219"/>
    <use xlink:href="#DejaVuSans-73" x="1291.357422"/>
    <use xlink:href="#DejaVuSans-74" x="1343.457031"/>
    <use xlink:href="#DejaVuSans-65" x="1382.666016"/>
    <use xlink:href="#DejaVuSans-72" x="1444.189453"/>
   </g>
  </g>
 </g>
 <defs>
  <clipPath id="p0e7a4a45f2">
   <rect x="57.6" y="41.472" width="357.12" height="235.008"/>
  </clipPath>
 </defs>
</svg>
