<?xml version="1.0" encoding="utf-8" standalone="no"?>
<!DOCTYPE svg PUBLIC "-//W3C//DTD SVG 1.1//EN"
  "http://www.w3.org/Graphics/SVG/1.1/DTD/svg11.dtd">
<svg xmlns:xlink="http://www.w3.org/1999/xlink" width="460.8pt" height="345.6pt" viewBox="0 0 460.8 345.6" xmlns="http://www.w3.org/2000/svg" version="1.1">
 <metadata>
  <rdf:RDF xmlns:dc="http://purl.org/dc/elements/1.1/" xmlns:cc="http://creativecommons.org/ns#" xmlns:rdf="http://www.w3.org/1999/02/22-rdf-syntax-ns#">
   <cc:Work>
    <dc:type rdf:resource="http://purl.org/dc/dcmitype/StillImage"/>
    <dc:date>2022-06-29T09:23:45.744924</dc:date>
    <dc:format>image/svg+xml</dc:format>
    <dc:creator>
     <cc:Agent>
      <dc:title>Matplotlib v3.5.2, https://matplotlib.org/</dc:title>
     </cc:Agent>
    </dc:creator>
   </cc:Work>
  </rdf:RDF>
 </metadata>
 <defs>
  <style type="text/css">*{stroke-linejoin: round; stroke-linecap: butt}</style>
 </defs>
 <g id="figure_1">
  <g id="patch_1">
   <path d="M 0 345.6 
L 460.8 345.6 
L 460.8 0 
L 0 0 
z
" style="fill: #ffffff"/>
  </g>
  <g id="axes_1">
   <g id="patch_2">
    <path d="M 57.6 276.48 
L 414.72 276.48 
L 414.72 41.472 
L 57.6 41.472 
z
" style="fill: #ffffff"/>
   </g>
   <g id="matplotlib.axis_1">
    <g id="xtick_1">
     <g id="line2d_1">
      <path d="M 59.396192 276.48 
L 59.396192 41.472 
" clip-path="url(#pe5d4bd1497)" style="fill: none; stroke-dasharray: 2.96,1.28; stroke-dashoffset: 0; stroke: #808080; stroke-width: 0.8"/>
     </g>
     <g id="line2d_2">
      <defs>
       <path id="m74939af72e" d="M 0 0 
L 0 3.5 
" style="stroke: #000000; stroke-width: 0.8"/>
      </defs>
      <g>
       <use xlink:href="#m74939af72e" x="59.396192" y="276.48" style="stroke: #000000; stroke-width: 0.8"/>
      </g>
     </g>
     <g id="text_1">
      <!-- 25.01.2020 -->
      <g transform="translate(8.770981 318.688565)rotate(-30)scale(0.1 -0.1)">
       <defs>
        <path id="DejaVuSans-32" d="M 1228 531 
L 3431 531 
L 3431 0 
L 469 0 
L 469 531 
Q 828 903 1448 1529 
Q 2069 2156 2228 2338 
Q 2531 2678 2651 2914 
Q 2772 3150 2772 3378 
Q 2772 3750 2511 3984 
Q 2250 4219 1831 4219 
Q 1534 4219 1204 4116 
Q 875 4013 500 3803 
L 500 4441 
Q 881 4594 1212 4672 
Q 1544 4750 1819 4750 
Q 2544 4750 2975 4387 
Q 3406 4025 3406 3419 
Q 3406 3131 3298 2873 
Q 3191 2616 2906 2266 
Q 2828 2175 2409 1742 
Q 1991 1309 1228 531 
z
" transform="scale(0.015625)"/>
        <path id="DejaVuSans-35" d="M 691 4666 
L 3169 4666 
L 3169 4134 
L 1269 4134 
L 1269 2991 
Q 1406 3038 1543 3061 
Q 1681 3084 1819 3084 
Q 2600 3084 3056 2656 
Q 3513 2228 3513 1497 
Q 3513 744 3044 326 
Q 2575 -91 1722 -91 
Q 1428 -91 1123 -41 
Q 819 9 494 109 
L 494 744 
Q 775 591 1075 516 
Q 1375 441 1709 441 
Q 2250 441 2565 725 
Q 2881 1009 2881 1497 
Q 2881 1984 2565 2268 
Q 2250 2553 1709 2553 
Q 1456 2553 1204 2497 
Q 953 2441 691 2322 
L 691 4666 
z
" transform="scale(0.015625)"/>
        <path id="DejaVuSans-2e" d="M 684 794 
L 1344 794 
L 1344 0 
L 684 0 
L 684 794 
z
" transform="scale(0.015625)"/>
        <path id="DejaVuSans-30" d="M 2034 4250 
Q 1547 4250 1301 3770 
Q 1056 3291 1056 2328 
Q 1056 1369 1301 889 
Q 1547 409 2034 409 
Q 2525 409 2770 889 
Q 3016 1369 3016 2328 
Q 3016 3291 2770 3770 
Q 2525 4250 2034 4250 
z
M 2034 4750 
Q 2819 4750 3233 4129 
Q 3647 3509 3647 2328 
Q 3647 1150 3233 529 
Q 2819 -91 2034 -91 
Q 1250 -91 836 529 
Q 422 1150 422 2328 
Q 422 3509 836 4129 
Q 1250 4750 2034 4750 
z
" transform="scale(0.015625)"/>
        <path id="DejaVuSans-31" d="M 794 531 
L 1825 531 
L 1825 4091 
L 703 3866 
L 703 4441 
L 1819 4666 
L 2450 4666 
L 2450 531 
L 3481 531 
L 3481 0 
L 794 0 
L 794 531 
z
" transform="scale(0.015625)"/>
       </defs>
       <use xlink:href="#DejaVuSans-32"/>
       <use xlink:href="#DejaVuSans-35" x="63.623047"/>
       <use xlink:href="#DejaVuSans-2e" x="127.246094"/>
       <use xlink:href="#DejaVuSans-30" x="159.033203"/>
       <use xlink:href="#DejaVuSans-31" x="222.65625"/>
       <use xlink:href="#DejaVuSans-2e" x="286.279297"/>
       <use xlink:href="#DejaVuSans-32" x="318.066406"/>
       <use xlink:href="#DejaVuSans-30" x="381.689453"/>
       <use xlink:href="#DejaVuSans-32" x="445.3125"/>
       <use xlink:href="#DejaVuSans-30" x="508.935547"/>
      </g>
     </g>
    </g>
    <g id="xtick_2">
     <g id="line2d_3">
      <path d="M 95.383842 276.48 
L 95.383842 41.472 
" clip-path="url(#pe5d4bd1497)" style="fill: none; stroke-dasharray: 2.96,1.28; stroke-dashoffset: 0; stroke: #808080; stroke-width: 0.8"/>
     </g>
     <g id="line2d_4">
      <g>
       <use xlink:href="#m74939af72e" x="95.383842" y="276.48" style="stroke: #000000; stroke-width: 0.8"/>
      </g>
     </g>
     <g id="text_2">
      <!-- 28.04.2020 -->
      <g transform="translate(44.758631 318.688565)rotate(-30)scale(0.1 -0.1)">
       <defs>
        <path id="DejaVuSans-38" d="M 2034 2216 
Q 1584 2216 1326 1975 
Q 1069 1734 1069 1313 
Q 1069 891 1326 650 
Q 1584 409 2034 409 
Q 2484 409 2743 651 
Q 3003 894 3003 1313 
Q 3003 1734 2745 1975 
Q 2488 2216 2034 2216 
z
M 1403 2484 
Q 997 2584 770 2862 
Q 544 3141 544 3541 
Q 544 4100 942 4425 
Q 1341 4750 2034 4750 
Q 2731 4750 3128 4425 
Q 3525 4100 3525 3541 
Q 3525 3141 3298 2862 
Q 3072 2584 2669 2484 
Q 3125 2378 3379 2068 
Q 3634 1759 3634 1313 
Q 3634 634 3220 271 
Q 2806 -91 2034 -91 
Q 1263 -91 848 271 
Q 434 634 434 1313 
Q 434 1759 690 2068 
Q 947 2378 1403 2484 
z
M 1172 3481 
Q 1172 3119 1398 2916 
Q 1625 2713 2034 2713 
Q 2441 2713 2670 2916 
Q 2900 3119 2900 3481 
Q 2900 3844 2670 4047 
Q 2441 4250 2034 4250 
Q 1625 4250 1398 4047 
Q 1172 3844 1172 3481 
z
" transform="scale(0.015625)"/>
        <path id="DejaVuSans-34" d="M 2419 4116 
L 825 1625 
L 2419 1625 
L 2419 4116 
z
M 2253 4666 
L 3047 4666 
L 3047 1625 
L 3713 1625 
L 3713 1100 
L 3047 1100 
L 3047 0 
L 2419 0 
L 2419 1100 
L 313 1100 
L 313 1709 
L 2253 4666 
z
" transform="scale(0.015625)"/>
       </defs>
       <use xlink:href="#DejaVuSans-32"/>
       <use xlink:href="#DejaVuSans-38" x="63.623047"/>
       <use xlink:href="#DejaVuSans-2e" x="127.246094"/>
       <use xlink:href="#DejaVuSans-30" x="159.033203"/>
       <use xlink:href="#DejaVuSans-34" x="222.65625"/>
       <use xlink:href="#DejaVuSans-2e" x="286.279297"/>
       <use xlink:href="#DejaVuSans-32" x="318.066406"/>
       <use xlink:href="#DejaVuSans-30" x="381.689453"/>
       <use xlink:href="#DejaVuSans-32" x="445.3125"/>
       <use xlink:href="#DejaVuSans-30" x="508.935547"/>
      </g>
     </g>
    </g>
    <g id="xtick_3">
     <g id="line2d_5">
      <path d="M 131.371492 276.48 
L 131.371492 41.472 
" clip-path="url(#pe5d4bd1497)" style="fill: none; stroke-dasharray: 2.96,1.28; stroke-dashoffset: 0; stroke: #808080; stroke-width: 0.8"/>
     </g>
     <g id="line2d_6">
      <g>
       <use xlink:href="#m74939af72e" x="131.371492" y="276.48" style="stroke: #000000; stroke-width: 0.8"/>
      </g>
     </g>
     <g id="text_3">
      <!-- 31.07.2020 -->
      <g transform="translate(80.746282 318.688565)rotate(-30)scale(0.1 -0.1)">
       <defs>
        <path id="DejaVuSans-33" d="M 2597 2516 
Q 3050 2419 3304 2112 
Q 3559 1806 3559 1356 
Q 3559 666 3084 287 
Q 2609 -91 1734 -91 
Q 1441 -91 1130 -33 
Q 819 25 488 141 
L 488 750 
Q 750 597 1062 519 
Q 1375 441 1716 441 
Q 2309 441 2620 675 
Q 2931 909 2931 1356 
Q 2931 1769 2642 2001 
Q 2353 2234 1838 2234 
L 1294 2234 
L 1294 2753 
L 1863 2753 
Q 2328 2753 2575 2939 
Q 2822 3125 2822 3475 
Q 2822 3834 2567 4026 
Q 2313 4219 1838 4219 
Q 1578 4219 1281 4162 
Q 984 4106 628 3988 
L 628 4550 
Q 988 4650 1302 4700 
Q 1616 4750 1894 4750 
Q 2613 4750 3031 4423 
Q 3450 4097 3450 3541 
Q 3450 3153 3228 2886 
Q 3006 2619 2597 2516 
z
" transform="scale(0.015625)"/>
        <path id="DejaVuSans-37" d="M 525 4666 
L 3525 4666 
L 3525 4397 
L 1831 0 
L 1172 0 
L 2766 4134 
L 525 4134 
L 525 4666 
z
" transform="scale(0.015625)"/>
       </defs>
       <use xlink:href="#DejaVuSans-33"/>
       <use xlink:href="#DejaVuSans-31" x="63.623047"/>
       <use xlink:href="#DejaVuSans-2e" x="127.246094"/>
       <use xlink:href="#DejaVuSans-30" x="159.033203"/>
       <use xlink:href="#DejaVuSans-37" x="222.65625"/>
       <use xlink:href="#DejaVuSans-2e" x="286.279297"/>
       <use xlink:href="#DejaVuSans-32" x="318.066406"/>
       <use xlink:href="#DejaVuSans-30" x="381.689453"/>
       <use xlink:href="#DejaVuSans-32" x="445.3125"/>
       <use xlink:href="#DejaVuSans-30" x="508.935547"/>
      </g>
     </g>
    </g>
    <g id="xtick_4">
     <g id="line2d_7">
      <path d="M 167.359142 276.48 
L 167.359142 41.472 
" clip-path="url(#pe5d4bd1497)" style="fill: none; stroke-dasharray: 2.96,1.28; stroke-dashoffset: 0; stroke: #808080; stroke-width: 0.8"/>
     </g>
     <g id="line2d_8">
      <g>
       <use xlink:href="#m74939af72e" x="167.359142" y="276.48" style="stroke: #000000; stroke-width: 0.8"/>
      </g>
     </g>
     <g id="text_4">
      <!-- 02.11.2020 -->
      <g transform="translate(116.733932 318.688565)rotate(-30)scale(0.1 -0.1)">
       <use xlink:href="#DejaVuSans-30"/>
       <use xlink:href="#DejaVuSans-32" x="63.623047"/>
       <use xlink:href="#DejaVuSans-2e" x="127.246094"/>
       <use xlink:href="#DejaVuSans-31" x="159.033203"/>
       <use xlink:href="#DejaVuSans-31" x="222.65625"/>
       <use xlink:href="#DejaVuSans-2e" x="286.279297"/>
       <use xlink:href="#DejaVuSans-32" x="318.066406"/>
       <use xlink:href="#DejaVuSans-30" x="381.689453"/>
       <use xlink:href="#DejaVuSans-32" x="445.3125"/>
       <use xlink:href="#DejaVuSans-30" x="508.935547"/>
      </g>
     </g>
    </g>
    <g id="xtick_5">
     <g id="line2d_9">
      <path d="M 203.346792 276.48 
L 203.346792 41.472 
" clip-path="url(#pe5d4bd1497)" style="fill: none; stroke-dasharray: 2.96,1.28; stroke-dashoffset: 0; stroke: #808080; stroke-width: 0.8"/>
     </g>
     <g id="line2d_10">
      <g>
       <use xlink:href="#m74939af72e" x="203.346792" y="276.48" style="stroke: #000000; stroke-width: 0.8"/>
      </g>
     </g>
     <g id="text_5">
      <!-- 04.02.2021 -->
      <g transform="translate(152.721582 318.688565)rotate(-30)scale(0.1 -0.1)">
       <use xlink:href="#DejaVuSans-30"/>
       <use xlink:href="#DejaVuSans-34" x="63.623047"/>
       <use xlink:href="#DejaVuSans-2e" x="127.246094"/>
       <use xlink:href="#DejaVuSans-30" x="159.033203"/>
       <use xlink:href="#DejaVuSans-32" x="222.65625"/>
       <use xlink:href="#DejaVuSans-2e" x="286.279297"/>
       <use xlink:href="#DejaVuSans-32" x="318.066406"/>
       <use xlink:href="#DejaVuSans-30" x="381.689453"/>
       <use xlink:href="#DejaVuSans-32" x="445.3125"/>
       <use xlink:href="#DejaVuSans-31" x="508.935547"/>
      </g>
     </g>
    </g>
    <g id="xtick_6">
     <g id="line2d_11">
      <path d="M 239.334443 276.48 
L 239.334443 41.472 
" clip-path="url(#pe5d4bd1497)" style="fill: none; stroke-dasharray: 2.96,1.28; stroke-dashoffset: 0; stroke: #808080; stroke-width: 0.8"/>
     </g>
     <g id="line2d_12">
      <g>
       <use xlink:href="#m74939af72e" x="239.334443" y="276.48" style="stroke: #000000; stroke-width: 0.8"/>
      </g>
     </g>
     <g id="text_6">
      <!-- 09.05.2021 -->
      <g transform="translate(188.709232 318.688565)rotate(-30)scale(0.1 -0.1)">
       <defs>
        <path id="DejaVuSans-39" d="M 703 97 
L 703 672 
Q 941 559 1184 500 
Q 1428 441 1663 441 
Q 2288 441 2617 861 
Q 2947 1281 2994 2138 
Q 2813 1869 2534 1725 
Q 2256 1581 1919 1581 
Q 1219 1581 811 2004 
Q 403 2428 403 3163 
Q 403 3881 828 4315 
Q 1253 4750 1959 4750 
Q 2769 4750 3195 4129 
Q 3622 3509 3622 2328 
Q 3622 1225 3098 567 
Q 2575 -91 1691 -91 
Q 1453 -91 1209 -44 
Q 966 3 703 97 
z
M 1959 2075 
Q 2384 2075 2632 2365 
Q 2881 2656 2881 3163 
Q 2881 3666 2632 3958 
Q 2384 4250 1959 4250 
Q 1534 4250 1286 3958 
Q 1038 3666 1038 3163 
Q 1038 2656 1286 2365 
Q 1534 2075 1959 2075 
z
" transform="scale(0.015625)"/>
       </defs>
       <use xlink:href="#DejaVuSans-30"/>
       <use xlink:href="#DejaVuSans-39" x="63.623047"/>
       <use xlink:href="#DejaVuSans-2e" x="127.246094"/>
       <use xlink:href="#DejaVuSans-30" x="159.033203"/>
       <use xlink:href="#DejaVuSans-35" x="222.65625"/>
       <use xlink:href="#DejaVuSans-2e" x="286.279297"/>
       <use xlink:href="#DejaVuSans-32" x="318.066406"/>
       <use xlink:href="#DejaVuSans-30" x="381.689453"/>
       <use xlink:href="#DejaVuSans-32" x="445.3125"/>
       <use xlink:href="#DejaVuSans-31" x="508.935547"/>
      </g>
     </g>
    </g>
    <g id="xtick_7">
     <g id="line2d_13">
      <path d="M 275.322093 276.48 
L 275.322093 41.472 
" clip-path="url(#pe5d4bd1497)" style="fill: none; stroke-dasharray: 2.96,1.28; stroke-dashoffset: 0; stroke: #808080; stroke-width: 0.8"/>
     </g>
     <g id="line2d_14">
      <g>
       <use xlink:href="#m74939af72e" x="275.322093" y="276.48" style="stroke: #000000; stroke-width: 0.8"/>
      </g>
     </g>
     <g id="text_7">
      <!-- 11.08.2021 -->
      <g transform="translate(224.696882 318.688565)rotate(-30)scale(0.1 -0.1)">
       <use xlink:href="#DejaVuSans-31"/>
       <use xlink:href="#DejaVuSans-31" x="63.623047"/>
       <use xlink:href="#DejaVuSans-2e" x="127.246094"/>
       <use xlink:href="#DejaVuSans-30" x="159.033203"/>
       <use xlink:href="#DejaVuSans-38" x="222.65625"/>
       <use xlink:href="#DejaVuSans-2e" x="286.279297"/>
       <use xlink:href="#DejaVuSans-32" x="318.066406"/>
       <use xlink:href="#DejaVuSans-30" x="381.689453"/>
       <use xlink:href="#DejaVuSans-32" x="445.3125"/>
       <use xlink:href="#DejaVuSans-31" x="508.935547"/>
      </g>
     </g>
    </g>
    <g id="xtick_8">
     <g id="line2d_15">
      <path d="M 311.309743 276.48 
L 311.309743 41.472 
" clip-path="url(#pe5d4bd1497)" style="fill: none; stroke-dasharray: 2.96,1.28; stroke-dashoffset: 0; stroke: #808080; stroke-width: 0.8"/>
     </g>
     <g id="line2d_16">
      <g>
       <use xlink:href="#m74939af72e" x="311.309743" y="276.48" style="stroke: #000000; stroke-width: 0.8"/>
      </g>
     </g>
     <g id="text_8">
      <!-- 13.11.2021 -->
      <g transform="translate(260.684532 318.688565)rotate(-30)scale(0.1 -0.1)">
       <use xlink:href="#DejaVuSans-31"/>
       <use xlink:href="#DejaVuSans-33" x="63.623047"/>
       <use xlink:href="#DejaVuSans-2e" x="127.246094"/>
       <use xlink:href="#DejaVuSans-31" x="159.033203"/>
       <use xlink:href="#DejaVuSans-31" x="222.65625"/>
       <use xlink:href="#DejaVuSans-2e" x="286.279297"/>
       <use xlink:href="#DejaVuSans-32" x="318.066406"/>
       <use xlink:href="#DejaVuSans-30" x="381.689453"/>
       <use xlink:href="#DejaVuSans-32" x="445.3125"/>
       <use xlink:href="#DejaVuSans-31" x="508.935547"/>
      </g>
     </g>
    </g>
    <g id="xtick_9">
     <g id="line2d_17">
      <path d="M 347.297393 276.48 
L 347.297393 41.472 
" clip-path="url(#pe5d4bd1497)" style="fill: none; stroke-dasharray: 2.96,1.28; stroke-dashoffset: 0; stroke: #808080; stroke-width: 0.8"/>
     </g>
     <g id="line2d_18">
      <g>
       <use xlink:href="#m74939af72e" x="347.297393" y="276.48" style="stroke: #000000; stroke-width: 0.8"/>
      </g>
     </g>
     <g id="text_9">
      <!-- 15.02.2022 -->
      <g transform="translate(296.672182 318.688565)rotate(-30)scale(0.1 -0.1)">
       <use xlink:href="#DejaVuSans-31"/>
       <use xlink:href="#DejaVuSans-35" x="63.623047"/>
       <use xlink:href="#DejaVuSans-2e" x="127.246094"/>
       <use xlink:href="#DejaVuSans-30" x="159.033203"/>
       <use xlink:href="#DejaVuSans-32" x="222.65625"/>
       <use xlink:href="#DejaVuSans-2e" x="286.279297"/>
       <use xlink:href="#DejaVuSans-32" x="318.066406"/>
       <use xlink:href="#DejaVuSans-30" x="381.689453"/>
       <use xlink:href="#DejaVuSans-32" x="445.3125"/>
       <use xlink:href="#DejaVuSans-32" x="508.935547"/>
      </g>
     </g>
    </g>
    <g id="xtick_10">
     <g id="line2d_19">
      <path d="M 383.285043 276.48 
L 383.285043 41.472 
" clip-path="url(#pe5d4bd1497)" style="fill: none; stroke-dasharray: 2.96,1.28; stroke-dashoffset: 0; stroke: #808080; stroke-width: 0.8"/>
     </g>
     <g id="line2d_20">
      <g>
       <use xlink:href="#m74939af72e" x="383.285043" y="276.48" style="stroke: #000000; stroke-width: 0.8"/>
      </g>
     </g>
     <g id="text_10">
      <!-- 20.05.2022 -->
      <g transform="translate(332.659832 318.688565)rotate(-30)scale(0.1 -0.1)">
       <use xlink:href="#DejaVuSans-32"/>
       <use xlink:href="#DejaVuSans-30" x="63.623047"/>
       <use xlink:href="#DejaVuSans-2e" x="127.246094"/>
       <use xlink:href="#DejaVuSans-30" x="159.033203"/>
       <use xlink:href="#DejaVuSans-35" x="222.65625"/>
       <use xlink:href="#DejaVuSans-2e" x="286.279297"/>
       <use xlink:href="#DejaVuSans-32" x="318.066406"/>
       <use xlink:href="#DejaVuSans-30" x="381.689453"/>
       <use xlink:href="#DejaVuSans-32" x="445.3125"/>
       <use xlink:href="#DejaVuSans-32" x="508.935547"/>
      </g>
     </g>
    </g>
   </g>
   <g id="matplotlib.axis_2">
    <g id="ytick_1">
     <g id="line2d_21">
      <path d="M 57.6 265.797818 
L 414.72 265.797818 
" clip-path="url(#pe5d4bd1497)" style="fill: none; stroke-dasharray: 2.96,1.28; stroke-dashoffset: 0; stroke: #808080; stroke-width: 0.8"/>
     </g>
     <g id="line2d_22">
      <defs>
       <path id="mf329f29d43" d="M 0 0 
L -3.5 0 
" style="stroke: #000000; stroke-width: 0.8"/>
      </defs>
      <g>
       <use xlink:href="#mf329f29d43" x="57.6" y="265.797818" style="stroke: #000000; stroke-width: 0.8"/>
      </g>
     </g>
     <g id="text_11">
      <!-- 0 -->
      <g transform="translate(44.2375 269.597037)scale(0.1 -0.1)">
       <use xlink:href="#DejaVuSans-30"/>
      </g>
     </g>
    </g>
    <g id="ytick_2">
     <g id="line2d_23">
      <path d="M 57.6 220.450866 
L 414.72 220.450866 
" clip-path="url(#pe5d4bd1497)" style="fill: none; stroke-dasharray: 2.96,1.28; stroke-dashoffset: 0; stroke: #808080; stroke-width: 0.8"/>
     </g>
     <g id="line2d_24">
      <g>
       <use xlink:href="#mf329f29d43" x="57.6" y="220.450866" style="stroke: #000000; stroke-width: 0.8"/>
      </g>
     </g>
     <g id="text_12">
      <!-- 500 -->
      <g transform="translate(31.5125 224.250085)scale(0.1 -0.1)">
       <use xlink:href="#DejaVuSans-35"/>
       <use xlink:href="#DejaVuSans-30" x="63.623047"/>
       <use xlink:href="#DejaVuSans-30" x="127.246094"/>
      </g>
     </g>
    </g>
    <g id="ytick_3">
     <g id="line2d_25">
      <path d="M 57.6 175.103915 
L 414.72 175.103915 
" clip-path="url(#pe5d4bd1497)" style="fill: none; stroke-dasharray: 2.96,1.28; stroke-dashoffset: 0; stroke: #808080; stroke-width: 0.8"/>
     </g>
     <g id="line2d_26">
      <g>
       <use xlink:href="#mf329f29d43" x="57.6" y="175.103915" style="stroke: #000000; stroke-width: 0.8"/>
      </g>
     </g>
     <g id="text_13">
      <!-- 1000 -->
      <g transform="translate(25.15 178.903133)scale(0.1 -0.1)">
       <use xlink:href="#DejaVuSans-31"/>
       <use xlink:href="#DejaVuSans-30" x="63.623047"/>
       <use xlink:href="#DejaVuSans-30" x="127.246094"/>
       <use xlink:href="#DejaVuSans-30" x="190.869141"/>
      </g>
     </g>
    </g>
    <g id="ytick_4">
     <g id="line2d_27">
      <path d="M 57.6 129.756963 
L 414.72 129.756963 
" clip-path="url(#pe5d4bd1497)" style="fill: none; stroke-dasharray: 2.96,1.28; stroke-dashoffset: 0; stroke: #808080; stroke-width: 0.8"/>
     </g>
     <g id="line2d_28">
      <g>
       <use xlink:href="#mf329f29d43" x="57.6" y="129.756963" style="stroke: #000000; stroke-width: 0.8"/>
      </g>
     </g>
     <g id="text_14">
      <!-- 1500 -->
      <g transform="translate(25.15 133.556181)scale(0.1 -0.1)">
       <use xlink:href="#DejaVuSans-31"/>
       <use xlink:href="#DejaVuSans-35" x="63.623047"/>
       <use xlink:href="#DejaVuSans-30" x="127.246094"/>
       <use xlink:href="#DejaVuSans-30" x="190.869141"/>
      </g>
     </g>
    </g>
    <g id="ytick_5">
     <g id="line2d_29">
      <path d="M 57.6 84.410011 
L 414.72 84.410011 
" clip-path="url(#pe5d4bd1497)" style="fill: none; stroke-dasharray: 2.96,1.28; stroke-dashoffset: 0; stroke: #808080; stroke-width: 0.8"/>
     </g>
     <g id="line2d_30">
      <g>
       <use xlink:href="#mf329f29d43" x="57.6" y="84.410011" style="stroke: #000000; stroke-width: 0.8"/>
      </g>
     </g>
     <g id="text_15">
      <!-- 2000 -->
      <g transform="translate(25.15 88.20923)scale(0.1 -0.1)">
       <use xlink:href="#DejaVuSans-32"/>
       <use xlink:href="#DejaVuSans-30" x="63.623047"/>
       <use xlink:href="#DejaVuSans-30" x="127.246094"/>
       <use xlink:href="#DejaVuSans-30" x="190.869141"/>
      </g>
     </g>
    </g>
    <g id="text_16">
     <!-- Inzidenz pro 7 Tage pro 100.000 Einwohner -->
     <g transform="translate(19.070312 267.301)rotate(-90)scale(0.1 -0.1)">
      <defs>
       <path id="DejaVuSans-49" d="M 628 4666 
L 1259 4666 
L 1259 0 
L 628 0 
L 628 4666 
z
" transform="scale(0.015625)"/>
       <path id="DejaVuSans-6e" d="M 3513 2113 
L 3513 0 
L 2938 0 
L 2938 2094 
Q 2938 2591 2744 2837 
Q 2550 3084 2163 3084 
Q 1697 3084 1428 2787 
Q 1159 2491 1159 1978 
L 1159 0 
L 581 0 
L 581 3500 
L 1159 3500 
L 1159 2956 
Q 1366 3272 1645 3428 
Q 1925 3584 2291 3584 
Q 2894 3584 3203 3211 
Q 3513 2838 3513 2113 
z
" transform="scale(0.015625)"/>
       <path id="DejaVuSans-7a" d="M 353 3500 
L 3084 3500 
L 3084 2975 
L 922 459 
L 3084 459 
L 3084 0 
L 275 0 
L 275 525 
L 2438 3041 
L 353 3041 
L 353 3500 
z
" transform="scale(0.015625)"/>
       <path id="DejaVuSans-69" d="M 603 3500 
L 1178 3500 
L 1178 0 
L 603 0 
L 603 3500 
z
M 603 4863 
L 1178 4863 
L 1178 4134 
L 603 4134 
L 603 4863 
z
" transform="scale(0.015625)"/>
       <path id="DejaVuSans-64" d="M 2906 2969 
L 2906 4863 
L 3481 4863 
L 3481 0 
L 2906 0 
L 2906 525 
Q 2725 213 2448 61 
Q 2172 -91 1784 -91 
Q 1150 -91 751 415 
Q 353 922 353 1747 
Q 353 2572 751 3078 
Q 1150 3584 1784 3584 
Q 2172 3584 2448 3432 
Q 2725 3281 2906 2969 
z
M 947 1747 
Q 947 1113 1208 752 
Q 1469 391 1925 391 
Q 2381 391 2643 752 
Q 2906 1113 2906 1747 
Q 2906 2381 2643 2742 
Q 2381 3103 1925 3103 
Q 1469 3103 1208 2742 
Q 947 2381 947 1747 
z
" transform="scale(0.015625)"/>
       <path id="DejaVuSans-65" d="M 3597 1894 
L 3597 1613 
L 953 1613 
Q 991 1019 1311 708 
Q 1631 397 2203 397 
Q 2534 397 2845 478 
Q 3156 559 3463 722 
L 3463 178 
Q 3153 47 2828 -22 
Q 2503 -91 2169 -91 
Q 1331 -91 842 396 
Q 353 884 353 1716 
Q 353 2575 817 3079 
Q 1281 3584 2069 3584 
Q 2775 3584 3186 3129 
Q 3597 2675 3597 1894 
z
M 3022 2063 
Q 3016 2534 2758 2815 
Q 2500 3097 2075 3097 
Q 1594 3097 1305 2825 
Q 1016 2553 972 2059 
L 3022 2063 
z
" transform="scale(0.015625)"/>
       <path id="DejaVuSans-20" transform="scale(0.015625)"/>
       <path id="DejaVuSans-70" d="M 1159 525 
L 1159 -1331 
L 581 -1331 
L 581 3500 
L 1159 3500 
L 1159 2969 
Q 1341 3281 1617 3432 
Q 1894 3584 2278 3584 
Q 2916 3584 3314 3078 
Q 3713 2572 3713 1747 
Q 3713 922 3314 415 
Q 2916 -91 2278 -91 
Q 1894 -91 1617 61 
Q 1341 213 1159 525 
z
M 3116 1747 
Q 3116 2381 2855 2742 
Q 2594 3103 2138 3103 
Q 1681 3103 1420 2742 
Q 1159 2381 1159 1747 
Q 1159 1113 1420 752 
Q 1681 391 2138 391 
Q 2594 391 2855 752 
Q 3116 1113 3116 1747 
z
" transform="scale(0.015625)"/>
       <path id="DejaVuSans-72" d="M 2631 2963 
Q 2534 3019 2420 3045 
Q 2306 3072 2169 3072 
Q 1681 3072 1420 2755 
Q 1159 2438 1159 1844 
L 1159 0 
L 581 0 
L 581 3500 
L 1159 3500 
L 1159 2956 
Q 1341 3275 1631 3429 
Q 1922 3584 2338 3584 
Q 2397 3584 2469 3576 
Q 2541 3569 2628 3553 
L 2631 2963 
z
" transform="scale(0.015625)"/>
       <path id="DejaVuSans-6f" d="M 1959 3097 
Q 1497 3097 1228 2736 
Q 959 2375 959 1747 
Q 959 1119 1226 758 
Q 1494 397 1959 397 
Q 2419 397 2687 759 
Q 2956 1122 2956 1747 
Q 2956 2369 2687 2733 
Q 2419 3097 1959 3097 
z
M 1959 3584 
Q 2709 3584 3137 3096 
Q 3566 2609 3566 1747 
Q 3566 888 3137 398 
Q 2709 -91 1959 -91 
Q 1206 -91 779 398 
Q 353 888 353 1747 
Q 353 2609 779 3096 
Q 1206 3584 1959 3584 
z
" transform="scale(0.015625)"/>
       <path id="DejaVuSans-54" d="M -19 4666 
L 3928 4666 
L 3928 4134 
L 2272 4134 
L 2272 0 
L 1638 0 
L 1638 4134 
L -19 4134 
L -19 4666 
z
" transform="scale(0.015625)"/>
       <path id="DejaVuSans-61" d="M 2194 1759 
Q 1497 1759 1228 1600 
Q 959 1441 959 1056 
Q 959 750 1161 570 
Q 1363 391 1709 391 
Q 2188 391 2477 730 
Q 2766 1069 2766 1631 
L 2766 1759 
L 2194 1759 
z
M 3341 1997 
L 3341 0 
L 2766 0 
L 2766 531 
Q 2569 213 2275 61 
Q 1981 -91 1556 -91 
Q 1019 -91 701 211 
Q 384 513 384 1019 
Q 384 1609 779 1909 
Q 1175 2209 1959 2209 
L 2766 2209 
L 2766 2266 
Q 2766 2663 2505 2880 
Q 2244 3097 1772 3097 
Q 1472 3097 1187 3025 
Q 903 2953 641 2809 
L 641 3341 
Q 956 3463 1253 3523 
Q 1550 3584 1831 3584 
Q 2591 3584 2966 3190 
Q 3341 2797 3341 1997 
z
" transform="scale(0.015625)"/>
       <path id="DejaVuSans-67" d="M 2906 1791 
Q 2906 2416 2648 2759 
Q 2391 3103 1925 3103 
Q 1463 3103 1205 2759 
Q 947 2416 947 1791 
Q 947 1169 1205 825 
Q 1463 481 1925 481 
Q 2391 481 2648 825 
Q 2906 1169 2906 1791 
z
M 3481 434 
Q 3481 -459 3084 -895 
Q 2688 -1331 1869 -1331 
Q 1566 -1331 1297 -1286 
Q 1028 -1241 775 -1147 
L 775 -588 
Q 1028 -725 1275 -790 
Q 1522 -856 1778 -856 
Q 2344 -856 2625 -561 
Q 2906 -266 2906 331 
L 2906 616 
Q 2728 306 2450 153 
Q 2172 0 1784 0 
Q 1141 0 747 490 
Q 353 981 353 1791 
Q 353 2603 747 3093 
Q 1141 3584 1784 3584 
Q 2172 3584 2450 3431 
Q 2728 3278 2906 2969 
L 2906 3500 
L 3481 3500 
L 3481 434 
z
" transform="scale(0.015625)"/>
       <path id="DejaVuSans-45" d="M 628 4666 
L 3578 4666 
L 3578 4134 
L 1259 4134 
L 1259 2753 
L 3481 2753 
L 3481 2222 
L 1259 2222 
L 1259 531 
L 3634 531 
L 3634 0 
L 628 0 
L 628 4666 
z
" transform="scale(0.015625)"/>
       <path id="DejaVuSans-77" d="M 269 3500 
L 844 3500 
L 1563 769 
L 2278 3500 
L 2956 3500 
L 3675 769 
L 4391 3500 
L 4966 3500 
L 4050 0 
L 3372 0 
L 2619 2869 
L 1863 0 
L 1184 0 
L 269 3500 
z
" transform="scale(0.015625)"/>
       <path id="DejaVuSans-68" d="M 3513 2113 
L 3513 0 
L 2938 0 
L 2938 2094 
Q 2938 2591 2744 2837 
Q 2550 3084 2163 3084 
Q 1697 3084 1428 2787 
Q 1159 2491 1159 1978 
L 1159 0 
L 581 0 
L 581 4863 
L 1159 4863 
L 1159 2956 
Q 1366 3272 1645 3428 
Q 1925 3584 2291 3584 
Q 2894 3584 3203 3211 
Q 3513 2838 3513 2113 
z
" transform="scale(0.015625)"/>
      </defs>
      <use xlink:href="#DejaVuSans-49"/>
      <use xlink:href="#DejaVuSans-6e" x="29.492188"/>
      <use xlink:href="#DejaVuSans-7a" x="92.871094"/>
      <use xlink:href="#DejaVuSans-69" x="145.361328"/>
      <use xlink:href="#DejaVuSans-64" x="173.144531"/>
      <use xlink:href="#DejaVuSans-65" x="236.621094"/>
      <use xlink:href="#DejaVuSans-6e" x="298.144531"/>
      <use xlink:href="#DejaVuSans-7a" x="361.523438"/>
      <use xlink:href="#DejaVuSans-20" x="414.013672"/>
      <use xlink:href="#DejaVuSans-70" x="445.800781"/>
      <use xlink:href="#DejaVuSans-72" x="509.277344"/>
      <use xlink:href="#DejaVuSans-6f" x="548.140625"/>
      <use xlink:href="#DejaVuSans-20" x="609.322266"/>
      <use xlink:href="#DejaVuSans-37" x="641.109375"/>
      <use xlink:href="#DejaVuSans-20" x="704.732422"/>
      <use xlink:href="#DejaVuSans-54" x="736.519531"/>
      <use xlink:href="#DejaVuSans-61" x="781.103516"/>
      <use xlink:href="#DejaVuSans-67" x="842.382812"/>
      <use xlink:href="#DejaVuSans-65" x="905.859375"/>
      <use xlink:href="#DejaVuSans-20" x="967.382812"/>
      <use xlink:href="#DejaVuSans-70" x="999.169922"/>
      <use xlink:href="#DejaVuSans-72" x="1062.646484"/>
      <use xlink:href="#DejaVuSans-6f" x="1101.509766"/>
      <use xlink:href="#DejaVuSans-20" x="1162.691406"/>
      <use xlink:href="#DejaVuSans-31" x="1194.478516"/>
      <use xlink:href="#DejaVuSans-30" x="1258.101562"/>
      <use xlink:href="#DejaVuSans-30" x="1321.724609"/>
      <use xlink:href="#DejaVuSans-2e" x="1385.347656"/>
      <use xlink:href="#DejaVuSans-30" x="1417.134766"/>
      <use xlink:href="#DejaVuSans-30" x="1480.757812"/>
      <use xlink:href="#DejaVuSans-30" x="1544.380859"/>
      <use xlink:href="#DejaVuSans-20" x="1608.003906"/>
      <use xlink:href="#DejaVuSans-45" x="1639.791016"/>
      <use xlink:href="#DejaVuSans-69" x="1702.974609"/>
      <use xlink:href="#DejaVuSans-6e" x="1730.757812"/>
      <use xlink:href="#DejaVuSans-77" x="1794.136719"/>
      <use xlink:href="#DejaVuSans-6f" x="1875.923828"/>
      <use xlink:href="#DejaVuSans-68" x="1937.105469"/>
      <use xlink:href="#DejaVuSans-6e" x="2000.484375"/>
      <use xlink:href="#DejaVuSans-65" x="2063.863281"/>
      <use xlink:href="#DejaVuSans-72" x="2125.386719"/>
     </g>
    </g>
   </g>
   <g id="line2d_31">
    <path d="M 73.832727 265.797818 
L 75.364117 265.688816 
L 76.129811 265.416312 
L 76.512659 265.089306 
L 77.278353 264.980304 
L 78.044048 264.762301 
L 78.426895 264.380794 
L 79.19259 264.108289 
L 79.575437 263.290776 
L 79.958285 262.909269 
L 80.341132 261.165239 
L 80.723979 260.783733 
L 81.106827 260.674731 
L 81.489674 260.892735 
L 81.872521 260.456727 
L 82.255369 260.674731 
L 82.638216 260.184223 
L 83.021063 261.546746 
L 83.403911 260.892735 
L 83.786758 259.584712 
L 84.169605 259.094204 
L 84.552453 258.930701 
L 85.700995 256.314657 
L 86.083842 256.205655 
L 87.232384 258.167688 
L 87.615232 258.712698 
L 87.998079 259.693714 
L 88.763774 260.892735 
L 89.146621 261.601247 
L 89.529468 261.437744 
L 89.912316 261.76475 
L 90.67801 263.345276 
L 91.060858 263.399777 
L 91.826552 264.053788 
L 92.2094 264.217291 
L 92.592247 264.16279 
L 93.357942 264.489796 
L 93.740789 265.089306 
L 94.123636 265.416312 
L 95.272178 265.634315 
L 108.671835 265.688816 
L 109.43753 265.797818 
L 110.203225 265.688816 
L 111.734614 265.579814 
L 113.648851 265.688816 
L 114.414545 265.743317 
L 117.477324 265.416312 
L 118.243019 265.525314 
L 119.008714 265.743317 
L 120.157256 265.797818 
L 120.540103 265.797818 
L 120.92295 265.634315 
L 122.071492 265.634315 
L 123.220034 265.143807 
L 124.368576 265.198308 
L 125.134271 265.252809 
L 125.517118 265.470813 
L 127.048508 265.579814 
L 127.431355 265.416312 
L 127.814202 265.525314 
L 128.962744 265.416312 
L 132.40837 265.797818 
L 134.322607 265.688816 
L 135.471149 265.634315 
L 136.236844 265.525314 
L 138.533928 265.252809 
L 138.916775 265.416312 
L 141.979554 264.653299 
L 143.128096 264.7078 
L 143.510943 264.380794 
L 144.276638 264.598798 
L 144.659485 264.380794 
L 145.042333 264.435295 
L 145.42518 264.653299 
L 145.808027 264.544297 
L 146.190875 264.816801 
L 146.573722 264.762301 
L 146.956569 264.435295 
L 147.339417 264.871302 
L 147.722264 264.544297 
L 150.019348 264.435295 
L 150.402196 264.762301 
L 151.933585 264.762301 
L 152.316432 264.598798 
L 153.847822 264.653299 
L 154.230669 264.108289 
L 154.996364 264.871302 
L 155.379211 264.598798 
L 155.762058 264.16279 
L 156.527753 263.835785 
L 156.9106 263.835785 
L 157.293448 263.617781 
L 157.676295 262.96377 
L 158.059142 262.854768 
L 159.207684 263.018271 
L 159.973379 262.473262 
L 160.356226 262.636764 
L 161.121921 261.110738 
L 161.887616 260.511228 
L 162.270463 261.056237 
L 163.036158 258.985202 
L 163.419005 258.821699 
L 163.801852 257.731681 
L 164.1847 257.241173 
L 164.567547 257.186672 
L 164.950395 255.224638 
L 165.333242 254.843132 
L 165.716089 254.080119 
L 166.098937 253.698612 
L 166.481784 252.445091 
L 166.864631 252.935599 
L 167.630326 251.627577 
L 168.013173 250.156052 
L 168.396021 249.774545 
L 168.778868 249.556542 
L 169.161715 250.64656 
L 169.544563 249.611043 
L 169.92741 250.04705 
L 170.310257 251.409573 
L 170.693105 252.281588 
L 171.075952 252.772096 
L 171.458799 252.772096 
L 171.841647 253.916616 
L 172.224494 253.971117 
L 172.607341 254.407124 
L 172.990189 254.516126 
L 173.373036 255.170137 
L 173.755883 255.170137 
L 174.521578 253.480609 
L 174.904425 253.971117 
L 175.287273 253.58961 
L 175.67012 253.862115 
L 176.052967 253.535109 
L 176.435815 254.243622 
L 177.201509 256.696163 
L 177.584357 257.132171 
L 177.967204 257.023169 
L 178.350051 256.641662 
L 178.732899 256.805165 
L 179.115746 254.788631 
L 179.498593 254.570627 
L 179.881441 253.807614 
L 180.264288 253.862115 
L 180.647136 254.73413 
L 181.029983 252.172586 
L 181.41283 250.810063 
L 181.795678 251.19157 
L 182.178525 250.810063 
L 182.561372 250.64656 
L 183.327067 249.720045 
L 184.092762 254.897633 
L 184.858456 253.371607 
L 185.241304 251.518575 
L 186.006998 249.720045 
L 186.389846 248.248519 
L 186.772693 245.523473 
L 187.15554 246.231985 
L 187.921235 249.720045 
L 188.304082 248.902531 
L 189.069777 250.483058 
L 189.452624 250.701061 
L 189.835472 251.082568 
L 190.601166 252.172586 
L 190.984014 254.570627 
L 191.366861 254.73413 
L 191.749708 254.679629 
L 192.132556 255.93315 
L 192.515403 256.696163 
L 193.281098 254.407124 
L 193.663945 254.080119 
L 194.046792 252.881098 
L 194.42964 254.243622 
L 194.812487 254.570627 
L 195.195334 254.461625 
L 195.578182 255.224638 
L 195.961029 256.53266 
L 196.343877 255.878649 
L 196.726724 256.696163 
L 197.109571 256.750664 
L 197.492419 257.132171 
L 198.258113 258.658197 
L 198.640961 258.985202 
L 199.023808 259.857217 
L 199.406655 260.238724 
L 200.555197 262.309759 
L 200.938045 262.473262 
L 201.320892 262.800267 
L 201.703739 262.800267 
L 202.469434 263.127273 
L 202.852281 263.018271 
L 203.617976 263.399777 
L 204.000823 263.345276 
L 204.383671 262.96377 
L 204.766518 263.072772 
L 205.91506 262.800267 
L 206.297907 262.909269 
L 206.680755 262.854768 
L 207.063602 263.290776 
L 207.446449 263.127273 
L 207.829297 263.399777 
L 208.594991 263.345276 
L 208.977839 263.56328 
L 209.360686 263.290776 
L 210.509228 263.236275 
L 210.892075 263.236275 
L 211.274923 263.072772 
L 211.65777 262.473262 
L 212.040617 262.636764 
L 212.423465 262.636764 
L 212.806312 262.800267 
L 213.18916 262.473262 
L 213.954854 260.565729 
L 214.337702 259.312208 
L 214.720549 258.549195 
L 215.103396 257.350174 
L 215.486244 256.641662 
L 215.869091 255.388141 
L 216.251938 254.897633 
L 216.634786 255.006635 
L 217.017633 255.824148 
L 217.40048 255.061135 
L 217.783328 255.551644 
L 218.166175 255.115636 
L 218.549022 254.243622 
L 219.314717 254.025618 
L 219.697564 253.480609 
L 220.080412 254.407124 
L 220.463259 254.298122 
L 221.228954 256.260156 
L 221.611801 256.423659 
L 221.994648 256.423659 
L 222.760343 255.33364 
L 223.526038 254.788631 
L 223.908885 254.189121 
L 224.291732 254.788631 
L 224.67458 254.407124 
L 225.057427 254.788631 
L 225.823122 255.824148 
L 226.205969 255.170137 
L 226.588816 256.750664 
L 226.971664 256.696163 
L 227.354511 257.186672 
L 227.737358 256.805165 
L 228.120206 257.07767 
L 228.503053 256.914167 
L 228.885901 257.67718 
L 229.268748 257.459176 
L 229.651595 255.878649 
L 230.41729 257.132171 
L 230.800137 256.53266 
L 231.182985 256.805165 
L 231.565832 256.47816 
L 231.948679 255.606145 
L 232.331527 256.587161 
L 232.714374 254.952134 
L 233.097221 255.606145 
L 233.480069 255.715147 
L 233.862916 255.497143 
L 234.245763 256.042152 
L 234.628611 256.314657 
L 235.011458 256.914167 
L 235.394305 257.840683 
L 236.16 256.859666 
L 236.542847 256.587161 
L 237.308542 256.47816 
L 237.691389 256.369158 
L 238.074237 256.750664 
L 238.839931 258.603696 
L 239.222779 259.366709 
L 239.605626 259.366709 
L 240.371321 260.347725 
L 240.754168 261.110738 
L 241.137015 261.056237 
L 241.90271 261.873751 
L 242.285557 261.710249 
L 242.668405 262.255258 
L 243.051252 262.037254 
L 243.434099 262.36426 
L 243.816947 262.200757 
L 244.582642 262.527763 
L 244.965489 262.527763 
L 245.348336 262.800267 
L 245.731184 263.726783 
L 246.114031 263.726783 
L 246.496878 264.16279 
L 247.262573 263.726783 
L 247.64542 263.999288 
L 248.793962 263.835785 
L 249.17681 264.053788 
L 249.942504 264.7078 
L 251.856741 265.143807 
L 252.239588 264.871302 
L 252.622436 264.762301 
L 253.38813 264.871302 
L 253.770978 265.089306 
L 254.153825 264.980304 
L 254.536672 265.143807 
L 254.91952 265.470813 
L 256.068062 265.361811 
L 256.450909 265.30731 
L 256.833756 265.416312 
L 257.599451 264.980304 
L 258.365146 264.871302 
L 259.13084 265.034805 
L 259.513688 265.034805 
L 260.279383 265.470813 
L 261.810772 265.579814 
L 263.725009 265.579814 
L 264.107856 265.361811 
L 264.873551 265.198308 
L 265.256398 264.762301 
L 266.40494 264.7078 
L 266.787787 261.110738 
L 267.553482 261.110738 
L 267.936329 261.492245 
L 269.084871 261.274241 
L 269.467719 264.871302 
L 269.850566 264.762301 
L 272.913345 265.143807 
L 273.679039 264.871302 
L 274.444734 265.034805 
L 275.210429 264.980304 
L 275.593276 264.871302 
L 275.976123 264.925803 
L 277.89036 264.380794 
L 278.273208 264.489796 
L 279.038902 263.890286 
L 279.42175 263.835785 
L 280.570292 262.527763 
L 280.953139 261.873751 
L 282.484528 262.146256 
L 282.867376 261.437744 
L 283.63307 260.62023 
L 284.015918 259.148705 
L 284.781612 258.385692 
L 285.16446 258.27669 
L 285.547307 258.8762 
L 286.313002 258.712698 
L 286.695849 259.530212 
L 287.461544 259.257707 
L 287.844391 259.475711 
L 288.227238 258.985202 
L 288.610086 257.622679 
L 288.992933 257.67718 
L 289.758628 255.93315 
L 290.141475 256.042152 
L 290.90717 255.170137 
L 291.290017 255.824148 
L 291.672864 255.115636 
L 292.055712 255.442642 
L 292.438559 256.47816 
L 292.821407 255.769647 
L 293.587101 256.53266 
L 293.969949 256.587161 
L 294.352796 256.805165 
L 294.735643 257.186672 
L 295.118491 257.07767 
L 295.501338 257.404675 
L 296.267033 256.968668 
L 296.64988 257.568178 
L 297.032727 257.67718 
L 297.798422 257.295673 
L 298.181269 257.67718 
L 298.564117 257.895184 
L 298.946964 258.494694 
L 299.329811 258.440193 
L 299.712659 259.094204 
L 300.095506 258.549195 
L 300.478353 258.603696 
L 301.244048 258.494694 
L 301.626895 258.603696 
L 302.39259 256.750664 
L 302.775437 256.805165 
L 303.541132 254.73413 
L 303.923979 254.352623 
L 305.072521 251.518575 
L 305.455369 250.374056 
L 305.838216 249.992549 
L 306.221063 249.393039 
L 306.603911 248.412022 
L 306.986758 248.466523 
L 307.369605 250.701061 
L 307.752453 249.556542 
L 308.518148 249.556542 
L 308.900995 248.575525 
L 309.283842 249.011532 
L 309.66669 248.739028 
L 310.049537 245.959481 
L 310.432384 245.250968 
L 310.815232 244.923963 
L 311.580926 243.942946 
L 312.346621 243.888445 
L 312.729468 241.054397 
L 313.112316 239.364868 
L 313.87801 234.405284 
L 314.260858 234.18728 
L 314.643705 233.260764 
L 315.792247 231.516735 
L 316.175094 232.933759 
L 316.557942 230.862724 
L 316.940789 230.208712 
L 317.323636 228.192178 
L 317.706484 228.30118 
L 318.089331 228.246679 
L 318.472178 229.336698 
L 318.855026 226.938657 
L 319.237873 228.791688 
L 319.62072 227.756171 
L 320.003568 228.955191 
L 320.386415 228.90069 
L 320.769262 229.663703 
L 321.15211 229.009692 
L 321.534957 231.407733 
L 321.917804 232.715755 
L 322.683499 236.912327 
L 323.066346 237.239332 
L 323.449194 240.236883 
L 324.214889 243.288935 
L 324.597736 244.16095 
L 325.363431 244.269952 
L 325.746278 244.542456 
L 326.129125 244.16095 
L 326.511973 246.231985 
L 326.89482 247.049499 
L 327.660515 251.409573 
L 328.426209 251.736579 
L 328.809057 252.009083 
L 329.191904 251.954583 
L 329.574751 251.355072 
L 329.957599 249.556542 
L 330.340446 249.611043 
L 330.723293 249.120534 
L 331.106141 248.357521 
L 331.488988 246.013981 
L 331.871835 244.378954 
L 332.254683 244.487955 
L 332.63753 243.397937 
L 333.020377 240.781892 
L 333.786072 237.784341 
L 334.551767 228.137677 
L 334.934614 218.600015 
L 335.317461 215.820468 
L 335.700309 214.566946 
L 336.083156 212.332408 
L 336.848851 202.576742 
L 337.231698 196.363636 
L 337.614545 186.00846 
L 337.997393 180.885373 
L 339.145935 155.978449 
L 339.528782 154.343421 
L 339.91163 138.374649 
L 340.294477 132.979058 
L 340.677324 115.756764 
L 341.443019 101.477521 
L 341.825866 97.934961 
L 342.208714 84.96374 
L 342.591561 81.857187 
L 342.974408 69.539978 
L 343.357256 66.16092 
L 344.12295 74.990071 
L 344.505798 74.663065 
L 345.271492 93.901892 
L 345.65434 103.276052 
L 346.037187 104.856579 
L 346.420034 102.513039 
L 346.802882 102.676542 
L 347.185729 98.970479 
L 347.568576 98.47997 
L 347.951424 97.28095 
L 348.334271 98.207466 
L 348.717118 110.906182 
L 349.099966 114.121737 
L 349.86566 135.867607 
L 350.248508 130.19951 
L 350.631355 135.4861 
L 351.014202 149.056831 
L 351.39705 150.637358 
L 351.779897 154.234419 
L 352.162744 151.781878 
L 352.545592 153.144401 
L 352.928439 159.739013 
L 353.311286 162.900067 
L 354.076981 133.251562 
L 355.60837 92.59387 
L 355.991218 71.229506 
L 356.374065 65.942917 
L 356.756913 55.642241 
L 357.13976 53.135199 
L 357.522607 52.154182 
L 357.905455 56.514256 
L 358.288302 52.753692 
L 358.671149 54.824727 
L 359.053997 52.263184 
L 359.436844 62.61836 
L 359.819691 64.580393 
L 360.202539 56.623258 
L 360.968233 69.049469 
L 361.351081 61.41934 
L 362.116775 66.542427 
L 362.499623 63.762879 
L 362.88247 79.67715 
L 363.265317 78.641633 
L 363.648165 73.246041 
L 364.031012 91.39485 
L 365.179554 127.474464 
L 365.562401 124.91292 
L 365.945249 126.275443 
L 366.328096 139.846174 
L 367.093791 156.523458 
L 367.476638 157.177469 
L 368.242333 162.082553 
L 368.62518 160.284022 
L 369.008027 163.499577 
L 369.390875 162.191555 
L 369.773722 162.627562 
L 370.156569 172.165224 
L 370.539417 174.781269 
L 370.922264 175.162776 
L 371.687959 184.863941 
L 372.453654 190.041529 
L 372.836501 184.536935 
L 373.219348 181.484883 
L 373.985043 184.918442 
L 374.36789 182.356898 
L 374.750738 183.174412 
L 375.133585 185.626954 
L 375.516432 185.517952 
L 375.89928 187.861492 
L 376.282127 189.224015 
L 376.664974 189.060512 
L 377.813516 201.432223 
L 378.196364 207.536327 
L 378.579211 208.408341 
L 378.962058 208.680846 
L 379.727753 214.675948 
L 380.1106 215.602464 
L 380.493448 218.654516 
L 380.876295 219.308527 
L 381.259142 221.379562 
L 381.64199 222.033573 
L 382.024837 223.396096 
L 382.407684 223.505098 
L 382.790532 230.753722 
L 383.173379 231.080727 
L 383.556226 234.568787 
L 384.704768 239.364868 
L 385.087616 244.16095 
L 385.470463 245.686976 
L 385.85331 249.611043 
L 386.236158 250.101551 
L 386.619005 251.845581 
L 387.3847 249.883547 
L 387.767547 249.393039 
L 388.533242 244.433455 
L 389.298937 242.362419 
L 389.681784 243.452438 
L 390.064631 243.997447 
L 390.447479 245.523473 
L 390.830326 243.56144 
L 391.213173 240.182382 
L 391.978868 236.040312 
L 392.361715 235.767807 
L 392.744563 234.732289 
L 393.12741 230.154212 
L 393.510257 231.625737 
L 394.275952 235.495302 
L 394.658799 233.860275 
L 395.041647 234.841291 
L 395.424494 233.751273 
L 395.807341 228.355681 
L 396.955883 217.400994 
L 397.338731 219.254026 
L 397.721578 217.182991 
L 398.104425 218.000505 
L 398.487273 221.27056 
L 398.487273 221.27056 
" clip-path="url(#pe5d4bd1497)" style="fill: none; stroke: #1f77b4; stroke-width: 1.5; stroke-linecap: square"/>
   </g>
   <g id="patch_3">
    <path d="M 57.6 276.48 
L 57.6 41.472 
" style="fill: none; stroke: #000000; stroke-width: 0.8; stroke-linejoin: miter; stroke-linecap: square"/>
   </g>
   <g id="patch_4">
    <path d="M 414.72 276.48 
L 414.72 41.472 
" style="fill: none; stroke: #000000; stroke-width: 0.8; stroke-linejoin: miter; stroke-linecap: square"/>
   </g>
   <g id="patch_5">
    <path d="M 57.6 276.48 
L 414.72 276.48 
" style="fill: none; stroke: #000000; stroke-width: 0.8; stroke-linejoin: miter; stroke-linecap: square"/>
   </g>
   <g id="patch_6">
    <path d="M 57.6 41.472 
L 414.72 41.472 
" style="fill: none; stroke: #000000; stroke-width: 0.8; stroke-linejoin: miter; stroke-linecap: square"/>
   </g>
  </g>
  <g id="text_17">
   <!-- Inzidenzverlauf LK Emmendingen -->
   <g transform="translate(79.714688 20.589187)scale(0.18 -0.18)">
    <defs>
     <path id="DejaVuSans-76" d="M 191 3500 
L 800 3500 
L 1894 563 
L 2988 3500 
L 3597 3500 
L 2284 0 
L 1503 0 
L 191 3500 
z
" transform="scale(0.015625)"/>
     <path id="DejaVuSans-6c" d="M 603 4863 
L 1178 4863 
L 1178 0 
L 603 0 
L 603 4863 
z
" transform="scale(0.015625)"/>
     <path id="DejaVuSans-75" d="M 544 1381 
L 544 3500 
L 1119 3500 
L 1119 1403 
Q 1119 906 1312 657 
Q 1506 409 1894 409 
Q 2359 409 2629 706 
Q 2900 1003 2900 1516 
L 2900 3500 
L 3475 3500 
L 3475 0 
L 2900 0 
L 2900 538 
Q 2691 219 2414 64 
Q 2138 -91 1772 -91 
Q 1169 -91 856 284 
Q 544 659 544 1381 
z
M 1991 3584 
L 1991 3584 
z
" transform="scale(0.015625)"/>
     <path id="DejaVuSans-66" d="M 2375 4863 
L 2375 4384 
L 1825 4384 
Q 1516 4384 1395 4259 
Q 1275 4134 1275 3809 
L 1275 3500 
L 2222 3500 
L 2222 3053 
L 1275 3053 
L 1275 0 
L 697 0 
L 697 3053 
L 147 3053 
L 147 3500 
L 697 3500 
L 697 3744 
Q 697 4328 969 4595 
Q 1241 4863 1831 4863 
L 2375 4863 
z
" transform="scale(0.015625)"/>
     <path id="DejaVuSans-4c" d="M 628 4666 
L 1259 4666 
L 1259 531 
L 3531 531 
L 3531 0 
L 628 0 
L 628 4666 
z
" transform="scale(0.015625)"/>
     <path id="DejaVuSans-4b" d="M 628 4666 
L 1259 4666 
L 1259 2694 
L 3353 4666 
L 4166 4666 
L 1850 2491 
L 4331 0 
L 3500 0 
L 1259 2247 
L 1259 0 
L 628 0 
L 628 4666 
z
" transform="scale(0.015625)"/>
     <path id="DejaVuSans-6d" d="M 3328 2828 
Q 3544 3216 3844 3400 
Q 4144 3584 4550 3584 
Q 5097 3584 5394 3201 
Q 5691 2819 5691 2113 
L 5691 0 
L 5113 0 
L 5113 2094 
Q 5113 2597 4934 2840 
Q 4756 3084 4391 3084 
Q 3944 3084 3684 2787 
Q 3425 2491 3425 1978 
L 3425 0 
L 2847 0 
L 2847 2094 
Q 2847 2600 2669 2842 
Q 2491 3084 2119 3084 
Q 1678 3084 1418 2786 
Q 1159 2488 1159 1978 
L 1159 0 
L 581 0 
L 581 3500 
L 1159 3500 
L 1159 2956 
Q 1356 3278 1631 3431 
Q 1906 3584 2284 3584 
Q 2666 3584 2933 3390 
Q 3200 3197 3328 2828 
z
" transform="scale(0.015625)"/>
    </defs>
    <use xlink:href="#DejaVuSans-49"/>
    <use xlink:href="#DejaVuSans-6e" x="29.492188"/>
    <use xlink:href="#DejaVuSans-7a" x="92.871094"/>
    <use xlink:href="#DejaVuSans-69" x="145.361328"/>
    <use xlink:href="#DejaVuSans-64" x="173.144531"/>
    <use xlink:href="#DejaVuSans-65" x="236.621094"/>
    <use xlink:href="#DejaVuSans-6e" x="298.144531"/>
    <use xlink:href="#DejaVuSans-7a" x="361.523438"/>
    <use xlink:href="#DejaVuSans-76" x="414.013672"/>
    <use xlink:href="#DejaVuSans-65" x="473.193359"/>
    <use xlink:href="#DejaVuSans-72" x="534.716797"/>
    <use xlink:href="#DejaVuSans-6c" x="575.830078"/>
    <use xlink:href="#DejaVuSans-61" x="603.613281"/>
    <use xlink:href="#DejaVuSans-75" x="664.892578"/>
    <use xlink:href="#DejaVuSans-66" x="728.271484"/>
    <use xlink:href="#DejaVuSans-20" x="763.476562"/>
    <use xlink:href="#DejaVuSans-4c" x="795.263672"/>
    <use xlink:href="#DejaVuSans-4b" x="850.976562"/>
    <use xlink:href="#DejaVuSans-20" x="916.552734"/>
    <use xlink:href="#DejaVuSans-45" x="948.339844"/>
    <use xlink:href="#DejaVuSans-6d" x="1011.523438"/>
    <use xlink:href="#DejaVuSans-6d" x="1108.935547"/>
    <use xlink:href="#DejaVuSans-65" x="1206.347656"/>
    <use xlink:href="#DejaVuSans-6e" x="1267.871094"/>
    <use xlink:href="#DejaVuSans-64" x="1331.25"/>
    <use xlink:href="#DejaVuSans-69" x="1394.726562"/>
    <use xlink:href="#DejaVuSans-6e" x="1422.509766"/>
    <use xlink:href="#DejaVuSans-67" x="1485.888672"/>
    <use xlink:href="#DejaVuSans-65" x="1549.365234"/>
    <use xlink:href="#DejaVuSans-6e" x="1610.888672"/>
   </g>
  </g>
 </g>
 <defs>
  <clipPath id="pe5d4bd1497">
   <rect x="57.6" y="41.472" width="357.12" height="235.008"/>
  </clipPath>
 </defs>
</svg>
