<?xml version="1.0" encoding="utf-8" standalone="no"?>
<!DOCTYPE svg PUBLIC "-//W3C//DTD SVG 1.1//EN"
  "http://www.w3.org/Graphics/SVG/1.1/DTD/svg11.dtd">
<svg xmlns:xlink="http://www.w3.org/1999/xlink" width="460.8pt" height="345.6pt" viewBox="0 0 460.8 345.6" xmlns="http://www.w3.org/2000/svg" version="1.1">
 <metadata>
  <rdf:RDF xmlns:dc="http://purl.org/dc/elements/1.1/" xmlns:cc="http://creativecommons.org/ns#" xmlns:rdf="http://www.w3.org/1999/02/22-rdf-syntax-ns#">
   <cc:Work>
    <dc:type rdf:resource="http://purl.org/dc/dcmitype/StillImage"/>
    <dc:date>2022-04-10T09:20:52.533022</dc:date>
    <dc:format>image/svg+xml</dc:format>
    <dc:creator>
     <cc:Agent>
      <dc:title>Matplotlib v3.5.1, https://matplotlib.org/</dc:title>
     </cc:Agent>
    </dc:creator>
   </cc:Work>
  </rdf:RDF>
 </metadata>
 <defs>
  <style type="text/css">*{stroke-linejoin: round; stroke-linecap: butt}</style>
 </defs>
 <g id="figure_1">
  <g id="patch_1">
   <path d="M 0 345.6 
L 460.8 345.6 
L 460.8 0 
L 0 0 
z
" style="fill: #ffffff"/>
  </g>
  <g id="axes_1">
   <g id="patch_2">
    <path d="M 57.6 276.48 
L 414.72 276.48 
L 414.72 41.472 
L 57.6 41.472 
z
" style="fill: #ffffff"/>
   </g>
   <g id="matplotlib.axis_1">
    <g id="xtick_1">
     <g id="line2d_1">
      <path d="M 59.160568 276.48 
L 59.160568 41.472 
" clip-path="url(#p217af8ce7a)" style="fill: none; stroke-dasharray: 2.96,1.28; stroke-dashoffset: 0; stroke: #808080; stroke-width: 0.8"/>
     </g>
     <g id="line2d_2">
      <defs>
       <path id="ma741d751fe" d="M 0 0 
L 0 3.5 
" style="stroke: #000000; stroke-width: 0.8"/>
      </defs>
      <g>
       <use xlink:href="#ma741d751fe" x="59.160568" y="276.48" style="stroke: #000000; stroke-width: 0.8"/>
      </g>
     </g>
     <g id="text_1">
      <!-- 28.01.2020 -->
      <g transform="translate(8.535357 318.688565)rotate(-30)scale(0.1 -0.1)">
       <defs>
        <path id="DejaVuSans-32" d="M 1228 531 
L 3431 531 
L 3431 0 
L 469 0 
L 469 531 
Q 828 903 1448 1529 
Q 2069 2156 2228 2338 
Q 2531 2678 2651 2914 
Q 2772 3150 2772 3378 
Q 2772 3750 2511 3984 
Q 2250 4219 1831 4219 
Q 1534 4219 1204 4116 
Q 875 4013 500 3803 
L 500 4441 
Q 881 4594 1212 4672 
Q 1544 4750 1819 4750 
Q 2544 4750 2975 4387 
Q 3406 4025 3406 3419 
Q 3406 3131 3298 2873 
Q 3191 2616 2906 2266 
Q 2828 2175 2409 1742 
Q 1991 1309 1228 531 
z
" transform="scale(0.015625)"/>
        <path id="DejaVuSans-38" d="M 2034 2216 
Q 1584 2216 1326 1975 
Q 1069 1734 1069 1313 
Q 1069 891 1326 650 
Q 1584 409 2034 409 
Q 2484 409 2743 651 
Q 3003 894 3003 1313 
Q 3003 1734 2745 1975 
Q 2488 2216 2034 2216 
z
M 1403 2484 
Q 997 2584 770 2862 
Q 544 3141 544 3541 
Q 544 4100 942 4425 
Q 1341 4750 2034 4750 
Q 2731 4750 3128 4425 
Q 3525 4100 3525 3541 
Q 3525 3141 3298 2862 
Q 3072 2584 2669 2484 
Q 3125 2378 3379 2068 
Q 3634 1759 3634 1313 
Q 3634 634 3220 271 
Q 2806 -91 2034 -91 
Q 1263 -91 848 271 
Q 434 634 434 1313 
Q 434 1759 690 2068 
Q 947 2378 1403 2484 
z
M 1172 3481 
Q 1172 3119 1398 2916 
Q 1625 2713 2034 2713 
Q 2441 2713 2670 2916 
Q 2900 3119 2900 3481 
Q 2900 3844 2670 4047 
Q 2441 4250 2034 4250 
Q 1625 4250 1398 4047 
Q 1172 3844 1172 3481 
z
" transform="scale(0.015625)"/>
        <path id="DejaVuSans-2e" d="M 684 794 
L 1344 794 
L 1344 0 
L 684 0 
L 684 794 
z
" transform="scale(0.015625)"/>
        <path id="DejaVuSans-30" d="M 2034 4250 
Q 1547 4250 1301 3770 
Q 1056 3291 1056 2328 
Q 1056 1369 1301 889 
Q 1547 409 2034 409 
Q 2525 409 2770 889 
Q 3016 1369 3016 2328 
Q 3016 3291 2770 3770 
Q 2525 4250 2034 4250 
z
M 2034 4750 
Q 2819 4750 3233 4129 
Q 3647 3509 3647 2328 
Q 3647 1150 3233 529 
Q 2819 -91 2034 -91 
Q 1250 -91 836 529 
Q 422 1150 422 2328 
Q 422 3509 836 4129 
Q 1250 4750 2034 4750 
z
" transform="scale(0.015625)"/>
        <path id="DejaVuSans-31" d="M 794 531 
L 1825 531 
L 1825 4091 
L 703 3866 
L 703 4441 
L 1819 4666 
L 2450 4666 
L 2450 531 
L 3481 531 
L 3481 0 
L 794 0 
L 794 531 
z
" transform="scale(0.015625)"/>
       </defs>
       <use xlink:href="#DejaVuSans-32"/>
       <use xlink:href="#DejaVuSans-38" x="63.623047"/>
       <use xlink:href="#DejaVuSans-2e" x="127.246094"/>
       <use xlink:href="#DejaVuSans-30" x="159.033203"/>
       <use xlink:href="#DejaVuSans-31" x="222.65625"/>
       <use xlink:href="#DejaVuSans-2e" x="286.279297"/>
       <use xlink:href="#DejaVuSans-32" x="318.066406"/>
       <use xlink:href="#DejaVuSans-30" x="381.689453"/>
       <use xlink:href="#DejaVuSans-32" x="445.3125"/>
       <use xlink:href="#DejaVuSans-30" x="508.935547"/>
      </g>
     </g>
    </g>
    <g id="xtick_2">
     <g id="line2d_3">
      <path d="M 95.092386 276.48 
L 95.092386 41.472 
" clip-path="url(#p217af8ce7a)" style="fill: none; stroke-dasharray: 2.96,1.28; stroke-dashoffset: 0; stroke: #808080; stroke-width: 0.8"/>
     </g>
     <g id="line2d_4">
      <g>
       <use xlink:href="#ma741d751fe" x="95.092386" y="276.48" style="stroke: #000000; stroke-width: 0.8"/>
      </g>
     </g>
     <g id="text_2">
      <!-- 22.04.2020 -->
      <g transform="translate(44.467176 318.688565)rotate(-30)scale(0.1 -0.1)">
       <defs>
        <path id="DejaVuSans-34" d="M 2419 4116 
L 825 1625 
L 2419 1625 
L 2419 4116 
z
M 2253 4666 
L 3047 4666 
L 3047 1625 
L 3713 1625 
L 3713 1100 
L 3047 1100 
L 3047 0 
L 2419 0 
L 2419 1100 
L 313 1100 
L 313 1709 
L 2253 4666 
z
" transform="scale(0.015625)"/>
       </defs>
       <use xlink:href="#DejaVuSans-32"/>
       <use xlink:href="#DejaVuSans-32" x="63.623047"/>
       <use xlink:href="#DejaVuSans-2e" x="127.246094"/>
       <use xlink:href="#DejaVuSans-30" x="159.033203"/>
       <use xlink:href="#DejaVuSans-34" x="222.65625"/>
       <use xlink:href="#DejaVuSans-2e" x="286.279297"/>
       <use xlink:href="#DejaVuSans-32" x="318.066406"/>
       <use xlink:href="#DejaVuSans-30" x="381.689453"/>
       <use xlink:href="#DejaVuSans-32" x="445.3125"/>
       <use xlink:href="#DejaVuSans-30" x="508.935547"/>
      </g>
     </g>
    </g>
    <g id="xtick_3">
     <g id="line2d_5">
      <path d="M 131.024205 276.48 
L 131.024205 41.472 
" clip-path="url(#p217af8ce7a)" style="fill: none; stroke-dasharray: 2.96,1.28; stroke-dashoffset: 0; stroke: #808080; stroke-width: 0.8"/>
     </g>
     <g id="line2d_6">
      <g>
       <use xlink:href="#ma741d751fe" x="131.024205" y="276.48" style="stroke: #000000; stroke-width: 0.8"/>
      </g>
     </g>
     <g id="text_3">
      <!-- 16.07.2020 -->
      <g transform="translate(80.398994 318.688565)rotate(-30)scale(0.1 -0.1)">
       <defs>
        <path id="DejaVuSans-36" d="M 2113 2584 
Q 1688 2584 1439 2293 
Q 1191 2003 1191 1497 
Q 1191 994 1439 701 
Q 1688 409 2113 409 
Q 2538 409 2786 701 
Q 3034 994 3034 1497 
Q 3034 2003 2786 2293 
Q 2538 2584 2113 2584 
z
M 3366 4563 
L 3366 3988 
Q 3128 4100 2886 4159 
Q 2644 4219 2406 4219 
Q 1781 4219 1451 3797 
Q 1122 3375 1075 2522 
Q 1259 2794 1537 2939 
Q 1816 3084 2150 3084 
Q 2853 3084 3261 2657 
Q 3669 2231 3669 1497 
Q 3669 778 3244 343 
Q 2819 -91 2113 -91 
Q 1303 -91 875 529 
Q 447 1150 447 2328 
Q 447 3434 972 4092 
Q 1497 4750 2381 4750 
Q 2619 4750 2861 4703 
Q 3103 4656 3366 4563 
z
" transform="scale(0.015625)"/>
        <path id="DejaVuSans-37" d="M 525 4666 
L 3525 4666 
L 3525 4397 
L 1831 0 
L 1172 0 
L 2766 4134 
L 525 4134 
L 525 4666 
z
" transform="scale(0.015625)"/>
       </defs>
       <use xlink:href="#DejaVuSans-31"/>
       <use xlink:href="#DejaVuSans-36" x="63.623047"/>
       <use xlink:href="#DejaVuSans-2e" x="127.246094"/>
       <use xlink:href="#DejaVuSans-30" x="159.033203"/>
       <use xlink:href="#DejaVuSans-37" x="222.65625"/>
       <use xlink:href="#DejaVuSans-2e" x="286.279297"/>
       <use xlink:href="#DejaVuSans-32" x="318.066406"/>
       <use xlink:href="#DejaVuSans-30" x="381.689453"/>
       <use xlink:href="#DejaVuSans-32" x="445.3125"/>
       <use xlink:href="#DejaVuSans-30" x="508.935547"/>
      </g>
     </g>
    </g>
    <g id="xtick_4">
     <g id="line2d_7">
      <path d="M 166.956023 276.48 
L 166.956023 41.472 
" clip-path="url(#p217af8ce7a)" style="fill: none; stroke-dasharray: 2.96,1.28; stroke-dashoffset: 0; stroke: #808080; stroke-width: 0.8"/>
     </g>
     <g id="line2d_8">
      <g>
       <use xlink:href="#ma741d751fe" x="166.956023" y="276.48" style="stroke: #000000; stroke-width: 0.8"/>
      </g>
     </g>
     <g id="text_4">
      <!-- 09.10.2020 -->
      <g transform="translate(116.330812 318.688565)rotate(-30)scale(0.1 -0.1)">
       <defs>
        <path id="DejaVuSans-39" d="M 703 97 
L 703 672 
Q 941 559 1184 500 
Q 1428 441 1663 441 
Q 2288 441 2617 861 
Q 2947 1281 2994 2138 
Q 2813 1869 2534 1725 
Q 2256 1581 1919 1581 
Q 1219 1581 811 2004 
Q 403 2428 403 3163 
Q 403 3881 828 4315 
Q 1253 4750 1959 4750 
Q 2769 4750 3195 4129 
Q 3622 3509 3622 2328 
Q 3622 1225 3098 567 
Q 2575 -91 1691 -91 
Q 1453 -91 1209 -44 
Q 966 3 703 97 
z
M 1959 2075 
Q 2384 2075 2632 2365 
Q 2881 2656 2881 3163 
Q 2881 3666 2632 3958 
Q 2384 4250 1959 4250 
Q 1534 4250 1286 3958 
Q 1038 3666 1038 3163 
Q 1038 2656 1286 2365 
Q 1534 2075 1959 2075 
z
" transform="scale(0.015625)"/>
       </defs>
       <use xlink:href="#DejaVuSans-30"/>
       <use xlink:href="#DejaVuSans-39" x="63.623047"/>
       <use xlink:href="#DejaVuSans-2e" x="127.246094"/>
       <use xlink:href="#DejaVuSans-31" x="159.033203"/>
       <use xlink:href="#DejaVuSans-30" x="222.65625"/>
       <use xlink:href="#DejaVuSans-2e" x="286.279297"/>
       <use xlink:href="#DejaVuSans-32" x="318.066406"/>
       <use xlink:href="#DejaVuSans-30" x="381.689453"/>
       <use xlink:href="#DejaVuSans-32" x="445.3125"/>
       <use xlink:href="#DejaVuSans-30" x="508.935547"/>
      </g>
     </g>
    </g>
    <g id="xtick_5">
     <g id="line2d_9">
      <path d="M 202.887841 276.48 
L 202.887841 41.472 
" clip-path="url(#p217af8ce7a)" style="fill: none; stroke-dasharray: 2.96,1.28; stroke-dashoffset: 0; stroke: #808080; stroke-width: 0.8"/>
     </g>
     <g id="line2d_10">
      <g>
       <use xlink:href="#ma741d751fe" x="202.887841" y="276.48" style="stroke: #000000; stroke-width: 0.8"/>
      </g>
     </g>
     <g id="text_5">
      <!-- 02.01.2021 -->
      <g transform="translate(152.26263 318.688565)rotate(-30)scale(0.1 -0.1)">
       <use xlink:href="#DejaVuSans-30"/>
       <use xlink:href="#DejaVuSans-32" x="63.623047"/>
       <use xlink:href="#DejaVuSans-2e" x="127.246094"/>
       <use xlink:href="#DejaVuSans-30" x="159.033203"/>
       <use xlink:href="#DejaVuSans-31" x="222.65625"/>
       <use xlink:href="#DejaVuSans-2e" x="286.279297"/>
       <use xlink:href="#DejaVuSans-32" x="318.066406"/>
       <use xlink:href="#DejaVuSans-30" x="381.689453"/>
       <use xlink:href="#DejaVuSans-32" x="445.3125"/>
       <use xlink:href="#DejaVuSans-31" x="508.935547"/>
      </g>
     </g>
    </g>
    <g id="xtick_6">
     <g id="line2d_11">
      <path d="M 238.819659 276.48 
L 238.819659 41.472 
" clip-path="url(#p217af8ce7a)" style="fill: none; stroke-dasharray: 2.96,1.28; stroke-dashoffset: 0; stroke: #808080; stroke-width: 0.8"/>
     </g>
     <g id="line2d_12">
      <g>
       <use xlink:href="#ma741d751fe" x="238.819659" y="276.48" style="stroke: #000000; stroke-width: 0.8"/>
      </g>
     </g>
     <g id="text_6">
      <!-- 28.03.2021 -->
      <g transform="translate(188.194448 318.688565)rotate(-30)scale(0.1 -0.1)">
       <defs>
        <path id="DejaVuSans-33" d="M 2597 2516 
Q 3050 2419 3304 2112 
Q 3559 1806 3559 1356 
Q 3559 666 3084 287 
Q 2609 -91 1734 -91 
Q 1441 -91 1130 -33 
Q 819 25 488 141 
L 488 750 
Q 750 597 1062 519 
Q 1375 441 1716 441 
Q 2309 441 2620 675 
Q 2931 909 2931 1356 
Q 2931 1769 2642 2001 
Q 2353 2234 1838 2234 
L 1294 2234 
L 1294 2753 
L 1863 2753 
Q 2328 2753 2575 2939 
Q 2822 3125 2822 3475 
Q 2822 3834 2567 4026 
Q 2313 4219 1838 4219 
Q 1578 4219 1281 4162 
Q 984 4106 628 3988 
L 628 4550 
Q 988 4650 1302 4700 
Q 1616 4750 1894 4750 
Q 2613 4750 3031 4423 
Q 3450 4097 3450 3541 
Q 3450 3153 3228 2886 
Q 3006 2619 2597 2516 
z
" transform="scale(0.015625)"/>
       </defs>
       <use xlink:href="#DejaVuSans-32"/>
       <use xlink:href="#DejaVuSans-38" x="63.623047"/>
       <use xlink:href="#DejaVuSans-2e" x="127.246094"/>
       <use xlink:href="#DejaVuSans-30" x="159.033203"/>
       <use xlink:href="#DejaVuSans-33" x="222.65625"/>
       <use xlink:href="#DejaVuSans-2e" x="286.279297"/>
       <use xlink:href="#DejaVuSans-32" x="318.066406"/>
       <use xlink:href="#DejaVuSans-30" x="381.689453"/>
       <use xlink:href="#DejaVuSans-32" x="445.3125"/>
       <use xlink:href="#DejaVuSans-31" x="508.935547"/>
      </g>
     </g>
    </g>
    <g id="xtick_7">
     <g id="line2d_13">
      <path d="M 274.751477 276.48 
L 274.751477 41.472 
" clip-path="url(#p217af8ce7a)" style="fill: none; stroke-dasharray: 2.96,1.28; stroke-dashoffset: 0; stroke: #808080; stroke-width: 0.8"/>
     </g>
     <g id="line2d_14">
      <g>
       <use xlink:href="#ma741d751fe" x="274.751477" y="276.48" style="stroke: #000000; stroke-width: 0.8"/>
      </g>
     </g>
     <g id="text_7">
      <!-- 21.06.2021 -->
      <g transform="translate(224.126266 318.688565)rotate(-30)scale(0.1 -0.1)">
       <use xlink:href="#DejaVuSans-32"/>
       <use xlink:href="#DejaVuSans-31" x="63.623047"/>
       <use xlink:href="#DejaVuSans-2e" x="127.246094"/>
       <use xlink:href="#DejaVuSans-30" x="159.033203"/>
       <use xlink:href="#DejaVuSans-36" x="222.65625"/>
       <use xlink:href="#DejaVuSans-2e" x="286.279297"/>
       <use xlink:href="#DejaVuSans-32" x="318.066406"/>
       <use xlink:href="#DejaVuSans-30" x="381.689453"/>
       <use xlink:href="#DejaVuSans-32" x="445.3125"/>
       <use xlink:href="#DejaVuSans-31" x="508.935547"/>
      </g>
     </g>
    </g>
    <g id="xtick_8">
     <g id="line2d_15">
      <path d="M 310.683295 276.48 
L 310.683295 41.472 
" clip-path="url(#p217af8ce7a)" style="fill: none; stroke-dasharray: 2.96,1.28; stroke-dashoffset: 0; stroke: #808080; stroke-width: 0.8"/>
     </g>
     <g id="line2d_16">
      <g>
       <use xlink:href="#ma741d751fe" x="310.683295" y="276.48" style="stroke: #000000; stroke-width: 0.8"/>
      </g>
     </g>
     <g id="text_8">
      <!-- 14.09.2021 -->
      <g transform="translate(260.058085 318.688565)rotate(-30)scale(0.1 -0.1)">
       <use xlink:href="#DejaVuSans-31"/>
       <use xlink:href="#DejaVuSans-34" x="63.623047"/>
       <use xlink:href="#DejaVuSans-2e" x="127.246094"/>
       <use xlink:href="#DejaVuSans-30" x="159.033203"/>
       <use xlink:href="#DejaVuSans-39" x="222.65625"/>
       <use xlink:href="#DejaVuSans-2e" x="286.279297"/>
       <use xlink:href="#DejaVuSans-32" x="318.066406"/>
       <use xlink:href="#DejaVuSans-30" x="381.689453"/>
       <use xlink:href="#DejaVuSans-32" x="445.3125"/>
       <use xlink:href="#DejaVuSans-31" x="508.935547"/>
      </g>
     </g>
    </g>
    <g id="xtick_9">
     <g id="line2d_17">
      <path d="M 346.615114 276.48 
L 346.615114 41.472 
" clip-path="url(#p217af8ce7a)" style="fill: none; stroke-dasharray: 2.96,1.28; stroke-dashoffset: 0; stroke: #808080; stroke-width: 0.8"/>
     </g>
     <g id="line2d_18">
      <g>
       <use xlink:href="#ma741d751fe" x="346.615114" y="276.48" style="stroke: #000000; stroke-width: 0.8"/>
      </g>
     </g>
     <g id="text_9">
      <!-- 08.12.2021 -->
      <g transform="translate(295.989903 318.688565)rotate(-30)scale(0.1 -0.1)">
       <use xlink:href="#DejaVuSans-30"/>
       <use xlink:href="#DejaVuSans-38" x="63.623047"/>
       <use xlink:href="#DejaVuSans-2e" x="127.246094"/>
       <use xlink:href="#DejaVuSans-31" x="159.033203"/>
       <use xlink:href="#DejaVuSans-32" x="222.65625"/>
       <use xlink:href="#DejaVuSans-2e" x="286.279297"/>
       <use xlink:href="#DejaVuSans-32" x="318.066406"/>
       <use xlink:href="#DejaVuSans-30" x="381.689453"/>
       <use xlink:href="#DejaVuSans-32" x="445.3125"/>
       <use xlink:href="#DejaVuSans-31" x="508.935547"/>
      </g>
     </g>
    </g>
    <g id="xtick_10">
     <g id="line2d_19">
      <path d="M 382.546932 276.48 
L 382.546932 41.472 
" clip-path="url(#p217af8ce7a)" style="fill: none; stroke-dasharray: 2.96,1.28; stroke-dashoffset: 0; stroke: #808080; stroke-width: 0.8"/>
     </g>
     <g id="line2d_20">
      <g>
       <use xlink:href="#ma741d751fe" x="382.546932" y="276.48" style="stroke: #000000; stroke-width: 0.8"/>
      </g>
     </g>
     <g id="text_10">
      <!-- 03.03.2022 -->
      <g transform="translate(331.921721 318.688565)rotate(-30)scale(0.1 -0.1)">
       <use xlink:href="#DejaVuSans-30"/>
       <use xlink:href="#DejaVuSans-33" x="63.623047"/>
       <use xlink:href="#DejaVuSans-2e" x="127.246094"/>
       <use xlink:href="#DejaVuSans-30" x="159.033203"/>
       <use xlink:href="#DejaVuSans-33" x="222.65625"/>
       <use xlink:href="#DejaVuSans-2e" x="286.279297"/>
       <use xlink:href="#DejaVuSans-32" x="318.066406"/>
       <use xlink:href="#DejaVuSans-30" x="381.689453"/>
       <use xlink:href="#DejaVuSans-32" x="445.3125"/>
       <use xlink:href="#DejaVuSans-32" x="508.935547"/>
      </g>
     </g>
    </g>
   </g>
   <g id="matplotlib.axis_2">
    <g id="ytick_1">
     <g id="line2d_21">
      <path d="M 57.6 263.299647 
L 414.72 263.299647 
" clip-path="url(#p217af8ce7a)" style="fill: none; stroke-dasharray: 2.96,1.28; stroke-dashoffset: 0; stroke: #808080; stroke-width: 0.8"/>
     </g>
     <g id="line2d_22">
      <defs>
       <path id="m763822fbac" d="M 0 0 
L -3.5 0 
" style="stroke: #000000; stroke-width: 0.8"/>
      </defs>
      <g>
       <use xlink:href="#m763822fbac" x="57.6" y="263.299647" style="stroke: #000000; stroke-width: 0.8"/>
      </g>
     </g>
     <g id="text_11">
      <!-- 0 -->
      <g transform="translate(44.2375 267.098865)scale(0.1 -0.1)">
       <use xlink:href="#DejaVuSans-30"/>
      </g>
     </g>
    </g>
    <g id="ytick_2">
     <g id="line2d_23">
      <path d="M 57.6 218.330809 
L 414.72 218.330809 
" clip-path="url(#p217af8ce7a)" style="fill: none; stroke-dasharray: 2.96,1.28; stroke-dashoffset: 0; stroke: #808080; stroke-width: 0.8"/>
     </g>
     <g id="line2d_24">
      <g>
       <use xlink:href="#m763822fbac" x="57.6" y="218.330809" style="stroke: #000000; stroke-width: 0.8"/>
      </g>
     </g>
     <g id="text_12">
      <!-- 500 -->
      <g transform="translate(31.5125 222.130028)scale(0.1 -0.1)">
       <defs>
        <path id="DejaVuSans-35" d="M 691 4666 
L 3169 4666 
L 3169 4134 
L 1269 4134 
L 1269 2991 
Q 1406 3038 1543 3061 
Q 1681 3084 1819 3084 
Q 2600 3084 3056 2656 
Q 3513 2228 3513 1497 
Q 3513 744 3044 326 
Q 2575 -91 1722 -91 
Q 1428 -91 1123 -41 
Q 819 9 494 109 
L 494 744 
Q 775 591 1075 516 
Q 1375 441 1709 441 
Q 2250 441 2565 725 
Q 2881 1009 2881 1497 
Q 2881 1984 2565 2268 
Q 2250 2553 1709 2553 
Q 1456 2553 1204 2497 
Q 953 2441 691 2322 
L 691 4666 
z
" transform="scale(0.015625)"/>
       </defs>
       <use xlink:href="#DejaVuSans-35"/>
       <use xlink:href="#DejaVuSans-30" x="63.623047"/>
       <use xlink:href="#DejaVuSans-30" x="127.246094"/>
      </g>
     </g>
    </g>
    <g id="ytick_3">
     <g id="line2d_25">
      <path d="M 57.6 173.361971 
L 414.72 173.361971 
" clip-path="url(#p217af8ce7a)" style="fill: none; stroke-dasharray: 2.96,1.28; stroke-dashoffset: 0; stroke: #808080; stroke-width: 0.8"/>
     </g>
     <g id="line2d_26">
      <g>
       <use xlink:href="#m763822fbac" x="57.6" y="173.361971" style="stroke: #000000; stroke-width: 0.8"/>
      </g>
     </g>
     <g id="text_13">
      <!-- 1000 -->
      <g transform="translate(25.15 177.16119)scale(0.1 -0.1)">
       <use xlink:href="#DejaVuSans-31"/>
       <use xlink:href="#DejaVuSans-30" x="63.623047"/>
       <use xlink:href="#DejaVuSans-30" x="127.246094"/>
       <use xlink:href="#DejaVuSans-30" x="190.869141"/>
      </g>
     </g>
    </g>
    <g id="ytick_4">
     <g id="line2d_27">
      <path d="M 57.6 128.393133 
L 414.72 128.393133 
" clip-path="url(#p217af8ce7a)" style="fill: none; stroke-dasharray: 2.96,1.28; stroke-dashoffset: 0; stroke: #808080; stroke-width: 0.8"/>
     </g>
     <g id="line2d_28">
      <g>
       <use xlink:href="#m763822fbac" x="57.6" y="128.393133" style="stroke: #000000; stroke-width: 0.8"/>
      </g>
     </g>
     <g id="text_14">
      <!-- 1500 -->
      <g transform="translate(25.15 132.192352)scale(0.1 -0.1)">
       <use xlink:href="#DejaVuSans-31"/>
       <use xlink:href="#DejaVuSans-35" x="63.623047"/>
       <use xlink:href="#DejaVuSans-30" x="127.246094"/>
       <use xlink:href="#DejaVuSans-30" x="190.869141"/>
      </g>
     </g>
    </g>
    <g id="ytick_5">
     <g id="line2d_29">
      <path d="M 57.6 83.424296 
L 414.72 83.424296 
" clip-path="url(#p217af8ce7a)" style="fill: none; stroke-dasharray: 2.96,1.28; stroke-dashoffset: 0; stroke: #808080; stroke-width: 0.8"/>
     </g>
     <g id="line2d_30">
      <g>
       <use xlink:href="#m763822fbac" x="57.6" y="83.424296" style="stroke: #000000; stroke-width: 0.8"/>
      </g>
     </g>
     <g id="text_15">
      <!-- 2000 -->
      <g transform="translate(25.15 87.223514)scale(0.1 -0.1)">
       <use xlink:href="#DejaVuSans-32"/>
       <use xlink:href="#DejaVuSans-30" x="63.623047"/>
       <use xlink:href="#DejaVuSans-30" x="127.246094"/>
       <use xlink:href="#DejaVuSans-30" x="190.869141"/>
      </g>
     </g>
    </g>
    <g id="text_16">
     <!-- Inzidenz pro 7 Tage pro 100.000 Einwohner -->
     <g transform="translate(19.070312 267.301)rotate(-90)scale(0.1 -0.1)">
      <defs>
       <path id="DejaVuSans-49" d="M 628 4666 
L 1259 4666 
L 1259 0 
L 628 0 
L 628 4666 
z
" transform="scale(0.015625)"/>
       <path id="DejaVuSans-6e" d="M 3513 2113 
L 3513 0 
L 2938 0 
L 2938 2094 
Q 2938 2591 2744 2837 
Q 2550 3084 2163 3084 
Q 1697 3084 1428 2787 
Q 1159 2491 1159 1978 
L 1159 0 
L 581 0 
L 581 3500 
L 1159 3500 
L 1159 2956 
Q 1366 3272 1645 3428 
Q 1925 3584 2291 3584 
Q 2894 3584 3203 3211 
Q 3513 2838 3513 2113 
z
" transform="scale(0.015625)"/>
       <path id="DejaVuSans-7a" d="M 353 3500 
L 3084 3500 
L 3084 2975 
L 922 459 
L 3084 459 
L 3084 0 
L 275 0 
L 275 525 
L 2438 3041 
L 353 3041 
L 353 3500 
z
" transform="scale(0.015625)"/>
       <path id="DejaVuSans-69" d="M 603 3500 
L 1178 3500 
L 1178 0 
L 603 0 
L 603 3500 
z
M 603 4863 
L 1178 4863 
L 1178 4134 
L 603 4134 
L 603 4863 
z
" transform="scale(0.015625)"/>
       <path id="DejaVuSans-64" d="M 2906 2969 
L 2906 4863 
L 3481 4863 
L 3481 0 
L 2906 0 
L 2906 525 
Q 2725 213 2448 61 
Q 2172 -91 1784 -91 
Q 1150 -91 751 415 
Q 353 922 353 1747 
Q 353 2572 751 3078 
Q 1150 3584 1784 3584 
Q 2172 3584 2448 3432 
Q 2725 3281 2906 2969 
z
M 947 1747 
Q 947 1113 1208 752 
Q 1469 391 1925 391 
Q 2381 391 2643 752 
Q 2906 1113 2906 1747 
Q 2906 2381 2643 2742 
Q 2381 3103 1925 3103 
Q 1469 3103 1208 2742 
Q 947 2381 947 1747 
z
" transform="scale(0.015625)"/>
       <path id="DejaVuSans-65" d="M 3597 1894 
L 3597 1613 
L 953 1613 
Q 991 1019 1311 708 
Q 1631 397 2203 397 
Q 2534 397 2845 478 
Q 3156 559 3463 722 
L 3463 178 
Q 3153 47 2828 -22 
Q 2503 -91 2169 -91 
Q 1331 -91 842 396 
Q 353 884 353 1716 
Q 353 2575 817 3079 
Q 1281 3584 2069 3584 
Q 2775 3584 3186 3129 
Q 3597 2675 3597 1894 
z
M 3022 2063 
Q 3016 2534 2758 2815 
Q 2500 3097 2075 3097 
Q 1594 3097 1305 2825 
Q 1016 2553 972 2059 
L 3022 2063 
z
" transform="scale(0.015625)"/>
       <path id="DejaVuSans-20" transform="scale(0.015625)"/>
       <path id="DejaVuSans-70" d="M 1159 525 
L 1159 -1331 
L 581 -1331 
L 581 3500 
L 1159 3500 
L 1159 2969 
Q 1341 3281 1617 3432 
Q 1894 3584 2278 3584 
Q 2916 3584 3314 3078 
Q 3713 2572 3713 1747 
Q 3713 922 3314 415 
Q 2916 -91 2278 -91 
Q 1894 -91 1617 61 
Q 1341 213 1159 525 
z
M 3116 1747 
Q 3116 2381 2855 2742 
Q 2594 3103 2138 3103 
Q 1681 3103 1420 2742 
Q 1159 2381 1159 1747 
Q 1159 1113 1420 752 
Q 1681 391 2138 391 
Q 2594 391 2855 752 
Q 3116 1113 3116 1747 
z
" transform="scale(0.015625)"/>
       <path id="DejaVuSans-72" d="M 2631 2963 
Q 2534 3019 2420 3045 
Q 2306 3072 2169 3072 
Q 1681 3072 1420 2755 
Q 1159 2438 1159 1844 
L 1159 0 
L 581 0 
L 581 3500 
L 1159 3500 
L 1159 2956 
Q 1341 3275 1631 3429 
Q 1922 3584 2338 3584 
Q 2397 3584 2469 3576 
Q 2541 3569 2628 3553 
L 2631 2963 
z
" transform="scale(0.015625)"/>
       <path id="DejaVuSans-6f" d="M 1959 3097 
Q 1497 3097 1228 2736 
Q 959 2375 959 1747 
Q 959 1119 1226 758 
Q 1494 397 1959 397 
Q 2419 397 2687 759 
Q 2956 1122 2956 1747 
Q 2956 2369 2687 2733 
Q 2419 3097 1959 3097 
z
M 1959 3584 
Q 2709 3584 3137 3096 
Q 3566 2609 3566 1747 
Q 3566 888 3137 398 
Q 2709 -91 1959 -91 
Q 1206 -91 779 398 
Q 353 888 353 1747 
Q 353 2609 779 3096 
Q 1206 3584 1959 3584 
z
" transform="scale(0.015625)"/>
       <path id="DejaVuSans-54" d="M -19 4666 
L 3928 4666 
L 3928 4134 
L 2272 4134 
L 2272 0 
L 1638 0 
L 1638 4134 
L -19 4134 
L -19 4666 
z
" transform="scale(0.015625)"/>
       <path id="DejaVuSans-61" d="M 2194 1759 
Q 1497 1759 1228 1600 
Q 959 1441 959 1056 
Q 959 750 1161 570 
Q 1363 391 1709 391 
Q 2188 391 2477 730 
Q 2766 1069 2766 1631 
L 2766 1759 
L 2194 1759 
z
M 3341 1997 
L 3341 0 
L 2766 0 
L 2766 531 
Q 2569 213 2275 61 
Q 1981 -91 1556 -91 
Q 1019 -91 701 211 
Q 384 513 384 1019 
Q 384 1609 779 1909 
Q 1175 2209 1959 2209 
L 2766 2209 
L 2766 2266 
Q 2766 2663 2505 2880 
Q 2244 3097 1772 3097 
Q 1472 3097 1187 3025 
Q 903 2953 641 2809 
L 641 3341 
Q 956 3463 1253 3523 
Q 1550 3584 1831 3584 
Q 2591 3584 2966 3190 
Q 3341 2797 3341 1997 
z
" transform="scale(0.015625)"/>
       <path id="DejaVuSans-67" d="M 2906 1791 
Q 2906 2416 2648 2759 
Q 2391 3103 1925 3103 
Q 1463 3103 1205 2759 
Q 947 2416 947 1791 
Q 947 1169 1205 825 
Q 1463 481 1925 481 
Q 2391 481 2648 825 
Q 2906 1169 2906 1791 
z
M 3481 434 
Q 3481 -459 3084 -895 
Q 2688 -1331 1869 -1331 
Q 1566 -1331 1297 -1286 
Q 1028 -1241 775 -1147 
L 775 -588 
Q 1028 -725 1275 -790 
Q 1522 -856 1778 -856 
Q 2344 -856 2625 -561 
Q 2906 -266 2906 331 
L 2906 616 
Q 2728 306 2450 153 
Q 2172 0 1784 0 
Q 1141 0 747 490 
Q 353 981 353 1791 
Q 353 2603 747 3093 
Q 1141 3584 1784 3584 
Q 2172 3584 2450 3431 
Q 2728 3278 2906 2969 
L 2906 3500 
L 3481 3500 
L 3481 434 
z
" transform="scale(0.015625)"/>
       <path id="DejaVuSans-45" d="M 628 4666 
L 3578 4666 
L 3578 4134 
L 1259 4134 
L 1259 2753 
L 3481 2753 
L 3481 2222 
L 1259 2222 
L 1259 531 
L 3634 531 
L 3634 0 
L 628 0 
L 628 4666 
z
" transform="scale(0.015625)"/>
       <path id="DejaVuSans-77" d="M 269 3500 
L 844 3500 
L 1563 769 
L 2278 3500 
L 2956 3500 
L 3675 769 
L 4391 3500 
L 4966 3500 
L 4050 0 
L 3372 0 
L 2619 2869 
L 1863 0 
L 1184 0 
L 269 3500 
z
" transform="scale(0.015625)"/>
       <path id="DejaVuSans-68" d="M 3513 2113 
L 3513 0 
L 2938 0 
L 2938 2094 
Q 2938 2591 2744 2837 
Q 2550 3084 2163 3084 
Q 1697 3084 1428 2787 
Q 1159 2491 1159 1978 
L 1159 0 
L 581 0 
L 581 4863 
L 1159 4863 
L 1159 2956 
Q 1366 3272 1645 3428 
Q 1925 3584 2291 3584 
Q 2894 3584 3203 3211 
Q 3513 2838 3513 2113 
z
" transform="scale(0.015625)"/>
      </defs>
      <use xlink:href="#DejaVuSans-49"/>
      <use xlink:href="#DejaVuSans-6e" x="29.492188"/>
      <use xlink:href="#DejaVuSans-7a" x="92.871094"/>
      <use xlink:href="#DejaVuSans-69" x="145.361328"/>
      <use xlink:href="#DejaVuSans-64" x="173.144531"/>
      <use xlink:href="#DejaVuSans-65" x="236.621094"/>
      <use xlink:href="#DejaVuSans-6e" x="298.144531"/>
      <use xlink:href="#DejaVuSans-7a" x="361.523438"/>
      <use xlink:href="#DejaVuSans-20" x="414.013672"/>
      <use xlink:href="#DejaVuSans-70" x="445.800781"/>
      <use xlink:href="#DejaVuSans-72" x="509.277344"/>
      <use xlink:href="#DejaVuSans-6f" x="548.140625"/>
      <use xlink:href="#DejaVuSans-20" x="609.322266"/>
      <use xlink:href="#DejaVuSans-37" x="641.109375"/>
      <use xlink:href="#DejaVuSans-20" x="704.732422"/>
      <use xlink:href="#DejaVuSans-54" x="736.519531"/>
      <use xlink:href="#DejaVuSans-61" x="781.103516"/>
      <use xlink:href="#DejaVuSans-67" x="842.382812"/>
      <use xlink:href="#DejaVuSans-65" x="905.859375"/>
      <use xlink:href="#DejaVuSans-20" x="967.382812"/>
      <use xlink:href="#DejaVuSans-70" x="999.169922"/>
      <use xlink:href="#DejaVuSans-72" x="1062.646484"/>
      <use xlink:href="#DejaVuSans-6f" x="1101.509766"/>
      <use xlink:href="#DejaVuSans-20" x="1162.691406"/>
      <use xlink:href="#DejaVuSans-31" x="1194.478516"/>
      <use xlink:href="#DejaVuSans-30" x="1258.101562"/>
      <use xlink:href="#DejaVuSans-30" x="1321.724609"/>
      <use xlink:href="#DejaVuSans-2e" x="1385.347656"/>
      <use xlink:href="#DejaVuSans-30" x="1417.134766"/>
      <use xlink:href="#DejaVuSans-30" x="1480.757812"/>
      <use xlink:href="#DejaVuSans-30" x="1544.380859"/>
      <use xlink:href="#DejaVuSans-20" x="1608.003906"/>
      <use xlink:href="#DejaVuSans-45" x="1639.791016"/>
      <use xlink:href="#DejaVuSans-69" x="1702.974609"/>
      <use xlink:href="#DejaVuSans-6e" x="1730.757812"/>
      <use xlink:href="#DejaVuSans-77" x="1794.136719"/>
      <use xlink:href="#DejaVuSans-6f" x="1875.923828"/>
      <use xlink:href="#DejaVuSans-68" x="1937.105469"/>
      <use xlink:href="#DejaVuSans-6e" x="2000.484375"/>
      <use xlink:href="#DejaVuSans-65" x="2063.863281"/>
      <use xlink:href="#DejaVuSans-72" x="2125.386719"/>
     </g>
    </g>
   </g>
   <g id="line2d_31">
    <path d="M 73.832727 263.19972 
L 75.100909 263.099793 
L 75.523636 262.150488 
L 75.946364 262.000597 
L 76.369091 261.500963 
L 76.791818 261.500963 
L 77.214545 260.901402 
L 78.06 261.001329 
L 78.482727 261.75078 
L 78.905455 260.951365 
L 79.328182 261.451 
L 79.750909 260.701548 
L 80.173636 260.501694 
L 82.287273 255.905059 
L 82.71 256.054949 
L 83.132727 255.005717 
L 83.555455 254.606009 
L 83.978182 254.406156 
L 84.400909 252.557509 
L 85.246364 253.15707 
L 85.669091 252.457582 
L 86.091818 252.557509 
L 86.514545 250.808789 
L 86.937273 250.459044 
L 87.36 251.40835 
L 88.205455 251.608203 
L 88.628182 252.007911 
L 89.050909 252.207765 
L 89.473636 254.556046 
L 89.896364 254.206302 
L 90.319091 254.805863 
L 90.741818 256.054949 
L 91.164545 256.404693 
L 91.587273 256.904327 
L 92.01 257.853632 
L 92.432727 258.453194 
L 92.855455 259.952097 
L 93.278182 260.501694 
L 93.700909 260.801475 
L 94.123636 260.551658 
L 94.546364 260.651585 
L 94.969091 261.151219 
L 95.391818 260.951365 
L 95.814545 261.351073 
L 96.66 261.700817 
L 97.082727 261.950634 
L 97.928182 261.800744 
L 98.350909 262.050561 
L 98.773636 262.100524 
L 99.196364 262.300378 
L 100.041818 262.300378 
L 100.464545 262.800012 
L 101.732727 262.700085 
L 102.578182 262.800012 
L 103.000909 262.800012 
L 103.423636 262.250414 
L 103.846364 261.950634 
L 104.691818 261.950634 
L 105.96 261.950634 
L 106.382727 262.100524 
L 106.805455 262.500232 
L 107.228182 262.500232 
L 107.650909 262.650122 
L 108.919091 262.650122 
L 109.341818 262.899939 
L 110.187273 263.149756 
L 111.455455 262.949903 
L 111.878182 262.949903 
L 112.300909 263.099793 
L 113.569091 263.149756 
L 114.414545 263.249683 
L 119.064545 263.19972 
L 119.487273 262.849976 
L 120.755455 262.899939 
L 121.178182 262.750049 
L 122.023636 262.800012 
L 122.446364 263.049829 
L 124.982727 263.099793 
L 125.405455 263.19972 
L 126.673636 263.149756 
L 130.900909 263.049829 
L 131.746364 262.750049 
L 132.591818 262.650122 
L 133.014545 262.450268 
L 134.705455 262.550195 
L 136.396364 262.600159 
L 137.664545 262.800012 
L 138.087273 262.800012 
L 138.51 262.949903 
L 138.932727 262.800012 
L 139.778182 262.750049 
L 140.623636 262.600159 
L 141.891818 262.550195 
L 142.314545 262.250414 
L 142.737273 261.75078 
L 143.16 262.000597 
L 143.582727 261.60089 
L 144.428182 261.60089 
L 144.850909 261.800744 
L 145.273636 261.700817 
L 145.696364 262.100524 
L 146.119091 261.650853 
L 146.541818 262.000597 
L 147.387273 262.000597 
L 147.81 261.451 
L 148.232727 261.75078 
L 148.655455 261.201182 
L 149.078182 261.051292 
L 149.923636 261.151219 
L 150.346364 260.951365 
L 151.191818 260.851438 
L 152.037273 261.60089 
L 152.882727 261.500963 
L 153.305455 261.700817 
L 153.728182 261.75078 
L 154.150909 261.151219 
L 154.996364 260.801475 
L 155.419091 260.701548 
L 155.841818 260.301841 
L 156.687273 260.301841 
L 157.11 260.901402 
L 157.532727 261.101256 
L 157.955455 260.901402 
L 158.378182 260.951365 
L 158.800909 261.351073 
L 159.223636 261.351073 
L 159.646364 260.851438 
L 160.914545 261.500963 
L 161.337273 261.351073 
L 162.182727 261.351073 
L 162.605455 261.550926 
L 164.296364 261.251146 
L 165.141818 261.251146 
L 165.564545 261.451 
L 165.987273 261.500963 
L 166.41 261.351073 
L 167.255455 262.100524 
L 168.523636 262.150488 
L 168.946364 262.250414 
L 169.791818 259.752243 
L 171.06 259.752243 
L 171.482727 258.303303 
L 171.905455 257.903596 
L 172.328182 258.453194 
L 172.750909 258.503157 
L 173.173636 257.553852 
L 174.019091 257.553852 
L 174.441818 254.606009 
L 174.864545 254.106375 
L 175.287273 252.507545 
L 175.71 251.458313 
L 176.132727 251.008642 
L 176.978182 251.008642 
L 177.400909 251.458313 
L 177.823636 250.209227 
L 178.246364 250.758825 
L 178.669091 249.459776 
L 179.937273 249.459776 
L 180.36 245.662555 
L 180.782727 246.412006 
L 181.628182 245.362774 
L 182.050909 245.862409 
L 182.896364 245.862409 
L 183.319091 249.609666 
L 183.741818 250.209227 
L 184.164545 250.259191 
L 184.587273 251.158533 
L 185.01 250.808789 
L 185.855455 250.808789 
L 186.278182 250.558971 
L 186.700909 249.060068 
L 187.123636 250.159264 
L 187.546364 250.409081 
L 187.969091 250.1093 
L 188.814545 247.461239 
L 189.237273 248.410544 
L 189.66 249.65963 
L 190.082727 249.459776 
L 190.505455 250.309154 
L 190.928182 249.859483 
L 191.350909 249.159995 
L 191.773636 248.810251 
L 192.196364 251.608203 
L 193.041818 250.558971 
L 193.464545 249.859483 
L 193.887273 247.561165 
L 194.31 249.060068 
L 194.732727 249.65963 
L 195.155455 246.262116 
L 195.578182 246.46197 
L 196.000909 245.262848 
L 196.423636 246.162189 
L 196.846364 248.310617 
L 197.269091 246.61186 
L 197.691818 246.112226 
L 198.114545 249.209959 
L 198.537273 248.610397 
L 198.96 249.309886 
L 199.382727 251.208496 
L 199.805455 248.560434 
L 200.228182 249.409812 
L 200.650909 248.560434 
L 201.073636 248.510471 
L 201.496364 249.209959 
L 201.919091 248.21069 
L 202.341818 245.162921 
L 202.764545 249.110032 
L 203.187273 250.059337 
L 203.61 250.359118 
L 204.032727 250.1093 
L 204.455455 250.1093 
L 204.878182 253.806594 
L 205.300909 253.656704 
L 205.723636 253.956485 
L 206.146364 253.356924 
L 206.569091 255.05568 
L 207.414545 256.904327 
L 207.837273 250.758825 
L 208.26 252.157801 
L 208.682727 251.40835 
L 209.105455 251.308423 
L 209.528182 250.1093 
L 209.950909 250.658898 
L 210.373636 249.95941 
L 210.796364 254.655973 
L 211.219091 254.7559 
L 211.641818 254.655973 
L 212.064545 254.056412 
L 212.487273 255.005717 
L 212.91 254.805863 
L 213.332727 254.256265 
L 213.755455 254.106375 
L 214.178182 254.506082 
L 215.023636 255.655241 
L 215.446364 255.305497 
L 215.869091 255.555315 
L 216.291818 255.605278 
L 216.714545 255.855095 
L 217.56 256.104912 
L 217.982727 255.855095 
L 218.405455 256.354729 
L 218.828182 256.404693 
L 219.250909 257.154144 
L 219.673636 257.603815 
L 220.096364 257.853632 
L 220.519091 257.803669 
L 220.941818 258.752974 
L 221.787273 258.603084 
L 222.21 258.802938 
L 222.632727 258.603084 
L 223.478182 258.902865 
L 223.900909 259.002791 
L 225.169091 258.802938 
L 225.591818 259.152682 
L 226.014545 258.503157 
L 226.437273 258.40323 
L 226.86 257.304035 
L 227.705455 257.054218 
L 228.550909 254.606009 
L 228.973636 255.205571 
L 229.396364 255.105644 
L 229.819091 255.205571 
L 230.241818 255.155607 
L 230.664545 255.305497 
L 231.087273 255.955022 
L 231.51 256.904327 
L 231.932727 256.65451 
L 232.355455 256.8044 
L 232.778182 257.353998 
L 233.200909 256.554583 
L 234.046364 256.154876 
L 234.469091 255.105644 
L 234.891818 254.456119 
L 235.737273 252.657435 
L 236.16 253.556777 
L 237.005455 253.356924 
L 237.428182 253.107106 
L 237.850909 252.407618 
L 238.273636 252.257728 
L 238.696364 252.557509 
L 239.541818 251.258459 
L 239.964545 250.359118 
L 240.81 250.708862 
L 241.232727 251.508277 
L 242.078182 251.358386 
L 242.500909 250.658898 
L 242.923636 251.158533 
L 243.346364 248.910178 
L 243.769091 248.410544 
L 244.191818 249.159995 
L 244.614545 246.861677 
L 245.037273 246.911641 
L 245.46 247.960873 
L 245.882727 245.312811 
L 246.305455 245.812445 
L 246.728182 245.562628 
L 247.150909 244.063725 
L 247.573636 245.112957 
L 247.996364 243.913835 
L 248.419091 244.063725 
L 248.841818 244.663286 
L 249.264545 246.76175 
L 249.687273 246.911641 
L 250.955455 249.159995 
L 251.378182 249.459776 
L 251.800909 251.858021 
L 252.223636 249.909447 
L 253.069091 250.808789 
L 253.491818 251.458313 
L 253.914545 251.158533 
L 254.337273 251.108569 
L 254.76 250.858752 
L 255.182727 253.406887 
L 255.605455 254.156338 
L 256.028182 253.806594 
L 256.450909 254.206302 
L 256.873636 255.855095 
L 257.296364 255.955022 
L 257.719091 256.604547 
L 258.141818 256.754437 
L 258.564545 257.953559 
L 259.832727 259.002791 
L 260.255455 259.202645 
L 260.678182 264.94844 
L 261.100909 265.448074 
L 261.523636 265.548001 
L 261.946364 265.09833 
L 262.791818 265.797818 
L 263.214545 265.797818 
L 263.637273 260.751512 
L 264.06 262.100524 
L 264.482727 262.100524 
L 264.905455 262.450268 
L 265.328182 262.550195 
L 265.750909 262.400305 
L 266.596364 262.600159 
L 267.019091 261.451 
L 267.441818 261.800744 
L 267.864545 262.000597 
L 268.287273 262.000597 
L 268.71 262.300378 
L 269.132727 262.250414 
L 269.555455 262.600159 
L 269.978182 262.650122 
L 270.400909 262.550195 
L 270.823636 262.750049 
L 271.669091 262.600159 
L 272.091818 260.701548 
L 272.937273 260.601621 
L 273.782727 260.501694 
L 274.628182 260.651585 
L 275.050909 262.750049 
L 276.319091 262.550195 
L 276.741818 262.200451 
L 278.855455 262.100524 
L 279.278182 262.450268 
L 279.700909 262.550195 
L 280.123636 262.450268 
L 280.969091 262.500232 
L 281.814545 262.300378 
L 282.237273 262.050561 
L 282.66 262.050561 
L 283.082727 262.200451 
L 283.505455 261.90067 
L 285.619091 261.500963 
L 286.041818 261.001329 
L 286.464545 261.101256 
L 286.887273 261.001329 
L 287.31 259.752243 
L 287.732727 259.652316 
L 288.578182 259.85217 
L 289.846364 259.502426 
L 290.269091 260.351804 
L 291.114545 260.651585 
L 291.537273 260.651585 
L 291.96 260.951365 
L 292.382727 261.101256 
L 292.805455 260.851438 
L 293.228182 261.101256 
L 294.073636 261.151219 
L 295.341818 260.451731 
L 295.764545 260.901402 
L 296.61 260.401767 
L 297.032727 260.00206 
L 297.878182 260.00206 
L 298.300909 260.251877 
L 298.723636 260.251877 
L 299.146364 259.902133 
L 299.991818 258.703011 
L 300.414545 258.752974 
L 301.682727 257.553852 
L 302.105455 257.453925 
L 302.528182 256.704474 
L 302.950909 256.604547 
L 303.373636 254.955753 
L 304.219091 254.106375 
L 304.641818 253.406887 
L 305.064545 253.057143 
L 305.91 253.207033 
L 306.332727 254.256265 
L 306.755455 254.90579 
L 307.178182 254.955753 
L 307.600909 255.555315 
L 308.023636 255.405424 
L 308.446364 256.454656 
L 308.869091 256.954291 
L 309.291818 257.054218 
L 309.714545 256.554583 
L 310.137273 256.704474 
L 310.56 256.354729 
L 310.982727 256.304766 
L 311.405455 255.805132 
L 311.828182 255.105644 
L 312.250909 254.805863 
L 312.673636 255.155607 
L 313.096364 255.655241 
L 313.519091 255.905059 
L 313.941818 256.954291 
L 314.787273 257.254071 
L 315.21 257.703742 
L 315.632727 257.753706 
L 316.478182 257.254071 
L 316.900909 256.65451 
L 317.323636 256.354729 
L 317.746364 256.754437 
L 318.169091 256.304766 
L 319.014545 256.004985 
L 319.437273 256.354729 
L 319.86 256.054949 
L 320.705455 256.004985 
L 321.128182 256.304766 
L 321.550909 256.254803 
L 321.973636 256.054949 
L 322.396364 255.605278 
L 323.241818 256.004985 
L 323.664545 255.455388 
L 324.087273 254.556046 
L 324.51 254.156338 
L 324.932727 254.406156 
L 325.355455 253.556777 
L 325.778182 252.157801 
L 326.200909 250.059337 
L 326.623636 247.011568 
L 327.046364 246.76175 
L 327.891818 244.763213 
L 328.314545 245.512665 
L 328.737273 243.014493 
L 329.16 242.914566 
L 329.582727 243.014493 
L 330.005455 242.315005 
L 330.850909 242.215078 
L 331.273636 242.764676 
L 331.696364 245.412738 
L 332.119091 243.064457 
L 332.541818 242.714712 
L 332.964545 239.91676 
L 333.387273 239.367163 
L 333.81 238.467821 
L 334.232727 236.918954 
L 334.655455 228.674988 
L 335.078182 227.875573 
L 336.346364 219.83146 
L 337.191818 217.233362 
L 337.614545 217.732996 
L 338.037273 215.834386 
L 338.46 216.733728 
L 338.882727 218.032777 
L 340.150909 216.933581 
L 340.573636 215.934313 
L 340.996364 216.234093 
L 341.419091 215.184861 
L 341.841818 213.635995 
L 342.264545 214.785154 
L 342.687273 214.985008 
L 343.11 213.935775 
L 343.532727 217.433216 
L 343.955455 217.033508 
L 344.378182 218.282594 
L 344.800909 220.680839 
L 345.223636 219.032046 
L 345.646364 220.630875 
L 346.491818 222.829266 
L 346.914545 225.877036 
L 347.337273 225.877036 
L 347.76 226.776378 
L 348.182727 230.073964 
L 348.605455 230.323781 
L 349.028182 230.423708 
L 349.450909 230.773452 
L 349.873636 232.322319 
L 350.719091 236.669137 
L 351.141818 238.867528 
L 351.564545 239.966724 
L 351.987273 241.565554 
L 352.41 244.313542 
L 353.255455 246.911641 
L 353.678182 247.411275 
L 354.100909 247.661092 
L 354.523636 247.611129 
L 354.946364 248.610397 
L 355.369091 247.261385 
L 356.214545 247.511202 
L 356.637273 246.561897 
L 357.06 245.262848 
L 357.482727 245.362774 
L 359.173636 236.41932 
L 359.596364 236.219466 
L 360.441818 230.223854 
L 361.287273 222.179742 
L 361.71 220.431022 
L 362.132727 217.533143 
L 362.555455 210.388372 
L 362.978182 206.391297 
L 363.400909 198.996709 
L 363.823636 188.404462 
L 364.246364 183.607972 
L 365.091818 154.629181 
L 365.514545 151.181705 
L 365.937273 137.791505 
L 366.36 133.044979 
L 366.782727 132.545344 
L 367.205455 121.003791 
L 367.628182 112.909715 
L 368.050909 100.868528 
L 368.473636 81.832461 
L 368.896364 87.028658 
L 369.319091 86.279206 
L 369.741818 81.68257 
L 370.587273 60.098368 
L 371.01 55.301878 
L 371.432727 59.898514 
L 371.855455 58.949209 
L 372.278182 62.246795 
L 372.700909 58.199757 
L 373.123636 62.89632 
L 373.546364 64.844894 
L 373.969091 74.83758 
L 374.391818 78.18513 
L 374.814545 79.63407 
L 375.237273 81.53268 
L 376.082727 94.92288 
L 376.505455 98.820028 
L 376.928182 96.721563 
L 377.350909 100.418857 
L 377.773636 101.168309 
L 378.196364 104.515859 
L 378.619091 103.716444 
L 379.041818 104.96553 
L 379.464545 115.757631 
L 379.887273 130.29699 
L 380.31 134.393991 
L 380.732727 131.496112 
L 381.155455 129.797356 
L 381.578182 130.247026 
L 382.000909 139.939932 
L 382.423636 141.189018 
L 382.846364 139.190481 
L 383.269091 133.594576 
L 383.691818 138.990627 
L 384.114545 136.292602 
L 384.537273 134.943589 
L 384.96 112.959679 
L 385.382727 103.316736 
L 386.228182 91.475403 
L 386.650909 89.127122 
L 387.073636 91.57533 
L 387.496364 84.930193 
L 387.919091 93.723757 
L 388.341818 88.527561 
L 388.764545 80.333558 
L 389.187273 77.485642 
L 389.61 78.235093 
L 390.032727 81.38279 
L 390.455455 86.828804 
L 390.878182 59.448843 
L 391.300909 62.146868 
L 391.723636 63.296027 
L 392.146364 61.647234 
L 392.569091 58.649428 
L 392.991818 52.154182 
L 393.414545 53.253377 
L 393.837273 71.140286 
L 394.682727 81.732534 
L 395.528182 103.766407 
L 396.373636 107.763482 
L 397.219091 129.447612 
L 398.064545 141.039128 
L 398.487273 149.183167 
L 398.487273 149.183167 
" clip-path="url(#p217af8ce7a)" style="fill: none; stroke: #1f77b4; stroke-width: 1.5; stroke-linecap: square"/>
   </g>
   <g id="patch_3">
    <path d="M 57.6 276.48 
L 57.6 41.472 
" style="fill: none; stroke: #000000; stroke-width: 0.8; stroke-linejoin: miter; stroke-linecap: square"/>
   </g>
   <g id="patch_4">
    <path d="M 414.72 276.48 
L 414.72 41.472 
" style="fill: none; stroke: #000000; stroke-width: 0.8; stroke-linejoin: miter; stroke-linecap: square"/>
   </g>
   <g id="patch_5">
    <path d="M 57.6 276.48 
L 414.72 276.48 
" style="fill: none; stroke: #000000; stroke-width: 0.8; stroke-linejoin: miter; stroke-linecap: square"/>
   </g>
   <g id="patch_6">
    <path d="M 57.6 41.472 
L 414.72 41.472 
" style="fill: none; stroke: #000000; stroke-width: 0.8; stroke-linejoin: miter; stroke-linecap: square"/>
   </g>
  </g>
  <g id="text_17">
   <!-- Inzidenzverlauf LK Freising -->
   <g transform="translate(110.383594 20.589187)scale(0.18 -0.18)">
    <defs>
     <path id="DejaVuSans-76" d="M 191 3500 
L 800 3500 
L 1894 563 
L 2988 3500 
L 3597 3500 
L 2284 0 
L 1503 0 
L 191 3500 
z
" transform="scale(0.015625)"/>
     <path id="DejaVuSans-6c" d="M 603 4863 
L 1178 4863 
L 1178 0 
L 603 0 
L 603 4863 
z
" transform="scale(0.015625)"/>
     <path id="DejaVuSans-75" d="M 544 1381 
L 544 3500 
L 1119 3500 
L 1119 1403 
Q 1119 906 1312 657 
Q 1506 409 1894 409 
Q 2359 409 2629 706 
Q 2900 1003 2900 1516 
L 2900 3500 
L 3475 3500 
L 3475 0 
L 2900 0 
L 2900 538 
Q 2691 219 2414 64 
Q 2138 -91 1772 -91 
Q 1169 -91 856 284 
Q 544 659 544 1381 
z
M 1991 3584 
L 1991 3584 
z
" transform="scale(0.015625)"/>
     <path id="DejaVuSans-66" d="M 2375 4863 
L 2375 4384 
L 1825 4384 
Q 1516 4384 1395 4259 
Q 1275 4134 1275 3809 
L 1275 3500 
L 2222 3500 
L 2222 3053 
L 1275 3053 
L 1275 0 
L 697 0 
L 697 3053 
L 147 3053 
L 147 3500 
L 697 3500 
L 697 3744 
Q 697 4328 969 4595 
Q 1241 4863 1831 4863 
L 2375 4863 
z
" transform="scale(0.015625)"/>
     <path id="DejaVuSans-4c" d="M 628 4666 
L 1259 4666 
L 1259 531 
L 3531 531 
L 3531 0 
L 628 0 
L 628 4666 
z
" transform="scale(0.015625)"/>
     <path id="DejaVuSans-4b" d="M 628 4666 
L 1259 4666 
L 1259 2694 
L 3353 4666 
L 4166 4666 
L 1850 2491 
L 4331 0 
L 3500 0 
L 1259 2247 
L 1259 0 
L 628 0 
L 628 4666 
z
" transform="scale(0.015625)"/>
     <path id="DejaVuSans-46" d="M 628 4666 
L 3309 4666 
L 3309 4134 
L 1259 4134 
L 1259 2759 
L 3109 2759 
L 3109 2228 
L 1259 2228 
L 1259 0 
L 628 0 
L 628 4666 
z
" transform="scale(0.015625)"/>
     <path id="DejaVuSans-73" d="M 2834 3397 
L 2834 2853 
Q 2591 2978 2328 3040 
Q 2066 3103 1784 3103 
Q 1356 3103 1142 2972 
Q 928 2841 928 2578 
Q 928 2378 1081 2264 
Q 1234 2150 1697 2047 
L 1894 2003 
Q 2506 1872 2764 1633 
Q 3022 1394 3022 966 
Q 3022 478 2636 193 
Q 2250 -91 1575 -91 
Q 1294 -91 989 -36 
Q 684 19 347 128 
L 347 722 
Q 666 556 975 473 
Q 1284 391 1588 391 
Q 1994 391 2212 530 
Q 2431 669 2431 922 
Q 2431 1156 2273 1281 
Q 2116 1406 1581 1522 
L 1381 1569 
Q 847 1681 609 1914 
Q 372 2147 372 2553 
Q 372 3047 722 3315 
Q 1072 3584 1716 3584 
Q 2034 3584 2315 3537 
Q 2597 3491 2834 3397 
z
" transform="scale(0.015625)"/>
    </defs>
    <use xlink:href="#DejaVuSans-49"/>
    <use xlink:href="#DejaVuSans-6e" x="29.492188"/>
    <use xlink:href="#DejaVuSans-7a" x="92.871094"/>
    <use xlink:href="#DejaVuSans-69" x="145.361328"/>
    <use xlink:href="#DejaVuSans-64" x="173.144531"/>
    <use xlink:href="#DejaVuSans-65" x="236.621094"/>
    <use xlink:href="#DejaVuSans-6e" x="298.144531"/>
    <use xlink:href="#DejaVuSans-7a" x="361.523438"/>
    <use xlink:href="#DejaVuSans-76" x="414.013672"/>
    <use xlink:href="#DejaVuSans-65" x="473.193359"/>
    <use xlink:href="#DejaVuSans-72" x="534.716797"/>
    <use xlink:href="#DejaVuSans-6c" x="575.830078"/>
    <use xlink:href="#DejaVuSans-61" x="603.613281"/>
    <use xlink:href="#DejaVuSans-75" x="664.892578"/>
    <use xlink:href="#DejaVuSans-66" x="728.271484"/>
    <use xlink:href="#DejaVuSans-20" x="763.476562"/>
    <use xlink:href="#DejaVuSans-4c" x="795.263672"/>
    <use xlink:href="#DejaVuSans-4b" x="850.976562"/>
    <use xlink:href="#DejaVuSans-20" x="916.552734"/>
    <use xlink:href="#DejaVuSans-46" x="948.339844"/>
    <use xlink:href="#DejaVuSans-72" x="998.609375"/>
    <use xlink:href="#DejaVuSans-65" x="1037.472656"/>
    <use xlink:href="#DejaVuSans-69" x="1098.996094"/>
    <use xlink:href="#DejaVuSans-73" x="1126.779297"/>
    <use xlink:href="#DejaVuSans-69" x="1178.878906"/>
    <use xlink:href="#DejaVuSans-6e" x="1206.662109"/>
    <use xlink:href="#DejaVuSans-67" x="1270.041016"/>
   </g>
  </g>
 </g>
 <defs>
  <clipPath id="p217af8ce7a">
   <rect x="57.6" y="41.472" width="357.12" height="235.008"/>
  </clipPath>
 </defs>
</svg>
