<?xml version="1.0" encoding="utf-8" standalone="no"?>
<!DOCTYPE svg PUBLIC "-//W3C//DTD SVG 1.1//EN"
  "http://www.w3.org/Graphics/SVG/1.1/DTD/svg11.dtd">
<svg xmlns:xlink="http://www.w3.org/1999/xlink" width="460.8pt" height="345.6pt" viewBox="0 0 460.8 345.6" xmlns="http://www.w3.org/2000/svg" version="1.1">
 <metadata>
  <rdf:RDF xmlns:dc="http://purl.org/dc/elements/1.1/" xmlns:cc="http://creativecommons.org/ns#" xmlns:rdf="http://www.w3.org/1999/02/22-rdf-syntax-ns#">
   <cc:Work>
    <dc:type rdf:resource="http://purl.org/dc/dcmitype/StillImage"/>
    <dc:date>2022-12-05T09:20:04.952080</dc:date>
    <dc:format>image/svg+xml</dc:format>
    <dc:creator>
     <cc:Agent>
      <dc:title>Matplotlib v3.6.2, https://matplotlib.org/</dc:title>
     </cc:Agent>
    </dc:creator>
   </cc:Work>
  </rdf:RDF>
 </metadata>
 <defs>
  <style type="text/css">*{stroke-linejoin: round; stroke-linecap: butt}</style>
 </defs>
 <g id="figure_1">
  <g id="patch_1">
   <path d="M 0 345.6 
L 460.8 345.6 
L 460.8 0 
L 0 0 
z
" style="fill: #ffffff"/>
  </g>
  <g id="axes_1">
   <g id="patch_2">
    <path d="M 57.6 276.48 
L 414.72 276.48 
L 414.72 41.472 
L 57.6 41.472 
z
" style="fill: #ffffff"/>
   </g>
   <g id="matplotlib.axis_1">
    <g id="xtick_1">
     <g id="line2d_1">
      <path d="M 61.675645 276.48 
L 61.675645 41.472 
" clip-path="url(#pc9af20566d)" style="fill: none; stroke-dasharray: 2.96,1.28; stroke-dashoffset: 0; stroke: #808080; stroke-width: 0.8"/>
     </g>
     <g id="line2d_2">
      <defs>
       <path id="m4d5b71a4e2" d="M 0 0 
L 0 3.5 
" style="stroke: #000000; stroke-width: 0.8"/>
      </defs>
      <g>
       <use xlink:href="#m4d5b71a4e2" x="61.675645" y="276.48" style="stroke: #000000; stroke-width: 0.8"/>
      </g>
     </g>
     <g id="text_1">
      <!-- 25.01.2020 -->
      <g transform="translate(11.050434 318.688565) rotate(-30) scale(0.1 -0.1)">
       <defs>
        <path id="DejaVuSans-32" d="M 1228 531 
L 3431 531 
L 3431 0 
L 469 0 
L 469 531 
Q 828 903 1448 1529 
Q 2069 2156 2228 2338 
Q 2531 2678 2651 2914 
Q 2772 3150 2772 3378 
Q 2772 3750 2511 3984 
Q 2250 4219 1831 4219 
Q 1534 4219 1204 4116 
Q 875 4013 500 3803 
L 500 4441 
Q 881 4594 1212 4672 
Q 1544 4750 1819 4750 
Q 2544 4750 2975 4387 
Q 3406 4025 3406 3419 
Q 3406 3131 3298 2873 
Q 3191 2616 2906 2266 
Q 2828 2175 2409 1742 
Q 1991 1309 1228 531 
z
" transform="scale(0.015625)"/>
        <path id="DejaVuSans-35" d="M 691 4666 
L 3169 4666 
L 3169 4134 
L 1269 4134 
L 1269 2991 
Q 1406 3038 1543 3061 
Q 1681 3084 1819 3084 
Q 2600 3084 3056 2656 
Q 3513 2228 3513 1497 
Q 3513 744 3044 326 
Q 2575 -91 1722 -91 
Q 1428 -91 1123 -41 
Q 819 9 494 109 
L 494 744 
Q 775 591 1075 516 
Q 1375 441 1709 441 
Q 2250 441 2565 725 
Q 2881 1009 2881 1497 
Q 2881 1984 2565 2268 
Q 2250 2553 1709 2553 
Q 1456 2553 1204 2497 
Q 953 2441 691 2322 
L 691 4666 
z
" transform="scale(0.015625)"/>
        <path id="DejaVuSans-2e" d="M 684 794 
L 1344 794 
L 1344 0 
L 684 0 
L 684 794 
z
" transform="scale(0.015625)"/>
        <path id="DejaVuSans-30" d="M 2034 4250 
Q 1547 4250 1301 3770 
Q 1056 3291 1056 2328 
Q 1056 1369 1301 889 
Q 1547 409 2034 409 
Q 2525 409 2770 889 
Q 3016 1369 3016 2328 
Q 3016 3291 2770 3770 
Q 2525 4250 2034 4250 
z
M 2034 4750 
Q 2819 4750 3233 4129 
Q 3647 3509 3647 2328 
Q 3647 1150 3233 529 
Q 2819 -91 2034 -91 
Q 1250 -91 836 529 
Q 422 1150 422 2328 
Q 422 3509 836 4129 
Q 1250 4750 2034 4750 
z
" transform="scale(0.015625)"/>
        <path id="DejaVuSans-31" d="M 794 531 
L 1825 531 
L 1825 4091 
L 703 3866 
L 703 4441 
L 1819 4666 
L 2450 4666 
L 2450 531 
L 3481 531 
L 3481 0 
L 794 0 
L 794 531 
z
" transform="scale(0.015625)"/>
       </defs>
       <use xlink:href="#DejaVuSans-32"/>
       <use xlink:href="#DejaVuSans-35" x="63.623047"/>
       <use xlink:href="#DejaVuSans-2e" x="127.246094"/>
       <use xlink:href="#DejaVuSans-30" x="159.033203"/>
       <use xlink:href="#DejaVuSans-31" x="222.65625"/>
       <use xlink:href="#DejaVuSans-2e" x="286.279297"/>
       <use xlink:href="#DejaVuSans-32" x="318.066406"/>
       <use xlink:href="#DejaVuSans-30" x="381.689453"/>
       <use xlink:href="#DejaVuSans-32" x="445.3125"/>
       <use xlink:href="#DejaVuSans-30" x="508.935547"/>
      </g>
     </g>
    </g>
    <g id="xtick_2">
     <g id="line2d_3">
      <path d="M 97.784194 276.48 
L 97.784194 41.472 
" clip-path="url(#pc9af20566d)" style="fill: none; stroke-dasharray: 2.96,1.28; stroke-dashoffset: 0; stroke: #808080; stroke-width: 0.8"/>
     </g>
     <g id="line2d_4">
      <g>
       <use xlink:href="#m4d5b71a4e2" x="97.784194" y="276.48" style="stroke: #000000; stroke-width: 0.8"/>
      </g>
     </g>
     <g id="text_2">
      <!-- 16.05.2020 -->
      <g transform="translate(47.158984 318.688565) rotate(-30) scale(0.1 -0.1)">
       <defs>
        <path id="DejaVuSans-36" d="M 2113 2584 
Q 1688 2584 1439 2293 
Q 1191 2003 1191 1497 
Q 1191 994 1439 701 
Q 1688 409 2113 409 
Q 2538 409 2786 701 
Q 3034 994 3034 1497 
Q 3034 2003 2786 2293 
Q 2538 2584 2113 2584 
z
M 3366 4563 
L 3366 3988 
Q 3128 4100 2886 4159 
Q 2644 4219 2406 4219 
Q 1781 4219 1451 3797 
Q 1122 3375 1075 2522 
Q 1259 2794 1537 2939 
Q 1816 3084 2150 3084 
Q 2853 3084 3261 2657 
Q 3669 2231 3669 1497 
Q 3669 778 3244 343 
Q 2819 -91 2113 -91 
Q 1303 -91 875 529 
Q 447 1150 447 2328 
Q 447 3434 972 4092 
Q 1497 4750 2381 4750 
Q 2619 4750 2861 4703 
Q 3103 4656 3366 4563 
z
" transform="scale(0.015625)"/>
       </defs>
       <use xlink:href="#DejaVuSans-31"/>
       <use xlink:href="#DejaVuSans-36" x="63.623047"/>
       <use xlink:href="#DejaVuSans-2e" x="127.246094"/>
       <use xlink:href="#DejaVuSans-30" x="159.033203"/>
       <use xlink:href="#DejaVuSans-35" x="222.65625"/>
       <use xlink:href="#DejaVuSans-2e" x="286.279297"/>
       <use xlink:href="#DejaVuSans-32" x="318.066406"/>
       <use xlink:href="#DejaVuSans-30" x="381.689453"/>
       <use xlink:href="#DejaVuSans-32" x="445.3125"/>
       <use xlink:href="#DejaVuSans-30" x="508.935547"/>
      </g>
     </g>
    </g>
    <g id="xtick_3">
     <g id="line2d_5">
      <path d="M 133.892744 276.48 
L 133.892744 41.472 
" clip-path="url(#pc9af20566d)" style="fill: none; stroke-dasharray: 2.96,1.28; stroke-dashoffset: 0; stroke: #808080; stroke-width: 0.8"/>
     </g>
     <g id="line2d_6">
      <g>
       <use xlink:href="#m4d5b71a4e2" x="133.892744" y="276.48" style="stroke: #000000; stroke-width: 0.8"/>
      </g>
     </g>
     <g id="text_3">
      <!-- 05.09.2020 -->
      <g transform="translate(83.267533 318.688565) rotate(-30) scale(0.1 -0.1)">
       <defs>
        <path id="DejaVuSans-39" d="M 703 97 
L 703 672 
Q 941 559 1184 500 
Q 1428 441 1663 441 
Q 2288 441 2617 861 
Q 2947 1281 2994 2138 
Q 2813 1869 2534 1725 
Q 2256 1581 1919 1581 
Q 1219 1581 811 2004 
Q 403 2428 403 3163 
Q 403 3881 828 4315 
Q 1253 4750 1959 4750 
Q 2769 4750 3195 4129 
Q 3622 3509 3622 2328 
Q 3622 1225 3098 567 
Q 2575 -91 1691 -91 
Q 1453 -91 1209 -44 
Q 966 3 703 97 
z
M 1959 2075 
Q 2384 2075 2632 2365 
Q 2881 2656 2881 3163 
Q 2881 3666 2632 3958 
Q 2384 4250 1959 4250 
Q 1534 4250 1286 3958 
Q 1038 3666 1038 3163 
Q 1038 2656 1286 2365 
Q 1534 2075 1959 2075 
z
" transform="scale(0.015625)"/>
       </defs>
       <use xlink:href="#DejaVuSans-30"/>
       <use xlink:href="#DejaVuSans-35" x="63.623047"/>
       <use xlink:href="#DejaVuSans-2e" x="127.246094"/>
       <use xlink:href="#DejaVuSans-30" x="159.033203"/>
       <use xlink:href="#DejaVuSans-39" x="222.65625"/>
       <use xlink:href="#DejaVuSans-2e" x="286.279297"/>
       <use xlink:href="#DejaVuSans-32" x="318.066406"/>
       <use xlink:href="#DejaVuSans-30" x="381.689453"/>
       <use xlink:href="#DejaVuSans-32" x="445.3125"/>
       <use xlink:href="#DejaVuSans-30" x="508.935547"/>
      </g>
     </g>
    </g>
    <g id="xtick_4">
     <g id="line2d_7">
      <path d="M 170.001293 276.48 
L 170.001293 41.472 
" clip-path="url(#pc9af20566d)" style="fill: none; stroke-dasharray: 2.96,1.28; stroke-dashoffset: 0; stroke: #808080; stroke-width: 0.8"/>
     </g>
     <g id="line2d_8">
      <g>
       <use xlink:href="#m4d5b71a4e2" x="170.001293" y="276.48" style="stroke: #000000; stroke-width: 0.8"/>
      </g>
     </g>
     <g id="text_4">
      <!-- 26.12.2020 -->
      <g transform="translate(119.376082 318.688565) rotate(-30) scale(0.1 -0.1)">
       <use xlink:href="#DejaVuSans-32"/>
       <use xlink:href="#DejaVuSans-36" x="63.623047"/>
       <use xlink:href="#DejaVuSans-2e" x="127.246094"/>
       <use xlink:href="#DejaVuSans-31" x="159.033203"/>
       <use xlink:href="#DejaVuSans-32" x="222.65625"/>
       <use xlink:href="#DejaVuSans-2e" x="286.279297"/>
       <use xlink:href="#DejaVuSans-32" x="318.066406"/>
       <use xlink:href="#DejaVuSans-30" x="381.689453"/>
       <use xlink:href="#DejaVuSans-32" x="445.3125"/>
       <use xlink:href="#DejaVuSans-30" x="508.935547"/>
      </g>
     </g>
    </g>
    <g id="xtick_5">
     <g id="line2d_9">
      <path d="M 206.109842 276.48 
L 206.109842 41.472 
" clip-path="url(#pc9af20566d)" style="fill: none; stroke-dasharray: 2.96,1.28; stroke-dashoffset: 0; stroke: #808080; stroke-width: 0.8"/>
     </g>
     <g id="line2d_10">
      <g>
       <use xlink:href="#m4d5b71a4e2" x="206.109842" y="276.48" style="stroke: #000000; stroke-width: 0.8"/>
      </g>
     </g>
     <g id="text_5">
      <!-- 17.04.2021 -->
      <g transform="translate(155.484631 318.688565) rotate(-30) scale(0.1 -0.1)">
       <defs>
        <path id="DejaVuSans-37" d="M 525 4666 
L 3525 4666 
L 3525 4397 
L 1831 0 
L 1172 0 
L 2766 4134 
L 525 4134 
L 525 4666 
z
" transform="scale(0.015625)"/>
        <path id="DejaVuSans-34" d="M 2419 4116 
L 825 1625 
L 2419 1625 
L 2419 4116 
z
M 2253 4666 
L 3047 4666 
L 3047 1625 
L 3713 1625 
L 3713 1100 
L 3047 1100 
L 3047 0 
L 2419 0 
L 2419 1100 
L 313 1100 
L 313 1709 
L 2253 4666 
z
" transform="scale(0.015625)"/>
       </defs>
       <use xlink:href="#DejaVuSans-31"/>
       <use xlink:href="#DejaVuSans-37" x="63.623047"/>
       <use xlink:href="#DejaVuSans-2e" x="127.246094"/>
       <use xlink:href="#DejaVuSans-30" x="159.033203"/>
       <use xlink:href="#DejaVuSans-34" x="222.65625"/>
       <use xlink:href="#DejaVuSans-2e" x="286.279297"/>
       <use xlink:href="#DejaVuSans-32" x="318.066406"/>
       <use xlink:href="#DejaVuSans-30" x="381.689453"/>
       <use xlink:href="#DejaVuSans-32" x="445.3125"/>
       <use xlink:href="#DejaVuSans-31" x="508.935547"/>
      </g>
     </g>
    </g>
    <g id="xtick_6">
     <g id="line2d_11">
      <path d="M 242.218391 276.48 
L 242.218391 41.472 
" clip-path="url(#pc9af20566d)" style="fill: none; stroke-dasharray: 2.96,1.28; stroke-dashoffset: 0; stroke: #808080; stroke-width: 0.8"/>
     </g>
     <g id="line2d_12">
      <g>
       <use xlink:href="#m4d5b71a4e2" x="242.218391" y="276.48" style="stroke: #000000; stroke-width: 0.8"/>
      </g>
     </g>
     <g id="text_6">
      <!-- 07.08.2021 -->
      <g transform="translate(191.59318 318.688565) rotate(-30) scale(0.1 -0.1)">
       <defs>
        <path id="DejaVuSans-38" d="M 2034 2216 
Q 1584 2216 1326 1975 
Q 1069 1734 1069 1313 
Q 1069 891 1326 650 
Q 1584 409 2034 409 
Q 2484 409 2743 651 
Q 3003 894 3003 1313 
Q 3003 1734 2745 1975 
Q 2488 2216 2034 2216 
z
M 1403 2484 
Q 997 2584 770 2862 
Q 544 3141 544 3541 
Q 544 4100 942 4425 
Q 1341 4750 2034 4750 
Q 2731 4750 3128 4425 
Q 3525 4100 3525 3541 
Q 3525 3141 3298 2862 
Q 3072 2584 2669 2484 
Q 3125 2378 3379 2068 
Q 3634 1759 3634 1313 
Q 3634 634 3220 271 
Q 2806 -91 2034 -91 
Q 1263 -91 848 271 
Q 434 634 434 1313 
Q 434 1759 690 2068 
Q 947 2378 1403 2484 
z
M 1172 3481 
Q 1172 3119 1398 2916 
Q 1625 2713 2034 2713 
Q 2441 2713 2670 2916 
Q 2900 3119 2900 3481 
Q 2900 3844 2670 4047 
Q 2441 4250 2034 4250 
Q 1625 4250 1398 4047 
Q 1172 3844 1172 3481 
z
" transform="scale(0.015625)"/>
       </defs>
       <use xlink:href="#DejaVuSans-30"/>
       <use xlink:href="#DejaVuSans-37" x="63.623047"/>
       <use xlink:href="#DejaVuSans-2e" x="127.246094"/>
       <use xlink:href="#DejaVuSans-30" x="159.033203"/>
       <use xlink:href="#DejaVuSans-38" x="222.65625"/>
       <use xlink:href="#DejaVuSans-2e" x="286.279297"/>
       <use xlink:href="#DejaVuSans-32" x="318.066406"/>
       <use xlink:href="#DejaVuSans-30" x="381.689453"/>
       <use xlink:href="#DejaVuSans-32" x="445.3125"/>
       <use xlink:href="#DejaVuSans-31" x="508.935547"/>
      </g>
     </g>
    </g>
    <g id="xtick_7">
     <g id="line2d_13">
      <path d="M 278.326941 276.48 
L 278.326941 41.472 
" clip-path="url(#pc9af20566d)" style="fill: none; stroke-dasharray: 2.96,1.28; stroke-dashoffset: 0; stroke: #808080; stroke-width: 0.8"/>
     </g>
     <g id="line2d_14">
      <g>
       <use xlink:href="#m4d5b71a4e2" x="278.326941" y="276.48" style="stroke: #000000; stroke-width: 0.8"/>
      </g>
     </g>
     <g id="text_7">
      <!-- 27.11.2021 -->
      <g transform="translate(227.70173 318.688565) rotate(-30) scale(0.1 -0.1)">
       <use xlink:href="#DejaVuSans-32"/>
       <use xlink:href="#DejaVuSans-37" x="63.623047"/>
       <use xlink:href="#DejaVuSans-2e" x="127.246094"/>
       <use xlink:href="#DejaVuSans-31" x="159.033203"/>
       <use xlink:href="#DejaVuSans-31" x="222.65625"/>
       <use xlink:href="#DejaVuSans-2e" x="286.279297"/>
       <use xlink:href="#DejaVuSans-32" x="318.066406"/>
       <use xlink:href="#DejaVuSans-30" x="381.689453"/>
       <use xlink:href="#DejaVuSans-32" x="445.3125"/>
       <use xlink:href="#DejaVuSans-31" x="508.935547"/>
      </g>
     </g>
    </g>
    <g id="xtick_8">
     <g id="line2d_15">
      <path d="M 314.43549 276.48 
L 314.43549 41.472 
" clip-path="url(#pc9af20566d)" style="fill: none; stroke-dasharray: 2.96,1.28; stroke-dashoffset: 0; stroke: #808080; stroke-width: 0.8"/>
     </g>
     <g id="line2d_16">
      <g>
       <use xlink:href="#m4d5b71a4e2" x="314.43549" y="276.48" style="stroke: #000000; stroke-width: 0.8"/>
      </g>
     </g>
     <g id="text_8">
      <!-- 19.03.2022 -->
      <g transform="translate(263.810279 318.688565) rotate(-30) scale(0.1 -0.1)">
       <defs>
        <path id="DejaVuSans-33" d="M 2597 2516 
Q 3050 2419 3304 2112 
Q 3559 1806 3559 1356 
Q 3559 666 3084 287 
Q 2609 -91 1734 -91 
Q 1441 -91 1130 -33 
Q 819 25 488 141 
L 488 750 
Q 750 597 1062 519 
Q 1375 441 1716 441 
Q 2309 441 2620 675 
Q 2931 909 2931 1356 
Q 2931 1769 2642 2001 
Q 2353 2234 1838 2234 
L 1294 2234 
L 1294 2753 
L 1863 2753 
Q 2328 2753 2575 2939 
Q 2822 3125 2822 3475 
Q 2822 3834 2567 4026 
Q 2313 4219 1838 4219 
Q 1578 4219 1281 4162 
Q 984 4106 628 3988 
L 628 4550 
Q 988 4650 1302 4700 
Q 1616 4750 1894 4750 
Q 2613 4750 3031 4423 
Q 3450 4097 3450 3541 
Q 3450 3153 3228 2886 
Q 3006 2619 2597 2516 
z
" transform="scale(0.015625)"/>
       </defs>
       <use xlink:href="#DejaVuSans-31"/>
       <use xlink:href="#DejaVuSans-39" x="63.623047"/>
       <use xlink:href="#DejaVuSans-2e" x="127.246094"/>
       <use xlink:href="#DejaVuSans-30" x="159.033203"/>
       <use xlink:href="#DejaVuSans-33" x="222.65625"/>
       <use xlink:href="#DejaVuSans-2e" x="286.279297"/>
       <use xlink:href="#DejaVuSans-32" x="318.066406"/>
       <use xlink:href="#DejaVuSans-30" x="381.689453"/>
       <use xlink:href="#DejaVuSans-32" x="445.3125"/>
       <use xlink:href="#DejaVuSans-32" x="508.935547"/>
      </g>
     </g>
    </g>
    <g id="xtick_9">
     <g id="line2d_17">
      <path d="M 350.544039 276.48 
L 350.544039 41.472 
" clip-path="url(#pc9af20566d)" style="fill: none; stroke-dasharray: 2.96,1.28; stroke-dashoffset: 0; stroke: #808080; stroke-width: 0.8"/>
     </g>
     <g id="line2d_18">
      <g>
       <use xlink:href="#m4d5b71a4e2" x="350.544039" y="276.48" style="stroke: #000000; stroke-width: 0.8"/>
      </g>
     </g>
     <g id="text_9">
      <!-- 09.07.2022 -->
      <g transform="translate(299.918828 318.688565) rotate(-30) scale(0.1 -0.1)">
       <use xlink:href="#DejaVuSans-30"/>
       <use xlink:href="#DejaVuSans-39" x="63.623047"/>
       <use xlink:href="#DejaVuSans-2e" x="127.246094"/>
       <use xlink:href="#DejaVuSans-30" x="159.033203"/>
       <use xlink:href="#DejaVuSans-37" x="222.65625"/>
       <use xlink:href="#DejaVuSans-2e" x="286.279297"/>
       <use xlink:href="#DejaVuSans-32" x="318.066406"/>
       <use xlink:href="#DejaVuSans-30" x="381.689453"/>
       <use xlink:href="#DejaVuSans-32" x="445.3125"/>
       <use xlink:href="#DejaVuSans-32" x="508.935547"/>
      </g>
     </g>
    </g>
    <g id="xtick_10">
     <g id="line2d_19">
      <path d="M 386.652588 276.48 
L 386.652588 41.472 
" clip-path="url(#pc9af20566d)" style="fill: none; stroke-dasharray: 2.96,1.28; stroke-dashoffset: 0; stroke: #808080; stroke-width: 0.8"/>
     </g>
     <g id="line2d_20">
      <g>
       <use xlink:href="#m4d5b71a4e2" x="386.652588" y="276.48" style="stroke: #000000; stroke-width: 0.8"/>
      </g>
     </g>
     <g id="text_10">
      <!-- 29.10.2022 -->
      <g transform="translate(336.027377 318.688565) rotate(-30) scale(0.1 -0.1)">
       <use xlink:href="#DejaVuSans-32"/>
       <use xlink:href="#DejaVuSans-39" x="63.623047"/>
       <use xlink:href="#DejaVuSans-2e" x="127.246094"/>
       <use xlink:href="#DejaVuSans-31" x="159.033203"/>
       <use xlink:href="#DejaVuSans-30" x="222.65625"/>
       <use xlink:href="#DejaVuSans-2e" x="286.279297"/>
       <use xlink:href="#DejaVuSans-32" x="318.066406"/>
       <use xlink:href="#DejaVuSans-30" x="381.689453"/>
       <use xlink:href="#DejaVuSans-32" x="445.3125"/>
       <use xlink:href="#DejaVuSans-32" x="508.935547"/>
      </g>
     </g>
    </g>
   </g>
   <g id="matplotlib.axis_2">
    <g id="ytick_1">
     <g id="line2d_21">
      <path d="M 57.6 263.775157 
L 414.72 263.775157 
" clip-path="url(#pc9af20566d)" style="fill: none; stroke-dasharray: 2.96,1.28; stroke-dashoffset: 0; stroke: #808080; stroke-width: 0.8"/>
     </g>
     <g id="line2d_22">
      <defs>
       <path id="m6ebd1b0f82" d="M 0 0 
L -3.5 0 
" style="stroke: #000000; stroke-width: 0.8"/>
      </defs>
      <g>
       <use xlink:href="#m6ebd1b0f82" x="57.6" y="263.775157" style="stroke: #000000; stroke-width: 0.8"/>
      </g>
     </g>
     <g id="text_11">
      <!-- 0 -->
      <g transform="translate(44.2375 267.574375) scale(0.1 -0.1)">
       <use xlink:href="#DejaVuSans-30"/>
      </g>
     </g>
    </g>
    <g id="ytick_2">
     <g id="line2d_23">
      <path d="M 57.6 226.52879 
L 414.72 226.52879 
" clip-path="url(#pc9af20566d)" style="fill: none; stroke-dasharray: 2.96,1.28; stroke-dashoffset: 0; stroke: #808080; stroke-width: 0.8"/>
     </g>
     <g id="line2d_24">
      <g>
       <use xlink:href="#m6ebd1b0f82" x="57.6" y="226.52879" style="stroke: #000000; stroke-width: 0.8"/>
      </g>
     </g>
     <g id="text_12">
      <!-- 500 -->
      <g transform="translate(31.5125 230.328009) scale(0.1 -0.1)">
       <use xlink:href="#DejaVuSans-35"/>
       <use xlink:href="#DejaVuSans-30" x="63.623047"/>
       <use xlink:href="#DejaVuSans-30" x="127.246094"/>
      </g>
     </g>
    </g>
    <g id="ytick_3">
     <g id="line2d_25">
      <path d="M 57.6 189.282424 
L 414.72 189.282424 
" clip-path="url(#pc9af20566d)" style="fill: none; stroke-dasharray: 2.96,1.28; stroke-dashoffset: 0; stroke: #808080; stroke-width: 0.8"/>
     </g>
     <g id="line2d_26">
      <g>
       <use xlink:href="#m6ebd1b0f82" x="57.6" y="189.282424" style="stroke: #000000; stroke-width: 0.8"/>
      </g>
     </g>
     <g id="text_13">
      <!-- 1000 -->
      <g transform="translate(25.15 193.081643) scale(0.1 -0.1)">
       <use xlink:href="#DejaVuSans-31"/>
       <use xlink:href="#DejaVuSans-30" x="63.623047"/>
       <use xlink:href="#DejaVuSans-30" x="127.246094"/>
       <use xlink:href="#DejaVuSans-30" x="190.869141"/>
      </g>
     </g>
    </g>
    <g id="ytick_4">
     <g id="line2d_27">
      <path d="M 57.6 152.036058 
L 414.72 152.036058 
" clip-path="url(#pc9af20566d)" style="fill: none; stroke-dasharray: 2.96,1.28; stroke-dashoffset: 0; stroke: #808080; stroke-width: 0.8"/>
     </g>
     <g id="line2d_28">
      <g>
       <use xlink:href="#m6ebd1b0f82" x="57.6" y="152.036058" style="stroke: #000000; stroke-width: 0.8"/>
      </g>
     </g>
     <g id="text_14">
      <!-- 1500 -->
      <g transform="translate(25.15 155.835277) scale(0.1 -0.1)">
       <use xlink:href="#DejaVuSans-31"/>
       <use xlink:href="#DejaVuSans-35" x="63.623047"/>
       <use xlink:href="#DejaVuSans-30" x="127.246094"/>
       <use xlink:href="#DejaVuSans-30" x="190.869141"/>
      </g>
     </g>
    </g>
    <g id="ytick_5">
     <g id="line2d_29">
      <path d="M 57.6 114.789692 
L 414.72 114.789692 
" clip-path="url(#pc9af20566d)" style="fill: none; stroke-dasharray: 2.96,1.28; stroke-dashoffset: 0; stroke: #808080; stroke-width: 0.8"/>
     </g>
     <g id="line2d_30">
      <g>
       <use xlink:href="#m6ebd1b0f82" x="57.6" y="114.789692" style="stroke: #000000; stroke-width: 0.8"/>
      </g>
     </g>
     <g id="text_15">
      <!-- 2000 -->
      <g transform="translate(25.15 118.588911) scale(0.1 -0.1)">
       <use xlink:href="#DejaVuSans-32"/>
       <use xlink:href="#DejaVuSans-30" x="63.623047"/>
       <use xlink:href="#DejaVuSans-30" x="127.246094"/>
       <use xlink:href="#DejaVuSans-30" x="190.869141"/>
      </g>
     </g>
    </g>
    <g id="ytick_6">
     <g id="line2d_31">
      <path d="M 57.6 77.543326 
L 414.72 77.543326 
" clip-path="url(#pc9af20566d)" style="fill: none; stroke-dasharray: 2.96,1.28; stroke-dashoffset: 0; stroke: #808080; stroke-width: 0.8"/>
     </g>
     <g id="line2d_32">
      <g>
       <use xlink:href="#m6ebd1b0f82" x="57.6" y="77.543326" style="stroke: #000000; stroke-width: 0.8"/>
      </g>
     </g>
     <g id="text_16">
      <!-- 2500 -->
      <g transform="translate(25.15 81.342545) scale(0.1 -0.1)">
       <use xlink:href="#DejaVuSans-32"/>
       <use xlink:href="#DejaVuSans-35" x="63.623047"/>
       <use xlink:href="#DejaVuSans-30" x="127.246094"/>
       <use xlink:href="#DejaVuSans-30" x="190.869141"/>
      </g>
     </g>
    </g>
    <g id="text_17">
     <!-- Inzidenz pro 7 Tage pro 100.000 Einwohner -->
     <g transform="translate(19.070312 267.301) rotate(-90) scale(0.1 -0.1)">
      <defs>
       <path id="DejaVuSans-49" d="M 628 4666 
L 1259 4666 
L 1259 0 
L 628 0 
L 628 4666 
z
" transform="scale(0.015625)"/>
       <path id="DejaVuSans-6e" d="M 3513 2113 
L 3513 0 
L 2938 0 
L 2938 2094 
Q 2938 2591 2744 2837 
Q 2550 3084 2163 3084 
Q 1697 3084 1428 2787 
Q 1159 2491 1159 1978 
L 1159 0 
L 581 0 
L 581 3500 
L 1159 3500 
L 1159 2956 
Q 1366 3272 1645 3428 
Q 1925 3584 2291 3584 
Q 2894 3584 3203 3211 
Q 3513 2838 3513 2113 
z
" transform="scale(0.015625)"/>
       <path id="DejaVuSans-7a" d="M 353 3500 
L 3084 3500 
L 3084 2975 
L 922 459 
L 3084 459 
L 3084 0 
L 275 0 
L 275 525 
L 2438 3041 
L 353 3041 
L 353 3500 
z
" transform="scale(0.015625)"/>
       <path id="DejaVuSans-69" d="M 603 3500 
L 1178 3500 
L 1178 0 
L 603 0 
L 603 3500 
z
M 603 4863 
L 1178 4863 
L 1178 4134 
L 603 4134 
L 603 4863 
z
" transform="scale(0.015625)"/>
       <path id="DejaVuSans-64" d="M 2906 2969 
L 2906 4863 
L 3481 4863 
L 3481 0 
L 2906 0 
L 2906 525 
Q 2725 213 2448 61 
Q 2172 -91 1784 -91 
Q 1150 -91 751 415 
Q 353 922 353 1747 
Q 353 2572 751 3078 
Q 1150 3584 1784 3584 
Q 2172 3584 2448 3432 
Q 2725 3281 2906 2969 
z
M 947 1747 
Q 947 1113 1208 752 
Q 1469 391 1925 391 
Q 2381 391 2643 752 
Q 2906 1113 2906 1747 
Q 2906 2381 2643 2742 
Q 2381 3103 1925 3103 
Q 1469 3103 1208 2742 
Q 947 2381 947 1747 
z
" transform="scale(0.015625)"/>
       <path id="DejaVuSans-65" d="M 3597 1894 
L 3597 1613 
L 953 1613 
Q 991 1019 1311 708 
Q 1631 397 2203 397 
Q 2534 397 2845 478 
Q 3156 559 3463 722 
L 3463 178 
Q 3153 47 2828 -22 
Q 2503 -91 2169 -91 
Q 1331 -91 842 396 
Q 353 884 353 1716 
Q 353 2575 817 3079 
Q 1281 3584 2069 3584 
Q 2775 3584 3186 3129 
Q 3597 2675 3597 1894 
z
M 3022 2063 
Q 3016 2534 2758 2815 
Q 2500 3097 2075 3097 
Q 1594 3097 1305 2825 
Q 1016 2553 972 2059 
L 3022 2063 
z
" transform="scale(0.015625)"/>
       <path id="DejaVuSans-20" transform="scale(0.015625)"/>
       <path id="DejaVuSans-70" d="M 1159 525 
L 1159 -1331 
L 581 -1331 
L 581 3500 
L 1159 3500 
L 1159 2969 
Q 1341 3281 1617 3432 
Q 1894 3584 2278 3584 
Q 2916 3584 3314 3078 
Q 3713 2572 3713 1747 
Q 3713 922 3314 415 
Q 2916 -91 2278 -91 
Q 1894 -91 1617 61 
Q 1341 213 1159 525 
z
M 3116 1747 
Q 3116 2381 2855 2742 
Q 2594 3103 2138 3103 
Q 1681 3103 1420 2742 
Q 1159 2381 1159 1747 
Q 1159 1113 1420 752 
Q 1681 391 2138 391 
Q 2594 391 2855 752 
Q 3116 1113 3116 1747 
z
" transform="scale(0.015625)"/>
       <path id="DejaVuSans-72" d="M 2631 2963 
Q 2534 3019 2420 3045 
Q 2306 3072 2169 3072 
Q 1681 3072 1420 2755 
Q 1159 2438 1159 1844 
L 1159 0 
L 581 0 
L 581 3500 
L 1159 3500 
L 1159 2956 
Q 1341 3275 1631 3429 
Q 1922 3584 2338 3584 
Q 2397 3584 2469 3576 
Q 2541 3569 2628 3553 
L 2631 2963 
z
" transform="scale(0.015625)"/>
       <path id="DejaVuSans-6f" d="M 1959 3097 
Q 1497 3097 1228 2736 
Q 959 2375 959 1747 
Q 959 1119 1226 758 
Q 1494 397 1959 397 
Q 2419 397 2687 759 
Q 2956 1122 2956 1747 
Q 2956 2369 2687 2733 
Q 2419 3097 1959 3097 
z
M 1959 3584 
Q 2709 3584 3137 3096 
Q 3566 2609 3566 1747 
Q 3566 888 3137 398 
Q 2709 -91 1959 -91 
Q 1206 -91 779 398 
Q 353 888 353 1747 
Q 353 2609 779 3096 
Q 1206 3584 1959 3584 
z
" transform="scale(0.015625)"/>
       <path id="DejaVuSans-54" d="M -19 4666 
L 3928 4666 
L 3928 4134 
L 2272 4134 
L 2272 0 
L 1638 0 
L 1638 4134 
L -19 4134 
L -19 4666 
z
" transform="scale(0.015625)"/>
       <path id="DejaVuSans-61" d="M 2194 1759 
Q 1497 1759 1228 1600 
Q 959 1441 959 1056 
Q 959 750 1161 570 
Q 1363 391 1709 391 
Q 2188 391 2477 730 
Q 2766 1069 2766 1631 
L 2766 1759 
L 2194 1759 
z
M 3341 1997 
L 3341 0 
L 2766 0 
L 2766 531 
Q 2569 213 2275 61 
Q 1981 -91 1556 -91 
Q 1019 -91 701 211 
Q 384 513 384 1019 
Q 384 1609 779 1909 
Q 1175 2209 1959 2209 
L 2766 2209 
L 2766 2266 
Q 2766 2663 2505 2880 
Q 2244 3097 1772 3097 
Q 1472 3097 1187 3025 
Q 903 2953 641 2809 
L 641 3341 
Q 956 3463 1253 3523 
Q 1550 3584 1831 3584 
Q 2591 3584 2966 3190 
Q 3341 2797 3341 1997 
z
" transform="scale(0.015625)"/>
       <path id="DejaVuSans-67" d="M 2906 1791 
Q 2906 2416 2648 2759 
Q 2391 3103 1925 3103 
Q 1463 3103 1205 2759 
Q 947 2416 947 1791 
Q 947 1169 1205 825 
Q 1463 481 1925 481 
Q 2391 481 2648 825 
Q 2906 1169 2906 1791 
z
M 3481 434 
Q 3481 -459 3084 -895 
Q 2688 -1331 1869 -1331 
Q 1566 -1331 1297 -1286 
Q 1028 -1241 775 -1147 
L 775 -588 
Q 1028 -725 1275 -790 
Q 1522 -856 1778 -856 
Q 2344 -856 2625 -561 
Q 2906 -266 2906 331 
L 2906 616 
Q 2728 306 2450 153 
Q 2172 0 1784 0 
Q 1141 0 747 490 
Q 353 981 353 1791 
Q 353 2603 747 3093 
Q 1141 3584 1784 3584 
Q 2172 3584 2450 3431 
Q 2728 3278 2906 2969 
L 2906 3500 
L 3481 3500 
L 3481 434 
z
" transform="scale(0.015625)"/>
       <path id="DejaVuSans-45" d="M 628 4666 
L 3578 4666 
L 3578 4134 
L 1259 4134 
L 1259 2753 
L 3481 2753 
L 3481 2222 
L 1259 2222 
L 1259 531 
L 3634 531 
L 3634 0 
L 628 0 
L 628 4666 
z
" transform="scale(0.015625)"/>
       <path id="DejaVuSans-77" d="M 269 3500 
L 844 3500 
L 1563 769 
L 2278 3500 
L 2956 3500 
L 3675 769 
L 4391 3500 
L 4966 3500 
L 4050 0 
L 3372 0 
L 2619 2869 
L 1863 0 
L 1184 0 
L 269 3500 
z
" transform="scale(0.015625)"/>
       <path id="DejaVuSans-68" d="M 3513 2113 
L 3513 0 
L 2938 0 
L 2938 2094 
Q 2938 2591 2744 2837 
Q 2550 3084 2163 3084 
Q 1697 3084 1428 2787 
Q 1159 2491 1159 1978 
L 1159 0 
L 581 0 
L 581 4863 
L 1159 4863 
L 1159 2956 
Q 1366 3272 1645 3428 
Q 1925 3584 2291 3584 
Q 2894 3584 3203 3211 
Q 3513 2838 3513 2113 
z
" transform="scale(0.015625)"/>
      </defs>
      <use xlink:href="#DejaVuSans-49"/>
      <use xlink:href="#DejaVuSans-6e" x="29.492188"/>
      <use xlink:href="#DejaVuSans-7a" x="92.871094"/>
      <use xlink:href="#DejaVuSans-69" x="145.361328"/>
      <use xlink:href="#DejaVuSans-64" x="173.144531"/>
      <use xlink:href="#DejaVuSans-65" x="236.621094"/>
      <use xlink:href="#DejaVuSans-6e" x="298.144531"/>
      <use xlink:href="#DejaVuSans-7a" x="361.523438"/>
      <use xlink:href="#DejaVuSans-20" x="414.013672"/>
      <use xlink:href="#DejaVuSans-70" x="445.800781"/>
      <use xlink:href="#DejaVuSans-72" x="509.277344"/>
      <use xlink:href="#DejaVuSans-6f" x="548.140625"/>
      <use xlink:href="#DejaVuSans-20" x="609.322266"/>
      <use xlink:href="#DejaVuSans-37" x="641.109375"/>
      <use xlink:href="#DejaVuSans-20" x="704.732422"/>
      <use xlink:href="#DejaVuSans-54" x="736.519531"/>
      <use xlink:href="#DejaVuSans-61" x="781.103516"/>
      <use xlink:href="#DejaVuSans-67" x="842.382812"/>
      <use xlink:href="#DejaVuSans-65" x="905.859375"/>
      <use xlink:href="#DejaVuSans-20" x="967.382812"/>
      <use xlink:href="#DejaVuSans-70" x="999.169922"/>
      <use xlink:href="#DejaVuSans-72" x="1062.646484"/>
      <use xlink:href="#DejaVuSans-6f" x="1101.509766"/>
      <use xlink:href="#DejaVuSans-20" x="1162.691406"/>
      <use xlink:href="#DejaVuSans-31" x="1194.478516"/>
      <use xlink:href="#DejaVuSans-30" x="1258.101562"/>
      <use xlink:href="#DejaVuSans-30" x="1321.724609"/>
      <use xlink:href="#DejaVuSans-2e" x="1385.347656"/>
      <use xlink:href="#DejaVuSans-30" x="1417.134766"/>
      <use xlink:href="#DejaVuSans-30" x="1480.757812"/>
      <use xlink:href="#DejaVuSans-30" x="1544.380859"/>
      <use xlink:href="#DejaVuSans-20" x="1608.003906"/>
      <use xlink:href="#DejaVuSans-45" x="1639.791016"/>
      <use xlink:href="#DejaVuSans-69" x="1702.974609"/>
      <use xlink:href="#DejaVuSans-6e" x="1730.757812"/>
      <use xlink:href="#DejaVuSans-77" x="1794.136719"/>
      <use xlink:href="#DejaVuSans-6f" x="1875.923828"/>
      <use xlink:href="#DejaVuSans-68" x="1937.105469"/>
      <use xlink:href="#DejaVuSans-6e" x="2000.484375"/>
      <use xlink:href="#DejaVuSans-65" x="2063.863281"/>
      <use xlink:href="#DejaVuSans-72" x="2125.386719"/>
     </g>
    </g>
   </g>
   <g id="line2d_33">
    <path d="M 73.832727 263.775157 
L 75.122318 263.775157 
L 75.444716 263.64874 
L 78.023898 263.64874 
L 78.668694 263.459116 
L 78.991091 262.637409 
L 79.313489 262.637409 
L 79.958285 261.942119 
L 80.60308 260.17229 
L 80.925478 258.781711 
L 81.247876 258.781711 
L 81.570274 257.896796 
L 81.892671 256.316592 
L 82.537467 256.000551 
L 82.859865 254.926012 
L 83.182262 253.156183 
L 83.50466 253.156183 
L 83.827058 252.650517 
L 84.149456 251.639187 
L 84.471853 252.081644 
L 84.794251 251.828811 
L 85.116649 253.282599 
L 85.439047 255.874134 
L 85.761444 256.3798 
L 86.083842 255.937343 
L 86.40624 258.592086 
L 86.728638 258.46567 
L 87.373433 260.361915 
L 87.695831 260.109082 
L 88.018229 260.045874 
L 88.340627 261.499662 
L 88.663024 260.993997 
L 88.985422 261.120413 
L 89.30782 260.86758 
L 89.630218 259.982666 
L 89.952615 260.614748 
L 90.597411 261.120413 
L 90.919809 261.56287 
L 91.242206 261.689287 
L 91.564604 261.56287 
L 91.887002 262.194952 
L 92.854195 262.384577 
L 93.498991 262.763826 
L 93.821388 263.395907 
L 94.143786 263.522324 
L 94.788582 263.585532 
L 95.433377 263.64874 
L 95.755775 263.522324 
L 96.078173 263.206283 
L 96.722968 263.459116 
L 97.367764 263.395907 
L 98.657355 263.585532 
L 99.30215 263.64874 
L 99.946946 263.711948 
L 108.651685 263.775157 
L 108.974083 265.797818 
L 110.586072 265.73461 
L 110.90847 265.671402 
L 111.230868 263.64874 
L 117.356425 263.585532 
L 117.678823 263.459116 
L 118.646016 263.395907 
L 118.968414 263.332699 
L 119.613209 263.459116 
L 119.935607 263.64874 
L 120.258005 263.206283 
L 121.225198 263.332699 
L 121.547596 263.269491 
L 121.869994 263.079867 
L 122.192391 263.079867 
L 122.514789 263.522324 
L 123.80438 263.459116 
L 124.126778 263.64874 
L 125.093971 263.64874 
L 125.416369 263.522324 
L 127.350756 263.522324 
L 127.673153 263.64874 
L 130.252335 263.143075 
L 130.897131 263.332699 
L 131.219529 263.395907 
L 131.541927 263.332699 
L 131.864324 263.459116 
L 132.186722 263.332699 
L 132.50912 263.459116 
L 133.798711 262.890242 
L 134.121109 262.700618 
L 134.443506 262.763826 
L 134.765904 262.321368 
L 135.4107 262.447785 
L 137.022688 263.459116 
L 137.345086 263.395907 
L 137.667484 263.459116 
L 137.989882 263.206283 
L 138.634677 263.206283 
L 139.279473 262.637409 
L 139.601871 262.763826 
L 140.246666 262.700618 
L 140.569064 262.574201 
L 140.891462 262.574201 
L 141.536257 262.827034 
L 142.181053 262.700618 
L 142.825848 262.890242 
L 143.148246 262.763826 
L 143.793041 262.95345 
L 144.115439 262.827034 
L 144.437837 262.574201 
L 144.760235 262.637409 
L 145.082632 262.447785 
L 145.40503 262.447785 
L 145.727428 261.815703 
L 146.049826 261.436454 
L 146.694621 261.499662 
L 147.661815 260.804372 
L 147.984212 261.310038 
L 148.30661 260.804372 
L 148.629008 260.045874 
L 149.273803 257.201506 
L 149.596201 257.07509 
L 149.918599 257.201506 
L 150.240997 255.874134 
L 150.563394 256.506216 
L 150.885792 256.253384 
L 151.20819 256.759049 
L 151.530588 257.707172 
L 151.852985 257.201506 
L 152.175383 257.580755 
L 152.497781 254.736387 
L 152.820179 253.59864 
L 153.787372 251.639187 
L 154.432168 249.237276 
L 154.754565 252.460893 
L 155.076963 252.271268 
L 156.044156 250.438231 
L 156.366554 250.81748 
L 156.688952 248.731611 
L 157.01135 248.099529 
L 157.656145 248.921235 
L 157.978543 247.151406 
L 158.300941 247.088198 
L 158.623338 247.214614 
L 158.945736 249.4269 
L 159.268134 249.742941 
L 159.590532 246.772157 
L 159.912929 246.519324 
L 160.235327 249.932566 
L 160.557725 250.438231 
L 160.880123 249.932566 
L 161.202521 248.605194 
L 161.524918 248.794819 
L 161.847316 252.20806 
L 162.169714 252.397685 
L 162.492112 252.144852 
L 163.136907 249.995774 
L 163.459305 251.070313 
L 163.781703 251.386354 
L 164.1041 250.564648 
L 164.426498 250.691064 
L 164.748896 249.553317 
L 165.393691 249.490109 
L 166.038487 247.973112 
L 166.360885 248.162737 
L 166.683282 247.846696 
L 167.00568 248.225945 
L 167.328078 246.961782 
L 167.650476 247.467447 
L 168.295271 250.12219 
L 168.617669 249.679733 
L 168.940067 249.742941 
L 169.584862 251.639187 
L 170.229658 252.90335 
L 170.552056 252.334477 
L 170.874453 253.219391 
L 171.196851 252.524101 
L 171.519249 250.185399 
L 171.841647 250.311815 
L 172.164044 251.259938 
L 172.486442 250.754272 
L 172.80884 249.80615 
L 173.131238 249.490109 
L 173.453635 249.932566 
L 174.098431 252.966558 
L 174.420829 252.90335 
L 174.743227 252.460893 
L 175.065624 253.535432 
L 175.388022 253.535432 
L 175.71042 254.167514 
L 176.032818 253.345807 
L 176.355215 253.661848 
L 176.677613 252.90335 
L 177.000011 253.535432 
L 177.322409 253.788265 
L 177.644806 254.799595 
L 177.967204 254.673179 
L 178.289602 255.747718 
L 178.612 255.621302 
L 178.934397 255.937343 
L 179.256795 255.368469 
L 179.901591 255.431677 
L 180.223988 255.68451 
L 180.546386 255.115636 
L 180.868784 255.747718 
L 181.191182 256.695841 
L 181.513579 257.264714 
L 181.835977 257.580755 
L 182.158375 257.707172 
L 182.803171 259.793041 
L 183.125568 259.477001 
L 183.447966 258.971335 
L 183.770364 258.718502 
L 184.415159 258.971335 
L 184.737557 258.46567 
L 185.059955 258.844919 
L 185.382353 258.781711 
L 186.027148 259.350584 
L 186.994341 258.908127 
L 187.639137 259.16096 
L 187.961535 258.718502 
L 188.60633 258.592086 
L 188.928728 258.276045 
L 189.251126 258.781711 
L 189.573524 258.402462 
L 189.895921 258.339253 
L 190.218319 259.224168 
L 190.540717 259.16096 
L 190.863115 258.086421 
L 191.185512 257.960004 
L 191.50791 257.517547 
L 191.830308 257.77038 
L 192.152706 257.707172 
L 192.797501 256.948673 
L 193.119899 257.833588 
L 193.442297 258.276045 
L 193.764694 259.224168 
L 194.087092 257.833588 
L 194.40949 257.327923 
L 194.731888 257.327923 
L 195.054285 256.695841 
L 195.376683 256.822257 
L 196.021479 254.609971 
L 196.343877 255.431677 
L 196.666274 255.874134 
L 196.988672 255.368469 
L 197.31107 256.569424 
L 197.633468 256.000551 
L 197.955865 256.695841 
L 198.278263 257.07509 
L 198.600661 256.316592 
L 198.923059 255.874134 
L 199.245456 255.937343 
L 199.567854 255.68451 
L 199.890252 256.506216 
L 200.535047 256.253384 
L 201.502241 257.138298 
L 201.824638 257.011882 
L 202.147036 256.569424 
L 202.469434 256.632633 
L 203.114229 256.253384 
L 203.436627 255.305261 
L 203.759025 254.799595 
L 204.081423 253.851473 
L 204.403821 254.230722 
L 204.726218 253.661848 
L 205.371014 253.156183 
L 205.693412 252.966558 
L 206.338207 253.851473 
L 206.660605 253.535432 
L 206.983003 253.788265 
L 207.627798 252.587309 
L 207.950196 252.524101 
L 208.272594 252.144852 
L 208.594991 251.259938 
L 208.917389 250.943897 
L 209.239787 251.323146 
L 209.884582 253.661848 
L 210.529378 255.052428 
L 211.174174 255.874134 
L 211.496571 256.000551 
L 211.818969 254.98922 
L 212.786162 254.29393 
L 213.10856 255.621302 
L 213.430958 255.558094 
L 213.753356 255.68451 
L 214.398151 258.149629 
L 214.720549 259.034543 
L 215.042947 259.540209 
L 215.365344 259.16096 
L 215.687742 258.528878 
L 216.01014 258.276045 
L 216.332538 258.402462 
L 216.654935 258.149629 
L 216.977333 258.528878 
L 217.299731 258.528878 
L 217.622129 259.097751 
L 217.944526 260.17229 
L 218.589322 260.361915 
L 218.91172 260.930789 
L 219.234118 260.741164 
L 219.556515 260.993997 
L 219.878913 260.55154 
L 220.201311 260.488331 
L 220.523709 260.677956 
L 220.846106 260.361915 
L 221.490902 261.246829 
L 221.8133 261.246829 
L 222.135697 262.005328 
L 222.458095 261.878911 
L 222.780493 262.005328 
L 223.102891 262.637409 
L 223.425288 262.637409 
L 223.747686 262.763826 
L 224.392482 262.447785 
L 224.714879 262.700618 
L 225.359675 262.763826 
L 225.682073 262.95345 
L 226.004471 262.95345 
L 226.326868 263.269491 
L 226.649266 263.395907 
L 227.616459 263.395907 
L 228.261255 263.206283 
L 230.195641 263.206283 
L 230.840437 262.95345 
L 231.162835 263.079867 
L 232.452426 262.827034 
L 233.097221 263.143075 
L 233.419619 263.079867 
L 234.70921 263.269491 
L 235.031608 263.143075 
L 235.998801 263.143075 
L 236.321199 263.016658 
L 237.288392 263.143075 
L 238.255585 262.95345 
L 238.900381 263.143075 
L 242.446756 263.206283 
L 243.091552 263.269491 
L 243.736347 263.016658 
L 244.058745 262.890242 
L 244.381143 262.890242 
L 245.025938 262.574201 
L 245.348336 262.574201 
L 245.670734 262.068536 
L 245.993132 262.194952 
L 246.637927 261.373246 
L 247.282723 261.310038 
L 247.605121 261.183621 
L 247.927518 261.373246 
L 248.249916 261.120413 
L 248.572314 261.56287 
L 248.894712 261.689287 
L 249.539507 261.436454 
L 249.861905 261.436454 
L 250.184303 260.930789 
L 250.5067 260.741164 
L 250.829098 260.298707 
L 251.473894 260.045874 
L 251.796291 260.235499 
L 252.118689 260.235499 
L 252.441087 260.425123 
L 252.763485 260.109082 
L 253.730678 258.781711 
L 254.053076 258.402462 
L 255.020269 257.960004 
L 255.342667 257.833588 
L 255.665065 258.086421 
L 255.987462 258.655294 
L 256.632258 258.781711 
L 256.954656 258.528878 
L 257.277053 258.46567 
L 257.921849 257.833588 
L 258.889042 257.454339 
L 259.21144 257.07509 
L 259.533838 257.138298 
L 259.856235 257.960004 
L 260.501031 258.023212 
L 260.823429 258.023212 
L 261.145826 257.896796 
L 262.11302 257.201506 
L 262.435418 257.201506 
L 262.757815 256.506216 
L 263.080213 256.632633 
L 263.402611 256.569424 
L 263.725009 257.264714 
L 264.047406 257.201506 
L 264.369804 256.948673 
L 264.692202 256.190175 
L 265.0146 256.316592 
L 265.659395 256.063759 
L 265.981793 254.104306 
L 266.626588 253.219391 
L 267.593782 252.460893 
L 267.916179 252.460893 
L 268.238577 252.20806 
L 268.883373 249.4269 
L 269.205771 249.869358 
L 269.850566 248.036321 
L 270.172964 247.530655 
L 270.495362 249.995774 
L 270.817759 249.237276 
L 271.784953 244.054205 
L 272.10735 245.065536 
L 272.429748 244.496663 
L 272.752146 239.819258 
L 273.074544 239.566425 
L 273.396941 238.807927 
L 273.719339 237.227722 
L 274.041737 236.595641 
L 274.364135 234.383354 
L 274.686532 234.320146 
L 275.00893 233.940897 
L 275.331328 229.705949 
L 275.976123 225.091753 
L 276.298521 224.459671 
L 276.620919 222.437009 
L 276.943317 222.310593 
L 277.265715 219.213392 
L 277.588112 220.730388 
L 277.91051 220.414347 
L 278.232908 222.563425 
L 278.555306 222.75305 
L 278.877703 225.218169 
L 279.200101 226.039875 
L 280.167294 231.096529 
L 280.489692 230.211615 
L 280.81209 231.286154 
L 281.134488 231.791819 
L 281.456885 231.665403 
L 281.779283 233.182399 
L 282.101681 232.171068 
L 282.424079 233.119191 
L 282.746476 234.572979 
L 283.068874 234.88902 
L 283.391272 235.457893 
L 284.036068 235.773934 
L 284.680863 239.250384 
L 285.325659 241.589087 
L 285.970454 242.726834 
L 286.937647 248.099529 
L 287.260045 247.72028 
L 287.582443 249.869358 
L 288.227238 249.869358 
L 288.549636 250.691064 
L 288.872034 250.501439 
L 289.194432 249.869358 
L 289.516829 251.449562 
L 289.839227 249.80615 
L 290.161625 250.311815 
L 290.484023 249.742941 
L 290.806421 250.12219 
L 291.128818 249.237276 
L 291.451216 249.995774 
L 291.773614 248.41557 
L 292.096012 247.783488 
L 292.418409 245.507994 
L 292.740807 245.065536 
L 293.063205 243.801373 
L 293.708 234.699395 
L 294.030398 234.383354 
L 294.352796 233.308815 
L 294.675194 228.125745 
L 294.997591 226.166292 
L 295.319989 218.644519 
L 295.642387 215.736942 
L 295.964785 213.840697 
L 296.287182 203.032099 
L 296.60958 184.63852 
L 296.931978 184.006438 
L 298.543967 136.600306 
L 298.866365 135.272934 
L 299.188762 134.767268 
L 299.51116 140.076755 
L 299.833558 136.347473 
L 300.155956 134.00877 
L 300.478353 129.457782 
L 300.800751 136.09464 
L 301.123149 140.329588 
L 301.445547 138.939008 
L 301.767944 136.853138 
L 302.090342 142.857915 
L 302.41274 141.973001 
L 302.735138 138.8758 
L 303.057535 132.428566 
L 303.379933 132.997439 
L 304.024729 137.674845 
L 304.347126 135.588975 
L 304.669524 140.26638 
L 304.991922 142.478666 
L 305.636718 154.488219 
L 305.959115 155.815591 
L 306.281513 153.603305 
L 306.603911 155.562758 
L 306.926309 154.614636 
L 307.248706 159.228833 
L 308.2159 140.519212 
L 308.538297 140.708837 
L 308.860695 139.381465 
L 309.505491 143.36358 
L 309.827888 151.01177 
L 310.150286 151.643852 
L 310.472684 151.70706 
L 310.795082 147.345696 
L 312.407071 113.150072 
L 312.729468 119.723722 
L 313.051866 121.367135 
L 313.374264 131.290819 
L 314.019059 108.156626 
L 314.341457 109.800039 
L 314.663855 115.235942 
L 314.986253 103.352805 
L 315.30865 103.984886 
L 315.631048 114.414236 
L 315.953446 117.258604 
L 316.275844 109.989663 
L 316.598241 80.28182 
L 317.243037 67.513769 
L 317.565435 70.737386 
L 317.887832 52.723055 
L 318.21023 52.154182 
L 318.532628 63.405237 
L 318.855026 97.411236 
L 319.177423 107.903793 
L 319.499821 124.843585 
L 319.822219 124.780377 
L 320.467015 138.054094 
L 320.789412 148.862692 
L 321.11181 154.930677 
L 321.434208 156.637297 
L 322.079003 163.274156 
L 322.401401 160.303372 
L 322.723799 172.249717 
L 323.046197 177.938453 
L 323.368594 177.432788 
L 323.690992 178.507327 
L 324.01339 177.68562 
L 324.335788 177.622412 
L 324.658185 188.178178 
L 324.980583 187.230055 
L 325.302981 182.995107 
L 325.625379 187.103639 
L 325.947776 189.379133 
L 326.270174 192.855583 
L 326.91497 185.965891 
L 327.237368 188.747051 
L 327.559765 196.205616 
L 327.882163 198.986776 
L 328.204561 203.537764 
L 328.526959 203.664181 
L 328.849356 207.077422 
L 329.171754 208.847251 
L 329.494152 216.305816 
L 329.81655 216.748273 
L 330.461345 213.840697 
L 331.106141 212.892575 
L 331.428538 217.190731 
L 331.750936 213.461448 
L 332.073334 215.231277 
L 332.395732 216.305816 
L 333.362925 221.36247 
L 333.685323 221.804927 
L 334.007721 227.809704 
L 334.652516 235.394685 
L 334.974914 239.187176 
L 335.297312 238.744719 
L 335.619709 240.07209 
L 336.264505 243.295707 
L 336.586903 243.232499 
L 336.9093 245.381577 
L 337.231698 246.076867 
L 337.554096 246.392908 
L 337.876494 246.013659 
L 338.198891 246.392908 
L 338.521289 246.582533 
L 338.843687 247.404239 
L 339.166085 244.875912 
L 340.133278 248.921235 
L 340.778073 239.882466 
L 341.100471 233.372024 
L 341.422869 232.360693 
L 342.067665 232.423901 
L 342.390062 212.134076 
L 342.71246 212.829366 
L 343.034858 208.657627 
L 343.357256 217.759604 
L 343.679653 206.571757 
L 344.324449 206.382132 
L 344.646847 209.479333 
L 344.969244 203.537764 
L 345.291642 200.314147 
L 345.61404 188.43101 
L 345.936438 196.205616 
L 346.258835 196.205616 
L 346.581233 196.332032 
L 346.903631 194.435787 
L 347.226029 189.442341 
L 347.548426 192.097084 
L 347.870824 190.643296 
L 348.193222 186.092308 
L 348.838018 186.092308 
L 349.160415 184.322479 
L 349.482813 189.063092 
L 349.805211 180.593196 
L 350.127609 179.961115 
L 350.450006 184.132854 
L 350.772404 184.196062 
L 351.094802 184.132854 
L 351.4172 182.868691 
L 351.739597 178.886576 
L 352.061995 178.949784 
L 352.384393 178.570535 
L 352.706791 175.915791 
L 353.029188 175.852583 
L 353.351586 175.915791 
L 353.996382 174.90446 
L 354.641177 180.213947 
L 354.963575 181.983776 
L 355.60837 182.046984 
L 355.930768 180.846029 
L 356.253166 184.006438 
L 356.575564 190.832921 
L 357.220359 196.205616 
L 357.865155 196.142408 
L 358.50995 215.673734 
L 358.832348 216.937898 
L 359.477144 223.132299 
L 360.121939 223.195507 
L 360.444337 228.378578 
L 360.766735 227.93612 
L 361.089132 232.80315 
L 361.41153 235.963559 
L 361.733928 237.354139 
L 362.378723 237.354139 
L 362.701121 237.543763 
L 363.023519 240.514548 
L 363.345917 239.882466 
L 363.668315 240.514548 
L 363.990712 240.893797 
L 364.635508 240.893797 
L 364.957906 243.422124 
L 365.280303 244.875912 
L 365.602701 247.277822 
L 365.925099 246.140075 
L 366.247497 246.708949 
L 366.892292 246.708949 
L 367.21469 244.433455 
L 367.537088 240.76738 
L 367.859485 240.893797 
L 368.181883 241.273046 
L 368.504281 240.640964 
L 369.149076 240.640964 
L 369.793872 246.013659 
L 370.11627 244.623079 
L 370.438668 244.875912 
L 370.761065 244.307038 
L 371.405861 244.307038 
L 371.728259 244.559871 
L 372.050656 244.496663 
L 372.373054 245.760826 
L 372.695452 245.255161 
L 373.01785 245.444785 
L 373.662645 245.444785 
L 373.985043 243.232499 
L 374.307441 242.726834 
L 374.952236 238.934343 
L 375.274634 238.112637 
L 375.919429 238.112637 
L 376.241827 234.256938 
L 376.886623 221.804927 
L 377.20902 218.265269 
L 377.531418 213.335032 
L 378.176214 213.271824 
L 378.498612 223.764381 
L 378.821009 218.138853 
L 379.143407 208.215169 
L 379.788203 201.388686 
L 380.432998 201.388686 
L 380.755396 180.213947 
L 381.077794 181.667735 
L 381.400191 187.103639 
L 381.722589 187.925345 
L 382.044987 190.327256 
L 382.367385 190.200839 
L 382.689782 190.200839 
L 383.656976 205.307593 
L 383.979373 209.100084 
L 384.301771 209.605749 
L 384.624169 209.795374 
L 384.946567 209.795374 
L 385.268965 213.082199 
L 385.91376 221.931344 
L 386.236158 222.500217 
L 386.558556 226.103083 
L 386.880953 225.913459 
L 387.203351 225.913459 
L 387.848147 239.692841 
L 388.170544 238.491886 
L 388.81534 245.318369 
L 389.137738 245.507994 
L 389.460135 245.507994 
L 389.782533 246.708949 
L 390.104931 244.054205 
L 390.427329 247.72028 
L 390.749726 249.4269 
L 391.072124 250.058982 
L 391.71692 250.058982 
L 392.039318 251.639187 
L 392.361715 251.702395 
L 392.684113 252.144852 
L 393.006511 252.90335 
L 393.328909 252.713726 
L 393.973704 252.713726 
L 394.296102 253.535432 
L 394.6185 253.535432 
L 394.940897 253.219391 
L 395.263295 253.092975 
L 395.585693 253.219391 
L 396.552886 253.219391 
L 397.197682 253.472224 
L 397.520079 252.650517 
L 397.842477 252.966558 
L 398.487273 252.966558 
L 398.487273 252.966558 
" clip-path="url(#pc9af20566d)" style="fill: none; stroke: #1f77b4; stroke-width: 1.5; stroke-linecap: square"/>
   </g>
   <g id="patch_3">
    <path d="M 57.6 276.48 
L 57.6 41.472 
" style="fill: none; stroke: #000000; stroke-width: 0.8; stroke-linejoin: miter; stroke-linecap: square"/>
   </g>
   <g id="patch_4">
    <path d="M 414.72 276.48 
L 414.72 41.472 
" style="fill: none; stroke: #000000; stroke-width: 0.8; stroke-linejoin: miter; stroke-linecap: square"/>
   </g>
   <g id="patch_5">
    <path d="M 57.6 276.48 
L 414.72 276.48 
" style="fill: none; stroke: #000000; stroke-width: 0.8; stroke-linejoin: miter; stroke-linecap: square"/>
   </g>
   <g id="patch_6">
    <path d="M 57.6 41.472 
L 414.72 41.472 
" style="fill: none; stroke: #000000; stroke-width: 0.8; stroke-linejoin: miter; stroke-linecap: square"/>
   </g>
  </g>
  <g id="text_18">
   <!-- Inzidenzverlauf LK Fürth -->
   <g transform="translate(121.732031 20.589187) scale(0.18 -0.18)">
    <defs>
     <path id="DejaVuSans-76" d="M 191 3500 
L 800 3500 
L 1894 563 
L 2988 3500 
L 3597 3500 
L 2284 0 
L 1503 0 
L 191 3500 
z
" transform="scale(0.015625)"/>
     <path id="DejaVuSans-6c" d="M 603 4863 
L 1178 4863 
L 1178 0 
L 603 0 
L 603 4863 
z
" transform="scale(0.015625)"/>
     <path id="DejaVuSans-75" d="M 544 1381 
L 544 3500 
L 1119 3500 
L 1119 1403 
Q 1119 906 1312 657 
Q 1506 409 1894 409 
Q 2359 409 2629 706 
Q 2900 1003 2900 1516 
L 2900 3500 
L 3475 3500 
L 3475 0 
L 2900 0 
L 2900 538 
Q 2691 219 2414 64 
Q 2138 -91 1772 -91 
Q 1169 -91 856 284 
Q 544 659 544 1381 
z
M 1991 3584 
L 1991 3584 
z
" transform="scale(0.015625)"/>
     <path id="DejaVuSans-66" d="M 2375 4863 
L 2375 4384 
L 1825 4384 
Q 1516 4384 1395 4259 
Q 1275 4134 1275 3809 
L 1275 3500 
L 2222 3500 
L 2222 3053 
L 1275 3053 
L 1275 0 
L 697 0 
L 697 3053 
L 147 3053 
L 147 3500 
L 697 3500 
L 697 3744 
Q 697 4328 969 4595 
Q 1241 4863 1831 4863 
L 2375 4863 
z
" transform="scale(0.015625)"/>
     <path id="DejaVuSans-4c" d="M 628 4666 
L 1259 4666 
L 1259 531 
L 3531 531 
L 3531 0 
L 628 0 
L 628 4666 
z
" transform="scale(0.015625)"/>
     <path id="DejaVuSans-4b" d="M 628 4666 
L 1259 4666 
L 1259 2694 
L 3353 4666 
L 4166 4666 
L 1850 2491 
L 4331 0 
L 3500 0 
L 1259 2247 
L 1259 0 
L 628 0 
L 628 4666 
z
" transform="scale(0.015625)"/>
     <path id="DejaVuSans-46" d="M 628 4666 
L 3309 4666 
L 3309 4134 
L 1259 4134 
L 1259 2759 
L 3109 2759 
L 3109 2228 
L 1259 2228 
L 1259 0 
L 628 0 
L 628 4666 
z
" transform="scale(0.015625)"/>
     <path id="DejaVuSans-fc" d="M 544 1381 
L 544 3500 
L 1119 3500 
L 1119 1403 
Q 1119 906 1312 657 
Q 1506 409 1894 409 
Q 2359 409 2629 706 
Q 2900 1003 2900 1516 
L 2900 3500 
L 3475 3500 
L 3475 0 
L 2900 0 
L 2900 538 
Q 2691 219 2414 64 
Q 2138 -91 1772 -91 
Q 1169 -91 856 284 
Q 544 659 544 1381 
z
M 1991 3584 
L 1991 3584 
z
M 2278 4850 
L 2912 4850 
L 2912 4219 
L 2278 4219 
L 2278 4850 
z
M 1056 4850 
L 1690 4850 
L 1690 4219 
L 1056 4219 
L 1056 4850 
z
" transform="scale(0.015625)"/>
     <path id="DejaVuSans-74" d="M 1172 4494 
L 1172 3500 
L 2356 3500 
L 2356 3053 
L 1172 3053 
L 1172 1153 
Q 1172 725 1289 603 
Q 1406 481 1766 481 
L 2356 481 
L 2356 0 
L 1766 0 
Q 1100 0 847 248 
Q 594 497 594 1153 
L 594 3053 
L 172 3053 
L 172 3500 
L 594 3500 
L 594 4494 
L 1172 4494 
z
" transform="scale(0.015625)"/>
    </defs>
    <use xlink:href="#DejaVuSans-49"/>
    <use xlink:href="#DejaVuSans-6e" x="29.492188"/>
    <use xlink:href="#DejaVuSans-7a" x="92.871094"/>
    <use xlink:href="#DejaVuSans-69" x="145.361328"/>
    <use xlink:href="#DejaVuSans-64" x="173.144531"/>
    <use xlink:href="#DejaVuSans-65" x="236.621094"/>
    <use xlink:href="#DejaVuSans-6e" x="298.144531"/>
    <use xlink:href="#DejaVuSans-7a" x="361.523438"/>
    <use xlink:href="#DejaVuSans-76" x="414.013672"/>
    <use xlink:href="#DejaVuSans-65" x="473.193359"/>
    <use xlink:href="#DejaVuSans-72" x="534.716797"/>
    <use xlink:href="#DejaVuSans-6c" x="575.830078"/>
    <use xlink:href="#DejaVuSans-61" x="603.613281"/>
    <use xlink:href="#DejaVuSans-75" x="664.892578"/>
    <use xlink:href="#DejaVuSans-66" x="728.271484"/>
    <use xlink:href="#DejaVuSans-20" x="763.476562"/>
    <use xlink:href="#DejaVuSans-4c" x="795.263672"/>
    <use xlink:href="#DejaVuSans-4b" x="850.976562"/>
    <use xlink:href="#DejaVuSans-20" x="916.552734"/>
    <use xlink:href="#DejaVuSans-46" x="948.339844"/>
    <use xlink:href="#DejaVuSans-fc" x="1000.359375"/>
    <use xlink:href="#DejaVuSans-72" x="1063.738281"/>
    <use xlink:href="#DejaVuSans-74" x="1104.851562"/>
    <use xlink:href="#DejaVuSans-68" x="1144.060547"/>
   </g>
  </g>
 </g>
 <defs>
  <clipPath id="pc9af20566d">
   <rect x="57.6" y="41.472" width="357.12" height="235.008"/>
  </clipPath>
 </defs>
</svg>
