<?xml version="1.0" encoding="utf-8" standalone="no"?>
<!DOCTYPE svg PUBLIC "-//W3C//DTD SVG 1.1//EN"
  "http://www.w3.org/Graphics/SVG/1.1/DTD/svg11.dtd">
<svg xmlns:xlink="http://www.w3.org/1999/xlink" width="460.8pt" height="345.6pt" viewBox="0 0 460.8 345.6" xmlns="http://www.w3.org/2000/svg" version="1.1">
 <metadata>
  <rdf:RDF xmlns:dc="http://purl.org/dc/elements/1.1/" xmlns:cc="http://creativecommons.org/ns#" xmlns:rdf="http://www.w3.org/1999/02/22-rdf-syntax-ns#">
   <cc:Work>
    <dc:type rdf:resource="http://purl.org/dc/dcmitype/StillImage"/>
    <dc:date>2022-05-20T09:24:16.912078</dc:date>
    <dc:format>image/svg+xml</dc:format>
    <dc:creator>
     <cc:Agent>
      <dc:title>Matplotlib v3.5.2, https://matplotlib.org/</dc:title>
     </cc:Agent>
    </dc:creator>
   </cc:Work>
  </rdf:RDF>
 </metadata>
 <defs>
  <style type="text/css">*{stroke-linejoin: round; stroke-linecap: butt}</style>
 </defs>
 <g id="figure_1">
  <g id="patch_1">
   <path d="M 0 345.6 
L 460.8 345.6 
L 460.8 0 
L 0 0 
z
" style="fill: #ffffff"/>
  </g>
  <g id="axes_1">
   <g id="patch_2">
    <path d="M 57.6 276.48 
L 414.72 276.48 
L 414.72 41.472 
L 57.6 41.472 
z
" style="fill: #ffffff"/>
   </g>
   <g id="matplotlib.axis_1">
    <g id="xtick_1">
     <g id="line2d_1">
      <path d="M 93.236328 276.48 
L 93.236328 41.472 
" clip-path="url(#p7fb1010ee0)" style="fill: none; stroke-dasharray: 2.96,1.28; stroke-dashoffset: 0; stroke: #808080; stroke-width: 0.8"/>
     </g>
     <g id="line2d_2">
      <defs>
       <path id="m95a41fba03" d="M 0 0 
L 0 3.5 
" style="stroke: #000000; stroke-width: 0.8"/>
      </defs>
      <g>
       <use xlink:href="#m95a41fba03" x="93.236328" y="276.48" style="stroke: #000000; stroke-width: 0.8"/>
      </g>
     </g>
     <g id="text_1">
      <!-- 20.04.2020 -->
      <g transform="translate(42.611117 318.688565)rotate(-30)scale(0.1 -0.1)">
       <defs>
        <path id="DejaVuSans-32" d="M 1228 531 
L 3431 531 
L 3431 0 
L 469 0 
L 469 531 
Q 828 903 1448 1529 
Q 2069 2156 2228 2338 
Q 2531 2678 2651 2914 
Q 2772 3150 2772 3378 
Q 2772 3750 2511 3984 
Q 2250 4219 1831 4219 
Q 1534 4219 1204 4116 
Q 875 4013 500 3803 
L 500 4441 
Q 881 4594 1212 4672 
Q 1544 4750 1819 4750 
Q 2544 4750 2975 4387 
Q 3406 4025 3406 3419 
Q 3406 3131 3298 2873 
Q 3191 2616 2906 2266 
Q 2828 2175 2409 1742 
Q 1991 1309 1228 531 
z
" transform="scale(0.015625)"/>
        <path id="DejaVuSans-30" d="M 2034 4250 
Q 1547 4250 1301 3770 
Q 1056 3291 1056 2328 
Q 1056 1369 1301 889 
Q 1547 409 2034 409 
Q 2525 409 2770 889 
Q 3016 1369 3016 2328 
Q 3016 3291 2770 3770 
Q 2525 4250 2034 4250 
z
M 2034 4750 
Q 2819 4750 3233 4129 
Q 3647 3509 3647 2328 
Q 3647 1150 3233 529 
Q 2819 -91 2034 -91 
Q 1250 -91 836 529 
Q 422 1150 422 2328 
Q 422 3509 836 4129 
Q 1250 4750 2034 4750 
z
" transform="scale(0.015625)"/>
        <path id="DejaVuSans-2e" d="M 684 794 
L 1344 794 
L 1344 0 
L 684 0 
L 684 794 
z
" transform="scale(0.015625)"/>
        <path id="DejaVuSans-34" d="M 2419 4116 
L 825 1625 
L 2419 1625 
L 2419 4116 
z
M 2253 4666 
L 3047 4666 
L 3047 1625 
L 3713 1625 
L 3713 1100 
L 3047 1100 
L 3047 0 
L 2419 0 
L 2419 1100 
L 313 1100 
L 313 1709 
L 2253 4666 
z
" transform="scale(0.015625)"/>
       </defs>
       <use xlink:href="#DejaVuSans-32"/>
       <use xlink:href="#DejaVuSans-30" x="63.623047"/>
       <use xlink:href="#DejaVuSans-2e" x="127.246094"/>
       <use xlink:href="#DejaVuSans-30" x="159.033203"/>
       <use xlink:href="#DejaVuSans-34" x="222.65625"/>
       <use xlink:href="#DejaVuSans-2e" x="286.279297"/>
       <use xlink:href="#DejaVuSans-32" x="318.066406"/>
       <use xlink:href="#DejaVuSans-30" x="381.689453"/>
       <use xlink:href="#DejaVuSans-32" x="445.3125"/>
       <use xlink:href="#DejaVuSans-30" x="508.935547"/>
      </g>
     </g>
    </g>
    <g id="xtick_2">
     <g id="line2d_3">
      <path d="M 128.996544 276.48 
L 128.996544 41.472 
" clip-path="url(#p7fb1010ee0)" style="fill: none; stroke-dasharray: 2.96,1.28; stroke-dashoffset: 0; stroke: #808080; stroke-width: 0.8"/>
     </g>
     <g id="line2d_4">
      <g>
       <use xlink:href="#m95a41fba03" x="128.996544" y="276.48" style="stroke: #000000; stroke-width: 0.8"/>
      </g>
     </g>
     <g id="text_2">
      <!-- 18.07.2020 -->
      <g transform="translate(78.371333 318.688565)rotate(-30)scale(0.1 -0.1)">
       <defs>
        <path id="DejaVuSans-31" d="M 794 531 
L 1825 531 
L 1825 4091 
L 703 3866 
L 703 4441 
L 1819 4666 
L 2450 4666 
L 2450 531 
L 3481 531 
L 3481 0 
L 794 0 
L 794 531 
z
" transform="scale(0.015625)"/>
        <path id="DejaVuSans-38" d="M 2034 2216 
Q 1584 2216 1326 1975 
Q 1069 1734 1069 1313 
Q 1069 891 1326 650 
Q 1584 409 2034 409 
Q 2484 409 2743 651 
Q 3003 894 3003 1313 
Q 3003 1734 2745 1975 
Q 2488 2216 2034 2216 
z
M 1403 2484 
Q 997 2584 770 2862 
Q 544 3141 544 3541 
Q 544 4100 942 4425 
Q 1341 4750 2034 4750 
Q 2731 4750 3128 4425 
Q 3525 4100 3525 3541 
Q 3525 3141 3298 2862 
Q 3072 2584 2669 2484 
Q 3125 2378 3379 2068 
Q 3634 1759 3634 1313 
Q 3634 634 3220 271 
Q 2806 -91 2034 -91 
Q 1263 -91 848 271 
Q 434 634 434 1313 
Q 434 1759 690 2068 
Q 947 2378 1403 2484 
z
M 1172 3481 
Q 1172 3119 1398 2916 
Q 1625 2713 2034 2713 
Q 2441 2713 2670 2916 
Q 2900 3119 2900 3481 
Q 2900 3844 2670 4047 
Q 2441 4250 2034 4250 
Q 1625 4250 1398 4047 
Q 1172 3844 1172 3481 
z
" transform="scale(0.015625)"/>
        <path id="DejaVuSans-37" d="M 525 4666 
L 3525 4666 
L 3525 4397 
L 1831 0 
L 1172 0 
L 2766 4134 
L 525 4134 
L 525 4666 
z
" transform="scale(0.015625)"/>
       </defs>
       <use xlink:href="#DejaVuSans-31"/>
       <use xlink:href="#DejaVuSans-38" x="63.623047"/>
       <use xlink:href="#DejaVuSans-2e" x="127.246094"/>
       <use xlink:href="#DejaVuSans-30" x="159.033203"/>
       <use xlink:href="#DejaVuSans-37" x="222.65625"/>
       <use xlink:href="#DejaVuSans-2e" x="286.279297"/>
       <use xlink:href="#DejaVuSans-32" x="318.066406"/>
       <use xlink:href="#DejaVuSans-30" x="381.689453"/>
       <use xlink:href="#DejaVuSans-32" x="445.3125"/>
       <use xlink:href="#DejaVuSans-30" x="508.935547"/>
      </g>
     </g>
    </g>
    <g id="xtick_3">
     <g id="line2d_5">
      <path d="M 164.75676 276.48 
L 164.75676 41.472 
" clip-path="url(#p7fb1010ee0)" style="fill: none; stroke-dasharray: 2.96,1.28; stroke-dashoffset: 0; stroke: #808080; stroke-width: 0.8"/>
     </g>
     <g id="line2d_6">
      <g>
       <use xlink:href="#m95a41fba03" x="164.75676" y="276.48" style="stroke: #000000; stroke-width: 0.8"/>
      </g>
     </g>
     <g id="text_3">
      <!-- 15.10.2020 -->
      <g transform="translate(114.131549 318.688565)rotate(-30)scale(0.1 -0.1)">
       <defs>
        <path id="DejaVuSans-35" d="M 691 4666 
L 3169 4666 
L 3169 4134 
L 1269 4134 
L 1269 2991 
Q 1406 3038 1543 3061 
Q 1681 3084 1819 3084 
Q 2600 3084 3056 2656 
Q 3513 2228 3513 1497 
Q 3513 744 3044 326 
Q 2575 -91 1722 -91 
Q 1428 -91 1123 -41 
Q 819 9 494 109 
L 494 744 
Q 775 591 1075 516 
Q 1375 441 1709 441 
Q 2250 441 2565 725 
Q 2881 1009 2881 1497 
Q 2881 1984 2565 2268 
Q 2250 2553 1709 2553 
Q 1456 2553 1204 2497 
Q 953 2441 691 2322 
L 691 4666 
z
" transform="scale(0.015625)"/>
       </defs>
       <use xlink:href="#DejaVuSans-31"/>
       <use xlink:href="#DejaVuSans-35" x="63.623047"/>
       <use xlink:href="#DejaVuSans-2e" x="127.246094"/>
       <use xlink:href="#DejaVuSans-31" x="159.033203"/>
       <use xlink:href="#DejaVuSans-30" x="222.65625"/>
       <use xlink:href="#DejaVuSans-2e" x="286.279297"/>
       <use xlink:href="#DejaVuSans-32" x="318.066406"/>
       <use xlink:href="#DejaVuSans-30" x="381.689453"/>
       <use xlink:href="#DejaVuSans-32" x="445.3125"/>
       <use xlink:href="#DejaVuSans-30" x="508.935547"/>
      </g>
     </g>
    </g>
    <g id="xtick_4">
     <g id="line2d_7">
      <path d="M 200.516976 276.48 
L 200.516976 41.472 
" clip-path="url(#p7fb1010ee0)" style="fill: none; stroke-dasharray: 2.96,1.28; stroke-dashoffset: 0; stroke: #808080; stroke-width: 0.8"/>
     </g>
     <g id="line2d_8">
      <g>
       <use xlink:href="#m95a41fba03" x="200.516976" y="276.48" style="stroke: #000000; stroke-width: 0.8"/>
      </g>
     </g>
     <g id="text_4">
      <!-- 12.01.2021 -->
      <g transform="translate(149.891765 318.688565)rotate(-30)scale(0.1 -0.1)">
       <use xlink:href="#DejaVuSans-31"/>
       <use xlink:href="#DejaVuSans-32" x="63.623047"/>
       <use xlink:href="#DejaVuSans-2e" x="127.246094"/>
       <use xlink:href="#DejaVuSans-30" x="159.033203"/>
       <use xlink:href="#DejaVuSans-31" x="222.65625"/>
       <use xlink:href="#DejaVuSans-2e" x="286.279297"/>
       <use xlink:href="#DejaVuSans-32" x="318.066406"/>
       <use xlink:href="#DejaVuSans-30" x="381.689453"/>
       <use xlink:href="#DejaVuSans-32" x="445.3125"/>
       <use xlink:href="#DejaVuSans-31" x="508.935547"/>
      </g>
     </g>
    </g>
    <g id="xtick_5">
     <g id="line2d_9">
      <path d="M 236.277192 276.48 
L 236.277192 41.472 
" clip-path="url(#p7fb1010ee0)" style="fill: none; stroke-dasharray: 2.96,1.28; stroke-dashoffset: 0; stroke: #808080; stroke-width: 0.8"/>
     </g>
     <g id="line2d_10">
      <g>
       <use xlink:href="#m95a41fba03" x="236.277192" y="276.48" style="stroke: #000000; stroke-width: 0.8"/>
      </g>
     </g>
     <g id="text_5">
      <!-- 11.04.2021 -->
      <g transform="translate(185.651981 318.688565)rotate(-30)scale(0.1 -0.1)">
       <use xlink:href="#DejaVuSans-31"/>
       <use xlink:href="#DejaVuSans-31" x="63.623047"/>
       <use xlink:href="#DejaVuSans-2e" x="127.246094"/>
       <use xlink:href="#DejaVuSans-30" x="159.033203"/>
       <use xlink:href="#DejaVuSans-34" x="222.65625"/>
       <use xlink:href="#DejaVuSans-2e" x="286.279297"/>
       <use xlink:href="#DejaVuSans-32" x="318.066406"/>
       <use xlink:href="#DejaVuSans-30" x="381.689453"/>
       <use xlink:href="#DejaVuSans-32" x="445.3125"/>
       <use xlink:href="#DejaVuSans-31" x="508.935547"/>
      </g>
     </g>
    </g>
    <g id="xtick_6">
     <g id="line2d_11">
      <path d="M 272.037408 276.48 
L 272.037408 41.472 
" clip-path="url(#p7fb1010ee0)" style="fill: none; stroke-dasharray: 2.96,1.28; stroke-dashoffset: 0; stroke: #808080; stroke-width: 0.8"/>
     </g>
     <g id="line2d_12">
      <g>
       <use xlink:href="#m95a41fba03" x="272.037408" y="276.48" style="stroke: #000000; stroke-width: 0.8"/>
      </g>
     </g>
     <g id="text_6">
      <!-- 09.07.2021 -->
      <g transform="translate(221.412197 318.688565)rotate(-30)scale(0.1 -0.1)">
       <defs>
        <path id="DejaVuSans-39" d="M 703 97 
L 703 672 
Q 941 559 1184 500 
Q 1428 441 1663 441 
Q 2288 441 2617 861 
Q 2947 1281 2994 2138 
Q 2813 1869 2534 1725 
Q 2256 1581 1919 1581 
Q 1219 1581 811 2004 
Q 403 2428 403 3163 
Q 403 3881 828 4315 
Q 1253 4750 1959 4750 
Q 2769 4750 3195 4129 
Q 3622 3509 3622 2328 
Q 3622 1225 3098 567 
Q 2575 -91 1691 -91 
Q 1453 -91 1209 -44 
Q 966 3 703 97 
z
M 1959 2075 
Q 2384 2075 2632 2365 
Q 2881 2656 2881 3163 
Q 2881 3666 2632 3958 
Q 2384 4250 1959 4250 
Q 1534 4250 1286 3958 
Q 1038 3666 1038 3163 
Q 1038 2656 1286 2365 
Q 1534 2075 1959 2075 
z
" transform="scale(0.015625)"/>
       </defs>
       <use xlink:href="#DejaVuSans-30"/>
       <use xlink:href="#DejaVuSans-39" x="63.623047"/>
       <use xlink:href="#DejaVuSans-2e" x="127.246094"/>
       <use xlink:href="#DejaVuSans-30" x="159.033203"/>
       <use xlink:href="#DejaVuSans-37" x="222.65625"/>
       <use xlink:href="#DejaVuSans-2e" x="286.279297"/>
       <use xlink:href="#DejaVuSans-32" x="318.066406"/>
       <use xlink:href="#DejaVuSans-30" x="381.689453"/>
       <use xlink:href="#DejaVuSans-32" x="445.3125"/>
       <use xlink:href="#DejaVuSans-31" x="508.935547"/>
      </g>
     </g>
    </g>
    <g id="xtick_7">
     <g id="line2d_13">
      <path d="M 307.797624 276.48 
L 307.797624 41.472 
" clip-path="url(#p7fb1010ee0)" style="fill: none; stroke-dasharray: 2.96,1.28; stroke-dashoffset: 0; stroke: #808080; stroke-width: 0.8"/>
     </g>
     <g id="line2d_14">
      <g>
       <use xlink:href="#m95a41fba03" x="307.797624" y="276.48" style="stroke: #000000; stroke-width: 0.8"/>
      </g>
     </g>
     <g id="text_7">
      <!-- 06.10.2021 -->
      <g transform="translate(257.172413 318.688565)rotate(-30)scale(0.1 -0.1)">
       <defs>
        <path id="DejaVuSans-36" d="M 2113 2584 
Q 1688 2584 1439 2293 
Q 1191 2003 1191 1497 
Q 1191 994 1439 701 
Q 1688 409 2113 409 
Q 2538 409 2786 701 
Q 3034 994 3034 1497 
Q 3034 2003 2786 2293 
Q 2538 2584 2113 2584 
z
M 3366 4563 
L 3366 3988 
Q 3128 4100 2886 4159 
Q 2644 4219 2406 4219 
Q 1781 4219 1451 3797 
Q 1122 3375 1075 2522 
Q 1259 2794 1537 2939 
Q 1816 3084 2150 3084 
Q 2853 3084 3261 2657 
Q 3669 2231 3669 1497 
Q 3669 778 3244 343 
Q 2819 -91 2113 -91 
Q 1303 -91 875 529 
Q 447 1150 447 2328 
Q 447 3434 972 4092 
Q 1497 4750 2381 4750 
Q 2619 4750 2861 4703 
Q 3103 4656 3366 4563 
z
" transform="scale(0.015625)"/>
       </defs>
       <use xlink:href="#DejaVuSans-30"/>
       <use xlink:href="#DejaVuSans-36" x="63.623047"/>
       <use xlink:href="#DejaVuSans-2e" x="127.246094"/>
       <use xlink:href="#DejaVuSans-31" x="159.033203"/>
       <use xlink:href="#DejaVuSans-30" x="222.65625"/>
       <use xlink:href="#DejaVuSans-2e" x="286.279297"/>
       <use xlink:href="#DejaVuSans-32" x="318.066406"/>
       <use xlink:href="#DejaVuSans-30" x="381.689453"/>
       <use xlink:href="#DejaVuSans-32" x="445.3125"/>
       <use xlink:href="#DejaVuSans-31" x="508.935547"/>
      </g>
     </g>
    </g>
    <g id="xtick_8">
     <g id="line2d_15">
      <path d="M 343.55784 276.48 
L 343.55784 41.472 
" clip-path="url(#p7fb1010ee0)" style="fill: none; stroke-dasharray: 2.96,1.28; stroke-dashoffset: 0; stroke: #808080; stroke-width: 0.8"/>
     </g>
     <g id="line2d_16">
      <g>
       <use xlink:href="#m95a41fba03" x="343.55784" y="276.48" style="stroke: #000000; stroke-width: 0.8"/>
      </g>
     </g>
     <g id="text_8">
      <!-- 03.01.2022 -->
      <g transform="translate(292.932629 318.688565)rotate(-30)scale(0.1 -0.1)">
       <defs>
        <path id="DejaVuSans-33" d="M 2597 2516 
Q 3050 2419 3304 2112 
Q 3559 1806 3559 1356 
Q 3559 666 3084 287 
Q 2609 -91 1734 -91 
Q 1441 -91 1130 -33 
Q 819 25 488 141 
L 488 750 
Q 750 597 1062 519 
Q 1375 441 1716 441 
Q 2309 441 2620 675 
Q 2931 909 2931 1356 
Q 2931 1769 2642 2001 
Q 2353 2234 1838 2234 
L 1294 2234 
L 1294 2753 
L 1863 2753 
Q 2328 2753 2575 2939 
Q 2822 3125 2822 3475 
Q 2822 3834 2567 4026 
Q 2313 4219 1838 4219 
Q 1578 4219 1281 4162 
Q 984 4106 628 3988 
L 628 4550 
Q 988 4650 1302 4700 
Q 1616 4750 1894 4750 
Q 2613 4750 3031 4423 
Q 3450 4097 3450 3541 
Q 3450 3153 3228 2886 
Q 3006 2619 2597 2516 
z
" transform="scale(0.015625)"/>
       </defs>
       <use xlink:href="#DejaVuSans-30"/>
       <use xlink:href="#DejaVuSans-33" x="63.623047"/>
       <use xlink:href="#DejaVuSans-2e" x="127.246094"/>
       <use xlink:href="#DejaVuSans-30" x="159.033203"/>
       <use xlink:href="#DejaVuSans-31" x="222.65625"/>
       <use xlink:href="#DejaVuSans-2e" x="286.279297"/>
       <use xlink:href="#DejaVuSans-32" x="318.066406"/>
       <use xlink:href="#DejaVuSans-30" x="381.689453"/>
       <use xlink:href="#DejaVuSans-32" x="445.3125"/>
       <use xlink:href="#DejaVuSans-32" x="508.935547"/>
      </g>
     </g>
    </g>
    <g id="xtick_9">
     <g id="line2d_17">
      <path d="M 379.318056 276.48 
L 379.318056 41.472 
" clip-path="url(#p7fb1010ee0)" style="fill: none; stroke-dasharray: 2.96,1.28; stroke-dashoffset: 0; stroke: #808080; stroke-width: 0.8"/>
     </g>
     <g id="line2d_18">
      <g>
       <use xlink:href="#m95a41fba03" x="379.318056" y="276.48" style="stroke: #000000; stroke-width: 0.8"/>
      </g>
     </g>
     <g id="text_9">
      <!-- 02.04.2022 -->
      <g transform="translate(328.692845 318.688565)rotate(-30)scale(0.1 -0.1)">
       <use xlink:href="#DejaVuSans-30"/>
       <use xlink:href="#DejaVuSans-32" x="63.623047"/>
       <use xlink:href="#DejaVuSans-2e" x="127.246094"/>
       <use xlink:href="#DejaVuSans-30" x="159.033203"/>
       <use xlink:href="#DejaVuSans-34" x="222.65625"/>
       <use xlink:href="#DejaVuSans-2e" x="286.279297"/>
       <use xlink:href="#DejaVuSans-32" x="318.066406"/>
       <use xlink:href="#DejaVuSans-30" x="381.689453"/>
       <use xlink:href="#DejaVuSans-32" x="445.3125"/>
       <use xlink:href="#DejaVuSans-32" x="508.935547"/>
      </g>
     </g>
    </g>
   </g>
   <g id="matplotlib.axis_2">
    <g id="ytick_1">
     <g id="line2d_19">
      <path d="M 57.6 264.282615 
L 414.72 264.282615 
" clip-path="url(#p7fb1010ee0)" style="fill: none; stroke-dasharray: 2.96,1.28; stroke-dashoffset: 0; stroke: #808080; stroke-width: 0.8"/>
     </g>
     <g id="line2d_20">
      <defs>
       <path id="mead1f58ab0" d="M 0 0 
L -3.5 0 
" style="stroke: #000000; stroke-width: 0.8"/>
      </defs>
      <g>
       <use xlink:href="#mead1f58ab0" x="57.6" y="264.282615" style="stroke: #000000; stroke-width: 0.8"/>
      </g>
     </g>
     <g id="text_10">
      <!-- 0 -->
      <g transform="translate(44.2375 268.081834)scale(0.1 -0.1)">
       <use xlink:href="#DejaVuSans-30"/>
      </g>
     </g>
    </g>
    <g id="ytick_2">
     <g id="line2d_21">
      <path d="M 57.6 236.56996 
L 414.72 236.56996 
" clip-path="url(#p7fb1010ee0)" style="fill: none; stroke-dasharray: 2.96,1.28; stroke-dashoffset: 0; stroke: #808080; stroke-width: 0.8"/>
     </g>
     <g id="line2d_22">
      <g>
       <use xlink:href="#mead1f58ab0" x="57.6" y="236.56996" style="stroke: #000000; stroke-width: 0.8"/>
      </g>
     </g>
     <g id="text_11">
      <!-- 250 -->
      <g transform="translate(31.5125 240.369179)scale(0.1 -0.1)">
       <use xlink:href="#DejaVuSans-32"/>
       <use xlink:href="#DejaVuSans-35" x="63.623047"/>
       <use xlink:href="#DejaVuSans-30" x="127.246094"/>
      </g>
     </g>
    </g>
    <g id="ytick_3">
     <g id="line2d_23">
      <path d="M 57.6 208.857305 
L 414.72 208.857305 
" clip-path="url(#p7fb1010ee0)" style="fill: none; stroke-dasharray: 2.96,1.28; stroke-dashoffset: 0; stroke: #808080; stroke-width: 0.8"/>
     </g>
     <g id="line2d_24">
      <g>
       <use xlink:href="#mead1f58ab0" x="57.6" y="208.857305" style="stroke: #000000; stroke-width: 0.8"/>
      </g>
     </g>
     <g id="text_12">
      <!-- 500 -->
      <g transform="translate(31.5125 212.656524)scale(0.1 -0.1)">
       <use xlink:href="#DejaVuSans-35"/>
       <use xlink:href="#DejaVuSans-30" x="63.623047"/>
       <use xlink:href="#DejaVuSans-30" x="127.246094"/>
      </g>
     </g>
    </g>
    <g id="ytick_4">
     <g id="line2d_25">
      <path d="M 57.6 181.14465 
L 414.72 181.14465 
" clip-path="url(#p7fb1010ee0)" style="fill: none; stroke-dasharray: 2.96,1.28; stroke-dashoffset: 0; stroke: #808080; stroke-width: 0.8"/>
     </g>
     <g id="line2d_26">
      <g>
       <use xlink:href="#mead1f58ab0" x="57.6" y="181.14465" style="stroke: #000000; stroke-width: 0.8"/>
      </g>
     </g>
     <g id="text_13">
      <!-- 750 -->
      <g transform="translate(31.5125 184.943869)scale(0.1 -0.1)">
       <use xlink:href="#DejaVuSans-37"/>
       <use xlink:href="#DejaVuSans-35" x="63.623047"/>
       <use xlink:href="#DejaVuSans-30" x="127.246094"/>
      </g>
     </g>
    </g>
    <g id="ytick_5">
     <g id="line2d_27">
      <path d="M 57.6 153.431995 
L 414.72 153.431995 
" clip-path="url(#p7fb1010ee0)" style="fill: none; stroke-dasharray: 2.96,1.28; stroke-dashoffset: 0; stroke: #808080; stroke-width: 0.8"/>
     </g>
     <g id="line2d_28">
      <g>
       <use xlink:href="#mead1f58ab0" x="57.6" y="153.431995" style="stroke: #000000; stroke-width: 0.8"/>
      </g>
     </g>
     <g id="text_14">
      <!-- 1000 -->
      <g transform="translate(25.15 157.231213)scale(0.1 -0.1)">
       <use xlink:href="#DejaVuSans-31"/>
       <use xlink:href="#DejaVuSans-30" x="63.623047"/>
       <use xlink:href="#DejaVuSans-30" x="127.246094"/>
       <use xlink:href="#DejaVuSans-30" x="190.869141"/>
      </g>
     </g>
    </g>
    <g id="ytick_6">
     <g id="line2d_29">
      <path d="M 57.6 125.71934 
L 414.72 125.71934 
" clip-path="url(#p7fb1010ee0)" style="fill: none; stroke-dasharray: 2.96,1.28; stroke-dashoffset: 0; stroke: #808080; stroke-width: 0.8"/>
     </g>
     <g id="line2d_30">
      <g>
       <use xlink:href="#mead1f58ab0" x="57.6" y="125.71934" style="stroke: #000000; stroke-width: 0.8"/>
      </g>
     </g>
     <g id="text_15">
      <!-- 1250 -->
      <g transform="translate(25.15 129.518558)scale(0.1 -0.1)">
       <use xlink:href="#DejaVuSans-31"/>
       <use xlink:href="#DejaVuSans-32" x="63.623047"/>
       <use xlink:href="#DejaVuSans-35" x="127.246094"/>
       <use xlink:href="#DejaVuSans-30" x="190.869141"/>
      </g>
     </g>
    </g>
    <g id="ytick_7">
     <g id="line2d_31">
      <path d="M 57.6 98.006685 
L 414.72 98.006685 
" clip-path="url(#p7fb1010ee0)" style="fill: none; stroke-dasharray: 2.96,1.28; stroke-dashoffset: 0; stroke: #808080; stroke-width: 0.8"/>
     </g>
     <g id="line2d_32">
      <g>
       <use xlink:href="#mead1f58ab0" x="57.6" y="98.006685" style="stroke: #000000; stroke-width: 0.8"/>
      </g>
     </g>
     <g id="text_16">
      <!-- 1500 -->
      <g transform="translate(25.15 101.805903)scale(0.1 -0.1)">
       <use xlink:href="#DejaVuSans-31"/>
       <use xlink:href="#DejaVuSans-35" x="63.623047"/>
       <use xlink:href="#DejaVuSans-30" x="127.246094"/>
       <use xlink:href="#DejaVuSans-30" x="190.869141"/>
      </g>
     </g>
    </g>
    <g id="ytick_8">
     <g id="line2d_33">
      <path d="M 57.6 70.294029 
L 414.72 70.294029 
" clip-path="url(#p7fb1010ee0)" style="fill: none; stroke-dasharray: 2.96,1.28; stroke-dashoffset: 0; stroke: #808080; stroke-width: 0.8"/>
     </g>
     <g id="line2d_34">
      <g>
       <use xlink:href="#mead1f58ab0" x="57.6" y="70.294029" style="stroke: #000000; stroke-width: 0.8"/>
      </g>
     </g>
     <g id="text_17">
      <!-- 1750 -->
      <g transform="translate(25.15 74.093248)scale(0.1 -0.1)">
       <use xlink:href="#DejaVuSans-31"/>
       <use xlink:href="#DejaVuSans-37" x="63.623047"/>
       <use xlink:href="#DejaVuSans-35" x="127.246094"/>
       <use xlink:href="#DejaVuSans-30" x="190.869141"/>
      </g>
     </g>
    </g>
    <g id="ytick_9">
     <g id="line2d_35">
      <path d="M 57.6 42.581374 
L 414.72 42.581374 
" clip-path="url(#p7fb1010ee0)" style="fill: none; stroke-dasharray: 2.96,1.28; stroke-dashoffset: 0; stroke: #808080; stroke-width: 0.8"/>
     </g>
     <g id="line2d_36">
      <g>
       <use xlink:href="#mead1f58ab0" x="57.6" y="42.581374" style="stroke: #000000; stroke-width: 0.8"/>
      </g>
     </g>
     <g id="text_18">
      <!-- 2000 -->
      <g transform="translate(25.15 46.380593)scale(0.1 -0.1)">
       <use xlink:href="#DejaVuSans-32"/>
       <use xlink:href="#DejaVuSans-30" x="63.623047"/>
       <use xlink:href="#DejaVuSans-30" x="127.246094"/>
       <use xlink:href="#DejaVuSans-30" x="190.869141"/>
      </g>
     </g>
    </g>
    <g id="text_19">
     <!-- Inzidenz pro 7 Tage pro 100.000 Einwohner -->
     <g transform="translate(19.070312 267.301)rotate(-90)scale(0.1 -0.1)">
      <defs>
       <path id="DejaVuSans-49" d="M 628 4666 
L 1259 4666 
L 1259 0 
L 628 0 
L 628 4666 
z
" transform="scale(0.015625)"/>
       <path id="DejaVuSans-6e" d="M 3513 2113 
L 3513 0 
L 2938 0 
L 2938 2094 
Q 2938 2591 2744 2837 
Q 2550 3084 2163 3084 
Q 1697 3084 1428 2787 
Q 1159 2491 1159 1978 
L 1159 0 
L 581 0 
L 581 3500 
L 1159 3500 
L 1159 2956 
Q 1366 3272 1645 3428 
Q 1925 3584 2291 3584 
Q 2894 3584 3203 3211 
Q 3513 2838 3513 2113 
z
" transform="scale(0.015625)"/>
       <path id="DejaVuSans-7a" d="M 353 3500 
L 3084 3500 
L 3084 2975 
L 922 459 
L 3084 459 
L 3084 0 
L 275 0 
L 275 525 
L 2438 3041 
L 353 3041 
L 353 3500 
z
" transform="scale(0.015625)"/>
       <path id="DejaVuSans-69" d="M 603 3500 
L 1178 3500 
L 1178 0 
L 603 0 
L 603 3500 
z
M 603 4863 
L 1178 4863 
L 1178 4134 
L 603 4134 
L 603 4863 
z
" transform="scale(0.015625)"/>
       <path id="DejaVuSans-64" d="M 2906 2969 
L 2906 4863 
L 3481 4863 
L 3481 0 
L 2906 0 
L 2906 525 
Q 2725 213 2448 61 
Q 2172 -91 1784 -91 
Q 1150 -91 751 415 
Q 353 922 353 1747 
Q 353 2572 751 3078 
Q 1150 3584 1784 3584 
Q 2172 3584 2448 3432 
Q 2725 3281 2906 2969 
z
M 947 1747 
Q 947 1113 1208 752 
Q 1469 391 1925 391 
Q 2381 391 2643 752 
Q 2906 1113 2906 1747 
Q 2906 2381 2643 2742 
Q 2381 3103 1925 3103 
Q 1469 3103 1208 2742 
Q 947 2381 947 1747 
z
" transform="scale(0.015625)"/>
       <path id="DejaVuSans-65" d="M 3597 1894 
L 3597 1613 
L 953 1613 
Q 991 1019 1311 708 
Q 1631 397 2203 397 
Q 2534 397 2845 478 
Q 3156 559 3463 722 
L 3463 178 
Q 3153 47 2828 -22 
Q 2503 -91 2169 -91 
Q 1331 -91 842 396 
Q 353 884 353 1716 
Q 353 2575 817 3079 
Q 1281 3584 2069 3584 
Q 2775 3584 3186 3129 
Q 3597 2675 3597 1894 
z
M 3022 2063 
Q 3016 2534 2758 2815 
Q 2500 3097 2075 3097 
Q 1594 3097 1305 2825 
Q 1016 2553 972 2059 
L 3022 2063 
z
" transform="scale(0.015625)"/>
       <path id="DejaVuSans-20" transform="scale(0.015625)"/>
       <path id="DejaVuSans-70" d="M 1159 525 
L 1159 -1331 
L 581 -1331 
L 581 3500 
L 1159 3500 
L 1159 2969 
Q 1341 3281 1617 3432 
Q 1894 3584 2278 3584 
Q 2916 3584 3314 3078 
Q 3713 2572 3713 1747 
Q 3713 922 3314 415 
Q 2916 -91 2278 -91 
Q 1894 -91 1617 61 
Q 1341 213 1159 525 
z
M 3116 1747 
Q 3116 2381 2855 2742 
Q 2594 3103 2138 3103 
Q 1681 3103 1420 2742 
Q 1159 2381 1159 1747 
Q 1159 1113 1420 752 
Q 1681 391 2138 391 
Q 2594 391 2855 752 
Q 3116 1113 3116 1747 
z
" transform="scale(0.015625)"/>
       <path id="DejaVuSans-72" d="M 2631 2963 
Q 2534 3019 2420 3045 
Q 2306 3072 2169 3072 
Q 1681 3072 1420 2755 
Q 1159 2438 1159 1844 
L 1159 0 
L 581 0 
L 581 3500 
L 1159 3500 
L 1159 2956 
Q 1341 3275 1631 3429 
Q 1922 3584 2338 3584 
Q 2397 3584 2469 3576 
Q 2541 3569 2628 3553 
L 2631 2963 
z
" transform="scale(0.015625)"/>
       <path id="DejaVuSans-6f" d="M 1959 3097 
Q 1497 3097 1228 2736 
Q 959 2375 959 1747 
Q 959 1119 1226 758 
Q 1494 397 1959 397 
Q 2419 397 2687 759 
Q 2956 1122 2956 1747 
Q 2956 2369 2687 2733 
Q 2419 3097 1959 3097 
z
M 1959 3584 
Q 2709 3584 3137 3096 
Q 3566 2609 3566 1747 
Q 3566 888 3137 398 
Q 2709 -91 1959 -91 
Q 1206 -91 779 398 
Q 353 888 353 1747 
Q 353 2609 779 3096 
Q 1206 3584 1959 3584 
z
" transform="scale(0.015625)"/>
       <path id="DejaVuSans-54" d="M -19 4666 
L 3928 4666 
L 3928 4134 
L 2272 4134 
L 2272 0 
L 1638 0 
L 1638 4134 
L -19 4134 
L -19 4666 
z
" transform="scale(0.015625)"/>
       <path id="DejaVuSans-61" d="M 2194 1759 
Q 1497 1759 1228 1600 
Q 959 1441 959 1056 
Q 959 750 1161 570 
Q 1363 391 1709 391 
Q 2188 391 2477 730 
Q 2766 1069 2766 1631 
L 2766 1759 
L 2194 1759 
z
M 3341 1997 
L 3341 0 
L 2766 0 
L 2766 531 
Q 2569 213 2275 61 
Q 1981 -91 1556 -91 
Q 1019 -91 701 211 
Q 384 513 384 1019 
Q 384 1609 779 1909 
Q 1175 2209 1959 2209 
L 2766 2209 
L 2766 2266 
Q 2766 2663 2505 2880 
Q 2244 3097 1772 3097 
Q 1472 3097 1187 3025 
Q 903 2953 641 2809 
L 641 3341 
Q 956 3463 1253 3523 
Q 1550 3584 1831 3584 
Q 2591 3584 2966 3190 
Q 3341 2797 3341 1997 
z
" transform="scale(0.015625)"/>
       <path id="DejaVuSans-67" d="M 2906 1791 
Q 2906 2416 2648 2759 
Q 2391 3103 1925 3103 
Q 1463 3103 1205 2759 
Q 947 2416 947 1791 
Q 947 1169 1205 825 
Q 1463 481 1925 481 
Q 2391 481 2648 825 
Q 2906 1169 2906 1791 
z
M 3481 434 
Q 3481 -459 3084 -895 
Q 2688 -1331 1869 -1331 
Q 1566 -1331 1297 -1286 
Q 1028 -1241 775 -1147 
L 775 -588 
Q 1028 -725 1275 -790 
Q 1522 -856 1778 -856 
Q 2344 -856 2625 -561 
Q 2906 -266 2906 331 
L 2906 616 
Q 2728 306 2450 153 
Q 2172 0 1784 0 
Q 1141 0 747 490 
Q 353 981 353 1791 
Q 353 2603 747 3093 
Q 1141 3584 1784 3584 
Q 2172 3584 2450 3431 
Q 2728 3278 2906 2969 
L 2906 3500 
L 3481 3500 
L 3481 434 
z
" transform="scale(0.015625)"/>
       <path id="DejaVuSans-45" d="M 628 4666 
L 3578 4666 
L 3578 4134 
L 1259 4134 
L 1259 2753 
L 3481 2753 
L 3481 2222 
L 1259 2222 
L 1259 531 
L 3634 531 
L 3634 0 
L 628 0 
L 628 4666 
z
" transform="scale(0.015625)"/>
       <path id="DejaVuSans-77" d="M 269 3500 
L 844 3500 
L 1563 769 
L 2278 3500 
L 2956 3500 
L 3675 769 
L 4391 3500 
L 4966 3500 
L 4050 0 
L 3372 0 
L 2619 2869 
L 1863 0 
L 1184 0 
L 269 3500 
z
" transform="scale(0.015625)"/>
       <path id="DejaVuSans-68" d="M 3513 2113 
L 3513 0 
L 2938 0 
L 2938 2094 
Q 2938 2591 2744 2837 
Q 2550 3084 2163 3084 
Q 1697 3084 1428 2787 
Q 1159 2491 1159 1978 
L 1159 0 
L 581 0 
L 581 4863 
L 1159 4863 
L 1159 2956 
Q 1366 3272 1645 3428 
Q 1925 3584 2291 3584 
Q 2894 3584 3203 3211 
Q 3513 2838 3513 2113 
z
" transform="scale(0.015625)"/>
      </defs>
      <use xlink:href="#DejaVuSans-49"/>
      <use xlink:href="#DejaVuSans-6e" x="29.492188"/>
      <use xlink:href="#DejaVuSans-7a" x="92.871094"/>
      <use xlink:href="#DejaVuSans-69" x="145.361328"/>
      <use xlink:href="#DejaVuSans-64" x="173.144531"/>
      <use xlink:href="#DejaVuSans-65" x="236.621094"/>
      <use xlink:href="#DejaVuSans-6e" x="298.144531"/>
      <use xlink:href="#DejaVuSans-7a" x="361.523438"/>
      <use xlink:href="#DejaVuSans-20" x="414.013672"/>
      <use xlink:href="#DejaVuSans-70" x="445.800781"/>
      <use xlink:href="#DejaVuSans-72" x="509.277344"/>
      <use xlink:href="#DejaVuSans-6f" x="548.140625"/>
      <use xlink:href="#DejaVuSans-20" x="609.322266"/>
      <use xlink:href="#DejaVuSans-37" x="641.109375"/>
      <use xlink:href="#DejaVuSans-20" x="704.732422"/>
      <use xlink:href="#DejaVuSans-54" x="736.519531"/>
      <use xlink:href="#DejaVuSans-61" x="781.103516"/>
      <use xlink:href="#DejaVuSans-67" x="842.382812"/>
      <use xlink:href="#DejaVuSans-65" x="905.859375"/>
      <use xlink:href="#DejaVuSans-20" x="967.382812"/>
      <use xlink:href="#DejaVuSans-70" x="999.169922"/>
      <use xlink:href="#DejaVuSans-72" x="1062.646484"/>
      <use xlink:href="#DejaVuSans-6f" x="1101.509766"/>
      <use xlink:href="#DejaVuSans-20" x="1162.691406"/>
      <use xlink:href="#DejaVuSans-31" x="1194.478516"/>
      <use xlink:href="#DejaVuSans-30" x="1258.101562"/>
      <use xlink:href="#DejaVuSans-30" x="1321.724609"/>
      <use xlink:href="#DejaVuSans-2e" x="1385.347656"/>
      <use xlink:href="#DejaVuSans-30" x="1417.134766"/>
      <use xlink:href="#DejaVuSans-30" x="1480.757812"/>
      <use xlink:href="#DejaVuSans-30" x="1544.380859"/>
      <use xlink:href="#DejaVuSans-20" x="1608.003906"/>
      <use xlink:href="#DejaVuSans-45" x="1639.791016"/>
      <use xlink:href="#DejaVuSans-69" x="1702.974609"/>
      <use xlink:href="#DejaVuSans-6e" x="1730.757812"/>
      <use xlink:href="#DejaVuSans-77" x="1794.136719"/>
      <use xlink:href="#DejaVuSans-6f" x="1875.923828"/>
      <use xlink:href="#DejaVuSans-68" x="1937.105469"/>
      <use xlink:href="#DejaVuSans-6e" x="2000.484375"/>
      <use xlink:href="#DejaVuSans-65" x="2063.863281"/>
      <use xlink:href="#DejaVuSans-72" x="2125.386719"/>
     </g>
    </g>
   </g>
   <g id="line2d_37">
    <path d="M 73.832727 264.200712 
L 75.439928 264.159761 
L 76.243528 264.077858 
L 76.645329 264.159761 
L 77.448929 264.077858 
L 77.850729 264.118809 
L 78.654329 263.914052 
L 79.05613 263.914052 
L 79.45793 263.750246 
L 79.85973 263.463586 
L 80.26153 262.726461 
L 80.66333 262.357898 
L 81.868731 262.316946 
L 82.672331 261.989335 
L 83.475932 262.439801 
L 83.877732 262.071238 
L 84.279532 261.86648 
L 84.681332 261.825529 
L 85.083132 261.948383 
L 85.886733 262.357898 
L 86.288533 262.071238 
L 87.493933 262.357898 
L 87.895734 262.521703 
L 88.297534 262.562655 
L 89.101134 263.176926 
L 89.502934 263.545489 
L 91.511935 263.873101 
L 91.913735 263.914052 
L 92.315536 263.750246 
L 93.520936 263.791198 
L 93.922736 263.504538 
L 94.324536 263.381684 
L 94.726337 263.422635 
L 95.128137 263.586441 
L 96.333537 263.627392 
L 96.735338 263.914052 
L 97.538938 263.873101 
L 97.940738 263.709295 
L 98.744338 263.791198 
L 99.547939 263.873101 
L 101.15514 263.955004 
L 103.565941 264.036906 
L 104.369541 264.118809 
L 107.583942 264.200712 
L 107.985743 263.995955 
L 109.592943 264.077858 
L 110.396544 264.077858 
L 110.798344 264.282615 
L 121.646949 264.200712 
L 123.65595 263.832149 
L 124.86135 263.914052 
L 125.26315 263.955004 
L 125.66495 264.118809 
L 127.673951 264.241664 
L 129.682952 264.118809 
L 130.888353 264.036906 
L 131.691953 263.955004 
L 134.102754 264.159761 
L 136.915356 263.668344 
L 137.718956 263.627392 
L 138.120756 263.709295 
L 138.522556 263.668344 
L 138.924356 263.381684 
L 139.727957 263.340732 
L 140.531557 263.545489 
L 140.933357 263.586441 
L 141.335158 263.463586 
L 141.736958 263.586441 
L 142.138758 263.258829 
L 142.540558 263.176926 
L 142.942358 262.890266 
L 144.549559 262.972169 
L 144.951359 263.422635 
L 145.754959 263.504538 
L 146.55856 263.381684 
L 147.36216 263.627392 
L 147.76396 263.586441 
L 148.165761 263.381684 
L 148.969361 263.381684 
L 150.174761 263.135975 
L 150.576562 262.726461 
L 150.978362 262.726461 
L 151.380162 262.890266 
L 151.781962 262.808363 
L 152.585563 262.972169 
L 152.987363 262.931218 
L 153.790963 263.545489 
L 154.192763 263.299781 
L 154.594563 263.422635 
L 154.996364 263.299781 
L 155.398164 263.299781 
L 155.799964 263.463586 
L 156.603564 263.504538 
L 157.005365 263.709295 
L 157.407165 263.627392 
L 157.808965 263.750246 
L 158.210765 263.422635 
L 158.612565 263.381684 
L 159.817966 262.890266 
L 160.219766 262.398849 
L 160.621566 262.275995 
L 161.023366 262.562655 
L 161.425167 262.316946 
L 161.826967 261.907432 
L 162.228767 261.784578 
L 162.630567 261.29316 
L 163.032367 261.743626 
L 163.434167 261.743626 
L 163.835968 261.620772 
L 164.639568 261.702675 
L 165.041368 259.85986 
L 165.443168 259.5732 
L 166.246769 258.262754 
L 166.648569 258.017046 
L 167.050369 256.829454 
L 167.452169 256.051377 
L 167.853969 256.338037 
L 168.25577 254.536174 
L 168.65757 253.389533 
L 169.05937 252.73431 
L 169.86297 249.908661 
L 170.26477 249.00773 
L 171.068371 248.680118 
L 171.470171 247.205867 
L 171.871971 247.00111 
L 172.273771 246.550644 
L 173.479172 242.701209 
L 173.880972 242.16884 
L 174.282772 243.274529 
L 174.684572 241.964083 
L 175.086373 239.834608 
L 175.488173 239.384143 
L 175.889973 240.653637 
L 176.291773 240.244123 
L 176.693573 241.841229 
L 177.095374 241.186006 
L 177.497174 242.987869 
L 177.898974 246.632547 
L 178.300774 247.615381 
L 179.104374 246.141129 
L 179.506175 244.994489 
L 179.907975 244.871635 
L 180.309775 244.298315 
L 180.711575 243.520238 
L 181.113375 244.216412 
L 181.515176 243.356432 
L 181.916976 244.257363 
L 182.318776 244.421169 
L 182.720576 247.369672 
L 183.122376 246.509692 
L 183.524176 246.468741 
L 183.925977 248.106798 
L 184.327777 248.598215 
L 184.729577 248.229653 
L 185.131377 249.00773 
L 185.533177 246.018275 
L 185.934977 247.328721 
L 186.336778 247.820138 
L 186.738578 244.707829 
L 187.140378 243.438335 
L 187.542178 240.489831 
L 188.345779 236.763251 
L 188.747579 235.780416 
L 189.149379 235.329951 
L 189.551179 237.86894 
L 189.952979 234.101407 
L 190.354779 234.715679 
L 190.75658 235.575659 
L 191.15838 238.483211 
L 191.56018 234.224262 
L 191.96198 234.347116 
L 192.36378 233.60999 
L 192.765581 235.166145 
L 193.167381 237.254668 
L 193.569181 238.401308 
L 193.970981 236.476591 
L 194.372781 240.817443 
L 194.774581 239.670803 
L 195.176382 240.285074 
L 195.578182 240.366977 
L 196.381782 231.971933 
L 196.783582 234.633776 
L 197.587183 236.353736 
L 197.988983 233.89665 
L 198.390783 233.569039 
L 198.792583 235.575659 
L 199.194383 239.056531 
L 199.596184 236.763251 
L 199.997984 237.746085 
L 200.399784 239.138434 
L 200.801584 239.916511 
L 201.203384 242.865015 
L 201.605185 244.748781 
L 202.006985 245.485906 
L 202.408785 247.369672 
L 202.810585 247.410624 
L 203.212385 247.779187 
L 204.417786 252.406699 
L 204.819586 253.430485 
L 205.221386 253.717145 
L 206.024986 253.758096 
L 206.426787 253.594291 
L 206.828587 254.863785 
L 207.230387 255.232348 
L 207.632187 255.846619 
L 208.033987 255.600911 
L 208.435788 255.682814 
L 208.837588 255.559959 
L 209.239388 255.969474 
L 209.641188 255.314251 
L 210.042988 255.600911 
L 210.444788 255.396154 
L 210.846589 255.641862 
L 211.248389 255.641862 
L 211.650189 255.928522 
L 212.051989 256.41994 
L 212.453789 257.935143 
L 212.85559 257.976094 
L 213.65919 259.655103 
L 214.06099 259.5732 
L 214.46279 259.655103 
L 214.86459 259.941763 
L 215.266391 259.450346 
L 216.069991 259.28654 
L 216.471791 258.631317 
L 216.873591 258.71322 
L 217.677192 258.262754 
L 218.078992 258.631317 
L 218.480792 259.532249 
L 218.882592 258.917977 
L 219.284392 258.99988 
L 219.686193 258.098948 
L 220.087993 257.689434 
L 220.489793 257.689434 
L 220.891593 257.075163 
L 221.293393 255.805668 
L 222.096994 255.191397 
L 222.498794 256.051377 
L 223.302394 256.99326 
L 223.704194 255.559959 
L 224.105995 255.887571 
L 224.507795 255.150445 
L 224.909595 253.307631 
L 225.311395 253.02097 
L 225.713195 252.980019 
L 226.516796 250.604836 
L 226.918596 249.662953 
L 227.320396 247.942993 
L 227.722196 245.117344 
L 228.123996 245.363052 
L 228.525797 243.438335 
L 228.927597 239.425094 
L 229.731197 235.166145 
L 230.132997 235.370902 
L 230.534797 241.267909 
L 230.936598 236.927057 
L 231.338398 235.985174 
L 231.740198 237.827988 
L 232.141998 240.489831 
L 232.543798 238.360357 
L 232.945599 241.59552 
L 233.347399 241.59552 
L 233.749199 245.936372 
L 234.150999 244.666878 
L 234.552799 247.902041 
L 234.954599 246.059227 
L 235.3564 248.884876 
L 235.7582 243.479286 
L 236.16 242.209792 
L 236.5618 242.086937 
L 236.9636 240.326026 
L 237.365401 237.459425 
L 238.169001 238.196551 
L 238.570801 240.940297 
L 238.972601 240.121268 
L 239.374401 240.326026 
L 239.776202 242.537403 
L 240.178002 240.73554 
L 240.579802 242.209792 
L 240.981602 241.554569 
L 241.383402 238.237502 
L 241.785203 236.763251 
L 242.187003 236.763251 
L 242.588803 238.72892 
L 242.990603 238.114648 
L 243.392403 238.892725 
L 243.794203 239.01558 
L 244.196004 241.964083 
L 244.597804 243.929752 
L 244.999604 243.8888 
L 245.401404 244.175461 
L 245.803204 247.533478 
L 246.205005 246.427789 
L 246.606805 248.843924 
L 247.008605 250.031516 
L 247.410405 250.400079 
L 247.812205 250.359127 
L 248.214005 251.30101 
L 248.615806 250.072467 
L 249.017606 251.382913 
L 249.419406 252.038136 
L 249.821206 253.102873 
L 250.624806 253.348582 
L 251.026607 252.73431 
L 251.428407 262.603606 
L 252.232007 264.282615 
L 253.035608 265.142595 
L 253.437408 264.937838 
L 253.839208 265.797818 
L 254.241008 259.327491 
L 254.642808 259.777957 
L 255.044608 259.655103 
L 255.446409 259.409394 
L 255.848209 259.900812 
L 257.45541 260.515083 
L 257.85721 260.924597 
L 258.25901 261.784578 
L 259.06261 262.194092 
L 259.46441 262.112189 
L 259.866211 261.211257 
L 260.268011 261.538869 
L 260.669811 261.211257 
L 261.875212 261.170306 
L 262.277012 258.057997 
L 262.678812 259.245589 
L 263.482412 259.777957 
L 263.884212 259.532249 
L 264.687813 259.5732 
L 265.089613 262.931218 
L 265.491413 263.054072 
L 265.893213 262.931218 
L 266.696814 263.463586 
L 267.098614 263.217878 
L 267.500414 263.217878 
L 268.705815 263.750246 
L 269.107615 263.709295 
L 269.911215 264.036906 
L 270.714815 263.995955 
L 271.116616 263.709295 
L 271.920216 263.627392 
L 272.322016 263.422635 
L 273.527417 263.340732 
L 273.929217 263.504538 
L 274.331017 263.217878 
L 274.732817 263.217878 
L 275.536418 263.504538 
L 276.340018 263.463586 
L 276.741818 260.474132 
L 277.143618 260.678889 
L 277.545419 260.637937 
L 277.947219 260.392229 
L 278.349019 259.982714 
L 279.152619 259.85986 
L 279.554419 262.275995 
L 279.95622 261.86648 
L 280.75982 261.497918 
L 281.16162 261.989335 
L 281.56342 262.112189 
L 281.965221 262.071238 
L 282.768821 262.644558 
L 284.376022 262.235043 
L 284.777822 261.86648 
L 285.179622 261.86648 
L 286.385023 259.982714 
L 287.590423 259.900812 
L 287.992223 259.163686 
L 288.394023 259.245589 
L 288.795824 259.85986 
L 289.197624 259.491297 
L 289.599424 258.549414 
L 290.403024 258.590366 
L 290.804824 258.262754 
L 291.206625 257.771337 
L 291.608425 256.870405 
L 292.010225 257.484677 
L 292.412025 256.99326 
L 292.813825 256.911357 
L 293.215626 256.051377 
L 293.617426 254.822834 
L 294.019226 254.536174 
L 294.421026 253.676193 
L 294.822826 253.471436 
L 295.224626 253.717145 
L 295.626427 253.799048 
L 296.430027 254.945688 
L 296.831827 254.740931 
L 297.233627 254.781882 
L 297.635428 254.331416 
L 298.037228 254.126659 
L 298.439028 254.126659 
L 298.840828 253.921902 
L 299.644428 254.167611 
L 300.849829 256.870405 
L 301.251629 256.870405 
L 301.653429 256.624697 
L 302.05523 256.829454 
L 302.45703 257.689434 
L 302.85883 257.935143 
L 303.26063 257.894191 
L 303.66243 258.1399 
L 304.06423 258.1399 
L 304.466031 258.71322 
L 304.867831 259.532249 
L 305.269631 259.327491 
L 305.671431 259.491297 
L 306.876832 259.450346 
L 307.278632 259.491297 
L 307.680432 259.204637 
L 308.082232 259.450346 
L 308.484032 259.941763 
L 308.885833 259.655103 
L 310.091233 259.818909 
L 310.894833 260.228423 
L 311.296634 259.941763 
L 311.698434 260.310326 
L 312.100234 259.655103 
L 312.502034 259.696054 
L 312.903834 259.532249 
L 313.305635 258.303706 
L 313.707435 257.689434 
L 314.109235 256.747551 
L 314.511035 255.519008 
L 314.912835 255.150445 
L 315.314635 255.027591 
L 315.716436 254.044756 
L 316.118236 254.331416 
L 316.520036 252.529553 
L 316.921836 252.201942 
L 317.323636 252.242893 
L 317.725437 250.891496 
L 318.127237 250.891496 
L 318.529037 251.505767 
L 318.930837 249.990564 
L 319.332637 250.359127 
L 319.734437 250.031516 
L 320.136238 249.048681 
L 320.538038 249.826759 
L 320.939838 249.826759 
L 321.341638 249.458196 
L 321.743438 250.318176 
L 322.145239 250.686739 
L 322.547039 250.236273 
L 322.948839 250.604836 
L 323.350639 250.113419 
L 324.154239 249.908661 
L 325.35964 247.697284 
L 325.76144 247.57443 
L 326.16324 248.14775 
L 326.565041 248.311555 
L 326.966841 248.270604 
L 327.770441 243.929752 
L 328.172241 245.567809 
L 328.574041 245.322101 
L 328.975842 242.865015 
L 329.377642 242.127889 
L 329.779442 239.957463 
L 330.181242 241.349811 
L 330.583042 240.899346 
L 331.386643 238.851774 
L 331.788443 239.916511 
L 332.190243 239.834608 
L 332.592043 242.414549 
L 332.993843 242.824063 
L 333.395644 244.298315 
L 333.797444 245.076392 
L 334.199244 245.199246 
L 335.002844 246.755401 
L 335.404644 246.714449 
L 335.806445 246.304935 
L 336.208245 247.164915 
L 336.610045 245.322101 
L 337.011845 246.714449 
L 337.815446 245.813518 
L 338.217246 244.789732 
L 338.619046 244.912586 
L 339.020846 244.912586 
L 339.422646 246.345887 
L 339.824446 246.263984 
L 340.226247 248.229653 
L 340.628047 248.884876 
L 341.029847 248.925827 
L 341.431647 248.475361 
L 342.637048 246.059227 
L 343.440648 246.018275 
L 343.842448 246.304935 
L 344.244248 245.404004 
L 344.646049 243.847849 
L 345.047849 243.110723 
L 346.253249 234.75663 
L 346.65505 230.006264 
L 347.45865 217.024659 
L 347.86045 210.718138 
L 348.26225 207.974392 
L 348.66405 209.858158 
L 349.065851 207.196315 
L 349.467651 203.674491 
L 349.869451 201.749774 
L 350.271251 190.078615 
L 350.673051 169.39814 
L 351.074851 161.166902 
L 351.476652 159.283136 
L 351.878452 150.56048 
L 352.280252 138.684564 
L 352.682052 130.371423 
L 353.083852 116.816498 
L 353.485653 110.30522 
L 353.887453 100.354021 
L 354.289253 102.237787 
L 354.691053 114.60512 
L 355.092853 96.422683 
L 355.494653 84.219155 
L 355.896454 88.232396 
L 356.298254 84.05535 
L 356.700054 81.721118 
L 357.101854 81.147798 
L 357.503654 73.858442 
L 357.905455 61.2454 
L 358.307255 59.975906 
L 358.709055 53.996996 
L 359.110855 62.473943 
L 359.512655 65.299592 
L 359.914455 60.999692 
L 360.316256 65.422447 
L 360.718056 90.853288 
L 361.119856 96.136023 
L 361.521656 96.381732 
L 361.923456 108.544308 
L 362.325257 113.294674 
L 362.727057 119.846904 
L 363.128857 120.624981 
L 363.932457 137.742681 
L 364.334257 160.102164 
L 364.736058 150.110014 
L 365.137858 150.314771 
L 365.539658 134.0161 
L 365.941458 133.647537 
L 366.343258 137.906487 
L 366.745059 140.158816 
L 367.146859 129.511443 
L 367.548659 141.264504 
L 367.950459 143.312076 
L 368.352259 143.762542 
L 368.754059 141.674019 
L 369.15586 147.571025 
L 369.55766 146.014871 
L 369.95946 143.557785 
L 370.36126 136.800798 
L 370.76306 137.98839 
L 371.16486 140.977844 
L 371.566661 133.606586 
L 371.968461 115.17844 
L 372.370261 105.309144 
L 372.772061 101.869224 
L 373.173861 100.476875 
L 373.575662 95.808412 
L 373.977462 97.610275 
L 374.379262 97.733129 
L 374.781062 98.101692 
L 375.182862 99.289283 
L 375.986463 100.231167 
L 376.388263 95.112237 
L 376.790063 91.631365 
L 377.191863 85.283893 
L 377.593663 83.645835 
L 377.995464 77.871683 
L 378.397264 62.965361 
L 378.799064 52.645599 
L 379.200864 52.154182 
L 380.004464 59.23878 
L 380.406265 63.497729 
L 380.808065 64.685321 
L 381.611665 96.299829 
L 382.013465 101.705418 
L 382.415266 92.286588 
L 382.817066 96.422683 
L 383.218866 98.838818 
L 384.022466 107.274813 
L 384.424266 104.244407 
L 384.826067 103.548233 
L 385.227867 111.820423 
L 385.629667 108.544308 
L 386.031467 114.973683 
L 386.433267 131.886626 
L 386.835068 130.86284 
L 387.236868 127.996239 
L 387.638668 130.371423 
L 388.040468 125.498202 
L 388.442268 135.039886 
L 388.844068 134.384663 
L 389.245869 132.623752 
L 390.451269 157.276515 
L 390.853069 161.617368 
L 391.254869 163.623988 
L 391.65667 168.128646 
L 392.05847 165.139191 
L 392.86207 177.342719 
L 393.26387 178.898873 
L 393.665671 186.392986 
L 394.067471 181.478814 
L 394.469271 179.185533 
L 394.871071 182.093085 
L 395.272871 183.772094 
L 395.674671 184.836831 
L 396.076472 188.358655 
L 396.478272 190.692886 
L 396.880072 192.208089 
L 397.683672 205.599209 
L 398.085473 209.407692 
L 398.487273 214.731379 
L 398.487273 214.731379 
" clip-path="url(#p7fb1010ee0)" style="fill: none; stroke: #1f77b4; stroke-width: 1.5; stroke-linecap: square"/>
   </g>
   <g id="patch_3">
    <path d="M 57.6 276.48 
L 57.6 41.472 
" style="fill: none; stroke: #000000; stroke-width: 0.8; stroke-linejoin: miter; stroke-linecap: square"/>
   </g>
   <g id="patch_4">
    <path d="M 414.72 276.48 
L 414.72 41.472 
" style="fill: none; stroke: #000000; stroke-width: 0.8; stroke-linejoin: miter; stroke-linecap: square"/>
   </g>
   <g id="patch_5">
    <path d="M 57.6 276.48 
L 414.72 276.48 
" style="fill: none; stroke: #000000; stroke-width: 0.8; stroke-linejoin: miter; stroke-linecap: square"/>
   </g>
   <g id="patch_6">
    <path d="M 57.6 41.472 
L 414.72 41.472 
" style="fill: none; stroke: #000000; stroke-width: 0.8; stroke-linejoin: miter; stroke-linecap: square"/>
   </g>
  </g>
  <g id="text_20">
   <!-- Inzidenzverlauf LK Gießen -->
   <g transform="translate(113.127188 20.589187)scale(0.18 -0.18)">
    <defs>
     <path id="DejaVuSans-76" d="M 191 3500 
L 800 3500 
L 1894 563 
L 2988 3500 
L 3597 3500 
L 2284 0 
L 1503 0 
L 191 3500 
z
" transform="scale(0.015625)"/>
     <path id="DejaVuSans-6c" d="M 603 4863 
L 1178 4863 
L 1178 0 
L 603 0 
L 603 4863 
z
" transform="scale(0.015625)"/>
     <path id="DejaVuSans-75" d="M 544 1381 
L 544 3500 
L 1119 3500 
L 1119 1403 
Q 1119 906 1312 657 
Q 1506 409 1894 409 
Q 2359 409 2629 706 
Q 2900 1003 2900 1516 
L 2900 3500 
L 3475 3500 
L 3475 0 
L 2900 0 
L 2900 538 
Q 2691 219 2414 64 
Q 2138 -91 1772 -91 
Q 1169 -91 856 284 
Q 544 659 544 1381 
z
M 1991 3584 
L 1991 3584 
z
" transform="scale(0.015625)"/>
     <path id="DejaVuSans-66" d="M 2375 4863 
L 2375 4384 
L 1825 4384 
Q 1516 4384 1395 4259 
Q 1275 4134 1275 3809 
L 1275 3500 
L 2222 3500 
L 2222 3053 
L 1275 3053 
L 1275 0 
L 697 0 
L 697 3053 
L 147 3053 
L 147 3500 
L 697 3500 
L 697 3744 
Q 697 4328 969 4595 
Q 1241 4863 1831 4863 
L 2375 4863 
z
" transform="scale(0.015625)"/>
     <path id="DejaVuSans-4c" d="M 628 4666 
L 1259 4666 
L 1259 531 
L 3531 531 
L 3531 0 
L 628 0 
L 628 4666 
z
" transform="scale(0.015625)"/>
     <path id="DejaVuSans-4b" d="M 628 4666 
L 1259 4666 
L 1259 2694 
L 3353 4666 
L 4166 4666 
L 1850 2491 
L 4331 0 
L 3500 0 
L 1259 2247 
L 1259 0 
L 628 0 
L 628 4666 
z
" transform="scale(0.015625)"/>
     <path id="DejaVuSans-47" d="M 3809 666 
L 3809 1919 
L 2778 1919 
L 2778 2438 
L 4434 2438 
L 4434 434 
Q 4069 175 3628 42 
Q 3188 -91 2688 -91 
Q 1594 -91 976 548 
Q 359 1188 359 2328 
Q 359 3472 976 4111 
Q 1594 4750 2688 4750 
Q 3144 4750 3555 4637 
Q 3966 4525 4313 4306 
L 4313 3634 
Q 3963 3931 3569 4081 
Q 3175 4231 2741 4231 
Q 1884 4231 1454 3753 
Q 1025 3275 1025 2328 
Q 1025 1384 1454 906 
Q 1884 428 2741 428 
Q 3075 428 3337 486 
Q 3600 544 3809 666 
z
" transform="scale(0.015625)"/>
     <path id="DejaVuSans-df" d="M 581 3553 
Q 581 4178 954 4520 
Q 1328 4863 2009 4863 
Q 2659 4863 3001 4500 
Q 3344 4138 3353 3438 
Q 2881 3413 2618 3233 
Q 2356 3053 2356 2753 
Q 2356 2606 2447 2479 
Q 2538 2353 2741 2222 
L 2919 2106 
Q 3438 1775 3588 1553 
Q 3738 1331 3738 1019 
Q 3738 481 3386 195 
Q 3034 -91 2375 -91 
Q 2175 -91 1962 -52 
Q 1750 -13 1522 63 
L 1522 575 
Q 1772 481 1990 436 
Q 2209 391 2413 391 
Q 2775 391 2962 539 
Q 3150 688 3150 972 
Q 3150 1169 3058 1300 
Q 2966 1431 2650 1625 
L 2363 1797 
Q 2063 1981 1927 2192 
Q 1791 2403 1791 2688 
Q 1791 3084 2052 3353 
Q 2313 3622 2784 3713 
Q 2759 4034 2554 4209 
Q 2350 4384 1997 4384 
Q 1591 4384 1378 4167 
Q 1166 3950 1166 3541 
L 1166 0 
L 581 0 
L 581 3553 
z
" transform="scale(0.015625)"/>
    </defs>
    <use xlink:href="#DejaVuSans-49"/>
    <use xlink:href="#DejaVuSans-6e" x="29.492188"/>
    <use xlink:href="#DejaVuSans-7a" x="92.871094"/>
    <use xlink:href="#DejaVuSans-69" x="145.361328"/>
    <use xlink:href="#DejaVuSans-64" x="173.144531"/>
    <use xlink:href="#DejaVuSans-65" x="236.621094"/>
    <use xlink:href="#DejaVuSans-6e" x="298.144531"/>
    <use xlink:href="#DejaVuSans-7a" x="361.523438"/>
    <use xlink:href="#DejaVuSans-76" x="414.013672"/>
    <use xlink:href="#DejaVuSans-65" x="473.193359"/>
    <use xlink:href="#DejaVuSans-72" x="534.716797"/>
    <use xlink:href="#DejaVuSans-6c" x="575.830078"/>
    <use xlink:href="#DejaVuSans-61" x="603.613281"/>
    <use xlink:href="#DejaVuSans-75" x="664.892578"/>
    <use xlink:href="#DejaVuSans-66" x="728.271484"/>
    <use xlink:href="#DejaVuSans-20" x="763.476562"/>
    <use xlink:href="#DejaVuSans-4c" x="795.263672"/>
    <use xlink:href="#DejaVuSans-4b" x="850.976562"/>
    <use xlink:href="#DejaVuSans-20" x="916.552734"/>
    <use xlink:href="#DejaVuSans-47" x="948.339844"/>
    <use xlink:href="#DejaVuSans-69" x="1025.830078"/>
    <use xlink:href="#DejaVuSans-65" x="1053.613281"/>
    <use xlink:href="#DejaVuSans-df" x="1115.136719"/>
    <use xlink:href="#DejaVuSans-65" x="1178.125"/>
    <use xlink:href="#DejaVuSans-6e" x="1239.648438"/>
   </g>
  </g>
 </g>
 <defs>
  <clipPath id="p7fb1010ee0">
   <rect x="57.6" y="41.472" width="357.12" height="235.008"/>
  </clipPath>
 </defs>
</svg>
