<?xml version="1.0" encoding="utf-8" standalone="no"?>
<!DOCTYPE svg PUBLIC "-//W3C//DTD SVG 1.1//EN"
  "http://www.w3.org/Graphics/SVG/1.1/DTD/svg11.dtd">
<svg xmlns:xlink="http://www.w3.org/1999/xlink" width="460.8pt" height="345.6pt" viewBox="0 0 460.8 345.6" xmlns="http://www.w3.org/2000/svg" version="1.1">
 <metadata>
  <rdf:RDF xmlns:dc="http://purl.org/dc/elements/1.1/" xmlns:cc="http://creativecommons.org/ns#" xmlns:rdf="http://www.w3.org/1999/02/22-rdf-syntax-ns#">
   <cc:Work>
    <dc:type rdf:resource="http://purl.org/dc/dcmitype/StillImage"/>
    <dc:date>2022-12-29T09:17:29.673084</dc:date>
    <dc:format>image/svg+xml</dc:format>
    <dc:creator>
     <cc:Agent>
      <dc:title>Matplotlib v3.6.2, https://matplotlib.org/</dc:title>
     </cc:Agent>
    </dc:creator>
   </cc:Work>
  </rdf:RDF>
 </metadata>
 <defs>
  <style type="text/css">*{stroke-linejoin: round; stroke-linecap: butt}</style>
 </defs>
 <g id="figure_1">
  <g id="patch_1">
   <path d="M 0 345.6 
L 460.8 345.6 
L 460.8 0 
L 0 0 
z
" style="fill: #ffffff"/>
  </g>
  <g id="axes_1">
   <g id="patch_2">
    <path d="M 57.6 276.48 
L 414.72 276.48 
L 414.72 41.472 
L 57.6 41.472 
z
" style="fill: #ffffff"/>
   </g>
   <g id="matplotlib.axis_1">
    <g id="xtick_1">
     <g id="line2d_1">
      <path d="M 59.754392 276.48 
L 59.754392 41.472 
" clip-path="url(#p23bcce70be)" style="fill: none; stroke-dasharray: 2.96,1.28; stroke-dashoffset: 0; stroke: #808080; stroke-width: 0.8"/>
     </g>
     <g id="line2d_2">
      <defs>
       <path id="m76bb4579b4" d="M 0 0 
L 0 3.5 
" style="stroke: #000000; stroke-width: 0.8"/>
      </defs>
      <g>
       <use xlink:href="#m76bb4579b4" x="59.754392" y="276.48" style="stroke: #000000; stroke-width: 0.8"/>
      </g>
     </g>
     <g id="text_1">
      <!-- 18.01.2020 -->
      <g transform="translate(9.129181 318.688565) rotate(-30) scale(0.1 -0.1)">
       <defs>
        <path id="DejaVuSans-31" d="M 794 531 
L 1825 531 
L 1825 4091 
L 703 3866 
L 703 4441 
L 1819 4666 
L 2450 4666 
L 2450 531 
L 3481 531 
L 3481 0 
L 794 0 
L 794 531 
z
" transform="scale(0.015625)"/>
        <path id="DejaVuSans-38" d="M 2034 2216 
Q 1584 2216 1326 1975 
Q 1069 1734 1069 1313 
Q 1069 891 1326 650 
Q 1584 409 2034 409 
Q 2484 409 2743 651 
Q 3003 894 3003 1313 
Q 3003 1734 2745 1975 
Q 2488 2216 2034 2216 
z
M 1403 2484 
Q 997 2584 770 2862 
Q 544 3141 544 3541 
Q 544 4100 942 4425 
Q 1341 4750 2034 4750 
Q 2731 4750 3128 4425 
Q 3525 4100 3525 3541 
Q 3525 3141 3298 2862 
Q 3072 2584 2669 2484 
Q 3125 2378 3379 2068 
Q 3634 1759 3634 1313 
Q 3634 634 3220 271 
Q 2806 -91 2034 -91 
Q 1263 -91 848 271 
Q 434 634 434 1313 
Q 434 1759 690 2068 
Q 947 2378 1403 2484 
z
M 1172 3481 
Q 1172 3119 1398 2916 
Q 1625 2713 2034 2713 
Q 2441 2713 2670 2916 
Q 2900 3119 2900 3481 
Q 2900 3844 2670 4047 
Q 2441 4250 2034 4250 
Q 1625 4250 1398 4047 
Q 1172 3844 1172 3481 
z
" transform="scale(0.015625)"/>
        <path id="DejaVuSans-2e" d="M 684 794 
L 1344 794 
L 1344 0 
L 684 0 
L 684 794 
z
" transform="scale(0.015625)"/>
        <path id="DejaVuSans-30" d="M 2034 4250 
Q 1547 4250 1301 3770 
Q 1056 3291 1056 2328 
Q 1056 1369 1301 889 
Q 1547 409 2034 409 
Q 2525 409 2770 889 
Q 3016 1369 3016 2328 
Q 3016 3291 2770 3770 
Q 2525 4250 2034 4250 
z
M 2034 4750 
Q 2819 4750 3233 4129 
Q 3647 3509 3647 2328 
Q 3647 1150 3233 529 
Q 2819 -91 2034 -91 
Q 1250 -91 836 529 
Q 422 1150 422 2328 
Q 422 3509 836 4129 
Q 1250 4750 2034 4750 
z
" transform="scale(0.015625)"/>
        <path id="DejaVuSans-32" d="M 1228 531 
L 3431 531 
L 3431 0 
L 469 0 
L 469 531 
Q 828 903 1448 1529 
Q 2069 2156 2228 2338 
Q 2531 2678 2651 2914 
Q 2772 3150 2772 3378 
Q 2772 3750 2511 3984 
Q 2250 4219 1831 4219 
Q 1534 4219 1204 4116 
Q 875 4013 500 3803 
L 500 4441 
Q 881 4594 1212 4672 
Q 1544 4750 1819 4750 
Q 2544 4750 2975 4387 
Q 3406 4025 3406 3419 
Q 3406 3131 3298 2873 
Q 3191 2616 2906 2266 
Q 2828 2175 2409 1742 
Q 1991 1309 1228 531 
z
" transform="scale(0.015625)"/>
       </defs>
       <use xlink:href="#DejaVuSans-31"/>
       <use xlink:href="#DejaVuSans-38" x="63.623047"/>
       <use xlink:href="#DejaVuSans-2e" x="127.246094"/>
       <use xlink:href="#DejaVuSans-30" x="159.033203"/>
       <use xlink:href="#DejaVuSans-31" x="222.65625"/>
       <use xlink:href="#DejaVuSans-2e" x="286.279297"/>
       <use xlink:href="#DejaVuSans-32" x="318.066406"/>
       <use xlink:href="#DejaVuSans-30" x="381.689453"/>
       <use xlink:href="#DejaVuSans-32" x="445.3125"/>
       <use xlink:href="#DejaVuSans-30" x="508.935547"/>
      </g>
     </g>
    </g>
    <g id="xtick_2">
     <g id="line2d_3">
      <path d="M 95.652179 276.48 
L 95.652179 41.472 
" clip-path="url(#p23bcce70be)" style="fill: none; stroke-dasharray: 2.96,1.28; stroke-dashoffset: 0; stroke: #808080; stroke-width: 0.8"/>
     </g>
     <g id="line2d_4">
      <g>
       <use xlink:href="#m76bb4579b4" x="95.652179" y="276.48" style="stroke: #000000; stroke-width: 0.8"/>
      </g>
     </g>
     <g id="text_2">
      <!-- 11.05.2020 -->
      <g transform="translate(45.026968 318.688565) rotate(-30) scale(0.1 -0.1)">
       <defs>
        <path id="DejaVuSans-35" d="M 691 4666 
L 3169 4666 
L 3169 4134 
L 1269 4134 
L 1269 2991 
Q 1406 3038 1543 3061 
Q 1681 3084 1819 3084 
Q 2600 3084 3056 2656 
Q 3513 2228 3513 1497 
Q 3513 744 3044 326 
Q 2575 -91 1722 -91 
Q 1428 -91 1123 -41 
Q 819 9 494 109 
L 494 744 
Q 775 591 1075 516 
Q 1375 441 1709 441 
Q 2250 441 2565 725 
Q 2881 1009 2881 1497 
Q 2881 1984 2565 2268 
Q 2250 2553 1709 2553 
Q 1456 2553 1204 2497 
Q 953 2441 691 2322 
L 691 4666 
z
" transform="scale(0.015625)"/>
       </defs>
       <use xlink:href="#DejaVuSans-31"/>
       <use xlink:href="#DejaVuSans-31" x="63.623047"/>
       <use xlink:href="#DejaVuSans-2e" x="127.246094"/>
       <use xlink:href="#DejaVuSans-30" x="159.033203"/>
       <use xlink:href="#DejaVuSans-35" x="222.65625"/>
       <use xlink:href="#DejaVuSans-2e" x="286.279297"/>
       <use xlink:href="#DejaVuSans-32" x="318.066406"/>
       <use xlink:href="#DejaVuSans-30" x="381.689453"/>
       <use xlink:href="#DejaVuSans-32" x="445.3125"/>
       <use xlink:href="#DejaVuSans-30" x="508.935547"/>
      </g>
     </g>
    </g>
    <g id="xtick_3">
     <g id="line2d_5">
      <path d="M 131.549966 276.48 
L 131.549966 41.472 
" clip-path="url(#p23bcce70be)" style="fill: none; stroke-dasharray: 2.96,1.28; stroke-dashoffset: 0; stroke: #808080; stroke-width: 0.8"/>
     </g>
     <g id="line2d_6">
      <g>
       <use xlink:href="#m76bb4579b4" x="131.549966" y="276.48" style="stroke: #000000; stroke-width: 0.8"/>
      </g>
     </g>
     <g id="text_3">
      <!-- 02.09.2020 -->
      <g transform="translate(80.924755 318.688565) rotate(-30) scale(0.1 -0.1)">
       <defs>
        <path id="DejaVuSans-39" d="M 703 97 
L 703 672 
Q 941 559 1184 500 
Q 1428 441 1663 441 
Q 2288 441 2617 861 
Q 2947 1281 2994 2138 
Q 2813 1869 2534 1725 
Q 2256 1581 1919 1581 
Q 1219 1581 811 2004 
Q 403 2428 403 3163 
Q 403 3881 828 4315 
Q 1253 4750 1959 4750 
Q 2769 4750 3195 4129 
Q 3622 3509 3622 2328 
Q 3622 1225 3098 567 
Q 2575 -91 1691 -91 
Q 1453 -91 1209 -44 
Q 966 3 703 97 
z
M 1959 2075 
Q 2384 2075 2632 2365 
Q 2881 2656 2881 3163 
Q 2881 3666 2632 3958 
Q 2384 4250 1959 4250 
Q 1534 4250 1286 3958 
Q 1038 3666 1038 3163 
Q 1038 2656 1286 2365 
Q 1534 2075 1959 2075 
z
" transform="scale(0.015625)"/>
       </defs>
       <use xlink:href="#DejaVuSans-30"/>
       <use xlink:href="#DejaVuSans-32" x="63.623047"/>
       <use xlink:href="#DejaVuSans-2e" x="127.246094"/>
       <use xlink:href="#DejaVuSans-30" x="159.033203"/>
       <use xlink:href="#DejaVuSans-39" x="222.65625"/>
       <use xlink:href="#DejaVuSans-2e" x="286.279297"/>
       <use xlink:href="#DejaVuSans-32" x="318.066406"/>
       <use xlink:href="#DejaVuSans-30" x="381.689453"/>
       <use xlink:href="#DejaVuSans-32" x="445.3125"/>
       <use xlink:href="#DejaVuSans-30" x="508.935547"/>
      </g>
     </g>
    </g>
    <g id="xtick_4">
     <g id="line2d_7">
      <path d="M 167.447752 276.48 
L 167.447752 41.472 
" clip-path="url(#p23bcce70be)" style="fill: none; stroke-dasharray: 2.96,1.28; stroke-dashoffset: 0; stroke: #808080; stroke-width: 0.8"/>
     </g>
     <g id="line2d_8">
      <g>
       <use xlink:href="#m76bb4579b4" x="167.447752" y="276.48" style="stroke: #000000; stroke-width: 0.8"/>
      </g>
     </g>
     <g id="text_4">
      <!-- 25.12.2020 -->
      <g transform="translate(116.822542 318.688565) rotate(-30) scale(0.1 -0.1)">
       <use xlink:href="#DejaVuSans-32"/>
       <use xlink:href="#DejaVuSans-35" x="63.623047"/>
       <use xlink:href="#DejaVuSans-2e" x="127.246094"/>
       <use xlink:href="#DejaVuSans-31" x="159.033203"/>
       <use xlink:href="#DejaVuSans-32" x="222.65625"/>
       <use xlink:href="#DejaVuSans-2e" x="286.279297"/>
       <use xlink:href="#DejaVuSans-32" x="318.066406"/>
       <use xlink:href="#DejaVuSans-30" x="381.689453"/>
       <use xlink:href="#DejaVuSans-32" x="445.3125"/>
       <use xlink:href="#DejaVuSans-30" x="508.935547"/>
      </g>
     </g>
    </g>
    <g id="xtick_5">
     <g id="line2d_9">
      <path d="M 203.345539 276.48 
L 203.345539 41.472 
" clip-path="url(#p23bcce70be)" style="fill: none; stroke-dasharray: 2.96,1.28; stroke-dashoffset: 0; stroke: #808080; stroke-width: 0.8"/>
     </g>
     <g id="line2d_10">
      <g>
       <use xlink:href="#m76bb4579b4" x="203.345539" y="276.48" style="stroke: #000000; stroke-width: 0.8"/>
      </g>
     </g>
     <g id="text_5">
      <!-- 18.04.2021 -->
      <g transform="translate(152.720328 318.688565) rotate(-30) scale(0.1 -0.1)">
       <defs>
        <path id="DejaVuSans-34" d="M 2419 4116 
L 825 1625 
L 2419 1625 
L 2419 4116 
z
M 2253 4666 
L 3047 4666 
L 3047 1625 
L 3713 1625 
L 3713 1100 
L 3047 1100 
L 3047 0 
L 2419 0 
L 2419 1100 
L 313 1100 
L 313 1709 
L 2253 4666 
z
" transform="scale(0.015625)"/>
       </defs>
       <use xlink:href="#DejaVuSans-31"/>
       <use xlink:href="#DejaVuSans-38" x="63.623047"/>
       <use xlink:href="#DejaVuSans-2e" x="127.246094"/>
       <use xlink:href="#DejaVuSans-30" x="159.033203"/>
       <use xlink:href="#DejaVuSans-34" x="222.65625"/>
       <use xlink:href="#DejaVuSans-2e" x="286.279297"/>
       <use xlink:href="#DejaVuSans-32" x="318.066406"/>
       <use xlink:href="#DejaVuSans-30" x="381.689453"/>
       <use xlink:href="#DejaVuSans-32" x="445.3125"/>
       <use xlink:href="#DejaVuSans-31" x="508.935547"/>
      </g>
     </g>
    </g>
    <g id="xtick_6">
     <g id="line2d_11">
      <path d="M 239.243326 276.48 
L 239.243326 41.472 
" clip-path="url(#p23bcce70be)" style="fill: none; stroke-dasharray: 2.96,1.28; stroke-dashoffset: 0; stroke: #808080; stroke-width: 0.8"/>
     </g>
     <g id="line2d_12">
      <g>
       <use xlink:href="#m76bb4579b4" x="239.243326" y="276.48" style="stroke: #000000; stroke-width: 0.8"/>
      </g>
     </g>
     <g id="text_6">
      <!-- 10.08.2021 -->
      <g transform="translate(188.618115 318.688565) rotate(-30) scale(0.1 -0.1)">
       <use xlink:href="#DejaVuSans-31"/>
       <use xlink:href="#DejaVuSans-30" x="63.623047"/>
       <use xlink:href="#DejaVuSans-2e" x="127.246094"/>
       <use xlink:href="#DejaVuSans-30" x="159.033203"/>
       <use xlink:href="#DejaVuSans-38" x="222.65625"/>
       <use xlink:href="#DejaVuSans-2e" x="286.279297"/>
       <use xlink:href="#DejaVuSans-32" x="318.066406"/>
       <use xlink:href="#DejaVuSans-30" x="381.689453"/>
       <use xlink:href="#DejaVuSans-32" x="445.3125"/>
       <use xlink:href="#DejaVuSans-31" x="508.935547"/>
      </g>
     </g>
    </g>
    <g id="xtick_7">
     <g id="line2d_13">
      <path d="M 275.141113 276.48 
L 275.141113 41.472 
" clip-path="url(#p23bcce70be)" style="fill: none; stroke-dasharray: 2.96,1.28; stroke-dashoffset: 0; stroke: #808080; stroke-width: 0.8"/>
     </g>
     <g id="line2d_14">
      <g>
       <use xlink:href="#m76bb4579b4" x="275.141113" y="276.48" style="stroke: #000000; stroke-width: 0.8"/>
      </g>
     </g>
     <g id="text_7">
      <!-- 02.12.2021 -->
      <g transform="translate(224.515902 318.688565) rotate(-30) scale(0.1 -0.1)">
       <use xlink:href="#DejaVuSans-30"/>
       <use xlink:href="#DejaVuSans-32" x="63.623047"/>
       <use xlink:href="#DejaVuSans-2e" x="127.246094"/>
       <use xlink:href="#DejaVuSans-31" x="159.033203"/>
       <use xlink:href="#DejaVuSans-32" x="222.65625"/>
       <use xlink:href="#DejaVuSans-2e" x="286.279297"/>
       <use xlink:href="#DejaVuSans-32" x="318.066406"/>
       <use xlink:href="#DejaVuSans-30" x="381.689453"/>
       <use xlink:href="#DejaVuSans-32" x="445.3125"/>
       <use xlink:href="#DejaVuSans-31" x="508.935547"/>
      </g>
     </g>
    </g>
    <g id="xtick_8">
     <g id="line2d_15">
      <path d="M 311.0389 276.48 
L 311.0389 41.472 
" clip-path="url(#p23bcce70be)" style="fill: none; stroke-dasharray: 2.96,1.28; stroke-dashoffset: 0; stroke: #808080; stroke-width: 0.8"/>
     </g>
     <g id="line2d_16">
      <g>
       <use xlink:href="#m76bb4579b4" x="311.0389" y="276.48" style="stroke: #000000; stroke-width: 0.8"/>
      </g>
     </g>
     <g id="text_8">
      <!-- 26.03.2022 -->
      <g transform="translate(260.413689 318.688565) rotate(-30) scale(0.1 -0.1)">
       <defs>
        <path id="DejaVuSans-36" d="M 2113 2584 
Q 1688 2584 1439 2293 
Q 1191 2003 1191 1497 
Q 1191 994 1439 701 
Q 1688 409 2113 409 
Q 2538 409 2786 701 
Q 3034 994 3034 1497 
Q 3034 2003 2786 2293 
Q 2538 2584 2113 2584 
z
M 3366 4563 
L 3366 3988 
Q 3128 4100 2886 4159 
Q 2644 4219 2406 4219 
Q 1781 4219 1451 3797 
Q 1122 3375 1075 2522 
Q 1259 2794 1537 2939 
Q 1816 3084 2150 3084 
Q 2853 3084 3261 2657 
Q 3669 2231 3669 1497 
Q 3669 778 3244 343 
Q 2819 -91 2113 -91 
Q 1303 -91 875 529 
Q 447 1150 447 2328 
Q 447 3434 972 4092 
Q 1497 4750 2381 4750 
Q 2619 4750 2861 4703 
Q 3103 4656 3366 4563 
z
" transform="scale(0.015625)"/>
        <path id="DejaVuSans-33" d="M 2597 2516 
Q 3050 2419 3304 2112 
Q 3559 1806 3559 1356 
Q 3559 666 3084 287 
Q 2609 -91 1734 -91 
Q 1441 -91 1130 -33 
Q 819 25 488 141 
L 488 750 
Q 750 597 1062 519 
Q 1375 441 1716 441 
Q 2309 441 2620 675 
Q 2931 909 2931 1356 
Q 2931 1769 2642 2001 
Q 2353 2234 1838 2234 
L 1294 2234 
L 1294 2753 
L 1863 2753 
Q 2328 2753 2575 2939 
Q 2822 3125 2822 3475 
Q 2822 3834 2567 4026 
Q 2313 4219 1838 4219 
Q 1578 4219 1281 4162 
Q 984 4106 628 3988 
L 628 4550 
Q 988 4650 1302 4700 
Q 1616 4750 1894 4750 
Q 2613 4750 3031 4423 
Q 3450 4097 3450 3541 
Q 3450 3153 3228 2886 
Q 3006 2619 2597 2516 
z
" transform="scale(0.015625)"/>
       </defs>
       <use xlink:href="#DejaVuSans-32"/>
       <use xlink:href="#DejaVuSans-36" x="63.623047"/>
       <use xlink:href="#DejaVuSans-2e" x="127.246094"/>
       <use xlink:href="#DejaVuSans-30" x="159.033203"/>
       <use xlink:href="#DejaVuSans-33" x="222.65625"/>
       <use xlink:href="#DejaVuSans-2e" x="286.279297"/>
       <use xlink:href="#DejaVuSans-32" x="318.066406"/>
       <use xlink:href="#DejaVuSans-30" x="381.689453"/>
       <use xlink:href="#DejaVuSans-32" x="445.3125"/>
       <use xlink:href="#DejaVuSans-32" x="508.935547"/>
      </g>
     </g>
    </g>
    <g id="xtick_9">
     <g id="line2d_17">
      <path d="M 346.936686 276.48 
L 346.936686 41.472 
" clip-path="url(#p23bcce70be)" style="fill: none; stroke-dasharray: 2.96,1.28; stroke-dashoffset: 0; stroke: #808080; stroke-width: 0.8"/>
     </g>
     <g id="line2d_18">
      <g>
       <use xlink:href="#m76bb4579b4" x="346.936686" y="276.48" style="stroke: #000000; stroke-width: 0.8"/>
      </g>
     </g>
     <g id="text_9">
      <!-- 18.07.2022 -->
      <g transform="translate(296.311476 318.688565) rotate(-30) scale(0.1 -0.1)">
       <defs>
        <path id="DejaVuSans-37" d="M 525 4666 
L 3525 4666 
L 3525 4397 
L 1831 0 
L 1172 0 
L 2766 4134 
L 525 4134 
L 525 4666 
z
" transform="scale(0.015625)"/>
       </defs>
       <use xlink:href="#DejaVuSans-31"/>
       <use xlink:href="#DejaVuSans-38" x="63.623047"/>
       <use xlink:href="#DejaVuSans-2e" x="127.246094"/>
       <use xlink:href="#DejaVuSans-30" x="159.033203"/>
       <use xlink:href="#DejaVuSans-37" x="222.65625"/>
       <use xlink:href="#DejaVuSans-2e" x="286.279297"/>
       <use xlink:href="#DejaVuSans-32" x="318.066406"/>
       <use xlink:href="#DejaVuSans-30" x="381.689453"/>
       <use xlink:href="#DejaVuSans-32" x="445.3125"/>
       <use xlink:href="#DejaVuSans-32" x="508.935547"/>
      </g>
     </g>
    </g>
    <g id="xtick_10">
     <g id="line2d_19">
      <path d="M 382.834473 276.48 
L 382.834473 41.472 
" clip-path="url(#p23bcce70be)" style="fill: none; stroke-dasharray: 2.96,1.28; stroke-dashoffset: 0; stroke: #808080; stroke-width: 0.8"/>
     </g>
     <g id="line2d_20">
      <g>
       <use xlink:href="#m76bb4579b4" x="382.834473" y="276.48" style="stroke: #000000; stroke-width: 0.8"/>
      </g>
     </g>
     <g id="text_10">
      <!-- 09.11.2022 -->
      <g transform="translate(332.209262 318.688565) rotate(-30) scale(0.1 -0.1)">
       <use xlink:href="#DejaVuSans-30"/>
       <use xlink:href="#DejaVuSans-39" x="63.623047"/>
       <use xlink:href="#DejaVuSans-2e" x="127.246094"/>
       <use xlink:href="#DejaVuSans-31" x="159.033203"/>
       <use xlink:href="#DejaVuSans-31" x="222.65625"/>
       <use xlink:href="#DejaVuSans-2e" x="286.279297"/>
       <use xlink:href="#DejaVuSans-32" x="318.066406"/>
       <use xlink:href="#DejaVuSans-30" x="381.689453"/>
       <use xlink:href="#DejaVuSans-32" x="445.3125"/>
       <use xlink:href="#DejaVuSans-32" x="508.935547"/>
      </g>
     </g>
    </g>
   </g>
   <g id="matplotlib.axis_2">
    <g id="ytick_1">
     <g id="line2d_21">
      <path d="M 57.6 265.797818 
L 414.72 265.797818 
" clip-path="url(#p23bcce70be)" style="fill: none; stroke-dasharray: 2.96,1.28; stroke-dashoffset: 0; stroke: #808080; stroke-width: 0.8"/>
     </g>
     <g id="line2d_22">
      <defs>
       <path id="m5f119afb8f" d="M 0 0 
L -3.5 0 
" style="stroke: #000000; stroke-width: 0.8"/>
      </defs>
      <g>
       <use xlink:href="#m5f119afb8f" x="57.6" y="265.797818" style="stroke: #000000; stroke-width: 0.8"/>
      </g>
     </g>
     <g id="text_11">
      <!-- 0 -->
      <g transform="translate(44.2375 269.597037) scale(0.1 -0.1)">
       <use xlink:href="#DejaVuSans-30"/>
      </g>
     </g>
    </g>
    <g id="ytick_2">
     <g id="line2d_23">
      <path d="M 57.6 233.099996 
L 414.72 233.099996 
" clip-path="url(#p23bcce70be)" style="fill: none; stroke-dasharray: 2.96,1.28; stroke-dashoffset: 0; stroke: #808080; stroke-width: 0.8"/>
     </g>
     <g id="line2d_24">
      <g>
       <use xlink:href="#m5f119afb8f" x="57.6" y="233.099996" style="stroke: #000000; stroke-width: 0.8"/>
      </g>
     </g>
     <g id="text_12">
      <!-- 500 -->
      <g transform="translate(31.5125 236.899215) scale(0.1 -0.1)">
       <use xlink:href="#DejaVuSans-35"/>
       <use xlink:href="#DejaVuSans-30" x="63.623047"/>
       <use xlink:href="#DejaVuSans-30" x="127.246094"/>
      </g>
     </g>
    </g>
    <g id="ytick_3">
     <g id="line2d_25">
      <path d="M 57.6 200.402173 
L 414.72 200.402173 
" clip-path="url(#p23bcce70be)" style="fill: none; stroke-dasharray: 2.96,1.28; stroke-dashoffset: 0; stroke: #808080; stroke-width: 0.8"/>
     </g>
     <g id="line2d_26">
      <g>
       <use xlink:href="#m5f119afb8f" x="57.6" y="200.402173" style="stroke: #000000; stroke-width: 0.8"/>
      </g>
     </g>
     <g id="text_13">
      <!-- 1000 -->
      <g transform="translate(25.15 204.201392) scale(0.1 -0.1)">
       <use xlink:href="#DejaVuSans-31"/>
       <use xlink:href="#DejaVuSans-30" x="63.623047"/>
       <use xlink:href="#DejaVuSans-30" x="127.246094"/>
       <use xlink:href="#DejaVuSans-30" x="190.869141"/>
      </g>
     </g>
    </g>
    <g id="ytick_4">
     <g id="line2d_27">
      <path d="M 57.6 167.704351 
L 414.72 167.704351 
" clip-path="url(#p23bcce70be)" style="fill: none; stroke-dasharray: 2.96,1.28; stroke-dashoffset: 0; stroke: #808080; stroke-width: 0.8"/>
     </g>
     <g id="line2d_28">
      <g>
       <use xlink:href="#m5f119afb8f" x="57.6" y="167.704351" style="stroke: #000000; stroke-width: 0.8"/>
      </g>
     </g>
     <g id="text_14">
      <!-- 1500 -->
      <g transform="translate(25.15 171.50357) scale(0.1 -0.1)">
       <use xlink:href="#DejaVuSans-31"/>
       <use xlink:href="#DejaVuSans-35" x="63.623047"/>
       <use xlink:href="#DejaVuSans-30" x="127.246094"/>
       <use xlink:href="#DejaVuSans-30" x="190.869141"/>
      </g>
     </g>
    </g>
    <g id="ytick_5">
     <g id="line2d_29">
      <path d="M 57.6 135.006529 
L 414.72 135.006529 
" clip-path="url(#p23bcce70be)" style="fill: none; stroke-dasharray: 2.96,1.28; stroke-dashoffset: 0; stroke: #808080; stroke-width: 0.8"/>
     </g>
     <g id="line2d_30">
      <g>
       <use xlink:href="#m5f119afb8f" x="57.6" y="135.006529" style="stroke: #000000; stroke-width: 0.8"/>
      </g>
     </g>
     <g id="text_15">
      <!-- 2000 -->
      <g transform="translate(25.15 138.805747) scale(0.1 -0.1)">
       <use xlink:href="#DejaVuSans-32"/>
       <use xlink:href="#DejaVuSans-30" x="63.623047"/>
       <use xlink:href="#DejaVuSans-30" x="127.246094"/>
       <use xlink:href="#DejaVuSans-30" x="190.869141"/>
      </g>
     </g>
    </g>
    <g id="ytick_6">
     <g id="line2d_31">
      <path d="M 57.6 102.308706 
L 414.72 102.308706 
" clip-path="url(#p23bcce70be)" style="fill: none; stroke-dasharray: 2.96,1.28; stroke-dashoffset: 0; stroke: #808080; stroke-width: 0.8"/>
     </g>
     <g id="line2d_32">
      <g>
       <use xlink:href="#m5f119afb8f" x="57.6" y="102.308706" style="stroke: #000000; stroke-width: 0.8"/>
      </g>
     </g>
     <g id="text_16">
      <!-- 2500 -->
      <g transform="translate(25.15 106.107925) scale(0.1 -0.1)">
       <use xlink:href="#DejaVuSans-32"/>
       <use xlink:href="#DejaVuSans-35" x="63.623047"/>
       <use xlink:href="#DejaVuSans-30" x="127.246094"/>
       <use xlink:href="#DejaVuSans-30" x="190.869141"/>
      </g>
     </g>
    </g>
    <g id="ytick_7">
     <g id="line2d_33">
      <path d="M 57.6 69.610884 
L 414.72 69.610884 
" clip-path="url(#p23bcce70be)" style="fill: none; stroke-dasharray: 2.96,1.28; stroke-dashoffset: 0; stroke: #808080; stroke-width: 0.8"/>
     </g>
     <g id="line2d_34">
      <g>
       <use xlink:href="#m5f119afb8f" x="57.6" y="69.610884" style="stroke: #000000; stroke-width: 0.8"/>
      </g>
     </g>
     <g id="text_17">
      <!-- 3000 -->
      <g transform="translate(25.15 73.410102) scale(0.1 -0.1)">
       <use xlink:href="#DejaVuSans-33"/>
       <use xlink:href="#DejaVuSans-30" x="63.623047"/>
       <use xlink:href="#DejaVuSans-30" x="127.246094"/>
       <use xlink:href="#DejaVuSans-30" x="190.869141"/>
      </g>
     </g>
    </g>
    <g id="text_18">
     <!-- Inzidenz pro 7 Tage pro 100.000 Einwohner -->
     <g transform="translate(19.070312 267.301) rotate(-90) scale(0.1 -0.1)">
      <defs>
       <path id="DejaVuSans-49" d="M 628 4666 
L 1259 4666 
L 1259 0 
L 628 0 
L 628 4666 
z
" transform="scale(0.015625)"/>
       <path id="DejaVuSans-6e" d="M 3513 2113 
L 3513 0 
L 2938 0 
L 2938 2094 
Q 2938 2591 2744 2837 
Q 2550 3084 2163 3084 
Q 1697 3084 1428 2787 
Q 1159 2491 1159 1978 
L 1159 0 
L 581 0 
L 581 3500 
L 1159 3500 
L 1159 2956 
Q 1366 3272 1645 3428 
Q 1925 3584 2291 3584 
Q 2894 3584 3203 3211 
Q 3513 2838 3513 2113 
z
" transform="scale(0.015625)"/>
       <path id="DejaVuSans-7a" d="M 353 3500 
L 3084 3500 
L 3084 2975 
L 922 459 
L 3084 459 
L 3084 0 
L 275 0 
L 275 525 
L 2438 3041 
L 353 3041 
L 353 3500 
z
" transform="scale(0.015625)"/>
       <path id="DejaVuSans-69" d="M 603 3500 
L 1178 3500 
L 1178 0 
L 603 0 
L 603 3500 
z
M 603 4863 
L 1178 4863 
L 1178 4134 
L 603 4134 
L 603 4863 
z
" transform="scale(0.015625)"/>
       <path id="DejaVuSans-64" d="M 2906 2969 
L 2906 4863 
L 3481 4863 
L 3481 0 
L 2906 0 
L 2906 525 
Q 2725 213 2448 61 
Q 2172 -91 1784 -91 
Q 1150 -91 751 415 
Q 353 922 353 1747 
Q 353 2572 751 3078 
Q 1150 3584 1784 3584 
Q 2172 3584 2448 3432 
Q 2725 3281 2906 2969 
z
M 947 1747 
Q 947 1113 1208 752 
Q 1469 391 1925 391 
Q 2381 391 2643 752 
Q 2906 1113 2906 1747 
Q 2906 2381 2643 2742 
Q 2381 3103 1925 3103 
Q 1469 3103 1208 2742 
Q 947 2381 947 1747 
z
" transform="scale(0.015625)"/>
       <path id="DejaVuSans-65" d="M 3597 1894 
L 3597 1613 
L 953 1613 
Q 991 1019 1311 708 
Q 1631 397 2203 397 
Q 2534 397 2845 478 
Q 3156 559 3463 722 
L 3463 178 
Q 3153 47 2828 -22 
Q 2503 -91 2169 -91 
Q 1331 -91 842 396 
Q 353 884 353 1716 
Q 353 2575 817 3079 
Q 1281 3584 2069 3584 
Q 2775 3584 3186 3129 
Q 3597 2675 3597 1894 
z
M 3022 2063 
Q 3016 2534 2758 2815 
Q 2500 3097 2075 3097 
Q 1594 3097 1305 2825 
Q 1016 2553 972 2059 
L 3022 2063 
z
" transform="scale(0.015625)"/>
       <path id="DejaVuSans-20" transform="scale(0.015625)"/>
       <path id="DejaVuSans-70" d="M 1159 525 
L 1159 -1331 
L 581 -1331 
L 581 3500 
L 1159 3500 
L 1159 2969 
Q 1341 3281 1617 3432 
Q 1894 3584 2278 3584 
Q 2916 3584 3314 3078 
Q 3713 2572 3713 1747 
Q 3713 922 3314 415 
Q 2916 -91 2278 -91 
Q 1894 -91 1617 61 
Q 1341 213 1159 525 
z
M 3116 1747 
Q 3116 2381 2855 2742 
Q 2594 3103 2138 3103 
Q 1681 3103 1420 2742 
Q 1159 2381 1159 1747 
Q 1159 1113 1420 752 
Q 1681 391 2138 391 
Q 2594 391 2855 752 
Q 3116 1113 3116 1747 
z
" transform="scale(0.015625)"/>
       <path id="DejaVuSans-72" d="M 2631 2963 
Q 2534 3019 2420 3045 
Q 2306 3072 2169 3072 
Q 1681 3072 1420 2755 
Q 1159 2438 1159 1844 
L 1159 0 
L 581 0 
L 581 3500 
L 1159 3500 
L 1159 2956 
Q 1341 3275 1631 3429 
Q 1922 3584 2338 3584 
Q 2397 3584 2469 3576 
Q 2541 3569 2628 3553 
L 2631 2963 
z
" transform="scale(0.015625)"/>
       <path id="DejaVuSans-6f" d="M 1959 3097 
Q 1497 3097 1228 2736 
Q 959 2375 959 1747 
Q 959 1119 1226 758 
Q 1494 397 1959 397 
Q 2419 397 2687 759 
Q 2956 1122 2956 1747 
Q 2956 2369 2687 2733 
Q 2419 3097 1959 3097 
z
M 1959 3584 
Q 2709 3584 3137 3096 
Q 3566 2609 3566 1747 
Q 3566 888 3137 398 
Q 2709 -91 1959 -91 
Q 1206 -91 779 398 
Q 353 888 353 1747 
Q 353 2609 779 3096 
Q 1206 3584 1959 3584 
z
" transform="scale(0.015625)"/>
       <path id="DejaVuSans-54" d="M -19 4666 
L 3928 4666 
L 3928 4134 
L 2272 4134 
L 2272 0 
L 1638 0 
L 1638 4134 
L -19 4134 
L -19 4666 
z
" transform="scale(0.015625)"/>
       <path id="DejaVuSans-61" d="M 2194 1759 
Q 1497 1759 1228 1600 
Q 959 1441 959 1056 
Q 959 750 1161 570 
Q 1363 391 1709 391 
Q 2188 391 2477 730 
Q 2766 1069 2766 1631 
L 2766 1759 
L 2194 1759 
z
M 3341 1997 
L 3341 0 
L 2766 0 
L 2766 531 
Q 2569 213 2275 61 
Q 1981 -91 1556 -91 
Q 1019 -91 701 211 
Q 384 513 384 1019 
Q 384 1609 779 1909 
Q 1175 2209 1959 2209 
L 2766 2209 
L 2766 2266 
Q 2766 2663 2505 2880 
Q 2244 3097 1772 3097 
Q 1472 3097 1187 3025 
Q 903 2953 641 2809 
L 641 3341 
Q 956 3463 1253 3523 
Q 1550 3584 1831 3584 
Q 2591 3584 2966 3190 
Q 3341 2797 3341 1997 
z
" transform="scale(0.015625)"/>
       <path id="DejaVuSans-67" d="M 2906 1791 
Q 2906 2416 2648 2759 
Q 2391 3103 1925 3103 
Q 1463 3103 1205 2759 
Q 947 2416 947 1791 
Q 947 1169 1205 825 
Q 1463 481 1925 481 
Q 2391 481 2648 825 
Q 2906 1169 2906 1791 
z
M 3481 434 
Q 3481 -459 3084 -895 
Q 2688 -1331 1869 -1331 
Q 1566 -1331 1297 -1286 
Q 1028 -1241 775 -1147 
L 775 -588 
Q 1028 -725 1275 -790 
Q 1522 -856 1778 -856 
Q 2344 -856 2625 -561 
Q 2906 -266 2906 331 
L 2906 616 
Q 2728 306 2450 153 
Q 2172 0 1784 0 
Q 1141 0 747 490 
Q 353 981 353 1791 
Q 353 2603 747 3093 
Q 1141 3584 1784 3584 
Q 2172 3584 2450 3431 
Q 2728 3278 2906 2969 
L 2906 3500 
L 3481 3500 
L 3481 434 
z
" transform="scale(0.015625)"/>
       <path id="DejaVuSans-45" d="M 628 4666 
L 3578 4666 
L 3578 4134 
L 1259 4134 
L 1259 2753 
L 3481 2753 
L 3481 2222 
L 1259 2222 
L 1259 531 
L 3634 531 
L 3634 0 
L 628 0 
L 628 4666 
z
" transform="scale(0.015625)"/>
       <path id="DejaVuSans-77" d="M 269 3500 
L 844 3500 
L 1563 769 
L 2278 3500 
L 2956 3500 
L 3675 769 
L 4391 3500 
L 4966 3500 
L 4050 0 
L 3372 0 
L 2619 2869 
L 1863 0 
L 1184 0 
L 269 3500 
z
" transform="scale(0.015625)"/>
       <path id="DejaVuSans-68" d="M 3513 2113 
L 3513 0 
L 2938 0 
L 2938 2094 
Q 2938 2591 2744 2837 
Q 2550 3084 2163 3084 
Q 1697 3084 1428 2787 
Q 1159 2491 1159 1978 
L 1159 0 
L 581 0 
L 581 4863 
L 1159 4863 
L 1159 2956 
Q 1366 3272 1645 3428 
Q 1925 3584 2291 3584 
Q 2894 3584 3203 3211 
Q 3513 2838 3513 2113 
z
" transform="scale(0.015625)"/>
      </defs>
      <use xlink:href="#DejaVuSans-49"/>
      <use xlink:href="#DejaVuSans-6e" x="29.492188"/>
      <use xlink:href="#DejaVuSans-7a" x="92.871094"/>
      <use xlink:href="#DejaVuSans-69" x="145.361328"/>
      <use xlink:href="#DejaVuSans-64" x="173.144531"/>
      <use xlink:href="#DejaVuSans-65" x="236.621094"/>
      <use xlink:href="#DejaVuSans-6e" x="298.144531"/>
      <use xlink:href="#DejaVuSans-7a" x="361.523438"/>
      <use xlink:href="#DejaVuSans-20" x="414.013672"/>
      <use xlink:href="#DejaVuSans-70" x="445.800781"/>
      <use xlink:href="#DejaVuSans-72" x="509.277344"/>
      <use xlink:href="#DejaVuSans-6f" x="548.140625"/>
      <use xlink:href="#DejaVuSans-20" x="609.322266"/>
      <use xlink:href="#DejaVuSans-37" x="641.109375"/>
      <use xlink:href="#DejaVuSans-20" x="704.732422"/>
      <use xlink:href="#DejaVuSans-54" x="736.519531"/>
      <use xlink:href="#DejaVuSans-61" x="781.103516"/>
      <use xlink:href="#DejaVuSans-67" x="842.382812"/>
      <use xlink:href="#DejaVuSans-65" x="905.859375"/>
      <use xlink:href="#DejaVuSans-20" x="967.382812"/>
      <use xlink:href="#DejaVuSans-70" x="999.169922"/>
      <use xlink:href="#DejaVuSans-72" x="1062.646484"/>
      <use xlink:href="#DejaVuSans-6f" x="1101.509766"/>
      <use xlink:href="#DejaVuSans-20" x="1162.691406"/>
      <use xlink:href="#DejaVuSans-31" x="1194.478516"/>
      <use xlink:href="#DejaVuSans-30" x="1258.101562"/>
      <use xlink:href="#DejaVuSans-30" x="1321.724609"/>
      <use xlink:href="#DejaVuSans-2e" x="1385.347656"/>
      <use xlink:href="#DejaVuSans-30" x="1417.134766"/>
      <use xlink:href="#DejaVuSans-30" x="1480.757812"/>
      <use xlink:href="#DejaVuSans-30" x="1544.380859"/>
      <use xlink:href="#DejaVuSans-20" x="1608.003906"/>
      <use xlink:href="#DejaVuSans-45" x="1639.791016"/>
      <use xlink:href="#DejaVuSans-69" x="1702.974609"/>
      <use xlink:href="#DejaVuSans-6e" x="1730.757812"/>
      <use xlink:href="#DejaVuSans-77" x="1794.136719"/>
      <use xlink:href="#DejaVuSans-6f" x="1875.923828"/>
      <use xlink:href="#DejaVuSans-68" x="1937.105469"/>
      <use xlink:href="#DejaVuSans-6e" x="2000.484375"/>
      <use xlink:href="#DejaVuSans-65" x="2063.863281"/>
      <use xlink:href="#DejaVuSans-72" x="2125.386719"/>
     </g>
    </g>
   </g>
   <g id="line2d_35">
    <path d="M 73.832727 265.797818 
L 76.981656 265.702463 
L 78.241227 265.607108 
L 78.55612 265.607108 
L 79.815692 264.605876 
L 80.445477 264.653554 
L 81.075263 264.224455 
L 81.705049 263.938389 
L 82.019942 263.461612 
L 82.96462 263.127869 
L 83.279513 263.270902 
L 83.594406 263.175546 
L 83.909299 263.223224 
L 84.224192 263.556968 
L 84.853978 263.556968 
L 85.16887 263.223224 
L 87.373121 263.890711 
L 87.688013 264.1291 
L 88.002906 263.843034 
L 88.317799 264.224455 
L 88.947585 264.31981 
L 89.892263 264.462843 
L 90.207156 264.93962 
L 90.522049 265.130331 
L 91.151835 265.178008 
L 91.466728 265.130331 
L 91.781621 265.321041 
L 94.300764 265.368719 
L 94.930549 265.464074 
L 95.560335 265.416397 
L 95.875228 265.607108 
L 97.449692 265.702463 
L 98.394371 265.750141 
L 103.432657 265.750141 
L 103.74755 265.416397 
L 105.636907 265.368719 
L 105.9518 265.702463 
L 107.211371 265.797818 
L 115.713479 265.750141 
L 116.028371 265.511752 
L 120.121979 265.55943 
L 120.436872 265.750141 
L 121.38155 265.702463 
L 124.215586 265.654785 
L 124.845372 265.464074 
L 126.419836 265.511752 
L 127.049622 265.654785 
L 127.679407 265.464074 
L 128.309193 265.464074 
L 128.624086 265.464074 
L 128.938979 265.321041 
L 129.568765 265.416397 
L 132.4028 265.750141 
L 134.292158 265.702463 
L 134.607051 265.511752 
L 138.070872 265.607108 
L 138.385765 265.654785 
L 138.700658 265.464074 
L 139.645336 265.511752 
L 139.960229 265.511752 
L 140.275122 265.321041 
L 140.590015 264.796587 
L 140.904908 264.844265 
L 141.219801 264.510521 
L 141.534694 264.415166 
L 142.164479 263.843034 
L 142.479372 262.651092 
L 142.794265 262.07896 
L 143.738944 259.504366 
L 144.368729 259.504366 
L 144.683622 258.789201 
L 144.998515 258.503135 
L 145.313408 258.884556 
L 145.628301 259.933465 
L 146.258087 260.171853 
L 146.887872 259.83811 
L 147.202765 259.2183 
L 147.517658 258.884556 
L 147.832551 257.883325 
L 148.147444 257.501904 
L 148.462337 257.406548 
L 149.092122 256.882094 
L 149.407015 257.263515 
L 149.721908 256.739061 
L 150.036801 256.739061 
L 150.351694 253.735368 
L 150.666587 253.926079 
L 150.98148 254.545888 
L 151.296372 256.166929 
L 151.611265 255.690152 
L 151.926158 255.73783 
L 152.241051 256.214607 
L 152.555944 258.693845 
L 152.870837 258.455457 
L 153.500623 258.693845 
L 153.815515 259.647399 
L 154.445301 260.743985 
L 154.760194 260.219531 
L 155.38998 260.457919 
L 155.704873 260.410242 
L 156.019765 259.885787 
L 156.334658 258.741523 
L 156.649551 258.169391 
L 156.964444 258.741523 
L 157.279337 258.550812 
L 157.59423 258.503135 
L 157.909123 257.692614 
L 158.224016 258.789201 
L 158.538908 259.170622 
L 158.853801 259.313655 
L 159.168694 259.695077 
L 159.483587 259.885787 
L 159.79848 259.885787 
L 160.113373 260.314886 
L 160.428266 258.979911 
L 160.743158 259.40901 
L 161.058051 258.550812 
L 161.372944 256.977449 
L 162.00273 257.072805 
L 162.317623 257.835647 
L 162.632516 258.026358 
L 162.947409 257.931003 
L 163.262301 258.169391 
L 163.577194 258.217069 
L 163.892087 256.691383 
L 164.836766 255.451764 
L 165.151659 253.544657 
L 165.466551 252.972525 
L 165.781444 251.303807 
L 166.096337 251.971294 
L 166.41123 252.018972 
L 166.726123 251.589873 
L 167.041016 250.970063 
L 167.355909 251.113096 
L 167.670802 250.350253 
L 167.985694 254.498211 
L 168.300587 255.308731 
L 168.61548 254.879632 
L 168.930373 254.92731 
L 169.245266 254.212145 
L 169.560159 254.259822 
L 169.875052 255.213376 
L 170.189944 255.11802 
L 170.504837 255.165698 
L 170.81973 255.594797 
L 171.134623 255.499442 
L 172.079302 258.789201 
L 172.394195 256.262284 
L 172.709087 255.833185 
L 173.02398 256.166929 
L 173.338873 256.262284 
L 173.653766 257.454226 
L 173.968659 258.169391 
L 174.283552 258.217069 
L 174.598445 259.695077 
L 174.913337 260.219531 
L 175.22823 260.171853 
L 175.858016 260.314886 
L 176.172909 261.077729 
L 176.487802 260.887018 
L 176.802695 261.220762 
L 177.117588 260.982374 
L 177.43248 260.887018 
L 178.062266 261.697539 
L 178.377159 261.173084 
L 178.692052 261.602183 
L 179.006945 261.077729 
L 179.321838 261.26844 
L 179.63673 261.220762 
L 179.951623 261.363795 
L 180.896302 260.982374 
L 181.211195 261.45915 
L 181.526088 261.077729 
L 181.840981 261.26844 
L 182.155873 260.839341 
L 182.470766 259.742754 
L 183.100552 260.267209 
L 183.415445 260.982374 
L 183.730338 261.077729 
L 184.045231 261.030051 
L 184.360123 261.173084 
L 184.675016 262.317348 
L 184.989909 262.508059 
L 185.304802 262.555737 
L 185.619695 261.935927 
L 186.249481 261.888249 
L 186.564374 262.317348 
L 187.194159 261.363795 
L 187.509052 261.363795 
L 188.138838 260.743985 
L 188.453731 260.839341 
L 189.083516 260.02882 
L 189.398409 259.885787 
L 189.713302 259.2183 
L 190.028195 259.40901 
L 190.657981 259.456688 
L 191.602659 260.743985 
L 191.917552 260.553275 
L 192.232445 259.885787 
L 192.547338 260.219531 
L 192.862231 260.171853 
L 193.177124 258.979911 
L 193.492017 259.265977 
L 193.806909 258.550812 
L 194.121802 258.789201 
L 194.436695 259.2183 
L 194.751588 258.932234 
L 195.066481 258.836878 
L 195.381374 259.552043 
L 195.696267 259.2183 
L 196.01116 259.122944 
L 196.326052 259.552043 
L 196.640945 259.456688 
L 196.955838 259.885787 
L 197.270731 259.981143 
L 197.585624 260.600952 
L 197.900517 260.600952 
L 198.21541 261.26844 
L 198.530302 260.934696 
L 198.845195 261.840572 
L 199.160088 261.745216 
L 199.474981 261.411473 
L 199.789874 261.554506 
L 200.104767 262.603414 
L 200.41966 261.030051 
L 200.734553 260.887018 
L 201.049445 259.933465 
L 201.679231 259.2183 
L 202.309017 257.406548 
L 202.62391 258.026358 
L 202.938803 257.311193 
L 203.253695 257.597259 
L 203.568588 256.834416 
L 203.883481 257.311193 
L 204.513267 254.831954 
L 204.82816 254.498211 
L 205.457946 254.498211 
L 205.772838 253.783046 
L 206.087731 253.496979 
L 207.03241 253.878401 
L 207.347303 254.545888 
L 207.662196 253.973756 
L 207.977088 254.974987 
L 208.291981 255.070343 
L 208.606874 256.071574 
L 209.23666 256.882094 
L 209.551553 256.596028 
L 210.181339 258.789201 
L 210.496231 258.789201 
L 210.811124 259.122944 
L 211.126017 260.124176 
L 211.44091 260.553275 
L 211.755803 262.174315 
L 212.070696 262.174315 
L 212.385589 261.935927 
L 212.700481 262.269671 
L 213.015374 262.984836 
L 213.330267 262.984836 
L 213.64516 263.461612 
L 213.960053 263.032513 
L 214.589839 263.461612 
L 214.904732 263.318579 
L 215.219624 263.461612 
L 215.534517 263.890711 
L 216.164303 264.367488 
L 216.479196 264.1291 
L 216.794089 264.033744 
L 217.108982 264.272133 
L 217.423874 264.033744 
L 217.738767 263.652323 
L 218.05366 263.890711 
L 218.368553 263.795356 
L 218.998339 263.890711 
L 219.313232 263.843034 
L 219.628125 263.986067 
L 219.943017 264.415166 
L 220.25791 264.558199 
L 220.887696 264.605876 
L 221.202589 264.796587 
L 222.147267 264.701232 
L 222.46216 264.748909 
L 223.091946 265.178008 
L 224.036625 265.55943 
L 224.66641 265.55943 
L 225.925982 265.464074 
L 227.185553 265.750141 
L 228.130232 265.797818 
L 230.334482 265.702463 
L 230.649375 265.607108 
L 230.964268 264.891942 
L 231.279161 264.701232 
L 231.594053 264.31981 
L 231.908946 264.176777 
L 232.223839 263.890711 
L 232.853625 263.843034 
L 233.168518 264.224455 
L 233.483411 263.938389 
L 233.798304 264.367488 
L 234.113196 264.272133 
L 234.428089 264.415166 
L 235.057875 264.224455 
L 235.372768 264.462843 
L 235.687661 264.93962 
L 236.002554 264.462843 
L 236.317446 264.367488 
L 236.947232 264.653554 
L 237.262125 264.558199 
L 237.891911 264.081422 
L 238.521696 264.558199 
L 240.411054 263.366257 
L 241.355732 263.413935 
L 241.670625 263.318579 
L 241.985518 263.366257 
L 242.615304 262.984836 
L 243.245089 262.07896 
L 243.559982 262.221993 
L 243.874875 261.888249 
L 244.189768 261.983605 
L 244.504661 260.887018 
L 245.134447 260.124176 
L 245.44934 260.410242 
L 245.764232 260.410242 
L 246.079125 260.553275 
L 246.394018 260.457919 
L 246.708911 261.363795 
L 247.023804 261.26844 
L 247.968482 261.745216 
L 248.283375 261.45915 
L 248.598268 261.45915 
L 248.913161 261.077729 
L 249.228054 261.506828 
L 249.542947 261.45915 
L 249.85784 261.125407 
L 250.172733 260.982374 
L 250.802518 261.220762 
L 251.432304 262.126638 
L 252.376983 262.746447 
L 252.691875 262.794125 
L 253.006768 263.223224 
L 253.636554 262.603414 
L 254.581233 262.69877 
L 254.896126 263.318579 
L 255.211018 261.935927 
L 255.840804 262.603414 
L 256.155697 262.221993 
L 256.785483 261.935927 
L 257.100376 261.554506 
L 257.415268 262.555737 
L 257.730161 262.69877 
L 258.359947 262.460381 
L 258.989733 262.508059 
L 259.304626 262.88948 
L 259.934411 262.937158 
L 260.249304 262.365026 
L 260.564197 262.746447 
L 261.193983 262.746447 
L 261.508876 262.221993 
L 261.823769 262.221993 
L 262.138661 261.888249 
L 262.453554 262.269671 
L 262.768447 261.888249 
L 263.398233 261.983605 
L 263.713126 261.792894 
L 264.028019 261.125407 
L 264.657804 261.316117 
L 265.602483 261.030051 
L 265.917376 261.077729 
L 266.232269 261.26844 
L 266.547162 261.030051 
L 266.862054 260.124176 
L 267.49184 259.83811 
L 267.806733 259.83811 
L 268.121626 259.647399 
L 268.436519 258.884556 
L 269.066305 256.834416 
L 269.381197 256.309962 
L 269.69609 255.213376 
L 270.010983 254.92731 
L 270.325876 253.163236 
L 270.640769 250.445609 
L 270.955662 250.922385 
L 271.585447 246.154618 
L 271.90034 246.297651 
L 272.215233 245.963908 
L 272.530126 246.440684 
L 272.845019 245.820875 
L 273.159912 244.009123 
L 273.474805 245.487131 
L 273.789698 246.106941 
L 274.10459 245.725519 
L 274.419483 246.011585 
L 274.734376 245.773197 
L 275.049269 246.917461 
L 275.364162 246.345329 
L 275.679055 247.060494 
L 275.993948 247.251205 
L 276.30884 247.632626 
L 276.623733 247.775659 
L 276.938626 247.632626 
L 277.253519 248.252436 
L 277.568412 248.538502 
L 277.883305 248.300114 
L 278.198198 248.729213 
L 278.513091 248.300114 
L 278.827983 248.347791 
L 279.142876 249.110634 
L 279.457769 249.110634 
L 279.772662 250.111865 
L 280.087555 250.588642 
L 280.402448 251.303807 
L 280.717341 250.731675 
L 281.032233 250.683997 
L 281.347126 251.065418 
L 281.662019 251.685228 
L 281.976912 253.306269 
L 282.291805 253.735368 
L 282.921591 257.406548 
L 283.236484 257.692614 
L 283.551376 258.550812 
L 283.866269 257.549581 
L 284.181162 255.976218 
L 284.810948 256.023896 
L 285.125841 254.784277 
L 285.440734 254.784277 
L 286.700305 246.679073 
L 287.015198 242.197372 
L 287.330091 241.243818 
L 287.644984 241.148463 
L 287.959877 241.339174 
L 288.274769 241.81595 
L 288.589662 239.956521 
L 288.904555 239.336712 
L 289.534341 236.428374 
L 289.849234 235.188754 
L 290.479019 229.324401 
L 290.793912 226.27303 
L 291.108805 221.552941 
L 291.423698 214.973423 
L 291.738591 215.688588 
L 292.053484 212.112762 
L 292.368377 211.254564 
L 292.68327 213.543093 
L 292.998162 209.109069 
L 293.313055 213.113994 
L 293.627948 218.596926 
L 293.942841 216.070009 
L 294.257734 212.541862 
L 294.572627 214.162902 
L 294.88752 199.430502 
L 295.202412 201.575998 
L 295.832198 189.942646 
L 296.147091 184.221326 
L 296.461984 181.312988 
L 296.776877 163.052441 
L 297.09177 169.584281 
L 297.406663 158.999839 
L 297.721555 159.667326 
L 298.351341 162.05121 
L 298.666234 160.859268 
L 298.981127 155.137948 
L 299.29602 157.760219 
L 299.610913 167.581819 
L 299.925805 167.581819 
L 300.240698 167.867885 
L 300.555591 167.581819 
L 300.870484 168.630728 
L 301.185377 184.888813 
L 301.50027 175.114891 
L 302.130056 181.217633 
L 302.444948 179.739625 
L 302.759841 180.597823 
L 303.074734 168.726083 
L 303.389627 168.535373 
L 303.70452 157.521831 
L 304.334306 94.682663 
L 304.649198 82.048081 
L 304.964091 75.945339 
L 305.278984 91.392904 
L 305.593877 87.054236 
L 305.90877 89.438119 
L 306.223663 108.127766 
L 306.538556 118.47382 
L 306.853449 118.187754 
L 307.168341 107.174212 
L 307.483234 101.452892 
L 307.798127 101.738958 
L 308.11302 108.270799 
L 308.427913 106.840469 
L 309.057699 93.91982 
L 309.372591 104.075164 
L 309.687484 91.774325 
L 310.002377 89.104376 
L 310.31727 95.588539 
L 310.632163 84.241253 
L 310.947056 82.381824 
L 311.261949 72.989323 
L 311.576842 69.937952 
L 311.891734 72.226481 
L 312.52152 52.154182 
L 312.836413 54.633421 
L 313.466199 78.615288 
L 313.781092 74.419653 
L 314.095984 91.249871 
L 314.410877 101.977346 
L 314.72577 108.080088 
L 315.040663 122.192678 
L 315.355556 116.232969 
L 315.670449 119.999505 
L 315.985342 126.674379 
L 316.300235 129.153618 
L 316.615127 127.341866 
L 317.244913 121.525191 
L 317.559806 130.870014 
L 317.874699 151.752833 
L 318.189592 158.332351 
L 318.504485 151.466767 
L 318.819377 162.432631 
L 319.13427 161.812821 
L 319.449163 159.238227 
L 319.764056 160.81159 
L 320.078949 142.551043 
L 320.393842 141.16839 
L 320.708735 148.033975 
L 321.023628 143.266208 
L 322.283199 197.904817 
L 322.598092 203.530782 
L 322.912985 204.38898 
L 323.227878 205.914665 
L 323.54277 204.38898 
L 323.857663 204.484335 
L 324.172556 204.38898 
L 324.487449 202.863295 
L 324.802342 202.052774 
L 325.117235 203.340071 
L 325.432128 204.055236 
L 326.061913 214.544324 
L 326.376806 213.40006 
L 327.006592 216.546786 
L 327.321485 217.118918 
L 327.636378 218.978347 
L 327.951271 219.550479 
L 328.266163 218.692281 
L 328.581056 223.555403 
L 329.210842 228.370848 
L 329.525735 229.467434 
L 330.155521 235.331787 
L 330.470414 241.577562 
L 330.785306 241.672917 
L 331.100199 241.577562 
L 331.415092 242.43576 
L 331.729985 241.00543 
L 332.044878 240.767042 
L 332.359771 239.908844 
L 332.674664 234.092168 
L 332.989556 234.092168 
L 333.304449 233.329325 
L 333.619342 231.565252 
L 333.934235 232.995582 
L 334.249128 237.191217 
L 334.564021 234.807333 
L 335.508699 216.308397 
L 335.823592 220.742421 
L 336.453378 201.862064 
L 336.768271 198.85837 
L 337.083164 198.953726 
L 337.398057 198.190883 
L 337.712949 196.474487 
L 338.027842 186.366821 
L 338.342735 195.520934 
L 338.657628 194.185959 
L 338.972521 190.324068 
L 339.602307 187.368052 
L 339.9172 188.22625 
L 340.232092 188.703027 
L 340.861878 185.842367 
L 341.176771 185.460945 
L 341.491664 183.553839 
L 341.806557 184.698103 
L 342.12145 181.932798 
L 342.751235 184.221326 
L 343.066128 186.557532 
L 343.381021 187.177341 
L 343.695914 190.562456 
L 344.010807 192.135819 
L 344.3257 195.99771 
L 344.955485 195.139512 
L 345.585271 199.764246 
L 345.900164 199.049081 
L 346.215057 199.811924 
L 346.52995 198.333916 
L 346.844843 198.04785 
L 347.159735 198.429271 
L 347.474628 195.139512 
L 347.789521 198.143205 
L 348.419307 209.204425 
L 349.049093 216.928207 
L 349.363986 217.214273 
L 349.678878 224.365924 
L 349.993771 227.369617 
L 350.308664 228.895302 
L 350.623557 229.467434 
L 350.93845 233.806102 
L 351.253343 235.760886 
L 351.568236 235.951597 
L 351.883128 236.809795 
L 352.198021 239.622778 
L 352.512914 240.814719 
L 352.827807 241.529884 
L 353.1427 241.62524 
L 353.457593 243.246281 
L 353.772486 243.627702 
L 354.087379 242.43576 
L 354.402271 245.391776 
L 354.717164 245.344098 
L 355.34695 246.679073 
L 355.976736 246.965139 
L 356.291629 248.729213 
L 356.606521 246.917461 
L 356.921414 248.824568 
L 357.5512 250.588642 
L 358.495879 249.921154 
L 358.810772 251.542195 
L 359.125664 251.875939 
L 359.440557 251.589873 
L 359.75545 252.114327 
L 360.070343 253.449302 
L 360.700129 253.353946 
L 361.015022 253.68769 
L 361.329914 253.401624 
L 361.644807 254.116789 
L 361.9597 254.402855 
L 362.274593 253.926079 
L 362.589486 253.735368 
L 362.904379 254.593566 
L 363.534165 252.638781 
L 363.849057 252.734137 
L 364.16395 252.066649 
L 364.478843 252.018972 
L 365.108629 252.638781 
L 365.423522 251.256129 
L 365.738415 251.732906 
L 366.053307 250.874708 
L 366.3682 250.731675 
L 366.683093 249.825799 
L 366.997986 249.492055 
L 367.312879 247.871015 
L 367.627772 248.58618 
L 367.942665 248.347791 
L 368.257558 247.251205 
L 368.57245 245.582486 
L 369.202236 245.391776 
L 369.517129 244.247512 
L 370.461808 238.812257 
L 370.7767 238.335481 
L 371.091593 237.620316 
L 371.406486 237.906382 
L 371.721379 241.148463 
L 372.036272 241.62524 
L 373.295843 220.360999 
L 373.610736 219.359768 
L 374.240522 208.918359 
L 374.555415 211.683663 
L 375.185201 218.644603 
L 375.500093 221.266875 
L 375.814986 220.885454 
L 376.129879 219.836545 
L 376.444772 220.456355 
L 376.759665 224.127535 
L 377.074558 226.27303 
L 377.389451 226.034642 
L 377.704344 226.606774 
L 378.019236 226.368386 
L 378.334129 228.132459 
L 378.649022 231.612929 
L 378.963915 232.089706 
L 379.278808 232.137384 
L 379.593701 235.760886 
L 379.908594 237.286572 
L 380.223486 238.14477 
L 380.538379 242.24505 
L 381.168165 238.478514 
L 381.483058 240.719364 
L 381.797951 241.100785 
L 382.427737 241.243818 
L 382.742629 239.146001 
L 383.057522 243.770735 
L 383.372415 245.534809 
L 383.687308 244.724288 
L 384.002201 245.153387 
L 384.946879 245.534809 
L 385.261772 245.010354 
L 385.576665 246.488362 
L 385.891558 246.869783 
L 386.206451 245.820875 
L 386.836237 247.251205 
L 387.15113 244.914999 
L 387.466022 244.104479 
L 387.780915 244.4859 
L 389.040487 239.527422 
L 389.35538 240.051877 
L 389.670272 240.242587 
L 389.985165 238.907613 
L 390.300058 238.812257 
L 390.614951 238.287803 
L 390.929844 238.812257 
L 391.244737 238.573869 
L 391.55963 238.14477 
L 391.874523 236.952828 
L 392.504308 235.903919 
L 392.819201 235.665531 
L 393.134094 237.763349 
L 393.448987 234.759655 
L 394.078773 236.619085 
L 394.393665 235.617853 
L 394.708558 234.998044 
L 395.023451 235.28411 
L 395.338344 232.137384 
L 395.653237 236.046953 
L 395.96813 235.522498 
L 396.283023 234.473589 
L 396.597916 234.902688 
L 396.912808 236.237663 
L 397.227701 236.142308 
L 397.542594 236.380696 
L 397.857487 236.476052 
L 398.487273 242.340405 
L 398.487273 242.340405 
" clip-path="url(#p23bcce70be)" style="fill: none; stroke: #1f77b4; stroke-width: 1.5; stroke-linecap: square"/>
   </g>
   <g id="patch_3">
    <path d="M 57.6 276.48 
L 57.6 41.472 
" style="fill: none; stroke: #000000; stroke-width: 0.8; stroke-linejoin: miter; stroke-linecap: square"/>
   </g>
   <g id="patch_4">
    <path d="M 414.72 276.48 
L 414.72 41.472 
" style="fill: none; stroke: #000000; stroke-width: 0.8; stroke-linejoin: miter; stroke-linecap: square"/>
   </g>
   <g id="patch_5">
    <path d="M 57.6 276.48 
L 414.72 276.48 
" style="fill: none; stroke: #000000; stroke-width: 0.8; stroke-linejoin: miter; stroke-linecap: square"/>
   </g>
   <g id="patch_6">
    <path d="M 57.6 41.472 
L 414.72 41.472 
" style="fill: none; stroke: #000000; stroke-width: 0.8; stroke-linejoin: miter; stroke-linecap: square"/>
   </g>
  </g>
  <g id="text_19">
   <!-- Inzidenzverlauf LK Grafschaft Bentheim -->
   <g transform="translate(51.983438 20.589187) scale(0.18 -0.18)">
    <defs>
     <path id="DejaVuSans-76" d="M 191 3500 
L 800 3500 
L 1894 563 
L 2988 3500 
L 3597 3500 
L 2284 0 
L 1503 0 
L 191 3500 
z
" transform="scale(0.015625)"/>
     <path id="DejaVuSans-6c" d="M 603 4863 
L 1178 4863 
L 1178 0 
L 603 0 
L 603 4863 
z
" transform="scale(0.015625)"/>
     <path id="DejaVuSans-75" d="M 544 1381 
L 544 3500 
L 1119 3500 
L 1119 1403 
Q 1119 906 1312 657 
Q 1506 409 1894 409 
Q 2359 409 2629 706 
Q 2900 1003 2900 1516 
L 2900 3500 
L 3475 3500 
L 3475 0 
L 2900 0 
L 2900 538 
Q 2691 219 2414 64 
Q 2138 -91 1772 -91 
Q 1169 -91 856 284 
Q 544 659 544 1381 
z
M 1991 3584 
L 1991 3584 
z
" transform="scale(0.015625)"/>
     <path id="DejaVuSans-66" d="M 2375 4863 
L 2375 4384 
L 1825 4384 
Q 1516 4384 1395 4259 
Q 1275 4134 1275 3809 
L 1275 3500 
L 2222 3500 
L 2222 3053 
L 1275 3053 
L 1275 0 
L 697 0 
L 697 3053 
L 147 3053 
L 147 3500 
L 697 3500 
L 697 3744 
Q 697 4328 969 4595 
Q 1241 4863 1831 4863 
L 2375 4863 
z
" transform="scale(0.015625)"/>
     <path id="DejaVuSans-4c" d="M 628 4666 
L 1259 4666 
L 1259 531 
L 3531 531 
L 3531 0 
L 628 0 
L 628 4666 
z
" transform="scale(0.015625)"/>
     <path id="DejaVuSans-4b" d="M 628 4666 
L 1259 4666 
L 1259 2694 
L 3353 4666 
L 4166 4666 
L 1850 2491 
L 4331 0 
L 3500 0 
L 1259 2247 
L 1259 0 
L 628 0 
L 628 4666 
z
" transform="scale(0.015625)"/>
     <path id="DejaVuSans-47" d="M 3809 666 
L 3809 1919 
L 2778 1919 
L 2778 2438 
L 4434 2438 
L 4434 434 
Q 4069 175 3628 42 
Q 3188 -91 2688 -91 
Q 1594 -91 976 548 
Q 359 1188 359 2328 
Q 359 3472 976 4111 
Q 1594 4750 2688 4750 
Q 3144 4750 3555 4637 
Q 3966 4525 4313 4306 
L 4313 3634 
Q 3963 3931 3569 4081 
Q 3175 4231 2741 4231 
Q 1884 4231 1454 3753 
Q 1025 3275 1025 2328 
Q 1025 1384 1454 906 
Q 1884 428 2741 428 
Q 3075 428 3337 486 
Q 3600 544 3809 666 
z
" transform="scale(0.015625)"/>
     <path id="DejaVuSans-73" d="M 2834 3397 
L 2834 2853 
Q 2591 2978 2328 3040 
Q 2066 3103 1784 3103 
Q 1356 3103 1142 2972 
Q 928 2841 928 2578 
Q 928 2378 1081 2264 
Q 1234 2150 1697 2047 
L 1894 2003 
Q 2506 1872 2764 1633 
Q 3022 1394 3022 966 
Q 3022 478 2636 193 
Q 2250 -91 1575 -91 
Q 1294 -91 989 -36 
Q 684 19 347 128 
L 347 722 
Q 666 556 975 473 
Q 1284 391 1588 391 
Q 1994 391 2212 530 
Q 2431 669 2431 922 
Q 2431 1156 2273 1281 
Q 2116 1406 1581 1522 
L 1381 1569 
Q 847 1681 609 1914 
Q 372 2147 372 2553 
Q 372 3047 722 3315 
Q 1072 3584 1716 3584 
Q 2034 3584 2315 3537 
Q 2597 3491 2834 3397 
z
" transform="scale(0.015625)"/>
     <path id="DejaVuSans-63" d="M 3122 3366 
L 3122 2828 
Q 2878 2963 2633 3030 
Q 2388 3097 2138 3097 
Q 1578 3097 1268 2742 
Q 959 2388 959 1747 
Q 959 1106 1268 751 
Q 1578 397 2138 397 
Q 2388 397 2633 464 
Q 2878 531 3122 666 
L 3122 134 
Q 2881 22 2623 -34 
Q 2366 -91 2075 -91 
Q 1284 -91 818 406 
Q 353 903 353 1747 
Q 353 2603 823 3093 
Q 1294 3584 2113 3584 
Q 2378 3584 2631 3529 
Q 2884 3475 3122 3366 
z
" transform="scale(0.015625)"/>
     <path id="DejaVuSans-74" d="M 1172 4494 
L 1172 3500 
L 2356 3500 
L 2356 3053 
L 1172 3053 
L 1172 1153 
Q 1172 725 1289 603 
Q 1406 481 1766 481 
L 2356 481 
L 2356 0 
L 1766 0 
Q 1100 0 847 248 
Q 594 497 594 1153 
L 594 3053 
L 172 3053 
L 172 3500 
L 594 3500 
L 594 4494 
L 1172 4494 
z
" transform="scale(0.015625)"/>
     <path id="DejaVuSans-42" d="M 1259 2228 
L 1259 519 
L 2272 519 
Q 2781 519 3026 730 
Q 3272 941 3272 1375 
Q 3272 1813 3026 2020 
Q 2781 2228 2272 2228 
L 1259 2228 
z
M 1259 4147 
L 1259 2741 
L 2194 2741 
Q 2656 2741 2882 2914 
Q 3109 3088 3109 3444 
Q 3109 3797 2882 3972 
Q 2656 4147 2194 4147 
L 1259 4147 
z
M 628 4666 
L 2241 4666 
Q 2963 4666 3353 4366 
Q 3744 4066 3744 3513 
Q 3744 3084 3544 2831 
Q 3344 2578 2956 2516 
Q 3422 2416 3680 2098 
Q 3938 1781 3938 1306 
Q 3938 681 3513 340 
Q 3088 0 2303 0 
L 628 0 
L 628 4666 
z
" transform="scale(0.015625)"/>
     <path id="DejaVuSans-6d" d="M 3328 2828 
Q 3544 3216 3844 3400 
Q 4144 3584 4550 3584 
Q 5097 3584 5394 3201 
Q 5691 2819 5691 2113 
L 5691 0 
L 5113 0 
L 5113 2094 
Q 5113 2597 4934 2840 
Q 4756 3084 4391 3084 
Q 3944 3084 3684 2787 
Q 3425 2491 3425 1978 
L 3425 0 
L 2847 0 
L 2847 2094 
Q 2847 2600 2669 2842 
Q 2491 3084 2119 3084 
Q 1678 3084 1418 2786 
Q 1159 2488 1159 1978 
L 1159 0 
L 581 0 
L 581 3500 
L 1159 3500 
L 1159 2956 
Q 1356 3278 1631 3431 
Q 1906 3584 2284 3584 
Q 2666 3584 2933 3390 
Q 3200 3197 3328 2828 
z
" transform="scale(0.015625)"/>
    </defs>
    <use xlink:href="#DejaVuSans-49"/>
    <use xlink:href="#DejaVuSans-6e" x="29.492188"/>
    <use xlink:href="#DejaVuSans-7a" x="92.871094"/>
    <use xlink:href="#DejaVuSans-69" x="145.361328"/>
    <use xlink:href="#DejaVuSans-64" x="173.144531"/>
    <use xlink:href="#DejaVuSans-65" x="236.621094"/>
    <use xlink:href="#DejaVuSans-6e" x="298.144531"/>
    <use xlink:href="#DejaVuSans-7a" x="361.523438"/>
    <use xlink:href="#DejaVuSans-76" x="414.013672"/>
    <use xlink:href="#DejaVuSans-65" x="473.193359"/>
    <use xlink:href="#DejaVuSans-72" x="534.716797"/>
    <use xlink:href="#DejaVuSans-6c" x="575.830078"/>
    <use xlink:href="#DejaVuSans-61" x="603.613281"/>
    <use xlink:href="#DejaVuSans-75" x="664.892578"/>
    <use xlink:href="#DejaVuSans-66" x="728.271484"/>
    <use xlink:href="#DejaVuSans-20" x="763.476562"/>
    <use xlink:href="#DejaVuSans-4c" x="795.263672"/>
    <use xlink:href="#DejaVuSans-4b" x="850.976562"/>
    <use xlink:href="#DejaVuSans-20" x="916.552734"/>
    <use xlink:href="#DejaVuSans-47" x="948.339844"/>
    <use xlink:href="#DejaVuSans-72" x="1025.830078"/>
    <use xlink:href="#DejaVuSans-61" x="1066.943359"/>
    <use xlink:href="#DejaVuSans-66" x="1128.222656"/>
    <use xlink:href="#DejaVuSans-73" x="1163.427734"/>
    <use xlink:href="#DejaVuSans-63" x="1215.527344"/>
    <use xlink:href="#DejaVuSans-68" x="1270.507812"/>
    <use xlink:href="#DejaVuSans-61" x="1333.886719"/>
    <use xlink:href="#DejaVuSans-66" x="1395.166016"/>
    <use xlink:href="#DejaVuSans-74" x="1428.621094"/>
    <use xlink:href="#DejaVuSans-20" x="1467.830078"/>
    <use xlink:href="#DejaVuSans-42" x="1499.617188"/>
    <use xlink:href="#DejaVuSans-65" x="1568.220703"/>
    <use xlink:href="#DejaVuSans-6e" x="1629.744141"/>
    <use xlink:href="#DejaVuSans-74" x="1693.123047"/>
    <use xlink:href="#DejaVuSans-68" x="1732.332031"/>
    <use xlink:href="#DejaVuSans-65" x="1795.710938"/>
    <use xlink:href="#DejaVuSans-69" x="1857.234375"/>
    <use xlink:href="#DejaVuSans-6d" x="1885.017578"/>
   </g>
  </g>
 </g>
 <defs>
  <clipPath id="p23bcce70be">
   <rect x="57.6" y="41.472" width="357.12" height="235.008"/>
  </clipPath>
 </defs>
</svg>
