<?xml version="1.0" encoding="utf-8" standalone="no"?>
<!DOCTYPE svg PUBLIC "-//W3C//DTD SVG 1.1//EN"
  "http://www.w3.org/Graphics/SVG/1.1/DTD/svg11.dtd">
<svg xmlns:xlink="http://www.w3.org/1999/xlink" width="460.8pt" height="345.6pt" viewBox="0 0 460.8 345.6" xmlns="http://www.w3.org/2000/svg" version="1.1">
 <metadata>
  <rdf:RDF xmlns:dc="http://purl.org/dc/elements/1.1/" xmlns:cc="http://creativecommons.org/ns#" xmlns:rdf="http://www.w3.org/1999/02/22-rdf-syntax-ns#">
   <cc:Work>
    <dc:type rdf:resource="http://purl.org/dc/dcmitype/StillImage"/>
    <dc:date>2022-06-03T09:22:36.912404</dc:date>
    <dc:format>image/svg+xml</dc:format>
    <dc:creator>
     <cc:Agent>
      <dc:title>Matplotlib v3.5.2, https://matplotlib.org/</dc:title>
     </cc:Agent>
    </dc:creator>
   </cc:Work>
  </rdf:RDF>
 </metadata>
 <defs>
  <style type="text/css">*{stroke-linejoin: round; stroke-linecap: butt}</style>
 </defs>
 <g id="figure_1">
  <g id="patch_1">
   <path d="M 0 345.6 
L 460.8 345.6 
L 460.8 0 
L 0 0 
z
" style="fill: #ffffff"/>
  </g>
  <g id="axes_1">
   <g id="patch_2">
    <path d="M 57.6 276.48 
L 414.72 276.48 
L 414.72 41.472 
L 57.6 41.472 
z
" style="fill: #ffffff"/>
   </g>
   <g id="matplotlib.axis_1">
    <g id="xtick_1">
     <g id="line2d_1">
      <path d="M 59.334519 276.48 
L 59.334519 41.472 
" clip-path="url(#pfadad48bb7)" style="fill: none; stroke-dasharray: 2.96,1.28; stroke-dashoffset: 0; stroke: #808080; stroke-width: 0.8"/>
     </g>
     <g id="line2d_2">
      <defs>
       <path id="mfc0c0ca8a3" d="M 0 0 
L 0 3.5 
" style="stroke: #000000; stroke-width: 0.8"/>
      </defs>
      <g>
       <use xlink:href="#mfc0c0ca8a3" x="59.334519" y="276.48" style="stroke: #000000; stroke-width: 0.8"/>
      </g>
     </g>
     <g id="text_1">
      <!-- 26.01.2020 -->
      <g transform="translate(8.709308 318.688565)rotate(-30)scale(0.1 -0.1)">
       <defs>
        <path id="DejaVuSans-32" d="M 1228 531 
L 3431 531 
L 3431 0 
L 469 0 
L 469 531 
Q 828 903 1448 1529 
Q 2069 2156 2228 2338 
Q 2531 2678 2651 2914 
Q 2772 3150 2772 3378 
Q 2772 3750 2511 3984 
Q 2250 4219 1831 4219 
Q 1534 4219 1204 4116 
Q 875 4013 500 3803 
L 500 4441 
Q 881 4594 1212 4672 
Q 1544 4750 1819 4750 
Q 2544 4750 2975 4387 
Q 3406 4025 3406 3419 
Q 3406 3131 3298 2873 
Q 3191 2616 2906 2266 
Q 2828 2175 2409 1742 
Q 1991 1309 1228 531 
z
" transform="scale(0.015625)"/>
        <path id="DejaVuSans-36" d="M 2113 2584 
Q 1688 2584 1439 2293 
Q 1191 2003 1191 1497 
Q 1191 994 1439 701 
Q 1688 409 2113 409 
Q 2538 409 2786 701 
Q 3034 994 3034 1497 
Q 3034 2003 2786 2293 
Q 2538 2584 2113 2584 
z
M 3366 4563 
L 3366 3988 
Q 3128 4100 2886 4159 
Q 2644 4219 2406 4219 
Q 1781 4219 1451 3797 
Q 1122 3375 1075 2522 
Q 1259 2794 1537 2939 
Q 1816 3084 2150 3084 
Q 2853 3084 3261 2657 
Q 3669 2231 3669 1497 
Q 3669 778 3244 343 
Q 2819 -91 2113 -91 
Q 1303 -91 875 529 
Q 447 1150 447 2328 
Q 447 3434 972 4092 
Q 1497 4750 2381 4750 
Q 2619 4750 2861 4703 
Q 3103 4656 3366 4563 
z
" transform="scale(0.015625)"/>
        <path id="DejaVuSans-2e" d="M 684 794 
L 1344 794 
L 1344 0 
L 684 0 
L 684 794 
z
" transform="scale(0.015625)"/>
        <path id="DejaVuSans-30" d="M 2034 4250 
Q 1547 4250 1301 3770 
Q 1056 3291 1056 2328 
Q 1056 1369 1301 889 
Q 1547 409 2034 409 
Q 2525 409 2770 889 
Q 3016 1369 3016 2328 
Q 3016 3291 2770 3770 
Q 2525 4250 2034 4250 
z
M 2034 4750 
Q 2819 4750 3233 4129 
Q 3647 3509 3647 2328 
Q 3647 1150 3233 529 
Q 2819 -91 2034 -91 
Q 1250 -91 836 529 
Q 422 1150 422 2328 
Q 422 3509 836 4129 
Q 1250 4750 2034 4750 
z
" transform="scale(0.015625)"/>
        <path id="DejaVuSans-31" d="M 794 531 
L 1825 531 
L 1825 4091 
L 703 3866 
L 703 4441 
L 1819 4666 
L 2450 4666 
L 2450 531 
L 3481 531 
L 3481 0 
L 794 0 
L 794 531 
z
" transform="scale(0.015625)"/>
       </defs>
       <use xlink:href="#DejaVuSans-32"/>
       <use xlink:href="#DejaVuSans-36" x="63.623047"/>
       <use xlink:href="#DejaVuSans-2e" x="127.246094"/>
       <use xlink:href="#DejaVuSans-30" x="159.033203"/>
       <use xlink:href="#DejaVuSans-31" x="222.65625"/>
       <use xlink:href="#DejaVuSans-2e" x="286.279297"/>
       <use xlink:href="#DejaVuSans-32" x="318.066406"/>
       <use xlink:href="#DejaVuSans-30" x="381.689453"/>
       <use xlink:href="#DejaVuSans-32" x="445.3125"/>
       <use xlink:href="#DejaVuSans-30" x="508.935547"/>
      </g>
     </g>
    </g>
    <g id="xtick_2">
     <g id="line2d_3">
      <path d="M 95.275594 276.48 
L 95.275594 41.472 
" clip-path="url(#pfadad48bb7)" style="fill: none; stroke-dasharray: 2.96,1.28; stroke-dashoffset: 0; stroke: #808080; stroke-width: 0.8"/>
     </g>
     <g id="line2d_4">
      <g>
       <use xlink:href="#mfc0c0ca8a3" x="95.275594" y="276.48" style="stroke: #000000; stroke-width: 0.8"/>
      </g>
     </g>
     <g id="text_2">
      <!-- 26.04.2020 -->
      <g transform="translate(44.650383 318.688565)rotate(-30)scale(0.1 -0.1)">
       <defs>
        <path id="DejaVuSans-34" d="M 2419 4116 
L 825 1625 
L 2419 1625 
L 2419 4116 
z
M 2253 4666 
L 3047 4666 
L 3047 1625 
L 3713 1625 
L 3713 1100 
L 3047 1100 
L 3047 0 
L 2419 0 
L 2419 1100 
L 313 1100 
L 313 1709 
L 2253 4666 
z
" transform="scale(0.015625)"/>
       </defs>
       <use xlink:href="#DejaVuSans-32"/>
       <use xlink:href="#DejaVuSans-36" x="63.623047"/>
       <use xlink:href="#DejaVuSans-2e" x="127.246094"/>
       <use xlink:href="#DejaVuSans-30" x="159.033203"/>
       <use xlink:href="#DejaVuSans-34" x="222.65625"/>
       <use xlink:href="#DejaVuSans-2e" x="286.279297"/>
       <use xlink:href="#DejaVuSans-32" x="318.066406"/>
       <use xlink:href="#DejaVuSans-30" x="381.689453"/>
       <use xlink:href="#DejaVuSans-32" x="445.3125"/>
       <use xlink:href="#DejaVuSans-30" x="508.935547"/>
      </g>
     </g>
    </g>
    <g id="xtick_3">
     <g id="line2d_5">
      <path d="M 131.216669 276.48 
L 131.216669 41.472 
" clip-path="url(#pfadad48bb7)" style="fill: none; stroke-dasharray: 2.96,1.28; stroke-dashoffset: 0; stroke: #808080; stroke-width: 0.8"/>
     </g>
     <g id="line2d_6">
      <g>
       <use xlink:href="#mfc0c0ca8a3" x="131.216669" y="276.48" style="stroke: #000000; stroke-width: 0.8"/>
      </g>
     </g>
     <g id="text_3">
      <!-- 26.07.2020 -->
      <g transform="translate(80.591458 318.688565)rotate(-30)scale(0.1 -0.1)">
       <defs>
        <path id="DejaVuSans-37" d="M 525 4666 
L 3525 4666 
L 3525 4397 
L 1831 0 
L 1172 0 
L 2766 4134 
L 525 4134 
L 525 4666 
z
" transform="scale(0.015625)"/>
       </defs>
       <use xlink:href="#DejaVuSans-32"/>
       <use xlink:href="#DejaVuSans-36" x="63.623047"/>
       <use xlink:href="#DejaVuSans-2e" x="127.246094"/>
       <use xlink:href="#DejaVuSans-30" x="159.033203"/>
       <use xlink:href="#DejaVuSans-37" x="222.65625"/>
       <use xlink:href="#DejaVuSans-2e" x="286.279297"/>
       <use xlink:href="#DejaVuSans-32" x="318.066406"/>
       <use xlink:href="#DejaVuSans-30" x="381.689453"/>
       <use xlink:href="#DejaVuSans-32" x="445.3125"/>
       <use xlink:href="#DejaVuSans-30" x="508.935547"/>
      </g>
     </g>
    </g>
    <g id="xtick_4">
     <g id="line2d_7">
      <path d="M 167.157744 276.48 
L 167.157744 41.472 
" clip-path="url(#pfadad48bb7)" style="fill: none; stroke-dasharray: 2.96,1.28; stroke-dashoffset: 0; stroke: #808080; stroke-width: 0.8"/>
     </g>
     <g id="line2d_8">
      <g>
       <use xlink:href="#mfc0c0ca8a3" x="167.157744" y="276.48" style="stroke: #000000; stroke-width: 0.8"/>
      </g>
     </g>
     <g id="text_4">
      <!-- 25.10.2020 -->
      <g transform="translate(116.532533 318.688565)rotate(-30)scale(0.1 -0.1)">
       <defs>
        <path id="DejaVuSans-35" d="M 691 4666 
L 3169 4666 
L 3169 4134 
L 1269 4134 
L 1269 2991 
Q 1406 3038 1543 3061 
Q 1681 3084 1819 3084 
Q 2600 3084 3056 2656 
Q 3513 2228 3513 1497 
Q 3513 744 3044 326 
Q 2575 -91 1722 -91 
Q 1428 -91 1123 -41 
Q 819 9 494 109 
L 494 744 
Q 775 591 1075 516 
Q 1375 441 1709 441 
Q 2250 441 2565 725 
Q 2881 1009 2881 1497 
Q 2881 1984 2565 2268 
Q 2250 2553 1709 2553 
Q 1456 2553 1204 2497 
Q 953 2441 691 2322 
L 691 4666 
z
" transform="scale(0.015625)"/>
       </defs>
       <use xlink:href="#DejaVuSans-32"/>
       <use xlink:href="#DejaVuSans-35" x="63.623047"/>
       <use xlink:href="#DejaVuSans-2e" x="127.246094"/>
       <use xlink:href="#DejaVuSans-31" x="159.033203"/>
       <use xlink:href="#DejaVuSans-30" x="222.65625"/>
       <use xlink:href="#DejaVuSans-2e" x="286.279297"/>
       <use xlink:href="#DejaVuSans-32" x="318.066406"/>
       <use xlink:href="#DejaVuSans-30" x="381.689453"/>
       <use xlink:href="#DejaVuSans-32" x="445.3125"/>
       <use xlink:href="#DejaVuSans-30" x="508.935547"/>
      </g>
     </g>
    </g>
    <g id="xtick_5">
     <g id="line2d_9">
      <path d="M 203.098819 276.48 
L 203.098819 41.472 
" clip-path="url(#pfadad48bb7)" style="fill: none; stroke-dasharray: 2.96,1.28; stroke-dashoffset: 0; stroke: #808080; stroke-width: 0.8"/>
     </g>
     <g id="line2d_10">
      <g>
       <use xlink:href="#mfc0c0ca8a3" x="203.098819" y="276.48" style="stroke: #000000; stroke-width: 0.8"/>
      </g>
     </g>
     <g id="text_5">
      <!-- 24.01.2021 -->
      <g transform="translate(152.473608 318.688565)rotate(-30)scale(0.1 -0.1)">
       <use xlink:href="#DejaVuSans-32"/>
       <use xlink:href="#DejaVuSans-34" x="63.623047"/>
       <use xlink:href="#DejaVuSans-2e" x="127.246094"/>
       <use xlink:href="#DejaVuSans-30" x="159.033203"/>
       <use xlink:href="#DejaVuSans-31" x="222.65625"/>
       <use xlink:href="#DejaVuSans-2e" x="286.279297"/>
       <use xlink:href="#DejaVuSans-32" x="318.066406"/>
       <use xlink:href="#DejaVuSans-30" x="381.689453"/>
       <use xlink:href="#DejaVuSans-32" x="445.3125"/>
       <use xlink:href="#DejaVuSans-31" x="508.935547"/>
      </g>
     </g>
    </g>
    <g id="xtick_6">
     <g id="line2d_11">
      <path d="M 239.039894 276.48 
L 239.039894 41.472 
" clip-path="url(#pfadad48bb7)" style="fill: none; stroke-dasharray: 2.96,1.28; stroke-dashoffset: 0; stroke: #808080; stroke-width: 0.8"/>
     </g>
     <g id="line2d_12">
      <g>
       <use xlink:href="#mfc0c0ca8a3" x="239.039894" y="276.48" style="stroke: #000000; stroke-width: 0.8"/>
      </g>
     </g>
     <g id="text_6">
      <!-- 25.04.2021 -->
      <g transform="translate(188.414683 318.688565)rotate(-30)scale(0.1 -0.1)">
       <use xlink:href="#DejaVuSans-32"/>
       <use xlink:href="#DejaVuSans-35" x="63.623047"/>
       <use xlink:href="#DejaVuSans-2e" x="127.246094"/>
       <use xlink:href="#DejaVuSans-30" x="159.033203"/>
       <use xlink:href="#DejaVuSans-34" x="222.65625"/>
       <use xlink:href="#DejaVuSans-2e" x="286.279297"/>
       <use xlink:href="#DejaVuSans-32" x="318.066406"/>
       <use xlink:href="#DejaVuSans-30" x="381.689453"/>
       <use xlink:href="#DejaVuSans-32" x="445.3125"/>
       <use xlink:href="#DejaVuSans-31" x="508.935547"/>
      </g>
     </g>
    </g>
    <g id="xtick_7">
     <g id="line2d_13">
      <path d="M 274.980969 276.48 
L 274.980969 41.472 
" clip-path="url(#pfadad48bb7)" style="fill: none; stroke-dasharray: 2.96,1.28; stroke-dashoffset: 0; stroke: #808080; stroke-width: 0.8"/>
     </g>
     <g id="line2d_14">
      <g>
       <use xlink:href="#mfc0c0ca8a3" x="274.980969" y="276.48" style="stroke: #000000; stroke-width: 0.8"/>
      </g>
     </g>
     <g id="text_7">
      <!-- 25.07.2021 -->
      <g transform="translate(224.355758 318.688565)rotate(-30)scale(0.1 -0.1)">
       <use xlink:href="#DejaVuSans-32"/>
       <use xlink:href="#DejaVuSans-35" x="63.623047"/>
       <use xlink:href="#DejaVuSans-2e" x="127.246094"/>
       <use xlink:href="#DejaVuSans-30" x="159.033203"/>
       <use xlink:href="#DejaVuSans-37" x="222.65625"/>
       <use xlink:href="#DejaVuSans-2e" x="286.279297"/>
       <use xlink:href="#DejaVuSans-32" x="318.066406"/>
       <use xlink:href="#DejaVuSans-30" x="381.689453"/>
       <use xlink:href="#DejaVuSans-32" x="445.3125"/>
       <use xlink:href="#DejaVuSans-31" x="508.935547"/>
      </g>
     </g>
    </g>
    <g id="xtick_8">
     <g id="line2d_15">
      <path d="M 310.922044 276.48 
L 310.922044 41.472 
" clip-path="url(#pfadad48bb7)" style="fill: none; stroke-dasharray: 2.96,1.28; stroke-dashoffset: 0; stroke: #808080; stroke-width: 0.8"/>
     </g>
     <g id="line2d_16">
      <g>
       <use xlink:href="#mfc0c0ca8a3" x="310.922044" y="276.48" style="stroke: #000000; stroke-width: 0.8"/>
      </g>
     </g>
     <g id="text_8">
      <!-- 24.10.2021 -->
      <g transform="translate(260.296833 318.688565)rotate(-30)scale(0.1 -0.1)">
       <use xlink:href="#DejaVuSans-32"/>
       <use xlink:href="#DejaVuSans-34" x="63.623047"/>
       <use xlink:href="#DejaVuSans-2e" x="127.246094"/>
       <use xlink:href="#DejaVuSans-31" x="159.033203"/>
       <use xlink:href="#DejaVuSans-30" x="222.65625"/>
       <use xlink:href="#DejaVuSans-2e" x="286.279297"/>
       <use xlink:href="#DejaVuSans-32" x="318.066406"/>
       <use xlink:href="#DejaVuSans-30" x="381.689453"/>
       <use xlink:href="#DejaVuSans-32" x="445.3125"/>
       <use xlink:href="#DejaVuSans-31" x="508.935547"/>
      </g>
     </g>
    </g>
    <g id="xtick_9">
     <g id="line2d_17">
      <path d="M 346.863119 276.48 
L 346.863119 41.472 
" clip-path="url(#pfadad48bb7)" style="fill: none; stroke-dasharray: 2.96,1.28; stroke-dashoffset: 0; stroke: #808080; stroke-width: 0.8"/>
     </g>
     <g id="line2d_18">
      <g>
       <use xlink:href="#mfc0c0ca8a3" x="346.863119" y="276.48" style="stroke: #000000; stroke-width: 0.8"/>
      </g>
     </g>
     <g id="text_9">
      <!-- 23.01.2022 -->
      <g transform="translate(296.237908 318.688565)rotate(-30)scale(0.1 -0.1)">
       <defs>
        <path id="DejaVuSans-33" d="M 2597 2516 
Q 3050 2419 3304 2112 
Q 3559 1806 3559 1356 
Q 3559 666 3084 287 
Q 2609 -91 1734 -91 
Q 1441 -91 1130 -33 
Q 819 25 488 141 
L 488 750 
Q 750 597 1062 519 
Q 1375 441 1716 441 
Q 2309 441 2620 675 
Q 2931 909 2931 1356 
Q 2931 1769 2642 2001 
Q 2353 2234 1838 2234 
L 1294 2234 
L 1294 2753 
L 1863 2753 
Q 2328 2753 2575 2939 
Q 2822 3125 2822 3475 
Q 2822 3834 2567 4026 
Q 2313 4219 1838 4219 
Q 1578 4219 1281 4162 
Q 984 4106 628 3988 
L 628 4550 
Q 988 4650 1302 4700 
Q 1616 4750 1894 4750 
Q 2613 4750 3031 4423 
Q 3450 4097 3450 3541 
Q 3450 3153 3228 2886 
Q 3006 2619 2597 2516 
z
" transform="scale(0.015625)"/>
       </defs>
       <use xlink:href="#DejaVuSans-32"/>
       <use xlink:href="#DejaVuSans-33" x="63.623047"/>
       <use xlink:href="#DejaVuSans-2e" x="127.246094"/>
       <use xlink:href="#DejaVuSans-30" x="159.033203"/>
       <use xlink:href="#DejaVuSans-31" x="222.65625"/>
       <use xlink:href="#DejaVuSans-2e" x="286.279297"/>
       <use xlink:href="#DejaVuSans-32" x="318.066406"/>
       <use xlink:href="#DejaVuSans-30" x="381.689453"/>
       <use xlink:href="#DejaVuSans-32" x="445.3125"/>
       <use xlink:href="#DejaVuSans-32" x="508.935547"/>
      </g>
     </g>
    </g>
    <g id="xtick_10">
     <g id="line2d_19">
      <path d="M 382.804194 276.48 
L 382.804194 41.472 
" clip-path="url(#pfadad48bb7)" style="fill: none; stroke-dasharray: 2.96,1.28; stroke-dashoffset: 0; stroke: #808080; stroke-width: 0.8"/>
     </g>
     <g id="line2d_20">
      <g>
       <use xlink:href="#mfc0c0ca8a3" x="382.804194" y="276.48" style="stroke: #000000; stroke-width: 0.8"/>
      </g>
     </g>
     <g id="text_10">
      <!-- 24.04.2022 -->
      <g transform="translate(332.178983 318.688565)rotate(-30)scale(0.1 -0.1)">
       <use xlink:href="#DejaVuSans-32"/>
       <use xlink:href="#DejaVuSans-34" x="63.623047"/>
       <use xlink:href="#DejaVuSans-2e" x="127.246094"/>
       <use xlink:href="#DejaVuSans-30" x="159.033203"/>
       <use xlink:href="#DejaVuSans-34" x="222.65625"/>
       <use xlink:href="#DejaVuSans-2e" x="286.279297"/>
       <use xlink:href="#DejaVuSans-32" x="318.066406"/>
       <use xlink:href="#DejaVuSans-30" x="381.689453"/>
       <use xlink:href="#DejaVuSans-32" x="445.3125"/>
       <use xlink:href="#DejaVuSans-32" x="508.935547"/>
      </g>
     </g>
    </g>
   </g>
   <g id="matplotlib.axis_2">
    <g id="ytick_1">
     <g id="line2d_21">
      <path d="M 57.6 265.797818 
L 414.72 265.797818 
" clip-path="url(#pfadad48bb7)" style="fill: none; stroke-dasharray: 2.96,1.28; stroke-dashoffset: 0; stroke: #808080; stroke-width: 0.8"/>
     </g>
     <g id="line2d_22">
      <defs>
       <path id="mee23b94787" d="M 0 0 
L -3.5 0 
" style="stroke: #000000; stroke-width: 0.8"/>
      </defs>
      <g>
       <use xlink:href="#mee23b94787" x="57.6" y="265.797818" style="stroke: #000000; stroke-width: 0.8"/>
      </g>
     </g>
     <g id="text_11">
      <!-- 0 -->
      <g transform="translate(44.2375 269.597037)scale(0.1 -0.1)">
       <use xlink:href="#DejaVuSans-30"/>
      </g>
     </g>
    </g>
    <g id="ytick_2">
     <g id="line2d_23">
      <path d="M 57.6 238.796781 
L 414.72 238.796781 
" clip-path="url(#pfadad48bb7)" style="fill: none; stroke-dasharray: 2.96,1.28; stroke-dashoffset: 0; stroke: #808080; stroke-width: 0.8"/>
     </g>
     <g id="line2d_24">
      <g>
       <use xlink:href="#mee23b94787" x="57.6" y="238.796781" style="stroke: #000000; stroke-width: 0.8"/>
      </g>
     </g>
     <g id="text_12">
      <!-- 250 -->
      <g transform="translate(31.5125 242.596)scale(0.1 -0.1)">
       <use xlink:href="#DejaVuSans-32"/>
       <use xlink:href="#DejaVuSans-35" x="63.623047"/>
       <use xlink:href="#DejaVuSans-30" x="127.246094"/>
      </g>
     </g>
    </g>
    <g id="ytick_3">
     <g id="line2d_25">
      <path d="M 57.6 211.795744 
L 414.72 211.795744 
" clip-path="url(#pfadad48bb7)" style="fill: none; stroke-dasharray: 2.96,1.28; stroke-dashoffset: 0; stroke: #808080; stroke-width: 0.8"/>
     </g>
     <g id="line2d_26">
      <g>
       <use xlink:href="#mee23b94787" x="57.6" y="211.795744" style="stroke: #000000; stroke-width: 0.8"/>
      </g>
     </g>
     <g id="text_13">
      <!-- 500 -->
      <g transform="translate(31.5125 215.594963)scale(0.1 -0.1)">
       <use xlink:href="#DejaVuSans-35"/>
       <use xlink:href="#DejaVuSans-30" x="63.623047"/>
       <use xlink:href="#DejaVuSans-30" x="127.246094"/>
      </g>
     </g>
    </g>
    <g id="ytick_4">
     <g id="line2d_27">
      <path d="M 57.6 184.794707 
L 414.72 184.794707 
" clip-path="url(#pfadad48bb7)" style="fill: none; stroke-dasharray: 2.96,1.28; stroke-dashoffset: 0; stroke: #808080; stroke-width: 0.8"/>
     </g>
     <g id="line2d_28">
      <g>
       <use xlink:href="#mee23b94787" x="57.6" y="184.794707" style="stroke: #000000; stroke-width: 0.8"/>
      </g>
     </g>
     <g id="text_14">
      <!-- 750 -->
      <g transform="translate(31.5125 188.593925)scale(0.1 -0.1)">
       <use xlink:href="#DejaVuSans-37"/>
       <use xlink:href="#DejaVuSans-35" x="63.623047"/>
       <use xlink:href="#DejaVuSans-30" x="127.246094"/>
      </g>
     </g>
    </g>
    <g id="ytick_5">
     <g id="line2d_29">
      <path d="M 57.6 157.793669 
L 414.72 157.793669 
" clip-path="url(#pfadad48bb7)" style="fill: none; stroke-dasharray: 2.96,1.28; stroke-dashoffset: 0; stroke: #808080; stroke-width: 0.8"/>
     </g>
     <g id="line2d_30">
      <g>
       <use xlink:href="#mee23b94787" x="57.6" y="157.793669" style="stroke: #000000; stroke-width: 0.8"/>
      </g>
     </g>
     <g id="text_15">
      <!-- 1000 -->
      <g transform="translate(25.15 161.592888)scale(0.1 -0.1)">
       <use xlink:href="#DejaVuSans-31"/>
       <use xlink:href="#DejaVuSans-30" x="63.623047"/>
       <use xlink:href="#DejaVuSans-30" x="127.246094"/>
       <use xlink:href="#DejaVuSans-30" x="190.869141"/>
      </g>
     </g>
    </g>
    <g id="ytick_6">
     <g id="line2d_31">
      <path d="M 57.6 130.792632 
L 414.72 130.792632 
" clip-path="url(#pfadad48bb7)" style="fill: none; stroke-dasharray: 2.96,1.28; stroke-dashoffset: 0; stroke: #808080; stroke-width: 0.8"/>
     </g>
     <g id="line2d_32">
      <g>
       <use xlink:href="#mee23b94787" x="57.6" y="130.792632" style="stroke: #000000; stroke-width: 0.8"/>
      </g>
     </g>
     <g id="text_16">
      <!-- 1250 -->
      <g transform="translate(25.15 134.591851)scale(0.1 -0.1)">
       <use xlink:href="#DejaVuSans-31"/>
       <use xlink:href="#DejaVuSans-32" x="63.623047"/>
       <use xlink:href="#DejaVuSans-35" x="127.246094"/>
       <use xlink:href="#DejaVuSans-30" x="190.869141"/>
      </g>
     </g>
    </g>
    <g id="ytick_7">
     <g id="line2d_33">
      <path d="M 57.6 103.791595 
L 414.72 103.791595 
" clip-path="url(#pfadad48bb7)" style="fill: none; stroke-dasharray: 2.96,1.28; stroke-dashoffset: 0; stroke: #808080; stroke-width: 0.8"/>
     </g>
     <g id="line2d_34">
      <g>
       <use xlink:href="#mee23b94787" x="57.6" y="103.791595" style="stroke: #000000; stroke-width: 0.8"/>
      </g>
     </g>
     <g id="text_17">
      <!-- 1500 -->
      <g transform="translate(25.15 107.590814)scale(0.1 -0.1)">
       <use xlink:href="#DejaVuSans-31"/>
       <use xlink:href="#DejaVuSans-35" x="63.623047"/>
       <use xlink:href="#DejaVuSans-30" x="127.246094"/>
       <use xlink:href="#DejaVuSans-30" x="190.869141"/>
      </g>
     </g>
    </g>
    <g id="ytick_8">
     <g id="line2d_35">
      <path d="M 57.6 76.790558 
L 414.72 76.790558 
" clip-path="url(#pfadad48bb7)" style="fill: none; stroke-dasharray: 2.96,1.28; stroke-dashoffset: 0; stroke: #808080; stroke-width: 0.8"/>
     </g>
     <g id="line2d_36">
      <g>
       <use xlink:href="#mee23b94787" x="57.6" y="76.790558" style="stroke: #000000; stroke-width: 0.8"/>
      </g>
     </g>
     <g id="text_18">
      <!-- 1750 -->
      <g transform="translate(25.15 80.589777)scale(0.1 -0.1)">
       <use xlink:href="#DejaVuSans-31"/>
       <use xlink:href="#DejaVuSans-37" x="63.623047"/>
       <use xlink:href="#DejaVuSans-35" x="127.246094"/>
       <use xlink:href="#DejaVuSans-30" x="190.869141"/>
      </g>
     </g>
    </g>
    <g id="ytick_9">
     <g id="line2d_37">
      <path d="M 57.6 49.789521 
L 414.72 49.789521 
" clip-path="url(#pfadad48bb7)" style="fill: none; stroke-dasharray: 2.96,1.28; stroke-dashoffset: 0; stroke: #808080; stroke-width: 0.8"/>
     </g>
     <g id="line2d_38">
      <g>
       <use xlink:href="#mee23b94787" x="57.6" y="49.789521" style="stroke: #000000; stroke-width: 0.8"/>
      </g>
     </g>
     <g id="text_19">
      <!-- 2000 -->
      <g transform="translate(25.15 53.58874)scale(0.1 -0.1)">
       <use xlink:href="#DejaVuSans-32"/>
       <use xlink:href="#DejaVuSans-30" x="63.623047"/>
       <use xlink:href="#DejaVuSans-30" x="127.246094"/>
       <use xlink:href="#DejaVuSans-30" x="190.869141"/>
      </g>
     </g>
    </g>
    <g id="text_20">
     <!-- Inzidenz pro 7 Tage pro 100.000 Einwohner -->
     <g transform="translate(19.070312 267.301)rotate(-90)scale(0.1 -0.1)">
      <defs>
       <path id="DejaVuSans-49" d="M 628 4666 
L 1259 4666 
L 1259 0 
L 628 0 
L 628 4666 
z
" transform="scale(0.015625)"/>
       <path id="DejaVuSans-6e" d="M 3513 2113 
L 3513 0 
L 2938 0 
L 2938 2094 
Q 2938 2591 2744 2837 
Q 2550 3084 2163 3084 
Q 1697 3084 1428 2787 
Q 1159 2491 1159 1978 
L 1159 0 
L 581 0 
L 581 3500 
L 1159 3500 
L 1159 2956 
Q 1366 3272 1645 3428 
Q 1925 3584 2291 3584 
Q 2894 3584 3203 3211 
Q 3513 2838 3513 2113 
z
" transform="scale(0.015625)"/>
       <path id="DejaVuSans-7a" d="M 353 3500 
L 3084 3500 
L 3084 2975 
L 922 459 
L 3084 459 
L 3084 0 
L 275 0 
L 275 525 
L 2438 3041 
L 353 3041 
L 353 3500 
z
" transform="scale(0.015625)"/>
       <path id="DejaVuSans-69" d="M 603 3500 
L 1178 3500 
L 1178 0 
L 603 0 
L 603 3500 
z
M 603 4863 
L 1178 4863 
L 1178 4134 
L 603 4134 
L 603 4863 
z
" transform="scale(0.015625)"/>
       <path id="DejaVuSans-64" d="M 2906 2969 
L 2906 4863 
L 3481 4863 
L 3481 0 
L 2906 0 
L 2906 525 
Q 2725 213 2448 61 
Q 2172 -91 1784 -91 
Q 1150 -91 751 415 
Q 353 922 353 1747 
Q 353 2572 751 3078 
Q 1150 3584 1784 3584 
Q 2172 3584 2448 3432 
Q 2725 3281 2906 2969 
z
M 947 1747 
Q 947 1113 1208 752 
Q 1469 391 1925 391 
Q 2381 391 2643 752 
Q 2906 1113 2906 1747 
Q 2906 2381 2643 2742 
Q 2381 3103 1925 3103 
Q 1469 3103 1208 2742 
Q 947 2381 947 1747 
z
" transform="scale(0.015625)"/>
       <path id="DejaVuSans-65" d="M 3597 1894 
L 3597 1613 
L 953 1613 
Q 991 1019 1311 708 
Q 1631 397 2203 397 
Q 2534 397 2845 478 
Q 3156 559 3463 722 
L 3463 178 
Q 3153 47 2828 -22 
Q 2503 -91 2169 -91 
Q 1331 -91 842 396 
Q 353 884 353 1716 
Q 353 2575 817 3079 
Q 1281 3584 2069 3584 
Q 2775 3584 3186 3129 
Q 3597 2675 3597 1894 
z
M 3022 2063 
Q 3016 2534 2758 2815 
Q 2500 3097 2075 3097 
Q 1594 3097 1305 2825 
Q 1016 2553 972 2059 
L 3022 2063 
z
" transform="scale(0.015625)"/>
       <path id="DejaVuSans-20" transform="scale(0.015625)"/>
       <path id="DejaVuSans-70" d="M 1159 525 
L 1159 -1331 
L 581 -1331 
L 581 3500 
L 1159 3500 
L 1159 2969 
Q 1341 3281 1617 3432 
Q 1894 3584 2278 3584 
Q 2916 3584 3314 3078 
Q 3713 2572 3713 1747 
Q 3713 922 3314 415 
Q 2916 -91 2278 -91 
Q 1894 -91 1617 61 
Q 1341 213 1159 525 
z
M 3116 1747 
Q 3116 2381 2855 2742 
Q 2594 3103 2138 3103 
Q 1681 3103 1420 2742 
Q 1159 2381 1159 1747 
Q 1159 1113 1420 752 
Q 1681 391 2138 391 
Q 2594 391 2855 752 
Q 3116 1113 3116 1747 
z
" transform="scale(0.015625)"/>
       <path id="DejaVuSans-72" d="M 2631 2963 
Q 2534 3019 2420 3045 
Q 2306 3072 2169 3072 
Q 1681 3072 1420 2755 
Q 1159 2438 1159 1844 
L 1159 0 
L 581 0 
L 581 3500 
L 1159 3500 
L 1159 2956 
Q 1341 3275 1631 3429 
Q 1922 3584 2338 3584 
Q 2397 3584 2469 3576 
Q 2541 3569 2628 3553 
L 2631 2963 
z
" transform="scale(0.015625)"/>
       <path id="DejaVuSans-6f" d="M 1959 3097 
Q 1497 3097 1228 2736 
Q 959 2375 959 1747 
Q 959 1119 1226 758 
Q 1494 397 1959 397 
Q 2419 397 2687 759 
Q 2956 1122 2956 1747 
Q 2956 2369 2687 2733 
Q 2419 3097 1959 3097 
z
M 1959 3584 
Q 2709 3584 3137 3096 
Q 3566 2609 3566 1747 
Q 3566 888 3137 398 
Q 2709 -91 1959 -91 
Q 1206 -91 779 398 
Q 353 888 353 1747 
Q 353 2609 779 3096 
Q 1206 3584 1959 3584 
z
" transform="scale(0.015625)"/>
       <path id="DejaVuSans-54" d="M -19 4666 
L 3928 4666 
L 3928 4134 
L 2272 4134 
L 2272 0 
L 1638 0 
L 1638 4134 
L -19 4134 
L -19 4666 
z
" transform="scale(0.015625)"/>
       <path id="DejaVuSans-61" d="M 2194 1759 
Q 1497 1759 1228 1600 
Q 959 1441 959 1056 
Q 959 750 1161 570 
Q 1363 391 1709 391 
Q 2188 391 2477 730 
Q 2766 1069 2766 1631 
L 2766 1759 
L 2194 1759 
z
M 3341 1997 
L 3341 0 
L 2766 0 
L 2766 531 
Q 2569 213 2275 61 
Q 1981 -91 1556 -91 
Q 1019 -91 701 211 
Q 384 513 384 1019 
Q 384 1609 779 1909 
Q 1175 2209 1959 2209 
L 2766 2209 
L 2766 2266 
Q 2766 2663 2505 2880 
Q 2244 3097 1772 3097 
Q 1472 3097 1187 3025 
Q 903 2953 641 2809 
L 641 3341 
Q 956 3463 1253 3523 
Q 1550 3584 1831 3584 
Q 2591 3584 2966 3190 
Q 3341 2797 3341 1997 
z
" transform="scale(0.015625)"/>
       <path id="DejaVuSans-67" d="M 2906 1791 
Q 2906 2416 2648 2759 
Q 2391 3103 1925 3103 
Q 1463 3103 1205 2759 
Q 947 2416 947 1791 
Q 947 1169 1205 825 
Q 1463 481 1925 481 
Q 2391 481 2648 825 
Q 2906 1169 2906 1791 
z
M 3481 434 
Q 3481 -459 3084 -895 
Q 2688 -1331 1869 -1331 
Q 1566 -1331 1297 -1286 
Q 1028 -1241 775 -1147 
L 775 -588 
Q 1028 -725 1275 -790 
Q 1522 -856 1778 -856 
Q 2344 -856 2625 -561 
Q 2906 -266 2906 331 
L 2906 616 
Q 2728 306 2450 153 
Q 2172 0 1784 0 
Q 1141 0 747 490 
Q 353 981 353 1791 
Q 353 2603 747 3093 
Q 1141 3584 1784 3584 
Q 2172 3584 2450 3431 
Q 2728 3278 2906 2969 
L 2906 3500 
L 3481 3500 
L 3481 434 
z
" transform="scale(0.015625)"/>
       <path id="DejaVuSans-45" d="M 628 4666 
L 3578 4666 
L 3578 4134 
L 1259 4134 
L 1259 2753 
L 3481 2753 
L 3481 2222 
L 1259 2222 
L 1259 531 
L 3634 531 
L 3634 0 
L 628 0 
L 628 4666 
z
" transform="scale(0.015625)"/>
       <path id="DejaVuSans-77" d="M 269 3500 
L 844 3500 
L 1563 769 
L 2278 3500 
L 2956 3500 
L 3675 769 
L 4391 3500 
L 4966 3500 
L 4050 0 
L 3372 0 
L 2619 2869 
L 1863 0 
L 1184 0 
L 269 3500 
z
" transform="scale(0.015625)"/>
       <path id="DejaVuSans-68" d="M 3513 2113 
L 3513 0 
L 2938 0 
L 2938 2094 
Q 2938 2591 2744 2837 
Q 2550 3084 2163 3084 
Q 1697 3084 1428 2787 
Q 1159 2491 1159 1978 
L 1159 0 
L 581 0 
L 581 4863 
L 1159 4863 
L 1159 2956 
Q 1366 3272 1645 3428 
Q 1925 3584 2291 3584 
Q 2894 3584 3203 3211 
Q 3513 2838 3513 2113 
z
" transform="scale(0.015625)"/>
      </defs>
      <use xlink:href="#DejaVuSans-49"/>
      <use xlink:href="#DejaVuSans-6e" x="29.492188"/>
      <use xlink:href="#DejaVuSans-7a" x="92.871094"/>
      <use xlink:href="#DejaVuSans-69" x="145.361328"/>
      <use xlink:href="#DejaVuSans-64" x="173.144531"/>
      <use xlink:href="#DejaVuSans-65" x="236.621094"/>
      <use xlink:href="#DejaVuSans-6e" x="298.144531"/>
      <use xlink:href="#DejaVuSans-7a" x="361.523438"/>
      <use xlink:href="#DejaVuSans-20" x="414.013672"/>
      <use xlink:href="#DejaVuSans-70" x="445.800781"/>
      <use xlink:href="#DejaVuSans-72" x="509.277344"/>
      <use xlink:href="#DejaVuSans-6f" x="548.140625"/>
      <use xlink:href="#DejaVuSans-20" x="609.322266"/>
      <use xlink:href="#DejaVuSans-37" x="641.109375"/>
      <use xlink:href="#DejaVuSans-20" x="704.732422"/>
      <use xlink:href="#DejaVuSans-54" x="736.519531"/>
      <use xlink:href="#DejaVuSans-61" x="781.103516"/>
      <use xlink:href="#DejaVuSans-67" x="842.382812"/>
      <use xlink:href="#DejaVuSans-65" x="905.859375"/>
      <use xlink:href="#DejaVuSans-20" x="967.382812"/>
      <use xlink:href="#DejaVuSans-70" x="999.169922"/>
      <use xlink:href="#DejaVuSans-72" x="1062.646484"/>
      <use xlink:href="#DejaVuSans-6f" x="1101.509766"/>
      <use xlink:href="#DejaVuSans-20" x="1162.691406"/>
      <use xlink:href="#DejaVuSans-31" x="1194.478516"/>
      <use xlink:href="#DejaVuSans-30" x="1258.101562"/>
      <use xlink:href="#DejaVuSans-30" x="1321.724609"/>
      <use xlink:href="#DejaVuSans-2e" x="1385.347656"/>
      <use xlink:href="#DejaVuSans-30" x="1417.134766"/>
      <use xlink:href="#DejaVuSans-30" x="1480.757812"/>
      <use xlink:href="#DejaVuSans-30" x="1544.380859"/>
      <use xlink:href="#DejaVuSans-20" x="1608.003906"/>
      <use xlink:href="#DejaVuSans-45" x="1639.791016"/>
      <use xlink:href="#DejaVuSans-69" x="1702.974609"/>
      <use xlink:href="#DejaVuSans-6e" x="1730.757812"/>
      <use xlink:href="#DejaVuSans-77" x="1794.136719"/>
      <use xlink:href="#DejaVuSans-6f" x="1875.923828"/>
      <use xlink:href="#DejaVuSans-68" x="1937.105469"/>
      <use xlink:href="#DejaVuSans-6e" x="2000.484375"/>
      <use xlink:href="#DejaVuSans-65" x="2063.863281"/>
      <use xlink:href="#DejaVuSans-72" x="2125.386719"/>
     </g>
    </g>
   </g>
   <g id="line2d_39">
    <path d="M 73.832727 265.797818 
L 77.782296 265.797818 
L 78.177253 265.401595 
L 78.57221 265.243105 
L 79.362123 265.243105 
L 79.75708 265.084616 
L 80.152037 264.688393 
L 80.546994 264.529903 
L 80.941951 264.767637 
L 82.126821 264.609148 
L 82.521778 264.13368 
L 82.916735 264.054435 
L 83.311692 263.499723 
L 83.706649 263.182744 
L 84.101606 263.420478 
L 84.496563 263.420478 
L 84.89152 262.94501 
L 85.681433 263.895946 
L 86.07639 263.816701 
L 86.471347 263.975191 
L 86.866304 263.341233 
L 87.261261 263.182744 
L 87.656218 263.737457 
L 88.051175 263.578967 
L 88.841088 262.628031 
L 89.236045 262.94501 
L 89.631002 263.578967 
L 90.025959 263.737457 
L 90.420916 263.737457 
L 90.815873 263.261989 
L 91.210829 263.182744 
L 91.605786 264.054435 
L 92.000743 263.658212 
L 92.790657 263.658212 
L 93.185614 261.835585 
L 93.580571 262.152563 
L 93.975528 262.231808 
L 94.370484 262.152563 
L 94.765441 262.390297 
L 95.555355 262.390297 
L 95.950312 263.103499 
L 96.345269 262.94501 
L 96.740226 263.341233 
L 97.530139 263.737457 
L 98.320053 263.737457 
L 99.109967 264.371414 
L 99.504924 263.895946 
L 101.084751 263.895946 
L 101.479708 264.450659 
L 101.874665 264.688393 
L 102.269622 265.163861 
L 102.664579 265.32235 
L 103.059536 265.084616 
L 107.009104 265.163861 
L 107.799018 265.243105 
L 108.193975 265.243105 
L 108.588932 265.480839 
L 112.143543 265.560084 
L 112.933457 265.797818 
L 115.698155 265.718574 
L 116.093112 265.560084 
L 118.462853 265.639329 
L 118.85781 265.797818 
L 120.437638 265.797818 
L 121.227551 265.560084 
L 123.202336 265.560084 
L 123.99225 265.797818 
L 125.967034 265.797818 
L 126.361991 265.639329 
L 128.731732 265.639329 
L 129.126689 265.797818 
L 132.681301 265.718574 
L 133.471214 265.401595 
L 133.866171 265.005371 
L 135.445999 265.084616 
L 136.235912 265.401595 
L 136.630869 265.797818 
L 140.185481 265.718574 
L 140.975395 265.480839 
L 141.370352 265.560084 
L 142.160265 265.480839 
L 143.345136 265.560084 
L 143.740093 265.639329 
L 144.530007 265.560084 
L 145.714877 265.560084 
L 146.109834 265.401595 
L 148.479575 265.401595 
L 148.874532 265.560084 
L 149.269489 265.243105 
L 149.664446 265.401595 
L 151.244273 265.401595 
L 151.63923 265.243105 
L 152.034187 265.401595 
L 152.429144 265.401595 
L 152.824101 264.926127 
L 154.008971 264.846882 
L 155.193842 264.450659 
L 155.588799 264.846882 
L 156.77367 264.926127 
L 157.168626 265.243105 
L 157.95854 265.480839 
L 161.118195 265.480839 
L 161.513152 265.243105 
L 162.303066 265.32235 
L 162.698023 264.846882 
L 163.487936 264.609148 
L 163.882893 264.054435 
L 164.27785 264.212925 
L 164.672807 264.212925 
L 165.857678 263.737457 
L 166.252634 263.420478 
L 166.647591 263.578967 
L 167.042548 263.024255 
L 167.437505 263.024255 
L 167.832462 262.548787 
L 168.227419 262.469542 
L 168.622376 261.360117 
L 169.017332 261.122383 
L 169.412289 260.171446 
L 169.807246 260.805404 
L 170.202203 260.805404 
L 170.59716 259.775223 
L 171.387074 258.824287 
L 171.782031 259.062021 
L 172.176987 259.695978 
L 172.571944 258.982776 
L 172.966901 258.982776 
L 173.361858 260.171446 
L 174.151772 261.597851 
L 174.546729 261.597851 
L 174.941685 261.835585 
L 175.336642 262.548787 
L 175.731599 262.548787 
L 176.126556 262.311053 
L 176.521513 261.677095 
L 176.91647 262.152563 
L 177.311427 262.390297 
L 177.706384 261.914829 
L 178.10134 261.201627 
L 178.496297 261.201627 
L 179.286211 262.786521 
L 179.681168 262.469542 
L 180.076125 261.914829 
L 180.866038 263.341233 
L 181.260995 263.341233 
L 181.655952 262.786521 
L 182.050909 262.707276 
L 182.445866 263.261989 
L 182.840823 263.182744 
L 183.23578 262.786521 
L 183.630737 262.231808 
L 184.42065 262.152563 
L 184.815607 258.03184 
L 185.210564 256.922415 
L 186.000478 257.477128 
L 186.395435 258.03184 
L 186.790392 258.03184 
L 187.185348 257.477128 
L 187.580305 260.646914 
L 187.975262 260.805404 
L 188.370219 260.40918 
L 188.765176 257.794106 
L 189.160133 256.922415 
L 189.55509 256.922415 
L 189.950046 257.873351 
L 190.73996 258.111085 
L 191.134917 258.111085 
L 191.529874 261.201627 
L 191.924831 262.073319 
L 192.319788 262.073319 
L 192.714745 260.250691 
L 193.109701 260.329936 
L 193.899615 260.963893 
L 194.294572 260.726159 
L 195.084486 260.726159 
L 195.479443 262.152563 
L 195.874399 262.311053 
L 196.269356 259.775223 
L 196.664313 258.903532 
L 197.454227 256.209213 
L 197.849184 256.209213 
L 198.244141 256.922415 
L 198.639098 256.129968 
L 199.034054 256.763926 
L 199.429011 257.080904 
L 199.823968 257.873351 
L 200.218925 258.111085 
L 200.613882 258.111085 
L 201.008839 257.635617 
L 201.403796 258.348819 
L 201.798752 260.012957 
L 202.193709 260.40918 
L 202.588666 260.092202 
L 203.37858 260.012957 
L 203.773537 259.616734 
L 204.168494 259.537489 
L 204.563451 259.299755 
L 204.958407 258.745042 
L 205.353364 258.982776 
L 205.748321 258.507308 
L 206.538235 258.586553 
L 206.933192 257.239394 
L 207.328149 256.684681 
L 207.723106 256.684681 
L 208.118062 256.050723 
L 208.513019 257.160149 
L 208.907976 257.160149 
L 209.302933 257.318638 
L 209.69789 259.299755 
L 210.092847 260.092202 
L 210.88276 260.488425 
L 211.277717 261.122383 
L 211.672674 260.646914 
L 212.067631 260.726159 
L 212.462588 260.012957 
L 212.857545 260.963893 
L 213.252502 260.726159 
L 213.647459 260.884649 
L 214.042415 260.171446 
L 214.437372 260.646914 
L 215.227286 261.043138 
L 215.622243 259.695978 
L 216.0172 260.012957 
L 216.412157 260.488425 
L 217.20207 260.488425 
L 217.597027 260.646914 
L 217.991984 261.043138 
L 218.386941 262.231808 
L 218.781898 263.024255 
L 219.176855 262.94501 
L 219.571812 263.420478 
L 220.361725 263.420478 
L 220.756682 262.865765 
L 221.151639 262.94501 
L 221.546596 262.865765 
L 221.941553 263.261989 
L 222.731466 263.341233 
L 223.126423 263.341233 
L 223.52138 263.895946 
L 224.311294 263.420478 
L 224.706251 263.499723 
L 225.101208 262.94501 
L 225.496165 262.94501 
L 226.286078 263.182744 
L 226.681035 261.994074 
L 227.075992 261.75634 
L 227.470949 261.201627 
L 227.865906 261.360117 
L 228.65582 260.329936 
L 229.050776 259.458244 
L 229.445733 259.775223 
L 229.84069 259.616734 
L 230.630604 259.854468 
L 231.815474 261.122383 
L 232.210431 261.201627 
L 233.395302 259.22051 
L 233.790259 259.299755 
L 234.185216 259.062021 
L 234.580173 256.763926 
L 235.765043 255.179032 
L 236.16 254.782809 
L 236.554957 254.545075 
L 236.949914 254.862053 
L 237.344871 255.733745 
L 237.739827 256.050723 
L 238.134784 256.129968 
L 238.529741 257.477128 
L 239.319655 255.6545 
L 239.714612 255.733745 
L 240.109569 254.545075 
L 240.504526 254.782809 
L 240.899482 255.812989 
L 241.294439 253.673383 
L 241.689396 255.733745 
L 242.084353 256.129968 
L 242.47931 255.892234 
L 242.874267 258.269574 
L 243.269224 258.824287 
L 243.66418 259.062021 
L 244.059137 261.201627 
L 244.454094 261.122383 
L 244.849051 261.677095 
L 245.244008 261.439361 
L 245.638965 261.439361 
L 246.428879 260.488425 
L 246.823835 260.805404 
L 247.218792 260.646914 
L 247.613749 260.805404 
L 249.193577 262.865765 
L 249.588534 262.073319 
L 249.98349 262.152563 
L 250.378447 261.914829 
L 250.773404 261.994074 
L 251.168361 262.707276 
L 251.563318 262.548787 
L 251.958275 262.707276 
L 252.748188 263.816701 
L 253.143145 264.054435 
L 253.933059 263.975191 
L 254.328016 264.846882 
L 254.722973 265.32235 
L 255.512887 265.718574 
L 257.487671 265.639329 
L 258.277585 265.560084 
L 259.067498 265.560084 
L 259.462455 265.718574 
L 264.991851 265.718574 
L 265.386808 265.560084 
L 265.781765 265.560084 
L 266.176722 265.401595 
L 268.546463 265.32235 
L 268.94142 265.163861 
L 270.521248 265.163861 
L 272.101075 265.718574 
L 273.285946 265.639329 
L 274.075859 264.688393 
L 274.470816 264.529903 
L 274.865773 263.895946 
L 276.050644 263.975191 
L 276.445601 264.292169 
L 277.235514 264.529903 
L 277.630471 265.084616 
L 278.420385 265.005371 
L 279.210299 264.926127 
L 279.605255 264.926127 
L 280.000212 264.688393 
L 281.185083 264.846882 
L 282.369954 264.13368 
L 282.76491 264.292169 
L 283.949781 263.975191 
L 284.344738 264.13368 
L 284.739695 263.103499 
L 285.134652 263.182744 
L 285.529608 262.865765 
L 285.924565 261.914829 
L 286.714479 261.994074 
L 287.109436 260.884649 
L 287.504393 261.360117 
L 287.89935 260.250691 
L 288.294307 260.012957 
L 288.689263 260.40918 
L 289.08422 260.40918 
L 289.479177 260.250691 
L 289.874134 260.726159 
L 290.269091 260.488425 
L 290.664048 261.677095 
L 291.059005 261.043138 
L 291.848918 260.963893 
L 292.243875 261.122383 
L 292.638832 259.933712 
L 293.033789 259.933712 
L 293.823703 259.22051 
L 294.21866 258.428064 
L 295.008573 258.428064 
L 295.40353 258.19033 
L 295.798487 258.19033 
L 296.193444 258.03184 
L 296.983358 260.171446 
L 297.378315 260.171446 
L 297.773271 260.329936 
L 298.168228 262.469542 
L 298.563185 263.261989 
L 299.353099 263.024255 
L 299.748056 263.578967 
L 300.143013 263.578967 
L 300.932926 261.835585 
L 301.327883 261.597851 
L 301.72284 262.311053 
L 302.117797 262.707276 
L 302.907711 262.707276 
L 303.302668 262.94501 
L 303.697624 263.578967 
L 304.092581 263.658212 
L 304.487538 263.895946 
L 304.882495 263.737457 
L 306.857279 263.658212 
L 307.252236 263.499723 
L 307.647193 263.658212 
L 308.04215 263.499723 
L 308.437107 263.578967 
L 308.832064 263.975191 
L 309.227021 262.152563 
L 309.621977 261.439361 
L 310.016934 261.280872 
L 310.806848 259.775223 
L 311.596762 259.775223 
L 311.991719 260.56767 
L 312.386676 260.329936 
L 313.176589 259.062021 
L 313.571546 258.507308 
L 314.36146 258.586553 
L 314.756417 259.299755 
L 315.54633 256.763926 
L 316.336244 257.00166 
L 316.731201 257.00166 
L 317.126158 256.84317 
L 317.521115 255.6545 
L 318.311029 256.922415 
L 318.705985 256.763926 
L 319.100942 255.496011 
L 319.495899 254.703564 
L 319.890856 254.624319 
L 320.285813 253.27716 
L 320.68077 250.662086 
L 321.075727 250.186618 
L 321.470683 248.839458 
L 321.86564 247.967767 
L 322.260597 248.760214 
L 322.655554 248.126256 
L 323.050511 246.145139 
L 323.445468 247.33381 
L 323.840425 244.877225 
L 324.235382 244.481001 
L 324.630338 245.035714 
L 325.025295 245.035714 
L 325.420252 244.401757 
L 325.815209 245.511182 
L 326.210166 245.828161 
L 326.605123 248.047012 
L 327.00008 248.601724 
L 327.395036 250.107373 
L 327.789993 250.107373 
L 328.18495 249.790394 
L 328.579907 248.839458 
L 328.974864 249.314926 
L 329.369821 249.394171 
L 329.764778 249.156437 
L 330.159735 248.760214 
L 330.554691 248.760214 
L 331.344605 251.771511 
L 332.134519 252.801692 
L 332.529476 253.752628 
L 333.714346 253.831873 
L 334.50426 256.526192 
L 334.899217 257.318638 
L 335.294174 257.635617 
L 335.689131 259.379 
L 336.084088 259.379 
L 336.874001 258.269574 
L 337.268958 256.605436 
L 337.663915 256.446947 
L 338.058872 257.794106 
L 338.453829 257.794106 
L 338.848786 256.446947 
L 339.243743 256.050723 
L 339.638699 253.911117 
L 340.033656 253.118671 
L 340.428613 251.296043 
L 341.218527 245.273448 
L 341.613484 246.620607 
L 342.008441 246.145139 
L 342.403397 246.382873 
L 342.798354 243.213087 
L 343.983225 237.428226 
L 344.378182 237.428226 
L 344.773139 236.952757 
L 345.168096 233.149013 
L 345.958009 218.092525 
L 346.352966 212.22842 
L 346.747923 199.787006 
L 347.14288 199.787006 
L 347.537837 190.832358 
L 347.932794 173.319286 
L 348.32775 165.236329 
L 348.722707 151.447756 
L 349.117664 142.968576 
L 349.512621 141.700661 
L 349.907578 141.700661 
L 350.302535 139.719545 
L 350.697492 135.123354 
L 351.092449 121.176291 
L 351.487405 116.263122 
L 352.277319 85.753923 
L 352.672276 85.753923 
L 353.067233 85.912412 
L 353.46219 84.248274 
L 353.857147 75.53136 
L 354.252104 76.87852 
L 355.042017 106.833006 
L 355.436974 106.833006 
L 355.831931 104.217931 
L 356.226888 97.561379 
L 356.621845 107.783942 
L 357.016802 109.44808 
L 357.411758 108.417899 
L 357.806715 99.62174 
L 358.201672 99.62174 
L 358.596629 109.765059 
L 358.991586 110.795239 
L 359.386543 111.270707 
L 359.7815 115.470675 
L 360.571413 128.149822 
L 360.96637 128.149822 
L 361.361327 124.821546 
L 361.756284 135.044109 
L 362.151241 139.323321 
L 362.546198 141.066704 
L 363.336111 131.16112 
L 363.731068 131.16112 
L 364.126025 126.881908 
L 364.915939 114.20276 
L 365.310896 104.455665 
L 365.705853 101.285879 
L 366.10081 96.848177 
L 366.495766 96.848177 
L 367.28568 92.568965 
L 367.680637 79.810572 
L 368.075594 84.01054 
L 368.470551 77.433232 
L 368.865508 80.206796 
L 369.260464 80.206796 
L 369.655421 75.53136 
L 370.050378 74.659669 
L 370.445335 76.403052 
L 370.840292 65.467287 
L 371.235249 63.406925 
L 371.630206 64.912574 
L 372.025163 64.912574 
L 372.420119 61.505053 
L 372.815076 52.154182 
L 373.210033 76.72003 
L 373.60499 84.565253 
L 373.999947 98.59156 
L 374.394904 121.176291 
L 374.789861 121.176291 
L 375.184818 118.244238 
L 375.579774 132.032811 
L 375.974731 130.844141 
L 376.369688 139.323321 
L 376.764645 143.761023 
L 377.554559 143.761023 
L 377.949516 147.010054 
L 378.344472 155.806213 
L 379.134386 163.492946 
L 379.529343 180.292817 
L 380.319257 180.292817 
L 380.714214 203.353016 
L 381.109171 198.756825 
L 381.504127 184.651274 
L 381.899084 180.134327 
L 382.294041 164.602372 
L 383.083955 164.602372 
L 383.478912 140.115768 
L 383.873869 145.028938 
L 384.268825 163.334457 
L 384.663782 169.436297 
L 385.058739 173.55702 
L 385.848653 173.55702 
L 386.24361 175.696626 
L 386.638567 181.798466 
L 387.033524 185.205987 
L 387.42848 191.862539 
L 387.823437 194.953081 
L 388.613351 194.953081 
L 389.008308 202.322836 
L 389.798222 212.545398 
L 390.193179 214.447271 
L 390.588135 217.617057 
L 391.378049 217.617057 
L 391.773006 221.817025 
L 392.167963 223.005695 
L 392.56292 225.383035 
L 392.957877 229.18678 
L 393.352833 229.979226 
L 394.142747 229.979226 
L 394.537704 232.911279 
L 394.932661 236.873513 
L 395.327618 238.537651 
L 395.722575 243.450821 
L 396.117532 244.164023 
L 396.907445 244.164023 
L 397.302402 244.401757 
L 397.697359 245.748916 
L 398.092316 244.084778 
L 398.487273 238.616896 
L 398.487273 238.616896 
" clip-path="url(#pfadad48bb7)" style="fill: none; stroke: #1f77b4; stroke-width: 1.5; stroke-linecap: square"/>
   </g>
   <g id="patch_3">
    <path d="M 57.6 276.48 
L 57.6 41.472 
" style="fill: none; stroke: #000000; stroke-width: 0.8; stroke-linejoin: miter; stroke-linecap: square"/>
   </g>
   <g id="patch_4">
    <path d="M 414.72 276.48 
L 414.72 41.472 
" style="fill: none; stroke: #000000; stroke-width: 0.8; stroke-linejoin: miter; stroke-linecap: square"/>
   </g>
   <g id="patch_5">
    <path d="M 57.6 276.48 
L 414.72 276.48 
" style="fill: none; stroke: #000000; stroke-width: 0.8; stroke-linejoin: miter; stroke-linecap: square"/>
   </g>
   <g id="patch_6">
    <path d="M 57.6 41.472 
L 414.72 41.472 
" style="fill: none; stroke: #000000; stroke-width: 0.8; stroke-linejoin: miter; stroke-linecap: square"/>
   </g>
  </g>
  <g id="text_21">
   <!-- Inzidenzverlauf LK Goslar -->
   <g transform="translate(116.164688 20.589187)scale(0.18 -0.18)">
    <defs>
     <path id="DejaVuSans-76" d="M 191 3500 
L 800 3500 
L 1894 563 
L 2988 3500 
L 3597 3500 
L 2284 0 
L 1503 0 
L 191 3500 
z
" transform="scale(0.015625)"/>
     <path id="DejaVuSans-6c" d="M 603 4863 
L 1178 4863 
L 1178 0 
L 603 0 
L 603 4863 
z
" transform="scale(0.015625)"/>
     <path id="DejaVuSans-75" d="M 544 1381 
L 544 3500 
L 1119 3500 
L 1119 1403 
Q 1119 906 1312 657 
Q 1506 409 1894 409 
Q 2359 409 2629 706 
Q 2900 1003 2900 1516 
L 2900 3500 
L 3475 3500 
L 3475 0 
L 2900 0 
L 2900 538 
Q 2691 219 2414 64 
Q 2138 -91 1772 -91 
Q 1169 -91 856 284 
Q 544 659 544 1381 
z
M 1991 3584 
L 1991 3584 
z
" transform="scale(0.015625)"/>
     <path id="DejaVuSans-66" d="M 2375 4863 
L 2375 4384 
L 1825 4384 
Q 1516 4384 1395 4259 
Q 1275 4134 1275 3809 
L 1275 3500 
L 2222 3500 
L 2222 3053 
L 1275 3053 
L 1275 0 
L 697 0 
L 697 3053 
L 147 3053 
L 147 3500 
L 697 3500 
L 697 3744 
Q 697 4328 969 4595 
Q 1241 4863 1831 4863 
L 2375 4863 
z
" transform="scale(0.015625)"/>
     <path id="DejaVuSans-4c" d="M 628 4666 
L 1259 4666 
L 1259 531 
L 3531 531 
L 3531 0 
L 628 0 
L 628 4666 
z
" transform="scale(0.015625)"/>
     <path id="DejaVuSans-4b" d="M 628 4666 
L 1259 4666 
L 1259 2694 
L 3353 4666 
L 4166 4666 
L 1850 2491 
L 4331 0 
L 3500 0 
L 1259 2247 
L 1259 0 
L 628 0 
L 628 4666 
z
" transform="scale(0.015625)"/>
     <path id="DejaVuSans-47" d="M 3809 666 
L 3809 1919 
L 2778 1919 
L 2778 2438 
L 4434 2438 
L 4434 434 
Q 4069 175 3628 42 
Q 3188 -91 2688 -91 
Q 1594 -91 976 548 
Q 359 1188 359 2328 
Q 359 3472 976 4111 
Q 1594 4750 2688 4750 
Q 3144 4750 3555 4637 
Q 3966 4525 4313 4306 
L 4313 3634 
Q 3963 3931 3569 4081 
Q 3175 4231 2741 4231 
Q 1884 4231 1454 3753 
Q 1025 3275 1025 2328 
Q 1025 1384 1454 906 
Q 1884 428 2741 428 
Q 3075 428 3337 486 
Q 3600 544 3809 666 
z
" transform="scale(0.015625)"/>
     <path id="DejaVuSans-73" d="M 2834 3397 
L 2834 2853 
Q 2591 2978 2328 3040 
Q 2066 3103 1784 3103 
Q 1356 3103 1142 2972 
Q 928 2841 928 2578 
Q 928 2378 1081 2264 
Q 1234 2150 1697 2047 
L 1894 2003 
Q 2506 1872 2764 1633 
Q 3022 1394 3022 966 
Q 3022 478 2636 193 
Q 2250 -91 1575 -91 
Q 1294 -91 989 -36 
Q 684 19 347 128 
L 347 722 
Q 666 556 975 473 
Q 1284 391 1588 391 
Q 1994 391 2212 530 
Q 2431 669 2431 922 
Q 2431 1156 2273 1281 
Q 2116 1406 1581 1522 
L 1381 1569 
Q 847 1681 609 1914 
Q 372 2147 372 2553 
Q 372 3047 722 3315 
Q 1072 3584 1716 3584 
Q 2034 3584 2315 3537 
Q 2597 3491 2834 3397 
z
" transform="scale(0.015625)"/>
    </defs>
    <use xlink:href="#DejaVuSans-49"/>
    <use xlink:href="#DejaVuSans-6e" x="29.492188"/>
    <use xlink:href="#DejaVuSans-7a" x="92.871094"/>
    <use xlink:href="#DejaVuSans-69" x="145.361328"/>
    <use xlink:href="#DejaVuSans-64" x="173.144531"/>
    <use xlink:href="#DejaVuSans-65" x="236.621094"/>
    <use xlink:href="#DejaVuSans-6e" x="298.144531"/>
    <use xlink:href="#DejaVuSans-7a" x="361.523438"/>
    <use xlink:href="#DejaVuSans-76" x="414.013672"/>
    <use xlink:href="#DejaVuSans-65" x="473.193359"/>
    <use xlink:href="#DejaVuSans-72" x="534.716797"/>
    <use xlink:href="#DejaVuSans-6c" x="575.830078"/>
    <use xlink:href="#DejaVuSans-61" x="603.613281"/>
    <use xlink:href="#DejaVuSans-75" x="664.892578"/>
    <use xlink:href="#DejaVuSans-66" x="728.271484"/>
    <use xlink:href="#DejaVuSans-20" x="763.476562"/>
    <use xlink:href="#DejaVuSans-4c" x="795.263672"/>
    <use xlink:href="#DejaVuSans-4b" x="850.976562"/>
    <use xlink:href="#DejaVuSans-20" x="916.552734"/>
    <use xlink:href="#DejaVuSans-47" x="948.339844"/>
    <use xlink:href="#DejaVuSans-6f" x="1025.830078"/>
    <use xlink:href="#DejaVuSans-73" x="1087.011719"/>
    <use xlink:href="#DejaVuSans-6c" x="1139.111328"/>
    <use xlink:href="#DejaVuSans-61" x="1166.894531"/>
    <use xlink:href="#DejaVuSans-72" x="1228.173828"/>
   </g>
  </g>
 </g>
 <defs>
  <clipPath id="pfadad48bb7">
   <rect x="57.6" y="41.472" width="357.12" height="235.008"/>
  </clipPath>
 </defs>
</svg>
