<?xml version="1.0" encoding="utf-8" standalone="no"?>
<!DOCTYPE svg PUBLIC "-//W3C//DTD SVG 1.1//EN"
  "http://www.w3.org/Graphics/SVG/1.1/DTD/svg11.dtd">
<svg xmlns:xlink="http://www.w3.org/1999/xlink" width="460.8pt" height="345.6pt" viewBox="0 0 460.8 345.6" xmlns="http://www.w3.org/2000/svg" version="1.1">
 <metadata>
  <rdf:RDF xmlns:dc="http://purl.org/dc/elements/1.1/" xmlns:cc="http://creativecommons.org/ns#" xmlns:rdf="http://www.w3.org/1999/02/22-rdf-syntax-ns#">
   <cc:Work>
    <dc:type rdf:resource="http://purl.org/dc/dcmitype/StillImage"/>
    <dc:date>2022-10-15T09:29:30.388185</dc:date>
    <dc:format>image/svg+xml</dc:format>
    <dc:creator>
     <cc:Agent>
      <dc:title>Matplotlib v3.6.1, https://matplotlib.org/</dc:title>
     </cc:Agent>
    </dc:creator>
   </cc:Work>
  </rdf:RDF>
 </metadata>
 <defs>
  <style type="text/css">*{stroke-linejoin: round; stroke-linecap: butt}</style>
 </defs>
 <g id="figure_1">
  <g id="patch_1">
   <path d="M 0 345.6 
L 460.8 345.6 
L 460.8 0 
L 0 0 
z
" style="fill: #ffffff"/>
  </g>
  <g id="axes_1">
   <g id="patch_2">
    <path d="M 57.6 276.48 
L 414.72 276.48 
L 414.72 41.472 
L 57.6 41.472 
z
" style="fill: #ffffff"/>
   </g>
   <g id="matplotlib.axis_1">
    <g id="xtick_1">
     <g id="line2d_1">
      <path d="M 60.008307 276.48 
L 60.008307 41.472 
" clip-path="url(#pd8d3afd428)" style="fill: none; stroke-dasharray: 2.96,1.28; stroke-dashoffset: 0; stroke: #808080; stroke-width: 0.8"/>
     </g>
     <g id="line2d_2">
      <defs>
       <path id="mb4b1d4263c" d="M 0 0 
L 0 3.5 
" style="stroke: #000000; stroke-width: 0.8"/>
      </defs>
      <g>
       <use xlink:href="#mb4b1d4263c" x="60.008307" y="276.48" style="stroke: #000000; stroke-width: 0.8"/>
      </g>
     </g>
     <g id="text_1">
      <!-- 22.01.2020 -->
      <g transform="translate(9.383097 318.688565) rotate(-30) scale(0.1 -0.1)">
       <defs>
        <path id="DejaVuSans-32" d="M 1228 531 
L 3431 531 
L 3431 0 
L 469 0 
L 469 531 
Q 828 903 1448 1529 
Q 2069 2156 2228 2338 
Q 2531 2678 2651 2914 
Q 2772 3150 2772 3378 
Q 2772 3750 2511 3984 
Q 2250 4219 1831 4219 
Q 1534 4219 1204 4116 
Q 875 4013 500 3803 
L 500 4441 
Q 881 4594 1212 4672 
Q 1544 4750 1819 4750 
Q 2544 4750 2975 4387 
Q 3406 4025 3406 3419 
Q 3406 3131 3298 2873 
Q 3191 2616 2906 2266 
Q 2828 2175 2409 1742 
Q 1991 1309 1228 531 
z
" transform="scale(0.015625)"/>
        <path id="DejaVuSans-2e" d="M 684 794 
L 1344 794 
L 1344 0 
L 684 0 
L 684 794 
z
" transform="scale(0.015625)"/>
        <path id="DejaVuSans-30" d="M 2034 4250 
Q 1547 4250 1301 3770 
Q 1056 3291 1056 2328 
Q 1056 1369 1301 889 
Q 1547 409 2034 409 
Q 2525 409 2770 889 
Q 3016 1369 3016 2328 
Q 3016 3291 2770 3770 
Q 2525 4250 2034 4250 
z
M 2034 4750 
Q 2819 4750 3233 4129 
Q 3647 3509 3647 2328 
Q 3647 1150 3233 529 
Q 2819 -91 2034 -91 
Q 1250 -91 836 529 
Q 422 1150 422 2328 
Q 422 3509 836 4129 
Q 1250 4750 2034 4750 
z
" transform="scale(0.015625)"/>
        <path id="DejaVuSans-31" d="M 794 531 
L 1825 531 
L 1825 4091 
L 703 3866 
L 703 4441 
L 1819 4666 
L 2450 4666 
L 2450 531 
L 3481 531 
L 3481 0 
L 794 0 
L 794 531 
z
" transform="scale(0.015625)"/>
       </defs>
       <use xlink:href="#DejaVuSans-32"/>
       <use xlink:href="#DejaVuSans-32" x="63.623047"/>
       <use xlink:href="#DejaVuSans-2e" x="127.246094"/>
       <use xlink:href="#DejaVuSans-30" x="159.033203"/>
       <use xlink:href="#DejaVuSans-31" x="222.65625"/>
       <use xlink:href="#DejaVuSans-2e" x="286.279297"/>
       <use xlink:href="#DejaVuSans-32" x="318.066406"/>
       <use xlink:href="#DejaVuSans-30" x="381.689453"/>
       <use xlink:href="#DejaVuSans-32" x="445.3125"/>
       <use xlink:href="#DejaVuSans-30" x="508.935547"/>
      </g>
     </g>
    </g>
    <g id="xtick_2">
     <g id="line2d_3">
      <path d="M 96.005569 276.48 
L 96.005569 41.472 
" clip-path="url(#pd8d3afd428)" style="fill: none; stroke-dasharray: 2.96,1.28; stroke-dashoffset: 0; stroke: #808080; stroke-width: 0.8"/>
     </g>
     <g id="line2d_4">
      <g>
       <use xlink:href="#mb4b1d4263c" x="96.005569" y="276.48" style="stroke: #000000; stroke-width: 0.8"/>
      </g>
     </g>
     <g id="text_2">
      <!-- 07.05.2020 -->
      <g transform="translate(45.380358 318.688565) rotate(-30) scale(0.1 -0.1)">
       <defs>
        <path id="DejaVuSans-37" d="M 525 4666 
L 3525 4666 
L 3525 4397 
L 1831 0 
L 1172 0 
L 2766 4134 
L 525 4134 
L 525 4666 
z
" transform="scale(0.015625)"/>
        <path id="DejaVuSans-35" d="M 691 4666 
L 3169 4666 
L 3169 4134 
L 1269 4134 
L 1269 2991 
Q 1406 3038 1543 3061 
Q 1681 3084 1819 3084 
Q 2600 3084 3056 2656 
Q 3513 2228 3513 1497 
Q 3513 744 3044 326 
Q 2575 -91 1722 -91 
Q 1428 -91 1123 -41 
Q 819 9 494 109 
L 494 744 
Q 775 591 1075 516 
Q 1375 441 1709 441 
Q 2250 441 2565 725 
Q 2881 1009 2881 1497 
Q 2881 1984 2565 2268 
Q 2250 2553 1709 2553 
Q 1456 2553 1204 2497 
Q 953 2441 691 2322 
L 691 4666 
z
" transform="scale(0.015625)"/>
       </defs>
       <use xlink:href="#DejaVuSans-30"/>
       <use xlink:href="#DejaVuSans-37" x="63.623047"/>
       <use xlink:href="#DejaVuSans-2e" x="127.246094"/>
       <use xlink:href="#DejaVuSans-30" x="159.033203"/>
       <use xlink:href="#DejaVuSans-35" x="222.65625"/>
       <use xlink:href="#DejaVuSans-2e" x="286.279297"/>
       <use xlink:href="#DejaVuSans-32" x="318.066406"/>
       <use xlink:href="#DejaVuSans-30" x="381.689453"/>
       <use xlink:href="#DejaVuSans-32" x="445.3125"/>
       <use xlink:href="#DejaVuSans-30" x="508.935547"/>
      </g>
     </g>
    </g>
    <g id="xtick_3">
     <g id="line2d_5">
      <path d="M 132.00283 276.48 
L 132.00283 41.472 
" clip-path="url(#pd8d3afd428)" style="fill: none; stroke-dasharray: 2.96,1.28; stroke-dashoffset: 0; stroke: #808080; stroke-width: 0.8"/>
     </g>
     <g id="line2d_6">
      <g>
       <use xlink:href="#mb4b1d4263c" x="132.00283" y="276.48" style="stroke: #000000; stroke-width: 0.8"/>
      </g>
     </g>
     <g id="text_3">
      <!-- 21.08.2020 -->
      <g transform="translate(81.377619 318.688565) rotate(-30) scale(0.1 -0.1)">
       <defs>
        <path id="DejaVuSans-38" d="M 2034 2216 
Q 1584 2216 1326 1975 
Q 1069 1734 1069 1313 
Q 1069 891 1326 650 
Q 1584 409 2034 409 
Q 2484 409 2743 651 
Q 3003 894 3003 1313 
Q 3003 1734 2745 1975 
Q 2488 2216 2034 2216 
z
M 1403 2484 
Q 997 2584 770 2862 
Q 544 3141 544 3541 
Q 544 4100 942 4425 
Q 1341 4750 2034 4750 
Q 2731 4750 3128 4425 
Q 3525 4100 3525 3541 
Q 3525 3141 3298 2862 
Q 3072 2584 2669 2484 
Q 3125 2378 3379 2068 
Q 3634 1759 3634 1313 
Q 3634 634 3220 271 
Q 2806 -91 2034 -91 
Q 1263 -91 848 271 
Q 434 634 434 1313 
Q 434 1759 690 2068 
Q 947 2378 1403 2484 
z
M 1172 3481 
Q 1172 3119 1398 2916 
Q 1625 2713 2034 2713 
Q 2441 2713 2670 2916 
Q 2900 3119 2900 3481 
Q 2900 3844 2670 4047 
Q 2441 4250 2034 4250 
Q 1625 4250 1398 4047 
Q 1172 3844 1172 3481 
z
" transform="scale(0.015625)"/>
       </defs>
       <use xlink:href="#DejaVuSans-32"/>
       <use xlink:href="#DejaVuSans-31" x="63.623047"/>
       <use xlink:href="#DejaVuSans-2e" x="127.246094"/>
       <use xlink:href="#DejaVuSans-30" x="159.033203"/>
       <use xlink:href="#DejaVuSans-38" x="222.65625"/>
       <use xlink:href="#DejaVuSans-2e" x="286.279297"/>
       <use xlink:href="#DejaVuSans-32" x="318.066406"/>
       <use xlink:href="#DejaVuSans-30" x="381.689453"/>
       <use xlink:href="#DejaVuSans-32" x="445.3125"/>
       <use xlink:href="#DejaVuSans-30" x="508.935547"/>
      </g>
     </g>
    </g>
    <g id="xtick_4">
     <g id="line2d_7">
      <path d="M 168.000091 276.48 
L 168.000091 41.472 
" clip-path="url(#pd8d3afd428)" style="fill: none; stroke-dasharray: 2.96,1.28; stroke-dashoffset: 0; stroke: #808080; stroke-width: 0.8"/>
     </g>
     <g id="line2d_8">
      <g>
       <use xlink:href="#mb4b1d4263c" x="168.000091" y="276.48" style="stroke: #000000; stroke-width: 0.8"/>
      </g>
     </g>
     <g id="text_4">
      <!-- 05.12.2020 -->
      <g transform="translate(117.374881 318.688565) rotate(-30) scale(0.1 -0.1)">
       <use xlink:href="#DejaVuSans-30"/>
       <use xlink:href="#DejaVuSans-35" x="63.623047"/>
       <use xlink:href="#DejaVuSans-2e" x="127.246094"/>
       <use xlink:href="#DejaVuSans-31" x="159.033203"/>
       <use xlink:href="#DejaVuSans-32" x="222.65625"/>
       <use xlink:href="#DejaVuSans-2e" x="286.279297"/>
       <use xlink:href="#DejaVuSans-32" x="318.066406"/>
       <use xlink:href="#DejaVuSans-30" x="381.689453"/>
       <use xlink:href="#DejaVuSans-32" x="445.3125"/>
       <use xlink:href="#DejaVuSans-30" x="508.935547"/>
      </g>
     </g>
    </g>
    <g id="xtick_5">
     <g id="line2d_9">
      <path d="M 203.997353 276.48 
L 203.997353 41.472 
" clip-path="url(#pd8d3afd428)" style="fill: none; stroke-dasharray: 2.96,1.28; stroke-dashoffset: 0; stroke: #808080; stroke-width: 0.8"/>
     </g>
     <g id="line2d_10">
      <g>
       <use xlink:href="#mb4b1d4263c" x="203.997353" y="276.48" style="stroke: #000000; stroke-width: 0.8"/>
      </g>
     </g>
     <g id="text_5">
      <!-- 21.03.2021 -->
      <g transform="translate(153.372142 318.688565) rotate(-30) scale(0.1 -0.1)">
       <defs>
        <path id="DejaVuSans-33" d="M 2597 2516 
Q 3050 2419 3304 2112 
Q 3559 1806 3559 1356 
Q 3559 666 3084 287 
Q 2609 -91 1734 -91 
Q 1441 -91 1130 -33 
Q 819 25 488 141 
L 488 750 
Q 750 597 1062 519 
Q 1375 441 1716 441 
Q 2309 441 2620 675 
Q 2931 909 2931 1356 
Q 2931 1769 2642 2001 
Q 2353 2234 1838 2234 
L 1294 2234 
L 1294 2753 
L 1863 2753 
Q 2328 2753 2575 2939 
Q 2822 3125 2822 3475 
Q 2822 3834 2567 4026 
Q 2313 4219 1838 4219 
Q 1578 4219 1281 4162 
Q 984 4106 628 3988 
L 628 4550 
Q 988 4650 1302 4700 
Q 1616 4750 1894 4750 
Q 2613 4750 3031 4423 
Q 3450 4097 3450 3541 
Q 3450 3153 3228 2886 
Q 3006 2619 2597 2516 
z
" transform="scale(0.015625)"/>
       </defs>
       <use xlink:href="#DejaVuSans-32"/>
       <use xlink:href="#DejaVuSans-31" x="63.623047"/>
       <use xlink:href="#DejaVuSans-2e" x="127.246094"/>
       <use xlink:href="#DejaVuSans-30" x="159.033203"/>
       <use xlink:href="#DejaVuSans-33" x="222.65625"/>
       <use xlink:href="#DejaVuSans-2e" x="286.279297"/>
       <use xlink:href="#DejaVuSans-32" x="318.066406"/>
       <use xlink:href="#DejaVuSans-30" x="381.689453"/>
       <use xlink:href="#DejaVuSans-32" x="445.3125"/>
       <use xlink:href="#DejaVuSans-31" x="508.935547"/>
      </g>
     </g>
    </g>
    <g id="xtick_6">
     <g id="line2d_11">
      <path d="M 239.994614 276.48 
L 239.994614 41.472 
" clip-path="url(#pd8d3afd428)" style="fill: none; stroke-dasharray: 2.96,1.28; stroke-dashoffset: 0; stroke: #808080; stroke-width: 0.8"/>
     </g>
     <g id="line2d_12">
      <g>
       <use xlink:href="#mb4b1d4263c" x="239.994614" y="276.48" style="stroke: #000000; stroke-width: 0.8"/>
      </g>
     </g>
     <g id="text_6">
      <!-- 05.07.2021 -->
      <g transform="translate(189.369403 318.688565) rotate(-30) scale(0.1 -0.1)">
       <use xlink:href="#DejaVuSans-30"/>
       <use xlink:href="#DejaVuSans-35" x="63.623047"/>
       <use xlink:href="#DejaVuSans-2e" x="127.246094"/>
       <use xlink:href="#DejaVuSans-30" x="159.033203"/>
       <use xlink:href="#DejaVuSans-37" x="222.65625"/>
       <use xlink:href="#DejaVuSans-2e" x="286.279297"/>
       <use xlink:href="#DejaVuSans-32" x="318.066406"/>
       <use xlink:href="#DejaVuSans-30" x="381.689453"/>
       <use xlink:href="#DejaVuSans-32" x="445.3125"/>
       <use xlink:href="#DejaVuSans-31" x="508.935547"/>
      </g>
     </g>
    </g>
    <g id="xtick_7">
     <g id="line2d_13">
      <path d="M 275.991875 276.48 
L 275.991875 41.472 
" clip-path="url(#pd8d3afd428)" style="fill: none; stroke-dasharray: 2.96,1.28; stroke-dashoffset: 0; stroke: #808080; stroke-width: 0.8"/>
     </g>
     <g id="line2d_14">
      <g>
       <use xlink:href="#mb4b1d4263c" x="275.991875" y="276.48" style="stroke: #000000; stroke-width: 0.8"/>
      </g>
     </g>
     <g id="text_7">
      <!-- 19.10.2021 -->
      <g transform="translate(225.366664 318.688565) rotate(-30) scale(0.1 -0.1)">
       <defs>
        <path id="DejaVuSans-39" d="M 703 97 
L 703 672 
Q 941 559 1184 500 
Q 1428 441 1663 441 
Q 2288 441 2617 861 
Q 2947 1281 2994 2138 
Q 2813 1869 2534 1725 
Q 2256 1581 1919 1581 
Q 1219 1581 811 2004 
Q 403 2428 403 3163 
Q 403 3881 828 4315 
Q 1253 4750 1959 4750 
Q 2769 4750 3195 4129 
Q 3622 3509 3622 2328 
Q 3622 1225 3098 567 
Q 2575 -91 1691 -91 
Q 1453 -91 1209 -44 
Q 966 3 703 97 
z
M 1959 2075 
Q 2384 2075 2632 2365 
Q 2881 2656 2881 3163 
Q 2881 3666 2632 3958 
Q 2384 4250 1959 4250 
Q 1534 4250 1286 3958 
Q 1038 3666 1038 3163 
Q 1038 2656 1286 2365 
Q 1534 2075 1959 2075 
z
" transform="scale(0.015625)"/>
       </defs>
       <use xlink:href="#DejaVuSans-31"/>
       <use xlink:href="#DejaVuSans-39" x="63.623047"/>
       <use xlink:href="#DejaVuSans-2e" x="127.246094"/>
       <use xlink:href="#DejaVuSans-31" x="159.033203"/>
       <use xlink:href="#DejaVuSans-30" x="222.65625"/>
       <use xlink:href="#DejaVuSans-2e" x="286.279297"/>
       <use xlink:href="#DejaVuSans-32" x="318.066406"/>
       <use xlink:href="#DejaVuSans-30" x="381.689453"/>
       <use xlink:href="#DejaVuSans-32" x="445.3125"/>
       <use xlink:href="#DejaVuSans-31" x="508.935547"/>
      </g>
     </g>
    </g>
    <g id="xtick_8">
     <g id="line2d_15">
      <path d="M 311.989137 276.48 
L 311.989137 41.472 
" clip-path="url(#pd8d3afd428)" style="fill: none; stroke-dasharray: 2.96,1.28; stroke-dashoffset: 0; stroke: #808080; stroke-width: 0.8"/>
     </g>
     <g id="line2d_16">
      <g>
       <use xlink:href="#mb4b1d4263c" x="311.989137" y="276.48" style="stroke: #000000; stroke-width: 0.8"/>
      </g>
     </g>
     <g id="text_8">
      <!-- 02.02.2022 -->
      <g transform="translate(261.363926 318.688565) rotate(-30) scale(0.1 -0.1)">
       <use xlink:href="#DejaVuSans-30"/>
       <use xlink:href="#DejaVuSans-32" x="63.623047"/>
       <use xlink:href="#DejaVuSans-2e" x="127.246094"/>
       <use xlink:href="#DejaVuSans-30" x="159.033203"/>
       <use xlink:href="#DejaVuSans-32" x="222.65625"/>
       <use xlink:href="#DejaVuSans-2e" x="286.279297"/>
       <use xlink:href="#DejaVuSans-32" x="318.066406"/>
       <use xlink:href="#DejaVuSans-30" x="381.689453"/>
       <use xlink:href="#DejaVuSans-32" x="445.3125"/>
       <use xlink:href="#DejaVuSans-32" x="508.935547"/>
      </g>
     </g>
    </g>
    <g id="xtick_9">
     <g id="line2d_17">
      <path d="M 347.986398 276.48 
L 347.986398 41.472 
" clip-path="url(#pd8d3afd428)" style="fill: none; stroke-dasharray: 2.96,1.28; stroke-dashoffset: 0; stroke: #808080; stroke-width: 0.8"/>
     </g>
     <g id="line2d_18">
      <g>
       <use xlink:href="#mb4b1d4263c" x="347.986398" y="276.48" style="stroke: #000000; stroke-width: 0.8"/>
      </g>
     </g>
     <g id="text_9">
      <!-- 19.05.2022 -->
      <g transform="translate(297.361187 318.688565) rotate(-30) scale(0.1 -0.1)">
       <use xlink:href="#DejaVuSans-31"/>
       <use xlink:href="#DejaVuSans-39" x="63.623047"/>
       <use xlink:href="#DejaVuSans-2e" x="127.246094"/>
       <use xlink:href="#DejaVuSans-30" x="159.033203"/>
       <use xlink:href="#DejaVuSans-35" x="222.65625"/>
       <use xlink:href="#DejaVuSans-2e" x="286.279297"/>
       <use xlink:href="#DejaVuSans-32" x="318.066406"/>
       <use xlink:href="#DejaVuSans-30" x="381.689453"/>
       <use xlink:href="#DejaVuSans-32" x="445.3125"/>
       <use xlink:href="#DejaVuSans-32" x="508.935547"/>
      </g>
     </g>
    </g>
    <g id="xtick_10">
     <g id="line2d_19">
      <path d="M 383.983659 276.48 
L 383.983659 41.472 
" clip-path="url(#pd8d3afd428)" style="fill: none; stroke-dasharray: 2.96,1.28; stroke-dashoffset: 0; stroke: #808080; stroke-width: 0.8"/>
     </g>
     <g id="line2d_20">
      <g>
       <use xlink:href="#mb4b1d4263c" x="383.983659" y="276.48" style="stroke: #000000; stroke-width: 0.8"/>
      </g>
     </g>
     <g id="text_10">
      <!-- 02.09.2022 -->
      <g transform="translate(333.358448 318.688565) rotate(-30) scale(0.1 -0.1)">
       <use xlink:href="#DejaVuSans-30"/>
       <use xlink:href="#DejaVuSans-32" x="63.623047"/>
       <use xlink:href="#DejaVuSans-2e" x="127.246094"/>
       <use xlink:href="#DejaVuSans-30" x="159.033203"/>
       <use xlink:href="#DejaVuSans-39" x="222.65625"/>
       <use xlink:href="#DejaVuSans-2e" x="286.279297"/>
       <use xlink:href="#DejaVuSans-32" x="318.066406"/>
       <use xlink:href="#DejaVuSans-30" x="381.689453"/>
       <use xlink:href="#DejaVuSans-32" x="445.3125"/>
       <use xlink:href="#DejaVuSans-32" x="508.935547"/>
      </g>
     </g>
    </g>
   </g>
   <g id="matplotlib.axis_2">
    <g id="ytick_1">
     <g id="line2d_21">
      <path d="M 57.6 265.797818 
L 414.72 265.797818 
" clip-path="url(#pd8d3afd428)" style="fill: none; stroke-dasharray: 2.96,1.28; stroke-dashoffset: 0; stroke: #808080; stroke-width: 0.8"/>
     </g>
     <g id="line2d_22">
      <defs>
       <path id="mf9fc0ccf7d" d="M 0 0 
L -3.5 0 
" style="stroke: #000000; stroke-width: 0.8"/>
      </defs>
      <g>
       <use xlink:href="#mf9fc0ccf7d" x="57.6" y="265.797818" style="stroke: #000000; stroke-width: 0.8"/>
      </g>
     </g>
     <g id="text_11">
      <!-- 0 -->
      <g transform="translate(44.2375 269.597037) scale(0.1 -0.1)">
       <use xlink:href="#DejaVuSans-30"/>
      </g>
     </g>
    </g>
    <g id="ytick_2">
     <g id="line2d_23">
      <path d="M 57.6 228.972019 
L 414.72 228.972019 
" clip-path="url(#pd8d3afd428)" style="fill: none; stroke-dasharray: 2.96,1.28; stroke-dashoffset: 0; stroke: #808080; stroke-width: 0.8"/>
     </g>
     <g id="line2d_24">
      <g>
       <use xlink:href="#mf9fc0ccf7d" x="57.6" y="228.972019" style="stroke: #000000; stroke-width: 0.8"/>
      </g>
     </g>
     <g id="text_12">
      <!-- 500 -->
      <g transform="translate(31.5125 232.771238) scale(0.1 -0.1)">
       <use xlink:href="#DejaVuSans-35"/>
       <use xlink:href="#DejaVuSans-30" x="63.623047"/>
       <use xlink:href="#DejaVuSans-30" x="127.246094"/>
      </g>
     </g>
    </g>
    <g id="ytick_3">
     <g id="line2d_25">
      <path d="M 57.6 192.146219 
L 414.72 192.146219 
" clip-path="url(#pd8d3afd428)" style="fill: none; stroke-dasharray: 2.96,1.28; stroke-dashoffset: 0; stroke: #808080; stroke-width: 0.8"/>
     </g>
     <g id="line2d_26">
      <g>
       <use xlink:href="#mf9fc0ccf7d" x="57.6" y="192.146219" style="stroke: #000000; stroke-width: 0.8"/>
      </g>
     </g>
     <g id="text_13">
      <!-- 1000 -->
      <g transform="translate(25.15 195.945438) scale(0.1 -0.1)">
       <use xlink:href="#DejaVuSans-31"/>
       <use xlink:href="#DejaVuSans-30" x="63.623047"/>
       <use xlink:href="#DejaVuSans-30" x="127.246094"/>
       <use xlink:href="#DejaVuSans-30" x="190.869141"/>
      </g>
     </g>
    </g>
    <g id="ytick_4">
     <g id="line2d_27">
      <path d="M 57.6 155.32042 
L 414.72 155.32042 
" clip-path="url(#pd8d3afd428)" style="fill: none; stroke-dasharray: 2.96,1.28; stroke-dashoffset: 0; stroke: #808080; stroke-width: 0.8"/>
     </g>
     <g id="line2d_28">
      <g>
       <use xlink:href="#mf9fc0ccf7d" x="57.6" y="155.32042" style="stroke: #000000; stroke-width: 0.8"/>
      </g>
     </g>
     <g id="text_14">
      <!-- 1500 -->
      <g transform="translate(25.15 159.119639) scale(0.1 -0.1)">
       <use xlink:href="#DejaVuSans-31"/>
       <use xlink:href="#DejaVuSans-35" x="63.623047"/>
       <use xlink:href="#DejaVuSans-30" x="127.246094"/>
       <use xlink:href="#DejaVuSans-30" x="190.869141"/>
      </g>
     </g>
    </g>
    <g id="ytick_5">
     <g id="line2d_29">
      <path d="M 57.6 118.494621 
L 414.72 118.494621 
" clip-path="url(#pd8d3afd428)" style="fill: none; stroke-dasharray: 2.96,1.28; stroke-dashoffset: 0; stroke: #808080; stroke-width: 0.8"/>
     </g>
     <g id="line2d_30">
      <g>
       <use xlink:href="#mf9fc0ccf7d" x="57.6" y="118.494621" style="stroke: #000000; stroke-width: 0.8"/>
      </g>
     </g>
     <g id="text_15">
      <!-- 2000 -->
      <g transform="translate(25.15 122.29384) scale(0.1 -0.1)">
       <use xlink:href="#DejaVuSans-32"/>
       <use xlink:href="#DejaVuSans-30" x="63.623047"/>
       <use xlink:href="#DejaVuSans-30" x="127.246094"/>
       <use xlink:href="#DejaVuSans-30" x="190.869141"/>
      </g>
     </g>
    </g>
    <g id="ytick_6">
     <g id="line2d_31">
      <path d="M 57.6 81.668821 
L 414.72 81.668821 
" clip-path="url(#pd8d3afd428)" style="fill: none; stroke-dasharray: 2.96,1.28; stroke-dashoffset: 0; stroke: #808080; stroke-width: 0.8"/>
     </g>
     <g id="line2d_32">
      <g>
       <use xlink:href="#mf9fc0ccf7d" x="57.6" y="81.668821" style="stroke: #000000; stroke-width: 0.8"/>
      </g>
     </g>
     <g id="text_16">
      <!-- 2500 -->
      <g transform="translate(25.15 85.46804) scale(0.1 -0.1)">
       <use xlink:href="#DejaVuSans-32"/>
       <use xlink:href="#DejaVuSans-35" x="63.623047"/>
       <use xlink:href="#DejaVuSans-30" x="127.246094"/>
       <use xlink:href="#DejaVuSans-30" x="190.869141"/>
      </g>
     </g>
    </g>
    <g id="ytick_7">
     <g id="line2d_33">
      <path d="M 57.6 44.843022 
L 414.72 44.843022 
" clip-path="url(#pd8d3afd428)" style="fill: none; stroke-dasharray: 2.96,1.28; stroke-dashoffset: 0; stroke: #808080; stroke-width: 0.8"/>
     </g>
     <g id="line2d_34">
      <g>
       <use xlink:href="#mf9fc0ccf7d" x="57.6" y="44.843022" style="stroke: #000000; stroke-width: 0.8"/>
      </g>
     </g>
     <g id="text_17">
      <!-- 3000 -->
      <g transform="translate(25.15 48.642241) scale(0.1 -0.1)">
       <use xlink:href="#DejaVuSans-33"/>
       <use xlink:href="#DejaVuSans-30" x="63.623047"/>
       <use xlink:href="#DejaVuSans-30" x="127.246094"/>
       <use xlink:href="#DejaVuSans-30" x="190.869141"/>
      </g>
     </g>
    </g>
    <g id="text_18">
     <!-- Inzidenz pro 7 Tage pro 100.000 Einwohner -->
     <g transform="translate(19.070312 267.301) rotate(-90) scale(0.1 -0.1)">
      <defs>
       <path id="DejaVuSans-49" d="M 628 4666 
L 1259 4666 
L 1259 0 
L 628 0 
L 628 4666 
z
" transform="scale(0.015625)"/>
       <path id="DejaVuSans-6e" d="M 3513 2113 
L 3513 0 
L 2938 0 
L 2938 2094 
Q 2938 2591 2744 2837 
Q 2550 3084 2163 3084 
Q 1697 3084 1428 2787 
Q 1159 2491 1159 1978 
L 1159 0 
L 581 0 
L 581 3500 
L 1159 3500 
L 1159 2956 
Q 1366 3272 1645 3428 
Q 1925 3584 2291 3584 
Q 2894 3584 3203 3211 
Q 3513 2838 3513 2113 
z
" transform="scale(0.015625)"/>
       <path id="DejaVuSans-7a" d="M 353 3500 
L 3084 3500 
L 3084 2975 
L 922 459 
L 3084 459 
L 3084 0 
L 275 0 
L 275 525 
L 2438 3041 
L 353 3041 
L 353 3500 
z
" transform="scale(0.015625)"/>
       <path id="DejaVuSans-69" d="M 603 3500 
L 1178 3500 
L 1178 0 
L 603 0 
L 603 3500 
z
M 603 4863 
L 1178 4863 
L 1178 4134 
L 603 4134 
L 603 4863 
z
" transform="scale(0.015625)"/>
       <path id="DejaVuSans-64" d="M 2906 2969 
L 2906 4863 
L 3481 4863 
L 3481 0 
L 2906 0 
L 2906 525 
Q 2725 213 2448 61 
Q 2172 -91 1784 -91 
Q 1150 -91 751 415 
Q 353 922 353 1747 
Q 353 2572 751 3078 
Q 1150 3584 1784 3584 
Q 2172 3584 2448 3432 
Q 2725 3281 2906 2969 
z
M 947 1747 
Q 947 1113 1208 752 
Q 1469 391 1925 391 
Q 2381 391 2643 752 
Q 2906 1113 2906 1747 
Q 2906 2381 2643 2742 
Q 2381 3103 1925 3103 
Q 1469 3103 1208 2742 
Q 947 2381 947 1747 
z
" transform="scale(0.015625)"/>
       <path id="DejaVuSans-65" d="M 3597 1894 
L 3597 1613 
L 953 1613 
Q 991 1019 1311 708 
Q 1631 397 2203 397 
Q 2534 397 2845 478 
Q 3156 559 3463 722 
L 3463 178 
Q 3153 47 2828 -22 
Q 2503 -91 2169 -91 
Q 1331 -91 842 396 
Q 353 884 353 1716 
Q 353 2575 817 3079 
Q 1281 3584 2069 3584 
Q 2775 3584 3186 3129 
Q 3597 2675 3597 1894 
z
M 3022 2063 
Q 3016 2534 2758 2815 
Q 2500 3097 2075 3097 
Q 1594 3097 1305 2825 
Q 1016 2553 972 2059 
L 3022 2063 
z
" transform="scale(0.015625)"/>
       <path id="DejaVuSans-20" transform="scale(0.015625)"/>
       <path id="DejaVuSans-70" d="M 1159 525 
L 1159 -1331 
L 581 -1331 
L 581 3500 
L 1159 3500 
L 1159 2969 
Q 1341 3281 1617 3432 
Q 1894 3584 2278 3584 
Q 2916 3584 3314 3078 
Q 3713 2572 3713 1747 
Q 3713 922 3314 415 
Q 2916 -91 2278 -91 
Q 1894 -91 1617 61 
Q 1341 213 1159 525 
z
M 3116 1747 
Q 3116 2381 2855 2742 
Q 2594 3103 2138 3103 
Q 1681 3103 1420 2742 
Q 1159 2381 1159 1747 
Q 1159 1113 1420 752 
Q 1681 391 2138 391 
Q 2594 391 2855 752 
Q 3116 1113 3116 1747 
z
" transform="scale(0.015625)"/>
       <path id="DejaVuSans-72" d="M 2631 2963 
Q 2534 3019 2420 3045 
Q 2306 3072 2169 3072 
Q 1681 3072 1420 2755 
Q 1159 2438 1159 1844 
L 1159 0 
L 581 0 
L 581 3500 
L 1159 3500 
L 1159 2956 
Q 1341 3275 1631 3429 
Q 1922 3584 2338 3584 
Q 2397 3584 2469 3576 
Q 2541 3569 2628 3553 
L 2631 2963 
z
" transform="scale(0.015625)"/>
       <path id="DejaVuSans-6f" d="M 1959 3097 
Q 1497 3097 1228 2736 
Q 959 2375 959 1747 
Q 959 1119 1226 758 
Q 1494 397 1959 397 
Q 2419 397 2687 759 
Q 2956 1122 2956 1747 
Q 2956 2369 2687 2733 
Q 2419 3097 1959 3097 
z
M 1959 3584 
Q 2709 3584 3137 3096 
Q 3566 2609 3566 1747 
Q 3566 888 3137 398 
Q 2709 -91 1959 -91 
Q 1206 -91 779 398 
Q 353 888 353 1747 
Q 353 2609 779 3096 
Q 1206 3584 1959 3584 
z
" transform="scale(0.015625)"/>
       <path id="DejaVuSans-54" d="M -19 4666 
L 3928 4666 
L 3928 4134 
L 2272 4134 
L 2272 0 
L 1638 0 
L 1638 4134 
L -19 4134 
L -19 4666 
z
" transform="scale(0.015625)"/>
       <path id="DejaVuSans-61" d="M 2194 1759 
Q 1497 1759 1228 1600 
Q 959 1441 959 1056 
Q 959 750 1161 570 
Q 1363 391 1709 391 
Q 2188 391 2477 730 
Q 2766 1069 2766 1631 
L 2766 1759 
L 2194 1759 
z
M 3341 1997 
L 3341 0 
L 2766 0 
L 2766 531 
Q 2569 213 2275 61 
Q 1981 -91 1556 -91 
Q 1019 -91 701 211 
Q 384 513 384 1019 
Q 384 1609 779 1909 
Q 1175 2209 1959 2209 
L 2766 2209 
L 2766 2266 
Q 2766 2663 2505 2880 
Q 2244 3097 1772 3097 
Q 1472 3097 1187 3025 
Q 903 2953 641 2809 
L 641 3341 
Q 956 3463 1253 3523 
Q 1550 3584 1831 3584 
Q 2591 3584 2966 3190 
Q 3341 2797 3341 1997 
z
" transform="scale(0.015625)"/>
       <path id="DejaVuSans-67" d="M 2906 1791 
Q 2906 2416 2648 2759 
Q 2391 3103 1925 3103 
Q 1463 3103 1205 2759 
Q 947 2416 947 1791 
Q 947 1169 1205 825 
Q 1463 481 1925 481 
Q 2391 481 2648 825 
Q 2906 1169 2906 1791 
z
M 3481 434 
Q 3481 -459 3084 -895 
Q 2688 -1331 1869 -1331 
Q 1566 -1331 1297 -1286 
Q 1028 -1241 775 -1147 
L 775 -588 
Q 1028 -725 1275 -790 
Q 1522 -856 1778 -856 
Q 2344 -856 2625 -561 
Q 2906 -266 2906 331 
L 2906 616 
Q 2728 306 2450 153 
Q 2172 0 1784 0 
Q 1141 0 747 490 
Q 353 981 353 1791 
Q 353 2603 747 3093 
Q 1141 3584 1784 3584 
Q 2172 3584 2450 3431 
Q 2728 3278 2906 2969 
L 2906 3500 
L 3481 3500 
L 3481 434 
z
" transform="scale(0.015625)"/>
       <path id="DejaVuSans-45" d="M 628 4666 
L 3578 4666 
L 3578 4134 
L 1259 4134 
L 1259 2753 
L 3481 2753 
L 3481 2222 
L 1259 2222 
L 1259 531 
L 3634 531 
L 3634 0 
L 628 0 
L 628 4666 
z
" transform="scale(0.015625)"/>
       <path id="DejaVuSans-77" d="M 269 3500 
L 844 3500 
L 1563 769 
L 2278 3500 
L 2956 3500 
L 3675 769 
L 4391 3500 
L 4966 3500 
L 4050 0 
L 3372 0 
L 2619 2869 
L 1863 0 
L 1184 0 
L 269 3500 
z
" transform="scale(0.015625)"/>
       <path id="DejaVuSans-68" d="M 3513 2113 
L 3513 0 
L 2938 0 
L 2938 2094 
Q 2938 2591 2744 2837 
Q 2550 3084 2163 3084 
Q 1697 3084 1428 2787 
Q 1159 2491 1159 1978 
L 1159 0 
L 581 0 
L 581 4863 
L 1159 4863 
L 1159 2956 
Q 1366 3272 1645 3428 
Q 1925 3584 2291 3584 
Q 2894 3584 3203 3211 
Q 3513 2838 3513 2113 
z
" transform="scale(0.015625)"/>
      </defs>
      <use xlink:href="#DejaVuSans-49"/>
      <use xlink:href="#DejaVuSans-6e" x="29.492188"/>
      <use xlink:href="#DejaVuSans-7a" x="92.871094"/>
      <use xlink:href="#DejaVuSans-69" x="145.361328"/>
      <use xlink:href="#DejaVuSans-64" x="173.144531"/>
      <use xlink:href="#DejaVuSans-65" x="236.621094"/>
      <use xlink:href="#DejaVuSans-6e" x="298.144531"/>
      <use xlink:href="#DejaVuSans-7a" x="361.523438"/>
      <use xlink:href="#DejaVuSans-20" x="414.013672"/>
      <use xlink:href="#DejaVuSans-70" x="445.800781"/>
      <use xlink:href="#DejaVuSans-72" x="509.277344"/>
      <use xlink:href="#DejaVuSans-6f" x="548.140625"/>
      <use xlink:href="#DejaVuSans-20" x="609.322266"/>
      <use xlink:href="#DejaVuSans-37" x="641.109375"/>
      <use xlink:href="#DejaVuSans-20" x="704.732422"/>
      <use xlink:href="#DejaVuSans-54" x="736.519531"/>
      <use xlink:href="#DejaVuSans-61" x="781.103516"/>
      <use xlink:href="#DejaVuSans-67" x="842.382812"/>
      <use xlink:href="#DejaVuSans-65" x="905.859375"/>
      <use xlink:href="#DejaVuSans-20" x="967.382812"/>
      <use xlink:href="#DejaVuSans-70" x="999.169922"/>
      <use xlink:href="#DejaVuSans-72" x="1062.646484"/>
      <use xlink:href="#DejaVuSans-6f" x="1101.509766"/>
      <use xlink:href="#DejaVuSans-20" x="1162.691406"/>
      <use xlink:href="#DejaVuSans-31" x="1194.478516"/>
      <use xlink:href="#DejaVuSans-30" x="1258.101562"/>
      <use xlink:href="#DejaVuSans-30" x="1321.724609"/>
      <use xlink:href="#DejaVuSans-2e" x="1385.347656"/>
      <use xlink:href="#DejaVuSans-30" x="1417.134766"/>
      <use xlink:href="#DejaVuSans-30" x="1480.757812"/>
      <use xlink:href="#DejaVuSans-30" x="1544.380859"/>
      <use xlink:href="#DejaVuSans-20" x="1608.003906"/>
      <use xlink:href="#DejaVuSans-45" x="1639.791016"/>
      <use xlink:href="#DejaVuSans-69" x="1702.974609"/>
      <use xlink:href="#DejaVuSans-6e" x="1730.757812"/>
      <use xlink:href="#DejaVuSans-77" x="1794.136719"/>
      <use xlink:href="#DejaVuSans-6f" x="1875.923828"/>
      <use xlink:href="#DejaVuSans-68" x="1937.105469"/>
      <use xlink:href="#DejaVuSans-6e" x="2000.484375"/>
      <use xlink:href="#DejaVuSans-65" x="2063.863281"/>
      <use xlink:href="#DejaVuSans-72" x="2125.386719"/>
     </g>
    </g>
   </g>
   <g id="line2d_35">
    <path d="M 73.832727 265.797818 
L 78.926679 265.728498 
L 79.605873 265.589859 
L 80.285067 265.17394 
L 80.96426 264.965981 
L 81.983051 263.371625 
L 82.322647 262.817067 
L 82.662244 262.678427 
L 83.001841 262.747747 
L 83.341438 262.678427 
L 83.681035 262.747747 
L 84.020631 263.371625 
L 84.360228 263.371625 
L 84.699825 263.787544 
L 85.039422 263.163666 
L 85.718615 263.094346 
L 86.058212 263.510265 
L 86.397809 263.371625 
L 87.077003 264.272782 
L 87.416599 265.17394 
L 87.756196 265.17394 
L 88.095793 265.381899 
L 88.774987 265.520539 
L 89.114583 265.451219 
L 89.793777 265.10462 
L 90.472971 265.10462 
L 90.812568 264.688701 
L 91.152164 264.688701 
L 91.831358 265.0353 
L 92.170955 265.17394 
L 92.850148 265.24326 
L 93.189745 265.659179 
L 93.868939 265.728498 
L 95.227326 265.659179 
L 95.90652 265.381899 
L 97.604504 265.381899 
L 98.283697 265.659179 
L 98.962891 265.659179 
L 99.302488 265.797818 
L 102.358859 265.728498 
L 102.698456 265.520539 
L 103.717246 265.381899 
L 104.736037 265.381899 
L 105.41523 265.728498 
L 106.094424 265.797818 
L 119.338699 265.728498 
L 120.35749 265.381899 
L 121.715877 265.31258 
L 122.39507 265.659179 
L 123.074264 265.728498 
L 125.791038 265.659179 
L 126.130635 265.451219 
L 129.526603 265.520539 
L 129.8662 265.659179 
L 131.903781 265.589859 
L 132.582975 265.520539 
L 133.262168 265.520539 
L 133.941362 265.728498 
L 136.318539 265.728498 
L 137.33733 265.17394 
L 138.695717 264.965981 
L 139.035314 265.17394 
L 140.054104 265.451219 
L 141.072895 264.064823 
L 141.412491 263.995503 
L 141.752088 263.440945 
L 142.091685 263.302305 
L 142.431282 263.302305 
L 143.450072 264.619382 
L 143.789669 264.619382 
L 144.129266 265.24326 
L 144.468863 265.381899 
L 145.148056 265.381899 
L 145.487653 265.520539 
L 145.82725 265.451219 
L 146.84604 265.589859 
L 147.864831 265.659179 
L 148.204428 265.797818 
L 148.544024 265.520539 
L 148.883621 265.520539 
L 149.562815 265.10462 
L 150.242008 264.965981 
L 150.581605 264.758021 
L 150.921202 264.688701 
L 151.260799 264.272782 
L 151.600396 264.411422 
L 151.939992 264.272782 
L 152.279589 264.342102 
L 152.619186 264.134143 
L 153.29838 264.342102 
L 153.637976 263.926183 
L 153.977573 263.856864 
L 154.31717 264.064823 
L 154.656767 263.856864 
L 154.996364 263.856864 
L 155.33596 263.510265 
L 155.675557 262.955706 
L 156.354751 263.302305 
L 157.713138 262.123869 
L 158.052735 262.609107 
L 158.392332 262.609107 
L 158.731928 262.054549 
L 159.071525 262.123869 
L 159.750719 261.77727 
L 160.090316 261.153391 
L 160.769509 258.380599 
L 161.109106 257.895361 
L 161.448703 255.954406 
L 161.7883 255.607807 
L 162.127897 254.221411 
L 162.467493 252.072497 
L 162.80709 252.904335 
L 163.146687 253.112294 
L 163.486284 250.616781 
L 163.825881 251.864538 
L 164.165477 251.864538 
L 164.505074 251.656578 
L 164.844671 253.736172 
L 165.184268 252.973654 
L 165.523865 253.874812 
L 165.863461 256.370325 
L 166.203058 255.885086 
L 166.542655 256.301005 
L 166.882252 257.548761 
L 167.221849 257.202162 
L 167.561445 257.687401 
L 167.901042 256.162365 
L 168.240639 255.399848 
L 168.580236 255.954406 
L 168.919833 255.538487 
L 169.259429 254.49869 
L 169.599026 254.082771 
L 169.938623 252.973654 
L 170.27822 250.131542 
L 170.617817 249.784943 
L 171.29701 246.457593 
L 171.976204 243.684801 
L 172.315801 243.75412 
L 172.655397 245.903034 
L 172.994994 245.417796 
L 173.334591 243.75412 
L 173.674188 244.239359 
L 174.013785 243.96208 
L 174.353382 242.437044 
L 174.692978 242.645004 
L 175.032575 242.298405 
L 175.372172 243.130242 
L 175.711769 246.804192 
L 176.051366 246.734872 
L 176.390962 247.150791 
L 176.730559 247.28943 
L 177.070156 245.071197 
L 177.409753 244.308679 
L 177.74935 243.130242 
L 178.088946 243.060922 
L 178.428543 244.100719 
L 178.76814 243.684801 
L 179.78693 245.695075 
L 180.126527 245.556435 
L 180.805721 245.556435 
L 181.484914 247.220111 
L 182.164108 248.606507 
L 182.503705 248.953106 
L 182.843302 248.745146 
L 183.182898 248.953106 
L 183.862092 251.864538 
L 184.201689 253.597533 
L 184.541286 254.082771 
L 184.880882 255.469167 
L 185.220479 255.469167 
L 185.560076 255.191888 
L 185.899673 255.469167 
L 186.23927 254.290731 
L 186.578866 254.42937 
L 186.918463 255.399848 
L 187.25806 255.053249 
L 187.597657 255.399848 
L 188.276851 254.013451 
L 188.616447 255.053249 
L 189.295641 254.36005 
L 189.635238 255.261208 
L 189.974835 255.469167 
L 190.314431 256.578284 
L 190.993625 259.420396 
L 191.333222 260.390873 
L 191.672819 260.182914 
L 192.012415 260.252234 
L 192.691609 259.559036 
L 193.710399 257.340802 
L 194.049996 258.588559 
L 194.389593 258.519239 
L 194.72919 258.588559 
L 195.068787 258.935158 
L 195.408383 259.004477 
L 196.087577 260.321554 
L 196.427174 259.628356 
L 196.766771 259.905635 
L 197.106367 259.974955 
L 197.445964 260.252234 
L 197.785561 260.113594 
L 198.125158 258.519239 
L 199.483545 254.914609 
L 199.823142 254.70665 
L 200.162739 254.775969 
L 200.502335 254.42937 
L 200.841932 254.36005 
L 201.521126 252.627055 
L 201.860723 252.141817 
L 202.20032 251.448619 
L 202.539916 250.131542 
L 202.879513 250.755421 
L 203.21911 250.547461 
L 203.898304 251.795218 
L 204.2379 252.696375 
L 204.577497 252.141817 
L 204.917094 250.339502 
L 205.256691 249.299705 
L 205.596288 247.150791 
L 206.615078 244.377999 
L 206.954675 242.506364 
L 207.294272 245.487116 
L 207.633868 242.783643 
L 207.973465 241.674526 
L 208.652659 240.981328 
L 208.992256 241.813166 
L 209.331852 243.75412 
L 209.671449 242.645004 
L 210.011046 245.209836 
L 210.350643 245.764395 
L 210.69024 245.487116 
L 211.369433 242.229085 
L 211.70903 241.813166 
L 212.048627 240.28813 
L 212.388224 240.42677 
L 212.72782 240.149491 
L 213.407014 240.42677 
L 213.746611 241.466567 
L 214.086208 241.535887 
L 214.425804 243.268882 
L 214.765401 243.130242 
L 215.104998 244.0314 
L 215.444595 244.0314 
L 215.784192 245.695075 
L 216.123789 244.377999 
L 216.463385 244.516638 
L 216.802982 244.100719 
L 217.142579 242.159765 
L 217.482176 243.684801 
L 217.821773 243.96208 
L 218.161369 245.071197 
L 218.500966 246.734872 
L 218.840563 246.318953 
L 219.18016 247.56671 
L 219.519757 249.784943 
L 219.859353 249.646304 
L 220.19895 251.309979 
L 220.538547 250.96338 
L 220.878144 249.992903 
L 221.217741 251.309979 
L 221.557337 250.686101 
L 221.896934 252.696375 
L 222.576128 253.666852 
L 223.255321 255.746447 
L 223.594918 255.261208 
L 223.934515 256.716924 
L 224.274112 255.885086 
L 224.613709 256.716924 
L 224.953305 256.716924 
L 225.292902 256.370325 
L 225.632499 257.687401 
L 225.972096 258.380599 
L 226.311693 258.311279 
L 226.651289 259.489716 
L 226.990886 259.836315 
L 227.330483 260.668153 
L 227.67008 261.153391 
L 228.009677 261.084072 
L 228.349273 261.292031 
L 228.68887 261.63863 
L 229.028467 262.262508 
L 229.707661 263.094346 
L 230.386854 263.163666 
L 231.066048 263.995503 
L 231.405645 264.272782 
L 232.084838 264.342102 
L 232.764032 265.0353 
L 233.782822 265.10462 
L 234.122419 265.381899 
L 235.14121 265.520539 
L 235.820403 265.589859 
L 236.16 265.728498 
L 249.404275 265.659179 
L 249.743872 265.451219 
L 250.083469 265.451219 
L 250.423066 265.31258 
L 250.762663 265.381899 
L 251.781453 265.24326 
L 252.12105 265.451219 
L 252.460647 264.965981 
L 252.800243 264.896661 
L 253.13984 264.688701 
L 253.479437 264.758021 
L 254.158631 264.688701 
L 255.517018 264.758021 
L 255.856615 264.411422 
L 256.535808 264.480742 
L 256.875405 264.480742 
L 257.215002 264.688701 
L 257.894196 264.550062 
L 258.233792 264.827341 
L 258.573389 264.619382 
L 259.59218 264.411422 
L 259.931776 264.203463 
L 260.271373 264.272782 
L 260.950567 263.232985 
L 261.290164 263.232985 
L 261.62976 262.539787 
L 261.969357 262.331828 
L 262.308954 261.63863 
L 262.648551 261.56931 
L 262.988148 261.63863 
L 263.327744 261.846589 
L 263.667341 261.846589 
L 264.006938 262.470468 
L 264.346535 261.63863 
L 264.686132 262.401148 
L 265.025728 261.63863 
L 265.365325 261.292031 
L 265.704922 261.222711 
L 266.044519 260.806792 
L 266.384116 260.876112 
L 266.723712 261.985229 
L 267.063309 262.054549 
L 267.402906 262.817067 
L 267.742503 262.955706 
L 268.0821 262.886386 
L 268.421696 263.094346 
L 268.761293 262.817067 
L 269.10089 261.846589 
L 269.440487 262.054549 
L 269.780084 261.49999 
L 270.11968 261.49999 
L 270.459277 261.70795 
L 270.798874 261.361351 
L 271.138471 261.430671 
L 271.478068 262.193188 
L 272.157261 261.985229 
L 272.496858 261.846589 
L 272.836455 260.945432 
L 273.176052 261.153391 
L 273.855245 259.836315 
L 274.194842 258.449919 
L 274.534439 258.034 
L 274.874036 255.399848 
L 275.213633 255.053249 
L 275.553229 253.320253 
L 275.892826 252.349776 
L 276.232423 249.438344 
L 276.57202 247.843989 
L 276.911617 244.724598 
L 277.59081 242.159765 
L 277.930407 242.783643 
L 278.270004 241.605207 
L 278.609601 242.159765 
L 278.949197 240.21881 
L 279.288794 239.317653 
L 279.628391 239.664252 
L 279.967988 239.040374 
L 280.307585 237.099419 
L 280.647181 235.851663 
L 280.986778 233.772069 
L 281.326375 233.28683 
L 281.665972 231.345876 
L 282.005569 228.087845 
L 282.345165 229.196962 
L 282.684762 227.394647 
L 283.363956 221.779743 
L 283.703553 220.670626 
L 284.043149 220.531986 
L 284.382746 223.374098 
L 284.722343 222.61158 
L 285.06194 226.07757 
L 285.401537 228.226484 
L 285.741134 227.186687 
L 286.08073 224.691174 
L 286.420327 223.582057 
L 286.759924 217.481915 
L 287.099521 213.669325 
L 287.439118 208.53966 
L 288.118311 192.734745 
L 288.457908 190.93243 
L 288.797505 190.447191 
L 289.137102 192.249506 
L 289.476698 192.734745 
L 289.816295 190.79379 
L 290.155892 190.308551 
L 290.835086 194.745019 
L 291.174682 184.555008 
L 291.514279 184.970927 
L 291.853876 186.773241 
L 292.193473 183.86181 
L 292.53307 183.099292 
L 292.872666 182.822013 
L 293.212263 175.266154 
L 293.55186 174.919555 
L 293.891457 170.483087 
L 294.231054 164.244305 
L 294.57065 163.897706 
L 294.910247 165.838661 
L 295.249844 165.9773 
L 295.589441 166.601178 
L 295.929038 169.373971 
L 296.608231 183.237931 
L 296.947828 187.18916 
L 297.287425 186.288003 
L 297.627022 184.277729 
L 297.966618 175.335474 
L 298.306215 187.3278 
L 298.645812 190.100592 
L 299.325006 200.567882 
L 299.664603 202.092918 
L 300.004199 202.162238 
L 300.343796 210.619254 
L 300.683393 207.846462 
L 301.362587 207.846462 
L 301.702183 205.697548 
L 302.04178 218.591032 
L 302.381377 226.701449 
L 302.720974 237.584658 
L 303.060571 239.872211 
L 303.400167 240.42677 
L 303.739764 238.069897 
L 304.079361 240.773369 
L 304.418958 240.28813 
L 304.758555 245.140517 
L 305.098151 245.209836 
L 305.437748 247.56671 
L 305.777345 247.636029 
L 306.116942 249.230385 
L 306.456539 251.379299 
L 307.135732 250.131542 
L 307.475329 252.627055 
L 307.814926 252.349776 
L 308.154523 252.280456 
L 308.494119 249.923583 
L 308.833716 249.923583 
L 309.51291 247.774669 
L 310.871297 235.643703 
L 311.210894 235.643703 
L 311.550491 233.35615 
L 311.890087 227.325327 
L 312.229684 217.897834 
L 312.569281 215.74892 
L 313.248475 206.737345 
L 313.588072 202.092918 
L 313.927668 203.202035 
L 314.267265 199.736045 
L 314.606862 200.775842 
L 314.946459 193.913181 
L 315.286056 190.86311 
L 315.625652 190.308551 
L 315.965249 191.902907 
L 316.304846 188.991475 
L 316.644443 187.743719 
L 316.98404 185.941404 
L 317.323636 189.753993 
L 317.663233 190.93243 
L 318.00283 190.72447 
L 318.342427 186.634602 
L 318.682024 184.485688 
L 319.02162 176.51391 
L 319.361217 175.820712 
L 319.700814 163.759066 
L 320.380008 159.807838 
L 320.719604 158.976 
L 321.059201 160.986274 
L 321.398798 164.868183 
L 322.077992 160.708995 
L 322.417588 155.30205 
L 322.757185 158.005523 
L 323.096782 153.846334 
L 323.436379 154.678172 
L 323.775976 156.064568 
L 324.115572 156.965726 
L 324.455169 174.434316 
L 324.794766 180.881058 
L 325.134363 180.881058 
L 325.47396 172.839961 
L 325.813556 167.918255 
L 326.153153 165.90798 
L 326.49275 148.855309 
L 326.832347 121.266027 
L 327.511541 107.194106 
L 327.851137 101.995121 
L 328.190734 85.289048 
L 328.530331 87.853881 
L 329.209525 111.561254 
L 329.549121 98.66777 
L 329.888718 106.847507 
L 330.228315 122.652423 
L 330.567912 131.040119 
L 330.907509 129.029845 
L 331.586702 91.111912 
L 331.926299 78.149108 
L 332.265896 72.256925 
L 332.945089 57.699766 
L 333.284686 52.154182 
L 333.624283 58.254325 
L 333.96388 73.712641 
L 334.303477 104.837233 
L 334.643073 103.242877 
L 334.98267 114.334046 
L 335.322267 133.258353 
L 335.661864 143.517684 
L 337.020251 202.578157 
L 337.359848 209.648777 
L 337.699445 210.965853 
L 338.039041 213.738645 
L 338.378638 214.778442 
L 338.718235 209.926056 
L 339.057832 197.101892 
L 339.397429 198.834887 
L 339.737025 195.923456 
L 340.076622 189.684673 
L 340.416219 188.644876 
L 341.095413 200.706522 
L 341.43501 211.93633 
L 341.774606 210.896533 
L 342.114203 212.00565 
L 343.132994 237.168739 
L 343.47259 240.42677 
L 343.812187 241.813166 
L 344.491381 245.972354 
L 344.830978 243.96208 
L 345.170574 245.833715 
L 345.510171 246.388273 
L 345.849768 246.249633 
L 346.189365 247.913309 
L 346.528962 247.913309 
L 346.868558 245.209836 
L 347.208155 247.56671 
L 347.547752 248.606507 
L 347.887349 250.478141 
L 348.226946 253.042974 
L 348.566542 253.666852 
L 348.906139 252.280456 
L 349.245736 254.42937 
L 349.585333 255.191888 
L 349.92493 254.983929 
L 350.264526 255.954406 
L 350.604123 258.10332 
L 350.94372 257.479442 
L 351.283317 258.727198 
L 351.622914 258.657878 
L 351.96251 259.559036 
L 352.302107 259.281757 
L 352.641704 257.410122 
L 352.981301 256.301005 
L 353.660494 256.578284 
L 354.000091 254.983929 
L 354.339688 254.914609 
L 354.679285 257.340802 
L 355.018882 257.826041 
L 355.358479 256.439645 
L 355.698075 254.152091 
L 356.037672 253.458893 
L 356.377269 254.775969 
L 356.716866 253.389573 
L 357.056463 250.82474 
L 357.396059 250.82474 
L 357.735656 250.408822 
L 358.075253 249.507664 
L 358.41485 250.200862 
L 358.754447 248.467867 
L 359.094043 249.576984 
L 359.43364 248.259908 
L 359.773237 246.180314 
L 360.112834 247.012151 
L 360.452431 246.249633 
L 360.792027 245.001877 
L 361.131624 247.081471 
L 361.471221 243.338202 
L 361.810818 242.367724 
L 362.150415 240.634729 
L 362.490011 239.525612 
L 362.829608 240.010851 
L 363.169205 241.258608 
L 363.508802 238.901734 
L 363.848399 241.466567 
L 364.187995 239.733572 
L 364.527592 241.882486 
L 364.867189 240.981328 
L 365.206786 242.298405 
L 365.546383 240.634729 
L 365.885979 242.922283 
L 366.225576 240.49609 
L 366.565173 243.546161 
L 366.90477 242.506364 
L 367.244367 237.723298 
L 367.583963 234.811866 
L 367.92356 234.395947 
L 368.263157 234.257307 
L 368.602754 236.059622 
L 368.942351 232.732272 
L 369.281948 231.415195 
L 369.621544 233.009551 
L 369.961141 235.851663 
L 370.640335 233.078871 
L 370.979932 232.662952 
L 371.659125 235.920983 
L 371.998722 239.109694 
L 372.338319 238.971054 
L 372.677916 242.506364 
L 373.017512 244.585958 
L 373.357109 242.991603 
L 373.696706 243.82344 
L 374.036303 242.922283 
L 374.3759 242.506364 
L 374.715496 244.585958 
L 375.055093 243.199562 
L 375.39469 242.852963 
L 375.734287 245.279156 
L 376.41348 246.318953 
L 376.753077 247.774669 
L 377.092674 246.734872 
L 378.111464 245.001877 
L 378.790658 246.110994 
L 379.130255 244.932557 
L 379.469852 246.388273 
L 379.809448 246.388273 
L 380.149045 246.526913 
L 380.828239 247.705349 
L 381.167836 250.200862 
L 381.847029 248.121268 
L 382.186626 250.062223 
L 382.526223 248.606507 
L 382.86582 248.329228 
L 383.205417 251.17134 
L 383.545013 247.35875 
L 383.88461 250.478141 
L 384.224207 250.339502 
L 384.563804 248.259908 
L 384.903401 250.408822 
L 385.242997 249.438344 
L 385.582594 243.060922 
L 385.922191 245.764395 
L 386.261788 244.239359 
L 386.601385 240.634729 
L 387.280578 240.565409 
L 387.620175 241.466567 
L 387.959772 240.149491 
L 388.638965 234.742546 
L 389.318159 236.336901 
L 389.657756 235.505064 
L 389.997353 236.475541 
L 390.676546 246.734872 
L 391.016143 247.012151 
L 391.35574 248.329228 
L 392.034933 247.012151 
L 392.37453 245.764395 
L 392.714127 239.040374 
L 393.393321 231.415195 
L 393.732917 231.692475 
L 394.072514 230.306078 
L 394.412111 230.028799 
L 394.751708 231.484515 
L 395.091305 238.277856 
L 395.430901 233.910708 
L 395.770498 223.374098 
L 396.110095 221.363824 
L 396.449692 220.185387 
L 396.789289 221.363824 
L 397.128886 218.591032 
L 397.468482 213.461366 
L 397.808079 196.200735 
L 398.147676 207.291903 
L 398.487273 207.291903 
L 398.487273 207.291903 
" clip-path="url(#pd8d3afd428)" style="fill: none; stroke: #1f77b4; stroke-width: 1.5; stroke-linecap: square"/>
   </g>
   <g id="patch_3">
    <path d="M 57.6 276.48 
L 57.6 41.472 
" style="fill: none; stroke: #000000; stroke-width: 0.8; stroke-linejoin: miter; stroke-linecap: square"/>
   </g>
   <g id="patch_4">
    <path d="M 414.72 276.48 
L 414.72 41.472 
" style="fill: none; stroke: #000000; stroke-width: 0.8; stroke-linejoin: miter; stroke-linecap: square"/>
   </g>
   <g id="patch_5">
    <path d="M 57.6 276.48 
L 414.72 276.48 
" style="fill: none; stroke: #000000; stroke-width: 0.8; stroke-linejoin: miter; stroke-linecap: square"/>
   </g>
   <g id="patch_6">
    <path d="M 57.6 41.472 
L 414.72 41.472 
" style="fill: none; stroke: #000000; stroke-width: 0.8; stroke-linejoin: miter; stroke-linecap: square"/>
   </g>
  </g>
  <g id="text_19">
   <!-- Inzidenzverlauf LK Ilm-Kreis -->
   <g transform="translate(105.754219 20.589187) scale(0.18 -0.18)">
    <defs>
     <path id="DejaVuSans-76" d="M 191 3500 
L 800 3500 
L 1894 563 
L 2988 3500 
L 3597 3500 
L 2284 0 
L 1503 0 
L 191 3500 
z
" transform="scale(0.015625)"/>
     <path id="DejaVuSans-6c" d="M 603 4863 
L 1178 4863 
L 1178 0 
L 603 0 
L 603 4863 
z
" transform="scale(0.015625)"/>
     <path id="DejaVuSans-75" d="M 544 1381 
L 544 3500 
L 1119 3500 
L 1119 1403 
Q 1119 906 1312 657 
Q 1506 409 1894 409 
Q 2359 409 2629 706 
Q 2900 1003 2900 1516 
L 2900 3500 
L 3475 3500 
L 3475 0 
L 2900 0 
L 2900 538 
Q 2691 219 2414 64 
Q 2138 -91 1772 -91 
Q 1169 -91 856 284 
Q 544 659 544 1381 
z
M 1991 3584 
L 1991 3584 
z
" transform="scale(0.015625)"/>
     <path id="DejaVuSans-66" d="M 2375 4863 
L 2375 4384 
L 1825 4384 
Q 1516 4384 1395 4259 
Q 1275 4134 1275 3809 
L 1275 3500 
L 2222 3500 
L 2222 3053 
L 1275 3053 
L 1275 0 
L 697 0 
L 697 3053 
L 147 3053 
L 147 3500 
L 697 3500 
L 697 3744 
Q 697 4328 969 4595 
Q 1241 4863 1831 4863 
L 2375 4863 
z
" transform="scale(0.015625)"/>
     <path id="DejaVuSans-4c" d="M 628 4666 
L 1259 4666 
L 1259 531 
L 3531 531 
L 3531 0 
L 628 0 
L 628 4666 
z
" transform="scale(0.015625)"/>
     <path id="DejaVuSans-4b" d="M 628 4666 
L 1259 4666 
L 1259 2694 
L 3353 4666 
L 4166 4666 
L 1850 2491 
L 4331 0 
L 3500 0 
L 1259 2247 
L 1259 0 
L 628 0 
L 628 4666 
z
" transform="scale(0.015625)"/>
     <path id="DejaVuSans-6d" d="M 3328 2828 
Q 3544 3216 3844 3400 
Q 4144 3584 4550 3584 
Q 5097 3584 5394 3201 
Q 5691 2819 5691 2113 
L 5691 0 
L 5113 0 
L 5113 2094 
Q 5113 2597 4934 2840 
Q 4756 3084 4391 3084 
Q 3944 3084 3684 2787 
Q 3425 2491 3425 1978 
L 3425 0 
L 2847 0 
L 2847 2094 
Q 2847 2600 2669 2842 
Q 2491 3084 2119 3084 
Q 1678 3084 1418 2786 
Q 1159 2488 1159 1978 
L 1159 0 
L 581 0 
L 581 3500 
L 1159 3500 
L 1159 2956 
Q 1356 3278 1631 3431 
Q 1906 3584 2284 3584 
Q 2666 3584 2933 3390 
Q 3200 3197 3328 2828 
z
" transform="scale(0.015625)"/>
     <path id="DejaVuSans-2d" d="M 313 2009 
L 1997 2009 
L 1997 1497 
L 313 1497 
L 313 2009 
z
" transform="scale(0.015625)"/>
     <path id="DejaVuSans-73" d="M 2834 3397 
L 2834 2853 
Q 2591 2978 2328 3040 
Q 2066 3103 1784 3103 
Q 1356 3103 1142 2972 
Q 928 2841 928 2578 
Q 928 2378 1081 2264 
Q 1234 2150 1697 2047 
L 1894 2003 
Q 2506 1872 2764 1633 
Q 3022 1394 3022 966 
Q 3022 478 2636 193 
Q 2250 -91 1575 -91 
Q 1294 -91 989 -36 
Q 684 19 347 128 
L 347 722 
Q 666 556 975 473 
Q 1284 391 1588 391 
Q 1994 391 2212 530 
Q 2431 669 2431 922 
Q 2431 1156 2273 1281 
Q 2116 1406 1581 1522 
L 1381 1569 
Q 847 1681 609 1914 
Q 372 2147 372 2553 
Q 372 3047 722 3315 
Q 1072 3584 1716 3584 
Q 2034 3584 2315 3537 
Q 2597 3491 2834 3397 
z
" transform="scale(0.015625)"/>
    </defs>
    <use xlink:href="#DejaVuSans-49"/>
    <use xlink:href="#DejaVuSans-6e" x="29.492188"/>
    <use xlink:href="#DejaVuSans-7a" x="92.871094"/>
    <use xlink:href="#DejaVuSans-69" x="145.361328"/>
    <use xlink:href="#DejaVuSans-64" x="173.144531"/>
    <use xlink:href="#DejaVuSans-65" x="236.621094"/>
    <use xlink:href="#DejaVuSans-6e" x="298.144531"/>
    <use xlink:href="#DejaVuSans-7a" x="361.523438"/>
    <use xlink:href="#DejaVuSans-76" x="414.013672"/>
    <use xlink:href="#DejaVuSans-65" x="473.193359"/>
    <use xlink:href="#DejaVuSans-72" x="534.716797"/>
    <use xlink:href="#DejaVuSans-6c" x="575.830078"/>
    <use xlink:href="#DejaVuSans-61" x="603.613281"/>
    <use xlink:href="#DejaVuSans-75" x="664.892578"/>
    <use xlink:href="#DejaVuSans-66" x="728.271484"/>
    <use xlink:href="#DejaVuSans-20" x="763.476562"/>
    <use xlink:href="#DejaVuSans-4c" x="795.263672"/>
    <use xlink:href="#DejaVuSans-4b" x="850.976562"/>
    <use xlink:href="#DejaVuSans-20" x="916.552734"/>
    <use xlink:href="#DejaVuSans-49" x="948.339844"/>
    <use xlink:href="#DejaVuSans-6c" x="977.832031"/>
    <use xlink:href="#DejaVuSans-6d" x="1005.615234"/>
    <use xlink:href="#DejaVuSans-2d" x="1103.027344"/>
    <use xlink:href="#DejaVuSans-4b" x="1139.111328"/>
    <use xlink:href="#DejaVuSans-72" x="1204.6875"/>
    <use xlink:href="#DejaVuSans-65" x="1243.550781"/>
    <use xlink:href="#DejaVuSans-69" x="1305.074219"/>
    <use xlink:href="#DejaVuSans-73" x="1332.857422"/>
   </g>
  </g>
 </g>
 <defs>
  <clipPath id="pd8d3afd428">
   <rect x="57.6" y="41.472" width="357.12" height="235.008"/>
  </clipPath>
 </defs>
</svg>
