<?xml version="1.0" encoding="utf-8" standalone="no"?>
<!DOCTYPE svg PUBLIC "-//W3C//DTD SVG 1.1//EN"
  "http://www.w3.org/Graphics/SVG/1.1/DTD/svg11.dtd">
<svg xmlns:xlink="http://www.w3.org/1999/xlink" width="460.8pt" height="345.6pt" viewBox="0 0 460.8 345.6" xmlns="http://www.w3.org/2000/svg" version="1.1">
 <metadata>
  <rdf:RDF xmlns:dc="http://purl.org/dc/elements/1.1/" xmlns:cc="http://creativecommons.org/ns#" xmlns:rdf="http://www.w3.org/1999/02/22-rdf-syntax-ns#">
   <cc:Work>
    <dc:type rdf:resource="http://purl.org/dc/dcmitype/StillImage"/>
    <dc:date>2021-11-26T09:21:18.611913</dc:date>
    <dc:format>image/svg+xml</dc:format>
    <dc:creator>
     <cc:Agent>
      <dc:title>Matplotlib v3.5.0, https://matplotlib.org/</dc:title>
     </cc:Agent>
    </dc:creator>
   </cc:Work>
  </rdf:RDF>
 </metadata>
 <defs>
  <style type="text/css">*{stroke-linejoin: round; stroke-linecap: butt}</style>
 </defs>
 <g id="figure_1">
  <g id="patch_1">
   <path d="M 0 345.6 
L 460.8 345.6 
L 460.8 0 
L 0 0 
z
" style="fill: #ffffff"/>
  </g>
  <g id="axes_1">
   <g id="patch_2">
    <path d="M 57.6 276.48 
L 414.72 276.48 
L 414.72 41.472 
L 57.6 41.472 
z
" style="fill: #ffffff"/>
   </g>
   <g id="matplotlib.axis_1">
    <g id="xtick_1">
     <g id="line2d_1">
      <path d="M 58.082964 276.48 
L 58.082964 41.472 
" clip-path="url(#p978ca89300)" style="fill: none; stroke-dasharray: 2.96,1.28; stroke-dashoffset: 0; stroke: #808080; stroke-width: 0.8"/>
     </g>
     <g id="line2d_2">
      <defs>
       <path id="me215d3e719" d="M 0 0 
L 0 3.5 
" style="stroke: #000000; stroke-width: 0.8"/>
      </defs>
      <g>
       <use xlink:href="#me215d3e719" x="58.082964" y="276.48" style="stroke: #000000; stroke-width: 0.8"/>
      </g>
     </g>
     <g id="text_1">
      <!-- 01.02.2020 -->
      <g transform="translate(7.457753 318.688565)rotate(-30)scale(0.1 -0.1)">
       <defs>
        <path id="DejaVuSans-30" d="M 2034 4250 
Q 1547 4250 1301 3770 
Q 1056 3291 1056 2328 
Q 1056 1369 1301 889 
Q 1547 409 2034 409 
Q 2525 409 2770 889 
Q 3016 1369 3016 2328 
Q 3016 3291 2770 3770 
Q 2525 4250 2034 4250 
z
M 2034 4750 
Q 2819 4750 3233 4129 
Q 3647 3509 3647 2328 
Q 3647 1150 3233 529 
Q 2819 -91 2034 -91 
Q 1250 -91 836 529 
Q 422 1150 422 2328 
Q 422 3509 836 4129 
Q 1250 4750 2034 4750 
z
" transform="scale(0.015625)"/>
        <path id="DejaVuSans-31" d="M 794 531 
L 1825 531 
L 1825 4091 
L 703 3866 
L 703 4441 
L 1819 4666 
L 2450 4666 
L 2450 531 
L 3481 531 
L 3481 0 
L 794 0 
L 794 531 
z
" transform="scale(0.015625)"/>
        <path id="DejaVuSans-2e" d="M 684 794 
L 1344 794 
L 1344 0 
L 684 0 
L 684 794 
z
" transform="scale(0.015625)"/>
        <path id="DejaVuSans-32" d="M 1228 531 
L 3431 531 
L 3431 0 
L 469 0 
L 469 531 
Q 828 903 1448 1529 
Q 2069 2156 2228 2338 
Q 2531 2678 2651 2914 
Q 2772 3150 2772 3378 
Q 2772 3750 2511 3984 
Q 2250 4219 1831 4219 
Q 1534 4219 1204 4116 
Q 875 4013 500 3803 
L 500 4441 
Q 881 4594 1212 4672 
Q 1544 4750 1819 4750 
Q 2544 4750 2975 4387 
Q 3406 4025 3406 3419 
Q 3406 3131 3298 2873 
Q 3191 2616 2906 2266 
Q 2828 2175 2409 1742 
Q 1991 1309 1228 531 
z
" transform="scale(0.015625)"/>
       </defs>
       <use xlink:href="#DejaVuSans-30"/>
       <use xlink:href="#DejaVuSans-31" x="63.623047"/>
       <use xlink:href="#DejaVuSans-2e" x="127.246094"/>
       <use xlink:href="#DejaVuSans-30" x="159.033203"/>
       <use xlink:href="#DejaVuSans-32" x="222.65625"/>
       <use xlink:href="#DejaVuSans-2e" x="286.279297"/>
       <use xlink:href="#DejaVuSans-32" x="318.066406"/>
       <use xlink:href="#DejaVuSans-30" x="381.689453"/>
       <use xlink:href="#DejaVuSans-32" x="445.3125"/>
       <use xlink:href="#DejaVuSans-30" x="508.935547"/>
      </g>
     </g>
    </g>
    <g id="xtick_2">
     <g id="line2d_3">
      <path d="M 93.984731 276.48 
L 93.984731 41.472 
" clip-path="url(#p978ca89300)" style="fill: none; stroke-dasharray: 2.96,1.28; stroke-dashoffset: 0; stroke: #808080; stroke-width: 0.8"/>
     </g>
     <g id="line2d_4">
      <g>
       <use xlink:href="#me215d3e719" x="93.984731" y="276.48" style="stroke: #000000; stroke-width: 0.8"/>
      </g>
     </g>
     <g id="text_2">
      <!-- 11.04.2020 -->
      <g transform="translate(43.35952 318.688565)rotate(-30)scale(0.1 -0.1)">
       <defs>
        <path id="DejaVuSans-34" d="M 2419 4116 
L 825 1625 
L 2419 1625 
L 2419 4116 
z
M 2253 4666 
L 3047 4666 
L 3047 1625 
L 3713 1625 
L 3713 1100 
L 3047 1100 
L 3047 0 
L 2419 0 
L 2419 1100 
L 313 1100 
L 313 1709 
L 2253 4666 
z
" transform="scale(0.015625)"/>
       </defs>
       <use xlink:href="#DejaVuSans-31"/>
       <use xlink:href="#DejaVuSans-31" x="63.623047"/>
       <use xlink:href="#DejaVuSans-2e" x="127.246094"/>
       <use xlink:href="#DejaVuSans-30" x="159.033203"/>
       <use xlink:href="#DejaVuSans-34" x="222.65625"/>
       <use xlink:href="#DejaVuSans-2e" x="286.279297"/>
       <use xlink:href="#DejaVuSans-32" x="318.066406"/>
       <use xlink:href="#DejaVuSans-30" x="381.689453"/>
       <use xlink:href="#DejaVuSans-32" x="445.3125"/>
       <use xlink:href="#DejaVuSans-30" x="508.935547"/>
      </g>
     </g>
    </g>
    <g id="xtick_3">
     <g id="line2d_5">
      <path d="M 129.886497 276.48 
L 129.886497 41.472 
" clip-path="url(#p978ca89300)" style="fill: none; stroke-dasharray: 2.96,1.28; stroke-dashoffset: 0; stroke: #808080; stroke-width: 0.8"/>
     </g>
     <g id="line2d_6">
      <g>
       <use xlink:href="#me215d3e719" x="129.886497" y="276.48" style="stroke: #000000; stroke-width: 0.8"/>
      </g>
     </g>
     <g id="text_3">
      <!-- 20.06.2020 -->
      <g transform="translate(79.261286 318.688565)rotate(-30)scale(0.1 -0.1)">
       <defs>
        <path id="DejaVuSans-36" d="M 2113 2584 
Q 1688 2584 1439 2293 
Q 1191 2003 1191 1497 
Q 1191 994 1439 701 
Q 1688 409 2113 409 
Q 2538 409 2786 701 
Q 3034 994 3034 1497 
Q 3034 2003 2786 2293 
Q 2538 2584 2113 2584 
z
M 3366 4563 
L 3366 3988 
Q 3128 4100 2886 4159 
Q 2644 4219 2406 4219 
Q 1781 4219 1451 3797 
Q 1122 3375 1075 2522 
Q 1259 2794 1537 2939 
Q 1816 3084 2150 3084 
Q 2853 3084 3261 2657 
Q 3669 2231 3669 1497 
Q 3669 778 3244 343 
Q 2819 -91 2113 -91 
Q 1303 -91 875 529 
Q 447 1150 447 2328 
Q 447 3434 972 4092 
Q 1497 4750 2381 4750 
Q 2619 4750 2861 4703 
Q 3103 4656 3366 4563 
z
" transform="scale(0.015625)"/>
       </defs>
       <use xlink:href="#DejaVuSans-32"/>
       <use xlink:href="#DejaVuSans-30" x="63.623047"/>
       <use xlink:href="#DejaVuSans-2e" x="127.246094"/>
       <use xlink:href="#DejaVuSans-30" x="159.033203"/>
       <use xlink:href="#DejaVuSans-36" x="222.65625"/>
       <use xlink:href="#DejaVuSans-2e" x="286.279297"/>
       <use xlink:href="#DejaVuSans-32" x="318.066406"/>
       <use xlink:href="#DejaVuSans-30" x="381.689453"/>
       <use xlink:href="#DejaVuSans-32" x="445.3125"/>
       <use xlink:href="#DejaVuSans-30" x="508.935547"/>
      </g>
     </g>
    </g>
    <g id="xtick_4">
     <g id="line2d_7">
      <path d="M 165.788264 276.48 
L 165.788264 41.472 
" clip-path="url(#p978ca89300)" style="fill: none; stroke-dasharray: 2.96,1.28; stroke-dashoffset: 0; stroke: #808080; stroke-width: 0.8"/>
     </g>
     <g id="line2d_8">
      <g>
       <use xlink:href="#me215d3e719" x="165.788264" y="276.48" style="stroke: #000000; stroke-width: 0.8"/>
      </g>
     </g>
     <g id="text_4">
      <!-- 29.08.2020 -->
      <g transform="translate(115.163053 318.688565)rotate(-30)scale(0.1 -0.1)">
       <defs>
        <path id="DejaVuSans-39" d="M 703 97 
L 703 672 
Q 941 559 1184 500 
Q 1428 441 1663 441 
Q 2288 441 2617 861 
Q 2947 1281 2994 2138 
Q 2813 1869 2534 1725 
Q 2256 1581 1919 1581 
Q 1219 1581 811 2004 
Q 403 2428 403 3163 
Q 403 3881 828 4315 
Q 1253 4750 1959 4750 
Q 2769 4750 3195 4129 
Q 3622 3509 3622 2328 
Q 3622 1225 3098 567 
Q 2575 -91 1691 -91 
Q 1453 -91 1209 -44 
Q 966 3 703 97 
z
M 1959 2075 
Q 2384 2075 2632 2365 
Q 2881 2656 2881 3163 
Q 2881 3666 2632 3958 
Q 2384 4250 1959 4250 
Q 1534 4250 1286 3958 
Q 1038 3666 1038 3163 
Q 1038 2656 1286 2365 
Q 1534 2075 1959 2075 
z
" transform="scale(0.015625)"/>
        <path id="DejaVuSans-38" d="M 2034 2216 
Q 1584 2216 1326 1975 
Q 1069 1734 1069 1313 
Q 1069 891 1326 650 
Q 1584 409 2034 409 
Q 2484 409 2743 651 
Q 3003 894 3003 1313 
Q 3003 1734 2745 1975 
Q 2488 2216 2034 2216 
z
M 1403 2484 
Q 997 2584 770 2862 
Q 544 3141 544 3541 
Q 544 4100 942 4425 
Q 1341 4750 2034 4750 
Q 2731 4750 3128 4425 
Q 3525 4100 3525 3541 
Q 3525 3141 3298 2862 
Q 3072 2584 2669 2484 
Q 3125 2378 3379 2068 
Q 3634 1759 3634 1313 
Q 3634 634 3220 271 
Q 2806 -91 2034 -91 
Q 1263 -91 848 271 
Q 434 634 434 1313 
Q 434 1759 690 2068 
Q 947 2378 1403 2484 
z
M 1172 3481 
Q 1172 3119 1398 2916 
Q 1625 2713 2034 2713 
Q 2441 2713 2670 2916 
Q 2900 3119 2900 3481 
Q 2900 3844 2670 4047 
Q 2441 4250 2034 4250 
Q 1625 4250 1398 4047 
Q 1172 3844 1172 3481 
z
" transform="scale(0.015625)"/>
       </defs>
       <use xlink:href="#DejaVuSans-32"/>
       <use xlink:href="#DejaVuSans-39" x="63.623047"/>
       <use xlink:href="#DejaVuSans-2e" x="127.246094"/>
       <use xlink:href="#DejaVuSans-30" x="159.033203"/>
       <use xlink:href="#DejaVuSans-38" x="222.65625"/>
       <use xlink:href="#DejaVuSans-2e" x="286.279297"/>
       <use xlink:href="#DejaVuSans-32" x="318.066406"/>
       <use xlink:href="#DejaVuSans-30" x="381.689453"/>
       <use xlink:href="#DejaVuSans-32" x="445.3125"/>
       <use xlink:href="#DejaVuSans-30" x="508.935547"/>
      </g>
     </g>
    </g>
    <g id="xtick_5">
     <g id="line2d_9">
      <path d="M 201.69003 276.48 
L 201.69003 41.472 
" clip-path="url(#p978ca89300)" style="fill: none; stroke-dasharray: 2.96,1.28; stroke-dashoffset: 0; stroke: #808080; stroke-width: 0.8"/>
     </g>
     <g id="line2d_10">
      <g>
       <use xlink:href="#me215d3e719" x="201.69003" y="276.48" style="stroke: #000000; stroke-width: 0.8"/>
      </g>
     </g>
     <g id="text_5">
      <!-- 07.11.2020 -->
      <g transform="translate(151.064819 318.688565)rotate(-30)scale(0.1 -0.1)">
       <defs>
        <path id="DejaVuSans-37" d="M 525 4666 
L 3525 4666 
L 3525 4397 
L 1831 0 
L 1172 0 
L 2766 4134 
L 525 4134 
L 525 4666 
z
" transform="scale(0.015625)"/>
       </defs>
       <use xlink:href="#DejaVuSans-30"/>
       <use xlink:href="#DejaVuSans-37" x="63.623047"/>
       <use xlink:href="#DejaVuSans-2e" x="127.246094"/>
       <use xlink:href="#DejaVuSans-31" x="159.033203"/>
       <use xlink:href="#DejaVuSans-31" x="222.65625"/>
       <use xlink:href="#DejaVuSans-2e" x="286.279297"/>
       <use xlink:href="#DejaVuSans-32" x="318.066406"/>
       <use xlink:href="#DejaVuSans-30" x="381.689453"/>
       <use xlink:href="#DejaVuSans-32" x="445.3125"/>
       <use xlink:href="#DejaVuSans-30" x="508.935547"/>
      </g>
     </g>
    </g>
    <g id="xtick_6">
     <g id="line2d_11">
      <path d="M 237.591797 276.48 
L 237.591797 41.472 
" clip-path="url(#p978ca89300)" style="fill: none; stroke-dasharray: 2.96,1.28; stroke-dashoffset: 0; stroke: #808080; stroke-width: 0.8"/>
     </g>
     <g id="line2d_12">
      <g>
       <use xlink:href="#me215d3e719" x="237.591797" y="276.48" style="stroke: #000000; stroke-width: 0.8"/>
      </g>
     </g>
     <g id="text_6">
      <!-- 16.01.2021 -->
      <g transform="translate(186.966586 318.688565)rotate(-30)scale(0.1 -0.1)">
       <use xlink:href="#DejaVuSans-31"/>
       <use xlink:href="#DejaVuSans-36" x="63.623047"/>
       <use xlink:href="#DejaVuSans-2e" x="127.246094"/>
       <use xlink:href="#DejaVuSans-30" x="159.033203"/>
       <use xlink:href="#DejaVuSans-31" x="222.65625"/>
       <use xlink:href="#DejaVuSans-2e" x="286.279297"/>
       <use xlink:href="#DejaVuSans-32" x="318.066406"/>
       <use xlink:href="#DejaVuSans-30" x="381.689453"/>
       <use xlink:href="#DejaVuSans-32" x="445.3125"/>
       <use xlink:href="#DejaVuSans-31" x="508.935547"/>
      </g>
     </g>
    </g>
    <g id="xtick_7">
     <g id="line2d_13">
      <path d="M 273.493563 276.48 
L 273.493563 41.472 
" clip-path="url(#p978ca89300)" style="fill: none; stroke-dasharray: 2.96,1.28; stroke-dashoffset: 0; stroke: #808080; stroke-width: 0.8"/>
     </g>
     <g id="line2d_14">
      <g>
       <use xlink:href="#me215d3e719" x="273.493563" y="276.48" style="stroke: #000000; stroke-width: 0.8"/>
      </g>
     </g>
     <g id="text_7">
      <!-- 27.03.2021 -->
      <g transform="translate(222.868352 318.688565)rotate(-30)scale(0.1 -0.1)">
       <defs>
        <path id="DejaVuSans-33" d="M 2597 2516 
Q 3050 2419 3304 2112 
Q 3559 1806 3559 1356 
Q 3559 666 3084 287 
Q 2609 -91 1734 -91 
Q 1441 -91 1130 -33 
Q 819 25 488 141 
L 488 750 
Q 750 597 1062 519 
Q 1375 441 1716 441 
Q 2309 441 2620 675 
Q 2931 909 2931 1356 
Q 2931 1769 2642 2001 
Q 2353 2234 1838 2234 
L 1294 2234 
L 1294 2753 
L 1863 2753 
Q 2328 2753 2575 2939 
Q 2822 3125 2822 3475 
Q 2822 3834 2567 4026 
Q 2313 4219 1838 4219 
Q 1578 4219 1281 4162 
Q 984 4106 628 3988 
L 628 4550 
Q 988 4650 1302 4700 
Q 1616 4750 1894 4750 
Q 2613 4750 3031 4423 
Q 3450 4097 3450 3541 
Q 3450 3153 3228 2886 
Q 3006 2619 2597 2516 
z
" transform="scale(0.015625)"/>
       </defs>
       <use xlink:href="#DejaVuSans-32"/>
       <use xlink:href="#DejaVuSans-37" x="63.623047"/>
       <use xlink:href="#DejaVuSans-2e" x="127.246094"/>
       <use xlink:href="#DejaVuSans-30" x="159.033203"/>
       <use xlink:href="#DejaVuSans-33" x="222.65625"/>
       <use xlink:href="#DejaVuSans-2e" x="286.279297"/>
       <use xlink:href="#DejaVuSans-32" x="318.066406"/>
       <use xlink:href="#DejaVuSans-30" x="381.689453"/>
       <use xlink:href="#DejaVuSans-32" x="445.3125"/>
       <use xlink:href="#DejaVuSans-31" x="508.935547"/>
      </g>
     </g>
    </g>
    <g id="xtick_8">
     <g id="line2d_15">
      <path d="M 309.39533 276.48 
L 309.39533 41.472 
" clip-path="url(#p978ca89300)" style="fill: none; stroke-dasharray: 2.96,1.28; stroke-dashoffset: 0; stroke: #808080; stroke-width: 0.8"/>
     </g>
     <g id="line2d_16">
      <g>
       <use xlink:href="#me215d3e719" x="309.39533" y="276.48" style="stroke: #000000; stroke-width: 0.8"/>
      </g>
     </g>
     <g id="text_8">
      <!-- 05.06.2021 -->
      <g transform="translate(258.770119 318.688565)rotate(-30)scale(0.1 -0.1)">
       <defs>
        <path id="DejaVuSans-35" d="M 691 4666 
L 3169 4666 
L 3169 4134 
L 1269 4134 
L 1269 2991 
Q 1406 3038 1543 3061 
Q 1681 3084 1819 3084 
Q 2600 3084 3056 2656 
Q 3513 2228 3513 1497 
Q 3513 744 3044 326 
Q 2575 -91 1722 -91 
Q 1428 -91 1123 -41 
Q 819 9 494 109 
L 494 744 
Q 775 591 1075 516 
Q 1375 441 1709 441 
Q 2250 441 2565 725 
Q 2881 1009 2881 1497 
Q 2881 1984 2565 2268 
Q 2250 2553 1709 2553 
Q 1456 2553 1204 2497 
Q 953 2441 691 2322 
L 691 4666 
z
" transform="scale(0.015625)"/>
       </defs>
       <use xlink:href="#DejaVuSans-30"/>
       <use xlink:href="#DejaVuSans-35" x="63.623047"/>
       <use xlink:href="#DejaVuSans-2e" x="127.246094"/>
       <use xlink:href="#DejaVuSans-30" x="159.033203"/>
       <use xlink:href="#DejaVuSans-36" x="222.65625"/>
       <use xlink:href="#DejaVuSans-2e" x="286.279297"/>
       <use xlink:href="#DejaVuSans-32" x="318.066406"/>
       <use xlink:href="#DejaVuSans-30" x="381.689453"/>
       <use xlink:href="#DejaVuSans-32" x="445.3125"/>
       <use xlink:href="#DejaVuSans-31" x="508.935547"/>
      </g>
     </g>
    </g>
    <g id="xtick_9">
     <g id="line2d_17">
      <path d="M 345.297096 276.48 
L 345.297096 41.472 
" clip-path="url(#p978ca89300)" style="fill: none; stroke-dasharray: 2.96,1.28; stroke-dashoffset: 0; stroke: #808080; stroke-width: 0.8"/>
     </g>
     <g id="line2d_18">
      <g>
       <use xlink:href="#me215d3e719" x="345.297096" y="276.48" style="stroke: #000000; stroke-width: 0.8"/>
      </g>
     </g>
     <g id="text_9">
      <!-- 14.08.2021 -->
      <g transform="translate(294.671885 318.688565)rotate(-30)scale(0.1 -0.1)">
       <use xlink:href="#DejaVuSans-31"/>
       <use xlink:href="#DejaVuSans-34" x="63.623047"/>
       <use xlink:href="#DejaVuSans-2e" x="127.246094"/>
       <use xlink:href="#DejaVuSans-30" x="159.033203"/>
       <use xlink:href="#DejaVuSans-38" x="222.65625"/>
       <use xlink:href="#DejaVuSans-2e" x="286.279297"/>
       <use xlink:href="#DejaVuSans-32" x="318.066406"/>
       <use xlink:href="#DejaVuSans-30" x="381.689453"/>
       <use xlink:href="#DejaVuSans-32" x="445.3125"/>
       <use xlink:href="#DejaVuSans-31" x="508.935547"/>
      </g>
     </g>
    </g>
    <g id="xtick_10">
     <g id="line2d_19">
      <path d="M 381.198863 276.48 
L 381.198863 41.472 
" clip-path="url(#p978ca89300)" style="fill: none; stroke-dasharray: 2.96,1.28; stroke-dashoffset: 0; stroke: #808080; stroke-width: 0.8"/>
     </g>
     <g id="line2d_20">
      <g>
       <use xlink:href="#me215d3e719" x="381.198863" y="276.48" style="stroke: #000000; stroke-width: 0.8"/>
      </g>
     </g>
     <g id="text_10">
      <!-- 23.10.2021 -->
      <g transform="translate(330.573652 318.688565)rotate(-30)scale(0.1 -0.1)">
       <use xlink:href="#DejaVuSans-32"/>
       <use xlink:href="#DejaVuSans-33" x="63.623047"/>
       <use xlink:href="#DejaVuSans-2e" x="127.246094"/>
       <use xlink:href="#DejaVuSans-31" x="159.033203"/>
       <use xlink:href="#DejaVuSans-30" x="222.65625"/>
       <use xlink:href="#DejaVuSans-2e" x="286.279297"/>
       <use xlink:href="#DejaVuSans-32" x="318.066406"/>
       <use xlink:href="#DejaVuSans-30" x="381.689453"/>
       <use xlink:href="#DejaVuSans-32" x="445.3125"/>
       <use xlink:href="#DejaVuSans-31" x="508.935547"/>
      </g>
     </g>
    </g>
   </g>
   <g id="matplotlib.axis_2">
    <g id="ytick_1">
     <g id="line2d_21">
      <path d="M 57.6 265.797818 
L 414.72 265.797818 
" clip-path="url(#p978ca89300)" style="fill: none; stroke-dasharray: 2.96,1.28; stroke-dashoffset: 0; stroke: #808080; stroke-width: 0.8"/>
     </g>
     <g id="line2d_22">
      <defs>
       <path id="mfd783666b0" d="M 0 0 
L -3.5 0 
" style="stroke: #000000; stroke-width: 0.8"/>
      </defs>
      <g>
       <use xlink:href="#mfd783666b0" x="57.6" y="265.797818" style="stroke: #000000; stroke-width: 0.8"/>
      </g>
     </g>
     <g id="text_11">
      <!-- 0 -->
      <g transform="translate(44.2375 269.597037)scale(0.1 -0.1)">
       <use xlink:href="#DejaVuSans-30"/>
      </g>
     </g>
    </g>
    <g id="ytick_2">
     <g id="line2d_23">
      <path d="M 57.6 233.539464 
L 414.72 233.539464 
" clip-path="url(#p978ca89300)" style="fill: none; stroke-dasharray: 2.96,1.28; stroke-dashoffset: 0; stroke: #808080; stroke-width: 0.8"/>
     </g>
     <g id="line2d_24">
      <g>
       <use xlink:href="#mfd783666b0" x="57.6" y="233.539464" style="stroke: #000000; stroke-width: 0.8"/>
      </g>
     </g>
     <g id="text_12">
      <!-- 100 -->
      <g transform="translate(31.5125 237.338683)scale(0.1 -0.1)">
       <use xlink:href="#DejaVuSans-31"/>
       <use xlink:href="#DejaVuSans-30" x="63.623047"/>
       <use xlink:href="#DejaVuSans-30" x="127.246094"/>
      </g>
     </g>
    </g>
    <g id="ytick_3">
     <g id="line2d_25">
      <path d="M 57.6 201.28111 
L 414.72 201.28111 
" clip-path="url(#p978ca89300)" style="fill: none; stroke-dasharray: 2.96,1.28; stroke-dashoffset: 0; stroke: #808080; stroke-width: 0.8"/>
     </g>
     <g id="line2d_26">
      <g>
       <use xlink:href="#mfd783666b0" x="57.6" y="201.28111" style="stroke: #000000; stroke-width: 0.8"/>
      </g>
     </g>
     <g id="text_13">
      <!-- 200 -->
      <g transform="translate(31.5125 205.080329)scale(0.1 -0.1)">
       <use xlink:href="#DejaVuSans-32"/>
       <use xlink:href="#DejaVuSans-30" x="63.623047"/>
       <use xlink:href="#DejaVuSans-30" x="127.246094"/>
      </g>
     </g>
    </g>
    <g id="ytick_4">
     <g id="line2d_27">
      <path d="M 57.6 169.022756 
L 414.72 169.022756 
" clip-path="url(#p978ca89300)" style="fill: none; stroke-dasharray: 2.96,1.28; stroke-dashoffset: 0; stroke: #808080; stroke-width: 0.8"/>
     </g>
     <g id="line2d_28">
      <g>
       <use xlink:href="#mfd783666b0" x="57.6" y="169.022756" style="stroke: #000000; stroke-width: 0.8"/>
      </g>
     </g>
     <g id="text_14">
      <!-- 300 -->
      <g transform="translate(31.5125 172.821975)scale(0.1 -0.1)">
       <use xlink:href="#DejaVuSans-33"/>
       <use xlink:href="#DejaVuSans-30" x="63.623047"/>
       <use xlink:href="#DejaVuSans-30" x="127.246094"/>
      </g>
     </g>
    </g>
    <g id="ytick_5">
     <g id="line2d_29">
      <path d="M 57.6 136.764402 
L 414.72 136.764402 
" clip-path="url(#p978ca89300)" style="fill: none; stroke-dasharray: 2.96,1.28; stroke-dashoffset: 0; stroke: #808080; stroke-width: 0.8"/>
     </g>
     <g id="line2d_30">
      <g>
       <use xlink:href="#mfd783666b0" x="57.6" y="136.764402" style="stroke: #000000; stroke-width: 0.8"/>
      </g>
     </g>
     <g id="text_15">
      <!-- 400 -->
      <g transform="translate(31.5125 140.56362)scale(0.1 -0.1)">
       <use xlink:href="#DejaVuSans-34"/>
       <use xlink:href="#DejaVuSans-30" x="63.623047"/>
       <use xlink:href="#DejaVuSans-30" x="127.246094"/>
      </g>
     </g>
    </g>
    <g id="ytick_6">
     <g id="line2d_31">
      <path d="M 57.6 104.506048 
L 414.72 104.506048 
" clip-path="url(#p978ca89300)" style="fill: none; stroke-dasharray: 2.96,1.28; stroke-dashoffset: 0; stroke: #808080; stroke-width: 0.8"/>
     </g>
     <g id="line2d_32">
      <g>
       <use xlink:href="#mfd783666b0" x="57.6" y="104.506048" style="stroke: #000000; stroke-width: 0.8"/>
      </g>
     </g>
     <g id="text_16">
      <!-- 500 -->
      <g transform="translate(31.5125 108.305266)scale(0.1 -0.1)">
       <use xlink:href="#DejaVuSans-35"/>
       <use xlink:href="#DejaVuSans-30" x="63.623047"/>
       <use xlink:href="#DejaVuSans-30" x="127.246094"/>
      </g>
     </g>
    </g>
    <g id="ytick_7">
     <g id="line2d_33">
      <path d="M 57.6 72.247693 
L 414.72 72.247693 
" clip-path="url(#p978ca89300)" style="fill: none; stroke-dasharray: 2.96,1.28; stroke-dashoffset: 0; stroke: #808080; stroke-width: 0.8"/>
     </g>
     <g id="line2d_34">
      <g>
       <use xlink:href="#mfd783666b0" x="57.6" y="72.247693" style="stroke: #000000; stroke-width: 0.8"/>
      </g>
     </g>
     <g id="text_17">
      <!-- 600 -->
      <g transform="translate(31.5125 76.046912)scale(0.1 -0.1)">
       <use xlink:href="#DejaVuSans-36"/>
       <use xlink:href="#DejaVuSans-30" x="63.623047"/>
       <use xlink:href="#DejaVuSans-30" x="127.246094"/>
      </g>
     </g>
    </g>
    <g id="text_18">
     <!-- Inzidenz pro 7 Tage pro 100.000 Einwohner -->
     <g transform="translate(25.432812 267.301)rotate(-90)scale(0.1 -0.1)">
      <defs>
       <path id="DejaVuSans-49" d="M 628 4666 
L 1259 4666 
L 1259 0 
L 628 0 
L 628 4666 
z
" transform="scale(0.015625)"/>
       <path id="DejaVuSans-6e" d="M 3513 2113 
L 3513 0 
L 2938 0 
L 2938 2094 
Q 2938 2591 2744 2837 
Q 2550 3084 2163 3084 
Q 1697 3084 1428 2787 
Q 1159 2491 1159 1978 
L 1159 0 
L 581 0 
L 581 3500 
L 1159 3500 
L 1159 2956 
Q 1366 3272 1645 3428 
Q 1925 3584 2291 3584 
Q 2894 3584 3203 3211 
Q 3513 2838 3513 2113 
z
" transform="scale(0.015625)"/>
       <path id="DejaVuSans-7a" d="M 353 3500 
L 3084 3500 
L 3084 2975 
L 922 459 
L 3084 459 
L 3084 0 
L 275 0 
L 275 525 
L 2438 3041 
L 353 3041 
L 353 3500 
z
" transform="scale(0.015625)"/>
       <path id="DejaVuSans-69" d="M 603 3500 
L 1178 3500 
L 1178 0 
L 603 0 
L 603 3500 
z
M 603 4863 
L 1178 4863 
L 1178 4134 
L 603 4134 
L 603 4863 
z
" transform="scale(0.015625)"/>
       <path id="DejaVuSans-64" d="M 2906 2969 
L 2906 4863 
L 3481 4863 
L 3481 0 
L 2906 0 
L 2906 525 
Q 2725 213 2448 61 
Q 2172 -91 1784 -91 
Q 1150 -91 751 415 
Q 353 922 353 1747 
Q 353 2572 751 3078 
Q 1150 3584 1784 3584 
Q 2172 3584 2448 3432 
Q 2725 3281 2906 2969 
z
M 947 1747 
Q 947 1113 1208 752 
Q 1469 391 1925 391 
Q 2381 391 2643 752 
Q 2906 1113 2906 1747 
Q 2906 2381 2643 2742 
Q 2381 3103 1925 3103 
Q 1469 3103 1208 2742 
Q 947 2381 947 1747 
z
" transform="scale(0.015625)"/>
       <path id="DejaVuSans-65" d="M 3597 1894 
L 3597 1613 
L 953 1613 
Q 991 1019 1311 708 
Q 1631 397 2203 397 
Q 2534 397 2845 478 
Q 3156 559 3463 722 
L 3463 178 
Q 3153 47 2828 -22 
Q 2503 -91 2169 -91 
Q 1331 -91 842 396 
Q 353 884 353 1716 
Q 353 2575 817 3079 
Q 1281 3584 2069 3584 
Q 2775 3584 3186 3129 
Q 3597 2675 3597 1894 
z
M 3022 2063 
Q 3016 2534 2758 2815 
Q 2500 3097 2075 3097 
Q 1594 3097 1305 2825 
Q 1016 2553 972 2059 
L 3022 2063 
z
" transform="scale(0.015625)"/>
       <path id="DejaVuSans-20" transform="scale(0.015625)"/>
       <path id="DejaVuSans-70" d="M 1159 525 
L 1159 -1331 
L 581 -1331 
L 581 3500 
L 1159 3500 
L 1159 2969 
Q 1341 3281 1617 3432 
Q 1894 3584 2278 3584 
Q 2916 3584 3314 3078 
Q 3713 2572 3713 1747 
Q 3713 922 3314 415 
Q 2916 -91 2278 -91 
Q 1894 -91 1617 61 
Q 1341 213 1159 525 
z
M 3116 1747 
Q 3116 2381 2855 2742 
Q 2594 3103 2138 3103 
Q 1681 3103 1420 2742 
Q 1159 2381 1159 1747 
Q 1159 1113 1420 752 
Q 1681 391 2138 391 
Q 2594 391 2855 752 
Q 3116 1113 3116 1747 
z
" transform="scale(0.015625)"/>
       <path id="DejaVuSans-72" d="M 2631 2963 
Q 2534 3019 2420 3045 
Q 2306 3072 2169 3072 
Q 1681 3072 1420 2755 
Q 1159 2438 1159 1844 
L 1159 0 
L 581 0 
L 581 3500 
L 1159 3500 
L 1159 2956 
Q 1341 3275 1631 3429 
Q 1922 3584 2338 3584 
Q 2397 3584 2469 3576 
Q 2541 3569 2628 3553 
L 2631 2963 
z
" transform="scale(0.015625)"/>
       <path id="DejaVuSans-6f" d="M 1959 3097 
Q 1497 3097 1228 2736 
Q 959 2375 959 1747 
Q 959 1119 1226 758 
Q 1494 397 1959 397 
Q 2419 397 2687 759 
Q 2956 1122 2956 1747 
Q 2956 2369 2687 2733 
Q 2419 3097 1959 3097 
z
M 1959 3584 
Q 2709 3584 3137 3096 
Q 3566 2609 3566 1747 
Q 3566 888 3137 398 
Q 2709 -91 1959 -91 
Q 1206 -91 779 398 
Q 353 888 353 1747 
Q 353 2609 779 3096 
Q 1206 3584 1959 3584 
z
" transform="scale(0.015625)"/>
       <path id="DejaVuSans-54" d="M -19 4666 
L 3928 4666 
L 3928 4134 
L 2272 4134 
L 2272 0 
L 1638 0 
L 1638 4134 
L -19 4134 
L -19 4666 
z
" transform="scale(0.015625)"/>
       <path id="DejaVuSans-61" d="M 2194 1759 
Q 1497 1759 1228 1600 
Q 959 1441 959 1056 
Q 959 750 1161 570 
Q 1363 391 1709 391 
Q 2188 391 2477 730 
Q 2766 1069 2766 1631 
L 2766 1759 
L 2194 1759 
z
M 3341 1997 
L 3341 0 
L 2766 0 
L 2766 531 
Q 2569 213 2275 61 
Q 1981 -91 1556 -91 
Q 1019 -91 701 211 
Q 384 513 384 1019 
Q 384 1609 779 1909 
Q 1175 2209 1959 2209 
L 2766 2209 
L 2766 2266 
Q 2766 2663 2505 2880 
Q 2244 3097 1772 3097 
Q 1472 3097 1187 3025 
Q 903 2953 641 2809 
L 641 3341 
Q 956 3463 1253 3523 
Q 1550 3584 1831 3584 
Q 2591 3584 2966 3190 
Q 3341 2797 3341 1997 
z
" transform="scale(0.015625)"/>
       <path id="DejaVuSans-67" d="M 2906 1791 
Q 2906 2416 2648 2759 
Q 2391 3103 1925 3103 
Q 1463 3103 1205 2759 
Q 947 2416 947 1791 
Q 947 1169 1205 825 
Q 1463 481 1925 481 
Q 2391 481 2648 825 
Q 2906 1169 2906 1791 
z
M 3481 434 
Q 3481 -459 3084 -895 
Q 2688 -1331 1869 -1331 
Q 1566 -1331 1297 -1286 
Q 1028 -1241 775 -1147 
L 775 -588 
Q 1028 -725 1275 -790 
Q 1522 -856 1778 -856 
Q 2344 -856 2625 -561 
Q 2906 -266 2906 331 
L 2906 616 
Q 2728 306 2450 153 
Q 2172 0 1784 0 
Q 1141 0 747 490 
Q 353 981 353 1791 
Q 353 2603 747 3093 
Q 1141 3584 1784 3584 
Q 2172 3584 2450 3431 
Q 2728 3278 2906 2969 
L 2906 3500 
L 3481 3500 
L 3481 434 
z
" transform="scale(0.015625)"/>
       <path id="DejaVuSans-45" d="M 628 4666 
L 3578 4666 
L 3578 4134 
L 1259 4134 
L 1259 2753 
L 3481 2753 
L 3481 2222 
L 1259 2222 
L 1259 531 
L 3634 531 
L 3634 0 
L 628 0 
L 628 4666 
z
" transform="scale(0.015625)"/>
       <path id="DejaVuSans-77" d="M 269 3500 
L 844 3500 
L 1563 769 
L 2278 3500 
L 2956 3500 
L 3675 769 
L 4391 3500 
L 4966 3500 
L 4050 0 
L 3372 0 
L 2619 2869 
L 1863 0 
L 1184 0 
L 269 3500 
z
" transform="scale(0.015625)"/>
       <path id="DejaVuSans-68" d="M 3513 2113 
L 3513 0 
L 2938 0 
L 2938 2094 
Q 2938 2591 2744 2837 
Q 2550 3084 2163 3084 
Q 1697 3084 1428 2787 
Q 1159 2491 1159 1978 
L 1159 0 
L 581 0 
L 581 4863 
L 1159 4863 
L 1159 2956 
Q 1366 3272 1645 3428 
Q 1925 3584 2291 3584 
Q 2894 3584 3203 3211 
Q 3513 2838 3513 2113 
z
" transform="scale(0.015625)"/>
      </defs>
      <use xlink:href="#DejaVuSans-49"/>
      <use xlink:href="#DejaVuSans-6e" x="29.492188"/>
      <use xlink:href="#DejaVuSans-7a" x="92.871094"/>
      <use xlink:href="#DejaVuSans-69" x="145.361328"/>
      <use xlink:href="#DejaVuSans-64" x="173.144531"/>
      <use xlink:href="#DejaVuSans-65" x="236.621094"/>
      <use xlink:href="#DejaVuSans-6e" x="298.144531"/>
      <use xlink:href="#DejaVuSans-7a" x="361.523438"/>
      <use xlink:href="#DejaVuSans-20" x="414.013672"/>
      <use xlink:href="#DejaVuSans-70" x="445.800781"/>
      <use xlink:href="#DejaVuSans-72" x="509.277344"/>
      <use xlink:href="#DejaVuSans-6f" x="548.140625"/>
      <use xlink:href="#DejaVuSans-20" x="609.322266"/>
      <use xlink:href="#DejaVuSans-37" x="641.109375"/>
      <use xlink:href="#DejaVuSans-20" x="704.732422"/>
      <use xlink:href="#DejaVuSans-54" x="736.519531"/>
      <use xlink:href="#DejaVuSans-61" x="781.103516"/>
      <use xlink:href="#DejaVuSans-67" x="842.382812"/>
      <use xlink:href="#DejaVuSans-65" x="905.859375"/>
      <use xlink:href="#DejaVuSans-20" x="967.382812"/>
      <use xlink:href="#DejaVuSans-70" x="999.169922"/>
      <use xlink:href="#DejaVuSans-72" x="1062.646484"/>
      <use xlink:href="#DejaVuSans-6f" x="1101.509766"/>
      <use xlink:href="#DejaVuSans-20" x="1162.691406"/>
      <use xlink:href="#DejaVuSans-31" x="1194.478516"/>
      <use xlink:href="#DejaVuSans-30" x="1258.101562"/>
      <use xlink:href="#DejaVuSans-30" x="1321.724609"/>
      <use xlink:href="#DejaVuSans-2e" x="1385.347656"/>
      <use xlink:href="#DejaVuSans-30" x="1417.134766"/>
      <use xlink:href="#DejaVuSans-30" x="1480.757812"/>
      <use xlink:href="#DejaVuSans-30" x="1544.380859"/>
      <use xlink:href="#DejaVuSans-20" x="1608.003906"/>
      <use xlink:href="#DejaVuSans-45" x="1639.791016"/>
      <use xlink:href="#DejaVuSans-69" x="1702.974609"/>
      <use xlink:href="#DejaVuSans-6e" x="1730.757812"/>
      <use xlink:href="#DejaVuSans-77" x="1794.136719"/>
      <use xlink:href="#DejaVuSans-6f" x="1875.923828"/>
      <use xlink:href="#DejaVuSans-68" x="1937.105469"/>
      <use xlink:href="#DejaVuSans-6e" x="2000.484375"/>
      <use xlink:href="#DejaVuSans-65" x="2063.863281"/>
      <use xlink:href="#DejaVuSans-72" x="2125.386719"/>
     </g>
    </g>
   </g>
   <g id="line2d_35">
    <path d="M 73.832727 265.797818 
L 76.910022 265.797818 
L 77.422904 265.273539 
L 78.961551 265.273539 
L 79.474433 265.0114 
L 79.987316 264.487121 
L 80.500198 264.224982 
L 81.525963 264.224982 
L 82.038845 263.176424 
L 82.551728 261.603587 
L 83.06461 259.244332 
L 83.577492 256.098659 
L 84.090375 254.263683 
L 84.603257 253.215125 
L 85.11614 251.642289 
L 85.629022 249.020895 
L 87.167669 243.778106 
L 87.680551 245.613082 
L 88.193434 244.826664 
L 88.706316 241.680991 
L 89.219199 234.865365 
L 89.732081 231.719692 
L 90.244963 230.671134 
L 90.757846 230.933274 
L 91.270728 229.098298 
L 91.783611 228.04974 
L 92.296493 231.457553 
L 92.809375 233.030389 
L 94.348022 241.156712 
L 94.860905 242.205269 
L 95.373787 244.564524 
L 95.88667 244.564524 
L 96.399552 251.380149 
L 97.425317 253.477265 
L 97.938199 255.312241 
L 98.451081 254.263683 
L 98.963964 255.312241 
L 99.476846 255.57438 
L 99.989729 255.57438 
L 101.015493 256.622938 
L 101.528376 257.409356 
L 102.041258 259.244332 
L 102.55414 258.982193 
L 103.067023 259.768611 
L 103.579905 260.817169 
L 104.092788 262.390006 
L 104.60567 262.914284 
L 105.118552 262.914284 
L 106.144317 263.438563 
L 106.657199 263.438563 
L 107.170082 264.487121 
L 107.682964 264.487121 
L 108.708729 265.0114 
L 109.734494 265.0114 
L 110.247376 265.273539 
L 110.760259 264.224982 
L 111.273141 264.74926 
L 112.811788 264.74926 
L 113.837553 264.224982 
L 114.350435 265.273539 
L 115.3762 264.74926 
L 116.401965 264.74926 
L 117.427729 265.273539 
L 118.453494 265.273539 
L 118.966377 265.535679 
L 121.530788 265.535679 
L 122.043671 265.797818 
L 126.659612 265.797818 
L 127.172495 265.535679 
L 128.198259 265.535679 
L 128.711142 265.0114 
L 130.249789 265.0114 
L 130.762671 265.273539 
L 133.839966 265.273539 
L 134.352848 264.74926 
L 134.86573 264.74926 
L 135.378613 264.487121 
L 135.891495 265.0114 
L 136.404377 264.487121 
L 136.91726 263.700703 
L 137.430142 263.438563 
L 137.943025 263.700703 
L 138.455907 263.700703 
L 138.968789 263.962842 
L 139.481672 263.962842 
L 139.994554 264.487121 
L 140.507436 263.962842 
L 141.533201 264.487121 
L 142.558966 263.962842 
L 143.071848 262.914284 
L 143.584731 262.652145 
L 144.097613 263.700703 
L 144.610495 262.914284 
L 145.123378 262.652145 
L 145.63626 262.652145 
L 146.149143 262.914284 
L 146.662025 263.700703 
L 147.174907 263.962842 
L 147.68779 263.962842 
L 148.200672 264.487121 
L 148.713555 264.74926 
L 149.226437 264.74926 
L 149.739319 264.487121 
L 150.252202 264.487121 
L 150.765084 263.176424 
L 151.790849 263.700703 
L 152.303731 262.390006 
L 152.816614 262.652145 
L 153.842378 262.652145 
L 154.355261 263.176424 
L 154.868143 262.914284 
L 155.381025 262.914284 
L 155.893908 263.962842 
L 157.432555 263.176424 
L 157.945437 260.29289 
L 158.971202 260.29289 
L 159.484084 259.768611 
L 159.996967 258.982193 
L 161.022732 255.050102 
L 161.535614 257.409356 
L 162.048496 255.312241 
L 162.561379 255.312241 
L 163.074261 253.477265 
L 163.587143 254.525823 
L 164.100026 255.312241 
L 165.125791 255.83652 
L 165.638673 257.147217 
L 166.151555 257.147217 
L 166.664438 257.409356 
L 167.17732 257.147217 
L 167.690202 257.671496 
L 168.203085 258.982193 
L 169.22885 260.55503 
L 169.741732 260.55503 
L 170.254614 261.341448 
L 171.280379 261.341448 
L 171.793262 260.817169 
L 172.306144 260.55503 
L 172.819026 260.030751 
L 173.331909 260.030751 
L 173.844791 261.079308 
L 174.357673 259.768611 
L 175.383438 261.341448 
L 175.896321 261.341448 
L 176.409203 261.865727 
L 176.922085 261.865727 
L 177.434968 261.079308 
L 177.94785 262.390006 
L 178.460732 262.652145 
L 179.486497 262.652145 
L 179.99938 262.390006 
L 181.538027 262.390006 
L 182.050909 262.127866 
L 182.563791 262.914284 
L 183.076674 262.914284 
L 183.589556 263.438563 
L 184.102439 263.438563 
L 184.615321 263.962842 
L 185.641086 263.438563 
L 186.153968 262.652145 
L 187.179733 262.127866 
L 187.692615 262.127866 
L 188.205498 262.390006 
L 188.71838 261.603587 
L 189.231262 261.865727 
L 189.744145 261.603587 
L 190.76991 259.506472 
L 191.282792 259.506472 
L 191.795674 257.409356 
L 192.308557 258.195775 
L 192.821439 257.671496 
L 193.334321 256.360799 
L 193.847204 256.622938 
L 194.360086 256.098659 
L 195.385851 256.098659 
L 195.898733 255.83652 
L 196.411616 253.215125 
L 196.924498 247.972337 
L 197.43738 246.66164 
L 197.950263 246.137361 
L 198.463145 243.253827 
L 198.976028 242.205269 
L 200.001792 235.913923 
L 200.514675 235.389644 
L 201.027557 229.884716 
L 201.540439 222.544812 
L 202.053322 218.350581 
L 202.566204 216.253466 
L 203.079087 206.030028 
L 203.591969 201.573658 
L 204.104851 202.360076 
L 204.617734 203.932912 
L 205.130616 207.078586 
L 205.643498 206.554307 
L 206.156381 210.224259 
L 206.669263 219.136999 
L 207.182146 222.282673 
L 207.695028 221.496254 
L 208.720793 215.204908 
L 209.233675 219.399139 
L 209.746558 217.039884 
L 210.25944 217.039884 
L 210.772322 219.136999 
L 211.285205 220.447697 
L 211.798087 217.039884 
L 212.310969 219.661278 
L 213.336734 220.709836 
L 213.849617 220.185557 
L 214.362499 221.758394 
L 214.875381 224.117649 
L 215.388264 230.933274 
L 215.901146 231.719692 
L 216.414028 226.476904 
L 216.926911 225.690485 
L 217.439793 229.884716 
L 217.952676 229.884716 
L 218.465558 225.690485 
L 218.97844 223.33123 
L 219.491323 221.758394 
L 220.004205 224.379788 
L 220.517087 228.04974 
L 221.02997 223.33123 
L 221.542852 221.234115 
L 222.055735 221.496254 
L 222.568617 214.680629 
L 223.081499 212.321374 
L 223.594382 212.321374 
L 224.107264 206.292167 
L 224.620146 208.913562 
L 225.133029 212.321374 
L 225.645911 216.515605 
L 226.671676 228.574019 
L 227.184558 228.836158 
L 227.697441 233.816808 
L 228.210323 234.603226 
L 228.723206 230.408995 
L 229.236088 221.758394 
L 229.74897 218.088442 
L 230.261853 218.350581 
L 230.774735 209.43784 
L 231.287617 209.69998 
L 231.8005 207.865004 
L 232.313382 208.913562 
L 232.826265 216.253466 
L 233.339147 219.661278 
L 233.852029 212.321374 
L 234.364912 216.777745 
L 234.877794 217.039884 
L 235.390676 215.467047 
L 235.903559 216.515605 
L 236.416441 212.845653 
L 236.929324 215.204908 
L 237.955088 222.282673 
L 238.467971 222.020533 
L 238.980853 226.739043 
L 239.493735 227.001182 
L 240.006618 229.098298 
L 240.5195 231.981832 
L 241.032383 233.554668 
L 241.545265 238.273178 
L 242.058147 238.535317 
L 242.57103 237.22462 
L 243.083912 236.438202 
L 243.596794 238.011038 
L 244.109677 237.22462 
L 244.622559 241.680991 
L 245.135442 242.729548 
L 245.648324 242.467409 
L 246.161206 244.040245 
L 246.674089 243.778106 
L 247.186971 247.185919 
L 247.699854 249.020895 
L 248.212736 248.758755 
L 248.725618 248.234476 
L 249.238501 247.448058 
L 249.751383 248.758755 
L 250.264265 254.001544 
L 250.777148 251.642289 
L 251.29003 253.739404 
L 251.802913 254.001544 
L 252.315795 254.525823 
L 252.828677 256.098659 
L 253.854442 254.525823 
L 254.367324 256.885078 
L 254.880207 256.360799 
L 255.393089 256.098659 
L 255.905972 255.57438 
L 256.931736 256.098659 
L 257.444619 255.83652 
L 257.957501 253.215125 
L 258.470383 251.380149 
L 258.983266 250.855871 
L 259.496148 250.593731 
L 260.009031 249.020895 
L 260.521913 248.758755 
L 261.034795 247.972337 
L 261.547678 250.069452 
L 262.06056 249.020895 
L 262.573442 246.923779 
L 263.086325 247.185919 
L 263.599207 248.496616 
L 264.624972 244.826664 
L 266.163619 235.389644 
L 266.676502 234.603226 
L 267.189384 233.292529 
L 267.702266 231.457553 
L 268.215149 230.933274 
L 268.728031 227.001182 
L 269.240913 224.117649 
L 269.753796 218.350581 
L 270.266678 215.467047 
L 270.779561 209.43784 
L 271.292443 207.078586 
L 271.805325 200.000821 
L 272.83109 189.777383 
L 273.343972 174.573296 
L 273.856855 165.922695 
L 274.369737 162.514882 
L 274.88262 168.01981 
L 275.395502 166.184834 
L 275.908384 158.84493 
L 276.421267 162.777022 
L 276.934149 182.961758 
L 277.447031 185.058873 
L 277.959914 194.758032 
L 278.472796 187.680268 
L 278.985679 192.660917 
L 279.498561 200.5251 
L 280.011443 192.923056 
L 280.524326 189.253104 
L 281.037208 193.185196 
L 281.55009 185.321013 
L 282.062973 187.418128 
L 282.575855 185.583152 
L 283.088738 181.9132 
L 283.60162 184.534595 
L 284.627385 173.524738 
L 285.140267 177.19469 
L 285.65315 177.718969 
L 286.166032 177.981109 
L 286.678914 179.816085 
L 287.191797 182.17534 
L 288.217561 190.301662 
L 288.730444 189.253104 
L 289.243326 191.08808 
L 289.756209 195.80659 
L 290.269091 202.622215 
L 291.294856 219.399139 
L 291.807738 224.117649 
L 292.32062 225.166206 
L 292.833503 217.302023 
L 293.346385 215.467047 
L 294.37215 202.622215 
L 294.885032 203.146494 
L 295.397915 201.573658 
L 295.910797 203.670773 
L 296.423679 211.272817 
L 296.936562 213.894211 
L 297.449444 217.564163 
L 297.962327 223.855509 
L 298.475209 218.87486 
L 298.988091 223.069091 
L 299.500974 221.758394 
L 300.013856 222.806951 
L 300.526738 223.069091 
L 301.039621 231.195413 
L 301.552503 233.292529 
L 302.065386 242.205269 
L 302.578268 241.418851 
L 303.09115 247.710197 
L 303.604033 249.807313 
L 304.116915 253.477265 
L 304.629798 255.83652 
L 305.14268 256.098659 
L 305.655562 256.098659 
L 306.168445 258.720054 
L 306.681327 257.147217 
L 307.707092 256.622938 
L 308.219974 256.885078 
L 308.732857 260.030751 
L 309.245739 261.603587 
L 309.758621 261.079308 
L 310.271504 262.127866 
L 310.784386 263.438563 
L 311.297268 262.914284 
L 311.810151 263.700703 
L 312.323033 262.652145 
L 312.835916 262.652145 
L 313.348798 261.603587 
L 313.86168 260.817169 
L 314.374563 261.079308 
L 314.887445 262.390006 
L 315.400327 262.127866 
L 315.91321 263.176424 
L 316.426092 262.914284 
L 316.938975 263.962842 
L 317.451857 264.487121 
L 317.964739 264.224982 
L 318.477622 264.487121 
L 318.990504 265.273539 
L 320.016269 265.797818 
L 320.529151 265.535679 
L 321.042034 265.535679 
L 321.554916 265.273539 
L 322.067798 265.273539 
L 323.093563 264.224982 
L 323.606445 264.224982 
L 324.119328 264.487121 
L 324.63221 264.487121 
L 325.145093 264.74926 
L 325.657975 264.74926 
L 326.170857 265.273539 
L 326.68374 265.535679 
L 327.196622 265.535679 
L 327.709505 265.273539 
L 328.735269 265.273539 
L 329.761034 264.74926 
L 330.273916 265.0114 
L 330.786799 265.0114 
L 331.299681 265.273539 
L 331.812564 265.273539 
L 332.325446 265.0114 
L 333.351211 265.535679 
L 333.864093 265.535679 
L 334.376975 265.273539 
L 334.889858 265.273539 
L 335.40274 265.0114 
L 335.915623 265.273539 
L 336.428505 263.438563 
L 336.941387 262.127866 
L 337.45427 259.506472 
L 337.967152 258.720054 
L 338.992917 257.671496 
L 339.505799 257.671496 
L 340.018682 258.982193 
L 340.531564 259.506472 
L 341.044446 261.865727 
L 341.557329 262.914284 
L 342.070211 262.914284 
L 342.583093 263.700703 
L 343.095976 263.438563 
L 343.608858 263.700703 
L 344.121741 263.176424 
L 344.634623 262.390006 
L 345.147505 261.079308 
L 346.17327 260.030751 
L 346.686153 260.29289 
L 347.199035 256.098659 
L 347.711917 253.477265 
L 348.2248 254.001544 
L 348.737682 254.263683 
L 349.250564 254.787962 
L 349.763447 254.525823 
L 350.789212 251.380149 
L 351.302094 251.11801 
L 352.327859 243.253827 
L 352.840741 236.438202 
L 354.379388 230.671134 
L 355.405153 216.253466 
L 355.918035 212.321374 
L 356.430918 214.942769 
L 357.456682 214.41849 
L 358.482447 213.369932 
L 359.508212 222.806951 
L 360.021094 219.923418 
L 360.533977 217.826302 
L 361.046859 219.136999 
L 362.072624 226.476904 
L 362.585506 228.574019 
L 363.098389 228.04974 
L 363.611271 229.622577 
L 364.124153 233.030389 
L 364.637036 233.292529 
L 365.149918 233.816808 
L 365.662801 239.583875 
L 366.175683 239.583875 
L 366.688565 243.515967 
L 367.201448 245.613082 
L 367.71433 245.613082 
L 368.227212 246.137361 
L 368.740095 245.875221 
L 369.252977 246.137361 
L 369.76586 248.496616 
L 370.278742 248.758755 
L 370.791624 250.593731 
L 371.304507 250.593731 
L 371.817389 251.11801 
L 372.843154 252.690847 
L 373.356036 251.904428 
L 373.868919 251.380149 
L 374.381801 251.642289 
L 375.407566 247.710197 
L 375.920448 248.496616 
L 376.43333 241.680991 
L 376.946213 238.273178 
L 377.459095 231.981832 
L 378.48486 223.855509 
L 378.997742 223.33123 
L 379.510625 214.41849 
L 380.023507 210.224259 
L 380.536389 201.311518 
L 381.049272 194.758032 
L 381.562154 186.107431 
L 382.075037 187.680268 
L 382.587919 187.418128 
L 383.100801 187.942407 
L 383.613684 180.864642 
L 384.126566 181.9132 
L 384.639449 181.651061 
L 385.152331 186.893849 
L 385.665213 179.816085 
L 386.178096 174.835436 
L 386.690978 172.73832 
L 387.20386 180.078224 
L 387.716743 169.068368 
L 388.229625 165.660555 
L 388.742508 159.369209 
L 389.25539 154.650699 
L 390.281155 140.49517 
L 391.819802 92.523654 
L 392.332684 90.164399 
L 392.845567 89.90226 
L 393.358449 82.562356 
L 393.871331 64.474735 
L 394.384214 58.707668 
L 394.897096 58.969807 
L 395.409978 52.154182 
L 395.922861 56.610552 
L 396.435743 59.756225 
L 396.948626 54.251297 
L 397.461508 66.83399 
L 397.97439 66.047572 
L 398.487273 84.659471 
L 398.487273 84.659471 
" clip-path="url(#p978ca89300)" style="fill: none; stroke: #1f77b4; stroke-width: 1.5; stroke-linecap: square"/>
   </g>
   <g id="patch_3">
    <path d="M 57.6 276.48 
L 57.6 41.472 
" style="fill: none; stroke: #000000; stroke-width: 0.8; stroke-linejoin: miter; stroke-linecap: square"/>
   </g>
   <g id="patch_4">
    <path d="M 414.72 276.48 
L 414.72 41.472 
" style="fill: none; stroke: #000000; stroke-width: 0.8; stroke-linejoin: miter; stroke-linecap: square"/>
   </g>
   <g id="patch_5">
    <path d="M 57.6 276.48 
L 414.72 276.48 
" style="fill: none; stroke: #000000; stroke-width: 0.8; stroke-linejoin: miter; stroke-linecap: square"/>
   </g>
   <g id="patch_6">
    <path d="M 57.6 41.472 
L 414.72 41.472 
" style="fill: none; stroke: #000000; stroke-width: 0.8; stroke-linejoin: miter; stroke-linecap: square"/>
   </g>
  </g>
  <g id="text_19">
   <!-- Inzidenzverlauf LK Kelheim -->
   <g transform="translate(109.050469 20.589187)scale(0.18 -0.18)">
    <defs>
     <path id="DejaVuSans-76" d="M 191 3500 
L 800 3500 
L 1894 563 
L 2988 3500 
L 3597 3500 
L 2284 0 
L 1503 0 
L 191 3500 
z
" transform="scale(0.015625)"/>
     <path id="DejaVuSans-6c" d="M 603 4863 
L 1178 4863 
L 1178 0 
L 603 0 
L 603 4863 
z
" transform="scale(0.015625)"/>
     <path id="DejaVuSans-75" d="M 544 1381 
L 544 3500 
L 1119 3500 
L 1119 1403 
Q 1119 906 1312 657 
Q 1506 409 1894 409 
Q 2359 409 2629 706 
Q 2900 1003 2900 1516 
L 2900 3500 
L 3475 3500 
L 3475 0 
L 2900 0 
L 2900 538 
Q 2691 219 2414 64 
Q 2138 -91 1772 -91 
Q 1169 -91 856 284 
Q 544 659 544 1381 
z
M 1991 3584 
L 1991 3584 
z
" transform="scale(0.015625)"/>
     <path id="DejaVuSans-66" d="M 2375 4863 
L 2375 4384 
L 1825 4384 
Q 1516 4384 1395 4259 
Q 1275 4134 1275 3809 
L 1275 3500 
L 2222 3500 
L 2222 3053 
L 1275 3053 
L 1275 0 
L 697 0 
L 697 3053 
L 147 3053 
L 147 3500 
L 697 3500 
L 697 3744 
Q 697 4328 969 4595 
Q 1241 4863 1831 4863 
L 2375 4863 
z
" transform="scale(0.015625)"/>
     <path id="DejaVuSans-4c" d="M 628 4666 
L 1259 4666 
L 1259 531 
L 3531 531 
L 3531 0 
L 628 0 
L 628 4666 
z
" transform="scale(0.015625)"/>
     <path id="DejaVuSans-4b" d="M 628 4666 
L 1259 4666 
L 1259 2694 
L 3353 4666 
L 4166 4666 
L 1850 2491 
L 4331 0 
L 3500 0 
L 1259 2247 
L 1259 0 
L 628 0 
L 628 4666 
z
" transform="scale(0.015625)"/>
     <path id="DejaVuSans-6d" d="M 3328 2828 
Q 3544 3216 3844 3400 
Q 4144 3584 4550 3584 
Q 5097 3584 5394 3201 
Q 5691 2819 5691 2113 
L 5691 0 
L 5113 0 
L 5113 2094 
Q 5113 2597 4934 2840 
Q 4756 3084 4391 3084 
Q 3944 3084 3684 2787 
Q 3425 2491 3425 1978 
L 3425 0 
L 2847 0 
L 2847 2094 
Q 2847 2600 2669 2842 
Q 2491 3084 2119 3084 
Q 1678 3084 1418 2786 
Q 1159 2488 1159 1978 
L 1159 0 
L 581 0 
L 581 3500 
L 1159 3500 
L 1159 2956 
Q 1356 3278 1631 3431 
Q 1906 3584 2284 3584 
Q 2666 3584 2933 3390 
Q 3200 3197 3328 2828 
z
" transform="scale(0.015625)"/>
    </defs>
    <use xlink:href="#DejaVuSans-49"/>
    <use xlink:href="#DejaVuSans-6e" x="29.492188"/>
    <use xlink:href="#DejaVuSans-7a" x="92.871094"/>
    <use xlink:href="#DejaVuSans-69" x="145.361328"/>
    <use xlink:href="#DejaVuSans-64" x="173.144531"/>
    <use xlink:href="#DejaVuSans-65" x="236.621094"/>
    <use xlink:href="#DejaVuSans-6e" x="298.144531"/>
    <use xlink:href="#DejaVuSans-7a" x="361.523438"/>
    <use xlink:href="#DejaVuSans-76" x="414.013672"/>
    <use xlink:href="#DejaVuSans-65" x="473.193359"/>
    <use xlink:href="#DejaVuSans-72" x="534.716797"/>
    <use xlink:href="#DejaVuSans-6c" x="575.830078"/>
    <use xlink:href="#DejaVuSans-61" x="603.613281"/>
    <use xlink:href="#DejaVuSans-75" x="664.892578"/>
    <use xlink:href="#DejaVuSans-66" x="728.271484"/>
    <use xlink:href="#DejaVuSans-20" x="763.476562"/>
    <use xlink:href="#DejaVuSans-4c" x="795.263672"/>
    <use xlink:href="#DejaVuSans-4b" x="850.976562"/>
    <use xlink:href="#DejaVuSans-20" x="916.552734"/>
    <use xlink:href="#DejaVuSans-4b" x="948.339844"/>
    <use xlink:href="#DejaVuSans-65" x="1008.916016"/>
    <use xlink:href="#DejaVuSans-6c" x="1070.439453"/>
    <use xlink:href="#DejaVuSans-68" x="1098.222656"/>
    <use xlink:href="#DejaVuSans-65" x="1161.601562"/>
    <use xlink:href="#DejaVuSans-69" x="1223.125"/>
    <use xlink:href="#DejaVuSans-6d" x="1250.908203"/>
   </g>
  </g>
 </g>
 <defs>
  <clipPath id="p978ca89300">
   <rect x="57.6" y="41.472" width="357.12" height="235.008"/>
  </clipPath>
 </defs>
</svg>
