<?xml version="1.0" encoding="utf-8" standalone="no"?>
<!DOCTYPE svg PUBLIC "-//W3C//DTD SVG 1.1//EN"
  "http://www.w3.org/Graphics/SVG/1.1/DTD/svg11.dtd">
<svg xmlns:xlink="http://www.w3.org/1999/xlink" width="460.8pt" height="345.6pt" viewBox="0 0 460.8 345.6" xmlns="http://www.w3.org/2000/svg" version="1.1">
 <metadata>
  <rdf:RDF xmlns:dc="http://purl.org/dc/elements/1.1/" xmlns:cc="http://creativecommons.org/ns#" xmlns:rdf="http://www.w3.org/1999/02/22-rdf-syntax-ns#">
   <cc:Work>
    <dc:type rdf:resource="http://purl.org/dc/dcmitype/StillImage"/>
    <dc:date>2022-09-10T09:24:00.950841</dc:date>
    <dc:format>image/svg+xml</dc:format>
    <dc:creator>
     <cc:Agent>
      <dc:title>Matplotlib v3.5.3, https://matplotlib.org/</dc:title>
     </cc:Agent>
    </dc:creator>
   </cc:Work>
  </rdf:RDF>
 </metadata>
 <defs>
  <style type="text/css">*{stroke-linejoin: round; stroke-linecap: butt}</style>
 </defs>
 <g id="figure_1">
  <g id="patch_1">
   <path d="M 0 345.6 
L 460.8 345.6 
L 460.8 0 
L 0 0 
z
" style="fill: #ffffff"/>
  </g>
  <g id="axes_1">
   <g id="patch_2">
    <path d="M 57.6 276.48 
L 414.72 276.48 
L 414.72 41.472 
L 57.6 41.472 
z
" style="fill: #ffffff"/>
   </g>
   <g id="matplotlib.axis_1">
    <g id="xtick_1">
     <g id="line2d_1">
      <path d="M 59.482949 276.48 
L 59.482949 41.472 
" clip-path="url(#p0e6f2bfb51)" style="fill: none; stroke-dasharray: 2.96,1.28; stroke-dashoffset: 0; stroke: #808080; stroke-width: 0.8"/>
     </g>
     <g id="line2d_2">
      <defs>
       <path id="m86173fe4a4" d="M 0 0 
L 0 3.5 
" style="stroke: #000000; stroke-width: 0.8"/>
      </defs>
      <g>
       <use xlink:href="#m86173fe4a4" x="59.482949" y="276.48" style="stroke: #000000; stroke-width: 0.8"/>
      </g>
     </g>
     <g id="text_1">
      <!-- 22.01.2020 -->
      <g transform="translate(8.857739 318.688565)rotate(-30)scale(0.1 -0.1)">
       <defs>
        <path id="DejaVuSans-32" d="M 1228 531 
L 3431 531 
L 3431 0 
L 469 0 
L 469 531 
Q 828 903 1448 1529 
Q 2069 2156 2228 2338 
Q 2531 2678 2651 2914 
Q 2772 3150 2772 3378 
Q 2772 3750 2511 3984 
Q 2250 4219 1831 4219 
Q 1534 4219 1204 4116 
Q 875 4013 500 3803 
L 500 4441 
Q 881 4594 1212 4672 
Q 1544 4750 1819 4750 
Q 2544 4750 2975 4387 
Q 3406 4025 3406 3419 
Q 3406 3131 3298 2873 
Q 3191 2616 2906 2266 
Q 2828 2175 2409 1742 
Q 1991 1309 1228 531 
z
" transform="scale(0.015625)"/>
        <path id="DejaVuSans-2e" d="M 684 794 
L 1344 794 
L 1344 0 
L 684 0 
L 684 794 
z
" transform="scale(0.015625)"/>
        <path id="DejaVuSans-30" d="M 2034 4250 
Q 1547 4250 1301 3770 
Q 1056 3291 1056 2328 
Q 1056 1369 1301 889 
Q 1547 409 2034 409 
Q 2525 409 2770 889 
Q 3016 1369 3016 2328 
Q 3016 3291 2770 3770 
Q 2525 4250 2034 4250 
z
M 2034 4750 
Q 2819 4750 3233 4129 
Q 3647 3509 3647 2328 
Q 3647 1150 3233 529 
Q 2819 -91 2034 -91 
Q 1250 -91 836 529 
Q 422 1150 422 2328 
Q 422 3509 836 4129 
Q 1250 4750 2034 4750 
z
" transform="scale(0.015625)"/>
        <path id="DejaVuSans-31" d="M 794 531 
L 1825 531 
L 1825 4091 
L 703 3866 
L 703 4441 
L 1819 4666 
L 2450 4666 
L 2450 531 
L 3481 531 
L 3481 0 
L 794 0 
L 794 531 
z
" transform="scale(0.015625)"/>
       </defs>
       <use xlink:href="#DejaVuSans-32"/>
       <use xlink:href="#DejaVuSans-32" x="63.623047"/>
       <use xlink:href="#DejaVuSans-2e" x="127.246094"/>
       <use xlink:href="#DejaVuSans-30" x="159.033203"/>
       <use xlink:href="#DejaVuSans-31" x="222.65625"/>
       <use xlink:href="#DejaVuSans-2e" x="286.279297"/>
       <use xlink:href="#DejaVuSans-32" x="318.066406"/>
       <use xlink:href="#DejaVuSans-30" x="381.689453"/>
       <use xlink:href="#DejaVuSans-32" x="445.3125"/>
       <use xlink:href="#DejaVuSans-30" x="508.935547"/>
      </g>
     </g>
    </g>
    <g id="xtick_2">
     <g id="line2d_3">
      <path d="M 95.438176 276.48 
L 95.438176 41.472 
" clip-path="url(#p0e6f2bfb51)" style="fill: none; stroke-dasharray: 2.96,1.28; stroke-dashoffset: 0; stroke: #808080; stroke-width: 0.8"/>
     </g>
     <g id="line2d_4">
      <g>
       <use xlink:href="#m86173fe4a4" x="95.438176" y="276.48" style="stroke: #000000; stroke-width: 0.8"/>
      </g>
     </g>
     <g id="text_2">
      <!-- 03.05.2020 -->
      <g transform="translate(44.812965 318.688565)rotate(-30)scale(0.1 -0.1)">
       <defs>
        <path id="DejaVuSans-33" d="M 2597 2516 
Q 3050 2419 3304 2112 
Q 3559 1806 3559 1356 
Q 3559 666 3084 287 
Q 2609 -91 1734 -91 
Q 1441 -91 1130 -33 
Q 819 25 488 141 
L 488 750 
Q 750 597 1062 519 
Q 1375 441 1716 441 
Q 2309 441 2620 675 
Q 2931 909 2931 1356 
Q 2931 1769 2642 2001 
Q 2353 2234 1838 2234 
L 1294 2234 
L 1294 2753 
L 1863 2753 
Q 2328 2753 2575 2939 
Q 2822 3125 2822 3475 
Q 2822 3834 2567 4026 
Q 2313 4219 1838 4219 
Q 1578 4219 1281 4162 
Q 984 4106 628 3988 
L 628 4550 
Q 988 4650 1302 4700 
Q 1616 4750 1894 4750 
Q 2613 4750 3031 4423 
Q 3450 4097 3450 3541 
Q 3450 3153 3228 2886 
Q 3006 2619 2597 2516 
z
" transform="scale(0.015625)"/>
        <path id="DejaVuSans-35" d="M 691 4666 
L 3169 4666 
L 3169 4134 
L 1269 4134 
L 1269 2991 
Q 1406 3038 1543 3061 
Q 1681 3084 1819 3084 
Q 2600 3084 3056 2656 
Q 3513 2228 3513 1497 
Q 3513 744 3044 326 
Q 2575 -91 1722 -91 
Q 1428 -91 1123 -41 
Q 819 9 494 109 
L 494 744 
Q 775 591 1075 516 
Q 1375 441 1709 441 
Q 2250 441 2565 725 
Q 2881 1009 2881 1497 
Q 2881 1984 2565 2268 
Q 2250 2553 1709 2553 
Q 1456 2553 1204 2497 
Q 953 2441 691 2322 
L 691 4666 
z
" transform="scale(0.015625)"/>
       </defs>
       <use xlink:href="#DejaVuSans-30"/>
       <use xlink:href="#DejaVuSans-33" x="63.623047"/>
       <use xlink:href="#DejaVuSans-2e" x="127.246094"/>
       <use xlink:href="#DejaVuSans-30" x="159.033203"/>
       <use xlink:href="#DejaVuSans-35" x="222.65625"/>
       <use xlink:href="#DejaVuSans-2e" x="286.279297"/>
       <use xlink:href="#DejaVuSans-32" x="318.066406"/>
       <use xlink:href="#DejaVuSans-30" x="381.689453"/>
       <use xlink:href="#DejaVuSans-32" x="445.3125"/>
       <use xlink:href="#DejaVuSans-30" x="508.935547"/>
      </g>
     </g>
    </g>
    <g id="xtick_3">
     <g id="line2d_5">
      <path d="M 131.393402 276.48 
L 131.393402 41.472 
" clip-path="url(#p0e6f2bfb51)" style="fill: none; stroke-dasharray: 2.96,1.28; stroke-dashoffset: 0; stroke: #808080; stroke-width: 0.8"/>
     </g>
     <g id="line2d_6">
      <g>
       <use xlink:href="#m86173fe4a4" x="131.393402" y="276.48" style="stroke: #000000; stroke-width: 0.8"/>
      </g>
     </g>
     <g id="text_3">
      <!-- 13.08.2020 -->
      <g transform="translate(80.768192 318.688565)rotate(-30)scale(0.1 -0.1)">
       <defs>
        <path id="DejaVuSans-38" d="M 2034 2216 
Q 1584 2216 1326 1975 
Q 1069 1734 1069 1313 
Q 1069 891 1326 650 
Q 1584 409 2034 409 
Q 2484 409 2743 651 
Q 3003 894 3003 1313 
Q 3003 1734 2745 1975 
Q 2488 2216 2034 2216 
z
M 1403 2484 
Q 997 2584 770 2862 
Q 544 3141 544 3541 
Q 544 4100 942 4425 
Q 1341 4750 2034 4750 
Q 2731 4750 3128 4425 
Q 3525 4100 3525 3541 
Q 3525 3141 3298 2862 
Q 3072 2584 2669 2484 
Q 3125 2378 3379 2068 
Q 3634 1759 3634 1313 
Q 3634 634 3220 271 
Q 2806 -91 2034 -91 
Q 1263 -91 848 271 
Q 434 634 434 1313 
Q 434 1759 690 2068 
Q 947 2378 1403 2484 
z
M 1172 3481 
Q 1172 3119 1398 2916 
Q 1625 2713 2034 2713 
Q 2441 2713 2670 2916 
Q 2900 3119 2900 3481 
Q 2900 3844 2670 4047 
Q 2441 4250 2034 4250 
Q 1625 4250 1398 4047 
Q 1172 3844 1172 3481 
z
" transform="scale(0.015625)"/>
       </defs>
       <use xlink:href="#DejaVuSans-31"/>
       <use xlink:href="#DejaVuSans-33" x="63.623047"/>
       <use xlink:href="#DejaVuSans-2e" x="127.246094"/>
       <use xlink:href="#DejaVuSans-30" x="159.033203"/>
       <use xlink:href="#DejaVuSans-38" x="222.65625"/>
       <use xlink:href="#DejaVuSans-2e" x="286.279297"/>
       <use xlink:href="#DejaVuSans-32" x="318.066406"/>
       <use xlink:href="#DejaVuSans-30" x="381.689453"/>
       <use xlink:href="#DejaVuSans-32" x="445.3125"/>
       <use xlink:href="#DejaVuSans-30" x="508.935547"/>
      </g>
     </g>
    </g>
    <g id="xtick_4">
     <g id="line2d_7">
      <path d="M 167.348629 276.48 
L 167.348629 41.472 
" clip-path="url(#p0e6f2bfb51)" style="fill: none; stroke-dasharray: 2.96,1.28; stroke-dashoffset: 0; stroke: #808080; stroke-width: 0.8"/>
     </g>
     <g id="line2d_8">
      <g>
       <use xlink:href="#m86173fe4a4" x="167.348629" y="276.48" style="stroke: #000000; stroke-width: 0.8"/>
      </g>
     </g>
     <g id="text_4">
      <!-- 23.11.2020 -->
      <g transform="translate(116.723418 318.688565)rotate(-30)scale(0.1 -0.1)">
       <use xlink:href="#DejaVuSans-32"/>
       <use xlink:href="#DejaVuSans-33" x="63.623047"/>
       <use xlink:href="#DejaVuSans-2e" x="127.246094"/>
       <use xlink:href="#DejaVuSans-31" x="159.033203"/>
       <use xlink:href="#DejaVuSans-31" x="222.65625"/>
       <use xlink:href="#DejaVuSans-2e" x="286.279297"/>
       <use xlink:href="#DejaVuSans-32" x="318.066406"/>
       <use xlink:href="#DejaVuSans-30" x="381.689453"/>
       <use xlink:href="#DejaVuSans-32" x="445.3125"/>
       <use xlink:href="#DejaVuSans-30" x="508.935547"/>
      </g>
     </g>
    </g>
    <g id="xtick_5">
     <g id="line2d_9">
      <path d="M 203.303855 276.48 
L 203.303855 41.472 
" clip-path="url(#p0e6f2bfb51)" style="fill: none; stroke-dasharray: 2.96,1.28; stroke-dashoffset: 0; stroke: #808080; stroke-width: 0.8"/>
     </g>
     <g id="line2d_10">
      <g>
       <use xlink:href="#m86173fe4a4" x="203.303855" y="276.48" style="stroke: #000000; stroke-width: 0.8"/>
      </g>
     </g>
     <g id="text_5">
      <!-- 05.03.2021 -->
      <g transform="translate(152.678645 318.688565)rotate(-30)scale(0.1 -0.1)">
       <use xlink:href="#DejaVuSans-30"/>
       <use xlink:href="#DejaVuSans-35" x="63.623047"/>
       <use xlink:href="#DejaVuSans-2e" x="127.246094"/>
       <use xlink:href="#DejaVuSans-30" x="159.033203"/>
       <use xlink:href="#DejaVuSans-33" x="222.65625"/>
       <use xlink:href="#DejaVuSans-2e" x="286.279297"/>
       <use xlink:href="#DejaVuSans-32" x="318.066406"/>
       <use xlink:href="#DejaVuSans-30" x="381.689453"/>
       <use xlink:href="#DejaVuSans-32" x="445.3125"/>
       <use xlink:href="#DejaVuSans-31" x="508.935547"/>
      </g>
     </g>
    </g>
    <g id="xtick_6">
     <g id="line2d_11">
      <path d="M 239.259082 276.48 
L 239.259082 41.472 
" clip-path="url(#p0e6f2bfb51)" style="fill: none; stroke-dasharray: 2.96,1.28; stroke-dashoffset: 0; stroke: #808080; stroke-width: 0.8"/>
     </g>
     <g id="line2d_12">
      <g>
       <use xlink:href="#m86173fe4a4" x="239.259082" y="276.48" style="stroke: #000000; stroke-width: 0.8"/>
      </g>
     </g>
     <g id="text_6">
      <!-- 15.06.2021 -->
      <g transform="translate(188.633871 318.688565)rotate(-30)scale(0.1 -0.1)">
       <defs>
        <path id="DejaVuSans-36" d="M 2113 2584 
Q 1688 2584 1439 2293 
Q 1191 2003 1191 1497 
Q 1191 994 1439 701 
Q 1688 409 2113 409 
Q 2538 409 2786 701 
Q 3034 994 3034 1497 
Q 3034 2003 2786 2293 
Q 2538 2584 2113 2584 
z
M 3366 4563 
L 3366 3988 
Q 3128 4100 2886 4159 
Q 2644 4219 2406 4219 
Q 1781 4219 1451 3797 
Q 1122 3375 1075 2522 
Q 1259 2794 1537 2939 
Q 1816 3084 2150 3084 
Q 2853 3084 3261 2657 
Q 3669 2231 3669 1497 
Q 3669 778 3244 343 
Q 2819 -91 2113 -91 
Q 1303 -91 875 529 
Q 447 1150 447 2328 
Q 447 3434 972 4092 
Q 1497 4750 2381 4750 
Q 2619 4750 2861 4703 
Q 3103 4656 3366 4563 
z
" transform="scale(0.015625)"/>
       </defs>
       <use xlink:href="#DejaVuSans-31"/>
       <use xlink:href="#DejaVuSans-35" x="63.623047"/>
       <use xlink:href="#DejaVuSans-2e" x="127.246094"/>
       <use xlink:href="#DejaVuSans-30" x="159.033203"/>
       <use xlink:href="#DejaVuSans-36" x="222.65625"/>
       <use xlink:href="#DejaVuSans-2e" x="286.279297"/>
       <use xlink:href="#DejaVuSans-32" x="318.066406"/>
       <use xlink:href="#DejaVuSans-30" x="381.689453"/>
       <use xlink:href="#DejaVuSans-32" x="445.3125"/>
       <use xlink:href="#DejaVuSans-31" x="508.935547"/>
      </g>
     </g>
    </g>
    <g id="xtick_7">
     <g id="line2d_13">
      <path d="M 275.214309 276.48 
L 275.214309 41.472 
" clip-path="url(#p0e6f2bfb51)" style="fill: none; stroke-dasharray: 2.96,1.28; stroke-dashoffset: 0; stroke: #808080; stroke-width: 0.8"/>
     </g>
     <g id="line2d_14">
      <g>
       <use xlink:href="#m86173fe4a4" x="275.214309" y="276.48" style="stroke: #000000; stroke-width: 0.8"/>
      </g>
     </g>
     <g id="text_7">
      <!-- 25.09.2021 -->
      <g transform="translate(224.589098 318.688565)rotate(-30)scale(0.1 -0.1)">
       <defs>
        <path id="DejaVuSans-39" d="M 703 97 
L 703 672 
Q 941 559 1184 500 
Q 1428 441 1663 441 
Q 2288 441 2617 861 
Q 2947 1281 2994 2138 
Q 2813 1869 2534 1725 
Q 2256 1581 1919 1581 
Q 1219 1581 811 2004 
Q 403 2428 403 3163 
Q 403 3881 828 4315 
Q 1253 4750 1959 4750 
Q 2769 4750 3195 4129 
Q 3622 3509 3622 2328 
Q 3622 1225 3098 567 
Q 2575 -91 1691 -91 
Q 1453 -91 1209 -44 
Q 966 3 703 97 
z
M 1959 2075 
Q 2384 2075 2632 2365 
Q 2881 2656 2881 3163 
Q 2881 3666 2632 3958 
Q 2384 4250 1959 4250 
Q 1534 4250 1286 3958 
Q 1038 3666 1038 3163 
Q 1038 2656 1286 2365 
Q 1534 2075 1959 2075 
z
" transform="scale(0.015625)"/>
       </defs>
       <use xlink:href="#DejaVuSans-32"/>
       <use xlink:href="#DejaVuSans-35" x="63.623047"/>
       <use xlink:href="#DejaVuSans-2e" x="127.246094"/>
       <use xlink:href="#DejaVuSans-30" x="159.033203"/>
       <use xlink:href="#DejaVuSans-39" x="222.65625"/>
       <use xlink:href="#DejaVuSans-2e" x="286.279297"/>
       <use xlink:href="#DejaVuSans-32" x="318.066406"/>
       <use xlink:href="#DejaVuSans-30" x="381.689453"/>
       <use xlink:href="#DejaVuSans-32" x="445.3125"/>
       <use xlink:href="#DejaVuSans-31" x="508.935547"/>
      </g>
     </g>
    </g>
    <g id="xtick_8">
     <g id="line2d_15">
      <path d="M 311.169535 276.48 
L 311.169535 41.472 
" clip-path="url(#p0e6f2bfb51)" style="fill: none; stroke-dasharray: 2.96,1.28; stroke-dashoffset: 0; stroke: #808080; stroke-width: 0.8"/>
     </g>
     <g id="line2d_16">
      <g>
       <use xlink:href="#m86173fe4a4" x="311.169535" y="276.48" style="stroke: #000000; stroke-width: 0.8"/>
      </g>
     </g>
     <g id="text_8">
      <!-- 05.01.2022 -->
      <g transform="translate(260.544324 318.688565)rotate(-30)scale(0.1 -0.1)">
       <use xlink:href="#DejaVuSans-30"/>
       <use xlink:href="#DejaVuSans-35" x="63.623047"/>
       <use xlink:href="#DejaVuSans-2e" x="127.246094"/>
       <use xlink:href="#DejaVuSans-30" x="159.033203"/>
       <use xlink:href="#DejaVuSans-31" x="222.65625"/>
       <use xlink:href="#DejaVuSans-2e" x="286.279297"/>
       <use xlink:href="#DejaVuSans-32" x="318.066406"/>
       <use xlink:href="#DejaVuSans-30" x="381.689453"/>
       <use xlink:href="#DejaVuSans-32" x="445.3125"/>
       <use xlink:href="#DejaVuSans-32" x="508.935547"/>
      </g>
     </g>
    </g>
    <g id="xtick_9">
     <g id="line2d_17">
      <path d="M 347.124762 276.48 
L 347.124762 41.472 
" clip-path="url(#p0e6f2bfb51)" style="fill: none; stroke-dasharray: 2.96,1.28; stroke-dashoffset: 0; stroke: #808080; stroke-width: 0.8"/>
     </g>
     <g id="line2d_18">
      <g>
       <use xlink:href="#m86173fe4a4" x="347.124762" y="276.48" style="stroke: #000000; stroke-width: 0.8"/>
      </g>
     </g>
     <g id="text_9">
      <!-- 17.04.2022 -->
      <g transform="translate(296.499551 318.688565)rotate(-30)scale(0.1 -0.1)">
       <defs>
        <path id="DejaVuSans-37" d="M 525 4666 
L 3525 4666 
L 3525 4397 
L 1831 0 
L 1172 0 
L 2766 4134 
L 525 4134 
L 525 4666 
z
" transform="scale(0.015625)"/>
        <path id="DejaVuSans-34" d="M 2419 4116 
L 825 1625 
L 2419 1625 
L 2419 4116 
z
M 2253 4666 
L 3047 4666 
L 3047 1625 
L 3713 1625 
L 3713 1100 
L 3047 1100 
L 3047 0 
L 2419 0 
L 2419 1100 
L 313 1100 
L 313 1709 
L 2253 4666 
z
" transform="scale(0.015625)"/>
       </defs>
       <use xlink:href="#DejaVuSans-31"/>
       <use xlink:href="#DejaVuSans-37" x="63.623047"/>
       <use xlink:href="#DejaVuSans-2e" x="127.246094"/>
       <use xlink:href="#DejaVuSans-30" x="159.033203"/>
       <use xlink:href="#DejaVuSans-34" x="222.65625"/>
       <use xlink:href="#DejaVuSans-2e" x="286.279297"/>
       <use xlink:href="#DejaVuSans-32" x="318.066406"/>
       <use xlink:href="#DejaVuSans-30" x="381.689453"/>
       <use xlink:href="#DejaVuSans-32" x="445.3125"/>
       <use xlink:href="#DejaVuSans-32" x="508.935547"/>
      </g>
     </g>
    </g>
    <g id="xtick_10">
     <g id="line2d_19">
      <path d="M 383.079988 276.48 
L 383.079988 41.472 
" clip-path="url(#p0e6f2bfb51)" style="fill: none; stroke-dasharray: 2.96,1.28; stroke-dashoffset: 0; stroke: #808080; stroke-width: 0.8"/>
     </g>
     <g id="line2d_20">
      <g>
       <use xlink:href="#m86173fe4a4" x="383.079988" y="276.48" style="stroke: #000000; stroke-width: 0.8"/>
      </g>
     </g>
     <g id="text_10">
      <!-- 28.07.2022 -->
      <g transform="translate(332.454777 318.688565)rotate(-30)scale(0.1 -0.1)">
       <use xlink:href="#DejaVuSans-32"/>
       <use xlink:href="#DejaVuSans-38" x="63.623047"/>
       <use xlink:href="#DejaVuSans-2e" x="127.246094"/>
       <use xlink:href="#DejaVuSans-30" x="159.033203"/>
       <use xlink:href="#DejaVuSans-37" x="222.65625"/>
       <use xlink:href="#DejaVuSans-2e" x="286.279297"/>
       <use xlink:href="#DejaVuSans-32" x="318.066406"/>
       <use xlink:href="#DejaVuSans-30" x="381.689453"/>
       <use xlink:href="#DejaVuSans-32" x="445.3125"/>
       <use xlink:href="#DejaVuSans-32" x="508.935547"/>
      </g>
     </g>
    </g>
   </g>
   <g id="matplotlib.axis_2">
    <g id="ytick_1">
     <g id="line2d_21">
      <path d="M 57.6 265.754926 
L 414.72 265.754926 
" clip-path="url(#p0e6f2bfb51)" style="fill: none; stroke-dasharray: 2.96,1.28; stroke-dashoffset: 0; stroke: #808080; stroke-width: 0.8"/>
     </g>
     <g id="line2d_22">
      <defs>
       <path id="m219a58f918" d="M 0 0 
L -3.5 0 
" style="stroke: #000000; stroke-width: 0.8"/>
      </defs>
      <g>
       <use xlink:href="#m219a58f918" x="57.6" y="265.754926" style="stroke: #000000; stroke-width: 0.8"/>
      </g>
     </g>
     <g id="text_11">
      <!-- 0 -->
      <g transform="translate(44.2375 269.554145)scale(0.1 -0.1)">
       <use xlink:href="#DejaVuSans-30"/>
      </g>
     </g>
    </g>
    <g id="ytick_2">
     <g id="line2d_23">
      <path d="M 57.6 238.59171 
L 414.72 238.59171 
" clip-path="url(#p0e6f2bfb51)" style="fill: none; stroke-dasharray: 2.96,1.28; stroke-dashoffset: 0; stroke: #808080; stroke-width: 0.8"/>
     </g>
     <g id="line2d_24">
      <g>
       <use xlink:href="#m219a58f918" x="57.6" y="238.59171" style="stroke: #000000; stroke-width: 0.8"/>
      </g>
     </g>
     <g id="text_12">
      <!-- 250 -->
      <g transform="translate(31.5125 242.390929)scale(0.1 -0.1)">
       <use xlink:href="#DejaVuSans-32"/>
       <use xlink:href="#DejaVuSans-35" x="63.623047"/>
       <use xlink:href="#DejaVuSans-30" x="127.246094"/>
      </g>
     </g>
    </g>
    <g id="ytick_3">
     <g id="line2d_25">
      <path d="M 57.6 211.428494 
L 414.72 211.428494 
" clip-path="url(#p0e6f2bfb51)" style="fill: none; stroke-dasharray: 2.96,1.28; stroke-dashoffset: 0; stroke: #808080; stroke-width: 0.8"/>
     </g>
     <g id="line2d_26">
      <g>
       <use xlink:href="#m219a58f918" x="57.6" y="211.428494" style="stroke: #000000; stroke-width: 0.8"/>
      </g>
     </g>
     <g id="text_13">
      <!-- 500 -->
      <g transform="translate(31.5125 215.227712)scale(0.1 -0.1)">
       <use xlink:href="#DejaVuSans-35"/>
       <use xlink:href="#DejaVuSans-30" x="63.623047"/>
       <use xlink:href="#DejaVuSans-30" x="127.246094"/>
      </g>
     </g>
    </g>
    <g id="ytick_4">
     <g id="line2d_27">
      <path d="M 57.6 184.265277 
L 414.72 184.265277 
" clip-path="url(#p0e6f2bfb51)" style="fill: none; stroke-dasharray: 2.96,1.28; stroke-dashoffset: 0; stroke: #808080; stroke-width: 0.8"/>
     </g>
     <g id="line2d_28">
      <g>
       <use xlink:href="#m219a58f918" x="57.6" y="184.265277" style="stroke: #000000; stroke-width: 0.8"/>
      </g>
     </g>
     <g id="text_14">
      <!-- 750 -->
      <g transform="translate(31.5125 188.064496)scale(0.1 -0.1)">
       <use xlink:href="#DejaVuSans-37"/>
       <use xlink:href="#DejaVuSans-35" x="63.623047"/>
       <use xlink:href="#DejaVuSans-30" x="127.246094"/>
      </g>
     </g>
    </g>
    <g id="ytick_5">
     <g id="line2d_29">
      <path d="M 57.6 157.102061 
L 414.72 157.102061 
" clip-path="url(#p0e6f2bfb51)" style="fill: none; stroke-dasharray: 2.96,1.28; stroke-dashoffset: 0; stroke: #808080; stroke-width: 0.8"/>
     </g>
     <g id="line2d_30">
      <g>
       <use xlink:href="#m219a58f918" x="57.6" y="157.102061" style="stroke: #000000; stroke-width: 0.8"/>
      </g>
     </g>
     <g id="text_15">
      <!-- 1000 -->
      <g transform="translate(25.15 160.90128)scale(0.1 -0.1)">
       <use xlink:href="#DejaVuSans-31"/>
       <use xlink:href="#DejaVuSans-30" x="63.623047"/>
       <use xlink:href="#DejaVuSans-30" x="127.246094"/>
       <use xlink:href="#DejaVuSans-30" x="190.869141"/>
      </g>
     </g>
    </g>
    <g id="ytick_6">
     <g id="line2d_31">
      <path d="M 57.6 129.938845 
L 414.72 129.938845 
" clip-path="url(#p0e6f2bfb51)" style="fill: none; stroke-dasharray: 2.96,1.28; stroke-dashoffset: 0; stroke: #808080; stroke-width: 0.8"/>
     </g>
     <g id="line2d_32">
      <g>
       <use xlink:href="#m219a58f918" x="57.6" y="129.938845" style="stroke: #000000; stroke-width: 0.8"/>
      </g>
     </g>
     <g id="text_16">
      <!-- 1250 -->
      <g transform="translate(25.15 133.738063)scale(0.1 -0.1)">
       <use xlink:href="#DejaVuSans-31"/>
       <use xlink:href="#DejaVuSans-32" x="63.623047"/>
       <use xlink:href="#DejaVuSans-35" x="127.246094"/>
       <use xlink:href="#DejaVuSans-30" x="190.869141"/>
      </g>
     </g>
    </g>
    <g id="ytick_7">
     <g id="line2d_33">
      <path d="M 57.6 102.775628 
L 414.72 102.775628 
" clip-path="url(#p0e6f2bfb51)" style="fill: none; stroke-dasharray: 2.96,1.28; stroke-dashoffset: 0; stroke: #808080; stroke-width: 0.8"/>
     </g>
     <g id="line2d_34">
      <g>
       <use xlink:href="#m219a58f918" x="57.6" y="102.775628" style="stroke: #000000; stroke-width: 0.8"/>
      </g>
     </g>
     <g id="text_17">
      <!-- 1500 -->
      <g transform="translate(25.15 106.574847)scale(0.1 -0.1)">
       <use xlink:href="#DejaVuSans-31"/>
       <use xlink:href="#DejaVuSans-35" x="63.623047"/>
       <use xlink:href="#DejaVuSans-30" x="127.246094"/>
       <use xlink:href="#DejaVuSans-30" x="190.869141"/>
      </g>
     </g>
    </g>
    <g id="ytick_8">
     <g id="line2d_35">
      <path d="M 57.6 75.612412 
L 414.72 75.612412 
" clip-path="url(#p0e6f2bfb51)" style="fill: none; stroke-dasharray: 2.96,1.28; stroke-dashoffset: 0; stroke: #808080; stroke-width: 0.8"/>
     </g>
     <g id="line2d_36">
      <g>
       <use xlink:href="#m219a58f918" x="57.6" y="75.612412" style="stroke: #000000; stroke-width: 0.8"/>
      </g>
     </g>
     <g id="text_18">
      <!-- 1750 -->
      <g transform="translate(25.15 79.411631)scale(0.1 -0.1)">
       <use xlink:href="#DejaVuSans-31"/>
       <use xlink:href="#DejaVuSans-37" x="63.623047"/>
       <use xlink:href="#DejaVuSans-35" x="127.246094"/>
       <use xlink:href="#DejaVuSans-30" x="190.869141"/>
      </g>
     </g>
    </g>
    <g id="ytick_9">
     <g id="line2d_37">
      <path d="M 57.6 48.449195 
L 414.72 48.449195 
" clip-path="url(#p0e6f2bfb51)" style="fill: none; stroke-dasharray: 2.96,1.28; stroke-dashoffset: 0; stroke: #808080; stroke-width: 0.8"/>
     </g>
     <g id="line2d_38">
      <g>
       <use xlink:href="#m219a58f918" x="57.6" y="48.449195" style="stroke: #000000; stroke-width: 0.8"/>
      </g>
     </g>
     <g id="text_19">
      <!-- 2000 -->
      <g transform="translate(25.15 52.248414)scale(0.1 -0.1)">
       <use xlink:href="#DejaVuSans-32"/>
       <use xlink:href="#DejaVuSans-30" x="63.623047"/>
       <use xlink:href="#DejaVuSans-30" x="127.246094"/>
       <use xlink:href="#DejaVuSans-30" x="190.869141"/>
      </g>
     </g>
    </g>
    <g id="text_20">
     <!-- Inzidenz pro 7 Tage pro 100.000 Einwohner -->
     <g transform="translate(19.070312 267.301)rotate(-90)scale(0.1 -0.1)">
      <defs>
       <path id="DejaVuSans-49" d="M 628 4666 
L 1259 4666 
L 1259 0 
L 628 0 
L 628 4666 
z
" transform="scale(0.015625)"/>
       <path id="DejaVuSans-6e" d="M 3513 2113 
L 3513 0 
L 2938 0 
L 2938 2094 
Q 2938 2591 2744 2837 
Q 2550 3084 2163 3084 
Q 1697 3084 1428 2787 
Q 1159 2491 1159 1978 
L 1159 0 
L 581 0 
L 581 3500 
L 1159 3500 
L 1159 2956 
Q 1366 3272 1645 3428 
Q 1925 3584 2291 3584 
Q 2894 3584 3203 3211 
Q 3513 2838 3513 2113 
z
" transform="scale(0.015625)"/>
       <path id="DejaVuSans-7a" d="M 353 3500 
L 3084 3500 
L 3084 2975 
L 922 459 
L 3084 459 
L 3084 0 
L 275 0 
L 275 525 
L 2438 3041 
L 353 3041 
L 353 3500 
z
" transform="scale(0.015625)"/>
       <path id="DejaVuSans-69" d="M 603 3500 
L 1178 3500 
L 1178 0 
L 603 0 
L 603 3500 
z
M 603 4863 
L 1178 4863 
L 1178 4134 
L 603 4134 
L 603 4863 
z
" transform="scale(0.015625)"/>
       <path id="DejaVuSans-64" d="M 2906 2969 
L 2906 4863 
L 3481 4863 
L 3481 0 
L 2906 0 
L 2906 525 
Q 2725 213 2448 61 
Q 2172 -91 1784 -91 
Q 1150 -91 751 415 
Q 353 922 353 1747 
Q 353 2572 751 3078 
Q 1150 3584 1784 3584 
Q 2172 3584 2448 3432 
Q 2725 3281 2906 2969 
z
M 947 1747 
Q 947 1113 1208 752 
Q 1469 391 1925 391 
Q 2381 391 2643 752 
Q 2906 1113 2906 1747 
Q 2906 2381 2643 2742 
Q 2381 3103 1925 3103 
Q 1469 3103 1208 2742 
Q 947 2381 947 1747 
z
" transform="scale(0.015625)"/>
       <path id="DejaVuSans-65" d="M 3597 1894 
L 3597 1613 
L 953 1613 
Q 991 1019 1311 708 
Q 1631 397 2203 397 
Q 2534 397 2845 478 
Q 3156 559 3463 722 
L 3463 178 
Q 3153 47 2828 -22 
Q 2503 -91 2169 -91 
Q 1331 -91 842 396 
Q 353 884 353 1716 
Q 353 2575 817 3079 
Q 1281 3584 2069 3584 
Q 2775 3584 3186 3129 
Q 3597 2675 3597 1894 
z
M 3022 2063 
Q 3016 2534 2758 2815 
Q 2500 3097 2075 3097 
Q 1594 3097 1305 2825 
Q 1016 2553 972 2059 
L 3022 2063 
z
" transform="scale(0.015625)"/>
       <path id="DejaVuSans-20" transform="scale(0.015625)"/>
       <path id="DejaVuSans-70" d="M 1159 525 
L 1159 -1331 
L 581 -1331 
L 581 3500 
L 1159 3500 
L 1159 2969 
Q 1341 3281 1617 3432 
Q 1894 3584 2278 3584 
Q 2916 3584 3314 3078 
Q 3713 2572 3713 1747 
Q 3713 922 3314 415 
Q 2916 -91 2278 -91 
Q 1894 -91 1617 61 
Q 1341 213 1159 525 
z
M 3116 1747 
Q 3116 2381 2855 2742 
Q 2594 3103 2138 3103 
Q 1681 3103 1420 2742 
Q 1159 2381 1159 1747 
Q 1159 1113 1420 752 
Q 1681 391 2138 391 
Q 2594 391 2855 752 
Q 3116 1113 3116 1747 
z
" transform="scale(0.015625)"/>
       <path id="DejaVuSans-72" d="M 2631 2963 
Q 2534 3019 2420 3045 
Q 2306 3072 2169 3072 
Q 1681 3072 1420 2755 
Q 1159 2438 1159 1844 
L 1159 0 
L 581 0 
L 581 3500 
L 1159 3500 
L 1159 2956 
Q 1341 3275 1631 3429 
Q 1922 3584 2338 3584 
Q 2397 3584 2469 3576 
Q 2541 3569 2628 3553 
L 2631 2963 
z
" transform="scale(0.015625)"/>
       <path id="DejaVuSans-6f" d="M 1959 3097 
Q 1497 3097 1228 2736 
Q 959 2375 959 1747 
Q 959 1119 1226 758 
Q 1494 397 1959 397 
Q 2419 397 2687 759 
Q 2956 1122 2956 1747 
Q 2956 2369 2687 2733 
Q 2419 3097 1959 3097 
z
M 1959 3584 
Q 2709 3584 3137 3096 
Q 3566 2609 3566 1747 
Q 3566 888 3137 398 
Q 2709 -91 1959 -91 
Q 1206 -91 779 398 
Q 353 888 353 1747 
Q 353 2609 779 3096 
Q 1206 3584 1959 3584 
z
" transform="scale(0.015625)"/>
       <path id="DejaVuSans-54" d="M -19 4666 
L 3928 4666 
L 3928 4134 
L 2272 4134 
L 2272 0 
L 1638 0 
L 1638 4134 
L -19 4134 
L -19 4666 
z
" transform="scale(0.015625)"/>
       <path id="DejaVuSans-61" d="M 2194 1759 
Q 1497 1759 1228 1600 
Q 959 1441 959 1056 
Q 959 750 1161 570 
Q 1363 391 1709 391 
Q 2188 391 2477 730 
Q 2766 1069 2766 1631 
L 2766 1759 
L 2194 1759 
z
M 3341 1997 
L 3341 0 
L 2766 0 
L 2766 531 
Q 2569 213 2275 61 
Q 1981 -91 1556 -91 
Q 1019 -91 701 211 
Q 384 513 384 1019 
Q 384 1609 779 1909 
Q 1175 2209 1959 2209 
L 2766 2209 
L 2766 2266 
Q 2766 2663 2505 2880 
Q 2244 3097 1772 3097 
Q 1472 3097 1187 3025 
Q 903 2953 641 2809 
L 641 3341 
Q 956 3463 1253 3523 
Q 1550 3584 1831 3584 
Q 2591 3584 2966 3190 
Q 3341 2797 3341 1997 
z
" transform="scale(0.015625)"/>
       <path id="DejaVuSans-67" d="M 2906 1791 
Q 2906 2416 2648 2759 
Q 2391 3103 1925 3103 
Q 1463 3103 1205 2759 
Q 947 2416 947 1791 
Q 947 1169 1205 825 
Q 1463 481 1925 481 
Q 2391 481 2648 825 
Q 2906 1169 2906 1791 
z
M 3481 434 
Q 3481 -459 3084 -895 
Q 2688 -1331 1869 -1331 
Q 1566 -1331 1297 -1286 
Q 1028 -1241 775 -1147 
L 775 -588 
Q 1028 -725 1275 -790 
Q 1522 -856 1778 -856 
Q 2344 -856 2625 -561 
Q 2906 -266 2906 331 
L 2906 616 
Q 2728 306 2450 153 
Q 2172 0 1784 0 
Q 1141 0 747 490 
Q 353 981 353 1791 
Q 353 2603 747 3093 
Q 1141 3584 1784 3584 
Q 2172 3584 2450 3431 
Q 2728 3278 2906 2969 
L 2906 3500 
L 3481 3500 
L 3481 434 
z
" transform="scale(0.015625)"/>
       <path id="DejaVuSans-45" d="M 628 4666 
L 3578 4666 
L 3578 4134 
L 1259 4134 
L 1259 2753 
L 3481 2753 
L 3481 2222 
L 1259 2222 
L 1259 531 
L 3634 531 
L 3634 0 
L 628 0 
L 628 4666 
z
" transform="scale(0.015625)"/>
       <path id="DejaVuSans-77" d="M 269 3500 
L 844 3500 
L 1563 769 
L 2278 3500 
L 2956 3500 
L 3675 769 
L 4391 3500 
L 4966 3500 
L 4050 0 
L 3372 0 
L 2619 2869 
L 1863 0 
L 1184 0 
L 269 3500 
z
" transform="scale(0.015625)"/>
       <path id="DejaVuSans-68" d="M 3513 2113 
L 3513 0 
L 2938 0 
L 2938 2094 
Q 2938 2591 2744 2837 
Q 2550 3084 2163 3084 
Q 1697 3084 1428 2787 
Q 1159 2491 1159 1978 
L 1159 0 
L 581 0 
L 581 4863 
L 1159 4863 
L 1159 2956 
Q 1366 3272 1645 3428 
Q 1925 3584 2291 3584 
Q 2894 3584 3203 3211 
Q 3513 2838 3513 2113 
z
" transform="scale(0.015625)"/>
      </defs>
      <use xlink:href="#DejaVuSans-49"/>
      <use xlink:href="#DejaVuSans-6e" x="29.492188"/>
      <use xlink:href="#DejaVuSans-7a" x="92.871094"/>
      <use xlink:href="#DejaVuSans-69" x="145.361328"/>
      <use xlink:href="#DejaVuSans-64" x="173.144531"/>
      <use xlink:href="#DejaVuSans-65" x="236.621094"/>
      <use xlink:href="#DejaVuSans-6e" x="298.144531"/>
      <use xlink:href="#DejaVuSans-7a" x="361.523438"/>
      <use xlink:href="#DejaVuSans-20" x="414.013672"/>
      <use xlink:href="#DejaVuSans-70" x="445.800781"/>
      <use xlink:href="#DejaVuSans-72" x="509.277344"/>
      <use xlink:href="#DejaVuSans-6f" x="548.140625"/>
      <use xlink:href="#DejaVuSans-20" x="609.322266"/>
      <use xlink:href="#DejaVuSans-37" x="641.109375"/>
      <use xlink:href="#DejaVuSans-20" x="704.732422"/>
      <use xlink:href="#DejaVuSans-54" x="736.519531"/>
      <use xlink:href="#DejaVuSans-61" x="781.103516"/>
      <use xlink:href="#DejaVuSans-67" x="842.382812"/>
      <use xlink:href="#DejaVuSans-65" x="905.859375"/>
      <use xlink:href="#DejaVuSans-20" x="967.382812"/>
      <use xlink:href="#DejaVuSans-70" x="999.169922"/>
      <use xlink:href="#DejaVuSans-72" x="1062.646484"/>
      <use xlink:href="#DejaVuSans-6f" x="1101.509766"/>
      <use xlink:href="#DejaVuSans-20" x="1162.691406"/>
      <use xlink:href="#DejaVuSans-31" x="1194.478516"/>
      <use xlink:href="#DejaVuSans-30" x="1258.101562"/>
      <use xlink:href="#DejaVuSans-30" x="1321.724609"/>
      <use xlink:href="#DejaVuSans-2e" x="1385.347656"/>
      <use xlink:href="#DejaVuSans-30" x="1417.134766"/>
      <use xlink:href="#DejaVuSans-30" x="1480.757812"/>
      <use xlink:href="#DejaVuSans-30" x="1544.380859"/>
      <use xlink:href="#DejaVuSans-20" x="1608.003906"/>
      <use xlink:href="#DejaVuSans-45" x="1639.791016"/>
      <use xlink:href="#DejaVuSans-69" x="1702.974609"/>
      <use xlink:href="#DejaVuSans-6e" x="1730.757812"/>
      <use xlink:href="#DejaVuSans-77" x="1794.136719"/>
      <use xlink:href="#DejaVuSans-6f" x="1875.923828"/>
      <use xlink:href="#DejaVuSans-68" x="1937.105469"/>
      <use xlink:href="#DejaVuSans-6e" x="2000.484375"/>
      <use xlink:href="#DejaVuSans-65" x="2063.863281"/>
      <use xlink:href="#DejaVuSans-72" x="2125.386719"/>
     </g>
    </g>
   </g>
   <g id="line2d_39">
    <path d="M 73.832727 265.669143 
L 77.357749 265.626251 
L 77.710252 265.454684 
L 78.062754 265.454684 
L 78.415256 265.154442 
L 79.120261 265.240226 
L 79.825265 264.59685 
L 80.177767 264.125041 
L 80.530269 263.35299 
L 80.882772 263.653232 
L 81.587776 262.323589 
L 81.940278 262.023347 
L 82.645283 262.237806 
L 82.997785 262.023347 
L 83.350287 262.023347 
L 83.702789 262.709615 
L 84.407794 262.623831 
L 84.760296 262.409373 
L 85.112798 261.980455 
L 85.465301 262.966965 
L 86.170305 261.294188 
L 86.875309 262.194914 
L 87.227812 261.808889 
L 87.580314 262.409373 
L 87.932816 262.409373 
L 88.285318 263.35299 
L 88.637821 263.696124 
L 89.342825 263.910583 
L 89.695327 264.511067 
L 90.047829 264.768417 
L 90.752834 264.768417 
L 91.105336 265.111551 
L 91.810341 265.154442 
L 92.162843 265.326009 
L 93.572852 265.240226 
L 93.925354 265.326009 
L 94.277856 265.283118 
L 96.040367 265.626251 
L 96.745372 265.669143 
L 97.097874 265.497576 
L 98.155381 265.540468 
L 98.860385 265.540468 
L 99.212887 265.540468 
L 99.565389 265.712035 
L 100.622896 265.669143 
L 101.327901 265.712035 
L 102.032905 265.669143 
L 103.090412 265.712035 
L 118.600509 265.669143 
L 119.305514 265.58336 
L 121.773029 265.669143 
L 122.830536 265.712035 
L 123.888043 265.626251 
L 125.298052 265.497576 
L 125.650554 265.240226 
L 126.355558 265.154442 
L 127.765567 265.111551 
L 128.470572 265.368901 
L 129.175576 265.197334 
L 129.528078 265.068659 
L 131.995594 265.283118 
L 132.700598 265.283118 
L 133.758105 264.768417 
L 134.815611 264.8542 
L 135.168114 264.468175 
L 135.520616 264.59685 
L 135.873118 264.468175 
L 137.283127 264.768417 
L 137.635629 265.025767 
L 137.988131 265.111551 
L 138.340634 265.540468 
L 139.39814 265.454684 
L 139.750643 265.197334 
L 140.103145 265.326009 
L 140.808149 265.326009 
L 141.160651 265.197334 
L 142.923163 265.154442 
L 143.628167 264.725525 
L 145.390678 264.553958 
L 146.095683 264.8542 
L 146.448185 264.382392 
L 147.153189 264.982876 
L 147.505691 264.982876 
L 147.858194 264.553958 
L 148.210696 264.382392 
L 148.563198 264.553958 
L 148.9157 264.8542 
L 149.620705 263.910583 
L 149.973207 263.910583 
L 150.325709 264.210825 
L 150.678211 263.953474 
L 151.030714 263.35299 
L 151.383216 263.09564 
L 152.08822 261.894672 
L 152.793225 261.765997 
L 153.145727 261.379971 
L 153.498229 261.379971 
L 153.850731 261.079729 
L 154.203234 260.607921 
L 154.908238 260.865271 
L 155.26074 260.221895 
L 155.613243 259.964545 
L 156.318247 256.361641 
L 157.023251 252.801628 
L 157.375754 252.672953 
L 157.728256 250.442584 
L 158.080758 250.185234 
L 158.43326 248.512457 
L 159.138265 246.968355 
L 159.490767 247.268597 
L 159.843269 247.09703 
L 160.195771 248.812699 
L 160.548274 247.440164 
L 160.900776 248.512457 
L 161.253278 247.35438 
L 161.60578 249.327399 
L 161.958282 250.142342 
L 162.310785 250.271017 
L 162.663287 249.627641 
L 163.015789 250.185234 
L 163.368291 250.957285 
L 163.720794 252.758737 
L 164.073296 251.557769 
L 164.425798 252.544278 
L 164.7783 252.630061 
L 165.130802 252.887412 
L 166.188309 246.282087 
L 166.540811 248.555348 
L 166.893314 248.555348 
L 167.245816 245.981845 
L 167.95082 245.424253 
L 168.303322 245.981845 
L 168.655825 246.110521 
L 169.008327 243.322559 
L 169.360829 243.150992 
L 169.713331 245.767387 
L 170.065834 246.668113 
L 170.418336 248.726915 
L 170.770838 249.627641 
L 171.12334 251.514877 
L 171.475842 251.686444 
L 171.828345 252.415603 
L 172.180847 252.458495 
L 172.533349 251.60066 
L 172.885851 251.643552 
L 173.238354 253.316329 
L 173.590856 252.501386 
L 173.943358 252.072469 
L 174.648362 251.986686 
L 175.000865 251.643552 
L 175.353367 248.769807 
L 176.058371 247.483056 
L 176.410874 248.08354 
L 176.763376 245.896062 
L 177.115878 245.510037 
L 177.46838 246.024737 
L 177.820882 247.740406 
L 178.173385 244.909553 
L 178.525887 246.968355 
L 179.230891 252.329819 
L 179.583394 252.630061 
L 179.935896 251.686444 
L 180.288398 252.930303 
L 180.6409 253.058979 
L 180.993402 254.131271 
L 181.345905 254.259947 
L 181.698407 254.002596 
L 182.050909 252.887412 
L 182.403411 253.016087 
L 182.755914 250.3568 
L 183.108416 253.831029 
L 183.460918 251.429093 
L 183.81342 247.997756 
L 184.165922 247.997756 
L 184.518425 249.241616 
L 184.870927 249.198724 
L 185.223429 251.429093 
L 185.575931 251.858011 
L 185.928434 251.08596 
L 186.633438 251.60066 
L 186.98594 251.471985 
L 187.338442 253.187654 
L 187.690945 252.672953 
L 188.043447 251.815119 
L 188.395949 252.630061 
L 188.748451 252.930303 
L 189.453456 253.10187 
L 189.805958 252.58717 
L 190.15846 253.916813 
L 190.510962 253.831029 
L 190.863465 254.174163 
L 191.568469 251.815119 
L 191.920971 251.900902 
L 192.273473 252.887412 
L 192.625976 250.742826 
L 192.978478 250.185234 
L 193.33098 250.013667 
L 193.683482 252.84452 
L 194.035985 251.815119 
L 194.388487 251.815119 
L 194.740989 251.471985 
L 195.093491 252.973195 
L 195.445993 251.686444 
L 195.798496 254.002596 
L 196.150998 252.715845 
L 196.5035 253.745246 
L 196.856002 253.745246 
L 197.208505 254.302838 
L 197.561007 254.34573 
L 197.913509 256.83345 
L 198.266011 255.546698 
L 198.618513 257.433934 
L 198.971016 256.404532 
L 199.323518 256.361641 
L 200.028522 256.747666 
L 200.381025 256.061399 
L 200.733527 255.804048 
L 201.086029 253.273437 
L 201.438531 255.203564 
L 201.791033 255.117781 
L 202.143536 253.187654 
L 202.496038 252.458495 
L 202.84854 252.501386 
L 203.201042 252.244036 
L 203.553545 253.959705 
L 203.906047 251.429093 
L 204.258549 251.300418 
L 204.963553 253.273437 
L 205.316056 252.501386 
L 205.668558 250.785718 
L 206.02106 250.185234 
L 206.373562 248.769807 
L 206.726065 249.027157 
L 207.078567 248.812699 
L 207.431069 248.426673 
L 207.783571 246.239196 
L 208.136073 246.711005 
L 208.488576 245.85317 
L 208.841078 246.110521 
L 209.19358 245.981845 
L 209.546082 245.510037 
L 209.898585 245.59582 
L 210.603589 244.394852 
L 210.956091 242.936534 
L 211.308593 243.622801 
L 211.661096 243.065209 
L 212.013598 241.649782 
L 212.3661 241.220865 
L 212.718602 241.135082 
L 213.071105 238.046878 
L 213.423607 238.304228 
L 213.776109 241.049298 
L 214.128611 241.563999 
L 215.53862 247.225705 
L 215.891122 246.410763 
L 216.243625 243.794368 
L 216.596127 243.665693 
L 216.948629 243.708585 
L 217.301131 238.690254 
L 217.653633 237.918203 
L 218.358638 241.992916 
L 218.71114 241.649782 
L 219.063642 241.649782 
L 219.416145 242.421833 
L 220.121149 246.753896 
L 220.473651 247.182814 
L 220.826153 246.58233 
L 221.178656 247.09703 
L 221.531158 247.182814 
L 221.88366 247.568839 
L 222.236162 246.58233 
L 222.588664 246.796788 
L 222.941167 246.83968 
L 223.646171 247.139922 
L 224.351176 246.882572 
L 224.703678 248.512457 
L 225.05618 248.040648 
L 225.408682 248.297998 
L 226.113687 250.828609 
L 226.818691 251.214635 
L 227.523696 252.415603 
L 227.876198 251.943794 
L 228.2287 254.174163 
L 228.581202 255.289348 
L 228.933704 255.33224 
L 229.286207 255.203564 
L 229.638709 256.018507 
L 230.343713 259.020927 
L 230.696216 258.034418 
L 231.40122 257.862851 
L 231.753722 258.33466 
L 232.106224 260.822379 
L 232.811229 262.280697 
L 233.516233 263.395882 
L 234.221238 263.524557 
L 234.57374 262.83829 
L 234.926242 262.795398 
L 235.631247 264.08215 
L 235.983749 264.210825 
L 236.688753 264.210825 
L 237.041256 264.553958 
L 237.393758 264.639742 
L 238.098762 264.553958 
L 239.156269 264.553958 
L 239.508771 264.897092 
L 239.861273 265.454684 
L 241.623784 265.326009 
L 241.976287 265.454684 
L 242.328789 265.411793 
L 243.033793 265.712035 
L 243.738798 265.797818 
L 244.443802 265.712035 
L 244.796304 265.454684 
L 245.853811 265.283118 
L 246.911318 265.283118 
L 247.26382 265.58336 
L 248.673829 265.497576 
L 249.378833 265.497576 
L 250.083838 265.497576 
L 250.788842 265.497576 
L 252.551353 265.497576 
L 252.903855 265.240226 
L 253.60886 265.283118 
L 253.961362 265.111551 
L 254.666367 265.111551 
L 255.018869 264.811309 
L 255.371371 264.982876 
L 256.076375 264.725525 
L 256.428878 264.8542 
L 257.133882 264.125041 
L 257.838887 264.210825 
L 258.896393 264.08215 
L 259.601398 264.167933 
L 259.9539 263.996366 
L 260.658904 263.009857 
L 261.011407 263.052748 
L 261.363909 262.966965 
L 262.068913 261.765997 
L 262.421415 261.422863 
L 263.478922 261.379971 
L 263.831424 261.422863 
L 264.183927 261.079729 
L 264.536429 261.122621 
L 264.888931 260.607921 
L 265.241433 260.736596 
L 265.593935 259.964545 
L 265.946438 260.09322 
L 266.651442 259.192494 
L 267.708949 254.817539 
L 268.061451 255.203564 
L 268.413953 255.117781 
L 268.766455 255.460915 
L 269.118958 255.58959 
L 269.823962 256.404532 
L 270.176464 257.6055 
L 270.528967 256.919233 
L 270.881469 256.790558 
L 271.233971 256.790558 
L 271.586473 256.962125 
L 271.938975 256.962125 
L 272.291478 257.0908 
L 272.64398 257.433934 
L 272.996482 258.549118 
L 273.348984 258.763577 
L 273.701487 258.549118 
L 274.758993 260.393462 
L 275.111495 259.535628 
L 275.463998 259.750086 
L 275.8165 259.492736 
L 276.169002 259.578519 
L 276.521504 259.106711 
L 276.874007 259.192494 
L 277.226509 259.535628 
L 277.931513 259.83587 
L 278.284015 259.792978 
L 278.98902 260.09322 
L 279.341522 259.621411 
L 279.694024 259.664303 
L 280.046527 259.921653 
L 280.399029 259.921653 
L 280.751531 260.221895 
L 281.456535 260.050328 
L 281.809038 260.650812 
L 283.219046 259.921653 
L 283.571549 259.878761 
L 283.924051 259.192494 
L 284.276553 258.163093 
L 284.629055 258.163093 
L 284.981558 257.734176 
L 285.33406 256.275857 
L 285.686562 255.975615 
L 286.039064 256.018507 
L 287.096571 253.445004 
L 288.154078 255.031998 
L 288.50658 254.045488 
L 288.859082 254.08838 
L 289.211584 255.074889 
L 289.564086 254.903322 
L 289.916589 253.487896 
L 290.974095 252.072469 
L 291.326598 251.214635 
L 291.6791 249.198724 
L 292.031602 248.59824 
L 292.384104 248.297998 
L 292.736606 247.697514 
L 293.089109 248.040648 
L 293.441611 248.684024 
L 293.794113 247.525947 
L 294.146615 247.525947 
L 294.499118 247.654622 
L 294.85162 246.925463 
L 295.204122 246.58233 
L 295.556624 245.810279 
L 295.909126 244.566419 
L 296.261629 244.566419 
L 296.966633 241.778457 
L 297.319135 242.078699 
L 297.671638 240.877731 
L 298.02414 240.534598 
L 298.376642 241.521107 
L 298.729144 241.135082 
L 299.081646 242.936534 
L 299.434149 242.035808 
L 299.786651 242.378941 
L 300.491655 244.952444 
L 300.844158 243.880151 
L 301.549162 242.85075 
L 301.901664 243.451234 
L 302.254166 242.936534 
L 302.606669 241.950024 
L 302.959171 241.821349 
L 303.311673 243.365451 
L 303.664175 243.751476 
L 304.016678 244.652202 
L 304.36918 245.896062 
L 304.721682 248.383782 
L 305.074184 248.812699 
L 305.426686 248.684024 
L 305.779189 248.812699 
L 306.131691 250.828609 
L 306.836695 252.58717 
L 307.189198 252.801628 
L 307.5417 255.289348 
L 307.894202 255.375131 
L 308.246704 255.246456 
L 308.599206 255.58959 
L 308.951709 256.10429 
L 309.304211 255.031998 
L 309.656713 254.34573 
L 310.009215 253.916813 
L 310.361718 254.08838 
L 311.066722 251.128851 
L 311.419224 248.126431 
L 311.771726 247.09703 
L 312.124229 244.823769 
L 312.476731 241.177973 
L 312.829233 239.505196 
L 313.181735 240.148572 
L 314.944246 216.386562 
L 315.296749 214.413543 
L 315.649251 213.126791 
L 316.001753 208.10846 
L 316.706757 188.549838 
L 317.411762 171.822069 
L 317.764264 169.420133 
L 318.116766 164.230235 
L 318.469269 151.276937 
L 318.821771 142.784377 
L 319.174273 128.458544 
L 319.526775 119.494176 
L 319.879277 104.09605 
L 320.23178 103.452674 
L 320.936784 106.798228 
L 321.641789 89.941783 
L 321.994291 88.526357 
L 322.699295 103.752916 
L 323.051797 68.710384 
L 323.4043 66.86604 
L 323.756802 70.468944 
L 324.109304 76.173543 
L 324.461806 52.154182 
L 324.814309 69.053518 
L 325.166811 55.885761 
L 325.519313 86.253096 
L 325.871815 86.295988 
L 326.224317 89.341299 
L 326.57682 96.933133 
L 326.929322 110.529807 
L 327.281824 106.798228 
L 327.634326 113.146202 
L 327.986829 123.483105 
L 328.339331 127.557818 
L 328.691833 138.280747 
L 329.044335 137.036887 
L 329.74934 144.242696 
L 330.101842 144.714504 
L 330.454344 144.285587 
L 330.806846 145.143422 
L 331.159349 149.303918 
L 331.511851 155.437433 
L 331.864353 159.426363 
L 332.216855 149.175243 
L 332.569357 152.048988 
L 332.92186 147.030657 
L 333.274362 146.387281 
L 333.626864 135.535677 
L 333.979366 132.275907 
L 334.331869 118.078749 
L 334.684371 122.582379 
L 335.036873 115.633921 
L 335.389375 119.10815 
L 336.09438 106.497986 
L 336.446882 97.833859 
L 336.799384 92.515286 
L 337.151886 92.643962 
L 337.504389 90.242025 
L 337.856891 73.642931 
L 338.209393 76.001976 
L 338.561895 73.342689 
L 338.914397 67.509416 
L 339.2669 64.335429 
L 339.619402 52.36864 
L 339.971904 53.569608 
L 340.324406 66.823149 
L 340.676908 64.635671 
L 341.381913 71.669913 
L 341.734415 78.575479 
L 342.086917 89.255516 
L 342.43942 89.813108 
L 342.791922 92.686853 
L 343.144424 98.391451 
L 343.496926 98.991935 
L 344.201931 129.659512 
L 344.554433 132.447474 
L 344.906935 133.948684 
L 345.259437 132.833499 
L 345.61194 126.0995 
L 345.964442 132.619041 
L 346.316944 109.972215 
L 346.669446 129.230595 
L 347.021948 133.8629 
L 347.374451 133.133741 
L 347.726953 126.871551 
L 348.079455 146.816199 
L 348.431957 137.122671 
L 348.78446 150.976695 
L 349.136962 129.402162 
L 349.489464 126.528417 
L 349.841966 128.372761 
L 350.194468 134.291818 
L 350.546971 125.284557 
L 350.899473 142.183893 
L 351.251975 153.464415 
L 351.604477 168.819649 
L 352.661984 178.084259 
L 353.014486 183.617291 
L 353.366988 185.59031 
L 353.719491 191.638042 
L 354.071993 194.769137 
L 354.424495 196.484805 
L 354.776997 195.84143 
L 355.1295 195.755646 
L 355.482002 194.383111 
L 355.834504 198.84385 
L 356.187006 198.972525 
L 356.539508 196.09878 
L 356.892011 195.412513 
L 357.244513 197.128181 
L 357.597015 196.527697 
L 357.949517 202.618321 
L 358.30202 204.634231 
L 358.654522 212.483415 
L 359.007024 215.271377 
L 359.359526 215.571619 
L 359.712028 216.172103 
L 360.064531 218.402472 
L 360.417033 218.10223 
L 360.769535 217.072829 
L 361.122037 219.08874 
L 361.47454 228.181783 
L 361.827042 229.983235 
L 362.179544 230.240586 
L 362.884548 230.154802 
L 363.237051 234.057948 
L 363.589553 229.082509 
L 363.942055 220.203924 
L 364.294557 219.260307 
L 364.64706 217.973555 
L 364.999562 215.09981 
L 365.352064 221.833809 
L 365.704566 218.188014 
L 366.409571 205.920983 
L 367.467077 202.489646 
L 367.81958 193.653952 
L 368.172082 195.626971 
L 368.524584 208.494486 
L 368.877086 200.773977 
L 369.229588 196.484805 
L 369.582091 197.085289 
L 369.934593 200.945544 
L 370.287095 194.59757 
L 370.639597 179.542578 
L 370.992099 169.548808 
L 371.344602 174.09533 
L 371.697104 174.052438 
L 372.402108 168.733865 
L 372.754611 163.715535 
L 373.107113 168.519407 
L 373.812117 151.148262 
L 374.164619 158.525637 
L 374.517122 149.647052 
L 374.869624 149.08946 
L 375.222126 146.387281 
L 375.574628 148.446084 
L 375.927131 146.387281 
L 376.279633 149.775727 
L 376.632135 144.414262 
L 376.984637 150.633561 
L 377.337139 151.705854 
L 377.689642 154.751166 
L 378.042144 146.816199 
L 378.394646 144.714504 
L 379.099651 133.391092 
L 379.452153 134.463384 
L 380.157157 127.85806 
L 380.509659 130.34578 
L 380.862162 142.312568 
L 381.214664 141.197384 
L 381.567166 145.743906 
L 381.919668 146.258606 
L 382.272171 148.960784 
L 382.624673 152.563688 
L 382.977175 157.324669 
L 383.329677 155.866351 
L 383.682179 172.250986 
L 384.034682 174.781597 
L 384.387184 180.872221 
L 384.739686 181.730055 
L 385.092188 190.522857 
L 386.149695 204.076639 
L 386.502197 207.293518 
L 386.854699 204.119531 
L 387.559704 208.880511 
L 388.617211 218.273797 
L 388.969713 214.670893 
L 389.322215 216.386562 
L 389.674717 215.571619 
L 390.027219 216.901262 
L 390.379722 217.244396 
L 390.732224 212.35474 
L 391.084726 214.413543 
L 391.437228 219.989466 
L 391.789731 218.531147 
L 392.494735 221.833809 
L 392.847237 225.651172 
L 393.199739 227.538408 
L 393.552242 230.412153 
L 393.904744 228.267567 
L 394.257246 232.299388 
L 394.609748 228.439134 
L 394.962251 230.326369 
L 395.314753 226.251656 
L 395.667255 229.59721 
L 396.019757 226.723465 
L 396.372259 226.208765 
L 396.724762 225.007796 
L 397.077264 228.053108 
L 397.429766 225.60828 
L 397.782268 228.696484 
L 398.134771 224.578879 
L 398.487273 231.698904 
L 398.487273 231.698904 
" clip-path="url(#p0e6f2bfb51)" style="fill: none; stroke: #1f77b4; stroke-width: 1.5; stroke-linecap: square"/>
   </g>
   <g id="patch_3">
    <path d="M 57.6 276.48 
L 57.6 41.472 
" style="fill: none; stroke: #000000; stroke-width: 0.8; stroke-linejoin: miter; stroke-linecap: square"/>
   </g>
   <g id="patch_4">
    <path d="M 414.72 276.48 
L 414.72 41.472 
" style="fill: none; stroke: #000000; stroke-width: 0.8; stroke-linejoin: miter; stroke-linecap: square"/>
   </g>
   <g id="patch_5">
    <path d="M 57.6 276.48 
L 414.72 276.48 
" style="fill: none; stroke: #000000; stroke-width: 0.8; stroke-linejoin: miter; stroke-linecap: square"/>
   </g>
   <g id="patch_6">
    <path d="M 57.6 41.472 
L 414.72 41.472 
" style="fill: none; stroke: #000000; stroke-width: 0.8; stroke-linejoin: miter; stroke-linecap: square"/>
   </g>
  </g>
  <g id="text_21">
   <!-- Inzidenzverlauf LK Lahn-Dill-Kreis -->
   <g transform="translate(80.060625 20.589187)scale(0.18 -0.18)">
    <defs>
     <path id="DejaVuSans-76" d="M 191 3500 
L 800 3500 
L 1894 563 
L 2988 3500 
L 3597 3500 
L 2284 0 
L 1503 0 
L 191 3500 
z
" transform="scale(0.015625)"/>
     <path id="DejaVuSans-6c" d="M 603 4863 
L 1178 4863 
L 1178 0 
L 603 0 
L 603 4863 
z
" transform="scale(0.015625)"/>
     <path id="DejaVuSans-75" d="M 544 1381 
L 544 3500 
L 1119 3500 
L 1119 1403 
Q 1119 906 1312 657 
Q 1506 409 1894 409 
Q 2359 409 2629 706 
Q 2900 1003 2900 1516 
L 2900 3500 
L 3475 3500 
L 3475 0 
L 2900 0 
L 2900 538 
Q 2691 219 2414 64 
Q 2138 -91 1772 -91 
Q 1169 -91 856 284 
Q 544 659 544 1381 
z
M 1991 3584 
L 1991 3584 
z
" transform="scale(0.015625)"/>
     <path id="DejaVuSans-66" d="M 2375 4863 
L 2375 4384 
L 1825 4384 
Q 1516 4384 1395 4259 
Q 1275 4134 1275 3809 
L 1275 3500 
L 2222 3500 
L 2222 3053 
L 1275 3053 
L 1275 0 
L 697 0 
L 697 3053 
L 147 3053 
L 147 3500 
L 697 3500 
L 697 3744 
Q 697 4328 969 4595 
Q 1241 4863 1831 4863 
L 2375 4863 
z
" transform="scale(0.015625)"/>
     <path id="DejaVuSans-4c" d="M 628 4666 
L 1259 4666 
L 1259 531 
L 3531 531 
L 3531 0 
L 628 0 
L 628 4666 
z
" transform="scale(0.015625)"/>
     <path id="DejaVuSans-4b" d="M 628 4666 
L 1259 4666 
L 1259 2694 
L 3353 4666 
L 4166 4666 
L 1850 2491 
L 4331 0 
L 3500 0 
L 1259 2247 
L 1259 0 
L 628 0 
L 628 4666 
z
" transform="scale(0.015625)"/>
     <path id="DejaVuSans-2d" d="M 313 2009 
L 1997 2009 
L 1997 1497 
L 313 1497 
L 313 2009 
z
" transform="scale(0.015625)"/>
     <path id="DejaVuSans-44" d="M 1259 4147 
L 1259 519 
L 2022 519 
Q 2988 519 3436 956 
Q 3884 1394 3884 2338 
Q 3884 3275 3436 3711 
Q 2988 4147 2022 4147 
L 1259 4147 
z
M 628 4666 
L 1925 4666 
Q 3281 4666 3915 4102 
Q 4550 3538 4550 2338 
Q 4550 1131 3912 565 
Q 3275 0 1925 0 
L 628 0 
L 628 4666 
z
" transform="scale(0.015625)"/>
     <path id="DejaVuSans-73" d="M 2834 3397 
L 2834 2853 
Q 2591 2978 2328 3040 
Q 2066 3103 1784 3103 
Q 1356 3103 1142 2972 
Q 928 2841 928 2578 
Q 928 2378 1081 2264 
Q 1234 2150 1697 2047 
L 1894 2003 
Q 2506 1872 2764 1633 
Q 3022 1394 3022 966 
Q 3022 478 2636 193 
Q 2250 -91 1575 -91 
Q 1294 -91 989 -36 
Q 684 19 347 128 
L 347 722 
Q 666 556 975 473 
Q 1284 391 1588 391 
Q 1994 391 2212 530 
Q 2431 669 2431 922 
Q 2431 1156 2273 1281 
Q 2116 1406 1581 1522 
L 1381 1569 
Q 847 1681 609 1914 
Q 372 2147 372 2553 
Q 372 3047 722 3315 
Q 1072 3584 1716 3584 
Q 2034 3584 2315 3537 
Q 2597 3491 2834 3397 
z
" transform="scale(0.015625)"/>
    </defs>
    <use xlink:href="#DejaVuSans-49"/>
    <use xlink:href="#DejaVuSans-6e" x="29.492188"/>
    <use xlink:href="#DejaVuSans-7a" x="92.871094"/>
    <use xlink:href="#DejaVuSans-69" x="145.361328"/>
    <use xlink:href="#DejaVuSans-64" x="173.144531"/>
    <use xlink:href="#DejaVuSans-65" x="236.621094"/>
    <use xlink:href="#DejaVuSans-6e" x="298.144531"/>
    <use xlink:href="#DejaVuSans-7a" x="361.523438"/>
    <use xlink:href="#DejaVuSans-76" x="414.013672"/>
    <use xlink:href="#DejaVuSans-65" x="473.193359"/>
    <use xlink:href="#DejaVuSans-72" x="534.716797"/>
    <use xlink:href="#DejaVuSans-6c" x="575.830078"/>
    <use xlink:href="#DejaVuSans-61" x="603.613281"/>
    <use xlink:href="#DejaVuSans-75" x="664.892578"/>
    <use xlink:href="#DejaVuSans-66" x="728.271484"/>
    <use xlink:href="#DejaVuSans-20" x="763.476562"/>
    <use xlink:href="#DejaVuSans-4c" x="795.263672"/>
    <use xlink:href="#DejaVuSans-4b" x="850.976562"/>
    <use xlink:href="#DejaVuSans-20" x="916.552734"/>
    <use xlink:href="#DejaVuSans-4c" x="948.339844"/>
    <use xlink:href="#DejaVuSans-61" x="1004.052734"/>
    <use xlink:href="#DejaVuSans-68" x="1065.332031"/>
    <use xlink:href="#DejaVuSans-6e" x="1128.710938"/>
    <use xlink:href="#DejaVuSans-2d" x="1192.089844"/>
    <use xlink:href="#DejaVuSans-44" x="1228.173828"/>
    <use xlink:href="#DejaVuSans-69" x="1305.175781"/>
    <use xlink:href="#DejaVuSans-6c" x="1332.958984"/>
    <use xlink:href="#DejaVuSans-6c" x="1360.742188"/>
    <use xlink:href="#DejaVuSans-2d" x="1388.525391"/>
    <use xlink:href="#DejaVuSans-4b" x="1424.609375"/>
    <use xlink:href="#DejaVuSans-72" x="1490.185547"/>
    <use xlink:href="#DejaVuSans-65" x="1529.048828"/>
    <use xlink:href="#DejaVuSans-69" x="1590.572266"/>
    <use xlink:href="#DejaVuSans-73" x="1618.355469"/>
   </g>
  </g>
 </g>
 <defs>
  <clipPath id="p0e6f2bfb51">
   <rect x="57.6" y="41.472" width="357.12" height="235.008"/>
  </clipPath>
 </defs>
</svg>
