<?xml version="1.0" encoding="utf-8" standalone="no"?>
<!DOCTYPE svg PUBLIC "-//W3C//DTD SVG 1.1//EN"
  "http://www.w3.org/Graphics/SVG/1.1/DTD/svg11.dtd">
<svg xmlns:xlink="http://www.w3.org/1999/xlink" width="460.8pt" height="345.6pt" viewBox="0 0 460.8 345.6" xmlns="http://www.w3.org/2000/svg" version="1.1">
 <metadata>
  <rdf:RDF xmlns:dc="http://purl.org/dc/elements/1.1/" xmlns:cc="http://creativecommons.org/ns#" xmlns:rdf="http://www.w3.org/1999/02/22-rdf-syntax-ns#">
   <cc:Work>
    <dc:type rdf:resource="http://purl.org/dc/dcmitype/StillImage"/>
    <dc:date>2022-03-13T09:20:02.764114</dc:date>
    <dc:format>image/svg+xml</dc:format>
    <dc:creator>
     <cc:Agent>
      <dc:title>Matplotlib v3.5.1, https://matplotlib.org/</dc:title>
     </cc:Agent>
    </dc:creator>
   </cc:Work>
  </rdf:RDF>
 </metadata>
 <defs>
  <style type="text/css">*{stroke-linejoin: round; stroke-linecap: butt}</style>
 </defs>
 <g id="figure_1">
  <g id="patch_1">
   <path d="M 0 345.6 
L 460.8 345.6 
L 460.8 0 
L 0 0 
z
" style="fill: #ffffff"/>
  </g>
  <g id="axes_1">
   <g id="patch_2">
    <path d="M 57.6 276.48 
L 414.72 276.48 
L 414.72 41.472 
L 57.6 41.472 
z
" style="fill: #ffffff"/>
   </g>
   <g id="matplotlib.axis_1">
    <g id="xtick_1">
     <g id="line2d_1">
      <path d="M 59.48285 276.48 
L 59.48285 41.472 
" clip-path="url(#p579129a463)" style="fill: none; stroke-dasharray: 2.96,1.28; stroke-dashoffset: 0; stroke: #808080; stroke-width: 0.8"/>
     </g>
     <g id="line2d_2">
      <defs>
       <path id="m249c63b321" d="M 0 0 
L 0 3.5 
" style="stroke: #000000; stroke-width: 0.8"/>
      </defs>
      <g>
       <use xlink:href="#m249c63b321" x="59.48285" y="276.48" style="stroke: #000000; stroke-width: 0.8"/>
      </g>
     </g>
     <g id="text_1">
      <!-- 30.01.2020 -->
      <g transform="translate(8.857639 318.688565)rotate(-30)scale(0.1 -0.1)">
       <defs>
        <path id="DejaVuSans-33" d="M 2597 2516 
Q 3050 2419 3304 2112 
Q 3559 1806 3559 1356 
Q 3559 666 3084 287 
Q 2609 -91 1734 -91 
Q 1441 -91 1130 -33 
Q 819 25 488 141 
L 488 750 
Q 750 597 1062 519 
Q 1375 441 1716 441 
Q 2309 441 2620 675 
Q 2931 909 2931 1356 
Q 2931 1769 2642 2001 
Q 2353 2234 1838 2234 
L 1294 2234 
L 1294 2753 
L 1863 2753 
Q 2328 2753 2575 2939 
Q 2822 3125 2822 3475 
Q 2822 3834 2567 4026 
Q 2313 4219 1838 4219 
Q 1578 4219 1281 4162 
Q 984 4106 628 3988 
L 628 4550 
Q 988 4650 1302 4700 
Q 1616 4750 1894 4750 
Q 2613 4750 3031 4423 
Q 3450 4097 3450 3541 
Q 3450 3153 3228 2886 
Q 3006 2619 2597 2516 
z
" transform="scale(0.015625)"/>
        <path id="DejaVuSans-30" d="M 2034 4250 
Q 1547 4250 1301 3770 
Q 1056 3291 1056 2328 
Q 1056 1369 1301 889 
Q 1547 409 2034 409 
Q 2525 409 2770 889 
Q 3016 1369 3016 2328 
Q 3016 3291 2770 3770 
Q 2525 4250 2034 4250 
z
M 2034 4750 
Q 2819 4750 3233 4129 
Q 3647 3509 3647 2328 
Q 3647 1150 3233 529 
Q 2819 -91 2034 -91 
Q 1250 -91 836 529 
Q 422 1150 422 2328 
Q 422 3509 836 4129 
Q 1250 4750 2034 4750 
z
" transform="scale(0.015625)"/>
        <path id="DejaVuSans-2e" d="M 684 794 
L 1344 794 
L 1344 0 
L 684 0 
L 684 794 
z
" transform="scale(0.015625)"/>
        <path id="DejaVuSans-31" d="M 794 531 
L 1825 531 
L 1825 4091 
L 703 3866 
L 703 4441 
L 1819 4666 
L 2450 4666 
L 2450 531 
L 3481 531 
L 3481 0 
L 794 0 
L 794 531 
z
" transform="scale(0.015625)"/>
        <path id="DejaVuSans-32" d="M 1228 531 
L 3431 531 
L 3431 0 
L 469 0 
L 469 531 
Q 828 903 1448 1529 
Q 2069 2156 2228 2338 
Q 2531 2678 2651 2914 
Q 2772 3150 2772 3378 
Q 2772 3750 2511 3984 
Q 2250 4219 1831 4219 
Q 1534 4219 1204 4116 
Q 875 4013 500 3803 
L 500 4441 
Q 881 4594 1212 4672 
Q 1544 4750 1819 4750 
Q 2544 4750 2975 4387 
Q 3406 4025 3406 3419 
Q 3406 3131 3298 2873 
Q 3191 2616 2906 2266 
Q 2828 2175 2409 1742 
Q 1991 1309 1228 531 
z
" transform="scale(0.015625)"/>
       </defs>
       <use xlink:href="#DejaVuSans-33"/>
       <use xlink:href="#DejaVuSans-30" x="63.623047"/>
       <use xlink:href="#DejaVuSans-2e" x="127.246094"/>
       <use xlink:href="#DejaVuSans-30" x="159.033203"/>
       <use xlink:href="#DejaVuSans-31" x="222.65625"/>
       <use xlink:href="#DejaVuSans-2e" x="286.279297"/>
       <use xlink:href="#DejaVuSans-32" x="318.066406"/>
       <use xlink:href="#DejaVuSans-30" x="381.689453"/>
       <use xlink:href="#DejaVuSans-32" x="445.3125"/>
       <use xlink:href="#DejaVuSans-30" x="508.935547"/>
      </g>
     </g>
    </g>
    <g id="xtick_2">
     <g id="line2d_3">
      <path d="M 95.458084 276.48 
L 95.458084 41.472 
" clip-path="url(#p579129a463)" style="fill: none; stroke-dasharray: 2.96,1.28; stroke-dashoffset: 0; stroke: #808080; stroke-width: 0.8"/>
     </g>
     <g id="line2d_4">
      <g>
       <use xlink:href="#m249c63b321" x="95.458084" y="276.48" style="stroke: #000000; stroke-width: 0.8"/>
      </g>
     </g>
     <g id="text_2">
      <!-- 21.04.2020 -->
      <g transform="translate(44.832873 318.688565)rotate(-30)scale(0.1 -0.1)">
       <defs>
        <path id="DejaVuSans-34" d="M 2419 4116 
L 825 1625 
L 2419 1625 
L 2419 4116 
z
M 2253 4666 
L 3047 4666 
L 3047 1625 
L 3713 1625 
L 3713 1100 
L 3047 1100 
L 3047 0 
L 2419 0 
L 2419 1100 
L 313 1100 
L 313 1709 
L 2253 4666 
z
" transform="scale(0.015625)"/>
       </defs>
       <use xlink:href="#DejaVuSans-32"/>
       <use xlink:href="#DejaVuSans-31" x="63.623047"/>
       <use xlink:href="#DejaVuSans-2e" x="127.246094"/>
       <use xlink:href="#DejaVuSans-30" x="159.033203"/>
       <use xlink:href="#DejaVuSans-34" x="222.65625"/>
       <use xlink:href="#DejaVuSans-2e" x="286.279297"/>
       <use xlink:href="#DejaVuSans-32" x="318.066406"/>
       <use xlink:href="#DejaVuSans-30" x="381.689453"/>
       <use xlink:href="#DejaVuSans-32" x="445.3125"/>
       <use xlink:href="#DejaVuSans-30" x="508.935547"/>
      </g>
     </g>
    </g>
    <g id="xtick_3">
     <g id="line2d_5">
      <path d="M 131.433317 276.48 
L 131.433317 41.472 
" clip-path="url(#p579129a463)" style="fill: none; stroke-dasharray: 2.96,1.28; stroke-dashoffset: 0; stroke: #808080; stroke-width: 0.8"/>
     </g>
     <g id="line2d_6">
      <g>
       <use xlink:href="#m249c63b321" x="131.433317" y="276.48" style="stroke: #000000; stroke-width: 0.8"/>
      </g>
     </g>
     <g id="text_3">
      <!-- 12.07.2020 -->
      <g transform="translate(80.808106 318.688565)rotate(-30)scale(0.1 -0.1)">
       <defs>
        <path id="DejaVuSans-37" d="M 525 4666 
L 3525 4666 
L 3525 4397 
L 1831 0 
L 1172 0 
L 2766 4134 
L 525 4134 
L 525 4666 
z
" transform="scale(0.015625)"/>
       </defs>
       <use xlink:href="#DejaVuSans-31"/>
       <use xlink:href="#DejaVuSans-32" x="63.623047"/>
       <use xlink:href="#DejaVuSans-2e" x="127.246094"/>
       <use xlink:href="#DejaVuSans-30" x="159.033203"/>
       <use xlink:href="#DejaVuSans-37" x="222.65625"/>
       <use xlink:href="#DejaVuSans-2e" x="286.279297"/>
       <use xlink:href="#DejaVuSans-32" x="318.066406"/>
       <use xlink:href="#DejaVuSans-30" x="381.689453"/>
       <use xlink:href="#DejaVuSans-32" x="445.3125"/>
       <use xlink:href="#DejaVuSans-30" x="508.935547"/>
      </g>
     </g>
    </g>
    <g id="xtick_4">
     <g id="line2d_7">
      <path d="M 167.40855 276.48 
L 167.40855 41.472 
" clip-path="url(#p579129a463)" style="fill: none; stroke-dasharray: 2.96,1.28; stroke-dashoffset: 0; stroke: #808080; stroke-width: 0.8"/>
     </g>
     <g id="line2d_8">
      <g>
       <use xlink:href="#m249c63b321" x="167.40855" y="276.48" style="stroke: #000000; stroke-width: 0.8"/>
      </g>
     </g>
     <g id="text_4">
      <!-- 02.10.2020 -->
      <g transform="translate(116.78334 318.688565)rotate(-30)scale(0.1 -0.1)">
       <use xlink:href="#DejaVuSans-30"/>
       <use xlink:href="#DejaVuSans-32" x="63.623047"/>
       <use xlink:href="#DejaVuSans-2e" x="127.246094"/>
       <use xlink:href="#DejaVuSans-31" x="159.033203"/>
       <use xlink:href="#DejaVuSans-30" x="222.65625"/>
       <use xlink:href="#DejaVuSans-2e" x="286.279297"/>
       <use xlink:href="#DejaVuSans-32" x="318.066406"/>
       <use xlink:href="#DejaVuSans-30" x="381.689453"/>
       <use xlink:href="#DejaVuSans-32" x="445.3125"/>
       <use xlink:href="#DejaVuSans-30" x="508.935547"/>
      </g>
     </g>
    </g>
    <g id="xtick_5">
     <g id="line2d_9">
      <path d="M 203.383784 276.48 
L 203.383784 41.472 
" clip-path="url(#p579129a463)" style="fill: none; stroke-dasharray: 2.96,1.28; stroke-dashoffset: 0; stroke: #808080; stroke-width: 0.8"/>
     </g>
     <g id="line2d_10">
      <g>
       <use xlink:href="#m249c63b321" x="203.383784" y="276.48" style="stroke: #000000; stroke-width: 0.8"/>
      </g>
     </g>
     <g id="text_5">
      <!-- 23.12.2020 -->
      <g transform="translate(152.758573 318.688565)rotate(-30)scale(0.1 -0.1)">
       <use xlink:href="#DejaVuSans-32"/>
       <use xlink:href="#DejaVuSans-33" x="63.623047"/>
       <use xlink:href="#DejaVuSans-2e" x="127.246094"/>
       <use xlink:href="#DejaVuSans-31" x="159.033203"/>
       <use xlink:href="#DejaVuSans-32" x="222.65625"/>
       <use xlink:href="#DejaVuSans-2e" x="286.279297"/>
       <use xlink:href="#DejaVuSans-32" x="318.066406"/>
       <use xlink:href="#DejaVuSans-30" x="381.689453"/>
       <use xlink:href="#DejaVuSans-32" x="445.3125"/>
       <use xlink:href="#DejaVuSans-30" x="508.935547"/>
      </g>
     </g>
    </g>
    <g id="xtick_6">
     <g id="line2d_11">
      <path d="M 239.359017 276.48 
L 239.359017 41.472 
" clip-path="url(#p579129a463)" style="fill: none; stroke-dasharray: 2.96,1.28; stroke-dashoffset: 0; stroke: #808080; stroke-width: 0.8"/>
     </g>
     <g id="line2d_12">
      <g>
       <use xlink:href="#m249c63b321" x="239.359017" y="276.48" style="stroke: #000000; stroke-width: 0.8"/>
      </g>
     </g>
     <g id="text_6">
      <!-- 15.03.2021 -->
      <g transform="translate(188.733806 318.688565)rotate(-30)scale(0.1 -0.1)">
       <defs>
        <path id="DejaVuSans-35" d="M 691 4666 
L 3169 4666 
L 3169 4134 
L 1269 4134 
L 1269 2991 
Q 1406 3038 1543 3061 
Q 1681 3084 1819 3084 
Q 2600 3084 3056 2656 
Q 3513 2228 3513 1497 
Q 3513 744 3044 326 
Q 2575 -91 1722 -91 
Q 1428 -91 1123 -41 
Q 819 9 494 109 
L 494 744 
Q 775 591 1075 516 
Q 1375 441 1709 441 
Q 2250 441 2565 725 
Q 2881 1009 2881 1497 
Q 2881 1984 2565 2268 
Q 2250 2553 1709 2553 
Q 1456 2553 1204 2497 
Q 953 2441 691 2322 
L 691 4666 
z
" transform="scale(0.015625)"/>
       </defs>
       <use xlink:href="#DejaVuSans-31"/>
       <use xlink:href="#DejaVuSans-35" x="63.623047"/>
       <use xlink:href="#DejaVuSans-2e" x="127.246094"/>
       <use xlink:href="#DejaVuSans-30" x="159.033203"/>
       <use xlink:href="#DejaVuSans-33" x="222.65625"/>
       <use xlink:href="#DejaVuSans-2e" x="286.279297"/>
       <use xlink:href="#DejaVuSans-32" x="318.066406"/>
       <use xlink:href="#DejaVuSans-30" x="381.689453"/>
       <use xlink:href="#DejaVuSans-32" x="445.3125"/>
       <use xlink:href="#DejaVuSans-31" x="508.935547"/>
      </g>
     </g>
    </g>
    <g id="xtick_7">
     <g id="line2d_13">
      <path d="M 275.334251 276.48 
L 275.334251 41.472 
" clip-path="url(#p579129a463)" style="fill: none; stroke-dasharray: 2.96,1.28; stroke-dashoffset: 0; stroke: #808080; stroke-width: 0.8"/>
     </g>
     <g id="line2d_14">
      <g>
       <use xlink:href="#m249c63b321" x="275.334251" y="276.48" style="stroke: #000000; stroke-width: 0.8"/>
      </g>
     </g>
     <g id="text_7">
      <!-- 05.06.2021 -->
      <g transform="translate(224.70904 318.688565)rotate(-30)scale(0.1 -0.1)">
       <defs>
        <path id="DejaVuSans-36" d="M 2113 2584 
Q 1688 2584 1439 2293 
Q 1191 2003 1191 1497 
Q 1191 994 1439 701 
Q 1688 409 2113 409 
Q 2538 409 2786 701 
Q 3034 994 3034 1497 
Q 3034 2003 2786 2293 
Q 2538 2584 2113 2584 
z
M 3366 4563 
L 3366 3988 
Q 3128 4100 2886 4159 
Q 2644 4219 2406 4219 
Q 1781 4219 1451 3797 
Q 1122 3375 1075 2522 
Q 1259 2794 1537 2939 
Q 1816 3084 2150 3084 
Q 2853 3084 3261 2657 
Q 3669 2231 3669 1497 
Q 3669 778 3244 343 
Q 2819 -91 2113 -91 
Q 1303 -91 875 529 
Q 447 1150 447 2328 
Q 447 3434 972 4092 
Q 1497 4750 2381 4750 
Q 2619 4750 2861 4703 
Q 3103 4656 3366 4563 
z
" transform="scale(0.015625)"/>
       </defs>
       <use xlink:href="#DejaVuSans-30"/>
       <use xlink:href="#DejaVuSans-35" x="63.623047"/>
       <use xlink:href="#DejaVuSans-2e" x="127.246094"/>
       <use xlink:href="#DejaVuSans-30" x="159.033203"/>
       <use xlink:href="#DejaVuSans-36" x="222.65625"/>
       <use xlink:href="#DejaVuSans-2e" x="286.279297"/>
       <use xlink:href="#DejaVuSans-32" x="318.066406"/>
       <use xlink:href="#DejaVuSans-30" x="381.689453"/>
       <use xlink:href="#DejaVuSans-32" x="445.3125"/>
       <use xlink:href="#DejaVuSans-31" x="508.935547"/>
      </g>
     </g>
    </g>
    <g id="xtick_8">
     <g id="line2d_15">
      <path d="M 311.309484 276.48 
L 311.309484 41.472 
" clip-path="url(#p579129a463)" style="fill: none; stroke-dasharray: 2.96,1.28; stroke-dashoffset: 0; stroke: #808080; stroke-width: 0.8"/>
     </g>
     <g id="line2d_16">
      <g>
       <use xlink:href="#m249c63b321" x="311.309484" y="276.48" style="stroke: #000000; stroke-width: 0.8"/>
      </g>
     </g>
     <g id="text_8">
      <!-- 26.08.2021 -->
      <g transform="translate(260.684273 318.688565)rotate(-30)scale(0.1 -0.1)">
       <defs>
        <path id="DejaVuSans-38" d="M 2034 2216 
Q 1584 2216 1326 1975 
Q 1069 1734 1069 1313 
Q 1069 891 1326 650 
Q 1584 409 2034 409 
Q 2484 409 2743 651 
Q 3003 894 3003 1313 
Q 3003 1734 2745 1975 
Q 2488 2216 2034 2216 
z
M 1403 2484 
Q 997 2584 770 2862 
Q 544 3141 544 3541 
Q 544 4100 942 4425 
Q 1341 4750 2034 4750 
Q 2731 4750 3128 4425 
Q 3525 4100 3525 3541 
Q 3525 3141 3298 2862 
Q 3072 2584 2669 2484 
Q 3125 2378 3379 2068 
Q 3634 1759 3634 1313 
Q 3634 634 3220 271 
Q 2806 -91 2034 -91 
Q 1263 -91 848 271 
Q 434 634 434 1313 
Q 434 1759 690 2068 
Q 947 2378 1403 2484 
z
M 1172 3481 
Q 1172 3119 1398 2916 
Q 1625 2713 2034 2713 
Q 2441 2713 2670 2916 
Q 2900 3119 2900 3481 
Q 2900 3844 2670 4047 
Q 2441 4250 2034 4250 
Q 1625 4250 1398 4047 
Q 1172 3844 1172 3481 
z
" transform="scale(0.015625)"/>
       </defs>
       <use xlink:href="#DejaVuSans-32"/>
       <use xlink:href="#DejaVuSans-36" x="63.623047"/>
       <use xlink:href="#DejaVuSans-2e" x="127.246094"/>
       <use xlink:href="#DejaVuSans-30" x="159.033203"/>
       <use xlink:href="#DejaVuSans-38" x="222.65625"/>
       <use xlink:href="#DejaVuSans-2e" x="286.279297"/>
       <use xlink:href="#DejaVuSans-32" x="318.066406"/>
       <use xlink:href="#DejaVuSans-30" x="381.689453"/>
       <use xlink:href="#DejaVuSans-32" x="445.3125"/>
       <use xlink:href="#DejaVuSans-31" x="508.935547"/>
      </g>
     </g>
    </g>
    <g id="xtick_9">
     <g id="line2d_17">
      <path d="M 347.284717 276.48 
L 347.284717 41.472 
" clip-path="url(#p579129a463)" style="fill: none; stroke-dasharray: 2.96,1.28; stroke-dashoffset: 0; stroke: #808080; stroke-width: 0.8"/>
     </g>
     <g id="line2d_18">
      <g>
       <use xlink:href="#m249c63b321" x="347.284717" y="276.48" style="stroke: #000000; stroke-width: 0.8"/>
      </g>
     </g>
     <g id="text_9">
      <!-- 16.11.2021 -->
      <g transform="translate(296.659507 318.688565)rotate(-30)scale(0.1 -0.1)">
       <use xlink:href="#DejaVuSans-31"/>
       <use xlink:href="#DejaVuSans-36" x="63.623047"/>
       <use xlink:href="#DejaVuSans-2e" x="127.246094"/>
       <use xlink:href="#DejaVuSans-31" x="159.033203"/>
       <use xlink:href="#DejaVuSans-31" x="222.65625"/>
       <use xlink:href="#DejaVuSans-2e" x="286.279297"/>
       <use xlink:href="#DejaVuSans-32" x="318.066406"/>
       <use xlink:href="#DejaVuSans-30" x="381.689453"/>
       <use xlink:href="#DejaVuSans-32" x="445.3125"/>
       <use xlink:href="#DejaVuSans-31" x="508.935547"/>
      </g>
     </g>
    </g>
    <g id="xtick_10">
     <g id="line2d_19">
      <path d="M 383.259951 276.48 
L 383.259951 41.472 
" clip-path="url(#p579129a463)" style="fill: none; stroke-dasharray: 2.96,1.28; stroke-dashoffset: 0; stroke: #808080; stroke-width: 0.8"/>
     </g>
     <g id="line2d_20">
      <g>
       <use xlink:href="#m249c63b321" x="383.259951" y="276.48" style="stroke: #000000; stroke-width: 0.8"/>
      </g>
     </g>
     <g id="text_10">
      <!-- 06.02.2022 -->
      <g transform="translate(332.63474 318.688565)rotate(-30)scale(0.1 -0.1)">
       <use xlink:href="#DejaVuSans-30"/>
       <use xlink:href="#DejaVuSans-36" x="63.623047"/>
       <use xlink:href="#DejaVuSans-2e" x="127.246094"/>
       <use xlink:href="#DejaVuSans-30" x="159.033203"/>
       <use xlink:href="#DejaVuSans-32" x="222.65625"/>
       <use xlink:href="#DejaVuSans-2e" x="286.279297"/>
       <use xlink:href="#DejaVuSans-32" x="318.066406"/>
       <use xlink:href="#DejaVuSans-30" x="381.689453"/>
       <use xlink:href="#DejaVuSans-32" x="445.3125"/>
       <use xlink:href="#DejaVuSans-32" x="508.935547"/>
      </g>
     </g>
    </g>
   </g>
   <g id="matplotlib.axis_2">
    <g id="ytick_1">
     <g id="line2d_21">
      <path d="M 57.6 265.719186 
L 414.72 265.719186 
" clip-path="url(#p579129a463)" style="fill: none; stroke-dasharray: 2.96,1.28; stroke-dashoffset: 0; stroke: #808080; stroke-width: 0.8"/>
     </g>
     <g id="line2d_22">
      <defs>
       <path id="m52e9e1f0a9" d="M 0 0 
L -3.5 0 
" style="stroke: #000000; stroke-width: 0.8"/>
      </defs>
      <g>
       <use xlink:href="#m52e9e1f0a9" x="57.6" y="265.719186" style="stroke: #000000; stroke-width: 0.8"/>
      </g>
     </g>
     <g id="text_11">
      <!-- 0 -->
      <g transform="translate(44.2375 269.518405)scale(0.1 -0.1)">
       <use xlink:href="#DejaVuSans-30"/>
      </g>
     </g>
    </g>
    <g id="ytick_2">
     <g id="line2d_23">
      <path d="M 57.6 238.683555 
L 414.72 238.683555 
" clip-path="url(#p579129a463)" style="fill: none; stroke-dasharray: 2.96,1.28; stroke-dashoffset: 0; stroke: #808080; stroke-width: 0.8"/>
     </g>
     <g id="line2d_24">
      <g>
       <use xlink:href="#m52e9e1f0a9" x="57.6" y="238.683555" style="stroke: #000000; stroke-width: 0.8"/>
      </g>
     </g>
     <g id="text_12">
      <!-- 200 -->
      <g transform="translate(31.5125 242.482774)scale(0.1 -0.1)">
       <use xlink:href="#DejaVuSans-32"/>
       <use xlink:href="#DejaVuSans-30" x="63.623047"/>
       <use xlink:href="#DejaVuSans-30" x="127.246094"/>
      </g>
     </g>
    </g>
    <g id="ytick_3">
     <g id="line2d_25">
      <path d="M 57.6 211.647924 
L 414.72 211.647924 
" clip-path="url(#p579129a463)" style="fill: none; stroke-dasharray: 2.96,1.28; stroke-dashoffset: 0; stroke: #808080; stroke-width: 0.8"/>
     </g>
     <g id="line2d_26">
      <g>
       <use xlink:href="#m52e9e1f0a9" x="57.6" y="211.647924" style="stroke: #000000; stroke-width: 0.8"/>
      </g>
     </g>
     <g id="text_13">
      <!-- 400 -->
      <g transform="translate(31.5125 215.447143)scale(0.1 -0.1)">
       <use xlink:href="#DejaVuSans-34"/>
       <use xlink:href="#DejaVuSans-30" x="63.623047"/>
       <use xlink:href="#DejaVuSans-30" x="127.246094"/>
      </g>
     </g>
    </g>
    <g id="ytick_4">
     <g id="line2d_27">
      <path d="M 57.6 184.612293 
L 414.72 184.612293 
" clip-path="url(#p579129a463)" style="fill: none; stroke-dasharray: 2.96,1.28; stroke-dashoffset: 0; stroke: #808080; stroke-width: 0.8"/>
     </g>
     <g id="line2d_28">
      <g>
       <use xlink:href="#m52e9e1f0a9" x="57.6" y="184.612293" style="stroke: #000000; stroke-width: 0.8"/>
      </g>
     </g>
     <g id="text_14">
      <!-- 600 -->
      <g transform="translate(31.5125 188.411512)scale(0.1 -0.1)">
       <use xlink:href="#DejaVuSans-36"/>
       <use xlink:href="#DejaVuSans-30" x="63.623047"/>
       <use xlink:href="#DejaVuSans-30" x="127.246094"/>
      </g>
     </g>
    </g>
    <g id="ytick_5">
     <g id="line2d_29">
      <path d="M 57.6 157.576662 
L 414.72 157.576662 
" clip-path="url(#p579129a463)" style="fill: none; stroke-dasharray: 2.96,1.28; stroke-dashoffset: 0; stroke: #808080; stroke-width: 0.8"/>
     </g>
     <g id="line2d_30">
      <g>
       <use xlink:href="#m52e9e1f0a9" x="57.6" y="157.576662" style="stroke: #000000; stroke-width: 0.8"/>
      </g>
     </g>
     <g id="text_15">
      <!-- 800 -->
      <g transform="translate(31.5125 161.37588)scale(0.1 -0.1)">
       <use xlink:href="#DejaVuSans-38"/>
       <use xlink:href="#DejaVuSans-30" x="63.623047"/>
       <use xlink:href="#DejaVuSans-30" x="127.246094"/>
      </g>
     </g>
    </g>
    <g id="ytick_6">
     <g id="line2d_31">
      <path d="M 57.6 130.541031 
L 414.72 130.541031 
" clip-path="url(#p579129a463)" style="fill: none; stroke-dasharray: 2.96,1.28; stroke-dashoffset: 0; stroke: #808080; stroke-width: 0.8"/>
     </g>
     <g id="line2d_32">
      <g>
       <use xlink:href="#m52e9e1f0a9" x="57.6" y="130.541031" style="stroke: #000000; stroke-width: 0.8"/>
      </g>
     </g>
     <g id="text_16">
      <!-- 1000 -->
      <g transform="translate(25.15 134.340249)scale(0.1 -0.1)">
       <use xlink:href="#DejaVuSans-31"/>
       <use xlink:href="#DejaVuSans-30" x="63.623047"/>
       <use xlink:href="#DejaVuSans-30" x="127.246094"/>
       <use xlink:href="#DejaVuSans-30" x="190.869141"/>
      </g>
     </g>
    </g>
    <g id="ytick_7">
     <g id="line2d_33">
      <path d="M 57.6 103.5054 
L 414.72 103.5054 
" clip-path="url(#p579129a463)" style="fill: none; stroke-dasharray: 2.96,1.28; stroke-dashoffset: 0; stroke: #808080; stroke-width: 0.8"/>
     </g>
     <g id="line2d_34">
      <g>
       <use xlink:href="#m52e9e1f0a9" x="57.6" y="103.5054" style="stroke: #000000; stroke-width: 0.8"/>
      </g>
     </g>
     <g id="text_17">
      <!-- 1200 -->
      <g transform="translate(25.15 107.304618)scale(0.1 -0.1)">
       <use xlink:href="#DejaVuSans-31"/>
       <use xlink:href="#DejaVuSans-32" x="63.623047"/>
       <use xlink:href="#DejaVuSans-30" x="127.246094"/>
       <use xlink:href="#DejaVuSans-30" x="190.869141"/>
      </g>
     </g>
    </g>
    <g id="ytick_8">
     <g id="line2d_35">
      <path d="M 57.6 76.469768 
L 414.72 76.469768 
" clip-path="url(#p579129a463)" style="fill: none; stroke-dasharray: 2.96,1.28; stroke-dashoffset: 0; stroke: #808080; stroke-width: 0.8"/>
     </g>
     <g id="line2d_36">
      <g>
       <use xlink:href="#m52e9e1f0a9" x="57.6" y="76.469768" style="stroke: #000000; stroke-width: 0.8"/>
      </g>
     </g>
     <g id="text_18">
      <!-- 1400 -->
      <g transform="translate(25.15 80.268987)scale(0.1 -0.1)">
       <use xlink:href="#DejaVuSans-31"/>
       <use xlink:href="#DejaVuSans-34" x="63.623047"/>
       <use xlink:href="#DejaVuSans-30" x="127.246094"/>
       <use xlink:href="#DejaVuSans-30" x="190.869141"/>
      </g>
     </g>
    </g>
    <g id="ytick_9">
     <g id="line2d_37">
      <path d="M 57.6 49.434137 
L 414.72 49.434137 
" clip-path="url(#p579129a463)" style="fill: none; stroke-dasharray: 2.96,1.28; stroke-dashoffset: 0; stroke: #808080; stroke-width: 0.8"/>
     </g>
     <g id="line2d_38">
      <g>
       <use xlink:href="#m52e9e1f0a9" x="57.6" y="49.434137" style="stroke: #000000; stroke-width: 0.8"/>
      </g>
     </g>
     <g id="text_19">
      <!-- 1600 -->
      <g transform="translate(25.15 53.233356)scale(0.1 -0.1)">
       <use xlink:href="#DejaVuSans-31"/>
       <use xlink:href="#DejaVuSans-36" x="63.623047"/>
       <use xlink:href="#DejaVuSans-30" x="127.246094"/>
       <use xlink:href="#DejaVuSans-30" x="190.869141"/>
      </g>
     </g>
    </g>
    <g id="text_20">
     <!-- Inzidenz pro 7 Tage pro 100.000 Einwohner -->
     <g transform="translate(19.070312 267.301)rotate(-90)scale(0.1 -0.1)">
      <defs>
       <path id="DejaVuSans-49" d="M 628 4666 
L 1259 4666 
L 1259 0 
L 628 0 
L 628 4666 
z
" transform="scale(0.015625)"/>
       <path id="DejaVuSans-6e" d="M 3513 2113 
L 3513 0 
L 2938 0 
L 2938 2094 
Q 2938 2591 2744 2837 
Q 2550 3084 2163 3084 
Q 1697 3084 1428 2787 
Q 1159 2491 1159 1978 
L 1159 0 
L 581 0 
L 581 3500 
L 1159 3500 
L 1159 2956 
Q 1366 3272 1645 3428 
Q 1925 3584 2291 3584 
Q 2894 3584 3203 3211 
Q 3513 2838 3513 2113 
z
" transform="scale(0.015625)"/>
       <path id="DejaVuSans-7a" d="M 353 3500 
L 3084 3500 
L 3084 2975 
L 922 459 
L 3084 459 
L 3084 0 
L 275 0 
L 275 525 
L 2438 3041 
L 353 3041 
L 353 3500 
z
" transform="scale(0.015625)"/>
       <path id="DejaVuSans-69" d="M 603 3500 
L 1178 3500 
L 1178 0 
L 603 0 
L 603 3500 
z
M 603 4863 
L 1178 4863 
L 1178 4134 
L 603 4134 
L 603 4863 
z
" transform="scale(0.015625)"/>
       <path id="DejaVuSans-64" d="M 2906 2969 
L 2906 4863 
L 3481 4863 
L 3481 0 
L 2906 0 
L 2906 525 
Q 2725 213 2448 61 
Q 2172 -91 1784 -91 
Q 1150 -91 751 415 
Q 353 922 353 1747 
Q 353 2572 751 3078 
Q 1150 3584 1784 3584 
Q 2172 3584 2448 3432 
Q 2725 3281 2906 2969 
z
M 947 1747 
Q 947 1113 1208 752 
Q 1469 391 1925 391 
Q 2381 391 2643 752 
Q 2906 1113 2906 1747 
Q 2906 2381 2643 2742 
Q 2381 3103 1925 3103 
Q 1469 3103 1208 2742 
Q 947 2381 947 1747 
z
" transform="scale(0.015625)"/>
       <path id="DejaVuSans-65" d="M 3597 1894 
L 3597 1613 
L 953 1613 
Q 991 1019 1311 708 
Q 1631 397 2203 397 
Q 2534 397 2845 478 
Q 3156 559 3463 722 
L 3463 178 
Q 3153 47 2828 -22 
Q 2503 -91 2169 -91 
Q 1331 -91 842 396 
Q 353 884 353 1716 
Q 353 2575 817 3079 
Q 1281 3584 2069 3584 
Q 2775 3584 3186 3129 
Q 3597 2675 3597 1894 
z
M 3022 2063 
Q 3016 2534 2758 2815 
Q 2500 3097 2075 3097 
Q 1594 3097 1305 2825 
Q 1016 2553 972 2059 
L 3022 2063 
z
" transform="scale(0.015625)"/>
       <path id="DejaVuSans-20" transform="scale(0.015625)"/>
       <path id="DejaVuSans-70" d="M 1159 525 
L 1159 -1331 
L 581 -1331 
L 581 3500 
L 1159 3500 
L 1159 2969 
Q 1341 3281 1617 3432 
Q 1894 3584 2278 3584 
Q 2916 3584 3314 3078 
Q 3713 2572 3713 1747 
Q 3713 922 3314 415 
Q 2916 -91 2278 -91 
Q 1894 -91 1617 61 
Q 1341 213 1159 525 
z
M 3116 1747 
Q 3116 2381 2855 2742 
Q 2594 3103 2138 3103 
Q 1681 3103 1420 2742 
Q 1159 2381 1159 1747 
Q 1159 1113 1420 752 
Q 1681 391 2138 391 
Q 2594 391 2855 752 
Q 3116 1113 3116 1747 
z
" transform="scale(0.015625)"/>
       <path id="DejaVuSans-72" d="M 2631 2963 
Q 2534 3019 2420 3045 
Q 2306 3072 2169 3072 
Q 1681 3072 1420 2755 
Q 1159 2438 1159 1844 
L 1159 0 
L 581 0 
L 581 3500 
L 1159 3500 
L 1159 2956 
Q 1341 3275 1631 3429 
Q 1922 3584 2338 3584 
Q 2397 3584 2469 3576 
Q 2541 3569 2628 3553 
L 2631 2963 
z
" transform="scale(0.015625)"/>
       <path id="DejaVuSans-6f" d="M 1959 3097 
Q 1497 3097 1228 2736 
Q 959 2375 959 1747 
Q 959 1119 1226 758 
Q 1494 397 1959 397 
Q 2419 397 2687 759 
Q 2956 1122 2956 1747 
Q 2956 2369 2687 2733 
Q 2419 3097 1959 3097 
z
M 1959 3584 
Q 2709 3584 3137 3096 
Q 3566 2609 3566 1747 
Q 3566 888 3137 398 
Q 2709 -91 1959 -91 
Q 1206 -91 779 398 
Q 353 888 353 1747 
Q 353 2609 779 3096 
Q 1206 3584 1959 3584 
z
" transform="scale(0.015625)"/>
       <path id="DejaVuSans-54" d="M -19 4666 
L 3928 4666 
L 3928 4134 
L 2272 4134 
L 2272 0 
L 1638 0 
L 1638 4134 
L -19 4134 
L -19 4666 
z
" transform="scale(0.015625)"/>
       <path id="DejaVuSans-61" d="M 2194 1759 
Q 1497 1759 1228 1600 
Q 959 1441 959 1056 
Q 959 750 1161 570 
Q 1363 391 1709 391 
Q 2188 391 2477 730 
Q 2766 1069 2766 1631 
L 2766 1759 
L 2194 1759 
z
M 3341 1997 
L 3341 0 
L 2766 0 
L 2766 531 
Q 2569 213 2275 61 
Q 1981 -91 1556 -91 
Q 1019 -91 701 211 
Q 384 513 384 1019 
Q 384 1609 779 1909 
Q 1175 2209 1959 2209 
L 2766 2209 
L 2766 2266 
Q 2766 2663 2505 2880 
Q 2244 3097 1772 3097 
Q 1472 3097 1187 3025 
Q 903 2953 641 2809 
L 641 3341 
Q 956 3463 1253 3523 
Q 1550 3584 1831 3584 
Q 2591 3584 2966 3190 
Q 3341 2797 3341 1997 
z
" transform="scale(0.015625)"/>
       <path id="DejaVuSans-67" d="M 2906 1791 
Q 2906 2416 2648 2759 
Q 2391 3103 1925 3103 
Q 1463 3103 1205 2759 
Q 947 2416 947 1791 
Q 947 1169 1205 825 
Q 1463 481 1925 481 
Q 2391 481 2648 825 
Q 2906 1169 2906 1791 
z
M 3481 434 
Q 3481 -459 3084 -895 
Q 2688 -1331 1869 -1331 
Q 1566 -1331 1297 -1286 
Q 1028 -1241 775 -1147 
L 775 -588 
Q 1028 -725 1275 -790 
Q 1522 -856 1778 -856 
Q 2344 -856 2625 -561 
Q 2906 -266 2906 331 
L 2906 616 
Q 2728 306 2450 153 
Q 2172 0 1784 0 
Q 1141 0 747 490 
Q 353 981 353 1791 
Q 353 2603 747 3093 
Q 1141 3584 1784 3584 
Q 2172 3584 2450 3431 
Q 2728 3278 2906 2969 
L 2906 3500 
L 3481 3500 
L 3481 434 
z
" transform="scale(0.015625)"/>
       <path id="DejaVuSans-45" d="M 628 4666 
L 3578 4666 
L 3578 4134 
L 1259 4134 
L 1259 2753 
L 3481 2753 
L 3481 2222 
L 1259 2222 
L 1259 531 
L 3634 531 
L 3634 0 
L 628 0 
L 628 4666 
z
" transform="scale(0.015625)"/>
       <path id="DejaVuSans-77" d="M 269 3500 
L 844 3500 
L 1563 769 
L 2278 3500 
L 2956 3500 
L 3675 769 
L 4391 3500 
L 4966 3500 
L 4050 0 
L 3372 0 
L 2619 2869 
L 1863 0 
L 1184 0 
L 269 3500 
z
" transform="scale(0.015625)"/>
       <path id="DejaVuSans-68" d="M 3513 2113 
L 3513 0 
L 2938 0 
L 2938 2094 
Q 2938 2591 2744 2837 
Q 2550 3084 2163 3084 
Q 1697 3084 1428 2787 
Q 1159 2491 1159 1978 
L 1159 0 
L 581 0 
L 581 4863 
L 1159 4863 
L 1159 2956 
Q 1366 3272 1645 3428 
Q 1925 3584 2291 3584 
Q 2894 3584 3203 3211 
Q 3513 2838 3513 2113 
z
" transform="scale(0.015625)"/>
      </defs>
      <use xlink:href="#DejaVuSans-49"/>
      <use xlink:href="#DejaVuSans-6e" x="29.492188"/>
      <use xlink:href="#DejaVuSans-7a" x="92.871094"/>
      <use xlink:href="#DejaVuSans-69" x="145.361328"/>
      <use xlink:href="#DejaVuSans-64" x="173.144531"/>
      <use xlink:href="#DejaVuSans-65" x="236.621094"/>
      <use xlink:href="#DejaVuSans-6e" x="298.144531"/>
      <use xlink:href="#DejaVuSans-7a" x="361.523438"/>
      <use xlink:href="#DejaVuSans-20" x="414.013672"/>
      <use xlink:href="#DejaVuSans-70" x="445.800781"/>
      <use xlink:href="#DejaVuSans-72" x="509.277344"/>
      <use xlink:href="#DejaVuSans-6f" x="548.140625"/>
      <use xlink:href="#DejaVuSans-20" x="609.322266"/>
      <use xlink:href="#DejaVuSans-37" x="641.109375"/>
      <use xlink:href="#DejaVuSans-20" x="704.732422"/>
      <use xlink:href="#DejaVuSans-54" x="736.519531"/>
      <use xlink:href="#DejaVuSans-61" x="781.103516"/>
      <use xlink:href="#DejaVuSans-67" x="842.382812"/>
      <use xlink:href="#DejaVuSans-65" x="905.859375"/>
      <use xlink:href="#DejaVuSans-20" x="967.382812"/>
      <use xlink:href="#DejaVuSans-70" x="999.169922"/>
      <use xlink:href="#DejaVuSans-72" x="1062.646484"/>
      <use xlink:href="#DejaVuSans-6f" x="1101.509766"/>
      <use xlink:href="#DejaVuSans-20" x="1162.691406"/>
      <use xlink:href="#DejaVuSans-31" x="1194.478516"/>
      <use xlink:href="#DejaVuSans-30" x="1258.101562"/>
      <use xlink:href="#DejaVuSans-30" x="1321.724609"/>
      <use xlink:href="#DejaVuSans-2e" x="1385.347656"/>
      <use xlink:href="#DejaVuSans-30" x="1417.134766"/>
      <use xlink:href="#DejaVuSans-30" x="1480.757812"/>
      <use xlink:href="#DejaVuSans-30" x="1544.380859"/>
      <use xlink:href="#DejaVuSans-20" x="1608.003906"/>
      <use xlink:href="#DejaVuSans-45" x="1639.791016"/>
      <use xlink:href="#DejaVuSans-69" x="1702.974609"/>
      <use xlink:href="#DejaVuSans-6e" x="1730.757812"/>
      <use xlink:href="#DejaVuSans-77" x="1794.136719"/>
      <use xlink:href="#DejaVuSans-6f" x="1875.923828"/>
      <use xlink:href="#DejaVuSans-68" x="1937.105469"/>
      <use xlink:href="#DejaVuSans-6e" x="2000.484375"/>
      <use xlink:href="#DejaVuSans-65" x="2063.863281"/>
      <use xlink:href="#DejaVuSans-72" x="2125.386719"/>
     </g>
    </g>
   </g>
   <g id="line2d_39">
    <path d="M 73.832727 265.719186 
L 78.658673 265.640554 
L 79.097396 265.483289 
L 79.536118 265.483289 
L 79.97484 265.247393 
L 80.413563 264.618335 
L 80.852285 262.573899 
L 81.291007 262.338002 
L 81.72973 261.944841 
L 82.168452 261.237152 
L 82.607174 261.237152 
L 83.045897 258.878186 
L 83.484619 258.170497 
L 83.923342 259.821772 
L 84.362064 258.563658 
L 85.678231 258.720922 
L 86.116953 260.529462 
L 86.555676 261.394416 
L 86.994398 260.843991 
L 87.43312 261.55168 
L 87.871843 261.473048 
L 88.310565 262.102106 
L 88.749287 261.866209 
L 90.065455 263.596117 
L 90.942899 263.989278 
L 91.381622 264.06791 
L 91.820344 264.303807 
L 92.697789 264.146542 
L 93.136511 264.303807 
L 93.575233 264.618335 
L 94.452678 264.382439 
L 94.8914 264.225175 
L 95.330123 264.461071 
L 95.768845 264.303807 
L 96.64629 264.225175 
L 97.085012 264.539703 
L 97.523735 264.06791 
L 97.962457 264.225175 
L 98.401179 264.06791 
L 99.717346 264.146542 
L 100.156069 264.225175 
L 100.594791 264.7756 
L 101.033514 264.7756 
L 101.472236 265.011496 
L 102.788403 264.618335 
L 103.227125 264.539703 
L 103.665848 264.696968 
L 104.543292 264.696968 
L 105.859459 265.404657 
L 106.736904 265.326025 
L 107.614349 265.247393 
L 109.807961 265.326025 
L 111.56285 265.561922 
L 112.440295 265.640554 
L 113.31774 265.719186 
L 117.266241 265.640554 
L 118.582408 265.483289 
L 120.337297 265.561922 
L 121.653464 265.719186 
L 126.040688 265.640554 
L 126.47941 265.247393 
L 129.111744 265.247393 
L 129.550467 265.640554 
L 129.989189 265.483289 
L 132.621523 265.483289 
L 133.060246 265.640554 
L 134.376413 265.561922 
L 135.253857 265.483289 
L 135.69258 265.483289 
L 136.131302 265.168761 
L 137.008747 265.326025 
L 137.447469 265.090129 
L 137.886192 265.168761 
L 138.763636 265.090129 
L 139.202359 265.247393 
L 139.641081 264.696968 
L 140.079803 264.696968 
L 140.518526 264.854232 
L 140.957248 264.7756 
L 141.395971 264.303807 
L 141.834693 264.225175 
L 142.273415 264.303807 
L 142.712138 264.696968 
L 143.589582 264.303807 
L 144.028305 264.382439 
L 144.467027 264.854232 
L 144.905749 264.7756 
L 145.344472 264.539703 
L 145.783194 263.989278 
L 147.099361 263.832014 
L 148.415528 262.96706 
L 148.854251 263.596117 
L 149.731695 264.146542 
L 150.170418 264.06791 
L 150.60914 264.225175 
L 151.047862 264.618335 
L 151.486585 264.7756 
L 151.925307 264.618335 
L 152.802752 264.696968 
L 154.557641 265.090129 
L 156.312531 264.461071 
L 157.189975 264.696968 
L 157.628698 264.539703 
L 158.506143 264.618335 
L 158.944865 264.696968 
L 159.383587 264.382439 
L 160.261032 264.06791 
L 160.699754 263.596117 
L 161.577199 263.910646 
L 162.015921 263.753381 
L 162.454644 264.225175 
L 163.332088 264.461071 
L 163.770811 264.854232 
L 164.209533 264.7756 
L 165.086978 264.146542 
L 165.5257 263.989278 
L 165.964423 263.989278 
L 167.28059 262.96706 
L 167.719312 263.281588 
L 168.158034 263.124324 
L 168.596757 263.281588 
L 169.474201 263.360221 
L 169.912924 263.832014 
L 170.351646 263.753381 
L 170.790369 262.495267 
L 171.229091 263.124324 
L 172.106536 263.124324 
L 172.545258 262.573899 
L 172.98398 261.473048 
L 173.422703 261.158519 
L 173.861425 261.866209 
L 174.300147 260.922623 
L 174.73887 260.922623 
L 175.177592 259.821772 
L 175.616314 260.214933 
L 176.055037 259.271347 
L 176.493759 259.192715 
L 176.932482 259.428612 
L 177.371204 257.22691 
L 178.248649 254.632048 
L 178.687371 251.565393 
L 179.126093 250.936336 
L 179.564816 249.835485 
L 180.003538 247.004727 
L 180.44226 247.633784 
L 180.880983 248.498738 
L 181.319705 250.071382 
L 181.758428 247.791049 
L 182.19715 247.240623 
L 182.635872 244.488497 
L 183.074595 246.454302 
L 183.513317 244.409865 
L 183.952039 244.331233 
L 184.390762 241.185945 
L 184.829484 243.702175 
L 185.268206 241.736371 
L 185.706929 245.66798 
L 186.145651 242.365428 
L 186.584373 245.038922 
L 187.023096 244.96029 
L 187.461818 247.869681 
L 187.900541 244.173968 
L 188.339263 244.803026 
L 188.777985 240.242359 
L 189.216708 244.016704 
L 189.65543 241.579106 
L 190.094152 240.871417 
L 190.532875 237.804762 
L 190.971597 241.736371 
L 191.849042 246.532934 
L 192.287764 240.714152 
L 192.726486 243.309014 
L 193.603931 245.66798 
L 194.042654 246.611566 
L 194.481376 243.85944 
L 194.920098 243.230382 
L 195.358821 240.163727 
L 195.797543 240.085095 
L 196.236265 239.377405 
L 196.674988 237.883394 
L 197.11371 235.445796 
L 197.552432 235.603061 
L 197.991155 233.715888 
L 198.429877 239.691934 
L 199.307322 233.558624 
L 199.746044 236.861175 
L 200.184767 237.254336 
L 200.623489 235.681693 
L 201.062211 235.917589 
L 201.500934 234.974003 
L 201.939656 231.121026 
L 202.378378 224.122762 
L 202.817101 222.471486 
L 203.255823 217.989452 
L 203.694545 214.844165 
L 204.133268 212.956992 
L 204.57199 215.945015 
L 205.449435 233.715888 
L 205.888157 234.266314 
L 206.32688 236.625279 
L 206.765602 236.389382 
L 207.204324 231.356923 
L 207.643047 232.615038 
L 208.081769 232.69367 
L 208.520491 228.840693 
L 208.959214 230.570601 
L 209.397936 227.346682 
L 209.836658 227.503946 
L 210.275381 235.2099 
L 210.714103 233.244095 
L 211.152826 225.538141 
L 211.591548 229.391118 
L 212.03027 228.997957 
L 212.468993 232.221877 
L 212.907715 236.468015 
L 213.346437 237.01844 
L 213.78516 236.939808 
L 214.223882 242.129532 
L 214.662604 242.837221 
L 215.101327 242.44406 
L 215.540049 246.926095 
L 215.978771 248.891899 
L 216.417494 249.914118 
L 216.856216 248.498738 
L 217.294939 248.498738 
L 217.733661 248.656003 
L 218.172383 248.970531 
L 218.611106 246.218405 
L 219.049828 248.813267 
L 219.48855 248.262842 
L 219.927273 250.307278 
L 220.365995 251.172232 
L 220.804717 251.0936 
L 221.24344 251.408129 
L 221.682162 254.160255 
L 222.120885 253.295301 
L 222.559607 255.103842 
L 222.998329 255.890163 
L 223.437052 255.575635 
L 223.875774 255.732899 
L 224.314496 256.440589 
L 224.753219 256.204692 
L 225.191941 256.597853 
L 225.630663 257.384175 
L 226.069386 257.541439 
L 226.508108 259.114083 
L 226.94683 259.271347 
L 227.385553 259.114083 
L 227.824275 259.585876 
L 228.70172 259.349979 
L 229.140442 258.956818 
L 229.579165 258.013232 
L 230.017887 257.855968 
L 231.772776 255.261106 
L 232.211499 254.396152 
L 232.650221 255.261106 
L 233.088943 255.261106 
L 233.966388 255.968796 
L 234.405111 256.755117 
L 234.843833 256.991014 
L 235.282555 257.620071 
L 235.721278 256.991014 
L 236.598722 257.384175 
L 237.037445 256.204692 
L 237.476167 256.283324 
L 237.914889 256.12606 
L 238.353612 254.789313 
L 238.792334 254.553416 
L 239.231057 254.789313 
L 239.669779 252.980773 
L 240.108501 252.430347 
L 240.547224 251.565393 
L 240.985946 249.914118 
L 241.424668 250.700439 
L 241.863391 250.621807 
L 242.302113 249.756853 
L 242.740835 249.599589 
L 243.179558 247.948313 
L 243.61828 243.623543 
L 244.057002 242.208164 
L 244.495725 241.421842 
L 244.934447 239.613302 
L 245.37317 239.770566 
L 245.811892 237.804762 
L 246.250614 237.332969 
L 246.689337 238.433819 
L 247.128059 236.546647 
L 247.566781 236.232118 
L 248.005504 237.332969 
L 248.444226 237.175704 
L 248.882948 240.478256 
L 249.760393 241.34321 
L 250.199115 243.702175 
L 251.07656 241.185945 
L 251.515283 241.421842 
L 251.954005 239.141509 
L 252.392727 238.669716 
L 253.270172 234.344946 
L 253.708894 233.40136 
L 254.147617 231.907348 
L 254.586339 228.447532 
L 255.025061 228.526164 
L 255.463784 224.437291 
L 255.902506 225.459509 
L 256.779951 225.380877 
L 257.218673 226.796256 
L 257.657396 230.17744 
L 258.973563 236.546647 
L 259.412285 239.298773 
L 259.851007 241.028681 
L 260.28973 240.714152 
L 260.728452 240.792785 
L 261.167174 241.185945 
L 262.044619 239.927831 
L 262.483342 240.478256 
L 262.922064 242.365428 
L 263.360786 243.230382 
L 263.799509 243.544911 
L 264.238231 243.073118 
L 264.676953 246.690198 
L 265.115676 248.105577 
L 265.554398 248.498738 
L 265.99312 250.228646 
L 266.870565 249.914118 
L 267.309287 250.071382 
L 267.74801 251.958554 
L 268.186732 254.632048 
L 268.625455 255.497002 
L 269.064177 254.474784 
L 269.502899 257.384175 
L 269.941622 257.384175 
L 270.380344 258.249129 
L 270.819066 260.529462 
L 271.257789 260.057669 
L 271.696511 261.315784 
L 272.573956 260.765359 
L 273.012678 260.922623 
L 273.4514 260.608094 
L 273.890123 260.608094 
L 274.328845 261.944841 
L 274.767568 262.023473 
L 275.20629 263.360221 
L 275.645012 263.674749 
L 276.083735 263.753381 
L 276.522457 263.989278 
L 276.961179 263.674749 
L 277.838624 263.910646 
L 278.277346 263.910646 
L 278.716069 264.382439 
L 279.593514 264.461071 
L 280.032236 264.854232 
L 280.470958 264.932864 
L 280.909681 265.247393 
L 282.225848 265.404657 
L 282.66457 265.326025 
L 283.542015 265.561922 
L 283.980737 265.561922 
L 284.419459 265.719186 
L 285.735627 265.797818 
L 286.174349 265.483289 
L 287.490516 265.404657 
L 287.929238 265.247393 
L 288.367961 265.247393 
L 288.806683 265.011496 
L 289.684128 264.932864 
L 290.12285 264.7756 
L 290.561572 264.382439 
L 291.439017 264.382439 
L 294.071351 262.96706 
L 294.510074 262.96706 
L 294.948796 263.438853 
L 295.826241 263.438853 
L 296.264963 263.596117 
L 296.703686 263.989278 
L 297.142408 264.225175 
L 297.58113 264.225175 
L 298.019853 263.989278 
L 298.458575 264.932864 
L 298.897297 264.382439 
L 299.774742 264.146542 
L 300.213464 263.438853 
L 300.652187 263.438853 
L 301.090909 263.596117 
L 301.529631 262.102106 
L 301.968354 262.573899 
L 302.407076 262.652531 
L 302.845799 262.888427 
L 303.284521 263.438853 
L 304.161966 263.438853 
L 304.600688 263.596117 
L 305.03941 262.809795 
L 305.916855 262.731163 
L 306.355577 262.023473 
L 306.7943 262.023473 
L 307.671744 261.237152 
L 308.110467 261.158519 
L 308.549189 259.428612 
L 308.987912 258.799554 
L 309.426634 257.855968 
L 309.865356 257.777336 
L 310.304079 257.069646 
L 310.742801 255.41837 
L 311.181523 255.41837 
L 311.620246 254.160255 
L 312.058968 253.531198 
L 312.49769 253.295301 
L 312.936413 252.587612 
L 313.375135 252.430347 
L 313.813857 251.722658 
L 314.25258 250.464543 
L 314.691302 250.464543 
L 315.130025 250.779072 
L 315.568747 248.970531 
L 316.007469 249.756853 
L 316.446192 249.835485 
L 316.884914 250.385911 
L 317.323636 250.307278 
L 317.762359 251.565393 
L 318.201081 249.99275 
L 318.639803 251.408129 
L 319.078526 251.408129 
L 319.955971 250.464543 
L 320.394693 251.250865 
L 320.833415 250.071382 
L 321.71086 252.430347 
L 322.149582 252.430347 
L 322.588305 252.666244 
L 323.027027 254.081623 
L 323.465749 254.31752 
L 323.904472 255.811531 
L 324.343194 255.811531 
L 324.781916 256.204692 
L 325.220639 256.204692 
L 325.659361 257.22691 
L 326.098084 257.620071 
L 327.414251 260.136301 
L 328.291695 260.136301 
L 328.730418 259.900405 
L 329.16914 259.271347 
L 329.607862 259.035451 
L 330.046585 257.9346 
L 331.362752 258.327761 
L 331.801474 258.091864 
L 332.240197 259.74314 
L 332.678919 259.271347 
L 333.117641 259.74314 
L 333.995086 259.035451 
L 334.872531 259.035451 
L 335.311253 257.384175 
L 335.749975 257.541439 
L 336.188698 256.83375 
L 336.62742 256.597853 
L 337.066143 255.575635 
L 337.504865 255.575635 
L 338.821032 253.373934 
L 339.259754 253.452566 
L 339.698477 252.90214 
L 340.137199 253.688462 
L 340.575921 253.688462 
L 341.014644 251.958554 
L 341.453366 252.90214 
L 341.892088 252.037186 
L 342.330811 251.722658 
L 343.208256 248.105577 
L 343.646978 247.948313 
L 344.0857 248.498738 
L 344.524423 247.161991 
L 344.963145 246.76883 
L 345.401867 244.252601 
L 345.84059 246.139773 
L 346.279312 245.432083 
L 346.718034 245.510715 
L 347.156757 244.96029 
L 347.595479 242.050899 
L 348.034201 241.421842 
L 348.472924 242.050899 
L 348.911646 241.421842 
L 349.350369 241.736371 
L 349.789091 241.815003 
L 350.227813 240.714152 
L 350.666536 241.500474 
L 351.105258 239.53467 
L 351.54398 238.11929 
L 351.982703 235.996222 
L 352.421425 235.2099 
L 352.860147 235.2099 
L 353.29887 234.659474 
L 353.737592 234.580842 
L 354.176314 233.479992 
L 354.615037 232.850934 
L 355.053759 232.536406 
L 355.492482 231.750084 
L 355.931204 231.435555 
L 357.247371 232.536406 
L 357.686093 233.951785 
L 358.563538 234.816739 
L 359.00226 234.974003 
L 359.440983 235.603061 
L 359.879705 235.681693 
L 360.318428 238.11929 
L 361.634595 242.286796 
L 362.073317 242.050899 
L 362.512039 244.252601 
L 362.950762 245.66798 
L 363.389484 246.690198 
L 363.828206 247.397888 
L 364.266929 249.206428 
L 364.705651 251.879922 
L 365.583096 252.115819 
L 366.021818 251.172232 
L 366.899263 248.498738 
L 367.337985 245.117555 
L 367.776708 245.117555 
L 368.21543 243.938072 
L 369.092875 233.558624 
L 369.970319 227.268049 
L 370.409042 225.459509 
L 370.847764 220.42705 
L 371.286486 219.955257 
L 371.725209 219.01167 
L 372.163931 215.080061 
L 372.602654 212.327935 
L 373.041376 206.74505 
L 373.480098 195.972441 
L 373.918821 195.815177 
L 374.357543 195.500648 
L 374.796265 190.625453 
L 375.234988 182.054545 
L 375.67371 175.842603 
L 376.112432 161.767442 
L 376.551155 159.408477 
L 376.989877 152.803374 
L 377.4286 149.186293 
L 377.867322 140.300857 
L 378.306044 135.032501 
L 378.744767 127.483811 
L 379.183489 124.259892 
L 379.622211 122.451352 
L 380.060934 117.104364 
L 380.499656 116.475306 
L 380.938378 113.801812 
L 381.377101 108.926617 
L 381.815823 107.196709 
L 382.254545 109.241145 
L 383.13199 103.815525 
L 383.570713 102.164249 
L 384.009435 102.085617 
L 384.448157 106.253122 
L 385.325602 78.338698 
L 385.764324 66.779768 
L 386.641769 57.972963 
L 387.080491 59.231078 
L 387.519214 52.154182 
L 387.957936 59.702871 
L 388.835381 84.472008 
L 389.274103 90.054893 
L 389.712826 91.234376 
L 390.151548 88.718146 
L 390.59027 91.942066 
L 391.028993 93.671974 
L 391.467715 88.010456 
L 391.906437 89.661732 
L 392.34516 96.581364 
L 392.783882 93.436077 
L 393.222604 97.603583 
L 393.661327 100.670238 
L 394.100049 101.142031 
L 394.538771 97.52495 
L 394.977494 95.480514 
L 395.854939 82.584836 
L 396.293661 67.408825 
L 396.732383 63.555848 
L 397.171106 55.613998 
L 397.609828 62.53363 
L 398.04855 72.126756 
L 398.487273 88.639514 
L 398.487273 88.639514 
" clip-path="url(#p579129a463)" style="fill: none; stroke: #1f77b4; stroke-width: 1.5; stroke-linecap: square"/>
   </g>
   <g id="patch_3">
    <path d="M 57.6 276.48 
L 57.6 41.472 
" style="fill: none; stroke: #000000; stroke-width: 0.8; stroke-linejoin: miter; stroke-linecap: square"/>
   </g>
   <g id="patch_4">
    <path d="M 414.72 276.48 
L 414.72 41.472 
" style="fill: none; stroke: #000000; stroke-width: 0.8; stroke-linejoin: miter; stroke-linecap: square"/>
   </g>
   <g id="patch_5">
    <path d="M 57.6 276.48 
L 414.72 276.48 
" style="fill: none; stroke: #000000; stroke-width: 0.8; stroke-linejoin: miter; stroke-linecap: square"/>
   </g>
   <g id="patch_6">
    <path d="M 57.6 41.472 
L 414.72 41.472 
" style="fill: none; stroke: #000000; stroke-width: 0.8; stroke-linejoin: miter; stroke-linecap: square"/>
   </g>
  </g>
  <g id="text_21">
   <!-- Inzidenzverlauf LK Limburg-Weilburg -->
   <g transform="translate(65.625469 20.589187)scale(0.18 -0.18)">
    <defs>
     <path id="DejaVuSans-76" d="M 191 3500 
L 800 3500 
L 1894 563 
L 2988 3500 
L 3597 3500 
L 2284 0 
L 1503 0 
L 191 3500 
z
" transform="scale(0.015625)"/>
     <path id="DejaVuSans-6c" d="M 603 4863 
L 1178 4863 
L 1178 0 
L 603 0 
L 603 4863 
z
" transform="scale(0.015625)"/>
     <path id="DejaVuSans-75" d="M 544 1381 
L 544 3500 
L 1119 3500 
L 1119 1403 
Q 1119 906 1312 657 
Q 1506 409 1894 409 
Q 2359 409 2629 706 
Q 2900 1003 2900 1516 
L 2900 3500 
L 3475 3500 
L 3475 0 
L 2900 0 
L 2900 538 
Q 2691 219 2414 64 
Q 2138 -91 1772 -91 
Q 1169 -91 856 284 
Q 544 659 544 1381 
z
M 1991 3584 
L 1991 3584 
z
" transform="scale(0.015625)"/>
     <path id="DejaVuSans-66" d="M 2375 4863 
L 2375 4384 
L 1825 4384 
Q 1516 4384 1395 4259 
Q 1275 4134 1275 3809 
L 1275 3500 
L 2222 3500 
L 2222 3053 
L 1275 3053 
L 1275 0 
L 697 0 
L 697 3053 
L 147 3053 
L 147 3500 
L 697 3500 
L 697 3744 
Q 697 4328 969 4595 
Q 1241 4863 1831 4863 
L 2375 4863 
z
" transform="scale(0.015625)"/>
     <path id="DejaVuSans-4c" d="M 628 4666 
L 1259 4666 
L 1259 531 
L 3531 531 
L 3531 0 
L 628 0 
L 628 4666 
z
" transform="scale(0.015625)"/>
     <path id="DejaVuSans-4b" d="M 628 4666 
L 1259 4666 
L 1259 2694 
L 3353 4666 
L 4166 4666 
L 1850 2491 
L 4331 0 
L 3500 0 
L 1259 2247 
L 1259 0 
L 628 0 
L 628 4666 
z
" transform="scale(0.015625)"/>
     <path id="DejaVuSans-6d" d="M 3328 2828 
Q 3544 3216 3844 3400 
Q 4144 3584 4550 3584 
Q 5097 3584 5394 3201 
Q 5691 2819 5691 2113 
L 5691 0 
L 5113 0 
L 5113 2094 
Q 5113 2597 4934 2840 
Q 4756 3084 4391 3084 
Q 3944 3084 3684 2787 
Q 3425 2491 3425 1978 
L 3425 0 
L 2847 0 
L 2847 2094 
Q 2847 2600 2669 2842 
Q 2491 3084 2119 3084 
Q 1678 3084 1418 2786 
Q 1159 2488 1159 1978 
L 1159 0 
L 581 0 
L 581 3500 
L 1159 3500 
L 1159 2956 
Q 1356 3278 1631 3431 
Q 1906 3584 2284 3584 
Q 2666 3584 2933 3390 
Q 3200 3197 3328 2828 
z
" transform="scale(0.015625)"/>
     <path id="DejaVuSans-62" d="M 3116 1747 
Q 3116 2381 2855 2742 
Q 2594 3103 2138 3103 
Q 1681 3103 1420 2742 
Q 1159 2381 1159 1747 
Q 1159 1113 1420 752 
Q 1681 391 2138 391 
Q 2594 391 2855 752 
Q 3116 1113 3116 1747 
z
M 1159 2969 
Q 1341 3281 1617 3432 
Q 1894 3584 2278 3584 
Q 2916 3584 3314 3078 
Q 3713 2572 3713 1747 
Q 3713 922 3314 415 
Q 2916 -91 2278 -91 
Q 1894 -91 1617 61 
Q 1341 213 1159 525 
L 1159 0 
L 581 0 
L 581 4863 
L 1159 4863 
L 1159 2969 
z
" transform="scale(0.015625)"/>
     <path id="DejaVuSans-2d" d="M 313 2009 
L 1997 2009 
L 1997 1497 
L 313 1497 
L 313 2009 
z
" transform="scale(0.015625)"/>
     <path id="DejaVuSans-57" d="M 213 4666 
L 850 4666 
L 1831 722 
L 2809 4666 
L 3519 4666 
L 4500 722 
L 5478 4666 
L 6119 4666 
L 4947 0 
L 4153 0 
L 3169 4050 
L 2175 0 
L 1381 0 
L 213 4666 
z
" transform="scale(0.015625)"/>
    </defs>
    <use xlink:href="#DejaVuSans-49"/>
    <use xlink:href="#DejaVuSans-6e" x="29.492188"/>
    <use xlink:href="#DejaVuSans-7a" x="92.871094"/>
    <use xlink:href="#DejaVuSans-69" x="145.361328"/>
    <use xlink:href="#DejaVuSans-64" x="173.144531"/>
    <use xlink:href="#DejaVuSans-65" x="236.621094"/>
    <use xlink:href="#DejaVuSans-6e" x="298.144531"/>
    <use xlink:href="#DejaVuSans-7a" x="361.523438"/>
    <use xlink:href="#DejaVuSans-76" x="414.013672"/>
    <use xlink:href="#DejaVuSans-65" x="473.193359"/>
    <use xlink:href="#DejaVuSans-72" x="534.716797"/>
    <use xlink:href="#DejaVuSans-6c" x="575.830078"/>
    <use xlink:href="#DejaVuSans-61" x="603.613281"/>
    <use xlink:href="#DejaVuSans-75" x="664.892578"/>
    <use xlink:href="#DejaVuSans-66" x="728.271484"/>
    <use xlink:href="#DejaVuSans-20" x="763.476562"/>
    <use xlink:href="#DejaVuSans-4c" x="795.263672"/>
    <use xlink:href="#DejaVuSans-4b" x="850.976562"/>
    <use xlink:href="#DejaVuSans-20" x="916.552734"/>
    <use xlink:href="#DejaVuSans-4c" x="948.339844"/>
    <use xlink:href="#DejaVuSans-69" x="1004.052734"/>
    <use xlink:href="#DejaVuSans-6d" x="1031.835938"/>
    <use xlink:href="#DejaVuSans-62" x="1129.248047"/>
    <use xlink:href="#DejaVuSans-75" x="1192.724609"/>
    <use xlink:href="#DejaVuSans-72" x="1256.103516"/>
    <use xlink:href="#DejaVuSans-67" x="1295.466797"/>
    <use xlink:href="#DejaVuSans-2d" x="1358.943359"/>
    <use xlink:href="#DejaVuSans-57" x="1391.027344"/>
    <use xlink:href="#DejaVuSans-65" x="1484.029297"/>
    <use xlink:href="#DejaVuSans-69" x="1545.552734"/>
    <use xlink:href="#DejaVuSans-6c" x="1573.335938"/>
    <use xlink:href="#DejaVuSans-62" x="1601.119141"/>
    <use xlink:href="#DejaVuSans-75" x="1664.595703"/>
    <use xlink:href="#DejaVuSans-72" x="1727.974609"/>
    <use xlink:href="#DejaVuSans-67" x="1767.337891"/>
   </g>
  </g>
 </g>
 <defs>
  <clipPath id="p579129a463">
   <rect x="57.6" y="41.472" width="357.12" height="235.008"/>
  </clipPath>
 </defs>
</svg>
