<?xml version="1.0" encoding="utf-8" standalone="no"?>
<!DOCTYPE svg PUBLIC "-//W3C//DTD SVG 1.1//EN"
  "http://www.w3.org/Graphics/SVG/1.1/DTD/svg11.dtd">
<svg xmlns:xlink="http://www.w3.org/1999/xlink" width="460.8pt" height="345.6pt" viewBox="0 0 460.8 345.6" xmlns="http://www.w3.org/2000/svg" version="1.1">
 <metadata>
  <rdf:RDF xmlns:dc="http://purl.org/dc/elements/1.1/" xmlns:cc="http://creativecommons.org/ns#" xmlns:rdf="http://www.w3.org/1999/02/22-rdf-syntax-ns#">
   <cc:Work>
    <dc:type rdf:resource="http://purl.org/dc/dcmitype/StillImage"/>
    <dc:date>2022-06-12T09:21:18.242558</dc:date>
    <dc:format>image/svg+xml</dc:format>
    <dc:creator>
     <cc:Agent>
      <dc:title>Matplotlib v3.5.2, https://matplotlib.org/</dc:title>
     </cc:Agent>
    </dc:creator>
   </cc:Work>
  </rdf:RDF>
 </metadata>
 <defs>
  <style type="text/css">*{stroke-linejoin: round; stroke-linecap: butt}</style>
 </defs>
 <g id="figure_1">
  <g id="patch_1">
   <path d="M 0 345.6 
L 460.8 345.6 
L 460.8 0 
L 0 0 
z
" style="fill: #ffffff"/>
  </g>
  <g id="axes_1">
   <g id="patch_2">
    <path d="M 57.6 276.48 
L 414.72 276.48 
L 414.72 41.472 
L 57.6 41.472 
z
" style="fill: #ffffff"/>
   </g>
   <g id="matplotlib.axis_1">
    <g id="xtick_1">
     <g id="line2d_1">
      <path d="M 59.10086 276.48 
L 59.10086 41.472 
" clip-path="url(#p5d0f0f52c7)" style="fill: none; stroke-dasharray: 2.96,1.28; stroke-dashoffset: 0; stroke: #808080; stroke-width: 0.8"/>
     </g>
     <g id="line2d_2">
      <defs>
       <path id="m83cfa210a0" d="M 0 0 
L 0 3.5 
" style="stroke: #000000; stroke-width: 0.8"/>
      </defs>
      <g>
       <use xlink:href="#m83cfa210a0" x="59.10086" y="276.48" style="stroke: #000000; stroke-width: 0.8"/>
      </g>
     </g>
     <g id="text_1">
      <!-- 25.01.2020 -->
      <g transform="translate(8.475649 318.688565)rotate(-30)scale(0.1 -0.1)">
       <defs>
        <path id="DejaVuSans-32" d="M 1228 531 
L 3431 531 
L 3431 0 
L 469 0 
L 469 531 
Q 828 903 1448 1529 
Q 2069 2156 2228 2338 
Q 2531 2678 2651 2914 
Q 2772 3150 2772 3378 
Q 2772 3750 2511 3984 
Q 2250 4219 1831 4219 
Q 1534 4219 1204 4116 
Q 875 4013 500 3803 
L 500 4441 
Q 881 4594 1212 4672 
Q 1544 4750 1819 4750 
Q 2544 4750 2975 4387 
Q 3406 4025 3406 3419 
Q 3406 3131 3298 2873 
Q 3191 2616 2906 2266 
Q 2828 2175 2409 1742 
Q 1991 1309 1228 531 
z
" transform="scale(0.015625)"/>
        <path id="DejaVuSans-35" d="M 691 4666 
L 3169 4666 
L 3169 4134 
L 1269 4134 
L 1269 2991 
Q 1406 3038 1543 3061 
Q 1681 3084 1819 3084 
Q 2600 3084 3056 2656 
Q 3513 2228 3513 1497 
Q 3513 744 3044 326 
Q 2575 -91 1722 -91 
Q 1428 -91 1123 -41 
Q 819 9 494 109 
L 494 744 
Q 775 591 1075 516 
Q 1375 441 1709 441 
Q 2250 441 2565 725 
Q 2881 1009 2881 1497 
Q 2881 1984 2565 2268 
Q 2250 2553 1709 2553 
Q 1456 2553 1204 2497 
Q 953 2441 691 2322 
L 691 4666 
z
" transform="scale(0.015625)"/>
        <path id="DejaVuSans-2e" d="M 684 794 
L 1344 794 
L 1344 0 
L 684 0 
L 684 794 
z
" transform="scale(0.015625)"/>
        <path id="DejaVuSans-30" d="M 2034 4250 
Q 1547 4250 1301 3770 
Q 1056 3291 1056 2328 
Q 1056 1369 1301 889 
Q 1547 409 2034 409 
Q 2525 409 2770 889 
Q 3016 1369 3016 2328 
Q 3016 3291 2770 3770 
Q 2525 4250 2034 4250 
z
M 2034 4750 
Q 2819 4750 3233 4129 
Q 3647 3509 3647 2328 
Q 3647 1150 3233 529 
Q 2819 -91 2034 -91 
Q 1250 -91 836 529 
Q 422 1150 422 2328 
Q 422 3509 836 4129 
Q 1250 4750 2034 4750 
z
" transform="scale(0.015625)"/>
        <path id="DejaVuSans-31" d="M 794 531 
L 1825 531 
L 1825 4091 
L 703 3866 
L 703 4441 
L 1819 4666 
L 2450 4666 
L 2450 531 
L 3481 531 
L 3481 0 
L 794 0 
L 794 531 
z
" transform="scale(0.015625)"/>
       </defs>
       <use xlink:href="#DejaVuSans-32"/>
       <use xlink:href="#DejaVuSans-35" x="63.623047"/>
       <use xlink:href="#DejaVuSans-2e" x="127.246094"/>
       <use xlink:href="#DejaVuSans-30" x="159.033203"/>
       <use xlink:href="#DejaVuSans-31" x="222.65625"/>
       <use xlink:href="#DejaVuSans-2e" x="286.279297"/>
       <use xlink:href="#DejaVuSans-32" x="318.066406"/>
       <use xlink:href="#DejaVuSans-30" x="381.689453"/>
       <use xlink:href="#DejaVuSans-32" x="445.3125"/>
       <use xlink:href="#DejaVuSans-30" x="508.935547"/>
      </g>
     </g>
    </g>
    <g id="xtick_2">
     <g id="line2d_3">
      <path d="M 95.043361 276.48 
L 95.043361 41.472 
" clip-path="url(#p5d0f0f52c7)" style="fill: none; stroke-dasharray: 2.96,1.28; stroke-dashoffset: 0; stroke: #808080; stroke-width: 0.8"/>
     </g>
     <g id="line2d_4">
      <g>
       <use xlink:href="#m83cfa210a0" x="95.043361" y="276.48" style="stroke: #000000; stroke-width: 0.8"/>
      </g>
     </g>
     <g id="text_2">
      <!-- 26.04.2020 -->
      <g transform="translate(44.41815 318.688565)rotate(-30)scale(0.1 -0.1)">
       <defs>
        <path id="DejaVuSans-36" d="M 2113 2584 
Q 1688 2584 1439 2293 
Q 1191 2003 1191 1497 
Q 1191 994 1439 701 
Q 1688 409 2113 409 
Q 2538 409 2786 701 
Q 3034 994 3034 1497 
Q 3034 2003 2786 2293 
Q 2538 2584 2113 2584 
z
M 3366 4563 
L 3366 3988 
Q 3128 4100 2886 4159 
Q 2644 4219 2406 4219 
Q 1781 4219 1451 3797 
Q 1122 3375 1075 2522 
Q 1259 2794 1537 2939 
Q 1816 3084 2150 3084 
Q 2853 3084 3261 2657 
Q 3669 2231 3669 1497 
Q 3669 778 3244 343 
Q 2819 -91 2113 -91 
Q 1303 -91 875 529 
Q 447 1150 447 2328 
Q 447 3434 972 4092 
Q 1497 4750 2381 4750 
Q 2619 4750 2861 4703 
Q 3103 4656 3366 4563 
z
" transform="scale(0.015625)"/>
        <path id="DejaVuSans-34" d="M 2419 4116 
L 825 1625 
L 2419 1625 
L 2419 4116 
z
M 2253 4666 
L 3047 4666 
L 3047 1625 
L 3713 1625 
L 3713 1100 
L 3047 1100 
L 3047 0 
L 2419 0 
L 2419 1100 
L 313 1100 
L 313 1709 
L 2253 4666 
z
" transform="scale(0.015625)"/>
       </defs>
       <use xlink:href="#DejaVuSans-32"/>
       <use xlink:href="#DejaVuSans-36" x="63.623047"/>
       <use xlink:href="#DejaVuSans-2e" x="127.246094"/>
       <use xlink:href="#DejaVuSans-30" x="159.033203"/>
       <use xlink:href="#DejaVuSans-34" x="222.65625"/>
       <use xlink:href="#DejaVuSans-2e" x="286.279297"/>
       <use xlink:href="#DejaVuSans-32" x="318.066406"/>
       <use xlink:href="#DejaVuSans-30" x="381.689453"/>
       <use xlink:href="#DejaVuSans-32" x="445.3125"/>
       <use xlink:href="#DejaVuSans-30" x="508.935547"/>
      </g>
     </g>
    </g>
    <g id="xtick_3">
     <g id="line2d_5">
      <path d="M 130.985862 276.48 
L 130.985862 41.472 
" clip-path="url(#p5d0f0f52c7)" style="fill: none; stroke-dasharray: 2.96,1.28; stroke-dashoffset: 0; stroke: #808080; stroke-width: 0.8"/>
     </g>
     <g id="line2d_6">
      <g>
       <use xlink:href="#m83cfa210a0" x="130.985862" y="276.48" style="stroke: #000000; stroke-width: 0.8"/>
      </g>
     </g>
     <g id="text_3">
      <!-- 27.07.2020 -->
      <g transform="translate(80.360651 318.688565)rotate(-30)scale(0.1 -0.1)">
       <defs>
        <path id="DejaVuSans-37" d="M 525 4666 
L 3525 4666 
L 3525 4397 
L 1831 0 
L 1172 0 
L 2766 4134 
L 525 4134 
L 525 4666 
z
" transform="scale(0.015625)"/>
       </defs>
       <use xlink:href="#DejaVuSans-32"/>
       <use xlink:href="#DejaVuSans-37" x="63.623047"/>
       <use xlink:href="#DejaVuSans-2e" x="127.246094"/>
       <use xlink:href="#DejaVuSans-30" x="159.033203"/>
       <use xlink:href="#DejaVuSans-37" x="222.65625"/>
       <use xlink:href="#DejaVuSans-2e" x="286.279297"/>
       <use xlink:href="#DejaVuSans-32" x="318.066406"/>
       <use xlink:href="#DejaVuSans-30" x="381.689453"/>
       <use xlink:href="#DejaVuSans-32" x="445.3125"/>
       <use xlink:href="#DejaVuSans-30" x="508.935547"/>
      </g>
     </g>
    </g>
    <g id="xtick_4">
     <g id="line2d_7">
      <path d="M 166.928362 276.48 
L 166.928362 41.472 
" clip-path="url(#p5d0f0f52c7)" style="fill: none; stroke-dasharray: 2.96,1.28; stroke-dashoffset: 0; stroke: #808080; stroke-width: 0.8"/>
     </g>
     <g id="line2d_8">
      <g>
       <use xlink:href="#m83cfa210a0" x="166.928362" y="276.48" style="stroke: #000000; stroke-width: 0.8"/>
      </g>
     </g>
     <g id="text_4">
      <!-- 27.10.2020 -->
      <g transform="translate(116.303152 318.688565)rotate(-30)scale(0.1 -0.1)">
       <use xlink:href="#DejaVuSans-32"/>
       <use xlink:href="#DejaVuSans-37" x="63.623047"/>
       <use xlink:href="#DejaVuSans-2e" x="127.246094"/>
       <use xlink:href="#DejaVuSans-31" x="159.033203"/>
       <use xlink:href="#DejaVuSans-30" x="222.65625"/>
       <use xlink:href="#DejaVuSans-2e" x="286.279297"/>
       <use xlink:href="#DejaVuSans-32" x="318.066406"/>
       <use xlink:href="#DejaVuSans-30" x="381.689453"/>
       <use xlink:href="#DejaVuSans-32" x="445.3125"/>
       <use xlink:href="#DejaVuSans-30" x="508.935547"/>
      </g>
     </g>
    </g>
    <g id="xtick_5">
     <g id="line2d_9">
      <path d="M 202.870863 276.48 
L 202.870863 41.472 
" clip-path="url(#p5d0f0f52c7)" style="fill: none; stroke-dasharray: 2.96,1.28; stroke-dashoffset: 0; stroke: #808080; stroke-width: 0.8"/>
     </g>
     <g id="line2d_10">
      <g>
       <use xlink:href="#m83cfa210a0" x="202.870863" y="276.48" style="stroke: #000000; stroke-width: 0.8"/>
      </g>
     </g>
     <g id="text_5">
      <!-- 27.01.2021 -->
      <g transform="translate(152.245652 318.688565)rotate(-30)scale(0.1 -0.1)">
       <use xlink:href="#DejaVuSans-32"/>
       <use xlink:href="#DejaVuSans-37" x="63.623047"/>
       <use xlink:href="#DejaVuSans-2e" x="127.246094"/>
       <use xlink:href="#DejaVuSans-30" x="159.033203"/>
       <use xlink:href="#DejaVuSans-31" x="222.65625"/>
       <use xlink:href="#DejaVuSans-2e" x="286.279297"/>
       <use xlink:href="#DejaVuSans-32" x="318.066406"/>
       <use xlink:href="#DejaVuSans-30" x="381.689453"/>
       <use xlink:href="#DejaVuSans-32" x="445.3125"/>
       <use xlink:href="#DejaVuSans-31" x="508.935547"/>
      </g>
     </g>
    </g>
    <g id="xtick_6">
     <g id="line2d_11">
      <path d="M 238.813364 276.48 
L 238.813364 41.472 
" clip-path="url(#p5d0f0f52c7)" style="fill: none; stroke-dasharray: 2.96,1.28; stroke-dashoffset: 0; stroke: #808080; stroke-width: 0.8"/>
     </g>
     <g id="line2d_12">
      <g>
       <use xlink:href="#m83cfa210a0" x="238.813364" y="276.48" style="stroke: #000000; stroke-width: 0.8"/>
      </g>
     </g>
     <g id="text_6">
      <!-- 29.04.2021 -->
      <g transform="translate(188.188153 318.688565)rotate(-30)scale(0.1 -0.1)">
       <defs>
        <path id="DejaVuSans-39" d="M 703 97 
L 703 672 
Q 941 559 1184 500 
Q 1428 441 1663 441 
Q 2288 441 2617 861 
Q 2947 1281 2994 2138 
Q 2813 1869 2534 1725 
Q 2256 1581 1919 1581 
Q 1219 1581 811 2004 
Q 403 2428 403 3163 
Q 403 3881 828 4315 
Q 1253 4750 1959 4750 
Q 2769 4750 3195 4129 
Q 3622 3509 3622 2328 
Q 3622 1225 3098 567 
Q 2575 -91 1691 -91 
Q 1453 -91 1209 -44 
Q 966 3 703 97 
z
M 1959 2075 
Q 2384 2075 2632 2365 
Q 2881 2656 2881 3163 
Q 2881 3666 2632 3958 
Q 2384 4250 1959 4250 
Q 1534 4250 1286 3958 
Q 1038 3666 1038 3163 
Q 1038 2656 1286 2365 
Q 1534 2075 1959 2075 
z
" transform="scale(0.015625)"/>
       </defs>
       <use xlink:href="#DejaVuSans-32"/>
       <use xlink:href="#DejaVuSans-39" x="63.623047"/>
       <use xlink:href="#DejaVuSans-2e" x="127.246094"/>
       <use xlink:href="#DejaVuSans-30" x="159.033203"/>
       <use xlink:href="#DejaVuSans-34" x="222.65625"/>
       <use xlink:href="#DejaVuSans-2e" x="286.279297"/>
       <use xlink:href="#DejaVuSans-32" x="318.066406"/>
       <use xlink:href="#DejaVuSans-30" x="381.689453"/>
       <use xlink:href="#DejaVuSans-32" x="445.3125"/>
       <use xlink:href="#DejaVuSans-31" x="508.935547"/>
      </g>
     </g>
    </g>
    <g id="xtick_7">
     <g id="line2d_13">
      <path d="M 274.755865 276.48 
L 274.755865 41.472 
" clip-path="url(#p5d0f0f52c7)" style="fill: none; stroke-dasharray: 2.96,1.28; stroke-dashoffset: 0; stroke: #808080; stroke-width: 0.8"/>
     </g>
     <g id="line2d_14">
      <g>
       <use xlink:href="#m83cfa210a0" x="274.755865" y="276.48" style="stroke: #000000; stroke-width: 0.8"/>
      </g>
     </g>
     <g id="text_7">
      <!-- 30.07.2021 -->
      <g transform="translate(224.130654 318.688565)rotate(-30)scale(0.1 -0.1)">
       <defs>
        <path id="DejaVuSans-33" d="M 2597 2516 
Q 3050 2419 3304 2112 
Q 3559 1806 3559 1356 
Q 3559 666 3084 287 
Q 2609 -91 1734 -91 
Q 1441 -91 1130 -33 
Q 819 25 488 141 
L 488 750 
Q 750 597 1062 519 
Q 1375 441 1716 441 
Q 2309 441 2620 675 
Q 2931 909 2931 1356 
Q 2931 1769 2642 2001 
Q 2353 2234 1838 2234 
L 1294 2234 
L 1294 2753 
L 1863 2753 
Q 2328 2753 2575 2939 
Q 2822 3125 2822 3475 
Q 2822 3834 2567 4026 
Q 2313 4219 1838 4219 
Q 1578 4219 1281 4162 
Q 984 4106 628 3988 
L 628 4550 
Q 988 4650 1302 4700 
Q 1616 4750 1894 4750 
Q 2613 4750 3031 4423 
Q 3450 4097 3450 3541 
Q 3450 3153 3228 2886 
Q 3006 2619 2597 2516 
z
" transform="scale(0.015625)"/>
       </defs>
       <use xlink:href="#DejaVuSans-33"/>
       <use xlink:href="#DejaVuSans-30" x="63.623047"/>
       <use xlink:href="#DejaVuSans-2e" x="127.246094"/>
       <use xlink:href="#DejaVuSans-30" x="159.033203"/>
       <use xlink:href="#DejaVuSans-37" x="222.65625"/>
       <use xlink:href="#DejaVuSans-2e" x="286.279297"/>
       <use xlink:href="#DejaVuSans-32" x="318.066406"/>
       <use xlink:href="#DejaVuSans-30" x="381.689453"/>
       <use xlink:href="#DejaVuSans-32" x="445.3125"/>
       <use xlink:href="#DejaVuSans-31" x="508.935547"/>
      </g>
     </g>
    </g>
    <g id="xtick_8">
     <g id="line2d_15">
      <path d="M 310.698366 276.48 
L 310.698366 41.472 
" clip-path="url(#p5d0f0f52c7)" style="fill: none; stroke-dasharray: 2.96,1.28; stroke-dashoffset: 0; stroke: #808080; stroke-width: 0.8"/>
     </g>
     <g id="line2d_16">
      <g>
       <use xlink:href="#m83cfa210a0" x="310.698366" y="276.48" style="stroke: #000000; stroke-width: 0.8"/>
      </g>
     </g>
     <g id="text_8">
      <!-- 30.10.2021 -->
      <g transform="translate(260.073155 318.688565)rotate(-30)scale(0.1 -0.1)">
       <use xlink:href="#DejaVuSans-33"/>
       <use xlink:href="#DejaVuSans-30" x="63.623047"/>
       <use xlink:href="#DejaVuSans-2e" x="127.246094"/>
       <use xlink:href="#DejaVuSans-31" x="159.033203"/>
       <use xlink:href="#DejaVuSans-30" x="222.65625"/>
       <use xlink:href="#DejaVuSans-2e" x="286.279297"/>
       <use xlink:href="#DejaVuSans-32" x="318.066406"/>
       <use xlink:href="#DejaVuSans-30" x="381.689453"/>
       <use xlink:href="#DejaVuSans-32" x="445.3125"/>
       <use xlink:href="#DejaVuSans-31" x="508.935547"/>
      </g>
     </g>
    </g>
    <g id="xtick_9">
     <g id="line2d_17">
      <path d="M 346.640866 276.48 
L 346.640866 41.472 
" clip-path="url(#p5d0f0f52c7)" style="fill: none; stroke-dasharray: 2.96,1.28; stroke-dashoffset: 0; stroke: #808080; stroke-width: 0.8"/>
     </g>
     <g id="line2d_18">
      <g>
       <use xlink:href="#m83cfa210a0" x="346.640866" y="276.48" style="stroke: #000000; stroke-width: 0.8"/>
      </g>
     </g>
     <g id="text_9">
      <!-- 30.01.2022 -->
      <g transform="translate(296.015656 318.688565)rotate(-30)scale(0.1 -0.1)">
       <use xlink:href="#DejaVuSans-33"/>
       <use xlink:href="#DejaVuSans-30" x="63.623047"/>
       <use xlink:href="#DejaVuSans-2e" x="127.246094"/>
       <use xlink:href="#DejaVuSans-30" x="159.033203"/>
       <use xlink:href="#DejaVuSans-31" x="222.65625"/>
       <use xlink:href="#DejaVuSans-2e" x="286.279297"/>
       <use xlink:href="#DejaVuSans-32" x="318.066406"/>
       <use xlink:href="#DejaVuSans-30" x="381.689453"/>
       <use xlink:href="#DejaVuSans-32" x="445.3125"/>
       <use xlink:href="#DejaVuSans-32" x="508.935547"/>
      </g>
     </g>
    </g>
    <g id="xtick_10">
     <g id="line2d_19">
      <path d="M 382.583367 276.48 
L 382.583367 41.472 
" clip-path="url(#p5d0f0f52c7)" style="fill: none; stroke-dasharray: 2.96,1.28; stroke-dashoffset: 0; stroke: #808080; stroke-width: 0.8"/>
     </g>
     <g id="line2d_20">
      <g>
       <use xlink:href="#m83cfa210a0" x="382.583367" y="276.48" style="stroke: #000000; stroke-width: 0.8"/>
      </g>
     </g>
     <g id="text_10">
      <!-- 02.05.2022 -->
      <g transform="translate(331.958156 318.688565)rotate(-30)scale(0.1 -0.1)">
       <use xlink:href="#DejaVuSans-30"/>
       <use xlink:href="#DejaVuSans-32" x="63.623047"/>
       <use xlink:href="#DejaVuSans-2e" x="127.246094"/>
       <use xlink:href="#DejaVuSans-30" x="159.033203"/>
       <use xlink:href="#DejaVuSans-35" x="222.65625"/>
       <use xlink:href="#DejaVuSans-2e" x="286.279297"/>
       <use xlink:href="#DejaVuSans-32" x="318.066406"/>
       <use xlink:href="#DejaVuSans-30" x="381.689453"/>
       <use xlink:href="#DejaVuSans-32" x="445.3125"/>
       <use xlink:href="#DejaVuSans-32" x="508.935547"/>
      </g>
     </g>
    </g>
   </g>
   <g id="matplotlib.axis_2">
    <g id="ytick_1">
     <g id="line2d_21">
      <path d="M 57.6 265.797818 
L 414.72 265.797818 
" clip-path="url(#p5d0f0f52c7)" style="fill: none; stroke-dasharray: 2.96,1.28; stroke-dashoffset: 0; stroke: #808080; stroke-width: 0.8"/>
     </g>
     <g id="line2d_22">
      <defs>
       <path id="m21a3ea7aa1" d="M 0 0 
L -3.5 0 
" style="stroke: #000000; stroke-width: 0.8"/>
      </defs>
      <g>
       <use xlink:href="#m21a3ea7aa1" x="57.6" y="265.797818" style="stroke: #000000; stroke-width: 0.8"/>
      </g>
     </g>
     <g id="text_11">
      <!-- 0 -->
      <g transform="translate(44.2375 269.597037)scale(0.1 -0.1)">
       <use xlink:href="#DejaVuSans-30"/>
      </g>
     </g>
    </g>
    <g id="ytick_2">
     <g id="line2d_23">
      <path d="M 57.6 234.764545 
L 414.72 234.764545 
" clip-path="url(#p5d0f0f52c7)" style="fill: none; stroke-dasharray: 2.96,1.28; stroke-dashoffset: 0; stroke: #808080; stroke-width: 0.8"/>
     </g>
     <g id="line2d_24">
      <g>
       <use xlink:href="#m21a3ea7aa1" x="57.6" y="234.764545" style="stroke: #000000; stroke-width: 0.8"/>
      </g>
     </g>
     <g id="text_12">
      <!-- 500 -->
      <g transform="translate(31.5125 238.563764)scale(0.1 -0.1)">
       <use xlink:href="#DejaVuSans-35"/>
       <use xlink:href="#DejaVuSans-30" x="63.623047"/>
       <use xlink:href="#DejaVuSans-30" x="127.246094"/>
      </g>
     </g>
    </g>
    <g id="ytick_3">
     <g id="line2d_25">
      <path d="M 57.6 203.731272 
L 414.72 203.731272 
" clip-path="url(#p5d0f0f52c7)" style="fill: none; stroke-dasharray: 2.96,1.28; stroke-dashoffset: 0; stroke: #808080; stroke-width: 0.8"/>
     </g>
     <g id="line2d_26">
      <g>
       <use xlink:href="#m21a3ea7aa1" x="57.6" y="203.731272" style="stroke: #000000; stroke-width: 0.8"/>
      </g>
     </g>
     <g id="text_13">
      <!-- 1000 -->
      <g transform="translate(25.15 207.530491)scale(0.1 -0.1)">
       <use xlink:href="#DejaVuSans-31"/>
       <use xlink:href="#DejaVuSans-30" x="63.623047"/>
       <use xlink:href="#DejaVuSans-30" x="127.246094"/>
       <use xlink:href="#DejaVuSans-30" x="190.869141"/>
      </g>
     </g>
    </g>
    <g id="ytick_4">
     <g id="line2d_27">
      <path d="M 57.6 172.697999 
L 414.72 172.697999 
" clip-path="url(#p5d0f0f52c7)" style="fill: none; stroke-dasharray: 2.96,1.28; stroke-dashoffset: 0; stroke: #808080; stroke-width: 0.8"/>
     </g>
     <g id="line2d_28">
      <g>
       <use xlink:href="#m21a3ea7aa1" x="57.6" y="172.697999" style="stroke: #000000; stroke-width: 0.8"/>
      </g>
     </g>
     <g id="text_14">
      <!-- 1500 -->
      <g transform="translate(25.15 176.497218)scale(0.1 -0.1)">
       <use xlink:href="#DejaVuSans-31"/>
       <use xlink:href="#DejaVuSans-35" x="63.623047"/>
       <use xlink:href="#DejaVuSans-30" x="127.246094"/>
       <use xlink:href="#DejaVuSans-30" x="190.869141"/>
      </g>
     </g>
    </g>
    <g id="ytick_5">
     <g id="line2d_29">
      <path d="M 57.6 141.664726 
L 414.72 141.664726 
" clip-path="url(#p5d0f0f52c7)" style="fill: none; stroke-dasharray: 2.96,1.28; stroke-dashoffset: 0; stroke: #808080; stroke-width: 0.8"/>
     </g>
     <g id="line2d_30">
      <g>
       <use xlink:href="#m21a3ea7aa1" x="57.6" y="141.664726" style="stroke: #000000; stroke-width: 0.8"/>
      </g>
     </g>
     <g id="text_15">
      <!-- 2000 -->
      <g transform="translate(25.15 145.463945)scale(0.1 -0.1)">
       <use xlink:href="#DejaVuSans-32"/>
       <use xlink:href="#DejaVuSans-30" x="63.623047"/>
       <use xlink:href="#DejaVuSans-30" x="127.246094"/>
       <use xlink:href="#DejaVuSans-30" x="190.869141"/>
      </g>
     </g>
    </g>
    <g id="ytick_6">
     <g id="line2d_31">
      <path d="M 57.6 110.631453 
L 414.72 110.631453 
" clip-path="url(#p5d0f0f52c7)" style="fill: none; stroke-dasharray: 2.96,1.28; stroke-dashoffset: 0; stroke: #808080; stroke-width: 0.8"/>
     </g>
     <g id="line2d_32">
      <g>
       <use xlink:href="#m21a3ea7aa1" x="57.6" y="110.631453" style="stroke: #000000; stroke-width: 0.8"/>
      </g>
     </g>
     <g id="text_16">
      <!-- 2500 -->
      <g transform="translate(25.15 114.430672)scale(0.1 -0.1)">
       <use xlink:href="#DejaVuSans-32"/>
       <use xlink:href="#DejaVuSans-35" x="63.623047"/>
       <use xlink:href="#DejaVuSans-30" x="127.246094"/>
       <use xlink:href="#DejaVuSans-30" x="190.869141"/>
      </g>
     </g>
    </g>
    <g id="ytick_7">
     <g id="line2d_33">
      <path d="M 57.6 79.59818 
L 414.72 79.59818 
" clip-path="url(#p5d0f0f52c7)" style="fill: none; stroke-dasharray: 2.96,1.28; stroke-dashoffset: 0; stroke: #808080; stroke-width: 0.8"/>
     </g>
     <g id="line2d_34">
      <g>
       <use xlink:href="#m21a3ea7aa1" x="57.6" y="79.59818" style="stroke: #000000; stroke-width: 0.8"/>
      </g>
     </g>
     <g id="text_17">
      <!-- 3000 -->
      <g transform="translate(25.15 83.397399)scale(0.1 -0.1)">
       <use xlink:href="#DejaVuSans-33"/>
       <use xlink:href="#DejaVuSans-30" x="63.623047"/>
       <use xlink:href="#DejaVuSans-30" x="127.246094"/>
       <use xlink:href="#DejaVuSans-30" x="190.869141"/>
      </g>
     </g>
    </g>
    <g id="ytick_8">
     <g id="line2d_35">
      <path d="M 57.6 48.564907 
L 414.72 48.564907 
" clip-path="url(#p5d0f0f52c7)" style="fill: none; stroke-dasharray: 2.96,1.28; stroke-dashoffset: 0; stroke: #808080; stroke-width: 0.8"/>
     </g>
     <g id="line2d_36">
      <g>
       <use xlink:href="#m21a3ea7aa1" x="57.6" y="48.564907" style="stroke: #000000; stroke-width: 0.8"/>
      </g>
     </g>
     <g id="text_18">
      <!-- 3500 -->
      <g transform="translate(25.15 52.364126)scale(0.1 -0.1)">
       <use xlink:href="#DejaVuSans-33"/>
       <use xlink:href="#DejaVuSans-35" x="63.623047"/>
       <use xlink:href="#DejaVuSans-30" x="127.246094"/>
       <use xlink:href="#DejaVuSans-30" x="190.869141"/>
      </g>
     </g>
    </g>
    <g id="text_19">
     <!-- Inzidenz pro 7 Tage pro 100.000 Einwohner -->
     <g transform="translate(19.070312 267.301)rotate(-90)scale(0.1 -0.1)">
      <defs>
       <path id="DejaVuSans-49" d="M 628 4666 
L 1259 4666 
L 1259 0 
L 628 0 
L 628 4666 
z
" transform="scale(0.015625)"/>
       <path id="DejaVuSans-6e" d="M 3513 2113 
L 3513 0 
L 2938 0 
L 2938 2094 
Q 2938 2591 2744 2837 
Q 2550 3084 2163 3084 
Q 1697 3084 1428 2787 
Q 1159 2491 1159 1978 
L 1159 0 
L 581 0 
L 581 3500 
L 1159 3500 
L 1159 2956 
Q 1366 3272 1645 3428 
Q 1925 3584 2291 3584 
Q 2894 3584 3203 3211 
Q 3513 2838 3513 2113 
z
" transform="scale(0.015625)"/>
       <path id="DejaVuSans-7a" d="M 353 3500 
L 3084 3500 
L 3084 2975 
L 922 459 
L 3084 459 
L 3084 0 
L 275 0 
L 275 525 
L 2438 3041 
L 353 3041 
L 353 3500 
z
" transform="scale(0.015625)"/>
       <path id="DejaVuSans-69" d="M 603 3500 
L 1178 3500 
L 1178 0 
L 603 0 
L 603 3500 
z
M 603 4863 
L 1178 4863 
L 1178 4134 
L 603 4134 
L 603 4863 
z
" transform="scale(0.015625)"/>
       <path id="DejaVuSans-64" d="M 2906 2969 
L 2906 4863 
L 3481 4863 
L 3481 0 
L 2906 0 
L 2906 525 
Q 2725 213 2448 61 
Q 2172 -91 1784 -91 
Q 1150 -91 751 415 
Q 353 922 353 1747 
Q 353 2572 751 3078 
Q 1150 3584 1784 3584 
Q 2172 3584 2448 3432 
Q 2725 3281 2906 2969 
z
M 947 1747 
Q 947 1113 1208 752 
Q 1469 391 1925 391 
Q 2381 391 2643 752 
Q 2906 1113 2906 1747 
Q 2906 2381 2643 2742 
Q 2381 3103 1925 3103 
Q 1469 3103 1208 2742 
Q 947 2381 947 1747 
z
" transform="scale(0.015625)"/>
       <path id="DejaVuSans-65" d="M 3597 1894 
L 3597 1613 
L 953 1613 
Q 991 1019 1311 708 
Q 1631 397 2203 397 
Q 2534 397 2845 478 
Q 3156 559 3463 722 
L 3463 178 
Q 3153 47 2828 -22 
Q 2503 -91 2169 -91 
Q 1331 -91 842 396 
Q 353 884 353 1716 
Q 353 2575 817 3079 
Q 1281 3584 2069 3584 
Q 2775 3584 3186 3129 
Q 3597 2675 3597 1894 
z
M 3022 2063 
Q 3016 2534 2758 2815 
Q 2500 3097 2075 3097 
Q 1594 3097 1305 2825 
Q 1016 2553 972 2059 
L 3022 2063 
z
" transform="scale(0.015625)"/>
       <path id="DejaVuSans-20" transform="scale(0.015625)"/>
       <path id="DejaVuSans-70" d="M 1159 525 
L 1159 -1331 
L 581 -1331 
L 581 3500 
L 1159 3500 
L 1159 2969 
Q 1341 3281 1617 3432 
Q 1894 3584 2278 3584 
Q 2916 3584 3314 3078 
Q 3713 2572 3713 1747 
Q 3713 922 3314 415 
Q 2916 -91 2278 -91 
Q 1894 -91 1617 61 
Q 1341 213 1159 525 
z
M 3116 1747 
Q 3116 2381 2855 2742 
Q 2594 3103 2138 3103 
Q 1681 3103 1420 2742 
Q 1159 2381 1159 1747 
Q 1159 1113 1420 752 
Q 1681 391 2138 391 
Q 2594 391 2855 752 
Q 3116 1113 3116 1747 
z
" transform="scale(0.015625)"/>
       <path id="DejaVuSans-72" d="M 2631 2963 
Q 2534 3019 2420 3045 
Q 2306 3072 2169 3072 
Q 1681 3072 1420 2755 
Q 1159 2438 1159 1844 
L 1159 0 
L 581 0 
L 581 3500 
L 1159 3500 
L 1159 2956 
Q 1341 3275 1631 3429 
Q 1922 3584 2338 3584 
Q 2397 3584 2469 3576 
Q 2541 3569 2628 3553 
L 2631 2963 
z
" transform="scale(0.015625)"/>
       <path id="DejaVuSans-6f" d="M 1959 3097 
Q 1497 3097 1228 2736 
Q 959 2375 959 1747 
Q 959 1119 1226 758 
Q 1494 397 1959 397 
Q 2419 397 2687 759 
Q 2956 1122 2956 1747 
Q 2956 2369 2687 2733 
Q 2419 3097 1959 3097 
z
M 1959 3584 
Q 2709 3584 3137 3096 
Q 3566 2609 3566 1747 
Q 3566 888 3137 398 
Q 2709 -91 1959 -91 
Q 1206 -91 779 398 
Q 353 888 353 1747 
Q 353 2609 779 3096 
Q 1206 3584 1959 3584 
z
" transform="scale(0.015625)"/>
       <path id="DejaVuSans-54" d="M -19 4666 
L 3928 4666 
L 3928 4134 
L 2272 4134 
L 2272 0 
L 1638 0 
L 1638 4134 
L -19 4134 
L -19 4666 
z
" transform="scale(0.015625)"/>
       <path id="DejaVuSans-61" d="M 2194 1759 
Q 1497 1759 1228 1600 
Q 959 1441 959 1056 
Q 959 750 1161 570 
Q 1363 391 1709 391 
Q 2188 391 2477 730 
Q 2766 1069 2766 1631 
L 2766 1759 
L 2194 1759 
z
M 3341 1997 
L 3341 0 
L 2766 0 
L 2766 531 
Q 2569 213 2275 61 
Q 1981 -91 1556 -91 
Q 1019 -91 701 211 
Q 384 513 384 1019 
Q 384 1609 779 1909 
Q 1175 2209 1959 2209 
L 2766 2209 
L 2766 2266 
Q 2766 2663 2505 2880 
Q 2244 3097 1772 3097 
Q 1472 3097 1187 3025 
Q 903 2953 641 2809 
L 641 3341 
Q 956 3463 1253 3523 
Q 1550 3584 1831 3584 
Q 2591 3584 2966 3190 
Q 3341 2797 3341 1997 
z
" transform="scale(0.015625)"/>
       <path id="DejaVuSans-67" d="M 2906 1791 
Q 2906 2416 2648 2759 
Q 2391 3103 1925 3103 
Q 1463 3103 1205 2759 
Q 947 2416 947 1791 
Q 947 1169 1205 825 
Q 1463 481 1925 481 
Q 2391 481 2648 825 
Q 2906 1169 2906 1791 
z
M 3481 434 
Q 3481 -459 3084 -895 
Q 2688 -1331 1869 -1331 
Q 1566 -1331 1297 -1286 
Q 1028 -1241 775 -1147 
L 775 -588 
Q 1028 -725 1275 -790 
Q 1522 -856 1778 -856 
Q 2344 -856 2625 -561 
Q 2906 -266 2906 331 
L 2906 616 
Q 2728 306 2450 153 
Q 2172 0 1784 0 
Q 1141 0 747 490 
Q 353 981 353 1791 
Q 353 2603 747 3093 
Q 1141 3584 1784 3584 
Q 2172 3584 2450 3431 
Q 2728 3278 2906 2969 
L 2906 3500 
L 3481 3500 
L 3481 434 
z
" transform="scale(0.015625)"/>
       <path id="DejaVuSans-45" d="M 628 4666 
L 3578 4666 
L 3578 4134 
L 1259 4134 
L 1259 2753 
L 3481 2753 
L 3481 2222 
L 1259 2222 
L 1259 531 
L 3634 531 
L 3634 0 
L 628 0 
L 628 4666 
z
" transform="scale(0.015625)"/>
       <path id="DejaVuSans-77" d="M 269 3500 
L 844 3500 
L 1563 769 
L 2278 3500 
L 2956 3500 
L 3675 769 
L 4391 3500 
L 4966 3500 
L 4050 0 
L 3372 0 
L 2619 2869 
L 1863 0 
L 1184 0 
L 269 3500 
z
" transform="scale(0.015625)"/>
       <path id="DejaVuSans-68" d="M 3513 2113 
L 3513 0 
L 2938 0 
L 2938 2094 
Q 2938 2591 2744 2837 
Q 2550 3084 2163 3084 
Q 1697 3084 1428 2787 
Q 1159 2491 1159 1978 
L 1159 0 
L 581 0 
L 581 4863 
L 1159 4863 
L 1159 2956 
Q 1366 3272 1645 3428 
Q 1925 3584 2291 3584 
Q 2894 3584 3203 3211 
Q 3513 2838 3513 2113 
z
" transform="scale(0.015625)"/>
      </defs>
      <use xlink:href="#DejaVuSans-49"/>
      <use xlink:href="#DejaVuSans-6e" x="29.492188"/>
      <use xlink:href="#DejaVuSans-7a" x="92.871094"/>
      <use xlink:href="#DejaVuSans-69" x="145.361328"/>
      <use xlink:href="#DejaVuSans-64" x="173.144531"/>
      <use xlink:href="#DejaVuSans-65" x="236.621094"/>
      <use xlink:href="#DejaVuSans-6e" x="298.144531"/>
      <use xlink:href="#DejaVuSans-7a" x="361.523438"/>
      <use xlink:href="#DejaVuSans-20" x="414.013672"/>
      <use xlink:href="#DejaVuSans-70" x="445.800781"/>
      <use xlink:href="#DejaVuSans-72" x="509.277344"/>
      <use xlink:href="#DejaVuSans-6f" x="548.140625"/>
      <use xlink:href="#DejaVuSans-20" x="609.322266"/>
      <use xlink:href="#DejaVuSans-37" x="641.109375"/>
      <use xlink:href="#DejaVuSans-20" x="704.732422"/>
      <use xlink:href="#DejaVuSans-54" x="736.519531"/>
      <use xlink:href="#DejaVuSans-61" x="781.103516"/>
      <use xlink:href="#DejaVuSans-67" x="842.382812"/>
      <use xlink:href="#DejaVuSans-65" x="905.859375"/>
      <use xlink:href="#DejaVuSans-20" x="967.382812"/>
      <use xlink:href="#DejaVuSans-70" x="999.169922"/>
      <use xlink:href="#DejaVuSans-72" x="1062.646484"/>
      <use xlink:href="#DejaVuSans-6f" x="1101.509766"/>
      <use xlink:href="#DejaVuSans-20" x="1162.691406"/>
      <use xlink:href="#DejaVuSans-31" x="1194.478516"/>
      <use xlink:href="#DejaVuSans-30" x="1258.101562"/>
      <use xlink:href="#DejaVuSans-30" x="1321.724609"/>
      <use xlink:href="#DejaVuSans-2e" x="1385.347656"/>
      <use xlink:href="#DejaVuSans-30" x="1417.134766"/>
      <use xlink:href="#DejaVuSans-30" x="1480.757812"/>
      <use xlink:href="#DejaVuSans-30" x="1544.380859"/>
      <use xlink:href="#DejaVuSans-20" x="1608.003906"/>
      <use xlink:href="#DejaVuSans-45" x="1639.791016"/>
      <use xlink:href="#DejaVuSans-69" x="1702.974609"/>
      <use xlink:href="#DejaVuSans-6e" x="1730.757812"/>
      <use xlink:href="#DejaVuSans-77" x="1794.136719"/>
      <use xlink:href="#DejaVuSans-6f" x="1875.923828"/>
      <use xlink:href="#DejaVuSans-68" x="1937.105469"/>
      <use xlink:href="#DejaVuSans-6e" x="2000.484375"/>
      <use xlink:href="#DejaVuSans-65" x="2063.863281"/>
      <use xlink:href="#DejaVuSans-72" x="2125.386719"/>
     </g>
    </g>
   </g>
   <g id="line2d_37">
    <path d="M 73.832727 265.694634 
L 78.911559 265.643041 
L 79.692918 265.333488 
L 80.864956 264.765973 
L 81.255635 263.785719 
L 81.646314 263.630942 
L 82.427673 263.57935 
L 82.818352 263.011835 
L 83.209032 261.206105 
L 83.990391 261.722028 
L 84.38107 261.412474 
L 84.771749 261.30929 
L 85.162429 260.690182 
L 85.553108 261.102921 
L 85.943787 262.237951 
L 86.334467 260.896551 
L 87.115825 261.257697 
L 87.506505 260.690182 
L 87.897184 260.63859 
L 88.287863 260.277444 
L 88.678543 260.586998 
L 89.069222 261.979989 
L 89.850581 262.547504 
L 90.24126 263.11502 
L 90.63194 264.043681 
L 91.022619 264.301642 
L 91.413298 264.765973 
L 91.803978 264.71438 
L 92.194657 264.920749 
L 93.366695 264.920749 
L 93.757374 264.559603 
L 95.710771 264.869157 
L 96.101451 264.611196 
L 96.49213 265.436672 
L 97.273489 265.38508 
L 98.054847 265.436672 
L 98.445527 265.38508 
L 98.836206 265.488264 
L 99.226885 265.281895 
L 99.617565 265.281895 
L 100.008244 264.972342 
L 100.398924 264.972342 
L 100.789603 264.817565 
L 101.570962 264.972342 
L 101.961641 265.127119 
L 102.35232 265.075526 
L 102.743 265.281895 
L 103.133679 265.281895 
L 103.524358 265.436672 
L 104.305717 265.281895 
L 106.259114 265.38508 
L 108.212511 265.797818 
L 116.026098 265.694634 
L 117.198136 265.643041 
L 123.449006 265.746226 
L 124.230364 265.797818 
L 125.402402 265.746226 
L 131.262593 265.643041 
L 132.043951 265.643041 
L 132.82531 265.643041 
L 135.169386 265.746226 
L 136.341424 265.797818 
L 137.122783 265.694634 
L 138.6855 265.591449 
L 139.07618 265.591449 
L 139.466859 265.333488 
L 140.248218 265.127119 
L 141.029577 264.765973 
L 141.810935 264.765973 
L 142.201615 265.023934 
L 142.982973 265.075526 
L 143.373653 264.972342 
L 144.155011 265.075526 
L 145.32705 264.972342 
L 145.717729 264.71438 
L 147.280446 264.662788 
L 147.671126 264.353234 
L 148.061805 264.25005 
L 148.452484 264.611196 
L 150.015202 264.71438 
L 150.405881 265.023934 
L 151.18724 265.127119 
L 151.577919 265.38508 
L 151.968599 265.230303 
L 154.312675 265.230303 
L 154.703354 265.38508 
L 159.000827 265.38508 
L 160.172865 264.765973 
L 160.954224 264.765973 
L 161.344903 264.198457 
L 162.516941 263.734127 
L 162.907621 262.857058 
L 163.688979 262.857058 
L 164.079659 262.237951 
L 164.470338 262.289543 
L 165.251697 261.257697 
L 165.642376 261.618843 
L 166.423735 261.618843 
L 167.205094 260.483813 
L 167.595773 260.535406 
L 167.986452 260.329036 
L 168.377132 257.69783 
L 168.767811 256.717577 
L 169.15849 256.717577 
L 169.54917 257.749422 
L 170.330528 254.344332 
L 170.721208 254.137963 
L 171.111887 255.42777 
L 171.502566 255.272993 
L 171.893246 255.272993 
L 172.283925 253.518855 
L 172.674605 255.221401 
L 173.065284 256.150062 
L 173.455963 255.788916 
L 173.846643 256.459615 
L 174.237322 256.511208 
L 174.628001 255.015031 
L 175.018681 256.975538 
L 175.40936 256.511208 
L 175.800039 257.646238 
L 176.581398 257.594645 
L 176.972077 258.678083 
L 177.362757 260.17426 
L 177.753436 257.69783 
L 178.144116 257.955791 
L 178.534795 255.8921 
L 178.925474 255.42777 
L 179.316154 255.376177 
L 179.706833 254.602293 
L 180.097512 254.602293 
L 180.488192 255.530954 
L 180.878871 255.066624 
L 181.26955 255.634139 
L 181.66023 255.42777 
L 182.050909 255.479362 
L 182.441588 255.015031 
L 183.222947 255.118216 
L 183.613627 255.376177 
L 184.004306 255.272993 
L 184.394985 254.292739 
L 184.785665 253.725224 
L 185.176344 254.189555 
L 185.567023 253.209302 
L 185.957703 253.931594 
L 186.348382 254.395924 
L 186.739061 254.344332 
L 187.129741 255.943692 
L 187.52042 256.408023 
L 188.301779 258.162161 
L 188.692458 256.5628 
L 189.083138 256.304838 
L 189.864496 257.543053 
L 190.255176 258.523307 
L 191.036534 258.523307 
L 191.427214 260.63859 
L 191.817893 260.225852 
L 192.208572 261.154513 
L 192.599252 261.722028 
L 192.989931 261.928397 
L 193.38061 261.928397 
L 193.77129 259.709929 
L 194.552649 260.844959 
L 194.943328 261.30929 
L 196.115366 259.96789 
L 196.506045 261.77362 
L 196.896725 260.948144 
L 197.287404 260.586998 
L 197.678083 260.432221 
L 198.068763 260.948144 
L 198.459442 260.63859 
L 198.850121 260.535406 
L 200.02216 261.722028 
L 200.412839 261.825213 
L 200.803518 261.206105 
L 201.194198 262.134766 
L 201.584877 262.083174 
L 201.975556 261.876805 
L 202.366236 262.031582 
L 202.756915 261.928397 
L 203.538274 261.206105 
L 203.928953 260.122667 
L 204.319632 260.17426 
L 204.710312 259.96789 
L 205.100991 260.277444 
L 205.49167 260.17426 
L 205.88235 260.432221 
L 206.663709 262.341135 
L 207.054388 262.392728 
L 207.445067 262.805466 
L 207.835747 262.392728 
L 208.226426 263.269796 
L 208.617105 262.857058 
L 209.007785 263.166612 
L 209.398464 263.269796 
L 209.789143 263.682535 
L 210.179823 263.476166 
L 210.570502 263.527758 
L 210.961181 263.011835 
L 211.351861 263.218204 
L 212.13322 262.90865 
L 213.305258 263.269796 
L 213.695937 263.630942 
L 214.086616 263.837311 
L 214.867975 263.630942 
L 215.258654 263.424573 
L 215.649334 263.011835 
L 216.040013 263.269796 
L 216.430692 263.11502 
L 216.821372 262.599097 
L 217.602731 262.392728 
L 217.99341 262.650689 
L 218.384089 262.392728 
L 218.774769 262.392728 
L 219.556127 263.166612 
L 219.946807 263.166612 
L 220.337486 263.630942 
L 220.728165 263.11502 
L 221.118845 263.734127 
L 221.509524 263.476166 
L 222.290883 263.682535 
L 223.072242 263.218204 
L 223.462921 263.527758 
L 223.8536 263.011835 
L 224.24428 263.218204 
L 224.634959 263.011835 
L 225.025638 262.44432 
L 225.416318 262.083174 
L 226.197676 260.844959 
L 226.588356 260.793367 
L 226.979035 260.586998 
L 227.369714 259.916298 
L 227.760394 258.83286 
L 228.151073 258.781268 
L 228.541753 258.936045 
L 228.932432 259.50356 
L 229.323111 259.194006 
L 229.713791 259.50356 
L 230.10447 260.019483 
L 230.495149 261.051328 
L 230.885829 259.709929 
L 231.276508 260.225852 
L 231.667187 259.96789 
L 232.057867 258.574899 
L 232.448546 258.007384 
L 232.839225 256.098469 
L 233.229905 256.046877 
L 233.620584 257.130315 
L 234.011264 256.614392 
L 234.401943 255.8921 
L 234.792622 256.975538 
L 235.183302 257.336684 
L 235.573981 258.471714 
L 235.96466 258.36853 
L 236.35534 258.936045 
L 236.746019 258.781268 
L 237.527378 260.793367 
L 237.918057 260.432221 
L 238.308736 260.896551 
L 238.699416 261.102921 
L 239.480775 261.876805 
L 239.871454 261.722028 
L 240.262133 261.825213 
L 240.652813 261.515659 
L 241.434171 261.567251 
L 241.824851 261.206105 
L 242.21553 261.412474 
L 242.606209 261.412474 
L 242.996889 261.206105 
L 243.387568 262.083174 
L 243.778247 262.599097 
L 244.168927 262.805466 
L 244.559606 263.424573 
L 244.950286 263.166612 
L 245.340965 263.57935 
L 245.731644 263.063427 
L 246.122324 262.857058 
L 246.513003 262.90865 
L 247.294362 263.321389 
L 248.07572 263.166612 
L 248.857079 263.785719 
L 250.029117 263.992088 
L 250.419797 264.508011 
L 250.810476 264.456419 
L 251.201155 264.611196 
L 251.591835 264.611196 
L 251.982514 264.404827 
L 253.154552 264.920749 
L 253.935911 265.178711 
L 254.32659 265.178711 
L 254.717269 265.38508 
L 255.498628 265.230303 
L 257.061346 265.333488 
L 257.452025 265.281895 
L 258.233384 265.38508 
L 259.796101 265.38508 
L 260.57746 265.591449 
L 262.530857 265.746226 
L 265.656291 265.694634 
L 266.43765 265.333488 
L 268.000368 265.281895 
L 268.391047 265.178711 
L 269.172406 265.488264 
L 269.563085 265.127119 
L 269.953764 265.281895 
L 271.907161 264.920749 
L 272.29784 265.127119 
L 272.68852 264.71438 
L 273.469879 264.817565 
L 273.860558 264.508011 
L 274.251237 264.662788 
L 275.032596 264.765973 
L 275.423275 265.023934 
L 276.204634 265.023934 
L 276.595313 265.38508 
L 279.720748 265.023934 
L 280.111428 265.075526 
L 280.892786 264.817565 
L 281.674145 264.920749 
L 282.064824 264.611196 
L 282.846183 264.508011 
L 283.236862 264.301642 
L 283.627542 264.559603 
L 284.018221 264.095273 
L 284.408901 264.043681 
L 284.79958 263.372981 
L 285.190259 262.960243 
L 285.580939 262.289543 
L 285.971618 261.928397 
L 286.362297 259.864706 
L 286.752977 260.277444 
L 287.143656 260.277444 
L 287.534335 260.690182 
L 287.925015 260.17426 
L 288.315694 259.864706 
L 288.706373 260.277444 
L 289.097053 261.825213 
L 289.487732 261.206105 
L 289.878412 261.051328 
L 290.269091 260.690182 
L 290.65977 261.102921 
L 291.05045 261.825213 
L 291.441129 261.979989 
L 291.831808 261.77362 
L 292.222488 262.083174 
L 292.613167 262.186358 
L 293.003846 261.825213 
L 293.785205 261.515659 
L 294.175884 261.30929 
L 294.566564 261.670436 
L 295.347923 261.670436 
L 295.738602 262.90865 
L 296.519961 263.11502 
L 296.91064 263.218204 
L 297.301319 263.527758 
L 297.691999 262.753874 
L 298.082678 262.392728 
L 298.473357 261.618843 
L 298.864037 259.348783 
L 299.254716 258.884453 
L 299.645395 257.285092 
L 300.036075 256.872354 
L 300.426754 257.852607 
L 300.817434 257.388276 
L 301.208113 257.285092 
L 301.989472 258.471714 
L 302.380151 259.50356 
L 303.16151 259.297191 
L 303.552189 259.96789 
L 303.942868 259.50356 
L 304.333548 261.051328 
L 304.724227 260.741775 
L 305.114906 260.844959 
L 305.505586 261.206105 
L 305.896265 260.793367 
L 306.286945 260.844959 
L 306.677624 260.63859 
L 307.068303 259.090822 
L 307.458983 258.213753 
L 307.849662 256.975538 
L 308.240341 256.408023 
L 308.631021 256.356431 
L 309.0217 255.015031 
L 309.412379 255.221401 
L 309.803059 253.467263 
L 310.193738 252.899748 
L 310.584417 253.570448 
L 310.975097 253.983186 
L 311.365776 251.609941 
L 312.147135 254.137963 
L 312.537814 256.356431 
L 312.928494 256.201654 
L 313.709852 250.371726 
L 314.100532 252.95134 
L 314.88189 249.752619 
L 315.27257 244.025876 
L 315.663249 241.704223 
L 316.053928 242.787661 
L 316.444608 241.962184 
L 316.835287 240.001678 
L 317.225967 239.692124 
L 317.616646 235.358372 
L 318.007325 235.513149 
L 318.398005 236.132257 
L 318.788684 231.901689 
L 319.179363 230.921436 
L 319.570043 231.076213 
L 319.960722 229.683221 
L 320.351401 230.973028 
L 320.742081 229.941183 
L 321.13276 226.690869 
L 321.523439 229.373668 
L 321.914119 229.734814 
L 322.304798 227.671122 
L 322.695478 229.528445 
L 323.086157 228.909337 
L 323.476836 232.159651 
L 323.867516 230.611882 
L 324.258195 231.437359 
L 324.648874 234.790857 
L 325.039554 235.616334 
L 325.430233 231.798505 
L 325.820912 233.191496 
L 326.211592 229.88959 
L 326.602271 234.532896 
L 326.99295 234.223342 
L 327.38363 232.469205 
L 327.774309 233.965381 
L 328.164989 237.473656 
L 328.555668 237.628433 
L 328.946347 243.561545 
L 329.337027 244.79976 
L 329.727706 247.637335 
L 330.509065 250.474911 
L 330.899744 251.713125 
L 331.290423 253.673632 
L 331.681103 253.518855 
L 332.071782 255.42777 
L 332.462461 255.324585 
L 333.24382 256.717577 
L 333.6345 256.717577 
L 334.025179 255.582547 
L 334.415858 255.324585 
L 334.806538 253.157709 
L 335.197217 253.054525 
L 335.978576 251.455164 
L 336.369255 249.804211 
L 336.759934 250.578095 
L 337.150614 249.185104 
L 337.541293 249.958988 
L 337.931972 244.12906 
L 338.322652 244.593391 
L 338.713331 237.267287 
L 339.104011 238.91824 
L 339.49469 236.080664 
L 340.276049 223.801701 
L 340.666728 225.710616 
L 341.057407 221.789602 
L 341.448087 223.388963 
L 341.838766 220.241834 
L 343.401483 196.818938 
L 343.792163 200.894728 
L 344.182842 200.946321 
L 344.573521 186.44889 
L 345.35488 173.654004 
L 345.74556 173.292858 
L 346.136239 171.383944 
L 346.526918 162.406887 
L 346.917598 162.819625 
L 347.308277 160.859118 
L 347.698956 163.799878 
L 348.089636 159.001796 
L 348.480315 158.847019 
L 348.870994 145.226657 
L 349.261674 148.992894 
L 349.652353 148.01264 
L 350.433712 134.44387 
L 350.824391 138.158515 
L 351.215071 128.768719 
L 351.60575 138.003738 
L 351.996429 140.119021 
L 352.387109 144.452773 
L 353.168467 146.826018 
L 353.559147 150.540662 
L 353.949826 144.040035 
L 354.340505 141.66679 
L 354.731185 140.892905 
L 355.121864 136.507562 
L 355.903223 144.917103 
L 356.293902 137.333038 
L 356.684582 156.83492 
L 357.075261 160.652749 
L 357.46594 161.11708 
L 357.85662 159.982049 
L 358.247299 164.831724 
L 358.637978 160.704341 
L 359.028658 168.236814 
L 359.419337 155.132375 
L 359.810016 158.589058 
L 360.200696 158.485873 
L 360.591375 164.161024 
L 360.982054 153.326645 
L 361.372734 160.601157 
L 361.763413 150.385885 
L 362.154093 154.668045 
L 362.544772 142.80182 
L 362.935451 144.865511 
L 363.326131 142.182712 
L 363.71681 141.512013 
L 364.107489 127.840058 
L 364.498169 144.762327 
L 365.279527 159.156573 
L 365.670207 156.680143 
L 366.060886 159.672496 
L 366.451565 119.482109 
L 366.842245 116.747718 
L 367.232924 97.245836 
L 367.623604 85.224834 
L 368.014283 77.589176 
L 368.404962 62.317861 
L 368.795642 52.154182 
L 369.186321 113.703773 
L 369.96768 140.634944 
L 370.358359 138.210107 
L 370.749038 150.334293 
L 371.139718 166.121531 
L 371.530397 170.713244 
L 371.921076 167.101784 
L 372.311756 166.792231 
L 372.702435 173.860373 
L 373.093115 190.163534 
L 373.483794 188.925319 
L 373.874473 191.401749 
L 374.265153 191.143787 
L 374.655832 195.322762 
L 375.046511 190.008757 
L 375.437191 194.548878 
L 375.82787 197.644415 
L 376.218549 203.216381 
L 376.609229 200.378806 
L 376.999908 208.478794 
L 377.390587 206.053957 
L 377.781267 217.559035 
L 378.171946 217.249482 
L 378.562626 212.864138 
L 378.953305 214.102352 
L 379.343984 212.606176 
L 379.734664 212.606176 
L 380.125343 213.328468 
L 380.516022 206.260326 
L 380.906702 207.49854 
L 381.297381 216.372413 
L 381.68806 214.566683 
L 382.07874 217.197889 
L 382.469419 217.197889 
L 382.860098 220.345018 
L 383.250778 227.1552 
L 383.641457 226.690869 
L 384.032137 225.401062 
L 384.422816 228.445007 
L 385.594854 228.135453 
L 385.985533 227.516346 
L 386.376213 228.75456 
L 386.766892 227.877492 
L 387.157571 228.651376 
L 387.548251 227.929084 
L 387.93893 227.929084 
L 388.329609 230.715067 
L 388.720289 231.643728 
L 389.110968 232.881943 
L 389.501648 238.350725 
L 389.892327 238.711871 
L 390.283006 240.05327 
L 390.673686 240.05327 
L 391.064365 240.672377 
L 391.455044 242.478107 
L 392.236403 249.443065 
L 392.627082 250.268542 
L 393.017762 253.570448 
L 393.408441 253.570448 
L 393.79912 250.01058 
L 394.1898 250.165357 
L 394.580479 248.927142 
L 394.971159 245.93479 
L 395.361838 246.089567 
L 396.143197 246.089567 
L 396.533876 252.074271 
L 396.924555 251.971087 
L 397.315235 250.062172 
L 397.705914 247.06982 
L 398.487273 247.06982 
L 398.487273 247.06982 
" clip-path="url(#p5d0f0f52c7)" style="fill: none; stroke: #1f77b4; stroke-width: 1.5; stroke-linecap: square"/>
   </g>
   <g id="patch_3">
    <path d="M 57.6 276.48 
L 57.6 41.472 
" style="fill: none; stroke: #000000; stroke-width: 0.8; stroke-linejoin: miter; stroke-linecap: square"/>
   </g>
   <g id="patch_4">
    <path d="M 414.72 276.48 
L 414.72 41.472 
" style="fill: none; stroke: #000000; stroke-width: 0.8; stroke-linejoin: miter; stroke-linecap: square"/>
   </g>
   <g id="patch_5">
    <path d="M 57.6 276.48 
L 414.72 276.48 
" style="fill: none; stroke: #000000; stroke-width: 0.8; stroke-linejoin: miter; stroke-linecap: square"/>
   </g>
   <g id="patch_6">
    <path d="M 57.6 41.472 
L 414.72 41.472 
" style="fill: none; stroke: #000000; stroke-width: 0.8; stroke-linejoin: miter; stroke-linecap: square"/>
   </g>
  </g>
  <g id="text_20">
   <!-- Inzidenzverlauf LK Landsberg a.Lech -->
   <g transform="translate(65.622656 20.589187)scale(0.18 -0.18)">
    <defs>
     <path id="DejaVuSans-76" d="M 191 3500 
L 800 3500 
L 1894 563 
L 2988 3500 
L 3597 3500 
L 2284 0 
L 1503 0 
L 191 3500 
z
" transform="scale(0.015625)"/>
     <path id="DejaVuSans-6c" d="M 603 4863 
L 1178 4863 
L 1178 0 
L 603 0 
L 603 4863 
z
" transform="scale(0.015625)"/>
     <path id="DejaVuSans-75" d="M 544 1381 
L 544 3500 
L 1119 3500 
L 1119 1403 
Q 1119 906 1312 657 
Q 1506 409 1894 409 
Q 2359 409 2629 706 
Q 2900 1003 2900 1516 
L 2900 3500 
L 3475 3500 
L 3475 0 
L 2900 0 
L 2900 538 
Q 2691 219 2414 64 
Q 2138 -91 1772 -91 
Q 1169 -91 856 284 
Q 544 659 544 1381 
z
M 1991 3584 
L 1991 3584 
z
" transform="scale(0.015625)"/>
     <path id="DejaVuSans-66" d="M 2375 4863 
L 2375 4384 
L 1825 4384 
Q 1516 4384 1395 4259 
Q 1275 4134 1275 3809 
L 1275 3500 
L 2222 3500 
L 2222 3053 
L 1275 3053 
L 1275 0 
L 697 0 
L 697 3053 
L 147 3053 
L 147 3500 
L 697 3500 
L 697 3744 
Q 697 4328 969 4595 
Q 1241 4863 1831 4863 
L 2375 4863 
z
" transform="scale(0.015625)"/>
     <path id="DejaVuSans-4c" d="M 628 4666 
L 1259 4666 
L 1259 531 
L 3531 531 
L 3531 0 
L 628 0 
L 628 4666 
z
" transform="scale(0.015625)"/>
     <path id="DejaVuSans-4b" d="M 628 4666 
L 1259 4666 
L 1259 2694 
L 3353 4666 
L 4166 4666 
L 1850 2491 
L 4331 0 
L 3500 0 
L 1259 2247 
L 1259 0 
L 628 0 
L 628 4666 
z
" transform="scale(0.015625)"/>
     <path id="DejaVuSans-73" d="M 2834 3397 
L 2834 2853 
Q 2591 2978 2328 3040 
Q 2066 3103 1784 3103 
Q 1356 3103 1142 2972 
Q 928 2841 928 2578 
Q 928 2378 1081 2264 
Q 1234 2150 1697 2047 
L 1894 2003 
Q 2506 1872 2764 1633 
Q 3022 1394 3022 966 
Q 3022 478 2636 193 
Q 2250 -91 1575 -91 
Q 1294 -91 989 -36 
Q 684 19 347 128 
L 347 722 
Q 666 556 975 473 
Q 1284 391 1588 391 
Q 1994 391 2212 530 
Q 2431 669 2431 922 
Q 2431 1156 2273 1281 
Q 2116 1406 1581 1522 
L 1381 1569 
Q 847 1681 609 1914 
Q 372 2147 372 2553 
Q 372 3047 722 3315 
Q 1072 3584 1716 3584 
Q 2034 3584 2315 3537 
Q 2597 3491 2834 3397 
z
" transform="scale(0.015625)"/>
     <path id="DejaVuSans-62" d="M 3116 1747 
Q 3116 2381 2855 2742 
Q 2594 3103 2138 3103 
Q 1681 3103 1420 2742 
Q 1159 2381 1159 1747 
Q 1159 1113 1420 752 
Q 1681 391 2138 391 
Q 2594 391 2855 752 
Q 3116 1113 3116 1747 
z
M 1159 2969 
Q 1341 3281 1617 3432 
Q 1894 3584 2278 3584 
Q 2916 3584 3314 3078 
Q 3713 2572 3713 1747 
Q 3713 922 3314 415 
Q 2916 -91 2278 -91 
Q 1894 -91 1617 61 
Q 1341 213 1159 525 
L 1159 0 
L 581 0 
L 581 4863 
L 1159 4863 
L 1159 2969 
z
" transform="scale(0.015625)"/>
     <path id="DejaVuSans-63" d="M 3122 3366 
L 3122 2828 
Q 2878 2963 2633 3030 
Q 2388 3097 2138 3097 
Q 1578 3097 1268 2742 
Q 959 2388 959 1747 
Q 959 1106 1268 751 
Q 1578 397 2138 397 
Q 2388 397 2633 464 
Q 2878 531 3122 666 
L 3122 134 
Q 2881 22 2623 -34 
Q 2366 -91 2075 -91 
Q 1284 -91 818 406 
Q 353 903 353 1747 
Q 353 2603 823 3093 
Q 1294 3584 2113 3584 
Q 2378 3584 2631 3529 
Q 2884 3475 3122 3366 
z
" transform="scale(0.015625)"/>
    </defs>
    <use xlink:href="#DejaVuSans-49"/>
    <use xlink:href="#DejaVuSans-6e" x="29.492188"/>
    <use xlink:href="#DejaVuSans-7a" x="92.871094"/>
    <use xlink:href="#DejaVuSans-69" x="145.361328"/>
    <use xlink:href="#DejaVuSans-64" x="173.144531"/>
    <use xlink:href="#DejaVuSans-65" x="236.621094"/>
    <use xlink:href="#DejaVuSans-6e" x="298.144531"/>
    <use xlink:href="#DejaVuSans-7a" x="361.523438"/>
    <use xlink:href="#DejaVuSans-76" x="414.013672"/>
    <use xlink:href="#DejaVuSans-65" x="473.193359"/>
    <use xlink:href="#DejaVuSans-72" x="534.716797"/>
    <use xlink:href="#DejaVuSans-6c" x="575.830078"/>
    <use xlink:href="#DejaVuSans-61" x="603.613281"/>
    <use xlink:href="#DejaVuSans-75" x="664.892578"/>
    <use xlink:href="#DejaVuSans-66" x="728.271484"/>
    <use xlink:href="#DejaVuSans-20" x="763.476562"/>
    <use xlink:href="#DejaVuSans-4c" x="795.263672"/>
    <use xlink:href="#DejaVuSans-4b" x="850.976562"/>
    <use xlink:href="#DejaVuSans-20" x="916.552734"/>
    <use xlink:href="#DejaVuSans-4c" x="948.339844"/>
    <use xlink:href="#DejaVuSans-61" x="1004.052734"/>
    <use xlink:href="#DejaVuSans-6e" x="1065.332031"/>
    <use xlink:href="#DejaVuSans-64" x="1128.710938"/>
    <use xlink:href="#DejaVuSans-73" x="1192.1875"/>
    <use xlink:href="#DejaVuSans-62" x="1244.287109"/>
    <use xlink:href="#DejaVuSans-65" x="1307.763672"/>
    <use xlink:href="#DejaVuSans-72" x="1369.287109"/>
    <use xlink:href="#DejaVuSans-67" x="1408.650391"/>
    <use xlink:href="#DejaVuSans-20" x="1472.126953"/>
    <use xlink:href="#DejaVuSans-61" x="1503.914062"/>
    <use xlink:href="#DejaVuSans-2e" x="1565.193359"/>
    <use xlink:href="#DejaVuSans-4c" x="1596.980469"/>
    <use xlink:href="#DejaVuSans-65" x="1650.943359"/>
    <use xlink:href="#DejaVuSans-63" x="1712.466797"/>
    <use xlink:href="#DejaVuSans-68" x="1767.447266"/>
   </g>
  </g>
 </g>
 <defs>
  <clipPath id="p5d0f0f52c7">
   <rect x="57.6" y="41.472" width="357.12" height="235.008"/>
  </clipPath>
 </defs>
</svg>
