<?xml version="1.0" encoding="utf-8" standalone="no"?>
<!DOCTYPE svg PUBLIC "-//W3C//DTD SVG 1.1//EN"
  "http://www.w3.org/Graphics/SVG/1.1/DTD/svg11.dtd">
<svg xmlns:xlink="http://www.w3.org/1999/xlink" width="460.8pt" height="345.6pt" viewBox="0 0 460.8 345.6" xmlns="http://www.w3.org/2000/svg" version="1.1">
 <metadata>
  <rdf:RDF xmlns:dc="http://purl.org/dc/elements/1.1/" xmlns:cc="http://creativecommons.org/ns#" xmlns:rdf="http://www.w3.org/1999/02/22-rdf-syntax-ns#">
   <cc:Work>
    <dc:type rdf:resource="http://purl.org/dc/dcmitype/StillImage"/>
    <dc:date>2022-12-07T09:19:22.174455</dc:date>
    <dc:format>image/svg+xml</dc:format>
    <dc:creator>
     <cc:Agent>
      <dc:title>Matplotlib v3.6.2, https://matplotlib.org/</dc:title>
     </cc:Agent>
    </dc:creator>
   </cc:Work>
  </rdf:RDF>
 </metadata>
 <defs>
  <style type="text/css">*{stroke-linejoin: round; stroke-linecap: butt}</style>
 </defs>
 <g id="figure_1">
  <g id="patch_1">
   <path d="M 0 345.6 
L 460.8 345.6 
L 460.8 0 
L 0 0 
z
" style="fill: #ffffff"/>
  </g>
  <g id="axes_1">
   <g id="patch_2">
    <path d="M 57.6 276.48 
L 414.72 276.48 
L 414.72 41.472 
L 57.6 41.472 
z
" style="fill: #ffffff"/>
   </g>
   <g id="matplotlib.axis_1">
    <g id="xtick_1">
     <g id="line2d_1">
      <path d="M 61.056225 276.48 
L 61.056225 41.472 
" clip-path="url(#pfb9364f6ad)" style="fill: none; stroke-dasharray: 2.96,1.28; stroke-dashoffset: 0; stroke: #808080; stroke-width: 0.8"/>
     </g>
     <g id="line2d_2">
      <defs>
       <path id="mbc33833702" d="M 0 0 
L 0 3.5 
" style="stroke: #000000; stroke-width: 0.8"/>
      </defs>
      <g>
       <use xlink:href="#mbc33833702" x="61.056225" y="276.48" style="stroke: #000000; stroke-width: 0.8"/>
      </g>
     </g>
     <g id="text_1">
      <!-- 23.01.2020 -->
      <g transform="translate(10.431014 318.688565) rotate(-30) scale(0.1 -0.1)">
       <defs>
        <path id="DejaVuSans-32" d="M 1228 531 
L 3431 531 
L 3431 0 
L 469 0 
L 469 531 
Q 828 903 1448 1529 
Q 2069 2156 2228 2338 
Q 2531 2678 2651 2914 
Q 2772 3150 2772 3378 
Q 2772 3750 2511 3984 
Q 2250 4219 1831 4219 
Q 1534 4219 1204 4116 
Q 875 4013 500 3803 
L 500 4441 
Q 881 4594 1212 4672 
Q 1544 4750 1819 4750 
Q 2544 4750 2975 4387 
Q 3406 4025 3406 3419 
Q 3406 3131 3298 2873 
Q 3191 2616 2906 2266 
Q 2828 2175 2409 1742 
Q 1991 1309 1228 531 
z
" transform="scale(0.015625)"/>
        <path id="DejaVuSans-33" d="M 2597 2516 
Q 3050 2419 3304 2112 
Q 3559 1806 3559 1356 
Q 3559 666 3084 287 
Q 2609 -91 1734 -91 
Q 1441 -91 1130 -33 
Q 819 25 488 141 
L 488 750 
Q 750 597 1062 519 
Q 1375 441 1716 441 
Q 2309 441 2620 675 
Q 2931 909 2931 1356 
Q 2931 1769 2642 2001 
Q 2353 2234 1838 2234 
L 1294 2234 
L 1294 2753 
L 1863 2753 
Q 2328 2753 2575 2939 
Q 2822 3125 2822 3475 
Q 2822 3834 2567 4026 
Q 2313 4219 1838 4219 
Q 1578 4219 1281 4162 
Q 984 4106 628 3988 
L 628 4550 
Q 988 4650 1302 4700 
Q 1616 4750 1894 4750 
Q 2613 4750 3031 4423 
Q 3450 4097 3450 3541 
Q 3450 3153 3228 2886 
Q 3006 2619 2597 2516 
z
" transform="scale(0.015625)"/>
        <path id="DejaVuSans-2e" d="M 684 794 
L 1344 794 
L 1344 0 
L 684 0 
L 684 794 
z
" transform="scale(0.015625)"/>
        <path id="DejaVuSans-30" d="M 2034 4250 
Q 1547 4250 1301 3770 
Q 1056 3291 1056 2328 
Q 1056 1369 1301 889 
Q 1547 409 2034 409 
Q 2525 409 2770 889 
Q 3016 1369 3016 2328 
Q 3016 3291 2770 3770 
Q 2525 4250 2034 4250 
z
M 2034 4750 
Q 2819 4750 3233 4129 
Q 3647 3509 3647 2328 
Q 3647 1150 3233 529 
Q 2819 -91 2034 -91 
Q 1250 -91 836 529 
Q 422 1150 422 2328 
Q 422 3509 836 4129 
Q 1250 4750 2034 4750 
z
" transform="scale(0.015625)"/>
        <path id="DejaVuSans-31" d="M 794 531 
L 1825 531 
L 1825 4091 
L 703 3866 
L 703 4441 
L 1819 4666 
L 2450 4666 
L 2450 531 
L 3481 531 
L 3481 0 
L 794 0 
L 794 531 
z
" transform="scale(0.015625)"/>
       </defs>
       <use xlink:href="#DejaVuSans-32"/>
       <use xlink:href="#DejaVuSans-33" x="63.623047"/>
       <use xlink:href="#DejaVuSans-2e" x="127.246094"/>
       <use xlink:href="#DejaVuSans-30" x="159.033203"/>
       <use xlink:href="#DejaVuSans-31" x="222.65625"/>
       <use xlink:href="#DejaVuSans-2e" x="286.279297"/>
       <use xlink:href="#DejaVuSans-32" x="318.066406"/>
       <use xlink:href="#DejaVuSans-30" x="381.689453"/>
       <use xlink:href="#DejaVuSans-32" x="445.3125"/>
       <use xlink:href="#DejaVuSans-30" x="508.935547"/>
      </g>
     </g>
    </g>
    <g id="xtick_2">
     <g id="line2d_3">
      <path d="M 97.093201 276.48 
L 97.093201 41.472 
" clip-path="url(#pfb9364f6ad)" style="fill: none; stroke-dasharray: 2.96,1.28; stroke-dashoffset: 0; stroke: #808080; stroke-width: 0.8"/>
     </g>
     <g id="line2d_4">
      <g>
       <use xlink:href="#mbc33833702" x="97.093201" y="276.48" style="stroke: #000000; stroke-width: 0.8"/>
      </g>
     </g>
     <g id="text_2">
      <!-- 14.05.2020 -->
      <g transform="translate(46.46799 318.688565) rotate(-30) scale(0.1 -0.1)">
       <defs>
        <path id="DejaVuSans-34" d="M 2419 4116 
L 825 1625 
L 2419 1625 
L 2419 4116 
z
M 2253 4666 
L 3047 4666 
L 3047 1625 
L 3713 1625 
L 3713 1100 
L 3047 1100 
L 3047 0 
L 2419 0 
L 2419 1100 
L 313 1100 
L 313 1709 
L 2253 4666 
z
" transform="scale(0.015625)"/>
        <path id="DejaVuSans-35" d="M 691 4666 
L 3169 4666 
L 3169 4134 
L 1269 4134 
L 1269 2991 
Q 1406 3038 1543 3061 
Q 1681 3084 1819 3084 
Q 2600 3084 3056 2656 
Q 3513 2228 3513 1497 
Q 3513 744 3044 326 
Q 2575 -91 1722 -91 
Q 1428 -91 1123 -41 
Q 819 9 494 109 
L 494 744 
Q 775 591 1075 516 
Q 1375 441 1709 441 
Q 2250 441 2565 725 
Q 2881 1009 2881 1497 
Q 2881 1984 2565 2268 
Q 2250 2553 1709 2553 
Q 1456 2553 1204 2497 
Q 953 2441 691 2322 
L 691 4666 
z
" transform="scale(0.015625)"/>
       </defs>
       <use xlink:href="#DejaVuSans-31"/>
       <use xlink:href="#DejaVuSans-34" x="63.623047"/>
       <use xlink:href="#DejaVuSans-2e" x="127.246094"/>
       <use xlink:href="#DejaVuSans-30" x="159.033203"/>
       <use xlink:href="#DejaVuSans-35" x="222.65625"/>
       <use xlink:href="#DejaVuSans-2e" x="286.279297"/>
       <use xlink:href="#DejaVuSans-32" x="318.066406"/>
       <use xlink:href="#DejaVuSans-30" x="381.689453"/>
       <use xlink:href="#DejaVuSans-32" x="445.3125"/>
       <use xlink:href="#DejaVuSans-30" x="508.935547"/>
      </g>
     </g>
    </g>
    <g id="xtick_3">
     <g id="line2d_5">
      <path d="M 133.130177 276.48 
L 133.130177 41.472 
" clip-path="url(#pfb9364f6ad)" style="fill: none; stroke-dasharray: 2.96,1.28; stroke-dashoffset: 0; stroke: #808080; stroke-width: 0.8"/>
     </g>
     <g id="line2d_6">
      <g>
       <use xlink:href="#mbc33833702" x="133.130177" y="276.48" style="stroke: #000000; stroke-width: 0.8"/>
      </g>
     </g>
     <g id="text_3">
      <!-- 03.09.2020 -->
      <g transform="translate(82.504967 318.688565) rotate(-30) scale(0.1 -0.1)">
       <defs>
        <path id="DejaVuSans-39" d="M 703 97 
L 703 672 
Q 941 559 1184 500 
Q 1428 441 1663 441 
Q 2288 441 2617 861 
Q 2947 1281 2994 2138 
Q 2813 1869 2534 1725 
Q 2256 1581 1919 1581 
Q 1219 1581 811 2004 
Q 403 2428 403 3163 
Q 403 3881 828 4315 
Q 1253 4750 1959 4750 
Q 2769 4750 3195 4129 
Q 3622 3509 3622 2328 
Q 3622 1225 3098 567 
Q 2575 -91 1691 -91 
Q 1453 -91 1209 -44 
Q 966 3 703 97 
z
M 1959 2075 
Q 2384 2075 2632 2365 
Q 2881 2656 2881 3163 
Q 2881 3666 2632 3958 
Q 2384 4250 1959 4250 
Q 1534 4250 1286 3958 
Q 1038 3666 1038 3163 
Q 1038 2656 1286 2365 
Q 1534 2075 1959 2075 
z
" transform="scale(0.015625)"/>
       </defs>
       <use xlink:href="#DejaVuSans-30"/>
       <use xlink:href="#DejaVuSans-33" x="63.623047"/>
       <use xlink:href="#DejaVuSans-2e" x="127.246094"/>
       <use xlink:href="#DejaVuSans-30" x="159.033203"/>
       <use xlink:href="#DejaVuSans-39" x="222.65625"/>
       <use xlink:href="#DejaVuSans-2e" x="286.279297"/>
       <use xlink:href="#DejaVuSans-32" x="318.066406"/>
       <use xlink:href="#DejaVuSans-30" x="381.689453"/>
       <use xlink:href="#DejaVuSans-32" x="445.3125"/>
       <use xlink:href="#DejaVuSans-30" x="508.935547"/>
      </g>
     </g>
    </g>
    <g id="xtick_4">
     <g id="line2d_7">
      <path d="M 169.167154 276.48 
L 169.167154 41.472 
" clip-path="url(#pfb9364f6ad)" style="fill: none; stroke-dasharray: 2.96,1.28; stroke-dashoffset: 0; stroke: #808080; stroke-width: 0.8"/>
     </g>
     <g id="line2d_8">
      <g>
       <use xlink:href="#mbc33833702" x="169.167154" y="276.48" style="stroke: #000000; stroke-width: 0.8"/>
      </g>
     </g>
     <g id="text_4">
      <!-- 24.12.2020 -->
      <g transform="translate(118.541943 318.688565) rotate(-30) scale(0.1 -0.1)">
       <use xlink:href="#DejaVuSans-32"/>
       <use xlink:href="#DejaVuSans-34" x="63.623047"/>
       <use xlink:href="#DejaVuSans-2e" x="127.246094"/>
       <use xlink:href="#DejaVuSans-31" x="159.033203"/>
       <use xlink:href="#DejaVuSans-32" x="222.65625"/>
       <use xlink:href="#DejaVuSans-2e" x="286.279297"/>
       <use xlink:href="#DejaVuSans-32" x="318.066406"/>
       <use xlink:href="#DejaVuSans-30" x="381.689453"/>
       <use xlink:href="#DejaVuSans-32" x="445.3125"/>
       <use xlink:href="#DejaVuSans-30" x="508.935547"/>
      </g>
     </g>
    </g>
    <g id="xtick_5">
     <g id="line2d_9">
      <path d="M 205.20413 276.48 
L 205.20413 41.472 
" clip-path="url(#pfb9364f6ad)" style="fill: none; stroke-dasharray: 2.96,1.28; stroke-dashoffset: 0; stroke: #808080; stroke-width: 0.8"/>
     </g>
     <g id="line2d_10">
      <g>
       <use xlink:href="#mbc33833702" x="205.20413" y="276.48" style="stroke: #000000; stroke-width: 0.8"/>
      </g>
     </g>
     <g id="text_5">
      <!-- 15.04.2021 -->
      <g transform="translate(154.578919 318.688565) rotate(-30) scale(0.1 -0.1)">
       <use xlink:href="#DejaVuSans-31"/>
       <use xlink:href="#DejaVuSans-35" x="63.623047"/>
       <use xlink:href="#DejaVuSans-2e" x="127.246094"/>
       <use xlink:href="#DejaVuSans-30" x="159.033203"/>
       <use xlink:href="#DejaVuSans-34" x="222.65625"/>
       <use xlink:href="#DejaVuSans-2e" x="286.279297"/>
       <use xlink:href="#DejaVuSans-32" x="318.066406"/>
       <use xlink:href="#DejaVuSans-30" x="381.689453"/>
       <use xlink:href="#DejaVuSans-32" x="445.3125"/>
       <use xlink:href="#DejaVuSans-31" x="508.935547"/>
      </g>
     </g>
    </g>
    <g id="xtick_6">
     <g id="line2d_11">
      <path d="M 241.241106 276.48 
L 241.241106 41.472 
" clip-path="url(#pfb9364f6ad)" style="fill: none; stroke-dasharray: 2.96,1.28; stroke-dashoffset: 0; stroke: #808080; stroke-width: 0.8"/>
     </g>
     <g id="line2d_12">
      <g>
       <use xlink:href="#mbc33833702" x="241.241106" y="276.48" style="stroke: #000000; stroke-width: 0.8"/>
      </g>
     </g>
     <g id="text_6">
      <!-- 05.08.2021 -->
      <g transform="translate(190.615896 318.688565) rotate(-30) scale(0.1 -0.1)">
       <defs>
        <path id="DejaVuSans-38" d="M 2034 2216 
Q 1584 2216 1326 1975 
Q 1069 1734 1069 1313 
Q 1069 891 1326 650 
Q 1584 409 2034 409 
Q 2484 409 2743 651 
Q 3003 894 3003 1313 
Q 3003 1734 2745 1975 
Q 2488 2216 2034 2216 
z
M 1403 2484 
Q 997 2584 770 2862 
Q 544 3141 544 3541 
Q 544 4100 942 4425 
Q 1341 4750 2034 4750 
Q 2731 4750 3128 4425 
Q 3525 4100 3525 3541 
Q 3525 3141 3298 2862 
Q 3072 2584 2669 2484 
Q 3125 2378 3379 2068 
Q 3634 1759 3634 1313 
Q 3634 634 3220 271 
Q 2806 -91 2034 -91 
Q 1263 -91 848 271 
Q 434 634 434 1313 
Q 434 1759 690 2068 
Q 947 2378 1403 2484 
z
M 1172 3481 
Q 1172 3119 1398 2916 
Q 1625 2713 2034 2713 
Q 2441 2713 2670 2916 
Q 2900 3119 2900 3481 
Q 2900 3844 2670 4047 
Q 2441 4250 2034 4250 
Q 1625 4250 1398 4047 
Q 1172 3844 1172 3481 
z
" transform="scale(0.015625)"/>
       </defs>
       <use xlink:href="#DejaVuSans-30"/>
       <use xlink:href="#DejaVuSans-35" x="63.623047"/>
       <use xlink:href="#DejaVuSans-2e" x="127.246094"/>
       <use xlink:href="#DejaVuSans-30" x="159.033203"/>
       <use xlink:href="#DejaVuSans-38" x="222.65625"/>
       <use xlink:href="#DejaVuSans-2e" x="286.279297"/>
       <use xlink:href="#DejaVuSans-32" x="318.066406"/>
       <use xlink:href="#DejaVuSans-30" x="381.689453"/>
       <use xlink:href="#DejaVuSans-32" x="445.3125"/>
       <use xlink:href="#DejaVuSans-31" x="508.935547"/>
      </g>
     </g>
    </g>
    <g id="xtick_7">
     <g id="line2d_13">
      <path d="M 277.278083 276.48 
L 277.278083 41.472 
" clip-path="url(#pfb9364f6ad)" style="fill: none; stroke-dasharray: 2.96,1.28; stroke-dashoffset: 0; stroke: #808080; stroke-width: 0.8"/>
     </g>
     <g id="line2d_14">
      <g>
       <use xlink:href="#mbc33833702" x="277.278083" y="276.48" style="stroke: #000000; stroke-width: 0.8"/>
      </g>
     </g>
     <g id="text_7">
      <!-- 25.11.2021 -->
      <g transform="translate(226.652872 318.688565) rotate(-30) scale(0.1 -0.1)">
       <use xlink:href="#DejaVuSans-32"/>
       <use xlink:href="#DejaVuSans-35" x="63.623047"/>
       <use xlink:href="#DejaVuSans-2e" x="127.246094"/>
       <use xlink:href="#DejaVuSans-31" x="159.033203"/>
       <use xlink:href="#DejaVuSans-31" x="222.65625"/>
       <use xlink:href="#DejaVuSans-2e" x="286.279297"/>
       <use xlink:href="#DejaVuSans-32" x="318.066406"/>
       <use xlink:href="#DejaVuSans-30" x="381.689453"/>
       <use xlink:href="#DejaVuSans-32" x="445.3125"/>
       <use xlink:href="#DejaVuSans-31" x="508.935547"/>
      </g>
     </g>
    </g>
    <g id="xtick_8">
     <g id="line2d_15">
      <path d="M 313.315059 276.48 
L 313.315059 41.472 
" clip-path="url(#pfb9364f6ad)" style="fill: none; stroke-dasharray: 2.96,1.28; stroke-dashoffset: 0; stroke: #808080; stroke-width: 0.8"/>
     </g>
     <g id="line2d_16">
      <g>
       <use xlink:href="#mbc33833702" x="313.315059" y="276.48" style="stroke: #000000; stroke-width: 0.8"/>
      </g>
     </g>
     <g id="text_8">
      <!-- 17.03.2022 -->
      <g transform="translate(262.689848 318.688565) rotate(-30) scale(0.1 -0.1)">
       <defs>
        <path id="DejaVuSans-37" d="M 525 4666 
L 3525 4666 
L 3525 4397 
L 1831 0 
L 1172 0 
L 2766 4134 
L 525 4134 
L 525 4666 
z
" transform="scale(0.015625)"/>
       </defs>
       <use xlink:href="#DejaVuSans-31"/>
       <use xlink:href="#DejaVuSans-37" x="63.623047"/>
       <use xlink:href="#DejaVuSans-2e" x="127.246094"/>
       <use xlink:href="#DejaVuSans-30" x="159.033203"/>
       <use xlink:href="#DejaVuSans-33" x="222.65625"/>
       <use xlink:href="#DejaVuSans-2e" x="286.279297"/>
       <use xlink:href="#DejaVuSans-32" x="318.066406"/>
       <use xlink:href="#DejaVuSans-30" x="381.689453"/>
       <use xlink:href="#DejaVuSans-32" x="445.3125"/>
       <use xlink:href="#DejaVuSans-32" x="508.935547"/>
      </g>
     </g>
    </g>
    <g id="xtick_9">
     <g id="line2d_17">
      <path d="M 349.352035 276.48 
L 349.352035 41.472 
" clip-path="url(#pfb9364f6ad)" style="fill: none; stroke-dasharray: 2.96,1.28; stroke-dashoffset: 0; stroke: #808080; stroke-width: 0.8"/>
     </g>
     <g id="line2d_18">
      <g>
       <use xlink:href="#mbc33833702" x="349.352035" y="276.48" style="stroke: #000000; stroke-width: 0.8"/>
      </g>
     </g>
     <g id="text_9">
      <!-- 07.07.2022 -->
      <g transform="translate(298.726825 318.688565) rotate(-30) scale(0.1 -0.1)">
       <use xlink:href="#DejaVuSans-30"/>
       <use xlink:href="#DejaVuSans-37" x="63.623047"/>
       <use xlink:href="#DejaVuSans-2e" x="127.246094"/>
       <use xlink:href="#DejaVuSans-30" x="159.033203"/>
       <use xlink:href="#DejaVuSans-37" x="222.65625"/>
       <use xlink:href="#DejaVuSans-2e" x="286.279297"/>
       <use xlink:href="#DejaVuSans-32" x="318.066406"/>
       <use xlink:href="#DejaVuSans-30" x="381.689453"/>
       <use xlink:href="#DejaVuSans-32" x="445.3125"/>
       <use xlink:href="#DejaVuSans-32" x="508.935547"/>
      </g>
     </g>
    </g>
    <g id="xtick_10">
     <g id="line2d_19">
      <path d="M 385.389012 276.48 
L 385.389012 41.472 
" clip-path="url(#pfb9364f6ad)" style="fill: none; stroke-dasharray: 2.96,1.28; stroke-dashoffset: 0; stroke: #808080; stroke-width: 0.8"/>
     </g>
     <g id="line2d_20">
      <g>
       <use xlink:href="#mbc33833702" x="385.389012" y="276.48" style="stroke: #000000; stroke-width: 0.8"/>
      </g>
     </g>
     <g id="text_10">
      <!-- 27.10.2022 -->
      <g transform="translate(334.763801 318.688565) rotate(-30) scale(0.1 -0.1)">
       <use xlink:href="#DejaVuSans-32"/>
       <use xlink:href="#DejaVuSans-37" x="63.623047"/>
       <use xlink:href="#DejaVuSans-2e" x="127.246094"/>
       <use xlink:href="#DejaVuSans-31" x="159.033203"/>
       <use xlink:href="#DejaVuSans-30" x="222.65625"/>
       <use xlink:href="#DejaVuSans-2e" x="286.279297"/>
       <use xlink:href="#DejaVuSans-32" x="318.066406"/>
       <use xlink:href="#DejaVuSans-30" x="381.689453"/>
       <use xlink:href="#DejaVuSans-32" x="445.3125"/>
       <use xlink:href="#DejaVuSans-32" x="508.935547"/>
      </g>
     </g>
    </g>
   </g>
   <g id="matplotlib.axis_2">
    <g id="ytick_1">
     <g id="line2d_21">
      <path d="M 57.6 265.483438 
L 414.72 265.483438 
" clip-path="url(#pfb9364f6ad)" style="fill: none; stroke-dasharray: 2.96,1.28; stroke-dashoffset: 0; stroke: #808080; stroke-width: 0.8"/>
     </g>
     <g id="line2d_22">
      <defs>
       <path id="m851662f958" d="M 0 0 
L -3.5 0 
" style="stroke: #000000; stroke-width: 0.8"/>
      </defs>
      <g>
       <use xlink:href="#m851662f958" x="57.6" y="265.483438" style="stroke: #000000; stroke-width: 0.8"/>
      </g>
     </g>
     <g id="text_11">
      <!-- 0 -->
      <g transform="translate(44.2375 269.282657) scale(0.1 -0.1)">
       <use xlink:href="#DejaVuSans-30"/>
      </g>
     </g>
    </g>
    <g id="ytick_2">
     <g id="line2d_23">
      <path d="M 57.6 229.577879 
L 414.72 229.577879 
" clip-path="url(#pfb9364f6ad)" style="fill: none; stroke-dasharray: 2.96,1.28; stroke-dashoffset: 0; stroke: #808080; stroke-width: 0.8"/>
     </g>
     <g id="line2d_24">
      <g>
       <use xlink:href="#m851662f958" x="57.6" y="229.577879" style="stroke: #000000; stroke-width: 0.8"/>
      </g>
     </g>
     <g id="text_12">
      <!-- 500 -->
      <g transform="translate(31.5125 233.377098) scale(0.1 -0.1)">
       <use xlink:href="#DejaVuSans-35"/>
       <use xlink:href="#DejaVuSans-30" x="63.623047"/>
       <use xlink:href="#DejaVuSans-30" x="127.246094"/>
      </g>
     </g>
    </g>
    <g id="ytick_3">
     <g id="line2d_25">
      <path d="M 57.6 193.672319 
L 414.72 193.672319 
" clip-path="url(#pfb9364f6ad)" style="fill: none; stroke-dasharray: 2.96,1.28; stroke-dashoffset: 0; stroke: #808080; stroke-width: 0.8"/>
     </g>
     <g id="line2d_26">
      <g>
       <use xlink:href="#m851662f958" x="57.6" y="193.672319" style="stroke: #000000; stroke-width: 0.8"/>
      </g>
     </g>
     <g id="text_13">
      <!-- 1000 -->
      <g transform="translate(25.15 197.471538) scale(0.1 -0.1)">
       <use xlink:href="#DejaVuSans-31"/>
       <use xlink:href="#DejaVuSans-30" x="63.623047"/>
       <use xlink:href="#DejaVuSans-30" x="127.246094"/>
       <use xlink:href="#DejaVuSans-30" x="190.869141"/>
      </g>
     </g>
    </g>
    <g id="ytick_4">
     <g id="line2d_27">
      <path d="M 57.6 157.76676 
L 414.72 157.76676 
" clip-path="url(#pfb9364f6ad)" style="fill: none; stroke-dasharray: 2.96,1.28; stroke-dashoffset: 0; stroke: #808080; stroke-width: 0.8"/>
     </g>
     <g id="line2d_28">
      <g>
       <use xlink:href="#m851662f958" x="57.6" y="157.76676" style="stroke: #000000; stroke-width: 0.8"/>
      </g>
     </g>
     <g id="text_14">
      <!-- 1500 -->
      <g transform="translate(25.15 161.565979) scale(0.1 -0.1)">
       <use xlink:href="#DejaVuSans-31"/>
       <use xlink:href="#DejaVuSans-35" x="63.623047"/>
       <use xlink:href="#DejaVuSans-30" x="127.246094"/>
       <use xlink:href="#DejaVuSans-30" x="190.869141"/>
      </g>
     </g>
    </g>
    <g id="ytick_5">
     <g id="line2d_29">
      <path d="M 57.6 121.861201 
L 414.72 121.861201 
" clip-path="url(#pfb9364f6ad)" style="fill: none; stroke-dasharray: 2.96,1.28; stroke-dashoffset: 0; stroke: #808080; stroke-width: 0.8"/>
     </g>
     <g id="line2d_30">
      <g>
       <use xlink:href="#m851662f958" x="57.6" y="121.861201" style="stroke: #000000; stroke-width: 0.8"/>
      </g>
     </g>
     <g id="text_15">
      <!-- 2000 -->
      <g transform="translate(25.15 125.660419) scale(0.1 -0.1)">
       <use xlink:href="#DejaVuSans-32"/>
       <use xlink:href="#DejaVuSans-30" x="63.623047"/>
       <use xlink:href="#DejaVuSans-30" x="127.246094"/>
       <use xlink:href="#DejaVuSans-30" x="190.869141"/>
      </g>
     </g>
    </g>
    <g id="ytick_6">
     <g id="line2d_31">
      <path d="M 57.6 85.955641 
L 414.72 85.955641 
" clip-path="url(#pfb9364f6ad)" style="fill: none; stroke-dasharray: 2.96,1.28; stroke-dashoffset: 0; stroke: #808080; stroke-width: 0.8"/>
     </g>
     <g id="line2d_32">
      <g>
       <use xlink:href="#m851662f958" x="57.6" y="85.955641" style="stroke: #000000; stroke-width: 0.8"/>
      </g>
     </g>
     <g id="text_16">
      <!-- 2500 -->
      <g transform="translate(25.15 89.75486) scale(0.1 -0.1)">
       <use xlink:href="#DejaVuSans-32"/>
       <use xlink:href="#DejaVuSans-35" x="63.623047"/>
       <use xlink:href="#DejaVuSans-30" x="127.246094"/>
       <use xlink:href="#DejaVuSans-30" x="190.869141"/>
      </g>
     </g>
    </g>
    <g id="ytick_7">
     <g id="line2d_33">
      <path d="M 57.6 50.050082 
L 414.72 50.050082 
" clip-path="url(#pfb9364f6ad)" style="fill: none; stroke-dasharray: 2.96,1.28; stroke-dashoffset: 0; stroke: #808080; stroke-width: 0.8"/>
     </g>
     <g id="line2d_34">
      <g>
       <use xlink:href="#m851662f958" x="57.6" y="50.050082" style="stroke: #000000; stroke-width: 0.8"/>
      </g>
     </g>
     <g id="text_17">
      <!-- 3000 -->
      <g transform="translate(25.15 53.8493) scale(0.1 -0.1)">
       <use xlink:href="#DejaVuSans-33"/>
       <use xlink:href="#DejaVuSans-30" x="63.623047"/>
       <use xlink:href="#DejaVuSans-30" x="127.246094"/>
       <use xlink:href="#DejaVuSans-30" x="190.869141"/>
      </g>
     </g>
    </g>
    <g id="text_18">
     <!-- Inzidenz pro 7 Tage pro 100.000 Einwohner -->
     <g transform="translate(19.070312 267.301) rotate(-90) scale(0.1 -0.1)">
      <defs>
       <path id="DejaVuSans-49" d="M 628 4666 
L 1259 4666 
L 1259 0 
L 628 0 
L 628 4666 
z
" transform="scale(0.015625)"/>
       <path id="DejaVuSans-6e" d="M 3513 2113 
L 3513 0 
L 2938 0 
L 2938 2094 
Q 2938 2591 2744 2837 
Q 2550 3084 2163 3084 
Q 1697 3084 1428 2787 
Q 1159 2491 1159 1978 
L 1159 0 
L 581 0 
L 581 3500 
L 1159 3500 
L 1159 2956 
Q 1366 3272 1645 3428 
Q 1925 3584 2291 3584 
Q 2894 3584 3203 3211 
Q 3513 2838 3513 2113 
z
" transform="scale(0.015625)"/>
       <path id="DejaVuSans-7a" d="M 353 3500 
L 3084 3500 
L 3084 2975 
L 922 459 
L 3084 459 
L 3084 0 
L 275 0 
L 275 525 
L 2438 3041 
L 353 3041 
L 353 3500 
z
" transform="scale(0.015625)"/>
       <path id="DejaVuSans-69" d="M 603 3500 
L 1178 3500 
L 1178 0 
L 603 0 
L 603 3500 
z
M 603 4863 
L 1178 4863 
L 1178 4134 
L 603 4134 
L 603 4863 
z
" transform="scale(0.015625)"/>
       <path id="DejaVuSans-64" d="M 2906 2969 
L 2906 4863 
L 3481 4863 
L 3481 0 
L 2906 0 
L 2906 525 
Q 2725 213 2448 61 
Q 2172 -91 1784 -91 
Q 1150 -91 751 415 
Q 353 922 353 1747 
Q 353 2572 751 3078 
Q 1150 3584 1784 3584 
Q 2172 3584 2448 3432 
Q 2725 3281 2906 2969 
z
M 947 1747 
Q 947 1113 1208 752 
Q 1469 391 1925 391 
Q 2381 391 2643 752 
Q 2906 1113 2906 1747 
Q 2906 2381 2643 2742 
Q 2381 3103 1925 3103 
Q 1469 3103 1208 2742 
Q 947 2381 947 1747 
z
" transform="scale(0.015625)"/>
       <path id="DejaVuSans-65" d="M 3597 1894 
L 3597 1613 
L 953 1613 
Q 991 1019 1311 708 
Q 1631 397 2203 397 
Q 2534 397 2845 478 
Q 3156 559 3463 722 
L 3463 178 
Q 3153 47 2828 -22 
Q 2503 -91 2169 -91 
Q 1331 -91 842 396 
Q 353 884 353 1716 
Q 353 2575 817 3079 
Q 1281 3584 2069 3584 
Q 2775 3584 3186 3129 
Q 3597 2675 3597 1894 
z
M 3022 2063 
Q 3016 2534 2758 2815 
Q 2500 3097 2075 3097 
Q 1594 3097 1305 2825 
Q 1016 2553 972 2059 
L 3022 2063 
z
" transform="scale(0.015625)"/>
       <path id="DejaVuSans-20" transform="scale(0.015625)"/>
       <path id="DejaVuSans-70" d="M 1159 525 
L 1159 -1331 
L 581 -1331 
L 581 3500 
L 1159 3500 
L 1159 2969 
Q 1341 3281 1617 3432 
Q 1894 3584 2278 3584 
Q 2916 3584 3314 3078 
Q 3713 2572 3713 1747 
Q 3713 922 3314 415 
Q 2916 -91 2278 -91 
Q 1894 -91 1617 61 
Q 1341 213 1159 525 
z
M 3116 1747 
Q 3116 2381 2855 2742 
Q 2594 3103 2138 3103 
Q 1681 3103 1420 2742 
Q 1159 2381 1159 1747 
Q 1159 1113 1420 752 
Q 1681 391 2138 391 
Q 2594 391 2855 752 
Q 3116 1113 3116 1747 
z
" transform="scale(0.015625)"/>
       <path id="DejaVuSans-72" d="M 2631 2963 
Q 2534 3019 2420 3045 
Q 2306 3072 2169 3072 
Q 1681 3072 1420 2755 
Q 1159 2438 1159 1844 
L 1159 0 
L 581 0 
L 581 3500 
L 1159 3500 
L 1159 2956 
Q 1341 3275 1631 3429 
Q 1922 3584 2338 3584 
Q 2397 3584 2469 3576 
Q 2541 3569 2628 3553 
L 2631 2963 
z
" transform="scale(0.015625)"/>
       <path id="DejaVuSans-6f" d="M 1959 3097 
Q 1497 3097 1228 2736 
Q 959 2375 959 1747 
Q 959 1119 1226 758 
Q 1494 397 1959 397 
Q 2419 397 2687 759 
Q 2956 1122 2956 1747 
Q 2956 2369 2687 2733 
Q 2419 3097 1959 3097 
z
M 1959 3584 
Q 2709 3584 3137 3096 
Q 3566 2609 3566 1747 
Q 3566 888 3137 398 
Q 2709 -91 1959 -91 
Q 1206 -91 779 398 
Q 353 888 353 1747 
Q 353 2609 779 3096 
Q 1206 3584 1959 3584 
z
" transform="scale(0.015625)"/>
       <path id="DejaVuSans-54" d="M -19 4666 
L 3928 4666 
L 3928 4134 
L 2272 4134 
L 2272 0 
L 1638 0 
L 1638 4134 
L -19 4134 
L -19 4666 
z
" transform="scale(0.015625)"/>
       <path id="DejaVuSans-61" d="M 2194 1759 
Q 1497 1759 1228 1600 
Q 959 1441 959 1056 
Q 959 750 1161 570 
Q 1363 391 1709 391 
Q 2188 391 2477 730 
Q 2766 1069 2766 1631 
L 2766 1759 
L 2194 1759 
z
M 3341 1997 
L 3341 0 
L 2766 0 
L 2766 531 
Q 2569 213 2275 61 
Q 1981 -91 1556 -91 
Q 1019 -91 701 211 
Q 384 513 384 1019 
Q 384 1609 779 1909 
Q 1175 2209 1959 2209 
L 2766 2209 
L 2766 2266 
Q 2766 2663 2505 2880 
Q 2244 3097 1772 3097 
Q 1472 3097 1187 3025 
Q 903 2953 641 2809 
L 641 3341 
Q 956 3463 1253 3523 
Q 1550 3584 1831 3584 
Q 2591 3584 2966 3190 
Q 3341 2797 3341 1997 
z
" transform="scale(0.015625)"/>
       <path id="DejaVuSans-67" d="M 2906 1791 
Q 2906 2416 2648 2759 
Q 2391 3103 1925 3103 
Q 1463 3103 1205 2759 
Q 947 2416 947 1791 
Q 947 1169 1205 825 
Q 1463 481 1925 481 
Q 2391 481 2648 825 
Q 2906 1169 2906 1791 
z
M 3481 434 
Q 3481 -459 3084 -895 
Q 2688 -1331 1869 -1331 
Q 1566 -1331 1297 -1286 
Q 1028 -1241 775 -1147 
L 775 -588 
Q 1028 -725 1275 -790 
Q 1522 -856 1778 -856 
Q 2344 -856 2625 -561 
Q 2906 -266 2906 331 
L 2906 616 
Q 2728 306 2450 153 
Q 2172 0 1784 0 
Q 1141 0 747 490 
Q 353 981 353 1791 
Q 353 2603 747 3093 
Q 1141 3584 1784 3584 
Q 2172 3584 2450 3431 
Q 2728 3278 2906 2969 
L 2906 3500 
L 3481 3500 
L 3481 434 
z
" transform="scale(0.015625)"/>
       <path id="DejaVuSans-45" d="M 628 4666 
L 3578 4666 
L 3578 4134 
L 1259 4134 
L 1259 2753 
L 3481 2753 
L 3481 2222 
L 1259 2222 
L 1259 531 
L 3634 531 
L 3634 0 
L 628 0 
L 628 4666 
z
" transform="scale(0.015625)"/>
       <path id="DejaVuSans-77" d="M 269 3500 
L 844 3500 
L 1563 769 
L 2278 3500 
L 2956 3500 
L 3675 769 
L 4391 3500 
L 4966 3500 
L 4050 0 
L 3372 0 
L 2619 2869 
L 1863 0 
L 1184 0 
L 269 3500 
z
" transform="scale(0.015625)"/>
       <path id="DejaVuSans-68" d="M 3513 2113 
L 3513 0 
L 2938 0 
L 2938 2094 
Q 2938 2591 2744 2837 
Q 2550 3084 2163 3084 
Q 1697 3084 1428 2787 
Q 1159 2491 1159 1978 
L 1159 0 
L 581 0 
L 581 4863 
L 1159 4863 
L 1159 2956 
Q 1366 3272 1645 3428 
Q 1925 3584 2291 3584 
Q 2894 3584 3203 3211 
Q 3513 2838 3513 2113 
z
" transform="scale(0.015625)"/>
      </defs>
      <use xlink:href="#DejaVuSans-49"/>
      <use xlink:href="#DejaVuSans-6e" x="29.492188"/>
      <use xlink:href="#DejaVuSans-7a" x="92.871094"/>
      <use xlink:href="#DejaVuSans-69" x="145.361328"/>
      <use xlink:href="#DejaVuSans-64" x="173.144531"/>
      <use xlink:href="#DejaVuSans-65" x="236.621094"/>
      <use xlink:href="#DejaVuSans-6e" x="298.144531"/>
      <use xlink:href="#DejaVuSans-7a" x="361.523438"/>
      <use xlink:href="#DejaVuSans-20" x="414.013672"/>
      <use xlink:href="#DejaVuSans-70" x="445.800781"/>
      <use xlink:href="#DejaVuSans-72" x="509.277344"/>
      <use xlink:href="#DejaVuSans-6f" x="548.140625"/>
      <use xlink:href="#DejaVuSans-20" x="609.322266"/>
      <use xlink:href="#DejaVuSans-37" x="641.109375"/>
      <use xlink:href="#DejaVuSans-20" x="704.732422"/>
      <use xlink:href="#DejaVuSans-54" x="736.519531"/>
      <use xlink:href="#DejaVuSans-61" x="781.103516"/>
      <use xlink:href="#DejaVuSans-67" x="842.382812"/>
      <use xlink:href="#DejaVuSans-65" x="905.859375"/>
      <use xlink:href="#DejaVuSans-20" x="967.382812"/>
      <use xlink:href="#DejaVuSans-70" x="999.169922"/>
      <use xlink:href="#DejaVuSans-72" x="1062.646484"/>
      <use xlink:href="#DejaVuSans-6f" x="1101.509766"/>
      <use xlink:href="#DejaVuSans-20" x="1162.691406"/>
      <use xlink:href="#DejaVuSans-31" x="1194.478516"/>
      <use xlink:href="#DejaVuSans-30" x="1258.101562"/>
      <use xlink:href="#DejaVuSans-30" x="1321.724609"/>
      <use xlink:href="#DejaVuSans-2e" x="1385.347656"/>
      <use xlink:href="#DejaVuSans-30" x="1417.134766"/>
      <use xlink:href="#DejaVuSans-30" x="1480.757812"/>
      <use xlink:href="#DejaVuSans-30" x="1544.380859"/>
      <use xlink:href="#DejaVuSans-20" x="1608.003906"/>
      <use xlink:href="#DejaVuSans-45" x="1639.791016"/>
      <use xlink:href="#DejaVuSans-69" x="1702.974609"/>
      <use xlink:href="#DejaVuSans-6e" x="1730.757812"/>
      <use xlink:href="#DejaVuSans-77" x="1794.136719"/>
      <use xlink:href="#DejaVuSans-6f" x="1875.923828"/>
      <use xlink:href="#DejaVuSans-68" x="1937.105469"/>
      <use xlink:href="#DejaVuSans-6e" x="2000.484375"/>
      <use xlink:href="#DejaVuSans-65" x="2063.863281"/>
      <use xlink:href="#DejaVuSans-72" x="2125.386719"/>
     </g>
    </g>
   </g>
   <g id="line2d_35">
    <path d="M 73.832727 265.483438 
L 77.372073 265.393615 
L 78.337349 265.169058 
L 78.980867 263.911538 
L 79.302625 263.103133 
L 79.624384 262.654019 
L 79.946143 261.621056 
L 80.267902 261.082119 
L 80.58966 260.857562 
L 80.911419 260.453359 
L 81.233178 260.408447 
L 81.554936 259.195839 
L 81.876695 259.375485 
L 82.198454 259.689865 
L 82.520213 259.330573 
L 82.841971 259.285662 
L 83.16373 258.971282 
L 83.485489 258.028142 
L 83.807247 258.611991 
L 84.129006 258.028142 
L 84.450765 258.297611 
L 84.772524 258.028142 
L 85.094282 258.073054 
L 85.416041 257.579028 
L 85.7378 258.387433 
L 86.059559 258.656902 
L 86.381317 259.510219 
L 86.703076 258.881459 
L 87.024835 260.228802 
L 87.346593 260.273713 
L 87.668352 261.621056 
L 87.990111 261.800702 
L 88.31187 262.564196 
L 88.633628 261.800702 
L 88.955387 262.743841 
L 89.277146 262.38455 
L 89.598904 262.294727 
L 89.920663 262.38455 
L 90.242422 262.878576 
L 90.564181 263.058221 
L 90.885939 263.821716 
L 91.851215 264.136096 
L 92.172974 264.136096 
L 92.816492 264.540298 
L 93.13825 264.360653 
L 93.781768 264.58521 
L 94.103526 264.854678 
L 94.425285 264.944501 
L 95.068803 264.854678 
L 95.390561 264.989413 
L 96.355837 264.989413 
L 96.999355 265.21397 
L 97.964631 265.258881 
L 98.608148 265.303793 
L 99.251666 265.438527 
L 101.503977 265.393615 
L 102.469253 265.124147 
L 103.434529 265.21397 
L 103.756288 265.169058 
L 105.043323 265.438527 
L 108.582669 265.393615 
L 108.904427 265.707995 
L 110.191462 265.797818 
L 110.83498 265.797818 
L 111.156738 265.483438 
L 113.087291 265.393615 
L 113.730808 265.303793 
L 114.052567 264.89959 
L 115.66136 264.809767 
L 115.983119 264.630121 
L 116.304878 265.034324 
L 117.913672 265.034324 
L 118.23543 265.258881 
L 118.878948 265.21397 
L 120.8095 265.393615 
L 122.740052 265.124147 
L 123.061811 264.89959 
L 123.705328 264.989413 
L 124.027087 265.079235 
L 124.670605 265.034324 
L 125.957639 265.21397 
L 126.279398 265.124147 
L 126.601157 264.719944 
L 126.922916 264.495387 
L 127.566433 264.630121 
L 127.888192 264.405564 
L 128.531709 264.315741 
L 128.853468 264.630121 
L 129.175227 264.675033 
L 129.818744 264.58521 
L 130.140503 264.854678 
L 130.462261 264.360653 
L 131.427538 264.27083 
L 132.392814 263.95645 
L 132.714572 264.27083 
L 133.036331 264.360653 
L 133.679849 264.719944 
L 134.645125 264.540298 
L 134.966884 264.675033 
L 135.93216 264.360653 
L 136.253918 264.540298 
L 136.575677 264.58521 
L 136.897436 264.764855 
L 138.184471 264.89959 
L 138.506229 264.809767 
L 139.149747 264.89959 
L 139.471506 264.764855 
L 140.436782 264.989413 
L 140.75854 265.169058 
L 141.080299 265.169058 
L 141.402058 264.989413 
L 142.367334 265.21397 
L 142.689093 265.034324 
L 143.33261 265.034324 
L 143.654369 265.169058 
L 143.976128 265.169058 
L 144.619645 264.854678 
L 144.941404 264.854678 
L 145.263162 264.540298 
L 145.584921 263.776804 
L 146.228439 263.507336 
L 146.871956 262.249816 
L 147.515473 261.665967 
L 147.837232 262.115082 
L 148.158991 262.115082 
L 148.802508 260.767739 
L 149.124267 260.453359 
L 149.446026 259.689865 
L 149.767784 259.779688 
L 150.089543 258.746725 
L 150.411302 256.815534 
L 150.733061 256.501154 
L 151.054819 257.399382 
L 151.376578 256.546065 
L 151.698337 256.815534 
L 152.020096 256.456242 
L 152.341854 257.264648 
L 152.663613 258.567079 
L 152.985372 258.297611 
L 153.30713 257.264648 
L 153.628889 257.174825 
L 153.950648 255.198722 
L 154.915924 253.806468 
L 155.237683 254.525051 
L 155.559441 254.569963 
L 155.8812 254.300494 
L 156.202959 255.42328 
L 156.524718 255.063988 
L 156.846476 255.243634 
L 157.168235 255.288545 
L 158.133511 252.998063 
L 158.45527 252.818417 
L 158.777029 253.177708 
L 159.098787 253.132797 
L 159.420546 253.492088 
L 159.742305 252.054923 
L 160.064063 251.201606 
L 160.385822 251.291429 
L 160.707581 250.977049 
L 161.351098 248.237452 
L 161.672857 247.473958 
L 161.994616 249.180592 
L 162.638133 251.471074 
L 162.959892 248.821301 
L 163.281651 250.123732 
L 163.603409 249.674618 
L 163.925168 249.674618 
L 164.246927 249.090769 
L 164.568685 248.956035 
L 164.890444 247.518869 
L 165.212203 250.797403 
L 165.533962 249.13568 
L 165.85572 250.303377 
L 166.499238 251.246517 
L 166.820996 251.605809 
L 167.142755 252.728594 
L 167.464514 253.132797 
L 167.786273 254.704697 
L 168.108031 254.48014 
L 169.716825 246.620641 
L 170.038584 247.024844 
L 170.360342 248.551832 
L 170.682101 249.539883 
L 171.00386 251.291429 
L 171.325619 252.010012 
L 171.647377 250.887226 
L 171.969136 252.099834 
L 172.290895 251.605809 
L 172.612653 251.515986 
L 173.256171 253.042974 
L 173.899688 256.321508 
L 174.221447 257.264648 
L 174.543206 257.803585 
L 174.864964 256.635888 
L 175.186723 256.141862 
L 175.508482 255.917305 
L 175.830241 254.48014 
L 176.151999 255.468191 
L 176.473758 254.884343 
L 176.795517 254.929254 
L 177.439034 256.680799 
L 177.760793 256.590977 
L 178.082552 257.534116 
L 178.726069 258.926371 
L 179.047828 258.791636 
L 179.369586 258.207788 
L 179.691345 258.432345 
L 180.013104 258.881459 
L 180.334863 258.881459 
L 180.656621 259.106016 
L 181.300139 259.016193 
L 181.621897 259.375485 
L 181.943656 259.285662 
L 182.265415 259.465308 
L 183.55245 261.621056 
L 183.874208 262.339639 
L 184.839485 262.654019 
L 185.161243 262.564196 
L 186.12652 261.396499 
L 186.770037 261.396499 
L 187.413554 262.294727 
L 187.735313 262.474373 
L 188.057072 263.148044 
L 188.378831 263.462424 
L 188.700589 263.32769 
L 189.022348 263.507336 
L 189.344107 263.01331 
L 189.665865 262.833664 
L 189.987624 263.148044 
L 190.309383 262.38455 
L 190.631142 262.294727 
L 190.9529 262.519284 
L 191.596418 262.429462 
L 191.918176 262.294727 
L 192.239935 261.75579 
L 192.561694 262.159993 
L 192.883453 261.980347 
L 193.52697 261.12703 
L 193.848729 261.037207 
L 194.170487 259.375485 
L 195.135764 257.758674 
L 195.457522 257.668851 
L 195.779281 257.129914 
L 196.10104 255.917305 
L 196.422798 255.647837 
L 196.744557 255.827482 
L 197.066316 256.141862 
L 197.388075 256.231685 
L 198.031592 255.378368 
L 198.353351 255.647837 
L 198.675109 255.692748 
L 198.996868 254.839431 
L 199.318627 254.525051 
L 199.640386 255.1089 
L 199.962144 254.974165 
L 200.92742 255.1089 
L 201.249179 255.962217 
L 201.570938 255.378368 
L 201.892697 255.558014 
L 202.214455 256.411331 
L 202.536214 256.456242 
L 202.857973 257.489205 
L 203.179732 258.028142 
L 203.50149 257.085002 
L 203.823249 257.309559 
L 204.145008 255.647837 
L 204.466766 255.378368 
L 204.788525 254.659785 
L 205.110284 250.527935 
L 205.432043 250.033909 
L 205.753801 248.866212 
L 206.07556 246.800287 
L 206.397319 247.743426 
L 206.719077 247.608692 
L 207.040836 244.195424 
L 207.362595 245.767324 
L 207.684354 244.06069 
L 208.006112 244.914007 
L 208.327871 247.384135 
L 208.64963 246.665552 
L 208.971388 247.114666 
L 209.293147 248.237452 
L 209.614906 248.372186 
L 209.936665 250.438112 
L 210.258423 250.932137 
L 210.580182 250.033909 
L 210.901941 250.033909 
L 211.223699 249.719529 
L 211.545458 251.291429 
L 211.867217 251.875277 
L 212.510734 252.324391 
L 212.832493 252.683683 
L 213.154252 254.075937 
L 213.47601 254.345405 
L 213.797769 254.345405 
L 214.119528 255.647837 
L 214.441287 256.05204 
L 214.763045 257.399382 
L 215.084804 257.893408 
L 215.728321 257.803585 
L 216.05008 259.330573 
L 216.693598 260.408447 
L 217.015356 260.273713 
L 217.337115 260.81265 
L 217.980632 260.902473 
L 218.302391 262.115082 
L 218.945909 263.237867 
L 219.911185 263.32769 
L 220.232944 263.372601 
L 220.554702 262.833664 
L 221.841737 263.731893 
L 222.485255 263.821716 
L 223.450531 262.923487 
L 223.772289 263.01331 
L 224.094048 263.417513 
L 224.737566 263.372601 
L 225.059324 264.181007 
L 225.702842 264.989413 
L 226.0246 264.944501 
L 227.633394 265.303793 
L 228.920429 265.348704 
L 229.563946 265.438527 
L 231.494499 265.348704 
L 232.138016 264.944501 
L 233.74681 264.89959 
L 234.068568 265.169058 
L 235.033844 265.169058 
L 235.355603 264.764855 
L 235.999121 264.675033 
L 236.320879 264.495387 
L 236.964397 264.58521 
L 237.286156 264.540298 
L 237.607914 264.809767 
L 238.57319 264.854678 
L 239.216708 264.719944 
L 239.860225 264.315741 
L 240.503743 264.360653 
L 240.825501 264.58521 
L 241.469019 264.495387 
L 242.112536 264.989413 
L 243.399571 264.181007 
L 244.043089 263.95645 
L 244.364847 263.95645 
L 245.008365 264.27083 
L 245.330123 264.360653 
L 245.651882 264.136096 
L 245.973641 264.136096 
L 246.2954 263.507336 
L 246.617158 263.552247 
L 246.938917 263.148044 
L 247.260676 262.923487 
L 247.582434 261.845613 
L 247.904193 261.665967 
L 248.225952 260.677916 
L 248.869469 259.510219 
L 249.191228 259.375485 
L 249.512987 259.600042 
L 250.156504 259.106016 
L 250.478263 259.330573 
L 250.800022 260.094068 
L 251.12178 259.779688 
L 251.765298 259.86951 
L 252.730574 258.342522 
L 253.052333 258.252699 
L 253.374091 257.893408 
L 253.69585 257.893408 
L 254.017609 257.713762 
L 254.339368 258.207788 
L 254.661126 258.477256 
L 254.982885 259.150928 
L 255.304644 259.240751 
L 255.626402 259.061105 
L 255.948161 259.420396 
L 256.26992 259.420396 
L 256.591679 259.779688 
L 256.913437 259.959333 
L 257.235196 259.465308 
L 257.556955 259.644953 
L 257.878713 260.453359 
L 258.200472 260.273713 
L 258.522231 260.453359 
L 258.84399 260.453359 
L 259.165748 260.318625 
L 259.487507 260.588093 
L 259.809266 260.004245 
L 260.452783 260.318625 
L 260.774542 260.273713 
L 261.096301 259.734776 
L 261.739818 260.318625 
L 263.026853 260.049156 
L 263.348612 260.453359 
L 263.67037 259.779688 
L 263.992129 259.824599 
L 264.313888 259.420396 
L 264.635646 258.522168 
L 265.279164 258.073054 
L 265.922681 255.827482 
L 266.24444 253.581911 
L 266.566199 252.90824 
L 266.887957 250.797403 
L 267.531475 250.348289 
L 267.853234 249.360238 
L 268.174992 247.429046 
L 268.496751 243.297196 
L 268.81851 241.54565 
L 269.140268 242.398967 
L 269.783786 239.839016 
L 270.105545 241.815119 
L 270.749062 239.749193 
L 271.070821 235.662254 
L 271.39258 236.380837 
L 271.714338 236.156279 
L 272.357856 222.009181 
L 272.679614 216.934191 
L 273.001373 215.497025 
L 273.323132 213.4311 
L 273.644891 207.098589 
L 274.288408 202.607447 
L 274.610167 194.568302 
L 274.931925 189.493312 
L 275.897202 186.708803 
L 276.21896 182.038015 
L 276.862478 199.912762 
L 277.184236 202.876915 
L 277.505995 201.260104 
L 277.827754 203.730232 
L 278.471271 210.960971 
L 279.114789 212.667605 
L 279.436547 216.619811 
L 279.758306 218.461179 
L 280.080065 221.604979 
L 280.401824 222.054093 
L 280.723582 225.197892 
L 281.045341 224.434398 
L 282.332376 234.719114 
L 282.654135 234.943671 
L 282.975893 237.279065 
L 283.619411 233.551417 
L 284.262928 240.153396 
L 284.584687 241.051624 
L 284.906446 242.848081 
L 285.228204 242.354056 
L 285.549963 245.902058 
L 286.19348 248.731478 
L 286.515239 249.629706 
L 286.836998 250.033909 
L 287.158757 250.842315 
L 287.480515 252.010012 
L 287.802274 252.504037 
L 288.124033 252.504037 
L 289.089309 253.042974 
L 289.732826 252.728594 
L 291.019861 246.440995 
L 291.34162 247.473958 
L 291.985137 242.668436 
L 292.306896 242.084587 
L 292.628655 241.186359 
L 293.593931 232.563366 
L 293.91569 232.06934 
L 294.237448 231.216023 
L 294.559207 228.745895 
L 294.880966 228.745895 
L 295.202725 223.401435 
L 295.524483 220.302547 
L 296.168001 210.736414 
L 296.489759 206.874032 
L 296.811518 206.739298 
L 297.133277 196.499493 
L 297.455036 191.918528 
L 298.420312 165.869903 
L 298.74207 160.39071 
L 299.063829 151.049134 
L 299.385588 145.031003 
L 299.707347 141.932115 
L 300.029105 141.527912 
L 300.350864 138.60867 
L 300.672623 139.506898 
L 300.994381 144.402243 
L 301.31614 155.046251 
L 301.637899 132.006691 
L 301.959658 125.539446 
L 302.281416 116.646984 
L 302.603175 113.593008 
L 302.924934 114.715793 
L 303.568451 92.349905 
L 303.89021 121.587241 
L 304.211969 117.45539 
L 304.855486 135.869073 
L 305.177245 134.431908 
L 305.499004 146.872372 
L 305.820762 139.192518 
L 306.142521 128.368866 
L 306.46428 132.500716 
L 307.107797 118.578176 
L 307.429556 117.006276 
L 307.751315 110.224651 
L 308.073073 106.676649 
L 308.394832 106.137712 
L 308.716591 112.200754 
L 309.360108 109.012043 
L 309.681867 116.557162 
L 310.003626 120.689012 
L 310.325384 118.71291 
L 310.647143 114.31159 
L 310.968902 108.068903 
L 311.29066 113.772653 
L 311.612419 114.042122 
L 311.934178 113.548096 
L 312.255937 105.46404 
L 312.577695 106.047889 
L 312.899454 112.694779 
L 313.221213 109.640802 
L 313.542971 99.535732 
L 313.86473 102.814266 
L 314.186489 101.017809 
L 314.508248 108.158726 
L 314.830006 94.685299 
L 315.151765 73.801487 
L 315.473524 63.965886 
L 315.795282 66.480926 
L 316.117041 53.770993 
L 316.4388 52.154182 
L 316.760559 52.42365 
L 317.082317 59.519655 
L 317.404076 82.73886 
L 317.725835 97.110516 
L 318.047593 105.508952 
L 318.369352 123.787901 
L 318.691111 130.794082 
L 319.01287 142.336318 
L 319.334628 143.234546 
L 319.656387 148.354449 
L 319.978146 160.121241 
L 320.299904 159.178101 
L 320.621663 165.286055 
L 320.943422 161.558407 
L 321.265181 161.558407 
L 321.586939 175.840239 
L 321.908698 182.532041 
L 322.230457 183.969207 
L 322.552216 193.265871 
L 322.873974 196.724051 
L 323.195733 202.113421 
L 323.517492 195.466531 
L 323.83925 208.625577 
L 324.482768 202.472713 
L 324.804527 204.089524 
L 325.448044 199.463647 
L 325.769803 201.43975 
L 326.091561 196.364759 
L 326.41332 203.460764 
L 326.735079 205.706335 
L 327.056838 210.152566 
L 327.378596 210.781326 
L 327.700355 218.371356 
L 328.022114 223.042144 
L 328.343872 218.730648 
L 328.665631 216.125785 
L 328.98739 221.066041 
L 329.309149 215.047911 
L 329.630907 215.317379 
L 329.952666 208.131552 
L 330.274425 208.131552 
L 330.596183 213.700568 
L 330.917942 211.185529 
L 331.56146 200.49661 
L 331.883218 198.700153 
L 332.204977 201.484661 
L 332.526736 201.484661 
L 332.848494 191.199946 
L 333.170253 191.738883 
L 333.492012 190.70592 
L 333.813771 204.942841 
L 334.135529 207.727349 
L 334.457288 207.951906 
L 334.779047 207.951906 
L 335.100805 220.482193 
L 335.422564 225.242804 
L 335.744323 235.21314 
L 336.066082 238.940788 
L 336.38784 241.006713 
L 336.709599 245.183475 
L 337.031358 245.183475 
L 337.353116 243.836133 
L 337.674875 246.890109 
L 337.996634 245.138564 
L 338.318393 240.557599 
L 338.640151 240.91689 
L 339.283669 240.91689 
L 339.605428 247.878161 
L 339.927186 240.737244 
L 340.248945 241.186359 
L 340.892462 240.60251 
L 341.53598 240.60251 
L 341.857739 232.743011 
L 342.179497 239.883927 
L 342.501256 239.255168 
L 342.823015 244.195424 
L 343.144773 242.937904 
L 343.788291 242.937904 
L 344.11005 241.815119 
L 344.431808 232.204074 
L 344.753567 227.623109 
L 345.075326 216.350342 
L 345.397084 215.676671 
L 346.040602 215.676671 
L 346.362361 208.670489 
L 346.684119 206.874032 
L 347.005878 208.041729 
L 347.327637 209.97292 
L 347.649395 208.131552 
L 348.292913 208.131552 
L 348.614672 206.245272 
L 348.93643 202.966738 
L 349.258189 193.310782 
L 349.579948 192.143085 
L 349.901706 192.27782 
L 350.545224 192.27782 
L 350.866983 188.011235 
L 351.188741 192.5922 
L 351.5105 202.832004 
L 351.832259 197.487545 
L 352.154017 196.679139 
L 352.797535 196.679139 
L 353.119294 198.430685 
L 353.441052 193.490428 
L 353.762811 192.187997 
L 354.406328 199.149267 
L 355.049846 199.149267 
L 355.371605 200.316964 
L 355.693363 208.445932 
L 356.015122 209.97292 
L 356.336881 215.676671 
L 356.65864 218.012065 
L 357.302157 218.012065 
L 357.623916 228.700983 
L 357.945674 231.036377 
L 358.267433 234.629291 
L 358.589192 236.291014 
L 358.910951 237.189242 
L 359.554468 237.189242 
L 359.876227 236.695216 
L 360.197985 240.557599 
L 360.519744 241.23127 
L 361.163262 243.836133 
L 361.806779 243.836133 
L 362.128538 252.863329 
L 362.450296 250.123732 
L 362.772055 251.111783 
L 363.093814 251.201606 
L 363.415573 251.426163 
L 364.05909 251.426163 
L 364.380849 245.048741 
L 364.702607 248.641655 
L 365.024366 248.731478 
L 365.667884 247.159578 
L 366.311401 247.159578 
L 366.63316 246.485907 
L 366.954918 246.261349 
L 367.276677 245.587678 
L 367.598436 246.979932 
L 367.920195 247.384135 
L 368.563712 247.384135 
L 368.885471 249.629706 
L 369.207229 249.000946 
L 369.528988 250.303377 
L 369.850747 250.932137 
L 370.172506 250.70758 
L 370.816023 250.70758 
L 371.137782 248.596743 
L 371.45954 249.13568 
L 371.781299 247.698515 
L 372.103058 245.542767 
L 372.424817 244.869095 
L 373.068334 244.869095 
L 373.390093 242.443879 
L 374.03361 239.928839 
L 374.355369 236.515571 
L 374.677128 236.874862 
L 375.320645 236.874862 
L 375.642404 232.518454 
L 376.285921 217.473128 
L 376.60768 215.092822 
L 376.929439 208.535755 
L 377.572956 208.535755 
L 377.894715 222.233738 
L 378.216474 210.60168 
L 378.538232 209.793274 
L 378.859991 204.134435 
L 379.18175 201.260104 
L 379.825267 201.260104 
L 380.147026 180.690673 
L 380.468785 181.678724 
L 380.790543 184.328498 
L 381.434061 193.670074 
L 382.077578 193.625162 
L 382.399337 196.724051 
L 382.721096 204.897929 
L 383.042854 206.200361 
L 383.364613 210.556769 
L 383.686372 212.218491 
L 384.329889 212.263403 
L 384.973407 229.599212 
L 385.295165 234.494557 
L 385.938683 240.243219 
L 386.5822 240.243219 
L 386.903959 242.039676 
L 387.225718 248.776389 
L 387.547476 248.686566 
L 387.869235 249.000946 
L 388.190994 249.899175 
L 388.834511 249.899175 
L 389.15627 251.9651 
L 389.478029 248.372186 
L 389.799787 251.560897 
L 390.121546 253.22262 
L 390.443305 252.90824 
L 391.086822 252.90824 
L 391.408581 253.626823 
L 392.052098 256.05204 
L 392.373857 256.680799 
L 392.695616 257.623939 
L 393.339133 257.623939 
L 394.304409 260.273713 
L 394.626168 259.465308 
L 394.947927 259.240751 
L 395.591444 259.240751 
L 395.913203 259.959333 
L 396.234962 259.420396 
L 396.55672 259.195839 
L 396.878479 260.004245 
L 397.200238 260.363536 
L 397.843755 260.363536 
L 398.165514 259.375485 
L 398.487273 259.600042 
L 398.487273 259.600042 
" clip-path="url(#pfb9364f6ad)" style="fill: none; stroke: #1f77b4; stroke-width: 1.5; stroke-linecap: square"/>
   </g>
   <g id="patch_3">
    <path d="M 57.6 276.48 
L 57.6 41.472 
" style="fill: none; stroke: #000000; stroke-width: 0.8; stroke-linejoin: miter; stroke-linecap: square"/>
   </g>
   <g id="patch_4">
    <path d="M 414.72 276.48 
L 414.72 41.472 
" style="fill: none; stroke: #000000; stroke-width: 0.8; stroke-linejoin: miter; stroke-linecap: square"/>
   </g>
   <g id="patch_5">
    <path d="M 57.6 276.48 
L 414.72 276.48 
" style="fill: none; stroke: #000000; stroke-width: 0.8; stroke-linejoin: miter; stroke-linecap: square"/>
   </g>
   <g id="patch_6">
    <path d="M 57.6 41.472 
L 414.72 41.472 
" style="fill: none; stroke: #000000; stroke-width: 0.8; stroke-linejoin: miter; stroke-linecap: square"/>
   </g>
  </g>
  <g id="text_19">
   <!-- Inzidenzverlauf LK Landshut -->
   <g transform="translate(103.4775 20.589187) scale(0.18 -0.18)">
    <defs>
     <path id="DejaVuSans-76" d="M 191 3500 
L 800 3500 
L 1894 563 
L 2988 3500 
L 3597 3500 
L 2284 0 
L 1503 0 
L 191 3500 
z
" transform="scale(0.015625)"/>
     <path id="DejaVuSans-6c" d="M 603 4863 
L 1178 4863 
L 1178 0 
L 603 0 
L 603 4863 
z
" transform="scale(0.015625)"/>
     <path id="DejaVuSans-75" d="M 544 1381 
L 544 3500 
L 1119 3500 
L 1119 1403 
Q 1119 906 1312 657 
Q 1506 409 1894 409 
Q 2359 409 2629 706 
Q 2900 1003 2900 1516 
L 2900 3500 
L 3475 3500 
L 3475 0 
L 2900 0 
L 2900 538 
Q 2691 219 2414 64 
Q 2138 -91 1772 -91 
Q 1169 -91 856 284 
Q 544 659 544 1381 
z
M 1991 3584 
L 1991 3584 
z
" transform="scale(0.015625)"/>
     <path id="DejaVuSans-66" d="M 2375 4863 
L 2375 4384 
L 1825 4384 
Q 1516 4384 1395 4259 
Q 1275 4134 1275 3809 
L 1275 3500 
L 2222 3500 
L 2222 3053 
L 1275 3053 
L 1275 0 
L 697 0 
L 697 3053 
L 147 3053 
L 147 3500 
L 697 3500 
L 697 3744 
Q 697 4328 969 4595 
Q 1241 4863 1831 4863 
L 2375 4863 
z
" transform="scale(0.015625)"/>
     <path id="DejaVuSans-4c" d="M 628 4666 
L 1259 4666 
L 1259 531 
L 3531 531 
L 3531 0 
L 628 0 
L 628 4666 
z
" transform="scale(0.015625)"/>
     <path id="DejaVuSans-4b" d="M 628 4666 
L 1259 4666 
L 1259 2694 
L 3353 4666 
L 4166 4666 
L 1850 2491 
L 4331 0 
L 3500 0 
L 1259 2247 
L 1259 0 
L 628 0 
L 628 4666 
z
" transform="scale(0.015625)"/>
     <path id="DejaVuSans-73" d="M 2834 3397 
L 2834 2853 
Q 2591 2978 2328 3040 
Q 2066 3103 1784 3103 
Q 1356 3103 1142 2972 
Q 928 2841 928 2578 
Q 928 2378 1081 2264 
Q 1234 2150 1697 2047 
L 1894 2003 
Q 2506 1872 2764 1633 
Q 3022 1394 3022 966 
Q 3022 478 2636 193 
Q 2250 -91 1575 -91 
Q 1294 -91 989 -36 
Q 684 19 347 128 
L 347 722 
Q 666 556 975 473 
Q 1284 391 1588 391 
Q 1994 391 2212 530 
Q 2431 669 2431 922 
Q 2431 1156 2273 1281 
Q 2116 1406 1581 1522 
L 1381 1569 
Q 847 1681 609 1914 
Q 372 2147 372 2553 
Q 372 3047 722 3315 
Q 1072 3584 1716 3584 
Q 2034 3584 2315 3537 
Q 2597 3491 2834 3397 
z
" transform="scale(0.015625)"/>
     <path id="DejaVuSans-74" d="M 1172 4494 
L 1172 3500 
L 2356 3500 
L 2356 3053 
L 1172 3053 
L 1172 1153 
Q 1172 725 1289 603 
Q 1406 481 1766 481 
L 2356 481 
L 2356 0 
L 1766 0 
Q 1100 0 847 248 
Q 594 497 594 1153 
L 594 3053 
L 172 3053 
L 172 3500 
L 594 3500 
L 594 4494 
L 1172 4494 
z
" transform="scale(0.015625)"/>
    </defs>
    <use xlink:href="#DejaVuSans-49"/>
    <use xlink:href="#DejaVuSans-6e" x="29.492188"/>
    <use xlink:href="#DejaVuSans-7a" x="92.871094"/>
    <use xlink:href="#DejaVuSans-69" x="145.361328"/>
    <use xlink:href="#DejaVuSans-64" x="173.144531"/>
    <use xlink:href="#DejaVuSans-65" x="236.621094"/>
    <use xlink:href="#DejaVuSans-6e" x="298.144531"/>
    <use xlink:href="#DejaVuSans-7a" x="361.523438"/>
    <use xlink:href="#DejaVuSans-76" x="414.013672"/>
    <use xlink:href="#DejaVuSans-65" x="473.193359"/>
    <use xlink:href="#DejaVuSans-72" x="534.716797"/>
    <use xlink:href="#DejaVuSans-6c" x="575.830078"/>
    <use xlink:href="#DejaVuSans-61" x="603.613281"/>
    <use xlink:href="#DejaVuSans-75" x="664.892578"/>
    <use xlink:href="#DejaVuSans-66" x="728.271484"/>
    <use xlink:href="#DejaVuSans-20" x="763.476562"/>
    <use xlink:href="#DejaVuSans-4c" x="795.263672"/>
    <use xlink:href="#DejaVuSans-4b" x="850.976562"/>
    <use xlink:href="#DejaVuSans-20" x="916.552734"/>
    <use xlink:href="#DejaVuSans-4c" x="948.339844"/>
    <use xlink:href="#DejaVuSans-61" x="1004.052734"/>
    <use xlink:href="#DejaVuSans-6e" x="1065.332031"/>
    <use xlink:href="#DejaVuSans-64" x="1128.710938"/>
    <use xlink:href="#DejaVuSans-73" x="1192.1875"/>
    <use xlink:href="#DejaVuSans-68" x="1244.287109"/>
    <use xlink:href="#DejaVuSans-75" x="1307.666016"/>
    <use xlink:href="#DejaVuSans-74" x="1371.044922"/>
   </g>
  </g>
 </g>
 <defs>
  <clipPath id="pfb9364f6ad">
   <rect x="57.6" y="41.472" width="357.12" height="235.008"/>
  </clipPath>
 </defs>
</svg>
