<?xml version="1.0" encoding="utf-8" standalone="no"?>
<!DOCTYPE svg PUBLIC "-//W3C//DTD SVG 1.1//EN"
  "http://www.w3.org/Graphics/SVG/1.1/DTD/svg11.dtd">
<svg height="345.6pt" version="1.1" viewBox="0 0 460.8 345.6" width="460.8pt" xmlns="http://www.w3.org/2000/svg" xmlns:xlink="http://www.w3.org/1999/xlink">
 <metadata>
  <rdf:RDF xmlns:cc="http://creativecommons.org/ns#" xmlns:dc="http://purl.org/dc/elements/1.1/" xmlns:rdf="http://www.w3.org/1999/02/22-rdf-syntax-ns#">
   <cc:Work>
    <dc:type rdf:resource="http://purl.org/dc/dcmitype/StillImage"/>
    <dc:date>2021-04-29T09:06:09.525115</dc:date>
    <dc:format>image/svg+xml</dc:format>
    <dc:creator>
     <cc:Agent>
      <dc:title>Matplotlib v3.4.1, https://matplotlib.org/</dc:title>
     </cc:Agent>
    </dc:creator>
   </cc:Work>
  </rdf:RDF>
 </metadata>
 <defs>
  <style type="text/css">*{stroke-linecap:butt;stroke-linejoin:round;}</style>
 </defs>
 <g id="figure_1">
  <g id="patch_1">
   <path d="M 0 345.6 
L 460.8 345.6 
L 460.8 0 
L 0 0 
z
" style="fill:#ffffff;"/>
  </g>
  <g id="axes_1">
   <g id="patch_2">
    <path d="M 57.6 276.48 
L 414.72 276.48 
L 414.72 41.472 
L 57.6 41.472 
z
" style="fill:#ffffff;"/>
   </g>
   <g id="matplotlib.axis_1">
    <g id="xtick_1">
     <g id="line2d_1">
      <path clip-path="url(#p31c26b9a2a)" d="M 60.209289 276.48 
L 60.209289 41.472 
" style="fill:none;stroke:#808080;stroke-dasharray:2.96,1.28;stroke-dashoffset:0;stroke-width:0.8;"/>
     </g>
     <g id="line2d_2">
      <defs>
       <path d="M 0 0 
L 0 3.5 
" id="m1d9697dc32" style="stroke:#000000;stroke-width:0.8;"/>
      </defs>
      <g>
       <use style="stroke:#000000;stroke-width:0.8;" x="60.209289" xlink:href="#m1d9697dc32" y="276.48"/>
      </g>
     </g>
     <g id="text_1">
      <!-- 14.02.2020 -->
      <g transform="translate(9.584078 318.688565)rotate(-30)scale(0.1 -0.1)">
       <defs>
        <path d="M 794 531 
L 1825 531 
L 1825 4091 
L 703 3866 
L 703 4441 
L 1819 4666 
L 2450 4666 
L 2450 531 
L 3481 531 
L 3481 0 
L 794 0 
L 794 531 
z
" id="DejaVuSans-31" transform="scale(0.015625)"/>
        <path d="M 2419 4116 
L 825 1625 
L 2419 1625 
L 2419 4116 
z
M 2253 4666 
L 3047 4666 
L 3047 1625 
L 3713 1625 
L 3713 1100 
L 3047 1100 
L 3047 0 
L 2419 0 
L 2419 1100 
L 313 1100 
L 313 1709 
L 2253 4666 
z
" id="DejaVuSans-34" transform="scale(0.015625)"/>
        <path d="M 684 794 
L 1344 794 
L 1344 0 
L 684 0 
L 684 794 
z
" id="DejaVuSans-2e" transform="scale(0.015625)"/>
        <path d="M 2034 4250 
Q 1547 4250 1301 3770 
Q 1056 3291 1056 2328 
Q 1056 1369 1301 889 
Q 1547 409 2034 409 
Q 2525 409 2770 889 
Q 3016 1369 3016 2328 
Q 3016 3291 2770 3770 
Q 2525 4250 2034 4250 
z
M 2034 4750 
Q 2819 4750 3233 4129 
Q 3647 3509 3647 2328 
Q 3647 1150 3233 529 
Q 2819 -91 2034 -91 
Q 1250 -91 836 529 
Q 422 1150 422 2328 
Q 422 3509 836 4129 
Q 1250 4750 2034 4750 
z
" id="DejaVuSans-30" transform="scale(0.015625)"/>
        <path d="M 1228 531 
L 3431 531 
L 3431 0 
L 469 0 
L 469 531 
Q 828 903 1448 1529 
Q 2069 2156 2228 2338 
Q 2531 2678 2651 2914 
Q 2772 3150 2772 3378 
Q 2772 3750 2511 3984 
Q 2250 4219 1831 4219 
Q 1534 4219 1204 4116 
Q 875 4013 500 3803 
L 500 4441 
Q 881 4594 1212 4672 
Q 1544 4750 1819 4750 
Q 2544 4750 2975 4387 
Q 3406 4025 3406 3419 
Q 3406 3131 3298 2873 
Q 3191 2616 2906 2266 
Q 2828 2175 2409 1742 
Q 1991 1309 1228 531 
z
" id="DejaVuSans-32" transform="scale(0.015625)"/>
       </defs>
       <use xlink:href="#DejaVuSans-31"/>
       <use x="63.623047" xlink:href="#DejaVuSans-34"/>
       <use x="127.246094" xlink:href="#DejaVuSans-2e"/>
       <use x="159.033203" xlink:href="#DejaVuSans-30"/>
       <use x="222.65625" xlink:href="#DejaVuSans-32"/>
       <use x="286.279297" xlink:href="#DejaVuSans-2e"/>
       <use x="318.066406" xlink:href="#DejaVuSans-32"/>
       <use x="381.689453" xlink:href="#DejaVuSans-30"/>
       <use x="445.3125" xlink:href="#DejaVuSans-32"/>
       <use x="508.935547" xlink:href="#DejaVuSans-30"/>
      </g>
     </g>
    </g>
    <g id="xtick_2">
     <g id="line2d_3">
      <path clip-path="url(#p31c26b9a2a)" d="M 96.367497 276.48 
L 96.367497 41.472 
" style="fill:none;stroke:#808080;stroke-dasharray:2.96,1.28;stroke-dashoffset:0;stroke-width:0.8;"/>
     </g>
     <g id="line2d_4">
      <g>
       <use style="stroke:#000000;stroke-width:0.8;" x="96.367497" xlink:href="#m1d9697dc32" y="276.48"/>
      </g>
     </g>
     <g id="text_2">
      <!-- 01.04.2020 -->
      <g transform="translate(45.742286 318.688565)rotate(-30)scale(0.1 -0.1)">
       <use xlink:href="#DejaVuSans-30"/>
       <use x="63.623047" xlink:href="#DejaVuSans-31"/>
       <use x="127.246094" xlink:href="#DejaVuSans-2e"/>
       <use x="159.033203" xlink:href="#DejaVuSans-30"/>
       <use x="222.65625" xlink:href="#DejaVuSans-34"/>
       <use x="286.279297" xlink:href="#DejaVuSans-2e"/>
       <use x="318.066406" xlink:href="#DejaVuSans-32"/>
       <use x="381.689453" xlink:href="#DejaVuSans-30"/>
       <use x="445.3125" xlink:href="#DejaVuSans-32"/>
       <use x="508.935547" xlink:href="#DejaVuSans-30"/>
      </g>
     </g>
    </g>
    <g id="xtick_3">
     <g id="line2d_5">
      <path clip-path="url(#p31c26b9a2a)" d="M 132.525704 276.48 
L 132.525704 41.472 
" style="fill:none;stroke:#808080;stroke-dasharray:2.96,1.28;stroke-dashoffset:0;stroke-width:0.8;"/>
     </g>
     <g id="line2d_6">
      <g>
       <use style="stroke:#000000;stroke-width:0.8;" x="132.525704" xlink:href="#m1d9697dc32" y="276.48"/>
      </g>
     </g>
     <g id="text_3">
      <!-- 18.05.2020 -->
      <g transform="translate(81.900494 318.688565)rotate(-30)scale(0.1 -0.1)">
       <defs>
        <path d="M 2034 2216 
Q 1584 2216 1326 1975 
Q 1069 1734 1069 1313 
Q 1069 891 1326 650 
Q 1584 409 2034 409 
Q 2484 409 2743 651 
Q 3003 894 3003 1313 
Q 3003 1734 2745 1975 
Q 2488 2216 2034 2216 
z
M 1403 2484 
Q 997 2584 770 2862 
Q 544 3141 544 3541 
Q 544 4100 942 4425 
Q 1341 4750 2034 4750 
Q 2731 4750 3128 4425 
Q 3525 4100 3525 3541 
Q 3525 3141 3298 2862 
Q 3072 2584 2669 2484 
Q 3125 2378 3379 2068 
Q 3634 1759 3634 1313 
Q 3634 634 3220 271 
Q 2806 -91 2034 -91 
Q 1263 -91 848 271 
Q 434 634 434 1313 
Q 434 1759 690 2068 
Q 947 2378 1403 2484 
z
M 1172 3481 
Q 1172 3119 1398 2916 
Q 1625 2713 2034 2713 
Q 2441 2713 2670 2916 
Q 2900 3119 2900 3481 
Q 2900 3844 2670 4047 
Q 2441 4250 2034 4250 
Q 1625 4250 1398 4047 
Q 1172 3844 1172 3481 
z
" id="DejaVuSans-38" transform="scale(0.015625)"/>
        <path d="M 691 4666 
L 3169 4666 
L 3169 4134 
L 1269 4134 
L 1269 2991 
Q 1406 3038 1543 3061 
Q 1681 3084 1819 3084 
Q 2600 3084 3056 2656 
Q 3513 2228 3513 1497 
Q 3513 744 3044 326 
Q 2575 -91 1722 -91 
Q 1428 -91 1123 -41 
Q 819 9 494 109 
L 494 744 
Q 775 591 1075 516 
Q 1375 441 1709 441 
Q 2250 441 2565 725 
Q 2881 1009 2881 1497 
Q 2881 1984 2565 2268 
Q 2250 2553 1709 2553 
Q 1456 2553 1204 2497 
Q 953 2441 691 2322 
L 691 4666 
z
" id="DejaVuSans-35" transform="scale(0.015625)"/>
       </defs>
       <use xlink:href="#DejaVuSans-31"/>
       <use x="63.623047" xlink:href="#DejaVuSans-38"/>
       <use x="127.246094" xlink:href="#DejaVuSans-2e"/>
       <use x="159.033203" xlink:href="#DejaVuSans-30"/>
       <use x="222.65625" xlink:href="#DejaVuSans-35"/>
       <use x="286.279297" xlink:href="#DejaVuSans-2e"/>
       <use x="318.066406" xlink:href="#DejaVuSans-32"/>
       <use x="381.689453" xlink:href="#DejaVuSans-30"/>
       <use x="445.3125" xlink:href="#DejaVuSans-32"/>
       <use x="508.935547" xlink:href="#DejaVuSans-30"/>
      </g>
     </g>
    </g>
    <g id="xtick_4">
     <g id="line2d_7">
      <path clip-path="url(#p31c26b9a2a)" d="M 168.683912 276.48 
L 168.683912 41.472 
" style="fill:none;stroke:#808080;stroke-dasharray:2.96,1.28;stroke-dashoffset:0;stroke-width:0.8;"/>
     </g>
     <g id="line2d_8">
      <g>
       <use style="stroke:#000000;stroke-width:0.8;" x="168.683912" xlink:href="#m1d9697dc32" y="276.48"/>
      </g>
     </g>
     <g id="text_4">
      <!-- 04.07.2020 -->
      <g transform="translate(118.058701 318.688565)rotate(-30)scale(0.1 -0.1)">
       <defs>
        <path d="M 525 4666 
L 3525 4666 
L 3525 4397 
L 1831 0 
L 1172 0 
L 2766 4134 
L 525 4134 
L 525 4666 
z
" id="DejaVuSans-37" transform="scale(0.015625)"/>
       </defs>
       <use xlink:href="#DejaVuSans-30"/>
       <use x="63.623047" xlink:href="#DejaVuSans-34"/>
       <use x="127.246094" xlink:href="#DejaVuSans-2e"/>
       <use x="159.033203" xlink:href="#DejaVuSans-30"/>
       <use x="222.65625" xlink:href="#DejaVuSans-37"/>
       <use x="286.279297" xlink:href="#DejaVuSans-2e"/>
       <use x="318.066406" xlink:href="#DejaVuSans-32"/>
       <use x="381.689453" xlink:href="#DejaVuSans-30"/>
       <use x="445.3125" xlink:href="#DejaVuSans-32"/>
       <use x="508.935547" xlink:href="#DejaVuSans-30"/>
      </g>
     </g>
    </g>
    <g id="xtick_5">
     <g id="line2d_9">
      <path clip-path="url(#p31c26b9a2a)" d="M 204.84212 276.48 
L 204.84212 41.472 
" style="fill:none;stroke:#808080;stroke-dasharray:2.96,1.28;stroke-dashoffset:0;stroke-width:0.8;"/>
     </g>
     <g id="line2d_10">
      <g>
       <use style="stroke:#000000;stroke-width:0.8;" x="204.84212" xlink:href="#m1d9697dc32" y="276.48"/>
      </g>
     </g>
     <g id="text_5">
      <!-- 20.08.2020 -->
      <g transform="translate(154.216909 318.688565)rotate(-30)scale(0.1 -0.1)">
       <use xlink:href="#DejaVuSans-32"/>
       <use x="63.623047" xlink:href="#DejaVuSans-30"/>
       <use x="127.246094" xlink:href="#DejaVuSans-2e"/>
       <use x="159.033203" xlink:href="#DejaVuSans-30"/>
       <use x="222.65625" xlink:href="#DejaVuSans-38"/>
       <use x="286.279297" xlink:href="#DejaVuSans-2e"/>
       <use x="318.066406" xlink:href="#DejaVuSans-32"/>
       <use x="381.689453" xlink:href="#DejaVuSans-30"/>
       <use x="445.3125" xlink:href="#DejaVuSans-32"/>
       <use x="508.935547" xlink:href="#DejaVuSans-30"/>
      </g>
     </g>
    </g>
    <g id="xtick_6">
     <g id="line2d_11">
      <path clip-path="url(#p31c26b9a2a)" d="M 241.000327 276.48 
L 241.000327 41.472 
" style="fill:none;stroke:#808080;stroke-dasharray:2.96,1.28;stroke-dashoffset:0;stroke-width:0.8;"/>
     </g>
     <g id="line2d_12">
      <g>
       <use style="stroke:#000000;stroke-width:0.8;" x="241.000327" xlink:href="#m1d9697dc32" y="276.48"/>
      </g>
     </g>
     <g id="text_6">
      <!-- 06.10.2020 -->
      <g transform="translate(190.375117 318.688565)rotate(-30)scale(0.1 -0.1)">
       <defs>
        <path d="M 2113 2584 
Q 1688 2584 1439 2293 
Q 1191 2003 1191 1497 
Q 1191 994 1439 701 
Q 1688 409 2113 409 
Q 2538 409 2786 701 
Q 3034 994 3034 1497 
Q 3034 2003 2786 2293 
Q 2538 2584 2113 2584 
z
M 3366 4563 
L 3366 3988 
Q 3128 4100 2886 4159 
Q 2644 4219 2406 4219 
Q 1781 4219 1451 3797 
Q 1122 3375 1075 2522 
Q 1259 2794 1537 2939 
Q 1816 3084 2150 3084 
Q 2853 3084 3261 2657 
Q 3669 2231 3669 1497 
Q 3669 778 3244 343 
Q 2819 -91 2113 -91 
Q 1303 -91 875 529 
Q 447 1150 447 2328 
Q 447 3434 972 4092 
Q 1497 4750 2381 4750 
Q 2619 4750 2861 4703 
Q 3103 4656 3366 4563 
z
" id="DejaVuSans-36" transform="scale(0.015625)"/>
       </defs>
       <use xlink:href="#DejaVuSans-30"/>
       <use x="63.623047" xlink:href="#DejaVuSans-36"/>
       <use x="127.246094" xlink:href="#DejaVuSans-2e"/>
       <use x="159.033203" xlink:href="#DejaVuSans-31"/>
       <use x="222.65625" xlink:href="#DejaVuSans-30"/>
       <use x="286.279297" xlink:href="#DejaVuSans-2e"/>
       <use x="318.066406" xlink:href="#DejaVuSans-32"/>
       <use x="381.689453" xlink:href="#DejaVuSans-30"/>
       <use x="445.3125" xlink:href="#DejaVuSans-32"/>
       <use x="508.935547" xlink:href="#DejaVuSans-30"/>
      </g>
     </g>
    </g>
    <g id="xtick_7">
     <g id="line2d_13">
      <path clip-path="url(#p31c26b9a2a)" d="M 277.158535 276.48 
L 277.158535 41.472 
" style="fill:none;stroke:#808080;stroke-dasharray:2.96,1.28;stroke-dashoffset:0;stroke-width:0.8;"/>
     </g>
     <g id="line2d_14">
      <g>
       <use style="stroke:#000000;stroke-width:0.8;" x="277.158535" xlink:href="#m1d9697dc32" y="276.48"/>
      </g>
     </g>
     <g id="text_7">
      <!-- 22.11.2020 -->
      <g transform="translate(226.533324 318.688565)rotate(-30)scale(0.1 -0.1)">
       <use xlink:href="#DejaVuSans-32"/>
       <use x="63.623047" xlink:href="#DejaVuSans-32"/>
       <use x="127.246094" xlink:href="#DejaVuSans-2e"/>
       <use x="159.033203" xlink:href="#DejaVuSans-31"/>
       <use x="222.65625" xlink:href="#DejaVuSans-31"/>
       <use x="286.279297" xlink:href="#DejaVuSans-2e"/>
       <use x="318.066406" xlink:href="#DejaVuSans-32"/>
       <use x="381.689453" xlink:href="#DejaVuSans-30"/>
       <use x="445.3125" xlink:href="#DejaVuSans-32"/>
       <use x="508.935547" xlink:href="#DejaVuSans-30"/>
      </g>
     </g>
    </g>
    <g id="xtick_8">
     <g id="line2d_15">
      <path clip-path="url(#p31c26b9a2a)" d="M 313.316743 276.48 
L 313.316743 41.472 
" style="fill:none;stroke:#808080;stroke-dasharray:2.96,1.28;stroke-dashoffset:0;stroke-width:0.8;"/>
     </g>
     <g id="line2d_16">
      <g>
       <use style="stroke:#000000;stroke-width:0.8;" x="313.316743" xlink:href="#m1d9697dc32" y="276.48"/>
      </g>
     </g>
     <g id="text_8">
      <!-- 08.01.2021 -->
      <g transform="translate(262.691532 318.688565)rotate(-30)scale(0.1 -0.1)">
       <use xlink:href="#DejaVuSans-30"/>
       <use x="63.623047" xlink:href="#DejaVuSans-38"/>
       <use x="127.246094" xlink:href="#DejaVuSans-2e"/>
       <use x="159.033203" xlink:href="#DejaVuSans-30"/>
       <use x="222.65625" xlink:href="#DejaVuSans-31"/>
       <use x="286.279297" xlink:href="#DejaVuSans-2e"/>
       <use x="318.066406" xlink:href="#DejaVuSans-32"/>
       <use x="381.689453" xlink:href="#DejaVuSans-30"/>
       <use x="445.3125" xlink:href="#DejaVuSans-32"/>
       <use x="508.935547" xlink:href="#DejaVuSans-31"/>
      </g>
     </g>
    </g>
    <g id="xtick_9">
     <g id="line2d_17">
      <path clip-path="url(#p31c26b9a2a)" d="M 349.47495 276.48 
L 349.47495 41.472 
" style="fill:none;stroke:#808080;stroke-dasharray:2.96,1.28;stroke-dashoffset:0;stroke-width:0.8;"/>
     </g>
     <g id="line2d_18">
      <g>
       <use style="stroke:#000000;stroke-width:0.8;" x="349.47495" xlink:href="#m1d9697dc32" y="276.48"/>
      </g>
     </g>
     <g id="text_9">
      <!-- 24.02.2021 -->
      <g transform="translate(298.84974 318.688565)rotate(-30)scale(0.1 -0.1)">
       <use xlink:href="#DejaVuSans-32"/>
       <use x="63.623047" xlink:href="#DejaVuSans-34"/>
       <use x="127.246094" xlink:href="#DejaVuSans-2e"/>
       <use x="159.033203" xlink:href="#DejaVuSans-30"/>
       <use x="222.65625" xlink:href="#DejaVuSans-32"/>
       <use x="286.279297" xlink:href="#DejaVuSans-2e"/>
       <use x="318.066406" xlink:href="#DejaVuSans-32"/>
       <use x="381.689453" xlink:href="#DejaVuSans-30"/>
       <use x="445.3125" xlink:href="#DejaVuSans-32"/>
       <use x="508.935547" xlink:href="#DejaVuSans-31"/>
      </g>
     </g>
    </g>
    <g id="xtick_10">
     <g id="line2d_19">
      <path clip-path="url(#p31c26b9a2a)" d="M 385.633158 276.48 
L 385.633158 41.472 
" style="fill:none;stroke:#808080;stroke-dasharray:2.96,1.28;stroke-dashoffset:0;stroke-width:0.8;"/>
     </g>
     <g id="line2d_20">
      <g>
       <use style="stroke:#000000;stroke-width:0.8;" x="385.633158" xlink:href="#m1d9697dc32" y="276.48"/>
      </g>
     </g>
     <g id="text_10">
      <!-- 12.04.2021 -->
      <g transform="translate(335.007947 318.688565)rotate(-30)scale(0.1 -0.1)">
       <use xlink:href="#DejaVuSans-31"/>
       <use x="63.623047" xlink:href="#DejaVuSans-32"/>
       <use x="127.246094" xlink:href="#DejaVuSans-2e"/>
       <use x="159.033203" xlink:href="#DejaVuSans-30"/>
       <use x="222.65625" xlink:href="#DejaVuSans-34"/>
       <use x="286.279297" xlink:href="#DejaVuSans-2e"/>
       <use x="318.066406" xlink:href="#DejaVuSans-32"/>
       <use x="381.689453" xlink:href="#DejaVuSans-30"/>
       <use x="445.3125" xlink:href="#DejaVuSans-32"/>
       <use x="508.935547" xlink:href="#DejaVuSans-31"/>
      </g>
     </g>
    </g>
   </g>
   <g id="matplotlib.axis_2">
    <g id="ytick_1">
     <g id="line2d_21">
      <path clip-path="url(#p31c26b9a2a)" d="M 57.6 266.017165 
L 414.72 266.017165 
" style="fill:none;stroke:#808080;stroke-dasharray:2.96,1.28;stroke-dashoffset:0;stroke-width:0.8;"/>
     </g>
     <g id="line2d_22">
      <defs>
       <path d="M 0 0 
L -3.5 0 
" id="m03109913b4" style="stroke:#000000;stroke-width:0.8;"/>
      </defs>
      <g>
       <use style="stroke:#000000;stroke-width:0.8;" x="57.6" xlink:href="#m03109913b4" y="266.017165"/>
      </g>
     </g>
     <g id="text_11">
      <!-- 0 -->
      <g transform="translate(44.2375 269.816384)scale(0.1 -0.1)">
       <use xlink:href="#DejaVuSans-30"/>
      </g>
     </g>
    </g>
    <g id="ytick_2">
     <g id="line2d_23">
      <path clip-path="url(#p31c26b9a2a)" d="M 57.6 221.026754 
L 414.72 221.026754 
" style="fill:none;stroke:#808080;stroke-dasharray:2.96,1.28;stroke-dashoffset:0;stroke-width:0.8;"/>
     </g>
     <g id="line2d_24">
      <g>
       <use style="stroke:#000000;stroke-width:0.8;" x="57.6" xlink:href="#m03109913b4" y="221.026754"/>
      </g>
     </g>
     <g id="text_12">
      <!-- 50 -->
      <g transform="translate(37.875 224.825973)scale(0.1 -0.1)">
       <use xlink:href="#DejaVuSans-35"/>
       <use x="63.623047" xlink:href="#DejaVuSans-30"/>
      </g>
     </g>
    </g>
    <g id="ytick_3">
     <g id="line2d_25">
      <path clip-path="url(#p31c26b9a2a)" d="M 57.6 176.036344 
L 414.72 176.036344 
" style="fill:none;stroke:#808080;stroke-dasharray:2.96,1.28;stroke-dashoffset:0;stroke-width:0.8;"/>
     </g>
     <g id="line2d_26">
      <g>
       <use style="stroke:#000000;stroke-width:0.8;" x="57.6" xlink:href="#m03109913b4" y="176.036344"/>
      </g>
     </g>
     <g id="text_13">
      <!-- 100 -->
      <g transform="translate(31.5125 179.835562)scale(0.1 -0.1)">
       <use xlink:href="#DejaVuSans-31"/>
       <use x="63.623047" xlink:href="#DejaVuSans-30"/>
       <use x="127.246094" xlink:href="#DejaVuSans-30"/>
      </g>
     </g>
    </g>
    <g id="ytick_4">
     <g id="line2d_27">
      <path clip-path="url(#p31c26b9a2a)" d="M 57.6 131.045933 
L 414.72 131.045933 
" style="fill:none;stroke:#808080;stroke-dasharray:2.96,1.28;stroke-dashoffset:0;stroke-width:0.8;"/>
     </g>
     <g id="line2d_28">
      <g>
       <use style="stroke:#000000;stroke-width:0.8;" x="57.6" xlink:href="#m03109913b4" y="131.045933"/>
      </g>
     </g>
     <g id="text_14">
      <!-- 150 -->
      <g transform="translate(31.5125 134.845152)scale(0.1 -0.1)">
       <use xlink:href="#DejaVuSans-31"/>
       <use x="63.623047" xlink:href="#DejaVuSans-35"/>
       <use x="127.246094" xlink:href="#DejaVuSans-30"/>
      </g>
     </g>
    </g>
    <g id="ytick_5">
     <g id="line2d_29">
      <path clip-path="url(#p31c26b9a2a)" d="M 57.6 86.055523 
L 414.72 86.055523 
" style="fill:none;stroke:#808080;stroke-dasharray:2.96,1.28;stroke-dashoffset:0;stroke-width:0.8;"/>
     </g>
     <g id="line2d_30">
      <g>
       <use style="stroke:#000000;stroke-width:0.8;" x="57.6" xlink:href="#m03109913b4" y="86.055523"/>
      </g>
     </g>
     <g id="text_15">
      <!-- 200 -->
      <g transform="translate(31.5125 89.854741)scale(0.1 -0.1)">
       <use xlink:href="#DejaVuSans-32"/>
       <use x="63.623047" xlink:href="#DejaVuSans-30"/>
       <use x="127.246094" xlink:href="#DejaVuSans-30"/>
      </g>
     </g>
    </g>
    <g id="text_16">
     <!-- Inzidenz pro 7 Tage pro 100.000 Einwohner -->
     <g transform="translate(25.432812 267.301)rotate(-90)scale(0.1 -0.1)">
      <defs>
       <path d="M 628 4666 
L 1259 4666 
L 1259 0 
L 628 0 
L 628 4666 
z
" id="DejaVuSans-49" transform="scale(0.015625)"/>
       <path d="M 3513 2113 
L 3513 0 
L 2938 0 
L 2938 2094 
Q 2938 2591 2744 2837 
Q 2550 3084 2163 3084 
Q 1697 3084 1428 2787 
Q 1159 2491 1159 1978 
L 1159 0 
L 581 0 
L 581 3500 
L 1159 3500 
L 1159 2956 
Q 1366 3272 1645 3428 
Q 1925 3584 2291 3584 
Q 2894 3584 3203 3211 
Q 3513 2838 3513 2113 
z
" id="DejaVuSans-6e" transform="scale(0.015625)"/>
       <path d="M 353 3500 
L 3084 3500 
L 3084 2975 
L 922 459 
L 3084 459 
L 3084 0 
L 275 0 
L 275 525 
L 2438 3041 
L 353 3041 
L 353 3500 
z
" id="DejaVuSans-7a" transform="scale(0.015625)"/>
       <path d="M 603 3500 
L 1178 3500 
L 1178 0 
L 603 0 
L 603 3500 
z
M 603 4863 
L 1178 4863 
L 1178 4134 
L 603 4134 
L 603 4863 
z
" id="DejaVuSans-69" transform="scale(0.015625)"/>
       <path d="M 2906 2969 
L 2906 4863 
L 3481 4863 
L 3481 0 
L 2906 0 
L 2906 525 
Q 2725 213 2448 61 
Q 2172 -91 1784 -91 
Q 1150 -91 751 415 
Q 353 922 353 1747 
Q 353 2572 751 3078 
Q 1150 3584 1784 3584 
Q 2172 3584 2448 3432 
Q 2725 3281 2906 2969 
z
M 947 1747 
Q 947 1113 1208 752 
Q 1469 391 1925 391 
Q 2381 391 2643 752 
Q 2906 1113 2906 1747 
Q 2906 2381 2643 2742 
Q 2381 3103 1925 3103 
Q 1469 3103 1208 2742 
Q 947 2381 947 1747 
z
" id="DejaVuSans-64" transform="scale(0.015625)"/>
       <path d="M 3597 1894 
L 3597 1613 
L 953 1613 
Q 991 1019 1311 708 
Q 1631 397 2203 397 
Q 2534 397 2845 478 
Q 3156 559 3463 722 
L 3463 178 
Q 3153 47 2828 -22 
Q 2503 -91 2169 -91 
Q 1331 -91 842 396 
Q 353 884 353 1716 
Q 353 2575 817 3079 
Q 1281 3584 2069 3584 
Q 2775 3584 3186 3129 
Q 3597 2675 3597 1894 
z
M 3022 2063 
Q 3016 2534 2758 2815 
Q 2500 3097 2075 3097 
Q 1594 3097 1305 2825 
Q 1016 2553 972 2059 
L 3022 2063 
z
" id="DejaVuSans-65" transform="scale(0.015625)"/>
       <path id="DejaVuSans-20" transform="scale(0.015625)"/>
       <path d="M 1159 525 
L 1159 -1331 
L 581 -1331 
L 581 3500 
L 1159 3500 
L 1159 2969 
Q 1341 3281 1617 3432 
Q 1894 3584 2278 3584 
Q 2916 3584 3314 3078 
Q 3713 2572 3713 1747 
Q 3713 922 3314 415 
Q 2916 -91 2278 -91 
Q 1894 -91 1617 61 
Q 1341 213 1159 525 
z
M 3116 1747 
Q 3116 2381 2855 2742 
Q 2594 3103 2138 3103 
Q 1681 3103 1420 2742 
Q 1159 2381 1159 1747 
Q 1159 1113 1420 752 
Q 1681 391 2138 391 
Q 2594 391 2855 752 
Q 3116 1113 3116 1747 
z
" id="DejaVuSans-70" transform="scale(0.015625)"/>
       <path d="M 2631 2963 
Q 2534 3019 2420 3045 
Q 2306 3072 2169 3072 
Q 1681 3072 1420 2755 
Q 1159 2438 1159 1844 
L 1159 0 
L 581 0 
L 581 3500 
L 1159 3500 
L 1159 2956 
Q 1341 3275 1631 3429 
Q 1922 3584 2338 3584 
Q 2397 3584 2469 3576 
Q 2541 3569 2628 3553 
L 2631 2963 
z
" id="DejaVuSans-72" transform="scale(0.015625)"/>
       <path d="M 1959 3097 
Q 1497 3097 1228 2736 
Q 959 2375 959 1747 
Q 959 1119 1226 758 
Q 1494 397 1959 397 
Q 2419 397 2687 759 
Q 2956 1122 2956 1747 
Q 2956 2369 2687 2733 
Q 2419 3097 1959 3097 
z
M 1959 3584 
Q 2709 3584 3137 3096 
Q 3566 2609 3566 1747 
Q 3566 888 3137 398 
Q 2709 -91 1959 -91 
Q 1206 -91 779 398 
Q 353 888 353 1747 
Q 353 2609 779 3096 
Q 1206 3584 1959 3584 
z
" id="DejaVuSans-6f" transform="scale(0.015625)"/>
       <path d="M -19 4666 
L 3928 4666 
L 3928 4134 
L 2272 4134 
L 2272 0 
L 1638 0 
L 1638 4134 
L -19 4134 
L -19 4666 
z
" id="DejaVuSans-54" transform="scale(0.015625)"/>
       <path d="M 2194 1759 
Q 1497 1759 1228 1600 
Q 959 1441 959 1056 
Q 959 750 1161 570 
Q 1363 391 1709 391 
Q 2188 391 2477 730 
Q 2766 1069 2766 1631 
L 2766 1759 
L 2194 1759 
z
M 3341 1997 
L 3341 0 
L 2766 0 
L 2766 531 
Q 2569 213 2275 61 
Q 1981 -91 1556 -91 
Q 1019 -91 701 211 
Q 384 513 384 1019 
Q 384 1609 779 1909 
Q 1175 2209 1959 2209 
L 2766 2209 
L 2766 2266 
Q 2766 2663 2505 2880 
Q 2244 3097 1772 3097 
Q 1472 3097 1187 3025 
Q 903 2953 641 2809 
L 641 3341 
Q 956 3463 1253 3523 
Q 1550 3584 1831 3584 
Q 2591 3584 2966 3190 
Q 3341 2797 3341 1997 
z
" id="DejaVuSans-61" transform="scale(0.015625)"/>
       <path d="M 2906 1791 
Q 2906 2416 2648 2759 
Q 2391 3103 1925 3103 
Q 1463 3103 1205 2759 
Q 947 2416 947 1791 
Q 947 1169 1205 825 
Q 1463 481 1925 481 
Q 2391 481 2648 825 
Q 2906 1169 2906 1791 
z
M 3481 434 
Q 3481 -459 3084 -895 
Q 2688 -1331 1869 -1331 
Q 1566 -1331 1297 -1286 
Q 1028 -1241 775 -1147 
L 775 -588 
Q 1028 -725 1275 -790 
Q 1522 -856 1778 -856 
Q 2344 -856 2625 -561 
Q 2906 -266 2906 331 
L 2906 616 
Q 2728 306 2450 153 
Q 2172 0 1784 0 
Q 1141 0 747 490 
Q 353 981 353 1791 
Q 353 2603 747 3093 
Q 1141 3584 1784 3584 
Q 2172 3584 2450 3431 
Q 2728 3278 2906 2969 
L 2906 3500 
L 3481 3500 
L 3481 434 
z
" id="DejaVuSans-67" transform="scale(0.015625)"/>
       <path d="M 628 4666 
L 3578 4666 
L 3578 4134 
L 1259 4134 
L 1259 2753 
L 3481 2753 
L 3481 2222 
L 1259 2222 
L 1259 531 
L 3634 531 
L 3634 0 
L 628 0 
L 628 4666 
z
" id="DejaVuSans-45" transform="scale(0.015625)"/>
       <path d="M 269 3500 
L 844 3500 
L 1563 769 
L 2278 3500 
L 2956 3500 
L 3675 769 
L 4391 3500 
L 4966 3500 
L 4050 0 
L 3372 0 
L 2619 2869 
L 1863 0 
L 1184 0 
L 269 3500 
z
" id="DejaVuSans-77" transform="scale(0.015625)"/>
       <path d="M 3513 2113 
L 3513 0 
L 2938 0 
L 2938 2094 
Q 2938 2591 2744 2837 
Q 2550 3084 2163 3084 
Q 1697 3084 1428 2787 
Q 1159 2491 1159 1978 
L 1159 0 
L 581 0 
L 581 4863 
L 1159 4863 
L 1159 2956 
Q 1366 3272 1645 3428 
Q 1925 3584 2291 3584 
Q 2894 3584 3203 3211 
Q 3513 2838 3513 2113 
z
" id="DejaVuSans-68" transform="scale(0.015625)"/>
      </defs>
      <use xlink:href="#DejaVuSans-49"/>
      <use x="29.492188" xlink:href="#DejaVuSans-6e"/>
      <use x="92.871094" xlink:href="#DejaVuSans-7a"/>
      <use x="145.361328" xlink:href="#DejaVuSans-69"/>
      <use x="173.144531" xlink:href="#DejaVuSans-64"/>
      <use x="236.621094" xlink:href="#DejaVuSans-65"/>
      <use x="298.144531" xlink:href="#DejaVuSans-6e"/>
      <use x="361.523438" xlink:href="#DejaVuSans-7a"/>
      <use x="414.013672" xlink:href="#DejaVuSans-20"/>
      <use x="445.800781" xlink:href="#DejaVuSans-70"/>
      <use x="509.277344" xlink:href="#DejaVuSans-72"/>
      <use x="548.140625" xlink:href="#DejaVuSans-6f"/>
      <use x="609.322266" xlink:href="#DejaVuSans-20"/>
      <use x="641.109375" xlink:href="#DejaVuSans-37"/>
      <use x="704.732422" xlink:href="#DejaVuSans-20"/>
      <use x="736.519531" xlink:href="#DejaVuSans-54"/>
      <use x="781.103516" xlink:href="#DejaVuSans-61"/>
      <use x="842.382812" xlink:href="#DejaVuSans-67"/>
      <use x="905.859375" xlink:href="#DejaVuSans-65"/>
      <use x="967.382812" xlink:href="#DejaVuSans-20"/>
      <use x="999.169922" xlink:href="#DejaVuSans-70"/>
      <use x="1062.646484" xlink:href="#DejaVuSans-72"/>
      <use x="1101.509766" xlink:href="#DejaVuSans-6f"/>
      <use x="1162.691406" xlink:href="#DejaVuSans-20"/>
      <use x="1194.478516" xlink:href="#DejaVuSans-31"/>
      <use x="1258.101562" xlink:href="#DejaVuSans-30"/>
      <use x="1321.724609" xlink:href="#DejaVuSans-30"/>
      <use x="1385.347656" xlink:href="#DejaVuSans-2e"/>
      <use x="1417.134766" xlink:href="#DejaVuSans-30"/>
      <use x="1480.757812" xlink:href="#DejaVuSans-30"/>
      <use x="1544.380859" xlink:href="#DejaVuSans-30"/>
      <use x="1608.003906" xlink:href="#DejaVuSans-20"/>
      <use x="1639.791016" xlink:href="#DejaVuSans-45"/>
      <use x="1702.974609" xlink:href="#DejaVuSans-69"/>
      <use x="1730.757812" xlink:href="#DejaVuSans-6e"/>
      <use x="1794.136719" xlink:href="#DejaVuSans-77"/>
      <use x="1875.923828" xlink:href="#DejaVuSans-6f"/>
      <use x="1937.105469" xlink:href="#DejaVuSans-68"/>
      <use x="2000.484375" xlink:href="#DejaVuSans-6e"/>
      <use x="2063.863281" xlink:href="#DejaVuSans-65"/>
      <use x="2125.386719" xlink:href="#DejaVuSans-72"/>
     </g>
    </g>
   </g>
   <g id="line2d_31">
    <path clip-path="url(#p31c26b9a2a)" d="M 73.832727 265.797818 
L 74.602051 265.797818 
L 75.371374 265.359125 
L 76.910022 264.920432 
L 78.448669 264.920432 
L 79.217992 265.139778 
L 79.987316 264.920432 
L 80.756639 264.481738 
L 81.525963 264.262392 
L 83.833934 264.262392 
L 84.603257 262.946312 
L 85.372581 262.288272 
L 86.141904 261.410885 
L 87.680551 260.533499 
L 88.449875 260.533499 
L 89.219199 258.998072 
L 89.988522 259.875459 
L 90.757846 259.875459 
L 91.527169 257.462646 
L 93.065816 255.049832 
L 93.83514 252.417673 
L 94.604464 250.882246 
L 95.373787 248.908126 
L 96.143111 246.05662 
L 96.912434 246.71466 
L 97.681758 246.934006 
L 98.451081 244.301847 
L 99.220405 246.71466 
L 99.989729 246.275966 
L 100.759052 244.0825 
L 101.528376 245.179233 
L 102.297699 248.03074 
L 103.067023 240.13426 
L 103.836346 237.721447 
L 104.60567 232.237781 
L 105.374994 233.115167 
L 106.144317 237.5021 
L 106.913641 239.47622 
L 107.682964 234.869941 
L 108.452288 237.5021 
L 109.221611 240.7923 
L 109.990935 241.011647 
L 110.760259 241.889033 
L 111.529582 241.669687 
L 112.298906 239.47622 
L 113.068229 242.76642 
L 113.837553 248.68878 
L 114.606876 247.811393 
L 115.3762 252.637019 
L 116.145523 251.759633 
L 116.914847 250.662899 
L 117.684171 250.882246 
L 119.222818 252.198326 
L 119.992141 255.927219 
L 120.761465 256.365912 
L 121.530788 258.778725 
L 122.300112 259.875459 
L 123.069436 262.288272 
L 123.838759 262.288272 
L 124.608083 262.507618 
L 125.377406 262.507618 
L 126.14673 261.410885 
L 126.916053 261.630232 
L 127.685377 261.630232 
L 128.454701 261.849578 
L 129.224024 262.946312 
L 129.993348 262.726965 
L 130.762671 262.946312 
L 131.531995 264.262392 
L 132.301318 264.262392 
L 133.070642 264.701085 
L 133.839966 264.481738 
L 134.609289 264.481738 
L 136.147936 265.359125 
L 136.91726 264.920432 
L 137.686583 264.701085 
L 139.225231 264.701085 
L 139.994554 264.920432 
L 141.533201 264.920432 
L 143.071848 265.359125 
L 143.841172 265.359125 
L 144.610495 265.139778 
L 145.379819 265.139778 
L 146.149143 265.359125 
L 146.918466 265.359125 
L 147.68779 265.578472 
L 149.99576 265.578472 
L 151.534408 265.139778 
L 154.611702 265.139778 
L 155.381025 265.359125 
L 156.150349 265.359125 
L 156.919673 265.578472 
L 157.688996 265.139778 
L 159.227643 264.701085 
L 159.996967 264.701085 
L 160.76629 264.043045 
L 161.535614 264.262392 
L 162.304938 263.823698 
L 163.074261 264.262392 
L 163.843585 264.481738 
L 164.612908 264.481738 
L 165.382232 264.043045 
L 166.151555 264.262392 
L 166.920879 263.823698 
L 167.690202 263.823698 
L 168.459526 263.604352 
L 169.22885 263.604352 
L 169.998173 263.823698 
L 171.53682 264.701085 
L 172.306144 264.920432 
L 173.844791 263.604352 
L 174.614115 263.385005 
L 176.152762 263.385005 
L 176.922085 262.726965 
L 177.691409 260.972192 
L 178.460732 262.068925 
L 179.230056 261.630232 
L 179.99938 261.849578 
L 180.768703 261.630232 
L 181.538027 260.752845 
L 182.30735 261.410885 
L 183.845997 260.972192 
L 184.615321 262.288272 
L 185.384645 261.630232 
L 186.153968 261.849578 
L 186.923292 261.849578 
L 187.692615 260.972192 
L 188.461939 262.507618 
L 189.231262 261.410885 
L 190.000586 260.972192 
L 190.76991 260.314152 
L 191.539233 260.094805 
L 192.308557 259.656112 
L 193.07788 259.436765 
L 193.847204 258.559379 
L 195.385851 258.559379 
L 196.155174 258.340032 
L 196.924498 257.901339 
L 198.463145 258.778725 
L 199.232469 256.585259 
L 200.001792 255.049832 
L 200.771116 253.953099 
L 201.540439 253.733752 
L 202.309763 249.785513 
L 203.079087 247.3727 
L 203.84841 246.934006 
L 204.617734 249.127473 
L 205.387057 249.566166 
L 206.925704 248.250086 
L 207.695028 250.882246 
L 208.464352 252.856366 
L 209.233675 252.637019 
L 210.002999 252.637019 
L 210.772322 253.733752 
L 211.541646 255.488526 
L 212.310969 255.927219 
L 213.080293 257.462646 
L 213.849617 258.120685 
L 214.61894 258.120685 
L 215.388264 258.778725 
L 216.157587 258.559379 
L 216.926911 256.804606 
L 217.696234 257.243299 
L 218.465558 257.243299 
L 219.234882 257.023952 
L 220.004205 258.340032 
L 220.773529 257.681992 
L 221.542852 257.901339 
L 222.312176 259.656112 
L 223.081499 260.533499 
L 223.850823 257.462646 
L 224.620146 258.120685 
L 225.38947 256.804606 
L 226.928117 258.559379 
L 228.466764 256.804606 
L 229.236088 260.314152 
L 230.005411 260.314152 
L 230.774735 260.752845 
L 232.313382 258.998072 
L 233.082706 259.436765 
L 233.852029 260.314152 
L 234.621353 257.243299 
L 235.390676 256.804606 
L 236.16 254.391792 
L 236.929324 253.733752 
L 237.698647 251.320939 
L 238.467971 248.250086 
L 239.237294 246.495313 
L 240.006618 247.811393 
L 240.775941 247.592046 
L 241.545265 244.74054 
L 242.314589 243.42446 
L 243.853236 240.13426 
L 244.622559 242.327727 
L 245.391883 240.353607 
L 246.161206 239.256874 
L 246.93053 240.353607 
L 247.699854 236.624714 
L 248.469177 234.869941 
L 249.238501 234.869941 
L 250.007824 233.553861 
L 250.777148 232.676474 
L 251.546471 228.070195 
L 252.315795 224.560648 
L 254.623766 207.012916 
L 256.162413 183.323478 
L 257.70106 171.698106 
L 259.239707 141.866961 
L 260.009031 125.415963 
L 260.778354 127.609429 
L 261.547678 119.932296 
L 262.317001 126.732043 
L 263.086325 119.932296 
L 263.855648 134.847869 
L 264.624972 108.964964 
L 265.394296 97.558938 
L 266.163619 94.707432 
L 266.932943 105.016724 
L 268.47159 99.971751 
L 269.240913 74.52754 
L 270.010237 103.700644 
L 270.779561 123.00315 
L 271.548884 117.958177 
L 272.318208 125.854656 
L 273.087531 124.757923 
L 273.856855 133.312442 
L 274.626178 152.176254 
L 275.395502 134.189829 
L 276.164826 128.706162 
L 276.934149 130.241589 
L 277.703473 127.170736 
L 278.472796 125.854656 
L 279.24212 121.467723 
L 280.011443 107.648884 
L 280.780767 130.022242 
L 281.55009 131.557669 
L 282.319414 124.977269 
L 283.088738 126.074003 
L 283.858061 131.777015 
L 284.627385 130.022242 
L 286.166032 144.499121 
L 286.935355 146.473241 
L 287.704679 147.350628 
L 288.474003 151.956907 
L 289.243326 144.499121 
L 290.01265 130.460936 
L 290.781973 133.312442 
L 291.551297 129.583549 
L 292.32062 124.099883 
L 293.089944 116.861443 
L 293.859268 115.10667 
L 294.628591 118.835563 
L 295.397915 124.977269 
L 296.167238 109.403657 
L 296.936562 102.603911 
L 297.705885 102.603911 
L 298.475209 92.294619 
L 299.244533 90.101152 
L 300.013856 88.346379 
L 300.78318 66.631061 
L 301.552503 81.546633 
L 302.321827 98.875018 
L 303.09115 125.415963 
L 303.860474 144.279775 
L 305.399121 148.228014 
L 306.168445 175.865692 
L 306.937768 178.717198 
L 307.707092 174.330265 
L 308.476415 174.330265 
L 309.245739 178.497852 
L 310.015062 175.426999 
L 310.784386 175.426999 
L 311.55371 175.865692 
L 313.092357 143.183041 
L 313.86168 119.71295 
L 314.631004 126.512696 
L 315.400327 134.409175 
L 316.169651 128.048122 
L 316.938975 124.099883 
L 317.708298 139.892842 
L 318.477622 149.324747 
L 319.246945 150.202134 
L 320.016269 139.892842 
L 320.785592 135.505909 
L 321.554916 146.473241 
L 322.32424 145.157161 
L 323.093563 133.751135 
L 323.862887 132.215709 
L 324.63221 133.751135 
L 325.401534 138.138068 
L 326.170857 139.892842 
L 326.940181 140.331535 
L 327.709505 149.105401 
L 328.478828 166.433786 
L 329.248152 169.504639 
L 330.017475 174.768959 
L 330.786799 175.426999 
L 331.556122 173.233532 
L 332.325446 172.356146 
L 333.094769 173.672225 
L 333.864093 169.943332 
L 334.633417 178.497852 
L 335.40274 179.813932 
L 336.172064 184.420211 
L 336.941387 187.271718 
L 337.710711 187.710411 
L 338.480034 196.484277 
L 339.249358 201.748597 
L 340.018682 198.677744 
L 340.788005 200.432517 
L 341.557329 198.89709 
L 342.326652 198.23905 
L 343.095976 198.019704 
L 343.865299 189.465184 
L 344.634623 190.342571 
L 345.403947 186.833024 
L 346.17327 187.052371 
L 346.942594 183.104131 
L 347.711917 180.910665 
L 348.481241 181.130012 
L 349.250564 173.672225 
L 350.019888 159.63404 
L 350.789212 158.098613 
L 351.558535 154.589067 
L 352.327859 152.614947 
L 353.097182 151.079521 
L 353.866506 151.737561 
L 354.635829 153.492334 
L 355.405153 158.976 
L 356.174477 154.36972 
L 356.9438 154.150374 
L 357.713124 152.614947 
L 358.482447 152.834294 
L 359.251771 152.395601 
L 360.021094 143.621735 
L 360.790418 137.260682 
L 361.559741 141.428268 
L 362.329065 139.892842 
L 363.098389 125.635309 
L 363.867712 130.022242 
L 364.637036 131.996362 
L 365.406359 124.977269 
L 366.175683 105.236071 
L 366.945006 97.558938 
L 367.71433 81.985326 
L 368.483654 89.004419 
L 369.252977 85.494873 
L 370.022301 73.650153 
L 370.791624 66.631061 
L 371.560948 70.798647 
L 372.330271 60.270008 
L 373.099595 61.366741 
L 373.868919 56.979808 
L 374.638242 57.637848 
L 376.176889 60.489354 
L 376.946213 55.005688 
L 377.715536 56.760461 
L 378.48486 60.708701 
L 379.254184 77.379046 
L 380.023507 81.985326 
L 380.792831 74.088847 
L 381.562154 106.771497 
L 382.331478 106.113458 
L 383.100801 98.875018 
L 383.870125 96.681552 
L 384.639449 91.417232 
L 385.408772 88.785072 
L 386.178096 84.617486 
L 386.947419 52.812222 
L 388.486066 74.088847 
L 389.25539 80.230553 
L 390.024713 73.21146 
L 390.794037 68.385834 
L 391.563361 87.907686 
L 392.332684 72.55342 
L 393.102008 68.824527 
L 393.871331 68.824527 
L 395.409978 55.663728 
L 396.179302 52.373528 
L 396.948626 52.154182 
L 398.487273 84.398139 
L 398.487273 84.398139 
" style="fill:none;stroke:#1f77b4;stroke-linecap:square;stroke-width:1.5;"/>
   </g>
   <g id="patch_3">
    <path d="M 57.6 276.48 
L 57.6 41.472 
" style="fill:none;stroke:#000000;stroke-linecap:square;stroke-linejoin:miter;stroke-width:0.8;"/>
   </g>
   <g id="patch_4">
    <path d="M 414.72 276.48 
L 414.72 41.472 
" style="fill:none;stroke:#000000;stroke-linecap:square;stroke-linejoin:miter;stroke-width:0.8;"/>
   </g>
   <g id="patch_5">
    <path d="M 57.6 276.48 
L 414.72 276.48 
" style="fill:none;stroke:#000000;stroke-linecap:square;stroke-linejoin:miter;stroke-width:0.8;"/>
   </g>
   <g id="patch_6">
    <path d="M 57.6 41.472 
L 414.72 41.472 
" style="fill:none;stroke:#000000;stroke-linecap:square;stroke-linejoin:miter;stroke-width:0.8;"/>
   </g>
  </g>
  <g id="text_17">
   <!-- Inzidenzverlauf LK Märkischer Kreis -->
   <g transform="translate(70.792031 20.589187)scale(0.18 -0.18)">
    <defs>
     <path d="M 191 3500 
L 800 3500 
L 1894 563 
L 2988 3500 
L 3597 3500 
L 2284 0 
L 1503 0 
L 191 3500 
z
" id="DejaVuSans-76" transform="scale(0.015625)"/>
     <path d="M 603 4863 
L 1178 4863 
L 1178 0 
L 603 0 
L 603 4863 
z
" id="DejaVuSans-6c" transform="scale(0.015625)"/>
     <path d="M 544 1381 
L 544 3500 
L 1119 3500 
L 1119 1403 
Q 1119 906 1312 657 
Q 1506 409 1894 409 
Q 2359 409 2629 706 
Q 2900 1003 2900 1516 
L 2900 3500 
L 3475 3500 
L 3475 0 
L 2900 0 
L 2900 538 
Q 2691 219 2414 64 
Q 2138 -91 1772 -91 
Q 1169 -91 856 284 
Q 544 659 544 1381 
z
M 1991 3584 
L 1991 3584 
z
" id="DejaVuSans-75" transform="scale(0.015625)"/>
     <path d="M 2375 4863 
L 2375 4384 
L 1825 4384 
Q 1516 4384 1395 4259 
Q 1275 4134 1275 3809 
L 1275 3500 
L 2222 3500 
L 2222 3053 
L 1275 3053 
L 1275 0 
L 697 0 
L 697 3053 
L 147 3053 
L 147 3500 
L 697 3500 
L 697 3744 
Q 697 4328 969 4595 
Q 1241 4863 1831 4863 
L 2375 4863 
z
" id="DejaVuSans-66" transform="scale(0.015625)"/>
     <path d="M 628 4666 
L 1259 4666 
L 1259 531 
L 3531 531 
L 3531 0 
L 628 0 
L 628 4666 
z
" id="DejaVuSans-4c" transform="scale(0.015625)"/>
     <path d="M 628 4666 
L 1259 4666 
L 1259 2694 
L 3353 4666 
L 4166 4666 
L 1850 2491 
L 4331 0 
L 3500 0 
L 1259 2247 
L 1259 0 
L 628 0 
L 628 4666 
z
" id="DejaVuSans-4b" transform="scale(0.015625)"/>
     <path d="M 628 4666 
L 1569 4666 
L 2759 1491 
L 3956 4666 
L 4897 4666 
L 4897 0 
L 4281 0 
L 4281 4097 
L 3078 897 
L 2444 897 
L 1241 4097 
L 1241 0 
L 628 0 
L 628 4666 
z
" id="DejaVuSans-4d" transform="scale(0.015625)"/>
     <path d="M 2194 1759 
Q 1497 1759 1228 1600 
Q 959 1441 959 1056 
Q 959 750 1161 570 
Q 1363 391 1709 391 
Q 2188 391 2477 730 
Q 2766 1069 2766 1631 
L 2766 1759 
L 2194 1759 
z
M 3341 1997 
L 3341 0 
L 2766 0 
L 2766 531 
Q 2569 213 2275 61 
Q 1981 -91 1556 -91 
Q 1019 -91 701 211 
Q 384 513 384 1019 
Q 384 1609 779 1909 
Q 1175 2209 1959 2209 
L 2766 2209 
L 2766 2266 
Q 2766 2663 2505 2880 
Q 2244 3097 1772 3097 
Q 1472 3097 1187 3025 
Q 903 2953 641 2809 
L 641 3341 
Q 956 3463 1253 3523 
Q 1550 3584 1831 3584 
Q 2591 3584 2966 3190 
Q 3341 2797 3341 1997 
z
M 2150 4850 
L 2784 4850 
L 2784 4219 
L 2150 4219 
L 2150 4850 
z
M 928 4850 
L 1562 4850 
L 1562 4219 
L 928 4219 
L 928 4850 
z
" id="DejaVuSans-e4" transform="scale(0.015625)"/>
     <path d="M 581 4863 
L 1159 4863 
L 1159 1991 
L 2875 3500 
L 3609 3500 
L 1753 1863 
L 3688 0 
L 2938 0 
L 1159 1709 
L 1159 0 
L 581 0 
L 581 4863 
z
" id="DejaVuSans-6b" transform="scale(0.015625)"/>
     <path d="M 2834 3397 
L 2834 2853 
Q 2591 2978 2328 3040 
Q 2066 3103 1784 3103 
Q 1356 3103 1142 2972 
Q 928 2841 928 2578 
Q 928 2378 1081 2264 
Q 1234 2150 1697 2047 
L 1894 2003 
Q 2506 1872 2764 1633 
Q 3022 1394 3022 966 
Q 3022 478 2636 193 
Q 2250 -91 1575 -91 
Q 1294 -91 989 -36 
Q 684 19 347 128 
L 347 722 
Q 666 556 975 473 
Q 1284 391 1588 391 
Q 1994 391 2212 530 
Q 2431 669 2431 922 
Q 2431 1156 2273 1281 
Q 2116 1406 1581 1522 
L 1381 1569 
Q 847 1681 609 1914 
Q 372 2147 372 2553 
Q 372 3047 722 3315 
Q 1072 3584 1716 3584 
Q 2034 3584 2315 3537 
Q 2597 3491 2834 3397 
z
" id="DejaVuSans-73" transform="scale(0.015625)"/>
     <path d="M 3122 3366 
L 3122 2828 
Q 2878 2963 2633 3030 
Q 2388 3097 2138 3097 
Q 1578 3097 1268 2742 
Q 959 2388 959 1747 
Q 959 1106 1268 751 
Q 1578 397 2138 397 
Q 2388 397 2633 464 
Q 2878 531 3122 666 
L 3122 134 
Q 2881 22 2623 -34 
Q 2366 -91 2075 -91 
Q 1284 -91 818 406 
Q 353 903 353 1747 
Q 353 2603 823 3093 
Q 1294 3584 2113 3584 
Q 2378 3584 2631 3529 
Q 2884 3475 3122 3366 
z
" id="DejaVuSans-63" transform="scale(0.015625)"/>
    </defs>
    <use xlink:href="#DejaVuSans-49"/>
    <use x="29.492188" xlink:href="#DejaVuSans-6e"/>
    <use x="92.871094" xlink:href="#DejaVuSans-7a"/>
    <use x="145.361328" xlink:href="#DejaVuSans-69"/>
    <use x="173.144531" xlink:href="#DejaVuSans-64"/>
    <use x="236.621094" xlink:href="#DejaVuSans-65"/>
    <use x="298.144531" xlink:href="#DejaVuSans-6e"/>
    <use x="361.523438" xlink:href="#DejaVuSans-7a"/>
    <use x="414.013672" xlink:href="#DejaVuSans-76"/>
    <use x="473.193359" xlink:href="#DejaVuSans-65"/>
    <use x="534.716797" xlink:href="#DejaVuSans-72"/>
    <use x="575.830078" xlink:href="#DejaVuSans-6c"/>
    <use x="603.613281" xlink:href="#DejaVuSans-61"/>
    <use x="664.892578" xlink:href="#DejaVuSans-75"/>
    <use x="728.271484" xlink:href="#DejaVuSans-66"/>
    <use x="763.476562" xlink:href="#DejaVuSans-20"/>
    <use x="795.263672" xlink:href="#DejaVuSans-4c"/>
    <use x="850.976562" xlink:href="#DejaVuSans-4b"/>
    <use x="916.552734" xlink:href="#DejaVuSans-20"/>
    <use x="948.339844" xlink:href="#DejaVuSans-4d"/>
    <use x="1034.619141" xlink:href="#DejaVuSans-e4"/>
    <use x="1095.898438" xlink:href="#DejaVuSans-72"/>
    <use x="1137.011719" xlink:href="#DejaVuSans-6b"/>
    <use x="1194.921875" xlink:href="#DejaVuSans-69"/>
    <use x="1222.705078" xlink:href="#DejaVuSans-73"/>
    <use x="1274.804688" xlink:href="#DejaVuSans-63"/>
    <use x="1329.785156" xlink:href="#DejaVuSans-68"/>
    <use x="1393.164062" xlink:href="#DejaVuSans-65"/>
    <use x="1454.6875" xlink:href="#DejaVuSans-72"/>
    <use x="1495.800781" xlink:href="#DejaVuSans-20"/>
    <use x="1527.587891" xlink:href="#DejaVuSans-4b"/>
    <use x="1593.164062" xlink:href="#DejaVuSans-72"/>
    <use x="1632.027344" xlink:href="#DejaVuSans-65"/>
    <use x="1693.550781" xlink:href="#DejaVuSans-69"/>
    <use x="1721.333984" xlink:href="#DejaVuSans-73"/>
   </g>
  </g>
 </g>
 <defs>
  <clipPath id="p31c26b9a2a">
   <rect height="235.008" width="357.12" x="57.6" y="41.472"/>
  </clipPath>
 </defs>
</svg>
