<?xml version="1.0" encoding="utf-8" standalone="no"?>
<!DOCTYPE svg PUBLIC "-//W3C//DTD SVG 1.1//EN"
  "http://www.w3.org/Graphics/SVG/1.1/DTD/svg11.dtd">
<svg xmlns:xlink="http://www.w3.org/1999/xlink" width="460.8pt" height="345.6pt" viewBox="0 0 460.8 345.6" xmlns="http://www.w3.org/2000/svg" version="1.1">
 <metadata>
  <rdf:RDF xmlns:dc="http://purl.org/dc/elements/1.1/" xmlns:cc="http://creativecommons.org/ns#" xmlns:rdf="http://www.w3.org/1999/02/22-rdf-syntax-ns#">
   <cc:Work>
    <dc:type rdf:resource="http://purl.org/dc/dcmitype/StillImage"/>
    <dc:date>2022-12-29T09:17:42.378163</dc:date>
    <dc:format>image/svg+xml</dc:format>
    <dc:creator>
     <cc:Agent>
      <dc:title>Matplotlib v3.6.2, https://matplotlib.org/</dc:title>
     </cc:Agent>
    </dc:creator>
   </cc:Work>
  </rdf:RDF>
 </metadata>
 <defs>
  <style type="text/css">*{stroke-linejoin: round; stroke-linecap: butt}</style>
 </defs>
 <g id="figure_1">
  <g id="patch_1">
   <path d="M 0 345.6 
L 460.8 345.6 
L 460.8 0 
L 0 0 
z
" style="fill: #ffffff"/>
  </g>
  <g id="axes_1">
   <g id="patch_2">
    <path d="M 57.6 276.48 
L 414.72 276.48 
L 414.72 41.472 
L 57.6 41.472 
z
" style="fill: #ffffff"/>
   </g>
   <g id="matplotlib.axis_1">
    <g id="xtick_1">
     <g id="line2d_1">
      <path d="M 59.754392 276.48 
L 59.754392 41.472 
" clip-path="url(#pff31834b79)" style="fill: none; stroke-dasharray: 2.96,1.28; stroke-dashoffset: 0; stroke: #808080; stroke-width: 0.8"/>
     </g>
     <g id="line2d_2">
      <defs>
       <path id="m4293af9a75" d="M 0 0 
L 0 3.5 
" style="stroke: #000000; stroke-width: 0.8"/>
      </defs>
      <g>
       <use xlink:href="#m4293af9a75" x="59.754392" y="276.48" style="stroke: #000000; stroke-width: 0.8"/>
      </g>
     </g>
     <g id="text_1">
      <!-- 18.01.2020 -->
      <g transform="translate(9.129181 318.688565) rotate(-30) scale(0.1 -0.1)">
       <defs>
        <path id="DejaVuSans-31" d="M 794 531 
L 1825 531 
L 1825 4091 
L 703 3866 
L 703 4441 
L 1819 4666 
L 2450 4666 
L 2450 531 
L 3481 531 
L 3481 0 
L 794 0 
L 794 531 
z
" transform="scale(0.015625)"/>
        <path id="DejaVuSans-38" d="M 2034 2216 
Q 1584 2216 1326 1975 
Q 1069 1734 1069 1313 
Q 1069 891 1326 650 
Q 1584 409 2034 409 
Q 2484 409 2743 651 
Q 3003 894 3003 1313 
Q 3003 1734 2745 1975 
Q 2488 2216 2034 2216 
z
M 1403 2484 
Q 997 2584 770 2862 
Q 544 3141 544 3541 
Q 544 4100 942 4425 
Q 1341 4750 2034 4750 
Q 2731 4750 3128 4425 
Q 3525 4100 3525 3541 
Q 3525 3141 3298 2862 
Q 3072 2584 2669 2484 
Q 3125 2378 3379 2068 
Q 3634 1759 3634 1313 
Q 3634 634 3220 271 
Q 2806 -91 2034 -91 
Q 1263 -91 848 271 
Q 434 634 434 1313 
Q 434 1759 690 2068 
Q 947 2378 1403 2484 
z
M 1172 3481 
Q 1172 3119 1398 2916 
Q 1625 2713 2034 2713 
Q 2441 2713 2670 2916 
Q 2900 3119 2900 3481 
Q 2900 3844 2670 4047 
Q 2441 4250 2034 4250 
Q 1625 4250 1398 4047 
Q 1172 3844 1172 3481 
z
" transform="scale(0.015625)"/>
        <path id="DejaVuSans-2e" d="M 684 794 
L 1344 794 
L 1344 0 
L 684 0 
L 684 794 
z
" transform="scale(0.015625)"/>
        <path id="DejaVuSans-30" d="M 2034 4250 
Q 1547 4250 1301 3770 
Q 1056 3291 1056 2328 
Q 1056 1369 1301 889 
Q 1547 409 2034 409 
Q 2525 409 2770 889 
Q 3016 1369 3016 2328 
Q 3016 3291 2770 3770 
Q 2525 4250 2034 4250 
z
M 2034 4750 
Q 2819 4750 3233 4129 
Q 3647 3509 3647 2328 
Q 3647 1150 3233 529 
Q 2819 -91 2034 -91 
Q 1250 -91 836 529 
Q 422 1150 422 2328 
Q 422 3509 836 4129 
Q 1250 4750 2034 4750 
z
" transform="scale(0.015625)"/>
        <path id="DejaVuSans-32" d="M 1228 531 
L 3431 531 
L 3431 0 
L 469 0 
L 469 531 
Q 828 903 1448 1529 
Q 2069 2156 2228 2338 
Q 2531 2678 2651 2914 
Q 2772 3150 2772 3378 
Q 2772 3750 2511 3984 
Q 2250 4219 1831 4219 
Q 1534 4219 1204 4116 
Q 875 4013 500 3803 
L 500 4441 
Q 881 4594 1212 4672 
Q 1544 4750 1819 4750 
Q 2544 4750 2975 4387 
Q 3406 4025 3406 3419 
Q 3406 3131 3298 2873 
Q 3191 2616 2906 2266 
Q 2828 2175 2409 1742 
Q 1991 1309 1228 531 
z
" transform="scale(0.015625)"/>
       </defs>
       <use xlink:href="#DejaVuSans-31"/>
       <use xlink:href="#DejaVuSans-38" x="63.623047"/>
       <use xlink:href="#DejaVuSans-2e" x="127.246094"/>
       <use xlink:href="#DejaVuSans-30" x="159.033203"/>
       <use xlink:href="#DejaVuSans-31" x="222.65625"/>
       <use xlink:href="#DejaVuSans-2e" x="286.279297"/>
       <use xlink:href="#DejaVuSans-32" x="318.066406"/>
       <use xlink:href="#DejaVuSans-30" x="381.689453"/>
       <use xlink:href="#DejaVuSans-32" x="445.3125"/>
       <use xlink:href="#DejaVuSans-30" x="508.935547"/>
      </g>
     </g>
    </g>
    <g id="xtick_2">
     <g id="line2d_3">
      <path d="M 95.652179 276.48 
L 95.652179 41.472 
" clip-path="url(#pff31834b79)" style="fill: none; stroke-dasharray: 2.96,1.28; stroke-dashoffset: 0; stroke: #808080; stroke-width: 0.8"/>
     </g>
     <g id="line2d_4">
      <g>
       <use xlink:href="#m4293af9a75" x="95.652179" y="276.48" style="stroke: #000000; stroke-width: 0.8"/>
      </g>
     </g>
     <g id="text_2">
      <!-- 11.05.2020 -->
      <g transform="translate(45.026968 318.688565) rotate(-30) scale(0.1 -0.1)">
       <defs>
        <path id="DejaVuSans-35" d="M 691 4666 
L 3169 4666 
L 3169 4134 
L 1269 4134 
L 1269 2991 
Q 1406 3038 1543 3061 
Q 1681 3084 1819 3084 
Q 2600 3084 3056 2656 
Q 3513 2228 3513 1497 
Q 3513 744 3044 326 
Q 2575 -91 1722 -91 
Q 1428 -91 1123 -41 
Q 819 9 494 109 
L 494 744 
Q 775 591 1075 516 
Q 1375 441 1709 441 
Q 2250 441 2565 725 
Q 2881 1009 2881 1497 
Q 2881 1984 2565 2268 
Q 2250 2553 1709 2553 
Q 1456 2553 1204 2497 
Q 953 2441 691 2322 
L 691 4666 
z
" transform="scale(0.015625)"/>
       </defs>
       <use xlink:href="#DejaVuSans-31"/>
       <use xlink:href="#DejaVuSans-31" x="63.623047"/>
       <use xlink:href="#DejaVuSans-2e" x="127.246094"/>
       <use xlink:href="#DejaVuSans-30" x="159.033203"/>
       <use xlink:href="#DejaVuSans-35" x="222.65625"/>
       <use xlink:href="#DejaVuSans-2e" x="286.279297"/>
       <use xlink:href="#DejaVuSans-32" x="318.066406"/>
       <use xlink:href="#DejaVuSans-30" x="381.689453"/>
       <use xlink:href="#DejaVuSans-32" x="445.3125"/>
       <use xlink:href="#DejaVuSans-30" x="508.935547"/>
      </g>
     </g>
    </g>
    <g id="xtick_3">
     <g id="line2d_5">
      <path d="M 131.549966 276.48 
L 131.549966 41.472 
" clip-path="url(#pff31834b79)" style="fill: none; stroke-dasharray: 2.96,1.28; stroke-dashoffset: 0; stroke: #808080; stroke-width: 0.8"/>
     </g>
     <g id="line2d_6">
      <g>
       <use xlink:href="#m4293af9a75" x="131.549966" y="276.48" style="stroke: #000000; stroke-width: 0.8"/>
      </g>
     </g>
     <g id="text_3">
      <!-- 02.09.2020 -->
      <g transform="translate(80.924755 318.688565) rotate(-30) scale(0.1 -0.1)">
       <defs>
        <path id="DejaVuSans-39" d="M 703 97 
L 703 672 
Q 941 559 1184 500 
Q 1428 441 1663 441 
Q 2288 441 2617 861 
Q 2947 1281 2994 2138 
Q 2813 1869 2534 1725 
Q 2256 1581 1919 1581 
Q 1219 1581 811 2004 
Q 403 2428 403 3163 
Q 403 3881 828 4315 
Q 1253 4750 1959 4750 
Q 2769 4750 3195 4129 
Q 3622 3509 3622 2328 
Q 3622 1225 3098 567 
Q 2575 -91 1691 -91 
Q 1453 -91 1209 -44 
Q 966 3 703 97 
z
M 1959 2075 
Q 2384 2075 2632 2365 
Q 2881 2656 2881 3163 
Q 2881 3666 2632 3958 
Q 2384 4250 1959 4250 
Q 1534 4250 1286 3958 
Q 1038 3666 1038 3163 
Q 1038 2656 1286 2365 
Q 1534 2075 1959 2075 
z
" transform="scale(0.015625)"/>
       </defs>
       <use xlink:href="#DejaVuSans-30"/>
       <use xlink:href="#DejaVuSans-32" x="63.623047"/>
       <use xlink:href="#DejaVuSans-2e" x="127.246094"/>
       <use xlink:href="#DejaVuSans-30" x="159.033203"/>
       <use xlink:href="#DejaVuSans-39" x="222.65625"/>
       <use xlink:href="#DejaVuSans-2e" x="286.279297"/>
       <use xlink:href="#DejaVuSans-32" x="318.066406"/>
       <use xlink:href="#DejaVuSans-30" x="381.689453"/>
       <use xlink:href="#DejaVuSans-32" x="445.3125"/>
       <use xlink:href="#DejaVuSans-30" x="508.935547"/>
      </g>
     </g>
    </g>
    <g id="xtick_4">
     <g id="line2d_7">
      <path d="M 167.447752 276.48 
L 167.447752 41.472 
" clip-path="url(#pff31834b79)" style="fill: none; stroke-dasharray: 2.96,1.28; stroke-dashoffset: 0; stroke: #808080; stroke-width: 0.8"/>
     </g>
     <g id="line2d_8">
      <g>
       <use xlink:href="#m4293af9a75" x="167.447752" y="276.48" style="stroke: #000000; stroke-width: 0.8"/>
      </g>
     </g>
     <g id="text_4">
      <!-- 25.12.2020 -->
      <g transform="translate(116.822542 318.688565) rotate(-30) scale(0.1 -0.1)">
       <use xlink:href="#DejaVuSans-32"/>
       <use xlink:href="#DejaVuSans-35" x="63.623047"/>
       <use xlink:href="#DejaVuSans-2e" x="127.246094"/>
       <use xlink:href="#DejaVuSans-31" x="159.033203"/>
       <use xlink:href="#DejaVuSans-32" x="222.65625"/>
       <use xlink:href="#DejaVuSans-2e" x="286.279297"/>
       <use xlink:href="#DejaVuSans-32" x="318.066406"/>
       <use xlink:href="#DejaVuSans-30" x="381.689453"/>
       <use xlink:href="#DejaVuSans-32" x="445.3125"/>
       <use xlink:href="#DejaVuSans-30" x="508.935547"/>
      </g>
     </g>
    </g>
    <g id="xtick_5">
     <g id="line2d_9">
      <path d="M 203.345539 276.48 
L 203.345539 41.472 
" clip-path="url(#pff31834b79)" style="fill: none; stroke-dasharray: 2.96,1.28; stroke-dashoffset: 0; stroke: #808080; stroke-width: 0.8"/>
     </g>
     <g id="line2d_10">
      <g>
       <use xlink:href="#m4293af9a75" x="203.345539" y="276.48" style="stroke: #000000; stroke-width: 0.8"/>
      </g>
     </g>
     <g id="text_5">
      <!-- 18.04.2021 -->
      <g transform="translate(152.720328 318.688565) rotate(-30) scale(0.1 -0.1)">
       <defs>
        <path id="DejaVuSans-34" d="M 2419 4116 
L 825 1625 
L 2419 1625 
L 2419 4116 
z
M 2253 4666 
L 3047 4666 
L 3047 1625 
L 3713 1625 
L 3713 1100 
L 3047 1100 
L 3047 0 
L 2419 0 
L 2419 1100 
L 313 1100 
L 313 1709 
L 2253 4666 
z
" transform="scale(0.015625)"/>
       </defs>
       <use xlink:href="#DejaVuSans-31"/>
       <use xlink:href="#DejaVuSans-38" x="63.623047"/>
       <use xlink:href="#DejaVuSans-2e" x="127.246094"/>
       <use xlink:href="#DejaVuSans-30" x="159.033203"/>
       <use xlink:href="#DejaVuSans-34" x="222.65625"/>
       <use xlink:href="#DejaVuSans-2e" x="286.279297"/>
       <use xlink:href="#DejaVuSans-32" x="318.066406"/>
       <use xlink:href="#DejaVuSans-30" x="381.689453"/>
       <use xlink:href="#DejaVuSans-32" x="445.3125"/>
       <use xlink:href="#DejaVuSans-31" x="508.935547"/>
      </g>
     </g>
    </g>
    <g id="xtick_6">
     <g id="line2d_11">
      <path d="M 239.243326 276.48 
L 239.243326 41.472 
" clip-path="url(#pff31834b79)" style="fill: none; stroke-dasharray: 2.96,1.28; stroke-dashoffset: 0; stroke: #808080; stroke-width: 0.8"/>
     </g>
     <g id="line2d_12">
      <g>
       <use xlink:href="#m4293af9a75" x="239.243326" y="276.48" style="stroke: #000000; stroke-width: 0.8"/>
      </g>
     </g>
     <g id="text_6">
      <!-- 10.08.2021 -->
      <g transform="translate(188.618115 318.688565) rotate(-30) scale(0.1 -0.1)">
       <use xlink:href="#DejaVuSans-31"/>
       <use xlink:href="#DejaVuSans-30" x="63.623047"/>
       <use xlink:href="#DejaVuSans-2e" x="127.246094"/>
       <use xlink:href="#DejaVuSans-30" x="159.033203"/>
       <use xlink:href="#DejaVuSans-38" x="222.65625"/>
       <use xlink:href="#DejaVuSans-2e" x="286.279297"/>
       <use xlink:href="#DejaVuSans-32" x="318.066406"/>
       <use xlink:href="#DejaVuSans-30" x="381.689453"/>
       <use xlink:href="#DejaVuSans-32" x="445.3125"/>
       <use xlink:href="#DejaVuSans-31" x="508.935547"/>
      </g>
     </g>
    </g>
    <g id="xtick_7">
     <g id="line2d_13">
      <path d="M 275.141113 276.48 
L 275.141113 41.472 
" clip-path="url(#pff31834b79)" style="fill: none; stroke-dasharray: 2.96,1.28; stroke-dashoffset: 0; stroke: #808080; stroke-width: 0.8"/>
     </g>
     <g id="line2d_14">
      <g>
       <use xlink:href="#m4293af9a75" x="275.141113" y="276.48" style="stroke: #000000; stroke-width: 0.8"/>
      </g>
     </g>
     <g id="text_7">
      <!-- 02.12.2021 -->
      <g transform="translate(224.515902 318.688565) rotate(-30) scale(0.1 -0.1)">
       <use xlink:href="#DejaVuSans-30"/>
       <use xlink:href="#DejaVuSans-32" x="63.623047"/>
       <use xlink:href="#DejaVuSans-2e" x="127.246094"/>
       <use xlink:href="#DejaVuSans-31" x="159.033203"/>
       <use xlink:href="#DejaVuSans-32" x="222.65625"/>
       <use xlink:href="#DejaVuSans-2e" x="286.279297"/>
       <use xlink:href="#DejaVuSans-32" x="318.066406"/>
       <use xlink:href="#DejaVuSans-30" x="381.689453"/>
       <use xlink:href="#DejaVuSans-32" x="445.3125"/>
       <use xlink:href="#DejaVuSans-31" x="508.935547"/>
      </g>
     </g>
    </g>
    <g id="xtick_8">
     <g id="line2d_15">
      <path d="M 311.0389 276.48 
L 311.0389 41.472 
" clip-path="url(#pff31834b79)" style="fill: none; stroke-dasharray: 2.96,1.28; stroke-dashoffset: 0; stroke: #808080; stroke-width: 0.8"/>
     </g>
     <g id="line2d_16">
      <g>
       <use xlink:href="#m4293af9a75" x="311.0389" y="276.48" style="stroke: #000000; stroke-width: 0.8"/>
      </g>
     </g>
     <g id="text_8">
      <!-- 26.03.2022 -->
      <g transform="translate(260.413689 318.688565) rotate(-30) scale(0.1 -0.1)">
       <defs>
        <path id="DejaVuSans-36" d="M 2113 2584 
Q 1688 2584 1439 2293 
Q 1191 2003 1191 1497 
Q 1191 994 1439 701 
Q 1688 409 2113 409 
Q 2538 409 2786 701 
Q 3034 994 3034 1497 
Q 3034 2003 2786 2293 
Q 2538 2584 2113 2584 
z
M 3366 4563 
L 3366 3988 
Q 3128 4100 2886 4159 
Q 2644 4219 2406 4219 
Q 1781 4219 1451 3797 
Q 1122 3375 1075 2522 
Q 1259 2794 1537 2939 
Q 1816 3084 2150 3084 
Q 2853 3084 3261 2657 
Q 3669 2231 3669 1497 
Q 3669 778 3244 343 
Q 2819 -91 2113 -91 
Q 1303 -91 875 529 
Q 447 1150 447 2328 
Q 447 3434 972 4092 
Q 1497 4750 2381 4750 
Q 2619 4750 2861 4703 
Q 3103 4656 3366 4563 
z
" transform="scale(0.015625)"/>
        <path id="DejaVuSans-33" d="M 2597 2516 
Q 3050 2419 3304 2112 
Q 3559 1806 3559 1356 
Q 3559 666 3084 287 
Q 2609 -91 1734 -91 
Q 1441 -91 1130 -33 
Q 819 25 488 141 
L 488 750 
Q 750 597 1062 519 
Q 1375 441 1716 441 
Q 2309 441 2620 675 
Q 2931 909 2931 1356 
Q 2931 1769 2642 2001 
Q 2353 2234 1838 2234 
L 1294 2234 
L 1294 2753 
L 1863 2753 
Q 2328 2753 2575 2939 
Q 2822 3125 2822 3475 
Q 2822 3834 2567 4026 
Q 2313 4219 1838 4219 
Q 1578 4219 1281 4162 
Q 984 4106 628 3988 
L 628 4550 
Q 988 4650 1302 4700 
Q 1616 4750 1894 4750 
Q 2613 4750 3031 4423 
Q 3450 4097 3450 3541 
Q 3450 3153 3228 2886 
Q 3006 2619 2597 2516 
z
" transform="scale(0.015625)"/>
       </defs>
       <use xlink:href="#DejaVuSans-32"/>
       <use xlink:href="#DejaVuSans-36" x="63.623047"/>
       <use xlink:href="#DejaVuSans-2e" x="127.246094"/>
       <use xlink:href="#DejaVuSans-30" x="159.033203"/>
       <use xlink:href="#DejaVuSans-33" x="222.65625"/>
       <use xlink:href="#DejaVuSans-2e" x="286.279297"/>
       <use xlink:href="#DejaVuSans-32" x="318.066406"/>
       <use xlink:href="#DejaVuSans-30" x="381.689453"/>
       <use xlink:href="#DejaVuSans-32" x="445.3125"/>
       <use xlink:href="#DejaVuSans-32" x="508.935547"/>
      </g>
     </g>
    </g>
    <g id="xtick_9">
     <g id="line2d_17">
      <path d="M 346.936686 276.48 
L 346.936686 41.472 
" clip-path="url(#pff31834b79)" style="fill: none; stroke-dasharray: 2.96,1.28; stroke-dashoffset: 0; stroke: #808080; stroke-width: 0.8"/>
     </g>
     <g id="line2d_18">
      <g>
       <use xlink:href="#m4293af9a75" x="346.936686" y="276.48" style="stroke: #000000; stroke-width: 0.8"/>
      </g>
     </g>
     <g id="text_9">
      <!-- 18.07.2022 -->
      <g transform="translate(296.311476 318.688565) rotate(-30) scale(0.1 -0.1)">
       <defs>
        <path id="DejaVuSans-37" d="M 525 4666 
L 3525 4666 
L 3525 4397 
L 1831 0 
L 1172 0 
L 2766 4134 
L 525 4134 
L 525 4666 
z
" transform="scale(0.015625)"/>
       </defs>
       <use xlink:href="#DejaVuSans-31"/>
       <use xlink:href="#DejaVuSans-38" x="63.623047"/>
       <use xlink:href="#DejaVuSans-2e" x="127.246094"/>
       <use xlink:href="#DejaVuSans-30" x="159.033203"/>
       <use xlink:href="#DejaVuSans-37" x="222.65625"/>
       <use xlink:href="#DejaVuSans-2e" x="286.279297"/>
       <use xlink:href="#DejaVuSans-32" x="318.066406"/>
       <use xlink:href="#DejaVuSans-30" x="381.689453"/>
       <use xlink:href="#DejaVuSans-32" x="445.3125"/>
       <use xlink:href="#DejaVuSans-32" x="508.935547"/>
      </g>
     </g>
    </g>
    <g id="xtick_10">
     <g id="line2d_19">
      <path d="M 382.834473 276.48 
L 382.834473 41.472 
" clip-path="url(#pff31834b79)" style="fill: none; stroke-dasharray: 2.96,1.28; stroke-dashoffset: 0; stroke: #808080; stroke-width: 0.8"/>
     </g>
     <g id="line2d_20">
      <g>
       <use xlink:href="#m4293af9a75" x="382.834473" y="276.48" style="stroke: #000000; stroke-width: 0.8"/>
      </g>
     </g>
     <g id="text_10">
      <!-- 09.11.2022 -->
      <g transform="translate(332.209262 318.688565) rotate(-30) scale(0.1 -0.1)">
       <use xlink:href="#DejaVuSans-30"/>
       <use xlink:href="#DejaVuSans-39" x="63.623047"/>
       <use xlink:href="#DejaVuSans-2e" x="127.246094"/>
       <use xlink:href="#DejaVuSans-31" x="159.033203"/>
       <use xlink:href="#DejaVuSans-31" x="222.65625"/>
       <use xlink:href="#DejaVuSans-2e" x="286.279297"/>
       <use xlink:href="#DejaVuSans-32" x="318.066406"/>
       <use xlink:href="#DejaVuSans-30" x="381.689453"/>
       <use xlink:href="#DejaVuSans-32" x="445.3125"/>
       <use xlink:href="#DejaVuSans-32" x="508.935547"/>
      </g>
     </g>
    </g>
   </g>
   <g id="matplotlib.axis_2">
    <g id="ytick_1">
     <g id="line2d_21">
      <path d="M 57.6 265.797818 
L 414.72 265.797818 
" clip-path="url(#pff31834b79)" style="fill: none; stroke-dasharray: 2.96,1.28; stroke-dashoffset: 0; stroke: #808080; stroke-width: 0.8"/>
     </g>
     <g id="line2d_22">
      <defs>
       <path id="m840096b779" d="M 0 0 
L -3.5 0 
" style="stroke: #000000; stroke-width: 0.8"/>
      </defs>
      <g>
       <use xlink:href="#m840096b779" x="57.6" y="265.797818" style="stroke: #000000; stroke-width: 0.8"/>
      </g>
     </g>
     <g id="text_11">
      <!-- 0 -->
      <g transform="translate(44.2375 269.597037) scale(0.1 -0.1)">
       <use xlink:href="#DejaVuSans-30"/>
      </g>
     </g>
    </g>
    <g id="ytick_2">
     <g id="line2d_23">
      <path d="M 57.6 215.241742 
L 414.72 215.241742 
" clip-path="url(#pff31834b79)" style="fill: none; stroke-dasharray: 2.96,1.28; stroke-dashoffset: 0; stroke: #808080; stroke-width: 0.8"/>
     </g>
     <g id="line2d_24">
      <g>
       <use xlink:href="#m840096b779" x="57.6" y="215.241742" style="stroke: #000000; stroke-width: 0.8"/>
      </g>
     </g>
     <g id="text_12">
      <!-- 500 -->
      <g transform="translate(31.5125 219.040961) scale(0.1 -0.1)">
       <use xlink:href="#DejaVuSans-35"/>
       <use xlink:href="#DejaVuSans-30" x="63.623047"/>
       <use xlink:href="#DejaVuSans-30" x="127.246094"/>
      </g>
     </g>
    </g>
    <g id="ytick_3">
     <g id="line2d_25">
      <path d="M 57.6 164.685666 
L 414.72 164.685666 
" clip-path="url(#pff31834b79)" style="fill: none; stroke-dasharray: 2.96,1.28; stroke-dashoffset: 0; stroke: #808080; stroke-width: 0.8"/>
     </g>
     <g id="line2d_26">
      <g>
       <use xlink:href="#m840096b779" x="57.6" y="164.685666" style="stroke: #000000; stroke-width: 0.8"/>
      </g>
     </g>
     <g id="text_13">
      <!-- 1000 -->
      <g transform="translate(25.15 168.484885) scale(0.1 -0.1)">
       <use xlink:href="#DejaVuSans-31"/>
       <use xlink:href="#DejaVuSans-30" x="63.623047"/>
       <use xlink:href="#DejaVuSans-30" x="127.246094"/>
       <use xlink:href="#DejaVuSans-30" x="190.869141"/>
      </g>
     </g>
    </g>
    <g id="ytick_4">
     <g id="line2d_27">
      <path d="M 57.6 114.12959 
L 414.72 114.12959 
" clip-path="url(#pff31834b79)" style="fill: none; stroke-dasharray: 2.96,1.28; stroke-dashoffset: 0; stroke: #808080; stroke-width: 0.8"/>
     </g>
     <g id="line2d_28">
      <g>
       <use xlink:href="#m840096b779" x="57.6" y="114.12959" style="stroke: #000000; stroke-width: 0.8"/>
      </g>
     </g>
     <g id="text_14">
      <!-- 1500 -->
      <g transform="translate(25.15 117.928808) scale(0.1 -0.1)">
       <use xlink:href="#DejaVuSans-31"/>
       <use xlink:href="#DejaVuSans-35" x="63.623047"/>
       <use xlink:href="#DejaVuSans-30" x="127.246094"/>
       <use xlink:href="#DejaVuSans-30" x="190.869141"/>
      </g>
     </g>
    </g>
    <g id="ytick_5">
     <g id="line2d_29">
      <path d="M 57.6 63.573514 
L 414.72 63.573514 
" clip-path="url(#pff31834b79)" style="fill: none; stroke-dasharray: 2.96,1.28; stroke-dashoffset: 0; stroke: #808080; stroke-width: 0.8"/>
     </g>
     <g id="line2d_30">
      <g>
       <use xlink:href="#m840096b779" x="57.6" y="63.573514" style="stroke: #000000; stroke-width: 0.8"/>
      </g>
     </g>
     <g id="text_15">
      <!-- 2000 -->
      <g transform="translate(25.15 67.372732) scale(0.1 -0.1)">
       <use xlink:href="#DejaVuSans-32"/>
       <use xlink:href="#DejaVuSans-30" x="63.623047"/>
       <use xlink:href="#DejaVuSans-30" x="127.246094"/>
       <use xlink:href="#DejaVuSans-30" x="190.869141"/>
      </g>
     </g>
    </g>
    <g id="text_16">
     <!-- Inzidenz pro 7 Tage pro 100.000 Einwohner -->
     <g transform="translate(19.070312 267.301) rotate(-90) scale(0.1 -0.1)">
      <defs>
       <path id="DejaVuSans-49" d="M 628 4666 
L 1259 4666 
L 1259 0 
L 628 0 
L 628 4666 
z
" transform="scale(0.015625)"/>
       <path id="DejaVuSans-6e" d="M 3513 2113 
L 3513 0 
L 2938 0 
L 2938 2094 
Q 2938 2591 2744 2837 
Q 2550 3084 2163 3084 
Q 1697 3084 1428 2787 
Q 1159 2491 1159 1978 
L 1159 0 
L 581 0 
L 581 3500 
L 1159 3500 
L 1159 2956 
Q 1366 3272 1645 3428 
Q 1925 3584 2291 3584 
Q 2894 3584 3203 3211 
Q 3513 2838 3513 2113 
z
" transform="scale(0.015625)"/>
       <path id="DejaVuSans-7a" d="M 353 3500 
L 3084 3500 
L 3084 2975 
L 922 459 
L 3084 459 
L 3084 0 
L 275 0 
L 275 525 
L 2438 3041 
L 353 3041 
L 353 3500 
z
" transform="scale(0.015625)"/>
       <path id="DejaVuSans-69" d="M 603 3500 
L 1178 3500 
L 1178 0 
L 603 0 
L 603 3500 
z
M 603 4863 
L 1178 4863 
L 1178 4134 
L 603 4134 
L 603 4863 
z
" transform="scale(0.015625)"/>
       <path id="DejaVuSans-64" d="M 2906 2969 
L 2906 4863 
L 3481 4863 
L 3481 0 
L 2906 0 
L 2906 525 
Q 2725 213 2448 61 
Q 2172 -91 1784 -91 
Q 1150 -91 751 415 
Q 353 922 353 1747 
Q 353 2572 751 3078 
Q 1150 3584 1784 3584 
Q 2172 3584 2448 3432 
Q 2725 3281 2906 2969 
z
M 947 1747 
Q 947 1113 1208 752 
Q 1469 391 1925 391 
Q 2381 391 2643 752 
Q 2906 1113 2906 1747 
Q 2906 2381 2643 2742 
Q 2381 3103 1925 3103 
Q 1469 3103 1208 2742 
Q 947 2381 947 1747 
z
" transform="scale(0.015625)"/>
       <path id="DejaVuSans-65" d="M 3597 1894 
L 3597 1613 
L 953 1613 
Q 991 1019 1311 708 
Q 1631 397 2203 397 
Q 2534 397 2845 478 
Q 3156 559 3463 722 
L 3463 178 
Q 3153 47 2828 -22 
Q 2503 -91 2169 -91 
Q 1331 -91 842 396 
Q 353 884 353 1716 
Q 353 2575 817 3079 
Q 1281 3584 2069 3584 
Q 2775 3584 3186 3129 
Q 3597 2675 3597 1894 
z
M 3022 2063 
Q 3016 2534 2758 2815 
Q 2500 3097 2075 3097 
Q 1594 3097 1305 2825 
Q 1016 2553 972 2059 
L 3022 2063 
z
" transform="scale(0.015625)"/>
       <path id="DejaVuSans-20" transform="scale(0.015625)"/>
       <path id="DejaVuSans-70" d="M 1159 525 
L 1159 -1331 
L 581 -1331 
L 581 3500 
L 1159 3500 
L 1159 2969 
Q 1341 3281 1617 3432 
Q 1894 3584 2278 3584 
Q 2916 3584 3314 3078 
Q 3713 2572 3713 1747 
Q 3713 922 3314 415 
Q 2916 -91 2278 -91 
Q 1894 -91 1617 61 
Q 1341 213 1159 525 
z
M 3116 1747 
Q 3116 2381 2855 2742 
Q 2594 3103 2138 3103 
Q 1681 3103 1420 2742 
Q 1159 2381 1159 1747 
Q 1159 1113 1420 752 
Q 1681 391 2138 391 
Q 2594 391 2855 752 
Q 3116 1113 3116 1747 
z
" transform="scale(0.015625)"/>
       <path id="DejaVuSans-72" d="M 2631 2963 
Q 2534 3019 2420 3045 
Q 2306 3072 2169 3072 
Q 1681 3072 1420 2755 
Q 1159 2438 1159 1844 
L 1159 0 
L 581 0 
L 581 3500 
L 1159 3500 
L 1159 2956 
Q 1341 3275 1631 3429 
Q 1922 3584 2338 3584 
Q 2397 3584 2469 3576 
Q 2541 3569 2628 3553 
L 2631 2963 
z
" transform="scale(0.015625)"/>
       <path id="DejaVuSans-6f" d="M 1959 3097 
Q 1497 3097 1228 2736 
Q 959 2375 959 1747 
Q 959 1119 1226 758 
Q 1494 397 1959 397 
Q 2419 397 2687 759 
Q 2956 1122 2956 1747 
Q 2956 2369 2687 2733 
Q 2419 3097 1959 3097 
z
M 1959 3584 
Q 2709 3584 3137 3096 
Q 3566 2609 3566 1747 
Q 3566 888 3137 398 
Q 2709 -91 1959 -91 
Q 1206 -91 779 398 
Q 353 888 353 1747 
Q 353 2609 779 3096 
Q 1206 3584 1959 3584 
z
" transform="scale(0.015625)"/>
       <path id="DejaVuSans-54" d="M -19 4666 
L 3928 4666 
L 3928 4134 
L 2272 4134 
L 2272 0 
L 1638 0 
L 1638 4134 
L -19 4134 
L -19 4666 
z
" transform="scale(0.015625)"/>
       <path id="DejaVuSans-61" d="M 2194 1759 
Q 1497 1759 1228 1600 
Q 959 1441 959 1056 
Q 959 750 1161 570 
Q 1363 391 1709 391 
Q 2188 391 2477 730 
Q 2766 1069 2766 1631 
L 2766 1759 
L 2194 1759 
z
M 3341 1997 
L 3341 0 
L 2766 0 
L 2766 531 
Q 2569 213 2275 61 
Q 1981 -91 1556 -91 
Q 1019 -91 701 211 
Q 384 513 384 1019 
Q 384 1609 779 1909 
Q 1175 2209 1959 2209 
L 2766 2209 
L 2766 2266 
Q 2766 2663 2505 2880 
Q 2244 3097 1772 3097 
Q 1472 3097 1187 3025 
Q 903 2953 641 2809 
L 641 3341 
Q 956 3463 1253 3523 
Q 1550 3584 1831 3584 
Q 2591 3584 2966 3190 
Q 3341 2797 3341 1997 
z
" transform="scale(0.015625)"/>
       <path id="DejaVuSans-67" d="M 2906 1791 
Q 2906 2416 2648 2759 
Q 2391 3103 1925 3103 
Q 1463 3103 1205 2759 
Q 947 2416 947 1791 
Q 947 1169 1205 825 
Q 1463 481 1925 481 
Q 2391 481 2648 825 
Q 2906 1169 2906 1791 
z
M 3481 434 
Q 3481 -459 3084 -895 
Q 2688 -1331 1869 -1331 
Q 1566 -1331 1297 -1286 
Q 1028 -1241 775 -1147 
L 775 -588 
Q 1028 -725 1275 -790 
Q 1522 -856 1778 -856 
Q 2344 -856 2625 -561 
Q 2906 -266 2906 331 
L 2906 616 
Q 2728 306 2450 153 
Q 2172 0 1784 0 
Q 1141 0 747 490 
Q 353 981 353 1791 
Q 353 2603 747 3093 
Q 1141 3584 1784 3584 
Q 2172 3584 2450 3431 
Q 2728 3278 2906 2969 
L 2906 3500 
L 3481 3500 
L 3481 434 
z
" transform="scale(0.015625)"/>
       <path id="DejaVuSans-45" d="M 628 4666 
L 3578 4666 
L 3578 4134 
L 1259 4134 
L 1259 2753 
L 3481 2753 
L 3481 2222 
L 1259 2222 
L 1259 531 
L 3634 531 
L 3634 0 
L 628 0 
L 628 4666 
z
" transform="scale(0.015625)"/>
       <path id="DejaVuSans-77" d="M 269 3500 
L 844 3500 
L 1563 769 
L 2278 3500 
L 2956 3500 
L 3675 769 
L 4391 3500 
L 4966 3500 
L 4050 0 
L 3372 0 
L 2619 2869 
L 1863 0 
L 1184 0 
L 269 3500 
z
" transform="scale(0.015625)"/>
       <path id="DejaVuSans-68" d="M 3513 2113 
L 3513 0 
L 2938 0 
L 2938 2094 
Q 2938 2591 2744 2837 
Q 2550 3084 2163 3084 
Q 1697 3084 1428 2787 
Q 1159 2491 1159 1978 
L 1159 0 
L 581 0 
L 581 4863 
L 1159 4863 
L 1159 2956 
Q 1366 3272 1645 3428 
Q 1925 3584 2291 3584 
Q 2894 3584 3203 3211 
Q 3513 2838 3513 2113 
z
" transform="scale(0.015625)"/>
      </defs>
      <use xlink:href="#DejaVuSans-49"/>
      <use xlink:href="#DejaVuSans-6e" x="29.492188"/>
      <use xlink:href="#DejaVuSans-7a" x="92.871094"/>
      <use xlink:href="#DejaVuSans-69" x="145.361328"/>
      <use xlink:href="#DejaVuSans-64" x="173.144531"/>
      <use xlink:href="#DejaVuSans-65" x="236.621094"/>
      <use xlink:href="#DejaVuSans-6e" x="298.144531"/>
      <use xlink:href="#DejaVuSans-7a" x="361.523438"/>
      <use xlink:href="#DejaVuSans-20" x="414.013672"/>
      <use xlink:href="#DejaVuSans-70" x="445.800781"/>
      <use xlink:href="#DejaVuSans-72" x="509.277344"/>
      <use xlink:href="#DejaVuSans-6f" x="548.140625"/>
      <use xlink:href="#DejaVuSans-20" x="609.322266"/>
      <use xlink:href="#DejaVuSans-37" x="641.109375"/>
      <use xlink:href="#DejaVuSans-20" x="704.732422"/>
      <use xlink:href="#DejaVuSans-54" x="736.519531"/>
      <use xlink:href="#DejaVuSans-61" x="781.103516"/>
      <use xlink:href="#DejaVuSans-67" x="842.382812"/>
      <use xlink:href="#DejaVuSans-65" x="905.859375"/>
      <use xlink:href="#DejaVuSans-20" x="967.382812"/>
      <use xlink:href="#DejaVuSans-70" x="999.169922"/>
      <use xlink:href="#DejaVuSans-72" x="1062.646484"/>
      <use xlink:href="#DejaVuSans-6f" x="1101.509766"/>
      <use xlink:href="#DejaVuSans-20" x="1162.691406"/>
      <use xlink:href="#DejaVuSans-31" x="1194.478516"/>
      <use xlink:href="#DejaVuSans-30" x="1258.101562"/>
      <use xlink:href="#DejaVuSans-30" x="1321.724609"/>
      <use xlink:href="#DejaVuSans-2e" x="1385.347656"/>
      <use xlink:href="#DejaVuSans-30" x="1417.134766"/>
      <use xlink:href="#DejaVuSans-30" x="1480.757812"/>
      <use xlink:href="#DejaVuSans-30" x="1544.380859"/>
      <use xlink:href="#DejaVuSans-20" x="1608.003906"/>
      <use xlink:href="#DejaVuSans-45" x="1639.791016"/>
      <use xlink:href="#DejaVuSans-69" x="1702.974609"/>
      <use xlink:href="#DejaVuSans-6e" x="1730.757812"/>
      <use xlink:href="#DejaVuSans-77" x="1794.136719"/>
      <use xlink:href="#DejaVuSans-6f" x="1875.923828"/>
      <use xlink:href="#DejaVuSans-68" x="1937.105469"/>
      <use xlink:href="#DejaVuSans-6e" x="2000.484375"/>
      <use xlink:href="#DejaVuSans-65" x="2063.863281"/>
      <use xlink:href="#DejaVuSans-72" x="2125.386719"/>
     </g>
    </g>
   </g>
   <g id="line2d_31">
    <path d="M 73.832727 265.797818 
L 75.407192 265.773775 
L 76.35187 265.749733 
L 77.296549 265.124622 
L 77.611442 264.860152 
L 78.241227 264.812067 
L 78.55612 264.499511 
L 78.871013 264.355255 
L 79.500799 264.571639 
L 79.815692 264.763981 
L 80.445477 264.571639 
L 80.76037 264.763981 
L 81.075263 264.715896 
L 82.019942 263.802272 
L 82.334835 263.754187 
L 83.279513 263.129076 
L 83.594406 263.24929 
L 83.909299 263.105033 
L 84.853978 263.321418 
L 85.16887 263.153119 
L 85.798656 263.24929 
L 86.113549 263.537802 
L 86.743335 263.24929 
L 87.373121 263.754187 
L 88.002906 263.393546 
L 88.317799 263.08099 
L 89.262478 262.960777 
L 89.577371 262.576093 
L 89.892263 262.744392 
L 90.522049 263.537802 
L 90.836942 263.826315 
L 91.151835 263.754187 
L 92.096514 264.451426 
L 92.726299 264.186956 
L 93.041192 264.451426 
L 93.670978 264.523554 
L 93.985871 264.860152 
L 94.930549 265.124622 
L 95.245442 265.004408 
L 95.875228 265.052494 
L 96.505014 264.93228 
L 96.819907 264.93228 
L 97.449692 265.19675 
L 98.079478 265.028451 
L 98.394371 265.172707 
L 99.968835 265.028451 
L 100.283728 265.172707 
L 100.598621 264.788024 
L 100.913514 265.004408 
L 101.5433 265.004408 
L 102.173085 265.100579 
L 102.487978 265.100579 
L 102.802871 265.485263 
L 103.117764 265.413135 
L 104.062442 265.677605 
L 105.007121 265.629519 
L 105.636907 265.701647 
L 109.100728 265.701647 
L 109.415621 265.509306 
L 113.509228 265.220793 
L 114.7688 265.533348 
L 116.028371 265.533348 
L 116.97305 265.365049 
L 117.287943 265.268878 
L 119.807086 265.389092 
L 120.121979 265.220793 
L 120.436872 265.268878 
L 121.066657 265.124622 
L 123.270907 265.244836 
L 124.215586 265.004408 
L 124.845372 264.595682 
L 125.475157 264.499511 
L 125.79005 264.307169 
L 126.734729 264.523554 
L 127.049622 264.547597 
L 127.9943 263.754187 
L 128.309193 263.465674 
L 128.624086 263.465674 
L 129.253872 263.153119 
L 129.568765 263.297375 
L 130.19855 263.898443 
L 131.143229 264.186956 
L 131.458122 264.475468 
L 131.773015 264.499511 
L 132.087908 264.355255 
L 132.717693 264.715896 
L 133.662372 264.739938 
L 134.292158 265.148665 
L 134.607051 264.884195 
L 134.921943 264.812067 
L 135.236836 264.595682 
L 135.551729 264.763981 
L 135.866622 264.739938 
L 136.181515 264.40334 
L 136.496408 264.307169 
L 136.811301 264.499511 
L 137.126193 264.379298 
L 137.441086 264.571639 
L 137.755979 264.235041 
L 138.070872 264.114828 
L 138.700658 264.186956 
L 139.015551 263.994614 
L 139.960229 263.994614 
L 140.275122 263.778229 
L 140.590015 263.8744 
L 140.904908 263.826315 
L 141.219801 263.970571 
L 142.794265 263.922486 
L 143.424051 263.34546 
L 143.738944 262.792478 
L 144.683622 262.864606 
L 145.943194 261.229701 
L 146.258087 261.229701 
L 147.832551 256.01243 
L 148.147444 254.786251 
L 148.462337 254.786251 
L 148.77723 252.814748 
L 149.092122 252.189637 
L 149.407015 252.862833 
L 149.721908 251.348142 
L 150.036801 251.107714 
L 150.351694 250.338347 
L 150.666587 249.064083 
L 150.98148 250.506646 
L 151.296372 250.915373 
L 151.611265 249.208339 
L 151.926158 249.30451 
L 152.241051 248.703442 
L 152.555944 248.943869 
L 152.870837 250.194091 
L 153.500623 245.409589 
L 153.815515 244.784478 
L 154.130408 243.414043 
L 154.445301 242.981274 
L 155.38998 243.12553 
L 156.649551 240.456788 
L 156.964444 239.927848 
L 157.279337 239.951891 
L 157.59423 240.745301 
L 157.909123 242.716804 
L 158.224016 242.885103 
L 158.538908 243.245744 
L 159.483587 243.39 
L 159.79848 244.111282 
L 160.428266 244.375752 
L 160.743158 244.640222 
L 161.058051 244.015111 
L 161.372944 244.231496 
L 161.687837 244.231496 
L 162.317623 239.59125 
L 162.632516 239.807635 
L 163.262301 240.601045 
L 163.577194 240.721258 
L 163.892087 240.697215 
L 164.20698 240.096147 
L 164.521873 239.807635 
L 164.836766 238.341029 
L 165.151659 235.335688 
L 165.466551 234.975047 
L 165.781444 234.229723 
L 166.096337 234.253766 
L 166.41123 235.239517 
L 166.726123 234.99909 
L 167.041016 235.696329 
L 167.670802 242.524462 
L 167.985694 245.145119 
L 168.300587 245.145119 
L 168.61548 248.535143 
L 168.930373 249.112168 
L 169.245266 248.703442 
L 169.875052 249.015998 
L 170.189944 249.280467 
L 170.504837 249.256425 
L 170.81973 247.597477 
L 171.449516 249.689194 
L 172.079302 250.266219 
L 172.394195 249.83345 
L 172.709087 249.857493 
L 173.02398 250.987501 
L 173.338873 251.468355 
L 173.653766 252.21368 
L 173.968659 251.94921 
L 174.598445 250.049835 
L 174.913337 250.049835 
L 175.22823 250.843244 
L 176.172909 254.257311 
L 176.487802 254.906465 
L 176.802695 255.940302 
L 177.117588 255.940302 
L 177.43248 256.300943 
L 177.747373 255.916259 
L 178.377159 255.723917 
L 178.692052 255.387319 
L 179.006945 255.579661 
L 179.321838 255.579661 
L 179.63673 255.892216 
L 179.951623 255.772003 
L 180.266516 256.036473 
L 180.896302 257.142438 
L 181.840981 257.046267 
L 182.155873 257.86372 
L 182.470766 258.152232 
L 182.785659 258.272446 
L 183.100552 257.95989 
L 183.415445 258.200318 
L 183.730338 258.176275 
L 184.045231 257.358822 
L 184.360123 257.479036 
L 184.675016 257.286694 
L 184.989909 256.733712 
L 185.304802 256.877968 
L 185.619695 256.300943 
L 185.934588 256.324985 
L 186.249481 257.214566 
L 186.564374 256.685626 
L 187.194159 257.454993 
L 187.509052 257.286694 
L 188.138838 257.33478 
L 188.453731 257.142438 
L 188.768624 257.142438 
L 189.083516 256.228814 
L 189.398409 256.132644 
L 189.713302 256.180729 
L 190.028195 255.892216 
L 190.972874 255.844131 
L 191.287767 254.95455 
L 191.602659 254.401567 
L 191.917552 254.233268 
L 192.232445 254.617952 
L 192.547338 254.666037 
L 193.177124 252.622406 
L 193.492017 252.862833 
L 194.436695 250.530689 
L 194.751588 250.530689 
L 195.696267 249.04004 
L 196.01116 248.943869 
L 196.326052 248.318759 
L 196.640945 247.958118 
L 196.955838 247.958118 
L 197.270731 247.669605 
L 197.585624 247.164708 
L 197.900517 247.044494 
L 198.21541 246.491512 
L 198.845195 248.727485 
L 199.160088 248.727485 
L 199.474981 249.737279 
L 199.789874 251.468355 
L 200.104767 252.165594 
L 200.41966 251.588569 
L 200.734553 249.593023 
L 201.049445 249.761322 
L 201.364338 249.761322 
L 201.679231 248.943869 
L 201.994124 247.116622 
L 202.309017 246.202999 
L 202.938803 248.991955 
L 203.253695 247.429178 
L 203.568588 247.429178 
L 203.883481 247.573434 
L 204.198374 247.88599 
L 204.513267 247.813861 
L 204.82816 247.260879 
L 205.143053 245.866401 
L 205.457946 246.371298 
L 205.772838 246.371298 
L 206.087731 245.481717 
L 206.402624 245.914486 
L 206.717517 245.698102 
L 207.03241 246.924281 
L 207.347303 248.655357 
L 207.662196 249.232382 
L 207.977088 248.967912 
L 208.291981 251.276014 
L 208.606874 251.94921 
L 208.921767 253.560072 
L 209.23666 253.920713 
L 209.551553 254.089012 
L 209.866446 253.415816 
L 210.181339 253.656243 
L 210.811124 252.550278 
L 211.44091 253.343688 
L 211.755803 254.040927 
L 212.070696 255.387319 
L 212.385589 255.411362 
L 212.700481 255.940302 
L 213.015374 257.166481 
L 213.330267 257.815634 
L 213.64516 257.983933 
L 213.960053 257.95989 
L 214.274946 258.176275 
L 214.589839 258.176275 
L 215.534517 259.979479 
L 215.84941 260.243949 
L 216.164303 260.820975 
L 216.479196 260.989274 
L 217.423874 260.893103 
L 217.738767 261.854812 
L 218.05366 262.407794 
L 218.368553 262.45588 
L 218.683446 262.768435 
L 219.313232 262.816521 
L 219.628125 263.24929 
L 219.943017 263.129076 
L 220.572803 263.489717 
L 220.887696 263.633973 
L 221.517482 263.60993 
L 222.777053 264.715896 
L 223.091946 264.860152 
L 223.406839 264.860152 
L 224.036625 265.124622 
L 224.66641 265.028451 
L 224.981303 264.884195 
L 225.611089 264.980366 
L 226.87066 265.052494 
L 227.185553 265.100579 
L 227.815339 265.004408 
L 228.130232 265.028451 
L 228.445125 264.93228 
L 230.334482 265.124622 
L 231.279161 264.788024 
L 231.594053 264.812067 
L 233.798304 264.090785 
L 234.113196 263.850358 
L 236.002554 263.826315 
L 236.317446 264.042699 
L 236.947232 264.018657 
L 237.262125 264.162913 
L 237.577018 263.922486 
L 238.206804 263.970571 
L 238.521696 263.826315 
L 239.466375 263.730144 
L 240.725947 262.816521 
L 241.040839 262.816521 
L 241.355732 261.92694 
L 241.985518 260.748846 
L 242.930197 258.176275 
L 243.245089 258.176275 
L 243.559982 258.007976 
L 243.874875 257.647335 
L 244.189768 258.056061 
L 244.504661 258.12819 
L 244.819554 257.527121 
L 245.134447 258.104147 
L 245.44934 258.104147 
L 245.764232 257.358822 
L 246.079125 255.074764 
L 246.708911 253.175389 
L 247.023804 252.718577 
L 247.338697 252.502192 
L 247.65359 252.502192 
L 247.968482 252.694534 
L 248.283375 253.6322 
L 248.598268 253.199431 
L 248.913161 253.752414 
L 249.228054 254.714123 
L 249.542947 254.497738 
L 249.85784 254.497738 
L 250.172733 254.810294 
L 250.487625 255.363276 
L 250.802518 256.517327 
L 251.117411 256.156686 
L 251.432304 255.988387 
L 252.06209 256.060515 
L 252.376983 256.084558 
L 252.691875 256.54137 
L 253.006768 256.108601 
L 253.321661 256.324985 
L 253.636554 256.324985 
L 253.951447 256.469242 
L 254.581233 256.469242 
L 254.896126 256.733712 
L 255.211018 256.709669 
L 255.525911 256.902011 
L 255.840804 256.950096 
L 256.155697 257.190523 
L 256.47059 257.190523 
L 256.785483 257.86372 
L 257.100376 257.575207 
L 257.415268 257.86372 
L 257.730161 256.877968 
L 258.045054 256.853925 
L 258.359947 256.493284 
L 258.67484 256.493284 
L 258.989733 255.868174 
L 259.304626 256.565413 
L 259.619519 256.661583 
L 259.934411 257.406908 
L 260.249304 256.685626 
L 260.564197 257.118395 
L 261.193983 257.190523 
L 261.508876 256.036473 
L 262.138661 254.882422 
L 262.453554 254.545824 
L 262.768447 253.992841 
L 263.08334 253.992841 
L 263.398233 252.886876 
L 264.028019 252.141552 
L 264.657804 251.780911 
L 264.972697 251.083672 
L 265.28759 251.083672 
L 266.232269 248.631314 
L 266.547162 247.333007 
L 266.862054 245.481717 
L 267.176947 245.265333 
L 267.49184 245.265333 
L 267.806733 244.808521 
L 268.436519 243.053402 
L 268.751412 242.019565 
L 269.066305 242.620633 
L 269.381197 242.284035 
L 269.69609 242.284035 
L 270.325876 240.336575 
L 270.640769 238.53337 
L 270.955662 238.124644 
L 271.270555 237.355277 
L 271.585447 235.864628 
L 271.90034 235.431859 
L 272.530126 233.027587 
L 272.845019 234.373979 
L 273.159912 233.652698 
L 273.474805 232.210134 
L 273.789698 234.133552 
L 274.10459 234.133552 
L 274.419483 235.095261 
L 274.734376 234.518236 
L 275.049269 232.041835 
L 275.364162 231.921622 
L 275.679055 233.652698 
L 275.993948 232.835245 
L 276.30884 232.835245 
L 276.623733 229.565435 
L 277.253519 233.893125 
L 277.568412 235.095261 
L 277.883305 234.878876 
L 278.513091 235.624201 
L 279.142876 239.014225 
L 279.457769 239.302737 
L 279.772662 241.129984 
L 280.087555 240.745301 
L 280.717341 240.793386 
L 281.032233 241.779138 
L 281.347126 241.827223 
L 281.662019 242.572548 
L 281.976912 242.284035 
L 282.291805 244.664265 
L 282.606698 245.50576 
L 282.921591 245.50576 
L 283.236484 246.683853 
L 283.551376 245.842358 
L 283.866269 246.467469 
L 284.181162 245.746187 
L 284.496055 245.577888 
L 285.125841 245.601931 
L 285.440734 243.197659 
L 286.070519 236.441653 
L 286.385412 234.422065 
L 286.700305 230.022246 
L 287.015198 228.074786 
L 287.330091 228.074786 
L 288.274769 212.855742 
L 288.589662 212.062332 
L 288.904555 205.715053 
L 289.219448 205.907395 
L 289.534341 205.907395 
L 289.849234 199.487988 
L 290.164127 197.372229 
L 290.479019 190.520053 
L 291.108805 170.732892 
L 291.423698 170.01161 
L 291.738591 169.987567 
L 292.053484 167.487124 
L 292.998162 114.665262 
L 293.313055 111.852263 
L 293.627948 110.890554 
L 293.942841 110.914597 
L 294.257734 94.301075 
L 294.572627 94.228947 
L 294.88752 96.128322 
L 295.832198 71.460488 
L 296.147091 71.436446 
L 296.461984 59.270828 
L 297.09177 52.154182 
L 297.406663 73.071351 
L 297.721555 83.313551 
L 298.036448 84.155046 
L 298.351341 84.179089 
L 298.666234 105.529027 
L 298.981127 116.732936 
L 299.29602 114.20845 
L 299.925805 124.354479 
L 300.240698 119.233379 
L 300.555591 119.233379 
L 300.870484 129.235152 
L 301.185377 128.441742 
L 301.50027 146.041015 
L 302.130056 148.036561 
L 302.444948 155.153207 
L 302.759841 155.153207 
L 303.074734 152.724892 
L 303.389627 159.480897 
L 303.70452 161.476443 
L 304.019413 160.130051 
L 304.334306 160.586862 
L 304.649198 157.437266 
L 304.964091 157.437266 
L 305.593877 148.878056 
L 305.90877 147.291237 
L 306.223663 145.127392 
L 306.538556 138.804155 
L 306.853449 142.891418 
L 307.168341 142.891418 
L 307.483234 135.678601 
L 307.798127 140.992043 
L 308.11302 134.139867 
L 308.427913 134.404337 
L 308.742806 133.538799 
L 309.057699 137.69819 
L 309.372591 137.69819 
L 309.687484 126.92705 
L 310.002377 108.101598 
L 310.947056 83.169294 
L 311.261949 77.903938 
L 311.576842 77.519255 
L 311.891734 79.94757 
L 312.206627 87.400814 
L 312.52152 98.748979 
L 312.836413 104.423062 
L 313.151306 117.21379 
L 313.466199 119.401678 
L 313.781092 119.786362 
L 314.095984 137.265421 
L 314.72577 154.311712 
L 315.040663 168.713303 
L 315.670449 172.439925 
L 315.985342 172.415882 
L 316.300235 163.159434 
L 316.615127 167.439038 
L 317.244913 155.946617 
L 317.559806 163.496032 
L 317.874699 156.836198 
L 318.189592 156.86024 
L 318.504485 177.488897 
L 318.819377 170.155866 
L 319.13427 167.89585 
L 319.449163 167.511167 
L 319.764056 162.846878 
L 320.078949 169.939482 
L 320.393842 169.939482 
L 320.708735 150.945731 
L 321.023628 155.778318 
L 321.653413 176.286761 
L 321.968306 178.594862 
L 322.283199 174.387385 
L 322.598092 174.387385 
L 322.912985 195.472853 
L 323.227878 198.694578 
L 323.54277 199.103305 
L 323.857663 198.983091 
L 324.172556 200.401612 
L 324.487449 204.440789 
L 324.802342 204.440789 
L 325.117235 196.723075 
L 325.432128 204.27249 
L 325.747021 203.911849 
L 326.061913 206.460378 
L 326.376806 206.628677 
L 326.691699 208.33571 
L 327.006592 208.33571 
L 327.321485 214.009793 
L 327.636378 214.418519 
L 327.951271 220.501328 
L 328.581056 227.738188 
L 328.895949 228.387341 
L 329.210842 228.387341 
L 329.525735 231.897579 
L 329.840628 233.94121 
L 330.155521 237.090807 
L 330.470414 241.490625 
L 330.785306 238.894011 
L 331.415092 238.990182 
L 331.729985 238.821883 
L 332.044878 236.465696 
L 332.359771 232.859288 
L 332.674664 226.055197 
L 332.989556 227.281376 
L 333.304449 226.391795 
L 333.619342 226.367753 
L 333.934235 234.109509 
L 334.878914 222.857515 
L 335.193807 216.125553 
L 335.508699 213.264468 
L 335.823592 213.264468 
L 336.138485 202.15673 
L 336.768271 199.728415 
L 337.083164 211.100623 
L 337.398057 207.975069 
L 337.712949 206.772933 
L 338.027842 206.772933 
L 338.342735 207.205702 
L 338.972521 199.968843 
L 339.287414 184.028517 
L 339.602307 190.183454 
L 339.9172 190.015155 
L 340.232092 190.039198 
L 340.546985 182.489783 
L 340.861878 180.013383 
L 341.176771 179.98934 
L 341.491664 181.984886 
L 341.806557 175.156753 
L 342.12145 173.954616 
L 342.436342 173.954616 
L 342.751235 176.166547 
L 343.381021 170.684806 
L 343.695914 167.607338 
L 344.010807 168.905645 
L 344.3257 169.410542 
L 344.640593 169.410542 
L 345.270378 163.087306 
L 345.585271 159.384726 
L 345.900164 159.50494 
L 346.52995 151.667012 
L 346.844843 151.667012 
L 347.159735 145.415904 
L 348.104414 153.782772 
L 348.7342 158.230676 
L 349.049093 158.230676 
L 349.363986 160.178136 
L 349.678878 163.375818 
L 349.993771 168.737346 
L 350.308664 170.035653 
L 350.623557 177.08017 
L 350.93845 178.498691 
L 351.253343 178.498691 
L 351.883128 197.780955 
L 352.512914 207.085489 
L 353.1427 211.77382 
L 353.457593 210.018701 
L 354.087379 214.971502 
L 354.717164 218.84238 
L 355.032057 217.25556 
L 355.661843 220.741755 
L 355.976736 221.126439 
L 356.291629 222.28049 
L 356.606521 222.857515 
L 356.921414 222.37666 
L 357.236307 226.247539 
L 357.5512 227.233291 
L 357.866093 227.233291 
L 358.495879 232.017792 
L 358.810772 233.027587 
L 359.440557 236.994636 
L 359.75545 238.461242 
L 360.070343 238.461242 
L 360.385236 237.162935 
L 360.700129 236.537824 
L 361.015022 237.571661 
L 361.329914 237.836131 
L 361.644807 237.788046 
L 361.9597 237.138892 
L 362.274593 237.138892 
L 362.589486 238.53337 
L 362.904379 237.860174 
L 363.219272 238.653584 
L 363.849057 237.090807 
L 364.16395 237.860174 
L 364.478843 237.860174 
L 364.793736 236.081013 
L 365.108629 236.778252 
L 365.423522 233.94121 
L 365.738415 233.41227 
L 366.3682 229.589477 
L 366.683093 229.589477 
L 366.997986 227.66606 
L 367.312879 224.468377 
L 367.627772 223.146028 
L 367.942665 220.284944 
L 368.257558 219.683876 
L 368.57245 217.760458 
L 368.887343 217.760458 
L 370.7767 195.689238 
L 371.091593 195.689238 
L 371.406486 209.513804 
L 372.036272 190.351753 
L 372.666058 172.776523 
L 372.980951 168.905645 
L 373.295843 168.905645 
L 373.610736 145.415904 
L 373.925629 144.502281 
L 374.240522 145.800588 
L 374.555415 149.863808 
L 374.870308 151.955525 
L 375.185201 156.283215 
L 375.500093 156.283215 
L 375.814986 153.350003 
L 376.444772 161.885169 
L 376.759665 164.024972 
L 377.074558 170.564592 
L 377.389451 174.026745 
L 377.704344 174.026745 
L 378.019236 184.365115 
L 378.334129 189.558344 
L 378.963915 206.292079 
L 379.278808 209.585932 
L 379.593701 211.437222 
L 379.908594 211.437222 
L 380.223486 219.828132 
L 380.853272 224.300078 
L 381.483058 228.098829 
L 381.797951 231.657152 
L 382.112844 231.657152 
L 382.427737 229.685648 
L 382.742629 233.94121 
L 383.372415 237.64379 
L 383.687308 239.134438 
L 384.317094 239.134438 
L 384.631987 240.552959 
L 384.946879 243.750641 
L 385.261772 243.438086 
L 385.576665 244.71235 
L 385.891558 243.173616 
L 386.521344 243.173616 
L 386.836237 244.544051 
L 387.15113 243.02936 
L 387.466022 244.039154 
L 387.780915 243.173616 
L 388.095808 243.942983 
L 388.725594 243.942983 
L 389.040487 246.323213 
L 389.35538 245.650016 
L 389.670272 247.645562 
L 389.985165 245.698102 
L 390.300058 246.948323 
L 390.929844 246.948323 
L 391.244737 246.443426 
L 391.55963 245.433632 
L 391.874523 245.650016 
L 392.189415 246.611725 
L 392.504308 244.015111 
L 393.134094 244.015111 
L 393.448987 241.490625 
L 393.76388 243.173616 
L 394.078773 238.869968 
L 394.393665 239.32678 
L 394.708558 238.773798 
L 395.338344 238.773798 
L 395.96813 237.932302 
L 396.283023 238.100601 
L 396.597916 236.129098 
L 396.912808 238.00443 
L 397.542594 238.00443 
L 397.857487 245.890444 
L 398.17238 240.961685 
L 398.487273 239.951891 
L 398.487273 239.951891 
" clip-path="url(#pff31834b79)" style="fill: none; stroke: #1f77b4; stroke-width: 1.5; stroke-linecap: square"/>
   </g>
   <g id="patch_3">
    <path d="M 57.6 276.48 
L 57.6 41.472 
" style="fill: none; stroke: #000000; stroke-width: 0.8; stroke-linejoin: miter; stroke-linecap: square"/>
   </g>
   <g id="patch_4">
    <path d="M 414.72 276.48 
L 414.72 41.472 
" style="fill: none; stroke: #000000; stroke-width: 0.8; stroke-linejoin: miter; stroke-linecap: square"/>
   </g>
   <g id="patch_5">
    <path d="M 57.6 276.48 
L 414.72 276.48 
" style="fill: none; stroke: #000000; stroke-width: 0.8; stroke-linejoin: miter; stroke-linecap: square"/>
   </g>
   <g id="patch_6">
    <path d="M 57.6 41.472 
L 414.72 41.472 
" style="fill: none; stroke: #000000; stroke-width: 0.8; stroke-linejoin: miter; stroke-linecap: square"/>
   </g>
  </g>
  <g id="text_17">
   <!-- Inzidenzverlauf LK Main-Kinzig-Kreis -->
   <g transform="translate(67.900781 20.589187) scale(0.18 -0.18)">
    <defs>
     <path id="DejaVuSans-76" d="M 191 3500 
L 800 3500 
L 1894 563 
L 2988 3500 
L 3597 3500 
L 2284 0 
L 1503 0 
L 191 3500 
z
" transform="scale(0.015625)"/>
     <path id="DejaVuSans-6c" d="M 603 4863 
L 1178 4863 
L 1178 0 
L 603 0 
L 603 4863 
z
" transform="scale(0.015625)"/>
     <path id="DejaVuSans-75" d="M 544 1381 
L 544 3500 
L 1119 3500 
L 1119 1403 
Q 1119 906 1312 657 
Q 1506 409 1894 409 
Q 2359 409 2629 706 
Q 2900 1003 2900 1516 
L 2900 3500 
L 3475 3500 
L 3475 0 
L 2900 0 
L 2900 538 
Q 2691 219 2414 64 
Q 2138 -91 1772 -91 
Q 1169 -91 856 284 
Q 544 659 544 1381 
z
M 1991 3584 
L 1991 3584 
z
" transform="scale(0.015625)"/>
     <path id="DejaVuSans-66" d="M 2375 4863 
L 2375 4384 
L 1825 4384 
Q 1516 4384 1395 4259 
Q 1275 4134 1275 3809 
L 1275 3500 
L 2222 3500 
L 2222 3053 
L 1275 3053 
L 1275 0 
L 697 0 
L 697 3053 
L 147 3053 
L 147 3500 
L 697 3500 
L 697 3744 
Q 697 4328 969 4595 
Q 1241 4863 1831 4863 
L 2375 4863 
z
" transform="scale(0.015625)"/>
     <path id="DejaVuSans-4c" d="M 628 4666 
L 1259 4666 
L 1259 531 
L 3531 531 
L 3531 0 
L 628 0 
L 628 4666 
z
" transform="scale(0.015625)"/>
     <path id="DejaVuSans-4b" d="M 628 4666 
L 1259 4666 
L 1259 2694 
L 3353 4666 
L 4166 4666 
L 1850 2491 
L 4331 0 
L 3500 0 
L 1259 2247 
L 1259 0 
L 628 0 
L 628 4666 
z
" transform="scale(0.015625)"/>
     <path id="DejaVuSans-4d" d="M 628 4666 
L 1569 4666 
L 2759 1491 
L 3956 4666 
L 4897 4666 
L 4897 0 
L 4281 0 
L 4281 4097 
L 3078 897 
L 2444 897 
L 1241 4097 
L 1241 0 
L 628 0 
L 628 4666 
z
" transform="scale(0.015625)"/>
     <path id="DejaVuSans-2d" d="M 313 2009 
L 1997 2009 
L 1997 1497 
L 313 1497 
L 313 2009 
z
" transform="scale(0.015625)"/>
     <path id="DejaVuSans-73" d="M 2834 3397 
L 2834 2853 
Q 2591 2978 2328 3040 
Q 2066 3103 1784 3103 
Q 1356 3103 1142 2972 
Q 928 2841 928 2578 
Q 928 2378 1081 2264 
Q 1234 2150 1697 2047 
L 1894 2003 
Q 2506 1872 2764 1633 
Q 3022 1394 3022 966 
Q 3022 478 2636 193 
Q 2250 -91 1575 -91 
Q 1294 -91 989 -36 
Q 684 19 347 128 
L 347 722 
Q 666 556 975 473 
Q 1284 391 1588 391 
Q 1994 391 2212 530 
Q 2431 669 2431 922 
Q 2431 1156 2273 1281 
Q 2116 1406 1581 1522 
L 1381 1569 
Q 847 1681 609 1914 
Q 372 2147 372 2553 
Q 372 3047 722 3315 
Q 1072 3584 1716 3584 
Q 2034 3584 2315 3537 
Q 2597 3491 2834 3397 
z
" transform="scale(0.015625)"/>
    </defs>
    <use xlink:href="#DejaVuSans-49"/>
    <use xlink:href="#DejaVuSans-6e" x="29.492188"/>
    <use xlink:href="#DejaVuSans-7a" x="92.871094"/>
    <use xlink:href="#DejaVuSans-69" x="145.361328"/>
    <use xlink:href="#DejaVuSans-64" x="173.144531"/>
    <use xlink:href="#DejaVuSans-65" x="236.621094"/>
    <use xlink:href="#DejaVuSans-6e" x="298.144531"/>
    <use xlink:href="#DejaVuSans-7a" x="361.523438"/>
    <use xlink:href="#DejaVuSans-76" x="414.013672"/>
    <use xlink:href="#DejaVuSans-65" x="473.193359"/>
    <use xlink:href="#DejaVuSans-72" x="534.716797"/>
    <use xlink:href="#DejaVuSans-6c" x="575.830078"/>
    <use xlink:href="#DejaVuSans-61" x="603.613281"/>
    <use xlink:href="#DejaVuSans-75" x="664.892578"/>
    <use xlink:href="#DejaVuSans-66" x="728.271484"/>
    <use xlink:href="#DejaVuSans-20" x="763.476562"/>
    <use xlink:href="#DejaVuSans-4c" x="795.263672"/>
    <use xlink:href="#DejaVuSans-4b" x="850.976562"/>
    <use xlink:href="#DejaVuSans-20" x="916.552734"/>
    <use xlink:href="#DejaVuSans-4d" x="948.339844"/>
    <use xlink:href="#DejaVuSans-61" x="1034.619141"/>
    <use xlink:href="#DejaVuSans-69" x="1095.898438"/>
    <use xlink:href="#DejaVuSans-6e" x="1123.681641"/>
    <use xlink:href="#DejaVuSans-2d" x="1187.060547"/>
    <use xlink:href="#DejaVuSans-4b" x="1223.144531"/>
    <use xlink:href="#DejaVuSans-69" x="1288.720703"/>
    <use xlink:href="#DejaVuSans-6e" x="1316.503906"/>
    <use xlink:href="#DejaVuSans-7a" x="1379.882812"/>
    <use xlink:href="#DejaVuSans-69" x="1432.373047"/>
    <use xlink:href="#DejaVuSans-67" x="1460.15625"/>
    <use xlink:href="#DejaVuSans-2d" x="1523.632812"/>
    <use xlink:href="#DejaVuSans-4b" x="1559.716797"/>
    <use xlink:href="#DejaVuSans-72" x="1625.292969"/>
    <use xlink:href="#DejaVuSans-65" x="1664.15625"/>
    <use xlink:href="#DejaVuSans-69" x="1725.679688"/>
    <use xlink:href="#DejaVuSans-73" x="1753.462891"/>
   </g>
  </g>
 </g>
 <defs>
  <clipPath id="pff31834b79">
   <rect x="57.6" y="41.472" width="357.12" height="235.008"/>
  </clipPath>
 </defs>
</svg>
