<?xml version="1.0" encoding="utf-8" standalone="no"?>
<!DOCTYPE svg PUBLIC "-//W3C//DTD SVG 1.1//EN"
  "http://www.w3.org/Graphics/SVG/1.1/DTD/svg11.dtd">
<svg xmlns:xlink="http://www.w3.org/1999/xlink" width="460.8pt" height="345.6pt" viewBox="0 0 460.8 345.6" xmlns="http://www.w3.org/2000/svg" version="1.1">
 <metadata>
  <rdf:RDF xmlns:dc="http://purl.org/dc/elements/1.1/" xmlns:cc="http://creativecommons.org/ns#" xmlns:rdf="http://www.w3.org/1999/02/22-rdf-syntax-ns#">
   <cc:Work>
    <dc:type rdf:resource="http://purl.org/dc/dcmitype/StillImage"/>
    <dc:date>2022-05-20T09:24:56.307987</dc:date>
    <dc:format>image/svg+xml</dc:format>
    <dc:creator>
     <cc:Agent>
      <dc:title>Matplotlib v3.5.2, https://matplotlib.org/</dc:title>
     </cc:Agent>
    </dc:creator>
   </cc:Work>
  </rdf:RDF>
 </metadata>
 <defs>
  <style type="text/css">*{stroke-linejoin: round; stroke-linecap: butt}</style>
 </defs>
 <g id="figure_1">
  <g id="patch_1">
   <path d="M 0 345.6 
L 460.8 345.6 
L 460.8 0 
L 0 0 
z
" style="fill: #ffffff"/>
  </g>
  <g id="axes_1">
   <g id="patch_2">
    <path d="M 57.6 276.48 
L 414.72 276.48 
L 414.72 41.472 
L 57.6 41.472 
z
" style="fill: #ffffff"/>
   </g>
   <g id="matplotlib.axis_1">
    <g id="xtick_1">
     <g id="line2d_1">
      <path d="M 93.236328 276.48 
L 93.236328 41.472 
" clip-path="url(#pd0a312d3b4)" style="fill: none; stroke-dasharray: 2.96,1.28; stroke-dashoffset: 0; stroke: #808080; stroke-width: 0.8"/>
     </g>
     <g id="line2d_2">
      <defs>
       <path id="m300f8cf96a" d="M 0 0 
L 0 3.5 
" style="stroke: #000000; stroke-width: 0.8"/>
      </defs>
      <g>
       <use xlink:href="#m300f8cf96a" x="93.236328" y="276.48" style="stroke: #000000; stroke-width: 0.8"/>
      </g>
     </g>
     <g id="text_1">
      <!-- 20.04.2020 -->
      <g transform="translate(42.611117 318.688565)rotate(-30)scale(0.1 -0.1)">
       <defs>
        <path id="DejaVuSans-32" d="M 1228 531 
L 3431 531 
L 3431 0 
L 469 0 
L 469 531 
Q 828 903 1448 1529 
Q 2069 2156 2228 2338 
Q 2531 2678 2651 2914 
Q 2772 3150 2772 3378 
Q 2772 3750 2511 3984 
Q 2250 4219 1831 4219 
Q 1534 4219 1204 4116 
Q 875 4013 500 3803 
L 500 4441 
Q 881 4594 1212 4672 
Q 1544 4750 1819 4750 
Q 2544 4750 2975 4387 
Q 3406 4025 3406 3419 
Q 3406 3131 3298 2873 
Q 3191 2616 2906 2266 
Q 2828 2175 2409 1742 
Q 1991 1309 1228 531 
z
" transform="scale(0.015625)"/>
        <path id="DejaVuSans-30" d="M 2034 4250 
Q 1547 4250 1301 3770 
Q 1056 3291 1056 2328 
Q 1056 1369 1301 889 
Q 1547 409 2034 409 
Q 2525 409 2770 889 
Q 3016 1369 3016 2328 
Q 3016 3291 2770 3770 
Q 2525 4250 2034 4250 
z
M 2034 4750 
Q 2819 4750 3233 4129 
Q 3647 3509 3647 2328 
Q 3647 1150 3233 529 
Q 2819 -91 2034 -91 
Q 1250 -91 836 529 
Q 422 1150 422 2328 
Q 422 3509 836 4129 
Q 1250 4750 2034 4750 
z
" transform="scale(0.015625)"/>
        <path id="DejaVuSans-2e" d="M 684 794 
L 1344 794 
L 1344 0 
L 684 0 
L 684 794 
z
" transform="scale(0.015625)"/>
        <path id="DejaVuSans-34" d="M 2419 4116 
L 825 1625 
L 2419 1625 
L 2419 4116 
z
M 2253 4666 
L 3047 4666 
L 3047 1625 
L 3713 1625 
L 3713 1100 
L 3047 1100 
L 3047 0 
L 2419 0 
L 2419 1100 
L 313 1100 
L 313 1709 
L 2253 4666 
z
" transform="scale(0.015625)"/>
       </defs>
       <use xlink:href="#DejaVuSans-32"/>
       <use xlink:href="#DejaVuSans-30" x="63.623047"/>
       <use xlink:href="#DejaVuSans-2e" x="127.246094"/>
       <use xlink:href="#DejaVuSans-30" x="159.033203"/>
       <use xlink:href="#DejaVuSans-34" x="222.65625"/>
       <use xlink:href="#DejaVuSans-2e" x="286.279297"/>
       <use xlink:href="#DejaVuSans-32" x="318.066406"/>
       <use xlink:href="#DejaVuSans-30" x="381.689453"/>
       <use xlink:href="#DejaVuSans-32" x="445.3125"/>
       <use xlink:href="#DejaVuSans-30" x="508.935547"/>
      </g>
     </g>
    </g>
    <g id="xtick_2">
     <g id="line2d_3">
      <path d="M 128.996544 276.48 
L 128.996544 41.472 
" clip-path="url(#pd0a312d3b4)" style="fill: none; stroke-dasharray: 2.96,1.28; stroke-dashoffset: 0; stroke: #808080; stroke-width: 0.8"/>
     </g>
     <g id="line2d_4">
      <g>
       <use xlink:href="#m300f8cf96a" x="128.996544" y="276.48" style="stroke: #000000; stroke-width: 0.8"/>
      </g>
     </g>
     <g id="text_2">
      <!-- 18.07.2020 -->
      <g transform="translate(78.371333 318.688565)rotate(-30)scale(0.1 -0.1)">
       <defs>
        <path id="DejaVuSans-31" d="M 794 531 
L 1825 531 
L 1825 4091 
L 703 3866 
L 703 4441 
L 1819 4666 
L 2450 4666 
L 2450 531 
L 3481 531 
L 3481 0 
L 794 0 
L 794 531 
z
" transform="scale(0.015625)"/>
        <path id="DejaVuSans-38" d="M 2034 2216 
Q 1584 2216 1326 1975 
Q 1069 1734 1069 1313 
Q 1069 891 1326 650 
Q 1584 409 2034 409 
Q 2484 409 2743 651 
Q 3003 894 3003 1313 
Q 3003 1734 2745 1975 
Q 2488 2216 2034 2216 
z
M 1403 2484 
Q 997 2584 770 2862 
Q 544 3141 544 3541 
Q 544 4100 942 4425 
Q 1341 4750 2034 4750 
Q 2731 4750 3128 4425 
Q 3525 4100 3525 3541 
Q 3525 3141 3298 2862 
Q 3072 2584 2669 2484 
Q 3125 2378 3379 2068 
Q 3634 1759 3634 1313 
Q 3634 634 3220 271 
Q 2806 -91 2034 -91 
Q 1263 -91 848 271 
Q 434 634 434 1313 
Q 434 1759 690 2068 
Q 947 2378 1403 2484 
z
M 1172 3481 
Q 1172 3119 1398 2916 
Q 1625 2713 2034 2713 
Q 2441 2713 2670 2916 
Q 2900 3119 2900 3481 
Q 2900 3844 2670 4047 
Q 2441 4250 2034 4250 
Q 1625 4250 1398 4047 
Q 1172 3844 1172 3481 
z
" transform="scale(0.015625)"/>
        <path id="DejaVuSans-37" d="M 525 4666 
L 3525 4666 
L 3525 4397 
L 1831 0 
L 1172 0 
L 2766 4134 
L 525 4134 
L 525 4666 
z
" transform="scale(0.015625)"/>
       </defs>
       <use xlink:href="#DejaVuSans-31"/>
       <use xlink:href="#DejaVuSans-38" x="63.623047"/>
       <use xlink:href="#DejaVuSans-2e" x="127.246094"/>
       <use xlink:href="#DejaVuSans-30" x="159.033203"/>
       <use xlink:href="#DejaVuSans-37" x="222.65625"/>
       <use xlink:href="#DejaVuSans-2e" x="286.279297"/>
       <use xlink:href="#DejaVuSans-32" x="318.066406"/>
       <use xlink:href="#DejaVuSans-30" x="381.689453"/>
       <use xlink:href="#DejaVuSans-32" x="445.3125"/>
       <use xlink:href="#DejaVuSans-30" x="508.935547"/>
      </g>
     </g>
    </g>
    <g id="xtick_3">
     <g id="line2d_5">
      <path d="M 164.75676 276.48 
L 164.75676 41.472 
" clip-path="url(#pd0a312d3b4)" style="fill: none; stroke-dasharray: 2.96,1.28; stroke-dashoffset: 0; stroke: #808080; stroke-width: 0.8"/>
     </g>
     <g id="line2d_6">
      <g>
       <use xlink:href="#m300f8cf96a" x="164.75676" y="276.48" style="stroke: #000000; stroke-width: 0.8"/>
      </g>
     </g>
     <g id="text_3">
      <!-- 15.10.2020 -->
      <g transform="translate(114.131549 318.688565)rotate(-30)scale(0.1 -0.1)">
       <defs>
        <path id="DejaVuSans-35" d="M 691 4666 
L 3169 4666 
L 3169 4134 
L 1269 4134 
L 1269 2991 
Q 1406 3038 1543 3061 
Q 1681 3084 1819 3084 
Q 2600 3084 3056 2656 
Q 3513 2228 3513 1497 
Q 3513 744 3044 326 
Q 2575 -91 1722 -91 
Q 1428 -91 1123 -41 
Q 819 9 494 109 
L 494 744 
Q 775 591 1075 516 
Q 1375 441 1709 441 
Q 2250 441 2565 725 
Q 2881 1009 2881 1497 
Q 2881 1984 2565 2268 
Q 2250 2553 1709 2553 
Q 1456 2553 1204 2497 
Q 953 2441 691 2322 
L 691 4666 
z
" transform="scale(0.015625)"/>
       </defs>
       <use xlink:href="#DejaVuSans-31"/>
       <use xlink:href="#DejaVuSans-35" x="63.623047"/>
       <use xlink:href="#DejaVuSans-2e" x="127.246094"/>
       <use xlink:href="#DejaVuSans-31" x="159.033203"/>
       <use xlink:href="#DejaVuSans-30" x="222.65625"/>
       <use xlink:href="#DejaVuSans-2e" x="286.279297"/>
       <use xlink:href="#DejaVuSans-32" x="318.066406"/>
       <use xlink:href="#DejaVuSans-30" x="381.689453"/>
       <use xlink:href="#DejaVuSans-32" x="445.3125"/>
       <use xlink:href="#DejaVuSans-30" x="508.935547"/>
      </g>
     </g>
    </g>
    <g id="xtick_4">
     <g id="line2d_7">
      <path d="M 200.516976 276.48 
L 200.516976 41.472 
" clip-path="url(#pd0a312d3b4)" style="fill: none; stroke-dasharray: 2.96,1.28; stroke-dashoffset: 0; stroke: #808080; stroke-width: 0.8"/>
     </g>
     <g id="line2d_8">
      <g>
       <use xlink:href="#m300f8cf96a" x="200.516976" y="276.48" style="stroke: #000000; stroke-width: 0.8"/>
      </g>
     </g>
     <g id="text_4">
      <!-- 12.01.2021 -->
      <g transform="translate(149.891765 318.688565)rotate(-30)scale(0.1 -0.1)">
       <use xlink:href="#DejaVuSans-31"/>
       <use xlink:href="#DejaVuSans-32" x="63.623047"/>
       <use xlink:href="#DejaVuSans-2e" x="127.246094"/>
       <use xlink:href="#DejaVuSans-30" x="159.033203"/>
       <use xlink:href="#DejaVuSans-31" x="222.65625"/>
       <use xlink:href="#DejaVuSans-2e" x="286.279297"/>
       <use xlink:href="#DejaVuSans-32" x="318.066406"/>
       <use xlink:href="#DejaVuSans-30" x="381.689453"/>
       <use xlink:href="#DejaVuSans-32" x="445.3125"/>
       <use xlink:href="#DejaVuSans-31" x="508.935547"/>
      </g>
     </g>
    </g>
    <g id="xtick_5">
     <g id="line2d_9">
      <path d="M 236.277192 276.48 
L 236.277192 41.472 
" clip-path="url(#pd0a312d3b4)" style="fill: none; stroke-dasharray: 2.96,1.28; stroke-dashoffset: 0; stroke: #808080; stroke-width: 0.8"/>
     </g>
     <g id="line2d_10">
      <g>
       <use xlink:href="#m300f8cf96a" x="236.277192" y="276.48" style="stroke: #000000; stroke-width: 0.8"/>
      </g>
     </g>
     <g id="text_5">
      <!-- 11.04.2021 -->
      <g transform="translate(185.651981 318.688565)rotate(-30)scale(0.1 -0.1)">
       <use xlink:href="#DejaVuSans-31"/>
       <use xlink:href="#DejaVuSans-31" x="63.623047"/>
       <use xlink:href="#DejaVuSans-2e" x="127.246094"/>
       <use xlink:href="#DejaVuSans-30" x="159.033203"/>
       <use xlink:href="#DejaVuSans-34" x="222.65625"/>
       <use xlink:href="#DejaVuSans-2e" x="286.279297"/>
       <use xlink:href="#DejaVuSans-32" x="318.066406"/>
       <use xlink:href="#DejaVuSans-30" x="381.689453"/>
       <use xlink:href="#DejaVuSans-32" x="445.3125"/>
       <use xlink:href="#DejaVuSans-31" x="508.935547"/>
      </g>
     </g>
    </g>
    <g id="xtick_6">
     <g id="line2d_11">
      <path d="M 272.037408 276.48 
L 272.037408 41.472 
" clip-path="url(#pd0a312d3b4)" style="fill: none; stroke-dasharray: 2.96,1.28; stroke-dashoffset: 0; stroke: #808080; stroke-width: 0.8"/>
     </g>
     <g id="line2d_12">
      <g>
       <use xlink:href="#m300f8cf96a" x="272.037408" y="276.48" style="stroke: #000000; stroke-width: 0.8"/>
      </g>
     </g>
     <g id="text_6">
      <!-- 09.07.2021 -->
      <g transform="translate(221.412197 318.688565)rotate(-30)scale(0.1 -0.1)">
       <defs>
        <path id="DejaVuSans-39" d="M 703 97 
L 703 672 
Q 941 559 1184 500 
Q 1428 441 1663 441 
Q 2288 441 2617 861 
Q 2947 1281 2994 2138 
Q 2813 1869 2534 1725 
Q 2256 1581 1919 1581 
Q 1219 1581 811 2004 
Q 403 2428 403 3163 
Q 403 3881 828 4315 
Q 1253 4750 1959 4750 
Q 2769 4750 3195 4129 
Q 3622 3509 3622 2328 
Q 3622 1225 3098 567 
Q 2575 -91 1691 -91 
Q 1453 -91 1209 -44 
Q 966 3 703 97 
z
M 1959 2075 
Q 2384 2075 2632 2365 
Q 2881 2656 2881 3163 
Q 2881 3666 2632 3958 
Q 2384 4250 1959 4250 
Q 1534 4250 1286 3958 
Q 1038 3666 1038 3163 
Q 1038 2656 1286 2365 
Q 1534 2075 1959 2075 
z
" transform="scale(0.015625)"/>
       </defs>
       <use xlink:href="#DejaVuSans-30"/>
       <use xlink:href="#DejaVuSans-39" x="63.623047"/>
       <use xlink:href="#DejaVuSans-2e" x="127.246094"/>
       <use xlink:href="#DejaVuSans-30" x="159.033203"/>
       <use xlink:href="#DejaVuSans-37" x="222.65625"/>
       <use xlink:href="#DejaVuSans-2e" x="286.279297"/>
       <use xlink:href="#DejaVuSans-32" x="318.066406"/>
       <use xlink:href="#DejaVuSans-30" x="381.689453"/>
       <use xlink:href="#DejaVuSans-32" x="445.3125"/>
       <use xlink:href="#DejaVuSans-31" x="508.935547"/>
      </g>
     </g>
    </g>
    <g id="xtick_7">
     <g id="line2d_13">
      <path d="M 307.797624 276.48 
L 307.797624 41.472 
" clip-path="url(#pd0a312d3b4)" style="fill: none; stroke-dasharray: 2.96,1.28; stroke-dashoffset: 0; stroke: #808080; stroke-width: 0.8"/>
     </g>
     <g id="line2d_14">
      <g>
       <use xlink:href="#m300f8cf96a" x="307.797624" y="276.48" style="stroke: #000000; stroke-width: 0.8"/>
      </g>
     </g>
     <g id="text_7">
      <!-- 06.10.2021 -->
      <g transform="translate(257.172413 318.688565)rotate(-30)scale(0.1 -0.1)">
       <defs>
        <path id="DejaVuSans-36" d="M 2113 2584 
Q 1688 2584 1439 2293 
Q 1191 2003 1191 1497 
Q 1191 994 1439 701 
Q 1688 409 2113 409 
Q 2538 409 2786 701 
Q 3034 994 3034 1497 
Q 3034 2003 2786 2293 
Q 2538 2584 2113 2584 
z
M 3366 4563 
L 3366 3988 
Q 3128 4100 2886 4159 
Q 2644 4219 2406 4219 
Q 1781 4219 1451 3797 
Q 1122 3375 1075 2522 
Q 1259 2794 1537 2939 
Q 1816 3084 2150 3084 
Q 2853 3084 3261 2657 
Q 3669 2231 3669 1497 
Q 3669 778 3244 343 
Q 2819 -91 2113 -91 
Q 1303 -91 875 529 
Q 447 1150 447 2328 
Q 447 3434 972 4092 
Q 1497 4750 2381 4750 
Q 2619 4750 2861 4703 
Q 3103 4656 3366 4563 
z
" transform="scale(0.015625)"/>
       </defs>
       <use xlink:href="#DejaVuSans-30"/>
       <use xlink:href="#DejaVuSans-36" x="63.623047"/>
       <use xlink:href="#DejaVuSans-2e" x="127.246094"/>
       <use xlink:href="#DejaVuSans-31" x="159.033203"/>
       <use xlink:href="#DejaVuSans-30" x="222.65625"/>
       <use xlink:href="#DejaVuSans-2e" x="286.279297"/>
       <use xlink:href="#DejaVuSans-32" x="318.066406"/>
       <use xlink:href="#DejaVuSans-30" x="381.689453"/>
       <use xlink:href="#DejaVuSans-32" x="445.3125"/>
       <use xlink:href="#DejaVuSans-31" x="508.935547"/>
      </g>
     </g>
    </g>
    <g id="xtick_8">
     <g id="line2d_15">
      <path d="M 343.55784 276.48 
L 343.55784 41.472 
" clip-path="url(#pd0a312d3b4)" style="fill: none; stroke-dasharray: 2.96,1.28; stroke-dashoffset: 0; stroke: #808080; stroke-width: 0.8"/>
     </g>
     <g id="line2d_16">
      <g>
       <use xlink:href="#m300f8cf96a" x="343.55784" y="276.48" style="stroke: #000000; stroke-width: 0.8"/>
      </g>
     </g>
     <g id="text_8">
      <!-- 03.01.2022 -->
      <g transform="translate(292.932629 318.688565)rotate(-30)scale(0.1 -0.1)">
       <defs>
        <path id="DejaVuSans-33" d="M 2597 2516 
Q 3050 2419 3304 2112 
Q 3559 1806 3559 1356 
Q 3559 666 3084 287 
Q 2609 -91 1734 -91 
Q 1441 -91 1130 -33 
Q 819 25 488 141 
L 488 750 
Q 750 597 1062 519 
Q 1375 441 1716 441 
Q 2309 441 2620 675 
Q 2931 909 2931 1356 
Q 2931 1769 2642 2001 
Q 2353 2234 1838 2234 
L 1294 2234 
L 1294 2753 
L 1863 2753 
Q 2328 2753 2575 2939 
Q 2822 3125 2822 3475 
Q 2822 3834 2567 4026 
Q 2313 4219 1838 4219 
Q 1578 4219 1281 4162 
Q 984 4106 628 3988 
L 628 4550 
Q 988 4650 1302 4700 
Q 1616 4750 1894 4750 
Q 2613 4750 3031 4423 
Q 3450 4097 3450 3541 
Q 3450 3153 3228 2886 
Q 3006 2619 2597 2516 
z
" transform="scale(0.015625)"/>
       </defs>
       <use xlink:href="#DejaVuSans-30"/>
       <use xlink:href="#DejaVuSans-33" x="63.623047"/>
       <use xlink:href="#DejaVuSans-2e" x="127.246094"/>
       <use xlink:href="#DejaVuSans-30" x="159.033203"/>
       <use xlink:href="#DejaVuSans-31" x="222.65625"/>
       <use xlink:href="#DejaVuSans-2e" x="286.279297"/>
       <use xlink:href="#DejaVuSans-32" x="318.066406"/>
       <use xlink:href="#DejaVuSans-30" x="381.689453"/>
       <use xlink:href="#DejaVuSans-32" x="445.3125"/>
       <use xlink:href="#DejaVuSans-32" x="508.935547"/>
      </g>
     </g>
    </g>
    <g id="xtick_9">
     <g id="line2d_17">
      <path d="M 379.318056 276.48 
L 379.318056 41.472 
" clip-path="url(#pd0a312d3b4)" style="fill: none; stroke-dasharray: 2.96,1.28; stroke-dashoffset: 0; stroke: #808080; stroke-width: 0.8"/>
     </g>
     <g id="line2d_18">
      <g>
       <use xlink:href="#m300f8cf96a" x="379.318056" y="276.48" style="stroke: #000000; stroke-width: 0.8"/>
      </g>
     </g>
     <g id="text_9">
      <!-- 02.04.2022 -->
      <g transform="translate(328.692845 318.688565)rotate(-30)scale(0.1 -0.1)">
       <use xlink:href="#DejaVuSans-30"/>
       <use xlink:href="#DejaVuSans-32" x="63.623047"/>
       <use xlink:href="#DejaVuSans-2e" x="127.246094"/>
       <use xlink:href="#DejaVuSans-30" x="159.033203"/>
       <use xlink:href="#DejaVuSans-34" x="222.65625"/>
       <use xlink:href="#DejaVuSans-2e" x="286.279297"/>
       <use xlink:href="#DejaVuSans-32" x="318.066406"/>
       <use xlink:href="#DejaVuSans-30" x="381.689453"/>
       <use xlink:href="#DejaVuSans-32" x="445.3125"/>
       <use xlink:href="#DejaVuSans-32" x="508.935547"/>
      </g>
     </g>
    </g>
   </g>
   <g id="matplotlib.axis_2">
    <g id="ytick_1">
     <g id="line2d_19">
      <path d="M 57.6 265.679325 
L 414.72 265.679325 
" clip-path="url(#pd0a312d3b4)" style="fill: none; stroke-dasharray: 2.96,1.28; stroke-dashoffset: 0; stroke: #808080; stroke-width: 0.8"/>
     </g>
     <g id="line2d_20">
      <defs>
       <path id="mffd690024e" d="M 0 0 
L -3.5 0 
" style="stroke: #000000; stroke-width: 0.8"/>
      </defs>
      <g>
       <use xlink:href="#mffd690024e" x="57.6" y="265.679325" style="stroke: #000000; stroke-width: 0.8"/>
      </g>
     </g>
     <g id="text_10">
      <!-- 0 -->
      <g transform="translate(44.2375 269.478544)scale(0.1 -0.1)">
       <use xlink:href="#DejaVuSans-30"/>
      </g>
     </g>
    </g>
    <g id="ytick_2">
     <g id="line2d_21">
      <path d="M 57.6 220.637162 
L 414.72 220.637162 
" clip-path="url(#pd0a312d3b4)" style="fill: none; stroke-dasharray: 2.96,1.28; stroke-dashoffset: 0; stroke: #808080; stroke-width: 0.8"/>
     </g>
     <g id="line2d_22">
      <g>
       <use xlink:href="#mffd690024e" x="57.6" y="220.637162" style="stroke: #000000; stroke-width: 0.8"/>
      </g>
     </g>
     <g id="text_11">
      <!-- 500 -->
      <g transform="translate(31.5125 224.43638)scale(0.1 -0.1)">
       <use xlink:href="#DejaVuSans-35"/>
       <use xlink:href="#DejaVuSans-30" x="63.623047"/>
       <use xlink:href="#DejaVuSans-30" x="127.246094"/>
      </g>
     </g>
    </g>
    <g id="ytick_3">
     <g id="line2d_23">
      <path d="M 57.6 175.594998 
L 414.72 175.594998 
" clip-path="url(#pd0a312d3b4)" style="fill: none; stroke-dasharray: 2.96,1.28; stroke-dashoffset: 0; stroke: #808080; stroke-width: 0.8"/>
     </g>
     <g id="line2d_24">
      <g>
       <use xlink:href="#mffd690024e" x="57.6" y="175.594998" style="stroke: #000000; stroke-width: 0.8"/>
      </g>
     </g>
     <g id="text_12">
      <!-- 1000 -->
      <g transform="translate(25.15 179.394217)scale(0.1 -0.1)">
       <use xlink:href="#DejaVuSans-31"/>
       <use xlink:href="#DejaVuSans-30" x="63.623047"/>
       <use xlink:href="#DejaVuSans-30" x="127.246094"/>
       <use xlink:href="#DejaVuSans-30" x="190.869141"/>
      </g>
     </g>
    </g>
    <g id="ytick_4">
     <g id="line2d_25">
      <path d="M 57.6 130.552835 
L 414.72 130.552835 
" clip-path="url(#pd0a312d3b4)" style="fill: none; stroke-dasharray: 2.96,1.28; stroke-dashoffset: 0; stroke: #808080; stroke-width: 0.8"/>
     </g>
     <g id="line2d_26">
      <g>
       <use xlink:href="#mffd690024e" x="57.6" y="130.552835" style="stroke: #000000; stroke-width: 0.8"/>
      </g>
     </g>
     <g id="text_13">
      <!-- 1500 -->
      <g transform="translate(25.15 134.352054)scale(0.1 -0.1)">
       <use xlink:href="#DejaVuSans-31"/>
       <use xlink:href="#DejaVuSans-35" x="63.623047"/>
       <use xlink:href="#DejaVuSans-30" x="127.246094"/>
       <use xlink:href="#DejaVuSans-30" x="190.869141"/>
      </g>
     </g>
    </g>
    <g id="ytick_5">
     <g id="line2d_27">
      <path d="M 57.6 85.510672 
L 414.72 85.510672 
" clip-path="url(#pd0a312d3b4)" style="fill: none; stroke-dasharray: 2.96,1.28; stroke-dashoffset: 0; stroke: #808080; stroke-width: 0.8"/>
     </g>
     <g id="line2d_28">
      <g>
       <use xlink:href="#mffd690024e" x="57.6" y="85.510672" style="stroke: #000000; stroke-width: 0.8"/>
      </g>
     </g>
     <g id="text_14">
      <!-- 2000 -->
      <g transform="translate(25.15 89.309891)scale(0.1 -0.1)">
       <use xlink:href="#DejaVuSans-32"/>
       <use xlink:href="#DejaVuSans-30" x="63.623047"/>
       <use xlink:href="#DejaVuSans-30" x="127.246094"/>
       <use xlink:href="#DejaVuSans-30" x="190.869141"/>
      </g>
     </g>
    </g>
    <g id="text_15">
     <!-- Inzidenz pro 7 Tage pro 100.000 Einwohner -->
     <g transform="translate(19.070312 267.301)rotate(-90)scale(0.1 -0.1)">
      <defs>
       <path id="DejaVuSans-49" d="M 628 4666 
L 1259 4666 
L 1259 0 
L 628 0 
L 628 4666 
z
" transform="scale(0.015625)"/>
       <path id="DejaVuSans-6e" d="M 3513 2113 
L 3513 0 
L 2938 0 
L 2938 2094 
Q 2938 2591 2744 2837 
Q 2550 3084 2163 3084 
Q 1697 3084 1428 2787 
Q 1159 2491 1159 1978 
L 1159 0 
L 581 0 
L 581 3500 
L 1159 3500 
L 1159 2956 
Q 1366 3272 1645 3428 
Q 1925 3584 2291 3584 
Q 2894 3584 3203 3211 
Q 3513 2838 3513 2113 
z
" transform="scale(0.015625)"/>
       <path id="DejaVuSans-7a" d="M 353 3500 
L 3084 3500 
L 3084 2975 
L 922 459 
L 3084 459 
L 3084 0 
L 275 0 
L 275 525 
L 2438 3041 
L 353 3041 
L 353 3500 
z
" transform="scale(0.015625)"/>
       <path id="DejaVuSans-69" d="M 603 3500 
L 1178 3500 
L 1178 0 
L 603 0 
L 603 3500 
z
M 603 4863 
L 1178 4863 
L 1178 4134 
L 603 4134 
L 603 4863 
z
" transform="scale(0.015625)"/>
       <path id="DejaVuSans-64" d="M 2906 2969 
L 2906 4863 
L 3481 4863 
L 3481 0 
L 2906 0 
L 2906 525 
Q 2725 213 2448 61 
Q 2172 -91 1784 -91 
Q 1150 -91 751 415 
Q 353 922 353 1747 
Q 353 2572 751 3078 
Q 1150 3584 1784 3584 
Q 2172 3584 2448 3432 
Q 2725 3281 2906 2969 
z
M 947 1747 
Q 947 1113 1208 752 
Q 1469 391 1925 391 
Q 2381 391 2643 752 
Q 2906 1113 2906 1747 
Q 2906 2381 2643 2742 
Q 2381 3103 1925 3103 
Q 1469 3103 1208 2742 
Q 947 2381 947 1747 
z
" transform="scale(0.015625)"/>
       <path id="DejaVuSans-65" d="M 3597 1894 
L 3597 1613 
L 953 1613 
Q 991 1019 1311 708 
Q 1631 397 2203 397 
Q 2534 397 2845 478 
Q 3156 559 3463 722 
L 3463 178 
Q 3153 47 2828 -22 
Q 2503 -91 2169 -91 
Q 1331 -91 842 396 
Q 353 884 353 1716 
Q 353 2575 817 3079 
Q 1281 3584 2069 3584 
Q 2775 3584 3186 3129 
Q 3597 2675 3597 1894 
z
M 3022 2063 
Q 3016 2534 2758 2815 
Q 2500 3097 2075 3097 
Q 1594 3097 1305 2825 
Q 1016 2553 972 2059 
L 3022 2063 
z
" transform="scale(0.015625)"/>
       <path id="DejaVuSans-20" transform="scale(0.015625)"/>
       <path id="DejaVuSans-70" d="M 1159 525 
L 1159 -1331 
L 581 -1331 
L 581 3500 
L 1159 3500 
L 1159 2969 
Q 1341 3281 1617 3432 
Q 1894 3584 2278 3584 
Q 2916 3584 3314 3078 
Q 3713 2572 3713 1747 
Q 3713 922 3314 415 
Q 2916 -91 2278 -91 
Q 1894 -91 1617 61 
Q 1341 213 1159 525 
z
M 3116 1747 
Q 3116 2381 2855 2742 
Q 2594 3103 2138 3103 
Q 1681 3103 1420 2742 
Q 1159 2381 1159 1747 
Q 1159 1113 1420 752 
Q 1681 391 2138 391 
Q 2594 391 2855 752 
Q 3116 1113 3116 1747 
z
" transform="scale(0.015625)"/>
       <path id="DejaVuSans-72" d="M 2631 2963 
Q 2534 3019 2420 3045 
Q 2306 3072 2169 3072 
Q 1681 3072 1420 2755 
Q 1159 2438 1159 1844 
L 1159 0 
L 581 0 
L 581 3500 
L 1159 3500 
L 1159 2956 
Q 1341 3275 1631 3429 
Q 1922 3584 2338 3584 
Q 2397 3584 2469 3576 
Q 2541 3569 2628 3553 
L 2631 2963 
z
" transform="scale(0.015625)"/>
       <path id="DejaVuSans-6f" d="M 1959 3097 
Q 1497 3097 1228 2736 
Q 959 2375 959 1747 
Q 959 1119 1226 758 
Q 1494 397 1959 397 
Q 2419 397 2687 759 
Q 2956 1122 2956 1747 
Q 2956 2369 2687 2733 
Q 2419 3097 1959 3097 
z
M 1959 3584 
Q 2709 3584 3137 3096 
Q 3566 2609 3566 1747 
Q 3566 888 3137 398 
Q 2709 -91 1959 -91 
Q 1206 -91 779 398 
Q 353 888 353 1747 
Q 353 2609 779 3096 
Q 1206 3584 1959 3584 
z
" transform="scale(0.015625)"/>
       <path id="DejaVuSans-54" d="M -19 4666 
L 3928 4666 
L 3928 4134 
L 2272 4134 
L 2272 0 
L 1638 0 
L 1638 4134 
L -19 4134 
L -19 4666 
z
" transform="scale(0.015625)"/>
       <path id="DejaVuSans-61" d="M 2194 1759 
Q 1497 1759 1228 1600 
Q 959 1441 959 1056 
Q 959 750 1161 570 
Q 1363 391 1709 391 
Q 2188 391 2477 730 
Q 2766 1069 2766 1631 
L 2766 1759 
L 2194 1759 
z
M 3341 1997 
L 3341 0 
L 2766 0 
L 2766 531 
Q 2569 213 2275 61 
Q 1981 -91 1556 -91 
Q 1019 -91 701 211 
Q 384 513 384 1019 
Q 384 1609 779 1909 
Q 1175 2209 1959 2209 
L 2766 2209 
L 2766 2266 
Q 2766 2663 2505 2880 
Q 2244 3097 1772 3097 
Q 1472 3097 1187 3025 
Q 903 2953 641 2809 
L 641 3341 
Q 956 3463 1253 3523 
Q 1550 3584 1831 3584 
Q 2591 3584 2966 3190 
Q 3341 2797 3341 1997 
z
" transform="scale(0.015625)"/>
       <path id="DejaVuSans-67" d="M 2906 1791 
Q 2906 2416 2648 2759 
Q 2391 3103 1925 3103 
Q 1463 3103 1205 2759 
Q 947 2416 947 1791 
Q 947 1169 1205 825 
Q 1463 481 1925 481 
Q 2391 481 2648 825 
Q 2906 1169 2906 1791 
z
M 3481 434 
Q 3481 -459 3084 -895 
Q 2688 -1331 1869 -1331 
Q 1566 -1331 1297 -1286 
Q 1028 -1241 775 -1147 
L 775 -588 
Q 1028 -725 1275 -790 
Q 1522 -856 1778 -856 
Q 2344 -856 2625 -561 
Q 2906 -266 2906 331 
L 2906 616 
Q 2728 306 2450 153 
Q 2172 0 1784 0 
Q 1141 0 747 490 
Q 353 981 353 1791 
Q 353 2603 747 3093 
Q 1141 3584 1784 3584 
Q 2172 3584 2450 3431 
Q 2728 3278 2906 2969 
L 2906 3500 
L 3481 3500 
L 3481 434 
z
" transform="scale(0.015625)"/>
       <path id="DejaVuSans-45" d="M 628 4666 
L 3578 4666 
L 3578 4134 
L 1259 4134 
L 1259 2753 
L 3481 2753 
L 3481 2222 
L 1259 2222 
L 1259 531 
L 3634 531 
L 3634 0 
L 628 0 
L 628 4666 
z
" transform="scale(0.015625)"/>
       <path id="DejaVuSans-77" d="M 269 3500 
L 844 3500 
L 1563 769 
L 2278 3500 
L 2956 3500 
L 3675 769 
L 4391 3500 
L 4966 3500 
L 4050 0 
L 3372 0 
L 2619 2869 
L 1863 0 
L 1184 0 
L 269 3500 
z
" transform="scale(0.015625)"/>
       <path id="DejaVuSans-68" d="M 3513 2113 
L 3513 0 
L 2938 0 
L 2938 2094 
Q 2938 2591 2744 2837 
Q 2550 3084 2163 3084 
Q 1697 3084 1428 2787 
Q 1159 2491 1159 1978 
L 1159 0 
L 581 0 
L 581 4863 
L 1159 4863 
L 1159 2956 
Q 1366 3272 1645 3428 
Q 1925 3584 2291 3584 
Q 2894 3584 3203 3211 
Q 3513 2838 3513 2113 
z
" transform="scale(0.015625)"/>
      </defs>
      <use xlink:href="#DejaVuSans-49"/>
      <use xlink:href="#DejaVuSans-6e" x="29.492188"/>
      <use xlink:href="#DejaVuSans-7a" x="92.871094"/>
      <use xlink:href="#DejaVuSans-69" x="145.361328"/>
      <use xlink:href="#DejaVuSans-64" x="173.144531"/>
      <use xlink:href="#DejaVuSans-65" x="236.621094"/>
      <use xlink:href="#DejaVuSans-6e" x="298.144531"/>
      <use xlink:href="#DejaVuSans-7a" x="361.523438"/>
      <use xlink:href="#DejaVuSans-20" x="414.013672"/>
      <use xlink:href="#DejaVuSans-70" x="445.800781"/>
      <use xlink:href="#DejaVuSans-72" x="509.277344"/>
      <use xlink:href="#DejaVuSans-6f" x="548.140625"/>
      <use xlink:href="#DejaVuSans-20" x="609.322266"/>
      <use xlink:href="#DejaVuSans-37" x="641.109375"/>
      <use xlink:href="#DejaVuSans-20" x="704.732422"/>
      <use xlink:href="#DejaVuSans-54" x="736.519531"/>
      <use xlink:href="#DejaVuSans-61" x="781.103516"/>
      <use xlink:href="#DejaVuSans-67" x="842.382812"/>
      <use xlink:href="#DejaVuSans-65" x="905.859375"/>
      <use xlink:href="#DejaVuSans-20" x="967.382812"/>
      <use xlink:href="#DejaVuSans-70" x="999.169922"/>
      <use xlink:href="#DejaVuSans-72" x="1062.646484"/>
      <use xlink:href="#DejaVuSans-6f" x="1101.509766"/>
      <use xlink:href="#DejaVuSans-20" x="1162.691406"/>
      <use xlink:href="#DejaVuSans-31" x="1194.478516"/>
      <use xlink:href="#DejaVuSans-30" x="1258.101562"/>
      <use xlink:href="#DejaVuSans-30" x="1321.724609"/>
      <use xlink:href="#DejaVuSans-2e" x="1385.347656"/>
      <use xlink:href="#DejaVuSans-30" x="1417.134766"/>
      <use xlink:href="#DejaVuSans-30" x="1480.757812"/>
      <use xlink:href="#DejaVuSans-30" x="1544.380859"/>
      <use xlink:href="#DejaVuSans-20" x="1608.003906"/>
      <use xlink:href="#DejaVuSans-45" x="1639.791016"/>
      <use xlink:href="#DejaVuSans-69" x="1702.974609"/>
      <use xlink:href="#DejaVuSans-6e" x="1730.757812"/>
      <use xlink:href="#DejaVuSans-77" x="1794.136719"/>
      <use xlink:href="#DejaVuSans-6f" x="1875.923828"/>
      <use xlink:href="#DejaVuSans-68" x="1937.105469"/>
      <use xlink:href="#DejaVuSans-6e" x="2000.484375"/>
      <use xlink:href="#DejaVuSans-65" x="2063.863281"/>
      <use xlink:href="#DejaVuSans-72" x="2125.386719"/>
     </g>
    </g>
   </g>
   <g id="line2d_29">
    <path d="M 73.832727 265.679325 
L 77.850729 265.679325 
L 78.654329 265.531208 
L 79.05613 265.531208 
L 80.26153 265.175728 
L 81.065131 264.820247 
L 81.868731 264.701754 
L 82.270531 264.731377 
L 82.672331 264.494391 
L 83.877732 264.22778 
L 84.279532 263.901923 
L 85.083132 263.69456 
L 85.484932 263.664937 
L 86.288533 263.42795 
L 86.690333 263.309456 
L 87.092133 263.576067 
L 88.297534 263.724183 
L 88.699334 263.576067 
L 89.502934 264.05004 
L 89.904734 263.96117 
L 90.306535 264.05004 
L 90.708335 264.287027 
L 91.110135 264.22778 
L 91.511935 264.731377 
L 91.913735 264.701754 
L 92.717336 265.086858 
L 93.520936 265.116481 
L 93.922736 265.353468 
L 94.324536 265.383091 
L 94.726337 265.590455 
L 116.423546 265.620078 
L 116.825347 265.146104 
L 117.227147 264.909118 
L 117.628947 264.879494 
L 118.432547 264.612884 
L 119.236148 264.642507 
L 119.637948 265.116481 
L 121.245149 265.560831 
L 125.26315 265.620078 
L 126.066751 265.679325 
L 136.111755 265.590455 
L 136.915356 265.590455 
L 139.326157 265.679325 
L 142.138758 265.590455 
L 142.540558 265.471961 
L 144.147759 265.412715 
L 144.951359 265.294221 
L 145.353159 265.353468 
L 146.15676 265.086858 
L 146.96036 265.175728 
L 148.165761 265.264598 
L 148.969361 265.471961 
L 149.772961 265.501585 
L 150.576562 265.205351 
L 150.978362 265.264598 
L 151.380162 264.879494 
L 152.585563 264.790624 
L 153.790963 264.642507 
L 154.192763 265.057234 
L 154.996364 265.086858 
L 155.398164 265.057234 
L 155.799964 265.146104 
L 157.808965 264.701754 
L 159.014365 264.909118 
L 159.817966 265.116481 
L 161.425167 265.146104 
L 162.228767 264.909118 
L 163.032367 264.701754 
L 165.041368 263.279833 
L 165.443168 262.894729 
L 165.844968 262.302262 
L 166.246769 262.213392 
L 166.648569 261.976405 
L 167.853969 259.902771 
L 168.25577 259.606537 
L 168.65757 258.510473 
L 169.05937 258.510473 
L 169.46117 258.036499 
L 169.86297 257.236669 
L 171.068371 253.148646 
L 171.470171 253.267139 
L 171.871971 252.704295 
L 172.273771 251.252751 
L 172.675572 251.430491 
L 173.077372 249.001376 
L 173.479172 249.445726 
L 173.880972 248.231169 
L 174.282772 247.460961 
L 174.684572 247.135105 
L 175.086373 247.549831 
L 175.488173 247.135105 
L 175.889973 249.47535 
L 176.693573 247.520208 
L 177.095374 247.697948 
L 177.497174 248.705142 
L 178.300774 246.335274 
L 178.702574 245.77243 
L 179.104374 244.528249 
L 179.506175 245.713183 
L 179.907975 243.817289 
L 180.309775 240.64759 
L 180.711575 242.069511 
L 181.113375 242.573108 
L 181.515176 242.395368 
L 182.318776 239.670019 
L 183.122376 244.113522 
L 183.925977 236.885424 
L 184.729577 237.981488 
L 185.533177 232.293804 
L 185.934977 228.679754 
L 186.336778 231.612466 
L 186.738578 232.767777 
L 187.140378 230.338662 
L 187.542178 229.183351 
L 187.943978 231.345856 
L 188.345779 230.842259 
L 188.747579 231.316233 
L 189.149379 223.554914 
L 189.952979 214.816024 
L 190.354779 211.912935 
L 190.75658 209.987417 
L 191.56018 204.35898 
L 191.96198 211.468585 
L 192.36378 213.18674 
L 192.765581 214.401297 
L 193.167381 213.36448 
L 193.569181 215.615855 
L 193.970981 221.540526 
L 194.372781 225.510055 
L 194.774581 226.87273 
L 195.176382 229.449962 
L 195.979982 238.781318 
L 196.783582 234.989529 
L 197.185383 236.559567 
L 197.587183 236.470697 
L 197.988983 236.618813 
L 198.390783 237.063164 
L 198.792583 235.611619 
L 199.596184 239.284915 
L 199.997984 237.300151 
L 200.399784 236.796554 
L 201.203384 227.67256 
L 201.605185 226.013652 
L 202.006985 226.043276 
L 202.408785 225.539679 
L 203.212385 228.590884 
L 203.614185 234.811789 
L 204.015986 238.307345 
L 204.417786 243.846912 
L 204.819586 243.669172 
L 205.221386 244.617119 
L 205.623186 245.031846 
L 206.024986 245.268833 
L 206.426787 245.209586 
L 206.828587 245.831677 
L 207.230387 246.098287 
L 207.632187 247.964558 
L 208.033987 248.083052 
L 208.435788 249.149493 
L 208.837588 249.179116 
L 209.239388 249.47535 
L 209.641188 250.897271 
L 210.444788 252.408062 
L 210.846589 253.385632 
L 211.650189 254.185463 
L 212.453789 256.821942 
L 212.85559 257.118175 
L 213.65919 258.391979 
L 214.06099 258.391979 
L 214.46279 258.214239 
L 214.86459 258.273486 
L 215.266391 258.74746 
L 215.668191 259.63616 
L 216.471791 259.843524 
L 216.873591 260.110134 
L 217.275392 260.199004 
L 217.677192 260.613731 
L 218.078992 260.258251 
L 218.480792 259.517667 
L 218.882592 259.310303 
L 219.284392 258.480849 
L 220.087993 258.480849 
L 220.489793 257.829136 
L 220.891593 257.977252 
L 221.293393 258.74746 
L 221.695194 258.540096 
L 222.096994 258.717836 
L 222.498794 258.540096 
L 222.900594 258.65859 
L 223.302394 258.184616 
L 223.704194 257.058928 
L 224.507795 255.400021 
L 225.311395 255.103787 
L 225.713195 254.926047 
L 226.516796 253.829983 
L 226.918596 252.378438 
L 227.320396 252.082205 
L 227.722196 250.45292 
L 228.123996 250.245557 
L 229.329397 247.460961 
L 229.731197 246.809248 
L 230.132997 245.802054 
L 230.534797 246.068664 
L 230.936598 245.268833 
L 231.338398 245.031846 
L 231.740198 245.15034 
L 232.543798 242.573108 
L 232.945599 242.928588 
L 233.347399 244.261639 
L 233.749199 244.409756 
L 234.150999 245.50582 
L 234.552799 248.320039 
L 234.954599 246.957364 
L 235.3564 244.765236 
L 235.7582 243.669172 
L 236.16 239.936629 
L 236.5618 239.018305 
L 236.9636 238.573955 
L 237.365401 234.930282 
L 237.767201 235.641243 
L 238.169001 234.456309 
L 238.570801 233.745348 
L 238.972601 235.818983 
L 239.776202 235.078399 
L 240.178002 232.945517 
L 240.579802 231.55322 
L 240.981602 234.011958 
L 241.383402 234.041582 
L 241.785203 236.263333 
L 242.187003 236.50032 
L 242.588803 233.626855 
L 242.990603 233.567608 
L 243.392403 234.160075 
L 243.794203 235.345009 
L 244.196004 235.167269 
L 244.597804 230.990376 
L 244.999604 231.19774 
L 245.401404 234.752542 
L 245.803204 237.092787 
L 246.205005 236.648437 
L 246.606805 237.477891 
L 247.008605 239.492279 
L 247.410405 239.847759 
L 247.812205 239.521902 
L 248.214005 239.640396 
L 248.615806 237.862994 
L 249.017606 240.321733 
L 249.821206 244.054276 
L 250.624806 248.705142 
L 251.026607 248.705142 
L 251.830207 253.000529 
L 252.232007 253.889229 
L 252.633807 253.652243 
L 253.035608 254.481697 
L 253.437408 254.77793 
L 253.839208 255.459267 
L 254.241008 259.843524 
L 254.642808 260.465614 
L 255.044608 259.8139 
L 256.250009 260.761848 
L 256.651809 260.199004 
L 257.053609 259.043693 
L 257.45541 259.932394 
L 257.85721 261.176575 
L 258.25901 261.413562 
L 258.66081 261.413562 
L 259.06261 261.295068 
L 259.46441 261.591302 
L 259.866211 262.450379 
L 260.669811 262.835483 
L 261.071611 263.013223 
L 261.473411 263.664937 
L 262.277012 263.546443 
L 263.482412 264.583261 
L 263.884212 264.761001 
L 264.286013 264.790624 
L 264.687813 264.968364 
L 265.089613 265.294221 
L 266.295014 265.442338 
L 266.696814 265.590455 
L 268.705815 265.531208 
L 270.714815 265.620078 
L 272.723816 265.679325 
L 276.340018 265.590455 
L 276.741818 265.797818 
L 277.545419 265.738571 
L 278.349019 265.649701 
L 279.152619 265.620078 
L 279.554419 265.234974 
L 280.75982 265.027611 
L 281.56342 265.175728 
L 281.965221 265.086858 
L 283.572421 265.146104 
L 284.376022 264.879494 
L 285.179622 264.997988 
L 285.581422 264.879494 
L 285.983222 264.553637 
L 286.786823 264.553637 
L 287.590423 264.583261 
L 288.394023 264.524014 
L 288.795824 264.761001 
L 290.403024 264.642507 
L 291.206625 264.375897 
L 291.608425 264.524014 
L 292.813825 264.524014 
L 293.215626 264.612884 
L 295.224626 263.25021 
L 296.028227 263.042846 
L 297.233627 261.709795 
L 297.635428 261.769042 
L 298.037228 261.413562 
L 298.840828 261.354315 
L 299.242628 261.561678 
L 300.046229 262.539249 
L 300.448029 262.331886 
L 300.849829 262.628119 
L 301.653429 262.776236 
L 302.05523 262.657743 
L 302.45703 262.805859 
L 303.26063 261.946782 
L 304.466031 261.798665 
L 305.269631 258.688213 
L 305.671431 257.266292 
L 306.073231 256.881188 
L 306.475032 255.518514 
L 307.278632 254.95567 
L 307.680432 253.889229 
L 308.082232 251.430491 
L 308.484032 251.134257 
L 308.885833 250.393674 
L 309.287633 249.38648 
L 310.091233 249.238363 
L 310.493033 247.372091 
L 310.894833 249.267986 
L 311.698434 247.786818 
L 312.100234 246.453767 
L 312.903834 246.779624 
L 313.305635 247.283221 
L 314.109235 244.172769 
L 314.511035 244.439379 
L 314.912835 244.380133 
L 315.314635 240.529096 
L 315.716436 240.203239 
L 316.118236 241.417797 
L 316.520036 236.085593 
L 316.921836 234.989529 
L 317.323636 234.278568 
L 317.725437 234.989529 
L 318.127237 233.034388 
L 318.529037 230.457156 
L 318.930837 226.813483 
L 319.734437 225.361939 
L 320.538038 218.104217 
L 320.939838 218.874424 
L 321.341638 214.549414 
L 321.743438 212.979376 
L 322.145239 214.016194 
L 322.547039 210.165157 
L 322.948839 208.713613 
L 323.350639 209.009847 
L 324.154239 202.907435 
L 324.55604 196.775401 
L 324.95784 195.97557 
L 325.35964 193.131728 
L 325.76144 181.430503 
L 326.966841 166.737319 
L 327.368641 165.493138 
L 327.770441 166.233722 
L 328.172241 168.33698 
L 328.574041 174.469015 
L 328.975842 172.48425 
L 329.377642 166.826189 
L 330.181242 107.223999 
L 330.583042 68.417404 
L 330.984842 57.989983 
L 331.386643 52.154182 
L 331.788443 56.360698 
L 332.190243 53.339116 
L 332.592043 65.899419 
L 332.993843 85.391586 
L 333.395644 110.986165 
L 333.797444 111.549009 
L 334.199244 117.058953 
L 334.601044 112.822813 
L 335.002844 127.486374 
L 335.404644 156.872742 
L 335.806445 164.367451 
L 336.208245 166.855812 
L 336.610045 175.031858 
L 337.011845 177.07587 
L 337.413645 180.275192 
L 337.815446 184.392839 
L 338.217246 184.985306 
L 338.619046 188.688225 
L 339.020846 197.693725 
L 339.824446 208.713613 
L 340.226247 219.466891 
L 340.628047 219.911241 
L 341.029847 220.059358 
L 341.431647 227.287457 
L 341.833447 230.871883 
L 342.235248 231.9087 
L 342.637048 233.656478 
L 343.038848 233.656478 
L 343.440648 234.515555 
L 343.842448 233.686101 
L 345.047849 238.781318 
L 345.449649 241.921394 
L 345.851449 238.840565 
L 346.253249 239.877383 
L 346.65505 241.240057 
L 347.05685 244.735613 
L 347.45865 246.601884 
L 347.86045 246.572261 
L 348.26225 245.387327 
L 348.66405 246.305651 
L 349.065851 245.8613 
L 349.467651 245.802054 
L 351.074851 241.891771 
L 351.476652 242.099134 
L 352.280252 237.714878 
L 353.083852 229.894312 
L 353.485653 226.280263 
L 353.887453 223.703031 
L 354.289253 218.607814 
L 354.691053 219.318774 
L 355.092853 216.504555 
L 356.298254 191.058093 
L 356.700054 186.229487 
L 357.101854 178.557038 
L 357.503654 178.053441 
L 357.905455 178.853271 
L 358.307255 177.34248 
L 358.709055 172.276886 
L 359.110855 169.551538 
L 359.512655 162.293816 
L 359.914455 162.204946 
L 360.316256 159.449974 
L 360.718056 150.444474 
L 361.119856 149.43728 
L 361.521656 150.562967 
L 361.923456 152.073758 
L 362.325257 147.837619 
L 362.727057 148.222722 
L 363.128857 150.770331 
L 363.932457 160.634908 
L 364.736058 143.808842 
L 365.137858 150.977694 
L 365.539658 153.229069 
L 365.941458 153.999276 
L 366.343258 153.288316 
L 366.745059 141.735207 
L 367.548659 147.452515 
L 367.950459 143.956959 
L 368.352259 144.519803 
L 368.754059 139.957806 
L 369.15586 138.684002 
L 369.55766 136.136393 
L 369.95946 125.797842 
L 370.36126 126.627296 
L 371.16486 107.697972 
L 371.566661 107.786843 
L 371.968461 91.345881 
L 372.370261 90.9904 
L 372.772061 92.441945 
L 373.173861 73.868101 
L 373.575662 68.269287 
L 373.977462 65.247705 
L 374.379262 68.56552 
L 374.781062 64.299757 
L 375.182862 63.499927 
L 375.584662 72.238817 
L 375.986463 72.860907 
L 376.388263 76.119476 
L 376.790063 99.521926 
L 377.191863 103.343339 
L 377.593663 108.55705 
L 377.995464 112.319216 
L 378.397264 108.438556 
L 378.799064 111.726749 
L 379.200864 119.902795 
L 379.602664 119.665808 
L 380.004464 119.902795 
L 380.808065 111.904489 
L 381.611665 124.435168 
L 382.013465 137.854548 
L 382.415266 138.535885 
L 382.817066 138.535885 
L 384.424266 192.213404 
L 384.826067 199.026776 
L 385.629667 191.946794 
L 386.031467 206.817718 
L 386.433267 215.734348 
L 386.835068 214.667907 
L 387.236868 212.209169 
L 387.638668 207.499056 
L 388.040468 208.091523 
L 388.442268 211.557455 
L 388.844068 205.336551 
L 389.245869 202.759319 
L 390.049469 218.963294 
L 390.451269 220.948059 
L 390.853069 223.969641 
L 391.254869 221.273916 
L 392.05847 230.990376 
L 392.46027 233.330621 
L 392.86207 234.367439 
L 393.26387 236.05597 
L 393.665671 233.212128 
L 394.067471 235.907853 
L 394.469271 237.03354 
L 394.871071 240.766083 
L 395.272871 241.240057 
L 395.674671 243.284068 
L 396.076472 244.232016 
L 396.478272 247.075858 
L 396.880072 245.002223 
L 397.281872 246.927741 
L 397.683672 247.312845 
L 398.085473 249.593843 
L 398.487273 252.970905 
L 398.487273 252.970905 
" clip-path="url(#pd0a312d3b4)" style="fill: none; stroke: #1f77b4; stroke-width: 1.5; stroke-linecap: square"/>
   </g>
   <g id="patch_3">
    <path d="M 57.6 276.48 
L 57.6 41.472 
" style="fill: none; stroke: #000000; stroke-width: 0.8; stroke-linejoin: miter; stroke-linecap: square"/>
   </g>
   <g id="patch_4">
    <path d="M 414.72 276.48 
L 414.72 41.472 
" style="fill: none; stroke: #000000; stroke-width: 0.8; stroke-linejoin: miter; stroke-linecap: square"/>
   </g>
   <g id="patch_5">
    <path d="M 57.6 276.48 
L 414.72 276.48 
" style="fill: none; stroke: #000000; stroke-width: 0.8; stroke-linejoin: miter; stroke-linecap: square"/>
   </g>
   <g id="patch_6">
    <path d="M 57.6 41.472 
L 414.72 41.472 
" style="fill: none; stroke: #000000; stroke-width: 0.8; stroke-linejoin: miter; stroke-linecap: square"/>
   </g>
  </g>
  <g id="text_16">
   <!-- Inzidenzverlauf LK Mittelsachsen -->
   <g transform="translate(82.902656 20.589187)scale(0.18 -0.18)">
    <defs>
     <path id="DejaVuSans-76" d="M 191 3500 
L 800 3500 
L 1894 563 
L 2988 3500 
L 3597 3500 
L 2284 0 
L 1503 0 
L 191 3500 
z
" transform="scale(0.015625)"/>
     <path id="DejaVuSans-6c" d="M 603 4863 
L 1178 4863 
L 1178 0 
L 603 0 
L 603 4863 
z
" transform="scale(0.015625)"/>
     <path id="DejaVuSans-75" d="M 544 1381 
L 544 3500 
L 1119 3500 
L 1119 1403 
Q 1119 906 1312 657 
Q 1506 409 1894 409 
Q 2359 409 2629 706 
Q 2900 1003 2900 1516 
L 2900 3500 
L 3475 3500 
L 3475 0 
L 2900 0 
L 2900 538 
Q 2691 219 2414 64 
Q 2138 -91 1772 -91 
Q 1169 -91 856 284 
Q 544 659 544 1381 
z
M 1991 3584 
L 1991 3584 
z
" transform="scale(0.015625)"/>
     <path id="DejaVuSans-66" d="M 2375 4863 
L 2375 4384 
L 1825 4384 
Q 1516 4384 1395 4259 
Q 1275 4134 1275 3809 
L 1275 3500 
L 2222 3500 
L 2222 3053 
L 1275 3053 
L 1275 0 
L 697 0 
L 697 3053 
L 147 3053 
L 147 3500 
L 697 3500 
L 697 3744 
Q 697 4328 969 4595 
Q 1241 4863 1831 4863 
L 2375 4863 
z
" transform="scale(0.015625)"/>
     <path id="DejaVuSans-4c" d="M 628 4666 
L 1259 4666 
L 1259 531 
L 3531 531 
L 3531 0 
L 628 0 
L 628 4666 
z
" transform="scale(0.015625)"/>
     <path id="DejaVuSans-4b" d="M 628 4666 
L 1259 4666 
L 1259 2694 
L 3353 4666 
L 4166 4666 
L 1850 2491 
L 4331 0 
L 3500 0 
L 1259 2247 
L 1259 0 
L 628 0 
L 628 4666 
z
" transform="scale(0.015625)"/>
     <path id="DejaVuSans-4d" d="M 628 4666 
L 1569 4666 
L 2759 1491 
L 3956 4666 
L 4897 4666 
L 4897 0 
L 4281 0 
L 4281 4097 
L 3078 897 
L 2444 897 
L 1241 4097 
L 1241 0 
L 628 0 
L 628 4666 
z
" transform="scale(0.015625)"/>
     <path id="DejaVuSans-74" d="M 1172 4494 
L 1172 3500 
L 2356 3500 
L 2356 3053 
L 1172 3053 
L 1172 1153 
Q 1172 725 1289 603 
Q 1406 481 1766 481 
L 2356 481 
L 2356 0 
L 1766 0 
Q 1100 0 847 248 
Q 594 497 594 1153 
L 594 3053 
L 172 3053 
L 172 3500 
L 594 3500 
L 594 4494 
L 1172 4494 
z
" transform="scale(0.015625)"/>
     <path id="DejaVuSans-73" d="M 2834 3397 
L 2834 2853 
Q 2591 2978 2328 3040 
Q 2066 3103 1784 3103 
Q 1356 3103 1142 2972 
Q 928 2841 928 2578 
Q 928 2378 1081 2264 
Q 1234 2150 1697 2047 
L 1894 2003 
Q 2506 1872 2764 1633 
Q 3022 1394 3022 966 
Q 3022 478 2636 193 
Q 2250 -91 1575 -91 
Q 1294 -91 989 -36 
Q 684 19 347 128 
L 347 722 
Q 666 556 975 473 
Q 1284 391 1588 391 
Q 1994 391 2212 530 
Q 2431 669 2431 922 
Q 2431 1156 2273 1281 
Q 2116 1406 1581 1522 
L 1381 1569 
Q 847 1681 609 1914 
Q 372 2147 372 2553 
Q 372 3047 722 3315 
Q 1072 3584 1716 3584 
Q 2034 3584 2315 3537 
Q 2597 3491 2834 3397 
z
" transform="scale(0.015625)"/>
     <path id="DejaVuSans-63" d="M 3122 3366 
L 3122 2828 
Q 2878 2963 2633 3030 
Q 2388 3097 2138 3097 
Q 1578 3097 1268 2742 
Q 959 2388 959 1747 
Q 959 1106 1268 751 
Q 1578 397 2138 397 
Q 2388 397 2633 464 
Q 2878 531 3122 666 
L 3122 134 
Q 2881 22 2623 -34 
Q 2366 -91 2075 -91 
Q 1284 -91 818 406 
Q 353 903 353 1747 
Q 353 2603 823 3093 
Q 1294 3584 2113 3584 
Q 2378 3584 2631 3529 
Q 2884 3475 3122 3366 
z
" transform="scale(0.015625)"/>
    </defs>
    <use xlink:href="#DejaVuSans-49"/>
    <use xlink:href="#DejaVuSans-6e" x="29.492188"/>
    <use xlink:href="#DejaVuSans-7a" x="92.871094"/>
    <use xlink:href="#DejaVuSans-69" x="145.361328"/>
    <use xlink:href="#DejaVuSans-64" x="173.144531"/>
    <use xlink:href="#DejaVuSans-65" x="236.621094"/>
    <use xlink:href="#DejaVuSans-6e" x="298.144531"/>
    <use xlink:href="#DejaVuSans-7a" x="361.523438"/>
    <use xlink:href="#DejaVuSans-76" x="414.013672"/>
    <use xlink:href="#DejaVuSans-65" x="473.193359"/>
    <use xlink:href="#DejaVuSans-72" x="534.716797"/>
    <use xlink:href="#DejaVuSans-6c" x="575.830078"/>
    <use xlink:href="#DejaVuSans-61" x="603.613281"/>
    <use xlink:href="#DejaVuSans-75" x="664.892578"/>
    <use xlink:href="#DejaVuSans-66" x="728.271484"/>
    <use xlink:href="#DejaVuSans-20" x="763.476562"/>
    <use xlink:href="#DejaVuSans-4c" x="795.263672"/>
    <use xlink:href="#DejaVuSans-4b" x="850.976562"/>
    <use xlink:href="#DejaVuSans-20" x="916.552734"/>
    <use xlink:href="#DejaVuSans-4d" x="948.339844"/>
    <use xlink:href="#DejaVuSans-69" x="1034.619141"/>
    <use xlink:href="#DejaVuSans-74" x="1062.402344"/>
    <use xlink:href="#DejaVuSans-74" x="1101.611328"/>
    <use xlink:href="#DejaVuSans-65" x="1140.820312"/>
    <use xlink:href="#DejaVuSans-6c" x="1202.34375"/>
    <use xlink:href="#DejaVuSans-73" x="1230.126953"/>
    <use xlink:href="#DejaVuSans-61" x="1282.226562"/>
    <use xlink:href="#DejaVuSans-63" x="1343.505859"/>
    <use xlink:href="#DejaVuSans-68" x="1398.486328"/>
    <use xlink:href="#DejaVuSans-73" x="1461.865234"/>
    <use xlink:href="#DejaVuSans-65" x="1513.964844"/>
    <use xlink:href="#DejaVuSans-6e" x="1575.488281"/>
   </g>
  </g>
 </g>
 <defs>
  <clipPath id="pd0a312d3b4">
   <rect x="57.6" y="41.472" width="357.12" height="235.008"/>
  </clipPath>
 </defs>
</svg>
