<?xml version="1.0" encoding="utf-8" standalone="no"?>
<!DOCTYPE svg PUBLIC "-//W3C//DTD SVG 1.1//EN"
  "http://www.w3.org/Graphics/SVG/1.1/DTD/svg11.dtd">
<svg xmlns:xlink="http://www.w3.org/1999/xlink" width="460.8pt" height="345.6pt" viewBox="0 0 460.8 345.6" xmlns="http://www.w3.org/2000/svg" version="1.1">
 <metadata>
  <rdf:RDF xmlns:dc="http://purl.org/dc/elements/1.1/" xmlns:cc="http://creativecommons.org/ns#" xmlns:rdf="http://www.w3.org/1999/02/22-rdf-syntax-ns#">
   <cc:Work>
    <dc:type rdf:resource="http://purl.org/dc/dcmitype/StillImage"/>
    <dc:date>2022-08-28T09:22:01.728857</dc:date>
    <dc:format>image/svg+xml</dc:format>
    <dc:creator>
     <cc:Agent>
      <dc:title>Matplotlib v3.5.3, https://matplotlib.org/</dc:title>
     </cc:Agent>
    </dc:creator>
   </cc:Work>
  </rdf:RDF>
 </metadata>
 <defs>
  <style type="text/css">*{stroke-linejoin: round; stroke-linecap: butt}</style>
 </defs>
 <g id="figure_1">
  <g id="patch_1">
   <path d="M 0 345.6 
L 460.8 345.6 
L 460.8 0 
L 0 0 
z
" style="fill: #ffffff"/>
  </g>
  <g id="axes_1">
   <g id="patch_2">
    <path d="M 57.6 276.48 
L 414.72 276.48 
L 414.72 41.472 
L 57.6 41.472 
z
" style="fill: #ffffff"/>
   </g>
   <g id="matplotlib.axis_1">
    <g id="xtick_1">
     <g id="line2d_1">
      <path d="M 61.065246 276.48 
L 61.065246 41.472 
" clip-path="url(#p6775e30197)" style="fill: none; stroke-dasharray: 2.96,1.28; stroke-dashoffset: 0; stroke: #808080; stroke-width: 0.8"/>
     </g>
     <g id="line2d_2">
      <defs>
       <path id="m015c0d7e09" d="M 0 0 
L 0 3.5 
" style="stroke: #000000; stroke-width: 0.8"/>
      </defs>
      <g>
       <use xlink:href="#m015c0d7e09" x="61.065246" y="276.48" style="stroke: #000000; stroke-width: 0.8"/>
      </g>
     </g>
     <g id="text_1">
      <!-- 27.01.2020 -->
      <g transform="translate(10.440036 318.688565)rotate(-30)scale(0.1 -0.1)">
       <defs>
        <path id="DejaVuSans-32" d="M 1228 531 
L 3431 531 
L 3431 0 
L 469 0 
L 469 531 
Q 828 903 1448 1529 
Q 2069 2156 2228 2338 
Q 2531 2678 2651 2914 
Q 2772 3150 2772 3378 
Q 2772 3750 2511 3984 
Q 2250 4219 1831 4219 
Q 1534 4219 1204 4116 
Q 875 4013 500 3803 
L 500 4441 
Q 881 4594 1212 4672 
Q 1544 4750 1819 4750 
Q 2544 4750 2975 4387 
Q 3406 4025 3406 3419 
Q 3406 3131 3298 2873 
Q 3191 2616 2906 2266 
Q 2828 2175 2409 1742 
Q 1991 1309 1228 531 
z
" transform="scale(0.015625)"/>
        <path id="DejaVuSans-37" d="M 525 4666 
L 3525 4666 
L 3525 4397 
L 1831 0 
L 1172 0 
L 2766 4134 
L 525 4134 
L 525 4666 
z
" transform="scale(0.015625)"/>
        <path id="DejaVuSans-2e" d="M 684 794 
L 1344 794 
L 1344 0 
L 684 0 
L 684 794 
z
" transform="scale(0.015625)"/>
        <path id="DejaVuSans-30" d="M 2034 4250 
Q 1547 4250 1301 3770 
Q 1056 3291 1056 2328 
Q 1056 1369 1301 889 
Q 1547 409 2034 409 
Q 2525 409 2770 889 
Q 3016 1369 3016 2328 
Q 3016 3291 2770 3770 
Q 2525 4250 2034 4250 
z
M 2034 4750 
Q 2819 4750 3233 4129 
Q 3647 3509 3647 2328 
Q 3647 1150 3233 529 
Q 2819 -91 2034 -91 
Q 1250 -91 836 529 
Q 422 1150 422 2328 
Q 422 3509 836 4129 
Q 1250 4750 2034 4750 
z
" transform="scale(0.015625)"/>
        <path id="DejaVuSans-31" d="M 794 531 
L 1825 531 
L 1825 4091 
L 703 3866 
L 703 4441 
L 1819 4666 
L 2450 4666 
L 2450 531 
L 3481 531 
L 3481 0 
L 794 0 
L 794 531 
z
" transform="scale(0.015625)"/>
       </defs>
       <use xlink:href="#DejaVuSans-32"/>
       <use xlink:href="#DejaVuSans-37" x="63.623047"/>
       <use xlink:href="#DejaVuSans-2e" x="127.246094"/>
       <use xlink:href="#DejaVuSans-30" x="159.033203"/>
       <use xlink:href="#DejaVuSans-31" x="222.65625"/>
       <use xlink:href="#DejaVuSans-2e" x="286.279297"/>
       <use xlink:href="#DejaVuSans-32" x="318.066406"/>
       <use xlink:href="#DejaVuSans-30" x="381.689453"/>
       <use xlink:href="#DejaVuSans-32" x="445.3125"/>
       <use xlink:href="#DejaVuSans-30" x="508.935547"/>
      </g>
     </g>
    </g>
    <g id="xtick_2">
     <g id="line2d_3">
      <path d="M 97.177701 276.48 
L 97.177701 41.472 
" clip-path="url(#p6775e30197)" style="fill: none; stroke-dasharray: 2.96,1.28; stroke-dashoffset: 0; stroke: #808080; stroke-width: 0.8"/>
     </g>
     <g id="line2d_4">
      <g>
       <use xlink:href="#m015c0d7e09" x="97.177701" y="276.48" style="stroke: #000000; stroke-width: 0.8"/>
      </g>
     </g>
     <g id="text_2">
      <!-- 07.05.2020 -->
      <g transform="translate(46.55249 318.688565)rotate(-30)scale(0.1 -0.1)">
       <defs>
        <path id="DejaVuSans-35" d="M 691 4666 
L 3169 4666 
L 3169 4134 
L 1269 4134 
L 1269 2991 
Q 1406 3038 1543 3061 
Q 1681 3084 1819 3084 
Q 2600 3084 3056 2656 
Q 3513 2228 3513 1497 
Q 3513 744 3044 326 
Q 2575 -91 1722 -91 
Q 1428 -91 1123 -41 
Q 819 9 494 109 
L 494 744 
Q 775 591 1075 516 
Q 1375 441 1709 441 
Q 2250 441 2565 725 
Q 2881 1009 2881 1497 
Q 2881 1984 2565 2268 
Q 2250 2553 1709 2553 
Q 1456 2553 1204 2497 
Q 953 2441 691 2322 
L 691 4666 
z
" transform="scale(0.015625)"/>
       </defs>
       <use xlink:href="#DejaVuSans-30"/>
       <use xlink:href="#DejaVuSans-37" x="63.623047"/>
       <use xlink:href="#DejaVuSans-2e" x="127.246094"/>
       <use xlink:href="#DejaVuSans-30" x="159.033203"/>
       <use xlink:href="#DejaVuSans-35" x="222.65625"/>
       <use xlink:href="#DejaVuSans-2e" x="286.279297"/>
       <use xlink:href="#DejaVuSans-32" x="318.066406"/>
       <use xlink:href="#DejaVuSans-30" x="381.689453"/>
       <use xlink:href="#DejaVuSans-32" x="445.3125"/>
       <use xlink:href="#DejaVuSans-30" x="508.935547"/>
      </g>
     </g>
    </g>
    <g id="xtick_3">
     <g id="line2d_5">
      <path d="M 133.290156 276.48 
L 133.290156 41.472 
" clip-path="url(#p6775e30197)" style="fill: none; stroke-dasharray: 2.96,1.28; stroke-dashoffset: 0; stroke: #808080; stroke-width: 0.8"/>
     </g>
     <g id="line2d_6">
      <g>
       <use xlink:href="#m015c0d7e09" x="133.290156" y="276.48" style="stroke: #000000; stroke-width: 0.8"/>
      </g>
     </g>
     <g id="text_3">
      <!-- 16.08.2020 -->
      <g transform="translate(82.664945 318.688565)rotate(-30)scale(0.1 -0.1)">
       <defs>
        <path id="DejaVuSans-36" d="M 2113 2584 
Q 1688 2584 1439 2293 
Q 1191 2003 1191 1497 
Q 1191 994 1439 701 
Q 1688 409 2113 409 
Q 2538 409 2786 701 
Q 3034 994 3034 1497 
Q 3034 2003 2786 2293 
Q 2538 2584 2113 2584 
z
M 3366 4563 
L 3366 3988 
Q 3128 4100 2886 4159 
Q 2644 4219 2406 4219 
Q 1781 4219 1451 3797 
Q 1122 3375 1075 2522 
Q 1259 2794 1537 2939 
Q 1816 3084 2150 3084 
Q 2853 3084 3261 2657 
Q 3669 2231 3669 1497 
Q 3669 778 3244 343 
Q 2819 -91 2113 -91 
Q 1303 -91 875 529 
Q 447 1150 447 2328 
Q 447 3434 972 4092 
Q 1497 4750 2381 4750 
Q 2619 4750 2861 4703 
Q 3103 4656 3366 4563 
z
" transform="scale(0.015625)"/>
        <path id="DejaVuSans-38" d="M 2034 2216 
Q 1584 2216 1326 1975 
Q 1069 1734 1069 1313 
Q 1069 891 1326 650 
Q 1584 409 2034 409 
Q 2484 409 2743 651 
Q 3003 894 3003 1313 
Q 3003 1734 2745 1975 
Q 2488 2216 2034 2216 
z
M 1403 2484 
Q 997 2584 770 2862 
Q 544 3141 544 3541 
Q 544 4100 942 4425 
Q 1341 4750 2034 4750 
Q 2731 4750 3128 4425 
Q 3525 4100 3525 3541 
Q 3525 3141 3298 2862 
Q 3072 2584 2669 2484 
Q 3125 2378 3379 2068 
Q 3634 1759 3634 1313 
Q 3634 634 3220 271 
Q 2806 -91 2034 -91 
Q 1263 -91 848 271 
Q 434 634 434 1313 
Q 434 1759 690 2068 
Q 947 2378 1403 2484 
z
M 1172 3481 
Q 1172 3119 1398 2916 
Q 1625 2713 2034 2713 
Q 2441 2713 2670 2916 
Q 2900 3119 2900 3481 
Q 2900 3844 2670 4047 
Q 2441 4250 2034 4250 
Q 1625 4250 1398 4047 
Q 1172 3844 1172 3481 
z
" transform="scale(0.015625)"/>
       </defs>
       <use xlink:href="#DejaVuSans-31"/>
       <use xlink:href="#DejaVuSans-36" x="63.623047"/>
       <use xlink:href="#DejaVuSans-2e" x="127.246094"/>
       <use xlink:href="#DejaVuSans-30" x="159.033203"/>
       <use xlink:href="#DejaVuSans-38" x="222.65625"/>
       <use xlink:href="#DejaVuSans-2e" x="286.279297"/>
       <use xlink:href="#DejaVuSans-32" x="318.066406"/>
       <use xlink:href="#DejaVuSans-30" x="381.689453"/>
       <use xlink:href="#DejaVuSans-32" x="445.3125"/>
       <use xlink:href="#DejaVuSans-30" x="508.935547"/>
      </g>
     </g>
    </g>
    <g id="xtick_4">
     <g id="line2d_7">
      <path d="M 169.402611 276.48 
L 169.402611 41.472 
" clip-path="url(#p6775e30197)" style="fill: none; stroke-dasharray: 2.96,1.28; stroke-dashoffset: 0; stroke: #808080; stroke-width: 0.8"/>
     </g>
     <g id="line2d_8">
      <g>
       <use xlink:href="#m015c0d7e09" x="169.402611" y="276.48" style="stroke: #000000; stroke-width: 0.8"/>
      </g>
     </g>
     <g id="text_4">
      <!-- 25.11.2020 -->
      <g transform="translate(118.7774 318.688565)rotate(-30)scale(0.1 -0.1)">
       <use xlink:href="#DejaVuSans-32"/>
       <use xlink:href="#DejaVuSans-35" x="63.623047"/>
       <use xlink:href="#DejaVuSans-2e" x="127.246094"/>
       <use xlink:href="#DejaVuSans-31" x="159.033203"/>
       <use xlink:href="#DejaVuSans-31" x="222.65625"/>
       <use xlink:href="#DejaVuSans-2e" x="286.279297"/>
       <use xlink:href="#DejaVuSans-32" x="318.066406"/>
       <use xlink:href="#DejaVuSans-30" x="381.689453"/>
       <use xlink:href="#DejaVuSans-32" x="445.3125"/>
       <use xlink:href="#DejaVuSans-30" x="508.935547"/>
      </g>
     </g>
    </g>
    <g id="xtick_5">
     <g id="line2d_9">
      <path d="M 205.515066 276.48 
L 205.515066 41.472 
" clip-path="url(#p6775e30197)" style="fill: none; stroke-dasharray: 2.96,1.28; stroke-dashoffset: 0; stroke: #808080; stroke-width: 0.8"/>
     </g>
     <g id="line2d_10">
      <g>
       <use xlink:href="#m015c0d7e09" x="205.515066" y="276.48" style="stroke: #000000; stroke-width: 0.8"/>
      </g>
     </g>
     <g id="text_5">
      <!-- 06.03.2021 -->
      <g transform="translate(154.889855 318.688565)rotate(-30)scale(0.1 -0.1)">
       <defs>
        <path id="DejaVuSans-33" d="M 2597 2516 
Q 3050 2419 3304 2112 
Q 3559 1806 3559 1356 
Q 3559 666 3084 287 
Q 2609 -91 1734 -91 
Q 1441 -91 1130 -33 
Q 819 25 488 141 
L 488 750 
Q 750 597 1062 519 
Q 1375 441 1716 441 
Q 2309 441 2620 675 
Q 2931 909 2931 1356 
Q 2931 1769 2642 2001 
Q 2353 2234 1838 2234 
L 1294 2234 
L 1294 2753 
L 1863 2753 
Q 2328 2753 2575 2939 
Q 2822 3125 2822 3475 
Q 2822 3834 2567 4026 
Q 2313 4219 1838 4219 
Q 1578 4219 1281 4162 
Q 984 4106 628 3988 
L 628 4550 
Q 988 4650 1302 4700 
Q 1616 4750 1894 4750 
Q 2613 4750 3031 4423 
Q 3450 4097 3450 3541 
Q 3450 3153 3228 2886 
Q 3006 2619 2597 2516 
z
" transform="scale(0.015625)"/>
       </defs>
       <use xlink:href="#DejaVuSans-30"/>
       <use xlink:href="#DejaVuSans-36" x="63.623047"/>
       <use xlink:href="#DejaVuSans-2e" x="127.246094"/>
       <use xlink:href="#DejaVuSans-30" x="159.033203"/>
       <use xlink:href="#DejaVuSans-33" x="222.65625"/>
       <use xlink:href="#DejaVuSans-2e" x="286.279297"/>
       <use xlink:href="#DejaVuSans-32" x="318.066406"/>
       <use xlink:href="#DejaVuSans-30" x="381.689453"/>
       <use xlink:href="#DejaVuSans-32" x="445.3125"/>
       <use xlink:href="#DejaVuSans-31" x="508.935547"/>
      </g>
     </g>
    </g>
    <g id="xtick_6">
     <g id="line2d_11">
      <path d="M 241.627521 276.48 
L 241.627521 41.472 
" clip-path="url(#p6775e30197)" style="fill: none; stroke-dasharray: 2.96,1.28; stroke-dashoffset: 0; stroke: #808080; stroke-width: 0.8"/>
     </g>
     <g id="line2d_12">
      <g>
       <use xlink:href="#m015c0d7e09" x="241.627521" y="276.48" style="stroke: #000000; stroke-width: 0.8"/>
      </g>
     </g>
     <g id="text_6">
      <!-- 15.06.2021 -->
      <g transform="translate(191.00231 318.688565)rotate(-30)scale(0.1 -0.1)">
       <use xlink:href="#DejaVuSans-31"/>
       <use xlink:href="#DejaVuSans-35" x="63.623047"/>
       <use xlink:href="#DejaVuSans-2e" x="127.246094"/>
       <use xlink:href="#DejaVuSans-30" x="159.033203"/>
       <use xlink:href="#DejaVuSans-36" x="222.65625"/>
       <use xlink:href="#DejaVuSans-2e" x="286.279297"/>
       <use xlink:href="#DejaVuSans-32" x="318.066406"/>
       <use xlink:href="#DejaVuSans-30" x="381.689453"/>
       <use xlink:href="#DejaVuSans-32" x="445.3125"/>
       <use xlink:href="#DejaVuSans-31" x="508.935547"/>
      </g>
     </g>
    </g>
    <g id="xtick_7">
     <g id="line2d_13">
      <path d="M 277.739976 276.48 
L 277.739976 41.472 
" clip-path="url(#p6775e30197)" style="fill: none; stroke-dasharray: 2.96,1.28; stroke-dashoffset: 0; stroke: #808080; stroke-width: 0.8"/>
     </g>
     <g id="line2d_14">
      <g>
       <use xlink:href="#m015c0d7e09" x="277.739976" y="276.48" style="stroke: #000000; stroke-width: 0.8"/>
      </g>
     </g>
     <g id="text_7">
      <!-- 24.09.2021 -->
      <g transform="translate(227.114765 318.688565)rotate(-30)scale(0.1 -0.1)">
       <defs>
        <path id="DejaVuSans-34" d="M 2419 4116 
L 825 1625 
L 2419 1625 
L 2419 4116 
z
M 2253 4666 
L 3047 4666 
L 3047 1625 
L 3713 1625 
L 3713 1100 
L 3047 1100 
L 3047 0 
L 2419 0 
L 2419 1100 
L 313 1100 
L 313 1709 
L 2253 4666 
z
" transform="scale(0.015625)"/>
        <path id="DejaVuSans-39" d="M 703 97 
L 703 672 
Q 941 559 1184 500 
Q 1428 441 1663 441 
Q 2288 441 2617 861 
Q 2947 1281 2994 2138 
Q 2813 1869 2534 1725 
Q 2256 1581 1919 1581 
Q 1219 1581 811 2004 
Q 403 2428 403 3163 
Q 403 3881 828 4315 
Q 1253 4750 1959 4750 
Q 2769 4750 3195 4129 
Q 3622 3509 3622 2328 
Q 3622 1225 3098 567 
Q 2575 -91 1691 -91 
Q 1453 -91 1209 -44 
Q 966 3 703 97 
z
M 1959 2075 
Q 2384 2075 2632 2365 
Q 2881 2656 2881 3163 
Q 2881 3666 2632 3958 
Q 2384 4250 1959 4250 
Q 1534 4250 1286 3958 
Q 1038 3666 1038 3163 
Q 1038 2656 1286 2365 
Q 1534 2075 1959 2075 
z
" transform="scale(0.015625)"/>
       </defs>
       <use xlink:href="#DejaVuSans-32"/>
       <use xlink:href="#DejaVuSans-34" x="63.623047"/>
       <use xlink:href="#DejaVuSans-2e" x="127.246094"/>
       <use xlink:href="#DejaVuSans-30" x="159.033203"/>
       <use xlink:href="#DejaVuSans-39" x="222.65625"/>
       <use xlink:href="#DejaVuSans-2e" x="286.279297"/>
       <use xlink:href="#DejaVuSans-32" x="318.066406"/>
       <use xlink:href="#DejaVuSans-30" x="381.689453"/>
       <use xlink:href="#DejaVuSans-32" x="445.3125"/>
       <use xlink:href="#DejaVuSans-31" x="508.935547"/>
      </g>
     </g>
    </g>
    <g id="xtick_8">
     <g id="line2d_15">
      <path d="M 313.852431 276.48 
L 313.852431 41.472 
" clip-path="url(#p6775e30197)" style="fill: none; stroke-dasharray: 2.96,1.28; stroke-dashoffset: 0; stroke: #808080; stroke-width: 0.8"/>
     </g>
     <g id="line2d_16">
      <g>
       <use xlink:href="#m015c0d7e09" x="313.852431" y="276.48" style="stroke: #000000; stroke-width: 0.8"/>
      </g>
     </g>
     <g id="text_8">
      <!-- 03.01.2022 -->
      <g transform="translate(263.22722 318.688565)rotate(-30)scale(0.1 -0.1)">
       <use xlink:href="#DejaVuSans-30"/>
       <use xlink:href="#DejaVuSans-33" x="63.623047"/>
       <use xlink:href="#DejaVuSans-2e" x="127.246094"/>
       <use xlink:href="#DejaVuSans-30" x="159.033203"/>
       <use xlink:href="#DejaVuSans-31" x="222.65625"/>
       <use xlink:href="#DejaVuSans-2e" x="286.279297"/>
       <use xlink:href="#DejaVuSans-32" x="318.066406"/>
       <use xlink:href="#DejaVuSans-30" x="381.689453"/>
       <use xlink:href="#DejaVuSans-32" x="445.3125"/>
       <use xlink:href="#DejaVuSans-32" x="508.935547"/>
      </g>
     </g>
    </g>
    <g id="xtick_9">
     <g id="line2d_17">
      <path d="M 349.964886 276.48 
L 349.964886 41.472 
" clip-path="url(#p6775e30197)" style="fill: none; stroke-dasharray: 2.96,1.28; stroke-dashoffset: 0; stroke: #808080; stroke-width: 0.8"/>
     </g>
     <g id="line2d_18">
      <g>
       <use xlink:href="#m015c0d7e09" x="349.964886" y="276.48" style="stroke: #000000; stroke-width: 0.8"/>
      </g>
     </g>
     <g id="text_9">
      <!-- 14.04.2022 -->
      <g transform="translate(299.339675 318.688565)rotate(-30)scale(0.1 -0.1)">
       <use xlink:href="#DejaVuSans-31"/>
       <use xlink:href="#DejaVuSans-34" x="63.623047"/>
       <use xlink:href="#DejaVuSans-2e" x="127.246094"/>
       <use xlink:href="#DejaVuSans-30" x="159.033203"/>
       <use xlink:href="#DejaVuSans-34" x="222.65625"/>
       <use xlink:href="#DejaVuSans-2e" x="286.279297"/>
       <use xlink:href="#DejaVuSans-32" x="318.066406"/>
       <use xlink:href="#DejaVuSans-30" x="381.689453"/>
       <use xlink:href="#DejaVuSans-32" x="445.3125"/>
       <use xlink:href="#DejaVuSans-32" x="508.935547"/>
      </g>
     </g>
    </g>
    <g id="xtick_10">
     <g id="line2d_19">
      <path d="M 386.077341 276.48 
L 386.077341 41.472 
" clip-path="url(#p6775e30197)" style="fill: none; stroke-dasharray: 2.96,1.28; stroke-dashoffset: 0; stroke: #808080; stroke-width: 0.8"/>
     </g>
     <g id="line2d_20">
      <g>
       <use xlink:href="#m015c0d7e09" x="386.077341" y="276.48" style="stroke: #000000; stroke-width: 0.8"/>
      </g>
     </g>
     <g id="text_10">
      <!-- 24.07.2022 -->
      <g transform="translate(335.45213 318.688565)rotate(-30)scale(0.1 -0.1)">
       <use xlink:href="#DejaVuSans-32"/>
       <use xlink:href="#DejaVuSans-34" x="63.623047"/>
       <use xlink:href="#DejaVuSans-2e" x="127.246094"/>
       <use xlink:href="#DejaVuSans-30" x="159.033203"/>
       <use xlink:href="#DejaVuSans-37" x="222.65625"/>
       <use xlink:href="#DejaVuSans-2e" x="286.279297"/>
       <use xlink:href="#DejaVuSans-32" x="318.066406"/>
       <use xlink:href="#DejaVuSans-30" x="381.689453"/>
       <use xlink:href="#DejaVuSans-32" x="445.3125"/>
       <use xlink:href="#DejaVuSans-32" x="508.935547"/>
      </g>
     </g>
    </g>
   </g>
   <g id="matplotlib.axis_2">
    <g id="ytick_1">
     <g id="line2d_21">
      <path d="M 57.6 265.744647 
L 414.72 265.744647 
" clip-path="url(#p6775e30197)" style="fill: none; stroke-dasharray: 2.96,1.28; stroke-dashoffset: 0; stroke: #808080; stroke-width: 0.8"/>
     </g>
     <g id="line2d_22">
      <defs>
       <path id="mc0bb391dbf" d="M 0 0 
L -3.5 0 
" style="stroke: #000000; stroke-width: 0.8"/>
      </defs>
      <g>
       <use xlink:href="#mc0bb391dbf" x="57.6" y="265.744647" style="stroke: #000000; stroke-width: 0.8"/>
      </g>
     </g>
     <g id="text_11">
      <!-- 0 -->
      <g transform="translate(44.2375 269.543865)scale(0.1 -0.1)">
       <use xlink:href="#DejaVuSans-30"/>
      </g>
     </g>
    </g>
    <g id="ytick_2">
     <g id="line2d_23">
      <path d="M 57.6 227.558638 
L 414.72 227.558638 
" clip-path="url(#p6775e30197)" style="fill: none; stroke-dasharray: 2.96,1.28; stroke-dashoffset: 0; stroke: #808080; stroke-width: 0.8"/>
     </g>
     <g id="line2d_24">
      <g>
       <use xlink:href="#mc0bb391dbf" x="57.6" y="227.558638" style="stroke: #000000; stroke-width: 0.8"/>
      </g>
     </g>
     <g id="text_12">
      <!-- 500 -->
      <g transform="translate(31.5125 231.357857)scale(0.1 -0.1)">
       <use xlink:href="#DejaVuSans-35"/>
       <use xlink:href="#DejaVuSans-30" x="63.623047"/>
       <use xlink:href="#DejaVuSans-30" x="127.246094"/>
      </g>
     </g>
    </g>
    <g id="ytick_3">
     <g id="line2d_25">
      <path d="M 57.6 189.37263 
L 414.72 189.37263 
" clip-path="url(#p6775e30197)" style="fill: none; stroke-dasharray: 2.96,1.28; stroke-dashoffset: 0; stroke: #808080; stroke-width: 0.8"/>
     </g>
     <g id="line2d_26">
      <g>
       <use xlink:href="#mc0bb391dbf" x="57.6" y="189.37263" style="stroke: #000000; stroke-width: 0.8"/>
      </g>
     </g>
     <g id="text_13">
      <!-- 1000 -->
      <g transform="translate(25.15 193.171848)scale(0.1 -0.1)">
       <use xlink:href="#DejaVuSans-31"/>
       <use xlink:href="#DejaVuSans-30" x="63.623047"/>
       <use xlink:href="#DejaVuSans-30" x="127.246094"/>
       <use xlink:href="#DejaVuSans-30" x="190.869141"/>
      </g>
     </g>
    </g>
    <g id="ytick_4">
     <g id="line2d_27">
      <path d="M 57.6 151.186621 
L 414.72 151.186621 
" clip-path="url(#p6775e30197)" style="fill: none; stroke-dasharray: 2.96,1.28; stroke-dashoffset: 0; stroke: #808080; stroke-width: 0.8"/>
     </g>
     <g id="line2d_28">
      <g>
       <use xlink:href="#mc0bb391dbf" x="57.6" y="151.186621" style="stroke: #000000; stroke-width: 0.8"/>
      </g>
     </g>
     <g id="text_14">
      <!-- 1500 -->
      <g transform="translate(25.15 154.98584)scale(0.1 -0.1)">
       <use xlink:href="#DejaVuSans-31"/>
       <use xlink:href="#DejaVuSans-35" x="63.623047"/>
       <use xlink:href="#DejaVuSans-30" x="127.246094"/>
       <use xlink:href="#DejaVuSans-30" x="190.869141"/>
      </g>
     </g>
    </g>
    <g id="ytick_5">
     <g id="line2d_29">
      <path d="M 57.6 113.000613 
L 414.72 113.000613 
" clip-path="url(#p6775e30197)" style="fill: none; stroke-dasharray: 2.96,1.28; stroke-dashoffset: 0; stroke: #808080; stroke-width: 0.8"/>
     </g>
     <g id="line2d_30">
      <g>
       <use xlink:href="#mc0bb391dbf" x="57.6" y="113.000613" style="stroke: #000000; stroke-width: 0.8"/>
      </g>
     </g>
     <g id="text_15">
      <!-- 2000 -->
      <g transform="translate(25.15 116.799831)scale(0.1 -0.1)">
       <use xlink:href="#DejaVuSans-32"/>
       <use xlink:href="#DejaVuSans-30" x="63.623047"/>
       <use xlink:href="#DejaVuSans-30" x="127.246094"/>
       <use xlink:href="#DejaVuSans-30" x="190.869141"/>
      </g>
     </g>
    </g>
    <g id="ytick_6">
     <g id="line2d_31">
      <path d="M 57.6 74.814604 
L 414.72 74.814604 
" clip-path="url(#p6775e30197)" style="fill: none; stroke-dasharray: 2.96,1.28; stroke-dashoffset: 0; stroke: #808080; stroke-width: 0.8"/>
     </g>
     <g id="line2d_32">
      <g>
       <use xlink:href="#mc0bb391dbf" x="57.6" y="74.814604" style="stroke: #000000; stroke-width: 0.8"/>
      </g>
     </g>
     <g id="text_16">
      <!-- 2500 -->
      <g transform="translate(25.15 78.613823)scale(0.1 -0.1)">
       <use xlink:href="#DejaVuSans-32"/>
       <use xlink:href="#DejaVuSans-35" x="63.623047"/>
       <use xlink:href="#DejaVuSans-30" x="127.246094"/>
       <use xlink:href="#DejaVuSans-30" x="190.869141"/>
      </g>
     </g>
    </g>
    <g id="text_17">
     <!-- Inzidenz pro 7 Tage pro 100.000 Einwohner -->
     <g transform="translate(19.070312 267.301)rotate(-90)scale(0.1 -0.1)">
      <defs>
       <path id="DejaVuSans-49" d="M 628 4666 
L 1259 4666 
L 1259 0 
L 628 0 
L 628 4666 
z
" transform="scale(0.015625)"/>
       <path id="DejaVuSans-6e" d="M 3513 2113 
L 3513 0 
L 2938 0 
L 2938 2094 
Q 2938 2591 2744 2837 
Q 2550 3084 2163 3084 
Q 1697 3084 1428 2787 
Q 1159 2491 1159 1978 
L 1159 0 
L 581 0 
L 581 3500 
L 1159 3500 
L 1159 2956 
Q 1366 3272 1645 3428 
Q 1925 3584 2291 3584 
Q 2894 3584 3203 3211 
Q 3513 2838 3513 2113 
z
" transform="scale(0.015625)"/>
       <path id="DejaVuSans-7a" d="M 353 3500 
L 3084 3500 
L 3084 2975 
L 922 459 
L 3084 459 
L 3084 0 
L 275 0 
L 275 525 
L 2438 3041 
L 353 3041 
L 353 3500 
z
" transform="scale(0.015625)"/>
       <path id="DejaVuSans-69" d="M 603 3500 
L 1178 3500 
L 1178 0 
L 603 0 
L 603 3500 
z
M 603 4863 
L 1178 4863 
L 1178 4134 
L 603 4134 
L 603 4863 
z
" transform="scale(0.015625)"/>
       <path id="DejaVuSans-64" d="M 2906 2969 
L 2906 4863 
L 3481 4863 
L 3481 0 
L 2906 0 
L 2906 525 
Q 2725 213 2448 61 
Q 2172 -91 1784 -91 
Q 1150 -91 751 415 
Q 353 922 353 1747 
Q 353 2572 751 3078 
Q 1150 3584 1784 3584 
Q 2172 3584 2448 3432 
Q 2725 3281 2906 2969 
z
M 947 1747 
Q 947 1113 1208 752 
Q 1469 391 1925 391 
Q 2381 391 2643 752 
Q 2906 1113 2906 1747 
Q 2906 2381 2643 2742 
Q 2381 3103 1925 3103 
Q 1469 3103 1208 2742 
Q 947 2381 947 1747 
z
" transform="scale(0.015625)"/>
       <path id="DejaVuSans-65" d="M 3597 1894 
L 3597 1613 
L 953 1613 
Q 991 1019 1311 708 
Q 1631 397 2203 397 
Q 2534 397 2845 478 
Q 3156 559 3463 722 
L 3463 178 
Q 3153 47 2828 -22 
Q 2503 -91 2169 -91 
Q 1331 -91 842 396 
Q 353 884 353 1716 
Q 353 2575 817 3079 
Q 1281 3584 2069 3584 
Q 2775 3584 3186 3129 
Q 3597 2675 3597 1894 
z
M 3022 2063 
Q 3016 2534 2758 2815 
Q 2500 3097 2075 3097 
Q 1594 3097 1305 2825 
Q 1016 2553 972 2059 
L 3022 2063 
z
" transform="scale(0.015625)"/>
       <path id="DejaVuSans-20" transform="scale(0.015625)"/>
       <path id="DejaVuSans-70" d="M 1159 525 
L 1159 -1331 
L 581 -1331 
L 581 3500 
L 1159 3500 
L 1159 2969 
Q 1341 3281 1617 3432 
Q 1894 3584 2278 3584 
Q 2916 3584 3314 3078 
Q 3713 2572 3713 1747 
Q 3713 922 3314 415 
Q 2916 -91 2278 -91 
Q 1894 -91 1617 61 
Q 1341 213 1159 525 
z
M 3116 1747 
Q 3116 2381 2855 2742 
Q 2594 3103 2138 3103 
Q 1681 3103 1420 2742 
Q 1159 2381 1159 1747 
Q 1159 1113 1420 752 
Q 1681 391 2138 391 
Q 2594 391 2855 752 
Q 3116 1113 3116 1747 
z
" transform="scale(0.015625)"/>
       <path id="DejaVuSans-72" d="M 2631 2963 
Q 2534 3019 2420 3045 
Q 2306 3072 2169 3072 
Q 1681 3072 1420 2755 
Q 1159 2438 1159 1844 
L 1159 0 
L 581 0 
L 581 3500 
L 1159 3500 
L 1159 2956 
Q 1341 3275 1631 3429 
Q 1922 3584 2338 3584 
Q 2397 3584 2469 3576 
Q 2541 3569 2628 3553 
L 2631 2963 
z
" transform="scale(0.015625)"/>
       <path id="DejaVuSans-6f" d="M 1959 3097 
Q 1497 3097 1228 2736 
Q 959 2375 959 1747 
Q 959 1119 1226 758 
Q 1494 397 1959 397 
Q 2419 397 2687 759 
Q 2956 1122 2956 1747 
Q 2956 2369 2687 2733 
Q 2419 3097 1959 3097 
z
M 1959 3584 
Q 2709 3584 3137 3096 
Q 3566 2609 3566 1747 
Q 3566 888 3137 398 
Q 2709 -91 1959 -91 
Q 1206 -91 779 398 
Q 353 888 353 1747 
Q 353 2609 779 3096 
Q 1206 3584 1959 3584 
z
" transform="scale(0.015625)"/>
       <path id="DejaVuSans-54" d="M -19 4666 
L 3928 4666 
L 3928 4134 
L 2272 4134 
L 2272 0 
L 1638 0 
L 1638 4134 
L -19 4134 
L -19 4666 
z
" transform="scale(0.015625)"/>
       <path id="DejaVuSans-61" d="M 2194 1759 
Q 1497 1759 1228 1600 
Q 959 1441 959 1056 
Q 959 750 1161 570 
Q 1363 391 1709 391 
Q 2188 391 2477 730 
Q 2766 1069 2766 1631 
L 2766 1759 
L 2194 1759 
z
M 3341 1997 
L 3341 0 
L 2766 0 
L 2766 531 
Q 2569 213 2275 61 
Q 1981 -91 1556 -91 
Q 1019 -91 701 211 
Q 384 513 384 1019 
Q 384 1609 779 1909 
Q 1175 2209 1959 2209 
L 2766 2209 
L 2766 2266 
Q 2766 2663 2505 2880 
Q 2244 3097 1772 3097 
Q 1472 3097 1187 3025 
Q 903 2953 641 2809 
L 641 3341 
Q 956 3463 1253 3523 
Q 1550 3584 1831 3584 
Q 2591 3584 2966 3190 
Q 3341 2797 3341 1997 
z
" transform="scale(0.015625)"/>
       <path id="DejaVuSans-67" d="M 2906 1791 
Q 2906 2416 2648 2759 
Q 2391 3103 1925 3103 
Q 1463 3103 1205 2759 
Q 947 2416 947 1791 
Q 947 1169 1205 825 
Q 1463 481 1925 481 
Q 2391 481 2648 825 
Q 2906 1169 2906 1791 
z
M 3481 434 
Q 3481 -459 3084 -895 
Q 2688 -1331 1869 -1331 
Q 1566 -1331 1297 -1286 
Q 1028 -1241 775 -1147 
L 775 -588 
Q 1028 -725 1275 -790 
Q 1522 -856 1778 -856 
Q 2344 -856 2625 -561 
Q 2906 -266 2906 331 
L 2906 616 
Q 2728 306 2450 153 
Q 2172 0 1784 0 
Q 1141 0 747 490 
Q 353 981 353 1791 
Q 353 2603 747 3093 
Q 1141 3584 1784 3584 
Q 2172 3584 2450 3431 
Q 2728 3278 2906 2969 
L 2906 3500 
L 3481 3500 
L 3481 434 
z
" transform="scale(0.015625)"/>
       <path id="DejaVuSans-45" d="M 628 4666 
L 3578 4666 
L 3578 4134 
L 1259 4134 
L 1259 2753 
L 3481 2753 
L 3481 2222 
L 1259 2222 
L 1259 531 
L 3634 531 
L 3634 0 
L 628 0 
L 628 4666 
z
" transform="scale(0.015625)"/>
       <path id="DejaVuSans-77" d="M 269 3500 
L 844 3500 
L 1563 769 
L 2278 3500 
L 2956 3500 
L 3675 769 
L 4391 3500 
L 4966 3500 
L 4050 0 
L 3372 0 
L 2619 2869 
L 1863 0 
L 1184 0 
L 269 3500 
z
" transform="scale(0.015625)"/>
       <path id="DejaVuSans-68" d="M 3513 2113 
L 3513 0 
L 2938 0 
L 2938 2094 
Q 2938 2591 2744 2837 
Q 2550 3084 2163 3084 
Q 1697 3084 1428 2787 
Q 1159 2491 1159 1978 
L 1159 0 
L 581 0 
L 581 4863 
L 1159 4863 
L 1159 2956 
Q 1366 3272 1645 3428 
Q 1925 3584 2291 3584 
Q 2894 3584 3203 3211 
Q 3513 2838 3513 2113 
z
" transform="scale(0.015625)"/>
      </defs>
      <use xlink:href="#DejaVuSans-49"/>
      <use xlink:href="#DejaVuSans-6e" x="29.492188"/>
      <use xlink:href="#DejaVuSans-7a" x="92.871094"/>
      <use xlink:href="#DejaVuSans-69" x="145.361328"/>
      <use xlink:href="#DejaVuSans-64" x="173.144531"/>
      <use xlink:href="#DejaVuSans-65" x="236.621094"/>
      <use xlink:href="#DejaVuSans-6e" x="298.144531"/>
      <use xlink:href="#DejaVuSans-7a" x="361.523438"/>
      <use xlink:href="#DejaVuSans-20" x="414.013672"/>
      <use xlink:href="#DejaVuSans-70" x="445.800781"/>
      <use xlink:href="#DejaVuSans-72" x="509.277344"/>
      <use xlink:href="#DejaVuSans-6f" x="548.140625"/>
      <use xlink:href="#DejaVuSans-20" x="609.322266"/>
      <use xlink:href="#DejaVuSans-37" x="641.109375"/>
      <use xlink:href="#DejaVuSans-20" x="704.732422"/>
      <use xlink:href="#DejaVuSans-54" x="736.519531"/>
      <use xlink:href="#DejaVuSans-61" x="781.103516"/>
      <use xlink:href="#DejaVuSans-67" x="842.382812"/>
      <use xlink:href="#DejaVuSans-65" x="905.859375"/>
      <use xlink:href="#DejaVuSans-20" x="967.382812"/>
      <use xlink:href="#DejaVuSans-70" x="999.169922"/>
      <use xlink:href="#DejaVuSans-72" x="1062.646484"/>
      <use xlink:href="#DejaVuSans-6f" x="1101.509766"/>
      <use xlink:href="#DejaVuSans-20" x="1162.691406"/>
      <use xlink:href="#DejaVuSans-31" x="1194.478516"/>
      <use xlink:href="#DejaVuSans-30" x="1258.101562"/>
      <use xlink:href="#DejaVuSans-30" x="1321.724609"/>
      <use xlink:href="#DejaVuSans-2e" x="1385.347656"/>
      <use xlink:href="#DejaVuSans-30" x="1417.134766"/>
      <use xlink:href="#DejaVuSans-30" x="1480.757812"/>
      <use xlink:href="#DejaVuSans-30" x="1544.380859"/>
      <use xlink:href="#DejaVuSans-20" x="1608.003906"/>
      <use xlink:href="#DejaVuSans-45" x="1639.791016"/>
      <use xlink:href="#DejaVuSans-69" x="1702.974609"/>
      <use xlink:href="#DejaVuSans-6e" x="1730.757812"/>
      <use xlink:href="#DejaVuSans-77" x="1794.136719"/>
      <use xlink:href="#DejaVuSans-6f" x="1875.923828"/>
      <use xlink:href="#DejaVuSans-68" x="1937.105469"/>
      <use xlink:href="#DejaVuSans-6e" x="2000.484375"/>
      <use xlink:href="#DejaVuSans-65" x="2063.863281"/>
      <use xlink:href="#DejaVuSans-72" x="2125.386719"/>
     </g>
    </g>
   </g>
   <g id="line2d_33">
    <path d="M 73.832727 265.744647 
L 75.620473 265.585132 
L 77.408218 265.478788 
L 78.838414 265.159759 
L 79.553512 264.628042 
L 79.911061 264.734385 
L 80.626159 264.202669 
L 80.983708 264.096326 
L 81.341258 264.149497 
L 82.056356 263.936811 
L 82.771454 263.192408 
L 83.129003 263.032893 
L 83.486552 263.086065 
L 83.844101 262.767035 
L 84.916748 262.235319 
L 85.274297 262.341662 
L 85.631846 262.60752 
L 85.989395 262.713863 
L 86.704493 263.351923 
L 88.13469 263.405095 
L 88.849788 263.032893 
L 89.207337 263.192408 
L 89.564886 261.118714 
L 89.922435 261.437744 
L 90.279984 261.118714 
L 90.995082 260.799684 
L 91.352631 260.959199 
L 91.71018 260.374311 
L 92.067729 262.660692 
L 92.425278 262.235319 
L 92.782827 262.235319 
L 93.497926 262.979721 
L 93.855475 262.767035 
L 94.213024 263.139236 
L 94.570573 263.298751 
L 95.285671 264.043154 
L 95.64322 264.096326 
L 96.000769 263.830468 
L 96.715867 264.096326 
L 97.430965 263.989983 
L 97.788514 264.309012 
L 98.146063 264.096326 
L 98.861161 264.468527 
L 99.57626 264.574871 
L 99.933809 264.840729 
L 100.291358 264.574871 
L 101.006456 264.734385 
L 101.721554 264.734385 
L 102.079103 264.8939 
L 102.436652 264.734385 
L 102.794201 265.053415 
L 103.509299 265.21293 
L 104.224397 265.266102 
L 104.581946 265.372445 
L 104.939495 265.691475 
L 108.872535 265.638303 
L 109.230084 265.53196 
L 110.302731 265.585132 
L 112.090477 265.691475 
L 112.805575 265.691475 
L 124.247145 265.585132 
L 124.962243 265.478788 
L 125.319792 265.266102 
L 126.03489 265.319273 
L 126.749988 265.21293 
L 130.683028 265.691475 
L 133.900969 265.691475 
L 134.973616 264.8939 
L 136.403813 264.574871 
L 136.761362 264.734385 
L 137.118911 265.053415 
L 138.191558 265.425617 
L 138.906656 265.478788 
L 139.264205 265.585132 
L 139.621754 265.53196 
L 139.979303 265.319273 
L 140.336852 265.372445 
L 141.05195 265.106587 
L 142.124598 265.053415 
L 142.482147 265.319273 
L 143.197245 265.266102 
L 143.912343 265.372445 
L 148.202932 265.425617 
L 148.560481 265.21293 
L 149.633128 265.000244 
L 149.990677 264.787557 
L 150.348226 264.415356 
L 150.705775 264.255841 
L 151.420873 264.574871 
L 152.851069 263.989983 
L 153.208618 263.405095 
L 153.923716 263.458266 
L 154.638815 263.086065 
L 154.996364 262.979721 
L 155.353913 261.916289 
L 155.711462 262.075804 
L 156.069011 261.96946 
L 156.42656 261.490916 
L 156.784109 261.544087 
L 157.499207 260.055281 
L 157.856756 260.852856 
L 158.571854 260.480655 
L 158.929403 260.480655 
L 159.286952 260.108453 
L 159.644501 260.586998 
L 160.00205 260.640169 
L 160.3596 260.427483 
L 160.717149 259.470393 
L 161.432247 259.895767 
L 161.789796 259.470393 
L 162.504894 259.257707 
L 163.219992 259.948938 
L 163.93509 259.789423 
L 164.292639 260.214796 
L 164.650188 259.789423 
L 165.007737 260.427483 
L 165.365286 260.480655 
L 165.722835 260.161625 
L 166.437934 259.948938 
L 166.795483 260.267968 
L 167.510581 258.087931 
L 167.86813 257.662558 
L 168.225679 258.087931 
L 168.940777 258.087931 
L 169.298326 257.556214 
L 170.013424 258.406961 
L 170.370973 256.599125 
L 170.728522 255.961065 
L 171.086071 255.80155 
L 171.44362 255.854722 
L 171.801169 255.323006 
L 172.158718 254.525431 
L 172.516268 252.770767 
L 172.873817 254.259573 
L 173.231366 253.408827 
L 173.588915 253.355655 
L 173.946464 252.983454 
L 174.304013 253.302484 
L 174.661562 252.398566 
L 175.019111 249.846327 
L 175.37666 248.357521 
L 175.734209 247.932148 
L 176.091758 246.017969 
L 176.449307 244.901365 
L 176.806856 243.306216 
L 177.164405 242.987186 
L 177.521954 242.45547 
L 177.879503 239.850059 
L 178.237052 235.755843 
L 178.952151 237.723194 
L 179.3097 236.234388 
L 179.667249 235.862187 
L 180.024798 236.181217 
L 180.382347 240.434947 
L 180.739896 247.187745 
L 181.097445 247.98532 
L 181.454994 247.98532 
L 181.812543 249.314611 
L 182.170092 249.686812 
L 182.527641 252.664424 
L 182.88519 252.717596 
L 183.242739 252.983454 
L 183.600288 252.292222 
L 183.957837 253.142969 
L 184.315386 252.345394 
L 184.672936 252.398566 
L 185.030485 254.738118 
L 185.388034 252.611252 
L 185.745583 251.281961 
L 186.103132 251.973193 
L 186.460681 251.866849 
L 187.175779 254.684946 
L 187.533328 252.026364 
L 187.890877 253.940543 
L 188.248426 252.717596 
L 188.963524 252.823939 
L 189.678622 252.185879 
L 190.39372 253.408827 
L 190.75127 254.312745 
L 191.108819 254.419088 
L 191.466368 254.312745 
L 192.181466 257.184013 
L 192.539015 258.141102 
L 193.254113 258.406961 
L 193.611662 258.72599 
L 193.969211 258.72599 
L 194.32676 258.513304 
L 195.041858 260.00211 
L 195.399407 260.00211 
L 195.756956 260.480655 
L 196.114505 260.533826 
L 196.472054 260.32114 
L 196.829604 260.640169 
L 197.187153 261.171886 
L 197.544702 261.012371 
L 197.902251 260.693341 
L 198.2598 261.703602 
L 198.617349 261.597259 
L 199.332447 262.341662 
L 199.689996 262.235319 
L 200.047545 262.554348 
L 200.405094 263.24558 
L 200.762643 262.873378 
L 201.120192 263.032893 
L 201.477741 262.92655 
L 201.83529 262.501177 
L 202.192839 263.298751 
L 202.907938 262.554348 
L 203.980585 262.448005 
L 204.338134 262.554348 
L 204.695683 262.235319 
L 205.053232 262.235319 
L 205.410781 262.448005 
L 205.76833 262.182147 
L 206.125879 262.235319 
L 206.840977 262.554348 
L 207.198526 261.437744 
L 207.556075 262.128975 
L 208.271173 262.92655 
L 209.343821 262.660692 
L 209.70137 263.192408 
L 210.058919 262.979721 
L 210.774017 261.544087 
L 211.131566 261.597259 
L 211.489115 261.490916 
L 211.846664 261.703602 
L 212.204213 261.012371 
L 212.561762 260.00211 
L 212.919311 259.842595 
L 213.991958 258.406961 
L 214.349507 256.43961 
L 214.707056 256.014237 
L 215.064606 256.226924 
L 215.422155 254.684946 
L 215.779704 256.280095 
L 216.137253 256.652297 
L 216.494802 256.811812 
L 216.852351 258.513304 
L 217.2099 258.885505 
L 217.567449 257.3967 
L 217.924998 257.556214 
L 218.282547 255.163491 
L 218.640096 254.312745 
L 218.997645 254.259573 
L 219.712743 250.962932 
L 220.070292 251.281961 
L 220.427841 252.132708 
L 220.78539 252.079536 
L 221.14294 252.930282 
L 221.500489 252.717596 
L 221.858038 253.408827 
L 222.215587 252.930282 
L 222.573136 253.940543 
L 222.930685 253.19614 
L 223.288234 252.87711 
L 223.645783 251.920021 
L 224.003332 252.185879 
L 224.360881 251.866849 
L 224.71843 253.19614 
L 225.075979 252.026364 
L 225.433528 251.866849 
L 225.791077 252.558081 
L 226.148626 252.983454 
L 227.221274 252.026364 
L 227.578823 252.239051 
L 227.936372 252.930282 
L 228.293921 252.717596 
L 229.009019 253.355655 
L 229.366568 255.003976 
L 229.724117 254.259573 
L 230.081666 254.844461 
L 230.796764 257.928416 
L 231.154313 258.353789 
L 231.511862 258.566476 
L 231.869411 258.247446 
L 232.22696 260.799684 
L 232.584509 261.703602 
L 232.942058 261.012371 
L 233.299608 261.171886 
L 234.014706 261.118714 
L 234.372255 262.128975 
L 234.729804 262.394833 
L 235.087353 262.448005 
L 235.444902 262.979721 
L 236.16 263.086065 
L 236.517549 262.92655 
L 236.875098 262.60752 
L 237.232647 262.448005 
L 237.590196 262.873378 
L 237.947745 262.979721 
L 238.305294 263.458266 
L 239.377942 263.777296 
L 240.09304 264.574871 
L 240.450589 264.415356 
L 241.523236 264.309012 
L 241.880785 264.787557 
L 242.595883 264.840729 
L 242.953432 265.159759 
L 244.026079 265.425617 
L 244.383628 265.372445 
L 244.741177 265.53196 
L 245.098726 265.53196 
L 245.456276 265.372445 
L 246.171374 265.478788 
L 247.60157 265.585132 
L 248.674217 265.638303 
L 249.389315 265.638303 
L 249.746864 265.478788 
L 251.892159 265.53196 
L 252.607257 265.638303 
L 253.679904 265.585132 
L 254.037453 265.744647 
L 256.182747 265.638303 
L 256.897845 265.319273 
L 257.255394 265.372445 
L 257.612944 265.159759 
L 259.04314 265.159759 
L 259.400689 265.319273 
L 259.758238 265.159759 
L 261.545983 265.053415 
L 262.261081 264.734385 
L 262.61863 264.681214 
L 262.976179 264.415356 
L 263.333728 263.777296 
L 264.048827 263.724124 
L 264.406376 263.405095 
L 265.121474 263.298751 
L 265.479023 262.873378 
L 265.836572 263.24558 
L 266.55167 263.139236 
L 266.909219 263.351923 
L 267.624317 261.225057 
L 267.981866 261.703602 
L 268.339415 261.012371 
L 268.696964 261.118714 
L 269.054513 261.012371 
L 269.412062 260.480655 
L 269.769612 261.171886 
L 270.127161 262.128975 
L 270.48471 262.022632 
L 270.842259 262.235319 
L 271.199808 261.916289 
L 271.914906 261.703602 
L 272.630004 260.32114 
L 272.987553 258.991849 
L 273.345102 258.566476 
L 274.775298 258.672819 
L 275.132847 258.619647 
L 275.490396 258.832334 
L 275.847946 258.513304 
L 276.205495 258.619647 
L 276.563044 257.981588 
L 276.920593 257.662558 
L 277.278142 258.087931 
L 277.635691 258.300617 
L 277.99324 258.72599 
L 278.350789 259.470393 
L 278.708338 259.629908 
L 279.065887 260.00211 
L 280.138534 258.779162 
L 280.496083 259.257707 
L 280.853632 259.310879 
L 281.211181 258.938677 
L 281.56873 259.151364 
L 281.92628 259.895767 
L 282.283829 259.68308 
L 282.641378 260.108453 
L 282.998927 259.257707 
L 283.356476 259.417222 
L 284.071574 259.948938 
L 284.429123 259.789423 
L 284.786672 260.640169 
L 285.144221 260.586998 
L 285.50177 261.278229 
L 285.859319 260.799684 
L 286.216868 260.693341 
L 286.574417 260.427483 
L 286.931966 259.736252 
L 287.289515 259.417222 
L 287.647064 259.417222 
L 288.362163 258.938677 
L 289.077261 258.566476 
L 289.43481 258.991849 
L 289.792359 257.343528 
L 290.865006 254.15323 
L 291.222555 254.206401 
L 291.580104 253.089797 
L 291.937653 253.940543 
L 292.295202 253.036625 
L 293.0103 250.059014 
L 293.367849 247.134574 
L 293.725398 246.071141 
L 294.082948 245.964798 
L 294.440497 241.073007 
L 294.798046 238.148567 
L 295.155595 236.819276 
L 295.513144 234.798754 
L 295.870693 235.064612 
L 296.585791 233.309948 
L 296.94334 231.555284 
L 297.300889 231.927486 
L 297.658438 232.831403 
L 298.015987 232.884575 
L 298.373536 230.11965 
L 298.731085 230.279165 
L 299.088634 229.375247 
L 299.446183 231.608456 
L 299.803732 230.43868 
L 300.161282 228.524501 
L 300.518831 228.311814 
L 300.87638 228.737187 
L 301.233929 228.152299 
L 301.949027 227.83327 
L 302.306576 225.546889 
L 303.021674 217.305285 
L 303.379223 216.507711 
L 303.736772 216.454539 
L 304.094321 217.890173 
L 304.45187 216.401368 
L 304.809419 213.157898 
L 305.524517 221.293158 
L 305.882066 223.260509 
L 306.597165 221.505845 
L 306.954714 222.781964 
L 307.312263 226.610322 
L 307.669812 225.546889 
L 308.027361 226.23812 
L 308.38491 226.344464 
L 308.742459 227.19521 
L 309.100008 229.056217 
L 309.457557 230.11965 
L 309.815106 234.373381 
L 310.172655 234.905097 
L 310.530204 236.659761 
L 310.887753 241.126179 
L 311.245302 243.572074 
L 311.602851 243.837932 
L 311.9604 243.837932 
L 312.31795 243.412559 
L 312.675499 246.071141 
L 313.033048 245.273566 
L 313.390597 245.273566 
L 313.748146 244.74185 
L 314.105695 245.114051 
L 314.463244 244.050619 
L 314.820793 244.316477 
L 315.178342 246.443342 
L 315.535891 247.559947 
L 315.89344 244.42282 
L 316.250989 243.625246 
L 316.608538 243.253044 
L 316.966087 241.604723 
L 317.323636 238.786627 
L 317.681185 234.001179 
L 318.038734 234.745582 
L 318.396284 237.138306 
L 318.753833 235.755843 
L 319.111382 233.68215 
L 319.468931 226.184949 
L 320.184029 219.272636 
L 320.541578 212.041293 
L 320.899127 207.734391 
L 321.256676 205.660697 
L 321.614225 202.736257 
L 321.971774 204.703608 
L 322.329323 201.566481 
L 323.40197 185.93402 
L 323.759519 183.807154 
L 324.117068 187.369654 
L 324.474618 181.042229 
L 324.832167 181.095401 
L 325.547265 173.864058 
L 325.904814 177.692416 
L 326.262363 175.087006 
L 326.619912 166.739059 
L 326.977461 167.589805 
L 327.692559 156.902306 
L 328.050108 158.231597 
L 328.407657 156.902306 
L 328.765206 156.211075 
L 329.122755 157.008649 
L 329.480304 150.574881 
L 329.837853 151.478799 
L 330.195402 153.073948 
L 330.552952 158.65697 
L 330.910501 157.327679 
L 331.26805 157.114993 
L 331.625599 162.378985 
L 331.983148 165.78197 
L 332.340697 154.828612 
L 332.698246 147.863128 
L 333.055795 137.016114 
L 333.413344 134.782905 
L 333.770893 138.558091 
L 334.128442 129.359398 
L 334.485991 124.573951 
L 334.84354 132.33701 
L 335.201089 130.741861 
L 335.558638 132.124323 
L 335.916187 129.784771 
L 336.273736 126.434958 
L 336.631286 132.390182 
L 337.346384 106.601938 
L 337.703933 102.082349 
L 338.061482 83.312761 
L 338.419031 72.89112 
L 338.77658 73.582351 
L 339.134129 59.704554 
L 339.491678 52.154182 
L 339.849227 57.099144 
L 340.206776 58.26892 
L 340.564325 68.690561 
L 340.921874 75.124329 
L 341.636972 63.851942 
L 341.994521 73.795038 
L 342.35207 67.254927 
L 342.70962 68.531046 
L 343.067169 54.812764 
L 343.782267 91.128992 
L 344.139816 73.635523 
L 344.497365 73.476008 
L 345.212463 92.936827 
L 345.570012 115.003056 
L 346.28511 115.003056 
L 346.642659 134.836077 
L 347.715306 162.21947 
L 348.072855 171.524506 
L 348.787954 171.524506 
L 349.145503 168.812753 
L 349.503052 172.056223 
L 349.860601 171.471335 
L 350.21815 171.471335 
L 350.575699 182.584207 
L 351.290797 182.584207 
L 351.648346 210.233458 
L 352.005895 196.408832 
L 352.363444 192.261445 
L 352.720993 196.302489 
L 353.078542 185.61499 
L 353.79364 185.61499 
L 354.151189 167.164432 
L 354.508738 189.283833 
L 354.866288 200.609392 
L 355.581386 209.382712 
L 356.296484 209.382712 
L 357.011582 219.804352 
L 357.369131 216.933084 
L 357.72668 216.560883 
L 358.084229 214.912562 
L 358.799327 214.912562 
L 359.514425 206.192413 
L 359.871974 210.818346 
L 360.587072 215.337935 
L 361.302171 215.337935 
L 362.017269 226.929352 
L 362.374818 228.205471 
L 362.732367 231.342598 
L 363.089916 232.671889 
L 363.805014 232.671889 
L 364.162563 237.138306 
L 364.520112 239.796888 
L 365.23521 246.443342 
L 365.592759 247.187745 
L 366.307857 247.187745 
L 366.665406 250.112185 
L 367.022956 249.739984 
L 367.380505 250.2717 
L 367.738054 244.369649 
L 368.095603 244.210134 
L 368.810701 244.210134 
L 369.16825 248.410693 
L 369.883348 239.903231 
L 370.240897 241.764238 
L 370.598446 238.361254 
L 371.313544 238.361254 
L 371.671093 228.364986 
L 372.028642 229.587934 
L 372.386191 231.448941 
L 372.74374 235.489985 
L 373.10129 231.821142 
L 373.816388 231.821142 
L 374.173937 230.810881 
L 374.531486 224.430285 
L 374.889035 221.559016 
L 375.246584 214.061816 
L 375.604133 215.231592 
L 376.319231 215.231592 
L 376.67678 211.296891 
L 377.034329 213.476928 
L 377.391878 213.317413 
L 377.749427 211.137376 
L 378.106976 210.871517 
L 378.822074 210.871517 
L 379.179624 206.617787 
L 379.537173 206.617787 
L 379.894722 203.427488 
L 380.252271 201.300623 
L 380.60982 197.684952 
L 381.324918 197.684952 
L 381.682467 200.184018 
L 382.040016 198.323011 
L 382.397565 185.93402 
L 382.755114 192.314616 
L 383.112663 182.265177 
L 383.827761 182.265177 
L 384.18531 170.780103 
L 384.542859 165.197081 
L 384.900408 176.469468 
L 385.257958 165.303425 
L 385.615507 178.330476 
L 386.330605 178.330476 
L 387.045703 186.146706 
L 387.403252 184.97693 
L 387.760801 193.697079 
L 388.11835 196.781034 
L 388.833448 196.781034 
L 389.190997 209.489055 
L 389.548546 215.125248 
L 389.906095 225.281031 
L 390.621193 232.618717 
L 391.336292 232.618717 
L 391.693841 238.839798 
L 392.05139 241.445209 
L 392.408939 241.923753 
L 393.124037 244.316477 
L 393.839135 244.316477 
L 394.196684 243.731589 
L 394.554233 247.02823 
L 394.911782 246.336999 
L 395.269331 248.30435 
L 395.62688 248.62338 
L 396.341978 248.62338 
L 396.699527 248.091663 
L 397.057076 247.187745 
L 397.414626 248.836066 
L 397.772175 248.463865 
L 398.129724 249.633641 
L 398.487273 249.633641 
L 398.487273 249.633641 
" clip-path="url(#p6775e30197)" style="fill: none; stroke: #1f77b4; stroke-width: 1.5; stroke-linecap: square"/>
   </g>
   <g id="patch_3">
    <path d="M 57.6 276.48 
L 57.6 41.472 
" style="fill: none; stroke: #000000; stroke-width: 0.8; stroke-linejoin: miter; stroke-linecap: square"/>
   </g>
   <g id="patch_4">
    <path d="M 414.72 276.48 
L 414.72 41.472 
" style="fill: none; stroke: #000000; stroke-width: 0.8; stroke-linejoin: miter; stroke-linecap: square"/>
   </g>
   <g id="patch_5">
    <path d="M 57.6 276.48 
L 414.72 276.48 
" style="fill: none; stroke: #000000; stroke-width: 0.8; stroke-linejoin: miter; stroke-linecap: square"/>
   </g>
   <g id="patch_6">
    <path d="M 57.6 41.472 
L 414.72 41.472 
" style="fill: none; stroke: #000000; stroke-width: 0.8; stroke-linejoin: miter; stroke-linecap: square"/>
   </g>
  </g>
  <g id="text_18">
   <!-- Inzidenzverlauf LK Neckar-Odenwald-Kreis -->
   <g transform="translate(40.137188 20.589187)scale(0.18 -0.18)">
    <defs>
     <path id="DejaVuSans-76" d="M 191 3500 
L 800 3500 
L 1894 563 
L 2988 3500 
L 3597 3500 
L 2284 0 
L 1503 0 
L 191 3500 
z
" transform="scale(0.015625)"/>
     <path id="DejaVuSans-6c" d="M 603 4863 
L 1178 4863 
L 1178 0 
L 603 0 
L 603 4863 
z
" transform="scale(0.015625)"/>
     <path id="DejaVuSans-75" d="M 544 1381 
L 544 3500 
L 1119 3500 
L 1119 1403 
Q 1119 906 1312 657 
Q 1506 409 1894 409 
Q 2359 409 2629 706 
Q 2900 1003 2900 1516 
L 2900 3500 
L 3475 3500 
L 3475 0 
L 2900 0 
L 2900 538 
Q 2691 219 2414 64 
Q 2138 -91 1772 -91 
Q 1169 -91 856 284 
Q 544 659 544 1381 
z
M 1991 3584 
L 1991 3584 
z
" transform="scale(0.015625)"/>
     <path id="DejaVuSans-66" d="M 2375 4863 
L 2375 4384 
L 1825 4384 
Q 1516 4384 1395 4259 
Q 1275 4134 1275 3809 
L 1275 3500 
L 2222 3500 
L 2222 3053 
L 1275 3053 
L 1275 0 
L 697 0 
L 697 3053 
L 147 3053 
L 147 3500 
L 697 3500 
L 697 3744 
Q 697 4328 969 4595 
Q 1241 4863 1831 4863 
L 2375 4863 
z
" transform="scale(0.015625)"/>
     <path id="DejaVuSans-4c" d="M 628 4666 
L 1259 4666 
L 1259 531 
L 3531 531 
L 3531 0 
L 628 0 
L 628 4666 
z
" transform="scale(0.015625)"/>
     <path id="DejaVuSans-4b" d="M 628 4666 
L 1259 4666 
L 1259 2694 
L 3353 4666 
L 4166 4666 
L 1850 2491 
L 4331 0 
L 3500 0 
L 1259 2247 
L 1259 0 
L 628 0 
L 628 4666 
z
" transform="scale(0.015625)"/>
     <path id="DejaVuSans-4e" d="M 628 4666 
L 1478 4666 
L 3547 763 
L 3547 4666 
L 4159 4666 
L 4159 0 
L 3309 0 
L 1241 3903 
L 1241 0 
L 628 0 
L 628 4666 
z
" transform="scale(0.015625)"/>
     <path id="DejaVuSans-63" d="M 3122 3366 
L 3122 2828 
Q 2878 2963 2633 3030 
Q 2388 3097 2138 3097 
Q 1578 3097 1268 2742 
Q 959 2388 959 1747 
Q 959 1106 1268 751 
Q 1578 397 2138 397 
Q 2388 397 2633 464 
Q 2878 531 3122 666 
L 3122 134 
Q 2881 22 2623 -34 
Q 2366 -91 2075 -91 
Q 1284 -91 818 406 
Q 353 903 353 1747 
Q 353 2603 823 3093 
Q 1294 3584 2113 3584 
Q 2378 3584 2631 3529 
Q 2884 3475 3122 3366 
z
" transform="scale(0.015625)"/>
     <path id="DejaVuSans-6b" d="M 581 4863 
L 1159 4863 
L 1159 1991 
L 2875 3500 
L 3609 3500 
L 1753 1863 
L 3688 0 
L 2938 0 
L 1159 1709 
L 1159 0 
L 581 0 
L 581 4863 
z
" transform="scale(0.015625)"/>
     <path id="DejaVuSans-2d" d="M 313 2009 
L 1997 2009 
L 1997 1497 
L 313 1497 
L 313 2009 
z
" transform="scale(0.015625)"/>
     <path id="DejaVuSans-4f" d="M 2522 4238 
Q 1834 4238 1429 3725 
Q 1025 3213 1025 2328 
Q 1025 1447 1429 934 
Q 1834 422 2522 422 
Q 3209 422 3611 934 
Q 4013 1447 4013 2328 
Q 4013 3213 3611 3725 
Q 3209 4238 2522 4238 
z
M 2522 4750 
Q 3503 4750 4090 4092 
Q 4678 3434 4678 2328 
Q 4678 1225 4090 567 
Q 3503 -91 2522 -91 
Q 1538 -91 948 565 
Q 359 1222 359 2328 
Q 359 3434 948 4092 
Q 1538 4750 2522 4750 
z
" transform="scale(0.015625)"/>
     <path id="DejaVuSans-73" d="M 2834 3397 
L 2834 2853 
Q 2591 2978 2328 3040 
Q 2066 3103 1784 3103 
Q 1356 3103 1142 2972 
Q 928 2841 928 2578 
Q 928 2378 1081 2264 
Q 1234 2150 1697 2047 
L 1894 2003 
Q 2506 1872 2764 1633 
Q 3022 1394 3022 966 
Q 3022 478 2636 193 
Q 2250 -91 1575 -91 
Q 1294 -91 989 -36 
Q 684 19 347 128 
L 347 722 
Q 666 556 975 473 
Q 1284 391 1588 391 
Q 1994 391 2212 530 
Q 2431 669 2431 922 
Q 2431 1156 2273 1281 
Q 2116 1406 1581 1522 
L 1381 1569 
Q 847 1681 609 1914 
Q 372 2147 372 2553 
Q 372 3047 722 3315 
Q 1072 3584 1716 3584 
Q 2034 3584 2315 3537 
Q 2597 3491 2834 3397 
z
" transform="scale(0.015625)"/>
    </defs>
    <use xlink:href="#DejaVuSans-49"/>
    <use xlink:href="#DejaVuSans-6e" x="29.492188"/>
    <use xlink:href="#DejaVuSans-7a" x="92.871094"/>
    <use xlink:href="#DejaVuSans-69" x="145.361328"/>
    <use xlink:href="#DejaVuSans-64" x="173.144531"/>
    <use xlink:href="#DejaVuSans-65" x="236.621094"/>
    <use xlink:href="#DejaVuSans-6e" x="298.144531"/>
    <use xlink:href="#DejaVuSans-7a" x="361.523438"/>
    <use xlink:href="#DejaVuSans-76" x="414.013672"/>
    <use xlink:href="#DejaVuSans-65" x="473.193359"/>
    <use xlink:href="#DejaVuSans-72" x="534.716797"/>
    <use xlink:href="#DejaVuSans-6c" x="575.830078"/>
    <use xlink:href="#DejaVuSans-61" x="603.613281"/>
    <use xlink:href="#DejaVuSans-75" x="664.892578"/>
    <use xlink:href="#DejaVuSans-66" x="728.271484"/>
    <use xlink:href="#DejaVuSans-20" x="763.476562"/>
    <use xlink:href="#DejaVuSans-4c" x="795.263672"/>
    <use xlink:href="#DejaVuSans-4b" x="850.976562"/>
    <use xlink:href="#DejaVuSans-20" x="916.552734"/>
    <use xlink:href="#DejaVuSans-4e" x="948.339844"/>
    <use xlink:href="#DejaVuSans-65" x="1023.144531"/>
    <use xlink:href="#DejaVuSans-63" x="1084.667969"/>
    <use xlink:href="#DejaVuSans-6b" x="1139.648438"/>
    <use xlink:href="#DejaVuSans-61" x="1195.808594"/>
    <use xlink:href="#DejaVuSans-72" x="1257.087891"/>
    <use xlink:href="#DejaVuSans-2d" x="1291.826172"/>
    <use xlink:href="#DejaVuSans-4f" x="1330.660156"/>
    <use xlink:href="#DejaVuSans-64" x="1409.371094"/>
    <use xlink:href="#DejaVuSans-65" x="1472.847656"/>
    <use xlink:href="#DejaVuSans-6e" x="1534.371094"/>
    <use xlink:href="#DejaVuSans-77" x="1597.75"/>
    <use xlink:href="#DejaVuSans-61" x="1679.537109"/>
    <use xlink:href="#DejaVuSans-6c" x="1740.816406"/>
    <use xlink:href="#DejaVuSans-64" x="1768.599609"/>
    <use xlink:href="#DejaVuSans-2d" x="1832.076172"/>
    <use xlink:href="#DejaVuSans-4b" x="1868.160156"/>
    <use xlink:href="#DejaVuSans-72" x="1933.736328"/>
    <use xlink:href="#DejaVuSans-65" x="1972.599609"/>
    <use xlink:href="#DejaVuSans-69" x="2034.123047"/>
    <use xlink:href="#DejaVuSans-73" x="2061.90625"/>
   </g>
  </g>
 </g>
 <defs>
  <clipPath id="p6775e30197">
   <rect x="57.6" y="41.472" width="357.12" height="235.008"/>
  </clipPath>
 </defs>
</svg>
