<?xml version="1.0" encoding="utf-8" standalone="no"?>
<!DOCTYPE svg PUBLIC "-//W3C//DTD SVG 1.1//EN"
  "http://www.w3.org/Graphics/SVG/1.1/DTD/svg11.dtd">
<svg xmlns:xlink="http://www.w3.org/1999/xlink" width="460.8pt" height="345.6pt" viewBox="0 0 460.8 345.6" xmlns="http://www.w3.org/2000/svg" version="1.1">
 <metadata>
  <rdf:RDF xmlns:dc="http://purl.org/dc/elements/1.1/" xmlns:cc="http://creativecommons.org/ns#" xmlns:rdf="http://www.w3.org/1999/02/22-rdf-syntax-ns#">
   <cc:Work>
    <dc:type rdf:resource="http://purl.org/dc/dcmitype/StillImage"/>
    <dc:date>2022-08-17T09:24:59.354152</dc:date>
    <dc:format>image/svg+xml</dc:format>
    <dc:creator>
     <cc:Agent>
      <dc:title>Matplotlib v3.5.3, https://matplotlib.org/</dc:title>
     </cc:Agent>
    </dc:creator>
   </cc:Work>
  </rdf:RDF>
 </metadata>
 <defs>
  <style type="text/css">*{stroke-linejoin: round; stroke-linecap: butt}</style>
 </defs>
 <g id="figure_1">
  <g id="patch_1">
   <path d="M 0 345.6 
L 460.8 345.6 
L 460.8 0 
L 0 0 
z
" style="fill: #ffffff"/>
  </g>
  <g id="axes_1">
   <g id="patch_2">
    <path d="M 57.6 276.48 
L 414.72 276.48 
L 414.72 41.472 
L 57.6 41.472 
z
" style="fill: #ffffff"/>
   </g>
   <g id="matplotlib.axis_1">
    <g id="xtick_1">
     <g id="line2d_1">
      <path d="M 58.375141 276.48 
L 58.375141 41.472 
" clip-path="url(#pfef4d1ac65)" style="fill: none; stroke-dasharray: 2.96,1.28; stroke-dashoffset: 0; stroke: #808080; stroke-width: 0.8"/>
     </g>
     <g id="line2d_2">
      <defs>
       <path id="m7aba4497f2" d="M 0 0 
L 0 3.5 
" style="stroke: #000000; stroke-width: 0.8"/>
      </defs>
      <g>
       <use xlink:href="#m7aba4497f2" x="58.375141" y="276.48" style="stroke: #000000; stroke-width: 0.8"/>
      </g>
     </g>
     <g id="text_1">
      <!-- 20.01.2020 -->
      <g transform="translate(7.749931 318.688565)rotate(-30)scale(0.1 -0.1)">
       <defs>
        <path id="DejaVuSans-32" d="M 1228 531 
L 3431 531 
L 3431 0 
L 469 0 
L 469 531 
Q 828 903 1448 1529 
Q 2069 2156 2228 2338 
Q 2531 2678 2651 2914 
Q 2772 3150 2772 3378 
Q 2772 3750 2511 3984 
Q 2250 4219 1831 4219 
Q 1534 4219 1204 4116 
Q 875 4013 500 3803 
L 500 4441 
Q 881 4594 1212 4672 
Q 1544 4750 1819 4750 
Q 2544 4750 2975 4387 
Q 3406 4025 3406 3419 
Q 3406 3131 3298 2873 
Q 3191 2616 2906 2266 
Q 2828 2175 2409 1742 
Q 1991 1309 1228 531 
z
" transform="scale(0.015625)"/>
        <path id="DejaVuSans-30" d="M 2034 4250 
Q 1547 4250 1301 3770 
Q 1056 3291 1056 2328 
Q 1056 1369 1301 889 
Q 1547 409 2034 409 
Q 2525 409 2770 889 
Q 3016 1369 3016 2328 
Q 3016 3291 2770 3770 
Q 2525 4250 2034 4250 
z
M 2034 4750 
Q 2819 4750 3233 4129 
Q 3647 3509 3647 2328 
Q 3647 1150 3233 529 
Q 2819 -91 2034 -91 
Q 1250 -91 836 529 
Q 422 1150 422 2328 
Q 422 3509 836 4129 
Q 1250 4750 2034 4750 
z
" transform="scale(0.015625)"/>
        <path id="DejaVuSans-2e" d="M 684 794 
L 1344 794 
L 1344 0 
L 684 0 
L 684 794 
z
" transform="scale(0.015625)"/>
        <path id="DejaVuSans-31" d="M 794 531 
L 1825 531 
L 1825 4091 
L 703 3866 
L 703 4441 
L 1819 4666 
L 2450 4666 
L 2450 531 
L 3481 531 
L 3481 0 
L 794 0 
L 794 531 
z
" transform="scale(0.015625)"/>
       </defs>
       <use xlink:href="#DejaVuSans-32"/>
       <use xlink:href="#DejaVuSans-30" x="63.623047"/>
       <use xlink:href="#DejaVuSans-2e" x="127.246094"/>
       <use xlink:href="#DejaVuSans-30" x="159.033203"/>
       <use xlink:href="#DejaVuSans-31" x="222.65625"/>
       <use xlink:href="#DejaVuSans-2e" x="286.279297"/>
       <use xlink:href="#DejaVuSans-32" x="318.066406"/>
       <use xlink:href="#DejaVuSans-30" x="381.689453"/>
       <use xlink:href="#DejaVuSans-32" x="445.3125"/>
       <use xlink:href="#DejaVuSans-30" x="508.935547"/>
      </g>
     </g>
    </g>
    <g id="xtick_2">
     <g id="line2d_3">
      <path d="M 94.20658 276.48 
L 94.20658 41.472 
" clip-path="url(#pfef4d1ac65)" style="fill: none; stroke-dasharray: 2.96,1.28; stroke-dashoffset: 0; stroke: #808080; stroke-width: 0.8"/>
     </g>
     <g id="line2d_4">
      <g>
       <use xlink:href="#m7aba4497f2" x="94.20658" y="276.48" style="stroke: #000000; stroke-width: 0.8"/>
      </g>
     </g>
     <g id="text_2">
      <!-- 28.04.2020 -->
      <g transform="translate(43.581369 318.688565)rotate(-30)scale(0.1 -0.1)">
       <defs>
        <path id="DejaVuSans-38" d="M 2034 2216 
Q 1584 2216 1326 1975 
Q 1069 1734 1069 1313 
Q 1069 891 1326 650 
Q 1584 409 2034 409 
Q 2484 409 2743 651 
Q 3003 894 3003 1313 
Q 3003 1734 2745 1975 
Q 2488 2216 2034 2216 
z
M 1403 2484 
Q 997 2584 770 2862 
Q 544 3141 544 3541 
Q 544 4100 942 4425 
Q 1341 4750 2034 4750 
Q 2731 4750 3128 4425 
Q 3525 4100 3525 3541 
Q 3525 3141 3298 2862 
Q 3072 2584 2669 2484 
Q 3125 2378 3379 2068 
Q 3634 1759 3634 1313 
Q 3634 634 3220 271 
Q 2806 -91 2034 -91 
Q 1263 -91 848 271 
Q 434 634 434 1313 
Q 434 1759 690 2068 
Q 947 2378 1403 2484 
z
M 1172 3481 
Q 1172 3119 1398 2916 
Q 1625 2713 2034 2713 
Q 2441 2713 2670 2916 
Q 2900 3119 2900 3481 
Q 2900 3844 2670 4047 
Q 2441 4250 2034 4250 
Q 1625 4250 1398 4047 
Q 1172 3844 1172 3481 
z
" transform="scale(0.015625)"/>
        <path id="DejaVuSans-34" d="M 2419 4116 
L 825 1625 
L 2419 1625 
L 2419 4116 
z
M 2253 4666 
L 3047 4666 
L 3047 1625 
L 3713 1625 
L 3713 1100 
L 3047 1100 
L 3047 0 
L 2419 0 
L 2419 1100 
L 313 1100 
L 313 1709 
L 2253 4666 
z
" transform="scale(0.015625)"/>
       </defs>
       <use xlink:href="#DejaVuSans-32"/>
       <use xlink:href="#DejaVuSans-38" x="63.623047"/>
       <use xlink:href="#DejaVuSans-2e" x="127.246094"/>
       <use xlink:href="#DejaVuSans-30" x="159.033203"/>
       <use xlink:href="#DejaVuSans-34" x="222.65625"/>
       <use xlink:href="#DejaVuSans-2e" x="286.279297"/>
       <use xlink:href="#DejaVuSans-32" x="318.066406"/>
       <use xlink:href="#DejaVuSans-30" x="381.689453"/>
       <use xlink:href="#DejaVuSans-32" x="445.3125"/>
       <use xlink:href="#DejaVuSans-30" x="508.935547"/>
      </g>
     </g>
    </g>
    <g id="xtick_3">
     <g id="line2d_5">
      <path d="M 130.038018 276.48 
L 130.038018 41.472 
" clip-path="url(#pfef4d1ac65)" style="fill: none; stroke-dasharray: 2.96,1.28; stroke-dashoffset: 0; stroke: #808080; stroke-width: 0.8"/>
     </g>
     <g id="line2d_6">
      <g>
       <use xlink:href="#m7aba4497f2" x="130.038018" y="276.48" style="stroke: #000000; stroke-width: 0.8"/>
      </g>
     </g>
     <g id="text_3">
      <!-- 05.08.2020 -->
      <g transform="translate(79.412807 318.688565)rotate(-30)scale(0.1 -0.1)">
       <defs>
        <path id="DejaVuSans-35" d="M 691 4666 
L 3169 4666 
L 3169 4134 
L 1269 4134 
L 1269 2991 
Q 1406 3038 1543 3061 
Q 1681 3084 1819 3084 
Q 2600 3084 3056 2656 
Q 3513 2228 3513 1497 
Q 3513 744 3044 326 
Q 2575 -91 1722 -91 
Q 1428 -91 1123 -41 
Q 819 9 494 109 
L 494 744 
Q 775 591 1075 516 
Q 1375 441 1709 441 
Q 2250 441 2565 725 
Q 2881 1009 2881 1497 
Q 2881 1984 2565 2268 
Q 2250 2553 1709 2553 
Q 1456 2553 1204 2497 
Q 953 2441 691 2322 
L 691 4666 
z
" transform="scale(0.015625)"/>
       </defs>
       <use xlink:href="#DejaVuSans-30"/>
       <use xlink:href="#DejaVuSans-35" x="63.623047"/>
       <use xlink:href="#DejaVuSans-2e" x="127.246094"/>
       <use xlink:href="#DejaVuSans-30" x="159.033203"/>
       <use xlink:href="#DejaVuSans-38" x="222.65625"/>
       <use xlink:href="#DejaVuSans-2e" x="286.279297"/>
       <use xlink:href="#DejaVuSans-32" x="318.066406"/>
       <use xlink:href="#DejaVuSans-30" x="381.689453"/>
       <use xlink:href="#DejaVuSans-32" x="445.3125"/>
       <use xlink:href="#DejaVuSans-30" x="508.935547"/>
      </g>
     </g>
    </g>
    <g id="xtick_4">
     <g id="line2d_7">
      <path d="M 165.869456 276.48 
L 165.869456 41.472 
" clip-path="url(#pfef4d1ac65)" style="fill: none; stroke-dasharray: 2.96,1.28; stroke-dashoffset: 0; stroke: #808080; stroke-width: 0.8"/>
     </g>
     <g id="line2d_8">
      <g>
       <use xlink:href="#m7aba4497f2" x="165.869456" y="276.48" style="stroke: #000000; stroke-width: 0.8"/>
      </g>
     </g>
     <g id="text_4">
      <!-- 12.11.2020 -->
      <g transform="translate(115.244245 318.688565)rotate(-30)scale(0.1 -0.1)">
       <use xlink:href="#DejaVuSans-31"/>
       <use xlink:href="#DejaVuSans-32" x="63.623047"/>
       <use xlink:href="#DejaVuSans-2e" x="127.246094"/>
       <use xlink:href="#DejaVuSans-31" x="159.033203"/>
       <use xlink:href="#DejaVuSans-31" x="222.65625"/>
       <use xlink:href="#DejaVuSans-2e" x="286.279297"/>
       <use xlink:href="#DejaVuSans-32" x="318.066406"/>
       <use xlink:href="#DejaVuSans-30" x="381.689453"/>
       <use xlink:href="#DejaVuSans-32" x="445.3125"/>
       <use xlink:href="#DejaVuSans-30" x="508.935547"/>
      </g>
     </g>
    </g>
    <g id="xtick_5">
     <g id="line2d_9">
      <path d="M 201.700894 276.48 
L 201.700894 41.472 
" clip-path="url(#pfef4d1ac65)" style="fill: none; stroke-dasharray: 2.96,1.28; stroke-dashoffset: 0; stroke: #808080; stroke-width: 0.8"/>
     </g>
     <g id="line2d_10">
      <g>
       <use xlink:href="#m7aba4497f2" x="201.700894" y="276.48" style="stroke: #000000; stroke-width: 0.8"/>
      </g>
     </g>
     <g id="text_5">
      <!-- 19.02.2021 -->
      <g transform="translate(151.075683 318.688565)rotate(-30)scale(0.1 -0.1)">
       <defs>
        <path id="DejaVuSans-39" d="M 703 97 
L 703 672 
Q 941 559 1184 500 
Q 1428 441 1663 441 
Q 2288 441 2617 861 
Q 2947 1281 2994 2138 
Q 2813 1869 2534 1725 
Q 2256 1581 1919 1581 
Q 1219 1581 811 2004 
Q 403 2428 403 3163 
Q 403 3881 828 4315 
Q 1253 4750 1959 4750 
Q 2769 4750 3195 4129 
Q 3622 3509 3622 2328 
Q 3622 1225 3098 567 
Q 2575 -91 1691 -91 
Q 1453 -91 1209 -44 
Q 966 3 703 97 
z
M 1959 2075 
Q 2384 2075 2632 2365 
Q 2881 2656 2881 3163 
Q 2881 3666 2632 3958 
Q 2384 4250 1959 4250 
Q 1534 4250 1286 3958 
Q 1038 3666 1038 3163 
Q 1038 2656 1286 2365 
Q 1534 2075 1959 2075 
z
" transform="scale(0.015625)"/>
       </defs>
       <use xlink:href="#DejaVuSans-31"/>
       <use xlink:href="#DejaVuSans-39" x="63.623047"/>
       <use xlink:href="#DejaVuSans-2e" x="127.246094"/>
       <use xlink:href="#DejaVuSans-30" x="159.033203"/>
       <use xlink:href="#DejaVuSans-32" x="222.65625"/>
       <use xlink:href="#DejaVuSans-2e" x="286.279297"/>
       <use xlink:href="#DejaVuSans-32" x="318.066406"/>
       <use xlink:href="#DejaVuSans-30" x="381.689453"/>
       <use xlink:href="#DejaVuSans-32" x="445.3125"/>
       <use xlink:href="#DejaVuSans-31" x="508.935547"/>
      </g>
     </g>
    </g>
    <g id="xtick_6">
     <g id="line2d_11">
      <path d="M 237.532332 276.48 
L 237.532332 41.472 
" clip-path="url(#pfef4d1ac65)" style="fill: none; stroke-dasharray: 2.96,1.28; stroke-dashoffset: 0; stroke: #808080; stroke-width: 0.8"/>
     </g>
     <g id="line2d_12">
      <g>
       <use xlink:href="#m7aba4497f2" x="237.532332" y="276.48" style="stroke: #000000; stroke-width: 0.8"/>
      </g>
     </g>
     <g id="text_6">
      <!-- 29.05.2021 -->
      <g transform="translate(186.907121 318.688565)rotate(-30)scale(0.1 -0.1)">
       <use xlink:href="#DejaVuSans-32"/>
       <use xlink:href="#DejaVuSans-39" x="63.623047"/>
       <use xlink:href="#DejaVuSans-2e" x="127.246094"/>
       <use xlink:href="#DejaVuSans-30" x="159.033203"/>
       <use xlink:href="#DejaVuSans-35" x="222.65625"/>
       <use xlink:href="#DejaVuSans-2e" x="286.279297"/>
       <use xlink:href="#DejaVuSans-32" x="318.066406"/>
       <use xlink:href="#DejaVuSans-30" x="381.689453"/>
       <use xlink:href="#DejaVuSans-32" x="445.3125"/>
       <use xlink:href="#DejaVuSans-31" x="508.935547"/>
      </g>
     </g>
    </g>
    <g id="xtick_7">
     <g id="line2d_13">
      <path d="M 273.36377 276.48 
L 273.36377 41.472 
" clip-path="url(#pfef4d1ac65)" style="fill: none; stroke-dasharray: 2.96,1.28; stroke-dashoffset: 0; stroke: #808080; stroke-width: 0.8"/>
     </g>
     <g id="line2d_14">
      <g>
       <use xlink:href="#m7aba4497f2" x="273.36377" y="276.48" style="stroke: #000000; stroke-width: 0.8"/>
      </g>
     </g>
     <g id="text_7">
      <!-- 05.09.2021 -->
      <g transform="translate(222.738559 318.688565)rotate(-30)scale(0.1 -0.1)">
       <use xlink:href="#DejaVuSans-30"/>
       <use xlink:href="#DejaVuSans-35" x="63.623047"/>
       <use xlink:href="#DejaVuSans-2e" x="127.246094"/>
       <use xlink:href="#DejaVuSans-30" x="159.033203"/>
       <use xlink:href="#DejaVuSans-39" x="222.65625"/>
       <use xlink:href="#DejaVuSans-2e" x="286.279297"/>
       <use xlink:href="#DejaVuSans-32" x="318.066406"/>
       <use xlink:href="#DejaVuSans-30" x="381.689453"/>
       <use xlink:href="#DejaVuSans-32" x="445.3125"/>
       <use xlink:href="#DejaVuSans-31" x="508.935547"/>
      </g>
     </g>
    </g>
    <g id="xtick_8">
     <g id="line2d_15">
      <path d="M 309.195208 276.48 
L 309.195208 41.472 
" clip-path="url(#pfef4d1ac65)" style="fill: none; stroke-dasharray: 2.96,1.28; stroke-dashoffset: 0; stroke: #808080; stroke-width: 0.8"/>
     </g>
     <g id="line2d_16">
      <g>
       <use xlink:href="#m7aba4497f2" x="309.195208" y="276.48" style="stroke: #000000; stroke-width: 0.8"/>
      </g>
     </g>
     <g id="text_8">
      <!-- 13.12.2021 -->
      <g transform="translate(258.569997 318.688565)rotate(-30)scale(0.1 -0.1)">
       <defs>
        <path id="DejaVuSans-33" d="M 2597 2516 
Q 3050 2419 3304 2112 
Q 3559 1806 3559 1356 
Q 3559 666 3084 287 
Q 2609 -91 1734 -91 
Q 1441 -91 1130 -33 
Q 819 25 488 141 
L 488 750 
Q 750 597 1062 519 
Q 1375 441 1716 441 
Q 2309 441 2620 675 
Q 2931 909 2931 1356 
Q 2931 1769 2642 2001 
Q 2353 2234 1838 2234 
L 1294 2234 
L 1294 2753 
L 1863 2753 
Q 2328 2753 2575 2939 
Q 2822 3125 2822 3475 
Q 2822 3834 2567 4026 
Q 2313 4219 1838 4219 
Q 1578 4219 1281 4162 
Q 984 4106 628 3988 
L 628 4550 
Q 988 4650 1302 4700 
Q 1616 4750 1894 4750 
Q 2613 4750 3031 4423 
Q 3450 4097 3450 3541 
Q 3450 3153 3228 2886 
Q 3006 2619 2597 2516 
z
" transform="scale(0.015625)"/>
       </defs>
       <use xlink:href="#DejaVuSans-31"/>
       <use xlink:href="#DejaVuSans-33" x="63.623047"/>
       <use xlink:href="#DejaVuSans-2e" x="127.246094"/>
       <use xlink:href="#DejaVuSans-31" x="159.033203"/>
       <use xlink:href="#DejaVuSans-32" x="222.65625"/>
       <use xlink:href="#DejaVuSans-2e" x="286.279297"/>
       <use xlink:href="#DejaVuSans-32" x="318.066406"/>
       <use xlink:href="#DejaVuSans-30" x="381.689453"/>
       <use xlink:href="#DejaVuSans-32" x="445.3125"/>
       <use xlink:href="#DejaVuSans-31" x="508.935547"/>
      </g>
     </g>
    </g>
    <g id="xtick_9">
     <g id="line2d_17">
      <path d="M 345.026646 276.48 
L 345.026646 41.472 
" clip-path="url(#pfef4d1ac65)" style="fill: none; stroke-dasharray: 2.96,1.28; stroke-dashoffset: 0; stroke: #808080; stroke-width: 0.8"/>
     </g>
     <g id="line2d_18">
      <g>
       <use xlink:href="#m7aba4497f2" x="345.026646" y="276.48" style="stroke: #000000; stroke-width: 0.8"/>
      </g>
     </g>
     <g id="text_9">
      <!-- 22.03.2022 -->
      <g transform="translate(294.401436 318.688565)rotate(-30)scale(0.1 -0.1)">
       <use xlink:href="#DejaVuSans-32"/>
       <use xlink:href="#DejaVuSans-32" x="63.623047"/>
       <use xlink:href="#DejaVuSans-2e" x="127.246094"/>
       <use xlink:href="#DejaVuSans-30" x="159.033203"/>
       <use xlink:href="#DejaVuSans-33" x="222.65625"/>
       <use xlink:href="#DejaVuSans-2e" x="286.279297"/>
       <use xlink:href="#DejaVuSans-32" x="318.066406"/>
       <use xlink:href="#DejaVuSans-30" x="381.689453"/>
       <use xlink:href="#DejaVuSans-32" x="445.3125"/>
       <use xlink:href="#DejaVuSans-32" x="508.935547"/>
      </g>
     </g>
    </g>
    <g id="xtick_10">
     <g id="line2d_19">
      <path d="M 380.858085 276.48 
L 380.858085 41.472 
" clip-path="url(#pfef4d1ac65)" style="fill: none; stroke-dasharray: 2.96,1.28; stroke-dashoffset: 0; stroke: #808080; stroke-width: 0.8"/>
     </g>
     <g id="line2d_20">
      <g>
       <use xlink:href="#m7aba4497f2" x="380.858085" y="276.48" style="stroke: #000000; stroke-width: 0.8"/>
      </g>
     </g>
     <g id="text_10">
      <!-- 29.06.2022 -->
      <g transform="translate(330.232874 318.688565)rotate(-30)scale(0.1 -0.1)">
       <defs>
        <path id="DejaVuSans-36" d="M 2113 2584 
Q 1688 2584 1439 2293 
Q 1191 2003 1191 1497 
Q 1191 994 1439 701 
Q 1688 409 2113 409 
Q 2538 409 2786 701 
Q 3034 994 3034 1497 
Q 3034 2003 2786 2293 
Q 2538 2584 2113 2584 
z
M 3366 4563 
L 3366 3988 
Q 3128 4100 2886 4159 
Q 2644 4219 2406 4219 
Q 1781 4219 1451 3797 
Q 1122 3375 1075 2522 
Q 1259 2794 1537 2939 
Q 1816 3084 2150 3084 
Q 2853 3084 3261 2657 
Q 3669 2231 3669 1497 
Q 3669 778 3244 343 
Q 2819 -91 2113 -91 
Q 1303 -91 875 529 
Q 447 1150 447 2328 
Q 447 3434 972 4092 
Q 1497 4750 2381 4750 
Q 2619 4750 2861 4703 
Q 3103 4656 3366 4563 
z
" transform="scale(0.015625)"/>
       </defs>
       <use xlink:href="#DejaVuSans-32"/>
       <use xlink:href="#DejaVuSans-39" x="63.623047"/>
       <use xlink:href="#DejaVuSans-2e" x="127.246094"/>
       <use xlink:href="#DejaVuSans-30" x="159.033203"/>
       <use xlink:href="#DejaVuSans-36" x="222.65625"/>
       <use xlink:href="#DejaVuSans-2e" x="286.279297"/>
       <use xlink:href="#DejaVuSans-32" x="318.066406"/>
       <use xlink:href="#DejaVuSans-30" x="381.689453"/>
       <use xlink:href="#DejaVuSans-32" x="445.3125"/>
       <use xlink:href="#DejaVuSans-32" x="508.935547"/>
      </g>
     </g>
    </g>
   </g>
   <g id="matplotlib.axis_2">
    <g id="ytick_1">
     <g id="line2d_21">
      <path d="M 57.6 265.797818 
L 414.72 265.797818 
" clip-path="url(#pfef4d1ac65)" style="fill: none; stroke-dasharray: 2.96,1.28; stroke-dashoffset: 0; stroke: #808080; stroke-width: 0.8"/>
     </g>
     <g id="line2d_22">
      <defs>
       <path id="mf7fe18b2c9" d="M 0 0 
L -3.5 0 
" style="stroke: #000000; stroke-width: 0.8"/>
      </defs>
      <g>
       <use xlink:href="#mf7fe18b2c9" x="57.6" y="265.797818" style="stroke: #000000; stroke-width: 0.8"/>
      </g>
     </g>
     <g id="text_11">
      <!-- 0 -->
      <g transform="translate(44.2375 269.597037)scale(0.1 -0.1)">
       <use xlink:href="#DejaVuSans-30"/>
      </g>
     </g>
    </g>
    <g id="ytick_2">
     <g id="line2d_23">
      <path d="M 57.6 227.028391 
L 414.72 227.028391 
" clip-path="url(#pfef4d1ac65)" style="fill: none; stroke-dasharray: 2.96,1.28; stroke-dashoffset: 0; stroke: #808080; stroke-width: 0.8"/>
     </g>
     <g id="line2d_24">
      <g>
       <use xlink:href="#mf7fe18b2c9" x="57.6" y="227.028391" style="stroke: #000000; stroke-width: 0.8"/>
      </g>
     </g>
     <g id="text_12">
      <!-- 500 -->
      <g transform="translate(31.5125 230.82761)scale(0.1 -0.1)">
       <use xlink:href="#DejaVuSans-35"/>
       <use xlink:href="#DejaVuSans-30" x="63.623047"/>
       <use xlink:href="#DejaVuSans-30" x="127.246094"/>
      </g>
     </g>
    </g>
    <g id="ytick_3">
     <g id="line2d_25">
      <path d="M 57.6 188.258964 
L 414.72 188.258964 
" clip-path="url(#pfef4d1ac65)" style="fill: none; stroke-dasharray: 2.96,1.28; stroke-dashoffset: 0; stroke: #808080; stroke-width: 0.8"/>
     </g>
     <g id="line2d_26">
      <g>
       <use xlink:href="#mf7fe18b2c9" x="57.6" y="188.258964" style="stroke: #000000; stroke-width: 0.8"/>
      </g>
     </g>
     <g id="text_13">
      <!-- 1000 -->
      <g transform="translate(25.15 192.058183)scale(0.1 -0.1)">
       <use xlink:href="#DejaVuSans-31"/>
       <use xlink:href="#DejaVuSans-30" x="63.623047"/>
       <use xlink:href="#DejaVuSans-30" x="127.246094"/>
       <use xlink:href="#DejaVuSans-30" x="190.869141"/>
      </g>
     </g>
    </g>
    <g id="ytick_4">
     <g id="line2d_27">
      <path d="M 57.6 149.489537 
L 414.72 149.489537 
" clip-path="url(#pfef4d1ac65)" style="fill: none; stroke-dasharray: 2.96,1.28; stroke-dashoffset: 0; stroke: #808080; stroke-width: 0.8"/>
     </g>
     <g id="line2d_28">
      <g>
       <use xlink:href="#mf7fe18b2c9" x="57.6" y="149.489537" style="stroke: #000000; stroke-width: 0.8"/>
      </g>
     </g>
     <g id="text_14">
      <!-- 1500 -->
      <g transform="translate(25.15 153.288756)scale(0.1 -0.1)">
       <use xlink:href="#DejaVuSans-31"/>
       <use xlink:href="#DejaVuSans-35" x="63.623047"/>
       <use xlink:href="#DejaVuSans-30" x="127.246094"/>
       <use xlink:href="#DejaVuSans-30" x="190.869141"/>
      </g>
     </g>
    </g>
    <g id="ytick_5">
     <g id="line2d_29">
      <path d="M 57.6 110.72011 
L 414.72 110.72011 
" clip-path="url(#pfef4d1ac65)" style="fill: none; stroke-dasharray: 2.96,1.28; stroke-dashoffset: 0; stroke: #808080; stroke-width: 0.8"/>
     </g>
     <g id="line2d_30">
      <g>
       <use xlink:href="#mf7fe18b2c9" x="57.6" y="110.72011" style="stroke: #000000; stroke-width: 0.8"/>
      </g>
     </g>
     <g id="text_15">
      <!-- 2000 -->
      <g transform="translate(25.15 114.519329)scale(0.1 -0.1)">
       <use xlink:href="#DejaVuSans-32"/>
       <use xlink:href="#DejaVuSans-30" x="63.623047"/>
       <use xlink:href="#DejaVuSans-30" x="127.246094"/>
       <use xlink:href="#DejaVuSans-30" x="190.869141"/>
      </g>
     </g>
    </g>
    <g id="ytick_6">
     <g id="line2d_31">
      <path d="M 57.6 71.950683 
L 414.72 71.950683 
" clip-path="url(#pfef4d1ac65)" style="fill: none; stroke-dasharray: 2.96,1.28; stroke-dashoffset: 0; stroke: #808080; stroke-width: 0.8"/>
     </g>
     <g id="line2d_32">
      <g>
       <use xlink:href="#mf7fe18b2c9" x="57.6" y="71.950683" style="stroke: #000000; stroke-width: 0.8"/>
      </g>
     </g>
     <g id="text_16">
      <!-- 2500 -->
      <g transform="translate(25.15 75.749902)scale(0.1 -0.1)">
       <use xlink:href="#DejaVuSans-32"/>
       <use xlink:href="#DejaVuSans-35" x="63.623047"/>
       <use xlink:href="#DejaVuSans-30" x="127.246094"/>
       <use xlink:href="#DejaVuSans-30" x="190.869141"/>
      </g>
     </g>
    </g>
    <g id="text_17">
     <!-- Inzidenz pro 7 Tage pro 100.000 Einwohner -->
     <g transform="translate(19.070312 267.301)rotate(-90)scale(0.1 -0.1)">
      <defs>
       <path id="DejaVuSans-49" d="M 628 4666 
L 1259 4666 
L 1259 0 
L 628 0 
L 628 4666 
z
" transform="scale(0.015625)"/>
       <path id="DejaVuSans-6e" d="M 3513 2113 
L 3513 0 
L 2938 0 
L 2938 2094 
Q 2938 2591 2744 2837 
Q 2550 3084 2163 3084 
Q 1697 3084 1428 2787 
Q 1159 2491 1159 1978 
L 1159 0 
L 581 0 
L 581 3500 
L 1159 3500 
L 1159 2956 
Q 1366 3272 1645 3428 
Q 1925 3584 2291 3584 
Q 2894 3584 3203 3211 
Q 3513 2838 3513 2113 
z
" transform="scale(0.015625)"/>
       <path id="DejaVuSans-7a" d="M 353 3500 
L 3084 3500 
L 3084 2975 
L 922 459 
L 3084 459 
L 3084 0 
L 275 0 
L 275 525 
L 2438 3041 
L 353 3041 
L 353 3500 
z
" transform="scale(0.015625)"/>
       <path id="DejaVuSans-69" d="M 603 3500 
L 1178 3500 
L 1178 0 
L 603 0 
L 603 3500 
z
M 603 4863 
L 1178 4863 
L 1178 4134 
L 603 4134 
L 603 4863 
z
" transform="scale(0.015625)"/>
       <path id="DejaVuSans-64" d="M 2906 2969 
L 2906 4863 
L 3481 4863 
L 3481 0 
L 2906 0 
L 2906 525 
Q 2725 213 2448 61 
Q 2172 -91 1784 -91 
Q 1150 -91 751 415 
Q 353 922 353 1747 
Q 353 2572 751 3078 
Q 1150 3584 1784 3584 
Q 2172 3584 2448 3432 
Q 2725 3281 2906 2969 
z
M 947 1747 
Q 947 1113 1208 752 
Q 1469 391 1925 391 
Q 2381 391 2643 752 
Q 2906 1113 2906 1747 
Q 2906 2381 2643 2742 
Q 2381 3103 1925 3103 
Q 1469 3103 1208 2742 
Q 947 2381 947 1747 
z
" transform="scale(0.015625)"/>
       <path id="DejaVuSans-65" d="M 3597 1894 
L 3597 1613 
L 953 1613 
Q 991 1019 1311 708 
Q 1631 397 2203 397 
Q 2534 397 2845 478 
Q 3156 559 3463 722 
L 3463 178 
Q 3153 47 2828 -22 
Q 2503 -91 2169 -91 
Q 1331 -91 842 396 
Q 353 884 353 1716 
Q 353 2575 817 3079 
Q 1281 3584 2069 3584 
Q 2775 3584 3186 3129 
Q 3597 2675 3597 1894 
z
M 3022 2063 
Q 3016 2534 2758 2815 
Q 2500 3097 2075 3097 
Q 1594 3097 1305 2825 
Q 1016 2553 972 2059 
L 3022 2063 
z
" transform="scale(0.015625)"/>
       <path id="DejaVuSans-20" transform="scale(0.015625)"/>
       <path id="DejaVuSans-70" d="M 1159 525 
L 1159 -1331 
L 581 -1331 
L 581 3500 
L 1159 3500 
L 1159 2969 
Q 1341 3281 1617 3432 
Q 1894 3584 2278 3584 
Q 2916 3584 3314 3078 
Q 3713 2572 3713 1747 
Q 3713 922 3314 415 
Q 2916 -91 2278 -91 
Q 1894 -91 1617 61 
Q 1341 213 1159 525 
z
M 3116 1747 
Q 3116 2381 2855 2742 
Q 2594 3103 2138 3103 
Q 1681 3103 1420 2742 
Q 1159 2381 1159 1747 
Q 1159 1113 1420 752 
Q 1681 391 2138 391 
Q 2594 391 2855 752 
Q 3116 1113 3116 1747 
z
" transform="scale(0.015625)"/>
       <path id="DejaVuSans-72" d="M 2631 2963 
Q 2534 3019 2420 3045 
Q 2306 3072 2169 3072 
Q 1681 3072 1420 2755 
Q 1159 2438 1159 1844 
L 1159 0 
L 581 0 
L 581 3500 
L 1159 3500 
L 1159 2956 
Q 1341 3275 1631 3429 
Q 1922 3584 2338 3584 
Q 2397 3584 2469 3576 
Q 2541 3569 2628 3553 
L 2631 2963 
z
" transform="scale(0.015625)"/>
       <path id="DejaVuSans-6f" d="M 1959 3097 
Q 1497 3097 1228 2736 
Q 959 2375 959 1747 
Q 959 1119 1226 758 
Q 1494 397 1959 397 
Q 2419 397 2687 759 
Q 2956 1122 2956 1747 
Q 2956 2369 2687 2733 
Q 2419 3097 1959 3097 
z
M 1959 3584 
Q 2709 3584 3137 3096 
Q 3566 2609 3566 1747 
Q 3566 888 3137 398 
Q 2709 -91 1959 -91 
Q 1206 -91 779 398 
Q 353 888 353 1747 
Q 353 2609 779 3096 
Q 1206 3584 1959 3584 
z
" transform="scale(0.015625)"/>
       <path id="DejaVuSans-37" d="M 525 4666 
L 3525 4666 
L 3525 4397 
L 1831 0 
L 1172 0 
L 2766 4134 
L 525 4134 
L 525 4666 
z
" transform="scale(0.015625)"/>
       <path id="DejaVuSans-54" d="M -19 4666 
L 3928 4666 
L 3928 4134 
L 2272 4134 
L 2272 0 
L 1638 0 
L 1638 4134 
L -19 4134 
L -19 4666 
z
" transform="scale(0.015625)"/>
       <path id="DejaVuSans-61" d="M 2194 1759 
Q 1497 1759 1228 1600 
Q 959 1441 959 1056 
Q 959 750 1161 570 
Q 1363 391 1709 391 
Q 2188 391 2477 730 
Q 2766 1069 2766 1631 
L 2766 1759 
L 2194 1759 
z
M 3341 1997 
L 3341 0 
L 2766 0 
L 2766 531 
Q 2569 213 2275 61 
Q 1981 -91 1556 -91 
Q 1019 -91 701 211 
Q 384 513 384 1019 
Q 384 1609 779 1909 
Q 1175 2209 1959 2209 
L 2766 2209 
L 2766 2266 
Q 2766 2663 2505 2880 
Q 2244 3097 1772 3097 
Q 1472 3097 1187 3025 
Q 903 2953 641 2809 
L 641 3341 
Q 956 3463 1253 3523 
Q 1550 3584 1831 3584 
Q 2591 3584 2966 3190 
Q 3341 2797 3341 1997 
z
" transform="scale(0.015625)"/>
       <path id="DejaVuSans-67" d="M 2906 1791 
Q 2906 2416 2648 2759 
Q 2391 3103 1925 3103 
Q 1463 3103 1205 2759 
Q 947 2416 947 1791 
Q 947 1169 1205 825 
Q 1463 481 1925 481 
Q 2391 481 2648 825 
Q 2906 1169 2906 1791 
z
M 3481 434 
Q 3481 -459 3084 -895 
Q 2688 -1331 1869 -1331 
Q 1566 -1331 1297 -1286 
Q 1028 -1241 775 -1147 
L 775 -588 
Q 1028 -725 1275 -790 
Q 1522 -856 1778 -856 
Q 2344 -856 2625 -561 
Q 2906 -266 2906 331 
L 2906 616 
Q 2728 306 2450 153 
Q 2172 0 1784 0 
Q 1141 0 747 490 
Q 353 981 353 1791 
Q 353 2603 747 3093 
Q 1141 3584 1784 3584 
Q 2172 3584 2450 3431 
Q 2728 3278 2906 2969 
L 2906 3500 
L 3481 3500 
L 3481 434 
z
" transform="scale(0.015625)"/>
       <path id="DejaVuSans-45" d="M 628 4666 
L 3578 4666 
L 3578 4134 
L 1259 4134 
L 1259 2753 
L 3481 2753 
L 3481 2222 
L 1259 2222 
L 1259 531 
L 3634 531 
L 3634 0 
L 628 0 
L 628 4666 
z
" transform="scale(0.015625)"/>
       <path id="DejaVuSans-77" d="M 269 3500 
L 844 3500 
L 1563 769 
L 2278 3500 
L 2956 3500 
L 3675 769 
L 4391 3500 
L 4966 3500 
L 4050 0 
L 3372 0 
L 2619 2869 
L 1863 0 
L 1184 0 
L 269 3500 
z
" transform="scale(0.015625)"/>
       <path id="DejaVuSans-68" d="M 3513 2113 
L 3513 0 
L 2938 0 
L 2938 2094 
Q 2938 2591 2744 2837 
Q 2550 3084 2163 3084 
Q 1697 3084 1428 2787 
Q 1159 2491 1159 1978 
L 1159 0 
L 581 0 
L 581 4863 
L 1159 4863 
L 1159 2956 
Q 1366 3272 1645 3428 
Q 1925 3584 2291 3584 
Q 2894 3584 3203 3211 
Q 3513 2838 3513 2113 
z
" transform="scale(0.015625)"/>
      </defs>
      <use xlink:href="#DejaVuSans-49"/>
      <use xlink:href="#DejaVuSans-6e" x="29.492188"/>
      <use xlink:href="#DejaVuSans-7a" x="92.871094"/>
      <use xlink:href="#DejaVuSans-69" x="145.361328"/>
      <use xlink:href="#DejaVuSans-64" x="173.144531"/>
      <use xlink:href="#DejaVuSans-65" x="236.621094"/>
      <use xlink:href="#DejaVuSans-6e" x="298.144531"/>
      <use xlink:href="#DejaVuSans-7a" x="361.523438"/>
      <use xlink:href="#DejaVuSans-20" x="414.013672"/>
      <use xlink:href="#DejaVuSans-70" x="445.800781"/>
      <use xlink:href="#DejaVuSans-72" x="509.277344"/>
      <use xlink:href="#DejaVuSans-6f" x="548.140625"/>
      <use xlink:href="#DejaVuSans-20" x="609.322266"/>
      <use xlink:href="#DejaVuSans-37" x="641.109375"/>
      <use xlink:href="#DejaVuSans-20" x="704.732422"/>
      <use xlink:href="#DejaVuSans-54" x="736.519531"/>
      <use xlink:href="#DejaVuSans-61" x="781.103516"/>
      <use xlink:href="#DejaVuSans-67" x="842.382812"/>
      <use xlink:href="#DejaVuSans-65" x="905.859375"/>
      <use xlink:href="#DejaVuSans-20" x="967.382812"/>
      <use xlink:href="#DejaVuSans-70" x="999.169922"/>
      <use xlink:href="#DejaVuSans-72" x="1062.646484"/>
      <use xlink:href="#DejaVuSans-6f" x="1101.509766"/>
      <use xlink:href="#DejaVuSans-20" x="1162.691406"/>
      <use xlink:href="#DejaVuSans-31" x="1194.478516"/>
      <use xlink:href="#DejaVuSans-30" x="1258.101562"/>
      <use xlink:href="#DejaVuSans-30" x="1321.724609"/>
      <use xlink:href="#DejaVuSans-2e" x="1385.347656"/>
      <use xlink:href="#DejaVuSans-30" x="1417.134766"/>
      <use xlink:href="#DejaVuSans-30" x="1480.757812"/>
      <use xlink:href="#DejaVuSans-30" x="1544.380859"/>
      <use xlink:href="#DejaVuSans-20" x="1608.003906"/>
      <use xlink:href="#DejaVuSans-45" x="1639.791016"/>
      <use xlink:href="#DejaVuSans-69" x="1702.974609"/>
      <use xlink:href="#DejaVuSans-6e" x="1730.757812"/>
      <use xlink:href="#DejaVuSans-77" x="1794.136719"/>
      <use xlink:href="#DejaVuSans-6f" x="1875.923828"/>
      <use xlink:href="#DejaVuSans-68" x="1937.105469"/>
      <use xlink:href="#DejaVuSans-6e" x="2000.484375"/>
      <use xlink:href="#DejaVuSans-65" x="2063.863281"/>
      <use xlink:href="#DejaVuSans-72" x="2125.386719"/>
     </g>
    </g>
   </g>
   <g id="line2d_33">
    <path d="M 73.832727 265.797818 
L 78.537866 265.71813 
L 79.261733 265.638442 
L 79.623667 265.638442 
L 79.9856 265.160314 
L 80.347534 264.044681 
L 80.709468 263.725929 
L 81.071402 263.725929 
L 81.433335 263.407177 
L 81.795269 262.769673 
L 82.157203 261.893104 
L 82.519137 261.65404 
L 82.88107 262.689985 
L 83.243004 262.530609 
L 83.604938 261.813416 
L 83.966871 261.813416 
L 84.328805 261.494664 
L 84.690739 261.813416 
L 85.052673 261.972792 
L 85.414606 261.335288 
L 86.138474 262.610297 
L 86.500407 261.972792 
L 86.862341 262.132168 
L 87.224275 261.175912 
L 87.586209 261.335288 
L 87.948142 260.060279 
L 88.67201 259.661839 
L 89.033943 260.538408 
L 89.395877 261.096224 
L 89.757811 262.530609 
L 90.119745 261.813416 
L 90.481678 263.725929 
L 90.843612 263.566553 
L 91.567479 263.566553 
L 91.929413 262.530609 
L 92.291347 262.211856 
L 92.653281 263.247801 
L 93.015214 263.008737 
L 93.377148 263.008737 
L 93.739082 262.610297 
L 94.101016 262.689985 
L 94.462949 263.885305 
L 94.824883 264.124369 
L 95.186817 263.964993 
L 95.54875 264.044681 
L 95.910684 263.486865 
L 96.272618 264.124369 
L 96.634552 264.044681 
L 96.996485 264.124369 
L 97.358419 263.486865 
L 98.082286 263.725929 
L 98.44422 264.204057 
L 98.806154 264.044681 
L 99.168088 264.204057 
L 99.530021 264.204057 
L 99.891955 264.761874 
L 100.253889 264.602498 
L 100.615822 264.761874 
L 100.977756 265.080626 
L 101.33969 265.240002 
L 101.701624 265.240002 
L 102.063557 265.000938 
L 102.425491 264.52281 
L 102.787425 264.761874 
L 103.149358 264.682186 
L 103.873226 264.761874 
L 104.23516 264.761874 
L 104.597093 265.000938 
L 104.959027 265.71813 
L 107.130629 265.71813 
L 107.492563 265.558754 
L 107.854497 265.558754 
L 108.216431 265.399378 
L 109.664165 265.479066 
L 111.1119 265.71813 
L 130.656321 265.797818 
L 131.018255 265.558754 
L 131.380189 265.558754 
L 132.104056 265.160314 
L 132.827923 264.92125 
L 133.189857 264.92125 
L 133.551791 265.080626 
L 133.913725 265.080626 
L 134.275658 265.31969 
L 134.999526 265.399378 
L 136.447261 264.363433 
L 137.171128 264.363433 
L 137.894995 263.885305 
L 139.34273 264.443121 
L 139.704664 264.443121 
L 140.428531 265.000938 
L 140.790465 264.92125 
L 141.152399 264.363433 
L 141.514333 264.52281 
L 141.876266 264.363433 
L 142.2382 264.52281 
L 143.324001 264.52281 
L 143.685935 264.92125 
L 144.047869 264.841562 
L 144.409802 265.000938 
L 144.771736 264.92125 
L 146.219471 265.240002 
L 146.581405 265.000938 
L 147.305272 265.000938 
L 147.667206 264.841562 
L 148.753007 265.000938 
L 149.114941 265.31969 
L 150.562676 265.240002 
L 150.924609 264.761874 
L 151.286543 264.761874 
L 151.648477 264.52281 
L 152.734278 264.602498 
L 153.096212 264.682186 
L 153.458145 265.160314 
L 154.182013 263.407177 
L 154.543946 263.327489 
L 154.90588 263.088425 
L 155.267814 262.610297 
L 155.629748 261.893104 
L 155.991681 260.777472 
L 156.353615 261.335288 
L 156.715549 261.096224 
L 157.077483 260.618096 
L 157.439416 261.016536 
L 158.525217 259.661839 
L 158.887151 259.104023 
L 159.249085 257.58995 
L 159.611019 257.032134 
L 159.972952 256.075877 
L 160.334886 255.677437 
L 160.69682 254.721181 
L 161.058753 252.489915 
L 161.420687 251.932099 
L 161.782621 252.968044 
L 162.144555 253.52586 
L 162.506488 253.446172 
L 162.868422 252.968044 
L 163.230356 251.932099 
L 163.592289 254.402428 
L 163.954223 253.446172 
L 164.316157 253.446172 
L 165.040024 252.888356 
L 165.763892 255.039933 
L 166.125825 254.641493 
L 166.849693 255.757125 
L 167.57356 256.554005 
L 168.297428 255.199309 
L 168.659362 254.721181 
L 169.021295 255.119621 
L 169.383229 254.880557 
L 169.745163 254.880557 
L 170.107096 255.199309 
L 170.830964 254.960245 
L 171.192898 255.836813 
L 171.554831 254.960245 
L 172.640632 254.482116 
L 173.002566 253.207108 
L 173.3645 253.207108 
L 173.726434 251.294595 
L 174.450301 251.294595 
L 174.812235 250.975843 
L 175.174168 251.374283 
L 175.536102 250.736779 
L 175.898036 250.816467 
L 176.25997 251.214907 
L 176.983837 249.780522 
L 177.345771 250.178962 
L 177.707704 249.302394 
L 178.069638 249.382082 
L 178.431572 249.302394 
L 178.793506 249.700834 
L 179.155439 251.055531 
L 179.517373 251.693035 
L 179.879307 250.497714 
L 180.24124 250.657091 
L 180.603174 252.091475 
L 180.965108 250.975843 
L 181.327042 251.055531 
L 182.050909 252.968044 
L 182.774777 254.402428 
L 183.13671 253.844612 
L 183.498644 255.039933 
L 183.860578 255.199309 
L 184.584445 256.155565 
L 184.946379 255.039933 
L 185.308313 255.119621 
L 185.670246 254.800869 
L 186.03218 255.757125 
L 186.394114 255.916501 
L 186.756047 255.119621 
L 187.117981 253.12742 
L 187.479915 254.163364 
L 187.841849 253.605548 
L 188.203782 255.199309 
L 188.565716 254.641493 
L 188.92765 254.721181 
L 189.289583 254.32274 
L 189.651517 256.155565 
L 190.013451 257.271198 
L 190.375385 257.908702 
L 190.737318 257.430574 
L 191.099252 258.625895 
L 191.461186 259.343087 
L 191.823119 259.582151 
L 192.546987 258.944647 
L 192.908921 259.024335 
L 193.270854 258.944647 
L 193.632788 259.502463 
L 194.356656 261.335288 
L 194.718589 260.458719 
L 195.442457 260.618096 
L 195.80439 262.132168 
L 196.166324 262.45092 
L 196.890192 262.291544 
L 197.252125 263.805617 
L 197.614059 264.044681 
L 197.975993 264.044681 
L 198.337926 264.363433 
L 198.69986 264.124369 
L 199.423728 264.52281 
L 200.147595 264.443121 
L 200.509529 264.443121 
L 200.871462 264.204057 
L 201.233396 264.124369 
L 201.59533 263.805617 
L 201.957264 263.646241 
L 202.681131 263.566553 
L 203.043065 263.486865 
L 203.404998 263.566553 
L 204.128866 264.204057 
L 204.4908 264.283745 
L 204.852733 263.566553 
L 205.576601 263.725929 
L 205.938535 263.566553 
L 206.300468 263.646241 
L 206.662402 263.008737 
L 207.024336 262.849361 
L 207.386269 263.566553 
L 207.748203 263.486865 
L 208.834004 261.016536 
L 209.195938 261.096224 
L 209.557872 259.104023 
L 209.919805 258.227454 
L 210.281739 255.757125 
L 210.643673 256.075877 
L 211.005607 255.278997 
L 211.36754 254.880557 
L 211.729474 254.721181 
L 212.091408 255.358685 
L 212.453341 255.438373 
L 212.815275 257.271198 
L 213.177209 257.111822 
L 213.539143 257.19151 
L 213.901076 257.111822 
L 214.26301 255.757125 
L 214.624944 255.677437 
L 214.986877 254.083676 
L 215.348811 254.721181 
L 215.710745 255.119621 
L 216.434612 253.52586 
L 216.796546 254.163364 
L 217.15848 253.844612 
L 217.520413 255.278997 
L 217.882347 254.083676 
L 218.244281 252.250851 
L 218.606215 253.446172 
L 219.330082 253.286796 
L 219.692016 253.605548 
L 220.05395 252.968044 
L 220.415883 253.446172 
L 220.777817 254.880557 
L 221.139751 252.72898 
L 221.501684 253.366484 
L 221.863618 251.772723 
L 222.225552 250.896155 
L 222.587486 250.975843 
L 222.949419 251.294595 
L 223.311353 250.896155 
L 223.673287 250.975843 
L 224.03522 250.736779 
L 224.397154 251.613347 
L 224.759088 253.446172 
L 225.121022 252.569603 
L 225.482955 252.569603 
L 225.844889 252.808668 
L 226.206823 254.163364 
L 226.568756 254.482116 
L 226.93069 255.518061 
L 227.292624 255.278997 
L 227.654558 257.58995 
L 228.378425 257.350886 
L 228.740359 258.38683 
L 229.102292 258.625895 
L 229.464226 258.147766 
L 229.82616 258.546207 
L 230.188094 258.227454 
L 230.911961 259.263399 
L 231.273895 259.104023 
L 231.635829 259.502463 
L 231.997762 261.016536 
L 232.359696 260.458719 
L 232.72163 260.379031 
L 233.083563 260.139967 
L 234.169365 260.85716 
L 234.531298 260.777472 
L 235.255166 261.893104 
L 235.617099 261.574352 
L 235.979033 261.893104 
L 236.340967 262.769673 
L 236.702901 262.610297 
L 237.426768 263.088425 
L 237.788702 263.008737 
L 238.150635 263.566553 
L 238.512569 263.566553 
L 238.874503 263.327489 
L 239.236437 263.885305 
L 239.59837 263.885305 
L 239.960304 264.283745 
L 240.322238 263.885305 
L 241.046105 263.805617 
L 241.408039 264.044681 
L 241.769973 263.486865 
L 242.131906 263.646241 
L 242.49384 263.566553 
L 243.579641 263.885305 
L 243.941575 264.283745 
L 244.303509 264.92125 
L 244.665442 265.080626 
L 245.027376 265.080626 
L 245.38931 265.638442 
L 246.113177 265.479066 
L 246.475111 265.240002 
L 247.198978 265.240002 
L 247.922846 265.479066 
L 248.646713 265.399378 
L 251.180249 265.479066 
L 251.542183 265.71813 
L 253.713785 265.797818 
L 254.075719 265.080626 
L 254.437653 264.92125 
L 254.799587 264.92125 
L 255.16152 264.124369 
L 255.523454 263.805617 
L 256.247321 263.885305 
L 256.609255 264.044681 
L 257.333123 263.964993 
L 257.695056 264.761874 
L 258.05699 265.000938 
L 258.780857 264.841562 
L 259.142791 265.31969 
L 261.314393 265.399378 
L 261.676327 264.92125 
L 263.847929 264.52281 
L 264.209863 264.204057 
L 264.571797 264.124369 
L 265.295664 263.486865 
L 265.657598 263.008737 
L 266.019532 263.088425 
L 266.381465 263.008737 
L 267.105333 261.494664 
L 267.8292 260.85716 
L 268.553068 260.618096 
L 268.915002 260.299343 
L 269.276935 260.299343 
L 269.638869 259.104023 
L 270.000803 258.785271 
L 270.362736 258.227454 
L 271.086604 257.669638 
L 271.448538 257.829014 
L 271.810471 257.032134 
L 272.172405 258.227454 
L 272.534339 257.908702 
L 272.896272 258.227454 
L 273.258206 258.227454 
L 273.982074 258.625895 
L 274.344007 260.219655 
L 274.705941 259.821215 
L 275.067875 260.139967 
L 275.429808 259.821215 
L 275.791742 260.219655 
L 276.153676 260.379031 
L 276.51561 260.139967 
L 276.877543 260.379031 
L 277.239477 259.980591 
L 277.601411 259.980591 
L 277.963344 260.139967 
L 278.325278 259.582151 
L 278.687212 259.582151 
L 279.049146 259.821215 
L 279.411079 258.227454 
L 279.773013 258.864959 
L 280.134947 259.024335 
L 280.496881 258.625895 
L 280.858814 258.785271 
L 281.582682 258.625895 
L 282.306549 258.068078 
L 282.668483 258.38683 
L 283.030417 259.183711 
L 283.39235 259.502463 
L 284.116218 259.582151 
L 284.478151 261.096224 
L 284.840085 261.414976 
L 285.202019 260.299343 
L 286.28782 260.299343 
L 286.649754 259.900903 
L 287.011687 258.944647 
L 287.373621 259.104023 
L 287.735555 260.139967 
L 288.459422 258.546207 
L 288.821356 258.147766 
L 289.18329 258.147766 
L 289.545223 257.908702 
L 290.269091 256.075877 
L 290.631025 256.075877 
L 290.992958 255.757125 
L 291.354892 255.119621 
L 291.716826 255.039933 
L 292.07876 254.32274 
L 292.440693 254.003988 
L 293.164561 251.533659 
L 293.888428 250.896155 
L 294.250362 250.25865 
L 294.612296 250.896155 
L 294.974229 249.86021 
L 295.336163 248.266449 
L 296.06003 242.369534 
L 296.421964 241.73203 
L 296.783898 242.369534 
L 297.145832 232.567905 
L 297.507765 227.866311 
L 297.869699 226.591302 
L 299.679368 213.2834 
L 300.403235 203.800523 
L 301.127102 200.931753 
L 301.489036 202.525514 
L 301.85097 204.995843 
L 302.212904 202.127074 
L 302.574837 202.047386 
L 303.298705 205.234907 
L 303.660638 204.119275 
L 304.022572 205.314596 
L 304.384506 205.633348 
L 304.74644 210.574006 
L 306.194175 222.527212 
L 306.556108 220.774075 
L 306.918042 221.092828 
L 307.279976 222.766276 
L 307.641909 225.635046 
L 308.727711 226.910054 
L 309.089644 228.264751 
L 309.451578 228.344439 
L 309.813512 232.408529 
L 310.537379 236.233555 
L 310.899313 237.428876 
L 311.62318 239.022637 
L 311.985114 238.942949 
L 312.347048 238.46482 
L 313.070915 241.73203 
L 313.432849 243.166415 
L 313.794783 247.469569 
L 314.156716 247.150817 
L 314.51865 248.346137 
L 314.880584 253.286796 
L 315.966385 256.314941 
L 316.328319 255.278997 
L 316.690252 254.880557 
L 317.052186 254.083676 
L 317.41412 249.86021 
L 318.137987 245.875808 
L 318.499921 245.79612 
L 318.861855 243.644543 
L 319.223788 244.839864 
L 319.585722 243.007039 
L 319.947656 243.007039 
L 320.30959 237.349188 
L 320.671523 233.524162 
L 321.033457 231.930401 
L 322.481192 208.502117 
L 324.29086 159.892412 
L 324.652794 159.812724 
L 325.376662 151.923608 
L 325.738595 150.887664 
L 326.100529 131.443782 
L 326.462463 128.973453 
L 326.824396 121.004649 
L 327.18633 118.773384 
L 327.910198 86.738791 
L 328.272131 71.279312 
L 328.634065 75.42309 
L 328.995999 68.171478 
L 329.357933 77.973107 
L 329.719866 77.574667 
L 330.0818 76.140282 
L 330.443734 70.960559 
L 330.805667 71.438688 
L 331.167601 64.187076 
L 331.529535 64.266764 
L 331.891469 66.577717 
L 332.615336 61.15893 
L 332.97727 64.266764 
L 333.339203 63.230819 
L 333.701137 74.148081 
L 334.063071 74.626209 
L 334.425005 73.669953 
L 334.786938 74.068393 
L 335.148872 79.88562 
L 335.510806 81.638757 
L 336.234673 111.920212 
L 336.596607 125.228115 
L 336.958541 103.393592 
L 337.320474 103.393592 
L 337.682408 104.509224 
L 338.044342 118.534319 
L 338.406275 105.306105 
L 338.768209 97.098237 
L 339.130143 74.626209 
L 339.492077 97.735741 
L 339.85401 94.070091 
L 340.215944 85.463783 
L 340.939811 62.912067 
L 341.301745 55.182327 
L 341.663679 58.608913 
L 342.025613 59.246417 
L 342.387546 52.154182 
L 343.111414 76.459034 
L 343.473348 78.451235 
L 343.835281 67.374598 
L 344.197215 85.145031 
L 344.559149 96.381044 
L 344.921082 98.293557 
L 345.283016 98.373245 
L 345.64495 67.533974 
L 346.006884 76.379346 
L 346.368817 91.440386 
L 347.092685 77.574667 
L 347.454618 82.355949 
L 347.816552 79.327804 
L 348.178486 117.179623 
L 350.712022 161.247109 
L 351.073956 169.136225 
L 351.435889 180.611303 
L 351.797823 183.400384 
L 352.159757 178.459726 
L 352.883624 192.086381 
L 353.245558 191.927005 
L 353.607492 194.237958 
L 353.969425 192.166069 
L 354.331359 194.237958 
L 354.693293 197.266103 
L 355.055227 201.330193 
L 355.41716 198.142672 
L 355.779094 196.150471 
L 356.141028 197.266103 
L 356.502961 192.723885 
L 356.864895 200.214561 
L 357.226829 200.613001 
L 357.588763 195.592655 
L 357.950696 207.625549 
L 358.31263 210.175566 
L 358.674564 210.972446 
L 359.036497 220.136571 
L 359.398431 217.74593 
L 359.760365 217.825618 
L 360.122299 216.311545 
L 360.484232 214.319344 
L 360.846166 216.550609 
L 361.2081 216.709985 
L 361.570033 215.674041 
L 361.931967 216.550609 
L 362.293901 222.288148 
L 363.017768 213.920904 
L 363.379702 214.717784 
L 363.741636 219.100626 
L 364.103569 218.14437 
L 364.465503 219.738131 
L 364.827437 214.638096 
L 365.913238 233.683538 
L 366.637106 239.261701 
L 366.999039 239.022637 
L 367.360973 241.652342 
L 367.722907 243.325791 
L 368.08484 246.832065 
L 368.446774 248.027385 
L 368.808708 250.736779 
L 369.170642 249.541458 
L 369.894509 255.278997 
L 370.618376 250.25865 
L 370.98031 249.780522 
L 371.704178 240.855462 
L 372.066111 240.855462 
L 372.428045 234.79917 
L 372.789979 240.058581 
L 373.151912 240.297645 
L 373.513846 238.863261 
L 373.87578 236.950748 
L 374.237714 243.086727 
L 374.599647 243.086727 
L 374.961581 249.143018 
L 375.323515 235.277299 
L 375.685448 235.994491 
L 376.047382 235.277299 
L 376.409316 241.811718 
L 376.77125 234.081978 
L 377.495117 234.081978 
L 377.857051 234.40073 
L 378.218984 230.575704 
L 378.580918 229.9382 
L 378.942852 225.236606 
L 379.304786 230.73508 
L 380.028653 230.73508 
L 380.390587 231.372585 
L 380.752521 227.706935 
L 381.476388 223.00534 
L 382.200255 223.085029 
L 382.562189 223.085029 
L 382.924123 219.180315 
L 383.286057 218.463122 
L 383.64799 217.108425 
L 384.009924 208.581805 
L 384.371858 203.561459 
L 385.095725 203.561459 
L 385.457659 195.512967 
L 386.181526 187.623851 
L 386.54346 189.058235 
L 386.905394 187.862915 
L 387.629261 187.783227 
L 387.991195 189.137923 
L 388.353129 191.608253 
L 388.715062 185.950402 
L 389.076996 189.058235 
L 389.43893 193.361389 
L 390.162797 193.441077 
L 390.524731 192.405133 
L 390.886665 189.934804 
L 391.248598 199.656745 
L 391.610532 203.481771 
L 391.972466 204.756779 
L 392.696333 204.756779 
L 393.782134 223.722533 
L 394.144068 226.352238 
L 394.867936 226.431926 
L 395.229869 226.431926 
L 395.591803 235.117923 
L 395.953737 239.182013 
L 396.677604 243.325791 
L 397.039538 245.557056 
L 397.401472 245.39768 
L 397.763405 242.210158 
L 398.125339 251.135219 
L 398.487273 252.330539 
L 398.487273 252.330539 
" clip-path="url(#pfef4d1ac65)" style="fill: none; stroke: #1f77b4; stroke-width: 1.5; stroke-linecap: square"/>
   </g>
   <g id="patch_3">
    <path d="M 57.6 276.48 
L 57.6 41.472 
" style="fill: none; stroke: #000000; stroke-width: 0.8; stroke-linejoin: miter; stroke-linecap: square"/>
   </g>
   <g id="patch_4">
    <path d="M 414.72 276.48 
L 414.72 41.472 
" style="fill: none; stroke: #000000; stroke-width: 0.8; stroke-linejoin: miter; stroke-linecap: square"/>
   </g>
   <g id="patch_5">
    <path d="M 57.6 276.48 
L 414.72 276.48 
" style="fill: none; stroke: #000000; stroke-width: 0.8; stroke-linejoin: miter; stroke-linecap: square"/>
   </g>
   <g id="patch_6">
    <path d="M 57.6 41.472 
L 414.72 41.472 
" style="fill: none; stroke: #000000; stroke-width: 0.8; stroke-linejoin: miter; stroke-linecap: square"/>
   </g>
  </g>
  <g id="text_18">
   <!-- Inzidenzverlauf LK Neuburg-Schrobenhausen -->
   <g transform="translate(27.975938 20.589187)scale(0.18 -0.18)">
    <defs>
     <path id="DejaVuSans-76" d="M 191 3500 
L 800 3500 
L 1894 563 
L 2988 3500 
L 3597 3500 
L 2284 0 
L 1503 0 
L 191 3500 
z
" transform="scale(0.015625)"/>
     <path id="DejaVuSans-6c" d="M 603 4863 
L 1178 4863 
L 1178 0 
L 603 0 
L 603 4863 
z
" transform="scale(0.015625)"/>
     <path id="DejaVuSans-75" d="M 544 1381 
L 544 3500 
L 1119 3500 
L 1119 1403 
Q 1119 906 1312 657 
Q 1506 409 1894 409 
Q 2359 409 2629 706 
Q 2900 1003 2900 1516 
L 2900 3500 
L 3475 3500 
L 3475 0 
L 2900 0 
L 2900 538 
Q 2691 219 2414 64 
Q 2138 -91 1772 -91 
Q 1169 -91 856 284 
Q 544 659 544 1381 
z
M 1991 3584 
L 1991 3584 
z
" transform="scale(0.015625)"/>
     <path id="DejaVuSans-66" d="M 2375 4863 
L 2375 4384 
L 1825 4384 
Q 1516 4384 1395 4259 
Q 1275 4134 1275 3809 
L 1275 3500 
L 2222 3500 
L 2222 3053 
L 1275 3053 
L 1275 0 
L 697 0 
L 697 3053 
L 147 3053 
L 147 3500 
L 697 3500 
L 697 3744 
Q 697 4328 969 4595 
Q 1241 4863 1831 4863 
L 2375 4863 
z
" transform="scale(0.015625)"/>
     <path id="DejaVuSans-4c" d="M 628 4666 
L 1259 4666 
L 1259 531 
L 3531 531 
L 3531 0 
L 628 0 
L 628 4666 
z
" transform="scale(0.015625)"/>
     <path id="DejaVuSans-4b" d="M 628 4666 
L 1259 4666 
L 1259 2694 
L 3353 4666 
L 4166 4666 
L 1850 2491 
L 4331 0 
L 3500 0 
L 1259 2247 
L 1259 0 
L 628 0 
L 628 4666 
z
" transform="scale(0.015625)"/>
     <path id="DejaVuSans-4e" d="M 628 4666 
L 1478 4666 
L 3547 763 
L 3547 4666 
L 4159 4666 
L 4159 0 
L 3309 0 
L 1241 3903 
L 1241 0 
L 628 0 
L 628 4666 
z
" transform="scale(0.015625)"/>
     <path id="DejaVuSans-62" d="M 3116 1747 
Q 3116 2381 2855 2742 
Q 2594 3103 2138 3103 
Q 1681 3103 1420 2742 
Q 1159 2381 1159 1747 
Q 1159 1113 1420 752 
Q 1681 391 2138 391 
Q 2594 391 2855 752 
Q 3116 1113 3116 1747 
z
M 1159 2969 
Q 1341 3281 1617 3432 
Q 1894 3584 2278 3584 
Q 2916 3584 3314 3078 
Q 3713 2572 3713 1747 
Q 3713 922 3314 415 
Q 2916 -91 2278 -91 
Q 1894 -91 1617 61 
Q 1341 213 1159 525 
L 1159 0 
L 581 0 
L 581 4863 
L 1159 4863 
L 1159 2969 
z
" transform="scale(0.015625)"/>
     <path id="DejaVuSans-2d" d="M 313 2009 
L 1997 2009 
L 1997 1497 
L 313 1497 
L 313 2009 
z
" transform="scale(0.015625)"/>
     <path id="DejaVuSans-53" d="M 3425 4513 
L 3425 3897 
Q 3066 4069 2747 4153 
Q 2428 4238 2131 4238 
Q 1616 4238 1336 4038 
Q 1056 3838 1056 3469 
Q 1056 3159 1242 3001 
Q 1428 2844 1947 2747 
L 2328 2669 
Q 3034 2534 3370 2195 
Q 3706 1856 3706 1288 
Q 3706 609 3251 259 
Q 2797 -91 1919 -91 
Q 1588 -91 1214 -16 
Q 841 59 441 206 
L 441 856 
Q 825 641 1194 531 
Q 1563 422 1919 422 
Q 2459 422 2753 634 
Q 3047 847 3047 1241 
Q 3047 1584 2836 1778 
Q 2625 1972 2144 2069 
L 1759 2144 
Q 1053 2284 737 2584 
Q 422 2884 422 3419 
Q 422 4038 858 4394 
Q 1294 4750 2059 4750 
Q 2388 4750 2728 4690 
Q 3069 4631 3425 4513 
z
" transform="scale(0.015625)"/>
     <path id="DejaVuSans-63" d="M 3122 3366 
L 3122 2828 
Q 2878 2963 2633 3030 
Q 2388 3097 2138 3097 
Q 1578 3097 1268 2742 
Q 959 2388 959 1747 
Q 959 1106 1268 751 
Q 1578 397 2138 397 
Q 2388 397 2633 464 
Q 2878 531 3122 666 
L 3122 134 
Q 2881 22 2623 -34 
Q 2366 -91 2075 -91 
Q 1284 -91 818 406 
Q 353 903 353 1747 
Q 353 2603 823 3093 
Q 1294 3584 2113 3584 
Q 2378 3584 2631 3529 
Q 2884 3475 3122 3366 
z
" transform="scale(0.015625)"/>
     <path id="DejaVuSans-73" d="M 2834 3397 
L 2834 2853 
Q 2591 2978 2328 3040 
Q 2066 3103 1784 3103 
Q 1356 3103 1142 2972 
Q 928 2841 928 2578 
Q 928 2378 1081 2264 
Q 1234 2150 1697 2047 
L 1894 2003 
Q 2506 1872 2764 1633 
Q 3022 1394 3022 966 
Q 3022 478 2636 193 
Q 2250 -91 1575 -91 
Q 1294 -91 989 -36 
Q 684 19 347 128 
L 347 722 
Q 666 556 975 473 
Q 1284 391 1588 391 
Q 1994 391 2212 530 
Q 2431 669 2431 922 
Q 2431 1156 2273 1281 
Q 2116 1406 1581 1522 
L 1381 1569 
Q 847 1681 609 1914 
Q 372 2147 372 2553 
Q 372 3047 722 3315 
Q 1072 3584 1716 3584 
Q 2034 3584 2315 3537 
Q 2597 3491 2834 3397 
z
" transform="scale(0.015625)"/>
    </defs>
    <use xlink:href="#DejaVuSans-49"/>
    <use xlink:href="#DejaVuSans-6e" x="29.492188"/>
    <use xlink:href="#DejaVuSans-7a" x="92.871094"/>
    <use xlink:href="#DejaVuSans-69" x="145.361328"/>
    <use xlink:href="#DejaVuSans-64" x="173.144531"/>
    <use xlink:href="#DejaVuSans-65" x="236.621094"/>
    <use xlink:href="#DejaVuSans-6e" x="298.144531"/>
    <use xlink:href="#DejaVuSans-7a" x="361.523438"/>
    <use xlink:href="#DejaVuSans-76" x="414.013672"/>
    <use xlink:href="#DejaVuSans-65" x="473.193359"/>
    <use xlink:href="#DejaVuSans-72" x="534.716797"/>
    <use xlink:href="#DejaVuSans-6c" x="575.830078"/>
    <use xlink:href="#DejaVuSans-61" x="603.613281"/>
    <use xlink:href="#DejaVuSans-75" x="664.892578"/>
    <use xlink:href="#DejaVuSans-66" x="728.271484"/>
    <use xlink:href="#DejaVuSans-20" x="763.476562"/>
    <use xlink:href="#DejaVuSans-4c" x="795.263672"/>
    <use xlink:href="#DejaVuSans-4b" x="850.976562"/>
    <use xlink:href="#DejaVuSans-20" x="916.552734"/>
    <use xlink:href="#DejaVuSans-4e" x="948.339844"/>
    <use xlink:href="#DejaVuSans-65" x="1023.144531"/>
    <use xlink:href="#DejaVuSans-75" x="1084.667969"/>
    <use xlink:href="#DejaVuSans-62" x="1148.046875"/>
    <use xlink:href="#DejaVuSans-75" x="1211.523438"/>
    <use xlink:href="#DejaVuSans-72" x="1274.902344"/>
    <use xlink:href="#DejaVuSans-67" x="1314.265625"/>
    <use xlink:href="#DejaVuSans-2d" x="1377.742188"/>
    <use xlink:href="#DejaVuSans-53" x="1413.826172"/>
    <use xlink:href="#DejaVuSans-63" x="1477.302734"/>
    <use xlink:href="#DejaVuSans-68" x="1532.283203"/>
    <use xlink:href="#DejaVuSans-72" x="1595.662109"/>
    <use xlink:href="#DejaVuSans-6f" x="1634.525391"/>
    <use xlink:href="#DejaVuSans-62" x="1695.707031"/>
    <use xlink:href="#DejaVuSans-65" x="1759.183594"/>
    <use xlink:href="#DejaVuSans-6e" x="1820.707031"/>
    <use xlink:href="#DejaVuSans-68" x="1884.085938"/>
    <use xlink:href="#DejaVuSans-61" x="1947.464844"/>
    <use xlink:href="#DejaVuSans-75" x="2008.744141"/>
    <use xlink:href="#DejaVuSans-73" x="2072.123047"/>
    <use xlink:href="#DejaVuSans-65" x="2124.222656"/>
    <use xlink:href="#DejaVuSans-6e" x="2185.746094"/>
   </g>
  </g>
 </g>
 <defs>
  <clipPath id="pfef4d1ac65">
   <rect x="57.6" y="41.472" width="357.12" height="235.008"/>
  </clipPath>
 </defs>
</svg>
