<?xml version="1.0" encoding="utf-8" standalone="no"?>
<!DOCTYPE svg PUBLIC "-//W3C//DTD SVG 1.1//EN"
  "http://www.w3.org/Graphics/SVG/1.1/DTD/svg11.dtd">
<svg xmlns:xlink="http://www.w3.org/1999/xlink" width="460.8pt" height="345.6pt" viewBox="0 0 460.8 345.6" xmlns="http://www.w3.org/2000/svg" version="1.1">
 <metadata>
  <rdf:RDF xmlns:dc="http://purl.org/dc/elements/1.1/" xmlns:cc="http://creativecommons.org/ns#" xmlns:rdf="http://www.w3.org/1999/02/22-rdf-syntax-ns#">
   <cc:Work>
    <dc:type rdf:resource="http://purl.org/dc/dcmitype/StillImage"/>
    <dc:date>2022-12-28T09:18:22.506437</dc:date>
    <dc:format>image/svg+xml</dc:format>
    <dc:creator>
     <cc:Agent>
      <dc:title>Matplotlib v3.6.2, https://matplotlib.org/</dc:title>
     </cc:Agent>
    </dc:creator>
   </cc:Work>
  </rdf:RDF>
 </metadata>
 <defs>
  <style type="text/css">*{stroke-linejoin: round; stroke-linecap: butt}</style>
 </defs>
 <g id="figure_1">
  <g id="patch_1">
   <path d="M 0 345.6 
L 460.8 345.6 
L 460.8 0 
L 0 0 
z
" style="fill: #ffffff"/>
  </g>
  <g id="axes_1">
   <g id="patch_2">
    <path d="M 57.6 276.48 
L 414.72 276.48 
L 414.72 41.472 
L 57.6 41.472 
z
" style="fill: #ffffff"/>
   </g>
   <g id="matplotlib.axis_1">
    <g id="xtick_1">
     <g id="line2d_1">
      <path d="M 60.055922 276.48 
L 60.055922 41.472 
" clip-path="url(#pbcd1de2200)" style="fill: none; stroke-dasharray: 2.96,1.28; stroke-dashoffset: 0; stroke: #808080; stroke-width: 0.8"/>
     </g>
     <g id="line2d_2">
      <defs>
       <path id="m16e23d5fa4" d="M 0 0 
L 0 3.5 
" style="stroke: #000000; stroke-width: 0.8"/>
      </defs>
      <g>
       <use xlink:href="#m16e23d5fa4" x="60.055922" y="276.48" style="stroke: #000000; stroke-width: 0.8"/>
      </g>
     </g>
     <g id="text_1">
      <!-- 19.01.2020 -->
      <g transform="translate(9.430712 318.688565) rotate(-30) scale(0.1 -0.1)">
       <defs>
        <path id="DejaVuSans-31" d="M 794 531 
L 1825 531 
L 1825 4091 
L 703 3866 
L 703 4441 
L 1819 4666 
L 2450 4666 
L 2450 531 
L 3481 531 
L 3481 0 
L 794 0 
L 794 531 
z
" transform="scale(0.015625)"/>
        <path id="DejaVuSans-39" d="M 703 97 
L 703 672 
Q 941 559 1184 500 
Q 1428 441 1663 441 
Q 2288 441 2617 861 
Q 2947 1281 2994 2138 
Q 2813 1869 2534 1725 
Q 2256 1581 1919 1581 
Q 1219 1581 811 2004 
Q 403 2428 403 3163 
Q 403 3881 828 4315 
Q 1253 4750 1959 4750 
Q 2769 4750 3195 4129 
Q 3622 3509 3622 2328 
Q 3622 1225 3098 567 
Q 2575 -91 1691 -91 
Q 1453 -91 1209 -44 
Q 966 3 703 97 
z
M 1959 2075 
Q 2384 2075 2632 2365 
Q 2881 2656 2881 3163 
Q 2881 3666 2632 3958 
Q 2384 4250 1959 4250 
Q 1534 4250 1286 3958 
Q 1038 3666 1038 3163 
Q 1038 2656 1286 2365 
Q 1534 2075 1959 2075 
z
" transform="scale(0.015625)"/>
        <path id="DejaVuSans-2e" d="M 684 794 
L 1344 794 
L 1344 0 
L 684 0 
L 684 794 
z
" transform="scale(0.015625)"/>
        <path id="DejaVuSans-30" d="M 2034 4250 
Q 1547 4250 1301 3770 
Q 1056 3291 1056 2328 
Q 1056 1369 1301 889 
Q 1547 409 2034 409 
Q 2525 409 2770 889 
Q 3016 1369 3016 2328 
Q 3016 3291 2770 3770 
Q 2525 4250 2034 4250 
z
M 2034 4750 
Q 2819 4750 3233 4129 
Q 3647 3509 3647 2328 
Q 3647 1150 3233 529 
Q 2819 -91 2034 -91 
Q 1250 -91 836 529 
Q 422 1150 422 2328 
Q 422 3509 836 4129 
Q 1250 4750 2034 4750 
z
" transform="scale(0.015625)"/>
        <path id="DejaVuSans-32" d="M 1228 531 
L 3431 531 
L 3431 0 
L 469 0 
L 469 531 
Q 828 903 1448 1529 
Q 2069 2156 2228 2338 
Q 2531 2678 2651 2914 
Q 2772 3150 2772 3378 
Q 2772 3750 2511 3984 
Q 2250 4219 1831 4219 
Q 1534 4219 1204 4116 
Q 875 4013 500 3803 
L 500 4441 
Q 881 4594 1212 4672 
Q 1544 4750 1819 4750 
Q 2544 4750 2975 4387 
Q 3406 4025 3406 3419 
Q 3406 3131 3298 2873 
Q 3191 2616 2906 2266 
Q 2828 2175 2409 1742 
Q 1991 1309 1228 531 
z
" transform="scale(0.015625)"/>
       </defs>
       <use xlink:href="#DejaVuSans-31"/>
       <use xlink:href="#DejaVuSans-39" x="63.623047"/>
       <use xlink:href="#DejaVuSans-2e" x="127.246094"/>
       <use xlink:href="#DejaVuSans-30" x="159.033203"/>
       <use xlink:href="#DejaVuSans-31" x="222.65625"/>
       <use xlink:href="#DejaVuSans-2e" x="286.279297"/>
       <use xlink:href="#DejaVuSans-32" x="318.066406"/>
       <use xlink:href="#DejaVuSans-30" x="381.689453"/>
       <use xlink:href="#DejaVuSans-32" x="445.3125"/>
       <use xlink:href="#DejaVuSans-30" x="508.935547"/>
      </g>
     </g>
    </g>
    <g id="xtick_2">
     <g id="line2d_3">
      <path d="M 95.988561 276.48 
L 95.988561 41.472 
" clip-path="url(#pbcd1de2200)" style="fill: none; stroke-dasharray: 2.96,1.28; stroke-dashoffset: 0; stroke: #808080; stroke-width: 0.8"/>
     </g>
     <g id="line2d_4">
      <g>
       <use xlink:href="#m16e23d5fa4" x="95.988561" y="276.48" style="stroke: #000000; stroke-width: 0.8"/>
      </g>
     </g>
     <g id="text_2">
      <!-- 12.05.2020 -->
      <g transform="translate(45.363351 318.688565) rotate(-30) scale(0.1 -0.1)">
       <defs>
        <path id="DejaVuSans-35" d="M 691 4666 
L 3169 4666 
L 3169 4134 
L 1269 4134 
L 1269 2991 
Q 1406 3038 1543 3061 
Q 1681 3084 1819 3084 
Q 2600 3084 3056 2656 
Q 3513 2228 3513 1497 
Q 3513 744 3044 326 
Q 2575 -91 1722 -91 
Q 1428 -91 1123 -41 
Q 819 9 494 109 
L 494 744 
Q 775 591 1075 516 
Q 1375 441 1709 441 
Q 2250 441 2565 725 
Q 2881 1009 2881 1497 
Q 2881 1984 2565 2268 
Q 2250 2553 1709 2553 
Q 1456 2553 1204 2497 
Q 953 2441 691 2322 
L 691 4666 
z
" transform="scale(0.015625)"/>
       </defs>
       <use xlink:href="#DejaVuSans-31"/>
       <use xlink:href="#DejaVuSans-32" x="63.623047"/>
       <use xlink:href="#DejaVuSans-2e" x="127.246094"/>
       <use xlink:href="#DejaVuSans-30" x="159.033203"/>
       <use xlink:href="#DejaVuSans-35" x="222.65625"/>
       <use xlink:href="#DejaVuSans-2e" x="286.279297"/>
       <use xlink:href="#DejaVuSans-32" x="318.066406"/>
       <use xlink:href="#DejaVuSans-30" x="381.689453"/>
       <use xlink:href="#DejaVuSans-32" x="445.3125"/>
       <use xlink:href="#DejaVuSans-30" x="508.935547"/>
      </g>
     </g>
    </g>
    <g id="xtick_3">
     <g id="line2d_5">
      <path d="M 131.9212 276.48 
L 131.9212 41.472 
" clip-path="url(#pbcd1de2200)" style="fill: none; stroke-dasharray: 2.96,1.28; stroke-dashoffset: 0; stroke: #808080; stroke-width: 0.8"/>
     </g>
     <g id="line2d_6">
      <g>
       <use xlink:href="#m16e23d5fa4" x="131.9212" y="276.48" style="stroke: #000000; stroke-width: 0.8"/>
      </g>
     </g>
     <g id="text_3">
      <!-- 03.09.2020 -->
      <g transform="translate(81.29599 318.688565) rotate(-30) scale(0.1 -0.1)">
       <defs>
        <path id="DejaVuSans-33" d="M 2597 2516 
Q 3050 2419 3304 2112 
Q 3559 1806 3559 1356 
Q 3559 666 3084 287 
Q 2609 -91 1734 -91 
Q 1441 -91 1130 -33 
Q 819 25 488 141 
L 488 750 
Q 750 597 1062 519 
Q 1375 441 1716 441 
Q 2309 441 2620 675 
Q 2931 909 2931 1356 
Q 2931 1769 2642 2001 
Q 2353 2234 1838 2234 
L 1294 2234 
L 1294 2753 
L 1863 2753 
Q 2328 2753 2575 2939 
Q 2822 3125 2822 3475 
Q 2822 3834 2567 4026 
Q 2313 4219 1838 4219 
Q 1578 4219 1281 4162 
Q 984 4106 628 3988 
L 628 4550 
Q 988 4650 1302 4700 
Q 1616 4750 1894 4750 
Q 2613 4750 3031 4423 
Q 3450 4097 3450 3541 
Q 3450 3153 3228 2886 
Q 3006 2619 2597 2516 
z
" transform="scale(0.015625)"/>
       </defs>
       <use xlink:href="#DejaVuSans-30"/>
       <use xlink:href="#DejaVuSans-33" x="63.623047"/>
       <use xlink:href="#DejaVuSans-2e" x="127.246094"/>
       <use xlink:href="#DejaVuSans-30" x="159.033203"/>
       <use xlink:href="#DejaVuSans-39" x="222.65625"/>
       <use xlink:href="#DejaVuSans-2e" x="286.279297"/>
       <use xlink:href="#DejaVuSans-32" x="318.066406"/>
       <use xlink:href="#DejaVuSans-30" x="381.689453"/>
       <use xlink:href="#DejaVuSans-32" x="445.3125"/>
       <use xlink:href="#DejaVuSans-30" x="508.935547"/>
      </g>
     </g>
    </g>
    <g id="xtick_4">
     <g id="line2d_7">
      <path d="M 167.853839 276.48 
L 167.853839 41.472 
" clip-path="url(#pbcd1de2200)" style="fill: none; stroke-dasharray: 2.96,1.28; stroke-dashoffset: 0; stroke: #808080; stroke-width: 0.8"/>
     </g>
     <g id="line2d_8">
      <g>
       <use xlink:href="#m16e23d5fa4" x="167.853839" y="276.48" style="stroke: #000000; stroke-width: 0.8"/>
      </g>
     </g>
     <g id="text_4">
      <!-- 26.12.2020 -->
      <g transform="translate(117.228629 318.688565) rotate(-30) scale(0.1 -0.1)">
       <defs>
        <path id="DejaVuSans-36" d="M 2113 2584 
Q 1688 2584 1439 2293 
Q 1191 2003 1191 1497 
Q 1191 994 1439 701 
Q 1688 409 2113 409 
Q 2538 409 2786 701 
Q 3034 994 3034 1497 
Q 3034 2003 2786 2293 
Q 2538 2584 2113 2584 
z
M 3366 4563 
L 3366 3988 
Q 3128 4100 2886 4159 
Q 2644 4219 2406 4219 
Q 1781 4219 1451 3797 
Q 1122 3375 1075 2522 
Q 1259 2794 1537 2939 
Q 1816 3084 2150 3084 
Q 2853 3084 3261 2657 
Q 3669 2231 3669 1497 
Q 3669 778 3244 343 
Q 2819 -91 2113 -91 
Q 1303 -91 875 529 
Q 447 1150 447 2328 
Q 447 3434 972 4092 
Q 1497 4750 2381 4750 
Q 2619 4750 2861 4703 
Q 3103 4656 3366 4563 
z
" transform="scale(0.015625)"/>
       </defs>
       <use xlink:href="#DejaVuSans-32"/>
       <use xlink:href="#DejaVuSans-36" x="63.623047"/>
       <use xlink:href="#DejaVuSans-2e" x="127.246094"/>
       <use xlink:href="#DejaVuSans-31" x="159.033203"/>
       <use xlink:href="#DejaVuSans-32" x="222.65625"/>
       <use xlink:href="#DejaVuSans-2e" x="286.279297"/>
       <use xlink:href="#DejaVuSans-32" x="318.066406"/>
       <use xlink:href="#DejaVuSans-30" x="381.689453"/>
       <use xlink:href="#DejaVuSans-32" x="445.3125"/>
       <use xlink:href="#DejaVuSans-30" x="508.935547"/>
      </g>
     </g>
    </g>
    <g id="xtick_5">
     <g id="line2d_9">
      <path d="M 203.786478 276.48 
L 203.786478 41.472 
" clip-path="url(#pbcd1de2200)" style="fill: none; stroke-dasharray: 2.96,1.28; stroke-dashoffset: 0; stroke: #808080; stroke-width: 0.8"/>
     </g>
     <g id="line2d_10">
      <g>
       <use xlink:href="#m16e23d5fa4" x="203.786478" y="276.48" style="stroke: #000000; stroke-width: 0.8"/>
      </g>
     </g>
     <g id="text_5">
      <!-- 19.04.2021 -->
      <g transform="translate(153.161268 318.688565) rotate(-30) scale(0.1 -0.1)">
       <defs>
        <path id="DejaVuSans-34" d="M 2419 4116 
L 825 1625 
L 2419 1625 
L 2419 4116 
z
M 2253 4666 
L 3047 4666 
L 3047 1625 
L 3713 1625 
L 3713 1100 
L 3047 1100 
L 3047 0 
L 2419 0 
L 2419 1100 
L 313 1100 
L 313 1709 
L 2253 4666 
z
" transform="scale(0.015625)"/>
       </defs>
       <use xlink:href="#DejaVuSans-31"/>
       <use xlink:href="#DejaVuSans-39" x="63.623047"/>
       <use xlink:href="#DejaVuSans-2e" x="127.246094"/>
       <use xlink:href="#DejaVuSans-30" x="159.033203"/>
       <use xlink:href="#DejaVuSans-34" x="222.65625"/>
       <use xlink:href="#DejaVuSans-2e" x="286.279297"/>
       <use xlink:href="#DejaVuSans-32" x="318.066406"/>
       <use xlink:href="#DejaVuSans-30" x="381.689453"/>
       <use xlink:href="#DejaVuSans-32" x="445.3125"/>
       <use xlink:href="#DejaVuSans-31" x="508.935547"/>
      </g>
     </g>
    </g>
    <g id="xtick_6">
     <g id="line2d_11">
      <path d="M 239.719117 276.48 
L 239.719117 41.472 
" clip-path="url(#pbcd1de2200)" style="fill: none; stroke-dasharray: 2.96,1.28; stroke-dashoffset: 0; stroke: #808080; stroke-width: 0.8"/>
     </g>
     <g id="line2d_12">
      <g>
       <use xlink:href="#m16e23d5fa4" x="239.719117" y="276.48" style="stroke: #000000; stroke-width: 0.8"/>
      </g>
     </g>
     <g id="text_6">
      <!-- 11.08.2021 -->
      <g transform="translate(189.093907 318.688565) rotate(-30) scale(0.1 -0.1)">
       <defs>
        <path id="DejaVuSans-38" d="M 2034 2216 
Q 1584 2216 1326 1975 
Q 1069 1734 1069 1313 
Q 1069 891 1326 650 
Q 1584 409 2034 409 
Q 2484 409 2743 651 
Q 3003 894 3003 1313 
Q 3003 1734 2745 1975 
Q 2488 2216 2034 2216 
z
M 1403 2484 
Q 997 2584 770 2862 
Q 544 3141 544 3541 
Q 544 4100 942 4425 
Q 1341 4750 2034 4750 
Q 2731 4750 3128 4425 
Q 3525 4100 3525 3541 
Q 3525 3141 3298 2862 
Q 3072 2584 2669 2484 
Q 3125 2378 3379 2068 
Q 3634 1759 3634 1313 
Q 3634 634 3220 271 
Q 2806 -91 2034 -91 
Q 1263 -91 848 271 
Q 434 634 434 1313 
Q 434 1759 690 2068 
Q 947 2378 1403 2484 
z
M 1172 3481 
Q 1172 3119 1398 2916 
Q 1625 2713 2034 2713 
Q 2441 2713 2670 2916 
Q 2900 3119 2900 3481 
Q 2900 3844 2670 4047 
Q 2441 4250 2034 4250 
Q 1625 4250 1398 4047 
Q 1172 3844 1172 3481 
z
" transform="scale(0.015625)"/>
       </defs>
       <use xlink:href="#DejaVuSans-31"/>
       <use xlink:href="#DejaVuSans-31" x="63.623047"/>
       <use xlink:href="#DejaVuSans-2e" x="127.246094"/>
       <use xlink:href="#DejaVuSans-30" x="159.033203"/>
       <use xlink:href="#DejaVuSans-38" x="222.65625"/>
       <use xlink:href="#DejaVuSans-2e" x="286.279297"/>
       <use xlink:href="#DejaVuSans-32" x="318.066406"/>
       <use xlink:href="#DejaVuSans-30" x="381.689453"/>
       <use xlink:href="#DejaVuSans-32" x="445.3125"/>
       <use xlink:href="#DejaVuSans-31" x="508.935547"/>
      </g>
     </g>
    </g>
    <g id="xtick_7">
     <g id="line2d_13">
      <path d="M 275.651756 276.48 
L 275.651756 41.472 
" clip-path="url(#pbcd1de2200)" style="fill: none; stroke-dasharray: 2.96,1.28; stroke-dashoffset: 0; stroke: #808080; stroke-width: 0.8"/>
     </g>
     <g id="line2d_14">
      <g>
       <use xlink:href="#m16e23d5fa4" x="275.651756" y="276.48" style="stroke: #000000; stroke-width: 0.8"/>
      </g>
     </g>
     <g id="text_7">
      <!-- 03.12.2021 -->
      <g transform="translate(225.026546 318.688565) rotate(-30) scale(0.1 -0.1)">
       <use xlink:href="#DejaVuSans-30"/>
       <use xlink:href="#DejaVuSans-33" x="63.623047"/>
       <use xlink:href="#DejaVuSans-2e" x="127.246094"/>
       <use xlink:href="#DejaVuSans-31" x="159.033203"/>
       <use xlink:href="#DejaVuSans-32" x="222.65625"/>
       <use xlink:href="#DejaVuSans-2e" x="286.279297"/>
       <use xlink:href="#DejaVuSans-32" x="318.066406"/>
       <use xlink:href="#DejaVuSans-30" x="381.689453"/>
       <use xlink:href="#DejaVuSans-32" x="445.3125"/>
       <use xlink:href="#DejaVuSans-31" x="508.935547"/>
      </g>
     </g>
    </g>
    <g id="xtick_8">
     <g id="line2d_15">
      <path d="M 311.584395 276.48 
L 311.584395 41.472 
" clip-path="url(#pbcd1de2200)" style="fill: none; stroke-dasharray: 2.96,1.28; stroke-dashoffset: 0; stroke: #808080; stroke-width: 0.8"/>
     </g>
     <g id="line2d_16">
      <g>
       <use xlink:href="#m16e23d5fa4" x="311.584395" y="276.48" style="stroke: #000000; stroke-width: 0.8"/>
      </g>
     </g>
     <g id="text_8">
      <!-- 27.03.2022 -->
      <g transform="translate(260.959185 318.688565) rotate(-30) scale(0.1 -0.1)">
       <defs>
        <path id="DejaVuSans-37" d="M 525 4666 
L 3525 4666 
L 3525 4397 
L 1831 0 
L 1172 0 
L 2766 4134 
L 525 4134 
L 525 4666 
z
" transform="scale(0.015625)"/>
       </defs>
       <use xlink:href="#DejaVuSans-32"/>
       <use xlink:href="#DejaVuSans-37" x="63.623047"/>
       <use xlink:href="#DejaVuSans-2e" x="127.246094"/>
       <use xlink:href="#DejaVuSans-30" x="159.033203"/>
       <use xlink:href="#DejaVuSans-33" x="222.65625"/>
       <use xlink:href="#DejaVuSans-2e" x="286.279297"/>
       <use xlink:href="#DejaVuSans-32" x="318.066406"/>
       <use xlink:href="#DejaVuSans-30" x="381.689453"/>
       <use xlink:href="#DejaVuSans-32" x="445.3125"/>
       <use xlink:href="#DejaVuSans-32" x="508.935547"/>
      </g>
     </g>
    </g>
    <g id="xtick_9">
     <g id="line2d_17">
      <path d="M 347.517034 276.48 
L 347.517034 41.472 
" clip-path="url(#pbcd1de2200)" style="fill: none; stroke-dasharray: 2.96,1.28; stroke-dashoffset: 0; stroke: #808080; stroke-width: 0.8"/>
     </g>
     <g id="line2d_18">
      <g>
       <use xlink:href="#m16e23d5fa4" x="347.517034" y="276.48" style="stroke: #000000; stroke-width: 0.8"/>
      </g>
     </g>
     <g id="text_9">
      <!-- 19.07.2022 -->
      <g transform="translate(296.891824 318.688565) rotate(-30) scale(0.1 -0.1)">
       <use xlink:href="#DejaVuSans-31"/>
       <use xlink:href="#DejaVuSans-39" x="63.623047"/>
       <use xlink:href="#DejaVuSans-2e" x="127.246094"/>
       <use xlink:href="#DejaVuSans-30" x="159.033203"/>
       <use xlink:href="#DejaVuSans-37" x="222.65625"/>
       <use xlink:href="#DejaVuSans-2e" x="286.279297"/>
       <use xlink:href="#DejaVuSans-32" x="318.066406"/>
       <use xlink:href="#DejaVuSans-30" x="381.689453"/>
       <use xlink:href="#DejaVuSans-32" x="445.3125"/>
       <use xlink:href="#DejaVuSans-32" x="508.935547"/>
      </g>
     </g>
    </g>
    <g id="xtick_10">
     <g id="line2d_19">
      <path d="M 383.449673 276.48 
L 383.449673 41.472 
" clip-path="url(#pbcd1de2200)" style="fill: none; stroke-dasharray: 2.96,1.28; stroke-dashoffset: 0; stroke: #808080; stroke-width: 0.8"/>
     </g>
     <g id="line2d_20">
      <g>
       <use xlink:href="#m16e23d5fa4" x="383.449673" y="276.48" style="stroke: #000000; stroke-width: 0.8"/>
      </g>
     </g>
     <g id="text_10">
      <!-- 10.11.2022 -->
      <g transform="translate(332.824463 318.688565) rotate(-30) scale(0.1 -0.1)">
       <use xlink:href="#DejaVuSans-31"/>
       <use xlink:href="#DejaVuSans-30" x="63.623047"/>
       <use xlink:href="#DejaVuSans-2e" x="127.246094"/>
       <use xlink:href="#DejaVuSans-31" x="159.033203"/>
       <use xlink:href="#DejaVuSans-31" x="222.65625"/>
       <use xlink:href="#DejaVuSans-2e" x="286.279297"/>
       <use xlink:href="#DejaVuSans-32" x="318.066406"/>
       <use xlink:href="#DejaVuSans-30" x="381.689453"/>
       <use xlink:href="#DejaVuSans-32" x="445.3125"/>
       <use xlink:href="#DejaVuSans-32" x="508.935547"/>
      </g>
     </g>
    </g>
   </g>
   <g id="matplotlib.axis_2">
    <g id="ytick_1">
     <g id="line2d_21">
      <path d="M 57.6 265.797818 
L 414.72 265.797818 
" clip-path="url(#pbcd1de2200)" style="fill: none; stroke-dasharray: 2.96,1.28; stroke-dashoffset: 0; stroke: #808080; stroke-width: 0.8"/>
     </g>
     <g id="line2d_22">
      <defs>
       <path id="ma5b8d8de6a" d="M 0 0 
L -3.5 0 
" style="stroke: #000000; stroke-width: 0.8"/>
      </defs>
      <g>
       <use xlink:href="#ma5b8d8de6a" x="57.6" y="265.797818" style="stroke: #000000; stroke-width: 0.8"/>
      </g>
     </g>
     <g id="text_11">
      <!-- 0 -->
      <g transform="translate(44.2375 269.597037) scale(0.1 -0.1)">
       <use xlink:href="#DejaVuSans-30"/>
      </g>
     </g>
    </g>
    <g id="ytick_2">
     <g id="line2d_23">
      <path d="M 57.6 227.602304 
L 414.72 227.602304 
" clip-path="url(#pbcd1de2200)" style="fill: none; stroke-dasharray: 2.96,1.28; stroke-dashoffset: 0; stroke: #808080; stroke-width: 0.8"/>
     </g>
     <g id="line2d_24">
      <g>
       <use xlink:href="#ma5b8d8de6a" x="57.6" y="227.602304" style="stroke: #000000; stroke-width: 0.8"/>
      </g>
     </g>
     <g id="text_12">
      <!-- 500 -->
      <g transform="translate(31.5125 231.401522) scale(0.1 -0.1)">
       <use xlink:href="#DejaVuSans-35"/>
       <use xlink:href="#DejaVuSans-30" x="63.623047"/>
       <use xlink:href="#DejaVuSans-30" x="127.246094"/>
      </g>
     </g>
    </g>
    <g id="ytick_3">
     <g id="line2d_25">
      <path d="M 57.6 189.406789 
L 414.72 189.406789 
" clip-path="url(#pbcd1de2200)" style="fill: none; stroke-dasharray: 2.96,1.28; stroke-dashoffset: 0; stroke: #808080; stroke-width: 0.8"/>
     </g>
     <g id="line2d_26">
      <g>
       <use xlink:href="#ma5b8d8de6a" x="57.6" y="189.406789" style="stroke: #000000; stroke-width: 0.8"/>
      </g>
     </g>
     <g id="text_13">
      <!-- 1000 -->
      <g transform="translate(25.15 193.206008) scale(0.1 -0.1)">
       <use xlink:href="#DejaVuSans-31"/>
       <use xlink:href="#DejaVuSans-30" x="63.623047"/>
       <use xlink:href="#DejaVuSans-30" x="127.246094"/>
       <use xlink:href="#DejaVuSans-30" x="190.869141"/>
      </g>
     </g>
    </g>
    <g id="ytick_4">
     <g id="line2d_27">
      <path d="M 57.6 151.211274 
L 414.72 151.211274 
" clip-path="url(#pbcd1de2200)" style="fill: none; stroke-dasharray: 2.96,1.28; stroke-dashoffset: 0; stroke: #808080; stroke-width: 0.8"/>
     </g>
     <g id="line2d_28">
      <g>
       <use xlink:href="#ma5b8d8de6a" x="57.6" y="151.211274" style="stroke: #000000; stroke-width: 0.8"/>
      </g>
     </g>
     <g id="text_14">
      <!-- 1500 -->
      <g transform="translate(25.15 155.010493) scale(0.1 -0.1)">
       <use xlink:href="#DejaVuSans-31"/>
       <use xlink:href="#DejaVuSans-35" x="63.623047"/>
       <use xlink:href="#DejaVuSans-30" x="127.246094"/>
       <use xlink:href="#DejaVuSans-30" x="190.869141"/>
      </g>
     </g>
    </g>
    <g id="ytick_5">
     <g id="line2d_29">
      <path d="M 57.6 113.01576 
L 414.72 113.01576 
" clip-path="url(#pbcd1de2200)" style="fill: none; stroke-dasharray: 2.96,1.28; stroke-dashoffset: 0; stroke: #808080; stroke-width: 0.8"/>
     </g>
     <g id="line2d_30">
      <g>
       <use xlink:href="#ma5b8d8de6a" x="57.6" y="113.01576" style="stroke: #000000; stroke-width: 0.8"/>
      </g>
     </g>
     <g id="text_15">
      <!-- 2000 -->
      <g transform="translate(25.15 116.814979) scale(0.1 -0.1)">
       <use xlink:href="#DejaVuSans-32"/>
       <use xlink:href="#DejaVuSans-30" x="63.623047"/>
       <use xlink:href="#DejaVuSans-30" x="127.246094"/>
       <use xlink:href="#DejaVuSans-30" x="190.869141"/>
      </g>
     </g>
    </g>
    <g id="ytick_6">
     <g id="line2d_31">
      <path d="M 57.6 74.820245 
L 414.72 74.820245 
" clip-path="url(#pbcd1de2200)" style="fill: none; stroke-dasharray: 2.96,1.28; stroke-dashoffset: 0; stroke: #808080; stroke-width: 0.8"/>
     </g>
     <g id="line2d_32">
      <g>
       <use xlink:href="#ma5b8d8de6a" x="57.6" y="74.820245" style="stroke: #000000; stroke-width: 0.8"/>
      </g>
     </g>
     <g id="text_16">
      <!-- 2500 -->
      <g transform="translate(25.15 78.619464) scale(0.1 -0.1)">
       <use xlink:href="#DejaVuSans-32"/>
       <use xlink:href="#DejaVuSans-35" x="63.623047"/>
       <use xlink:href="#DejaVuSans-30" x="127.246094"/>
       <use xlink:href="#DejaVuSans-30" x="190.869141"/>
      </g>
     </g>
    </g>
    <g id="text_17">
     <!-- Inzidenz pro 7 Tage pro 100.000 Einwohner -->
     <g transform="translate(19.070312 267.301) rotate(-90) scale(0.1 -0.1)">
      <defs>
       <path id="DejaVuSans-49" d="M 628 4666 
L 1259 4666 
L 1259 0 
L 628 0 
L 628 4666 
z
" transform="scale(0.015625)"/>
       <path id="DejaVuSans-6e" d="M 3513 2113 
L 3513 0 
L 2938 0 
L 2938 2094 
Q 2938 2591 2744 2837 
Q 2550 3084 2163 3084 
Q 1697 3084 1428 2787 
Q 1159 2491 1159 1978 
L 1159 0 
L 581 0 
L 581 3500 
L 1159 3500 
L 1159 2956 
Q 1366 3272 1645 3428 
Q 1925 3584 2291 3584 
Q 2894 3584 3203 3211 
Q 3513 2838 3513 2113 
z
" transform="scale(0.015625)"/>
       <path id="DejaVuSans-7a" d="M 353 3500 
L 3084 3500 
L 3084 2975 
L 922 459 
L 3084 459 
L 3084 0 
L 275 0 
L 275 525 
L 2438 3041 
L 353 3041 
L 353 3500 
z
" transform="scale(0.015625)"/>
       <path id="DejaVuSans-69" d="M 603 3500 
L 1178 3500 
L 1178 0 
L 603 0 
L 603 3500 
z
M 603 4863 
L 1178 4863 
L 1178 4134 
L 603 4134 
L 603 4863 
z
" transform="scale(0.015625)"/>
       <path id="DejaVuSans-64" d="M 2906 2969 
L 2906 4863 
L 3481 4863 
L 3481 0 
L 2906 0 
L 2906 525 
Q 2725 213 2448 61 
Q 2172 -91 1784 -91 
Q 1150 -91 751 415 
Q 353 922 353 1747 
Q 353 2572 751 3078 
Q 1150 3584 1784 3584 
Q 2172 3584 2448 3432 
Q 2725 3281 2906 2969 
z
M 947 1747 
Q 947 1113 1208 752 
Q 1469 391 1925 391 
Q 2381 391 2643 752 
Q 2906 1113 2906 1747 
Q 2906 2381 2643 2742 
Q 2381 3103 1925 3103 
Q 1469 3103 1208 2742 
Q 947 2381 947 1747 
z
" transform="scale(0.015625)"/>
       <path id="DejaVuSans-65" d="M 3597 1894 
L 3597 1613 
L 953 1613 
Q 991 1019 1311 708 
Q 1631 397 2203 397 
Q 2534 397 2845 478 
Q 3156 559 3463 722 
L 3463 178 
Q 3153 47 2828 -22 
Q 2503 -91 2169 -91 
Q 1331 -91 842 396 
Q 353 884 353 1716 
Q 353 2575 817 3079 
Q 1281 3584 2069 3584 
Q 2775 3584 3186 3129 
Q 3597 2675 3597 1894 
z
M 3022 2063 
Q 3016 2534 2758 2815 
Q 2500 3097 2075 3097 
Q 1594 3097 1305 2825 
Q 1016 2553 972 2059 
L 3022 2063 
z
" transform="scale(0.015625)"/>
       <path id="DejaVuSans-20" transform="scale(0.015625)"/>
       <path id="DejaVuSans-70" d="M 1159 525 
L 1159 -1331 
L 581 -1331 
L 581 3500 
L 1159 3500 
L 1159 2969 
Q 1341 3281 1617 3432 
Q 1894 3584 2278 3584 
Q 2916 3584 3314 3078 
Q 3713 2572 3713 1747 
Q 3713 922 3314 415 
Q 2916 -91 2278 -91 
Q 1894 -91 1617 61 
Q 1341 213 1159 525 
z
M 3116 1747 
Q 3116 2381 2855 2742 
Q 2594 3103 2138 3103 
Q 1681 3103 1420 2742 
Q 1159 2381 1159 1747 
Q 1159 1113 1420 752 
Q 1681 391 2138 391 
Q 2594 391 2855 752 
Q 3116 1113 3116 1747 
z
" transform="scale(0.015625)"/>
       <path id="DejaVuSans-72" d="M 2631 2963 
Q 2534 3019 2420 3045 
Q 2306 3072 2169 3072 
Q 1681 3072 1420 2755 
Q 1159 2438 1159 1844 
L 1159 0 
L 581 0 
L 581 3500 
L 1159 3500 
L 1159 2956 
Q 1341 3275 1631 3429 
Q 1922 3584 2338 3584 
Q 2397 3584 2469 3576 
Q 2541 3569 2628 3553 
L 2631 2963 
z
" transform="scale(0.015625)"/>
       <path id="DejaVuSans-6f" d="M 1959 3097 
Q 1497 3097 1228 2736 
Q 959 2375 959 1747 
Q 959 1119 1226 758 
Q 1494 397 1959 397 
Q 2419 397 2687 759 
Q 2956 1122 2956 1747 
Q 2956 2369 2687 2733 
Q 2419 3097 1959 3097 
z
M 1959 3584 
Q 2709 3584 3137 3096 
Q 3566 2609 3566 1747 
Q 3566 888 3137 398 
Q 2709 -91 1959 -91 
Q 1206 -91 779 398 
Q 353 888 353 1747 
Q 353 2609 779 3096 
Q 1206 3584 1959 3584 
z
" transform="scale(0.015625)"/>
       <path id="DejaVuSans-54" d="M -19 4666 
L 3928 4666 
L 3928 4134 
L 2272 4134 
L 2272 0 
L 1638 0 
L 1638 4134 
L -19 4134 
L -19 4666 
z
" transform="scale(0.015625)"/>
       <path id="DejaVuSans-61" d="M 2194 1759 
Q 1497 1759 1228 1600 
Q 959 1441 959 1056 
Q 959 750 1161 570 
Q 1363 391 1709 391 
Q 2188 391 2477 730 
Q 2766 1069 2766 1631 
L 2766 1759 
L 2194 1759 
z
M 3341 1997 
L 3341 0 
L 2766 0 
L 2766 531 
Q 2569 213 2275 61 
Q 1981 -91 1556 -91 
Q 1019 -91 701 211 
Q 384 513 384 1019 
Q 384 1609 779 1909 
Q 1175 2209 1959 2209 
L 2766 2209 
L 2766 2266 
Q 2766 2663 2505 2880 
Q 2244 3097 1772 3097 
Q 1472 3097 1187 3025 
Q 903 2953 641 2809 
L 641 3341 
Q 956 3463 1253 3523 
Q 1550 3584 1831 3584 
Q 2591 3584 2966 3190 
Q 3341 2797 3341 1997 
z
" transform="scale(0.015625)"/>
       <path id="DejaVuSans-67" d="M 2906 1791 
Q 2906 2416 2648 2759 
Q 2391 3103 1925 3103 
Q 1463 3103 1205 2759 
Q 947 2416 947 1791 
Q 947 1169 1205 825 
Q 1463 481 1925 481 
Q 2391 481 2648 825 
Q 2906 1169 2906 1791 
z
M 3481 434 
Q 3481 -459 3084 -895 
Q 2688 -1331 1869 -1331 
Q 1566 -1331 1297 -1286 
Q 1028 -1241 775 -1147 
L 775 -588 
Q 1028 -725 1275 -790 
Q 1522 -856 1778 -856 
Q 2344 -856 2625 -561 
Q 2906 -266 2906 331 
L 2906 616 
Q 2728 306 2450 153 
Q 2172 0 1784 0 
Q 1141 0 747 490 
Q 353 981 353 1791 
Q 353 2603 747 3093 
Q 1141 3584 1784 3584 
Q 2172 3584 2450 3431 
Q 2728 3278 2906 2969 
L 2906 3500 
L 3481 3500 
L 3481 434 
z
" transform="scale(0.015625)"/>
       <path id="DejaVuSans-45" d="M 628 4666 
L 3578 4666 
L 3578 4134 
L 1259 4134 
L 1259 2753 
L 3481 2753 
L 3481 2222 
L 1259 2222 
L 1259 531 
L 3634 531 
L 3634 0 
L 628 0 
L 628 4666 
z
" transform="scale(0.015625)"/>
       <path id="DejaVuSans-77" d="M 269 3500 
L 844 3500 
L 1563 769 
L 2278 3500 
L 2956 3500 
L 3675 769 
L 4391 3500 
L 4966 3500 
L 4050 0 
L 3372 0 
L 2619 2869 
L 1863 0 
L 1184 0 
L 269 3500 
z
" transform="scale(0.015625)"/>
       <path id="DejaVuSans-68" d="M 3513 2113 
L 3513 0 
L 2938 0 
L 2938 2094 
Q 2938 2591 2744 2837 
Q 2550 3084 2163 3084 
Q 1697 3084 1428 2787 
Q 1159 2491 1159 1978 
L 1159 0 
L 581 0 
L 581 4863 
L 1159 4863 
L 1159 2956 
Q 1366 3272 1645 3428 
Q 1925 3584 2291 3584 
Q 2894 3584 3203 3211 
Q 3513 2838 3513 2113 
z
" transform="scale(0.015625)"/>
      </defs>
      <use xlink:href="#DejaVuSans-49"/>
      <use xlink:href="#DejaVuSans-6e" x="29.492188"/>
      <use xlink:href="#DejaVuSans-7a" x="92.871094"/>
      <use xlink:href="#DejaVuSans-69" x="145.361328"/>
      <use xlink:href="#DejaVuSans-64" x="173.144531"/>
      <use xlink:href="#DejaVuSans-65" x="236.621094"/>
      <use xlink:href="#DejaVuSans-6e" x="298.144531"/>
      <use xlink:href="#DejaVuSans-7a" x="361.523438"/>
      <use xlink:href="#DejaVuSans-20" x="414.013672"/>
      <use xlink:href="#DejaVuSans-70" x="445.800781"/>
      <use xlink:href="#DejaVuSans-72" x="509.277344"/>
      <use xlink:href="#DejaVuSans-6f" x="548.140625"/>
      <use xlink:href="#DejaVuSans-20" x="609.322266"/>
      <use xlink:href="#DejaVuSans-37" x="641.109375"/>
      <use xlink:href="#DejaVuSans-20" x="704.732422"/>
      <use xlink:href="#DejaVuSans-54" x="736.519531"/>
      <use xlink:href="#DejaVuSans-61" x="781.103516"/>
      <use xlink:href="#DejaVuSans-67" x="842.382812"/>
      <use xlink:href="#DejaVuSans-65" x="905.859375"/>
      <use xlink:href="#DejaVuSans-20" x="967.382812"/>
      <use xlink:href="#DejaVuSans-70" x="999.169922"/>
      <use xlink:href="#DejaVuSans-72" x="1062.646484"/>
      <use xlink:href="#DejaVuSans-6f" x="1101.509766"/>
      <use xlink:href="#DejaVuSans-20" x="1162.691406"/>
      <use xlink:href="#DejaVuSans-31" x="1194.478516"/>
      <use xlink:href="#DejaVuSans-30" x="1258.101562"/>
      <use xlink:href="#DejaVuSans-30" x="1321.724609"/>
      <use xlink:href="#DejaVuSans-2e" x="1385.347656"/>
      <use xlink:href="#DejaVuSans-30" x="1417.134766"/>
      <use xlink:href="#DejaVuSans-30" x="1480.757812"/>
      <use xlink:href="#DejaVuSans-30" x="1544.380859"/>
      <use xlink:href="#DejaVuSans-20" x="1608.003906"/>
      <use xlink:href="#DejaVuSans-45" x="1639.791016"/>
      <use xlink:href="#DejaVuSans-69" x="1702.974609"/>
      <use xlink:href="#DejaVuSans-6e" x="1730.757812"/>
      <use xlink:href="#DejaVuSans-77" x="1794.136719"/>
      <use xlink:href="#DejaVuSans-6f" x="1875.923828"/>
      <use xlink:href="#DejaVuSans-68" x="1937.105469"/>
      <use xlink:href="#DejaVuSans-6e" x="2000.484375"/>
      <use xlink:href="#DejaVuSans-65" x="2063.863281"/>
      <use xlink:href="#DejaVuSans-72" x="2125.386719"/>
     </g>
    </g>
   </g>
   <g id="line2d_33">
    <path d="M 73.832727 265.797818 
L 75.40872 265.638264 
L 76.984713 265.531894 
L 78.245508 265.212785 
L 78.875905 264.680936 
L 79.191103 264.787306 
L 79.8215 264.255457 
L 80.136699 264.149087 
L 80.451898 264.202272 
L 81.082295 263.989532 
L 81.712692 263.244944 
L 82.027891 263.08539 
L 82.343089 263.138575 
L 82.658288 262.819465 
L 83.603883 262.287617 
L 83.919082 262.393986 
L 84.234281 262.659911 
L 84.549479 262.76628 
L 85.179876 263.404499 
L 86.440671 263.457684 
L 87.071068 263.08539 
L 87.386267 263.244944 
L 87.701465 261.170734 
L 88.016664 261.489843 
L 88.331862 261.170734 
L 88.962259 260.851625 
L 89.277458 261.01118 
L 89.592657 260.426146 
L 89.907855 262.713096 
L 90.223054 262.287617 
L 90.538252 262.287617 
L 91.16865 263.032205 
L 91.483848 262.819465 
L 91.799047 263.191759 
L 92.114245 263.351314 
L 92.744643 264.095902 
L 93.059841 264.149087 
L 93.37504 263.883163 
L 94.005437 264.149087 
L 94.635834 264.042717 
L 94.951033 264.361827 
L 95.266231 264.149087 
L 95.896628 264.521381 
L 96.527026 264.627751 
L 96.842224 264.893675 
L 97.157423 264.627751 
L 97.78782 264.787306 
L 98.418217 264.787306 
L 98.733416 264.94686 
L 99.048614 264.787306 
L 99.363813 265.106415 
L 99.99421 265.265969 
L 100.624607 265.319154 
L 100.939806 265.425524 
L 101.255004 265.744633 
L 104.722189 265.691448 
L 105.037387 265.585079 
L 105.982983 265.638264 
L 107.558976 265.744633 
L 108.189373 265.744633 
L 118.275728 265.638264 
L 118.906125 265.531894 
L 119.221324 265.319154 
L 119.851721 265.372339 
L 120.482118 265.265969 
L 123.949303 265.744633 
L 126.78609 265.744633 
L 127.731686 264.94686 
L 128.99248 264.627751 
L 129.307679 264.787306 
L 129.622877 265.106415 
L 130.568473 265.478709 
L 131.19887 265.531894 
L 131.514069 265.638264 
L 131.829267 265.585079 
L 132.144466 265.372339 
L 132.459665 265.425524 
L 133.090062 265.1596 
L 134.035658 265.106415 
L 134.350856 265.372339 
L 134.981253 265.319154 
L 135.61165 265.425524 
L 139.394034 265.478709 
L 139.709232 265.265969 
L 140.654828 265.05323 
L 140.970026 264.84049 
L 141.285225 264.468196 
L 141.600424 264.308642 
L 142.230821 264.627751 
L 143.491615 264.042717 
L 143.806814 263.457684 
L 144.437211 263.510869 
L 145.067608 263.138575 
L 145.382807 263.032205 
L 145.698005 261.968507 
L 146.013204 262.128062 
L 146.328402 262.021692 
L 146.643601 261.543028 
L 146.9588 261.596213 
L 147.589197 260.107037 
L 147.904395 260.90481 
L 148.534793 260.532516 
L 148.849991 260.532516 
L 149.16519 260.160222 
L 149.480388 260.638885 
L 149.795587 260.69207 
L 150.110786 260.479331 
L 150.425984 259.522003 
L 151.056381 259.947482 
L 151.37158 259.522003 
L 152.001977 259.309264 
L 152.632374 260.000667 
L 153.262771 259.841112 
L 153.57797 260.266591 
L 153.893169 259.841112 
L 154.208367 260.532516 
L 154.523566 260.585701 
L 154.838764 260.266591 
L 155.469162 260.053852 
L 155.78436 260.372961 
L 156.414757 258.139196 
L 156.729956 257.713717 
L 157.045154 258.139196 
L 157.675552 258.139196 
L 157.99075 257.607348 
L 158.621147 258.458306 
L 158.936346 256.65002 
L 159.251545 256.011801 
L 159.566743 255.852247 
L 159.881942 255.905432 
L 160.19714 255.373583 
L 160.512339 254.57581 
L 160.827538 252.820709 
L 161.142736 254.309886 
L 161.457935 253.458928 
L 161.773133 253.405743 
L 162.088332 253.033449 
L 162.40353 253.352558 
L 162.718729 252.448415 
L 163.033928 249.895541 
L 163.349126 248.406365 
L 163.664325 247.980886 
L 163.979523 246.06623 
L 164.294722 244.949348 
L 164.609921 243.353802 
L 164.925119 243.034692 
L 165.240318 242.502844 
L 165.555516 239.896785 
L 165.870715 235.80155 
L 166.501112 237.76939 
L 166.816311 236.333398 
L 167.131509 235.961104 
L 167.446708 236.280213 
L 167.761906 240.535003 
L 168.077105 247.289482 
L 168.392304 248.087255 
L 168.707502 248.087255 
L 169.022701 249.363692 
L 169.337899 249.735986 
L 169.653098 252.714339 
L 169.968297 252.767524 
L 170.283495 253.033449 
L 170.598694 252.342045 
L 170.913892 253.193003 
L 171.229091 252.39523 
L 171.544289 252.448415 
L 171.859488 254.788549 
L 172.174687 252.714339 
L 172.489885 251.437902 
L 172.805084 252.129306 
L 173.120282 252.022936 
L 173.75068 254.788549 
L 174.065878 252.129306 
L 174.381077 253.990776 
L 174.696275 252.714339 
L 175.326673 252.820709 
L 175.95707 252.235675 
L 176.587467 253.458928 
L 176.902665 254.36307 
L 177.217864 254.46944 
L 177.533063 254.36307 
L 178.16346 257.341423 
L 178.478658 258.298751 
L 179.739453 259.043339 
L 180.054651 258.777415 
L 180.685049 260.266591 
L 181.000247 260.160222 
L 181.315446 260.585701 
L 181.630644 260.638885 
L 181.945843 260.426146 
L 182.261041 260.745255 
L 182.57624 261.223919 
L 182.891439 261.064364 
L 183.206637 260.745255 
L 183.521836 261.755768 
L 183.837034 261.649398 
L 184.467432 262.393986 
L 184.78263 262.287617 
L 185.097829 262.713096 
L 185.413027 263.404499 
L 185.728226 263.08539 
L 186.043425 263.244944 
L 186.358623 263.138575 
L 186.673822 262.713096 
L 186.98902 263.510869 
L 187.619417 262.659911 
L 188.249815 262.500356 
L 188.880212 262.606726 
L 189.19541 262.287617 
L 189.510609 262.287617 
L 189.825808 262.500356 
L 190.141006 262.234432 
L 190.771403 262.393986 
L 191.086602 262.553541 
L 191.401801 261.436659 
L 191.716999 262.128062 
L 192.032198 262.234432 
L 192.347396 262.659911 
L 193.292992 262.393986 
L 193.608191 262.925835 
L 193.923389 262.713096 
L 194.238588 262.340801 
L 194.553786 261.543028 
L 194.868985 261.649398 
L 195.184184 261.543028 
L 195.499382 261.755768 
L 196.129779 260.000667 
L 196.444978 259.841112 
L 197.390574 258.405121 
L 197.705772 256.43728 
L 198.020971 256.064986 
L 198.336169 256.277726 
L 198.651368 254.735365 
L 198.966567 256.330911 
L 199.281765 256.703205 
L 199.596964 256.862759 
L 199.912162 258.564675 
L 200.227361 258.93697 
L 200.54256 257.447793 
L 200.857758 257.607348 
L 201.172957 255.214028 
L 201.488155 254.36307 
L 201.803354 254.309886 
L 202.433751 251.065608 
L 202.74895 251.384717 
L 203.064148 252.235675 
L 203.379347 252.182491 
L 203.694545 253.033449 
L 204.009744 252.820709 
L 204.324943 253.512112 
L 204.640141 252.980264 
L 204.95534 253.937591 
L 205.270538 253.193003 
L 205.585737 252.873894 
L 205.900936 251.810196 
L 206.216134 252.076121 
L 206.531333 251.703827 
L 206.846531 252.980264 
L 207.16173 251.916566 
L 207.476929 251.969751 
L 208.107326 253.246188 
L 209.052921 252.39523 
L 209.36812 252.554785 
L 209.683319 252.980264 
L 209.998517 252.767524 
L 210.628914 253.405743 
L 210.944113 255.001289 
L 211.259312 254.203516 
L 211.57451 254.788549 
L 212.204907 257.766902 
L 212.835305 258.351936 
L 213.150503 258.192381 
L 213.465702 260.79844 
L 213.7809 261.702583 
L 214.096099 261.117549 
L 214.411297 261.277104 
L 215.041695 261.277104 
L 215.356893 262.181247 
L 215.672092 262.447171 
L 215.98729 262.500356 
L 216.302489 263.032205 
L 216.932886 263.08539 
L 217.248085 262.97902 
L 217.563283 262.659911 
L 217.878482 262.500356 
L 218.19368 262.925835 
L 218.508879 263.032205 
L 218.824078 263.510869 
L 219.454475 263.776793 
L 219.769673 263.829978 
L 220.400071 264.627751 
L 220.715269 264.468196 
L 221.660865 264.361827 
L 221.976064 264.84049 
L 222.606461 264.893675 
L 222.921659 265.212785 
L 223.867255 265.478709 
L 224.182454 265.425524 
L 224.497652 265.585079 
L 224.812851 265.585079 
L 225.128049 265.425524 
L 225.758447 265.531894 
L 227.019241 265.638264 
L 227.964837 265.691448 
L 228.595234 265.691448 
L 228.910432 265.531894 
L 230.801624 265.585079 
L 231.432021 265.691448 
L 232.377617 265.585079 
L 233.323213 265.638264 
L 234.899206 265.531894 
L 235.214404 265.372339 
L 235.529603 265.425524 
L 235.844801 265.212785 
L 237.105596 265.212785 
L 237.420794 265.372339 
L 237.735993 265.212785 
L 239.311986 265.106415 
L 239.942383 264.787306 
L 240.257582 264.734121 
L 240.57278 264.468196 
L 240.887979 263.829978 
L 241.518376 263.776793 
L 241.833575 263.457684 
L 242.463972 263.351314 
L 242.77917 262.925835 
L 243.094369 263.298129 
L 243.724766 263.191759 
L 244.039965 263.404499 
L 244.670362 261.277104 
L 244.98556 261.755768 
L 245.300759 261.064364 
L 245.615958 261.170734 
L 245.931156 261.064364 
L 246.246355 260.532516 
L 246.876752 262.181247 
L 247.191951 262.074877 
L 247.507149 262.287617 
L 247.822348 261.968507 
L 248.452745 261.755768 
L 249.083142 260.372961 
L 249.398341 259.043339 
L 249.713539 258.61786 
L 250.974334 258.72423 
L 251.289532 258.671045 
L 251.604731 258.883785 
L 251.919929 258.564675 
L 252.235128 258.671045 
L 252.550327 258.032827 
L 252.865525 257.713717 
L 253.180724 258.139196 
L 253.495922 258.351936 
L 253.811121 258.777415 
L 254.12632 259.522003 
L 254.441518 259.681558 
L 254.756717 260.053852 
L 255.702312 258.8306 
L 256.017511 259.309264 
L 256.33271 259.362449 
L 256.647908 258.990154 
L 256.963107 259.202894 
L 257.278305 259.947482 
L 257.593504 259.734743 
L 257.908703 260.160222 
L 258.223901 259.309264 
L 258.5391 259.468818 
L 259.169497 260.000667 
L 259.484695 259.841112 
L 259.799894 260.69207 
L 260.115093 260.638885 
L 260.430291 261.330289 
L 260.74549 260.851625 
L 261.060688 260.745255 
L 261.375887 260.479331 
L 261.691086 259.787927 
L 262.006284 259.468818 
L 262.321483 259.468818 
L 262.95188 258.990154 
L 263.582277 258.61786 
L 263.897476 259.043339 
L 264.527873 256.330911 
L 264.843071 254.948104 
L 265.15827 254.203516 
L 265.473469 254.256701 
L 265.788667 253.139818 
L 266.103866 253.990776 
L 266.419064 253.086633 
L 267.049462 250.108281 
L 267.36466 247.183112 
L 267.679859 246.119415 
L 267.995057 246.013045 
L 268.310256 241.120037 
L 268.625455 238.194869 
L 268.940653 236.865247 
L 269.255852 234.844222 
L 269.57105 235.110146 
L 270.201447 233.355045 
L 270.516646 231.599945 
L 270.831845 231.972239 
L 271.147043 232.876382 
L 271.462242 232.929566 
L 271.77744 230.163953 
L 272.092639 230.323508 
L 272.407838 229.419365 
L 272.723036 231.653129 
L 273.038235 230.483062 
L 273.353433 228.568407 
L 273.668632 228.355667 
L 273.983831 228.781146 
L 274.299029 228.196113 
L 274.929426 227.877003 
L 275.244625 225.590054 
L 275.875022 217.346399 
L 276.190221 216.548625 
L 276.505419 216.495441 
L 276.820618 217.931432 
L 277.135816 216.442256 
L 277.451015 213.197978 
L 278.081412 221.335264 
L 278.396611 223.303104 
L 279.027008 221.548004 
L 279.342207 222.82444 
L 279.657405 226.653751 
L 279.972604 225.590054 
L 280.287802 226.281457 
L 280.603001 226.387827 
L 280.918199 227.238785 
L 281.233398 229.100256 
L 281.548597 230.163953 
L 281.863795 234.418743 
L 282.178994 234.950592 
L 282.494192 236.705692 
L 282.809391 241.173222 
L 283.12459 243.619726 
L 283.439788 243.88565 
L 283.754987 243.88565 
L 284.070185 243.460171 
L 284.385384 246.119415 
L 284.700583 245.321642 
L 285.015781 245.321642 
L 285.33098 244.789793 
L 285.646178 245.162087 
L 285.961377 244.09839 
L 286.276575 244.364314 
L 286.591774 246.491709 
L 286.906973 247.608591 
L 287.222171 244.470684 
L 287.53737 243.672911 
L 287.852568 243.300617 
L 288.167767 241.651886 
L 288.482966 238.833087 
L 288.798164 234.046449 
L 289.113363 234.791037 
L 289.428561 237.184356 
L 289.74376 235.80155 
L 290.058959 233.72734 
L 290.374157 226.228272 
L 291.004554 219.314239 
L 291.319753 212.081096 
L 291.634951 207.773121 
L 291.95015 205.698911 
L 292.265349 202.773743 
L 292.580547 204.741584 
L 292.895746 201.603676 
L 293.841342 185.967323 
L 294.15654 183.839928 
L 294.471739 187.403315 
L 294.786937 181.074315 
L 295.102136 181.1275 
L 295.732533 173.894357 
L 296.047732 177.723668 
L 296.36293 175.117609 
L 296.678129 166.767584 
L 296.993327 167.618542 
L 297.623725 156.928382 
L 297.938923 158.258004 
L 298.254122 156.928382 
L 298.56932 156.236979 
L 298.884519 157.034752 
L 299.199718 150.599382 
L 299.514916 151.503525 
L 299.830115 153.099071 
L 300.145313 158.683483 
L 300.460512 157.353861 
L 300.775711 157.141122 
L 301.090909 162.406424 
L 301.406108 165.810256 
L 301.721306 154.854172 
L 302.036505 147.886954 
L 302.351703 137.03724 
L 302.666902 134.803475 
L 302.982101 138.579601 
L 303.297299 129.378618 
L 303.612498 124.591979 
L 303.927696 132.356971 
L 304.242895 130.761425 
L 304.558094 132.144231 
L 304.873292 129.804097 
L 305.188491 126.45345 
L 305.503689 132.410156 
L 306.134086 106.615492 
L 306.449285 102.094778 
L 306.764484 83.320518 
L 307.079682 72.896282 
L 307.394881 73.587686 
L 307.710079 59.706434 
L 308.025278 52.154182 
L 308.340477 57.100375 
L 308.655675 58.270442 
L 308.970874 68.694677 
L 309.286072 75.130047 
L 309.91647 63.854854 
L 310.231668 73.800425 
L 310.546867 67.258686 
L 310.862065 68.535123 
L 311.177264 54.813425 
L 311.807661 91.138694 
L 312.12286 73.640871 
L 312.438058 73.481316 
L 313.068455 92.94698 
L 313.383654 115.018702 
L 314.014051 115.018702 
L 314.32925 134.85666 
L 315.590044 171.554223 
L 316.220441 171.554223 
L 316.53564 168.841794 
L 316.850838 172.086071 
L 317.166037 171.501038 
L 317.481236 171.501038 
L 317.796434 182.616676 
L 318.426831 182.616676 
L 318.74203 210.27281 
L 319.057229 196.444743 
L 319.372427 192.296323 
L 319.687626 196.338374 
L 320.002824 185.648214 
L 320.633222 185.648214 
L 320.94842 167.193063 
L 321.263619 189.31797 
L 321.578817 200.646348 
L 322.209214 209.421852 
L 322.839612 209.421852 
L 323.470009 219.846088 
L 323.785207 216.974104 
L 324.100406 216.60181 
L 324.415605 214.953079 
L 325.046002 214.953079 
L 325.676399 206.23076 
L 325.991598 210.857844 
L 326.621995 215.378558 
L 327.252392 215.378558 
L 327.882789 226.972861 
L 328.197988 228.249298 
L 328.513186 231.387205 
L 328.828385 232.716827 
L 329.458782 232.716827 
L 329.773981 237.184356 
L 330.089179 239.8436 
L 330.719576 246.491709 
L 331.034775 247.236297 
L 331.665172 247.236297 
L 331.980371 250.161465 
L 332.295569 249.789171 
L 332.610768 250.32102 
L 332.925966 244.417499 
L 333.241165 244.257944 
L 333.871562 244.257944 
L 334.186761 248.459549 
L 334.817158 239.94997 
L 335.132357 241.81144 
L 335.447555 238.407608 
L 336.077952 238.407608 
L 336.393151 228.408852 
L 336.70835 229.632104 
L 337.023548 231.493575 
L 337.338747 235.535625 
L 337.653945 231.865869 
L 338.284342 231.865869 
L 338.599541 230.855356 
L 338.91474 224.473172 
L 339.229938 221.601188 
L 339.545137 214.102121 
L 339.860335 215.272188 
L 340.490733 215.272188 
L 340.805931 211.336508 
L 341.12113 213.517088 
L 341.436328 213.357533 
L 341.751527 211.176953 
L 342.066726 210.911029 
L 342.697123 210.911029 
L 343.012321 206.656239 
L 343.32752 206.656239 
L 344.273116 197.72118 
L 344.903513 197.72118 
L 345.218711 200.220869 
L 345.53391 198.359399 
L 345.849109 185.967323 
L 346.164307 192.349508 
L 346.479506 182.297567 
L 347.109903 182.297567 
L 347.425102 170.809634 
L 347.7403 165.225223 
L 348.055499 176.500416 
L 348.370697 165.331592 
L 348.685896 178.361886 
L 349.316293 178.361886 
L 349.94669 186.180063 
L 350.261889 185.009996 
L 350.577087 193.732315 
L 350.892286 196.817037 
L 351.522683 196.817037 
L 351.837882 209.528222 
L 352.15308 215.165819 
L 352.468279 225.32413 
L 353.098676 232.663642 
L 353.729073 232.663642 
L 354.044272 238.886272 
L 354.35947 241.492331 
L 354.674669 241.970995 
L 355.305066 244.364314 
L 355.935463 244.364314 
L 356.250662 243.779281 
L 356.565861 247.076743 
L 356.881059 246.385339 
L 357.196258 248.35318 
L 357.511456 248.672289 
L 358.141853 248.672289 
L 358.457052 248.14044 
L 358.772251 247.236297 
L 359.087449 248.885028 
L 359.402648 248.512734 
L 359.717846 249.523247 
L 360.348244 249.523247 
L 360.663442 251.437902 
L 360.978641 251.437902 
L 361.293839 251.916566 
L 361.609038 250.267835 
L 361.924237 250.480575 
L 362.554634 250.480575 
L 362.869832 249.682802 
L 363.185031 249.789171 
L 363.500229 248.991398 
L 363.815428 249.735986 
L 364.130627 248.03407 
L 364.761024 248.03407 
L 365.076222 248.991398 
L 365.391421 247.768146 
L 365.70662 248.619104 
L 366.337017 244.523869 
L 366.967414 244.523869 
L 367.282613 242.343289 
L 367.597811 243.99202 
L 367.91301 239.045827 
L 368.228208 239.524491 
L 368.543407 238.886272 
L 369.173804 238.886272 
L 370.749797 206.656239 
L 371.380194 206.656239 
L 371.695393 220.005642 
L 372.010591 212.34702 
L 372.640989 209.900516 
L 372.956187 207.507197 
L 373.586584 207.507197 
L 373.901783 181.23387 
L 374.216981 184.531332 
L 374.53218 181.23387 
L 375.162577 186.233248 
L 375.792974 186.233248 
L 376.108173 190.860332 
L 376.423372 191.551735 
L 376.73857 198.997617 
L 377.053769 201.337752 
L 377.368967 207.454012 
L 377.999365 207.454012 
L 378.629762 226.387827 
L 378.94496 228.887516 
L 379.260159 232.823197 
L 379.575357 234.844222 
L 380.205755 234.844222 
L 380.520953 237.55665 
L 380.836152 242.875138 
L 381.466549 247.129928 
L 381.781748 244.736608 
L 382.412145 244.736608 
L 382.727343 247.076743 
L 383.042542 243.832465 
L 383.357741 246.651264 
L 383.672939 246.06623 
L 383.988138 248.459549 
L 384.618535 248.459549 
L 384.933733 252.661154 
L 385.248932 252.28886 
L 385.564131 252.182491 
L 385.879329 253.618482 
L 386.194528 253.778037 
L 386.824925 253.778037 
L 387.140124 253.139818 
L 387.455322 254.948104 
L 387.770521 255.320398 
L 388.085719 254.522625 
L 388.400918 255.214028 
L 389.031315 255.214028 
L 389.346514 256.224541 
L 389.661712 256.171356 
L 389.976911 256.703205 
L 390.292109 256.809575 
L 390.607308 256.171356 
L 391.237705 256.171356 
L 391.552904 256.65002 
L 391.868102 255.533138 
L 392.183301 255.426768 
L 392.4985 255.639507 
L 392.813698 256.011801 
L 393.444095 256.011801 
L 393.759294 255.745877 
L 394.074492 256.330911 
L 394.389691 255.479953 
L 395.020088 254.894919 
L 395.650485 254.894919 
L 395.965684 255.160844 
L 396.596081 252.022936 
L 396.91128 252.182491 
L 397.226478 250.53376 
L 397.856876 250.53376 
L 398.172074 252.5016 
L 398.487273 253.193003 
L 398.487273 253.193003 
" clip-path="url(#pbcd1de2200)" style="fill: none; stroke: #1f77b4; stroke-width: 1.5; stroke-linecap: square"/>
   </g>
   <g id="patch_3">
    <path d="M 57.6 276.48 
L 57.6 41.472 
" style="fill: none; stroke: #000000; stroke-width: 0.8; stroke-linejoin: miter; stroke-linecap: square"/>
   </g>
   <g id="patch_4">
    <path d="M 414.72 276.48 
L 414.72 41.472 
" style="fill: none; stroke: #000000; stroke-width: 0.8; stroke-linejoin: miter; stroke-linecap: square"/>
   </g>
   <g id="patch_5">
    <path d="M 57.6 276.48 
L 414.72 276.48 
" style="fill: none; stroke: #000000; stroke-width: 0.8; stroke-linejoin: miter; stroke-linecap: square"/>
   </g>
   <g id="patch_6">
    <path d="M 57.6 41.472 
L 414.72 41.472 
" style="fill: none; stroke: #000000; stroke-width: 0.8; stroke-linejoin: miter; stroke-linecap: square"/>
   </g>
  </g>
  <g id="text_18">
   <!-- Inzidenzverlauf LK Neckar-Odenwald-Kreis -->
   <g transform="translate(40.137188 20.589187) scale(0.18 -0.18)">
    <defs>
     <path id="DejaVuSans-76" d="M 191 3500 
L 800 3500 
L 1894 563 
L 2988 3500 
L 3597 3500 
L 2284 0 
L 1503 0 
L 191 3500 
z
" transform="scale(0.015625)"/>
     <path id="DejaVuSans-6c" d="M 603 4863 
L 1178 4863 
L 1178 0 
L 603 0 
L 603 4863 
z
" transform="scale(0.015625)"/>
     <path id="DejaVuSans-75" d="M 544 1381 
L 544 3500 
L 1119 3500 
L 1119 1403 
Q 1119 906 1312 657 
Q 1506 409 1894 409 
Q 2359 409 2629 706 
Q 2900 1003 2900 1516 
L 2900 3500 
L 3475 3500 
L 3475 0 
L 2900 0 
L 2900 538 
Q 2691 219 2414 64 
Q 2138 -91 1772 -91 
Q 1169 -91 856 284 
Q 544 659 544 1381 
z
M 1991 3584 
L 1991 3584 
z
" transform="scale(0.015625)"/>
     <path id="DejaVuSans-66" d="M 2375 4863 
L 2375 4384 
L 1825 4384 
Q 1516 4384 1395 4259 
Q 1275 4134 1275 3809 
L 1275 3500 
L 2222 3500 
L 2222 3053 
L 1275 3053 
L 1275 0 
L 697 0 
L 697 3053 
L 147 3053 
L 147 3500 
L 697 3500 
L 697 3744 
Q 697 4328 969 4595 
Q 1241 4863 1831 4863 
L 2375 4863 
z
" transform="scale(0.015625)"/>
     <path id="DejaVuSans-4c" d="M 628 4666 
L 1259 4666 
L 1259 531 
L 3531 531 
L 3531 0 
L 628 0 
L 628 4666 
z
" transform="scale(0.015625)"/>
     <path id="DejaVuSans-4b" d="M 628 4666 
L 1259 4666 
L 1259 2694 
L 3353 4666 
L 4166 4666 
L 1850 2491 
L 4331 0 
L 3500 0 
L 1259 2247 
L 1259 0 
L 628 0 
L 628 4666 
z
" transform="scale(0.015625)"/>
     <path id="DejaVuSans-4e" d="M 628 4666 
L 1478 4666 
L 3547 763 
L 3547 4666 
L 4159 4666 
L 4159 0 
L 3309 0 
L 1241 3903 
L 1241 0 
L 628 0 
L 628 4666 
z
" transform="scale(0.015625)"/>
     <path id="DejaVuSans-63" d="M 3122 3366 
L 3122 2828 
Q 2878 2963 2633 3030 
Q 2388 3097 2138 3097 
Q 1578 3097 1268 2742 
Q 959 2388 959 1747 
Q 959 1106 1268 751 
Q 1578 397 2138 397 
Q 2388 397 2633 464 
Q 2878 531 3122 666 
L 3122 134 
Q 2881 22 2623 -34 
Q 2366 -91 2075 -91 
Q 1284 -91 818 406 
Q 353 903 353 1747 
Q 353 2603 823 3093 
Q 1294 3584 2113 3584 
Q 2378 3584 2631 3529 
Q 2884 3475 3122 3366 
z
" transform="scale(0.015625)"/>
     <path id="DejaVuSans-6b" d="M 581 4863 
L 1159 4863 
L 1159 1991 
L 2875 3500 
L 3609 3500 
L 1753 1863 
L 3688 0 
L 2938 0 
L 1159 1709 
L 1159 0 
L 581 0 
L 581 4863 
z
" transform="scale(0.015625)"/>
     <path id="DejaVuSans-2d" d="M 313 2009 
L 1997 2009 
L 1997 1497 
L 313 1497 
L 313 2009 
z
" transform="scale(0.015625)"/>
     <path id="DejaVuSans-4f" d="M 2522 4238 
Q 1834 4238 1429 3725 
Q 1025 3213 1025 2328 
Q 1025 1447 1429 934 
Q 1834 422 2522 422 
Q 3209 422 3611 934 
Q 4013 1447 4013 2328 
Q 4013 3213 3611 3725 
Q 3209 4238 2522 4238 
z
M 2522 4750 
Q 3503 4750 4090 4092 
Q 4678 3434 4678 2328 
Q 4678 1225 4090 567 
Q 3503 -91 2522 -91 
Q 1538 -91 948 565 
Q 359 1222 359 2328 
Q 359 3434 948 4092 
Q 1538 4750 2522 4750 
z
" transform="scale(0.015625)"/>
     <path id="DejaVuSans-73" d="M 2834 3397 
L 2834 2853 
Q 2591 2978 2328 3040 
Q 2066 3103 1784 3103 
Q 1356 3103 1142 2972 
Q 928 2841 928 2578 
Q 928 2378 1081 2264 
Q 1234 2150 1697 2047 
L 1894 2003 
Q 2506 1872 2764 1633 
Q 3022 1394 3022 966 
Q 3022 478 2636 193 
Q 2250 -91 1575 -91 
Q 1294 -91 989 -36 
Q 684 19 347 128 
L 347 722 
Q 666 556 975 473 
Q 1284 391 1588 391 
Q 1994 391 2212 530 
Q 2431 669 2431 922 
Q 2431 1156 2273 1281 
Q 2116 1406 1581 1522 
L 1381 1569 
Q 847 1681 609 1914 
Q 372 2147 372 2553 
Q 372 3047 722 3315 
Q 1072 3584 1716 3584 
Q 2034 3584 2315 3537 
Q 2597 3491 2834 3397 
z
" transform="scale(0.015625)"/>
    </defs>
    <use xlink:href="#DejaVuSans-49"/>
    <use xlink:href="#DejaVuSans-6e" x="29.492188"/>
    <use xlink:href="#DejaVuSans-7a" x="92.871094"/>
    <use xlink:href="#DejaVuSans-69" x="145.361328"/>
    <use xlink:href="#DejaVuSans-64" x="173.144531"/>
    <use xlink:href="#DejaVuSans-65" x="236.621094"/>
    <use xlink:href="#DejaVuSans-6e" x="298.144531"/>
    <use xlink:href="#DejaVuSans-7a" x="361.523438"/>
    <use xlink:href="#DejaVuSans-76" x="414.013672"/>
    <use xlink:href="#DejaVuSans-65" x="473.193359"/>
    <use xlink:href="#DejaVuSans-72" x="534.716797"/>
    <use xlink:href="#DejaVuSans-6c" x="575.830078"/>
    <use xlink:href="#DejaVuSans-61" x="603.613281"/>
    <use xlink:href="#DejaVuSans-75" x="664.892578"/>
    <use xlink:href="#DejaVuSans-66" x="728.271484"/>
    <use xlink:href="#DejaVuSans-20" x="763.476562"/>
    <use xlink:href="#DejaVuSans-4c" x="795.263672"/>
    <use xlink:href="#DejaVuSans-4b" x="850.976562"/>
    <use xlink:href="#DejaVuSans-20" x="916.552734"/>
    <use xlink:href="#DejaVuSans-4e" x="948.339844"/>
    <use xlink:href="#DejaVuSans-65" x="1023.144531"/>
    <use xlink:href="#DejaVuSans-63" x="1084.667969"/>
    <use xlink:href="#DejaVuSans-6b" x="1139.648438"/>
    <use xlink:href="#DejaVuSans-61" x="1195.808594"/>
    <use xlink:href="#DejaVuSans-72" x="1257.087891"/>
    <use xlink:href="#DejaVuSans-2d" x="1291.826172"/>
    <use xlink:href="#DejaVuSans-4f" x="1330.660156"/>
    <use xlink:href="#DejaVuSans-64" x="1409.371094"/>
    <use xlink:href="#DejaVuSans-65" x="1472.847656"/>
    <use xlink:href="#DejaVuSans-6e" x="1534.371094"/>
    <use xlink:href="#DejaVuSans-77" x="1597.75"/>
    <use xlink:href="#DejaVuSans-61" x="1679.537109"/>
    <use xlink:href="#DejaVuSans-6c" x="1740.816406"/>
    <use xlink:href="#DejaVuSans-64" x="1768.599609"/>
    <use xlink:href="#DejaVuSans-2d" x="1832.076172"/>
    <use xlink:href="#DejaVuSans-4b" x="1868.160156"/>
    <use xlink:href="#DejaVuSans-72" x="1933.736328"/>
    <use xlink:href="#DejaVuSans-65" x="1972.599609"/>
    <use xlink:href="#DejaVuSans-69" x="2034.123047"/>
    <use xlink:href="#DejaVuSans-73" x="2061.90625"/>
   </g>
  </g>
 </g>
 <defs>
  <clipPath id="pbcd1de2200">
   <rect x="57.6" y="41.472" width="357.12" height="235.008"/>
  </clipPath>
 </defs>
</svg>
