<?xml version="1.0" encoding="utf-8" standalone="no"?>
<!DOCTYPE svg PUBLIC "-//W3C//DTD SVG 1.1//EN"
  "http://www.w3.org/Graphics/SVG/1.1/DTD/svg11.dtd">
<svg xmlns:xlink="http://www.w3.org/1999/xlink" width="460.8pt" height="345.6pt" viewBox="0 0 460.8 345.6" xmlns="http://www.w3.org/2000/svg" version="1.1">
 <metadata>
  <rdf:RDF xmlns:dc="http://purl.org/dc/elements/1.1/" xmlns:cc="http://creativecommons.org/ns#" xmlns:rdf="http://www.w3.org/1999/02/22-rdf-syntax-ns#">
   <cc:Work>
    <dc:type rdf:resource="http://purl.org/dc/dcmitype/StillImage"/>
    <dc:date>2022-08-24T09:22:24.278877</dc:date>
    <dc:format>image/svg+xml</dc:format>
    <dc:creator>
     <cc:Agent>
      <dc:title>Matplotlib v3.5.3, https://matplotlib.org/</dc:title>
     </cc:Agent>
    </dc:creator>
   </cc:Work>
  </rdf:RDF>
 </metadata>
 <defs>
  <style type="text/css">*{stroke-linejoin: round; stroke-linecap: butt}</style>
 </defs>
 <g id="figure_1">
  <g id="patch_1">
   <path d="M 0 345.6 
L 460.8 345.6 
L 460.8 0 
L 0 0 
z
" style="fill: #ffffff"/>
  </g>
  <g id="axes_1">
   <g id="patch_2">
    <path d="M 57.6 276.48 
L 414.72 276.48 
L 414.72 41.472 
L 57.6 41.472 
z
" style="fill: #ffffff"/>
   </g>
   <g id="matplotlib.axis_1">
    <g id="xtick_1">
     <g id="line2d_1">
      <path d="M 59.213097 276.48 
L 59.213097 41.472 
" clip-path="url(#p458cb7ea5a)" style="fill: none; stroke-dasharray: 2.96,1.28; stroke-dashoffset: 0; stroke: #808080; stroke-width: 0.8"/>
     </g>
     <g id="line2d_2">
      <defs>
       <path id="m058d7af906" d="M 0 0 
L 0 3.5 
" style="stroke: #000000; stroke-width: 0.8"/>
      </defs>
      <g>
       <use xlink:href="#m058d7af906" x="59.213097" y="276.48" style="stroke: #000000; stroke-width: 0.8"/>
      </g>
     </g>
     <g id="text_1">
      <!-- 22.01.2020 -->
      <g transform="translate(8.587887 318.688565)rotate(-30)scale(0.1 -0.1)">
       <defs>
        <path id="DejaVuSans-32" d="M 1228 531 
L 3431 531 
L 3431 0 
L 469 0 
L 469 531 
Q 828 903 1448 1529 
Q 2069 2156 2228 2338 
Q 2531 2678 2651 2914 
Q 2772 3150 2772 3378 
Q 2772 3750 2511 3984 
Q 2250 4219 1831 4219 
Q 1534 4219 1204 4116 
Q 875 4013 500 3803 
L 500 4441 
Q 881 4594 1212 4672 
Q 1544 4750 1819 4750 
Q 2544 4750 2975 4387 
Q 3406 4025 3406 3419 
Q 3406 3131 3298 2873 
Q 3191 2616 2906 2266 
Q 2828 2175 2409 1742 
Q 1991 1309 1228 531 
z
" transform="scale(0.015625)"/>
        <path id="DejaVuSans-2e" d="M 684 794 
L 1344 794 
L 1344 0 
L 684 0 
L 684 794 
z
" transform="scale(0.015625)"/>
        <path id="DejaVuSans-30" d="M 2034 4250 
Q 1547 4250 1301 3770 
Q 1056 3291 1056 2328 
Q 1056 1369 1301 889 
Q 1547 409 2034 409 
Q 2525 409 2770 889 
Q 3016 1369 3016 2328 
Q 3016 3291 2770 3770 
Q 2525 4250 2034 4250 
z
M 2034 4750 
Q 2819 4750 3233 4129 
Q 3647 3509 3647 2328 
Q 3647 1150 3233 529 
Q 2819 -91 2034 -91 
Q 1250 -91 836 529 
Q 422 1150 422 2328 
Q 422 3509 836 4129 
Q 1250 4750 2034 4750 
z
" transform="scale(0.015625)"/>
        <path id="DejaVuSans-31" d="M 794 531 
L 1825 531 
L 1825 4091 
L 703 3866 
L 703 4441 
L 1819 4666 
L 2450 4666 
L 2450 531 
L 3481 531 
L 3481 0 
L 794 0 
L 794 531 
z
" transform="scale(0.015625)"/>
       </defs>
       <use xlink:href="#DejaVuSans-32"/>
       <use xlink:href="#DejaVuSans-32" x="63.623047"/>
       <use xlink:href="#DejaVuSans-2e" x="127.246094"/>
       <use xlink:href="#DejaVuSans-30" x="159.033203"/>
       <use xlink:href="#DejaVuSans-31" x="222.65625"/>
       <use xlink:href="#DejaVuSans-2e" x="286.279297"/>
       <use xlink:href="#DejaVuSans-32" x="318.066406"/>
       <use xlink:href="#DejaVuSans-30" x="381.689453"/>
       <use xlink:href="#DejaVuSans-32" x="445.3125"/>
       <use xlink:href="#DejaVuSans-30" x="508.935547"/>
      </g>
     </g>
    </g>
    <g id="xtick_2">
     <g id="line2d_3">
      <path d="M 95.126211 276.48 
L 95.126211 41.472 
" clip-path="url(#p458cb7ea5a)" style="fill: none; stroke-dasharray: 2.96,1.28; stroke-dashoffset: 0; stroke: #808080; stroke-width: 0.8"/>
     </g>
     <g id="line2d_4">
      <g>
       <use xlink:href="#m058d7af906" x="95.126211" y="276.48" style="stroke: #000000; stroke-width: 0.8"/>
      </g>
     </g>
     <g id="text_2">
      <!-- 01.05.2020 -->
      <g transform="translate(44.501 318.688565)rotate(-30)scale(0.1 -0.1)">
       <defs>
        <path id="DejaVuSans-35" d="M 691 4666 
L 3169 4666 
L 3169 4134 
L 1269 4134 
L 1269 2991 
Q 1406 3038 1543 3061 
Q 1681 3084 1819 3084 
Q 2600 3084 3056 2656 
Q 3513 2228 3513 1497 
Q 3513 744 3044 326 
Q 2575 -91 1722 -91 
Q 1428 -91 1123 -41 
Q 819 9 494 109 
L 494 744 
Q 775 591 1075 516 
Q 1375 441 1709 441 
Q 2250 441 2565 725 
Q 2881 1009 2881 1497 
Q 2881 1984 2565 2268 
Q 2250 2553 1709 2553 
Q 1456 2553 1204 2497 
Q 953 2441 691 2322 
L 691 4666 
z
" transform="scale(0.015625)"/>
       </defs>
       <use xlink:href="#DejaVuSans-30"/>
       <use xlink:href="#DejaVuSans-31" x="63.623047"/>
       <use xlink:href="#DejaVuSans-2e" x="127.246094"/>
       <use xlink:href="#DejaVuSans-30" x="159.033203"/>
       <use xlink:href="#DejaVuSans-35" x="222.65625"/>
       <use xlink:href="#DejaVuSans-2e" x="286.279297"/>
       <use xlink:href="#DejaVuSans-32" x="318.066406"/>
       <use xlink:href="#DejaVuSans-30" x="381.689453"/>
       <use xlink:href="#DejaVuSans-32" x="445.3125"/>
       <use xlink:href="#DejaVuSans-30" x="508.935547"/>
      </g>
     </g>
    </g>
    <g id="xtick_3">
     <g id="line2d_5">
      <path d="M 131.039324 276.48 
L 131.039324 41.472 
" clip-path="url(#p458cb7ea5a)" style="fill: none; stroke-dasharray: 2.96,1.28; stroke-dashoffset: 0; stroke: #808080; stroke-width: 0.8"/>
     </g>
     <g id="line2d_6">
      <g>
       <use xlink:href="#m058d7af906" x="131.039324" y="276.48" style="stroke: #000000; stroke-width: 0.8"/>
      </g>
     </g>
     <g id="text_3">
      <!-- 09.08.2020 -->
      <g transform="translate(80.414113 318.688565)rotate(-30)scale(0.1 -0.1)">
       <defs>
        <path id="DejaVuSans-39" d="M 703 97 
L 703 672 
Q 941 559 1184 500 
Q 1428 441 1663 441 
Q 2288 441 2617 861 
Q 2947 1281 2994 2138 
Q 2813 1869 2534 1725 
Q 2256 1581 1919 1581 
Q 1219 1581 811 2004 
Q 403 2428 403 3163 
Q 403 3881 828 4315 
Q 1253 4750 1959 4750 
Q 2769 4750 3195 4129 
Q 3622 3509 3622 2328 
Q 3622 1225 3098 567 
Q 2575 -91 1691 -91 
Q 1453 -91 1209 -44 
Q 966 3 703 97 
z
M 1959 2075 
Q 2384 2075 2632 2365 
Q 2881 2656 2881 3163 
Q 2881 3666 2632 3958 
Q 2384 4250 1959 4250 
Q 1534 4250 1286 3958 
Q 1038 3666 1038 3163 
Q 1038 2656 1286 2365 
Q 1534 2075 1959 2075 
z
" transform="scale(0.015625)"/>
        <path id="DejaVuSans-38" d="M 2034 2216 
Q 1584 2216 1326 1975 
Q 1069 1734 1069 1313 
Q 1069 891 1326 650 
Q 1584 409 2034 409 
Q 2484 409 2743 651 
Q 3003 894 3003 1313 
Q 3003 1734 2745 1975 
Q 2488 2216 2034 2216 
z
M 1403 2484 
Q 997 2584 770 2862 
Q 544 3141 544 3541 
Q 544 4100 942 4425 
Q 1341 4750 2034 4750 
Q 2731 4750 3128 4425 
Q 3525 4100 3525 3541 
Q 3525 3141 3298 2862 
Q 3072 2584 2669 2484 
Q 3125 2378 3379 2068 
Q 3634 1759 3634 1313 
Q 3634 634 3220 271 
Q 2806 -91 2034 -91 
Q 1263 -91 848 271 
Q 434 634 434 1313 
Q 434 1759 690 2068 
Q 947 2378 1403 2484 
z
M 1172 3481 
Q 1172 3119 1398 2916 
Q 1625 2713 2034 2713 
Q 2441 2713 2670 2916 
Q 2900 3119 2900 3481 
Q 2900 3844 2670 4047 
Q 2441 4250 2034 4250 
Q 1625 4250 1398 4047 
Q 1172 3844 1172 3481 
z
" transform="scale(0.015625)"/>
       </defs>
       <use xlink:href="#DejaVuSans-30"/>
       <use xlink:href="#DejaVuSans-39" x="63.623047"/>
       <use xlink:href="#DejaVuSans-2e" x="127.246094"/>
       <use xlink:href="#DejaVuSans-30" x="159.033203"/>
       <use xlink:href="#DejaVuSans-38" x="222.65625"/>
       <use xlink:href="#DejaVuSans-2e" x="286.279297"/>
       <use xlink:href="#DejaVuSans-32" x="318.066406"/>
       <use xlink:href="#DejaVuSans-30" x="381.689453"/>
       <use xlink:href="#DejaVuSans-32" x="445.3125"/>
       <use xlink:href="#DejaVuSans-30" x="508.935547"/>
      </g>
     </g>
    </g>
    <g id="xtick_4">
     <g id="line2d_7">
      <path d="M 166.952438 276.48 
L 166.952438 41.472 
" clip-path="url(#p458cb7ea5a)" style="fill: none; stroke-dasharray: 2.96,1.28; stroke-dashoffset: 0; stroke: #808080; stroke-width: 0.8"/>
     </g>
     <g id="line2d_8">
      <g>
       <use xlink:href="#m058d7af906" x="166.952438" y="276.48" style="stroke: #000000; stroke-width: 0.8"/>
      </g>
     </g>
     <g id="text_4">
      <!-- 17.11.2020 -->
      <g transform="translate(116.327227 318.688565)rotate(-30)scale(0.1 -0.1)">
       <defs>
        <path id="DejaVuSans-37" d="M 525 4666 
L 3525 4666 
L 3525 4397 
L 1831 0 
L 1172 0 
L 2766 4134 
L 525 4134 
L 525 4666 
z
" transform="scale(0.015625)"/>
       </defs>
       <use xlink:href="#DejaVuSans-31"/>
       <use xlink:href="#DejaVuSans-37" x="63.623047"/>
       <use xlink:href="#DejaVuSans-2e" x="127.246094"/>
       <use xlink:href="#DejaVuSans-31" x="159.033203"/>
       <use xlink:href="#DejaVuSans-31" x="222.65625"/>
       <use xlink:href="#DejaVuSans-2e" x="286.279297"/>
       <use xlink:href="#DejaVuSans-32" x="318.066406"/>
       <use xlink:href="#DejaVuSans-30" x="381.689453"/>
       <use xlink:href="#DejaVuSans-32" x="445.3125"/>
       <use xlink:href="#DejaVuSans-30" x="508.935547"/>
      </g>
     </g>
    </g>
    <g id="xtick_5">
     <g id="line2d_9">
      <path d="M 202.865551 276.48 
L 202.865551 41.472 
" clip-path="url(#p458cb7ea5a)" style="fill: none; stroke-dasharray: 2.96,1.28; stroke-dashoffset: 0; stroke: #808080; stroke-width: 0.8"/>
     </g>
     <g id="line2d_10">
      <g>
       <use xlink:href="#m058d7af906" x="202.865551" y="276.48" style="stroke: #000000; stroke-width: 0.8"/>
      </g>
     </g>
     <g id="text_5">
      <!-- 25.02.2021 -->
      <g transform="translate(152.24034 318.688565)rotate(-30)scale(0.1 -0.1)">
       <use xlink:href="#DejaVuSans-32"/>
       <use xlink:href="#DejaVuSans-35" x="63.623047"/>
       <use xlink:href="#DejaVuSans-2e" x="127.246094"/>
       <use xlink:href="#DejaVuSans-30" x="159.033203"/>
       <use xlink:href="#DejaVuSans-32" x="222.65625"/>
       <use xlink:href="#DejaVuSans-2e" x="286.279297"/>
       <use xlink:href="#DejaVuSans-32" x="318.066406"/>
       <use xlink:href="#DejaVuSans-30" x="381.689453"/>
       <use xlink:href="#DejaVuSans-32" x="445.3125"/>
       <use xlink:href="#DejaVuSans-31" x="508.935547"/>
      </g>
     </g>
    </g>
    <g id="xtick_6">
     <g id="line2d_11">
      <path d="M 238.778665 276.48 
L 238.778665 41.472 
" clip-path="url(#p458cb7ea5a)" style="fill: none; stroke-dasharray: 2.96,1.28; stroke-dashoffset: 0; stroke: #808080; stroke-width: 0.8"/>
     </g>
     <g id="line2d_12">
      <g>
       <use xlink:href="#m058d7af906" x="238.778665" y="276.48" style="stroke: #000000; stroke-width: 0.8"/>
      </g>
     </g>
     <g id="text_6">
      <!-- 05.06.2021 -->
      <g transform="translate(188.153454 318.688565)rotate(-30)scale(0.1 -0.1)">
       <defs>
        <path id="DejaVuSans-36" d="M 2113 2584 
Q 1688 2584 1439 2293 
Q 1191 2003 1191 1497 
Q 1191 994 1439 701 
Q 1688 409 2113 409 
Q 2538 409 2786 701 
Q 3034 994 3034 1497 
Q 3034 2003 2786 2293 
Q 2538 2584 2113 2584 
z
M 3366 4563 
L 3366 3988 
Q 3128 4100 2886 4159 
Q 2644 4219 2406 4219 
Q 1781 4219 1451 3797 
Q 1122 3375 1075 2522 
Q 1259 2794 1537 2939 
Q 1816 3084 2150 3084 
Q 2853 3084 3261 2657 
Q 3669 2231 3669 1497 
Q 3669 778 3244 343 
Q 2819 -91 2113 -91 
Q 1303 -91 875 529 
Q 447 1150 447 2328 
Q 447 3434 972 4092 
Q 1497 4750 2381 4750 
Q 2619 4750 2861 4703 
Q 3103 4656 3366 4563 
z
" transform="scale(0.015625)"/>
       </defs>
       <use xlink:href="#DejaVuSans-30"/>
       <use xlink:href="#DejaVuSans-35" x="63.623047"/>
       <use xlink:href="#DejaVuSans-2e" x="127.246094"/>
       <use xlink:href="#DejaVuSans-30" x="159.033203"/>
       <use xlink:href="#DejaVuSans-36" x="222.65625"/>
       <use xlink:href="#DejaVuSans-2e" x="286.279297"/>
       <use xlink:href="#DejaVuSans-32" x="318.066406"/>
       <use xlink:href="#DejaVuSans-30" x="381.689453"/>
       <use xlink:href="#DejaVuSans-32" x="445.3125"/>
       <use xlink:href="#DejaVuSans-31" x="508.935547"/>
      </g>
     </g>
    </g>
    <g id="xtick_7">
     <g id="line2d_13">
      <path d="M 274.691778 276.48 
L 274.691778 41.472 
" clip-path="url(#p458cb7ea5a)" style="fill: none; stroke-dasharray: 2.96,1.28; stroke-dashoffset: 0; stroke: #808080; stroke-width: 0.8"/>
     </g>
     <g id="line2d_14">
      <g>
       <use xlink:href="#m058d7af906" x="274.691778" y="276.48" style="stroke: #000000; stroke-width: 0.8"/>
      </g>
     </g>
     <g id="text_7">
      <!-- 13.09.2021 -->
      <g transform="translate(224.066567 318.688565)rotate(-30)scale(0.1 -0.1)">
       <defs>
        <path id="DejaVuSans-33" d="M 2597 2516 
Q 3050 2419 3304 2112 
Q 3559 1806 3559 1356 
Q 3559 666 3084 287 
Q 2609 -91 1734 -91 
Q 1441 -91 1130 -33 
Q 819 25 488 141 
L 488 750 
Q 750 597 1062 519 
Q 1375 441 1716 441 
Q 2309 441 2620 675 
Q 2931 909 2931 1356 
Q 2931 1769 2642 2001 
Q 2353 2234 1838 2234 
L 1294 2234 
L 1294 2753 
L 1863 2753 
Q 2328 2753 2575 2939 
Q 2822 3125 2822 3475 
Q 2822 3834 2567 4026 
Q 2313 4219 1838 4219 
Q 1578 4219 1281 4162 
Q 984 4106 628 3988 
L 628 4550 
Q 988 4650 1302 4700 
Q 1616 4750 1894 4750 
Q 2613 4750 3031 4423 
Q 3450 4097 3450 3541 
Q 3450 3153 3228 2886 
Q 3006 2619 2597 2516 
z
" transform="scale(0.015625)"/>
       </defs>
       <use xlink:href="#DejaVuSans-31"/>
       <use xlink:href="#DejaVuSans-33" x="63.623047"/>
       <use xlink:href="#DejaVuSans-2e" x="127.246094"/>
       <use xlink:href="#DejaVuSans-30" x="159.033203"/>
       <use xlink:href="#DejaVuSans-39" x="222.65625"/>
       <use xlink:href="#DejaVuSans-2e" x="286.279297"/>
       <use xlink:href="#DejaVuSans-32" x="318.066406"/>
       <use xlink:href="#DejaVuSans-30" x="381.689453"/>
       <use xlink:href="#DejaVuSans-32" x="445.3125"/>
       <use xlink:href="#DejaVuSans-31" x="508.935547"/>
      </g>
     </g>
    </g>
    <g id="xtick_8">
     <g id="line2d_15">
      <path d="M 310.604891 276.48 
L 310.604891 41.472 
" clip-path="url(#p458cb7ea5a)" style="fill: none; stroke-dasharray: 2.96,1.28; stroke-dashoffset: 0; stroke: #808080; stroke-width: 0.8"/>
     </g>
     <g id="line2d_16">
      <g>
       <use xlink:href="#m058d7af906" x="310.604891" y="276.48" style="stroke: #000000; stroke-width: 0.8"/>
      </g>
     </g>
     <g id="text_8">
      <!-- 22.12.2021 -->
      <g transform="translate(259.979681 318.688565)rotate(-30)scale(0.1 -0.1)">
       <use xlink:href="#DejaVuSans-32"/>
       <use xlink:href="#DejaVuSans-32" x="63.623047"/>
       <use xlink:href="#DejaVuSans-2e" x="127.246094"/>
       <use xlink:href="#DejaVuSans-31" x="159.033203"/>
       <use xlink:href="#DejaVuSans-32" x="222.65625"/>
       <use xlink:href="#DejaVuSans-2e" x="286.279297"/>
       <use xlink:href="#DejaVuSans-32" x="318.066406"/>
       <use xlink:href="#DejaVuSans-30" x="381.689453"/>
       <use xlink:href="#DejaVuSans-32" x="445.3125"/>
       <use xlink:href="#DejaVuSans-31" x="508.935547"/>
      </g>
     </g>
    </g>
    <g id="xtick_9">
     <g id="line2d_17">
      <path d="M 346.518005 276.48 
L 346.518005 41.472 
" clip-path="url(#p458cb7ea5a)" style="fill: none; stroke-dasharray: 2.96,1.28; stroke-dashoffset: 0; stroke: #808080; stroke-width: 0.8"/>
     </g>
     <g id="line2d_18">
      <g>
       <use xlink:href="#m058d7af906" x="346.518005" y="276.48" style="stroke: #000000; stroke-width: 0.8"/>
      </g>
     </g>
     <g id="text_9">
      <!-- 01.04.2022 -->
      <g transform="translate(295.892794 318.688565)rotate(-30)scale(0.1 -0.1)">
       <defs>
        <path id="DejaVuSans-34" d="M 2419 4116 
L 825 1625 
L 2419 1625 
L 2419 4116 
z
M 2253 4666 
L 3047 4666 
L 3047 1625 
L 3713 1625 
L 3713 1100 
L 3047 1100 
L 3047 0 
L 2419 0 
L 2419 1100 
L 313 1100 
L 313 1709 
L 2253 4666 
z
" transform="scale(0.015625)"/>
       </defs>
       <use xlink:href="#DejaVuSans-30"/>
       <use xlink:href="#DejaVuSans-31" x="63.623047"/>
       <use xlink:href="#DejaVuSans-2e" x="127.246094"/>
       <use xlink:href="#DejaVuSans-30" x="159.033203"/>
       <use xlink:href="#DejaVuSans-34" x="222.65625"/>
       <use xlink:href="#DejaVuSans-2e" x="286.279297"/>
       <use xlink:href="#DejaVuSans-32" x="318.066406"/>
       <use xlink:href="#DejaVuSans-30" x="381.689453"/>
       <use xlink:href="#DejaVuSans-32" x="445.3125"/>
       <use xlink:href="#DejaVuSans-32" x="508.935547"/>
      </g>
     </g>
    </g>
    <g id="xtick_10">
     <g id="line2d_19">
      <path d="M 382.431118 276.48 
L 382.431118 41.472 
" clip-path="url(#p458cb7ea5a)" style="fill: none; stroke-dasharray: 2.96,1.28; stroke-dashoffset: 0; stroke: #808080; stroke-width: 0.8"/>
     </g>
     <g id="line2d_20">
      <g>
       <use xlink:href="#m058d7af906" x="382.431118" y="276.48" style="stroke: #000000; stroke-width: 0.8"/>
      </g>
     </g>
     <g id="text_10">
      <!-- 10.07.2022 -->
      <g transform="translate(331.805907 318.688565)rotate(-30)scale(0.1 -0.1)">
       <use xlink:href="#DejaVuSans-31"/>
       <use xlink:href="#DejaVuSans-30" x="63.623047"/>
       <use xlink:href="#DejaVuSans-2e" x="127.246094"/>
       <use xlink:href="#DejaVuSans-30" x="159.033203"/>
       <use xlink:href="#DejaVuSans-37" x="222.65625"/>
       <use xlink:href="#DejaVuSans-2e" x="286.279297"/>
       <use xlink:href="#DejaVuSans-32" x="318.066406"/>
       <use xlink:href="#DejaVuSans-30" x="381.689453"/>
       <use xlink:href="#DejaVuSans-32" x="445.3125"/>
       <use xlink:href="#DejaVuSans-32" x="508.935547"/>
      </g>
     </g>
    </g>
   </g>
   <g id="matplotlib.axis_2">
    <g id="ytick_1">
     <g id="line2d_21">
      <path d="M 57.6 265.797818 
L 414.72 265.797818 
" clip-path="url(#p458cb7ea5a)" style="fill: none; stroke-dasharray: 2.96,1.28; stroke-dashoffset: 0; stroke: #808080; stroke-width: 0.8"/>
     </g>
     <g id="line2d_22">
      <defs>
       <path id="m95f1d7ef18" d="M 0 0 
L -3.5 0 
" style="stroke: #000000; stroke-width: 0.8"/>
      </defs>
      <g>
       <use xlink:href="#m95f1d7ef18" x="57.6" y="265.797818" style="stroke: #000000; stroke-width: 0.8"/>
      </g>
     </g>
     <g id="text_11">
      <!-- 0 -->
      <g transform="translate(44.2375 269.597037)scale(0.1 -0.1)">
       <use xlink:href="#DejaVuSans-30"/>
      </g>
     </g>
    </g>
    <g id="ytick_2">
     <g id="line2d_23">
      <path d="M 57.6 219.637674 
L 414.72 219.637674 
" clip-path="url(#p458cb7ea5a)" style="fill: none; stroke-dasharray: 2.96,1.28; stroke-dashoffset: 0; stroke: #808080; stroke-width: 0.8"/>
     </g>
     <g id="line2d_24">
      <g>
       <use xlink:href="#m95f1d7ef18" x="57.6" y="219.637674" style="stroke: #000000; stroke-width: 0.8"/>
      </g>
     </g>
     <g id="text_12">
      <!-- 500 -->
      <g transform="translate(31.5125 223.436892)scale(0.1 -0.1)">
       <use xlink:href="#DejaVuSans-35"/>
       <use xlink:href="#DejaVuSans-30" x="63.623047"/>
       <use xlink:href="#DejaVuSans-30" x="127.246094"/>
      </g>
     </g>
    </g>
    <g id="ytick_3">
     <g id="line2d_25">
      <path d="M 57.6 173.477529 
L 414.72 173.477529 
" clip-path="url(#p458cb7ea5a)" style="fill: none; stroke-dasharray: 2.96,1.28; stroke-dashoffset: 0; stroke: #808080; stroke-width: 0.8"/>
     </g>
     <g id="line2d_26">
      <g>
       <use xlink:href="#m95f1d7ef18" x="57.6" y="173.477529" style="stroke: #000000; stroke-width: 0.8"/>
      </g>
     </g>
     <g id="text_13">
      <!-- 1000 -->
      <g transform="translate(25.15 177.276748)scale(0.1 -0.1)">
       <use xlink:href="#DejaVuSans-31"/>
       <use xlink:href="#DejaVuSans-30" x="63.623047"/>
       <use xlink:href="#DejaVuSans-30" x="127.246094"/>
       <use xlink:href="#DejaVuSans-30" x="190.869141"/>
      </g>
     </g>
    </g>
    <g id="ytick_4">
     <g id="line2d_27">
      <path d="M 57.6 127.317385 
L 414.72 127.317385 
" clip-path="url(#p458cb7ea5a)" style="fill: none; stroke-dasharray: 2.96,1.28; stroke-dashoffset: 0; stroke: #808080; stroke-width: 0.8"/>
     </g>
     <g id="line2d_28">
      <g>
       <use xlink:href="#m95f1d7ef18" x="57.6" y="127.317385" style="stroke: #000000; stroke-width: 0.8"/>
      </g>
     </g>
     <g id="text_14">
      <!-- 1500 -->
      <g transform="translate(25.15 131.116603)scale(0.1 -0.1)">
       <use xlink:href="#DejaVuSans-31"/>
       <use xlink:href="#DejaVuSans-35" x="63.623047"/>
       <use xlink:href="#DejaVuSans-30" x="127.246094"/>
       <use xlink:href="#DejaVuSans-30" x="190.869141"/>
      </g>
     </g>
    </g>
    <g id="ytick_5">
     <g id="line2d_29">
      <path d="M 57.6 81.15724 
L 414.72 81.15724 
" clip-path="url(#p458cb7ea5a)" style="fill: none; stroke-dasharray: 2.96,1.28; stroke-dashoffset: 0; stroke: #808080; stroke-width: 0.8"/>
     </g>
     <g id="line2d_30">
      <g>
       <use xlink:href="#m95f1d7ef18" x="57.6" y="81.15724" style="stroke: #000000; stroke-width: 0.8"/>
      </g>
     </g>
     <g id="text_15">
      <!-- 2000 -->
      <g transform="translate(25.15 84.956459)scale(0.1 -0.1)">
       <use xlink:href="#DejaVuSans-32"/>
       <use xlink:href="#DejaVuSans-30" x="63.623047"/>
       <use xlink:href="#DejaVuSans-30" x="127.246094"/>
       <use xlink:href="#DejaVuSans-30" x="190.869141"/>
      </g>
     </g>
    </g>
    <g id="text_16">
     <!-- Inzidenz pro 7 Tage pro 100.000 Einwohner -->
     <g transform="translate(19.070312 267.301)rotate(-90)scale(0.1 -0.1)">
      <defs>
       <path id="DejaVuSans-49" d="M 628 4666 
L 1259 4666 
L 1259 0 
L 628 0 
L 628 4666 
z
" transform="scale(0.015625)"/>
       <path id="DejaVuSans-6e" d="M 3513 2113 
L 3513 0 
L 2938 0 
L 2938 2094 
Q 2938 2591 2744 2837 
Q 2550 3084 2163 3084 
Q 1697 3084 1428 2787 
Q 1159 2491 1159 1978 
L 1159 0 
L 581 0 
L 581 3500 
L 1159 3500 
L 1159 2956 
Q 1366 3272 1645 3428 
Q 1925 3584 2291 3584 
Q 2894 3584 3203 3211 
Q 3513 2838 3513 2113 
z
" transform="scale(0.015625)"/>
       <path id="DejaVuSans-7a" d="M 353 3500 
L 3084 3500 
L 3084 2975 
L 922 459 
L 3084 459 
L 3084 0 
L 275 0 
L 275 525 
L 2438 3041 
L 353 3041 
L 353 3500 
z
" transform="scale(0.015625)"/>
       <path id="DejaVuSans-69" d="M 603 3500 
L 1178 3500 
L 1178 0 
L 603 0 
L 603 3500 
z
M 603 4863 
L 1178 4863 
L 1178 4134 
L 603 4134 
L 603 4863 
z
" transform="scale(0.015625)"/>
       <path id="DejaVuSans-64" d="M 2906 2969 
L 2906 4863 
L 3481 4863 
L 3481 0 
L 2906 0 
L 2906 525 
Q 2725 213 2448 61 
Q 2172 -91 1784 -91 
Q 1150 -91 751 415 
Q 353 922 353 1747 
Q 353 2572 751 3078 
Q 1150 3584 1784 3584 
Q 2172 3584 2448 3432 
Q 2725 3281 2906 2969 
z
M 947 1747 
Q 947 1113 1208 752 
Q 1469 391 1925 391 
Q 2381 391 2643 752 
Q 2906 1113 2906 1747 
Q 2906 2381 2643 2742 
Q 2381 3103 1925 3103 
Q 1469 3103 1208 2742 
Q 947 2381 947 1747 
z
" transform="scale(0.015625)"/>
       <path id="DejaVuSans-65" d="M 3597 1894 
L 3597 1613 
L 953 1613 
Q 991 1019 1311 708 
Q 1631 397 2203 397 
Q 2534 397 2845 478 
Q 3156 559 3463 722 
L 3463 178 
Q 3153 47 2828 -22 
Q 2503 -91 2169 -91 
Q 1331 -91 842 396 
Q 353 884 353 1716 
Q 353 2575 817 3079 
Q 1281 3584 2069 3584 
Q 2775 3584 3186 3129 
Q 3597 2675 3597 1894 
z
M 3022 2063 
Q 3016 2534 2758 2815 
Q 2500 3097 2075 3097 
Q 1594 3097 1305 2825 
Q 1016 2553 972 2059 
L 3022 2063 
z
" transform="scale(0.015625)"/>
       <path id="DejaVuSans-20" transform="scale(0.015625)"/>
       <path id="DejaVuSans-70" d="M 1159 525 
L 1159 -1331 
L 581 -1331 
L 581 3500 
L 1159 3500 
L 1159 2969 
Q 1341 3281 1617 3432 
Q 1894 3584 2278 3584 
Q 2916 3584 3314 3078 
Q 3713 2572 3713 1747 
Q 3713 922 3314 415 
Q 2916 -91 2278 -91 
Q 1894 -91 1617 61 
Q 1341 213 1159 525 
z
M 3116 1747 
Q 3116 2381 2855 2742 
Q 2594 3103 2138 3103 
Q 1681 3103 1420 2742 
Q 1159 2381 1159 1747 
Q 1159 1113 1420 752 
Q 1681 391 2138 391 
Q 2594 391 2855 752 
Q 3116 1113 3116 1747 
z
" transform="scale(0.015625)"/>
       <path id="DejaVuSans-72" d="M 2631 2963 
Q 2534 3019 2420 3045 
Q 2306 3072 2169 3072 
Q 1681 3072 1420 2755 
Q 1159 2438 1159 1844 
L 1159 0 
L 581 0 
L 581 3500 
L 1159 3500 
L 1159 2956 
Q 1341 3275 1631 3429 
Q 1922 3584 2338 3584 
Q 2397 3584 2469 3576 
Q 2541 3569 2628 3553 
L 2631 2963 
z
" transform="scale(0.015625)"/>
       <path id="DejaVuSans-6f" d="M 1959 3097 
Q 1497 3097 1228 2736 
Q 959 2375 959 1747 
Q 959 1119 1226 758 
Q 1494 397 1959 397 
Q 2419 397 2687 759 
Q 2956 1122 2956 1747 
Q 2956 2369 2687 2733 
Q 2419 3097 1959 3097 
z
M 1959 3584 
Q 2709 3584 3137 3096 
Q 3566 2609 3566 1747 
Q 3566 888 3137 398 
Q 2709 -91 1959 -91 
Q 1206 -91 779 398 
Q 353 888 353 1747 
Q 353 2609 779 3096 
Q 1206 3584 1959 3584 
z
" transform="scale(0.015625)"/>
       <path id="DejaVuSans-54" d="M -19 4666 
L 3928 4666 
L 3928 4134 
L 2272 4134 
L 2272 0 
L 1638 0 
L 1638 4134 
L -19 4134 
L -19 4666 
z
" transform="scale(0.015625)"/>
       <path id="DejaVuSans-61" d="M 2194 1759 
Q 1497 1759 1228 1600 
Q 959 1441 959 1056 
Q 959 750 1161 570 
Q 1363 391 1709 391 
Q 2188 391 2477 730 
Q 2766 1069 2766 1631 
L 2766 1759 
L 2194 1759 
z
M 3341 1997 
L 3341 0 
L 2766 0 
L 2766 531 
Q 2569 213 2275 61 
Q 1981 -91 1556 -91 
Q 1019 -91 701 211 
Q 384 513 384 1019 
Q 384 1609 779 1909 
Q 1175 2209 1959 2209 
L 2766 2209 
L 2766 2266 
Q 2766 2663 2505 2880 
Q 2244 3097 1772 3097 
Q 1472 3097 1187 3025 
Q 903 2953 641 2809 
L 641 3341 
Q 956 3463 1253 3523 
Q 1550 3584 1831 3584 
Q 2591 3584 2966 3190 
Q 3341 2797 3341 1997 
z
" transform="scale(0.015625)"/>
       <path id="DejaVuSans-67" d="M 2906 1791 
Q 2906 2416 2648 2759 
Q 2391 3103 1925 3103 
Q 1463 3103 1205 2759 
Q 947 2416 947 1791 
Q 947 1169 1205 825 
Q 1463 481 1925 481 
Q 2391 481 2648 825 
Q 2906 1169 2906 1791 
z
M 3481 434 
Q 3481 -459 3084 -895 
Q 2688 -1331 1869 -1331 
Q 1566 -1331 1297 -1286 
Q 1028 -1241 775 -1147 
L 775 -588 
Q 1028 -725 1275 -790 
Q 1522 -856 1778 -856 
Q 2344 -856 2625 -561 
Q 2906 -266 2906 331 
L 2906 616 
Q 2728 306 2450 153 
Q 2172 0 1784 0 
Q 1141 0 747 490 
Q 353 981 353 1791 
Q 353 2603 747 3093 
Q 1141 3584 1784 3584 
Q 2172 3584 2450 3431 
Q 2728 3278 2906 2969 
L 2906 3500 
L 3481 3500 
L 3481 434 
z
" transform="scale(0.015625)"/>
       <path id="DejaVuSans-45" d="M 628 4666 
L 3578 4666 
L 3578 4134 
L 1259 4134 
L 1259 2753 
L 3481 2753 
L 3481 2222 
L 1259 2222 
L 1259 531 
L 3634 531 
L 3634 0 
L 628 0 
L 628 4666 
z
" transform="scale(0.015625)"/>
       <path id="DejaVuSans-77" d="M 269 3500 
L 844 3500 
L 1563 769 
L 2278 3500 
L 2956 3500 
L 3675 769 
L 4391 3500 
L 4966 3500 
L 4050 0 
L 3372 0 
L 2619 2869 
L 1863 0 
L 1184 0 
L 269 3500 
z
" transform="scale(0.015625)"/>
       <path id="DejaVuSans-68" d="M 3513 2113 
L 3513 0 
L 2938 0 
L 2938 2094 
Q 2938 2591 2744 2837 
Q 2550 3084 2163 3084 
Q 1697 3084 1428 2787 
Q 1159 2491 1159 1978 
L 1159 0 
L 581 0 
L 581 4863 
L 1159 4863 
L 1159 2956 
Q 1366 3272 1645 3428 
Q 1925 3584 2291 3584 
Q 2894 3584 3203 3211 
Q 3513 2838 3513 2113 
z
" transform="scale(0.015625)"/>
      </defs>
      <use xlink:href="#DejaVuSans-49"/>
      <use xlink:href="#DejaVuSans-6e" x="29.492188"/>
      <use xlink:href="#DejaVuSans-7a" x="92.871094"/>
      <use xlink:href="#DejaVuSans-69" x="145.361328"/>
      <use xlink:href="#DejaVuSans-64" x="173.144531"/>
      <use xlink:href="#DejaVuSans-65" x="236.621094"/>
      <use xlink:href="#DejaVuSans-6e" x="298.144531"/>
      <use xlink:href="#DejaVuSans-7a" x="361.523438"/>
      <use xlink:href="#DejaVuSans-20" x="414.013672"/>
      <use xlink:href="#DejaVuSans-70" x="445.800781"/>
      <use xlink:href="#DejaVuSans-72" x="509.277344"/>
      <use xlink:href="#DejaVuSans-6f" x="548.140625"/>
      <use xlink:href="#DejaVuSans-20" x="609.322266"/>
      <use xlink:href="#DejaVuSans-37" x="641.109375"/>
      <use xlink:href="#DejaVuSans-20" x="704.732422"/>
      <use xlink:href="#DejaVuSans-54" x="736.519531"/>
      <use xlink:href="#DejaVuSans-61" x="781.103516"/>
      <use xlink:href="#DejaVuSans-67" x="842.382812"/>
      <use xlink:href="#DejaVuSans-65" x="905.859375"/>
      <use xlink:href="#DejaVuSans-20" x="967.382812"/>
      <use xlink:href="#DejaVuSans-70" x="999.169922"/>
      <use xlink:href="#DejaVuSans-72" x="1062.646484"/>
      <use xlink:href="#DejaVuSans-6f" x="1101.509766"/>
      <use xlink:href="#DejaVuSans-20" x="1162.691406"/>
      <use xlink:href="#DejaVuSans-31" x="1194.478516"/>
      <use xlink:href="#DejaVuSans-30" x="1258.101562"/>
      <use xlink:href="#DejaVuSans-30" x="1321.724609"/>
      <use xlink:href="#DejaVuSans-2e" x="1385.347656"/>
      <use xlink:href="#DejaVuSans-30" x="1417.134766"/>
      <use xlink:href="#DejaVuSans-30" x="1480.757812"/>
      <use xlink:href="#DejaVuSans-30" x="1544.380859"/>
      <use xlink:href="#DejaVuSans-20" x="1608.003906"/>
      <use xlink:href="#DejaVuSans-45" x="1639.791016"/>
      <use xlink:href="#DejaVuSans-69" x="1702.974609"/>
      <use xlink:href="#DejaVuSans-6e" x="1730.757812"/>
      <use xlink:href="#DejaVuSans-77" x="1794.136719"/>
      <use xlink:href="#DejaVuSans-6f" x="1875.923828"/>
      <use xlink:href="#DejaVuSans-68" x="1937.105469"/>
      <use xlink:href="#DejaVuSans-6e" x="2000.484375"/>
      <use xlink:href="#DejaVuSans-65" x="2063.863281"/>
      <use xlink:href="#DejaVuSans-72" x="2125.386719"/>
     </g>
    </g>
   </g>
   <g id="line2d_31">
    <path d="M 73.832727 265.797818 
L 76.346645 265.727285 
L 77.064907 265.515687 
L 78.501432 265.515687 
L 78.860563 265.374622 
L 79.578825 265.304089 
L 80.297088 264.880893 
L 80.656219 264.457696 
L 81.374481 264.316631 
L 81.733612 263.963967 
L 82.811006 262.412247 
L 83.170137 259.873069 
L 84.24753 259.943602 
L 84.606661 259.238274 
L 84.965792 259.167742 
L 85.324924 259.520405 
L 85.684055 262.059584 
L 86.043186 262.059584 
L 86.402317 262.412247 
L 86.761448 262.271182 
L 87.120579 263.399705 
L 87.47971 263.822902 
L 87.838842 263.893434 
L 88.197973 264.105033 
L 88.916235 264.175565 
L 89.275366 264.598762 
L 90.711891 264.81036 
L 92.148415 264.880893 
L 92.507546 264.669295 
L 93.225809 264.951425 
L 94.303202 264.81036 
L 94.662333 264.81036 
L 95.021464 265.233556 
L 96.098858 265.515687 
L 96.457989 265.656753 
L 97.176251 265.58622 
L 98.612776 265.374622 
L 99.331038 265.445155 
L 100.408431 265.58622 
L 104.358874 265.656753 
L 105.436267 265.797818 
L 107.950185 265.727285 
L 108.668447 265.656753 
L 109.38671 265.727285 
L 113.337152 265.656753 
L 114.055414 265.58622 
L 114.414545 264.81036 
L 114.773677 264.316631 
L 115.491939 262.412247 
L 115.85107 262.341714 
L 116.210201 262.412247 
L 116.569332 262.341714 
L 116.928463 263.047042 
L 117.646726 263.540771 
L 118.005857 264.246098 
L 118.364988 264.387164 
L 119.801512 264.457696 
L 120.160644 265.092491 
L 120.519775 265.445155 
L 121.238037 265.374622 
L 121.597168 265.445155 
L 121.956299 265.374622 
L 122.31543 265.092491 
L 122.674562 265.163024 
L 123.033693 265.092491 
L 124.470217 265.374622 
L 124.829348 265.656753 
L 126.265873 265.727285 
L 126.625004 265.515687 
L 126.984135 265.163024 
L 127.343266 265.163024 
L 127.702397 264.880893 
L 128.061529 264.387164 
L 128.779791 264.316631 
L 129.138922 264.457696 
L 129.857184 264.175565 
L 130.216315 264.316631 
L 130.575447 263.893434 
L 131.293709 263.963967 
L 131.65284 263.681836 
L 132.011971 263.893434 
L 132.371102 263.822902 
L 132.730233 263.117574 
L 133.089364 263.963967 
L 133.807627 263.893434 
L 134.88502 264.598762 
L 135.244151 265.445155 
L 135.603282 265.304089 
L 135.962414 264.316631 
L 136.680676 264.387164 
L 137.039807 264.175565 
L 138.1172 264.246098 
L 138.476331 265.233556 
L 139.194594 265.304089 
L 139.912856 265.515687 
L 140.271987 265.304089 
L 140.631118 264.951425 
L 141.349381 264.81036 
L 141.708512 264.246098 
L 142.067643 264.316631 
L 142.426774 264.246098 
L 142.785905 264.457696 
L 143.145036 264.880893 
L 143.863298 264.951425 
L 144.22243 265.445155 
L 145.299823 265.445155 
L 145.658954 264.739827 
L 146.018085 264.880893 
L 147.45461 264.316631 
L 147.813741 263.963967 
L 148.172872 264.316631 
L 148.532003 264.246098 
L 148.891134 264.387164 
L 149.250265 263.752369 
L 149.609397 263.611304 
L 149.968528 263.681836 
L 150.327659 263.470238 
L 150.68679 263.540771 
L 151.764183 262.905976 
L 152.123315 262.341714 
L 152.482446 261.142658 
L 152.841577 261.142658 
L 153.200708 260.578396 
L 153.559839 260.225733 
L 153.91897 260.366798 
L 154.278101 261.001593 
L 154.637233 260.648929 
L 154.996364 261.142658 
L 155.355495 261.001593 
L 156.073757 259.732003 
L 156.432888 259.661471 
L 156.792019 258.391882 
L 157.15115 258.250816 
L 157.510282 257.122293 
L 157.869413 254.300983 
L 158.587675 252.537665 
L 158.946806 251.761805 
L 159.305937 252.185001 
L 159.665068 251.832338 
L 160.0242 250.985945 
L 160.742462 252.678731 
L 161.101593 254.018852 
L 161.819855 254.865245 
L 162.178986 253.94832 
L 162.538117 254.230451 
L 162.897249 255.147376 
L 163.25638 254.865245 
L 163.615511 254.794712 
L 163.974642 254.089385 
L 164.333773 254.230451 
L 164.692904 256.699096 
L 165.411167 252.3966 
L 165.770298 252.537665 
L 166.129429 253.313525 
L 166.48856 254.442049 
L 166.847691 252.043936 
L 167.206822 251.409141 
L 167.925084 257.404423 
L 168.284216 258.321349 
L 168.643347 256.487498 
L 169.002478 256.487498 
L 169.361609 258.815078 
L 169.72074 257.333891 
L 170.079871 257.192825 
L 170.439002 256.487498 
L 170.798134 257.404423 
L 171.157265 256.910694 
L 171.875527 256.981227 
L 172.234658 258.039218 
L 172.593789 258.039218 
L 172.95292 257.686554 
L 173.312051 256.628563 
L 173.671183 258.956143 
L 174.030314 256.416965 
L 174.748576 254.230451 
L 175.107707 254.371516 
L 175.466838 254.300983 
L 176.185101 252.255534 
L 176.544232 254.72418 
L 176.903363 254.300983 
L 177.262494 254.794712 
L 177.980756 248.79943 
L 178.339887 244.990663 
L 178.699019 245.69599 
L 179.05815 245.766523 
L 179.417281 240.758699 
L 179.776412 240.053372 
L 180.135543 240.829232 
L 180.853805 252.185001 
L 181.212936 252.467132 
L 181.572068 252.467132 
L 181.931199 255.147376 
L 182.29033 253.877787 
L 182.649461 255.217909 
L 183.008592 252.749263 
L 183.367723 252.749263 
L 183.726854 252.326067 
L 184.085986 252.255534 
L 184.445117 255.429507 
L 184.804248 257.333891 
L 185.163379 258.180283 
L 185.52251 259.449873 
L 186.240772 256.558031 
L 186.599903 256.628563 
L 186.959035 254.442049 
L 187.318166 253.031394 
L 187.677297 252.960861 
L 188.036428 253.384058 
L 188.395559 253.17246 
L 188.75469 254.794712 
L 189.113821 254.371516 
L 189.472953 257.404423 
L 189.832084 259.167742 
L 190.191215 258.180283 
L 190.909477 257.263358 
L 191.268608 257.474956 
L 191.627739 257.474956 
L 191.98687 257.686554 
L 192.346002 258.462414 
L 192.705133 258.956143 
L 193.064264 258.60348 
L 193.423395 259.238274 
L 193.782526 258.815078 
L 194.500788 259.238274 
L 194.85992 258.885611 
L 195.578182 261.565854 
L 195.937313 262.271182 
L 196.296444 262.200649 
L 196.655575 262.412247 
L 197.014706 261.918518 
L 197.373837 262.412247 
L 197.732969 261.354256 
L 198.451231 260.225733 
L 198.810362 260.366798 
L 199.169493 260.225733 
L 199.528624 260.719462 
L 199.887755 260.366798 
L 200.246887 260.93106 
L 200.606018 260.860527 
L 200.965149 261.777453 
L 201.683411 261.777453 
L 202.042542 261.918518 
L 202.401673 261.847985 
L 202.760805 261.565854 
L 203.119936 261.636387 
L 203.479067 261.072125 
L 204.197329 261.001593 
L 204.915591 260.225733 
L 205.274722 261.142658 
L 205.633854 261.001593 
L 205.992985 261.354256 
L 206.352116 261.354256 
L 206.711247 261.213191 
L 207.070378 260.437331 
L 207.429509 261.072125 
L 207.78864 260.648929 
L 208.147772 260.437331 
L 208.506903 260.084667 
L 208.866034 260.014134 
L 209.225165 259.449873 
L 209.584296 260.578396 
L 209.943427 258.039218 
L 210.302558 257.474956 
L 210.661689 257.192825 
L 211.020821 256.205367 
L 211.379952 256.134834 
L 211.739083 256.2759 
L 212.098214 255.711638 
L 212.457345 256.910694 
L 212.816476 255.429507 
L 213.175607 252.3966 
L 213.534739 251.409141 
L 213.89387 249.363692 
L 214.253001 249.011029 
L 214.612132 247.670907 
L 215.330394 246.96558 
L 216.048656 249.716356 
L 216.407788 251.761805 
L 216.766919 252.114469 
L 217.12605 253.736722 
L 217.485181 253.877787 
L 217.844312 254.300983 
L 218.562574 253.666189 
L 218.921706 252.537665 
L 219.280837 252.890329 
L 219.639968 252.467132 
L 219.999099 251.268076 
L 220.35823 251.338609 
L 220.717361 252.960861 
L 221.076492 253.313525 
L 221.435623 253.101927 
L 221.794755 253.384058 
L 222.153886 253.101927 
L 222.513017 254.794712 
L 222.872148 253.877787 
L 223.59041 253.313525 
L 223.949541 254.512582 
L 224.308673 254.230451 
L 224.667804 255.782171 
L 225.026935 255.50004 
L 225.386066 257.333891 
L 225.745197 257.192825 
L 226.104328 257.545489 
L 226.463459 257.122293 
L 226.822591 257.263358 
L 227.181722 256.2759 
L 227.540853 256.346432 
L 227.899984 256.840162 
L 228.259115 258.180283 
L 228.618246 258.462414 
L 228.977377 258.956143 
L 229.336508 259.026676 
L 229.69564 259.37934 
L 230.054771 259.520405 
L 230.773033 260.225733 
L 231.132164 261.072125 
L 231.491295 259.802536 
L 232.568689 260.225733 
L 232.92782 259.873069 
L 233.646082 258.744545 
L 234.005213 259.943602 
L 234.364344 259.308807 
L 234.723475 259.308807 
L 235.441738 261.565854 
L 235.800869 262.200649 
L 236.519131 262.694378 
L 236.878262 263.25864 
L 237.237393 262.48278 
L 237.955656 262.412247 
L 238.314787 262.694378 
L 238.673918 262.623845 
L 239.033049 263.25864 
L 239.39218 263.329173 
L 239.751311 264.0345 
L 240.110442 264.175565 
L 240.469574 264.598762 
L 240.828705 264.81036 
L 241.187836 265.445155 
L 241.906098 265.304089 
L 242.265229 264.81036 
L 242.983492 264.739827 
L 243.342623 264.739827 
L 244.060885 264.457696 
L 244.420016 264.598762 
L 244.779147 265.163024 
L 245.138278 265.233556 
L 245.497409 265.163024 
L 246.933934 265.374622 
L 247.293065 265.304089 
L 247.652196 265.092491 
L 248.370459 265.163024 
L 249.447852 265.163024 
L 250.166114 265.515687 
L 250.525245 265.374622 
L 251.243508 265.445155 
L 251.602639 265.233556 
L 253.398294 265.233556 
L 253.757426 265.092491 
L 254.116557 265.304089 
L 254.475688 265.304089 
L 254.834819 263.681836 
L 255.19395 263.540771 
L 255.912212 263.470238 
L 256.989606 263.329173 
L 257.348737 264.880893 
L 257.707868 264.528229 
L 258.066999 264.669295 
L 258.42613 264.598762 
L 258.785261 264.81036 
L 259.503524 264.880893 
L 260.940048 264.81036 
L 261.299179 264.387164 
L 262.017442 264.387164 
L 262.376573 264.0345 
L 263.094835 263.963967 
L 263.453966 263.611304 
L 263.813097 263.681836 
L 264.172228 263.329173 
L 264.890491 263.399705 
L 265.249622 262.835444 
L 265.608753 262.553313 
L 267.045278 262.48278 
L 267.404409 262.271182 
L 267.76354 263.047042 
L 268.122671 263.047042 
L 268.481802 262.48278 
L 268.840933 262.553313 
L 269.200064 261.918518 
L 269.918327 262.200649 
L 270.277458 261.354256 
L 270.636589 261.283724 
L 270.99572 262.059584 
L 271.354851 261.142658 
L 272.073113 261.213191 
L 272.791376 260.1552 
L 273.509638 258.039218 
L 273.868769 258.462414 
L 274.587031 258.462414 
L 275.305294 259.732003 
L 276.382687 262.412247 
L 276.741818 262.764911 
L 277.100949 262.764911 
L 278.178343 263.329173 
L 278.896605 263.188107 
L 279.255736 263.399705 
L 279.614867 263.399705 
L 279.973998 262.553313 
L 280.33313 262.48278 
L 280.692261 261.777453 
L 281.051392 261.424789 
L 281.410523 261.495322 
L 281.769654 261.354256 
L 282.128785 261.354256 
L 282.487916 262.059584 
L 283.206179 262.905976 
L 283.56531 262.553313 
L 284.283572 262.764911 
L 285.001834 262.835444 
L 285.720097 262.059584 
L 286.079228 262.48278 
L 286.438359 261.70692 
L 286.79749 261.565854 
L 287.156621 261.565854 
L 287.874883 260.648929 
L 288.234014 260.366798 
L 288.593146 259.661471 
L 288.952277 259.520405 
L 289.311408 259.097209 
L 290.02967 259.026676 
L 290.388801 259.873069 
L 290.747932 260.366798 
L 291.107064 260.507864 
L 291.466195 259.943602 
L 291.825326 259.590938 
L 292.184457 259.520405 
L 292.543588 259.308807 
L 292.902719 258.180283 
L 293.620981 256.840162 
L 293.980113 256.981227 
L 294.339244 256.2759 
L 294.698375 256.346432 
L 295.057506 256.558031 
L 295.775768 254.442049 
L 296.134899 254.442049 
L 296.494031 253.242992 
L 296.853162 253.525123 
L 297.212293 253.525123 
L 297.930555 251.761805 
L 298.289686 252.537665 
L 298.648817 249.857421 
L 299.007949 249.716356 
L 299.36708 248.164636 
L 299.726211 248.094103 
L 300.803604 245.343327 
L 301.162735 245.625458 
L 301.521866 245.554925 
L 301.880998 247.459309 
L 302.240129 247.529841 
L 302.59926 248.02357 
L 302.958391 248.869963 
L 303.317522 247.882505 
L 303.676653 249.998487 
L 304.035784 250.351151 
L 305.113178 249.786889 
L 305.472309 250.492216 
L 305.83144 250.562749 
L 306.190571 250.139552 
L 306.549702 250.774347 
L 306.908833 250.492216 
L 307.267965 250.633281 
L 307.627096 251.902871 
L 307.986227 252.608198 
L 308.345358 252.467132 
L 308.704489 251.973403 
L 309.06362 251.973403 
L 309.422751 251.338609 
L 309.781883 251.338609 
L 310.500145 250.774347 
L 310.859276 252.819796 
L 311.218407 254.159918 
L 311.577538 253.666189 
L 311.936669 254.865245 
L 312.2958 254.865245 
L 312.654932 254.018852 
L 313.373194 247.74144 
L 313.732325 242.310419 
L 314.091456 241.957756 
L 314.450587 243.156812 
L 314.809718 243.156812 
L 315.16885 242.098821 
L 315.527981 243.297878 
L 316.246243 240.970298 
L 316.964505 233.211697 
L 317.323636 233.141165 
L 317.682767 230.531454 
L 318.041899 221.080068 
L 318.40103 216.142777 
L 318.760161 215.649048 
L 319.119292 213.039337 
L 319.478423 208.454709 
L 319.837554 208.454709 
L 320.196685 199.567586 
L 320.555817 195.54722 
L 321.992341 162.114706 
L 322.351472 161.762043 
L 322.710603 152.169592 
L 323.069735 152.169592 
L 323.428866 148.008161 
L 324.147128 144.340459 
L 324.506259 146.668039 
L 324.86539 146.879637 
L 325.224521 155.696228 
L 325.583652 157.459546 
L 325.942784 160.421921 
L 326.301915 159.998725 
L 326.661046 161.903108 
L 327.020177 162.255772 
L 327.379308 162.396837 
L 328.09757 168.885848 
L 328.456702 168.251054 
L 329.534095 180.946945 
L 329.893226 180.946945 
L 330.252357 183.90932 
L 330.611488 181.088011 
L 330.970619 187.647554 
L 331.329751 187.506489 
L 331.688882 186.730629 
L 332.048013 185.037843 
L 332.407144 185.108376 
L 332.766275 189.693004 
L 333.125406 187.365423 
L 333.484537 187.647554 
L 333.843669 190.398331 
L 334.561931 198.509595 
L 334.921062 198.509595 
L 335.280193 193.924967 
L 335.639324 196.816809 
L 335.998455 194.700827 
L 336.357586 194.912425 
L 336.716718 189.834069 
L 337.075849 183.062927 
L 337.43498 182.992394 
L 338.153242 177.490841 
L 338.871504 169.943839 
L 339.230636 163.525361 
L 339.589767 164.301221 
L 339.948898 164.301221 
L 340.308029 153.650779 
L 340.66716 134.536409 
L 341.026291 126.777809 
L 341.744553 99.904839 
L 342.103685 111.260609 
L 342.462816 111.049011 
L 342.821947 97.577259 
L 343.181078 105.829589 
L 343.540209 85.657228 
L 343.89934 85.939359 
L 344.258471 84.176041 
L 344.617603 62.875157 
L 344.976734 63.157288 
L 345.335865 73.878262 
L 345.694996 76.417441 
L 346.054127 81.002068 
L 346.413258 81.848461 
L 347.131521 87.984808 
L 347.490652 87.914275 
L 347.849783 95.884474 
L 348.208914 82.835919 
L 348.568045 98.423652 
L 348.927176 102.020821 
L 349.286307 102.655616 
L 349.645438 125.931416 
L 350.00457 105.900121 
L 350.363701 100.610167 
L 350.722832 92.357837 
L 351.081963 94.050623 
L 351.441094 88.337472 
L 351.800225 102.302952 
L 352.159356 102.020821 
L 352.877619 144.340459 
L 353.23675 131.856166 
L 353.595881 111.472207 
L 353.955012 107.240243 
L 354.314143 90.806117 
L 354.673274 69.011504 
L 355.032405 69.082037 
L 355.391537 52.154182 
L 356.109799 109.144627 
L 357.187192 163.454828 
L 357.546323 163.454828 
L 357.905455 153.93291 
L 358.264586 163.807492 
L 358.623717 163.384296 
L 358.982848 169.661708 
L 359.341979 169.873307 
L 359.70111 173.047279 
L 360.060241 173.047279 
L 360.419372 162.749501 
L 360.778504 165.006548 
L 361.137635 166.276137 
L 361.496766 168.815316 
L 361.855897 164.653885 
L 362.215028 164.230688 
L 362.574159 164.230688 
L 362.93329 176.503383 
L 363.292422 175.304327 
L 363.651553 182.428132 
L 364.010684 181.793338 
L 364.369815 190.821527 
L 364.728946 191.315256 
L 365.088077 191.315256 
L 365.447208 204.85754 
L 365.80634 212.33401 
L 366.165471 215.507982 
L 366.524602 227.07535 
L 366.883733 226.440555 
L 367.601995 226.440555 
L 367.961126 220.304208 
L 368.320257 220.586339 
L 368.679389 215.578515 
L 369.03852 207.18512 
L 369.397651 207.96098 
L 370.115913 207.890448 
L 370.475044 224.959368 
L 370.834175 212.61614 
L 371.193307 208.666308 
L 371.552438 200.484511 
L 371.911569 187.435956 
L 372.629831 187.365423 
L 372.988962 148.219759 
L 373.348093 122.122649 
L 373.707224 106.464383 
L 374.066356 99.693241 
L 374.425487 98.212054 
L 374.784618 98.353119 
L 375.143749 98.353119 
L 375.50288 91.370379 
L 375.862011 116.056834 
L 376.221142 118.878144 
L 376.580274 120.147733 
L 376.939405 129.599118 
L 377.657667 129.528586 
L 378.016798 140.531691 
L 378.375929 140.179028 
L 378.73506 145.257384 
L 379.094191 154.426639 
L 379.453323 156.895284 
L 380.171585 156.965817 
L 380.530716 166.840399 
L 381.248978 178.337234 
L 381.608109 177.067645 
L 381.967241 174.740065 
L 382.685503 174.740065 
L 383.762896 182.216534 
L 384.481158 186.942227 
L 385.558552 187.01276 
L 385.917683 187.859153 
L 386.276814 193.21964 
L 386.635945 195.194556 
L 386.995076 196.182015 
L 387.713339 196.182015 
L 388.07247 199.285455 
L 389.508994 207.537784 
L 390.227257 207.537784 
L 391.30465 220.727404 
L 391.663781 222.349657 
L 392.022912 225.594163 
L 392.741175 225.52363 
L 393.100306 229.191332 
L 393.459437 231.025183 
L 393.818568 229.120799 
L 394.177699 230.319855 
L 394.53683 229.050266 
L 395.255093 229.050266 
L 395.614224 231.377846 
L 395.973355 230.601986 
L 396.332486 233.775959 
L 396.691617 233.775959 
L 397.050748 233.987557 
L 397.76901 234.05809 
L 398.128142 234.622352 
L 398.487273 233.987557 
L 398.487273 233.987557 
" clip-path="url(#p458cb7ea5a)" style="fill: none; stroke: #1f77b4; stroke-width: 1.5; stroke-linecap: square"/>
   </g>
   <g id="patch_3">
    <path d="M 57.6 276.48 
L 57.6 41.472 
" style="fill: none; stroke: #000000; stroke-width: 0.8; stroke-linejoin: miter; stroke-linecap: square"/>
   </g>
   <g id="patch_4">
    <path d="M 414.72 276.48 
L 414.72 41.472 
" style="fill: none; stroke: #000000; stroke-width: 0.8; stroke-linejoin: miter; stroke-linecap: square"/>
   </g>
   <g id="patch_5">
    <path d="M 57.6 276.48 
L 414.72 276.48 
" style="fill: none; stroke: #000000; stroke-width: 0.8; stroke-linejoin: miter; stroke-linecap: square"/>
   </g>
   <g id="patch_6">
    <path d="M 57.6 41.472 
L 414.72 41.472 
" style="fill: none; stroke: #000000; stroke-width: 0.8; stroke-linejoin: miter; stroke-linecap: square"/>
   </g>
  </g>
  <g id="text_17">
   <!-- Inzidenzverlauf LK Oldenburg -->
   <g transform="translate(97.835625 20.589187)scale(0.18 -0.18)">
    <defs>
     <path id="DejaVuSans-76" d="M 191 3500 
L 800 3500 
L 1894 563 
L 2988 3500 
L 3597 3500 
L 2284 0 
L 1503 0 
L 191 3500 
z
" transform="scale(0.015625)"/>
     <path id="DejaVuSans-6c" d="M 603 4863 
L 1178 4863 
L 1178 0 
L 603 0 
L 603 4863 
z
" transform="scale(0.015625)"/>
     <path id="DejaVuSans-75" d="M 544 1381 
L 544 3500 
L 1119 3500 
L 1119 1403 
Q 1119 906 1312 657 
Q 1506 409 1894 409 
Q 2359 409 2629 706 
Q 2900 1003 2900 1516 
L 2900 3500 
L 3475 3500 
L 3475 0 
L 2900 0 
L 2900 538 
Q 2691 219 2414 64 
Q 2138 -91 1772 -91 
Q 1169 -91 856 284 
Q 544 659 544 1381 
z
M 1991 3584 
L 1991 3584 
z
" transform="scale(0.015625)"/>
     <path id="DejaVuSans-66" d="M 2375 4863 
L 2375 4384 
L 1825 4384 
Q 1516 4384 1395 4259 
Q 1275 4134 1275 3809 
L 1275 3500 
L 2222 3500 
L 2222 3053 
L 1275 3053 
L 1275 0 
L 697 0 
L 697 3053 
L 147 3053 
L 147 3500 
L 697 3500 
L 697 3744 
Q 697 4328 969 4595 
Q 1241 4863 1831 4863 
L 2375 4863 
z
" transform="scale(0.015625)"/>
     <path id="DejaVuSans-4c" d="M 628 4666 
L 1259 4666 
L 1259 531 
L 3531 531 
L 3531 0 
L 628 0 
L 628 4666 
z
" transform="scale(0.015625)"/>
     <path id="DejaVuSans-4b" d="M 628 4666 
L 1259 4666 
L 1259 2694 
L 3353 4666 
L 4166 4666 
L 1850 2491 
L 4331 0 
L 3500 0 
L 1259 2247 
L 1259 0 
L 628 0 
L 628 4666 
z
" transform="scale(0.015625)"/>
     <path id="DejaVuSans-4f" d="M 2522 4238 
Q 1834 4238 1429 3725 
Q 1025 3213 1025 2328 
Q 1025 1447 1429 934 
Q 1834 422 2522 422 
Q 3209 422 3611 934 
Q 4013 1447 4013 2328 
Q 4013 3213 3611 3725 
Q 3209 4238 2522 4238 
z
M 2522 4750 
Q 3503 4750 4090 4092 
Q 4678 3434 4678 2328 
Q 4678 1225 4090 567 
Q 3503 -91 2522 -91 
Q 1538 -91 948 565 
Q 359 1222 359 2328 
Q 359 3434 948 4092 
Q 1538 4750 2522 4750 
z
" transform="scale(0.015625)"/>
     <path id="DejaVuSans-62" d="M 3116 1747 
Q 3116 2381 2855 2742 
Q 2594 3103 2138 3103 
Q 1681 3103 1420 2742 
Q 1159 2381 1159 1747 
Q 1159 1113 1420 752 
Q 1681 391 2138 391 
Q 2594 391 2855 752 
Q 3116 1113 3116 1747 
z
M 1159 2969 
Q 1341 3281 1617 3432 
Q 1894 3584 2278 3584 
Q 2916 3584 3314 3078 
Q 3713 2572 3713 1747 
Q 3713 922 3314 415 
Q 2916 -91 2278 -91 
Q 1894 -91 1617 61 
Q 1341 213 1159 525 
L 1159 0 
L 581 0 
L 581 4863 
L 1159 4863 
L 1159 2969 
z
" transform="scale(0.015625)"/>
    </defs>
    <use xlink:href="#DejaVuSans-49"/>
    <use xlink:href="#DejaVuSans-6e" x="29.492188"/>
    <use xlink:href="#DejaVuSans-7a" x="92.871094"/>
    <use xlink:href="#DejaVuSans-69" x="145.361328"/>
    <use xlink:href="#DejaVuSans-64" x="173.144531"/>
    <use xlink:href="#DejaVuSans-65" x="236.621094"/>
    <use xlink:href="#DejaVuSans-6e" x="298.144531"/>
    <use xlink:href="#DejaVuSans-7a" x="361.523438"/>
    <use xlink:href="#DejaVuSans-76" x="414.013672"/>
    <use xlink:href="#DejaVuSans-65" x="473.193359"/>
    <use xlink:href="#DejaVuSans-72" x="534.716797"/>
    <use xlink:href="#DejaVuSans-6c" x="575.830078"/>
    <use xlink:href="#DejaVuSans-61" x="603.613281"/>
    <use xlink:href="#DejaVuSans-75" x="664.892578"/>
    <use xlink:href="#DejaVuSans-66" x="728.271484"/>
    <use xlink:href="#DejaVuSans-20" x="763.476562"/>
    <use xlink:href="#DejaVuSans-4c" x="795.263672"/>
    <use xlink:href="#DejaVuSans-4b" x="850.976562"/>
    <use xlink:href="#DejaVuSans-20" x="916.552734"/>
    <use xlink:href="#DejaVuSans-4f" x="948.339844"/>
    <use xlink:href="#DejaVuSans-6c" x="1027.050781"/>
    <use xlink:href="#DejaVuSans-64" x="1054.833984"/>
    <use xlink:href="#DejaVuSans-65" x="1118.310547"/>
    <use xlink:href="#DejaVuSans-6e" x="1179.833984"/>
    <use xlink:href="#DejaVuSans-62" x="1243.212891"/>
    <use xlink:href="#DejaVuSans-75" x="1306.689453"/>
    <use xlink:href="#DejaVuSans-72" x="1370.068359"/>
    <use xlink:href="#DejaVuSans-67" x="1409.431641"/>
   </g>
  </g>
 </g>
 <defs>
  <clipPath id="p458cb7ea5a">
   <rect x="57.6" y="41.472" width="357.12" height="235.008"/>
  </clipPath>
 </defs>
</svg>
