<?xml version="1.0" encoding="utf-8" standalone="no"?>
<!DOCTYPE svg PUBLIC "-//W3C//DTD SVG 1.1//EN"
  "http://www.w3.org/Graphics/SVG/1.1/DTD/svg11.dtd">
<svg xmlns:xlink="http://www.w3.org/1999/xlink" width="460.8pt" height="345.6pt" viewBox="0 0 460.8 345.6" xmlns="http://www.w3.org/2000/svg" version="1.1">
 <metadata>
  <rdf:RDF xmlns:dc="http://purl.org/dc/elements/1.1/" xmlns:cc="http://creativecommons.org/ns#" xmlns:rdf="http://www.w3.org/1999/02/22-rdf-syntax-ns#">
   <cc:Work>
    <dc:type rdf:resource="http://purl.org/dc/dcmitype/StillImage"/>
    <dc:date>2022-01-08T09:21:20.307778</dc:date>
    <dc:format>image/svg+xml</dc:format>
    <dc:creator>
     <cc:Agent>
      <dc:title>Matplotlib v3.5.1, https://matplotlib.org/</dc:title>
     </cc:Agent>
    </dc:creator>
   </cc:Work>
  </rdf:RDF>
 </metadata>
 <defs>
  <style type="text/css">*{stroke-linejoin: round; stroke-linecap: butt}</style>
 </defs>
 <g id="figure_1">
  <g id="patch_1">
   <path d="M 0 345.6 
L 460.8 345.6 
L 460.8 0 
L 0 0 
z
" style="fill: #ffffff"/>
  </g>
  <g id="axes_1">
   <g id="patch_2">
    <path d="M 57.6 276.48 
L 414.72 276.48 
L 414.72 41.472 
L 57.6 41.472 
z
" style="fill: #ffffff"/>
   </g>
   <g id="matplotlib.axis_1">
    <g id="xtick_1">
     <g id="line2d_1">
      <path d="M 61.005831 276.48 
L 61.005831 41.472 
" clip-path="url(#p2d9a249076)" style="fill: none; stroke-dasharray: 2.96,1.28; stroke-dashoffset: 0; stroke: #808080; stroke-width: 0.8"/>
     </g>
     <g id="line2d_2">
      <defs>
       <path id="m49f71ef96c" d="M 0 0 
L 0 3.5 
" style="stroke: #000000; stroke-width: 0.8"/>
      </defs>
      <g>
       <use xlink:href="#m49f71ef96c" x="61.005831" y="276.48" style="stroke: #000000; stroke-width: 0.8"/>
      </g>
     </g>
     <g id="text_1">
      <!-- 05.02.2020 -->
      <g transform="translate(10.38062 318.688565)rotate(-30)scale(0.1 -0.1)">
       <defs>
        <path id="DejaVuSans-30" d="M 2034 4250 
Q 1547 4250 1301 3770 
Q 1056 3291 1056 2328 
Q 1056 1369 1301 889 
Q 1547 409 2034 409 
Q 2525 409 2770 889 
Q 3016 1369 3016 2328 
Q 3016 3291 2770 3770 
Q 2525 4250 2034 4250 
z
M 2034 4750 
Q 2819 4750 3233 4129 
Q 3647 3509 3647 2328 
Q 3647 1150 3233 529 
Q 2819 -91 2034 -91 
Q 1250 -91 836 529 
Q 422 1150 422 2328 
Q 422 3509 836 4129 
Q 1250 4750 2034 4750 
z
" transform="scale(0.015625)"/>
        <path id="DejaVuSans-35" d="M 691 4666 
L 3169 4666 
L 3169 4134 
L 1269 4134 
L 1269 2991 
Q 1406 3038 1543 3061 
Q 1681 3084 1819 3084 
Q 2600 3084 3056 2656 
Q 3513 2228 3513 1497 
Q 3513 744 3044 326 
Q 2575 -91 1722 -91 
Q 1428 -91 1123 -41 
Q 819 9 494 109 
L 494 744 
Q 775 591 1075 516 
Q 1375 441 1709 441 
Q 2250 441 2565 725 
Q 2881 1009 2881 1497 
Q 2881 1984 2565 2268 
Q 2250 2553 1709 2553 
Q 1456 2553 1204 2497 
Q 953 2441 691 2322 
L 691 4666 
z
" transform="scale(0.015625)"/>
        <path id="DejaVuSans-2e" d="M 684 794 
L 1344 794 
L 1344 0 
L 684 0 
L 684 794 
z
" transform="scale(0.015625)"/>
        <path id="DejaVuSans-32" d="M 1228 531 
L 3431 531 
L 3431 0 
L 469 0 
L 469 531 
Q 828 903 1448 1529 
Q 2069 2156 2228 2338 
Q 2531 2678 2651 2914 
Q 2772 3150 2772 3378 
Q 2772 3750 2511 3984 
Q 2250 4219 1831 4219 
Q 1534 4219 1204 4116 
Q 875 4013 500 3803 
L 500 4441 
Q 881 4594 1212 4672 
Q 1544 4750 1819 4750 
Q 2544 4750 2975 4387 
Q 3406 4025 3406 3419 
Q 3406 3131 3298 2873 
Q 3191 2616 2906 2266 
Q 2828 2175 2409 1742 
Q 1991 1309 1228 531 
z
" transform="scale(0.015625)"/>
       </defs>
       <use xlink:href="#DejaVuSans-30"/>
       <use xlink:href="#DejaVuSans-35" x="63.623047"/>
       <use xlink:href="#DejaVuSans-2e" x="127.246094"/>
       <use xlink:href="#DejaVuSans-30" x="159.033203"/>
       <use xlink:href="#DejaVuSans-32" x="222.65625"/>
       <use xlink:href="#DejaVuSans-2e" x="286.279297"/>
       <use xlink:href="#DejaVuSans-32" x="318.066406"/>
       <use xlink:href="#DejaVuSans-30" x="381.689453"/>
       <use xlink:href="#DejaVuSans-32" x="445.3125"/>
       <use xlink:href="#DejaVuSans-30" x="508.935547"/>
      </g>
     </g>
    </g>
    <g id="xtick_2">
     <g id="line2d_3">
      <path d="M 97.025196 276.48 
L 97.025196 41.472 
" clip-path="url(#p2d9a249076)" style="fill: none; stroke-dasharray: 2.96,1.28; stroke-dashoffset: 0; stroke: #808080; stroke-width: 0.8"/>
     </g>
     <g id="line2d_4">
      <g>
       <use xlink:href="#m49f71ef96c" x="97.025196" y="276.48" style="stroke: #000000; stroke-width: 0.8"/>
      </g>
     </g>
     <g id="text_2">
      <!-- 20.04.2020 -->
      <g transform="translate(46.399986 318.688565)rotate(-30)scale(0.1 -0.1)">
       <defs>
        <path id="DejaVuSans-34" d="M 2419 4116 
L 825 1625 
L 2419 1625 
L 2419 4116 
z
M 2253 4666 
L 3047 4666 
L 3047 1625 
L 3713 1625 
L 3713 1100 
L 3047 1100 
L 3047 0 
L 2419 0 
L 2419 1100 
L 313 1100 
L 313 1709 
L 2253 4666 
z
" transform="scale(0.015625)"/>
       </defs>
       <use xlink:href="#DejaVuSans-32"/>
       <use xlink:href="#DejaVuSans-30" x="63.623047"/>
       <use xlink:href="#DejaVuSans-2e" x="127.246094"/>
       <use xlink:href="#DejaVuSans-30" x="159.033203"/>
       <use xlink:href="#DejaVuSans-34" x="222.65625"/>
       <use xlink:href="#DejaVuSans-2e" x="286.279297"/>
       <use xlink:href="#DejaVuSans-32" x="318.066406"/>
       <use xlink:href="#DejaVuSans-30" x="381.689453"/>
       <use xlink:href="#DejaVuSans-32" x="445.3125"/>
       <use xlink:href="#DejaVuSans-30" x="508.935547"/>
      </g>
     </g>
    </g>
    <g id="xtick_3">
     <g id="line2d_5">
      <path d="M 133.044562 276.48 
L 133.044562 41.472 
" clip-path="url(#p2d9a249076)" style="fill: none; stroke-dasharray: 2.96,1.28; stroke-dashoffset: 0; stroke: #808080; stroke-width: 0.8"/>
     </g>
     <g id="line2d_6">
      <g>
       <use xlink:href="#m49f71ef96c" x="133.044562" y="276.48" style="stroke: #000000; stroke-width: 0.8"/>
      </g>
     </g>
     <g id="text_3">
      <!-- 04.07.2020 -->
      <g transform="translate(82.419351 318.688565)rotate(-30)scale(0.1 -0.1)">
       <defs>
        <path id="DejaVuSans-37" d="M 525 4666 
L 3525 4666 
L 3525 4397 
L 1831 0 
L 1172 0 
L 2766 4134 
L 525 4134 
L 525 4666 
z
" transform="scale(0.015625)"/>
       </defs>
       <use xlink:href="#DejaVuSans-30"/>
       <use xlink:href="#DejaVuSans-34" x="63.623047"/>
       <use xlink:href="#DejaVuSans-2e" x="127.246094"/>
       <use xlink:href="#DejaVuSans-30" x="159.033203"/>
       <use xlink:href="#DejaVuSans-37" x="222.65625"/>
       <use xlink:href="#DejaVuSans-2e" x="286.279297"/>
       <use xlink:href="#DejaVuSans-32" x="318.066406"/>
       <use xlink:href="#DejaVuSans-30" x="381.689453"/>
       <use xlink:href="#DejaVuSans-32" x="445.3125"/>
       <use xlink:href="#DejaVuSans-30" x="508.935547"/>
      </g>
     </g>
    </g>
    <g id="xtick_4">
     <g id="line2d_7">
      <path d="M 169.063927 276.48 
L 169.063927 41.472 
" clip-path="url(#p2d9a249076)" style="fill: none; stroke-dasharray: 2.96,1.28; stroke-dashoffset: 0; stroke: #808080; stroke-width: 0.8"/>
     </g>
     <g id="line2d_8">
      <g>
       <use xlink:href="#m49f71ef96c" x="169.063927" y="276.48" style="stroke: #000000; stroke-width: 0.8"/>
      </g>
     </g>
     <g id="text_4">
      <!-- 17.09.2020 -->
      <g transform="translate(118.438716 318.688565)rotate(-30)scale(0.1 -0.1)">
       <defs>
        <path id="DejaVuSans-31" d="M 794 531 
L 1825 531 
L 1825 4091 
L 703 3866 
L 703 4441 
L 1819 4666 
L 2450 4666 
L 2450 531 
L 3481 531 
L 3481 0 
L 794 0 
L 794 531 
z
" transform="scale(0.015625)"/>
        <path id="DejaVuSans-39" d="M 703 97 
L 703 672 
Q 941 559 1184 500 
Q 1428 441 1663 441 
Q 2288 441 2617 861 
Q 2947 1281 2994 2138 
Q 2813 1869 2534 1725 
Q 2256 1581 1919 1581 
Q 1219 1581 811 2004 
Q 403 2428 403 3163 
Q 403 3881 828 4315 
Q 1253 4750 1959 4750 
Q 2769 4750 3195 4129 
Q 3622 3509 3622 2328 
Q 3622 1225 3098 567 
Q 2575 -91 1691 -91 
Q 1453 -91 1209 -44 
Q 966 3 703 97 
z
M 1959 2075 
Q 2384 2075 2632 2365 
Q 2881 2656 2881 3163 
Q 2881 3666 2632 3958 
Q 2384 4250 1959 4250 
Q 1534 4250 1286 3958 
Q 1038 3666 1038 3163 
Q 1038 2656 1286 2365 
Q 1534 2075 1959 2075 
z
" transform="scale(0.015625)"/>
       </defs>
       <use xlink:href="#DejaVuSans-31"/>
       <use xlink:href="#DejaVuSans-37" x="63.623047"/>
       <use xlink:href="#DejaVuSans-2e" x="127.246094"/>
       <use xlink:href="#DejaVuSans-30" x="159.033203"/>
       <use xlink:href="#DejaVuSans-39" x="222.65625"/>
       <use xlink:href="#DejaVuSans-2e" x="286.279297"/>
       <use xlink:href="#DejaVuSans-32" x="318.066406"/>
       <use xlink:href="#DejaVuSans-30" x="381.689453"/>
       <use xlink:href="#DejaVuSans-32" x="445.3125"/>
       <use xlink:href="#DejaVuSans-30" x="508.935547"/>
      </g>
     </g>
    </g>
    <g id="xtick_5">
     <g id="line2d_9">
      <path d="M 205.083292 276.48 
L 205.083292 41.472 
" clip-path="url(#p2d9a249076)" style="fill: none; stroke-dasharray: 2.96,1.28; stroke-dashoffset: 0; stroke: #808080; stroke-width: 0.8"/>
     </g>
     <g id="line2d_10">
      <g>
       <use xlink:href="#m49f71ef96c" x="205.083292" y="276.48" style="stroke: #000000; stroke-width: 0.8"/>
      </g>
     </g>
     <g id="text_5">
      <!-- 01.12.2020 -->
      <g transform="translate(154.458081 318.688565)rotate(-30)scale(0.1 -0.1)">
       <use xlink:href="#DejaVuSans-30"/>
       <use xlink:href="#DejaVuSans-31" x="63.623047"/>
       <use xlink:href="#DejaVuSans-2e" x="127.246094"/>
       <use xlink:href="#DejaVuSans-31" x="159.033203"/>
       <use xlink:href="#DejaVuSans-32" x="222.65625"/>
       <use xlink:href="#DejaVuSans-2e" x="286.279297"/>
       <use xlink:href="#DejaVuSans-32" x="318.066406"/>
       <use xlink:href="#DejaVuSans-30" x="381.689453"/>
       <use xlink:href="#DejaVuSans-32" x="445.3125"/>
       <use xlink:href="#DejaVuSans-30" x="508.935547"/>
      </g>
     </g>
    </g>
    <g id="xtick_6">
     <g id="line2d_11">
      <path d="M 241.102657 276.48 
L 241.102657 41.472 
" clip-path="url(#p2d9a249076)" style="fill: none; stroke-dasharray: 2.96,1.28; stroke-dashoffset: 0; stroke: #808080; stroke-width: 0.8"/>
     </g>
     <g id="line2d_12">
      <g>
       <use xlink:href="#m49f71ef96c" x="241.102657" y="276.48" style="stroke: #000000; stroke-width: 0.8"/>
      </g>
     </g>
     <g id="text_6">
      <!-- 14.02.2021 -->
      <g transform="translate(190.477447 318.688565)rotate(-30)scale(0.1 -0.1)">
       <use xlink:href="#DejaVuSans-31"/>
       <use xlink:href="#DejaVuSans-34" x="63.623047"/>
       <use xlink:href="#DejaVuSans-2e" x="127.246094"/>
       <use xlink:href="#DejaVuSans-30" x="159.033203"/>
       <use xlink:href="#DejaVuSans-32" x="222.65625"/>
       <use xlink:href="#DejaVuSans-2e" x="286.279297"/>
       <use xlink:href="#DejaVuSans-32" x="318.066406"/>
       <use xlink:href="#DejaVuSans-30" x="381.689453"/>
       <use xlink:href="#DejaVuSans-32" x="445.3125"/>
       <use xlink:href="#DejaVuSans-31" x="508.935547"/>
      </g>
     </g>
    </g>
    <g id="xtick_7">
     <g id="line2d_13">
      <path d="M 277.122023 276.48 
L 277.122023 41.472 
" clip-path="url(#p2d9a249076)" style="fill: none; stroke-dasharray: 2.96,1.28; stroke-dashoffset: 0; stroke: #808080; stroke-width: 0.8"/>
     </g>
     <g id="line2d_14">
      <g>
       <use xlink:href="#m49f71ef96c" x="277.122023" y="276.48" style="stroke: #000000; stroke-width: 0.8"/>
      </g>
     </g>
     <g id="text_7">
      <!-- 30.04.2021 -->
      <g transform="translate(226.496812 318.688565)rotate(-30)scale(0.1 -0.1)">
       <defs>
        <path id="DejaVuSans-33" d="M 2597 2516 
Q 3050 2419 3304 2112 
Q 3559 1806 3559 1356 
Q 3559 666 3084 287 
Q 2609 -91 1734 -91 
Q 1441 -91 1130 -33 
Q 819 25 488 141 
L 488 750 
Q 750 597 1062 519 
Q 1375 441 1716 441 
Q 2309 441 2620 675 
Q 2931 909 2931 1356 
Q 2931 1769 2642 2001 
Q 2353 2234 1838 2234 
L 1294 2234 
L 1294 2753 
L 1863 2753 
Q 2328 2753 2575 2939 
Q 2822 3125 2822 3475 
Q 2822 3834 2567 4026 
Q 2313 4219 1838 4219 
Q 1578 4219 1281 4162 
Q 984 4106 628 3988 
L 628 4550 
Q 988 4650 1302 4700 
Q 1616 4750 1894 4750 
Q 2613 4750 3031 4423 
Q 3450 4097 3450 3541 
Q 3450 3153 3228 2886 
Q 3006 2619 2597 2516 
z
" transform="scale(0.015625)"/>
       </defs>
       <use xlink:href="#DejaVuSans-33"/>
       <use xlink:href="#DejaVuSans-30" x="63.623047"/>
       <use xlink:href="#DejaVuSans-2e" x="127.246094"/>
       <use xlink:href="#DejaVuSans-30" x="159.033203"/>
       <use xlink:href="#DejaVuSans-34" x="222.65625"/>
       <use xlink:href="#DejaVuSans-2e" x="286.279297"/>
       <use xlink:href="#DejaVuSans-32" x="318.066406"/>
       <use xlink:href="#DejaVuSans-30" x="381.689453"/>
       <use xlink:href="#DejaVuSans-32" x="445.3125"/>
       <use xlink:href="#DejaVuSans-31" x="508.935547"/>
      </g>
     </g>
    </g>
    <g id="xtick_8">
     <g id="line2d_15">
      <path d="M 313.141388 276.48 
L 313.141388 41.472 
" clip-path="url(#p2d9a249076)" style="fill: none; stroke-dasharray: 2.96,1.28; stroke-dashoffset: 0; stroke: #808080; stroke-width: 0.8"/>
     </g>
     <g id="line2d_16">
      <g>
       <use xlink:href="#m49f71ef96c" x="313.141388" y="276.48" style="stroke: #000000; stroke-width: 0.8"/>
      </g>
     </g>
     <g id="text_8">
      <!-- 14.07.2021 -->
      <g transform="translate(262.516177 318.688565)rotate(-30)scale(0.1 -0.1)">
       <use xlink:href="#DejaVuSans-31"/>
       <use xlink:href="#DejaVuSans-34" x="63.623047"/>
       <use xlink:href="#DejaVuSans-2e" x="127.246094"/>
       <use xlink:href="#DejaVuSans-30" x="159.033203"/>
       <use xlink:href="#DejaVuSans-37" x="222.65625"/>
       <use xlink:href="#DejaVuSans-2e" x="286.279297"/>
       <use xlink:href="#DejaVuSans-32" x="318.066406"/>
       <use xlink:href="#DejaVuSans-30" x="381.689453"/>
       <use xlink:href="#DejaVuSans-32" x="445.3125"/>
       <use xlink:href="#DejaVuSans-31" x="508.935547"/>
      </g>
     </g>
    </g>
    <g id="xtick_9">
     <g id="line2d_17">
      <path d="M 349.160753 276.48 
L 349.160753 41.472 
" clip-path="url(#p2d9a249076)" style="fill: none; stroke-dasharray: 2.96,1.28; stroke-dashoffset: 0; stroke: #808080; stroke-width: 0.8"/>
     </g>
     <g id="line2d_18">
      <g>
       <use xlink:href="#m49f71ef96c" x="349.160753" y="276.48" style="stroke: #000000; stroke-width: 0.8"/>
      </g>
     </g>
     <g id="text_9">
      <!-- 27.09.2021 -->
      <g transform="translate(298.535542 318.688565)rotate(-30)scale(0.1 -0.1)">
       <use xlink:href="#DejaVuSans-32"/>
       <use xlink:href="#DejaVuSans-37" x="63.623047"/>
       <use xlink:href="#DejaVuSans-2e" x="127.246094"/>
       <use xlink:href="#DejaVuSans-30" x="159.033203"/>
       <use xlink:href="#DejaVuSans-39" x="222.65625"/>
       <use xlink:href="#DejaVuSans-2e" x="286.279297"/>
       <use xlink:href="#DejaVuSans-32" x="318.066406"/>
       <use xlink:href="#DejaVuSans-30" x="381.689453"/>
       <use xlink:href="#DejaVuSans-32" x="445.3125"/>
       <use xlink:href="#DejaVuSans-31" x="508.935547"/>
      </g>
     </g>
    </g>
    <g id="xtick_10">
     <g id="line2d_19">
      <path d="M 385.180118 276.48 
L 385.180118 41.472 
" clip-path="url(#p2d9a249076)" style="fill: none; stroke-dasharray: 2.96,1.28; stroke-dashoffset: 0; stroke: #808080; stroke-width: 0.8"/>
     </g>
     <g id="line2d_20">
      <g>
       <use xlink:href="#m49f71ef96c" x="385.180118" y="276.48" style="stroke: #000000; stroke-width: 0.8"/>
      </g>
     </g>
     <g id="text_10">
      <!-- 11.12.2021 -->
      <g transform="translate(334.554908 318.688565)rotate(-30)scale(0.1 -0.1)">
       <use xlink:href="#DejaVuSans-31"/>
       <use xlink:href="#DejaVuSans-31" x="63.623047"/>
       <use xlink:href="#DejaVuSans-2e" x="127.246094"/>
       <use xlink:href="#DejaVuSans-31" x="159.033203"/>
       <use xlink:href="#DejaVuSans-32" x="222.65625"/>
       <use xlink:href="#DejaVuSans-2e" x="286.279297"/>
       <use xlink:href="#DejaVuSans-32" x="318.066406"/>
       <use xlink:href="#DejaVuSans-30" x="381.689453"/>
       <use xlink:href="#DejaVuSans-32" x="445.3125"/>
       <use xlink:href="#DejaVuSans-31" x="508.935547"/>
      </g>
     </g>
    </g>
   </g>
   <g id="matplotlib.axis_2">
    <g id="ytick_1">
     <g id="line2d_21">
      <path d="M 57.6 265.797818 
L 414.72 265.797818 
" clip-path="url(#p2d9a249076)" style="fill: none; stroke-dasharray: 2.96,1.28; stroke-dashoffset: 0; stroke: #808080; stroke-width: 0.8"/>
     </g>
     <g id="line2d_22">
      <defs>
       <path id="ma1e8d87cde" d="M 0 0 
L -3.5 0 
" style="stroke: #000000; stroke-width: 0.8"/>
      </defs>
      <g>
       <use xlink:href="#ma1e8d87cde" x="57.6" y="265.797818" style="stroke: #000000; stroke-width: 0.8"/>
      </g>
     </g>
     <g id="text_11">
      <!-- 0 -->
      <g transform="translate(44.2375 269.597037)scale(0.1 -0.1)">
       <use xlink:href="#DejaVuSans-30"/>
      </g>
     </g>
    </g>
    <g id="ytick_2">
     <g id="line2d_23">
      <path d="M 57.6 227.595884 
L 414.72 227.595884 
" clip-path="url(#p2d9a249076)" style="fill: none; stroke-dasharray: 2.96,1.28; stroke-dashoffset: 0; stroke: #808080; stroke-width: 0.8"/>
     </g>
     <g id="line2d_24">
      <g>
       <use xlink:href="#ma1e8d87cde" x="57.6" y="227.595884" style="stroke: #000000; stroke-width: 0.8"/>
      </g>
     </g>
     <g id="text_12">
      <!-- 50 -->
      <g transform="translate(37.875 231.395103)scale(0.1 -0.1)">
       <use xlink:href="#DejaVuSans-35"/>
       <use xlink:href="#DejaVuSans-30" x="63.623047"/>
      </g>
     </g>
    </g>
    <g id="ytick_3">
     <g id="line2d_25">
      <path d="M 57.6 189.393951 
L 414.72 189.393951 
" clip-path="url(#p2d9a249076)" style="fill: none; stroke-dasharray: 2.96,1.28; stroke-dashoffset: 0; stroke: #808080; stroke-width: 0.8"/>
     </g>
     <g id="line2d_26">
      <g>
       <use xlink:href="#ma1e8d87cde" x="57.6" y="189.393951" style="stroke: #000000; stroke-width: 0.8"/>
      </g>
     </g>
     <g id="text_13">
      <!-- 100 -->
      <g transform="translate(31.5125 193.193169)scale(0.1 -0.1)">
       <use xlink:href="#DejaVuSans-31"/>
       <use xlink:href="#DejaVuSans-30" x="63.623047"/>
       <use xlink:href="#DejaVuSans-30" x="127.246094"/>
      </g>
     </g>
    </g>
    <g id="ytick_4">
     <g id="line2d_27">
      <path d="M 57.6 151.192017 
L 414.72 151.192017 
" clip-path="url(#p2d9a249076)" style="fill: none; stroke-dasharray: 2.96,1.28; stroke-dashoffset: 0; stroke: #808080; stroke-width: 0.8"/>
     </g>
     <g id="line2d_28">
      <g>
       <use xlink:href="#ma1e8d87cde" x="57.6" y="151.192017" style="stroke: #000000; stroke-width: 0.8"/>
      </g>
     </g>
     <g id="text_14">
      <!-- 150 -->
      <g transform="translate(31.5125 154.991235)scale(0.1 -0.1)">
       <use xlink:href="#DejaVuSans-31"/>
       <use xlink:href="#DejaVuSans-35" x="63.623047"/>
       <use xlink:href="#DejaVuSans-30" x="127.246094"/>
      </g>
     </g>
    </g>
    <g id="ytick_5">
     <g id="line2d_29">
      <path d="M 57.6 112.990083 
L 414.72 112.990083 
" clip-path="url(#p2d9a249076)" style="fill: none; stroke-dasharray: 2.96,1.28; stroke-dashoffset: 0; stroke: #808080; stroke-width: 0.8"/>
     </g>
     <g id="line2d_30">
      <g>
       <use xlink:href="#ma1e8d87cde" x="57.6" y="112.990083" style="stroke: #000000; stroke-width: 0.8"/>
      </g>
     </g>
     <g id="text_15">
      <!-- 200 -->
      <g transform="translate(31.5125 116.789302)scale(0.1 -0.1)">
       <use xlink:href="#DejaVuSans-32"/>
       <use xlink:href="#DejaVuSans-30" x="63.623047"/>
       <use xlink:href="#DejaVuSans-30" x="127.246094"/>
      </g>
     </g>
    </g>
    <g id="ytick_6">
     <g id="line2d_31">
      <path d="M 57.6 74.788149 
L 414.72 74.788149 
" clip-path="url(#p2d9a249076)" style="fill: none; stroke-dasharray: 2.96,1.28; stroke-dashoffset: 0; stroke: #808080; stroke-width: 0.8"/>
     </g>
     <g id="line2d_32">
      <g>
       <use xlink:href="#ma1e8d87cde" x="57.6" y="74.788149" style="stroke: #000000; stroke-width: 0.8"/>
      </g>
     </g>
     <g id="text_16">
      <!-- 250 -->
      <g transform="translate(31.5125 78.587368)scale(0.1 -0.1)">
       <use xlink:href="#DejaVuSans-32"/>
       <use xlink:href="#DejaVuSans-35" x="63.623047"/>
       <use xlink:href="#DejaVuSans-30" x="127.246094"/>
      </g>
     </g>
    </g>
    <g id="text_17">
     <!-- Inzidenz pro 7 Tage pro 100.000 Einwohner -->
     <g transform="translate(25.432812 267.301)rotate(-90)scale(0.1 -0.1)">
      <defs>
       <path id="DejaVuSans-49" d="M 628 4666 
L 1259 4666 
L 1259 0 
L 628 0 
L 628 4666 
z
" transform="scale(0.015625)"/>
       <path id="DejaVuSans-6e" d="M 3513 2113 
L 3513 0 
L 2938 0 
L 2938 2094 
Q 2938 2591 2744 2837 
Q 2550 3084 2163 3084 
Q 1697 3084 1428 2787 
Q 1159 2491 1159 1978 
L 1159 0 
L 581 0 
L 581 3500 
L 1159 3500 
L 1159 2956 
Q 1366 3272 1645 3428 
Q 1925 3584 2291 3584 
Q 2894 3584 3203 3211 
Q 3513 2838 3513 2113 
z
" transform="scale(0.015625)"/>
       <path id="DejaVuSans-7a" d="M 353 3500 
L 3084 3500 
L 3084 2975 
L 922 459 
L 3084 459 
L 3084 0 
L 275 0 
L 275 525 
L 2438 3041 
L 353 3041 
L 353 3500 
z
" transform="scale(0.015625)"/>
       <path id="DejaVuSans-69" d="M 603 3500 
L 1178 3500 
L 1178 0 
L 603 0 
L 603 3500 
z
M 603 4863 
L 1178 4863 
L 1178 4134 
L 603 4134 
L 603 4863 
z
" transform="scale(0.015625)"/>
       <path id="DejaVuSans-64" d="M 2906 2969 
L 2906 4863 
L 3481 4863 
L 3481 0 
L 2906 0 
L 2906 525 
Q 2725 213 2448 61 
Q 2172 -91 1784 -91 
Q 1150 -91 751 415 
Q 353 922 353 1747 
Q 353 2572 751 3078 
Q 1150 3584 1784 3584 
Q 2172 3584 2448 3432 
Q 2725 3281 2906 2969 
z
M 947 1747 
Q 947 1113 1208 752 
Q 1469 391 1925 391 
Q 2381 391 2643 752 
Q 2906 1113 2906 1747 
Q 2906 2381 2643 2742 
Q 2381 3103 1925 3103 
Q 1469 3103 1208 2742 
Q 947 2381 947 1747 
z
" transform="scale(0.015625)"/>
       <path id="DejaVuSans-65" d="M 3597 1894 
L 3597 1613 
L 953 1613 
Q 991 1019 1311 708 
Q 1631 397 2203 397 
Q 2534 397 2845 478 
Q 3156 559 3463 722 
L 3463 178 
Q 3153 47 2828 -22 
Q 2503 -91 2169 -91 
Q 1331 -91 842 396 
Q 353 884 353 1716 
Q 353 2575 817 3079 
Q 1281 3584 2069 3584 
Q 2775 3584 3186 3129 
Q 3597 2675 3597 1894 
z
M 3022 2063 
Q 3016 2534 2758 2815 
Q 2500 3097 2075 3097 
Q 1594 3097 1305 2825 
Q 1016 2553 972 2059 
L 3022 2063 
z
" transform="scale(0.015625)"/>
       <path id="DejaVuSans-20" transform="scale(0.015625)"/>
       <path id="DejaVuSans-70" d="M 1159 525 
L 1159 -1331 
L 581 -1331 
L 581 3500 
L 1159 3500 
L 1159 2969 
Q 1341 3281 1617 3432 
Q 1894 3584 2278 3584 
Q 2916 3584 3314 3078 
Q 3713 2572 3713 1747 
Q 3713 922 3314 415 
Q 2916 -91 2278 -91 
Q 1894 -91 1617 61 
Q 1341 213 1159 525 
z
M 3116 1747 
Q 3116 2381 2855 2742 
Q 2594 3103 2138 3103 
Q 1681 3103 1420 2742 
Q 1159 2381 1159 1747 
Q 1159 1113 1420 752 
Q 1681 391 2138 391 
Q 2594 391 2855 752 
Q 3116 1113 3116 1747 
z
" transform="scale(0.015625)"/>
       <path id="DejaVuSans-72" d="M 2631 2963 
Q 2534 3019 2420 3045 
Q 2306 3072 2169 3072 
Q 1681 3072 1420 2755 
Q 1159 2438 1159 1844 
L 1159 0 
L 581 0 
L 581 3500 
L 1159 3500 
L 1159 2956 
Q 1341 3275 1631 3429 
Q 1922 3584 2338 3584 
Q 2397 3584 2469 3576 
Q 2541 3569 2628 3553 
L 2631 2963 
z
" transform="scale(0.015625)"/>
       <path id="DejaVuSans-6f" d="M 1959 3097 
Q 1497 3097 1228 2736 
Q 959 2375 959 1747 
Q 959 1119 1226 758 
Q 1494 397 1959 397 
Q 2419 397 2687 759 
Q 2956 1122 2956 1747 
Q 2956 2369 2687 2733 
Q 2419 3097 1959 3097 
z
M 1959 3584 
Q 2709 3584 3137 3096 
Q 3566 2609 3566 1747 
Q 3566 888 3137 398 
Q 2709 -91 1959 -91 
Q 1206 -91 779 398 
Q 353 888 353 1747 
Q 353 2609 779 3096 
Q 1206 3584 1959 3584 
z
" transform="scale(0.015625)"/>
       <path id="DejaVuSans-54" d="M -19 4666 
L 3928 4666 
L 3928 4134 
L 2272 4134 
L 2272 0 
L 1638 0 
L 1638 4134 
L -19 4134 
L -19 4666 
z
" transform="scale(0.015625)"/>
       <path id="DejaVuSans-61" d="M 2194 1759 
Q 1497 1759 1228 1600 
Q 959 1441 959 1056 
Q 959 750 1161 570 
Q 1363 391 1709 391 
Q 2188 391 2477 730 
Q 2766 1069 2766 1631 
L 2766 1759 
L 2194 1759 
z
M 3341 1997 
L 3341 0 
L 2766 0 
L 2766 531 
Q 2569 213 2275 61 
Q 1981 -91 1556 -91 
Q 1019 -91 701 211 
Q 384 513 384 1019 
Q 384 1609 779 1909 
Q 1175 2209 1959 2209 
L 2766 2209 
L 2766 2266 
Q 2766 2663 2505 2880 
Q 2244 3097 1772 3097 
Q 1472 3097 1187 3025 
Q 903 2953 641 2809 
L 641 3341 
Q 956 3463 1253 3523 
Q 1550 3584 1831 3584 
Q 2591 3584 2966 3190 
Q 3341 2797 3341 1997 
z
" transform="scale(0.015625)"/>
       <path id="DejaVuSans-67" d="M 2906 1791 
Q 2906 2416 2648 2759 
Q 2391 3103 1925 3103 
Q 1463 3103 1205 2759 
Q 947 2416 947 1791 
Q 947 1169 1205 825 
Q 1463 481 1925 481 
Q 2391 481 2648 825 
Q 2906 1169 2906 1791 
z
M 3481 434 
Q 3481 -459 3084 -895 
Q 2688 -1331 1869 -1331 
Q 1566 -1331 1297 -1286 
Q 1028 -1241 775 -1147 
L 775 -588 
Q 1028 -725 1275 -790 
Q 1522 -856 1778 -856 
Q 2344 -856 2625 -561 
Q 2906 -266 2906 331 
L 2906 616 
Q 2728 306 2450 153 
Q 2172 0 1784 0 
Q 1141 0 747 490 
Q 353 981 353 1791 
Q 353 2603 747 3093 
Q 1141 3584 1784 3584 
Q 2172 3584 2450 3431 
Q 2728 3278 2906 2969 
L 2906 3500 
L 3481 3500 
L 3481 434 
z
" transform="scale(0.015625)"/>
       <path id="DejaVuSans-45" d="M 628 4666 
L 3578 4666 
L 3578 4134 
L 1259 4134 
L 1259 2753 
L 3481 2753 
L 3481 2222 
L 1259 2222 
L 1259 531 
L 3634 531 
L 3634 0 
L 628 0 
L 628 4666 
z
" transform="scale(0.015625)"/>
       <path id="DejaVuSans-77" d="M 269 3500 
L 844 3500 
L 1563 769 
L 2278 3500 
L 2956 3500 
L 3675 769 
L 4391 3500 
L 4966 3500 
L 4050 0 
L 3372 0 
L 2619 2869 
L 1863 0 
L 1184 0 
L 269 3500 
z
" transform="scale(0.015625)"/>
       <path id="DejaVuSans-68" d="M 3513 2113 
L 3513 0 
L 2938 0 
L 2938 2094 
Q 2938 2591 2744 2837 
Q 2550 3084 2163 3084 
Q 1697 3084 1428 2787 
Q 1159 2491 1159 1978 
L 1159 0 
L 581 0 
L 581 4863 
L 1159 4863 
L 1159 2956 
Q 1366 3272 1645 3428 
Q 1925 3584 2291 3584 
Q 2894 3584 3203 3211 
Q 3513 2838 3513 2113 
z
" transform="scale(0.015625)"/>
      </defs>
      <use xlink:href="#DejaVuSans-49"/>
      <use xlink:href="#DejaVuSans-6e" x="29.492188"/>
      <use xlink:href="#DejaVuSans-7a" x="92.871094"/>
      <use xlink:href="#DejaVuSans-69" x="145.361328"/>
      <use xlink:href="#DejaVuSans-64" x="173.144531"/>
      <use xlink:href="#DejaVuSans-65" x="236.621094"/>
      <use xlink:href="#DejaVuSans-6e" x="298.144531"/>
      <use xlink:href="#DejaVuSans-7a" x="361.523438"/>
      <use xlink:href="#DejaVuSans-20" x="414.013672"/>
      <use xlink:href="#DejaVuSans-70" x="445.800781"/>
      <use xlink:href="#DejaVuSans-72" x="509.277344"/>
      <use xlink:href="#DejaVuSans-6f" x="548.140625"/>
      <use xlink:href="#DejaVuSans-20" x="609.322266"/>
      <use xlink:href="#DejaVuSans-37" x="641.109375"/>
      <use xlink:href="#DejaVuSans-20" x="704.732422"/>
      <use xlink:href="#DejaVuSans-54" x="736.519531"/>
      <use xlink:href="#DejaVuSans-61" x="781.103516"/>
      <use xlink:href="#DejaVuSans-67" x="842.382812"/>
      <use xlink:href="#DejaVuSans-65" x="905.859375"/>
      <use xlink:href="#DejaVuSans-20" x="967.382812"/>
      <use xlink:href="#DejaVuSans-70" x="999.169922"/>
      <use xlink:href="#DejaVuSans-72" x="1062.646484"/>
      <use xlink:href="#DejaVuSans-6f" x="1101.509766"/>
      <use xlink:href="#DejaVuSans-20" x="1162.691406"/>
      <use xlink:href="#DejaVuSans-31" x="1194.478516"/>
      <use xlink:href="#DejaVuSans-30" x="1258.101562"/>
      <use xlink:href="#DejaVuSans-30" x="1321.724609"/>
      <use xlink:href="#DejaVuSans-2e" x="1385.347656"/>
      <use xlink:href="#DejaVuSans-30" x="1417.134766"/>
      <use xlink:href="#DejaVuSans-30" x="1480.757812"/>
      <use xlink:href="#DejaVuSans-30" x="1544.380859"/>
      <use xlink:href="#DejaVuSans-20" x="1608.003906"/>
      <use xlink:href="#DejaVuSans-45" x="1639.791016"/>
      <use xlink:href="#DejaVuSans-69" x="1702.974609"/>
      <use xlink:href="#DejaVuSans-6e" x="1730.757812"/>
      <use xlink:href="#DejaVuSans-77" x="1794.136719"/>
      <use xlink:href="#DejaVuSans-6f" x="1875.923828"/>
      <use xlink:href="#DejaVuSans-68" x="1937.105469"/>
      <use xlink:href="#DejaVuSans-6e" x="2000.484375"/>
      <use xlink:href="#DejaVuSans-65" x="2063.863281"/>
      <use xlink:href="#DejaVuSans-72" x="2125.386719"/>
     </g>
    </g>
   </g>
   <g id="line2d_33">
    <path d="M 73.832727 265.797818 
L 76.714276 265.797818 
L 77.194535 265.214092 
L 77.674793 264.046641 
L 78.155051 263.462915 
L 80.076084 263.462915 
L 80.556342 262.295463 
L 81.0366 262.295463 
L 81.516859 261.711738 
L 82.477375 258.209383 
L 82.957633 254.707028 
L 83.91815 253.539577 
L 84.398408 250.620948 
L 85.358924 241.865061 
L 85.839182 237.778981 
L 86.319441 216.764852 
L 86.799699 216.764852 
L 87.279957 216.181127 
L 87.760215 217.348578 
L 88.240473 211.51132 
L 88.720732 210.927595 
L 89.20099 213.846224 
L 89.681248 234.860352 
L 90.161506 234.860352 
L 90.641764 237.778981 
L 91.122023 236.611529 
L 91.602281 245.951142 
L 92.082539 249.453496 
L 92.562797 250.037222 
L 93.043055 251.788399 
L 93.523314 252.372125 
L 94.003572 252.372125 
L 94.48383 255.87448 
L 94.964088 256.458206 
L 95.444346 257.625657 
L 95.924605 258.209383 
L 96.404863 257.625657 
L 96.885121 257.625657 
L 97.365379 257.041931 
L 97.845637 257.041931 
L 98.325896 258.209383 
L 98.806154 256.458206 
L 99.76667 258.793109 
L 100.727187 257.625657 
L 101.687703 257.625657 
L 102.167961 261.128012 
L 102.648219 261.711738 
L 103.128478 262.879189 
L 103.608736 263.462915 
L 104.088994 264.630367 
L 104.569252 264.630367 
L 105.529769 263.462915 
L 106.010027 262.295463 
L 107.450802 262.295463 
L 108.411318 263.462915 
L 108.891576 263.462915 
L 109.371834 264.046641 
L 111.773125 264.046641 
L 112.253384 264.630367 
L 114.654675 264.630367 
L 115.134933 265.214092 
L 115.615191 265.214092 
L 116.095449 265.797818 
L 117.055966 265.797818 
L 117.536224 265.214092 
L 119.457257 265.214092 
L 119.937515 264.630367 
L 120.417773 264.630367 
L 120.898031 265.214092 
L 122.819064 265.214092 
L 123.299322 265.797818 
L 125.700613 265.797818 
L 127.141388 264.046641 
L 127.621646 264.046641 
L 128.101904 257.625657 
L 128.582162 253.539577 
L 129.542679 237.778981 
L 130.022937 237.195255 
L 130.503195 237.778981 
L 130.983453 237.195255 
L 131.463712 243.032513 
L 131.94397 245.367416 
L 132.424228 247.118593 
L 132.904486 252.955851 
L 133.384744 254.123303 
L 133.865003 254.123303 
L 134.345261 253.539577 
L 134.825519 253.539577 
L 135.305777 254.707028 
L 135.786036 259.96056 
L 136.266294 262.879189 
L 136.746552 262.295463 
L 137.22681 262.295463 
L 137.707068 262.879189 
L 138.187327 262.295463 
L 138.667585 259.96056 
L 139.147843 260.544286 
L 139.628101 259.96056 
L 140.108359 260.544286 
L 140.588618 260.544286 
L 141.068876 261.128012 
L 141.549134 262.295463 
L 142.029392 264.630367 
L 142.50965 264.630367 
L 142.989909 265.214092 
L 143.950425 265.214092 
L 144.430683 263.462915 
L 144.910941 260.544286 
L 145.3912 260.544286 
L 145.871458 258.209383 
L 146.351716 254.123303 
L 146.831974 253.539577 
L 147.312232 253.539577 
L 147.792491 254.707028 
L 148.753007 252.372125 
L 149.233265 253.539577 
L 149.713523 250.037222 
L 150.193782 250.620948 
L 150.67404 250.620948 
L 151.154298 248.286045 
L 151.634556 250.037222 
L 152.114814 249.453496 
L 152.595073 243.616238 
L 153.075331 250.620948 
L 153.555589 250.037222 
L 154.035847 250.037222 
L 154.516105 251.788399 
L 154.996364 254.123303 
L 155.476622 255.87448 
L 155.95688 262.879189 
L 156.437138 261.711738 
L 156.917396 253.539577 
L 157.397655 253.539577 
L 157.877913 254.123303 
L 158.358171 252.372125 
L 159.318687 252.372125 
L 159.798946 252.955851 
L 160.279204 261.128012 
L 160.759462 261.128012 
L 161.23972 261.711738 
L 161.719978 262.879189 
L 162.200237 263.462915 
L 162.680495 261.711738 
L 163.160753 258.793109 
L 164.121269 257.625657 
L 164.601528 252.955851 
L 165.081786 253.539577 
L 165.562044 252.955851 
L 166.042302 254.707028 
L 166.522561 258.209383 
L 167.002819 258.209383 
L 167.483077 258.793109 
L 167.963335 262.879189 
L 169.40411 262.879189 
L 169.884368 257.041931 
L 170.364626 258.209383 
L 170.844884 257.041931 
L 171.325143 255.290754 
L 171.805401 255.290754 
L 172.285659 253.539577 
L 172.765917 250.620948 
L 173.246175 253.539577 
L 173.726434 252.955851 
L 174.206692 254.123303 
L 174.68695 248.86977 
L 175.167208 247.702319 
L 175.647466 248.286045 
L 176.127725 246.534867 
L 176.607983 247.118593 
L 178.048757 241.865061 
L 178.529016 237.195255 
L 179.009274 227.271917 
L 179.489532 227.271917 
L 179.96979 222.60211 
L 180.450048 219.683481 
L 180.930307 220.850933 
L 181.410565 226.104465 
L 181.890823 223.185836 
L 182.371081 227.271917 
L 182.851339 226.104465 
L 183.811856 215.597401 
L 184.292114 215.013675 
L 184.772372 204.506611 
L 185.25263 203.339159 
L 185.732889 193.999547 
L 186.213147 170.650516 
L 187.173663 156.057371 
L 187.653921 149.636387 
L 188.13418 153.138742 
L 188.614438 150.220113 
L 189.094696 143.215404 
L 190.055212 157.224823 
L 190.535471 168.315613 
L 191.015729 172.401693 
L 191.495987 175.320322 
L 191.976245 167.731887 
L 192.456503 170.06679 
L 192.936762 177.655225 
L 193.41702 175.320322 
L 193.897278 174.736596 
L 194.377536 168.899338 
L 194.857795 170.06679 
L 195.338053 190.497192 
L 196.298569 154.88992 
L 196.778827 156.057371 
L 197.259086 162.478355 
L 197.739344 171.817967 
L 198.219602 151.971291 
L 198.69986 146.717759 
L 199.660377 196.33445 
L 200.140635 203.922885 
L 200.620893 188.746015 
L 201.101151 188.746015 
L 201.581409 208.008966 
L 202.061668 195.750724 
L 202.541926 194.583273 
L 203.022184 188.746015 
L 203.502442 196.33445 
L 203.9827 192.24837 
L 204.462959 192.24837 
L 204.943217 192.832095 
L 205.423475 201.587982 
L 205.903733 201.587982 
L 206.383991 198.669353 
L 206.86425 189.913466 
L 207.344508 209.176417 
L 207.824766 188.162289 
L 208.785282 170.06679 
L 209.265541 171.234241 
L 209.745799 170.650516 
L 210.706315 153.722468 
L 211.186573 174.15287 
L 211.666832 170.650516 
L 212.14709 174.736596 
L 213.107606 125.119905 
L 213.587864 93.598712 
L 214.068123 99.43597 
L 214.548381 100.019696 
L 215.028639 58.575165 
L 215.508897 52.737908 
L 215.989155 59.158891 
L 216.949672 153.138742 
L 217.42993 155.473645 
L 217.910188 155.473645 
L 218.390446 177.655225 
L 218.870705 167.148161 
L 219.350963 178.238951 
L 219.831221 157.808548 
L 220.311479 157.808548 
L 220.791737 154.306194 
L 221.271996 153.722468 
L 221.752254 179.990128 
L 222.232512 195.750724 
L 222.71277 202.755434 
L 223.193029 213.262498 
L 224.153545 189.329741 
L 224.633803 189.913466 
L 225.114061 171.817967 
L 225.59432 160.143452 
L 226.074578 159.559726 
L 226.554836 163.06208 
L 227.035094 161.310903 
L 227.515352 174.736596 
L 227.995611 171.234241 
L 228.475869 196.33445 
L 228.956127 210.927595 
L 229.436385 202.755434 
L 230.396902 195.166999 
L 230.87716 196.918176 
L 231.357418 196.918176 
L 231.837676 198.669353 
L 232.317934 205.090337 
L 232.798193 209.176417 
L 233.278451 206.257788 
L 233.758709 211.51132 
L 234.238967 208.008966 
L 235.199484 211.51132 
L 235.679742 208.592692 
L 236.640258 230.774271 
L 237.120516 236.611529 
L 237.600775 236.027803 
L 238.081033 237.778981 
L 238.561291 233.6929 
L 239.041549 237.778981 
L 239.521807 229.023094 
L 240.002066 224.937013 
L 240.482324 219.683481 
L 240.962582 220.850933 
L 241.44284 219.683481 
L 241.923098 223.769562 
L 242.403357 220.850933 
L 242.883615 225.520739 
L 243.363873 224.937013 
L 243.844131 232.525449 
L 244.804648 232.525449 
L 245.284906 233.6929 
L 245.765164 233.109174 
L 246.245422 230.774271 
L 246.72568 231.357997 
L 247.205939 226.688191 
L 247.686197 226.688191 
L 248.166455 226.104465 
L 249.126971 219.683481 
L 249.60723 227.271917 
L 250.087488 226.104465 
L 250.567746 229.023094 
L 251.048004 229.023094 
L 251.528263 227.855642 
L 252.008521 221.434659 
L 252.488779 226.688191 
L 252.969037 223.185836 
L 253.449295 221.434659 
L 253.929554 218.51603 
L 254.409812 217.932304 
L 254.89007 213.262498 
L 255.370328 222.60211 
L 255.850586 201.587982 
L 256.330845 196.918176 
L 256.811103 194.583273 
L 257.291361 186.411112 
L 257.771619 185.827386 
L 258.251877 186.994838 
L 258.732136 182.325031 
L 259.212394 192.24837 
L 259.692652 179.990128 
L 260.17291 154.88992 
L 260.653168 146.717759 
L 261.133427 129.789711 
L 261.613685 126.871082 
L 262.093943 115.780292 
L 262.574201 113.445389 
L 263.054459 109.943034 
L 264.014976 132.70834 
L 264.495234 149.636387 
L 264.975492 152.555016 
L 265.45575 165.980709 
L 265.936009 167.148161 
L 266.416267 170.650516 
L 267.376783 165.396984 
L 267.857041 156.057371 
L 268.3373 158.976 
L 268.817558 155.473645 
L 269.297816 145.550307 
L 269.778074 146.134033 
L 270.258332 159.559726 
L 270.738591 162.478355 
L 271.218849 160.727177 
L 271.699107 163.06208 
L 272.179365 160.727177 
L 272.659623 174.736596 
L 273.139882 167.148161 
L 274.100398 162.478355 
L 274.580656 172.401693 
L 275.060914 170.06679 
L 275.541173 182.908757 
L 276.021431 180.573854 
L 276.501689 195.750724 
L 276.981947 194.583273 
L 277.462205 197.501902 
L 277.942464 193.999547 
L 278.422722 195.166999 
L 278.90298 186.994838 
L 279.383238 187.578563 
L 279.863497 191.664644 
L 280.343755 202.755434 
L 280.824013 205.090337 
L 281.304271 209.176417 
L 281.784529 209.760143 
L 282.264788 212.678772 
L 282.745046 213.846224 
L 283.225304 217.348578 
L 283.705562 219.683481 
L 284.18582 226.688191 
L 284.666079 216.181127 
L 286.106853 219.683481 
L 286.587111 216.764852 
L 287.547628 207.42524 
L 288.027886 217.348578 
L 288.508144 212.095046 
L 288.988402 212.095046 
L 289.468661 223.185836 
L 289.948919 230.774271 
L 290.429177 236.027803 
L 290.909435 238.362706 
L 291.389693 240.113884 
L 291.869952 244.78369 
L 292.35021 238.362706 
L 292.830468 237.778981 
L 293.310726 237.778981 
L 293.790984 240.113884 
L 294.271243 239.530158 
L 294.751501 244.78369 
L 295.231759 245.367416 
L 295.712017 251.204674 
L 296.192275 252.372125 
L 296.672534 255.87448 
L 297.152792 257.625657 
L 297.63305 262.879189 
L 298.593566 261.711738 
L 299.073825 257.625657 
L 299.554083 257.041931 
L 300.514599 257.041931 
L 301.475116 254.707028 
L 301.955374 255.87448 
L 302.435632 260.544286 
L 302.91589 261.128012 
L 303.396148 260.544286 
L 304.836923 262.295463 
L 305.317181 262.295463 
L 305.797439 261.711738 
L 306.277698 259.96056 
L 306.757956 260.544286 
L 308.678989 260.544286 
L 309.159247 261.711738 
L 309.639505 263.462915 
L 310.119763 262.295463 
L 310.600022 262.295463 
L 311.08028 262.879189 
L 311.560538 261.128012 
L 312.521054 261.128012 
L 313.001313 261.711738 
L 313.481571 261.128012 
L 313.961829 261.128012 
L 314.442087 259.96056 
L 314.922345 261.711738 
L 315.402604 261.711738 
L 315.882862 261.128012 
L 316.843378 258.793109 
L 317.803895 257.625657 
L 319.244669 257.625657 
L 319.724927 254.707028 
L 320.205186 257.041931 
L 320.685444 256.458206 
L 321.165702 258.209383 
L 322.606477 258.209383 
L 323.086735 258.793109 
L 323.566993 257.625657 
L 324.047251 257.625657 
L 324.527509 254.123303 
L 325.007768 253.539577 
L 325.488026 253.539577 
L 325.968284 250.620948 
L 326.448542 250.620948 
L 326.9288 249.453496 
L 327.409059 246.534867 
L 327.889317 247.118593 
L 328.369575 244.78369 
L 328.849833 244.78369 
L 329.330091 245.367416 
L 329.81035 236.027803 
L 330.290608 234.276626 
L 330.770866 234.276626 
L 331.251124 233.6929 
L 331.731382 234.860352 
L 332.211641 233.6929 
L 332.691899 231.941723 
L 333.172157 243.032513 
L 333.652415 243.032513 
L 334.132673 238.362706 
L 334.612932 238.946432 
L 335.09319 233.6929 
L 336.053706 236.027803 
L 336.533964 228.439368 
L 337.014223 227.855642 
L 337.494481 234.276626 
L 337.974739 226.688191 
L 338.454997 227.271917 
L 338.935256 227.271917 
L 339.895772 219.099756 
L 340.37603 211.51132 
L 340.856288 201.587982 
L 341.336547 205.090337 
L 342.297063 205.090337 
L 343.737838 223.769562 
L 344.218096 233.6929 
L 344.698354 238.362706 
L 345.178612 241.281335 
L 345.65887 241.281335 
L 346.139129 242.448787 
L 346.619387 244.78369 
L 347.099645 245.367416 
L 348.060161 244.199964 
L 348.54042 245.951142 
L 349.020678 245.951142 
L 349.500936 238.946432 
L 349.981194 238.362706 
L 350.461452 232.525449 
L 350.941711 229.60682 
L 351.421969 230.190545 
L 351.902227 229.023094 
L 352.382485 229.023094 
L 352.862743 234.860352 
L 353.82326 241.865061 
L 354.303518 238.946432 
L 354.783776 240.113884 
L 355.264034 240.69761 
L 355.744293 240.69761 
L 356.224551 241.281335 
L 357.185067 235.444077 
L 357.665325 238.946432 
L 358.145584 232.525449 
L 358.625842 231.357997 
L 359.1061 231.357997 
L 360.066616 223.185836 
L 360.546875 220.850933 
L 361.027133 215.013675 
L 361.507391 213.846224 
L 361.987649 210.343869 
L 362.467907 210.343869 
L 362.948166 209.760143 
L 363.428424 216.764852 
L 363.908682 220.850933 
L 364.38894 222.018385 
L 364.869198 217.348578 
L 365.349457 214.429949 
L 365.829715 213.846224 
L 366.309973 212.095046 
L 366.790231 202.755434 
L 367.750748 191.080918 
L 368.231006 192.24837 
L 368.711264 186.411112 
L 369.191522 186.994838 
L 369.671781 188.746015 
L 370.152039 181.15758 
L 370.632297 171.234241 
L 371.112555 171.234241 
L 371.592813 161.310903 
L 372.073072 163.645806 
L 372.55333 163.645806 
L 373.513846 150.220113 
L 373.994104 157.224823 
L 374.474363 135.043243 
L 374.954621 133.875791 
L 375.434879 121.033824 
L 375.915137 120.450098 
L 377.355912 96.517341 
L 377.83617 98.852244 
L 378.316428 98.268519 
L 378.796686 114.029115 
L 379.276945 114.612841 
L 379.757203 118.698921 
L 380.237461 125.70363 
L 380.717719 118.115195 
L 381.197977 135.626969 
L 381.678236 138.545598 
L 382.638752 136.210694 
L 383.11901 134.459517 
L 383.599268 140.296775 
L 384.079527 139.713049 
L 384.559785 136.210694 
L 385.040043 142.047952 
L 385.520301 139.129323 
L 386.000559 140.296775 
L 386.480818 150.803839 
L 386.961076 156.641097 
L 387.441334 156.057371 
L 387.921592 151.971291 
L 388.40185 151.387565 
L 388.882109 146.717759 
L 389.362367 146.717759 
L 389.842625 143.215404 
L 390.322883 142.047952 
L 390.803141 159.559726 
L 391.2834 170.650516 
L 391.763658 166.564435 
L 392.243916 175.904048 
L 392.724174 175.904048 
L 393.204432 170.06679 
L 394.164949 116.947744 
L 394.645207 72.000858 
L 395.125465 69.08223 
L 395.605724 79.005568 
L 396.085982 79.005568 
L 396.56624 72.584584 
L 397.046498 83.091648 
L 397.526756 74.335762 
L 398.007015 67.914778 
L 398.487273 52.154182 
L 398.487273 52.154182 
" clip-path="url(#p2d9a249076)" style="fill: none; stroke: #1f77b4; stroke-width: 1.5; stroke-linecap: square"/>
   </g>
   <g id="patch_3">
    <path d="M 57.6 276.48 
L 57.6 41.472 
" style="fill: none; stroke: #000000; stroke-width: 0.8; stroke-linejoin: miter; stroke-linecap: square"/>
   </g>
   <g id="patch_4">
    <path d="M 414.72 276.48 
L 414.72 41.472 
" style="fill: none; stroke: #000000; stroke-width: 0.8; stroke-linejoin: miter; stroke-linecap: square"/>
   </g>
   <g id="patch_5">
    <path d="M 57.6 276.48 
L 414.72 276.48 
" style="fill: none; stroke: #000000; stroke-width: 0.8; stroke-linejoin: miter; stroke-linecap: square"/>
   </g>
   <g id="patch_6">
    <path d="M 57.6 41.472 
L 414.72 41.472 
" style="fill: none; stroke: #000000; stroke-width: 0.8; stroke-linejoin: miter; stroke-linecap: square"/>
   </g>
  </g>
  <g id="text_18">
   <!-- Inzidenzverlauf LK Oldenburg -->
   <g transform="translate(97.835625 20.589187)scale(0.18 -0.18)">
    <defs>
     <path id="DejaVuSans-76" d="M 191 3500 
L 800 3500 
L 1894 563 
L 2988 3500 
L 3597 3500 
L 2284 0 
L 1503 0 
L 191 3500 
z
" transform="scale(0.015625)"/>
     <path id="DejaVuSans-6c" d="M 603 4863 
L 1178 4863 
L 1178 0 
L 603 0 
L 603 4863 
z
" transform="scale(0.015625)"/>
     <path id="DejaVuSans-75" d="M 544 1381 
L 544 3500 
L 1119 3500 
L 1119 1403 
Q 1119 906 1312 657 
Q 1506 409 1894 409 
Q 2359 409 2629 706 
Q 2900 1003 2900 1516 
L 2900 3500 
L 3475 3500 
L 3475 0 
L 2900 0 
L 2900 538 
Q 2691 219 2414 64 
Q 2138 -91 1772 -91 
Q 1169 -91 856 284 
Q 544 659 544 1381 
z
M 1991 3584 
L 1991 3584 
z
" transform="scale(0.015625)"/>
     <path id="DejaVuSans-66" d="M 2375 4863 
L 2375 4384 
L 1825 4384 
Q 1516 4384 1395 4259 
Q 1275 4134 1275 3809 
L 1275 3500 
L 2222 3500 
L 2222 3053 
L 1275 3053 
L 1275 0 
L 697 0 
L 697 3053 
L 147 3053 
L 147 3500 
L 697 3500 
L 697 3744 
Q 697 4328 969 4595 
Q 1241 4863 1831 4863 
L 2375 4863 
z
" transform="scale(0.015625)"/>
     <path id="DejaVuSans-4c" d="M 628 4666 
L 1259 4666 
L 1259 531 
L 3531 531 
L 3531 0 
L 628 0 
L 628 4666 
z
" transform="scale(0.015625)"/>
     <path id="DejaVuSans-4b" d="M 628 4666 
L 1259 4666 
L 1259 2694 
L 3353 4666 
L 4166 4666 
L 1850 2491 
L 4331 0 
L 3500 0 
L 1259 2247 
L 1259 0 
L 628 0 
L 628 4666 
z
" transform="scale(0.015625)"/>
     <path id="DejaVuSans-4f" d="M 2522 4238 
Q 1834 4238 1429 3725 
Q 1025 3213 1025 2328 
Q 1025 1447 1429 934 
Q 1834 422 2522 422 
Q 3209 422 3611 934 
Q 4013 1447 4013 2328 
Q 4013 3213 3611 3725 
Q 3209 4238 2522 4238 
z
M 2522 4750 
Q 3503 4750 4090 4092 
Q 4678 3434 4678 2328 
Q 4678 1225 4090 567 
Q 3503 -91 2522 -91 
Q 1538 -91 948 565 
Q 359 1222 359 2328 
Q 359 3434 948 4092 
Q 1538 4750 2522 4750 
z
" transform="scale(0.015625)"/>
     <path id="DejaVuSans-62" d="M 3116 1747 
Q 3116 2381 2855 2742 
Q 2594 3103 2138 3103 
Q 1681 3103 1420 2742 
Q 1159 2381 1159 1747 
Q 1159 1113 1420 752 
Q 1681 391 2138 391 
Q 2594 391 2855 752 
Q 3116 1113 3116 1747 
z
M 1159 2969 
Q 1341 3281 1617 3432 
Q 1894 3584 2278 3584 
Q 2916 3584 3314 3078 
Q 3713 2572 3713 1747 
Q 3713 922 3314 415 
Q 2916 -91 2278 -91 
Q 1894 -91 1617 61 
Q 1341 213 1159 525 
L 1159 0 
L 581 0 
L 581 4863 
L 1159 4863 
L 1159 2969 
z
" transform="scale(0.015625)"/>
    </defs>
    <use xlink:href="#DejaVuSans-49"/>
    <use xlink:href="#DejaVuSans-6e" x="29.492188"/>
    <use xlink:href="#DejaVuSans-7a" x="92.871094"/>
    <use xlink:href="#DejaVuSans-69" x="145.361328"/>
    <use xlink:href="#DejaVuSans-64" x="173.144531"/>
    <use xlink:href="#DejaVuSans-65" x="236.621094"/>
    <use xlink:href="#DejaVuSans-6e" x="298.144531"/>
    <use xlink:href="#DejaVuSans-7a" x="361.523438"/>
    <use xlink:href="#DejaVuSans-76" x="414.013672"/>
    <use xlink:href="#DejaVuSans-65" x="473.193359"/>
    <use xlink:href="#DejaVuSans-72" x="534.716797"/>
    <use xlink:href="#DejaVuSans-6c" x="575.830078"/>
    <use xlink:href="#DejaVuSans-61" x="603.613281"/>
    <use xlink:href="#DejaVuSans-75" x="664.892578"/>
    <use xlink:href="#DejaVuSans-66" x="728.271484"/>
    <use xlink:href="#DejaVuSans-20" x="763.476562"/>
    <use xlink:href="#DejaVuSans-4c" x="795.263672"/>
    <use xlink:href="#DejaVuSans-4b" x="850.976562"/>
    <use xlink:href="#DejaVuSans-20" x="916.552734"/>
    <use xlink:href="#DejaVuSans-4f" x="948.339844"/>
    <use xlink:href="#DejaVuSans-6c" x="1027.050781"/>
    <use xlink:href="#DejaVuSans-64" x="1054.833984"/>
    <use xlink:href="#DejaVuSans-65" x="1118.310547"/>
    <use xlink:href="#DejaVuSans-6e" x="1179.833984"/>
    <use xlink:href="#DejaVuSans-62" x="1243.212891"/>
    <use xlink:href="#DejaVuSans-75" x="1306.689453"/>
    <use xlink:href="#DejaVuSans-72" x="1370.068359"/>
    <use xlink:href="#DejaVuSans-67" x="1409.431641"/>
   </g>
  </g>
 </g>
 <defs>
  <clipPath id="p2d9a249076">
   <rect x="57.6" y="41.472" width="357.12" height="235.008"/>
  </clipPath>
 </defs>
</svg>
