<?xml version="1.0" encoding="utf-8" standalone="no"?>
<!DOCTYPE svg PUBLIC "-//W3C//DTD SVG 1.1//EN"
  "http://www.w3.org/Graphics/SVG/1.1/DTD/svg11.dtd">
<svg xmlns:xlink="http://www.w3.org/1999/xlink" width="460.8pt" height="345.6pt" viewBox="0 0 460.8 345.6" xmlns="http://www.w3.org/2000/svg" version="1.1">
 <metadata>
  <rdf:RDF xmlns:dc="http://purl.org/dc/elements/1.1/" xmlns:cc="http://creativecommons.org/ns#" xmlns:rdf="http://www.w3.org/1999/02/22-rdf-syntax-ns#">
   <cc:Work>
    <dc:type rdf:resource="http://purl.org/dc/dcmitype/StillImage"/>
    <dc:date>2022-09-18T09:24:29.035568</dc:date>
    <dc:format>image/svg+xml</dc:format>
    <dc:creator>
     <cc:Agent>
      <dc:title>Matplotlib v3.6.0, https://matplotlib.org/</dc:title>
     </cc:Agent>
    </dc:creator>
   </cc:Work>
  </rdf:RDF>
 </metadata>
 <defs>
  <style type="text/css">*{stroke-linejoin: round; stroke-linecap: butt}</style>
 </defs>
 <g id="figure_1">
  <g id="patch_1">
   <path d="M 0 345.6 
L 460.8 345.6 
L 460.8 0 
L 0 0 
z
" style="fill: #ffffff"/>
  </g>
  <g id="axes_1">
   <g id="patch_2">
    <path d="M 57.6 276.48 
L 414.72 276.48 
L 414.72 41.472 
L 57.6 41.472 
z
" style="fill: #ffffff"/>
   </g>
   <g id="matplotlib.axis_1">
    <g id="xtick_1">
     <g id="line2d_1">
      <path d="M 59.955988 276.48 
L 59.955988 41.472 
" clip-path="url(#p005aec25a4)" style="fill: none; stroke-dasharray: 2.96,1.28; stroke-dashoffset: 0; stroke: #808080; stroke-width: 0.8"/>
     </g>
     <g id="line2d_2">
      <defs>
       <path id="m284c43a283" d="M 0 0 
L 0 3.5 
" style="stroke: #000000; stroke-width: 0.8"/>
      </defs>
      <g>
       <use xlink:href="#m284c43a283" x="59.955988" y="276.48" style="stroke: #000000; stroke-width: 0.8"/>
      </g>
     </g>
     <g id="text_1">
      <!-- 23.01.2020 -->
      <g transform="translate(9.330777 318.688565) rotate(-30) scale(0.1 -0.1)">
       <defs>
        <path id="DejaVuSans-32" d="M 1228 531 
L 3431 531 
L 3431 0 
L 469 0 
L 469 531 
Q 828 903 1448 1529 
Q 2069 2156 2228 2338 
Q 2531 2678 2651 2914 
Q 2772 3150 2772 3378 
Q 2772 3750 2511 3984 
Q 2250 4219 1831 4219 
Q 1534 4219 1204 4116 
Q 875 4013 500 3803 
L 500 4441 
Q 881 4594 1212 4672 
Q 1544 4750 1819 4750 
Q 2544 4750 2975 4387 
Q 3406 4025 3406 3419 
Q 3406 3131 3298 2873 
Q 3191 2616 2906 2266 
Q 2828 2175 2409 1742 
Q 1991 1309 1228 531 
z
" transform="scale(0.015625)"/>
        <path id="DejaVuSans-33" d="M 2597 2516 
Q 3050 2419 3304 2112 
Q 3559 1806 3559 1356 
Q 3559 666 3084 287 
Q 2609 -91 1734 -91 
Q 1441 -91 1130 -33 
Q 819 25 488 141 
L 488 750 
Q 750 597 1062 519 
Q 1375 441 1716 441 
Q 2309 441 2620 675 
Q 2931 909 2931 1356 
Q 2931 1769 2642 2001 
Q 2353 2234 1838 2234 
L 1294 2234 
L 1294 2753 
L 1863 2753 
Q 2328 2753 2575 2939 
Q 2822 3125 2822 3475 
Q 2822 3834 2567 4026 
Q 2313 4219 1838 4219 
Q 1578 4219 1281 4162 
Q 984 4106 628 3988 
L 628 4550 
Q 988 4650 1302 4700 
Q 1616 4750 1894 4750 
Q 2613 4750 3031 4423 
Q 3450 4097 3450 3541 
Q 3450 3153 3228 2886 
Q 3006 2619 2597 2516 
z
" transform="scale(0.015625)"/>
        <path id="DejaVuSans-2e" d="M 684 794 
L 1344 794 
L 1344 0 
L 684 0 
L 684 794 
z
" transform="scale(0.015625)"/>
        <path id="DejaVuSans-30" d="M 2034 4250 
Q 1547 4250 1301 3770 
Q 1056 3291 1056 2328 
Q 1056 1369 1301 889 
Q 1547 409 2034 409 
Q 2525 409 2770 889 
Q 3016 1369 3016 2328 
Q 3016 3291 2770 3770 
Q 2525 4250 2034 4250 
z
M 2034 4750 
Q 2819 4750 3233 4129 
Q 3647 3509 3647 2328 
Q 3647 1150 3233 529 
Q 2819 -91 2034 -91 
Q 1250 -91 836 529 
Q 422 1150 422 2328 
Q 422 3509 836 4129 
Q 1250 4750 2034 4750 
z
" transform="scale(0.015625)"/>
        <path id="DejaVuSans-31" d="M 794 531 
L 1825 531 
L 1825 4091 
L 703 3866 
L 703 4441 
L 1819 4666 
L 2450 4666 
L 2450 531 
L 3481 531 
L 3481 0 
L 794 0 
L 794 531 
z
" transform="scale(0.015625)"/>
       </defs>
       <use xlink:href="#DejaVuSans-32"/>
       <use xlink:href="#DejaVuSans-33" x="63.623047"/>
       <use xlink:href="#DejaVuSans-2e" x="127.246094"/>
       <use xlink:href="#DejaVuSans-30" x="159.033203"/>
       <use xlink:href="#DejaVuSans-31" x="222.65625"/>
       <use xlink:href="#DejaVuSans-2e" x="286.279297"/>
       <use xlink:href="#DejaVuSans-32" x="318.066406"/>
       <use xlink:href="#DejaVuSans-30" x="381.689453"/>
       <use xlink:href="#DejaVuSans-32" x="445.3125"/>
       <use xlink:href="#DejaVuSans-30" x="508.935547"/>
      </g>
     </g>
    </g>
    <g id="xtick_2">
     <g id="line2d_3">
      <path d="M 95.951056 276.48 
L 95.951056 41.472 
" clip-path="url(#p005aec25a4)" style="fill: none; stroke-dasharray: 2.96,1.28; stroke-dashoffset: 0; stroke: #808080; stroke-width: 0.8"/>
     </g>
     <g id="line2d_4">
      <g>
       <use xlink:href="#m284c43a283" x="95.951056" y="276.48" style="stroke: #000000; stroke-width: 0.8"/>
      </g>
     </g>
     <g id="text_2">
      <!-- 05.05.2020 -->
      <g transform="translate(45.325845 318.688565) rotate(-30) scale(0.1 -0.1)">
       <defs>
        <path id="DejaVuSans-35" d="M 691 4666 
L 3169 4666 
L 3169 4134 
L 1269 4134 
L 1269 2991 
Q 1406 3038 1543 3061 
Q 1681 3084 1819 3084 
Q 2600 3084 3056 2656 
Q 3513 2228 3513 1497 
Q 3513 744 3044 326 
Q 2575 -91 1722 -91 
Q 1428 -91 1123 -41 
Q 819 9 494 109 
L 494 744 
Q 775 591 1075 516 
Q 1375 441 1709 441 
Q 2250 441 2565 725 
Q 2881 1009 2881 1497 
Q 2881 1984 2565 2268 
Q 2250 2553 1709 2553 
Q 1456 2553 1204 2497 
Q 953 2441 691 2322 
L 691 4666 
z
" transform="scale(0.015625)"/>
       </defs>
       <use xlink:href="#DejaVuSans-30"/>
       <use xlink:href="#DejaVuSans-35" x="63.623047"/>
       <use xlink:href="#DejaVuSans-2e" x="127.246094"/>
       <use xlink:href="#DejaVuSans-30" x="159.033203"/>
       <use xlink:href="#DejaVuSans-35" x="222.65625"/>
       <use xlink:href="#DejaVuSans-2e" x="286.279297"/>
       <use xlink:href="#DejaVuSans-32" x="318.066406"/>
       <use xlink:href="#DejaVuSans-30" x="381.689453"/>
       <use xlink:href="#DejaVuSans-32" x="445.3125"/>
       <use xlink:href="#DejaVuSans-30" x="508.935547"/>
      </g>
     </g>
    </g>
    <g id="xtick_3">
     <g id="line2d_5">
      <path d="M 131.946124 276.48 
L 131.946124 41.472 
" clip-path="url(#p005aec25a4)" style="fill: none; stroke-dasharray: 2.96,1.28; stroke-dashoffset: 0; stroke: #808080; stroke-width: 0.8"/>
     </g>
     <g id="line2d_6">
      <g>
       <use xlink:href="#m284c43a283" x="131.946124" y="276.48" style="stroke: #000000; stroke-width: 0.8"/>
      </g>
     </g>
     <g id="text_3">
      <!-- 16.08.2020 -->
      <g transform="translate(81.320913 318.688565) rotate(-30) scale(0.1 -0.1)">
       <defs>
        <path id="DejaVuSans-36" d="M 2113 2584 
Q 1688 2584 1439 2293 
Q 1191 2003 1191 1497 
Q 1191 994 1439 701 
Q 1688 409 2113 409 
Q 2538 409 2786 701 
Q 3034 994 3034 1497 
Q 3034 2003 2786 2293 
Q 2538 2584 2113 2584 
z
M 3366 4563 
L 3366 3988 
Q 3128 4100 2886 4159 
Q 2644 4219 2406 4219 
Q 1781 4219 1451 3797 
Q 1122 3375 1075 2522 
Q 1259 2794 1537 2939 
Q 1816 3084 2150 3084 
Q 2853 3084 3261 2657 
Q 3669 2231 3669 1497 
Q 3669 778 3244 343 
Q 2819 -91 2113 -91 
Q 1303 -91 875 529 
Q 447 1150 447 2328 
Q 447 3434 972 4092 
Q 1497 4750 2381 4750 
Q 2619 4750 2861 4703 
Q 3103 4656 3366 4563 
z
" transform="scale(0.015625)"/>
        <path id="DejaVuSans-38" d="M 2034 2216 
Q 1584 2216 1326 1975 
Q 1069 1734 1069 1313 
Q 1069 891 1326 650 
Q 1584 409 2034 409 
Q 2484 409 2743 651 
Q 3003 894 3003 1313 
Q 3003 1734 2745 1975 
Q 2488 2216 2034 2216 
z
M 1403 2484 
Q 997 2584 770 2862 
Q 544 3141 544 3541 
Q 544 4100 942 4425 
Q 1341 4750 2034 4750 
Q 2731 4750 3128 4425 
Q 3525 4100 3525 3541 
Q 3525 3141 3298 2862 
Q 3072 2584 2669 2484 
Q 3125 2378 3379 2068 
Q 3634 1759 3634 1313 
Q 3634 634 3220 271 
Q 2806 -91 2034 -91 
Q 1263 -91 848 271 
Q 434 634 434 1313 
Q 434 1759 690 2068 
Q 947 2378 1403 2484 
z
M 1172 3481 
Q 1172 3119 1398 2916 
Q 1625 2713 2034 2713 
Q 2441 2713 2670 2916 
Q 2900 3119 2900 3481 
Q 2900 3844 2670 4047 
Q 2441 4250 2034 4250 
Q 1625 4250 1398 4047 
Q 1172 3844 1172 3481 
z
" transform="scale(0.015625)"/>
       </defs>
       <use xlink:href="#DejaVuSans-31"/>
       <use xlink:href="#DejaVuSans-36" x="63.623047"/>
       <use xlink:href="#DejaVuSans-2e" x="127.246094"/>
       <use xlink:href="#DejaVuSans-30" x="159.033203"/>
       <use xlink:href="#DejaVuSans-38" x="222.65625"/>
       <use xlink:href="#DejaVuSans-2e" x="286.279297"/>
       <use xlink:href="#DejaVuSans-32" x="318.066406"/>
       <use xlink:href="#DejaVuSans-30" x="381.689453"/>
       <use xlink:href="#DejaVuSans-32" x="445.3125"/>
       <use xlink:href="#DejaVuSans-30" x="508.935547"/>
      </g>
     </g>
    </g>
    <g id="xtick_4">
     <g id="line2d_7">
      <path d="M 167.941192 276.48 
L 167.941192 41.472 
" clip-path="url(#p005aec25a4)" style="fill: none; stroke-dasharray: 2.96,1.28; stroke-dashoffset: 0; stroke: #808080; stroke-width: 0.8"/>
     </g>
     <g id="line2d_8">
      <g>
       <use xlink:href="#m284c43a283" x="167.941192" y="276.48" style="stroke: #000000; stroke-width: 0.8"/>
      </g>
     </g>
     <g id="text_4">
      <!-- 27.11.2020 -->
      <g transform="translate(117.315981 318.688565) rotate(-30) scale(0.1 -0.1)">
       <defs>
        <path id="DejaVuSans-37" d="M 525 4666 
L 3525 4666 
L 3525 4397 
L 1831 0 
L 1172 0 
L 2766 4134 
L 525 4134 
L 525 4666 
z
" transform="scale(0.015625)"/>
       </defs>
       <use xlink:href="#DejaVuSans-32"/>
       <use xlink:href="#DejaVuSans-37" x="63.623047"/>
       <use xlink:href="#DejaVuSans-2e" x="127.246094"/>
       <use xlink:href="#DejaVuSans-31" x="159.033203"/>
       <use xlink:href="#DejaVuSans-31" x="222.65625"/>
       <use xlink:href="#DejaVuSans-2e" x="286.279297"/>
       <use xlink:href="#DejaVuSans-32" x="318.066406"/>
       <use xlink:href="#DejaVuSans-30" x="381.689453"/>
       <use xlink:href="#DejaVuSans-32" x="445.3125"/>
       <use xlink:href="#DejaVuSans-30" x="508.935547"/>
      </g>
     </g>
    </g>
    <g id="xtick_5">
     <g id="line2d_9">
      <path d="M 203.93626 276.48 
L 203.93626 41.472 
" clip-path="url(#p005aec25a4)" style="fill: none; stroke-dasharray: 2.96,1.28; stroke-dashoffset: 0; stroke: #808080; stroke-width: 0.8"/>
     </g>
     <g id="line2d_10">
      <g>
       <use xlink:href="#m284c43a283" x="203.93626" y="276.48" style="stroke: #000000; stroke-width: 0.8"/>
      </g>
     </g>
     <g id="text_5">
      <!-- 10.03.2021 -->
      <g transform="translate(153.311049 318.688565) rotate(-30) scale(0.1 -0.1)">
       <use xlink:href="#DejaVuSans-31"/>
       <use xlink:href="#DejaVuSans-30" x="63.623047"/>
       <use xlink:href="#DejaVuSans-2e" x="127.246094"/>
       <use xlink:href="#DejaVuSans-30" x="159.033203"/>
       <use xlink:href="#DejaVuSans-33" x="222.65625"/>
       <use xlink:href="#DejaVuSans-2e" x="286.279297"/>
       <use xlink:href="#DejaVuSans-32" x="318.066406"/>
       <use xlink:href="#DejaVuSans-30" x="381.689453"/>
       <use xlink:href="#DejaVuSans-32" x="445.3125"/>
       <use xlink:href="#DejaVuSans-31" x="508.935547"/>
      </g>
     </g>
    </g>
    <g id="xtick_6">
     <g id="line2d_11">
      <path d="M 239.931328 276.48 
L 239.931328 41.472 
" clip-path="url(#p005aec25a4)" style="fill: none; stroke-dasharray: 2.96,1.28; stroke-dashoffset: 0; stroke: #808080; stroke-width: 0.8"/>
     </g>
     <g id="line2d_12">
      <g>
       <use xlink:href="#m284c43a283" x="239.931328" y="276.48" style="stroke: #000000; stroke-width: 0.8"/>
      </g>
     </g>
     <g id="text_6">
      <!-- 21.06.2021 -->
      <g transform="translate(189.306117 318.688565) rotate(-30) scale(0.1 -0.1)">
       <use xlink:href="#DejaVuSans-32"/>
       <use xlink:href="#DejaVuSans-31" x="63.623047"/>
       <use xlink:href="#DejaVuSans-2e" x="127.246094"/>
       <use xlink:href="#DejaVuSans-30" x="159.033203"/>
       <use xlink:href="#DejaVuSans-36" x="222.65625"/>
       <use xlink:href="#DejaVuSans-2e" x="286.279297"/>
       <use xlink:href="#DejaVuSans-32" x="318.066406"/>
       <use xlink:href="#DejaVuSans-30" x="381.689453"/>
       <use xlink:href="#DejaVuSans-32" x="445.3125"/>
       <use xlink:href="#DejaVuSans-31" x="508.935547"/>
      </g>
     </g>
    </g>
    <g id="xtick_7">
     <g id="line2d_13">
      <path d="M 275.926396 276.48 
L 275.926396 41.472 
" clip-path="url(#p005aec25a4)" style="fill: none; stroke-dasharray: 2.96,1.28; stroke-dashoffset: 0; stroke: #808080; stroke-width: 0.8"/>
     </g>
     <g id="line2d_14">
      <g>
       <use xlink:href="#m284c43a283" x="275.926396" y="276.48" style="stroke: #000000; stroke-width: 0.8"/>
      </g>
     </g>
     <g id="text_7">
      <!-- 02.10.2021 -->
      <g transform="translate(225.301185 318.688565) rotate(-30) scale(0.1 -0.1)">
       <use xlink:href="#DejaVuSans-30"/>
       <use xlink:href="#DejaVuSans-32" x="63.623047"/>
       <use xlink:href="#DejaVuSans-2e" x="127.246094"/>
       <use xlink:href="#DejaVuSans-31" x="159.033203"/>
       <use xlink:href="#DejaVuSans-30" x="222.65625"/>
       <use xlink:href="#DejaVuSans-2e" x="286.279297"/>
       <use xlink:href="#DejaVuSans-32" x="318.066406"/>
       <use xlink:href="#DejaVuSans-30" x="381.689453"/>
       <use xlink:href="#DejaVuSans-32" x="445.3125"/>
       <use xlink:href="#DejaVuSans-31" x="508.935547"/>
      </g>
     </g>
    </g>
    <g id="xtick_8">
     <g id="line2d_15">
      <path d="M 311.921464 276.48 
L 311.921464 41.472 
" clip-path="url(#p005aec25a4)" style="fill: none; stroke-dasharray: 2.96,1.28; stroke-dashoffset: 0; stroke: #808080; stroke-width: 0.8"/>
     </g>
     <g id="line2d_16">
      <g>
       <use xlink:href="#m284c43a283" x="311.921464" y="276.48" style="stroke: #000000; stroke-width: 0.8"/>
      </g>
     </g>
     <g id="text_8">
      <!-- 13.01.2022 -->
      <g transform="translate(261.296253 318.688565) rotate(-30) scale(0.1 -0.1)">
       <use xlink:href="#DejaVuSans-31"/>
       <use xlink:href="#DejaVuSans-33" x="63.623047"/>
       <use xlink:href="#DejaVuSans-2e" x="127.246094"/>
       <use xlink:href="#DejaVuSans-30" x="159.033203"/>
       <use xlink:href="#DejaVuSans-31" x="222.65625"/>
       <use xlink:href="#DejaVuSans-2e" x="286.279297"/>
       <use xlink:href="#DejaVuSans-32" x="318.066406"/>
       <use xlink:href="#DejaVuSans-30" x="381.689453"/>
       <use xlink:href="#DejaVuSans-32" x="445.3125"/>
       <use xlink:href="#DejaVuSans-32" x="508.935547"/>
      </g>
     </g>
    </g>
    <g id="xtick_9">
     <g id="line2d_17">
      <path d="M 347.916532 276.48 
L 347.916532 41.472 
" clip-path="url(#p005aec25a4)" style="fill: none; stroke-dasharray: 2.96,1.28; stroke-dashoffset: 0; stroke: #808080; stroke-width: 0.8"/>
     </g>
     <g id="line2d_18">
      <g>
       <use xlink:href="#m284c43a283" x="347.916532" y="276.48" style="stroke: #000000; stroke-width: 0.8"/>
      </g>
     </g>
     <g id="text_9">
      <!-- 26.04.2022 -->
      <g transform="translate(297.291321 318.688565) rotate(-30) scale(0.1 -0.1)">
       <defs>
        <path id="DejaVuSans-34" d="M 2419 4116 
L 825 1625 
L 2419 1625 
L 2419 4116 
z
M 2253 4666 
L 3047 4666 
L 3047 1625 
L 3713 1625 
L 3713 1100 
L 3047 1100 
L 3047 0 
L 2419 0 
L 2419 1100 
L 313 1100 
L 313 1709 
L 2253 4666 
z
" transform="scale(0.015625)"/>
       </defs>
       <use xlink:href="#DejaVuSans-32"/>
       <use xlink:href="#DejaVuSans-36" x="63.623047"/>
       <use xlink:href="#DejaVuSans-2e" x="127.246094"/>
       <use xlink:href="#DejaVuSans-30" x="159.033203"/>
       <use xlink:href="#DejaVuSans-34" x="222.65625"/>
       <use xlink:href="#DejaVuSans-2e" x="286.279297"/>
       <use xlink:href="#DejaVuSans-32" x="318.066406"/>
       <use xlink:href="#DejaVuSans-30" x="381.689453"/>
       <use xlink:href="#DejaVuSans-32" x="445.3125"/>
       <use xlink:href="#DejaVuSans-32" x="508.935547"/>
      </g>
     </g>
    </g>
    <g id="xtick_10">
     <g id="line2d_19">
      <path d="M 383.9116 276.48 
L 383.9116 41.472 
" clip-path="url(#p005aec25a4)" style="fill: none; stroke-dasharray: 2.96,1.28; stroke-dashoffset: 0; stroke: #808080; stroke-width: 0.8"/>
     </g>
     <g id="line2d_20">
      <g>
       <use xlink:href="#m284c43a283" x="383.9116" y="276.48" style="stroke: #000000; stroke-width: 0.8"/>
      </g>
     </g>
     <g id="text_10">
      <!-- 07.08.2022 -->
      <g transform="translate(333.286389 318.688565) rotate(-30) scale(0.1 -0.1)">
       <use xlink:href="#DejaVuSans-30"/>
       <use xlink:href="#DejaVuSans-37" x="63.623047"/>
       <use xlink:href="#DejaVuSans-2e" x="127.246094"/>
       <use xlink:href="#DejaVuSans-30" x="159.033203"/>
       <use xlink:href="#DejaVuSans-38" x="222.65625"/>
       <use xlink:href="#DejaVuSans-2e" x="286.279297"/>
       <use xlink:href="#DejaVuSans-32" x="318.066406"/>
       <use xlink:href="#DejaVuSans-30" x="381.689453"/>
       <use xlink:href="#DejaVuSans-32" x="445.3125"/>
       <use xlink:href="#DejaVuSans-32" x="508.935547"/>
      </g>
     </g>
    </g>
   </g>
   <g id="matplotlib.axis_2">
    <g id="ytick_1">
     <g id="line2d_21">
      <path d="M 57.6 265.797818 
L 414.72 265.797818 
" clip-path="url(#p005aec25a4)" style="fill: none; stroke-dasharray: 2.96,1.28; stroke-dashoffset: 0; stroke: #808080; stroke-width: 0.8"/>
     </g>
     <g id="line2d_22">
      <defs>
       <path id="md6774354f9" d="M 0 0 
L -3.5 0 
" style="stroke: #000000; stroke-width: 0.8"/>
      </defs>
      <g>
       <use xlink:href="#md6774354f9" x="57.6" y="265.797818" style="stroke: #000000; stroke-width: 0.8"/>
      </g>
     </g>
     <g id="text_11">
      <!-- 0 -->
      <g transform="translate(44.2375 269.597037) scale(0.1 -0.1)">
       <use xlink:href="#DejaVuSans-30"/>
      </g>
     </g>
    </g>
    <g id="ytick_2">
     <g id="line2d_23">
      <path d="M 57.6 232.848948 
L 414.72 232.848948 
" clip-path="url(#p005aec25a4)" style="fill: none; stroke-dasharray: 2.96,1.28; stroke-dashoffset: 0; stroke: #808080; stroke-width: 0.8"/>
     </g>
     <g id="line2d_24">
      <g>
       <use xlink:href="#md6774354f9" x="57.6" y="232.848948" style="stroke: #000000; stroke-width: 0.8"/>
      </g>
     </g>
     <g id="text_12">
      <!-- 500 -->
      <g transform="translate(31.5125 236.648167) scale(0.1 -0.1)">
       <use xlink:href="#DejaVuSans-35"/>
       <use xlink:href="#DejaVuSans-30" x="63.623047"/>
       <use xlink:href="#DejaVuSans-30" x="127.246094"/>
      </g>
     </g>
    </g>
    <g id="ytick_3">
     <g id="line2d_25">
      <path d="M 57.6 199.900078 
L 414.72 199.900078 
" clip-path="url(#p005aec25a4)" style="fill: none; stroke-dasharray: 2.96,1.28; stroke-dashoffset: 0; stroke: #808080; stroke-width: 0.8"/>
     </g>
     <g id="line2d_26">
      <g>
       <use xlink:href="#md6774354f9" x="57.6" y="199.900078" style="stroke: #000000; stroke-width: 0.8"/>
      </g>
     </g>
     <g id="text_13">
      <!-- 1000 -->
      <g transform="translate(25.15 203.699297) scale(0.1 -0.1)">
       <use xlink:href="#DejaVuSans-31"/>
       <use xlink:href="#DejaVuSans-30" x="63.623047"/>
       <use xlink:href="#DejaVuSans-30" x="127.246094"/>
       <use xlink:href="#DejaVuSans-30" x="190.869141"/>
      </g>
     </g>
    </g>
    <g id="ytick_4">
     <g id="line2d_27">
      <path d="M 57.6 166.951208 
L 414.72 166.951208 
" clip-path="url(#p005aec25a4)" style="fill: none; stroke-dasharray: 2.96,1.28; stroke-dashoffset: 0; stroke: #808080; stroke-width: 0.8"/>
     </g>
     <g id="line2d_28">
      <g>
       <use xlink:href="#md6774354f9" x="57.6" y="166.951208" style="stroke: #000000; stroke-width: 0.8"/>
      </g>
     </g>
     <g id="text_14">
      <!-- 1500 -->
      <g transform="translate(25.15 170.750427) scale(0.1 -0.1)">
       <use xlink:href="#DejaVuSans-31"/>
       <use xlink:href="#DejaVuSans-35" x="63.623047"/>
       <use xlink:href="#DejaVuSans-30" x="127.246094"/>
       <use xlink:href="#DejaVuSans-30" x="190.869141"/>
      </g>
     </g>
    </g>
    <g id="ytick_5">
     <g id="line2d_29">
      <path d="M 57.6 134.002338 
L 414.72 134.002338 
" clip-path="url(#p005aec25a4)" style="fill: none; stroke-dasharray: 2.96,1.28; stroke-dashoffset: 0; stroke: #808080; stroke-width: 0.8"/>
     </g>
     <g id="line2d_30">
      <g>
       <use xlink:href="#md6774354f9" x="57.6" y="134.002338" style="stroke: #000000; stroke-width: 0.8"/>
      </g>
     </g>
     <g id="text_15">
      <!-- 2000 -->
      <g transform="translate(25.15 137.801557) scale(0.1 -0.1)">
       <use xlink:href="#DejaVuSans-32"/>
       <use xlink:href="#DejaVuSans-30" x="63.623047"/>
       <use xlink:href="#DejaVuSans-30" x="127.246094"/>
       <use xlink:href="#DejaVuSans-30" x="190.869141"/>
      </g>
     </g>
    </g>
    <g id="ytick_6">
     <g id="line2d_31">
      <path d="M 57.6 101.053468 
L 414.72 101.053468 
" clip-path="url(#p005aec25a4)" style="fill: none; stroke-dasharray: 2.96,1.28; stroke-dashoffset: 0; stroke: #808080; stroke-width: 0.8"/>
     </g>
     <g id="line2d_32">
      <g>
       <use xlink:href="#md6774354f9" x="57.6" y="101.053468" style="stroke: #000000; stroke-width: 0.8"/>
      </g>
     </g>
     <g id="text_16">
      <!-- 2500 -->
      <g transform="translate(25.15 104.852687) scale(0.1 -0.1)">
       <use xlink:href="#DejaVuSans-32"/>
       <use xlink:href="#DejaVuSans-35" x="63.623047"/>
       <use xlink:href="#DejaVuSans-30" x="127.246094"/>
       <use xlink:href="#DejaVuSans-30" x="190.869141"/>
      </g>
     </g>
    </g>
    <g id="ytick_7">
     <g id="line2d_33">
      <path d="M 57.6 68.104598 
L 414.72 68.104598 
" clip-path="url(#p005aec25a4)" style="fill: none; stroke-dasharray: 2.96,1.28; stroke-dashoffset: 0; stroke: #808080; stroke-width: 0.8"/>
     </g>
     <g id="line2d_34">
      <g>
       <use xlink:href="#md6774354f9" x="57.6" y="68.104598" style="stroke: #000000; stroke-width: 0.8"/>
      </g>
     </g>
     <g id="text_17">
      <!-- 3000 -->
      <g transform="translate(25.15 71.903817) scale(0.1 -0.1)">
       <use xlink:href="#DejaVuSans-33"/>
       <use xlink:href="#DejaVuSans-30" x="63.623047"/>
       <use xlink:href="#DejaVuSans-30" x="127.246094"/>
       <use xlink:href="#DejaVuSans-30" x="190.869141"/>
      </g>
     </g>
    </g>
    <g id="text_18">
     <!-- Inzidenz pro 7 Tage pro 100.000 Einwohner -->
     <g transform="translate(19.070312 267.301) rotate(-90) scale(0.1 -0.1)">
      <defs>
       <path id="DejaVuSans-49" d="M 628 4666 
L 1259 4666 
L 1259 0 
L 628 0 
L 628 4666 
z
" transform="scale(0.015625)"/>
       <path id="DejaVuSans-6e" d="M 3513 2113 
L 3513 0 
L 2938 0 
L 2938 2094 
Q 2938 2591 2744 2837 
Q 2550 3084 2163 3084 
Q 1697 3084 1428 2787 
Q 1159 2491 1159 1978 
L 1159 0 
L 581 0 
L 581 3500 
L 1159 3500 
L 1159 2956 
Q 1366 3272 1645 3428 
Q 1925 3584 2291 3584 
Q 2894 3584 3203 3211 
Q 3513 2838 3513 2113 
z
" transform="scale(0.015625)"/>
       <path id="DejaVuSans-7a" d="M 353 3500 
L 3084 3500 
L 3084 2975 
L 922 459 
L 3084 459 
L 3084 0 
L 275 0 
L 275 525 
L 2438 3041 
L 353 3041 
L 353 3500 
z
" transform="scale(0.015625)"/>
       <path id="DejaVuSans-69" d="M 603 3500 
L 1178 3500 
L 1178 0 
L 603 0 
L 603 3500 
z
M 603 4863 
L 1178 4863 
L 1178 4134 
L 603 4134 
L 603 4863 
z
" transform="scale(0.015625)"/>
       <path id="DejaVuSans-64" d="M 2906 2969 
L 2906 4863 
L 3481 4863 
L 3481 0 
L 2906 0 
L 2906 525 
Q 2725 213 2448 61 
Q 2172 -91 1784 -91 
Q 1150 -91 751 415 
Q 353 922 353 1747 
Q 353 2572 751 3078 
Q 1150 3584 1784 3584 
Q 2172 3584 2448 3432 
Q 2725 3281 2906 2969 
z
M 947 1747 
Q 947 1113 1208 752 
Q 1469 391 1925 391 
Q 2381 391 2643 752 
Q 2906 1113 2906 1747 
Q 2906 2381 2643 2742 
Q 2381 3103 1925 3103 
Q 1469 3103 1208 2742 
Q 947 2381 947 1747 
z
" transform="scale(0.015625)"/>
       <path id="DejaVuSans-65" d="M 3597 1894 
L 3597 1613 
L 953 1613 
Q 991 1019 1311 708 
Q 1631 397 2203 397 
Q 2534 397 2845 478 
Q 3156 559 3463 722 
L 3463 178 
Q 3153 47 2828 -22 
Q 2503 -91 2169 -91 
Q 1331 -91 842 396 
Q 353 884 353 1716 
Q 353 2575 817 3079 
Q 1281 3584 2069 3584 
Q 2775 3584 3186 3129 
Q 3597 2675 3597 1894 
z
M 3022 2063 
Q 3016 2534 2758 2815 
Q 2500 3097 2075 3097 
Q 1594 3097 1305 2825 
Q 1016 2553 972 2059 
L 3022 2063 
z
" transform="scale(0.015625)"/>
       <path id="DejaVuSans-20" transform="scale(0.015625)"/>
       <path id="DejaVuSans-70" d="M 1159 525 
L 1159 -1331 
L 581 -1331 
L 581 3500 
L 1159 3500 
L 1159 2969 
Q 1341 3281 1617 3432 
Q 1894 3584 2278 3584 
Q 2916 3584 3314 3078 
Q 3713 2572 3713 1747 
Q 3713 922 3314 415 
Q 2916 -91 2278 -91 
Q 1894 -91 1617 61 
Q 1341 213 1159 525 
z
M 3116 1747 
Q 3116 2381 2855 2742 
Q 2594 3103 2138 3103 
Q 1681 3103 1420 2742 
Q 1159 2381 1159 1747 
Q 1159 1113 1420 752 
Q 1681 391 2138 391 
Q 2594 391 2855 752 
Q 3116 1113 3116 1747 
z
" transform="scale(0.015625)"/>
       <path id="DejaVuSans-72" d="M 2631 2963 
Q 2534 3019 2420 3045 
Q 2306 3072 2169 3072 
Q 1681 3072 1420 2755 
Q 1159 2438 1159 1844 
L 1159 0 
L 581 0 
L 581 3500 
L 1159 3500 
L 1159 2956 
Q 1341 3275 1631 3429 
Q 1922 3584 2338 3584 
Q 2397 3584 2469 3576 
Q 2541 3569 2628 3553 
L 2631 2963 
z
" transform="scale(0.015625)"/>
       <path id="DejaVuSans-6f" d="M 1959 3097 
Q 1497 3097 1228 2736 
Q 959 2375 959 1747 
Q 959 1119 1226 758 
Q 1494 397 1959 397 
Q 2419 397 2687 759 
Q 2956 1122 2956 1747 
Q 2956 2369 2687 2733 
Q 2419 3097 1959 3097 
z
M 1959 3584 
Q 2709 3584 3137 3096 
Q 3566 2609 3566 1747 
Q 3566 888 3137 398 
Q 2709 -91 1959 -91 
Q 1206 -91 779 398 
Q 353 888 353 1747 
Q 353 2609 779 3096 
Q 1206 3584 1959 3584 
z
" transform="scale(0.015625)"/>
       <path id="DejaVuSans-54" d="M -19 4666 
L 3928 4666 
L 3928 4134 
L 2272 4134 
L 2272 0 
L 1638 0 
L 1638 4134 
L -19 4134 
L -19 4666 
z
" transform="scale(0.015625)"/>
       <path id="DejaVuSans-61" d="M 2194 1759 
Q 1497 1759 1228 1600 
Q 959 1441 959 1056 
Q 959 750 1161 570 
Q 1363 391 1709 391 
Q 2188 391 2477 730 
Q 2766 1069 2766 1631 
L 2766 1759 
L 2194 1759 
z
M 3341 1997 
L 3341 0 
L 2766 0 
L 2766 531 
Q 2569 213 2275 61 
Q 1981 -91 1556 -91 
Q 1019 -91 701 211 
Q 384 513 384 1019 
Q 384 1609 779 1909 
Q 1175 2209 1959 2209 
L 2766 2209 
L 2766 2266 
Q 2766 2663 2505 2880 
Q 2244 3097 1772 3097 
Q 1472 3097 1187 3025 
Q 903 2953 641 2809 
L 641 3341 
Q 956 3463 1253 3523 
Q 1550 3584 1831 3584 
Q 2591 3584 2966 3190 
Q 3341 2797 3341 1997 
z
" transform="scale(0.015625)"/>
       <path id="DejaVuSans-67" d="M 2906 1791 
Q 2906 2416 2648 2759 
Q 2391 3103 1925 3103 
Q 1463 3103 1205 2759 
Q 947 2416 947 1791 
Q 947 1169 1205 825 
Q 1463 481 1925 481 
Q 2391 481 2648 825 
Q 2906 1169 2906 1791 
z
M 3481 434 
Q 3481 -459 3084 -895 
Q 2688 -1331 1869 -1331 
Q 1566 -1331 1297 -1286 
Q 1028 -1241 775 -1147 
L 775 -588 
Q 1028 -725 1275 -790 
Q 1522 -856 1778 -856 
Q 2344 -856 2625 -561 
Q 2906 -266 2906 331 
L 2906 616 
Q 2728 306 2450 153 
Q 2172 0 1784 0 
Q 1141 0 747 490 
Q 353 981 353 1791 
Q 353 2603 747 3093 
Q 1141 3584 1784 3584 
Q 2172 3584 2450 3431 
Q 2728 3278 2906 2969 
L 2906 3500 
L 3481 3500 
L 3481 434 
z
" transform="scale(0.015625)"/>
       <path id="DejaVuSans-45" d="M 628 4666 
L 3578 4666 
L 3578 4134 
L 1259 4134 
L 1259 2753 
L 3481 2753 
L 3481 2222 
L 1259 2222 
L 1259 531 
L 3634 531 
L 3634 0 
L 628 0 
L 628 4666 
z
" transform="scale(0.015625)"/>
       <path id="DejaVuSans-77" d="M 269 3500 
L 844 3500 
L 1563 769 
L 2278 3500 
L 2956 3500 
L 3675 769 
L 4391 3500 
L 4966 3500 
L 4050 0 
L 3372 0 
L 2619 2869 
L 1863 0 
L 1184 0 
L 269 3500 
z
" transform="scale(0.015625)"/>
       <path id="DejaVuSans-68" d="M 3513 2113 
L 3513 0 
L 2938 0 
L 2938 2094 
Q 2938 2591 2744 2837 
Q 2550 3084 2163 3084 
Q 1697 3084 1428 2787 
Q 1159 2491 1159 1978 
L 1159 0 
L 581 0 
L 581 4863 
L 1159 4863 
L 1159 2956 
Q 1366 3272 1645 3428 
Q 1925 3584 2291 3584 
Q 2894 3584 3203 3211 
Q 3513 2838 3513 2113 
z
" transform="scale(0.015625)"/>
      </defs>
      <use xlink:href="#DejaVuSans-49"/>
      <use xlink:href="#DejaVuSans-6e" x="29.492188"/>
      <use xlink:href="#DejaVuSans-7a" x="92.871094"/>
      <use xlink:href="#DejaVuSans-69" x="145.361328"/>
      <use xlink:href="#DejaVuSans-64" x="173.144531"/>
      <use xlink:href="#DejaVuSans-65" x="236.621094"/>
      <use xlink:href="#DejaVuSans-6e" x="298.144531"/>
      <use xlink:href="#DejaVuSans-7a" x="361.523438"/>
      <use xlink:href="#DejaVuSans-20" x="414.013672"/>
      <use xlink:href="#DejaVuSans-70" x="445.800781"/>
      <use xlink:href="#DejaVuSans-72" x="509.277344"/>
      <use xlink:href="#DejaVuSans-6f" x="548.140625"/>
      <use xlink:href="#DejaVuSans-20" x="609.322266"/>
      <use xlink:href="#DejaVuSans-37" x="641.109375"/>
      <use xlink:href="#DejaVuSans-20" x="704.732422"/>
      <use xlink:href="#DejaVuSans-54" x="736.519531"/>
      <use xlink:href="#DejaVuSans-61" x="781.103516"/>
      <use xlink:href="#DejaVuSans-67" x="842.382812"/>
      <use xlink:href="#DejaVuSans-65" x="905.859375"/>
      <use xlink:href="#DejaVuSans-20" x="967.382812"/>
      <use xlink:href="#DejaVuSans-70" x="999.169922"/>
      <use xlink:href="#DejaVuSans-72" x="1062.646484"/>
      <use xlink:href="#DejaVuSans-6f" x="1101.509766"/>
      <use xlink:href="#DejaVuSans-20" x="1162.691406"/>
      <use xlink:href="#DejaVuSans-31" x="1194.478516"/>
      <use xlink:href="#DejaVuSans-30" x="1258.101562"/>
      <use xlink:href="#DejaVuSans-30" x="1321.724609"/>
      <use xlink:href="#DejaVuSans-2e" x="1385.347656"/>
      <use xlink:href="#DejaVuSans-30" x="1417.134766"/>
      <use xlink:href="#DejaVuSans-30" x="1480.757812"/>
      <use xlink:href="#DejaVuSans-30" x="1544.380859"/>
      <use xlink:href="#DejaVuSans-20" x="1608.003906"/>
      <use xlink:href="#DejaVuSans-45" x="1639.791016"/>
      <use xlink:href="#DejaVuSans-69" x="1702.974609"/>
      <use xlink:href="#DejaVuSans-6e" x="1730.757812"/>
      <use xlink:href="#DejaVuSans-77" x="1794.136719"/>
      <use xlink:href="#DejaVuSans-6f" x="1875.923828"/>
      <use xlink:href="#DejaVuSans-68" x="1937.105469"/>
      <use xlink:href="#DejaVuSans-6e" x="2000.484375"/>
      <use xlink:href="#DejaVuSans-65" x="2063.863281"/>
      <use xlink:href="#DejaVuSans-72" x="2125.386719"/>
     </g>
    </g>
   </g>
   <g id="line2d_35">
    <path d="M 73.832727 265.797818 
L 75.929527 265.695204 
L 77.676861 265.626794 
L 78.026327 265.38736 
L 78.725261 265.353155 
L 79.773661 265.079516 
L 80.822061 264.976901 
L 81.870461 264.258599 
L 82.918861 263.027223 
L 83.268328 262.924609 
L 83.617794 262.58256 
L 83.967261 261.590619 
L 84.666194 260.838112 
L 85.015661 260.598677 
L 85.365128 260.735497 
L 85.714594 260.701292 
L 86.064061 261.145955 
L 86.413528 261.966872 
L 86.762994 262.001077 
L 87.112461 262.411536 
L 87.461928 262.58256 
L 87.811394 263.129838 
L 88.859795 262.890404 
L 89.558728 263.437682 
L 89.908195 263.642911 
L 90.257661 263.403477 
L 90.607128 263.540297 
L 90.956595 263.506092 
L 91.655528 264.155984 
L 92.004995 264.05337 
L 92.354461 262.685175 
L 93.053395 262.890404 
L 94.101795 262.616765 
L 94.451261 262.890404 
L 94.800728 264.361214 
L 95.150195 264.463828 
L 95.499661 264.429623 
L 96.548061 265.113721 
L 96.897528 265.045311 
L 97.246995 265.25054 
L 98.295395 265.147926 
L 98.644862 265.31895 
L 99.343795 265.353155 
L 100.741662 265.660999 
L 101.440595 265.660999 
L 101.790062 265.421565 
L 102.838462 265.31895 
L 103.886862 265.31895 
L 104.236328 265.660999 
L 105.284728 265.763613 
L 106.333128 265.763613 
L 107.381529 265.660999 
L 109.128862 265.763613 
L 110.526729 265.797818 
L 114.021395 265.695204 
L 114.720329 265.113721 
L 116.118196 265.079516 
L 116.467662 265.147926 
L 117.166596 265.695204 
L 118.214996 265.729408 
L 118.564462 265.558384 
L 120.661262 265.455769 
L 123.107529 265.489974 
L 123.456996 265.626794 
L 124.155929 265.660999 
L 133.242063 265.592589 
L 133.940996 265.284745 
L 135.338863 265.18213 
L 136.387263 265.31895 
L 137.78513 265.216335 
L 138.484063 265.18213 
L 140.231396 265.113721 
L 141.97873 264.019165 
L 142.677663 263.84814 
L 143.02713 263.608706 
L 143.376597 263.608706 
L 144.07553 264.019165 
L 144.774463 264.155984 
L 145.12393 264.361214 
L 145.473397 264.737467 
L 147.22073 265.25054 
L 147.570197 265.147926 
L 148.968063 265.18213 
L 150.715397 264.942696 
L 151.064863 264.258599 
L 151.41433 264.05337 
L 152.46273 263.882345 
L 152.812197 263.266658 
L 153.161664 263.095633 
L 154.210064 260.872316 
L 154.55953 260.598677 
L 154.908997 259.98299 
L 155.60793 258.033312 
L 155.957397 258.033312 
L 156.306864 258.375361 
L 156.65633 257.554444 
L 157.005797 257.143985 
L 157.355264 256.288864 
L 158.054197 255.604766 
L 158.403664 253.31304 
L 159.102597 252.868376 
L 159.452064 252.150074 
L 159.80153 252.184279 
L 160.500464 250.645059 
L 160.849931 252.731557 
L 161.199397 252.218484 
L 161.898331 252.697352 
L 162.247797 252.423713 
L 162.597264 249.960962 
L 162.946731 249.311069 
L 163.645664 245.24069 
L 163.995131 246.130016 
L 164.344597 246.301041 
L 164.694064 245.856377 
L 165.043531 247.019343 
L 165.392997 247.019343 
L 165.742464 246.608884 
L 166.091931 248.695382 
L 166.441397 245.411714 
L 166.790864 245.001255 
L 167.140331 245.274894 
L 167.489797 246.027402 
L 168.188731 241.922817 
L 168.538197 241.067695 
L 168.887664 242.230661 
L 169.237131 242.641119 
L 169.586598 242.606914 
L 169.936064 240.452007 
L 170.285531 241.785997 
L 170.634998 244.180338 
L 170.984464 243.975109 
L 171.333931 244.625002 
L 171.683398 243.530446 
L 172.032864 243.325217 
L 172.382331 243.940904 
L 172.731798 244.009314 
L 173.081264 243.427831 
L 173.430731 243.598856 
L 173.780198 243.598856 
L 174.129664 243.83829 
L 174.479131 242.743734 
L 174.828598 242.641119 
L 175.178064 241.991227 
L 175.527531 242.36748 
L 175.876998 241.991227 
L 176.226464 240.794056 
L 176.575931 241.649178 
L 176.925398 241.307129 
L 177.274864 240.725646 
L 177.624331 242.025431 
L 177.973798 241.546563 
L 178.323265 243.188397 
L 178.672731 244.248748 
L 179.022198 243.633061 
L 179.371665 242.059636 
L 179.721131 242.36748 
L 180.070598 241.307129 
L 180.420065 242.777939 
L 180.769531 242.914758 
L 181.118998 244.659207 
L 181.468465 243.940904 
L 181.817931 244.761821 
L 182.167398 244.146134 
L 182.516865 246.814114 
L 183.215798 243.975109 
L 183.565265 243.291012 
L 184.264198 246.950933 
L 184.613665 249.892552 
L 184.963131 249.311069 
L 185.312598 251.260747 
L 186.360998 251.808025 
L 186.710465 250.131986 
L 187.059932 252.081664 
L 187.409398 251.671206 
L 187.758865 250.43983 
L 188.108332 250.816084 
L 188.457798 250.850289 
L 188.807265 249.995167 
L 189.156732 251.602796 
L 189.506198 250.166191 
L 190.205132 252.663147 
L 190.554598 252.423713 
L 190.904065 252.970991 
L 191.253532 253.962932 
L 191.602998 254.099752 
L 191.952465 254.954873 
L 192.301932 255.023283 
L 193.000865 256.630912 
L 193.699798 256.938756 
L 194.049265 257.486034 
L 194.398732 257.10978 
L 195.447132 257.31501 
L 196.146065 256.938756 
L 196.495532 257.31501 
L 196.844999 257.007166 
L 197.194465 256.938756 
L 197.543932 257.725468 
L 197.893399 258.135927 
L 198.242865 258.170132 
L 198.592332 258.409566 
L 198.941799 258.272746 
L 199.291265 259.127868 
L 199.640732 259.401507 
L 200.339665 258.101722 
L 200.689132 258.375361 
L 202.086999 257.964902 
L 202.436465 258.067517 
L 202.785932 257.417624 
L 203.135399 257.383419 
L 203.834332 256.836141 
L 204.882732 257.451829 
L 205.232199 258.375361 
L 205.581666 258.204336 
L 205.931132 258.409566 
L 206.630066 257.759673 
L 206.979532 257.622854 
L 207.328999 258.067517 
L 207.678466 257.964902 
L 209.076332 258.785819 
L 209.425799 258.375361 
L 209.775266 257.759673 
L 210.124732 257.862288 
L 210.823666 257.486034 
L 211.173132 257.725468 
L 211.522599 257.075576 
L 211.872066 257.17819 
L 212.221532 256.699322 
L 212.570999 257.31501 
L 212.920466 257.280805 
L 213.269932 257.041371 
L 213.619399 256.528298 
L 213.968866 256.665117 
L 214.318333 256.459888 
L 214.667799 256.528298 
L 215.017266 254.920669 
L 215.366733 254.920669 
L 215.716199 255.125898 
L 216.065666 254.544415 
L 216.415133 254.818054 
L 216.764599 254.852259 
L 217.114066 255.399537 
L 217.463533 255.604766 
L 217.812999 255.604766 
L 218.162466 255.467947 
L 219.210866 254.236571 
L 219.560333 253.484064 
L 219.909799 253.860318 
L 220.259266 254.031342 
L 220.608733 253.997137 
L 222.356066 257.999107 
L 222.705533 258.067517 
L 223.055 258.341156 
L 223.404466 259.059458 
L 224.452866 258.888434 
L 224.802333 258.717409 
L 225.1518 258.683205 
L 225.501266 258.375361 
L 226.2002 260.0514 
L 226.899133 261.556414 
L 227.2486 261.38539 
L 227.598066 261.38539 
L 228.297 262.103692 
L 228.646466 262.172102 
L 228.995933 262.103692 
L 229.3454 262.343126 
L 229.694866 263.129838 
L 230.3938 263.232453 
L 230.743266 263.950755 
L 231.791667 264.463828 
L 232.840067 264.429623 
L 233.189533 264.190189 
L 233.888467 264.634853 
L 234.237933 264.874287 
L 234.936867 265.011106 
L 235.286333 264.942696 
L 235.6358 264.566443 
L 236.334733 264.634853 
L 236.6842 264.498033 
L 237.7326 264.634853 
L 238.082067 265.113721 
L 239.479933 265.353155 
L 240.178867 265.31895 
L 240.528333 265.660999 
L 242.275667 265.729408 
L 243.324067 265.729408 
L 244.372467 265.763613 
L 245.770334 265.729408 
L 249.963934 265.626794 
L 250.662867 265.455769 
L 253.458601 265.626794 
L 256.953267 265.695204 
L 257.652201 265.147926 
L 259.050068 264.327009 
L 259.399534 264.327009 
L 259.749001 264.634853 
L 260.447934 263.642911 
L 260.797401 263.677116 
L 261.146868 263.506092 
L 261.496334 263.642911 
L 261.845801 263.574501 
L 262.544734 262.993019 
L 262.894201 263.300862 
L 263.243668 263.095633 
L 263.593134 263.061428 
L 263.942601 262.753584 
L 264.641534 262.479946 
L 264.991001 262.924609 
L 266.039401 263.061428 
L 266.738334 263.129838 
L 267.087801 263.266658 
L 267.437268 263.198248 
L 267.786735 262.890404 
L 268.136201 262.821994 
L 268.485668 262.411536 
L 269.184601 262.308921 
L 269.534068 262.51415 
L 270.582468 262.001077 
L 270.931935 261.488004 
L 271.281401 261.419594 
L 271.630868 261.488004 
L 271.980335 261.31698 
L 272.329801 261.282775 
L 272.679268 261.556414 
L 273.028735 261.282775 
L 273.378201 262.035282 
L 274.077135 262.137897 
L 274.426601 261.659029 
L 274.776068 261.932668 
L 275.125535 261.419594 
L 275.475001 261.830053 
L 275.824468 261.009136 
L 276.523402 260.803907 
L 276.872868 260.838112 
L 277.222335 259.606736 
L 277.571802 259.538326 
L 277.921268 258.477975 
L 278.270735 258.820024 
L 278.620202 258.170132 
L 278.969668 258.067517 
L 279.319135 257.383419 
L 279.668602 257.212395 
L 280.018068 256.528298 
L 280.367535 256.767732 
L 280.717002 256.254659 
L 281.066468 256.220454 
L 281.415935 255.8442 
L 281.765402 255.741586 
L 282.114868 254.954873 
L 282.813802 252.286893 
L 283.163268 250.952903 
L 283.512735 250.097782 
L 284.211668 249.482094 
L 284.561135 245.753763 
L 285.260068 242.264866 
L 285.609535 238.536534 
L 285.959002 238.468125 
L 286.657935 237.749822 
L 287.007402 241.546563 
L 287.356869 234.29513 
L 288.055802 227.796204 
L 288.405269 218.902937 
L 289.104202 217.876791 
L 289.453669 203.442335 
L 289.803135 200.432306 
L 290.152602 199.200931 
L 290.502069 203.647564 
L 290.851535 211.001612 
L 291.201002 189.657771 
L 291.550469 188.221166 
L 291.899935 185.142728 
L 292.249402 191.812678 
L 292.948335 175.462749 
L 293.297802 170.126789 
L 293.647269 188.152757 
L 293.996735 187.605479 
L 294.346202 191.094376 
L 294.695669 182.440543 
L 295.045136 191.094376 
L 295.394602 191.744268 
L 295.744069 191.778473 
L 296.093536 190.991761 
L 296.443002 193.112463 
L 296.792469 193.522922 
L 297.141936 202.860852 
L 297.491402 201.732091 
L 297.840869 205.118374 
L 298.190336 206.315544 
L 298.539802 208.8125 
L 298.889269 206.589183 
L 299.238736 209.462392 
L 299.588202 208.74409 
L 299.937669 210.07808 
L 300.287136 210.659563 
L 300.636602 214.114255 
L 300.986069 216.371777 
L 302.034469 226.735853 
L 302.383936 232.584887 
L 302.733402 236.210603 
L 303.082869 238.262895 
L 303.432336 238.981198 
L 303.781803 239.323247 
L 304.480736 246.50627 
L 304.830203 247.395597 
L 305.179669 250.542445 
L 305.529136 252.492123 
L 305.878603 252.594737 
L 306.228069 252.321098 
L 306.577536 255.331127 
L 307.276469 256.836141 
L 307.625936 256.665117 
L 307.975403 256.220454 
L 308.324869 256.117839 
L 309.023803 255.433742 
L 309.373269 254.783849 
L 309.722736 254.612825 
L 310.072203 254.715439 
L 310.421669 253.894522 
L 311.120603 253.142015 
L 311.470069 251.431772 
L 311.819536 252.150074 
L 312.51847 248.011284 
L 312.867936 246.848319 
L 313.217403 246.711499 
L 313.916336 243.530446 
L 314.265803 240.144163 
L 314.61527 239.220632 
L 314.964736 237.784027 
L 315.314203 235.868554 
L 316.013136 234.329335 
L 316.362603 228.95917 
L 316.71207 227.48836 
L 317.411003 215.961318 
L 317.76047 212.74606 
L 318.109936 213.395953 
L 318.459403 213.224928 
L 318.80887 202.381984 
L 319.85727 189.452542 
L 320.90567 185.92944 
L 321.255137 185.621596 
L 321.604603 183.808738 
L 321.95407 182.987821 
L 322.303537 178.199139 
L 322.653003 171.460779 
L 323.00247 169.476896 
L 324.05087 152.716508 
L 324.400337 143.583807 
L 324.749803 140.16332 
L 325.09927 139.958091 
L 325.448737 136.879652 
L 325.798203 141.189466 
L 326.14767 121.35064 
L 326.497137 118.853684 
L 326.846603 115.330582 
L 327.19607 113.20988 
L 327.545537 108.044944 
L 327.895003 110.918154 
L 328.24447 103.119442 
L 328.593937 130.278112 
L 328.943403 128.875712 
L 329.29287 140.915827 
L 329.642337 136.434989 
L 329.991804 140.197525 
L 330.34127 140.23173 
L 330.690737 133.801214 
L 331.040204 111.568046 
L 331.38967 108.421198 
L 331.739137 93.678898 
L 332.43807 80.92048 
L 332.787537 78.526139 
L 333.137004 84.99086 
L 333.48647 82.459699 
L 333.835937 66.896482 
L 334.185404 59.542434 
L 334.53487 64.262707 
L 334.884337 60.979039 
L 335.233804 60.979039 
L 335.58327 57.387527 
L 335.932737 52.154182 
L 336.282204 66.314999 
L 336.63167 73.019154 
L 336.981137 70.351174 
L 337.330604 79.51808 
L 337.68007 78.526139 
L 338.379004 98.091326 
L 338.72847 96.859951 
L 339.427404 125.557839 
L 340.126337 135.237818 
L 340.475804 134.519516 
L 341.174737 171.529188 
L 341.524204 177.480836 
L 341.873671 179.464719 
L 342.223137 185.005908 
L 342.572604 187.434454 
L 342.922071 188.050142 
L 343.271537 190.923351 
L 343.621004 191.436424 
L 343.970471 194.514863 
L 344.319937 202.860852 
L 344.669404 206.691798 
L 345.018871 204.502686 
L 345.368337 210.591153 
L 345.717804 221.331483 
L 346.067271 217.192694 
L 346.416737 220.544771 
L 347.115671 212.404012 
L 347.465137 214.319484 
L 347.814604 211.856734 
L 348.164071 204.126432 
L 348.513538 212.404012 
L 348.863004 212.917085 
L 349.212471 215.892909 
L 349.561938 220.442157 
L 349.911404 220.373747 
L 350.260871 221.126254 
L 350.610338 225.743912 
L 350.959804 226.496419 
L 351.309271 227.796204 
L 351.658738 227.864614 
L 352.008204 226.770058 
L 352.357671 226.633239 
L 352.707138 225.128224 
L 353.056604 227.146312 
L 353.406071 228.104048 
L 353.755538 225.641297 
L 354.105004 227.077902 
L 354.454471 227.283131 
L 354.803938 227.933024 
L 355.153404 229.267014 
L 355.502871 232.174428 
L 355.852338 233.987286 
L 356.201804 238.331305 
L 356.900738 242.606914 
L 357.250205 243.291012 
L 357.599671 244.248748 
L 358.298605 248.284923 
L 358.648071 251.363362 
L 358.997538 253.073605 
L 359.347005 253.826113 
L 360.045938 253.552474 
L 360.395405 255.125898 
L 360.744871 254.57862 
L 361.443805 251.739615 
L 361.793271 252.013254 
L 362.142738 251.944845 
L 362.492205 253.689293 
L 362.841671 254.236571 
L 363.191138 250.645059 
L 363.540605 250.303011 
L 363.890071 249.379479 
L 364.239538 249.003226 
L 364.589005 249.140045 
L 365.287938 244.453977 
L 365.637405 245.924787 
L 365.986872 246.164221 
L 366.336338 247.464006 
L 366.685805 246.027402 
L 367.035272 245.651148 
L 367.384738 244.932846 
L 367.734205 242.264866 
L 368.083672 241.649178 
L 368.782605 237.09993 
L 369.132072 236.826291 
L 369.481538 237.03152 
L 369.831005 237.749822 
L 370.180472 234.36354 
L 370.529938 233.747852 
L 370.879405 233.440008 
L 371.228872 233.679442 
L 371.578338 233.063755 
L 371.927805 233.200574 
L 372.277272 234.534564 
L 372.626738 235.013433 
L 372.976205 233.02955 
L 373.325672 232.071813 
L 373.675138 229.916906 
L 374.374072 229.130194 
L 374.723539 226.975287 
L 375.073005 222.528654 
L 375.422472 222.391834 
L 376.121405 215.174606 
L 376.820339 213.053904 
L 377.169805 212.369807 
L 377.868739 206.931232 
L 378.218205 209.907056 
L 378.567672 210.830587 
L 378.917139 212.267192 
L 379.266605 213.122314 
L 379.616072 211.241046 
L 379.965539 216.303367 
L 381.013939 225.299249 
L 381.363405 226.667444 
L 381.712872 226.22278 
L 382.062339 229.198604 
L 382.411805 233.747852 
L 382.761272 235.321276 
L 383.460205 239.973139 
L 384.159139 240.999285 
L 384.508606 243.393626 
L 384.858072 244.967051 
L 385.207539 247.874465 
L 385.906472 247.361392 
L 386.255939 248.045489 
L 386.605406 248.353333 
L 386.954872 248.490152 
L 387.304339 254.304981 
L 387.653806 250.952903 
L 388.003272 250.816084 
L 388.352739 251.089723 
L 388.702206 252.047459 
L 389.051672 251.637001 
L 389.401139 250.850289 
L 389.750606 248.387538 
L 390.100072 252.526327 
L 390.449539 253.10781 
L 390.799006 253.31304 
L 391.148472 251.97905 
L 391.497939 252.423713 
L 391.847406 251.91064 
L 392.196872 251.671206 
L 392.546339 251.158133 
L 392.895806 250.952903 
L 393.594739 251.91064 
L 393.944206 251.568591 
L 394.293673 250.952903 
L 394.643139 249.687323 
L 394.992606 247.84026 
L 395.691539 242.162251 
L 396.390473 240.657237 
L 396.739939 240.246778 
L 397.089406 234.124106 
L 397.438873 231.045667 
L 397.788339 231.079872 
L 398.137806 232.106018 
L 398.487273 234.602974 
L 398.487273 234.602974 
" clip-path="url(#p005aec25a4)" style="fill: none; stroke: #1f77b4; stroke-width: 1.5; stroke-linecap: square"/>
   </g>
   <g id="patch_3">
    <path d="M 57.6 276.48 
L 57.6 41.472 
" style="fill: none; stroke: #000000; stroke-width: 0.8; stroke-linejoin: miter; stroke-linecap: square"/>
   </g>
   <g id="patch_4">
    <path d="M 414.72 276.48 
L 414.72 41.472 
" style="fill: none; stroke: #000000; stroke-width: 0.8; stroke-linejoin: miter; stroke-linecap: square"/>
   </g>
   <g id="patch_5">
    <path d="M 57.6 276.48 
L 414.72 276.48 
" style="fill: none; stroke: #000000; stroke-width: 0.8; stroke-linejoin: miter; stroke-linecap: square"/>
   </g>
   <g id="patch_6">
    <path d="M 57.6 41.472 
L 414.72 41.472 
" style="fill: none; stroke: #000000; stroke-width: 0.8; stroke-linejoin: miter; stroke-linecap: square"/>
   </g>
  </g>
  <g id="text_19">
   <!-- Inzidenzverlauf LK Passau -->
   <g transform="translate(113.916094 20.589187) scale(0.18 -0.18)">
    <defs>
     <path id="DejaVuSans-76" d="M 191 3500 
L 800 3500 
L 1894 563 
L 2988 3500 
L 3597 3500 
L 2284 0 
L 1503 0 
L 191 3500 
z
" transform="scale(0.015625)"/>
     <path id="DejaVuSans-6c" d="M 603 4863 
L 1178 4863 
L 1178 0 
L 603 0 
L 603 4863 
z
" transform="scale(0.015625)"/>
     <path id="DejaVuSans-75" d="M 544 1381 
L 544 3500 
L 1119 3500 
L 1119 1403 
Q 1119 906 1312 657 
Q 1506 409 1894 409 
Q 2359 409 2629 706 
Q 2900 1003 2900 1516 
L 2900 3500 
L 3475 3500 
L 3475 0 
L 2900 0 
L 2900 538 
Q 2691 219 2414 64 
Q 2138 -91 1772 -91 
Q 1169 -91 856 284 
Q 544 659 544 1381 
z
M 1991 3584 
L 1991 3584 
z
" transform="scale(0.015625)"/>
     <path id="DejaVuSans-66" d="M 2375 4863 
L 2375 4384 
L 1825 4384 
Q 1516 4384 1395 4259 
Q 1275 4134 1275 3809 
L 1275 3500 
L 2222 3500 
L 2222 3053 
L 1275 3053 
L 1275 0 
L 697 0 
L 697 3053 
L 147 3053 
L 147 3500 
L 697 3500 
L 697 3744 
Q 697 4328 969 4595 
Q 1241 4863 1831 4863 
L 2375 4863 
z
" transform="scale(0.015625)"/>
     <path id="DejaVuSans-4c" d="M 628 4666 
L 1259 4666 
L 1259 531 
L 3531 531 
L 3531 0 
L 628 0 
L 628 4666 
z
" transform="scale(0.015625)"/>
     <path id="DejaVuSans-4b" d="M 628 4666 
L 1259 4666 
L 1259 2694 
L 3353 4666 
L 4166 4666 
L 1850 2491 
L 4331 0 
L 3500 0 
L 1259 2247 
L 1259 0 
L 628 0 
L 628 4666 
z
" transform="scale(0.015625)"/>
     <path id="DejaVuSans-50" d="M 1259 4147 
L 1259 2394 
L 2053 2394 
Q 2494 2394 2734 2622 
Q 2975 2850 2975 3272 
Q 2975 3691 2734 3919 
Q 2494 4147 2053 4147 
L 1259 4147 
z
M 628 4666 
L 2053 4666 
Q 2838 4666 3239 4311 
Q 3641 3956 3641 3272 
Q 3641 2581 3239 2228 
Q 2838 1875 2053 1875 
L 1259 1875 
L 1259 0 
L 628 0 
L 628 4666 
z
" transform="scale(0.015625)"/>
     <path id="DejaVuSans-73" d="M 2834 3397 
L 2834 2853 
Q 2591 2978 2328 3040 
Q 2066 3103 1784 3103 
Q 1356 3103 1142 2972 
Q 928 2841 928 2578 
Q 928 2378 1081 2264 
Q 1234 2150 1697 2047 
L 1894 2003 
Q 2506 1872 2764 1633 
Q 3022 1394 3022 966 
Q 3022 478 2636 193 
Q 2250 -91 1575 -91 
Q 1294 -91 989 -36 
Q 684 19 347 128 
L 347 722 
Q 666 556 975 473 
Q 1284 391 1588 391 
Q 1994 391 2212 530 
Q 2431 669 2431 922 
Q 2431 1156 2273 1281 
Q 2116 1406 1581 1522 
L 1381 1569 
Q 847 1681 609 1914 
Q 372 2147 372 2553 
Q 372 3047 722 3315 
Q 1072 3584 1716 3584 
Q 2034 3584 2315 3537 
Q 2597 3491 2834 3397 
z
" transform="scale(0.015625)"/>
    </defs>
    <use xlink:href="#DejaVuSans-49"/>
    <use xlink:href="#DejaVuSans-6e" x="29.492188"/>
    <use xlink:href="#DejaVuSans-7a" x="92.871094"/>
    <use xlink:href="#DejaVuSans-69" x="145.361328"/>
    <use xlink:href="#DejaVuSans-64" x="173.144531"/>
    <use xlink:href="#DejaVuSans-65" x="236.621094"/>
    <use xlink:href="#DejaVuSans-6e" x="298.144531"/>
    <use xlink:href="#DejaVuSans-7a" x="361.523438"/>
    <use xlink:href="#DejaVuSans-76" x="414.013672"/>
    <use xlink:href="#DejaVuSans-65" x="473.193359"/>
    <use xlink:href="#DejaVuSans-72" x="534.716797"/>
    <use xlink:href="#DejaVuSans-6c" x="575.830078"/>
    <use xlink:href="#DejaVuSans-61" x="603.613281"/>
    <use xlink:href="#DejaVuSans-75" x="664.892578"/>
    <use xlink:href="#DejaVuSans-66" x="728.271484"/>
    <use xlink:href="#DejaVuSans-20" x="763.476562"/>
    <use xlink:href="#DejaVuSans-4c" x="795.263672"/>
    <use xlink:href="#DejaVuSans-4b" x="850.976562"/>
    <use xlink:href="#DejaVuSans-20" x="916.552734"/>
    <use xlink:href="#DejaVuSans-50" x="948.339844"/>
    <use xlink:href="#DejaVuSans-61" x="1004.142578"/>
    <use xlink:href="#DejaVuSans-73" x="1065.421875"/>
    <use xlink:href="#DejaVuSans-73" x="1117.521484"/>
    <use xlink:href="#DejaVuSans-61" x="1169.621094"/>
    <use xlink:href="#DejaVuSans-75" x="1230.900391"/>
   </g>
  </g>
 </g>
 <defs>
  <clipPath id="p005aec25a4">
   <rect x="57.6" y="41.472" width="357.12" height="235.008"/>
  </clipPath>
 </defs>
</svg>
