<?xml version="1.0" encoding="utf-8" standalone="no"?>
<!DOCTYPE svg PUBLIC "-//W3C//DTD SVG 1.1//EN"
  "http://www.w3.org/Graphics/SVG/1.1/DTD/svg11.dtd">
<svg xmlns:xlink="http://www.w3.org/1999/xlink" width="460.8pt" height="345.6pt" viewBox="0 0 460.8 345.6" xmlns="http://www.w3.org/2000/svg" version="1.1">
 <metadata>
  <rdf:RDF xmlns:dc="http://purl.org/dc/elements/1.1/" xmlns:cc="http://creativecommons.org/ns#" xmlns:rdf="http://www.w3.org/1999/02/22-rdf-syntax-ns#">
   <cc:Work>
    <dc:type rdf:resource="http://purl.org/dc/dcmitype/StillImage"/>
    <dc:date>2022-01-15T09:21:29.031022</dc:date>
    <dc:format>image/svg+xml</dc:format>
    <dc:creator>
     <cc:Agent>
      <dc:title>Matplotlib v3.5.1, https://matplotlib.org/</dc:title>
     </cc:Agent>
    </dc:creator>
   </cc:Work>
  </rdf:RDF>
 </metadata>
 <defs>
  <style type="text/css">*{stroke-linejoin: round; stroke-linecap: butt}</style>
 </defs>
 <g id="figure_1">
  <g id="patch_1">
   <path d="M 0 345.6 
L 460.8 345.6 
L 460.8 0 
L 0 0 
z
" style="fill: #ffffff"/>
  </g>
  <g id="axes_1">
   <g id="patch_2">
    <path d="M 57.6 276.48 
L 414.72 276.48 
L 414.72 41.472 
L 57.6 41.472 
z
" style="fill: #ffffff"/>
   </g>
   <g id="matplotlib.axis_1">
    <g id="xtick_1">
     <g id="line2d_1">
      <path d="M 62.087965 276.48 
L 62.087965 41.472 
" clip-path="url(#pdfdd6d42e9)" style="fill: none; stroke-dasharray: 2.96,1.28; stroke-dashoffset: 0; stroke: #808080; stroke-width: 0.8"/>
     </g>
     <g id="line2d_2">
      <defs>
       <path id="m54950b3c8e" d="M 0 0 
L 0 3.5 
" style="stroke: #000000; stroke-width: 0.8"/>
      </defs>
      <g>
       <use xlink:href="#m54950b3c8e" x="62.087965" y="276.48" style="stroke: #000000; stroke-width: 0.8"/>
      </g>
     </g>
     <g id="text_1">
      <!-- 07.02.2020 -->
      <g transform="translate(11.462754 318.688565)rotate(-30)scale(0.1 -0.1)">
       <defs>
        <path id="DejaVuSans-30" d="M 2034 4250 
Q 1547 4250 1301 3770 
Q 1056 3291 1056 2328 
Q 1056 1369 1301 889 
Q 1547 409 2034 409 
Q 2525 409 2770 889 
Q 3016 1369 3016 2328 
Q 3016 3291 2770 3770 
Q 2525 4250 2034 4250 
z
M 2034 4750 
Q 2819 4750 3233 4129 
Q 3647 3509 3647 2328 
Q 3647 1150 3233 529 
Q 2819 -91 2034 -91 
Q 1250 -91 836 529 
Q 422 1150 422 2328 
Q 422 3509 836 4129 
Q 1250 4750 2034 4750 
z
" transform="scale(0.015625)"/>
        <path id="DejaVuSans-37" d="M 525 4666 
L 3525 4666 
L 3525 4397 
L 1831 0 
L 1172 0 
L 2766 4134 
L 525 4134 
L 525 4666 
z
" transform="scale(0.015625)"/>
        <path id="DejaVuSans-2e" d="M 684 794 
L 1344 794 
L 1344 0 
L 684 0 
L 684 794 
z
" transform="scale(0.015625)"/>
        <path id="DejaVuSans-32" d="M 1228 531 
L 3431 531 
L 3431 0 
L 469 0 
L 469 531 
Q 828 903 1448 1529 
Q 2069 2156 2228 2338 
Q 2531 2678 2651 2914 
Q 2772 3150 2772 3378 
Q 2772 3750 2511 3984 
Q 2250 4219 1831 4219 
Q 1534 4219 1204 4116 
Q 875 4013 500 3803 
L 500 4441 
Q 881 4594 1212 4672 
Q 1544 4750 1819 4750 
Q 2544 4750 2975 4387 
Q 3406 4025 3406 3419 
Q 3406 3131 3298 2873 
Q 3191 2616 2906 2266 
Q 2828 2175 2409 1742 
Q 1991 1309 1228 531 
z
" transform="scale(0.015625)"/>
       </defs>
       <use xlink:href="#DejaVuSans-30"/>
       <use xlink:href="#DejaVuSans-37" x="63.623047"/>
       <use xlink:href="#DejaVuSans-2e" x="127.246094"/>
       <use xlink:href="#DejaVuSans-30" x="159.033203"/>
       <use xlink:href="#DejaVuSans-32" x="222.65625"/>
       <use xlink:href="#DejaVuSans-2e" x="286.279297"/>
       <use xlink:href="#DejaVuSans-32" x="318.066406"/>
       <use xlink:href="#DejaVuSans-30" x="381.689453"/>
       <use xlink:href="#DejaVuSans-32" x="445.3125"/>
       <use xlink:href="#DejaVuSans-30" x="508.935547"/>
      </g>
     </g>
    </g>
    <g id="xtick_2">
     <g id="line2d_3">
      <path d="M 98.213507 276.48 
L 98.213507 41.472 
" clip-path="url(#pdfdd6d42e9)" style="fill: none; stroke-dasharray: 2.96,1.28; stroke-dashoffset: 0; stroke: #808080; stroke-width: 0.8"/>
     </g>
     <g id="line2d_4">
      <g>
       <use xlink:href="#m54950b3c8e" x="98.213507" y="276.48" style="stroke: #000000; stroke-width: 0.8"/>
      </g>
     </g>
     <g id="text_2">
      <!-- 23.04.2020 -->
      <g transform="translate(47.588296 318.688565)rotate(-30)scale(0.1 -0.1)">
       <defs>
        <path id="DejaVuSans-33" d="M 2597 2516 
Q 3050 2419 3304 2112 
Q 3559 1806 3559 1356 
Q 3559 666 3084 287 
Q 2609 -91 1734 -91 
Q 1441 -91 1130 -33 
Q 819 25 488 141 
L 488 750 
Q 750 597 1062 519 
Q 1375 441 1716 441 
Q 2309 441 2620 675 
Q 2931 909 2931 1356 
Q 2931 1769 2642 2001 
Q 2353 2234 1838 2234 
L 1294 2234 
L 1294 2753 
L 1863 2753 
Q 2328 2753 2575 2939 
Q 2822 3125 2822 3475 
Q 2822 3834 2567 4026 
Q 2313 4219 1838 4219 
Q 1578 4219 1281 4162 
Q 984 4106 628 3988 
L 628 4550 
Q 988 4650 1302 4700 
Q 1616 4750 1894 4750 
Q 2613 4750 3031 4423 
Q 3450 4097 3450 3541 
Q 3450 3153 3228 2886 
Q 3006 2619 2597 2516 
z
" transform="scale(0.015625)"/>
        <path id="DejaVuSans-34" d="M 2419 4116 
L 825 1625 
L 2419 1625 
L 2419 4116 
z
M 2253 4666 
L 3047 4666 
L 3047 1625 
L 3713 1625 
L 3713 1100 
L 3047 1100 
L 3047 0 
L 2419 0 
L 2419 1100 
L 313 1100 
L 313 1709 
L 2253 4666 
z
" transform="scale(0.015625)"/>
       </defs>
       <use xlink:href="#DejaVuSans-32"/>
       <use xlink:href="#DejaVuSans-33" x="63.623047"/>
       <use xlink:href="#DejaVuSans-2e" x="127.246094"/>
       <use xlink:href="#DejaVuSans-30" x="159.033203"/>
       <use xlink:href="#DejaVuSans-34" x="222.65625"/>
       <use xlink:href="#DejaVuSans-2e" x="286.279297"/>
       <use xlink:href="#DejaVuSans-32" x="318.066406"/>
       <use xlink:href="#DejaVuSans-30" x="381.689453"/>
       <use xlink:href="#DejaVuSans-32" x="445.3125"/>
       <use xlink:href="#DejaVuSans-30" x="508.935547"/>
      </g>
     </g>
    </g>
    <g id="xtick_3">
     <g id="line2d_5">
      <path d="M 134.33905 276.48 
L 134.33905 41.472 
" clip-path="url(#pdfdd6d42e9)" style="fill: none; stroke-dasharray: 2.96,1.28; stroke-dashoffset: 0; stroke: #808080; stroke-width: 0.8"/>
     </g>
     <g id="line2d_6">
      <g>
       <use xlink:href="#m54950b3c8e" x="134.33905" y="276.48" style="stroke: #000000; stroke-width: 0.8"/>
      </g>
     </g>
     <g id="text_3">
      <!-- 08.07.2020 -->
      <g transform="translate(83.713839 318.688565)rotate(-30)scale(0.1 -0.1)">
       <defs>
        <path id="DejaVuSans-38" d="M 2034 2216 
Q 1584 2216 1326 1975 
Q 1069 1734 1069 1313 
Q 1069 891 1326 650 
Q 1584 409 2034 409 
Q 2484 409 2743 651 
Q 3003 894 3003 1313 
Q 3003 1734 2745 1975 
Q 2488 2216 2034 2216 
z
M 1403 2484 
Q 997 2584 770 2862 
Q 544 3141 544 3541 
Q 544 4100 942 4425 
Q 1341 4750 2034 4750 
Q 2731 4750 3128 4425 
Q 3525 4100 3525 3541 
Q 3525 3141 3298 2862 
Q 3072 2584 2669 2484 
Q 3125 2378 3379 2068 
Q 3634 1759 3634 1313 
Q 3634 634 3220 271 
Q 2806 -91 2034 -91 
Q 1263 -91 848 271 
Q 434 634 434 1313 
Q 434 1759 690 2068 
Q 947 2378 1403 2484 
z
M 1172 3481 
Q 1172 3119 1398 2916 
Q 1625 2713 2034 2713 
Q 2441 2713 2670 2916 
Q 2900 3119 2900 3481 
Q 2900 3844 2670 4047 
Q 2441 4250 2034 4250 
Q 1625 4250 1398 4047 
Q 1172 3844 1172 3481 
z
" transform="scale(0.015625)"/>
       </defs>
       <use xlink:href="#DejaVuSans-30"/>
       <use xlink:href="#DejaVuSans-38" x="63.623047"/>
       <use xlink:href="#DejaVuSans-2e" x="127.246094"/>
       <use xlink:href="#DejaVuSans-30" x="159.033203"/>
       <use xlink:href="#DejaVuSans-37" x="222.65625"/>
       <use xlink:href="#DejaVuSans-2e" x="286.279297"/>
       <use xlink:href="#DejaVuSans-32" x="318.066406"/>
       <use xlink:href="#DejaVuSans-30" x="381.689453"/>
       <use xlink:href="#DejaVuSans-32" x="445.3125"/>
       <use xlink:href="#DejaVuSans-30" x="508.935547"/>
      </g>
     </g>
    </g>
    <g id="xtick_4">
     <g id="line2d_7">
      <path d="M 170.464592 276.48 
L 170.464592 41.472 
" clip-path="url(#pdfdd6d42e9)" style="fill: none; stroke-dasharray: 2.96,1.28; stroke-dashoffset: 0; stroke: #808080; stroke-width: 0.8"/>
     </g>
     <g id="line2d_8">
      <g>
       <use xlink:href="#m54950b3c8e" x="170.464592" y="276.48" style="stroke: #000000; stroke-width: 0.8"/>
      </g>
     </g>
     <g id="text_4">
      <!-- 22.09.2020 -->
      <g transform="translate(119.839381 318.688565)rotate(-30)scale(0.1 -0.1)">
       <defs>
        <path id="DejaVuSans-39" d="M 703 97 
L 703 672 
Q 941 559 1184 500 
Q 1428 441 1663 441 
Q 2288 441 2617 861 
Q 2947 1281 2994 2138 
Q 2813 1869 2534 1725 
Q 2256 1581 1919 1581 
Q 1219 1581 811 2004 
Q 403 2428 403 3163 
Q 403 3881 828 4315 
Q 1253 4750 1959 4750 
Q 2769 4750 3195 4129 
Q 3622 3509 3622 2328 
Q 3622 1225 3098 567 
Q 2575 -91 1691 -91 
Q 1453 -91 1209 -44 
Q 966 3 703 97 
z
M 1959 2075 
Q 2384 2075 2632 2365 
Q 2881 2656 2881 3163 
Q 2881 3666 2632 3958 
Q 2384 4250 1959 4250 
Q 1534 4250 1286 3958 
Q 1038 3666 1038 3163 
Q 1038 2656 1286 2365 
Q 1534 2075 1959 2075 
z
" transform="scale(0.015625)"/>
       </defs>
       <use xlink:href="#DejaVuSans-32"/>
       <use xlink:href="#DejaVuSans-32" x="63.623047"/>
       <use xlink:href="#DejaVuSans-2e" x="127.246094"/>
       <use xlink:href="#DejaVuSans-30" x="159.033203"/>
       <use xlink:href="#DejaVuSans-39" x="222.65625"/>
       <use xlink:href="#DejaVuSans-2e" x="286.279297"/>
       <use xlink:href="#DejaVuSans-32" x="318.066406"/>
       <use xlink:href="#DejaVuSans-30" x="381.689453"/>
       <use xlink:href="#DejaVuSans-32" x="445.3125"/>
       <use xlink:href="#DejaVuSans-30" x="508.935547"/>
      </g>
     </g>
    </g>
    <g id="xtick_5">
     <g id="line2d_9">
      <path d="M 206.590134 276.48 
L 206.590134 41.472 
" clip-path="url(#pdfdd6d42e9)" style="fill: none; stroke-dasharray: 2.96,1.28; stroke-dashoffset: 0; stroke: #808080; stroke-width: 0.8"/>
     </g>
     <g id="line2d_10">
      <g>
       <use xlink:href="#m54950b3c8e" x="206.590134" y="276.48" style="stroke: #000000; stroke-width: 0.8"/>
      </g>
     </g>
     <g id="text_5">
      <!-- 07.12.2020 -->
      <g transform="translate(155.964924 318.688565)rotate(-30)scale(0.1 -0.1)">
       <defs>
        <path id="DejaVuSans-31" d="M 794 531 
L 1825 531 
L 1825 4091 
L 703 3866 
L 703 4441 
L 1819 4666 
L 2450 4666 
L 2450 531 
L 3481 531 
L 3481 0 
L 794 0 
L 794 531 
z
" transform="scale(0.015625)"/>
       </defs>
       <use xlink:href="#DejaVuSans-30"/>
       <use xlink:href="#DejaVuSans-37" x="63.623047"/>
       <use xlink:href="#DejaVuSans-2e" x="127.246094"/>
       <use xlink:href="#DejaVuSans-31" x="159.033203"/>
       <use xlink:href="#DejaVuSans-32" x="222.65625"/>
       <use xlink:href="#DejaVuSans-2e" x="286.279297"/>
       <use xlink:href="#DejaVuSans-32" x="318.066406"/>
       <use xlink:href="#DejaVuSans-30" x="381.689453"/>
       <use xlink:href="#DejaVuSans-32" x="445.3125"/>
       <use xlink:href="#DejaVuSans-30" x="508.935547"/>
      </g>
     </g>
    </g>
    <g id="xtick_6">
     <g id="line2d_11">
      <path d="M 242.715677 276.48 
L 242.715677 41.472 
" clip-path="url(#pdfdd6d42e9)" style="fill: none; stroke-dasharray: 2.96,1.28; stroke-dashoffset: 0; stroke: #808080; stroke-width: 0.8"/>
     </g>
     <g id="line2d_12">
      <g>
       <use xlink:href="#m54950b3c8e" x="242.715677" y="276.48" style="stroke: #000000; stroke-width: 0.8"/>
      </g>
     </g>
     <g id="text_6">
      <!-- 21.02.2021 -->
      <g transform="translate(192.090466 318.688565)rotate(-30)scale(0.1 -0.1)">
       <use xlink:href="#DejaVuSans-32"/>
       <use xlink:href="#DejaVuSans-31" x="63.623047"/>
       <use xlink:href="#DejaVuSans-2e" x="127.246094"/>
       <use xlink:href="#DejaVuSans-30" x="159.033203"/>
       <use xlink:href="#DejaVuSans-32" x="222.65625"/>
       <use xlink:href="#DejaVuSans-2e" x="286.279297"/>
       <use xlink:href="#DejaVuSans-32" x="318.066406"/>
       <use xlink:href="#DejaVuSans-30" x="381.689453"/>
       <use xlink:href="#DejaVuSans-32" x="445.3125"/>
       <use xlink:href="#DejaVuSans-31" x="508.935547"/>
      </g>
     </g>
    </g>
    <g id="xtick_7">
     <g id="line2d_13">
      <path d="M 278.841219 276.48 
L 278.841219 41.472 
" clip-path="url(#pdfdd6d42e9)" style="fill: none; stroke-dasharray: 2.96,1.28; stroke-dashoffset: 0; stroke: #808080; stroke-width: 0.8"/>
     </g>
     <g id="line2d_14">
      <g>
       <use xlink:href="#m54950b3c8e" x="278.841219" y="276.48" style="stroke: #000000; stroke-width: 0.8"/>
      </g>
     </g>
     <g id="text_7">
      <!-- 08.05.2021 -->
      <g transform="translate(228.216008 318.688565)rotate(-30)scale(0.1 -0.1)">
       <defs>
        <path id="DejaVuSans-35" d="M 691 4666 
L 3169 4666 
L 3169 4134 
L 1269 4134 
L 1269 2991 
Q 1406 3038 1543 3061 
Q 1681 3084 1819 3084 
Q 2600 3084 3056 2656 
Q 3513 2228 3513 1497 
Q 3513 744 3044 326 
Q 2575 -91 1722 -91 
Q 1428 -91 1123 -41 
Q 819 9 494 109 
L 494 744 
Q 775 591 1075 516 
Q 1375 441 1709 441 
Q 2250 441 2565 725 
Q 2881 1009 2881 1497 
Q 2881 1984 2565 2268 
Q 2250 2553 1709 2553 
Q 1456 2553 1204 2497 
Q 953 2441 691 2322 
L 691 4666 
z
" transform="scale(0.015625)"/>
       </defs>
       <use xlink:href="#DejaVuSans-30"/>
       <use xlink:href="#DejaVuSans-38" x="63.623047"/>
       <use xlink:href="#DejaVuSans-2e" x="127.246094"/>
       <use xlink:href="#DejaVuSans-30" x="159.033203"/>
       <use xlink:href="#DejaVuSans-35" x="222.65625"/>
       <use xlink:href="#DejaVuSans-2e" x="286.279297"/>
       <use xlink:href="#DejaVuSans-32" x="318.066406"/>
       <use xlink:href="#DejaVuSans-30" x="381.689453"/>
       <use xlink:href="#DejaVuSans-32" x="445.3125"/>
       <use xlink:href="#DejaVuSans-31" x="508.935547"/>
      </g>
     </g>
    </g>
    <g id="xtick_8">
     <g id="line2d_15">
      <path d="M 314.966762 276.48 
L 314.966762 41.472 
" clip-path="url(#pdfdd6d42e9)" style="fill: none; stroke-dasharray: 2.96,1.28; stroke-dashoffset: 0; stroke: #808080; stroke-width: 0.8"/>
     </g>
     <g id="line2d_16">
      <g>
       <use xlink:href="#m54950b3c8e" x="314.966762" y="276.48" style="stroke: #000000; stroke-width: 0.8"/>
      </g>
     </g>
     <g id="text_8">
      <!-- 23.07.2021 -->
      <g transform="translate(264.341551 318.688565)rotate(-30)scale(0.1 -0.1)">
       <use xlink:href="#DejaVuSans-32"/>
       <use xlink:href="#DejaVuSans-33" x="63.623047"/>
       <use xlink:href="#DejaVuSans-2e" x="127.246094"/>
       <use xlink:href="#DejaVuSans-30" x="159.033203"/>
       <use xlink:href="#DejaVuSans-37" x="222.65625"/>
       <use xlink:href="#DejaVuSans-2e" x="286.279297"/>
       <use xlink:href="#DejaVuSans-32" x="318.066406"/>
       <use xlink:href="#DejaVuSans-30" x="381.689453"/>
       <use xlink:href="#DejaVuSans-32" x="445.3125"/>
       <use xlink:href="#DejaVuSans-31" x="508.935547"/>
      </g>
     </g>
    </g>
    <g id="xtick_9">
     <g id="line2d_17">
      <path d="M 351.092304 276.48 
L 351.092304 41.472 
" clip-path="url(#pdfdd6d42e9)" style="fill: none; stroke-dasharray: 2.96,1.28; stroke-dashoffset: 0; stroke: #808080; stroke-width: 0.8"/>
     </g>
     <g id="line2d_18">
      <g>
       <use xlink:href="#m54950b3c8e" x="351.092304" y="276.48" style="stroke: #000000; stroke-width: 0.8"/>
      </g>
     </g>
     <g id="text_9">
      <!-- 07.10.2021 -->
      <g transform="translate(300.467093 318.688565)rotate(-30)scale(0.1 -0.1)">
       <use xlink:href="#DejaVuSans-30"/>
       <use xlink:href="#DejaVuSans-37" x="63.623047"/>
       <use xlink:href="#DejaVuSans-2e" x="127.246094"/>
       <use xlink:href="#DejaVuSans-31" x="159.033203"/>
       <use xlink:href="#DejaVuSans-30" x="222.65625"/>
       <use xlink:href="#DejaVuSans-2e" x="286.279297"/>
       <use xlink:href="#DejaVuSans-32" x="318.066406"/>
       <use xlink:href="#DejaVuSans-30" x="381.689453"/>
       <use xlink:href="#DejaVuSans-32" x="445.3125"/>
       <use xlink:href="#DejaVuSans-31" x="508.935547"/>
      </g>
     </g>
    </g>
    <g id="xtick_10">
     <g id="line2d_19">
      <path d="M 387.217846 276.48 
L 387.217846 41.472 
" clip-path="url(#pdfdd6d42e9)" style="fill: none; stroke-dasharray: 2.96,1.28; stroke-dashoffset: 0; stroke: #808080; stroke-width: 0.8"/>
     </g>
     <g id="line2d_20">
      <g>
       <use xlink:href="#m54950b3c8e" x="387.217846" y="276.48" style="stroke: #000000; stroke-width: 0.8"/>
      </g>
     </g>
     <g id="text_10">
      <!-- 22.12.2021 -->
      <g transform="translate(336.592636 318.688565)rotate(-30)scale(0.1 -0.1)">
       <use xlink:href="#DejaVuSans-32"/>
       <use xlink:href="#DejaVuSans-32" x="63.623047"/>
       <use xlink:href="#DejaVuSans-2e" x="127.246094"/>
       <use xlink:href="#DejaVuSans-31" x="159.033203"/>
       <use xlink:href="#DejaVuSans-32" x="222.65625"/>
       <use xlink:href="#DejaVuSans-2e" x="286.279297"/>
       <use xlink:href="#DejaVuSans-32" x="318.066406"/>
       <use xlink:href="#DejaVuSans-30" x="381.689453"/>
       <use xlink:href="#DejaVuSans-32" x="445.3125"/>
       <use xlink:href="#DejaVuSans-31" x="508.935547"/>
      </g>
     </g>
    </g>
   </g>
   <g id="matplotlib.axis_2">
    <g id="ytick_1">
     <g id="line2d_21">
      <path d="M 57.6 265.797818 
L 414.72 265.797818 
" clip-path="url(#pdfdd6d42e9)" style="fill: none; stroke-dasharray: 2.96,1.28; stroke-dashoffset: 0; stroke: #808080; stroke-width: 0.8"/>
     </g>
     <g id="line2d_22">
      <defs>
       <path id="mfb81c880d4" d="M 0 0 
L -3.5 0 
" style="stroke: #000000; stroke-width: 0.8"/>
      </defs>
      <g>
       <use xlink:href="#mfb81c880d4" x="57.6" y="265.797818" style="stroke: #000000; stroke-width: 0.8"/>
      </g>
     </g>
     <g id="text_11">
      <!-- 0 -->
      <g transform="translate(44.2375 269.597037)scale(0.1 -0.1)">
       <use xlink:href="#DejaVuSans-30"/>
      </g>
     </g>
    </g>
    <g id="ytick_2">
     <g id="line2d_23">
      <path d="M 57.6 220.204211 
L 414.72 220.204211 
" clip-path="url(#pdfdd6d42e9)" style="fill: none; stroke-dasharray: 2.96,1.28; stroke-dashoffset: 0; stroke: #808080; stroke-width: 0.8"/>
     </g>
     <g id="line2d_24">
      <g>
       <use xlink:href="#mfb81c880d4" x="57.6" y="220.204211" style="stroke: #000000; stroke-width: 0.8"/>
      </g>
     </g>
     <g id="text_12">
      <!-- 100 -->
      <g transform="translate(31.5125 224.00343)scale(0.1 -0.1)">
       <use xlink:href="#DejaVuSans-31"/>
       <use xlink:href="#DejaVuSans-30" x="63.623047"/>
       <use xlink:href="#DejaVuSans-30" x="127.246094"/>
      </g>
     </g>
    </g>
    <g id="ytick_3">
     <g id="line2d_25">
      <path d="M 57.6 174.610604 
L 414.72 174.610604 
" clip-path="url(#pdfdd6d42e9)" style="fill: none; stroke-dasharray: 2.96,1.28; stroke-dashoffset: 0; stroke: #808080; stroke-width: 0.8"/>
     </g>
     <g id="line2d_26">
      <g>
       <use xlink:href="#mfb81c880d4" x="57.6" y="174.610604" style="stroke: #000000; stroke-width: 0.8"/>
      </g>
     </g>
     <g id="text_13">
      <!-- 200 -->
      <g transform="translate(31.5125 178.409823)scale(0.1 -0.1)">
       <use xlink:href="#DejaVuSans-32"/>
       <use xlink:href="#DejaVuSans-30" x="63.623047"/>
       <use xlink:href="#DejaVuSans-30" x="127.246094"/>
      </g>
     </g>
    </g>
    <g id="ytick_4">
     <g id="line2d_27">
      <path d="M 57.6 129.016997 
L 414.72 129.016997 
" clip-path="url(#pdfdd6d42e9)" style="fill: none; stroke-dasharray: 2.96,1.28; stroke-dashoffset: 0; stroke: #808080; stroke-width: 0.8"/>
     </g>
     <g id="line2d_28">
      <g>
       <use xlink:href="#mfb81c880d4" x="57.6" y="129.016997" style="stroke: #000000; stroke-width: 0.8"/>
      </g>
     </g>
     <g id="text_14">
      <!-- 300 -->
      <g transform="translate(31.5125 132.816216)scale(0.1 -0.1)">
       <use xlink:href="#DejaVuSans-33"/>
       <use xlink:href="#DejaVuSans-30" x="63.623047"/>
       <use xlink:href="#DejaVuSans-30" x="127.246094"/>
      </g>
     </g>
    </g>
    <g id="ytick_5">
     <g id="line2d_29">
      <path d="M 57.6 83.42339 
L 414.72 83.42339 
" clip-path="url(#pdfdd6d42e9)" style="fill: none; stroke-dasharray: 2.96,1.28; stroke-dashoffset: 0; stroke: #808080; stroke-width: 0.8"/>
     </g>
     <g id="line2d_30">
      <g>
       <use xlink:href="#mfb81c880d4" x="57.6" y="83.42339" style="stroke: #000000; stroke-width: 0.8"/>
      </g>
     </g>
     <g id="text_15">
      <!-- 400 -->
      <g transform="translate(31.5125 87.222609)scale(0.1 -0.1)">
       <use xlink:href="#DejaVuSans-34"/>
       <use xlink:href="#DejaVuSans-30" x="63.623047"/>
       <use xlink:href="#DejaVuSans-30" x="127.246094"/>
      </g>
     </g>
    </g>
    <g id="text_16">
     <!-- Inzidenz pro 7 Tage pro 100.000 Einwohner -->
     <g transform="translate(25.432812 267.301)rotate(-90)scale(0.1 -0.1)">
      <defs>
       <path id="DejaVuSans-49" d="M 628 4666 
L 1259 4666 
L 1259 0 
L 628 0 
L 628 4666 
z
" transform="scale(0.015625)"/>
       <path id="DejaVuSans-6e" d="M 3513 2113 
L 3513 0 
L 2938 0 
L 2938 2094 
Q 2938 2591 2744 2837 
Q 2550 3084 2163 3084 
Q 1697 3084 1428 2787 
Q 1159 2491 1159 1978 
L 1159 0 
L 581 0 
L 581 3500 
L 1159 3500 
L 1159 2956 
Q 1366 3272 1645 3428 
Q 1925 3584 2291 3584 
Q 2894 3584 3203 3211 
Q 3513 2838 3513 2113 
z
" transform="scale(0.015625)"/>
       <path id="DejaVuSans-7a" d="M 353 3500 
L 3084 3500 
L 3084 2975 
L 922 459 
L 3084 459 
L 3084 0 
L 275 0 
L 275 525 
L 2438 3041 
L 353 3041 
L 353 3500 
z
" transform="scale(0.015625)"/>
       <path id="DejaVuSans-69" d="M 603 3500 
L 1178 3500 
L 1178 0 
L 603 0 
L 603 3500 
z
M 603 4863 
L 1178 4863 
L 1178 4134 
L 603 4134 
L 603 4863 
z
" transform="scale(0.015625)"/>
       <path id="DejaVuSans-64" d="M 2906 2969 
L 2906 4863 
L 3481 4863 
L 3481 0 
L 2906 0 
L 2906 525 
Q 2725 213 2448 61 
Q 2172 -91 1784 -91 
Q 1150 -91 751 415 
Q 353 922 353 1747 
Q 353 2572 751 3078 
Q 1150 3584 1784 3584 
Q 2172 3584 2448 3432 
Q 2725 3281 2906 2969 
z
M 947 1747 
Q 947 1113 1208 752 
Q 1469 391 1925 391 
Q 2381 391 2643 752 
Q 2906 1113 2906 1747 
Q 2906 2381 2643 2742 
Q 2381 3103 1925 3103 
Q 1469 3103 1208 2742 
Q 947 2381 947 1747 
z
" transform="scale(0.015625)"/>
       <path id="DejaVuSans-65" d="M 3597 1894 
L 3597 1613 
L 953 1613 
Q 991 1019 1311 708 
Q 1631 397 2203 397 
Q 2534 397 2845 478 
Q 3156 559 3463 722 
L 3463 178 
Q 3153 47 2828 -22 
Q 2503 -91 2169 -91 
Q 1331 -91 842 396 
Q 353 884 353 1716 
Q 353 2575 817 3079 
Q 1281 3584 2069 3584 
Q 2775 3584 3186 3129 
Q 3597 2675 3597 1894 
z
M 3022 2063 
Q 3016 2534 2758 2815 
Q 2500 3097 2075 3097 
Q 1594 3097 1305 2825 
Q 1016 2553 972 2059 
L 3022 2063 
z
" transform="scale(0.015625)"/>
       <path id="DejaVuSans-20" transform="scale(0.015625)"/>
       <path id="DejaVuSans-70" d="M 1159 525 
L 1159 -1331 
L 581 -1331 
L 581 3500 
L 1159 3500 
L 1159 2969 
Q 1341 3281 1617 3432 
Q 1894 3584 2278 3584 
Q 2916 3584 3314 3078 
Q 3713 2572 3713 1747 
Q 3713 922 3314 415 
Q 2916 -91 2278 -91 
Q 1894 -91 1617 61 
Q 1341 213 1159 525 
z
M 3116 1747 
Q 3116 2381 2855 2742 
Q 2594 3103 2138 3103 
Q 1681 3103 1420 2742 
Q 1159 2381 1159 1747 
Q 1159 1113 1420 752 
Q 1681 391 2138 391 
Q 2594 391 2855 752 
Q 3116 1113 3116 1747 
z
" transform="scale(0.015625)"/>
       <path id="DejaVuSans-72" d="M 2631 2963 
Q 2534 3019 2420 3045 
Q 2306 3072 2169 3072 
Q 1681 3072 1420 2755 
Q 1159 2438 1159 1844 
L 1159 0 
L 581 0 
L 581 3500 
L 1159 3500 
L 1159 2956 
Q 1341 3275 1631 3429 
Q 1922 3584 2338 3584 
Q 2397 3584 2469 3576 
Q 2541 3569 2628 3553 
L 2631 2963 
z
" transform="scale(0.015625)"/>
       <path id="DejaVuSans-6f" d="M 1959 3097 
Q 1497 3097 1228 2736 
Q 959 2375 959 1747 
Q 959 1119 1226 758 
Q 1494 397 1959 397 
Q 2419 397 2687 759 
Q 2956 1122 2956 1747 
Q 2956 2369 2687 2733 
Q 2419 3097 1959 3097 
z
M 1959 3584 
Q 2709 3584 3137 3096 
Q 3566 2609 3566 1747 
Q 3566 888 3137 398 
Q 2709 -91 1959 -91 
Q 1206 -91 779 398 
Q 353 888 353 1747 
Q 353 2609 779 3096 
Q 1206 3584 1959 3584 
z
" transform="scale(0.015625)"/>
       <path id="DejaVuSans-54" d="M -19 4666 
L 3928 4666 
L 3928 4134 
L 2272 4134 
L 2272 0 
L 1638 0 
L 1638 4134 
L -19 4134 
L -19 4666 
z
" transform="scale(0.015625)"/>
       <path id="DejaVuSans-61" d="M 2194 1759 
Q 1497 1759 1228 1600 
Q 959 1441 959 1056 
Q 959 750 1161 570 
Q 1363 391 1709 391 
Q 2188 391 2477 730 
Q 2766 1069 2766 1631 
L 2766 1759 
L 2194 1759 
z
M 3341 1997 
L 3341 0 
L 2766 0 
L 2766 531 
Q 2569 213 2275 61 
Q 1981 -91 1556 -91 
Q 1019 -91 701 211 
Q 384 513 384 1019 
Q 384 1609 779 1909 
Q 1175 2209 1959 2209 
L 2766 2209 
L 2766 2266 
Q 2766 2663 2505 2880 
Q 2244 3097 1772 3097 
Q 1472 3097 1187 3025 
Q 903 2953 641 2809 
L 641 3341 
Q 956 3463 1253 3523 
Q 1550 3584 1831 3584 
Q 2591 3584 2966 3190 
Q 3341 2797 3341 1997 
z
" transform="scale(0.015625)"/>
       <path id="DejaVuSans-67" d="M 2906 1791 
Q 2906 2416 2648 2759 
Q 2391 3103 1925 3103 
Q 1463 3103 1205 2759 
Q 947 2416 947 1791 
Q 947 1169 1205 825 
Q 1463 481 1925 481 
Q 2391 481 2648 825 
Q 2906 1169 2906 1791 
z
M 3481 434 
Q 3481 -459 3084 -895 
Q 2688 -1331 1869 -1331 
Q 1566 -1331 1297 -1286 
Q 1028 -1241 775 -1147 
L 775 -588 
Q 1028 -725 1275 -790 
Q 1522 -856 1778 -856 
Q 2344 -856 2625 -561 
Q 2906 -266 2906 331 
L 2906 616 
Q 2728 306 2450 153 
Q 2172 0 1784 0 
Q 1141 0 747 490 
Q 353 981 353 1791 
Q 353 2603 747 3093 
Q 1141 3584 1784 3584 
Q 2172 3584 2450 3431 
Q 2728 3278 2906 2969 
L 2906 3500 
L 3481 3500 
L 3481 434 
z
" transform="scale(0.015625)"/>
       <path id="DejaVuSans-45" d="M 628 4666 
L 3578 4666 
L 3578 4134 
L 1259 4134 
L 1259 2753 
L 3481 2753 
L 3481 2222 
L 1259 2222 
L 1259 531 
L 3634 531 
L 3634 0 
L 628 0 
L 628 4666 
z
" transform="scale(0.015625)"/>
       <path id="DejaVuSans-77" d="M 269 3500 
L 844 3500 
L 1563 769 
L 2278 3500 
L 2956 3500 
L 3675 769 
L 4391 3500 
L 4966 3500 
L 4050 0 
L 3372 0 
L 2619 2869 
L 1863 0 
L 1184 0 
L 269 3500 
z
" transform="scale(0.015625)"/>
       <path id="DejaVuSans-68" d="M 3513 2113 
L 3513 0 
L 2938 0 
L 2938 2094 
Q 2938 2591 2744 2837 
Q 2550 3084 2163 3084 
Q 1697 3084 1428 2787 
Q 1159 2491 1159 1978 
L 1159 0 
L 581 0 
L 581 4863 
L 1159 4863 
L 1159 2956 
Q 1366 3272 1645 3428 
Q 1925 3584 2291 3584 
Q 2894 3584 3203 3211 
Q 3513 2838 3513 2113 
z
" transform="scale(0.015625)"/>
      </defs>
      <use xlink:href="#DejaVuSans-49"/>
      <use xlink:href="#DejaVuSans-6e" x="29.492188"/>
      <use xlink:href="#DejaVuSans-7a" x="92.871094"/>
      <use xlink:href="#DejaVuSans-69" x="145.361328"/>
      <use xlink:href="#DejaVuSans-64" x="173.144531"/>
      <use xlink:href="#DejaVuSans-65" x="236.621094"/>
      <use xlink:href="#DejaVuSans-6e" x="298.144531"/>
      <use xlink:href="#DejaVuSans-7a" x="361.523438"/>
      <use xlink:href="#DejaVuSans-20" x="414.013672"/>
      <use xlink:href="#DejaVuSans-70" x="445.800781"/>
      <use xlink:href="#DejaVuSans-72" x="509.277344"/>
      <use xlink:href="#DejaVuSans-6f" x="548.140625"/>
      <use xlink:href="#DejaVuSans-20" x="609.322266"/>
      <use xlink:href="#DejaVuSans-37" x="641.109375"/>
      <use xlink:href="#DejaVuSans-20" x="704.732422"/>
      <use xlink:href="#DejaVuSans-54" x="736.519531"/>
      <use xlink:href="#DejaVuSans-61" x="781.103516"/>
      <use xlink:href="#DejaVuSans-67" x="842.382812"/>
      <use xlink:href="#DejaVuSans-65" x="905.859375"/>
      <use xlink:href="#DejaVuSans-20" x="967.382812"/>
      <use xlink:href="#DejaVuSans-70" x="999.169922"/>
      <use xlink:href="#DejaVuSans-72" x="1062.646484"/>
      <use xlink:href="#DejaVuSans-6f" x="1101.509766"/>
      <use xlink:href="#DejaVuSans-20" x="1162.691406"/>
      <use xlink:href="#DejaVuSans-31" x="1194.478516"/>
      <use xlink:href="#DejaVuSans-30" x="1258.101562"/>
      <use xlink:href="#DejaVuSans-30" x="1321.724609"/>
      <use xlink:href="#DejaVuSans-2e" x="1385.347656"/>
      <use xlink:href="#DejaVuSans-30" x="1417.134766"/>
      <use xlink:href="#DejaVuSans-30" x="1480.757812"/>
      <use xlink:href="#DejaVuSans-30" x="1544.380859"/>
      <use xlink:href="#DejaVuSans-20" x="1608.003906"/>
      <use xlink:href="#DejaVuSans-45" x="1639.791016"/>
      <use xlink:href="#DejaVuSans-69" x="1702.974609"/>
      <use xlink:href="#DejaVuSans-6e" x="1730.757812"/>
      <use xlink:href="#DejaVuSans-77" x="1794.136719"/>
      <use xlink:href="#DejaVuSans-6f" x="1875.923828"/>
      <use xlink:href="#DejaVuSans-68" x="1937.105469"/>
      <use xlink:href="#DejaVuSans-6e" x="2000.484375"/>
      <use xlink:href="#DejaVuSans-65" x="2063.863281"/>
      <use xlink:href="#DejaVuSans-72" x="2125.386719"/>
     </g>
    </g>
   </g>
   <g id="line2d_31">
    <path d="M 73.832727 265.797818 
L 76.684744 265.797818 
L 77.16008 265.089216 
L 79.061424 265.089216 
L 79.53676 264.026312 
L 80.487432 264.026312 
L 80.962769 263.672011 
L 81.438105 262.963408 
L 82.388777 262.254806 
L 82.864113 262.254806 
L 83.339449 260.837601 
L 83.814785 259.774697 
L 85.240793 253.751577 
L 85.716129 252.688673 
L 86.191465 252.334372 
L 86.666802 253.751577 
L 87.142138 254.460179 
L 87.617474 256.231685 
L 88.09281 256.585986 
L 88.568146 257.294589 
L 89.043482 257.64889 
L 89.518818 258.711794 
L 90.46949 257.294589 
L 90.944826 256.940288 
L 91.420162 256.940288 
L 91.895498 257.294589 
L 92.370835 258.003191 
L 92.846171 256.585986 
L 93.321507 256.585986 
L 93.796843 258.357493 
L 94.272179 259.420396 
L 94.747515 261.546204 
L 95.698187 262.254806 
L 96.173523 264.026312 
L 96.648859 264.734915 
L 97.124195 264.734915 
L 98.074868 262.609107 
L 98.550204 262.963408 
L 99.02554 261.900505 
L 99.976212 261.900505 
L 100.451548 261.546204 
L 101.40222 262.963408 
L 101.877556 263.31771 
L 102.352892 264.380613 
L 103.303564 264.380613 
L 105.204909 265.797818 
L 105.680245 265.797818 
L 106.155581 265.443517 
L 109.007597 265.443517 
L 109.482934 265.797818 
L 131.348393 265.797818 
L 131.82373 265.443517 
L 134.675746 265.443517 
L 135.151082 265.797818 
L 139.904443 265.797818 
L 140.379779 265.089216 
L 140.855115 265.089216 
L 141.330451 264.734915 
L 141.805787 264.734915 
L 142.281123 264.380613 
L 143.231796 264.380613 
L 143.707132 265.089216 
L 144.182468 264.026312 
L 144.657804 264.026312 
L 145.13314 263.31771 
L 145.608476 263.31771 
L 146.083812 262.963408 
L 146.559148 262.963408 
L 147.034484 261.546204 
L 147.50982 262.254806 
L 148.460492 262.963408 
L 148.935829 262.963408 
L 149.411165 262.609107 
L 149.886501 262.609107 
L 150.361837 262.963408 
L 150.837173 262.963408 
L 151.312509 262.609107 
L 151.787845 261.900505 
L 152.263181 261.900505 
L 152.738517 262.609107 
L 153.213853 262.609107 
L 153.689189 263.672011 
L 154.164525 264.026312 
L 154.639862 264.026312 
L 155.115198 265.089216 
L 155.590534 265.443517 
L 160.343895 265.443517 
L 160.819231 265.089216 
L 161.294567 265.443517 
L 163.671247 265.443517 
L 164.146583 265.797818 
L 166.523264 265.797818 
L 166.9986 265.443517 
L 167.473936 264.734915 
L 167.949272 264.380613 
L 169.850616 264.380613 
L 170.325952 264.734915 
L 170.801288 264.734915 
L 171.276625 265.089216 
L 171.751961 264.380613 
L 172.702633 263.672011 
L 173.177969 263.672011 
L 173.653305 262.609107 
L 174.128641 263.31771 
L 174.603977 263.31771 
L 175.079313 264.026312 
L 175.554649 263.672011 
L 176.029985 264.026312 
L 176.505321 264.026312 
L 176.980658 265.089216 
L 177.455994 264.734915 
L 178.406666 264.734915 
L 178.882002 265.443517 
L 179.832674 265.443517 
L 180.30801 264.380613 
L 180.783346 264.026312 
L 181.734018 264.026312 
L 182.209354 263.31771 
L 183.160027 263.31771 
L 183.635363 263.672011 
L 184.110699 262.963408 
L 185.061371 259.774697 
L 185.536707 260.4833 
L 186.012043 259.774697 
L 186.487379 259.774697 
L 186.962715 258.003191 
L 187.438051 258.357493 
L 187.913387 257.294589 
L 188.388724 256.940288 
L 188.86406 256.231685 
L 189.339396 255.877384 
L 189.814732 255.877384 
L 190.290068 257.294589 
L 190.765404 255.168782 
L 191.24074 257.294589 
L 191.716076 256.940288 
L 192.191412 255.523083 
L 192.666748 256.231685 
L 193.142084 256.231685 
L 193.61742 254.460179 
L 194.092757 255.877384 
L 194.568093 254.460179 
L 195.043429 255.523083 
L 195.518765 254.81448 
L 195.994101 253.751577 
L 196.469437 253.751577 
L 196.944773 256.585986 
L 197.420109 257.294589 
L 197.895445 258.357493 
L 198.370781 258.711794 
L 198.846117 260.837601 
L 199.321453 260.128999 
L 199.79679 260.128999 
L 200.272126 258.711794 
L 201.222798 257.294589 
L 201.698134 257.294589 
L 202.17347 255.877384 
L 202.648806 256.940288 
L 203.124142 256.940288 
L 203.599478 258.003191 
L 204.074814 257.294589 
L 204.55015 255.523083 
L 205.025486 252.688673 
L 205.500823 251.271468 
L 205.976159 251.625769 
L 206.451495 251.625769 
L 206.926831 249.145661 
L 207.402167 247.728456 
L 207.877503 248.79136 
L 208.352839 246.665552 
L 208.828175 248.437058 
L 209.303511 245.602649 
L 209.778847 245.602649 
L 210.729519 247.728456 
L 211.204856 247.728456 
L 211.680192 249.854263 
L 212.155528 247.374155 
L 212.630864 248.79136 
L 213.1062 248.082757 
L 213.581536 248.082757 
L 214.056872 247.374155 
L 214.532208 246.311251 
L 215.48288 250.208564 
L 215.958216 249.854263 
L 216.433553 249.854263 
L 216.908889 250.562866 
L 217.384225 250.208564 
L 217.859561 251.980071 
L 218.334897 248.437058 
L 218.810233 249.145661 
L 219.285569 250.208564 
L 219.760905 249.854263 
L 220.236241 250.208564 
L 220.711577 245.95695 
L 221.186913 243.831142 
L 221.662249 245.95695 
L 222.137586 246.665552 
L 222.612922 245.602649 
L 223.088258 246.311251 
L 223.563594 245.248347 
L 224.03893 247.019853 
L 224.514266 246.311251 
L 224.989602 246.665552 
L 225.464938 244.894046 
L 225.940274 246.311251 
L 226.41561 245.95695 
L 226.890946 244.894046 
L 227.841619 250.208564 
L 228.316955 249.499962 
L 228.792291 249.854263 
L 229.267627 248.082757 
L 229.742963 248.437058 
L 230.218299 249.499962 
L 230.693635 248.437058 
L 231.168971 248.79136 
L 231.644307 250.562866 
L 232.119643 250.917167 
L 232.594979 252.688673 
L 233.070315 251.980071 
L 234.020988 255.877384 
L 234.496324 256.231685 
L 234.97166 255.523083 
L 235.446996 257.294589 
L 235.922332 257.64889 
L 236.397668 256.940288 
L 236.873004 256.585986 
L 237.34834 255.877384 
L 237.823676 255.523083 
L 238.299012 257.64889 
L 238.774348 256.231685 
L 239.249685 256.940288 
L 239.725021 258.711794 
L 240.200357 258.357493 
L 240.675693 260.4833 
L 241.151029 261.900505 
L 241.626365 256.940288 
L 242.101701 256.940288 
L 242.577037 255.168782 
L 243.052373 251.625769 
L 243.527709 251.980071 
L 244.003045 248.437058 
L 244.478381 246.311251 
L 244.953718 248.437058 
L 245.429054 246.665552 
L 245.90439 246.665552 
L 246.379726 249.854263 
L 246.855062 250.208564 
L 247.330398 253.751577 
L 247.805734 254.460179 
L 248.28107 255.877384 
L 248.756406 258.357493 
L 249.231742 258.711794 
L 249.707078 257.294589 
L 250.182414 256.231685 
L 250.657751 254.460179 
L 251.133087 255.168782 
L 251.608423 256.585986 
L 252.083759 254.81448 
L 252.559095 253.751577 
L 253.034431 255.523083 
L 253.509767 255.877384 
L 254.460439 254.460179 
L 254.935775 253.397275 
L 255.886447 257.294589 
L 256.361784 256.585986 
L 256.83712 256.585986 
L 257.787792 257.294589 
L 258.738464 254.460179 
L 259.2138 253.397275 
L 259.689136 253.751577 
L 260.164472 253.751577 
L 261.115144 254.460179 
L 261.590481 255.168782 
L 262.065817 254.81448 
L 262.541153 256.231685 
L 263.491825 255.523083 
L 263.967161 255.877384 
L 264.442497 255.523083 
L 264.917833 254.105878 
L 265.393169 254.105878 
L 265.868505 249.854263 
L 266.343841 249.499962 
L 267.294514 247.374155 
L 267.76985 245.602649 
L 268.245186 248.79136 
L 268.720522 245.95695 
L 269.195858 245.602649 
L 269.671194 244.185444 
L 270.14653 245.602649 
L 270.621866 245.248347 
L 271.097202 244.539745 
L 271.572538 241.351034 
L 272.52321 246.665552 
L 272.998547 249.145661 
L 273.473883 249.145661 
L 273.949219 245.248347 
L 274.424555 245.248347 
L 275.375227 248.79136 
L 276.325899 248.082757 
L 276.801235 246.665552 
L 277.276571 252.334372 
L 277.751907 252.334372 
L 278.227243 251.625769 
L 278.70258 249.499962 
L 279.177916 250.917167 
L 279.653252 250.562866 
L 280.128588 251.980071 
L 280.603924 251.271468 
L 281.07926 252.334372 
L 281.554596 251.625769 
L 282.029932 253.042974 
L 282.505268 251.625769 
L 282.980604 251.271468 
L 283.45594 251.625769 
L 283.931276 251.271468 
L 284.406613 252.688673 
L 284.881949 255.168782 
L 285.357285 255.523083 
L 286.307957 256.940288 
L 286.783293 256.940288 
L 287.258629 260.128999 
L 288.209301 261.546204 
L 288.684637 261.546204 
L 289.159973 262.609107 
L 290.110646 263.31771 
L 291.061318 263.31771 
L 291.536654 262.963408 
L 292.487326 264.380613 
L 293.913334 264.380613 
L 294.38867 265.089216 
L 295.339342 265.797818 
L 295.814679 265.443517 
L 297.240687 265.443517 
L 298.191359 264.734915 
L 299.617367 264.734915 
L 300.092703 264.026312 
L 300.568039 264.026312 
L 301.518712 264.734915 
L 301.994048 264.734915 
L 302.469384 265.089216 
L 302.94472 265.089216 
L 303.420056 265.797818 
L 304.846064 265.797818 
L 305.796736 265.089216 
L 306.747408 265.089216 
L 307.222745 264.734915 
L 307.698081 264.026312 
L 308.173417 263.672011 
L 308.648753 263.672011 
L 309.124089 264.026312 
L 309.599425 264.026312 
L 310.550097 263.31771 
L 311.025433 264.026312 
L 311.500769 263.672011 
L 311.976105 264.026312 
L 313.402114 264.026312 
L 313.87745 264.734915 
L 314.352786 264.734915 
L 314.828122 265.443517 
L 315.303458 265.089216 
L 315.778794 264.380613 
L 316.25413 264.380613 
L 316.729466 264.734915 
L 317.680138 264.734915 
L 318.155475 263.672011 
L 319.106147 262.963408 
L 319.581483 262.963408 
L 320.056819 258.711794 
L 321.007491 248.082757 
L 321.482827 244.539745 
L 321.958163 239.933829 
L 322.908835 239.933829 
L 323.859508 243.476841 
L 324.334844 245.95695 
L 324.81018 244.894046 
L 325.285516 247.374155 
L 325.760852 247.019853 
L 326.236188 247.019853 
L 326.711524 247.374155 
L 327.18686 247.374155 
L 327.662196 248.79136 
L 328.137532 254.105878 
L 328.612868 251.980071 
L 329.563541 251.980071 
L 330.989549 245.248347 
L 331.464885 242.413938 
L 331.940221 245.602649 
L 332.890893 245.602649 
L 333.841565 253.397275 
L 334.316901 252.688673 
L 334.792237 255.168782 
L 335.267574 255.168782 
L 335.74291 256.585986 
L 336.218246 256.585986 
L 336.693582 250.208564 
L 337.168918 248.79136 
L 337.644254 250.208564 
L 338.11959 247.019853 
L 338.594926 246.665552 
L 339.545598 246.665552 
L 340.020934 249.499962 
L 340.49627 251.271468 
L 340.971607 250.562866 
L 341.446943 250.562866 
L 341.922279 251.980071 
L 342.872951 251.980071 
L 343.348287 254.105878 
L 343.823623 254.460179 
L 344.298959 256.585986 
L 344.774295 257.64889 
L 345.249631 256.940288 
L 346.200303 256.940288 
L 346.67564 256.585986 
L 347.150976 255.523083 
L 347.626312 255.523083 
L 348.101648 257.294589 
L 348.576984 257.64889 
L 349.527656 257.64889 
L 350.002992 258.003191 
L 350.478328 257.64889 
L 351.429 257.64889 
L 351.904336 257.294589 
L 352.855009 257.294589 
L 353.330345 255.877384 
L 354.281017 256.585986 
L 354.756353 256.585986 
L 355.231689 257.294589 
L 356.182361 257.294589 
L 356.657697 258.711794 
L 357.133033 254.105878 
L 357.608369 251.271468 
L 358.083706 249.499962 
L 358.559042 246.665552 
L 359.509714 246.665552 
L 359.98505 242.059636 
L 360.460386 240.28813 
L 360.935722 242.059636 
L 361.411058 241.351034 
L 361.886394 238.516624 
L 362.837066 238.516624 
L 363.312403 242.413938 
L 363.787739 241.351034 
L 364.263075 240.996733 
L 364.738411 239.933829 
L 365.213747 240.996733 
L 366.164419 240.996733 
L 366.639755 234.973612 
L 367.115091 237.45372 
L 367.590427 231.076299 
L 368.065763 229.659094 
L 368.541099 232.139202 
L 369.967108 232.139202 
L 370.442444 228.241889 
L 370.91778 228.241889 
L 371.393116 227.178985 
L 372.343788 217.612852 
L 372.819124 217.612852 
L 373.29446 218.321455 
L 373.769796 216.195647 
L 374.245132 211.23543 
L 374.720469 212.652635 
L 375.195805 209.463924 
L 375.671141 209.109623 
L 376.146477 209.109623 
L 376.621813 201.669297 
L 377.097149 197.063381 
L 377.572485 199.189189 
L 378.047821 195.291875 
L 378.523157 195.291875 
L 378.998493 193.87467 
L 379.473829 193.87467 
L 379.949165 199.54349 
L 380.424502 201.314996 
L 380.899838 206.983815 
L 381.375174 208.046719 
L 381.85051 212.298334 
L 382.325846 215.132744 
L 382.801182 215.132744 
L 383.276518 215.487045 
L 383.751854 225.407479 
L 384.22719 217.967153 
L 384.702526 216.195647 
L 385.177862 213.715539 
L 385.653198 213.715539 
L 386.128535 213.361237 
L 386.603871 213.715539 
L 387.079207 207.692418 
L 387.554543 209.463924 
L 388.029879 209.109623 
L 388.505215 211.23543 
L 388.980551 210.881129 
L 389.455887 211.23543 
L 389.931223 207.338117 
L 390.406559 205.566611 
L 390.881895 205.212309 
L 391.357231 197.417682 
L 391.832568 195.646176 
L 392.307904 199.897791 
L 393.258576 182.891332 
L 393.733912 166.593476 
L 394.209248 144.626801 
L 394.684584 132.580559 
L 395.635256 94.316027 
L 396.110592 102.819256 
L 396.585928 73.057954 
L 397.061264 81.561183 
L 397.536601 79.789677 
L 398.011937 52.154182 
L 398.487273 63.13752 
L 398.487273 63.13752 
" clip-path="url(#pdfdd6d42e9)" style="fill: none; stroke: #1f77b4; stroke-width: 1.5; stroke-linecap: square"/>
   </g>
   <g id="patch_3">
    <path d="M 57.6 276.48 
L 57.6 41.472 
" style="fill: none; stroke: #000000; stroke-width: 0.8; stroke-linejoin: miter; stroke-linecap: square"/>
   </g>
   <g id="patch_4">
    <path d="M 414.72 276.48 
L 414.72 41.472 
" style="fill: none; stroke: #000000; stroke-width: 0.8; stroke-linejoin: miter; stroke-linecap: square"/>
   </g>
   <g id="patch_5">
    <path d="M 57.6 276.48 
L 414.72 276.48 
" style="fill: none; stroke: #000000; stroke-width: 0.8; stroke-linejoin: miter; stroke-linecap: square"/>
   </g>
   <g id="patch_6">
    <path d="M 57.6 41.472 
L 414.72 41.472 
" style="fill: none; stroke: #000000; stroke-width: 0.8; stroke-linejoin: miter; stroke-linecap: square"/>
   </g>
  </g>
  <g id="text_17">
   <!-- Inzidenzverlauf LK Plön -->
   <g transform="translate(125.911406 20.589187)scale(0.18 -0.18)">
    <defs>
     <path id="DejaVuSans-76" d="M 191 3500 
L 800 3500 
L 1894 563 
L 2988 3500 
L 3597 3500 
L 2284 0 
L 1503 0 
L 191 3500 
z
" transform="scale(0.015625)"/>
     <path id="DejaVuSans-6c" d="M 603 4863 
L 1178 4863 
L 1178 0 
L 603 0 
L 603 4863 
z
" transform="scale(0.015625)"/>
     <path id="DejaVuSans-75" d="M 544 1381 
L 544 3500 
L 1119 3500 
L 1119 1403 
Q 1119 906 1312 657 
Q 1506 409 1894 409 
Q 2359 409 2629 706 
Q 2900 1003 2900 1516 
L 2900 3500 
L 3475 3500 
L 3475 0 
L 2900 0 
L 2900 538 
Q 2691 219 2414 64 
Q 2138 -91 1772 -91 
Q 1169 -91 856 284 
Q 544 659 544 1381 
z
M 1991 3584 
L 1991 3584 
z
" transform="scale(0.015625)"/>
     <path id="DejaVuSans-66" d="M 2375 4863 
L 2375 4384 
L 1825 4384 
Q 1516 4384 1395 4259 
Q 1275 4134 1275 3809 
L 1275 3500 
L 2222 3500 
L 2222 3053 
L 1275 3053 
L 1275 0 
L 697 0 
L 697 3053 
L 147 3053 
L 147 3500 
L 697 3500 
L 697 3744 
Q 697 4328 969 4595 
Q 1241 4863 1831 4863 
L 2375 4863 
z
" transform="scale(0.015625)"/>
     <path id="DejaVuSans-4c" d="M 628 4666 
L 1259 4666 
L 1259 531 
L 3531 531 
L 3531 0 
L 628 0 
L 628 4666 
z
" transform="scale(0.015625)"/>
     <path id="DejaVuSans-4b" d="M 628 4666 
L 1259 4666 
L 1259 2694 
L 3353 4666 
L 4166 4666 
L 1850 2491 
L 4331 0 
L 3500 0 
L 1259 2247 
L 1259 0 
L 628 0 
L 628 4666 
z
" transform="scale(0.015625)"/>
     <path id="DejaVuSans-50" d="M 1259 4147 
L 1259 2394 
L 2053 2394 
Q 2494 2394 2734 2622 
Q 2975 2850 2975 3272 
Q 2975 3691 2734 3919 
Q 2494 4147 2053 4147 
L 1259 4147 
z
M 628 4666 
L 2053 4666 
Q 2838 4666 3239 4311 
Q 3641 3956 3641 3272 
Q 3641 2581 3239 2228 
Q 2838 1875 2053 1875 
L 1259 1875 
L 1259 0 
L 628 0 
L 628 4666 
z
" transform="scale(0.015625)"/>
     <path id="DejaVuSans-f6" d="M 1959 3097 
Q 1497 3097 1228 2736 
Q 959 2375 959 1747 
Q 959 1119 1226 758 
Q 1494 397 1959 397 
Q 2419 397 2687 759 
Q 2956 1122 2956 1747 
Q 2956 2369 2687 2733 
Q 2419 3097 1959 3097 
z
M 1959 3584 
Q 2709 3584 3137 3096 
Q 3566 2609 3566 1747 
Q 3566 888 3137 398 
Q 2709 -91 1959 -91 
Q 1206 -91 779 398 
Q 353 888 353 1747 
Q 353 2609 779 3096 
Q 1206 3584 1959 3584 
z
M 2254 4850 
L 2888 4850 
L 2888 4219 
L 2254 4219 
L 2254 4850 
z
M 1032 4850 
L 1666 4850 
L 1666 4219 
L 1032 4219 
L 1032 4850 
z
" transform="scale(0.015625)"/>
    </defs>
    <use xlink:href="#DejaVuSans-49"/>
    <use xlink:href="#DejaVuSans-6e" x="29.492188"/>
    <use xlink:href="#DejaVuSans-7a" x="92.871094"/>
    <use xlink:href="#DejaVuSans-69" x="145.361328"/>
    <use xlink:href="#DejaVuSans-64" x="173.144531"/>
    <use xlink:href="#DejaVuSans-65" x="236.621094"/>
    <use xlink:href="#DejaVuSans-6e" x="298.144531"/>
    <use xlink:href="#DejaVuSans-7a" x="361.523438"/>
    <use xlink:href="#DejaVuSans-76" x="414.013672"/>
    <use xlink:href="#DejaVuSans-65" x="473.193359"/>
    <use xlink:href="#DejaVuSans-72" x="534.716797"/>
    <use xlink:href="#DejaVuSans-6c" x="575.830078"/>
    <use xlink:href="#DejaVuSans-61" x="603.613281"/>
    <use xlink:href="#DejaVuSans-75" x="664.892578"/>
    <use xlink:href="#DejaVuSans-66" x="728.271484"/>
    <use xlink:href="#DejaVuSans-20" x="763.476562"/>
    <use xlink:href="#DejaVuSans-4c" x="795.263672"/>
    <use xlink:href="#DejaVuSans-4b" x="850.976562"/>
    <use xlink:href="#DejaVuSans-20" x="916.552734"/>
    <use xlink:href="#DejaVuSans-50" x="948.339844"/>
    <use xlink:href="#DejaVuSans-6c" x="1008.642578"/>
    <use xlink:href="#DejaVuSans-f6" x="1036.425781"/>
    <use xlink:href="#DejaVuSans-6e" x="1097.607422"/>
   </g>
  </g>
 </g>
 <defs>
  <clipPath id="pdfdd6d42e9">
   <rect x="57.6" y="41.472" width="357.12" height="235.008"/>
  </clipPath>
 </defs>
</svg>
