<?xml version="1.0" encoding="utf-8" standalone="no"?>
<!DOCTYPE svg PUBLIC "-//W3C//DTD SVG 1.1//EN"
  "http://www.w3.org/Graphics/SVG/1.1/DTD/svg11.dtd">
<svg height="345.6pt" version="1.1" viewBox="0 0 460.8 345.6" width="460.8pt" xmlns="http://www.w3.org/2000/svg" xmlns:xlink="http://www.w3.org/1999/xlink">
 <metadata>
  <rdf:RDF xmlns:cc="http://creativecommons.org/ns#" xmlns:dc="http://purl.org/dc/elements/1.1/" xmlns:rdf="http://www.w3.org/1999/02/22-rdf-syntax-ns#">
   <cc:Work>
    <dc:type rdf:resource="http://purl.org/dc/dcmitype/StillImage"/>
    <dc:date>2021-09-17T09:18:53.933094</dc:date>
    <dc:format>image/svg+xml</dc:format>
    <dc:creator>
     <cc:Agent>
      <dc:title>Matplotlib v3.4.3, https://matplotlib.org/</dc:title>
     </cc:Agent>
    </dc:creator>
   </cc:Work>
  </rdf:RDF>
 </metadata>
 <defs>
  <style type="text/css">*{stroke-linecap:butt;stroke-linejoin:round;}</style>
 </defs>
 <g id="figure_1">
  <g id="patch_1">
   <path d="M 0 345.6 
L 460.8 345.6 
L 460.8 0 
L 0 0 
z
" style="fill:#ffffff;"/>
  </g>
  <g id="axes_1">
   <g id="patch_2">
    <path d="M 57.6 276.48 
L 414.72 276.48 
L 414.72 41.472 
L 57.6 41.472 
z
" style="fill:#ffffff;"/>
   </g>
   <g id="matplotlib.axis_1">
    <g id="xtick_1">
     <g id="line2d_1">
      <path clip-path="url(#p99c296ec1d)" d="M 92.453751 276.48 
L 92.453751 41.472 
" style="fill:none;stroke:#808080;stroke-dasharray:2.96,1.28;stroke-dashoffset:0;stroke-width:0.8;"/>
     </g>
     <g id="line2d_2">
      <defs>
       <path d="M 0 0 
L 0 3.5 
" id="m8f16e56d03" style="stroke:#000000;stroke-width:0.8;"/>
      </defs>
      <g>
       <use style="stroke:#000000;stroke-width:0.8;" x="92.453751" xlink:href="#m8f16e56d03" y="276.48"/>
      </g>
     </g>
     <g id="text_1">
      <!-- 04.04.2020 -->
      <g transform="translate(41.82854 318.688565)rotate(-30)scale(0.1 -0.1)">
       <defs>
        <path d="M 2034 4250 
Q 1547 4250 1301 3770 
Q 1056 3291 1056 2328 
Q 1056 1369 1301 889 
Q 1547 409 2034 409 
Q 2525 409 2770 889 
Q 3016 1369 3016 2328 
Q 3016 3291 2770 3770 
Q 2525 4250 2034 4250 
z
M 2034 4750 
Q 2819 4750 3233 4129 
Q 3647 3509 3647 2328 
Q 3647 1150 3233 529 
Q 2819 -91 2034 -91 
Q 1250 -91 836 529 
Q 422 1150 422 2328 
Q 422 3509 836 4129 
Q 1250 4750 2034 4750 
z
" id="DejaVuSans-30" transform="scale(0.015625)"/>
        <path d="M 2419 4116 
L 825 1625 
L 2419 1625 
L 2419 4116 
z
M 2253 4666 
L 3047 4666 
L 3047 1625 
L 3713 1625 
L 3713 1100 
L 3047 1100 
L 3047 0 
L 2419 0 
L 2419 1100 
L 313 1100 
L 313 1709 
L 2253 4666 
z
" id="DejaVuSans-34" transform="scale(0.015625)"/>
        <path d="M 684 794 
L 1344 794 
L 1344 0 
L 684 0 
L 684 794 
z
" id="DejaVuSans-2e" transform="scale(0.015625)"/>
        <path d="M 1228 531 
L 3431 531 
L 3431 0 
L 469 0 
L 469 531 
Q 828 903 1448 1529 
Q 2069 2156 2228 2338 
Q 2531 2678 2651 2914 
Q 2772 3150 2772 3378 
Q 2772 3750 2511 3984 
Q 2250 4219 1831 4219 
Q 1534 4219 1204 4116 
Q 875 4013 500 3803 
L 500 4441 
Q 881 4594 1212 4672 
Q 1544 4750 1819 4750 
Q 2544 4750 2975 4387 
Q 3406 4025 3406 3419 
Q 3406 3131 3298 2873 
Q 3191 2616 2906 2266 
Q 2828 2175 2409 1742 
Q 1991 1309 1228 531 
z
" id="DejaVuSans-32" transform="scale(0.015625)"/>
       </defs>
       <use xlink:href="#DejaVuSans-30"/>
       <use x="63.623047" xlink:href="#DejaVuSans-34"/>
       <use x="127.246094" xlink:href="#DejaVuSans-2e"/>
       <use x="159.033203" xlink:href="#DejaVuSans-30"/>
       <use x="222.65625" xlink:href="#DejaVuSans-34"/>
       <use x="286.279297" xlink:href="#DejaVuSans-2e"/>
       <use x="318.066406" xlink:href="#DejaVuSans-32"/>
       <use x="381.689453" xlink:href="#DejaVuSans-30"/>
       <use x="445.3125" xlink:href="#DejaVuSans-32"/>
       <use x="508.935547" xlink:href="#DejaVuSans-30"/>
      </g>
     </g>
    </g>
    <g id="xtick_2">
     <g id="line2d_3">
      <path clip-path="url(#p99c296ec1d)" d="M 128.206117 276.48 
L 128.206117 41.472 
" style="fill:none;stroke:#808080;stroke-dasharray:2.96,1.28;stroke-dashoffset:0;stroke-width:0.8;"/>
     </g>
     <g id="line2d_4">
      <g>
       <use style="stroke:#000000;stroke-width:0.8;" x="128.206117" xlink:href="#m8f16e56d03" y="276.48"/>
      </g>
     </g>
     <g id="text_2">
      <!-- 05.06.2020 -->
      <g transform="translate(77.580906 318.688565)rotate(-30)scale(0.1 -0.1)">
       <defs>
        <path d="M 691 4666 
L 3169 4666 
L 3169 4134 
L 1269 4134 
L 1269 2991 
Q 1406 3038 1543 3061 
Q 1681 3084 1819 3084 
Q 2600 3084 3056 2656 
Q 3513 2228 3513 1497 
Q 3513 744 3044 326 
Q 2575 -91 1722 -91 
Q 1428 -91 1123 -41 
Q 819 9 494 109 
L 494 744 
Q 775 591 1075 516 
Q 1375 441 1709 441 
Q 2250 441 2565 725 
Q 2881 1009 2881 1497 
Q 2881 1984 2565 2268 
Q 2250 2553 1709 2553 
Q 1456 2553 1204 2497 
Q 953 2441 691 2322 
L 691 4666 
z
" id="DejaVuSans-35" transform="scale(0.015625)"/>
        <path d="M 2113 2584 
Q 1688 2584 1439 2293 
Q 1191 2003 1191 1497 
Q 1191 994 1439 701 
Q 1688 409 2113 409 
Q 2538 409 2786 701 
Q 3034 994 3034 1497 
Q 3034 2003 2786 2293 
Q 2538 2584 2113 2584 
z
M 3366 4563 
L 3366 3988 
Q 3128 4100 2886 4159 
Q 2644 4219 2406 4219 
Q 1781 4219 1451 3797 
Q 1122 3375 1075 2522 
Q 1259 2794 1537 2939 
Q 1816 3084 2150 3084 
Q 2853 3084 3261 2657 
Q 3669 2231 3669 1497 
Q 3669 778 3244 343 
Q 2819 -91 2113 -91 
Q 1303 -91 875 529 
Q 447 1150 447 2328 
Q 447 3434 972 4092 
Q 1497 4750 2381 4750 
Q 2619 4750 2861 4703 
Q 3103 4656 3366 4563 
z
" id="DejaVuSans-36" transform="scale(0.015625)"/>
       </defs>
       <use xlink:href="#DejaVuSans-30"/>
       <use x="63.623047" xlink:href="#DejaVuSans-35"/>
       <use x="127.246094" xlink:href="#DejaVuSans-2e"/>
       <use x="159.033203" xlink:href="#DejaVuSans-30"/>
       <use x="222.65625" xlink:href="#DejaVuSans-36"/>
       <use x="286.279297" xlink:href="#DejaVuSans-2e"/>
       <use x="318.066406" xlink:href="#DejaVuSans-32"/>
       <use x="381.689453" xlink:href="#DejaVuSans-30"/>
       <use x="445.3125" xlink:href="#DejaVuSans-32"/>
       <use x="508.935547" xlink:href="#DejaVuSans-30"/>
      </g>
     </g>
    </g>
    <g id="xtick_3">
     <g id="line2d_5">
      <path clip-path="url(#p99c296ec1d)" d="M 163.958482 276.48 
L 163.958482 41.472 
" style="fill:none;stroke:#808080;stroke-dasharray:2.96,1.28;stroke-dashoffset:0;stroke-width:0.8;"/>
     </g>
     <g id="line2d_6">
      <g>
       <use style="stroke:#000000;stroke-width:0.8;" x="163.958482" xlink:href="#m8f16e56d03" y="276.48"/>
      </g>
     </g>
     <g id="text_3">
      <!-- 06.08.2020 -->
      <g transform="translate(113.333271 318.688565)rotate(-30)scale(0.1 -0.1)">
       <defs>
        <path d="M 2034 2216 
Q 1584 2216 1326 1975 
Q 1069 1734 1069 1313 
Q 1069 891 1326 650 
Q 1584 409 2034 409 
Q 2484 409 2743 651 
Q 3003 894 3003 1313 
Q 3003 1734 2745 1975 
Q 2488 2216 2034 2216 
z
M 1403 2484 
Q 997 2584 770 2862 
Q 544 3141 544 3541 
Q 544 4100 942 4425 
Q 1341 4750 2034 4750 
Q 2731 4750 3128 4425 
Q 3525 4100 3525 3541 
Q 3525 3141 3298 2862 
Q 3072 2584 2669 2484 
Q 3125 2378 3379 2068 
Q 3634 1759 3634 1313 
Q 3634 634 3220 271 
Q 2806 -91 2034 -91 
Q 1263 -91 848 271 
Q 434 634 434 1313 
Q 434 1759 690 2068 
Q 947 2378 1403 2484 
z
M 1172 3481 
Q 1172 3119 1398 2916 
Q 1625 2713 2034 2713 
Q 2441 2713 2670 2916 
Q 2900 3119 2900 3481 
Q 2900 3844 2670 4047 
Q 2441 4250 2034 4250 
Q 1625 4250 1398 4047 
Q 1172 3844 1172 3481 
z
" id="DejaVuSans-38" transform="scale(0.015625)"/>
       </defs>
       <use xlink:href="#DejaVuSans-30"/>
       <use x="63.623047" xlink:href="#DejaVuSans-36"/>
       <use x="127.246094" xlink:href="#DejaVuSans-2e"/>
       <use x="159.033203" xlink:href="#DejaVuSans-30"/>
       <use x="222.65625" xlink:href="#DejaVuSans-38"/>
       <use x="286.279297" xlink:href="#DejaVuSans-2e"/>
       <use x="318.066406" xlink:href="#DejaVuSans-32"/>
       <use x="381.689453" xlink:href="#DejaVuSans-30"/>
       <use x="445.3125" xlink:href="#DejaVuSans-32"/>
       <use x="508.935547" xlink:href="#DejaVuSans-30"/>
      </g>
     </g>
    </g>
    <g id="xtick_4">
     <g id="line2d_7">
      <path clip-path="url(#p99c296ec1d)" d="M 199.710848 276.48 
L 199.710848 41.472 
" style="fill:none;stroke:#808080;stroke-dasharray:2.96,1.28;stroke-dashoffset:0;stroke-width:0.8;"/>
     </g>
     <g id="line2d_8">
      <g>
       <use style="stroke:#000000;stroke-width:0.8;" x="199.710848" xlink:href="#m8f16e56d03" y="276.48"/>
      </g>
     </g>
     <g id="text_4">
      <!-- 07.10.2020 -->
      <g transform="translate(149.085637 318.688565)rotate(-30)scale(0.1 -0.1)">
       <defs>
        <path d="M 525 4666 
L 3525 4666 
L 3525 4397 
L 1831 0 
L 1172 0 
L 2766 4134 
L 525 4134 
L 525 4666 
z
" id="DejaVuSans-37" transform="scale(0.015625)"/>
        <path d="M 794 531 
L 1825 531 
L 1825 4091 
L 703 3866 
L 703 4441 
L 1819 4666 
L 2450 4666 
L 2450 531 
L 3481 531 
L 3481 0 
L 794 0 
L 794 531 
z
" id="DejaVuSans-31" transform="scale(0.015625)"/>
       </defs>
       <use xlink:href="#DejaVuSans-30"/>
       <use x="63.623047" xlink:href="#DejaVuSans-37"/>
       <use x="127.246094" xlink:href="#DejaVuSans-2e"/>
       <use x="159.033203" xlink:href="#DejaVuSans-31"/>
       <use x="222.65625" xlink:href="#DejaVuSans-30"/>
       <use x="286.279297" xlink:href="#DejaVuSans-2e"/>
       <use x="318.066406" xlink:href="#DejaVuSans-32"/>
       <use x="381.689453" xlink:href="#DejaVuSans-30"/>
       <use x="445.3125" xlink:href="#DejaVuSans-32"/>
       <use x="508.935547" xlink:href="#DejaVuSans-30"/>
      </g>
     </g>
    </g>
    <g id="xtick_5">
     <g id="line2d_9">
      <path clip-path="url(#p99c296ec1d)" d="M 235.463213 276.48 
L 235.463213 41.472 
" style="fill:none;stroke:#808080;stroke-dasharray:2.96,1.28;stroke-dashoffset:0;stroke-width:0.8;"/>
     </g>
     <g id="line2d_10">
      <g>
       <use style="stroke:#000000;stroke-width:0.8;" x="235.463213" xlink:href="#m8f16e56d03" y="276.48"/>
      </g>
     </g>
     <g id="text_5">
      <!-- 08.12.2020 -->
      <g transform="translate(184.838003 318.688565)rotate(-30)scale(0.1 -0.1)">
       <use xlink:href="#DejaVuSans-30"/>
       <use x="63.623047" xlink:href="#DejaVuSans-38"/>
       <use x="127.246094" xlink:href="#DejaVuSans-2e"/>
       <use x="159.033203" xlink:href="#DejaVuSans-31"/>
       <use x="222.65625" xlink:href="#DejaVuSans-32"/>
       <use x="286.279297" xlink:href="#DejaVuSans-2e"/>
       <use x="318.066406" xlink:href="#DejaVuSans-32"/>
       <use x="381.689453" xlink:href="#DejaVuSans-30"/>
       <use x="445.3125" xlink:href="#DejaVuSans-32"/>
       <use x="508.935547" xlink:href="#DejaVuSans-30"/>
      </g>
     </g>
    </g>
    <g id="xtick_6">
     <g id="line2d_11">
      <path clip-path="url(#p99c296ec1d)" d="M 271.215579 276.48 
L 271.215579 41.472 
" style="fill:none;stroke:#808080;stroke-dasharray:2.96,1.28;stroke-dashoffset:0;stroke-width:0.8;"/>
     </g>
     <g id="line2d_12">
      <g>
       <use style="stroke:#000000;stroke-width:0.8;" x="271.215579" xlink:href="#m8f16e56d03" y="276.48"/>
      </g>
     </g>
     <g id="text_6">
      <!-- 08.02.2021 -->
      <g transform="translate(220.590368 318.688565)rotate(-30)scale(0.1 -0.1)">
       <use xlink:href="#DejaVuSans-30"/>
       <use x="63.623047" xlink:href="#DejaVuSans-38"/>
       <use x="127.246094" xlink:href="#DejaVuSans-2e"/>
       <use x="159.033203" xlink:href="#DejaVuSans-30"/>
       <use x="222.65625" xlink:href="#DejaVuSans-32"/>
       <use x="286.279297" xlink:href="#DejaVuSans-2e"/>
       <use x="318.066406" xlink:href="#DejaVuSans-32"/>
       <use x="381.689453" xlink:href="#DejaVuSans-30"/>
       <use x="445.3125" xlink:href="#DejaVuSans-32"/>
       <use x="508.935547" xlink:href="#DejaVuSans-31"/>
      </g>
     </g>
    </g>
    <g id="xtick_7">
     <g id="line2d_13">
      <path clip-path="url(#p99c296ec1d)" d="M 306.967944 276.48 
L 306.967944 41.472 
" style="fill:none;stroke:#808080;stroke-dasharray:2.96,1.28;stroke-dashoffset:0;stroke-width:0.8;"/>
     </g>
     <g id="line2d_14">
      <g>
       <use style="stroke:#000000;stroke-width:0.8;" x="306.967944" xlink:href="#m8f16e56d03" y="276.48"/>
      </g>
     </g>
     <g id="text_7">
      <!-- 11.04.2021 -->
      <g transform="translate(256.342734 318.688565)rotate(-30)scale(0.1 -0.1)">
       <use xlink:href="#DejaVuSans-31"/>
       <use x="63.623047" xlink:href="#DejaVuSans-31"/>
       <use x="127.246094" xlink:href="#DejaVuSans-2e"/>
       <use x="159.033203" xlink:href="#DejaVuSans-30"/>
       <use x="222.65625" xlink:href="#DejaVuSans-34"/>
       <use x="286.279297" xlink:href="#DejaVuSans-2e"/>
       <use x="318.066406" xlink:href="#DejaVuSans-32"/>
       <use x="381.689453" xlink:href="#DejaVuSans-30"/>
       <use x="445.3125" xlink:href="#DejaVuSans-32"/>
       <use x="508.935547" xlink:href="#DejaVuSans-31"/>
      </g>
     </g>
    </g>
    <g id="xtick_8">
     <g id="line2d_15">
      <path clip-path="url(#p99c296ec1d)" d="M 342.72031 276.48 
L 342.72031 41.472 
" style="fill:none;stroke:#808080;stroke-dasharray:2.96,1.28;stroke-dashoffset:0;stroke-width:0.8;"/>
     </g>
     <g id="line2d_16">
      <g>
       <use style="stroke:#000000;stroke-width:0.8;" x="342.72031" xlink:href="#m8f16e56d03" y="276.48"/>
      </g>
     </g>
     <g id="text_8">
      <!-- 12.06.2021 -->
      <g transform="translate(292.095099 318.688565)rotate(-30)scale(0.1 -0.1)">
       <use xlink:href="#DejaVuSans-31"/>
       <use x="63.623047" xlink:href="#DejaVuSans-32"/>
       <use x="127.246094" xlink:href="#DejaVuSans-2e"/>
       <use x="159.033203" xlink:href="#DejaVuSans-30"/>
       <use x="222.65625" xlink:href="#DejaVuSans-36"/>
       <use x="286.279297" xlink:href="#DejaVuSans-2e"/>
       <use x="318.066406" xlink:href="#DejaVuSans-32"/>
       <use x="381.689453" xlink:href="#DejaVuSans-30"/>
       <use x="445.3125" xlink:href="#DejaVuSans-32"/>
       <use x="508.935547" xlink:href="#DejaVuSans-31"/>
      </g>
     </g>
    </g>
    <g id="xtick_9">
     <g id="line2d_17">
      <path clip-path="url(#p99c296ec1d)" d="M 378.472676 276.48 
L 378.472676 41.472 
" style="fill:none;stroke:#808080;stroke-dasharray:2.96,1.28;stroke-dashoffset:0;stroke-width:0.8;"/>
     </g>
     <g id="line2d_18">
      <g>
       <use style="stroke:#000000;stroke-width:0.8;" x="378.472676" xlink:href="#m8f16e56d03" y="276.48"/>
      </g>
     </g>
     <g id="text_9">
      <!-- 13.08.2021 -->
      <g transform="translate(327.847465 318.688565)rotate(-30)scale(0.1 -0.1)">
       <defs>
        <path d="M 2597 2516 
Q 3050 2419 3304 2112 
Q 3559 1806 3559 1356 
Q 3559 666 3084 287 
Q 2609 -91 1734 -91 
Q 1441 -91 1130 -33 
Q 819 25 488 141 
L 488 750 
Q 750 597 1062 519 
Q 1375 441 1716 441 
Q 2309 441 2620 675 
Q 2931 909 2931 1356 
Q 2931 1769 2642 2001 
Q 2353 2234 1838 2234 
L 1294 2234 
L 1294 2753 
L 1863 2753 
Q 2328 2753 2575 2939 
Q 2822 3125 2822 3475 
Q 2822 3834 2567 4026 
Q 2313 4219 1838 4219 
Q 1578 4219 1281 4162 
Q 984 4106 628 3988 
L 628 4550 
Q 988 4650 1302 4700 
Q 1616 4750 1894 4750 
Q 2613 4750 3031 4423 
Q 3450 4097 3450 3541 
Q 3450 3153 3228 2886 
Q 3006 2619 2597 2516 
z
" id="DejaVuSans-33" transform="scale(0.015625)"/>
       </defs>
       <use xlink:href="#DejaVuSans-31"/>
       <use x="63.623047" xlink:href="#DejaVuSans-33"/>
       <use x="127.246094" xlink:href="#DejaVuSans-2e"/>
       <use x="159.033203" xlink:href="#DejaVuSans-30"/>
       <use x="222.65625" xlink:href="#DejaVuSans-38"/>
       <use x="286.279297" xlink:href="#DejaVuSans-2e"/>
       <use x="318.066406" xlink:href="#DejaVuSans-32"/>
       <use x="381.689453" xlink:href="#DejaVuSans-30"/>
       <use x="445.3125" xlink:href="#DejaVuSans-32"/>
       <use x="508.935547" xlink:href="#DejaVuSans-31"/>
      </g>
     </g>
    </g>
    <g id="xtick_10">
     <g id="line2d_19">
      <path clip-path="url(#p99c296ec1d)" d="M 414.225041 276.48 
L 414.225041 41.472 
" style="fill:none;stroke:#808080;stroke-dasharray:2.96,1.28;stroke-dashoffset:0;stroke-width:0.8;"/>
     </g>
     <g id="line2d_20">
      <g>
       <use style="stroke:#000000;stroke-width:0.8;" x="414.225041" xlink:href="#m8f16e56d03" y="276.48"/>
      </g>
     </g>
     <g id="text_10">
      <!-- 14.10.2021 -->
      <g transform="translate(363.59983 318.688565)rotate(-30)scale(0.1 -0.1)">
       <use xlink:href="#DejaVuSans-31"/>
       <use x="63.623047" xlink:href="#DejaVuSans-34"/>
       <use x="127.246094" xlink:href="#DejaVuSans-2e"/>
       <use x="159.033203" xlink:href="#DejaVuSans-31"/>
       <use x="222.65625" xlink:href="#DejaVuSans-30"/>
       <use x="286.279297" xlink:href="#DejaVuSans-2e"/>
       <use x="318.066406" xlink:href="#DejaVuSans-32"/>
       <use x="381.689453" xlink:href="#DejaVuSans-30"/>
       <use x="445.3125" xlink:href="#DejaVuSans-32"/>
       <use x="508.935547" xlink:href="#DejaVuSans-31"/>
      </g>
     </g>
    </g>
   </g>
   <g id="matplotlib.axis_2">
    <g id="ytick_1">
     <g id="line2d_21">
      <path clip-path="url(#p99c296ec1d)" d="M 57.6 265.797818 
L 414.72 265.797818 
" style="fill:none;stroke:#808080;stroke-dasharray:2.96,1.28;stroke-dashoffset:0;stroke-width:0.8;"/>
     </g>
     <g id="line2d_22">
      <defs>
       <path d="M 0 0 
L -3.5 0 
" id="maa5ecbbb19" style="stroke:#000000;stroke-width:0.8;"/>
      </defs>
      <g>
       <use style="stroke:#000000;stroke-width:0.8;" x="57.6" xlink:href="#maa5ecbbb19" y="265.797818"/>
      </g>
     </g>
     <g id="text_11">
      <!-- 0 -->
      <g transform="translate(44.2375 269.597037)scale(0.1 -0.1)">
       <use xlink:href="#DejaVuSans-30"/>
      </g>
     </g>
    </g>
    <g id="ytick_2">
     <g id="line2d_23">
      <path clip-path="url(#p99c296ec1d)" d="M 57.6 239.417586 
L 414.72 239.417586 
" style="fill:none;stroke:#808080;stroke-dasharray:2.96,1.28;stroke-dashoffset:0;stroke-width:0.8;"/>
     </g>
     <g id="line2d_24">
      <g>
       <use style="stroke:#000000;stroke-width:0.8;" x="57.6" xlink:href="#maa5ecbbb19" y="239.417586"/>
      </g>
     </g>
     <g id="text_12">
      <!-- 25 -->
      <g transform="translate(37.875 243.216805)scale(0.1 -0.1)">
       <use xlink:href="#DejaVuSans-32"/>
       <use x="63.623047" xlink:href="#DejaVuSans-35"/>
      </g>
     </g>
    </g>
    <g id="ytick_3">
     <g id="line2d_25">
      <path clip-path="url(#p99c296ec1d)" d="M 57.6 213.037354 
L 414.72 213.037354 
" style="fill:none;stroke:#808080;stroke-dasharray:2.96,1.28;stroke-dashoffset:0;stroke-width:0.8;"/>
     </g>
     <g id="line2d_26">
      <g>
       <use style="stroke:#000000;stroke-width:0.8;" x="57.6" xlink:href="#maa5ecbbb19" y="213.037354"/>
      </g>
     </g>
     <g id="text_13">
      <!-- 50 -->
      <g transform="translate(37.875 216.836573)scale(0.1 -0.1)">
       <use xlink:href="#DejaVuSans-35"/>
       <use x="63.623047" xlink:href="#DejaVuSans-30"/>
      </g>
     </g>
    </g>
    <g id="ytick_4">
     <g id="line2d_27">
      <path clip-path="url(#p99c296ec1d)" d="M 57.6 186.657122 
L 414.72 186.657122 
" style="fill:none;stroke:#808080;stroke-dasharray:2.96,1.28;stroke-dashoffset:0;stroke-width:0.8;"/>
     </g>
     <g id="line2d_28">
      <g>
       <use style="stroke:#000000;stroke-width:0.8;" x="57.6" xlink:href="#maa5ecbbb19" y="186.657122"/>
      </g>
     </g>
     <g id="text_14">
      <!-- 75 -->
      <g transform="translate(37.875 190.45634)scale(0.1 -0.1)">
       <use xlink:href="#DejaVuSans-37"/>
       <use x="63.623047" xlink:href="#DejaVuSans-35"/>
      </g>
     </g>
    </g>
    <g id="ytick_5">
     <g id="line2d_29">
      <path clip-path="url(#p99c296ec1d)" d="M 57.6 160.276889 
L 414.72 160.276889 
" style="fill:none;stroke:#808080;stroke-dasharray:2.96,1.28;stroke-dashoffset:0;stroke-width:0.8;"/>
     </g>
     <g id="line2d_30">
      <g>
       <use style="stroke:#000000;stroke-width:0.8;" x="57.6" xlink:href="#maa5ecbbb19" y="160.276889"/>
      </g>
     </g>
     <g id="text_15">
      <!-- 100 -->
      <g transform="translate(31.5125 164.076108)scale(0.1 -0.1)">
       <use xlink:href="#DejaVuSans-31"/>
       <use x="63.623047" xlink:href="#DejaVuSans-30"/>
       <use x="127.246094" xlink:href="#DejaVuSans-30"/>
      </g>
     </g>
    </g>
    <g id="ytick_6">
     <g id="line2d_31">
      <path clip-path="url(#p99c296ec1d)" d="M 57.6 133.896657 
L 414.72 133.896657 
" style="fill:none;stroke:#808080;stroke-dasharray:2.96,1.28;stroke-dashoffset:0;stroke-width:0.8;"/>
     </g>
     <g id="line2d_32">
      <g>
       <use style="stroke:#000000;stroke-width:0.8;" x="57.6" xlink:href="#maa5ecbbb19" y="133.896657"/>
      </g>
     </g>
     <g id="text_16">
      <!-- 125 -->
      <g transform="translate(31.5125 137.695876)scale(0.1 -0.1)">
       <use xlink:href="#DejaVuSans-31"/>
       <use x="63.623047" xlink:href="#DejaVuSans-32"/>
       <use x="127.246094" xlink:href="#DejaVuSans-35"/>
      </g>
     </g>
    </g>
    <g id="ytick_7">
     <g id="line2d_33">
      <path clip-path="url(#p99c296ec1d)" d="M 57.6 107.516425 
L 414.72 107.516425 
" style="fill:none;stroke:#808080;stroke-dasharray:2.96,1.28;stroke-dashoffset:0;stroke-width:0.8;"/>
     </g>
     <g id="line2d_34">
      <g>
       <use style="stroke:#000000;stroke-width:0.8;" x="57.6" xlink:href="#maa5ecbbb19" y="107.516425"/>
      </g>
     </g>
     <g id="text_17">
      <!-- 150 -->
      <g transform="translate(31.5125 111.315644)scale(0.1 -0.1)">
       <use xlink:href="#DejaVuSans-31"/>
       <use x="63.623047" xlink:href="#DejaVuSans-35"/>
       <use x="127.246094" xlink:href="#DejaVuSans-30"/>
      </g>
     </g>
    </g>
    <g id="ytick_8">
     <g id="line2d_35">
      <path clip-path="url(#p99c296ec1d)" d="M 57.6 81.136193 
L 414.72 81.136193 
" style="fill:none;stroke:#808080;stroke-dasharray:2.96,1.28;stroke-dashoffset:0;stroke-width:0.8;"/>
     </g>
     <g id="line2d_36">
      <g>
       <use style="stroke:#000000;stroke-width:0.8;" x="57.6" xlink:href="#maa5ecbbb19" y="81.136193"/>
      </g>
     </g>
     <g id="text_18">
      <!-- 175 -->
      <g transform="translate(31.5125 84.935412)scale(0.1 -0.1)">
       <use xlink:href="#DejaVuSans-31"/>
       <use x="63.623047" xlink:href="#DejaVuSans-37"/>
       <use x="127.246094" xlink:href="#DejaVuSans-35"/>
      </g>
     </g>
    </g>
    <g id="ytick_9">
     <g id="line2d_37">
      <path clip-path="url(#p99c296ec1d)" d="M 57.6 54.755961 
L 414.72 54.755961 
" style="fill:none;stroke:#808080;stroke-dasharray:2.96,1.28;stroke-dashoffset:0;stroke-width:0.8;"/>
     </g>
     <g id="line2d_38">
      <g>
       <use style="stroke:#000000;stroke-width:0.8;" x="57.6" xlink:href="#maa5ecbbb19" y="54.755961"/>
      </g>
     </g>
     <g id="text_19">
      <!-- 200 -->
      <g transform="translate(31.5125 58.555179)scale(0.1 -0.1)">
       <use xlink:href="#DejaVuSans-32"/>
       <use x="63.623047" xlink:href="#DejaVuSans-30"/>
       <use x="127.246094" xlink:href="#DejaVuSans-30"/>
      </g>
     </g>
    </g>
    <g id="text_20">
     <!-- Inzidenz pro 7 Tage pro 100.000 Einwohner -->
     <g transform="translate(25.432812 267.301)rotate(-90)scale(0.1 -0.1)">
      <defs>
       <path d="M 628 4666 
L 1259 4666 
L 1259 0 
L 628 0 
L 628 4666 
z
" id="DejaVuSans-49" transform="scale(0.015625)"/>
       <path d="M 3513 2113 
L 3513 0 
L 2938 0 
L 2938 2094 
Q 2938 2591 2744 2837 
Q 2550 3084 2163 3084 
Q 1697 3084 1428 2787 
Q 1159 2491 1159 1978 
L 1159 0 
L 581 0 
L 581 3500 
L 1159 3500 
L 1159 2956 
Q 1366 3272 1645 3428 
Q 1925 3584 2291 3584 
Q 2894 3584 3203 3211 
Q 3513 2838 3513 2113 
z
" id="DejaVuSans-6e" transform="scale(0.015625)"/>
       <path d="M 353 3500 
L 3084 3500 
L 3084 2975 
L 922 459 
L 3084 459 
L 3084 0 
L 275 0 
L 275 525 
L 2438 3041 
L 353 3041 
L 353 3500 
z
" id="DejaVuSans-7a" transform="scale(0.015625)"/>
       <path d="M 603 3500 
L 1178 3500 
L 1178 0 
L 603 0 
L 603 3500 
z
M 603 4863 
L 1178 4863 
L 1178 4134 
L 603 4134 
L 603 4863 
z
" id="DejaVuSans-69" transform="scale(0.015625)"/>
       <path d="M 2906 2969 
L 2906 4863 
L 3481 4863 
L 3481 0 
L 2906 0 
L 2906 525 
Q 2725 213 2448 61 
Q 2172 -91 1784 -91 
Q 1150 -91 751 415 
Q 353 922 353 1747 
Q 353 2572 751 3078 
Q 1150 3584 1784 3584 
Q 2172 3584 2448 3432 
Q 2725 3281 2906 2969 
z
M 947 1747 
Q 947 1113 1208 752 
Q 1469 391 1925 391 
Q 2381 391 2643 752 
Q 2906 1113 2906 1747 
Q 2906 2381 2643 2742 
Q 2381 3103 1925 3103 
Q 1469 3103 1208 2742 
Q 947 2381 947 1747 
z
" id="DejaVuSans-64" transform="scale(0.015625)"/>
       <path d="M 3597 1894 
L 3597 1613 
L 953 1613 
Q 991 1019 1311 708 
Q 1631 397 2203 397 
Q 2534 397 2845 478 
Q 3156 559 3463 722 
L 3463 178 
Q 3153 47 2828 -22 
Q 2503 -91 2169 -91 
Q 1331 -91 842 396 
Q 353 884 353 1716 
Q 353 2575 817 3079 
Q 1281 3584 2069 3584 
Q 2775 3584 3186 3129 
Q 3597 2675 3597 1894 
z
M 3022 2063 
Q 3016 2534 2758 2815 
Q 2500 3097 2075 3097 
Q 1594 3097 1305 2825 
Q 1016 2553 972 2059 
L 3022 2063 
z
" id="DejaVuSans-65" transform="scale(0.015625)"/>
       <path id="DejaVuSans-20" transform="scale(0.015625)"/>
       <path d="M 1159 525 
L 1159 -1331 
L 581 -1331 
L 581 3500 
L 1159 3500 
L 1159 2969 
Q 1341 3281 1617 3432 
Q 1894 3584 2278 3584 
Q 2916 3584 3314 3078 
Q 3713 2572 3713 1747 
Q 3713 922 3314 415 
Q 2916 -91 2278 -91 
Q 1894 -91 1617 61 
Q 1341 213 1159 525 
z
M 3116 1747 
Q 3116 2381 2855 2742 
Q 2594 3103 2138 3103 
Q 1681 3103 1420 2742 
Q 1159 2381 1159 1747 
Q 1159 1113 1420 752 
Q 1681 391 2138 391 
Q 2594 391 2855 752 
Q 3116 1113 3116 1747 
z
" id="DejaVuSans-70" transform="scale(0.015625)"/>
       <path d="M 2631 2963 
Q 2534 3019 2420 3045 
Q 2306 3072 2169 3072 
Q 1681 3072 1420 2755 
Q 1159 2438 1159 1844 
L 1159 0 
L 581 0 
L 581 3500 
L 1159 3500 
L 1159 2956 
Q 1341 3275 1631 3429 
Q 1922 3584 2338 3584 
Q 2397 3584 2469 3576 
Q 2541 3569 2628 3553 
L 2631 2963 
z
" id="DejaVuSans-72" transform="scale(0.015625)"/>
       <path d="M 1959 3097 
Q 1497 3097 1228 2736 
Q 959 2375 959 1747 
Q 959 1119 1226 758 
Q 1494 397 1959 397 
Q 2419 397 2687 759 
Q 2956 1122 2956 1747 
Q 2956 2369 2687 2733 
Q 2419 3097 1959 3097 
z
M 1959 3584 
Q 2709 3584 3137 3096 
Q 3566 2609 3566 1747 
Q 3566 888 3137 398 
Q 2709 -91 1959 -91 
Q 1206 -91 779 398 
Q 353 888 353 1747 
Q 353 2609 779 3096 
Q 1206 3584 1959 3584 
z
" id="DejaVuSans-6f" transform="scale(0.015625)"/>
       <path d="M -19 4666 
L 3928 4666 
L 3928 4134 
L 2272 4134 
L 2272 0 
L 1638 0 
L 1638 4134 
L -19 4134 
L -19 4666 
z
" id="DejaVuSans-54" transform="scale(0.015625)"/>
       <path d="M 2194 1759 
Q 1497 1759 1228 1600 
Q 959 1441 959 1056 
Q 959 750 1161 570 
Q 1363 391 1709 391 
Q 2188 391 2477 730 
Q 2766 1069 2766 1631 
L 2766 1759 
L 2194 1759 
z
M 3341 1997 
L 3341 0 
L 2766 0 
L 2766 531 
Q 2569 213 2275 61 
Q 1981 -91 1556 -91 
Q 1019 -91 701 211 
Q 384 513 384 1019 
Q 384 1609 779 1909 
Q 1175 2209 1959 2209 
L 2766 2209 
L 2766 2266 
Q 2766 2663 2505 2880 
Q 2244 3097 1772 3097 
Q 1472 3097 1187 3025 
Q 903 2953 641 2809 
L 641 3341 
Q 956 3463 1253 3523 
Q 1550 3584 1831 3584 
Q 2591 3584 2966 3190 
Q 3341 2797 3341 1997 
z
" id="DejaVuSans-61" transform="scale(0.015625)"/>
       <path d="M 2906 1791 
Q 2906 2416 2648 2759 
Q 2391 3103 1925 3103 
Q 1463 3103 1205 2759 
Q 947 2416 947 1791 
Q 947 1169 1205 825 
Q 1463 481 1925 481 
Q 2391 481 2648 825 
Q 2906 1169 2906 1791 
z
M 3481 434 
Q 3481 -459 3084 -895 
Q 2688 -1331 1869 -1331 
Q 1566 -1331 1297 -1286 
Q 1028 -1241 775 -1147 
L 775 -588 
Q 1028 -725 1275 -790 
Q 1522 -856 1778 -856 
Q 2344 -856 2625 -561 
Q 2906 -266 2906 331 
L 2906 616 
Q 2728 306 2450 153 
Q 2172 0 1784 0 
Q 1141 0 747 490 
Q 353 981 353 1791 
Q 353 2603 747 3093 
Q 1141 3584 1784 3584 
Q 2172 3584 2450 3431 
Q 2728 3278 2906 2969 
L 2906 3500 
L 3481 3500 
L 3481 434 
z
" id="DejaVuSans-67" transform="scale(0.015625)"/>
       <path d="M 628 4666 
L 3578 4666 
L 3578 4134 
L 1259 4134 
L 1259 2753 
L 3481 2753 
L 3481 2222 
L 1259 2222 
L 1259 531 
L 3634 531 
L 3634 0 
L 628 0 
L 628 4666 
z
" id="DejaVuSans-45" transform="scale(0.015625)"/>
       <path d="M 269 3500 
L 844 3500 
L 1563 769 
L 2278 3500 
L 2956 3500 
L 3675 769 
L 4391 3500 
L 4966 3500 
L 4050 0 
L 3372 0 
L 2619 2869 
L 1863 0 
L 1184 0 
L 269 3500 
z
" id="DejaVuSans-77" transform="scale(0.015625)"/>
       <path d="M 3513 2113 
L 3513 0 
L 2938 0 
L 2938 2094 
Q 2938 2591 2744 2837 
Q 2550 3084 2163 3084 
Q 1697 3084 1428 2787 
Q 1159 2491 1159 1978 
L 1159 0 
L 581 0 
L 581 4863 
L 1159 4863 
L 1159 2956 
Q 1366 3272 1645 3428 
Q 1925 3584 2291 3584 
Q 2894 3584 3203 3211 
Q 3513 2838 3513 2113 
z
" id="DejaVuSans-68" transform="scale(0.015625)"/>
      </defs>
      <use xlink:href="#DejaVuSans-49"/>
      <use x="29.492188" xlink:href="#DejaVuSans-6e"/>
      <use x="92.871094" xlink:href="#DejaVuSans-7a"/>
      <use x="145.361328" xlink:href="#DejaVuSans-69"/>
      <use x="173.144531" xlink:href="#DejaVuSans-64"/>
      <use x="236.621094" xlink:href="#DejaVuSans-65"/>
      <use x="298.144531" xlink:href="#DejaVuSans-6e"/>
      <use x="361.523438" xlink:href="#DejaVuSans-7a"/>
      <use x="414.013672" xlink:href="#DejaVuSans-20"/>
      <use x="445.800781" xlink:href="#DejaVuSans-70"/>
      <use x="509.277344" xlink:href="#DejaVuSans-72"/>
      <use x="548.140625" xlink:href="#DejaVuSans-6f"/>
      <use x="609.322266" xlink:href="#DejaVuSans-20"/>
      <use x="641.109375" xlink:href="#DejaVuSans-37"/>
      <use x="704.732422" xlink:href="#DejaVuSans-20"/>
      <use x="736.519531" xlink:href="#DejaVuSans-54"/>
      <use x="781.103516" xlink:href="#DejaVuSans-61"/>
      <use x="842.382812" xlink:href="#DejaVuSans-67"/>
      <use x="905.859375" xlink:href="#DejaVuSans-65"/>
      <use x="967.382812" xlink:href="#DejaVuSans-20"/>
      <use x="999.169922" xlink:href="#DejaVuSans-70"/>
      <use x="1062.646484" xlink:href="#DejaVuSans-72"/>
      <use x="1101.509766" xlink:href="#DejaVuSans-6f"/>
      <use x="1162.691406" xlink:href="#DejaVuSans-20"/>
      <use x="1194.478516" xlink:href="#DejaVuSans-31"/>
      <use x="1258.101562" xlink:href="#DejaVuSans-30"/>
      <use x="1321.724609" xlink:href="#DejaVuSans-30"/>
      <use x="1385.347656" xlink:href="#DejaVuSans-2e"/>
      <use x="1417.134766" xlink:href="#DejaVuSans-30"/>
      <use x="1480.757812" xlink:href="#DejaVuSans-30"/>
      <use x="1544.380859" xlink:href="#DejaVuSans-30"/>
      <use x="1608.003906" xlink:href="#DejaVuSans-20"/>
      <use x="1639.791016" xlink:href="#DejaVuSans-45"/>
      <use x="1702.974609" xlink:href="#DejaVuSans-69"/>
      <use x="1730.757812" xlink:href="#DejaVuSans-6e"/>
      <use x="1794.136719" xlink:href="#DejaVuSans-77"/>
      <use x="1875.923828" xlink:href="#DejaVuSans-6f"/>
      <use x="1937.105469" xlink:href="#DejaVuSans-68"/>
      <use x="2000.484375" xlink:href="#DejaVuSans-6e"/>
      <use x="2063.863281" xlink:href="#DejaVuSans-65"/>
      <use x="2125.386719" xlink:href="#DejaVuSans-72"/>
     </g>
    </g>
   </g>
   <g id="line2d_39">
    <path clip-path="url(#p99c296ec1d)" d="M 73.832727 265.797818 
L 74.409378 265.464 
L 75.56268 265.464 
L 76.139332 265.130182 
L 77.292634 265.130182 
L 77.869285 264.796364 
L 78.445936 264.796364 
L 79.022587 263.127273 
L 79.599238 262.459636 
L 80.75254 257.452364 
L 81.329191 256.450909 
L 81.905842 254.781818 
L 82.482493 250.108364 
L 83.059144 249.440727 
L 84.212446 245.768727 
L 84.789097 245.434909 
L 85.365748 243.098182 
L 85.942399 241.762909 
L 87.095702 235.086545 
L 87.672353 233.083636 
L 88.249004 229.077818 
L 88.825655 227.074909 
L 89.402306 227.742545 
L 89.978957 227.742545 
L 90.555608 231.080727 
L 91.132259 227.742545 
L 91.70891 226.407273 
L 92.285561 221.4 
L 92.862212 219.063273 
L 93.438863 217.728 
L 94.015514 216.058909 
L 94.592165 205.710545 
L 95.168816 206.044364 
L 95.745467 207.379636 
L 96.322119 218.395636 
L 96.89877 224.738182 
L 97.475421 227.074909 
L 98.052072 231.748364 
L 98.628723 245.434909 
L 99.205374 252.778909 
L 99.782025 256.784727 
L 100.935327 256.784727 
L 101.511978 258.453818 
L 102.088629 258.787636 
L 102.66528 258.453818 
L 103.241931 257.786182 
L 103.818582 254.114182 
L 104.395233 254.114182 
L 106.125187 253.112727 
L 106.701838 253.780364 
L 107.278489 254.781818 
L 107.85514 256.784727 
L 108.431791 257.118545 
L 109.008442 255.783273 
L 109.585093 255.449455 
L 110.161744 254.448 
L 110.738395 254.781818 
L 111.315046 255.783273 
L 111.891697 255.115636 
L 112.468348 254.781818 
L 113.044999 255.783273 
L 113.62165 255.449455 
L 114.198301 256.784727 
L 115.351603 256.117091 
L 115.928254 258.787636 
L 116.504906 260.456727 
L 117.081557 261.124364 
L 117.658208 262.125818 
L 118.234859 262.125818 
L 118.81151 263.127273 
L 119.964812 263.794909 
L 120.541463 264.796364 
L 121.118114 265.464 
L 122.271416 265.464 
L 122.848067 265.797818 
L 144.760807 265.797818 
L 145.337458 265.464 
L 146.490761 265.464 
L 147.067412 265.130182 
L 147.644063 265.130182 
L 148.220714 264.128727 
L 148.797365 264.128727 
L 149.374016 264.462545 
L 150.527318 264.462545 
L 151.68062 263.794909 
L 152.257271 264.796364 
L 152.833922 263.461091 
L 153.410573 262.793455 
L 153.987224 261.458182 
L 155.140526 261.458182 
L 155.717177 260.122909 
L 156.293829 259.789091 
L 156.87048 260.122909 
L 157.447131 260.122909 
L 158.023782 260.456727 
L 158.600433 259.455273 
L 159.177084 258.787636 
L 159.753735 260.122909 
L 160.330386 258.787636 
L 160.907037 257.786182 
L 161.483688 257.786182 
L 162.060339 258.453818 
L 162.63699 258.453818 
L 163.213641 259.455273 
L 163.790292 258.787636 
L 164.366943 258.453818 
L 164.943594 260.122909 
L 165.520245 260.790545 
L 166.096896 259.121455 
L 166.673548 258.787636 
L 167.250199 254.781818 
L 167.82685 254.114182 
L 168.403501 253.780364 
L 168.980152 253.112727 
L 169.556803 252.778909 
L 170.133454 254.781818 
L 170.710105 255.449455 
L 171.286756 259.121455 
L 171.863407 259.789091 
L 172.440058 260.790545 
L 173.016709 261.458182 
L 173.59336 259.455273 
L 174.746662 259.455273 
L 175.323313 259.121455 
L 177.053267 259.121455 
L 177.629918 260.790545 
L 178.206569 260.456727 
L 178.78322 261.124364 
L 179.359871 260.790545 
L 179.936522 260.790545 
L 180.513173 261.124364 
L 181.089824 261.124364 
L 181.666475 260.456727 
L 182.243126 260.790545 
L 182.819777 260.456727 
L 183.396428 259.121455 
L 185.126381 258.12 
L 185.703032 258.453818 
L 186.856335 258.453818 
L 187.432986 259.455273 
L 188.009637 258.787636 
L 188.586288 258.787636 
L 189.162939 258.12 
L 189.73959 256.450909 
L 190.892892 255.115636 
L 191.469543 254.781818 
L 192.046194 254.781818 
L 192.622845 255.449455 
L 193.199496 250.442182 
L 194.352798 251.109818 
L 194.929449 251.109818 
L 195.5061 250.442182 
L 196.082751 249.440727 
L 196.659403 247.771636 
L 197.236054 251.777455 
L 197.812705 251.777455 
L 198.389356 251.109818 
L 198.966007 251.443636 
L 200.119309 252.778909 
L 200.69596 252.778909 
L 201.272611 253.446545 
L 201.849262 253.446545 
L 202.425913 253.780364 
L 203.002564 250.108364 
L 203.579215 248.439273 
L 204.155866 244.767273 
L 204.732517 244.767273 
L 205.309168 243.098182 
L 205.885819 239.092364 
L 206.462471 236.088 
L 207.039122 237.757091 
L 207.615773 237.089455 
L 208.192424 231.080727 
L 209.345726 213.388364 
L 209.922377 208.047273 
L 210.499028 209.048727 
L 211.075679 208.381091 
L 211.65233 198.032727 
L 212.228981 202.706182 
L 212.805632 201.370909 
L 213.382283 193.025455 
L 213.958934 186.349091 
L 214.535585 182.677091 
L 215.112236 180.674182 
L 215.688887 183.344727 
L 216.265539 176.334545 
L 216.84219 173.997818 
L 217.995492 186.682909 
L 218.572143 185.013818 
L 219.148794 186.349091 
L 219.725445 186.682909 
L 220.302096 185.681455 
L 220.878747 189.353455 
L 221.455398 189.019636 
L 222.032049 185.681455 
L 222.6087 192.024 
L 223.185351 189.687273 
L 223.762002 189.687273 
L 224.338653 189.353455 
L 224.915304 185.013818 
L 225.491955 178.003636 
L 226.068606 185.681455 
L 226.645258 172.662545 
L 227.221909 163.983273 
L 227.79856 161.980364 
L 228.375211 154.302545 
L 228.951862 154.302545 
L 229.528513 162.314182 
L 230.105164 158.308364 
L 230.681815 167.321455 
L 231.258466 172.996364 
L 231.835117 170.993455 
L 232.411768 174.331636 
L 232.988419 177.002182 
L 233.56507 175.666909 
L 234.141721 173.664 
L 234.718372 175.333091 
L 235.295023 173.997818 
L 235.871674 164.984727 
L 236.448326 172.662545 
L 237.024977 152.967273 
L 237.601628 149.629091 
L 238.178279 133.605818 
L 238.75493 131.269091 
L 239.331581 136.276364 
L 239.908232 136.276364 
L 240.484883 128.598545 
L 241.061534 130.601455 
L 241.638185 130.601455 
L 242.214836 124.258909 
L 242.791487 120.586909 
L 243.944789 103.896 
L 244.52144 84.200727 
L 245.098091 95.550545 
L 245.674742 94.549091 
L 246.251394 115.245818 
L 246.828045 118.584 
L 247.404696 116.914909 
L 247.981347 110.572364 
L 248.557998 112.909091 
L 249.134649 104.563636 
L 249.7113 118.250182 
L 250.287951 121.922182 
L 250.864602 120.586909 
L 252.017904 132.270545 
L 252.594555 143.954182 
L 253.171206 150.964364 
L 253.747857 111.573818 
L 254.324508 101.225455 
L 254.901159 96.885818 
L 255.47781 95.884364 
L 256.054461 99.890182 
L 256.631113 81.864 
L 257.207764 79.527273 
L 257.784415 99.556364 
L 258.361066 99.222545 
L 258.937717 98.554909 
L 259.514368 91.544727 
L 260.091019 88.206545 
L 260.66767 100.557818 
L 261.244321 77.190545 
L 261.820972 65.840727 
L 262.397623 52.154182 
L 262.974274 55.492364 
L 263.550925 57.829091 
L 264.127576 53.823273 
L 264.704227 61.501091 
L 265.280878 87.872727 
L 265.857529 89.875636 
L 266.434181 104.897455 
L 267.010832 96.218182 
L 267.587483 105.565091 
L 268.164134 121.588364 
L 268.740785 128.598545 
L 269.317436 130.935273 
L 269.894087 144.955636 
L 270.470738 148.961455 
L 271.047389 162.981818 
L 271.62404 163.983273 
L 272.200691 167.989091 
L 272.777342 154.636364 
L 273.353993 160.311273 
L 273.930644 169.992 
L 274.507295 182.343273 
L 275.083946 183.010909 
L 275.660597 186.015273 
L 276.237249 192.024 
L 276.8139 213.722182 
L 277.390551 218.061818 
L 277.967202 220.398545 
L 278.543853 217.394182 
L 279.120504 216.058909 
L 279.697155 215.391273 
L 280.273806 215.725091 
L 280.850457 214.389818 
L 281.427108 213.388364 
L 282.003759 213.388364 
L 282.58041 214.056 
L 283.157061 216.726545 
L 283.733712 215.391273 
L 284.310363 219.730909 
L 285.463665 224.738182 
L 286.040316 223.736727 
L 286.616968 223.736727 
L 287.193619 225.405818 
L 287.77027 225.405818 
L 288.346921 223.736727 
L 288.923572 218.395636 
L 289.500223 214.723636 
L 290.076874 217.394182 
L 290.653525 206.044364 
L 291.230176 201.704727 
L 291.806827 200.035636 
L 292.383478 191.356364 
L 292.960129 191.356364 
L 293.53678 187.016727 
L 294.113431 173.664 
L 294.690082 175.666909 
L 295.266733 174.999273 
L 295.843384 173.330182 
L 296.420036 177.002182 
L 296.996687 163.315636 
L 297.573338 159.309818 
L 298.149989 160.978909 
L 298.72664 153.301091 
L 299.303291 147.626182 
L 299.879942 143.286545 
L 300.456593 137.277818 
L 301.033244 140.282182 
L 301.609895 136.944 
L 302.186546 137.945455 
L 302.763197 156.639273 
L 303.339848 158.308364 
L 303.916499 157.306909 
L 304.49315 168.322909 
L 305.069801 176.334545 
L 305.646452 178.671273 
L 306.223104 178.337455 
L 306.799755 164.984727 
L 307.376406 165.318545 
L 307.953057 171.327273 
L 308.529708 164.317091 
L 309.106359 160.978909 
L 309.68301 163.315636 
L 310.259661 166.987636 
L 310.836312 168.322909 
L 311.412963 167.655273 
L 313.142916 155.971636 
L 313.719567 156.639273 
L 314.296218 151.298182 
L 314.872869 149.962909 
L 315.44952 149.295273 
L 316.602823 160.311273 
L 317.179474 170.325818 
L 318.332776 179.005091 
L 318.909427 188.685818 
L 319.486078 194.694545 
L 320.062729 190.354909 
L 320.63938 196.697455 
L 321.216031 196.363636 
L 321.792682 200.035636 
L 322.369333 205.376727 
L 322.945984 205.710545 
L 323.522635 206.378182 
L 324.099286 207.379636 
L 324.675937 206.378182 
L 325.252588 212.386909 
L 325.829239 212.386909 
L 326.405891 214.056 
L 326.982542 225.072 
L 327.559193 226.407273 
L 328.135844 230.079273 
L 328.712495 231.414545 
L 329.289146 229.411636 
L 329.865797 234.085091 
L 331.019099 222.735273 
L 332.172401 226.073455 
L 332.749052 230.413091 
L 333.325703 235.754182 
L 333.902354 232.416 
L 334.479005 237.089455 
L 335.055656 237.423273 
L 335.632307 235.086545 
L 336.208959 239.426182 
L 336.78561 238.090909 
L 337.362261 236.421818 
L 339.092214 246.770182 
L 339.668865 249.106909 
L 340.245516 245.101091 
L 340.822167 243.432 
L 341.398818 244.433455 
L 342.55212 245.768727 
L 343.128771 244.767273 
L 343.705422 246.102545 
L 344.282073 247.771636 
L 344.858724 251.777455 
L 345.435375 251.777455 
L 346.012026 253.446545 
L 346.588678 254.448 
L 347.165329 253.446545 
L 347.74198 252.111273 
L 348.318631 251.109818 
L 348.895282 250.442182 
L 349.471933 253.446545 
L 350.048584 255.115636 
L 350.625235 254.781818 
L 352.355188 257.786182 
L 352.931839 257.118545 
L 353.50849 258.453818 
L 354.085141 257.786182 
L 354.661792 259.121455 
L 355.238443 259.789091 
L 355.815094 258.787636 
L 356.391746 258.787636 
L 356.968397 260.456727 
L 357.545048 260.456727 
L 358.121699 259.789091 
L 358.69835 260.122909 
L 359.275001 258.787636 
L 359.851652 259.789091 
L 360.428303 258.453818 
L 361.581605 255.115636 
L 362.158256 254.114182 
L 362.734907 252.111273 
L 363.311558 253.112727 
L 363.888209 252.778909 
L 364.46486 253.780364 
L 365.041511 253.112727 
L 365.618162 251.777455 
L 366.194813 243.432 
L 366.771465 243.765818 
L 367.348116 242.430545 
L 367.924767 239.76 
L 368.501418 234.418909 
L 369.078069 231.748364 
L 369.65472 228.410182 
L 370.231371 231.080727 
L 370.808022 223.736727 
L 371.384673 222.401455 
L 371.961324 222.735273 
L 372.537975 224.070545 
L 373.114626 218.395636 
L 373.691277 217.394182 
L 374.267928 210.050182 
L 374.844579 207.713455 
L 375.42123 202.038545 
L 375.997881 199.701818 
L 376.574533 196.029818 
L 377.151184 198.700364 
L 377.727835 192.691636 
L 378.304486 201.037091 
L 378.881137 199.701818 
L 379.457788 204.041455 
L 380.034439 201.370909 
L 380.61109 201.704727 
L 381.187741 199.368 
L 381.764392 198.366545 
L 382.341043 195.028364 
L 382.917694 199.368 
L 383.494345 202.372364 
L 384.070996 204.041455 
L 384.647647 204.709091 
L 385.224298 206.378182 
L 385.800949 213.722182 
L 386.377601 216.726545 
L 386.954252 218.061818 
L 387.530903 209.716364 
L 388.107554 209.716364 
L 388.684205 213.054545 
L 389.260856 212.720727 
L 389.837507 207.713455 
L 390.414158 205.376727 
L 390.990809 201.370909 
L 391.56746 199.701818 
L 392.144111 200.369455 
L 392.720762 197.031273 
L 393.297413 199.368 
L 393.874064 199.368 
L 394.450715 200.035636 
L 395.027366 205.376727 
L 395.604017 209.048727 
L 396.180668 210.050182 
L 396.75732 207.379636 
L 397.333971 204.041455 
L 397.910622 205.042909 
L 398.487273 204.375273 
L 398.487273 204.375273 
" style="fill:none;stroke:#1f77b4;stroke-linecap:square;stroke-width:1.5;"/>
   </g>
   <g id="patch_3">
    <path d="M 57.6 276.48 
L 57.6 41.472 
" style="fill:none;stroke:#000000;stroke-linecap:square;stroke-linejoin:miter;stroke-width:0.8;"/>
   </g>
   <g id="patch_4">
    <path d="M 414.72 276.48 
L 414.72 41.472 
" style="fill:none;stroke:#000000;stroke-linecap:square;stroke-linejoin:miter;stroke-width:0.8;"/>
   </g>
   <g id="patch_5">
    <path d="M 57.6 276.48 
L 414.72 276.48 
" style="fill:none;stroke:#000000;stroke-linecap:square;stroke-linejoin:miter;stroke-width:0.8;"/>
   </g>
   <g id="patch_6">
    <path d="M 57.6 41.472 
L 414.72 41.472 
" style="fill:none;stroke:#000000;stroke-linecap:square;stroke-linejoin:miter;stroke-width:0.8;"/>
   </g>
  </g>
  <g id="text_21">
   <!-- Inzidenzverlauf LK Pinneberg -->
   <g transform="translate(99.871875 20.589187)scale(0.18 -0.18)">
    <defs>
     <path d="M 191 3500 
L 800 3500 
L 1894 563 
L 2988 3500 
L 3597 3500 
L 2284 0 
L 1503 0 
L 191 3500 
z
" id="DejaVuSans-76" transform="scale(0.015625)"/>
     <path d="M 603 4863 
L 1178 4863 
L 1178 0 
L 603 0 
L 603 4863 
z
" id="DejaVuSans-6c" transform="scale(0.015625)"/>
     <path d="M 544 1381 
L 544 3500 
L 1119 3500 
L 1119 1403 
Q 1119 906 1312 657 
Q 1506 409 1894 409 
Q 2359 409 2629 706 
Q 2900 1003 2900 1516 
L 2900 3500 
L 3475 3500 
L 3475 0 
L 2900 0 
L 2900 538 
Q 2691 219 2414 64 
Q 2138 -91 1772 -91 
Q 1169 -91 856 284 
Q 544 659 544 1381 
z
M 1991 3584 
L 1991 3584 
z
" id="DejaVuSans-75" transform="scale(0.015625)"/>
     <path d="M 2375 4863 
L 2375 4384 
L 1825 4384 
Q 1516 4384 1395 4259 
Q 1275 4134 1275 3809 
L 1275 3500 
L 2222 3500 
L 2222 3053 
L 1275 3053 
L 1275 0 
L 697 0 
L 697 3053 
L 147 3053 
L 147 3500 
L 697 3500 
L 697 3744 
Q 697 4328 969 4595 
Q 1241 4863 1831 4863 
L 2375 4863 
z
" id="DejaVuSans-66" transform="scale(0.015625)"/>
     <path d="M 628 4666 
L 1259 4666 
L 1259 531 
L 3531 531 
L 3531 0 
L 628 0 
L 628 4666 
z
" id="DejaVuSans-4c" transform="scale(0.015625)"/>
     <path d="M 628 4666 
L 1259 4666 
L 1259 2694 
L 3353 4666 
L 4166 4666 
L 1850 2491 
L 4331 0 
L 3500 0 
L 1259 2247 
L 1259 0 
L 628 0 
L 628 4666 
z
" id="DejaVuSans-4b" transform="scale(0.015625)"/>
     <path d="M 1259 4147 
L 1259 2394 
L 2053 2394 
Q 2494 2394 2734 2622 
Q 2975 2850 2975 3272 
Q 2975 3691 2734 3919 
Q 2494 4147 2053 4147 
L 1259 4147 
z
M 628 4666 
L 2053 4666 
Q 2838 4666 3239 4311 
Q 3641 3956 3641 3272 
Q 3641 2581 3239 2228 
Q 2838 1875 2053 1875 
L 1259 1875 
L 1259 0 
L 628 0 
L 628 4666 
z
" id="DejaVuSans-50" transform="scale(0.015625)"/>
     <path d="M 3116 1747 
Q 3116 2381 2855 2742 
Q 2594 3103 2138 3103 
Q 1681 3103 1420 2742 
Q 1159 2381 1159 1747 
Q 1159 1113 1420 752 
Q 1681 391 2138 391 
Q 2594 391 2855 752 
Q 3116 1113 3116 1747 
z
M 1159 2969 
Q 1341 3281 1617 3432 
Q 1894 3584 2278 3584 
Q 2916 3584 3314 3078 
Q 3713 2572 3713 1747 
Q 3713 922 3314 415 
Q 2916 -91 2278 -91 
Q 1894 -91 1617 61 
Q 1341 213 1159 525 
L 1159 0 
L 581 0 
L 581 4863 
L 1159 4863 
L 1159 2969 
z
" id="DejaVuSans-62" transform="scale(0.015625)"/>
    </defs>
    <use xlink:href="#DejaVuSans-49"/>
    <use x="29.492188" xlink:href="#DejaVuSans-6e"/>
    <use x="92.871094" xlink:href="#DejaVuSans-7a"/>
    <use x="145.361328" xlink:href="#DejaVuSans-69"/>
    <use x="173.144531" xlink:href="#DejaVuSans-64"/>
    <use x="236.621094" xlink:href="#DejaVuSans-65"/>
    <use x="298.144531" xlink:href="#DejaVuSans-6e"/>
    <use x="361.523438" xlink:href="#DejaVuSans-7a"/>
    <use x="414.013672" xlink:href="#DejaVuSans-76"/>
    <use x="473.193359" xlink:href="#DejaVuSans-65"/>
    <use x="534.716797" xlink:href="#DejaVuSans-72"/>
    <use x="575.830078" xlink:href="#DejaVuSans-6c"/>
    <use x="603.613281" xlink:href="#DejaVuSans-61"/>
    <use x="664.892578" xlink:href="#DejaVuSans-75"/>
    <use x="728.271484" xlink:href="#DejaVuSans-66"/>
    <use x="763.476562" xlink:href="#DejaVuSans-20"/>
    <use x="795.263672" xlink:href="#DejaVuSans-4c"/>
    <use x="850.976562" xlink:href="#DejaVuSans-4b"/>
    <use x="916.552734" xlink:href="#DejaVuSans-20"/>
    <use x="948.339844" xlink:href="#DejaVuSans-50"/>
    <use x="1006.392578" xlink:href="#DejaVuSans-69"/>
    <use x="1034.175781" xlink:href="#DejaVuSans-6e"/>
    <use x="1097.554688" xlink:href="#DejaVuSans-6e"/>
    <use x="1160.933594" xlink:href="#DejaVuSans-65"/>
    <use x="1222.457031" xlink:href="#DejaVuSans-62"/>
    <use x="1285.933594" xlink:href="#DejaVuSans-65"/>
    <use x="1347.457031" xlink:href="#DejaVuSans-72"/>
    <use x="1386.820312" xlink:href="#DejaVuSans-67"/>
   </g>
  </g>
 </g>
 <defs>
  <clipPath id="p99c296ec1d">
   <rect height="235.008" width="357.12" x="57.6" y="41.472"/>
  </clipPath>
 </defs>
</svg>
