<?xml version="1.0" encoding="utf-8" standalone="no"?>
<!DOCTYPE svg PUBLIC "-//W3C//DTD SVG 1.1//EN"
  "http://www.w3.org/Graphics/SVG/1.1/DTD/svg11.dtd">
<svg xmlns:xlink="http://www.w3.org/1999/xlink" width="460.8pt" height="345.6pt" viewBox="0 0 460.8 345.6" xmlns="http://www.w3.org/2000/svg" version="1.1">
 <metadata>
  <rdf:RDF xmlns:dc="http://purl.org/dc/elements/1.1/" xmlns:cc="http://creativecommons.org/ns#" xmlns:rdf="http://www.w3.org/1999/02/22-rdf-syntax-ns#">
   <cc:Work>
    <dc:type rdf:resource="http://purl.org/dc/dcmitype/StillImage"/>
    <dc:date>2022-09-08T09:25:50.068088</dc:date>
    <dc:format>image/svg+xml</dc:format>
    <dc:creator>
     <cc:Agent>
      <dc:title>Matplotlib v3.5.3, https://matplotlib.org/</dc:title>
     </cc:Agent>
    </dc:creator>
   </cc:Work>
  </rdf:RDF>
 </metadata>
 <defs>
  <style type="text/css">*{stroke-linejoin: round; stroke-linecap: butt}</style>
 </defs>
 <g id="figure_1">
  <g id="patch_1">
   <path d="M 0 345.6 
L 460.8 345.6 
L 460.8 0 
L 0 0 
z
" style="fill: #ffffff"/>
  </g>
  <g id="axes_1">
   <g id="patch_2">
    <path d="M 57.6 276.48 
L 414.72 276.48 
L 414.72 41.472 
L 57.6 41.472 
z
" style="fill: #ffffff"/>
   </g>
   <g id="matplotlib.axis_1">
    <g id="xtick_1">
     <g id="line2d_1">
      <path d="M 60.158259 276.48 
L 60.158259 41.472 
" clip-path="url(#p380cd7ea8e)" style="fill: none; stroke-dasharray: 2.96,1.28; stroke-dashoffset: 0; stroke: #808080; stroke-width: 0.8"/>
     </g>
     <g id="line2d_2">
      <defs>
       <path id="m20de2814d9" d="M 0 0 
L 0 3.5 
" style="stroke: #000000; stroke-width: 0.8"/>
      </defs>
      <g>
       <use xlink:href="#m20de2814d9" x="60.158259" y="276.48" style="stroke: #000000; stroke-width: 0.8"/>
      </g>
     </g>
     <g id="text_1">
      <!-- 24.01.2020 -->
      <g transform="translate(9.533048 318.688565)rotate(-30)scale(0.1 -0.1)">
       <defs>
        <path id="DejaVuSans-32" d="M 1228 531 
L 3431 531 
L 3431 0 
L 469 0 
L 469 531 
Q 828 903 1448 1529 
Q 2069 2156 2228 2338 
Q 2531 2678 2651 2914 
Q 2772 3150 2772 3378 
Q 2772 3750 2511 3984 
Q 2250 4219 1831 4219 
Q 1534 4219 1204 4116 
Q 875 4013 500 3803 
L 500 4441 
Q 881 4594 1212 4672 
Q 1544 4750 1819 4750 
Q 2544 4750 2975 4387 
Q 3406 4025 3406 3419 
Q 3406 3131 3298 2873 
Q 3191 2616 2906 2266 
Q 2828 2175 2409 1742 
Q 1991 1309 1228 531 
z
" transform="scale(0.015625)"/>
        <path id="DejaVuSans-34" d="M 2419 4116 
L 825 1625 
L 2419 1625 
L 2419 4116 
z
M 2253 4666 
L 3047 4666 
L 3047 1625 
L 3713 1625 
L 3713 1100 
L 3047 1100 
L 3047 0 
L 2419 0 
L 2419 1100 
L 313 1100 
L 313 1709 
L 2253 4666 
z
" transform="scale(0.015625)"/>
        <path id="DejaVuSans-2e" d="M 684 794 
L 1344 794 
L 1344 0 
L 684 0 
L 684 794 
z
" transform="scale(0.015625)"/>
        <path id="DejaVuSans-30" d="M 2034 4250 
Q 1547 4250 1301 3770 
Q 1056 3291 1056 2328 
Q 1056 1369 1301 889 
Q 1547 409 2034 409 
Q 2525 409 2770 889 
Q 3016 1369 3016 2328 
Q 3016 3291 2770 3770 
Q 2525 4250 2034 4250 
z
M 2034 4750 
Q 2819 4750 3233 4129 
Q 3647 3509 3647 2328 
Q 3647 1150 3233 529 
Q 2819 -91 2034 -91 
Q 1250 -91 836 529 
Q 422 1150 422 2328 
Q 422 3509 836 4129 
Q 1250 4750 2034 4750 
z
" transform="scale(0.015625)"/>
        <path id="DejaVuSans-31" d="M 794 531 
L 1825 531 
L 1825 4091 
L 703 3866 
L 703 4441 
L 1819 4666 
L 2450 4666 
L 2450 531 
L 3481 531 
L 3481 0 
L 794 0 
L 794 531 
z
" transform="scale(0.015625)"/>
       </defs>
       <use xlink:href="#DejaVuSans-32"/>
       <use xlink:href="#DejaVuSans-34" x="63.623047"/>
       <use xlink:href="#DejaVuSans-2e" x="127.246094"/>
       <use xlink:href="#DejaVuSans-30" x="159.033203"/>
       <use xlink:href="#DejaVuSans-31" x="222.65625"/>
       <use xlink:href="#DejaVuSans-2e" x="286.279297"/>
       <use xlink:href="#DejaVuSans-32" x="318.066406"/>
       <use xlink:href="#DejaVuSans-30" x="381.689453"/>
       <use xlink:href="#DejaVuSans-32" x="445.3125"/>
       <use xlink:href="#DejaVuSans-30" x="508.935547"/>
      </g>
     </g>
    </g>
    <g id="xtick_2">
     <g id="line2d_3">
      <path d="M 96.191734 276.48 
L 96.191734 41.472 
" clip-path="url(#p380cd7ea8e)" style="fill: none; stroke-dasharray: 2.96,1.28; stroke-dashoffset: 0; stroke: #808080; stroke-width: 0.8"/>
     </g>
     <g id="line2d_4">
      <g>
       <use xlink:href="#m20de2814d9" x="96.191734" y="276.48" style="stroke: #000000; stroke-width: 0.8"/>
      </g>
     </g>
     <g id="text_2">
      <!-- 05.05.2020 -->
      <g transform="translate(45.566523 318.688565)rotate(-30)scale(0.1 -0.1)">
       <defs>
        <path id="DejaVuSans-35" d="M 691 4666 
L 3169 4666 
L 3169 4134 
L 1269 4134 
L 1269 2991 
Q 1406 3038 1543 3061 
Q 1681 3084 1819 3084 
Q 2600 3084 3056 2656 
Q 3513 2228 3513 1497 
Q 3513 744 3044 326 
Q 2575 -91 1722 -91 
Q 1428 -91 1123 -41 
Q 819 9 494 109 
L 494 744 
Q 775 591 1075 516 
Q 1375 441 1709 441 
Q 2250 441 2565 725 
Q 2881 1009 2881 1497 
Q 2881 1984 2565 2268 
Q 2250 2553 1709 2553 
Q 1456 2553 1204 2497 
Q 953 2441 691 2322 
L 691 4666 
z
" transform="scale(0.015625)"/>
       </defs>
       <use xlink:href="#DejaVuSans-30"/>
       <use xlink:href="#DejaVuSans-35" x="63.623047"/>
       <use xlink:href="#DejaVuSans-2e" x="127.246094"/>
       <use xlink:href="#DejaVuSans-30" x="159.033203"/>
       <use xlink:href="#DejaVuSans-35" x="222.65625"/>
       <use xlink:href="#DejaVuSans-2e" x="286.279297"/>
       <use xlink:href="#DejaVuSans-32" x="318.066406"/>
       <use xlink:href="#DejaVuSans-30" x="381.689453"/>
       <use xlink:href="#DejaVuSans-32" x="445.3125"/>
       <use xlink:href="#DejaVuSans-30" x="508.935547"/>
      </g>
     </g>
    </g>
    <g id="xtick_3">
     <g id="line2d_5">
      <path d="M 132.225209 276.48 
L 132.225209 41.472 
" clip-path="url(#p380cd7ea8e)" style="fill: none; stroke-dasharray: 2.96,1.28; stroke-dashoffset: 0; stroke: #808080; stroke-width: 0.8"/>
     </g>
     <g id="line2d_6">
      <g>
       <use xlink:href="#m20de2814d9" x="132.225209" y="276.48" style="stroke: #000000; stroke-width: 0.8"/>
      </g>
     </g>
     <g id="text_3">
      <!-- 15.08.2020 -->
      <g transform="translate(81.599998 318.688565)rotate(-30)scale(0.1 -0.1)">
       <defs>
        <path id="DejaVuSans-38" d="M 2034 2216 
Q 1584 2216 1326 1975 
Q 1069 1734 1069 1313 
Q 1069 891 1326 650 
Q 1584 409 2034 409 
Q 2484 409 2743 651 
Q 3003 894 3003 1313 
Q 3003 1734 2745 1975 
Q 2488 2216 2034 2216 
z
M 1403 2484 
Q 997 2584 770 2862 
Q 544 3141 544 3541 
Q 544 4100 942 4425 
Q 1341 4750 2034 4750 
Q 2731 4750 3128 4425 
Q 3525 4100 3525 3541 
Q 3525 3141 3298 2862 
Q 3072 2584 2669 2484 
Q 3125 2378 3379 2068 
Q 3634 1759 3634 1313 
Q 3634 634 3220 271 
Q 2806 -91 2034 -91 
Q 1263 -91 848 271 
Q 434 634 434 1313 
Q 434 1759 690 2068 
Q 947 2378 1403 2484 
z
M 1172 3481 
Q 1172 3119 1398 2916 
Q 1625 2713 2034 2713 
Q 2441 2713 2670 2916 
Q 2900 3119 2900 3481 
Q 2900 3844 2670 4047 
Q 2441 4250 2034 4250 
Q 1625 4250 1398 4047 
Q 1172 3844 1172 3481 
z
" transform="scale(0.015625)"/>
       </defs>
       <use xlink:href="#DejaVuSans-31"/>
       <use xlink:href="#DejaVuSans-35" x="63.623047"/>
       <use xlink:href="#DejaVuSans-2e" x="127.246094"/>
       <use xlink:href="#DejaVuSans-30" x="159.033203"/>
       <use xlink:href="#DejaVuSans-38" x="222.65625"/>
       <use xlink:href="#DejaVuSans-2e" x="286.279297"/>
       <use xlink:href="#DejaVuSans-32" x="318.066406"/>
       <use xlink:href="#DejaVuSans-30" x="381.689453"/>
       <use xlink:href="#DejaVuSans-32" x="445.3125"/>
       <use xlink:href="#DejaVuSans-30" x="508.935547"/>
      </g>
     </g>
    </g>
    <g id="xtick_4">
     <g id="line2d_7">
      <path d="M 168.258684 276.48 
L 168.258684 41.472 
" clip-path="url(#p380cd7ea8e)" style="fill: none; stroke-dasharray: 2.96,1.28; stroke-dashoffset: 0; stroke: #808080; stroke-width: 0.8"/>
     </g>
     <g id="line2d_8">
      <g>
       <use xlink:href="#m20de2814d9" x="168.258684" y="276.48" style="stroke: #000000; stroke-width: 0.8"/>
      </g>
     </g>
     <g id="text_4">
      <!-- 25.11.2020 -->
      <g transform="translate(117.633474 318.688565)rotate(-30)scale(0.1 -0.1)">
       <use xlink:href="#DejaVuSans-32"/>
       <use xlink:href="#DejaVuSans-35" x="63.623047"/>
       <use xlink:href="#DejaVuSans-2e" x="127.246094"/>
       <use xlink:href="#DejaVuSans-31" x="159.033203"/>
       <use xlink:href="#DejaVuSans-31" x="222.65625"/>
       <use xlink:href="#DejaVuSans-2e" x="286.279297"/>
       <use xlink:href="#DejaVuSans-32" x="318.066406"/>
       <use xlink:href="#DejaVuSans-30" x="381.689453"/>
       <use xlink:href="#DejaVuSans-32" x="445.3125"/>
       <use xlink:href="#DejaVuSans-30" x="508.935547"/>
      </g>
     </g>
    </g>
    <g id="xtick_5">
     <g id="line2d_9">
      <path d="M 204.292159 276.48 
L 204.292159 41.472 
" clip-path="url(#p380cd7ea8e)" style="fill: none; stroke-dasharray: 2.96,1.28; stroke-dashoffset: 0; stroke: #808080; stroke-width: 0.8"/>
     </g>
     <g id="line2d_10">
      <g>
       <use xlink:href="#m20de2814d9" x="204.292159" y="276.48" style="stroke: #000000; stroke-width: 0.8"/>
      </g>
     </g>
     <g id="text_5">
      <!-- 07.03.2021 -->
      <g transform="translate(153.666949 318.688565)rotate(-30)scale(0.1 -0.1)">
       <defs>
        <path id="DejaVuSans-37" d="M 525 4666 
L 3525 4666 
L 3525 4397 
L 1831 0 
L 1172 0 
L 2766 4134 
L 525 4134 
L 525 4666 
z
" transform="scale(0.015625)"/>
        <path id="DejaVuSans-33" d="M 2597 2516 
Q 3050 2419 3304 2112 
Q 3559 1806 3559 1356 
Q 3559 666 3084 287 
Q 2609 -91 1734 -91 
Q 1441 -91 1130 -33 
Q 819 25 488 141 
L 488 750 
Q 750 597 1062 519 
Q 1375 441 1716 441 
Q 2309 441 2620 675 
Q 2931 909 2931 1356 
Q 2931 1769 2642 2001 
Q 2353 2234 1838 2234 
L 1294 2234 
L 1294 2753 
L 1863 2753 
Q 2328 2753 2575 2939 
Q 2822 3125 2822 3475 
Q 2822 3834 2567 4026 
Q 2313 4219 1838 4219 
Q 1578 4219 1281 4162 
Q 984 4106 628 3988 
L 628 4550 
Q 988 4650 1302 4700 
Q 1616 4750 1894 4750 
Q 2613 4750 3031 4423 
Q 3450 4097 3450 3541 
Q 3450 3153 3228 2886 
Q 3006 2619 2597 2516 
z
" transform="scale(0.015625)"/>
       </defs>
       <use xlink:href="#DejaVuSans-30"/>
       <use xlink:href="#DejaVuSans-37" x="63.623047"/>
       <use xlink:href="#DejaVuSans-2e" x="127.246094"/>
       <use xlink:href="#DejaVuSans-30" x="159.033203"/>
       <use xlink:href="#DejaVuSans-33" x="222.65625"/>
       <use xlink:href="#DejaVuSans-2e" x="286.279297"/>
       <use xlink:href="#DejaVuSans-32" x="318.066406"/>
       <use xlink:href="#DejaVuSans-30" x="381.689453"/>
       <use xlink:href="#DejaVuSans-32" x="445.3125"/>
       <use xlink:href="#DejaVuSans-31" x="508.935547"/>
      </g>
     </g>
    </g>
    <g id="xtick_6">
     <g id="line2d_11">
      <path d="M 240.325635 276.48 
L 240.325635 41.472 
" clip-path="url(#p380cd7ea8e)" style="fill: none; stroke-dasharray: 2.96,1.28; stroke-dashoffset: 0; stroke: #808080; stroke-width: 0.8"/>
     </g>
     <g id="line2d_12">
      <g>
       <use xlink:href="#m20de2814d9" x="240.325635" y="276.48" style="stroke: #000000; stroke-width: 0.8"/>
      </g>
     </g>
     <g id="text_6">
      <!-- 17.06.2021 -->
      <g transform="translate(189.700424 318.688565)rotate(-30)scale(0.1 -0.1)">
       <defs>
        <path id="DejaVuSans-36" d="M 2113 2584 
Q 1688 2584 1439 2293 
Q 1191 2003 1191 1497 
Q 1191 994 1439 701 
Q 1688 409 2113 409 
Q 2538 409 2786 701 
Q 3034 994 3034 1497 
Q 3034 2003 2786 2293 
Q 2538 2584 2113 2584 
z
M 3366 4563 
L 3366 3988 
Q 3128 4100 2886 4159 
Q 2644 4219 2406 4219 
Q 1781 4219 1451 3797 
Q 1122 3375 1075 2522 
Q 1259 2794 1537 2939 
Q 1816 3084 2150 3084 
Q 2853 3084 3261 2657 
Q 3669 2231 3669 1497 
Q 3669 778 3244 343 
Q 2819 -91 2113 -91 
Q 1303 -91 875 529 
Q 447 1150 447 2328 
Q 447 3434 972 4092 
Q 1497 4750 2381 4750 
Q 2619 4750 2861 4703 
Q 3103 4656 3366 4563 
z
" transform="scale(0.015625)"/>
       </defs>
       <use xlink:href="#DejaVuSans-31"/>
       <use xlink:href="#DejaVuSans-37" x="63.623047"/>
       <use xlink:href="#DejaVuSans-2e" x="127.246094"/>
       <use xlink:href="#DejaVuSans-30" x="159.033203"/>
       <use xlink:href="#DejaVuSans-36" x="222.65625"/>
       <use xlink:href="#DejaVuSans-2e" x="286.279297"/>
       <use xlink:href="#DejaVuSans-32" x="318.066406"/>
       <use xlink:href="#DejaVuSans-30" x="381.689453"/>
       <use xlink:href="#DejaVuSans-32" x="445.3125"/>
       <use xlink:href="#DejaVuSans-31" x="508.935547"/>
      </g>
     </g>
    </g>
    <g id="xtick_7">
     <g id="line2d_13">
      <path d="M 276.35911 276.48 
L 276.35911 41.472 
" clip-path="url(#p380cd7ea8e)" style="fill: none; stroke-dasharray: 2.96,1.28; stroke-dashoffset: 0; stroke: #808080; stroke-width: 0.8"/>
     </g>
     <g id="line2d_14">
      <g>
       <use xlink:href="#m20de2814d9" x="276.35911" y="276.48" style="stroke: #000000; stroke-width: 0.8"/>
      </g>
     </g>
     <g id="text_7">
      <!-- 27.09.2021 -->
      <g transform="translate(225.733899 318.688565)rotate(-30)scale(0.1 -0.1)">
       <defs>
        <path id="DejaVuSans-39" d="M 703 97 
L 703 672 
Q 941 559 1184 500 
Q 1428 441 1663 441 
Q 2288 441 2617 861 
Q 2947 1281 2994 2138 
Q 2813 1869 2534 1725 
Q 2256 1581 1919 1581 
Q 1219 1581 811 2004 
Q 403 2428 403 3163 
Q 403 3881 828 4315 
Q 1253 4750 1959 4750 
Q 2769 4750 3195 4129 
Q 3622 3509 3622 2328 
Q 3622 1225 3098 567 
Q 2575 -91 1691 -91 
Q 1453 -91 1209 -44 
Q 966 3 703 97 
z
M 1959 2075 
Q 2384 2075 2632 2365 
Q 2881 2656 2881 3163 
Q 2881 3666 2632 3958 
Q 2384 4250 1959 4250 
Q 1534 4250 1286 3958 
Q 1038 3666 1038 3163 
Q 1038 2656 1286 2365 
Q 1534 2075 1959 2075 
z
" transform="scale(0.015625)"/>
       </defs>
       <use xlink:href="#DejaVuSans-32"/>
       <use xlink:href="#DejaVuSans-37" x="63.623047"/>
       <use xlink:href="#DejaVuSans-2e" x="127.246094"/>
       <use xlink:href="#DejaVuSans-30" x="159.033203"/>
       <use xlink:href="#DejaVuSans-39" x="222.65625"/>
       <use xlink:href="#DejaVuSans-2e" x="286.279297"/>
       <use xlink:href="#DejaVuSans-32" x="318.066406"/>
       <use xlink:href="#DejaVuSans-30" x="381.689453"/>
       <use xlink:href="#DejaVuSans-32" x="445.3125"/>
       <use xlink:href="#DejaVuSans-31" x="508.935547"/>
      </g>
     </g>
    </g>
    <g id="xtick_8">
     <g id="line2d_15">
      <path d="M 312.392585 276.48 
L 312.392585 41.472 
" clip-path="url(#p380cd7ea8e)" style="fill: none; stroke-dasharray: 2.96,1.28; stroke-dashoffset: 0; stroke: #808080; stroke-width: 0.8"/>
     </g>
     <g id="line2d_16">
      <g>
       <use xlink:href="#m20de2814d9" x="312.392585" y="276.48" style="stroke: #000000; stroke-width: 0.8"/>
      </g>
     </g>
     <g id="text_8">
      <!-- 07.01.2022 -->
      <g transform="translate(261.767374 318.688565)rotate(-30)scale(0.1 -0.1)">
       <use xlink:href="#DejaVuSans-30"/>
       <use xlink:href="#DejaVuSans-37" x="63.623047"/>
       <use xlink:href="#DejaVuSans-2e" x="127.246094"/>
       <use xlink:href="#DejaVuSans-30" x="159.033203"/>
       <use xlink:href="#DejaVuSans-31" x="222.65625"/>
       <use xlink:href="#DejaVuSans-2e" x="286.279297"/>
       <use xlink:href="#DejaVuSans-32" x="318.066406"/>
       <use xlink:href="#DejaVuSans-30" x="381.689453"/>
       <use xlink:href="#DejaVuSans-32" x="445.3125"/>
       <use xlink:href="#DejaVuSans-32" x="508.935547"/>
      </g>
     </g>
    </g>
    <g id="xtick_9">
     <g id="line2d_17">
      <path d="M 348.42606 276.48 
L 348.42606 41.472 
" clip-path="url(#p380cd7ea8e)" style="fill: none; stroke-dasharray: 2.96,1.28; stroke-dashoffset: 0; stroke: #808080; stroke-width: 0.8"/>
     </g>
     <g id="line2d_18">
      <g>
       <use xlink:href="#m20de2814d9" x="348.42606" y="276.48" style="stroke: #000000; stroke-width: 0.8"/>
      </g>
     </g>
     <g id="text_9">
      <!-- 19.04.2022 -->
      <g transform="translate(297.800849 318.688565)rotate(-30)scale(0.1 -0.1)">
       <use xlink:href="#DejaVuSans-31"/>
       <use xlink:href="#DejaVuSans-39" x="63.623047"/>
       <use xlink:href="#DejaVuSans-2e" x="127.246094"/>
       <use xlink:href="#DejaVuSans-30" x="159.033203"/>
       <use xlink:href="#DejaVuSans-34" x="222.65625"/>
       <use xlink:href="#DejaVuSans-2e" x="286.279297"/>
       <use xlink:href="#DejaVuSans-32" x="318.066406"/>
       <use xlink:href="#DejaVuSans-30" x="381.689453"/>
       <use xlink:href="#DejaVuSans-32" x="445.3125"/>
       <use xlink:href="#DejaVuSans-32" x="508.935547"/>
      </g>
     </g>
    </g>
    <g id="xtick_10">
     <g id="line2d_19">
      <path d="M 384.459535 276.48 
L 384.459535 41.472 
" clip-path="url(#p380cd7ea8e)" style="fill: none; stroke-dasharray: 2.96,1.28; stroke-dashoffset: 0; stroke: #808080; stroke-width: 0.8"/>
     </g>
     <g id="line2d_20">
      <g>
       <use xlink:href="#m20de2814d9" x="384.459535" y="276.48" style="stroke: #000000; stroke-width: 0.8"/>
      </g>
     </g>
     <g id="text_10">
      <!-- 30.07.2022 -->
      <g transform="translate(333.834324 318.688565)rotate(-30)scale(0.1 -0.1)">
       <use xlink:href="#DejaVuSans-33"/>
       <use xlink:href="#DejaVuSans-30" x="63.623047"/>
       <use xlink:href="#DejaVuSans-2e" x="127.246094"/>
       <use xlink:href="#DejaVuSans-30" x="159.033203"/>
       <use xlink:href="#DejaVuSans-37" x="222.65625"/>
       <use xlink:href="#DejaVuSans-2e" x="286.279297"/>
       <use xlink:href="#DejaVuSans-32" x="318.066406"/>
       <use xlink:href="#DejaVuSans-30" x="381.689453"/>
       <use xlink:href="#DejaVuSans-32" x="445.3125"/>
       <use xlink:href="#DejaVuSans-32" x="508.935547"/>
      </g>
     </g>
    </g>
   </g>
   <g id="matplotlib.axis_2">
    <g id="ytick_1">
     <g id="line2d_21">
      <path d="M 57.6 265.797818 
L 414.72 265.797818 
" clip-path="url(#p380cd7ea8e)" style="fill: none; stroke-dasharray: 2.96,1.28; stroke-dashoffset: 0; stroke: #808080; stroke-width: 0.8"/>
     </g>
     <g id="line2d_22">
      <defs>
       <path id="m34c05155e3" d="M 0 0 
L -3.5 0 
" style="stroke: #000000; stroke-width: 0.8"/>
      </defs>
      <g>
       <use xlink:href="#m34c05155e3" x="57.6" y="265.797818" style="stroke: #000000; stroke-width: 0.8"/>
      </g>
     </g>
     <g id="text_11">
      <!-- 0 -->
      <g transform="translate(44.2375 269.597037)scale(0.1 -0.1)">
       <use xlink:href="#DejaVuSans-30"/>
      </g>
     </g>
    </g>
    <g id="ytick_2">
     <g id="line2d_23">
      <path d="M 57.6 222.418045 
L 414.72 222.418045 
" clip-path="url(#p380cd7ea8e)" style="fill: none; stroke-dasharray: 2.96,1.28; stroke-dashoffset: 0; stroke: #808080; stroke-width: 0.8"/>
     </g>
     <g id="line2d_24">
      <g>
       <use xlink:href="#m34c05155e3" x="57.6" y="222.418045" style="stroke: #000000; stroke-width: 0.8"/>
      </g>
     </g>
     <g id="text_12">
      <!-- 500 -->
      <g transform="translate(31.5125 226.217264)scale(0.1 -0.1)">
       <use xlink:href="#DejaVuSans-35"/>
       <use xlink:href="#DejaVuSans-30" x="63.623047"/>
       <use xlink:href="#DejaVuSans-30" x="127.246094"/>
      </g>
     </g>
    </g>
    <g id="ytick_3">
     <g id="line2d_25">
      <path d="M 57.6 179.038272 
L 414.72 179.038272 
" clip-path="url(#p380cd7ea8e)" style="fill: none; stroke-dasharray: 2.96,1.28; stroke-dashoffset: 0; stroke: #808080; stroke-width: 0.8"/>
     </g>
     <g id="line2d_26">
      <g>
       <use xlink:href="#m34c05155e3" x="57.6" y="179.038272" style="stroke: #000000; stroke-width: 0.8"/>
      </g>
     </g>
     <g id="text_13">
      <!-- 1000 -->
      <g transform="translate(25.15 182.837491)scale(0.1 -0.1)">
       <use xlink:href="#DejaVuSans-31"/>
       <use xlink:href="#DejaVuSans-30" x="63.623047"/>
       <use xlink:href="#DejaVuSans-30" x="127.246094"/>
       <use xlink:href="#DejaVuSans-30" x="190.869141"/>
      </g>
     </g>
    </g>
    <g id="ytick_4">
     <g id="line2d_27">
      <path d="M 57.6 135.658499 
L 414.72 135.658499 
" clip-path="url(#p380cd7ea8e)" style="fill: none; stroke-dasharray: 2.96,1.28; stroke-dashoffset: 0; stroke: #808080; stroke-width: 0.8"/>
     </g>
     <g id="line2d_28">
      <g>
       <use xlink:href="#m34c05155e3" x="57.6" y="135.658499" style="stroke: #000000; stroke-width: 0.8"/>
      </g>
     </g>
     <g id="text_14">
      <!-- 1500 -->
      <g transform="translate(25.15 139.457717)scale(0.1 -0.1)">
       <use xlink:href="#DejaVuSans-31"/>
       <use xlink:href="#DejaVuSans-35" x="63.623047"/>
       <use xlink:href="#DejaVuSans-30" x="127.246094"/>
       <use xlink:href="#DejaVuSans-30" x="190.869141"/>
      </g>
     </g>
    </g>
    <g id="ytick_5">
     <g id="line2d_29">
      <path d="M 57.6 92.278726 
L 414.72 92.278726 
" clip-path="url(#p380cd7ea8e)" style="fill: none; stroke-dasharray: 2.96,1.28; stroke-dashoffset: 0; stroke: #808080; stroke-width: 0.8"/>
     </g>
     <g id="line2d_30">
      <g>
       <use xlink:href="#m34c05155e3" x="57.6" y="92.278726" style="stroke: #000000; stroke-width: 0.8"/>
      </g>
     </g>
     <g id="text_15">
      <!-- 2000 -->
      <g transform="translate(25.15 96.077944)scale(0.1 -0.1)">
       <use xlink:href="#DejaVuSans-32"/>
       <use xlink:href="#DejaVuSans-30" x="63.623047"/>
       <use xlink:href="#DejaVuSans-30" x="127.246094"/>
       <use xlink:href="#DejaVuSans-30" x="190.869141"/>
      </g>
     </g>
    </g>
    <g id="ytick_6">
     <g id="line2d_31">
      <path d="M 57.6 48.898952 
L 414.72 48.898952 
" clip-path="url(#p380cd7ea8e)" style="fill: none; stroke-dasharray: 2.96,1.28; stroke-dashoffset: 0; stroke: #808080; stroke-width: 0.8"/>
     </g>
     <g id="line2d_32">
      <g>
       <use xlink:href="#m34c05155e3" x="57.6" y="48.898952" style="stroke: #000000; stroke-width: 0.8"/>
      </g>
     </g>
     <g id="text_16">
      <!-- 2500 -->
      <g transform="translate(25.15 52.698171)scale(0.1 -0.1)">
       <use xlink:href="#DejaVuSans-32"/>
       <use xlink:href="#DejaVuSans-35" x="63.623047"/>
       <use xlink:href="#DejaVuSans-30" x="127.246094"/>
       <use xlink:href="#DejaVuSans-30" x="190.869141"/>
      </g>
     </g>
    </g>
    <g id="text_17">
     <!-- Inzidenz pro 7 Tage pro 100.000 Einwohner -->
     <g transform="translate(19.070312 267.301)rotate(-90)scale(0.1 -0.1)">
      <defs>
       <path id="DejaVuSans-49" d="M 628 4666 
L 1259 4666 
L 1259 0 
L 628 0 
L 628 4666 
z
" transform="scale(0.015625)"/>
       <path id="DejaVuSans-6e" d="M 3513 2113 
L 3513 0 
L 2938 0 
L 2938 2094 
Q 2938 2591 2744 2837 
Q 2550 3084 2163 3084 
Q 1697 3084 1428 2787 
Q 1159 2491 1159 1978 
L 1159 0 
L 581 0 
L 581 3500 
L 1159 3500 
L 1159 2956 
Q 1366 3272 1645 3428 
Q 1925 3584 2291 3584 
Q 2894 3584 3203 3211 
Q 3513 2838 3513 2113 
z
" transform="scale(0.015625)"/>
       <path id="DejaVuSans-7a" d="M 353 3500 
L 3084 3500 
L 3084 2975 
L 922 459 
L 3084 459 
L 3084 0 
L 275 0 
L 275 525 
L 2438 3041 
L 353 3041 
L 353 3500 
z
" transform="scale(0.015625)"/>
       <path id="DejaVuSans-69" d="M 603 3500 
L 1178 3500 
L 1178 0 
L 603 0 
L 603 3500 
z
M 603 4863 
L 1178 4863 
L 1178 4134 
L 603 4134 
L 603 4863 
z
" transform="scale(0.015625)"/>
       <path id="DejaVuSans-64" d="M 2906 2969 
L 2906 4863 
L 3481 4863 
L 3481 0 
L 2906 0 
L 2906 525 
Q 2725 213 2448 61 
Q 2172 -91 1784 -91 
Q 1150 -91 751 415 
Q 353 922 353 1747 
Q 353 2572 751 3078 
Q 1150 3584 1784 3584 
Q 2172 3584 2448 3432 
Q 2725 3281 2906 2969 
z
M 947 1747 
Q 947 1113 1208 752 
Q 1469 391 1925 391 
Q 2381 391 2643 752 
Q 2906 1113 2906 1747 
Q 2906 2381 2643 2742 
Q 2381 3103 1925 3103 
Q 1469 3103 1208 2742 
Q 947 2381 947 1747 
z
" transform="scale(0.015625)"/>
       <path id="DejaVuSans-65" d="M 3597 1894 
L 3597 1613 
L 953 1613 
Q 991 1019 1311 708 
Q 1631 397 2203 397 
Q 2534 397 2845 478 
Q 3156 559 3463 722 
L 3463 178 
Q 3153 47 2828 -22 
Q 2503 -91 2169 -91 
Q 1331 -91 842 396 
Q 353 884 353 1716 
Q 353 2575 817 3079 
Q 1281 3584 2069 3584 
Q 2775 3584 3186 3129 
Q 3597 2675 3597 1894 
z
M 3022 2063 
Q 3016 2534 2758 2815 
Q 2500 3097 2075 3097 
Q 1594 3097 1305 2825 
Q 1016 2553 972 2059 
L 3022 2063 
z
" transform="scale(0.015625)"/>
       <path id="DejaVuSans-20" transform="scale(0.015625)"/>
       <path id="DejaVuSans-70" d="M 1159 525 
L 1159 -1331 
L 581 -1331 
L 581 3500 
L 1159 3500 
L 1159 2969 
Q 1341 3281 1617 3432 
Q 1894 3584 2278 3584 
Q 2916 3584 3314 3078 
Q 3713 2572 3713 1747 
Q 3713 922 3314 415 
Q 2916 -91 2278 -91 
Q 1894 -91 1617 61 
Q 1341 213 1159 525 
z
M 3116 1747 
Q 3116 2381 2855 2742 
Q 2594 3103 2138 3103 
Q 1681 3103 1420 2742 
Q 1159 2381 1159 1747 
Q 1159 1113 1420 752 
Q 1681 391 2138 391 
Q 2594 391 2855 752 
Q 3116 1113 3116 1747 
z
" transform="scale(0.015625)"/>
       <path id="DejaVuSans-72" d="M 2631 2963 
Q 2534 3019 2420 3045 
Q 2306 3072 2169 3072 
Q 1681 3072 1420 2755 
Q 1159 2438 1159 1844 
L 1159 0 
L 581 0 
L 581 3500 
L 1159 3500 
L 1159 2956 
Q 1341 3275 1631 3429 
Q 1922 3584 2338 3584 
Q 2397 3584 2469 3576 
Q 2541 3569 2628 3553 
L 2631 2963 
z
" transform="scale(0.015625)"/>
       <path id="DejaVuSans-6f" d="M 1959 3097 
Q 1497 3097 1228 2736 
Q 959 2375 959 1747 
Q 959 1119 1226 758 
Q 1494 397 1959 397 
Q 2419 397 2687 759 
Q 2956 1122 2956 1747 
Q 2956 2369 2687 2733 
Q 2419 3097 1959 3097 
z
M 1959 3584 
Q 2709 3584 3137 3096 
Q 3566 2609 3566 1747 
Q 3566 888 3137 398 
Q 2709 -91 1959 -91 
Q 1206 -91 779 398 
Q 353 888 353 1747 
Q 353 2609 779 3096 
Q 1206 3584 1959 3584 
z
" transform="scale(0.015625)"/>
       <path id="DejaVuSans-54" d="M -19 4666 
L 3928 4666 
L 3928 4134 
L 2272 4134 
L 2272 0 
L 1638 0 
L 1638 4134 
L -19 4134 
L -19 4666 
z
" transform="scale(0.015625)"/>
       <path id="DejaVuSans-61" d="M 2194 1759 
Q 1497 1759 1228 1600 
Q 959 1441 959 1056 
Q 959 750 1161 570 
Q 1363 391 1709 391 
Q 2188 391 2477 730 
Q 2766 1069 2766 1631 
L 2766 1759 
L 2194 1759 
z
M 3341 1997 
L 3341 0 
L 2766 0 
L 2766 531 
Q 2569 213 2275 61 
Q 1981 -91 1556 -91 
Q 1019 -91 701 211 
Q 384 513 384 1019 
Q 384 1609 779 1909 
Q 1175 2209 1959 2209 
L 2766 2209 
L 2766 2266 
Q 2766 2663 2505 2880 
Q 2244 3097 1772 3097 
Q 1472 3097 1187 3025 
Q 903 2953 641 2809 
L 641 3341 
Q 956 3463 1253 3523 
Q 1550 3584 1831 3584 
Q 2591 3584 2966 3190 
Q 3341 2797 3341 1997 
z
" transform="scale(0.015625)"/>
       <path id="DejaVuSans-67" d="M 2906 1791 
Q 2906 2416 2648 2759 
Q 2391 3103 1925 3103 
Q 1463 3103 1205 2759 
Q 947 2416 947 1791 
Q 947 1169 1205 825 
Q 1463 481 1925 481 
Q 2391 481 2648 825 
Q 2906 1169 2906 1791 
z
M 3481 434 
Q 3481 -459 3084 -895 
Q 2688 -1331 1869 -1331 
Q 1566 -1331 1297 -1286 
Q 1028 -1241 775 -1147 
L 775 -588 
Q 1028 -725 1275 -790 
Q 1522 -856 1778 -856 
Q 2344 -856 2625 -561 
Q 2906 -266 2906 331 
L 2906 616 
Q 2728 306 2450 153 
Q 2172 0 1784 0 
Q 1141 0 747 490 
Q 353 981 353 1791 
Q 353 2603 747 3093 
Q 1141 3584 1784 3584 
Q 2172 3584 2450 3431 
Q 2728 3278 2906 2969 
L 2906 3500 
L 3481 3500 
L 3481 434 
z
" transform="scale(0.015625)"/>
       <path id="DejaVuSans-45" d="M 628 4666 
L 3578 4666 
L 3578 4134 
L 1259 4134 
L 1259 2753 
L 3481 2753 
L 3481 2222 
L 1259 2222 
L 1259 531 
L 3634 531 
L 3634 0 
L 628 0 
L 628 4666 
z
" transform="scale(0.015625)"/>
       <path id="DejaVuSans-77" d="M 269 3500 
L 844 3500 
L 1563 769 
L 2278 3500 
L 2956 3500 
L 3675 769 
L 4391 3500 
L 4966 3500 
L 4050 0 
L 3372 0 
L 2619 2869 
L 1863 0 
L 1184 0 
L 269 3500 
z
" transform="scale(0.015625)"/>
       <path id="DejaVuSans-68" d="M 3513 2113 
L 3513 0 
L 2938 0 
L 2938 2094 
Q 2938 2591 2744 2837 
Q 2550 3084 2163 3084 
Q 1697 3084 1428 2787 
Q 1159 2491 1159 1978 
L 1159 0 
L 581 0 
L 581 4863 
L 1159 4863 
L 1159 2956 
Q 1366 3272 1645 3428 
Q 1925 3584 2291 3584 
Q 2894 3584 3203 3211 
Q 3513 2838 3513 2113 
z
" transform="scale(0.015625)"/>
      </defs>
      <use xlink:href="#DejaVuSans-49"/>
      <use xlink:href="#DejaVuSans-6e" x="29.492188"/>
      <use xlink:href="#DejaVuSans-7a" x="92.871094"/>
      <use xlink:href="#DejaVuSans-69" x="145.361328"/>
      <use xlink:href="#DejaVuSans-64" x="173.144531"/>
      <use xlink:href="#DejaVuSans-65" x="236.621094"/>
      <use xlink:href="#DejaVuSans-6e" x="298.144531"/>
      <use xlink:href="#DejaVuSans-7a" x="361.523438"/>
      <use xlink:href="#DejaVuSans-20" x="414.013672"/>
      <use xlink:href="#DejaVuSans-70" x="445.800781"/>
      <use xlink:href="#DejaVuSans-72" x="509.277344"/>
      <use xlink:href="#DejaVuSans-6f" x="548.140625"/>
      <use xlink:href="#DejaVuSans-20" x="609.322266"/>
      <use xlink:href="#DejaVuSans-37" x="641.109375"/>
      <use xlink:href="#DejaVuSans-20" x="704.732422"/>
      <use xlink:href="#DejaVuSans-54" x="736.519531"/>
      <use xlink:href="#DejaVuSans-61" x="781.103516"/>
      <use xlink:href="#DejaVuSans-67" x="842.382812"/>
      <use xlink:href="#DejaVuSans-65" x="905.859375"/>
      <use xlink:href="#DejaVuSans-20" x="967.382812"/>
      <use xlink:href="#DejaVuSans-70" x="999.169922"/>
      <use xlink:href="#DejaVuSans-72" x="1062.646484"/>
      <use xlink:href="#DejaVuSans-6f" x="1101.509766"/>
      <use xlink:href="#DejaVuSans-20" x="1162.691406"/>
      <use xlink:href="#DejaVuSans-31" x="1194.478516"/>
      <use xlink:href="#DejaVuSans-30" x="1258.101562"/>
      <use xlink:href="#DejaVuSans-30" x="1321.724609"/>
      <use xlink:href="#DejaVuSans-2e" x="1385.347656"/>
      <use xlink:href="#DejaVuSans-30" x="1417.134766"/>
      <use xlink:href="#DejaVuSans-30" x="1480.757812"/>
      <use xlink:href="#DejaVuSans-30" x="1544.380859"/>
      <use xlink:href="#DejaVuSans-20" x="1608.003906"/>
      <use xlink:href="#DejaVuSans-45" x="1639.791016"/>
      <use xlink:href="#DejaVuSans-69" x="1702.974609"/>
      <use xlink:href="#DejaVuSans-6e" x="1730.757812"/>
      <use xlink:href="#DejaVuSans-77" x="1794.136719"/>
      <use xlink:href="#DejaVuSans-6f" x="1875.923828"/>
      <use xlink:href="#DejaVuSans-68" x="1937.105469"/>
      <use xlink:href="#DejaVuSans-6e" x="2000.484375"/>
      <use xlink:href="#DejaVuSans-65" x="2063.863281"/>
      <use xlink:href="#DejaVuSans-72" x="2125.386719"/>
     </g>
    </g>
   </g>
   <g id="line2d_33">
    <path d="M 73.832727 265.797818 
L 77.012152 265.698929 
L 78.425229 265.585912 
L 78.778498 265.190354 
L 79.838306 264.710034 
L 81.604653 264.512255 
L 81.957923 264.639399 
L 82.311192 264.44162 
L 82.664461 263.86241 
L 83.371 263.509233 
L 83.724269 263.551615 
L 84.430808 262.859388 
L 84.784078 262.915896 
L 85.137347 263.170184 
L 85.490616 262.859388 
L 85.843886 262.845261 
L 86.903694 263.311454 
L 87.256963 263.000659 
L 87.610232 263.113675 
L 87.963502 263.480979 
L 88.316771 263.551615 
L 88.670041 263.749393 
L 89.02331 263.791775 
L 89.376579 263.325581 
L 89.729849 263.721139 
L 90.083118 263.692885 
L 90.436387 263.14193 
L 90.789657 262.873515 
L 91.496195 262.124781 
L 91.849465 262.718118 
L 92.202734 262.605101 
L 92.556004 262.661609 
L 92.909273 263.198438 
L 93.615812 263.86241 
L 94.32235 264.568763 
L 94.67562 264.455747 
L 95.735428 264.413366 
L 96.088697 264.385111 
L 96.441967 264.469874 
L 96.795236 264.272095 
L 97.501775 264.710034 
L 97.855044 264.653526 
L 98.208313 264.710034 
L 98.914852 264.568763 
L 99.97466 264.611145 
L 102.800815 265.571785 
L 105.62697 265.628293 
L 108.099856 265.388133 
L 112.339088 265.557658 
L 112.692357 265.430514 
L 113.752165 265.331625 
L 114.458704 265.190354 
L 115.871782 265.232735 
L 117.284859 265.1621 
L 117.638128 265.303371 
L 119.404475 265.444642 
L 119.757745 265.571785 
L 124.350246 265.50115 
L 125.056785 265.218608 
L 126.116593 265.105592 
L 126.469862 264.879559 
L 128.236209 265.006702 
L 128.589479 264.879559 
L 128.942748 265.006702 
L 130.002556 264.964321 
L 130.355826 264.724161 
L 131.062364 264.865432 
L 131.415634 264.540509 
L 132.475442 264.243841 
L 132.828711 264.427493 
L 133.53525 264.272095 
L 133.888519 264.58289 
L 134.595058 264.597017 
L 138.127752 265.063211 
L 138.481021 264.978448 
L 139.540829 265.063211 
L 139.894098 264.893686 
L 141.660445 265.020829 
L 142.366984 264.907813 
L 143.426792 264.823051 
L 144.839869 264.540509 
L 146.606216 264.399239 
L 146.959486 264.173205 
L 147.312755 264.173205 
L 149.785641 263.325581 
L 150.13891 263.438598 
L 150.845449 263.2832 
L 151.198718 262.915896 
L 151.551987 262.153035 
L 151.905257 261.107632 
L 152.258526 260.839218 
L 152.611795 260.34477 
L 152.965065 260.514295 
L 153.318334 259.5254 
L 154.024873 259.04508 
L 154.378142 258.46587 
L 154.731412 258.140948 
L 155.084681 258.3246 
L 155.43795 257.801898 
L 155.79122 258.381108 
L 156.497758 256.502208 
L 156.851028 256.488081 
L 157.204297 256.714114 
L 157.910836 253.761557 
L 158.264105 253.281237 
L 158.617375 253.012822 
L 158.970644 253.097585 
L 159.323913 251.981547 
L 159.677183 251.246939 
L 160.030452 251.374083 
L 160.383721 250.201536 
L 160.736991 248.548669 
L 161.09026 247.616283 
L 161.44353 245.864526 
L 161.796799 245.610239 
L 162.150068 246.33072 
L 162.503338 244.578963 
L 163.209876 245.440714 
L 163.563146 246.062305 
L 163.916415 247.164217 
L 164.269684 248.633432 
L 164.622954 247.743426 
L 164.976223 249.834232 
L 165.329493 250.809 
L 165.682762 250.56884 
L 166.036031 250.159155 
L 166.389301 249.50931 
L 166.74257 247.842316 
L 167.095839 248.859465 
L 167.449109 249.000735 
L 168.155647 246.796913 
L 169.215456 249.297404 
L 169.568725 247.333741 
L 169.921994 247.63041 
L 170.628533 251.614243 
L 171.688341 249.156133 
L 172.04161 250.243917 
L 172.39488 249.678835 
L 173.101419 249.452802 
L 173.454688 249.311531 
L 173.807957 248.845338 
L 174.161227 247.517393 
L 174.514496 244.084516 
L 174.867765 244.141024 
L 175.221035 244.042135 
L 175.574304 242.996732 
L 175.927573 243.547687 
L 176.280843 242.685936 
L 176.634112 242.544666 
L 177.340651 245.709129 
L 178.04719 241.555771 
L 178.400459 240.778782 
L 178.753728 242.502284 
L 179.460267 247.842316 
L 179.813536 247.602156 
L 180.166806 250.752492 
L 180.520075 252.58901 
L 180.873345 252.490121 
L 181.226614 254.22775 
L 181.579883 254.552673 
L 181.933153 253.888701 
L 182.286422 252.913933 
L 182.639691 251.04916 
L 182.992961 251.063287 
L 183.34623 251.303447 
L 184.052769 245.624366 
L 184.406038 245.200554 
L 184.759308 245.242935 
L 185.112577 247.178344 
L 185.465846 248.011841 
L 185.819116 247.602156 
L 186.525654 251.755513 
L 187.232193 252.631392 
L 187.938732 252.857425 
L 188.292001 253.818065 
L 188.645271 253.775684 
L 188.99854 254.213623 
L 189.351809 253.916955 
L 189.705079 254.270131 
L 190.411617 254.270131 
L 191.118156 256.064269 
L 191.471425 256.177285 
L 191.824695 256.58697 
L 192.177964 256.572843 
L 192.531234 256.784749 
L 192.884503 256.827131 
L 193.237772 256.572843 
L 193.591042 256.544589 
L 193.944311 256.770622 
L 194.29758 256.657606 
L 194.65085 257.250943 
L 195.004119 256.883639 
L 195.710658 258.748412 
L 196.417197 259.935085 
L 196.770466 261.008742 
L 197.123735 261.008742 
L 197.830274 259.977467 
L 198.890082 259.454765 
L 199.243351 258.776666 
L 199.596621 258.508252 
L 199.94989 259.412384 
L 200.30316 259.553655 
L 201.009698 259.581909 
L 201.362968 259.991594 
L 201.716237 260.175245 
L 202.422776 260.217627 
L 203.129314 260.966361 
L 204.189123 261.376046 
L 204.542392 261.234775 
L 204.895661 261.234775 
L 205.248931 260.952234 
L 205.6022 260.245881 
L 206.662008 258.847301 
L 207.015277 258.183329 
L 207.721816 258.22571 
L 208.781624 256.728241 
L 209.134894 256.4457 
L 209.488163 257.039037 
L 209.841432 256.784749 
L 210.547971 255.922998 
L 211.25451 255.103628 
L 211.607779 253.846319 
L 212.667587 252.546629 
L 213.020857 252.023928 
L 213.374126 251.741386 
L 213.727395 251.840276 
L 214.080665 253.535524 
L 214.787203 253.705049 
L 215.140473 254.722198 
L 215.493742 257.039037 
L 216.200281 255.569822 
L 216.55355 254.340767 
L 216.90682 254.029971 
L 217.260089 253.154093 
L 217.613358 251.331701 
L 217.966628 248.718194 
L 218.673166 247.814062 
L 219.026436 247.983587 
L 219.379705 247.983587 
L 219.732975 248.661686 
L 220.086244 249.057244 
L 220.439513 248.379144 
L 220.792783 248.407399 
L 221.146052 248.562796 
L 221.499321 249.113752 
L 221.852591 249.26915 
L 222.20586 249.26915 
L 222.559129 249.636453 
L 222.912399 251.232812 
L 223.618938 252.815043 
L 223.972207 252.942187 
L 224.325476 253.196474 
L 224.678746 253.026949 
L 225.032015 253.281237 
L 225.385284 253.125839 
L 225.738554 254.185369 
L 226.091823 254.383148 
L 226.445092 255.061247 
L 226.798362 255.28728 
L 227.151631 255.767601 
L 227.504901 256.036015 
L 227.85817 257.095545 
L 228.211439 257.561738 
L 228.564709 258.748412 
L 228.917978 258.960318 
L 229.271247 259.002699 
L 229.977786 259.779688 
L 230.684325 260.528422 
L 231.037594 260.387151 
L 232.097402 260.867472 
L 232.450672 261.856366 
L 232.803941 262.506212 
L 233.15721 262.181289 
L 234.217018 262.590974 
L 234.570288 262.407322 
L 234.923557 262.0824 
L 235.276827 262.110654 
L 235.630096 262.732245 
L 236.336635 263.636377 
L 236.689904 263.495106 
L 237.749712 263.86241 
L 238.102982 264.187333 
L 238.456251 264.20146 
L 238.80952 264.088443 
L 239.516059 264.385111 
L 240.929136 265.119719 
L 241.282406 265.176227 
L 241.635675 265.345752 
L 241.988945 265.246863 
L 242.695483 265.26099 
L 243.048753 265.218608 
L 243.755291 265.303371 
L 245.168369 265.317498 
L 246.581446 265.444642 
L 247.287985 265.416387 
L 247.641254 265.487023 
L 249.054332 265.359879 
L 249.407601 265.359879 
L 250.467409 264.992575 
L 251.527217 264.780669 
L 251.880487 265.289244 
L 252.587025 265.204481 
L 252.940295 265.289244 
L 253.646834 265.246863 
L 254.000103 265.289244 
L 254.353372 264.794796 
L 255.41318 264.554636 
L 255.76645 264.540509 
L 256.119719 264.695907 
L 256.472988 264.257968 
L 257.179527 264.144951 
L 258.592605 262.46383 
L 258.945874 262.859388 
L 259.652413 262.831134 
L 260.005682 262.958278 
L 260.358951 262.831134 
L 260.712221 262.915896 
L 261.41876 262.379068 
L 261.772029 262.138908 
L 262.125298 261.489063 
L 262.478568 261.121759 
L 263.538376 258.663649 
L 263.891645 258.183329 
L 264.598184 257.561738 
L 264.951453 255.880617 
L 265.304723 255.583949 
L 265.657992 255.937125 
L 266.011261 256.671733 
L 266.7178 256.163158 
L 267.071069 256.4457 
L 267.424339 257.194434 
L 267.777608 257.491103 
L 268.130877 257.152053 
L 268.484147 256.629352 
L 268.837416 257.236815 
L 269.190686 257.434594 
L 269.543955 257.335705 
L 269.897224 257.547611 
L 270.250494 257.378086 
L 270.603763 257.787771 
L 270.957032 257.589992 
L 271.310302 257.688882 
L 272.01684 258.183329 
L 272.37011 259.030953 
L 272.723379 258.762539 
L 273.076649 258.960318 
L 273.429918 259.426511 
L 274.136457 259.709052 
L 274.489726 259.398257 
L 274.842995 258.889682 
L 275.196265 259.963339 
L 275.549534 260.132864 
L 276.256073 260.146991 
L 276.609342 259.963339 
L 276.962612 260.373024 
L 277.315881 260.471914 
L 277.66915 260.090483 
L 278.02242 260.387151 
L 279.435497 260.457787 
L 279.788766 260.090483 
L 280.142036 260.415406 
L 280.495305 260.189373 
L 280.848575 260.288262 
L 281.201844 260.175245 
L 281.908383 260.486041 
L 282.261652 261.16414 
L 282.968191 260.768582 
L 283.32146 260.415406 
L 283.674729 260.542549 
L 284.027999 260.500168 
L 284.381268 259.935085 
L 284.734538 259.073334 
L 285.087807 258.748412 
L 285.441076 259.129842 
L 286.500884 258.423489 
L 286.854154 258.282218 
L 287.913962 255.668711 
L 288.267231 256.262048 
L 288.620501 256.233794 
L 288.97377 255.739346 
L 289.680309 257.293324 
L 290.740117 253.98759 
L 291.093386 254.015844 
L 291.446655 254.397275 
L 291.799925 253.111712 
L 292.153194 252.758535 
L 292.859733 254.693943 
L 293.213002 255.273153 
L 293.566272 254.538546 
L 293.919541 254.100607 
L 294.62608 253.50727 
L 294.979349 252.772662 
L 295.332618 251.119795 
L 295.685888 251.430591 
L 296.039157 250.978525 
L 296.392427 248.774702 
L 296.745696 248.294382 
L 297.098965 246.245957 
L 297.452235 245.1723 
L 297.805504 245.454841 
L 298.158773 244.649599 
L 298.512043 244.310549 
L 298.865312 245.41246 
L 299.218581 245.779764 
L 299.571851 247.602156 
L 299.92512 247.785808 
L 300.27839 247.715172 
L 300.631659 247.856443 
L 300.984928 247.588029 
L 301.338198 245.468969 
L 301.691467 244.423566 
L 302.044736 244.663726 
L 302.398006 244.395311 
L 302.751275 245.596112 
L 303.811083 246.881675 
L 304.164353 246.57088 
L 304.517622 244.988648 
L 304.870891 245.666748 
L 305.224161 245.864526 
L 305.930699 245.031029 
L 306.283969 246.302466 
L 306.637238 248.040095 
L 307.343777 249.933122 
L 308.050316 250.625348 
L 308.756854 252.984568 
L 309.110124 253.64854 
L 309.463393 253.196474 
L 309.816662 252.34885 
L 310.169932 251.925038 
L 310.523201 252.730281 
L 311.22974 250.950271 
L 311.583009 249.678835 
L 311.936279 250.71011 
L 312.289548 249.466929 
L 312.642817 249.000735 
L 312.996087 247.29136 
L 313.349356 246.189449 
L 313.702625 245.695002 
L 314.055895 242.982605 
L 314.409164 242.657682 
L 314.762433 243.999754 
L 315.115703 243.067367 
L 315.468972 244.254041 
L 315.822242 246.076432 
L 316.175511 243.858483 
L 316.52878 244.098643 
L 316.88205 241.357992 
L 317.235319 235.580022 
L 317.588588 226.10076 
L 318.648396 218.980718 
L 319.708205 193.325964 
L 321.121282 143.005351 
L 321.474551 119.554419 
L 322.18109 88.545507 
L 323.240898 76.226704 
L 323.594168 52.154182 
L 323.947437 72.963352 
L 324.653976 76.523373 
L 325.007245 83.516271 
L 325.360514 85.395171 
L 325.713784 90.283136 
L 326.067053 124.456511 
L 326.420322 125.501914 
L 326.773592 129.415112 
L 327.126861 140.16581 
L 327.480131 145.717747 
L 327.8334 154.193988 
L 328.186669 156.920512 
L 328.539939 150.28079 
L 328.893208 149.70158 
L 329.246477 150.153647 
L 329.599747 155.43717 
L 329.953016 158.940682 
L 330.306285 158.064804 
L 330.659555 161.497681 
L 331.012824 172.078855 
L 331.366094 176.076815 
L 331.719363 186.771005 
L 332.072632 187.590374 
L 332.779171 191.334047 
L 333.13244 192.012147 
L 333.48571 191.856749 
L 333.838979 192.831516 
L 334.192248 186.008143 
L 334.545518 185.697347 
L 334.898787 179.778106 
L 335.252057 176.105069 
L 335.605326 175.638876 
L 335.958595 173.971882 
L 336.311865 171.245358 
L 337.018403 160.282754 
L 337.371673 158.700522 
L 337.724942 158.417981 
L 338.078211 157.937661 
L 338.431481 157.881152 
L 338.78475 154.03859 
L 339.13802 156.185904 
L 339.491289 156.313048 
L 339.844558 158.022423 
L 340.197828 155.875109 
L 340.551097 156.765114 
L 340.904366 154.999231 
L 341.257636 160.169737 
L 341.610905 159.251478 
L 342.670713 168.306928 
L 343.023983 166.809459 
L 343.377252 171.019325 
L 343.730521 172.276634 
L 344.790329 181.54399 
L 345.496868 186.375447 
L 345.850138 184.468293 
L 346.203407 184.849723 
L 346.556676 189.44102 
L 346.909946 191.503572 
L 347.263215 190.571186 
L 347.616484 198.030277 
L 348.323023 202.01411 
L 349.029562 213.626559 
L 349.382831 208.625577 
L 349.736101 211.16845 
L 350.08937 206.817313 
L 350.442639 206.336993 
L 350.795909 205.319844 
L 351.149178 200.855691 
L 351.502447 199.17457 
L 351.855717 209.43082 
L 352.208986 213.52767 
L 352.562255 214.135134 
L 353.268794 219.997867 
L 353.622064 221.749623 
L 353.975333 226.312666 
L 354.328602 226.171395 
L 354.681872 227.230925 
L 355.035141 230.72031 
L 355.38841 227.725372 
L 355.74168 228.191565 
L 356.094949 229.081571 
L 356.448218 228.714267 
L 356.801488 230.833327 
L 357.508027 232.246034 
L 357.861296 231.850476 
L 358.214565 232.246034 
L 358.567835 231.765713 
L 358.921104 233.630486 
L 359.274373 233.362072 
L 359.627643 235.678911 
L 359.980912 236.342883 
L 360.334181 237.939242 
L 360.687451 236.809076 
L 361.39399 240.637512 
L 362.100528 245.836272 
L 362.453798 247.065327 
L 362.807067 247.376123 
L 363.160336 247.87057 
L 363.513606 247.912951 
L 363.866875 247.545647 
L 364.220144 245.949289 
L 364.573414 243.208638 
L 364.926683 242.940224 
L 365.279953 242.431649 
L 365.633222 243.406417 
L 365.986491 245.836272 
L 366.339761 244.324676 
L 366.69303 239.323694 
L 367.046299 236.794949 
L 367.399569 233.206674 
L 367.752838 232.556829 
L 368.106107 230.918089 
L 368.812646 222.24407 
L 369.519185 224.998848 
L 369.872454 226.990765 
L 370.225724 224.052335 
L 370.578993 224.193605 
L 370.932262 222.809153 
L 371.99207 209.444947 
L 372.34534 206.365247 
L 372.698609 208.018114 
L 373.051879 207.707318 
L 373.405148 205.757783 
L 374.464956 210.038284 
L 374.818225 209.981776 
L 375.171495 210.716383 
L 375.524764 210.165428 
L 376.231303 215.40657 
L 376.584572 215.872763 
L 377.291111 217.610392 
L 377.64438 218.58516 
L 377.99765 219.051353 
L 378.350919 216.932293 
L 378.704188 216.522608 
L 379.057458 215.64673 
L 379.763996 212.651792 
L 380.117266 211.436864 
L 380.470535 211.733532 
L 380.823805 212.46814 
L 381.177074 212.072582 
L 381.883613 216.014034 
L 382.236882 218.910082 
L 382.590151 219.192624 
L 382.943421 217.553884 
L 383.29669 217.384359 
L 384.003229 222.229943 
L 384.356498 223.119948 
L 385.063037 223.529633 
L 385.416306 225.323771 
L 385.769576 225.705202 
L 386.122845 226.835367 
L 386.476114 227.527593 
L 386.829384 227.612356 
L 387.182653 228.346963 
L 387.535922 229.689035 
L 387.889192 229.915068 
L 388.242461 231.977619 
L 388.595731 232.6981 
L 388.949 232.6981 
L 389.302269 233.121912 
L 389.655539 232.895879 
L 390.008808 231.921111 
L 390.362077 232.260161 
L 390.715347 232.175398 
L 391.421885 232.740481 
L 391.775155 232.867625 
L 392.834963 231.779841 
L 393.188232 232.274288 
L 393.541502 232.175398 
L 393.894771 233.136039 
L 394.24804 233.037149 
L 394.60131 234.916049 
L 394.954579 235.975579 
L 395.307848 236.088596 
L 395.661118 237.458921 
L 396.014387 240.015921 
L 396.720926 242.954351 
L 398.134003 245.963416 
L 398.487273 246.132941 
L 398.487273 246.132941 
" clip-path="url(#p380cd7ea8e)" style="fill: none; stroke: #1f77b4; stroke-width: 1.5; stroke-linecap: square"/>
   </g>
   <g id="patch_3">
    <path d="M 57.6 276.48 
L 57.6 41.472 
" style="fill: none; stroke: #000000; stroke-width: 0.8; stroke-linejoin: miter; stroke-linecap: square"/>
   </g>
   <g id="patch_4">
    <path d="M 414.72 276.48 
L 414.72 41.472 
" style="fill: none; stroke: #000000; stroke-width: 0.8; stroke-linejoin: miter; stroke-linecap: square"/>
   </g>
   <g id="patch_5">
    <path d="M 57.6 276.48 
L 414.72 276.48 
" style="fill: none; stroke: #000000; stroke-width: 0.8; stroke-linejoin: miter; stroke-linecap: square"/>
   </g>
   <g id="patch_6">
    <path d="M 57.6 41.472 
L 414.72 41.472 
" style="fill: none; stroke: #000000; stroke-width: 0.8; stroke-linejoin: miter; stroke-linecap: square"/>
   </g>
  </g>
  <g id="text_18">
   <!-- Inzidenzverlauf LK Recklinghausen -->
   <g transform="translate(74.231719 20.589187)scale(0.18 -0.18)">
    <defs>
     <path id="DejaVuSans-76" d="M 191 3500 
L 800 3500 
L 1894 563 
L 2988 3500 
L 3597 3500 
L 2284 0 
L 1503 0 
L 191 3500 
z
" transform="scale(0.015625)"/>
     <path id="DejaVuSans-6c" d="M 603 4863 
L 1178 4863 
L 1178 0 
L 603 0 
L 603 4863 
z
" transform="scale(0.015625)"/>
     <path id="DejaVuSans-75" d="M 544 1381 
L 544 3500 
L 1119 3500 
L 1119 1403 
Q 1119 906 1312 657 
Q 1506 409 1894 409 
Q 2359 409 2629 706 
Q 2900 1003 2900 1516 
L 2900 3500 
L 3475 3500 
L 3475 0 
L 2900 0 
L 2900 538 
Q 2691 219 2414 64 
Q 2138 -91 1772 -91 
Q 1169 -91 856 284 
Q 544 659 544 1381 
z
M 1991 3584 
L 1991 3584 
z
" transform="scale(0.015625)"/>
     <path id="DejaVuSans-66" d="M 2375 4863 
L 2375 4384 
L 1825 4384 
Q 1516 4384 1395 4259 
Q 1275 4134 1275 3809 
L 1275 3500 
L 2222 3500 
L 2222 3053 
L 1275 3053 
L 1275 0 
L 697 0 
L 697 3053 
L 147 3053 
L 147 3500 
L 697 3500 
L 697 3744 
Q 697 4328 969 4595 
Q 1241 4863 1831 4863 
L 2375 4863 
z
" transform="scale(0.015625)"/>
     <path id="DejaVuSans-4c" d="M 628 4666 
L 1259 4666 
L 1259 531 
L 3531 531 
L 3531 0 
L 628 0 
L 628 4666 
z
" transform="scale(0.015625)"/>
     <path id="DejaVuSans-4b" d="M 628 4666 
L 1259 4666 
L 1259 2694 
L 3353 4666 
L 4166 4666 
L 1850 2491 
L 4331 0 
L 3500 0 
L 1259 2247 
L 1259 0 
L 628 0 
L 628 4666 
z
" transform="scale(0.015625)"/>
     <path id="DejaVuSans-52" d="M 2841 2188 
Q 3044 2119 3236 1894 
Q 3428 1669 3622 1275 
L 4263 0 
L 3584 0 
L 2988 1197 
Q 2756 1666 2539 1819 
Q 2322 1972 1947 1972 
L 1259 1972 
L 1259 0 
L 628 0 
L 628 4666 
L 2053 4666 
Q 2853 4666 3247 4331 
Q 3641 3997 3641 3322 
Q 3641 2881 3436 2590 
Q 3231 2300 2841 2188 
z
M 1259 4147 
L 1259 2491 
L 2053 2491 
Q 2509 2491 2742 2702 
Q 2975 2913 2975 3322 
Q 2975 3731 2742 3939 
Q 2509 4147 2053 4147 
L 1259 4147 
z
" transform="scale(0.015625)"/>
     <path id="DejaVuSans-63" d="M 3122 3366 
L 3122 2828 
Q 2878 2963 2633 3030 
Q 2388 3097 2138 3097 
Q 1578 3097 1268 2742 
Q 959 2388 959 1747 
Q 959 1106 1268 751 
Q 1578 397 2138 397 
Q 2388 397 2633 464 
Q 2878 531 3122 666 
L 3122 134 
Q 2881 22 2623 -34 
Q 2366 -91 2075 -91 
Q 1284 -91 818 406 
Q 353 903 353 1747 
Q 353 2603 823 3093 
Q 1294 3584 2113 3584 
Q 2378 3584 2631 3529 
Q 2884 3475 3122 3366 
z
" transform="scale(0.015625)"/>
     <path id="DejaVuSans-6b" d="M 581 4863 
L 1159 4863 
L 1159 1991 
L 2875 3500 
L 3609 3500 
L 1753 1863 
L 3688 0 
L 2938 0 
L 1159 1709 
L 1159 0 
L 581 0 
L 581 4863 
z
" transform="scale(0.015625)"/>
     <path id="DejaVuSans-73" d="M 2834 3397 
L 2834 2853 
Q 2591 2978 2328 3040 
Q 2066 3103 1784 3103 
Q 1356 3103 1142 2972 
Q 928 2841 928 2578 
Q 928 2378 1081 2264 
Q 1234 2150 1697 2047 
L 1894 2003 
Q 2506 1872 2764 1633 
Q 3022 1394 3022 966 
Q 3022 478 2636 193 
Q 2250 -91 1575 -91 
Q 1294 -91 989 -36 
Q 684 19 347 128 
L 347 722 
Q 666 556 975 473 
Q 1284 391 1588 391 
Q 1994 391 2212 530 
Q 2431 669 2431 922 
Q 2431 1156 2273 1281 
Q 2116 1406 1581 1522 
L 1381 1569 
Q 847 1681 609 1914 
Q 372 2147 372 2553 
Q 372 3047 722 3315 
Q 1072 3584 1716 3584 
Q 2034 3584 2315 3537 
Q 2597 3491 2834 3397 
z
" transform="scale(0.015625)"/>
    </defs>
    <use xlink:href="#DejaVuSans-49"/>
    <use xlink:href="#DejaVuSans-6e" x="29.492188"/>
    <use xlink:href="#DejaVuSans-7a" x="92.871094"/>
    <use xlink:href="#DejaVuSans-69" x="145.361328"/>
    <use xlink:href="#DejaVuSans-64" x="173.144531"/>
    <use xlink:href="#DejaVuSans-65" x="236.621094"/>
    <use xlink:href="#DejaVuSans-6e" x="298.144531"/>
    <use xlink:href="#DejaVuSans-7a" x="361.523438"/>
    <use xlink:href="#DejaVuSans-76" x="414.013672"/>
    <use xlink:href="#DejaVuSans-65" x="473.193359"/>
    <use xlink:href="#DejaVuSans-72" x="534.716797"/>
    <use xlink:href="#DejaVuSans-6c" x="575.830078"/>
    <use xlink:href="#DejaVuSans-61" x="603.613281"/>
    <use xlink:href="#DejaVuSans-75" x="664.892578"/>
    <use xlink:href="#DejaVuSans-66" x="728.271484"/>
    <use xlink:href="#DejaVuSans-20" x="763.476562"/>
    <use xlink:href="#DejaVuSans-4c" x="795.263672"/>
    <use xlink:href="#DejaVuSans-4b" x="850.976562"/>
    <use xlink:href="#DejaVuSans-20" x="916.552734"/>
    <use xlink:href="#DejaVuSans-52" x="948.339844"/>
    <use xlink:href="#DejaVuSans-65" x="1013.322266"/>
    <use xlink:href="#DejaVuSans-63" x="1074.845703"/>
    <use xlink:href="#DejaVuSans-6b" x="1129.826172"/>
    <use xlink:href="#DejaVuSans-6c" x="1187.736328"/>
    <use xlink:href="#DejaVuSans-69" x="1215.519531"/>
    <use xlink:href="#DejaVuSans-6e" x="1243.302734"/>
    <use xlink:href="#DejaVuSans-67" x="1306.681641"/>
    <use xlink:href="#DejaVuSans-68" x="1370.158203"/>
    <use xlink:href="#DejaVuSans-61" x="1433.537109"/>
    <use xlink:href="#DejaVuSans-75" x="1494.816406"/>
    <use xlink:href="#DejaVuSans-73" x="1558.195312"/>
    <use xlink:href="#DejaVuSans-65" x="1610.294922"/>
    <use xlink:href="#DejaVuSans-6e" x="1671.818359"/>
   </g>
  </g>
 </g>
 <defs>
  <clipPath id="p380cd7ea8e">
   <rect x="57.6" y="41.472" width="357.12" height="235.008"/>
  </clipPath>
 </defs>
</svg>
