<?xml version="1.0" encoding="utf-8" standalone="no"?>
<!DOCTYPE svg PUBLIC "-//W3C//DTD SVG 1.1//EN"
  "http://www.w3.org/Graphics/SVG/1.1/DTD/svg11.dtd">
<svg height="345.6pt" version="1.1" viewBox="0 0 460.8 345.6" width="460.8pt" xmlns="http://www.w3.org/2000/svg" xmlns:xlink="http://www.w3.org/1999/xlink">
 <metadata>
  <rdf:RDF xmlns:cc="http://creativecommons.org/ns#" xmlns:dc="http://purl.org/dc/elements/1.1/" xmlns:rdf="http://www.w3.org/1999/02/22-rdf-syntax-ns#">
   <cc:Work>
    <dc:type rdf:resource="http://purl.org/dc/dcmitype/StillImage"/>
    <dc:date>2021-04-01T09:07:08.755618</dc:date>
    <dc:format>image/svg+xml</dc:format>
    <dc:creator>
     <cc:Agent>
      <dc:title>Matplotlib v3.4.1, https://matplotlib.org/</dc:title>
     </cc:Agent>
    </dc:creator>
   </cc:Work>
  </rdf:RDF>
 </metadata>
 <defs>
  <style type="text/css">*{stroke-linecap:butt;stroke-linejoin:round;}</style>
 </defs>
 <g id="figure_1">
  <g id="patch_1">
   <path d="M 0 345.6 
L 460.8 345.6 
L 460.8 0 
L 0 0 
z
" style="fill:#ffffff;"/>
  </g>
  <g id="axes_1">
   <g id="patch_2">
    <path d="M 57.6 276.48 
L 414.72 276.48 
L 414.72 41.472 
L 57.6 41.472 
z
" style="fill:#ffffff;"/>
   </g>
   <g id="matplotlib.axis_1">
    <g id="xtick_1">
     <g id="line2d_1">
      <path clip-path="url(#p86924d987a)" d="M 88.080997 276.48 
L 88.080997 41.472 
" style="fill:none;stroke:#808080;stroke-dasharray:2.96,1.28;stroke-dashoffset:0;stroke-width:0.8;"/>
     </g>
     <g id="line2d_2">
      <defs>
       <path d="M 0 0 
L 0 3.5 
" id="mee563d2a49" style="stroke:#000000;stroke-width:0.8;"/>
      </defs>
      <g>
       <use style="stroke:#000000;stroke-width:0.8;" x="88.080997" xlink:href="#mee563d2a49" y="276.48"/>
      </g>
     </g>
     <g id="text_1">
      <!-- 20.03.2020 -->
      <g transform="translate(37.455786 318.688565)rotate(-30)scale(0.1 -0.1)">
       <defs>
        <path d="M 1228 531 
L 3431 531 
L 3431 0 
L 469 0 
L 469 531 
Q 828 903 1448 1529 
Q 2069 2156 2228 2338 
Q 2531 2678 2651 2914 
Q 2772 3150 2772 3378 
Q 2772 3750 2511 3984 
Q 2250 4219 1831 4219 
Q 1534 4219 1204 4116 
Q 875 4013 500 3803 
L 500 4441 
Q 881 4594 1212 4672 
Q 1544 4750 1819 4750 
Q 2544 4750 2975 4387 
Q 3406 4025 3406 3419 
Q 3406 3131 3298 2873 
Q 3191 2616 2906 2266 
Q 2828 2175 2409 1742 
Q 1991 1309 1228 531 
z
" id="DejaVuSans-32" transform="scale(0.015625)"/>
        <path d="M 2034 4250 
Q 1547 4250 1301 3770 
Q 1056 3291 1056 2328 
Q 1056 1369 1301 889 
Q 1547 409 2034 409 
Q 2525 409 2770 889 
Q 3016 1369 3016 2328 
Q 3016 3291 2770 3770 
Q 2525 4250 2034 4250 
z
M 2034 4750 
Q 2819 4750 3233 4129 
Q 3647 3509 3647 2328 
Q 3647 1150 3233 529 
Q 2819 -91 2034 -91 
Q 1250 -91 836 529 
Q 422 1150 422 2328 
Q 422 3509 836 4129 
Q 1250 4750 2034 4750 
z
" id="DejaVuSans-30" transform="scale(0.015625)"/>
        <path d="M 684 794 
L 1344 794 
L 1344 0 
L 684 0 
L 684 794 
z
" id="DejaVuSans-2e" transform="scale(0.015625)"/>
        <path d="M 2597 2516 
Q 3050 2419 3304 2112 
Q 3559 1806 3559 1356 
Q 3559 666 3084 287 
Q 2609 -91 1734 -91 
Q 1441 -91 1130 -33 
Q 819 25 488 141 
L 488 750 
Q 750 597 1062 519 
Q 1375 441 1716 441 
Q 2309 441 2620 675 
Q 2931 909 2931 1356 
Q 2931 1769 2642 2001 
Q 2353 2234 1838 2234 
L 1294 2234 
L 1294 2753 
L 1863 2753 
Q 2328 2753 2575 2939 
Q 2822 3125 2822 3475 
Q 2822 3834 2567 4026 
Q 2313 4219 1838 4219 
Q 1578 4219 1281 4162 
Q 984 4106 628 3988 
L 628 4550 
Q 988 4650 1302 4700 
Q 1616 4750 1894 4750 
Q 2613 4750 3031 4423 
Q 3450 4097 3450 3541 
Q 3450 3153 3228 2886 
Q 3006 2619 2597 2516 
z
" id="DejaVuSans-33" transform="scale(0.015625)"/>
       </defs>
       <use xlink:href="#DejaVuSans-32"/>
       <use x="63.623047" xlink:href="#DejaVuSans-30"/>
       <use x="127.246094" xlink:href="#DejaVuSans-2e"/>
       <use x="159.033203" xlink:href="#DejaVuSans-30"/>
       <use x="222.65625" xlink:href="#DejaVuSans-33"/>
       <use x="286.279297" xlink:href="#DejaVuSans-2e"/>
       <use x="318.066406" xlink:href="#DejaVuSans-32"/>
       <use x="381.689453" xlink:href="#DejaVuSans-30"/>
       <use x="445.3125" xlink:href="#DejaVuSans-32"/>
       <use x="508.935547" xlink:href="#DejaVuSans-30"/>
      </g>
     </g>
    </g>
    <g id="xtick_2">
     <g id="line2d_3">
      <path clip-path="url(#p86924d987a)" d="M 123.512838 276.48 
L 123.512838 41.472 
" style="fill:none;stroke:#808080;stroke-dasharray:2.96,1.28;stroke-dashoffset:0;stroke-width:0.8;"/>
     </g>
     <g id="line2d_4">
      <g>
       <use style="stroke:#000000;stroke-width:0.8;" x="123.512838" xlink:href="#mee563d2a49" y="276.48"/>
      </g>
     </g>
     <g id="text_2">
      <!-- 02.05.2020 -->
      <g transform="translate(72.887627 318.688565)rotate(-30)scale(0.1 -0.1)">
       <defs>
        <path d="M 691 4666 
L 3169 4666 
L 3169 4134 
L 1269 4134 
L 1269 2991 
Q 1406 3038 1543 3061 
Q 1681 3084 1819 3084 
Q 2600 3084 3056 2656 
Q 3513 2228 3513 1497 
Q 3513 744 3044 326 
Q 2575 -91 1722 -91 
Q 1428 -91 1123 -41 
Q 819 9 494 109 
L 494 744 
Q 775 591 1075 516 
Q 1375 441 1709 441 
Q 2250 441 2565 725 
Q 2881 1009 2881 1497 
Q 2881 1984 2565 2268 
Q 2250 2553 1709 2553 
Q 1456 2553 1204 2497 
Q 953 2441 691 2322 
L 691 4666 
z
" id="DejaVuSans-35" transform="scale(0.015625)"/>
       </defs>
       <use xlink:href="#DejaVuSans-30"/>
       <use x="63.623047" xlink:href="#DejaVuSans-32"/>
       <use x="127.246094" xlink:href="#DejaVuSans-2e"/>
       <use x="159.033203" xlink:href="#DejaVuSans-30"/>
       <use x="222.65625" xlink:href="#DejaVuSans-35"/>
       <use x="286.279297" xlink:href="#DejaVuSans-2e"/>
       <use x="318.066406" xlink:href="#DejaVuSans-32"/>
       <use x="381.689453" xlink:href="#DejaVuSans-30"/>
       <use x="445.3125" xlink:href="#DejaVuSans-32"/>
       <use x="508.935547" xlink:href="#DejaVuSans-30"/>
      </g>
     </g>
    </g>
    <g id="xtick_3">
     <g id="line2d_5">
      <path clip-path="url(#p86924d987a)" d="M 158.944679 276.48 
L 158.944679 41.472 
" style="fill:none;stroke:#808080;stroke-dasharray:2.96,1.28;stroke-dashoffset:0;stroke-width:0.8;"/>
     </g>
     <g id="line2d_6">
      <g>
       <use style="stroke:#000000;stroke-width:0.8;" x="158.944679" xlink:href="#mee563d2a49" y="276.48"/>
      </g>
     </g>
     <g id="text_3">
      <!-- 14.06.2020 -->
      <g transform="translate(108.319469 318.688565)rotate(-30)scale(0.1 -0.1)">
       <defs>
        <path d="M 794 531 
L 1825 531 
L 1825 4091 
L 703 3866 
L 703 4441 
L 1819 4666 
L 2450 4666 
L 2450 531 
L 3481 531 
L 3481 0 
L 794 0 
L 794 531 
z
" id="DejaVuSans-31" transform="scale(0.015625)"/>
        <path d="M 2419 4116 
L 825 1625 
L 2419 1625 
L 2419 4116 
z
M 2253 4666 
L 3047 4666 
L 3047 1625 
L 3713 1625 
L 3713 1100 
L 3047 1100 
L 3047 0 
L 2419 0 
L 2419 1100 
L 313 1100 
L 313 1709 
L 2253 4666 
z
" id="DejaVuSans-34" transform="scale(0.015625)"/>
        <path d="M 2113 2584 
Q 1688 2584 1439 2293 
Q 1191 2003 1191 1497 
Q 1191 994 1439 701 
Q 1688 409 2113 409 
Q 2538 409 2786 701 
Q 3034 994 3034 1497 
Q 3034 2003 2786 2293 
Q 2538 2584 2113 2584 
z
M 3366 4563 
L 3366 3988 
Q 3128 4100 2886 4159 
Q 2644 4219 2406 4219 
Q 1781 4219 1451 3797 
Q 1122 3375 1075 2522 
Q 1259 2794 1537 2939 
Q 1816 3084 2150 3084 
Q 2853 3084 3261 2657 
Q 3669 2231 3669 1497 
Q 3669 778 3244 343 
Q 2819 -91 2113 -91 
Q 1303 -91 875 529 
Q 447 1150 447 2328 
Q 447 3434 972 4092 
Q 1497 4750 2381 4750 
Q 2619 4750 2861 4703 
Q 3103 4656 3366 4563 
z
" id="DejaVuSans-36" transform="scale(0.015625)"/>
       </defs>
       <use xlink:href="#DejaVuSans-31"/>
       <use x="63.623047" xlink:href="#DejaVuSans-34"/>
       <use x="127.246094" xlink:href="#DejaVuSans-2e"/>
       <use x="159.033203" xlink:href="#DejaVuSans-30"/>
       <use x="222.65625" xlink:href="#DejaVuSans-36"/>
       <use x="286.279297" xlink:href="#DejaVuSans-2e"/>
       <use x="318.066406" xlink:href="#DejaVuSans-32"/>
       <use x="381.689453" xlink:href="#DejaVuSans-30"/>
       <use x="445.3125" xlink:href="#DejaVuSans-32"/>
       <use x="508.935547" xlink:href="#DejaVuSans-30"/>
      </g>
     </g>
    </g>
    <g id="xtick_4">
     <g id="line2d_7">
      <path clip-path="url(#p86924d987a)" d="M 194.376521 276.48 
L 194.376521 41.472 
" style="fill:none;stroke:#808080;stroke-dasharray:2.96,1.28;stroke-dashoffset:0;stroke-width:0.8;"/>
     </g>
     <g id="line2d_8">
      <g>
       <use style="stroke:#000000;stroke-width:0.8;" x="194.376521" xlink:href="#mee563d2a49" y="276.48"/>
      </g>
     </g>
     <g id="text_4">
      <!-- 27.07.2020 -->
      <g transform="translate(143.75131 318.688565)rotate(-30)scale(0.1 -0.1)">
       <defs>
        <path d="M 525 4666 
L 3525 4666 
L 3525 4397 
L 1831 0 
L 1172 0 
L 2766 4134 
L 525 4134 
L 525 4666 
z
" id="DejaVuSans-37" transform="scale(0.015625)"/>
       </defs>
       <use xlink:href="#DejaVuSans-32"/>
       <use x="63.623047" xlink:href="#DejaVuSans-37"/>
       <use x="127.246094" xlink:href="#DejaVuSans-2e"/>
       <use x="159.033203" xlink:href="#DejaVuSans-30"/>
       <use x="222.65625" xlink:href="#DejaVuSans-37"/>
       <use x="286.279297" xlink:href="#DejaVuSans-2e"/>
       <use x="318.066406" xlink:href="#DejaVuSans-32"/>
       <use x="381.689453" xlink:href="#DejaVuSans-30"/>
       <use x="445.3125" xlink:href="#DejaVuSans-32"/>
       <use x="508.935547" xlink:href="#DejaVuSans-30"/>
      </g>
     </g>
    </g>
    <g id="xtick_5">
     <g id="line2d_9">
      <path clip-path="url(#p86924d987a)" d="M 229.808362 276.48 
L 229.808362 41.472 
" style="fill:none;stroke:#808080;stroke-dasharray:2.96,1.28;stroke-dashoffset:0;stroke-width:0.8;"/>
     </g>
     <g id="line2d_10">
      <g>
       <use style="stroke:#000000;stroke-width:0.8;" x="229.808362" xlink:href="#mee563d2a49" y="276.48"/>
      </g>
     </g>
     <g id="text_5">
      <!-- 08.09.2020 -->
      <g transform="translate(179.183151 318.688565)rotate(-30)scale(0.1 -0.1)">
       <defs>
        <path d="M 2034 2216 
Q 1584 2216 1326 1975 
Q 1069 1734 1069 1313 
Q 1069 891 1326 650 
Q 1584 409 2034 409 
Q 2484 409 2743 651 
Q 3003 894 3003 1313 
Q 3003 1734 2745 1975 
Q 2488 2216 2034 2216 
z
M 1403 2484 
Q 997 2584 770 2862 
Q 544 3141 544 3541 
Q 544 4100 942 4425 
Q 1341 4750 2034 4750 
Q 2731 4750 3128 4425 
Q 3525 4100 3525 3541 
Q 3525 3141 3298 2862 
Q 3072 2584 2669 2484 
Q 3125 2378 3379 2068 
Q 3634 1759 3634 1313 
Q 3634 634 3220 271 
Q 2806 -91 2034 -91 
Q 1263 -91 848 271 
Q 434 634 434 1313 
Q 434 1759 690 2068 
Q 947 2378 1403 2484 
z
M 1172 3481 
Q 1172 3119 1398 2916 
Q 1625 2713 2034 2713 
Q 2441 2713 2670 2916 
Q 2900 3119 2900 3481 
Q 2900 3844 2670 4047 
Q 2441 4250 2034 4250 
Q 1625 4250 1398 4047 
Q 1172 3844 1172 3481 
z
" id="DejaVuSans-38" transform="scale(0.015625)"/>
        <path d="M 703 97 
L 703 672 
Q 941 559 1184 500 
Q 1428 441 1663 441 
Q 2288 441 2617 861 
Q 2947 1281 2994 2138 
Q 2813 1869 2534 1725 
Q 2256 1581 1919 1581 
Q 1219 1581 811 2004 
Q 403 2428 403 3163 
Q 403 3881 828 4315 
Q 1253 4750 1959 4750 
Q 2769 4750 3195 4129 
Q 3622 3509 3622 2328 
Q 3622 1225 3098 567 
Q 2575 -91 1691 -91 
Q 1453 -91 1209 -44 
Q 966 3 703 97 
z
M 1959 2075 
Q 2384 2075 2632 2365 
Q 2881 2656 2881 3163 
Q 2881 3666 2632 3958 
Q 2384 4250 1959 4250 
Q 1534 4250 1286 3958 
Q 1038 3666 1038 3163 
Q 1038 2656 1286 2365 
Q 1534 2075 1959 2075 
z
" id="DejaVuSans-39" transform="scale(0.015625)"/>
       </defs>
       <use xlink:href="#DejaVuSans-30"/>
       <use x="63.623047" xlink:href="#DejaVuSans-38"/>
       <use x="127.246094" xlink:href="#DejaVuSans-2e"/>
       <use x="159.033203" xlink:href="#DejaVuSans-30"/>
       <use x="222.65625" xlink:href="#DejaVuSans-39"/>
       <use x="286.279297" xlink:href="#DejaVuSans-2e"/>
       <use x="318.066406" xlink:href="#DejaVuSans-32"/>
       <use x="381.689453" xlink:href="#DejaVuSans-30"/>
       <use x="445.3125" xlink:href="#DejaVuSans-32"/>
       <use x="508.935547" xlink:href="#DejaVuSans-30"/>
      </g>
     </g>
    </g>
    <g id="xtick_6">
     <g id="line2d_11">
      <path clip-path="url(#p86924d987a)" d="M 265.240203 276.48 
L 265.240203 41.472 
" style="fill:none;stroke:#808080;stroke-dasharray:2.96,1.28;stroke-dashoffset:0;stroke-width:0.8;"/>
     </g>
     <g id="line2d_12">
      <g>
       <use style="stroke:#000000;stroke-width:0.8;" x="265.240203" xlink:href="#mee563d2a49" y="276.48"/>
      </g>
     </g>
     <g id="text_6">
      <!-- 21.10.2020 -->
      <g transform="translate(214.614992 318.688565)rotate(-30)scale(0.1 -0.1)">
       <use xlink:href="#DejaVuSans-32"/>
       <use x="63.623047" xlink:href="#DejaVuSans-31"/>
       <use x="127.246094" xlink:href="#DejaVuSans-2e"/>
       <use x="159.033203" xlink:href="#DejaVuSans-31"/>
       <use x="222.65625" xlink:href="#DejaVuSans-30"/>
       <use x="286.279297" xlink:href="#DejaVuSans-2e"/>
       <use x="318.066406" xlink:href="#DejaVuSans-32"/>
       <use x="381.689453" xlink:href="#DejaVuSans-30"/>
       <use x="445.3125" xlink:href="#DejaVuSans-32"/>
       <use x="508.935547" xlink:href="#DejaVuSans-30"/>
      </g>
     </g>
    </g>
    <g id="xtick_7">
     <g id="line2d_13">
      <path clip-path="url(#p86924d987a)" d="M 300.672044 276.48 
L 300.672044 41.472 
" style="fill:none;stroke:#808080;stroke-dasharray:2.96,1.28;stroke-dashoffset:0;stroke-width:0.8;"/>
     </g>
     <g id="line2d_14">
      <g>
       <use style="stroke:#000000;stroke-width:0.8;" x="300.672044" xlink:href="#mee563d2a49" y="276.48"/>
      </g>
     </g>
     <g id="text_7">
      <!-- 03.12.2020 -->
      <g transform="translate(250.046834 318.688565)rotate(-30)scale(0.1 -0.1)">
       <use xlink:href="#DejaVuSans-30"/>
       <use x="63.623047" xlink:href="#DejaVuSans-33"/>
       <use x="127.246094" xlink:href="#DejaVuSans-2e"/>
       <use x="159.033203" xlink:href="#DejaVuSans-31"/>
       <use x="222.65625" xlink:href="#DejaVuSans-32"/>
       <use x="286.279297" xlink:href="#DejaVuSans-2e"/>
       <use x="318.066406" xlink:href="#DejaVuSans-32"/>
       <use x="381.689453" xlink:href="#DejaVuSans-30"/>
       <use x="445.3125" xlink:href="#DejaVuSans-32"/>
       <use x="508.935547" xlink:href="#DejaVuSans-30"/>
      </g>
     </g>
    </g>
    <g id="xtick_8">
     <g id="line2d_15">
      <path clip-path="url(#p86924d987a)" d="M 336.103886 276.48 
L 336.103886 41.472 
" style="fill:none;stroke:#808080;stroke-dasharray:2.96,1.28;stroke-dashoffset:0;stroke-width:0.8;"/>
     </g>
     <g id="line2d_16">
      <g>
       <use style="stroke:#000000;stroke-width:0.8;" x="336.103886" xlink:href="#mee563d2a49" y="276.48"/>
      </g>
     </g>
     <g id="text_8">
      <!-- 15.01.2021 -->
      <g transform="translate(285.478675 318.688565)rotate(-30)scale(0.1 -0.1)">
       <use xlink:href="#DejaVuSans-31"/>
       <use x="63.623047" xlink:href="#DejaVuSans-35"/>
       <use x="127.246094" xlink:href="#DejaVuSans-2e"/>
       <use x="159.033203" xlink:href="#DejaVuSans-30"/>
       <use x="222.65625" xlink:href="#DejaVuSans-31"/>
       <use x="286.279297" xlink:href="#DejaVuSans-2e"/>
       <use x="318.066406" xlink:href="#DejaVuSans-32"/>
       <use x="381.689453" xlink:href="#DejaVuSans-30"/>
       <use x="445.3125" xlink:href="#DejaVuSans-32"/>
       <use x="508.935547" xlink:href="#DejaVuSans-31"/>
      </g>
     </g>
    </g>
    <g id="xtick_9">
     <g id="line2d_17">
      <path clip-path="url(#p86924d987a)" d="M 371.535727 276.48 
L 371.535727 41.472 
" style="fill:none;stroke:#808080;stroke-dasharray:2.96,1.28;stroke-dashoffset:0;stroke-width:0.8;"/>
     </g>
     <g id="line2d_18">
      <g>
       <use style="stroke:#000000;stroke-width:0.8;" x="371.535727" xlink:href="#mee563d2a49" y="276.48"/>
      </g>
     </g>
     <g id="text_9">
      <!-- 27.02.2021 -->
      <g transform="translate(320.910516 318.688565)rotate(-30)scale(0.1 -0.1)">
       <use xlink:href="#DejaVuSans-32"/>
       <use x="63.623047" xlink:href="#DejaVuSans-37"/>
       <use x="127.246094" xlink:href="#DejaVuSans-2e"/>
       <use x="159.033203" xlink:href="#DejaVuSans-30"/>
       <use x="222.65625" xlink:href="#DejaVuSans-32"/>
       <use x="286.279297" xlink:href="#DejaVuSans-2e"/>
       <use x="318.066406" xlink:href="#DejaVuSans-32"/>
       <use x="381.689453" xlink:href="#DejaVuSans-30"/>
       <use x="445.3125" xlink:href="#DejaVuSans-32"/>
       <use x="508.935547" xlink:href="#DejaVuSans-31"/>
      </g>
     </g>
    </g>
    <g id="xtick_10">
     <g id="line2d_19">
      <path clip-path="url(#p86924d987a)" d="M 406.967568 276.48 
L 406.967568 41.472 
" style="fill:none;stroke:#808080;stroke-dasharray:2.96,1.28;stroke-dashoffset:0;stroke-width:0.8;"/>
     </g>
     <g id="line2d_20">
      <g>
       <use style="stroke:#000000;stroke-width:0.8;" x="406.967568" xlink:href="#mee563d2a49" y="276.48"/>
      </g>
     </g>
     <g id="text_10">
      <!-- 11.04.2021 -->
      <g transform="translate(356.342357 318.688565)rotate(-30)scale(0.1 -0.1)">
       <use xlink:href="#DejaVuSans-31"/>
       <use x="63.623047" xlink:href="#DejaVuSans-31"/>
       <use x="127.246094" xlink:href="#DejaVuSans-2e"/>
       <use x="159.033203" xlink:href="#DejaVuSans-30"/>
       <use x="222.65625" xlink:href="#DejaVuSans-34"/>
       <use x="286.279297" xlink:href="#DejaVuSans-2e"/>
       <use x="318.066406" xlink:href="#DejaVuSans-32"/>
       <use x="381.689453" xlink:href="#DejaVuSans-30"/>
       <use x="445.3125" xlink:href="#DejaVuSans-32"/>
       <use x="508.935547" xlink:href="#DejaVuSans-31"/>
      </g>
     </g>
    </g>
   </g>
   <g id="matplotlib.axis_2">
    <g id="ytick_1">
     <g id="line2d_21">
      <path clip-path="url(#p86924d987a)" d="M 57.6 265.797818 
L 414.72 265.797818 
" style="fill:none;stroke:#808080;stroke-dasharray:2.96,1.28;stroke-dashoffset:0;stroke-width:0.8;"/>
     </g>
     <g id="line2d_22">
      <defs>
       <path d="M 0 0 
L -3.5 0 
" id="m56beca421e" style="stroke:#000000;stroke-width:0.8;"/>
      </defs>
      <g>
       <use style="stroke:#000000;stroke-width:0.8;" x="57.6" xlink:href="#m56beca421e" y="265.797818"/>
      </g>
     </g>
     <g id="text_11">
      <!-- 0 -->
      <g transform="translate(44.2375 269.597037)scale(0.1 -0.1)">
       <use xlink:href="#DejaVuSans-30"/>
      </g>
     </g>
    </g>
    <g id="ytick_2">
     <g id="line2d_23">
      <path clip-path="url(#p86924d987a)" d="M 57.6 216.38208 
L 414.72 216.38208 
" style="fill:none;stroke:#808080;stroke-dasharray:2.96,1.28;stroke-dashoffset:0;stroke-width:0.8;"/>
     </g>
     <g id="line2d_24">
      <g>
       <use style="stroke:#000000;stroke-width:0.8;" x="57.6" xlink:href="#m56beca421e" y="216.38208"/>
      </g>
     </g>
     <g id="text_12">
      <!-- 50 -->
      <g transform="translate(37.875 220.181298)scale(0.1 -0.1)">
       <use xlink:href="#DejaVuSans-35"/>
       <use x="63.623047" xlink:href="#DejaVuSans-30"/>
      </g>
     </g>
    </g>
    <g id="ytick_3">
     <g id="line2d_25">
      <path clip-path="url(#p86924d987a)" d="M 57.6 166.966341 
L 414.72 166.966341 
" style="fill:none;stroke:#808080;stroke-dasharray:2.96,1.28;stroke-dashoffset:0;stroke-width:0.8;"/>
     </g>
     <g id="line2d_26">
      <g>
       <use style="stroke:#000000;stroke-width:0.8;" x="57.6" xlink:href="#m56beca421e" y="166.966341"/>
      </g>
     </g>
     <g id="text_13">
      <!-- 100 -->
      <g transform="translate(31.5125 170.76556)scale(0.1 -0.1)">
       <use xlink:href="#DejaVuSans-31"/>
       <use x="63.623047" xlink:href="#DejaVuSans-30"/>
       <use x="127.246094" xlink:href="#DejaVuSans-30"/>
      </g>
     </g>
    </g>
    <g id="ytick_4">
     <g id="line2d_27">
      <path clip-path="url(#p86924d987a)" d="M 57.6 117.550603 
L 414.72 117.550603 
" style="fill:none;stroke:#808080;stroke-dasharray:2.96,1.28;stroke-dashoffset:0;stroke-width:0.8;"/>
     </g>
     <g id="line2d_28">
      <g>
       <use style="stroke:#000000;stroke-width:0.8;" x="57.6" xlink:href="#m56beca421e" y="117.550603"/>
      </g>
     </g>
     <g id="text_14">
      <!-- 150 -->
      <g transform="translate(31.5125 121.349822)scale(0.1 -0.1)">
       <use xlink:href="#DejaVuSans-31"/>
       <use x="63.623047" xlink:href="#DejaVuSans-35"/>
       <use x="127.246094" xlink:href="#DejaVuSans-30"/>
      </g>
     </g>
    </g>
    <g id="ytick_5">
     <g id="line2d_29">
      <path clip-path="url(#p86924d987a)" d="M 57.6 68.134864 
L 414.72 68.134864 
" style="fill:none;stroke:#808080;stroke-dasharray:2.96,1.28;stroke-dashoffset:0;stroke-width:0.8;"/>
     </g>
     <g id="line2d_30">
      <g>
       <use style="stroke:#000000;stroke-width:0.8;" x="57.6" xlink:href="#m56beca421e" y="68.134864"/>
      </g>
     </g>
     <g id="text_15">
      <!-- 200 -->
      <g transform="translate(31.5125 71.934083)scale(0.1 -0.1)">
       <use xlink:href="#DejaVuSans-32"/>
       <use x="63.623047" xlink:href="#DejaVuSans-30"/>
       <use x="127.246094" xlink:href="#DejaVuSans-30"/>
      </g>
     </g>
    </g>
    <g id="text_16">
     <!-- Inzidenz pro 7 Tage pro 100.000 Einwohner -->
     <g transform="translate(25.432812 267.301)rotate(-90)scale(0.1 -0.1)">
      <defs>
       <path d="M 628 4666 
L 1259 4666 
L 1259 0 
L 628 0 
L 628 4666 
z
" id="DejaVuSans-49" transform="scale(0.015625)"/>
       <path d="M 3513 2113 
L 3513 0 
L 2938 0 
L 2938 2094 
Q 2938 2591 2744 2837 
Q 2550 3084 2163 3084 
Q 1697 3084 1428 2787 
Q 1159 2491 1159 1978 
L 1159 0 
L 581 0 
L 581 3500 
L 1159 3500 
L 1159 2956 
Q 1366 3272 1645 3428 
Q 1925 3584 2291 3584 
Q 2894 3584 3203 3211 
Q 3513 2838 3513 2113 
z
" id="DejaVuSans-6e" transform="scale(0.015625)"/>
       <path d="M 353 3500 
L 3084 3500 
L 3084 2975 
L 922 459 
L 3084 459 
L 3084 0 
L 275 0 
L 275 525 
L 2438 3041 
L 353 3041 
L 353 3500 
z
" id="DejaVuSans-7a" transform="scale(0.015625)"/>
       <path d="M 603 3500 
L 1178 3500 
L 1178 0 
L 603 0 
L 603 3500 
z
M 603 4863 
L 1178 4863 
L 1178 4134 
L 603 4134 
L 603 4863 
z
" id="DejaVuSans-69" transform="scale(0.015625)"/>
       <path d="M 2906 2969 
L 2906 4863 
L 3481 4863 
L 3481 0 
L 2906 0 
L 2906 525 
Q 2725 213 2448 61 
Q 2172 -91 1784 -91 
Q 1150 -91 751 415 
Q 353 922 353 1747 
Q 353 2572 751 3078 
Q 1150 3584 1784 3584 
Q 2172 3584 2448 3432 
Q 2725 3281 2906 2969 
z
M 947 1747 
Q 947 1113 1208 752 
Q 1469 391 1925 391 
Q 2381 391 2643 752 
Q 2906 1113 2906 1747 
Q 2906 2381 2643 2742 
Q 2381 3103 1925 3103 
Q 1469 3103 1208 2742 
Q 947 2381 947 1747 
z
" id="DejaVuSans-64" transform="scale(0.015625)"/>
       <path d="M 3597 1894 
L 3597 1613 
L 953 1613 
Q 991 1019 1311 708 
Q 1631 397 2203 397 
Q 2534 397 2845 478 
Q 3156 559 3463 722 
L 3463 178 
Q 3153 47 2828 -22 
Q 2503 -91 2169 -91 
Q 1331 -91 842 396 
Q 353 884 353 1716 
Q 353 2575 817 3079 
Q 1281 3584 2069 3584 
Q 2775 3584 3186 3129 
Q 3597 2675 3597 1894 
z
M 3022 2063 
Q 3016 2534 2758 2815 
Q 2500 3097 2075 3097 
Q 1594 3097 1305 2825 
Q 1016 2553 972 2059 
L 3022 2063 
z
" id="DejaVuSans-65" transform="scale(0.015625)"/>
       <path id="DejaVuSans-20" transform="scale(0.015625)"/>
       <path d="M 1159 525 
L 1159 -1331 
L 581 -1331 
L 581 3500 
L 1159 3500 
L 1159 2969 
Q 1341 3281 1617 3432 
Q 1894 3584 2278 3584 
Q 2916 3584 3314 3078 
Q 3713 2572 3713 1747 
Q 3713 922 3314 415 
Q 2916 -91 2278 -91 
Q 1894 -91 1617 61 
Q 1341 213 1159 525 
z
M 3116 1747 
Q 3116 2381 2855 2742 
Q 2594 3103 2138 3103 
Q 1681 3103 1420 2742 
Q 1159 2381 1159 1747 
Q 1159 1113 1420 752 
Q 1681 391 2138 391 
Q 2594 391 2855 752 
Q 3116 1113 3116 1747 
z
" id="DejaVuSans-70" transform="scale(0.015625)"/>
       <path d="M 2631 2963 
Q 2534 3019 2420 3045 
Q 2306 3072 2169 3072 
Q 1681 3072 1420 2755 
Q 1159 2438 1159 1844 
L 1159 0 
L 581 0 
L 581 3500 
L 1159 3500 
L 1159 2956 
Q 1341 3275 1631 3429 
Q 1922 3584 2338 3584 
Q 2397 3584 2469 3576 
Q 2541 3569 2628 3553 
L 2631 2963 
z
" id="DejaVuSans-72" transform="scale(0.015625)"/>
       <path d="M 1959 3097 
Q 1497 3097 1228 2736 
Q 959 2375 959 1747 
Q 959 1119 1226 758 
Q 1494 397 1959 397 
Q 2419 397 2687 759 
Q 2956 1122 2956 1747 
Q 2956 2369 2687 2733 
Q 2419 3097 1959 3097 
z
M 1959 3584 
Q 2709 3584 3137 3096 
Q 3566 2609 3566 1747 
Q 3566 888 3137 398 
Q 2709 -91 1959 -91 
Q 1206 -91 779 398 
Q 353 888 353 1747 
Q 353 2609 779 3096 
Q 1206 3584 1959 3584 
z
" id="DejaVuSans-6f" transform="scale(0.015625)"/>
       <path d="M -19 4666 
L 3928 4666 
L 3928 4134 
L 2272 4134 
L 2272 0 
L 1638 0 
L 1638 4134 
L -19 4134 
L -19 4666 
z
" id="DejaVuSans-54" transform="scale(0.015625)"/>
       <path d="M 2194 1759 
Q 1497 1759 1228 1600 
Q 959 1441 959 1056 
Q 959 750 1161 570 
Q 1363 391 1709 391 
Q 2188 391 2477 730 
Q 2766 1069 2766 1631 
L 2766 1759 
L 2194 1759 
z
M 3341 1997 
L 3341 0 
L 2766 0 
L 2766 531 
Q 2569 213 2275 61 
Q 1981 -91 1556 -91 
Q 1019 -91 701 211 
Q 384 513 384 1019 
Q 384 1609 779 1909 
Q 1175 2209 1959 2209 
L 2766 2209 
L 2766 2266 
Q 2766 2663 2505 2880 
Q 2244 3097 1772 3097 
Q 1472 3097 1187 3025 
Q 903 2953 641 2809 
L 641 3341 
Q 956 3463 1253 3523 
Q 1550 3584 1831 3584 
Q 2591 3584 2966 3190 
Q 3341 2797 3341 1997 
z
" id="DejaVuSans-61" transform="scale(0.015625)"/>
       <path d="M 2906 1791 
Q 2906 2416 2648 2759 
Q 2391 3103 1925 3103 
Q 1463 3103 1205 2759 
Q 947 2416 947 1791 
Q 947 1169 1205 825 
Q 1463 481 1925 481 
Q 2391 481 2648 825 
Q 2906 1169 2906 1791 
z
M 3481 434 
Q 3481 -459 3084 -895 
Q 2688 -1331 1869 -1331 
Q 1566 -1331 1297 -1286 
Q 1028 -1241 775 -1147 
L 775 -588 
Q 1028 -725 1275 -790 
Q 1522 -856 1778 -856 
Q 2344 -856 2625 -561 
Q 2906 -266 2906 331 
L 2906 616 
Q 2728 306 2450 153 
Q 2172 0 1784 0 
Q 1141 0 747 490 
Q 353 981 353 1791 
Q 353 2603 747 3093 
Q 1141 3584 1784 3584 
Q 2172 3584 2450 3431 
Q 2728 3278 2906 2969 
L 2906 3500 
L 3481 3500 
L 3481 434 
z
" id="DejaVuSans-67" transform="scale(0.015625)"/>
       <path d="M 628 4666 
L 3578 4666 
L 3578 4134 
L 1259 4134 
L 1259 2753 
L 3481 2753 
L 3481 2222 
L 1259 2222 
L 1259 531 
L 3634 531 
L 3634 0 
L 628 0 
L 628 4666 
z
" id="DejaVuSans-45" transform="scale(0.015625)"/>
       <path d="M 269 3500 
L 844 3500 
L 1563 769 
L 2278 3500 
L 2956 3500 
L 3675 769 
L 4391 3500 
L 4966 3500 
L 4050 0 
L 3372 0 
L 2619 2869 
L 1863 0 
L 1184 0 
L 269 3500 
z
" id="DejaVuSans-77" transform="scale(0.015625)"/>
       <path d="M 3513 2113 
L 3513 0 
L 2938 0 
L 2938 2094 
Q 2938 2591 2744 2837 
Q 2550 3084 2163 3084 
Q 1697 3084 1428 2787 
Q 1159 2491 1159 1978 
L 1159 0 
L 581 0 
L 581 4863 
L 1159 4863 
L 1159 2956 
Q 1366 3272 1645 3428 
Q 1925 3584 2291 3584 
Q 2894 3584 3203 3211 
Q 3513 2838 3513 2113 
z
" id="DejaVuSans-68" transform="scale(0.015625)"/>
      </defs>
      <use xlink:href="#DejaVuSans-49"/>
      <use x="29.492188" xlink:href="#DejaVuSans-6e"/>
      <use x="92.871094" xlink:href="#DejaVuSans-7a"/>
      <use x="145.361328" xlink:href="#DejaVuSans-69"/>
      <use x="173.144531" xlink:href="#DejaVuSans-64"/>
      <use x="236.621094" xlink:href="#DejaVuSans-65"/>
      <use x="298.144531" xlink:href="#DejaVuSans-6e"/>
      <use x="361.523438" xlink:href="#DejaVuSans-7a"/>
      <use x="414.013672" xlink:href="#DejaVuSans-20"/>
      <use x="445.800781" xlink:href="#DejaVuSans-70"/>
      <use x="509.277344" xlink:href="#DejaVuSans-72"/>
      <use x="548.140625" xlink:href="#DejaVuSans-6f"/>
      <use x="609.322266" xlink:href="#DejaVuSans-20"/>
      <use x="641.109375" xlink:href="#DejaVuSans-37"/>
      <use x="704.732422" xlink:href="#DejaVuSans-20"/>
      <use x="736.519531" xlink:href="#DejaVuSans-54"/>
      <use x="781.103516" xlink:href="#DejaVuSans-61"/>
      <use x="842.382812" xlink:href="#DejaVuSans-67"/>
      <use x="905.859375" xlink:href="#DejaVuSans-65"/>
      <use x="967.382812" xlink:href="#DejaVuSans-20"/>
      <use x="999.169922" xlink:href="#DejaVuSans-70"/>
      <use x="1062.646484" xlink:href="#DejaVuSans-72"/>
      <use x="1101.509766" xlink:href="#DejaVuSans-6f"/>
      <use x="1162.691406" xlink:href="#DejaVuSans-20"/>
      <use x="1194.478516" xlink:href="#DejaVuSans-31"/>
      <use x="1258.101562" xlink:href="#DejaVuSans-30"/>
      <use x="1321.724609" xlink:href="#DejaVuSans-30"/>
      <use x="1385.347656" xlink:href="#DejaVuSans-2e"/>
      <use x="1417.134766" xlink:href="#DejaVuSans-30"/>
      <use x="1480.757812" xlink:href="#DejaVuSans-30"/>
      <use x="1544.380859" xlink:href="#DejaVuSans-30"/>
      <use x="1608.003906" xlink:href="#DejaVuSans-20"/>
      <use x="1639.791016" xlink:href="#DejaVuSans-45"/>
      <use x="1702.974609" xlink:href="#DejaVuSans-69"/>
      <use x="1730.757812" xlink:href="#DejaVuSans-6e"/>
      <use x="1794.136719" xlink:href="#DejaVuSans-77"/>
      <use x="1875.923828" xlink:href="#DejaVuSans-6f"/>
      <use x="1937.105469" xlink:href="#DejaVuSans-68"/>
      <use x="2000.484375" xlink:href="#DejaVuSans-6e"/>
      <use x="2063.863281" xlink:href="#DejaVuSans-65"/>
      <use x="2125.386719" xlink:href="#DejaVuSans-72"/>
     </g>
    </g>
   </g>
   <g id="line2d_31">
    <path clip-path="url(#p86924d987a)" d="M 73.832727 265.451556 
L 74.656724 265.105294 
L 75.48072 265.105294 
L 77.128713 264.41277 
L 78.776705 264.41277 
L 79.600701 263.720246 
L 80.424698 262.335198 
L 81.248694 259.565103 
L 82.07269 257.487531 
L 82.896687 251.601077 
L 83.720683 249.523506 
L 84.544679 248.830982 
L 85.368676 243.983314 
L 86.192672 237.404337 
L 87.840665 229.440311 
L 88.664661 232.902931 
L 89.488657 232.556669 
L 90.312653 233.249193 
L 91.13665 226.670215 
L 91.960646 210.049641 
L 92.784642 205.894497 
L 93.608639 204.509449 
L 94.432635 198.276734 
L 95.256631 198.622996 
L 96.080628 198.622996 
L 96.904624 203.124401 
L 97.72862 222.515072 
L 98.552617 229.440311 
L 99.376613 232.902931 
L 100.200609 239.82817 
L 101.024605 237.058075 
L 101.848602 236.711813 
L 102.672598 240.174432 
L 103.496594 239.481908 
L 104.320591 241.213218 
L 105.144587 241.905742 
L 105.968583 242.944528 
L 106.79258 246.060886 
L 107.616576 245.714624 
L 108.440572 250.216029 
L 109.264569 255.409959 
L 110.088565 252.986125 
L 110.912561 254.024911 
L 111.736557 253.678649 
L 112.560554 254.371173 
L 114.208546 253.678649 
L 115.032543 252.986125 
L 115.856539 256.795007 
L 116.680535 257.487531 
L 117.504532 257.487531 
L 118.328528 257.833793 
L 119.152524 258.872579 
L 119.976521 259.218841 
L 120.800517 260.257627 
L 121.624513 260.603889 
L 122.448509 261.988936 
L 124.096502 264.066508 
L 124.920498 264.41277 
L 125.744495 261.296413 
L 128.216484 262.335198 
L 129.04048 262.335198 
L 130.688473 261.642675 
L 131.512469 264.41277 
L 133.160461 265.105294 
L 133.984458 264.759032 
L 134.808454 265.105294 
L 137.280443 265.105294 
L 138.104439 264.41277 
L 138.928436 264.41277 
L 139.752432 264.759032 
L 142.224421 264.759032 
L 143.048417 265.105294 
L 143.872413 265.797818 
L 144.69641 265.797818 
L 145.520406 265.451556 
L 150.464384 265.451556 
L 151.28838 265.797818 
L 154.584365 265.797818 
L 155.408362 265.451556 
L 157.056354 265.451556 
L 157.880351 265.105294 
L 160.35234 265.105294 
L 161.176336 265.451556 
L 162.824329 265.451556 
L 163.648325 265.797818 
L 167.768306 265.797818 
L 168.592303 265.451556 
L 169.416299 265.451556 
L 170.240295 265.105294 
L 171.064292 265.105294 
L 171.888288 264.066508 
L 172.712284 264.066508 
L 175.184273 263.027722 
L 176.008269 263.373984 
L 176.832266 263.373984 
L 177.656262 262.335198 
L 178.480258 262.335198 
L 180.952247 263.373984 
L 181.776244 263.027722 
L 182.60024 263.027722 
L 183.424236 265.105294 
L 184.248233 264.41277 
L 185.072229 264.41277 
L 185.896225 263.720246 
L 186.720222 261.642675 
L 187.544218 261.988936 
L 188.368214 261.988936 
L 189.19221 259.911365 
L 190.016207 260.257627 
L 190.840203 259.911365 
L 191.664199 260.950151 
L 192.488196 262.68146 
L 193.312192 262.335198 
L 194.136188 262.335198 
L 194.960185 262.68146 
L 195.784181 262.335198 
L 196.608177 260.603889 
L 197.432174 259.565103 
L 198.25617 258.872579 
L 199.080166 259.218841 
L 199.904162 259.218841 
L 200.728159 260.257627 
L 201.552155 258.526317 
L 202.376151 260.257627 
L 203.200148 259.218841 
L 204.024144 259.565103 
L 204.84814 259.565103 
L 205.672137 259.218841 
L 206.496133 258.180055 
L 207.320129 259.565103 
L 208.144126 258.526317 
L 208.968122 260.257627 
L 209.792118 259.911365 
L 210.616114 258.180055 
L 211.440111 258.180055 
L 212.264107 257.487531 
L 213.088103 254.371173 
L 213.9121 252.293601 
L 215.560092 249.523506 
L 216.384089 249.523506 
L 217.208085 248.830982 
L 218.032081 246.407148 
L 218.856078 248.48472 
L 219.680074 249.523506 
L 220.50407 249.869767 
L 221.328066 251.254815 
L 222.152063 252.293601 
L 222.976059 252.986125 
L 223.800055 257.141269 
L 224.624052 252.293601 
L 225.448048 253.332387 
L 226.272044 250.908553 
L 227.096041 250.562291 
L 227.920037 248.48472 
L 228.744033 247.792196 
L 229.56803 246.75341 
L 230.392026 249.869767 
L 231.216022 248.48472 
L 232.040018 250.562291 
L 232.864015 250.562291 
L 233.688011 252.986125 
L 234.512007 253.678649 
L 235.336004 254.024911 
L 236.16 255.409959 
L 236.983996 256.102483 
L 237.807993 256.448745 
L 239.455985 255.756221 
L 240.279982 254.717435 
L 241.103978 255.063697 
L 241.927974 256.795007 
L 242.75197 257.833793 
L 243.575967 257.833793 
L 244.399963 258.526317 
L 246.047956 258.526317 
L 246.871952 257.487531 
L 247.695948 257.833793 
L 248.519945 258.526317 
L 249.343941 257.833793 
L 250.167937 257.833793 
L 250.991934 258.180055 
L 251.81593 258.180055 
L 252.639926 257.141269 
L 253.463922 254.717435 
L 254.287919 253.332387 
L 255.111915 251.601077 
L 256.759908 249.523506 
L 257.583904 249.177244 
L 258.4079 251.601077 
L 259.231897 250.562291 
L 260.055893 245.0221 
L 260.879889 245.0221 
L 261.703886 242.944528 
L 262.527882 241.213218 
L 263.351878 241.55948 
L 264.175874 235.326765 
L 264.999871 234.980503 
L 266.647863 229.094049 
L 267.47186 227.016477 
L 268.295856 225.285168 
L 269.119852 225.285168 
L 269.943849 220.4375 
L 270.767845 211.434689 
L 271.591841 214.204784 
L 272.415838 207.625807 
L 273.239834 203.816925 
L 274.06383 202.431877 
L 274.887826 196.545424 
L 275.711823 198.622996 
L 276.535819 196.891686 
L 277.359815 192.736542 
L 278.183812 186.850089 
L 279.007808 185.465041 
L 279.831804 182.348683 
L 280.655801 184.426255 
L 281.479797 183.733731 
L 282.303793 184.079993 
L 283.12779 178.886063 
L 283.951786 180.617373 
L 284.775782 174.73092 
L 285.599778 165.381846 
L 286.423775 168.498204 
L 287.247771 167.80568 
L 288.071767 156.379035 
L 288.895764 156.032773 
L 289.71976 161.919227 
L 290.543756 163.996799 
L 291.367753 175.769706 
L 292.191749 171.2683 
L 293.015745 174.384658 
L 293.839742 188.927661 
L 294.663738 197.58421 
L 295.487734 193.775328 
L 296.311731 186.850089 
L 297.135727 175.077182 
L 297.959723 172.99961 
L 298.783719 168.498204 
L 299.607716 167.113156 
L 300.431712 158.110345 
L 301.255708 160.187917 
L 302.079705 162.958013 
L 302.903701 171.2683 
L 304.551694 176.115968 
L 305.37569 164.343061 
L 306.199686 158.802869 
L 307.023683 138.373413 
L 307.847679 135.603317 
L 308.671675 126.946768 
L 309.495671 130.063125 
L 310.319668 124.869196 
L 311.143664 124.869196 
L 311.96766 127.985554 
L 312.791657 126.946768 
L 313.615653 97.5145 
L 314.439649 95.78319 
L 315.263646 87.126641 
L 316.087642 89.204213 
L 316.911638 86.087855 
L 317.735635 69.813542 
L 318.559631 75.007472 
L 319.383627 115.520123 
L 320.207623 131.794435 
L 321.03162 135.949579 
L 321.855616 135.949579 
L 322.679612 138.027151 
L 323.503609 130.063125 
L 324.327605 133.872007 
L 325.151601 136.988365 
L 325.975598 125.907982 
L 326.799594 131.448173 
L 327.62359 134.910793 
L 328.447587 102.015906 
L 329.271583 118.982742 
L 330.095579 117.597694 
L 330.919575 83.664021 
L 331.743572 78.12383 
L 332.567568 67.735971 
L 333.391564 65.658399 
L 334.215561 77.777568 
L 335.039557 52.154182 
L 335.863553 54.924278 
L 336.68755 73.622424 
L 337.511546 56.655587 
L 338.335542 59.425683 
L 339.159539 64.965875 
L 339.983535 76.738782 
L 340.807531 101.323382 
L 341.631527 98.899548 
L 342.455524 105.132263 
L 343.27952 126.600506 
L 344.103516 135.257055 
L 344.927513 136.642103 
L 345.751509 155.686511 
L 346.575505 163.304275 
L 347.399502 173.692134 
L 348.223498 179.232325 
L 349.047494 183.041207 
L 349.871491 183.387469 
L 350.695487 185.118779 
L 351.519483 185.465041 
L 353.167476 200.008044 
L 353.991472 201.04683 
L 354.815468 205.894497 
L 355.639465 203.124401 
L 356.463461 203.470663 
L 357.287457 208.664593 
L 358.111454 205.201973 
L 358.93545 208.318331 
L 359.759446 213.51226 
L 360.583443 214.204784 
L 361.407439 215.24357 
L 362.231435 214.551046 
L 363.055431 216.97488 
L 363.879428 228.401525 
L 364.703424 227.709001 
L 365.52742 221.822548 
L 366.351417 224.592644 
L 367.175413 224.592644 
L 367.999409 225.631429 
L 368.823406 227.016477 
L 369.647402 224.246382 
L 370.471398 222.861334 
L 371.295395 221.822548 
L 372.119391 217.321142 
L 372.943387 215.24357 
L 373.767383 213.858522 
L 374.59138 205.548235 
L 375.415376 204.509449 
L 376.239372 208.318331 
L 377.063369 214.897308 
L 377.887365 218.70619 
L 378.711361 213.858522 
L 379.535358 214.897308 
L 380.359354 218.013666 
L 382.831343 202.085615 
L 383.655339 194.814114 
L 384.479335 202.431877 
L 385.303332 200.008044 
L 386.127328 193.082804 
L 386.951324 193.775328 
L 387.775321 192.39028 
L 388.599317 186.157565 
L 389.423313 182.002421 
L 390.24731 182.694945 
L 391.071306 180.963635 
L 391.895302 183.041207 
L 392.719299 169.53699 
L 394.367291 159.495393 
L 395.191287 159.841655 
L 396.015284 149.453796 
L 396.83928 151.87763 
L 397.663276 160.534179 
L 398.487273 165.381846 
L 398.487273 165.381846 
" style="fill:none;stroke:#1f77b4;stroke-linecap:square;stroke-width:1.5;"/>
   </g>
   <g id="patch_3">
    <path d="M 57.6 276.48 
L 57.6 41.472 
" style="fill:none;stroke:#000000;stroke-linecap:square;stroke-linejoin:miter;stroke-width:0.8;"/>
   </g>
   <g id="patch_4">
    <path d="M 414.72 276.48 
L 414.72 41.472 
" style="fill:none;stroke:#000000;stroke-linecap:square;stroke-linejoin:miter;stroke-width:0.8;"/>
   </g>
   <g id="patch_5">
    <path d="M 57.6 276.48 
L 414.72 276.48 
" style="fill:none;stroke:#000000;stroke-linecap:square;stroke-linejoin:miter;stroke-width:0.8;"/>
   </g>
   <g id="patch_6">
    <path d="M 57.6 41.472 
L 414.72 41.472 
" style="fill:none;stroke:#000000;stroke-linecap:square;stroke-linejoin:miter;stroke-width:0.8;"/>
   </g>
  </g>
  <g id="text_17">
   <!-- Inzidenzverlauf LK Ravensburg -->
   <g transform="translate(91.5525 20.589187)scale(0.18 -0.18)">
    <defs>
     <path d="M 191 3500 
L 800 3500 
L 1894 563 
L 2988 3500 
L 3597 3500 
L 2284 0 
L 1503 0 
L 191 3500 
z
" id="DejaVuSans-76" transform="scale(0.015625)"/>
     <path d="M 603 4863 
L 1178 4863 
L 1178 0 
L 603 0 
L 603 4863 
z
" id="DejaVuSans-6c" transform="scale(0.015625)"/>
     <path d="M 544 1381 
L 544 3500 
L 1119 3500 
L 1119 1403 
Q 1119 906 1312 657 
Q 1506 409 1894 409 
Q 2359 409 2629 706 
Q 2900 1003 2900 1516 
L 2900 3500 
L 3475 3500 
L 3475 0 
L 2900 0 
L 2900 538 
Q 2691 219 2414 64 
Q 2138 -91 1772 -91 
Q 1169 -91 856 284 
Q 544 659 544 1381 
z
M 1991 3584 
L 1991 3584 
z
" id="DejaVuSans-75" transform="scale(0.015625)"/>
     <path d="M 2375 4863 
L 2375 4384 
L 1825 4384 
Q 1516 4384 1395 4259 
Q 1275 4134 1275 3809 
L 1275 3500 
L 2222 3500 
L 2222 3053 
L 1275 3053 
L 1275 0 
L 697 0 
L 697 3053 
L 147 3053 
L 147 3500 
L 697 3500 
L 697 3744 
Q 697 4328 969 4595 
Q 1241 4863 1831 4863 
L 2375 4863 
z
" id="DejaVuSans-66" transform="scale(0.015625)"/>
     <path d="M 628 4666 
L 1259 4666 
L 1259 531 
L 3531 531 
L 3531 0 
L 628 0 
L 628 4666 
z
" id="DejaVuSans-4c" transform="scale(0.015625)"/>
     <path d="M 628 4666 
L 1259 4666 
L 1259 2694 
L 3353 4666 
L 4166 4666 
L 1850 2491 
L 4331 0 
L 3500 0 
L 1259 2247 
L 1259 0 
L 628 0 
L 628 4666 
z
" id="DejaVuSans-4b" transform="scale(0.015625)"/>
     <path d="M 2841 2188 
Q 3044 2119 3236 1894 
Q 3428 1669 3622 1275 
L 4263 0 
L 3584 0 
L 2988 1197 
Q 2756 1666 2539 1819 
Q 2322 1972 1947 1972 
L 1259 1972 
L 1259 0 
L 628 0 
L 628 4666 
L 2053 4666 
Q 2853 4666 3247 4331 
Q 3641 3997 3641 3322 
Q 3641 2881 3436 2590 
Q 3231 2300 2841 2188 
z
M 1259 4147 
L 1259 2491 
L 2053 2491 
Q 2509 2491 2742 2702 
Q 2975 2913 2975 3322 
Q 2975 3731 2742 3939 
Q 2509 4147 2053 4147 
L 1259 4147 
z
" id="DejaVuSans-52" transform="scale(0.015625)"/>
     <path d="M 2834 3397 
L 2834 2853 
Q 2591 2978 2328 3040 
Q 2066 3103 1784 3103 
Q 1356 3103 1142 2972 
Q 928 2841 928 2578 
Q 928 2378 1081 2264 
Q 1234 2150 1697 2047 
L 1894 2003 
Q 2506 1872 2764 1633 
Q 3022 1394 3022 966 
Q 3022 478 2636 193 
Q 2250 -91 1575 -91 
Q 1294 -91 989 -36 
Q 684 19 347 128 
L 347 722 
Q 666 556 975 473 
Q 1284 391 1588 391 
Q 1994 391 2212 530 
Q 2431 669 2431 922 
Q 2431 1156 2273 1281 
Q 2116 1406 1581 1522 
L 1381 1569 
Q 847 1681 609 1914 
Q 372 2147 372 2553 
Q 372 3047 722 3315 
Q 1072 3584 1716 3584 
Q 2034 3584 2315 3537 
Q 2597 3491 2834 3397 
z
" id="DejaVuSans-73" transform="scale(0.015625)"/>
     <path d="M 3116 1747 
Q 3116 2381 2855 2742 
Q 2594 3103 2138 3103 
Q 1681 3103 1420 2742 
Q 1159 2381 1159 1747 
Q 1159 1113 1420 752 
Q 1681 391 2138 391 
Q 2594 391 2855 752 
Q 3116 1113 3116 1747 
z
M 1159 2969 
Q 1341 3281 1617 3432 
Q 1894 3584 2278 3584 
Q 2916 3584 3314 3078 
Q 3713 2572 3713 1747 
Q 3713 922 3314 415 
Q 2916 -91 2278 -91 
Q 1894 -91 1617 61 
Q 1341 213 1159 525 
L 1159 0 
L 581 0 
L 581 4863 
L 1159 4863 
L 1159 2969 
z
" id="DejaVuSans-62" transform="scale(0.015625)"/>
    </defs>
    <use xlink:href="#DejaVuSans-49"/>
    <use x="29.492188" xlink:href="#DejaVuSans-6e"/>
    <use x="92.871094" xlink:href="#DejaVuSans-7a"/>
    <use x="145.361328" xlink:href="#DejaVuSans-69"/>
    <use x="173.144531" xlink:href="#DejaVuSans-64"/>
    <use x="236.621094" xlink:href="#DejaVuSans-65"/>
    <use x="298.144531" xlink:href="#DejaVuSans-6e"/>
    <use x="361.523438" xlink:href="#DejaVuSans-7a"/>
    <use x="414.013672" xlink:href="#DejaVuSans-76"/>
    <use x="473.193359" xlink:href="#DejaVuSans-65"/>
    <use x="534.716797" xlink:href="#DejaVuSans-72"/>
    <use x="575.830078" xlink:href="#DejaVuSans-6c"/>
    <use x="603.613281" xlink:href="#DejaVuSans-61"/>
    <use x="664.892578" xlink:href="#DejaVuSans-75"/>
    <use x="728.271484" xlink:href="#DejaVuSans-66"/>
    <use x="763.476562" xlink:href="#DejaVuSans-20"/>
    <use x="795.263672" xlink:href="#DejaVuSans-4c"/>
    <use x="850.976562" xlink:href="#DejaVuSans-4b"/>
    <use x="916.552734" xlink:href="#DejaVuSans-20"/>
    <use x="948.339844" xlink:href="#DejaVuSans-52"/>
    <use x="1015.572266" xlink:href="#DejaVuSans-61"/>
    <use x="1076.851562" xlink:href="#DejaVuSans-76"/>
    <use x="1136.03125" xlink:href="#DejaVuSans-65"/>
    <use x="1197.554688" xlink:href="#DejaVuSans-6e"/>
    <use x="1260.933594" xlink:href="#DejaVuSans-73"/>
    <use x="1313.033203" xlink:href="#DejaVuSans-62"/>
    <use x="1376.509766" xlink:href="#DejaVuSans-75"/>
    <use x="1439.888672" xlink:href="#DejaVuSans-72"/>
    <use x="1479.251953" xlink:href="#DejaVuSans-67"/>
   </g>
  </g>
 </g>
 <defs>
  <clipPath id="p86924d987a">
   <rect height="235.008" width="357.12" x="57.6" y="41.472"/>
  </clipPath>
 </defs>
</svg>
