<?xml version="1.0" encoding="utf-8" standalone="no"?>
<!DOCTYPE svg PUBLIC "-//W3C//DTD SVG 1.1//EN"
  "http://www.w3.org/Graphics/SVG/1.1/DTD/svg11.dtd">
<svg xmlns:xlink="http://www.w3.org/1999/xlink" width="460.8pt" height="345.6pt" viewBox="0 0 460.8 345.6" xmlns="http://www.w3.org/2000/svg" version="1.1">
 <metadata>
  <rdf:RDF xmlns:dc="http://purl.org/dc/elements/1.1/" xmlns:cc="http://creativecommons.org/ns#" xmlns:rdf="http://www.w3.org/1999/02/22-rdf-syntax-ns#">
   <cc:Work>
    <dc:type rdf:resource="http://purl.org/dc/dcmitype/StillImage"/>
    <dc:date>2022-08-07T09:20:09.885694</dc:date>
    <dc:format>image/svg+xml</dc:format>
    <dc:creator>
     <cc:Agent>
      <dc:title>Matplotlib v3.5.2, https://matplotlib.org/</dc:title>
     </cc:Agent>
    </dc:creator>
   </cc:Work>
  </rdf:RDF>
 </metadata>
 <defs>
  <style type="text/css">*{stroke-linejoin: round; stroke-linecap: butt}</style>
 </defs>
 <g id="figure_1">
  <g id="patch_1">
   <path d="M 0 345.6 
L 460.8 345.6 
L 460.8 0 
L 0 0 
z
" style="fill: #ffffff"/>
  </g>
  <g id="axes_1">
   <g id="patch_2">
    <path d="M 57.6 276.48 
L 414.72 276.48 
L 414.72 41.472 
L 57.6 41.472 
z
" style="fill: #ffffff"/>
   </g>
   <g id="matplotlib.axis_1">
    <g id="xtick_1">
     <g id="line2d_1">
      <path d="M 58.566887 276.48 
L 58.566887 41.472 
" clip-path="url(#p3e3eb10fd0)" style="fill: none; stroke-dasharray: 2.96,1.28; stroke-dashoffset: 0; stroke: #808080; stroke-width: 0.8"/>
     </g>
     <g id="line2d_2">
      <defs>
       <path id="m31cfbc110c" d="M 0 0 
L 0 3.5 
" style="stroke: #000000; stroke-width: 0.8"/>
      </defs>
      <g>
       <use xlink:href="#m31cfbc110c" x="58.566887" y="276.48" style="stroke: #000000; stroke-width: 0.8"/>
      </g>
     </g>
     <g id="text_1">
      <!-- 21.01.2020 -->
      <g transform="translate(7.941677 318.688565)rotate(-30)scale(0.1 -0.1)">
       <defs>
        <path id="DejaVuSans-32" d="M 1228 531 
L 3431 531 
L 3431 0 
L 469 0 
L 469 531 
Q 828 903 1448 1529 
Q 2069 2156 2228 2338 
Q 2531 2678 2651 2914 
Q 2772 3150 2772 3378 
Q 2772 3750 2511 3984 
Q 2250 4219 1831 4219 
Q 1534 4219 1204 4116 
Q 875 4013 500 3803 
L 500 4441 
Q 881 4594 1212 4672 
Q 1544 4750 1819 4750 
Q 2544 4750 2975 4387 
Q 3406 4025 3406 3419 
Q 3406 3131 3298 2873 
Q 3191 2616 2906 2266 
Q 2828 2175 2409 1742 
Q 1991 1309 1228 531 
z
" transform="scale(0.015625)"/>
        <path id="DejaVuSans-31" d="M 794 531 
L 1825 531 
L 1825 4091 
L 703 3866 
L 703 4441 
L 1819 4666 
L 2450 4666 
L 2450 531 
L 3481 531 
L 3481 0 
L 794 0 
L 794 531 
z
" transform="scale(0.015625)"/>
        <path id="DejaVuSans-2e" d="M 684 794 
L 1344 794 
L 1344 0 
L 684 0 
L 684 794 
z
" transform="scale(0.015625)"/>
        <path id="DejaVuSans-30" d="M 2034 4250 
Q 1547 4250 1301 3770 
Q 1056 3291 1056 2328 
Q 1056 1369 1301 889 
Q 1547 409 2034 409 
Q 2525 409 2770 889 
Q 3016 1369 3016 2328 
Q 3016 3291 2770 3770 
Q 2525 4250 2034 4250 
z
M 2034 4750 
Q 2819 4750 3233 4129 
Q 3647 3509 3647 2328 
Q 3647 1150 3233 529 
Q 2819 -91 2034 -91 
Q 1250 -91 836 529 
Q 422 1150 422 2328 
Q 422 3509 836 4129 
Q 1250 4750 2034 4750 
z
" transform="scale(0.015625)"/>
       </defs>
       <use xlink:href="#DejaVuSans-32"/>
       <use xlink:href="#DejaVuSans-31" x="63.623047"/>
       <use xlink:href="#DejaVuSans-2e" x="127.246094"/>
       <use xlink:href="#DejaVuSans-30" x="159.033203"/>
       <use xlink:href="#DejaVuSans-31" x="222.65625"/>
       <use xlink:href="#DejaVuSans-2e" x="286.279297"/>
       <use xlink:href="#DejaVuSans-32" x="318.066406"/>
       <use xlink:href="#DejaVuSans-30" x="381.689453"/>
       <use xlink:href="#DejaVuSans-32" x="445.3125"/>
       <use xlink:href="#DejaVuSans-30" x="508.935547"/>
      </g>
     </g>
    </g>
    <g id="xtick_2">
     <g id="line2d_3">
      <path d="M 94.436273 276.48 
L 94.436273 41.472 
" clip-path="url(#p3e3eb10fd0)" style="fill: none; stroke-dasharray: 2.96,1.28; stroke-dashoffset: 0; stroke: #808080; stroke-width: 0.8"/>
     </g>
     <g id="line2d_4">
      <g>
       <use xlink:href="#m31cfbc110c" x="94.436273" y="276.48" style="stroke: #000000; stroke-width: 0.8"/>
      </g>
     </g>
     <g id="text_2">
      <!-- 28.04.2020 -->
      <g transform="translate(43.811063 318.688565)rotate(-30)scale(0.1 -0.1)">
       <defs>
        <path id="DejaVuSans-38" d="M 2034 2216 
Q 1584 2216 1326 1975 
Q 1069 1734 1069 1313 
Q 1069 891 1326 650 
Q 1584 409 2034 409 
Q 2484 409 2743 651 
Q 3003 894 3003 1313 
Q 3003 1734 2745 1975 
Q 2488 2216 2034 2216 
z
M 1403 2484 
Q 997 2584 770 2862 
Q 544 3141 544 3541 
Q 544 4100 942 4425 
Q 1341 4750 2034 4750 
Q 2731 4750 3128 4425 
Q 3525 4100 3525 3541 
Q 3525 3141 3298 2862 
Q 3072 2584 2669 2484 
Q 3125 2378 3379 2068 
Q 3634 1759 3634 1313 
Q 3634 634 3220 271 
Q 2806 -91 2034 -91 
Q 1263 -91 848 271 
Q 434 634 434 1313 
Q 434 1759 690 2068 
Q 947 2378 1403 2484 
z
M 1172 3481 
Q 1172 3119 1398 2916 
Q 1625 2713 2034 2713 
Q 2441 2713 2670 2916 
Q 2900 3119 2900 3481 
Q 2900 3844 2670 4047 
Q 2441 4250 2034 4250 
Q 1625 4250 1398 4047 
Q 1172 3844 1172 3481 
z
" transform="scale(0.015625)"/>
        <path id="DejaVuSans-34" d="M 2419 4116 
L 825 1625 
L 2419 1625 
L 2419 4116 
z
M 2253 4666 
L 3047 4666 
L 3047 1625 
L 3713 1625 
L 3713 1100 
L 3047 1100 
L 3047 0 
L 2419 0 
L 2419 1100 
L 313 1100 
L 313 1709 
L 2253 4666 
z
" transform="scale(0.015625)"/>
       </defs>
       <use xlink:href="#DejaVuSans-32"/>
       <use xlink:href="#DejaVuSans-38" x="63.623047"/>
       <use xlink:href="#DejaVuSans-2e" x="127.246094"/>
       <use xlink:href="#DejaVuSans-30" x="159.033203"/>
       <use xlink:href="#DejaVuSans-34" x="222.65625"/>
       <use xlink:href="#DejaVuSans-2e" x="286.279297"/>
       <use xlink:href="#DejaVuSans-32" x="318.066406"/>
       <use xlink:href="#DejaVuSans-30" x="381.689453"/>
       <use xlink:href="#DejaVuSans-32" x="445.3125"/>
       <use xlink:href="#DejaVuSans-30" x="508.935547"/>
      </g>
     </g>
    </g>
    <g id="xtick_3">
     <g id="line2d_5">
      <path d="M 130.30566 276.48 
L 130.30566 41.472 
" clip-path="url(#p3e3eb10fd0)" style="fill: none; stroke-dasharray: 2.96,1.28; stroke-dashoffset: 0; stroke: #808080; stroke-width: 0.8"/>
     </g>
     <g id="line2d_6">
      <g>
       <use xlink:href="#m31cfbc110c" x="130.30566" y="276.48" style="stroke: #000000; stroke-width: 0.8"/>
      </g>
     </g>
     <g id="text_3">
      <!-- 04.08.2020 -->
      <g transform="translate(79.680449 318.688565)rotate(-30)scale(0.1 -0.1)">
       <use xlink:href="#DejaVuSans-30"/>
       <use xlink:href="#DejaVuSans-34" x="63.623047"/>
       <use xlink:href="#DejaVuSans-2e" x="127.246094"/>
       <use xlink:href="#DejaVuSans-30" x="159.033203"/>
       <use xlink:href="#DejaVuSans-38" x="222.65625"/>
       <use xlink:href="#DejaVuSans-2e" x="286.279297"/>
       <use xlink:href="#DejaVuSans-32" x="318.066406"/>
       <use xlink:href="#DejaVuSans-30" x="381.689453"/>
       <use xlink:href="#DejaVuSans-32" x="445.3125"/>
       <use xlink:href="#DejaVuSans-30" x="508.935547"/>
      </g>
     </g>
    </g>
    <g id="xtick_4">
     <g id="line2d_7">
      <path d="M 166.175046 276.48 
L 166.175046 41.472 
" clip-path="url(#p3e3eb10fd0)" style="fill: none; stroke-dasharray: 2.96,1.28; stroke-dashoffset: 0; stroke: #808080; stroke-width: 0.8"/>
     </g>
     <g id="line2d_8">
      <g>
       <use xlink:href="#m31cfbc110c" x="166.175046" y="276.48" style="stroke: #000000; stroke-width: 0.8"/>
      </g>
     </g>
     <g id="text_4">
      <!-- 10.11.2020 -->
      <g transform="translate(115.549835 318.688565)rotate(-30)scale(0.1 -0.1)">
       <use xlink:href="#DejaVuSans-31"/>
       <use xlink:href="#DejaVuSans-30" x="63.623047"/>
       <use xlink:href="#DejaVuSans-2e" x="127.246094"/>
       <use xlink:href="#DejaVuSans-31" x="159.033203"/>
       <use xlink:href="#DejaVuSans-31" x="222.65625"/>
       <use xlink:href="#DejaVuSans-2e" x="286.279297"/>
       <use xlink:href="#DejaVuSans-32" x="318.066406"/>
       <use xlink:href="#DejaVuSans-30" x="381.689453"/>
       <use xlink:href="#DejaVuSans-32" x="445.3125"/>
       <use xlink:href="#DejaVuSans-30" x="508.935547"/>
      </g>
     </g>
    </g>
    <g id="xtick_5">
     <g id="line2d_9">
      <path d="M 202.044432 276.48 
L 202.044432 41.472 
" clip-path="url(#p3e3eb10fd0)" style="fill: none; stroke-dasharray: 2.96,1.28; stroke-dashoffset: 0; stroke: #808080; stroke-width: 0.8"/>
     </g>
     <g id="line2d_10">
      <g>
       <use xlink:href="#m31cfbc110c" x="202.044432" y="276.48" style="stroke: #000000; stroke-width: 0.8"/>
      </g>
     </g>
     <g id="text_5">
      <!-- 16.02.2021 -->
      <g transform="translate(151.419221 318.688565)rotate(-30)scale(0.1 -0.1)">
       <defs>
        <path id="DejaVuSans-36" d="M 2113 2584 
Q 1688 2584 1439 2293 
Q 1191 2003 1191 1497 
Q 1191 994 1439 701 
Q 1688 409 2113 409 
Q 2538 409 2786 701 
Q 3034 994 3034 1497 
Q 3034 2003 2786 2293 
Q 2538 2584 2113 2584 
z
M 3366 4563 
L 3366 3988 
Q 3128 4100 2886 4159 
Q 2644 4219 2406 4219 
Q 1781 4219 1451 3797 
Q 1122 3375 1075 2522 
Q 1259 2794 1537 2939 
Q 1816 3084 2150 3084 
Q 2853 3084 3261 2657 
Q 3669 2231 3669 1497 
Q 3669 778 3244 343 
Q 2819 -91 2113 -91 
Q 1303 -91 875 529 
Q 447 1150 447 2328 
Q 447 3434 972 4092 
Q 1497 4750 2381 4750 
Q 2619 4750 2861 4703 
Q 3103 4656 3366 4563 
z
" transform="scale(0.015625)"/>
       </defs>
       <use xlink:href="#DejaVuSans-31"/>
       <use xlink:href="#DejaVuSans-36" x="63.623047"/>
       <use xlink:href="#DejaVuSans-2e" x="127.246094"/>
       <use xlink:href="#DejaVuSans-30" x="159.033203"/>
       <use xlink:href="#DejaVuSans-32" x="222.65625"/>
       <use xlink:href="#DejaVuSans-2e" x="286.279297"/>
       <use xlink:href="#DejaVuSans-32" x="318.066406"/>
       <use xlink:href="#DejaVuSans-30" x="381.689453"/>
       <use xlink:href="#DejaVuSans-32" x="445.3125"/>
       <use xlink:href="#DejaVuSans-31" x="508.935547"/>
      </g>
     </g>
    </g>
    <g id="xtick_6">
     <g id="line2d_11">
      <path d="M 237.913818 276.48 
L 237.913818 41.472 
" clip-path="url(#p3e3eb10fd0)" style="fill: none; stroke-dasharray: 2.96,1.28; stroke-dashoffset: 0; stroke: #808080; stroke-width: 0.8"/>
     </g>
     <g id="line2d_12">
      <g>
       <use xlink:href="#m31cfbc110c" x="237.913818" y="276.48" style="stroke: #000000; stroke-width: 0.8"/>
      </g>
     </g>
     <g id="text_6">
      <!-- 25.05.2021 -->
      <g transform="translate(187.288607 318.688565)rotate(-30)scale(0.1 -0.1)">
       <defs>
        <path id="DejaVuSans-35" d="M 691 4666 
L 3169 4666 
L 3169 4134 
L 1269 4134 
L 1269 2991 
Q 1406 3038 1543 3061 
Q 1681 3084 1819 3084 
Q 2600 3084 3056 2656 
Q 3513 2228 3513 1497 
Q 3513 744 3044 326 
Q 2575 -91 1722 -91 
Q 1428 -91 1123 -41 
Q 819 9 494 109 
L 494 744 
Q 775 591 1075 516 
Q 1375 441 1709 441 
Q 2250 441 2565 725 
Q 2881 1009 2881 1497 
Q 2881 1984 2565 2268 
Q 2250 2553 1709 2553 
Q 1456 2553 1204 2497 
Q 953 2441 691 2322 
L 691 4666 
z
" transform="scale(0.015625)"/>
       </defs>
       <use xlink:href="#DejaVuSans-32"/>
       <use xlink:href="#DejaVuSans-35" x="63.623047"/>
       <use xlink:href="#DejaVuSans-2e" x="127.246094"/>
       <use xlink:href="#DejaVuSans-30" x="159.033203"/>
       <use xlink:href="#DejaVuSans-35" x="222.65625"/>
       <use xlink:href="#DejaVuSans-2e" x="286.279297"/>
       <use xlink:href="#DejaVuSans-32" x="318.066406"/>
       <use xlink:href="#DejaVuSans-30" x="381.689453"/>
       <use xlink:href="#DejaVuSans-32" x="445.3125"/>
       <use xlink:href="#DejaVuSans-31" x="508.935547"/>
      </g>
     </g>
    </g>
    <g id="xtick_7">
     <g id="line2d_13">
      <path d="M 273.783204 276.48 
L 273.783204 41.472 
" clip-path="url(#p3e3eb10fd0)" style="fill: none; stroke-dasharray: 2.96,1.28; stroke-dashoffset: 0; stroke: #808080; stroke-width: 0.8"/>
     </g>
     <g id="line2d_14">
      <g>
       <use xlink:href="#m31cfbc110c" x="273.783204" y="276.48" style="stroke: #000000; stroke-width: 0.8"/>
      </g>
     </g>
     <g id="text_7">
      <!-- 31.08.2021 -->
      <g transform="translate(223.157993 318.688565)rotate(-30)scale(0.1 -0.1)">
       <defs>
        <path id="DejaVuSans-33" d="M 2597 2516 
Q 3050 2419 3304 2112 
Q 3559 1806 3559 1356 
Q 3559 666 3084 287 
Q 2609 -91 1734 -91 
Q 1441 -91 1130 -33 
Q 819 25 488 141 
L 488 750 
Q 750 597 1062 519 
Q 1375 441 1716 441 
Q 2309 441 2620 675 
Q 2931 909 2931 1356 
Q 2931 1769 2642 2001 
Q 2353 2234 1838 2234 
L 1294 2234 
L 1294 2753 
L 1863 2753 
Q 2328 2753 2575 2939 
Q 2822 3125 2822 3475 
Q 2822 3834 2567 4026 
Q 2313 4219 1838 4219 
Q 1578 4219 1281 4162 
Q 984 4106 628 3988 
L 628 4550 
Q 988 4650 1302 4700 
Q 1616 4750 1894 4750 
Q 2613 4750 3031 4423 
Q 3450 4097 3450 3541 
Q 3450 3153 3228 2886 
Q 3006 2619 2597 2516 
z
" transform="scale(0.015625)"/>
       </defs>
       <use xlink:href="#DejaVuSans-33"/>
       <use xlink:href="#DejaVuSans-31" x="63.623047"/>
       <use xlink:href="#DejaVuSans-2e" x="127.246094"/>
       <use xlink:href="#DejaVuSans-30" x="159.033203"/>
       <use xlink:href="#DejaVuSans-38" x="222.65625"/>
       <use xlink:href="#DejaVuSans-2e" x="286.279297"/>
       <use xlink:href="#DejaVuSans-32" x="318.066406"/>
       <use xlink:href="#DejaVuSans-30" x="381.689453"/>
       <use xlink:href="#DejaVuSans-32" x="445.3125"/>
       <use xlink:href="#DejaVuSans-31" x="508.935547"/>
      </g>
     </g>
    </g>
    <g id="xtick_8">
     <g id="line2d_15">
      <path d="M 309.65259 276.48 
L 309.65259 41.472 
" clip-path="url(#p3e3eb10fd0)" style="fill: none; stroke-dasharray: 2.96,1.28; stroke-dashoffset: 0; stroke: #808080; stroke-width: 0.8"/>
     </g>
     <g id="line2d_16">
      <g>
       <use xlink:href="#m31cfbc110c" x="309.65259" y="276.48" style="stroke: #000000; stroke-width: 0.8"/>
      </g>
     </g>
     <g id="text_8">
      <!-- 07.12.2021 -->
      <g transform="translate(259.027379 318.688565)rotate(-30)scale(0.1 -0.1)">
       <defs>
        <path id="DejaVuSans-37" d="M 525 4666 
L 3525 4666 
L 3525 4397 
L 1831 0 
L 1172 0 
L 2766 4134 
L 525 4134 
L 525 4666 
z
" transform="scale(0.015625)"/>
       </defs>
       <use xlink:href="#DejaVuSans-30"/>
       <use xlink:href="#DejaVuSans-37" x="63.623047"/>
       <use xlink:href="#DejaVuSans-2e" x="127.246094"/>
       <use xlink:href="#DejaVuSans-31" x="159.033203"/>
       <use xlink:href="#DejaVuSans-32" x="222.65625"/>
       <use xlink:href="#DejaVuSans-2e" x="286.279297"/>
       <use xlink:href="#DejaVuSans-32" x="318.066406"/>
       <use xlink:href="#DejaVuSans-30" x="381.689453"/>
       <use xlink:href="#DejaVuSans-32" x="445.3125"/>
       <use xlink:href="#DejaVuSans-31" x="508.935547"/>
      </g>
     </g>
    </g>
    <g id="xtick_9">
     <g id="line2d_17">
      <path d="M 345.521976 276.48 
L 345.521976 41.472 
" clip-path="url(#p3e3eb10fd0)" style="fill: none; stroke-dasharray: 2.96,1.28; stroke-dashoffset: 0; stroke: #808080; stroke-width: 0.8"/>
     </g>
     <g id="line2d_18">
      <g>
       <use xlink:href="#m31cfbc110c" x="345.521976" y="276.48" style="stroke: #000000; stroke-width: 0.8"/>
      </g>
     </g>
     <g id="text_9">
      <!-- 15.03.2022 -->
      <g transform="translate(294.896765 318.688565)rotate(-30)scale(0.1 -0.1)">
       <use xlink:href="#DejaVuSans-31"/>
       <use xlink:href="#DejaVuSans-35" x="63.623047"/>
       <use xlink:href="#DejaVuSans-2e" x="127.246094"/>
       <use xlink:href="#DejaVuSans-30" x="159.033203"/>
       <use xlink:href="#DejaVuSans-33" x="222.65625"/>
       <use xlink:href="#DejaVuSans-2e" x="286.279297"/>
       <use xlink:href="#DejaVuSans-32" x="318.066406"/>
       <use xlink:href="#DejaVuSans-30" x="381.689453"/>
       <use xlink:href="#DejaVuSans-32" x="445.3125"/>
       <use xlink:href="#DejaVuSans-32" x="508.935547"/>
      </g>
     </g>
    </g>
    <g id="xtick_10">
     <g id="line2d_19">
      <path d="M 381.391362 276.48 
L 381.391362 41.472 
" clip-path="url(#p3e3eb10fd0)" style="fill: none; stroke-dasharray: 2.96,1.28; stroke-dashoffset: 0; stroke: #808080; stroke-width: 0.8"/>
     </g>
     <g id="line2d_20">
      <g>
       <use xlink:href="#m31cfbc110c" x="381.391362" y="276.48" style="stroke: #000000; stroke-width: 0.8"/>
      </g>
     </g>
     <g id="text_10">
      <!-- 21.06.2022 -->
      <g transform="translate(330.766151 318.688565)rotate(-30)scale(0.1 -0.1)">
       <use xlink:href="#DejaVuSans-32"/>
       <use xlink:href="#DejaVuSans-31" x="63.623047"/>
       <use xlink:href="#DejaVuSans-2e" x="127.246094"/>
       <use xlink:href="#DejaVuSans-30" x="159.033203"/>
       <use xlink:href="#DejaVuSans-36" x="222.65625"/>
       <use xlink:href="#DejaVuSans-2e" x="286.279297"/>
       <use xlink:href="#DejaVuSans-32" x="318.066406"/>
       <use xlink:href="#DejaVuSans-30" x="381.689453"/>
       <use xlink:href="#DejaVuSans-32" x="445.3125"/>
       <use xlink:href="#DejaVuSans-32" x="508.935547"/>
      </g>
     </g>
    </g>
   </g>
   <g id="matplotlib.axis_2">
    <g id="ytick_1">
     <g id="line2d_21">
      <path d="M 57.6 265.797818 
L 414.72 265.797818 
" clip-path="url(#p3e3eb10fd0)" style="fill: none; stroke-dasharray: 2.96,1.28; stroke-dashoffset: 0; stroke: #808080; stroke-width: 0.8"/>
     </g>
     <g id="line2d_22">
      <defs>
       <path id="m32c680442e" d="M 0 0 
L -3.5 0 
" style="stroke: #000000; stroke-width: 0.8"/>
      </defs>
      <g>
       <use xlink:href="#m32c680442e" x="57.6" y="265.797818" style="stroke: #000000; stroke-width: 0.8"/>
      </g>
     </g>
     <g id="text_11">
      <!-- 0 -->
      <g transform="translate(44.2375 269.597037)scale(0.1 -0.1)">
       <use xlink:href="#DejaVuSans-30"/>
      </g>
     </g>
    </g>
    <g id="ytick_2">
     <g id="line2d_23">
      <path d="M 57.6 222.800789 
L 414.72 222.800789 
" clip-path="url(#p3e3eb10fd0)" style="fill: none; stroke-dasharray: 2.96,1.28; stroke-dashoffset: 0; stroke: #808080; stroke-width: 0.8"/>
     </g>
     <g id="line2d_24">
      <g>
       <use xlink:href="#m32c680442e" x="57.6" y="222.800789" style="stroke: #000000; stroke-width: 0.8"/>
      </g>
     </g>
     <g id="text_12">
      <!-- 500 -->
      <g transform="translate(31.5125 226.600008)scale(0.1 -0.1)">
       <use xlink:href="#DejaVuSans-35"/>
       <use xlink:href="#DejaVuSans-30" x="63.623047"/>
       <use xlink:href="#DejaVuSans-30" x="127.246094"/>
      </g>
     </g>
    </g>
    <g id="ytick_3">
     <g id="line2d_25">
      <path d="M 57.6 179.803761 
L 414.72 179.803761 
" clip-path="url(#p3e3eb10fd0)" style="fill: none; stroke-dasharray: 2.96,1.28; stroke-dashoffset: 0; stroke: #808080; stroke-width: 0.8"/>
     </g>
     <g id="line2d_26">
      <g>
       <use xlink:href="#m32c680442e" x="57.6" y="179.803761" style="stroke: #000000; stroke-width: 0.8"/>
      </g>
     </g>
     <g id="text_13">
      <!-- 1000 -->
      <g transform="translate(25.15 183.602979)scale(0.1 -0.1)">
       <use xlink:href="#DejaVuSans-31"/>
       <use xlink:href="#DejaVuSans-30" x="63.623047"/>
       <use xlink:href="#DejaVuSans-30" x="127.246094"/>
       <use xlink:href="#DejaVuSans-30" x="190.869141"/>
      </g>
     </g>
    </g>
    <g id="ytick_4">
     <g id="line2d_27">
      <path d="M 57.6 136.806732 
L 414.72 136.806732 
" clip-path="url(#p3e3eb10fd0)" style="fill: none; stroke-dasharray: 2.96,1.28; stroke-dashoffset: 0; stroke: #808080; stroke-width: 0.8"/>
     </g>
     <g id="line2d_28">
      <g>
       <use xlink:href="#m32c680442e" x="57.6" y="136.806732" style="stroke: #000000; stroke-width: 0.8"/>
      </g>
     </g>
     <g id="text_14">
      <!-- 1500 -->
      <g transform="translate(25.15 140.60595)scale(0.1 -0.1)">
       <use xlink:href="#DejaVuSans-31"/>
       <use xlink:href="#DejaVuSans-35" x="63.623047"/>
       <use xlink:href="#DejaVuSans-30" x="127.246094"/>
       <use xlink:href="#DejaVuSans-30" x="190.869141"/>
      </g>
     </g>
    </g>
    <g id="ytick_5">
     <g id="line2d_29">
      <path d="M 57.6 93.809703 
L 414.72 93.809703 
" clip-path="url(#p3e3eb10fd0)" style="fill: none; stroke-dasharray: 2.96,1.28; stroke-dashoffset: 0; stroke: #808080; stroke-width: 0.8"/>
     </g>
     <g id="line2d_30">
      <g>
       <use xlink:href="#m32c680442e" x="57.6" y="93.809703" style="stroke: #000000; stroke-width: 0.8"/>
      </g>
     </g>
     <g id="text_15">
      <!-- 2000 -->
      <g transform="translate(25.15 97.608922)scale(0.1 -0.1)">
       <use xlink:href="#DejaVuSans-32"/>
       <use xlink:href="#DejaVuSans-30" x="63.623047"/>
       <use xlink:href="#DejaVuSans-30" x="127.246094"/>
       <use xlink:href="#DejaVuSans-30" x="190.869141"/>
      </g>
     </g>
    </g>
    <g id="ytick_6">
     <g id="line2d_31">
      <path d="M 57.6 50.812674 
L 414.72 50.812674 
" clip-path="url(#p3e3eb10fd0)" style="fill: none; stroke-dasharray: 2.96,1.28; stroke-dashoffset: 0; stroke: #808080; stroke-width: 0.8"/>
     </g>
     <g id="line2d_32">
      <g>
       <use xlink:href="#m32c680442e" x="57.6" y="50.812674" style="stroke: #000000; stroke-width: 0.8"/>
      </g>
     </g>
     <g id="text_16">
      <!-- 2500 -->
      <g transform="translate(25.15 54.611893)scale(0.1 -0.1)">
       <use xlink:href="#DejaVuSans-32"/>
       <use xlink:href="#DejaVuSans-35" x="63.623047"/>
       <use xlink:href="#DejaVuSans-30" x="127.246094"/>
       <use xlink:href="#DejaVuSans-30" x="190.869141"/>
      </g>
     </g>
    </g>
    <g id="text_17">
     <!-- Inzidenz pro 7 Tage pro 100.000 Einwohner -->
     <g transform="translate(19.070312 267.301)rotate(-90)scale(0.1 -0.1)">
      <defs>
       <path id="DejaVuSans-49" d="M 628 4666 
L 1259 4666 
L 1259 0 
L 628 0 
L 628 4666 
z
" transform="scale(0.015625)"/>
       <path id="DejaVuSans-6e" d="M 3513 2113 
L 3513 0 
L 2938 0 
L 2938 2094 
Q 2938 2591 2744 2837 
Q 2550 3084 2163 3084 
Q 1697 3084 1428 2787 
Q 1159 2491 1159 1978 
L 1159 0 
L 581 0 
L 581 3500 
L 1159 3500 
L 1159 2956 
Q 1366 3272 1645 3428 
Q 1925 3584 2291 3584 
Q 2894 3584 3203 3211 
Q 3513 2838 3513 2113 
z
" transform="scale(0.015625)"/>
       <path id="DejaVuSans-7a" d="M 353 3500 
L 3084 3500 
L 3084 2975 
L 922 459 
L 3084 459 
L 3084 0 
L 275 0 
L 275 525 
L 2438 3041 
L 353 3041 
L 353 3500 
z
" transform="scale(0.015625)"/>
       <path id="DejaVuSans-69" d="M 603 3500 
L 1178 3500 
L 1178 0 
L 603 0 
L 603 3500 
z
M 603 4863 
L 1178 4863 
L 1178 4134 
L 603 4134 
L 603 4863 
z
" transform="scale(0.015625)"/>
       <path id="DejaVuSans-64" d="M 2906 2969 
L 2906 4863 
L 3481 4863 
L 3481 0 
L 2906 0 
L 2906 525 
Q 2725 213 2448 61 
Q 2172 -91 1784 -91 
Q 1150 -91 751 415 
Q 353 922 353 1747 
Q 353 2572 751 3078 
Q 1150 3584 1784 3584 
Q 2172 3584 2448 3432 
Q 2725 3281 2906 2969 
z
M 947 1747 
Q 947 1113 1208 752 
Q 1469 391 1925 391 
Q 2381 391 2643 752 
Q 2906 1113 2906 1747 
Q 2906 2381 2643 2742 
Q 2381 3103 1925 3103 
Q 1469 3103 1208 2742 
Q 947 2381 947 1747 
z
" transform="scale(0.015625)"/>
       <path id="DejaVuSans-65" d="M 3597 1894 
L 3597 1613 
L 953 1613 
Q 991 1019 1311 708 
Q 1631 397 2203 397 
Q 2534 397 2845 478 
Q 3156 559 3463 722 
L 3463 178 
Q 3153 47 2828 -22 
Q 2503 -91 2169 -91 
Q 1331 -91 842 396 
Q 353 884 353 1716 
Q 353 2575 817 3079 
Q 1281 3584 2069 3584 
Q 2775 3584 3186 3129 
Q 3597 2675 3597 1894 
z
M 3022 2063 
Q 3016 2534 2758 2815 
Q 2500 3097 2075 3097 
Q 1594 3097 1305 2825 
Q 1016 2553 972 2059 
L 3022 2063 
z
" transform="scale(0.015625)"/>
       <path id="DejaVuSans-20" transform="scale(0.015625)"/>
       <path id="DejaVuSans-70" d="M 1159 525 
L 1159 -1331 
L 581 -1331 
L 581 3500 
L 1159 3500 
L 1159 2969 
Q 1341 3281 1617 3432 
Q 1894 3584 2278 3584 
Q 2916 3584 3314 3078 
Q 3713 2572 3713 1747 
Q 3713 922 3314 415 
Q 2916 -91 2278 -91 
Q 1894 -91 1617 61 
Q 1341 213 1159 525 
z
M 3116 1747 
Q 3116 2381 2855 2742 
Q 2594 3103 2138 3103 
Q 1681 3103 1420 2742 
Q 1159 2381 1159 1747 
Q 1159 1113 1420 752 
Q 1681 391 2138 391 
Q 2594 391 2855 752 
Q 3116 1113 3116 1747 
z
" transform="scale(0.015625)"/>
       <path id="DejaVuSans-72" d="M 2631 2963 
Q 2534 3019 2420 3045 
Q 2306 3072 2169 3072 
Q 1681 3072 1420 2755 
Q 1159 2438 1159 1844 
L 1159 0 
L 581 0 
L 581 3500 
L 1159 3500 
L 1159 2956 
Q 1341 3275 1631 3429 
Q 1922 3584 2338 3584 
Q 2397 3584 2469 3576 
Q 2541 3569 2628 3553 
L 2631 2963 
z
" transform="scale(0.015625)"/>
       <path id="DejaVuSans-6f" d="M 1959 3097 
Q 1497 3097 1228 2736 
Q 959 2375 959 1747 
Q 959 1119 1226 758 
Q 1494 397 1959 397 
Q 2419 397 2687 759 
Q 2956 1122 2956 1747 
Q 2956 2369 2687 2733 
Q 2419 3097 1959 3097 
z
M 1959 3584 
Q 2709 3584 3137 3096 
Q 3566 2609 3566 1747 
Q 3566 888 3137 398 
Q 2709 -91 1959 -91 
Q 1206 -91 779 398 
Q 353 888 353 1747 
Q 353 2609 779 3096 
Q 1206 3584 1959 3584 
z
" transform="scale(0.015625)"/>
       <path id="DejaVuSans-54" d="M -19 4666 
L 3928 4666 
L 3928 4134 
L 2272 4134 
L 2272 0 
L 1638 0 
L 1638 4134 
L -19 4134 
L -19 4666 
z
" transform="scale(0.015625)"/>
       <path id="DejaVuSans-61" d="M 2194 1759 
Q 1497 1759 1228 1600 
Q 959 1441 959 1056 
Q 959 750 1161 570 
Q 1363 391 1709 391 
Q 2188 391 2477 730 
Q 2766 1069 2766 1631 
L 2766 1759 
L 2194 1759 
z
M 3341 1997 
L 3341 0 
L 2766 0 
L 2766 531 
Q 2569 213 2275 61 
Q 1981 -91 1556 -91 
Q 1019 -91 701 211 
Q 384 513 384 1019 
Q 384 1609 779 1909 
Q 1175 2209 1959 2209 
L 2766 2209 
L 2766 2266 
Q 2766 2663 2505 2880 
Q 2244 3097 1772 3097 
Q 1472 3097 1187 3025 
Q 903 2953 641 2809 
L 641 3341 
Q 956 3463 1253 3523 
Q 1550 3584 1831 3584 
Q 2591 3584 2966 3190 
Q 3341 2797 3341 1997 
z
" transform="scale(0.015625)"/>
       <path id="DejaVuSans-67" d="M 2906 1791 
Q 2906 2416 2648 2759 
Q 2391 3103 1925 3103 
Q 1463 3103 1205 2759 
Q 947 2416 947 1791 
Q 947 1169 1205 825 
Q 1463 481 1925 481 
Q 2391 481 2648 825 
Q 2906 1169 2906 1791 
z
M 3481 434 
Q 3481 -459 3084 -895 
Q 2688 -1331 1869 -1331 
Q 1566 -1331 1297 -1286 
Q 1028 -1241 775 -1147 
L 775 -588 
Q 1028 -725 1275 -790 
Q 1522 -856 1778 -856 
Q 2344 -856 2625 -561 
Q 2906 -266 2906 331 
L 2906 616 
Q 2728 306 2450 153 
Q 2172 0 1784 0 
Q 1141 0 747 490 
Q 353 981 353 1791 
Q 353 2603 747 3093 
Q 1141 3584 1784 3584 
Q 2172 3584 2450 3431 
Q 2728 3278 2906 2969 
L 2906 3500 
L 3481 3500 
L 3481 434 
z
" transform="scale(0.015625)"/>
       <path id="DejaVuSans-45" d="M 628 4666 
L 3578 4666 
L 3578 4134 
L 1259 4134 
L 1259 2753 
L 3481 2753 
L 3481 2222 
L 1259 2222 
L 1259 531 
L 3634 531 
L 3634 0 
L 628 0 
L 628 4666 
z
" transform="scale(0.015625)"/>
       <path id="DejaVuSans-77" d="M 269 3500 
L 844 3500 
L 1563 769 
L 2278 3500 
L 2956 3500 
L 3675 769 
L 4391 3500 
L 4966 3500 
L 4050 0 
L 3372 0 
L 2619 2869 
L 1863 0 
L 1184 0 
L 269 3500 
z
" transform="scale(0.015625)"/>
       <path id="DejaVuSans-68" d="M 3513 2113 
L 3513 0 
L 2938 0 
L 2938 2094 
Q 2938 2591 2744 2837 
Q 2550 3084 2163 3084 
Q 1697 3084 1428 2787 
Q 1159 2491 1159 1978 
L 1159 0 
L 581 0 
L 581 4863 
L 1159 4863 
L 1159 2956 
Q 1366 3272 1645 3428 
Q 1925 3584 2291 3584 
Q 2894 3584 3203 3211 
Q 3513 2838 3513 2113 
z
" transform="scale(0.015625)"/>
      </defs>
      <use xlink:href="#DejaVuSans-49"/>
      <use xlink:href="#DejaVuSans-6e" x="29.492188"/>
      <use xlink:href="#DejaVuSans-7a" x="92.871094"/>
      <use xlink:href="#DejaVuSans-69" x="145.361328"/>
      <use xlink:href="#DejaVuSans-64" x="173.144531"/>
      <use xlink:href="#DejaVuSans-65" x="236.621094"/>
      <use xlink:href="#DejaVuSans-6e" x="298.144531"/>
      <use xlink:href="#DejaVuSans-7a" x="361.523438"/>
      <use xlink:href="#DejaVuSans-20" x="414.013672"/>
      <use xlink:href="#DejaVuSans-70" x="445.800781"/>
      <use xlink:href="#DejaVuSans-72" x="509.277344"/>
      <use xlink:href="#DejaVuSans-6f" x="548.140625"/>
      <use xlink:href="#DejaVuSans-20" x="609.322266"/>
      <use xlink:href="#DejaVuSans-37" x="641.109375"/>
      <use xlink:href="#DejaVuSans-20" x="704.732422"/>
      <use xlink:href="#DejaVuSans-54" x="736.519531"/>
      <use xlink:href="#DejaVuSans-61" x="781.103516"/>
      <use xlink:href="#DejaVuSans-67" x="842.382812"/>
      <use xlink:href="#DejaVuSans-65" x="905.859375"/>
      <use xlink:href="#DejaVuSans-20" x="967.382812"/>
      <use xlink:href="#DejaVuSans-70" x="999.169922"/>
      <use xlink:href="#DejaVuSans-72" x="1062.646484"/>
      <use xlink:href="#DejaVuSans-6f" x="1101.509766"/>
      <use xlink:href="#DejaVuSans-20" x="1162.691406"/>
      <use xlink:href="#DejaVuSans-31" x="1194.478516"/>
      <use xlink:href="#DejaVuSans-30" x="1258.101562"/>
      <use xlink:href="#DejaVuSans-30" x="1321.724609"/>
      <use xlink:href="#DejaVuSans-2e" x="1385.347656"/>
      <use xlink:href="#DejaVuSans-30" x="1417.134766"/>
      <use xlink:href="#DejaVuSans-30" x="1480.757812"/>
      <use xlink:href="#DejaVuSans-30" x="1544.380859"/>
      <use xlink:href="#DejaVuSans-20" x="1608.003906"/>
      <use xlink:href="#DejaVuSans-45" x="1639.791016"/>
      <use xlink:href="#DejaVuSans-69" x="1702.974609"/>
      <use xlink:href="#DejaVuSans-6e" x="1730.757812"/>
      <use xlink:href="#DejaVuSans-77" x="1794.136719"/>
      <use xlink:href="#DejaVuSans-6f" x="1875.923828"/>
      <use xlink:href="#DejaVuSans-68" x="1937.105469"/>
      <use xlink:href="#DejaVuSans-6e" x="2000.484375"/>
      <use xlink:href="#DejaVuSans-65" x="2063.863281"/>
      <use xlink:href="#DejaVuSans-72" x="2125.386719"/>
     </g>
    </g>
   </g>
   <g id="line2d_33">
    <path d="M 73.832727 265.797818 
L 74.564756 265.692808 
L 77.858883 265.640303 
L 78.224897 265.325271 
L 78.590911 265.325271 
L 78.956925 265.01024 
L 79.322939 265.115251 
L 80.420982 264.695209 
L 80.786996 264.800219 
L 81.15301 264.695209 
L 81.519024 264.957735 
L 81.885038 264.800219 
L 82.251053 264.800219 
L 82.617067 264.432683 
L 82.983081 264.590199 
L 84.081123 264.695209 
L 84.447137 264.800219 
L 84.813152 264.642704 
L 85.179166 264.90523 
L 87.375251 265.01024 
L 87.741265 265.167756 
L 88.107279 265.062745 
L 88.473293 265.325271 
L 88.839307 265.115251 
L 90.669378 264.957735 
L 91.035392 264.957735 
L 91.401406 265.220261 
L 92.133434 265.220261 
L 92.865463 265.587797 
L 93.597491 265.587797 
L 100.55176 265.692808 
L 101.649802 265.745313 
L 117.38841 265.692808 
L 118.120439 265.587797 
L 119.950509 265.692808 
L 120.682538 265.797818 
L 129.832891 265.692808 
L 132.028976 265.115251 
L 132.761004 265.062745 
L 133.127019 264.957735 
L 133.493033 265.062745 
L 133.859047 264.957735 
L 134.957089 265.062745 
L 135.323103 264.800219 
L 135.689118 264.065147 
L 136.055132 263.69761 
L 136.421146 263.855126 
L 136.78716 263.5926 
L 137.519188 263.540095 
L 137.885202 263.750116 
L 138.251217 264.590199 
L 138.617231 265.01024 
L 138.983245 264.747714 
L 139.349259 264.90523 
L 140.081287 264.90523 
L 140.447301 265.115251 
L 141.17933 264.957735 
L 142.277372 265.377777 
L 143.375415 265.482787 
L 144.473457 265.745313 
L 146.303528 265.535292 
L 147.40157 264.852725 
L 147.767584 264.852725 
L 148.133598 264.695209 
L 148.865627 263.750116 
L 149.231641 262.910032 
L 150.695697 262.910032 
L 151.061712 263.120053 
L 151.427726 263.5926 
L 151.79374 264.485188 
L 152.159754 264.537694 
L 152.891782 263.855126 
L 153.257796 264.012642 
L 153.623811 263.960136 
L 153.989825 263.277569 
L 154.721853 263.277569 
L 155.453881 263.907631 
L 155.819895 264.012642 
L 156.18591 263.645105 
L 156.551924 263.960136 
L 158.381994 263.802621 
L 159.114023 264.432683 
L 159.846051 263.382579 
L 160.578079 263.645105 
L 161.310108 261.807423 
L 161.676122 259.602205 
L 162.042136 258.762122 
L 162.40815 258.499596 
L 162.774164 257.869534 
L 163.140178 257.712018 
L 164.238221 258.552101 
L 164.604235 259.392184 
L 164.970249 259.5497 
L 165.336263 259.969742 
L 165.702277 258.447091 
L 166.068291 258.342081 
L 166.434306 257.607008 
L 166.80032 258.814627 
L 167.166334 257.817029 
L 167.532348 257.501997 
L 167.898362 256.556904 
L 168.264376 258.027049 
L 168.996405 258.919638 
L 169.362419 257.764523 
L 169.728433 258.499596 
L 170.460461 258.552101 
L 170.826475 258.079555 
L 171.192489 258.027049 
L 171.558504 258.604607 
L 171.924518 259.812226 
L 172.290532 258.762122 
L 172.656546 259.182164 
L 173.02256 259.024648 
L 173.388574 259.077153 
L 173.754589 258.919638 
L 174.120603 257.817029 
L 174.486617 257.134461 
L 174.852631 258.079555 
L 175.218645 257.607008 
L 175.950673 258.709617 
L 176.682702 259.024648 
L 177.048716 258.867133 
L 177.41473 258.027049 
L 177.780744 256.609409 
L 178.146758 256.92444 
L 178.878787 256.399388 
L 179.244801 257.186966 
L 179.610815 255.716821 
L 180.342843 257.501997 
L 180.708857 257.029451 
L 181.074871 257.344482 
L 181.440886 257.396987 
L 181.8069 255.5068 
L 182.172914 257.081956 
L 182.538928 256.71442 
L 182.904942 258.13206 
L 183.270956 258.814627 
L 183.63697 258.289575 
L 184.002985 258.079555 
L 184.368999 259.44469 
L 184.735013 259.129658 
L 185.101027 259.812226 
L 185.833055 259.287174 
L 186.199069 259.024648 
L 186.565084 259.182164 
L 186.931098 256.451894 
L 187.297112 257.554503 
L 187.663126 257.764523 
L 188.395154 257.554503 
L 188.761168 258.289575 
L 189.127183 258.604607 
L 189.493197 260.914835 
L 189.859211 261.019845 
L 190.225225 261.282371 
L 190.591239 261.334877 
L 190.957253 261.807423 
L 191.323267 261.859929 
L 191.689282 261.702413 
L 192.055296 262.384981 
L 192.787324 261.754918 
L 193.153338 261.859929 
L 193.519352 261.649908 
L 193.885366 261.649908 
L 194.251381 261.807423 
L 194.617395 261.387382 
L 194.983409 261.387382 
L 195.349423 261.754918 
L 196.447465 261.964939 
L 196.81348 261.702413 
L 197.179494 262.962538 
L 197.911522 262.700012 
L 198.277536 263.120053 
L 199.009564 263.277569 
L 199.375579 263.5926 
L 199.741593 263.48759 
L 200.107607 264.170157 
L 201.937678 263.645105 
L 202.303692 263.382579 
L 203.03572 263.48759 
L 203.401734 263.277569 
L 204.133762 263.382579 
L 204.865791 263.435084 
L 205.231805 263.69761 
L 205.963833 263.645105 
L 206.329847 263.225064 
L 206.695861 263.225064 
L 207.793904 262.069949 
L 208.159918 261.807423 
L 208.525932 261.964939 
L 209.25796 261.649908 
L 209.623975 262.017444 
L 209.989989 261.912434 
L 210.356003 261.597403 
L 210.722017 261.912434 
L 211.088031 261.702413 
L 211.820059 262.017444 
L 212.186074 261.807423 
L 212.552088 261.912434 
L 212.918102 261.754918 
L 213.65013 259.759721 
L 214.016144 259.5497 
L 214.382158 259.497195 
L 214.748173 259.287174 
L 215.114187 258.552101 
L 215.480201 256.976946 
L 215.846215 256.71442 
L 216.212229 257.186966 
L 216.578243 256.871935 
L 216.944257 256.92444 
L 217.310272 257.239471 
L 217.676286 257.186966 
L 218.0423 257.922039 
L 218.774328 258.184565 
L 219.140342 258.657112 
L 219.506356 258.604607 
L 219.872371 258.289575 
L 220.238385 259.392184 
L 220.604399 259.44469 
L 220.970413 259.812226 
L 221.336427 259.65471 
L 221.702441 259.969742 
L 222.43447 259.917236 
L 222.800484 259.287174 
L 223.166498 259.759721 
L 223.532512 259.287174 
L 224.26454 257.659513 
L 224.996569 257.817029 
L 225.362583 256.399388 
L 225.728597 255.979347 
L 226.460625 256.294378 
L 226.826639 256.609409 
L 227.558668 256.504399 
L 227.924682 256.189368 
L 228.290696 256.294378 
L 228.65671 255.454295 
L 229.022724 255.769326 
L 229.388738 255.296779 
L 230.120767 255.61181 
L 230.486781 257.659513 
L 230.852795 257.554503 
L 231.950837 260.914835 
L 232.316851 260.96734 
L 232.682866 260.809825 
L 233.04888 260.809825 
L 233.414894 261.492392 
L 233.780908 261.282371 
L 234.146922 260.914835 
L 234.512936 259.812226 
L 235.244965 259.392184 
L 235.610979 259.077153 
L 236.343007 260.074752 
L 236.709021 260.127257 
L 237.075035 261.649908 
L 237.44105 261.807423 
L 237.807064 262.542496 
L 238.173078 263.960136 
L 238.905106 264.642704 
L 239.27112 264.695209 
L 239.637134 264.485188 
L 240.369163 264.380178 
L 240.735177 263.855126 
L 241.467205 264.170157 
L 241.833219 264.537694 
L 242.931262 264.642704 
L 243.297276 265.167756 
L 243.66329 265.115251 
L 244.029304 265.377777 
L 245.127347 265.692808 
L 245.859375 265.325271 
L 246.957417 265.377777 
L 247.689446 265.377777 
L 248.421474 265.745313 
L 249.519516 265.640303 
L 250.251545 265.692808 
L 250.983573 265.535292 
L 251.349587 265.272766 
L 253.179658 265.325271 
L 253.911686 265.430282 
L 254.643714 265.430282 
L 255.741757 265.377777 
L 256.107771 265.062745 
L 258.303856 265.062745 
L 259.401898 265.745313 
L 261.231969 265.640303 
L 261.963997 265.482787 
L 263.06204 265.430282 
L 264.526096 264.957735 
L 264.89211 264.695209 
L 265.990153 264.695209 
L 266.722181 264.327673 
L 267.088195 264.012642 
L 267.454209 263.960136 
L 267.820223 263.69761 
L 268.186238 263.750116 
L 268.552252 263.645105 
L 268.918266 263.907631 
L 269.28428 263.802621 
L 269.650294 264.170157 
L 270.016308 263.5926 
L 270.382322 263.750116 
L 271.114351 263.69761 
L 271.846379 263.067548 
L 272.212393 262.384981 
L 272.578407 262.805022 
L 273.310436 262.910032 
L 273.67645 262.384981 
L 274.042464 262.595001 
L 274.408478 262.017444 
L 274.774492 262.542496 
L 275.50652 261.912434 
L 276.238549 261.807423 
L 276.604563 261.334877 
L 276.970577 261.597403 
L 277.336591 260.232268 
L 277.702605 260.442288 
L 278.434634 260.232268 
L 278.800648 261.072351 
L 279.166662 260.599804 
L 279.532676 261.334877 
L 279.89869 262.437486 
L 280.264704 262.647507 
L 280.630718 263.015043 
L 280.996733 263.120053 
L 281.362747 262.910032 
L 281.728761 263.645105 
L 282.460789 263.750116 
L 282.826803 264.012642 
L 283.924846 263.960136 
L 284.29086 264.380178 
L 284.656874 264.117652 
L 285.754916 264.065147 
L 286.120931 264.065147 
L 286.486945 264.222662 
L 286.852959 264.117652 
L 287.584987 264.642704 
L 287.951001 264.590199 
L 288.317015 264.327673 
L 289.049044 264.275168 
L 289.415058 264.065147 
L 289.781072 264.065147 
L 290.147086 263.330074 
L 290.5131 263.48759 
L 290.879114 263.907631 
L 291.611143 263.960136 
L 291.977157 263.540095 
L 292.343171 263.382579 
L 292.709185 264.065147 
L 293.441213 262.700012 
L 293.807228 262.647507 
L 294.173242 262.017444 
L 294.539256 261.807423 
L 294.90527 259.65471 
L 295.271284 259.182164 
L 296.369327 259.234669 
L 296.735341 258.657112 
L 297.101355 257.449492 
L 297.467369 258.814627 
L 297.833383 257.817029 
L 298.565411 256.661914 
L 298.931426 256.504399 
L 299.29744 257.291977 
L 299.663454 257.659513 
L 300.029468 256.556904 
L 300.395482 256.084357 
L 300.761496 255.40179 
L 301.493525 255.40179 
L 301.859539 255.5068 
L 302.225553 254.824233 
L 302.591567 255.664316 
L 302.957581 256.084357 
L 303.323595 255.40179 
L 303.68961 255.139264 
L 304.055624 254.141665 
L 304.421638 253.669118 
L 305.153666 251.778931 
L 305.51968 251.411395 
L 306.251709 251.306385 
L 306.617723 251.411395 
L 306.983737 251.936447 
L 307.349751 251.883942 
L 307.715765 251.4639 
L 308.081779 251.936447 
L 308.813808 254.036655 
L 309.179822 254.561707 
L 309.545836 254.614212 
L 310.277864 256.294378 
L 310.643878 256.031852 
L 311.009892 256.136862 
L 311.375907 255.191769 
L 311.741921 255.296779 
L 312.107935 254.929243 
L 312.473949 255.61181 
L 312.839963 255.349284 
L 313.205977 255.5068 
L 313.571991 255.40179 
L 313.938006 255.454295 
L 314.30402 255.664316 
L 314.670034 256.031852 
L 315.402062 256.241873 
L 316.13409 255.926842 
L 316.500105 257.239471 
L 316.866119 257.344482 
L 317.598147 255.034253 
L 318.330175 250.361291 
L 318.696189 248.313588 
L 319.062204 248.103568 
L 319.428218 247.368495 
L 319.794232 247.736031 
L 320.52626 245.898349 
L 320.892274 241.907955 
L 321.258288 241.96046 
L 321.990317 233.192092 
L 322.356331 233.349608 
L 322.722345 227.364016 
L 323.088359 228.834161 
L 323.454373 227.416521 
L 323.820387 222.008486 
L 324.186402 214.552748 
L 324.552416 215.130306 
L 324.91843 214.815274 
L 325.284444 212.085004 
L 326.016472 200.533861 
L 326.748501 192.290546 
L 327.846543 182.577085 
L 328.212557 181.001929 
L 328.578571 181.31696 
L 328.944585 174.596295 
L 329.3106 178.796711 
L 329.676614 180.109341 
L 330.042628 180.371867 
L 330.408642 178.166649 
L 330.774656 178.954227 
L 331.14067 170.605901 
L 331.506684 176.854019 
L 331.872699 173.598697 
L 332.238713 176.118946 
L 332.604727 170.553395 
L 332.970741 171.971036 
L 333.336755 168.033146 
L 333.702769 169.345776 
L 334.434798 178.744206 
L 334.800812 176.066441 
L 335.166826 181.894517 
L 335.53284 178.849216 
L 335.898854 178.691701 
L 336.264868 186.724995 
L 336.630882 185.097334 
L 336.996897 184.677293 
L 337.362911 190.505369 
L 337.728925 192.658082 
L 338.094939 189.875307 
L 338.460953 191.397958 
L 338.826967 193.655681 
L 339.192981 193.288145 
L 339.558996 195.073321 
L 339.92501 193.603176 
L 340.291024 195.178332 
L 340.657038 197.38355 
L 341.023052 198.171128 
L 341.75508 192.500567 
L 342.121095 189.140234 
L 342.487109 189.665286 
L 342.853123 187.932615 
L 343.585151 176.066441 
L 343.951165 176.276462 
L 344.317179 162.940142 
L 345.049208 156.219477 
L 345.415222 148.921255 
L 345.781236 148.133677 
L 346.14725 140.78295 
L 346.513264 108.282235 
L 346.879278 105.814491 
L 347.245293 87.595188 
L 347.611307 82.607195 
L 347.977321 86.545084 
L 348.343335 72.473692 
L 348.709349 52.154182 
L 349.075363 62.865241 
L 349.441377 57.352196 
L 349.807392 58.769836 
L 350.173406 65.858038 
L 350.53942 62.55021 
L 350.905434 70.898536 
L 351.271448 74.311374 
L 352.003476 89.43287 
L 352.369491 101.404054 
L 352.735505 100.563971 
L 353.101519 103.451757 
L 353.467533 97.256144 
L 353.833547 114.215322 
L 354.199561 118.573253 
L 354.93159 131.909572 
L 355.297604 130.859468 
L 355.663618 122.458637 
L 356.029632 126.764063 
L 356.395646 129.231807 
L 356.76166 126.239011 
L 357.127674 120.148409 
L 357.493689 131.069489 
L 357.859703 129.86187 
L 358.225717 132.277109 
L 358.591731 162.835132 
L 359.323759 129.86187 
L 359.689773 132.854666 
L 360.055788 113.322733 
L 360.421802 115.632962 
L 360.787816 122.931184 
L 361.15383 94.578379 
L 361.519844 112.692671 
L 361.885858 139.207794 
L 362.617887 163.990246 
L 362.983901 164.515298 
L 363.349915 162.572606 
L 364.081943 173.388676 
L 364.447957 176.433977 
L 364.813972 176.013936 
L 365.179986 178.534185 
L 365.546 179.689299 
L 365.912014 181.579486 
L 366.278028 185.044829 
L 366.644042 194.495764 
L 367.010056 195.230837 
L 367.376071 194.495764 
L 367.742085 196.17593 
L 368.108099 196.963508 
L 368.474113 196.07092 
L 368.840127 201.006408 
L 369.206141 203.211626 
L 370.304184 215.182811 
L 370.670198 215.602852 
L 371.036212 216.862977 
L 371.402226 222.901074 
L 371.76824 222.008486 
L 372.134254 230.041781 
L 372.866283 233.612134 
L 373.598311 233.034577 
L 373.964325 233.297103 
L 374.330339 233.139587 
L 374.696353 225.946376 
L 375.062368 222.376022 
L 375.428382 216.810472 
L 375.794396 216.810472 
L 376.16041 220.275815 
L 376.526424 220.380825 
L 376.892438 211.087406 
L 377.990481 200.691377 
L 378.356495 200.166325 
L 378.722509 195.020816 
L 379.088523 186.462469 
L 379.454537 194.128228 
L 379.820551 193.183134 
L 380.186566 196.385951 
L 380.55258 197.068519 
L 380.918594 196.648477 
L 381.284608 197.541065 
L 382.38265 172.496088 
L 382.748665 161.312481 
L 383.114679 155.116868 
L 383.480693 153.01666 
L 383.846707 152.859145 
L 384.212721 142.725642 
L 384.578735 142.988168 
L 385.310764 152.176577 
L 385.676778 153.961754 
L 386.042792 154.22428 
L 386.408806 153.121671 
L 386.77482 169.450786 
L 387.140834 170.868427 
L 387.506848 168.610703 
L 387.872863 177.694102 
L 388.238877 180.581888 
L 388.604891 181.421971 
L 388.970905 180.214351 
L 389.336919 181.106939 
L 389.702933 181.631991 
L 390.068947 187.98512 
L 390.434962 180.161846 
L 390.800976 179.79431 
L 391.16699 181.474476 
L 391.533004 180.319362 
L 391.899018 178.219154 
L 392.265032 183.83721 
L 392.631046 180.214351 
L 392.997061 184.992324 
L 393.363075 193.655681 
L 393.729089 194.495764 
L 394.095103 197.068519 
L 394.461117 208.252125 
L 394.827131 202.84409 
L 395.193145 210.614859 
L 395.55916 213.870181 
L 395.925174 214.815274 
L 396.291188 215.025295 
L 397.023216 216.810472 
L 397.38923 223.846168 
L 398.487273 235.607331 
L 398.487273 235.607331 
" clip-path="url(#p3e3eb10fd0)" style="fill: none; stroke: #1f77b4; stroke-width: 1.5; stroke-linecap: square"/>
   </g>
   <g id="patch_3">
    <path d="M 57.6 276.48 
L 57.6 41.472 
" style="fill: none; stroke: #000000; stroke-width: 0.8; stroke-linejoin: miter; stroke-linecap: square"/>
   </g>
   <g id="patch_4">
    <path d="M 414.72 276.48 
L 414.72 41.472 
" style="fill: none; stroke: #000000; stroke-width: 0.8; stroke-linejoin: miter; stroke-linecap: square"/>
   </g>
   <g id="patch_5">
    <path d="M 57.6 276.48 
L 414.72 276.48 
" style="fill: none; stroke: #000000; stroke-width: 0.8; stroke-linejoin: miter; stroke-linecap: square"/>
   </g>
   <g id="patch_6">
    <path d="M 57.6 41.472 
L 414.72 41.472 
" style="fill: none; stroke: #000000; stroke-width: 0.8; stroke-linejoin: miter; stroke-linecap: square"/>
   </g>
  </g>
  <g id="text_18">
   <!-- Inzidenzverlauf LK Rotenburg (Wümme) -->
   <g transform="translate(51.020156 20.589187)scale(0.18 -0.18)">
    <defs>
     <path id="DejaVuSans-76" d="M 191 3500 
L 800 3500 
L 1894 563 
L 2988 3500 
L 3597 3500 
L 2284 0 
L 1503 0 
L 191 3500 
z
" transform="scale(0.015625)"/>
     <path id="DejaVuSans-6c" d="M 603 4863 
L 1178 4863 
L 1178 0 
L 603 0 
L 603 4863 
z
" transform="scale(0.015625)"/>
     <path id="DejaVuSans-75" d="M 544 1381 
L 544 3500 
L 1119 3500 
L 1119 1403 
Q 1119 906 1312 657 
Q 1506 409 1894 409 
Q 2359 409 2629 706 
Q 2900 1003 2900 1516 
L 2900 3500 
L 3475 3500 
L 3475 0 
L 2900 0 
L 2900 538 
Q 2691 219 2414 64 
Q 2138 -91 1772 -91 
Q 1169 -91 856 284 
Q 544 659 544 1381 
z
M 1991 3584 
L 1991 3584 
z
" transform="scale(0.015625)"/>
     <path id="DejaVuSans-66" d="M 2375 4863 
L 2375 4384 
L 1825 4384 
Q 1516 4384 1395 4259 
Q 1275 4134 1275 3809 
L 1275 3500 
L 2222 3500 
L 2222 3053 
L 1275 3053 
L 1275 0 
L 697 0 
L 697 3053 
L 147 3053 
L 147 3500 
L 697 3500 
L 697 3744 
Q 697 4328 969 4595 
Q 1241 4863 1831 4863 
L 2375 4863 
z
" transform="scale(0.015625)"/>
     <path id="DejaVuSans-4c" d="M 628 4666 
L 1259 4666 
L 1259 531 
L 3531 531 
L 3531 0 
L 628 0 
L 628 4666 
z
" transform="scale(0.015625)"/>
     <path id="DejaVuSans-4b" d="M 628 4666 
L 1259 4666 
L 1259 2694 
L 3353 4666 
L 4166 4666 
L 1850 2491 
L 4331 0 
L 3500 0 
L 1259 2247 
L 1259 0 
L 628 0 
L 628 4666 
z
" transform="scale(0.015625)"/>
     <path id="DejaVuSans-52" d="M 2841 2188 
Q 3044 2119 3236 1894 
Q 3428 1669 3622 1275 
L 4263 0 
L 3584 0 
L 2988 1197 
Q 2756 1666 2539 1819 
Q 2322 1972 1947 1972 
L 1259 1972 
L 1259 0 
L 628 0 
L 628 4666 
L 2053 4666 
Q 2853 4666 3247 4331 
Q 3641 3997 3641 3322 
Q 3641 2881 3436 2590 
Q 3231 2300 2841 2188 
z
M 1259 4147 
L 1259 2491 
L 2053 2491 
Q 2509 2491 2742 2702 
Q 2975 2913 2975 3322 
Q 2975 3731 2742 3939 
Q 2509 4147 2053 4147 
L 1259 4147 
z
" transform="scale(0.015625)"/>
     <path id="DejaVuSans-74" d="M 1172 4494 
L 1172 3500 
L 2356 3500 
L 2356 3053 
L 1172 3053 
L 1172 1153 
Q 1172 725 1289 603 
Q 1406 481 1766 481 
L 2356 481 
L 2356 0 
L 1766 0 
Q 1100 0 847 248 
Q 594 497 594 1153 
L 594 3053 
L 172 3053 
L 172 3500 
L 594 3500 
L 594 4494 
L 1172 4494 
z
" transform="scale(0.015625)"/>
     <path id="DejaVuSans-62" d="M 3116 1747 
Q 3116 2381 2855 2742 
Q 2594 3103 2138 3103 
Q 1681 3103 1420 2742 
Q 1159 2381 1159 1747 
Q 1159 1113 1420 752 
Q 1681 391 2138 391 
Q 2594 391 2855 752 
Q 3116 1113 3116 1747 
z
M 1159 2969 
Q 1341 3281 1617 3432 
Q 1894 3584 2278 3584 
Q 2916 3584 3314 3078 
Q 3713 2572 3713 1747 
Q 3713 922 3314 415 
Q 2916 -91 2278 -91 
Q 1894 -91 1617 61 
Q 1341 213 1159 525 
L 1159 0 
L 581 0 
L 581 4863 
L 1159 4863 
L 1159 2969 
z
" transform="scale(0.015625)"/>
     <path id="DejaVuSans-28" d="M 1984 4856 
Q 1566 4138 1362 3434 
Q 1159 2731 1159 2009 
Q 1159 1288 1364 580 
Q 1569 -128 1984 -844 
L 1484 -844 
Q 1016 -109 783 600 
Q 550 1309 550 2009 
Q 550 2706 781 3412 
Q 1013 4119 1484 4856 
L 1984 4856 
z
" transform="scale(0.015625)"/>
     <path id="DejaVuSans-57" d="M 213 4666 
L 850 4666 
L 1831 722 
L 2809 4666 
L 3519 4666 
L 4500 722 
L 5478 4666 
L 6119 4666 
L 4947 0 
L 4153 0 
L 3169 4050 
L 2175 0 
L 1381 0 
L 213 4666 
z
" transform="scale(0.015625)"/>
     <path id="DejaVuSans-fc" d="M 544 1381 
L 544 3500 
L 1119 3500 
L 1119 1403 
Q 1119 906 1312 657 
Q 1506 409 1894 409 
Q 2359 409 2629 706 
Q 2900 1003 2900 1516 
L 2900 3500 
L 3475 3500 
L 3475 0 
L 2900 0 
L 2900 538 
Q 2691 219 2414 64 
Q 2138 -91 1772 -91 
Q 1169 -91 856 284 
Q 544 659 544 1381 
z
M 1991 3584 
L 1991 3584 
z
M 2278 4850 
L 2912 4850 
L 2912 4219 
L 2278 4219 
L 2278 4850 
z
M 1056 4850 
L 1690 4850 
L 1690 4219 
L 1056 4219 
L 1056 4850 
z
" transform="scale(0.015625)"/>
     <path id="DejaVuSans-6d" d="M 3328 2828 
Q 3544 3216 3844 3400 
Q 4144 3584 4550 3584 
Q 5097 3584 5394 3201 
Q 5691 2819 5691 2113 
L 5691 0 
L 5113 0 
L 5113 2094 
Q 5113 2597 4934 2840 
Q 4756 3084 4391 3084 
Q 3944 3084 3684 2787 
Q 3425 2491 3425 1978 
L 3425 0 
L 2847 0 
L 2847 2094 
Q 2847 2600 2669 2842 
Q 2491 3084 2119 3084 
Q 1678 3084 1418 2786 
Q 1159 2488 1159 1978 
L 1159 0 
L 581 0 
L 581 3500 
L 1159 3500 
L 1159 2956 
Q 1356 3278 1631 3431 
Q 1906 3584 2284 3584 
Q 2666 3584 2933 3390 
Q 3200 3197 3328 2828 
z
" transform="scale(0.015625)"/>
     <path id="DejaVuSans-29" d="M 513 4856 
L 1013 4856 
Q 1481 4119 1714 3412 
Q 1947 2706 1947 2009 
Q 1947 1309 1714 600 
Q 1481 -109 1013 -844 
L 513 -844 
Q 928 -128 1133 580 
Q 1338 1288 1338 2009 
Q 1338 2731 1133 3434 
Q 928 4138 513 4856 
z
" transform="scale(0.015625)"/>
    </defs>
    <use xlink:href="#DejaVuSans-49"/>
    <use xlink:href="#DejaVuSans-6e" x="29.492188"/>
    <use xlink:href="#DejaVuSans-7a" x="92.871094"/>
    <use xlink:href="#DejaVuSans-69" x="145.361328"/>
    <use xlink:href="#DejaVuSans-64" x="173.144531"/>
    <use xlink:href="#DejaVuSans-65" x="236.621094"/>
    <use xlink:href="#DejaVuSans-6e" x="298.144531"/>
    <use xlink:href="#DejaVuSans-7a" x="361.523438"/>
    <use xlink:href="#DejaVuSans-76" x="414.013672"/>
    <use xlink:href="#DejaVuSans-65" x="473.193359"/>
    <use xlink:href="#DejaVuSans-72" x="534.716797"/>
    <use xlink:href="#DejaVuSans-6c" x="575.830078"/>
    <use xlink:href="#DejaVuSans-61" x="603.613281"/>
    <use xlink:href="#DejaVuSans-75" x="664.892578"/>
    <use xlink:href="#DejaVuSans-66" x="728.271484"/>
    <use xlink:href="#DejaVuSans-20" x="763.476562"/>
    <use xlink:href="#DejaVuSans-4c" x="795.263672"/>
    <use xlink:href="#DejaVuSans-4b" x="850.976562"/>
    <use xlink:href="#DejaVuSans-20" x="916.552734"/>
    <use xlink:href="#DejaVuSans-52" x="948.339844"/>
    <use xlink:href="#DejaVuSans-6f" x="1013.322266"/>
    <use xlink:href="#DejaVuSans-74" x="1074.503906"/>
    <use xlink:href="#DejaVuSans-65" x="1113.712891"/>
    <use xlink:href="#DejaVuSans-6e" x="1175.236328"/>
    <use xlink:href="#DejaVuSans-62" x="1238.615234"/>
    <use xlink:href="#DejaVuSans-75" x="1302.091797"/>
    <use xlink:href="#DejaVuSans-72" x="1365.470703"/>
    <use xlink:href="#DejaVuSans-67" x="1404.833984"/>
    <use xlink:href="#DejaVuSans-20" x="1468.310547"/>
    <use xlink:href="#DejaVuSans-28" x="1500.097656"/>
    <use xlink:href="#DejaVuSans-57" x="1539.111328"/>
    <use xlink:href="#DejaVuSans-fc" x="1634.363281"/>
    <use xlink:href="#DejaVuSans-6d" x="1697.742188"/>
    <use xlink:href="#DejaVuSans-6d" x="1795.154297"/>
    <use xlink:href="#DejaVuSans-65" x="1892.566406"/>
    <use xlink:href="#DejaVuSans-29" x="1954.089844"/>
   </g>
  </g>
 </g>
 <defs>
  <clipPath id="p3e3eb10fd0">
   <rect x="57.6" y="41.472" width="357.12" height="235.008"/>
  </clipPath>
 </defs>
</svg>
