<?xml version="1.0" encoding="utf-8" standalone="no"?>
<!DOCTYPE svg PUBLIC "-//W3C//DTD SVG 1.1//EN"
  "http://www.w3.org/Graphics/SVG/1.1/DTD/svg11.dtd">
<svg xmlns:xlink="http://www.w3.org/1999/xlink" width="460.8pt" height="345.6pt" viewBox="0 0 460.8 345.6" xmlns="http://www.w3.org/2000/svg" version="1.1">
 <metadata>
  <rdf:RDF xmlns:dc="http://purl.org/dc/elements/1.1/" xmlns:cc="http://creativecommons.org/ns#" xmlns:rdf="http://www.w3.org/1999/02/22-rdf-syntax-ns#">
   <cc:Work>
    <dc:type rdf:resource="http://purl.org/dc/dcmitype/StillImage"/>
    <dc:date>2022-11-25T09:20:03.351532</dc:date>
    <dc:format>image/svg+xml</dc:format>
    <dc:creator>
     <cc:Agent>
      <dc:title>Matplotlib v3.6.2, https://matplotlib.org/</dc:title>
     </cc:Agent>
    </dc:creator>
   </cc:Work>
  </rdf:RDF>
 </metadata>
 <defs>
  <style type="text/css">*{stroke-linejoin: round; stroke-linecap: butt}</style>
 </defs>
 <g id="figure_1">
  <g id="patch_1">
   <path d="M 0 345.6 
L 460.8 345.6 
L 460.8 0 
L 0 0 
z
" style="fill: #ffffff"/>
  </g>
  <g id="axes_1">
   <g id="patch_2">
    <path d="M 57.6 276.48 
L 414.72 276.48 
L 414.72 41.472 
L 57.6 41.472 
z
" style="fill: #ffffff"/>
   </g>
   <g id="matplotlib.axis_1">
    <g id="xtick_1">
     <g id="line2d_1">
      <path d="M 58.948657 276.48 
L 58.948657 41.472 
" clip-path="url(#pa87ecb7649)" style="fill: none; stroke-dasharray: 2.96,1.28; stroke-dashoffset: 0; stroke: #808080; stroke-width: 0.8"/>
     </g>
     <g id="line2d_2">
      <defs>
       <path id="m6cbb70e10e" d="M 0 0 
L 0 3.5 
" style="stroke: #000000; stroke-width: 0.8"/>
      </defs>
      <g>
       <use xlink:href="#m6cbb70e10e" x="58.948657" y="276.48" style="stroke: #000000; stroke-width: 0.8"/>
      </g>
     </g>
     <g id="text_1">
      <!-- 17.01.2020 -->
      <g transform="translate(8.323446 318.688565) rotate(-30) scale(0.1 -0.1)">
       <defs>
        <path id="DejaVuSans-31" d="M 794 531 
L 1825 531 
L 1825 4091 
L 703 3866 
L 703 4441 
L 1819 4666 
L 2450 4666 
L 2450 531 
L 3481 531 
L 3481 0 
L 794 0 
L 794 531 
z
" transform="scale(0.015625)"/>
        <path id="DejaVuSans-37" d="M 525 4666 
L 3525 4666 
L 3525 4397 
L 1831 0 
L 1172 0 
L 2766 4134 
L 525 4134 
L 525 4666 
z
" transform="scale(0.015625)"/>
        <path id="DejaVuSans-2e" d="M 684 794 
L 1344 794 
L 1344 0 
L 684 0 
L 684 794 
z
" transform="scale(0.015625)"/>
        <path id="DejaVuSans-30" d="M 2034 4250 
Q 1547 4250 1301 3770 
Q 1056 3291 1056 2328 
Q 1056 1369 1301 889 
Q 1547 409 2034 409 
Q 2525 409 2770 889 
Q 3016 1369 3016 2328 
Q 3016 3291 2770 3770 
Q 2525 4250 2034 4250 
z
M 2034 4750 
Q 2819 4750 3233 4129 
Q 3647 3509 3647 2328 
Q 3647 1150 3233 529 
Q 2819 -91 2034 -91 
Q 1250 -91 836 529 
Q 422 1150 422 2328 
Q 422 3509 836 4129 
Q 1250 4750 2034 4750 
z
" transform="scale(0.015625)"/>
        <path id="DejaVuSans-32" d="M 1228 531 
L 3431 531 
L 3431 0 
L 469 0 
L 469 531 
Q 828 903 1448 1529 
Q 2069 2156 2228 2338 
Q 2531 2678 2651 2914 
Q 2772 3150 2772 3378 
Q 2772 3750 2511 3984 
Q 2250 4219 1831 4219 
Q 1534 4219 1204 4116 
Q 875 4013 500 3803 
L 500 4441 
Q 881 4594 1212 4672 
Q 1544 4750 1819 4750 
Q 2544 4750 2975 4387 
Q 3406 4025 3406 3419 
Q 3406 3131 3298 2873 
Q 3191 2616 2906 2266 
Q 2828 2175 2409 1742 
Q 1991 1309 1228 531 
z
" transform="scale(0.015625)"/>
       </defs>
       <use xlink:href="#DejaVuSans-31"/>
       <use xlink:href="#DejaVuSans-37" x="63.623047"/>
       <use xlink:href="#DejaVuSans-2e" x="127.246094"/>
       <use xlink:href="#DejaVuSans-30" x="159.033203"/>
       <use xlink:href="#DejaVuSans-31" x="222.65625"/>
       <use xlink:href="#DejaVuSans-2e" x="286.279297"/>
       <use xlink:href="#DejaVuSans-32" x="318.066406"/>
       <use xlink:href="#DejaVuSans-30" x="381.689453"/>
       <use xlink:href="#DejaVuSans-32" x="445.3125"/>
       <use xlink:href="#DejaVuSans-30" x="508.935547"/>
      </g>
     </g>
    </g>
    <g id="xtick_2">
     <g id="line2d_3">
      <path d="M 94.768115 276.48 
L 94.768115 41.472 
" clip-path="url(#pa87ecb7649)" style="fill: none; stroke-dasharray: 2.96,1.28; stroke-dashoffset: 0; stroke: #808080; stroke-width: 0.8"/>
     </g>
     <g id="line2d_4">
      <g>
       <use xlink:href="#m6cbb70e10e" x="94.768115" y="276.48" style="stroke: #000000; stroke-width: 0.8"/>
      </g>
     </g>
     <g id="text_2">
      <!-- 06.05.2020 -->
      <g transform="translate(44.142904 318.688565) rotate(-30) scale(0.1 -0.1)">
       <defs>
        <path id="DejaVuSans-36" d="M 2113 2584 
Q 1688 2584 1439 2293 
Q 1191 2003 1191 1497 
Q 1191 994 1439 701 
Q 1688 409 2113 409 
Q 2538 409 2786 701 
Q 3034 994 3034 1497 
Q 3034 2003 2786 2293 
Q 2538 2584 2113 2584 
z
M 3366 4563 
L 3366 3988 
Q 3128 4100 2886 4159 
Q 2644 4219 2406 4219 
Q 1781 4219 1451 3797 
Q 1122 3375 1075 2522 
Q 1259 2794 1537 2939 
Q 1816 3084 2150 3084 
Q 2853 3084 3261 2657 
Q 3669 2231 3669 1497 
Q 3669 778 3244 343 
Q 2819 -91 2113 -91 
Q 1303 -91 875 529 
Q 447 1150 447 2328 
Q 447 3434 972 4092 
Q 1497 4750 2381 4750 
Q 2619 4750 2861 4703 
Q 3103 4656 3366 4563 
z
" transform="scale(0.015625)"/>
        <path id="DejaVuSans-35" d="M 691 4666 
L 3169 4666 
L 3169 4134 
L 1269 4134 
L 1269 2991 
Q 1406 3038 1543 3061 
Q 1681 3084 1819 3084 
Q 2600 3084 3056 2656 
Q 3513 2228 3513 1497 
Q 3513 744 3044 326 
Q 2575 -91 1722 -91 
Q 1428 -91 1123 -41 
Q 819 9 494 109 
L 494 744 
Q 775 591 1075 516 
Q 1375 441 1709 441 
Q 2250 441 2565 725 
Q 2881 1009 2881 1497 
Q 2881 1984 2565 2268 
Q 2250 2553 1709 2553 
Q 1456 2553 1204 2497 
Q 953 2441 691 2322 
L 691 4666 
z
" transform="scale(0.015625)"/>
       </defs>
       <use xlink:href="#DejaVuSans-30"/>
       <use xlink:href="#DejaVuSans-36" x="63.623047"/>
       <use xlink:href="#DejaVuSans-2e" x="127.246094"/>
       <use xlink:href="#DejaVuSans-30" x="159.033203"/>
       <use xlink:href="#DejaVuSans-35" x="222.65625"/>
       <use xlink:href="#DejaVuSans-2e" x="286.279297"/>
       <use xlink:href="#DejaVuSans-32" x="318.066406"/>
       <use xlink:href="#DejaVuSans-30" x="381.689453"/>
       <use xlink:href="#DejaVuSans-32" x="445.3125"/>
       <use xlink:href="#DejaVuSans-30" x="508.935547"/>
      </g>
     </g>
    </g>
    <g id="xtick_3">
     <g id="line2d_5">
      <path d="M 130.587574 276.48 
L 130.587574 41.472 
" clip-path="url(#pa87ecb7649)" style="fill: none; stroke-dasharray: 2.96,1.28; stroke-dashoffset: 0; stroke: #808080; stroke-width: 0.8"/>
     </g>
     <g id="line2d_6">
      <g>
       <use xlink:href="#m6cbb70e10e" x="130.587574" y="276.48" style="stroke: #000000; stroke-width: 0.8"/>
      </g>
     </g>
     <g id="text_3">
      <!-- 24.08.2020 -->
      <g transform="translate(79.962363 318.688565) rotate(-30) scale(0.1 -0.1)">
       <defs>
        <path id="DejaVuSans-34" d="M 2419 4116 
L 825 1625 
L 2419 1625 
L 2419 4116 
z
M 2253 4666 
L 3047 4666 
L 3047 1625 
L 3713 1625 
L 3713 1100 
L 3047 1100 
L 3047 0 
L 2419 0 
L 2419 1100 
L 313 1100 
L 313 1709 
L 2253 4666 
z
" transform="scale(0.015625)"/>
        <path id="DejaVuSans-38" d="M 2034 2216 
Q 1584 2216 1326 1975 
Q 1069 1734 1069 1313 
Q 1069 891 1326 650 
Q 1584 409 2034 409 
Q 2484 409 2743 651 
Q 3003 894 3003 1313 
Q 3003 1734 2745 1975 
Q 2488 2216 2034 2216 
z
M 1403 2484 
Q 997 2584 770 2862 
Q 544 3141 544 3541 
Q 544 4100 942 4425 
Q 1341 4750 2034 4750 
Q 2731 4750 3128 4425 
Q 3525 4100 3525 3541 
Q 3525 3141 3298 2862 
Q 3072 2584 2669 2484 
Q 3125 2378 3379 2068 
Q 3634 1759 3634 1313 
Q 3634 634 3220 271 
Q 2806 -91 2034 -91 
Q 1263 -91 848 271 
Q 434 634 434 1313 
Q 434 1759 690 2068 
Q 947 2378 1403 2484 
z
M 1172 3481 
Q 1172 3119 1398 2916 
Q 1625 2713 2034 2713 
Q 2441 2713 2670 2916 
Q 2900 3119 2900 3481 
Q 2900 3844 2670 4047 
Q 2441 4250 2034 4250 
Q 1625 4250 1398 4047 
Q 1172 3844 1172 3481 
z
" transform="scale(0.015625)"/>
       </defs>
       <use xlink:href="#DejaVuSans-32"/>
       <use xlink:href="#DejaVuSans-34" x="63.623047"/>
       <use xlink:href="#DejaVuSans-2e" x="127.246094"/>
       <use xlink:href="#DejaVuSans-30" x="159.033203"/>
       <use xlink:href="#DejaVuSans-38" x="222.65625"/>
       <use xlink:href="#DejaVuSans-2e" x="286.279297"/>
       <use xlink:href="#DejaVuSans-32" x="318.066406"/>
       <use xlink:href="#DejaVuSans-30" x="381.689453"/>
       <use xlink:href="#DejaVuSans-32" x="445.3125"/>
       <use xlink:href="#DejaVuSans-30" x="508.935547"/>
      </g>
     </g>
    </g>
    <g id="xtick_4">
     <g id="line2d_7">
      <path d="M 166.407032 276.48 
L 166.407032 41.472 
" clip-path="url(#pa87ecb7649)" style="fill: none; stroke-dasharray: 2.96,1.28; stroke-dashoffset: 0; stroke: #808080; stroke-width: 0.8"/>
     </g>
     <g id="line2d_8">
      <g>
       <use xlink:href="#m6cbb70e10e" x="166.407032" y="276.48" style="stroke: #000000; stroke-width: 0.8"/>
      </g>
     </g>
     <g id="text_4">
      <!-- 12.12.2020 -->
      <g transform="translate(115.781821 318.688565) rotate(-30) scale(0.1 -0.1)">
       <use xlink:href="#DejaVuSans-31"/>
       <use xlink:href="#DejaVuSans-32" x="63.623047"/>
       <use xlink:href="#DejaVuSans-2e" x="127.246094"/>
       <use xlink:href="#DejaVuSans-31" x="159.033203"/>
       <use xlink:href="#DejaVuSans-32" x="222.65625"/>
       <use xlink:href="#DejaVuSans-2e" x="286.279297"/>
       <use xlink:href="#DejaVuSans-32" x="318.066406"/>
       <use xlink:href="#DejaVuSans-30" x="381.689453"/>
       <use xlink:href="#DejaVuSans-32" x="445.3125"/>
       <use xlink:href="#DejaVuSans-30" x="508.935547"/>
      </g>
     </g>
    </g>
    <g id="xtick_5">
     <g id="line2d_9">
      <path d="M 202.22649 276.48 
L 202.22649 41.472 
" clip-path="url(#pa87ecb7649)" style="fill: none; stroke-dasharray: 2.96,1.28; stroke-dashoffset: 0; stroke: #808080; stroke-width: 0.8"/>
     </g>
     <g id="line2d_10">
      <g>
       <use xlink:href="#m6cbb70e10e" x="202.22649" y="276.48" style="stroke: #000000; stroke-width: 0.8"/>
      </g>
     </g>
     <g id="text_5">
      <!-- 01.04.2021 -->
      <g transform="translate(151.60128 318.688565) rotate(-30) scale(0.1 -0.1)">
       <use xlink:href="#DejaVuSans-30"/>
       <use xlink:href="#DejaVuSans-31" x="63.623047"/>
       <use xlink:href="#DejaVuSans-2e" x="127.246094"/>
       <use xlink:href="#DejaVuSans-30" x="159.033203"/>
       <use xlink:href="#DejaVuSans-34" x="222.65625"/>
       <use xlink:href="#DejaVuSans-2e" x="286.279297"/>
       <use xlink:href="#DejaVuSans-32" x="318.066406"/>
       <use xlink:href="#DejaVuSans-30" x="381.689453"/>
       <use xlink:href="#DejaVuSans-32" x="445.3125"/>
       <use xlink:href="#DejaVuSans-31" x="508.935547"/>
      </g>
     </g>
    </g>
    <g id="xtick_6">
     <g id="line2d_11">
      <path d="M 238.045949 276.48 
L 238.045949 41.472 
" clip-path="url(#pa87ecb7649)" style="fill: none; stroke-dasharray: 2.96,1.28; stroke-dashoffset: 0; stroke: #808080; stroke-width: 0.8"/>
     </g>
     <g id="line2d_12">
      <g>
       <use xlink:href="#m6cbb70e10e" x="238.045949" y="276.48" style="stroke: #000000; stroke-width: 0.8"/>
      </g>
     </g>
     <g id="text_6">
      <!-- 20.07.2021 -->
      <g transform="translate(187.420738 318.688565) rotate(-30) scale(0.1 -0.1)">
       <use xlink:href="#DejaVuSans-32"/>
       <use xlink:href="#DejaVuSans-30" x="63.623047"/>
       <use xlink:href="#DejaVuSans-2e" x="127.246094"/>
       <use xlink:href="#DejaVuSans-30" x="159.033203"/>
       <use xlink:href="#DejaVuSans-37" x="222.65625"/>
       <use xlink:href="#DejaVuSans-2e" x="286.279297"/>
       <use xlink:href="#DejaVuSans-32" x="318.066406"/>
       <use xlink:href="#DejaVuSans-30" x="381.689453"/>
       <use xlink:href="#DejaVuSans-32" x="445.3125"/>
       <use xlink:href="#DejaVuSans-31" x="508.935547"/>
      </g>
     </g>
    </g>
    <g id="xtick_7">
     <g id="line2d_13">
      <path d="M 273.865407 276.48 
L 273.865407 41.472 
" clip-path="url(#pa87ecb7649)" style="fill: none; stroke-dasharray: 2.96,1.28; stroke-dashoffset: 0; stroke: #808080; stroke-width: 0.8"/>
     </g>
     <g id="line2d_14">
      <g>
       <use xlink:href="#m6cbb70e10e" x="273.865407" y="276.48" style="stroke: #000000; stroke-width: 0.8"/>
      </g>
     </g>
     <g id="text_7">
      <!-- 07.11.2021 -->
      <g transform="translate(223.240196 318.688565) rotate(-30) scale(0.1 -0.1)">
       <use xlink:href="#DejaVuSans-30"/>
       <use xlink:href="#DejaVuSans-37" x="63.623047"/>
       <use xlink:href="#DejaVuSans-2e" x="127.246094"/>
       <use xlink:href="#DejaVuSans-31" x="159.033203"/>
       <use xlink:href="#DejaVuSans-31" x="222.65625"/>
       <use xlink:href="#DejaVuSans-2e" x="286.279297"/>
       <use xlink:href="#DejaVuSans-32" x="318.066406"/>
       <use xlink:href="#DejaVuSans-30" x="381.689453"/>
       <use xlink:href="#DejaVuSans-32" x="445.3125"/>
       <use xlink:href="#DejaVuSans-31" x="508.935547"/>
      </g>
     </g>
    </g>
    <g id="xtick_8">
     <g id="line2d_15">
      <path d="M 309.684866 276.48 
L 309.684866 41.472 
" clip-path="url(#pa87ecb7649)" style="fill: none; stroke-dasharray: 2.96,1.28; stroke-dashoffset: 0; stroke: #808080; stroke-width: 0.8"/>
     </g>
     <g id="line2d_16">
      <g>
       <use xlink:href="#m6cbb70e10e" x="309.684866" y="276.48" style="stroke: #000000; stroke-width: 0.8"/>
      </g>
     </g>
     <g id="text_8">
      <!-- 25.02.2022 -->
      <g transform="translate(259.059655 318.688565) rotate(-30) scale(0.1 -0.1)">
       <use xlink:href="#DejaVuSans-32"/>
       <use xlink:href="#DejaVuSans-35" x="63.623047"/>
       <use xlink:href="#DejaVuSans-2e" x="127.246094"/>
       <use xlink:href="#DejaVuSans-30" x="159.033203"/>
       <use xlink:href="#DejaVuSans-32" x="222.65625"/>
       <use xlink:href="#DejaVuSans-2e" x="286.279297"/>
       <use xlink:href="#DejaVuSans-32" x="318.066406"/>
       <use xlink:href="#DejaVuSans-30" x="381.689453"/>
       <use xlink:href="#DejaVuSans-32" x="445.3125"/>
       <use xlink:href="#DejaVuSans-32" x="508.935547"/>
      </g>
     </g>
    </g>
    <g id="xtick_9">
     <g id="line2d_17">
      <path d="M 345.504324 276.48 
L 345.504324 41.472 
" clip-path="url(#pa87ecb7649)" style="fill: none; stroke-dasharray: 2.96,1.28; stroke-dashoffset: 0; stroke: #808080; stroke-width: 0.8"/>
     </g>
     <g id="line2d_18">
      <g>
       <use xlink:href="#m6cbb70e10e" x="345.504324" y="276.48" style="stroke: #000000; stroke-width: 0.8"/>
      </g>
     </g>
     <g id="text_9">
      <!-- 15.06.2022 -->
      <g transform="translate(294.879113 318.688565) rotate(-30) scale(0.1 -0.1)">
       <use xlink:href="#DejaVuSans-31"/>
       <use xlink:href="#DejaVuSans-35" x="63.623047"/>
       <use xlink:href="#DejaVuSans-2e" x="127.246094"/>
       <use xlink:href="#DejaVuSans-30" x="159.033203"/>
       <use xlink:href="#DejaVuSans-36" x="222.65625"/>
       <use xlink:href="#DejaVuSans-2e" x="286.279297"/>
       <use xlink:href="#DejaVuSans-32" x="318.066406"/>
       <use xlink:href="#DejaVuSans-30" x="381.689453"/>
       <use xlink:href="#DejaVuSans-32" x="445.3125"/>
       <use xlink:href="#DejaVuSans-32" x="508.935547"/>
      </g>
     </g>
    </g>
    <g id="xtick_10">
     <g id="line2d_19">
      <path d="M 381.323782 276.48 
L 381.323782 41.472 
" clip-path="url(#pa87ecb7649)" style="fill: none; stroke-dasharray: 2.96,1.28; stroke-dashoffset: 0; stroke: #808080; stroke-width: 0.8"/>
     </g>
     <g id="line2d_20">
      <g>
       <use xlink:href="#m6cbb70e10e" x="381.323782" y="276.48" style="stroke: #000000; stroke-width: 0.8"/>
      </g>
     </g>
     <g id="text_10">
      <!-- 03.10.2022 -->
      <g transform="translate(330.698571 318.688565) rotate(-30) scale(0.1 -0.1)">
       <defs>
        <path id="DejaVuSans-33" d="M 2597 2516 
Q 3050 2419 3304 2112 
Q 3559 1806 3559 1356 
Q 3559 666 3084 287 
Q 2609 -91 1734 -91 
Q 1441 -91 1130 -33 
Q 819 25 488 141 
L 488 750 
Q 750 597 1062 519 
Q 1375 441 1716 441 
Q 2309 441 2620 675 
Q 2931 909 2931 1356 
Q 2931 1769 2642 2001 
Q 2353 2234 1838 2234 
L 1294 2234 
L 1294 2753 
L 1863 2753 
Q 2328 2753 2575 2939 
Q 2822 3125 2822 3475 
Q 2822 3834 2567 4026 
Q 2313 4219 1838 4219 
Q 1578 4219 1281 4162 
Q 984 4106 628 3988 
L 628 4550 
Q 988 4650 1302 4700 
Q 1616 4750 1894 4750 
Q 2613 4750 3031 4423 
Q 3450 4097 3450 3541 
Q 3450 3153 3228 2886 
Q 3006 2619 2597 2516 
z
" transform="scale(0.015625)"/>
       </defs>
       <use xlink:href="#DejaVuSans-30"/>
       <use xlink:href="#DejaVuSans-33" x="63.623047"/>
       <use xlink:href="#DejaVuSans-2e" x="127.246094"/>
       <use xlink:href="#DejaVuSans-31" x="159.033203"/>
       <use xlink:href="#DejaVuSans-30" x="222.65625"/>
       <use xlink:href="#DejaVuSans-2e" x="286.279297"/>
       <use xlink:href="#DejaVuSans-32" x="318.066406"/>
       <use xlink:href="#DejaVuSans-30" x="381.689453"/>
       <use xlink:href="#DejaVuSans-32" x="445.3125"/>
       <use xlink:href="#DejaVuSans-32" x="508.935547"/>
      </g>
     </g>
    </g>
   </g>
   <g id="matplotlib.axis_2">
    <g id="ytick_1">
     <g id="line2d_21">
      <path d="M 57.6 265.748806 
L 414.72 265.748806 
" clip-path="url(#pa87ecb7649)" style="fill: none; stroke-dasharray: 2.96,1.28; stroke-dashoffset: 0; stroke: #808080; stroke-width: 0.8"/>
     </g>
     <g id="line2d_22">
      <defs>
       <path id="m652f255787" d="M 0 0 
L -3.5 0 
" style="stroke: #000000; stroke-width: 0.8"/>
      </defs>
      <g>
       <use xlink:href="#m652f255787" x="57.6" y="265.748806" style="stroke: #000000; stroke-width: 0.8"/>
      </g>
     </g>
     <g id="text_11">
      <!-- 0 -->
      <g transform="translate(44.2375 269.548025) scale(0.1 -0.1)">
       <use xlink:href="#DejaVuSans-30"/>
      </g>
     </g>
    </g>
    <g id="ytick_2">
     <g id="line2d_23">
      <path d="M 57.6 235.832325 
L 414.72 235.832325 
" clip-path="url(#pa87ecb7649)" style="fill: none; stroke-dasharray: 2.96,1.28; stroke-dashoffset: 0; stroke: #808080; stroke-width: 0.8"/>
     </g>
     <g id="line2d_24">
      <g>
       <use xlink:href="#m652f255787" x="57.6" y="235.832325" style="stroke: #000000; stroke-width: 0.8"/>
      </g>
     </g>
     <g id="text_12">
      <!-- 250 -->
      <g transform="translate(31.5125 239.631544) scale(0.1 -0.1)">
       <use xlink:href="#DejaVuSans-32"/>
       <use xlink:href="#DejaVuSans-35" x="63.623047"/>
       <use xlink:href="#DejaVuSans-30" x="127.246094"/>
      </g>
     </g>
    </g>
    <g id="ytick_3">
     <g id="line2d_25">
      <path d="M 57.6 205.915845 
L 414.72 205.915845 
" clip-path="url(#pa87ecb7649)" style="fill: none; stroke-dasharray: 2.96,1.28; stroke-dashoffset: 0; stroke: #808080; stroke-width: 0.8"/>
     </g>
     <g id="line2d_26">
      <g>
       <use xlink:href="#m652f255787" x="57.6" y="205.915845" style="stroke: #000000; stroke-width: 0.8"/>
      </g>
     </g>
     <g id="text_13">
      <!-- 500 -->
      <g transform="translate(31.5125 209.715064) scale(0.1 -0.1)">
       <use xlink:href="#DejaVuSans-35"/>
       <use xlink:href="#DejaVuSans-30" x="63.623047"/>
       <use xlink:href="#DejaVuSans-30" x="127.246094"/>
      </g>
     </g>
    </g>
    <g id="ytick_4">
     <g id="line2d_27">
      <path d="M 57.6 175.999364 
L 414.72 175.999364 
" clip-path="url(#pa87ecb7649)" style="fill: none; stroke-dasharray: 2.96,1.28; stroke-dashoffset: 0; stroke: #808080; stroke-width: 0.8"/>
     </g>
     <g id="line2d_28">
      <g>
       <use xlink:href="#m652f255787" x="57.6" y="175.999364" style="stroke: #000000; stroke-width: 0.8"/>
      </g>
     </g>
     <g id="text_14">
      <!-- 750 -->
      <g transform="translate(31.5125 179.798583) scale(0.1 -0.1)">
       <use xlink:href="#DejaVuSans-37"/>
       <use xlink:href="#DejaVuSans-35" x="63.623047"/>
       <use xlink:href="#DejaVuSans-30" x="127.246094"/>
      </g>
     </g>
    </g>
    <g id="ytick_5">
     <g id="line2d_29">
      <path d="M 57.6 146.082883 
L 414.72 146.082883 
" clip-path="url(#pa87ecb7649)" style="fill: none; stroke-dasharray: 2.96,1.28; stroke-dashoffset: 0; stroke: #808080; stroke-width: 0.8"/>
     </g>
     <g id="line2d_30">
      <g>
       <use xlink:href="#m652f255787" x="57.6" y="146.082883" style="stroke: #000000; stroke-width: 0.8"/>
      </g>
     </g>
     <g id="text_15">
      <!-- 1000 -->
      <g transform="translate(25.15 149.882102) scale(0.1 -0.1)">
       <use xlink:href="#DejaVuSans-31"/>
       <use xlink:href="#DejaVuSans-30" x="63.623047"/>
       <use xlink:href="#DejaVuSans-30" x="127.246094"/>
       <use xlink:href="#DejaVuSans-30" x="190.869141"/>
      </g>
     </g>
    </g>
    <g id="ytick_6">
     <g id="line2d_31">
      <path d="M 57.6 116.166403 
L 414.72 116.166403 
" clip-path="url(#pa87ecb7649)" style="fill: none; stroke-dasharray: 2.96,1.28; stroke-dashoffset: 0; stroke: #808080; stroke-width: 0.8"/>
     </g>
     <g id="line2d_32">
      <g>
       <use xlink:href="#m652f255787" x="57.6" y="116.166403" style="stroke: #000000; stroke-width: 0.8"/>
      </g>
     </g>
     <g id="text_16">
      <!-- 1250 -->
      <g transform="translate(25.15 119.965622) scale(0.1 -0.1)">
       <use xlink:href="#DejaVuSans-31"/>
       <use xlink:href="#DejaVuSans-32" x="63.623047"/>
       <use xlink:href="#DejaVuSans-35" x="127.246094"/>
       <use xlink:href="#DejaVuSans-30" x="190.869141"/>
      </g>
     </g>
    </g>
    <g id="ytick_7">
     <g id="line2d_33">
      <path d="M 57.6 86.249922 
L 414.72 86.249922 
" clip-path="url(#pa87ecb7649)" style="fill: none; stroke-dasharray: 2.96,1.28; stroke-dashoffset: 0; stroke: #808080; stroke-width: 0.8"/>
     </g>
     <g id="line2d_34">
      <g>
       <use xlink:href="#m652f255787" x="57.6" y="86.249922" style="stroke: #000000; stroke-width: 0.8"/>
      </g>
     </g>
     <g id="text_17">
      <!-- 1500 -->
      <g transform="translate(25.15 90.049141) scale(0.1 -0.1)">
       <use xlink:href="#DejaVuSans-31"/>
       <use xlink:href="#DejaVuSans-35" x="63.623047"/>
       <use xlink:href="#DejaVuSans-30" x="127.246094"/>
       <use xlink:href="#DejaVuSans-30" x="190.869141"/>
      </g>
     </g>
    </g>
    <g id="ytick_8">
     <g id="line2d_35">
      <path d="M 57.6 56.333441 
L 414.72 56.333441 
" clip-path="url(#pa87ecb7649)" style="fill: none; stroke-dasharray: 2.96,1.28; stroke-dashoffset: 0; stroke: #808080; stroke-width: 0.8"/>
     </g>
     <g id="line2d_36">
      <g>
       <use xlink:href="#m652f255787" x="57.6" y="56.333441" style="stroke: #000000; stroke-width: 0.8"/>
      </g>
     </g>
     <g id="text_18">
      <!-- 1750 -->
      <g transform="translate(25.15 60.13266) scale(0.1 -0.1)">
       <use xlink:href="#DejaVuSans-31"/>
       <use xlink:href="#DejaVuSans-37" x="63.623047"/>
       <use xlink:href="#DejaVuSans-35" x="127.246094"/>
       <use xlink:href="#DejaVuSans-30" x="190.869141"/>
      </g>
     </g>
    </g>
    <g id="text_19">
     <!-- Inzidenz pro 7 Tage pro 100.000 Einwohner -->
     <g transform="translate(19.070312 267.301) rotate(-90) scale(0.1 -0.1)">
      <defs>
       <path id="DejaVuSans-49" d="M 628 4666 
L 1259 4666 
L 1259 0 
L 628 0 
L 628 4666 
z
" transform="scale(0.015625)"/>
       <path id="DejaVuSans-6e" d="M 3513 2113 
L 3513 0 
L 2938 0 
L 2938 2094 
Q 2938 2591 2744 2837 
Q 2550 3084 2163 3084 
Q 1697 3084 1428 2787 
Q 1159 2491 1159 1978 
L 1159 0 
L 581 0 
L 581 3500 
L 1159 3500 
L 1159 2956 
Q 1366 3272 1645 3428 
Q 1925 3584 2291 3584 
Q 2894 3584 3203 3211 
Q 3513 2838 3513 2113 
z
" transform="scale(0.015625)"/>
       <path id="DejaVuSans-7a" d="M 353 3500 
L 3084 3500 
L 3084 2975 
L 922 459 
L 3084 459 
L 3084 0 
L 275 0 
L 275 525 
L 2438 3041 
L 353 3041 
L 353 3500 
z
" transform="scale(0.015625)"/>
       <path id="DejaVuSans-69" d="M 603 3500 
L 1178 3500 
L 1178 0 
L 603 0 
L 603 3500 
z
M 603 4863 
L 1178 4863 
L 1178 4134 
L 603 4134 
L 603 4863 
z
" transform="scale(0.015625)"/>
       <path id="DejaVuSans-64" d="M 2906 2969 
L 2906 4863 
L 3481 4863 
L 3481 0 
L 2906 0 
L 2906 525 
Q 2725 213 2448 61 
Q 2172 -91 1784 -91 
Q 1150 -91 751 415 
Q 353 922 353 1747 
Q 353 2572 751 3078 
Q 1150 3584 1784 3584 
Q 2172 3584 2448 3432 
Q 2725 3281 2906 2969 
z
M 947 1747 
Q 947 1113 1208 752 
Q 1469 391 1925 391 
Q 2381 391 2643 752 
Q 2906 1113 2906 1747 
Q 2906 2381 2643 2742 
Q 2381 3103 1925 3103 
Q 1469 3103 1208 2742 
Q 947 2381 947 1747 
z
" transform="scale(0.015625)"/>
       <path id="DejaVuSans-65" d="M 3597 1894 
L 3597 1613 
L 953 1613 
Q 991 1019 1311 708 
Q 1631 397 2203 397 
Q 2534 397 2845 478 
Q 3156 559 3463 722 
L 3463 178 
Q 3153 47 2828 -22 
Q 2503 -91 2169 -91 
Q 1331 -91 842 396 
Q 353 884 353 1716 
Q 353 2575 817 3079 
Q 1281 3584 2069 3584 
Q 2775 3584 3186 3129 
Q 3597 2675 3597 1894 
z
M 3022 2063 
Q 3016 2534 2758 2815 
Q 2500 3097 2075 3097 
Q 1594 3097 1305 2825 
Q 1016 2553 972 2059 
L 3022 2063 
z
" transform="scale(0.015625)"/>
       <path id="DejaVuSans-20" transform="scale(0.015625)"/>
       <path id="DejaVuSans-70" d="M 1159 525 
L 1159 -1331 
L 581 -1331 
L 581 3500 
L 1159 3500 
L 1159 2969 
Q 1341 3281 1617 3432 
Q 1894 3584 2278 3584 
Q 2916 3584 3314 3078 
Q 3713 2572 3713 1747 
Q 3713 922 3314 415 
Q 2916 -91 2278 -91 
Q 1894 -91 1617 61 
Q 1341 213 1159 525 
z
M 3116 1747 
Q 3116 2381 2855 2742 
Q 2594 3103 2138 3103 
Q 1681 3103 1420 2742 
Q 1159 2381 1159 1747 
Q 1159 1113 1420 752 
Q 1681 391 2138 391 
Q 2594 391 2855 752 
Q 3116 1113 3116 1747 
z
" transform="scale(0.015625)"/>
       <path id="DejaVuSans-72" d="M 2631 2963 
Q 2534 3019 2420 3045 
Q 2306 3072 2169 3072 
Q 1681 3072 1420 2755 
Q 1159 2438 1159 1844 
L 1159 0 
L 581 0 
L 581 3500 
L 1159 3500 
L 1159 2956 
Q 1341 3275 1631 3429 
Q 1922 3584 2338 3584 
Q 2397 3584 2469 3576 
Q 2541 3569 2628 3553 
L 2631 2963 
z
" transform="scale(0.015625)"/>
       <path id="DejaVuSans-6f" d="M 1959 3097 
Q 1497 3097 1228 2736 
Q 959 2375 959 1747 
Q 959 1119 1226 758 
Q 1494 397 1959 397 
Q 2419 397 2687 759 
Q 2956 1122 2956 1747 
Q 2956 2369 2687 2733 
Q 2419 3097 1959 3097 
z
M 1959 3584 
Q 2709 3584 3137 3096 
Q 3566 2609 3566 1747 
Q 3566 888 3137 398 
Q 2709 -91 1959 -91 
Q 1206 -91 779 398 
Q 353 888 353 1747 
Q 353 2609 779 3096 
Q 1206 3584 1959 3584 
z
" transform="scale(0.015625)"/>
       <path id="DejaVuSans-54" d="M -19 4666 
L 3928 4666 
L 3928 4134 
L 2272 4134 
L 2272 0 
L 1638 0 
L 1638 4134 
L -19 4134 
L -19 4666 
z
" transform="scale(0.015625)"/>
       <path id="DejaVuSans-61" d="M 2194 1759 
Q 1497 1759 1228 1600 
Q 959 1441 959 1056 
Q 959 750 1161 570 
Q 1363 391 1709 391 
Q 2188 391 2477 730 
Q 2766 1069 2766 1631 
L 2766 1759 
L 2194 1759 
z
M 3341 1997 
L 3341 0 
L 2766 0 
L 2766 531 
Q 2569 213 2275 61 
Q 1981 -91 1556 -91 
Q 1019 -91 701 211 
Q 384 513 384 1019 
Q 384 1609 779 1909 
Q 1175 2209 1959 2209 
L 2766 2209 
L 2766 2266 
Q 2766 2663 2505 2880 
Q 2244 3097 1772 3097 
Q 1472 3097 1187 3025 
Q 903 2953 641 2809 
L 641 3341 
Q 956 3463 1253 3523 
Q 1550 3584 1831 3584 
Q 2591 3584 2966 3190 
Q 3341 2797 3341 1997 
z
" transform="scale(0.015625)"/>
       <path id="DejaVuSans-67" d="M 2906 1791 
Q 2906 2416 2648 2759 
Q 2391 3103 1925 3103 
Q 1463 3103 1205 2759 
Q 947 2416 947 1791 
Q 947 1169 1205 825 
Q 1463 481 1925 481 
Q 2391 481 2648 825 
Q 2906 1169 2906 1791 
z
M 3481 434 
Q 3481 -459 3084 -895 
Q 2688 -1331 1869 -1331 
Q 1566 -1331 1297 -1286 
Q 1028 -1241 775 -1147 
L 775 -588 
Q 1028 -725 1275 -790 
Q 1522 -856 1778 -856 
Q 2344 -856 2625 -561 
Q 2906 -266 2906 331 
L 2906 616 
Q 2728 306 2450 153 
Q 2172 0 1784 0 
Q 1141 0 747 490 
Q 353 981 353 1791 
Q 353 2603 747 3093 
Q 1141 3584 1784 3584 
Q 2172 3584 2450 3431 
Q 2728 3278 2906 2969 
L 2906 3500 
L 3481 3500 
L 3481 434 
z
" transform="scale(0.015625)"/>
       <path id="DejaVuSans-45" d="M 628 4666 
L 3578 4666 
L 3578 4134 
L 1259 4134 
L 1259 2753 
L 3481 2753 
L 3481 2222 
L 1259 2222 
L 1259 531 
L 3634 531 
L 3634 0 
L 628 0 
L 628 4666 
z
" transform="scale(0.015625)"/>
       <path id="DejaVuSans-77" d="M 269 3500 
L 844 3500 
L 1563 769 
L 2278 3500 
L 2956 3500 
L 3675 769 
L 4391 3500 
L 4966 3500 
L 4050 0 
L 3372 0 
L 2619 2869 
L 1863 0 
L 1184 0 
L 269 3500 
z
" transform="scale(0.015625)"/>
       <path id="DejaVuSans-68" d="M 3513 2113 
L 3513 0 
L 2938 0 
L 2938 2094 
Q 2938 2591 2744 2837 
Q 2550 3084 2163 3084 
Q 1697 3084 1428 2787 
Q 1159 2491 1159 1978 
L 1159 0 
L 581 0 
L 581 4863 
L 1159 4863 
L 1159 2956 
Q 1366 3272 1645 3428 
Q 1925 3584 2291 3584 
Q 2894 3584 3203 3211 
Q 3513 2838 3513 2113 
z
" transform="scale(0.015625)"/>
      </defs>
      <use xlink:href="#DejaVuSans-49"/>
      <use xlink:href="#DejaVuSans-6e" x="29.492188"/>
      <use xlink:href="#DejaVuSans-7a" x="92.871094"/>
      <use xlink:href="#DejaVuSans-69" x="145.361328"/>
      <use xlink:href="#DejaVuSans-64" x="173.144531"/>
      <use xlink:href="#DejaVuSans-65" x="236.621094"/>
      <use xlink:href="#DejaVuSans-6e" x="298.144531"/>
      <use xlink:href="#DejaVuSans-7a" x="361.523438"/>
      <use xlink:href="#DejaVuSans-20" x="414.013672"/>
      <use xlink:href="#DejaVuSans-70" x="445.800781"/>
      <use xlink:href="#DejaVuSans-72" x="509.277344"/>
      <use xlink:href="#DejaVuSans-6f" x="548.140625"/>
      <use xlink:href="#DejaVuSans-20" x="609.322266"/>
      <use xlink:href="#DejaVuSans-37" x="641.109375"/>
      <use xlink:href="#DejaVuSans-20" x="704.732422"/>
      <use xlink:href="#DejaVuSans-54" x="736.519531"/>
      <use xlink:href="#DejaVuSans-61" x="781.103516"/>
      <use xlink:href="#DejaVuSans-67" x="842.382812"/>
      <use xlink:href="#DejaVuSans-65" x="905.859375"/>
      <use xlink:href="#DejaVuSans-20" x="967.382812"/>
      <use xlink:href="#DejaVuSans-70" x="999.169922"/>
      <use xlink:href="#DejaVuSans-72" x="1062.646484"/>
      <use xlink:href="#DejaVuSans-6f" x="1101.509766"/>
      <use xlink:href="#DejaVuSans-20" x="1162.691406"/>
      <use xlink:href="#DejaVuSans-31" x="1194.478516"/>
      <use xlink:href="#DejaVuSans-30" x="1258.101562"/>
      <use xlink:href="#DejaVuSans-30" x="1321.724609"/>
      <use xlink:href="#DejaVuSans-2e" x="1385.347656"/>
      <use xlink:href="#DejaVuSans-30" x="1417.134766"/>
      <use xlink:href="#DejaVuSans-30" x="1480.757812"/>
      <use xlink:href="#DejaVuSans-30" x="1544.380859"/>
      <use xlink:href="#DejaVuSans-20" x="1608.003906"/>
      <use xlink:href="#DejaVuSans-45" x="1639.791016"/>
      <use xlink:href="#DejaVuSans-69" x="1702.974609"/>
      <use xlink:href="#DejaVuSans-6e" x="1730.757812"/>
      <use xlink:href="#DejaVuSans-77" x="1794.136719"/>
      <use xlink:href="#DejaVuSans-6f" x="1875.923828"/>
      <use xlink:href="#DejaVuSans-68" x="1937.105469"/>
      <use xlink:href="#DejaVuSans-6e" x="2000.484375"/>
      <use xlink:href="#DejaVuSans-65" x="2063.863281"/>
      <use xlink:href="#DejaVuSans-72" x="2125.386719"/>
     </g>
    </g>
   </g>
   <g id="line2d_37">
    <path d="M 73.832727 265.699794 
L 77.089042 265.650782 
L 77.740305 265.454734 
L 78.065936 265.405722 
L 78.717199 264.915601 
L 79.04283 264.67054 
L 79.694093 263.788323 
L 80.019725 263.298202 
L 81.32225 262.464997 
L 82.950408 262.661045 
L 83.276039 262.464997 
L 83.60167 262.415985 
L 83.927302 262.170925 
L 84.252933 262.464997 
L 84.578565 262.317961 
L 86.206722 262.808082 
L 86.857985 263.543263 
L 87.183616 263.641287 
L 87.509248 260.357478 
L 87.834879 260.798586 
L 88.160511 261.043647 
L 88.486142 261.092659 
L 88.811774 260.553526 
L 89.463036 260.112417 
L 89.788668 263.298202 
L 90.114299 263.200178 
L 90.765562 263.24919 
L 91.416825 263.886347 
L 92.719351 264.572516 
L 93.044982 265.013625 
L 93.696245 265.258685 
L 94.021877 265.258685 
L 94.347508 265.405722 
L 97.929454 265.503746 
L 98.906348 265.699794 
L 99.23198 265.503746 
L 104.116451 265.60177 
L 105.418977 265.699794 
L 111.605974 265.650782 
L 112.257237 265.552758 
L 115.839183 265.454734 
L 116.490446 265.454734 
L 117.46734 265.552758 
L 117.792972 265.699794 
L 121.374917 265.650782 
L 121.700549 265.454734 
L 122.02618 265.454734 
L 122.677443 265.062637 
L 123.003075 264.572516 
L 124.3056 264.18042 
L 124.956863 264.42548 
L 125.282495 264.866589 
L 127.236283 264.768565 
L 127.561915 264.523504 
L 128.213178 264.474492 
L 128.538809 264.621528 
L 129.190072 264.621528 
L 130.492598 265.111649 
L 130.818229 265.160661 
L 131.143861 265.013625 
L 131.469492 265.111649 
L 132.446386 264.866589 
L 133.748912 264.964613 
L 134.074544 264.866589 
L 134.400175 265.062637 
L 134.725807 264.915601 
L 135.702701 264.915601 
L 136.028332 265.062637 
L 138.307752 265.111649 
L 139.284647 264.474492 
L 139.93591 264.42548 
L 140.261541 264.18042 
L 140.587172 263.788323 
L 140.912804 263.837335 
L 141.238435 263.739311 
L 141.889698 263.886347 
L 142.21533 263.543263 
L 142.540961 263.543263 
L 143.517855 263.984371 
L 144.169118 263.984371 
L 145.146013 264.327456 
L 146.448538 264.376468 
L 146.77417 264.033383 
L 147.425433 263.788323 
L 148.402327 263.053142 
L 148.727958 263.053142 
L 149.05359 262.415985 
L 149.379221 262.366973 
L 149.704853 262.563021 
L 150.030484 260.504514 
L 150.356116 260.014393 
L 151.007378 260.014393 
L 151.984273 256.681572 
L 152.309904 258.495019 
L 152.635536 258.298971 
L 152.961167 256.87762 
L 153.286799 256.240463 
L 153.61243 257.906874 
L 153.938061 258.151934 
L 154.589324 257.122681 
L 154.914956 256.926633 
L 155.240587 257.073669 
L 155.566219 256.681572 
L 155.89185 256.583548 
L 156.217482 255.995403 
L 156.543113 256.3875 
L 156.868744 255.946391 
L 157.194376 255.799355 
L 157.520007 256.681572 
L 157.845639 256.681572 
L 158.496902 257.269717 
L 158.822533 256.975645 
L 159.148164 257.318729 
L 159.473796 256.583548 
L 159.799427 256.191451 
L 160.125059 257.122681 
L 161.427585 258.249959 
L 161.753216 259.083164 
L 162.078847 259.083164 
L 162.404479 258.789091 
L 162.73011 258.740079 
L 163.707005 257.906874 
L 164.032636 257.416753 
L 164.358268 256.534536 
L 164.683899 256.485524 
L 165.335162 255.652319 
L 165.986425 252.025425 
L 166.637688 250.457039 
L 166.963319 250.26099 
L 167.28895 250.359014 
L 167.614582 250.01593 
L 167.940213 249.182725 
L 168.265845 249.574821 
L 168.591476 249.329761 
L 168.917108 250.01593 
L 169.242739 249.623833 
L 169.568371 248.59458 
L 169.894002 247.17323 
L 170.219633 243.889421 
L 170.545265 245.408795 
L 170.870896 248.447544 
L 171.196528 248.741616 
L 171.847791 245.114722 
L 172.173422 244.673614 
L 172.499054 248.790628 
L 172.824685 248.496556 
L 173.150316 248.496556 
L 173.475948 249.035688 
L 173.801579 250.604075 
L 174.127211 253.054679 
L 174.452842 254.574053 
L 174.778474 253.642823 
L 175.104105 253.397763 
L 175.429736 251.878389 
L 175.755368 251.19222 
L 176.080999 251.829377 
L 176.406631 252.025425 
L 176.732262 253.103691 
L 177.057894 254.623065 
L 177.383525 255.162198 
L 177.709157 254.378005 
L 178.034788 254.525041 
L 178.360419 253.544799 
L 178.686051 253.642823 
L 179.011682 253.250727 
L 179.337314 253.642823 
L 179.662945 253.642823 
L 179.988577 253.299739 
L 180.314208 253.838872 
L 180.63984 254.819113 
L 180.965471 255.21121 
L 181.616734 255.21121 
L 181.942365 256.093427 
L 182.267997 257.612802 
L 183.244891 258.102922 
L 183.896154 259.818345 
L 184.221785 259.524273 
L 184.547417 259.622297 
L 185.524311 258.004898 
L 186.175574 258.544031 
L 186.826837 258.446007 
L 187.4781 259.524273 
L 188.129363 259.524273 
L 188.454994 259.2302 
L 188.780626 259.818345 
L 189.106257 260.112417 
L 189.431888 260.063405 
L 190.083151 260.602538 
L 190.408783 259.818345 
L 190.734414 259.671309 
L 191.060046 258.887116 
L 191.385677 258.936128 
L 192.03694 258.347983 
L 192.362571 258.347983 
L 192.688203 258.838103 
L 193.013834 258.495019 
L 193.339466 258.838103 
L 193.665097 257.710826 
L 194.31636 257.269717 
L 194.641991 257.416753 
L 194.967623 256.730584 
L 195.293254 256.779596 
L 195.618886 256.583548 
L 195.944517 257.318729 
L 196.59578 257.416753 
L 196.921412 256.828608 
L 197.572674 258.05391 
L 197.898306 257.465765 
L 198.223937 257.56379 
L 198.549569 256.975645 
L 198.8752 257.073669 
L 199.526463 256.485524 
L 199.852094 256.142439 
L 200.503357 254.917137 
L 200.828989 255.260222 
L 201.15462 255.113186 
L 201.805883 254.427017 
L 202.131515 254.27998 
L 202.457146 255.603307 
L 202.782777 255.750343 
L 203.108409 257.122681 
L 203.43404 257.661814 
L 203.759672 257.416753 
L 204.085303 258.691067 
L 205.387829 255.260222 
L 205.71346 255.015162 
L 206.039092 255.21121 
L 206.364723 253.78986 
L 206.690355 254.083932 
L 207.015986 254.132944 
L 207.341618 254.721089 
L 207.667249 254.770101 
L 207.99288 253.936896 
L 208.318512 254.03492 
L 208.644143 252.907642 
L 208.969775 253.103691 
L 209.295406 253.446775 
L 209.621038 253.348751 
L 209.946669 252.417522 
L 210.272301 253.103691 
L 211.574826 254.574053 
L 211.900458 254.181956 
L 212.226089 255.554294 
L 212.551721 255.799355 
L 212.877352 255.505282 
L 213.202983 257.122681 
L 213.528615 257.416753 
L 213.854246 257.367741 
L 214.179878 257.906874 
L 214.831141 257.220705 
L 215.156772 257.857862 
L 215.482404 257.710826 
L 215.808035 257.955886 
L 216.133666 259.181188 
L 216.784929 260.847599 
L 217.110561 261.239695 
L 217.436192 261.239695 
L 217.761824 261.484756 
L 218.087455 261.974876 
L 218.413087 261.82784 
L 219.389981 262.219937 
L 219.715612 261.778828 
L 220.041244 262.563021 
L 220.366875 262.317961 
L 220.692507 262.75907 
L 221.018138 262.317961 
L 221.343769 262.121913 
L 221.669401 262.121913 
L 221.995032 262.710057 
L 222.320664 262.415985 
L 222.646295 262.710057 
L 222.971927 262.612033 
L 223.297558 263.200178 
L 224.274452 263.445239 
L 224.600084 263.298202 
L 225.251347 263.396226 
L 225.90261 263.298202 
L 226.228241 263.298202 
L 226.553873 263.543263 
L 227.205135 264.572516 
L 227.530767 264.621528 
L 228.18203 265.111649 
L 228.507661 265.111649 
L 229.158924 264.817577 
L 230.787081 264.866589 
L 232.415238 265.307697 
L 233.066501 265.209673 
L 233.717764 265.209673 
L 234.369027 265.111649 
L 235.345921 265.307697 
L 235.997184 265.209673 
L 236.322816 265.160661 
L 236.974079 264.67054 
L 237.625341 264.719553 
L 237.950973 264.033383 
L 238.276604 263.641287 
L 238.602236 263.543263 
L 238.927867 263.592275 
L 239.253499 263.788323 
L 240.230393 263.788323 
L 240.556024 264.131408 
L 240.881656 263.935359 
L 241.207287 263.935359 
L 241.532919 263.543263 
L 242.509813 263.641287 
L 242.835445 263.053142 
L 243.161076 262.75907 
L 243.486707 261.729816 
L 244.463602 261.729816 
L 245.440496 260.798586 
L 245.766127 261.435743 
L 246.091759 260.798586 
L 246.743022 260.798586 
L 247.394285 259.671309 
L 248.045548 260.063405 
L 248.371179 260.896611 
L 249.022442 260.896611 
L 249.348073 261.043647 
L 249.999336 260.847599 
L 250.324968 260.112417 
L 250.650599 259.671309 
L 251.627493 259.671309 
L 251.953125 260.40649 
L 252.278756 260.063405 
L 252.604388 260.210442 
L 252.930019 259.769333 
L 253.581282 259.769333 
L 253.906913 260.553526 
L 254.232545 260.40649 
L 254.558176 260.896611 
L 254.883808 260.65155 
L 255.209439 261.337719 
L 255.860702 261.337719 
L 256.186334 259.867357 
L 256.511965 260.40649 
L 256.837596 259.769333 
L 257.163228 260.65155 
L 257.488859 260.504514 
L 258.140122 260.504514 
L 258.465754 261.876852 
L 258.791385 261.778828 
L 259.117017 262.317961 
L 259.442648 262.0729 
L 260.745174 261.778828 
L 261.070805 260.504514 
L 261.396437 260.700562 
L 261.722068 260.40649 
L 262.047699 259.769333 
L 262.698962 259.769333 
L 263.024594 259.377236 
L 263.350225 259.573285 
L 264.001488 259.377236 
L 264.32712 259.965381 
L 265.304014 260.063405 
L 265.629645 260.455502 
L 265.955277 259.671309 
L 267.257802 259.769333 
L 267.583434 259.181188 
L 267.909065 258.887116 
L 268.88596 256.240463 
L 269.537223 256.240463 
L 269.862854 255.946391 
L 270.188485 255.21121 
L 270.514117 255.505282 
L 270.839748 255.064174 
L 271.491011 255.162198 
L 271.816643 255.162198 
L 272.142274 254.721089 
L 272.467906 254.525041 
L 273.119168 255.21121 
L 273.4448 254.574053 
L 274.096063 254.574053 
L 274.421694 255.113186 
L 274.747326 254.574053 
L 275.072957 253.691836 
L 275.398588 252.466534 
L 275.72422 252.270485 
L 276.375483 252.270485 
L 276.701114 249.525809 
L 277.026746 250.064942 
L 277.352377 247.516314 
L 277.678009 247.761374 
L 278.00364 244.477565 
L 278.654903 244.477565 
L 278.980534 243.546336 
L 279.306166 241.193756 
L 279.631797 242.615107 
L 279.957429 240.507587 
L 280.28306 243.546336 
L 280.934323 243.546336 
L 281.585586 247.124217 
L 281.911217 247.222242 
L 282.236849 249.035688 
L 282.56248 249.329761 
L 283.213743 249.329761 
L 283.865006 245.06571 
L 284.190637 243.301276 
L 284.516269 240.115491 
L 284.8419 238.253032 
L 285.493163 238.253032 
L 285.818795 238.792165 
L 286.144426 238.792165 
L 286.470057 239.429322 
L 286.795689 240.948696 
L 287.12132 240.115491 
L 287.446952 237.370814 
L 287.772583 237.370814 
L 288.098215 239.282285 
L 288.749478 238.596116 
L 289.075109 237.811923 
L 289.40074 242.909179 
L 289.726372 245.653855 
L 290.377635 241.340793 
L 290.703266 241.193756 
L 291.028898 238.939201 
L 291.354529 235.214283 
L 292.005792 235.214283 
L 292.331423 231.391341 
L 292.982686 221.343866 
L 293.633949 220.412636 
L 293.959581 206.493207 
L 294.285212 206.493207 
L 294.936475 217.569936 
L 295.262106 219.677455 
L 295.587738 220.118564 
L 295.913369 219.383383 
L 296.239001 224.578663 
L 296.564632 218.59919 
L 296.890264 218.59919 
L 297.541526 182.428278 
L 298.844052 91.216806 
L 299.169684 89.648419 
L 299.820946 59.211921 
L 300.146578 52.154182 
L 300.472209 55.928112 
L 300.797841 69.014336 
L 301.123472 71.95506 
L 301.449104 73.523447 
L 302.100367 100.431076 
L 302.425998 101.362305 
L 302.751629 102.930692 
L 303.077261 95.137772 
L 303.402892 100.087991 
L 303.728524 96.118013 
L 304.054155 101.215269 
L 304.379787 103.420813 
L 305.682312 168.165764 
L 306.007944 169.047981 
L 306.333575 173.50808 
L 306.659207 182.036181 
L 307.31047 169.636126 
L 307.636101 166.940462 
L 307.961732 166.940462 
L 308.287364 170.028223 
L 308.612995 168.3128 
L 308.938627 165.813185 
L 309.264258 174.929431 
L 309.58989 175.419551 
L 309.915521 178.4583 
L 310.566784 178.4583 
L 310.892415 179.830638 
L 311.218047 183.555556 
L 311.543678 179.87965 
L 311.86931 187.476522 
L 312.194941 181.644085 
L 312.846204 181.644085 
L 313.497467 164.587883 
L 313.823098 162.186291 
L 314.14873 150.521417 
L 314.474361 147.188596 
L 315.125624 147.188596 
L 316.102518 122.192437 
L 316.42815 111.164721 
L 316.753781 107.586839 
L 317.405044 107.586839 
L 317.730676 92.000999 
L 318.056307 88.815214 
L 318.70757 99.156762 
L 319.033201 95.774929 
L 319.684464 95.774929 
L 320.010096 105.871416 
L 320.335727 107.439803 
L 320.661359 98.911702 
L 320.98699 105.72438 
L 321.312622 116.899133 
L 321.963884 116.899133 
L 322.289516 130.769551 
L 322.615147 128.220923 
L 322.940779 143.561702 
L 323.592042 138.121362 
L 324.243304 138.121362 
L 324.568936 132.730034 
L 324.894567 137.484205 
L 325.220199 133.857311 
L 325.54583 136.111867 
L 325.871462 156.696938 
L 326.522725 156.696938 
L 326.848356 187.329486 
L 327.82525 153.462142 
L 328.150882 130.867575 
L 328.802145 130.867575 
L 329.127776 97.245291 
L 329.779039 134.249408 
L 330.430302 154.687443 
L 331.081565 154.638431 
L 331.407196 157.530144 
L 331.732828 163.019496 
L 332.058459 163.803689 
L 332.38409 181.301 
L 332.709722 176.007696 
L 333.360985 176.056708 
L 333.686616 189.09392 
L 334.012248 183.114447 
L 334.337879 184.143701 
L 334.663511 184.241725 
L 334.989142 187.623558 
L 335.640405 187.623558 
L 335.966036 188.6038 
L 336.291668 195.171418 
L 336.617299 199.435468 
L 336.942931 199.778553 
L 337.268562 202.278169 
L 337.919825 196.053635 
L 338.245456 200.807806 
L 338.571088 208.502702 
L 338.896719 211.884535 
L 339.547982 224.921747 
L 339.873614 225.607916 
L 340.524876 227.764448 
L 341.176139 222.275095 
L 341.501771 215.217356 
L 341.827402 212.668729 
L 342.153034 211.982559 
L 342.478665 211.002318 
L 342.804297 218.501165 
L 343.129928 215.462417 
L 343.455559 203.160386 
L 343.781191 200.072625 
L 344.106822 194.436237 
L 344.432454 191.054403 
L 344.758085 189.535029 
L 345.083717 181.546061 
L 345.409348 179.63459 
L 346.060611 182.72235 
L 346.386242 182.379266 
L 346.711874 180.026686 
L 347.037505 180.124711 
L 347.363137 177.429046 
L 348.340031 164.244798 
L 348.665662 162.333327 
L 348.991294 162.774436 
L 349.316925 163.558629 
L 349.642557 163.901714 
L 349.968188 159.637663 
L 350.619451 176.595841 
L 350.945083 173.214008 
L 351.270714 176.693865 
L 351.596345 177.478058 
L 351.921977 177.527071 
L 352.247608 184.633821 
L 352.57324 184.388761 
L 352.898871 181.889145 
L 353.224503 191.103415 
L 353.550134 190.417246 
L 353.875765 190.172186 
L 354.85266 196.690792 
L 355.178291 197.131901 
L 355.503923 198.112142 
L 355.829554 200.66077 
L 356.155186 200.66077 
L 356.480817 202.08212 
L 356.806448 207.081352 
L 357.13208 208.110606 
L 357.457711 208.45369 
L 357.783343 210.218125 
L 358.108974 209.433932 
L 358.434606 209.188871 
L 358.760237 211.933547 
L 359.085869 216.442658 
L 359.4115 216.540682 
L 359.737131 220.902757 
L 360.062763 221.784975 
L 360.714026 224.970759 
L 361.039657 225.803965 
L 361.365289 224.480639 
L 361.69092 230.068015 
L 362.016551 232.714667 
L 362.993446 230.803196 
L 363.319077 231.146281 
L 363.644709 232.812691 
L 363.97034 230.754184 
L 364.295972 227.421363 
L 364.621603 228.793701 
L 364.947234 228.05852 
L 365.272866 228.842713 
L 365.598497 228.205556 
L 365.924129 225.852977 
L 366.24976 226.490134 
L 366.575392 228.05852 
L 367.552286 229.920979 
L 367.877917 231.636402 
L 368.203549 231.83245 
L 368.854812 235.508356 
L 369.506075 237.615875 
L 369.831706 237.713899 
L 370.157337 238.498092 
L 370.482969 240.80166 
L 370.8086 241.634865 
L 371.134232 241.487829 
L 371.459863 240.213515 
L 371.785495 239.478334 
L 372.111126 240.262527 
L 372.436758 240.605611 
L 373.413652 240.066479 
L 373.739283 240.997708 
L 374.064915 241.04672 
L 374.390546 240.360551 
L 375.367441 242.713131 
L 375.693072 242.762143 
L 376.018703 242.075974 
L 376.669966 241.536841 
L 376.995598 238.056984 
L 377.321229 237.468839 
L 377.972492 234.479102 
L 378.298123 233.792933 
L 378.623755 234.18503 
L 379.275018 231.440353 
L 379.926281 226.539146 
L 380.251912 223.157313 
L 380.577544 222.86324 
L 380.903175 220.853745 
L 381.228806 221.490902 
L 381.554438 226.686182 
L 381.880069 225.509892 
L 382.205701 219.334371 
L 382.531332 217.324876 
L 382.856964 211.394415 
L 383.182595 210.953306 
L 383.508226 207.03234 
L 383.833858 200.072625 
L 384.159489 197.573009 
L 384.485121 198.896335 
L 384.810752 201.591999 
L 385.136384 205.414941 
L 385.462015 205.120869 
L 385.787647 208.943811 
L 386.113278 208.600726 
L 386.438909 209.728004 
L 386.764541 213.256873 
L 387.090172 215.315381 
L 387.415804 215.658465 
L 387.741435 216.932779 
L 388.067067 216.099574 
L 388.392698 216.981791 
L 388.71833 220.559673 
L 389.043961 220.951769 
L 389.369592 221.049793 
L 389.695224 223.990518 
L 390.020855 225.411868 
L 390.346487 226.294085 
L 390.672118 234.332066 
L 390.99775 234.871199 
L 391.323381 238.105996 
L 391.649012 238.792165 
L 391.974644 240.409563 
L 392.300275 240.654624 
L 392.625907 241.634865 
L 392.951538 237.909947 
L 393.27717 240.899684 
L 393.602801 241.634865 
L 393.928433 242.860167 
L 394.254064 242.075974 
L 394.579695 242.22301 
L 394.905327 241.97795 
L 395.230958 243.252264 
L 395.55659 243.448312 
L 395.882221 244.967686 
L 396.207853 245.604843 
L 396.533484 246.781133 
L 396.859116 246.830145 
L 397.184747 247.222242 
L 397.510378 247.124217 
L 397.83601 247.810387 
L 398.161641 247.41829 
L 398.487273 249.427785 
L 398.487273 249.427785 
" clip-path="url(#pa87ecb7649)" style="fill: none; stroke: #1f77b4; stroke-width: 1.5; stroke-linecap: square"/>
   </g>
   <g id="patch_3">
    <path d="M 57.6 276.48 
L 57.6 41.472 
" style="fill: none; stroke: #000000; stroke-width: 0.8; stroke-linejoin: miter; stroke-linecap: square"/>
   </g>
   <g id="patch_4">
    <path d="M 414.72 276.48 
L 414.72 41.472 
" style="fill: none; stroke: #000000; stroke-width: 0.8; stroke-linejoin: miter; stroke-linecap: square"/>
   </g>
   <g id="patch_5">
    <path d="M 57.6 276.48 
L 414.72 276.48 
" style="fill: none; stroke: #000000; stroke-width: 0.8; stroke-linejoin: miter; stroke-linecap: square"/>
   </g>
   <g id="patch_6">
    <path d="M 57.6 41.472 
L 414.72 41.472 
" style="fill: none; stroke: #000000; stroke-width: 0.8; stroke-linejoin: miter; stroke-linecap: square"/>
   </g>
  </g>
  <g id="text_20">
   <!-- Inzidenzverlauf LK Stormarn -->
   <g transform="translate(103.23 20.589187) scale(0.18 -0.18)">
    <defs>
     <path id="DejaVuSans-76" d="M 191 3500 
L 800 3500 
L 1894 563 
L 2988 3500 
L 3597 3500 
L 2284 0 
L 1503 0 
L 191 3500 
z
" transform="scale(0.015625)"/>
     <path id="DejaVuSans-6c" d="M 603 4863 
L 1178 4863 
L 1178 0 
L 603 0 
L 603 4863 
z
" transform="scale(0.015625)"/>
     <path id="DejaVuSans-75" d="M 544 1381 
L 544 3500 
L 1119 3500 
L 1119 1403 
Q 1119 906 1312 657 
Q 1506 409 1894 409 
Q 2359 409 2629 706 
Q 2900 1003 2900 1516 
L 2900 3500 
L 3475 3500 
L 3475 0 
L 2900 0 
L 2900 538 
Q 2691 219 2414 64 
Q 2138 -91 1772 -91 
Q 1169 -91 856 284 
Q 544 659 544 1381 
z
M 1991 3584 
L 1991 3584 
z
" transform="scale(0.015625)"/>
     <path id="DejaVuSans-66" d="M 2375 4863 
L 2375 4384 
L 1825 4384 
Q 1516 4384 1395 4259 
Q 1275 4134 1275 3809 
L 1275 3500 
L 2222 3500 
L 2222 3053 
L 1275 3053 
L 1275 0 
L 697 0 
L 697 3053 
L 147 3053 
L 147 3500 
L 697 3500 
L 697 3744 
Q 697 4328 969 4595 
Q 1241 4863 1831 4863 
L 2375 4863 
z
" transform="scale(0.015625)"/>
     <path id="DejaVuSans-4c" d="M 628 4666 
L 1259 4666 
L 1259 531 
L 3531 531 
L 3531 0 
L 628 0 
L 628 4666 
z
" transform="scale(0.015625)"/>
     <path id="DejaVuSans-4b" d="M 628 4666 
L 1259 4666 
L 1259 2694 
L 3353 4666 
L 4166 4666 
L 1850 2491 
L 4331 0 
L 3500 0 
L 1259 2247 
L 1259 0 
L 628 0 
L 628 4666 
z
" transform="scale(0.015625)"/>
     <path id="DejaVuSans-53" d="M 3425 4513 
L 3425 3897 
Q 3066 4069 2747 4153 
Q 2428 4238 2131 4238 
Q 1616 4238 1336 4038 
Q 1056 3838 1056 3469 
Q 1056 3159 1242 3001 
Q 1428 2844 1947 2747 
L 2328 2669 
Q 3034 2534 3370 2195 
Q 3706 1856 3706 1288 
Q 3706 609 3251 259 
Q 2797 -91 1919 -91 
Q 1588 -91 1214 -16 
Q 841 59 441 206 
L 441 856 
Q 825 641 1194 531 
Q 1563 422 1919 422 
Q 2459 422 2753 634 
Q 3047 847 3047 1241 
Q 3047 1584 2836 1778 
Q 2625 1972 2144 2069 
L 1759 2144 
Q 1053 2284 737 2584 
Q 422 2884 422 3419 
Q 422 4038 858 4394 
Q 1294 4750 2059 4750 
Q 2388 4750 2728 4690 
Q 3069 4631 3425 4513 
z
" transform="scale(0.015625)"/>
     <path id="DejaVuSans-74" d="M 1172 4494 
L 1172 3500 
L 2356 3500 
L 2356 3053 
L 1172 3053 
L 1172 1153 
Q 1172 725 1289 603 
Q 1406 481 1766 481 
L 2356 481 
L 2356 0 
L 1766 0 
Q 1100 0 847 248 
Q 594 497 594 1153 
L 594 3053 
L 172 3053 
L 172 3500 
L 594 3500 
L 594 4494 
L 1172 4494 
z
" transform="scale(0.015625)"/>
     <path id="DejaVuSans-6d" d="M 3328 2828 
Q 3544 3216 3844 3400 
Q 4144 3584 4550 3584 
Q 5097 3584 5394 3201 
Q 5691 2819 5691 2113 
L 5691 0 
L 5113 0 
L 5113 2094 
Q 5113 2597 4934 2840 
Q 4756 3084 4391 3084 
Q 3944 3084 3684 2787 
Q 3425 2491 3425 1978 
L 3425 0 
L 2847 0 
L 2847 2094 
Q 2847 2600 2669 2842 
Q 2491 3084 2119 3084 
Q 1678 3084 1418 2786 
Q 1159 2488 1159 1978 
L 1159 0 
L 581 0 
L 581 3500 
L 1159 3500 
L 1159 2956 
Q 1356 3278 1631 3431 
Q 1906 3584 2284 3584 
Q 2666 3584 2933 3390 
Q 3200 3197 3328 2828 
z
" transform="scale(0.015625)"/>
    </defs>
    <use xlink:href="#DejaVuSans-49"/>
    <use xlink:href="#DejaVuSans-6e" x="29.492188"/>
    <use xlink:href="#DejaVuSans-7a" x="92.871094"/>
    <use xlink:href="#DejaVuSans-69" x="145.361328"/>
    <use xlink:href="#DejaVuSans-64" x="173.144531"/>
    <use xlink:href="#DejaVuSans-65" x="236.621094"/>
    <use xlink:href="#DejaVuSans-6e" x="298.144531"/>
    <use xlink:href="#DejaVuSans-7a" x="361.523438"/>
    <use xlink:href="#DejaVuSans-76" x="414.013672"/>
    <use xlink:href="#DejaVuSans-65" x="473.193359"/>
    <use xlink:href="#DejaVuSans-72" x="534.716797"/>
    <use xlink:href="#DejaVuSans-6c" x="575.830078"/>
    <use xlink:href="#DejaVuSans-61" x="603.613281"/>
    <use xlink:href="#DejaVuSans-75" x="664.892578"/>
    <use xlink:href="#DejaVuSans-66" x="728.271484"/>
    <use xlink:href="#DejaVuSans-20" x="763.476562"/>
    <use xlink:href="#DejaVuSans-4c" x="795.263672"/>
    <use xlink:href="#DejaVuSans-4b" x="850.976562"/>
    <use xlink:href="#DejaVuSans-20" x="916.552734"/>
    <use xlink:href="#DejaVuSans-53" x="948.339844"/>
    <use xlink:href="#DejaVuSans-74" x="1011.816406"/>
    <use xlink:href="#DejaVuSans-6f" x="1051.025391"/>
    <use xlink:href="#DejaVuSans-72" x="1112.207031"/>
    <use xlink:href="#DejaVuSans-6d" x="1151.570312"/>
    <use xlink:href="#DejaVuSans-61" x="1248.982422"/>
    <use xlink:href="#DejaVuSans-72" x="1310.261719"/>
    <use xlink:href="#DejaVuSans-6e" x="1349.625"/>
   </g>
  </g>
 </g>
 <defs>
  <clipPath id="pa87ecb7649">
   <rect x="57.6" y="41.472" width="357.12" height="235.008"/>
  </clipPath>
 </defs>
</svg>
