<?xml version="1.0" encoding="utf-8" standalone="no"?>
<!DOCTYPE svg PUBLIC "-//W3C//DTD SVG 1.1//EN"
  "http://www.w3.org/Graphics/SVG/1.1/DTD/svg11.dtd">
<svg xmlns:xlink="http://www.w3.org/1999/xlink" width="460.8pt" height="345.6pt" viewBox="0 0 460.8 345.6" xmlns="http://www.w3.org/2000/svg" version="1.1">
 <metadata>
  <rdf:RDF xmlns:dc="http://purl.org/dc/elements/1.1/" xmlns:cc="http://creativecommons.org/ns#" xmlns:rdf="http://www.w3.org/1999/02/22-rdf-syntax-ns#">
   <cc:Work>
    <dc:type rdf:resource="http://purl.org/dc/dcmitype/StillImage"/>
    <dc:date>2023-01-11T09:21:59.272165</dc:date>
    <dc:format>image/svg+xml</dc:format>
    <dc:creator>
     <cc:Agent>
      <dc:title>Matplotlib v3.6.2, https://matplotlib.org/</dc:title>
     </cc:Agent>
    </dc:creator>
   </cc:Work>
  </rdf:RDF>
 </metadata>
 <defs>
  <style type="text/css">*{stroke-linejoin: round; stroke-linecap: butt}</style>
 </defs>
 <g id="figure_1">
  <g id="patch_1">
   <path d="M 0 345.6 
L 460.8 345.6 
L 460.8 0 
L 0 0 
z
" style="fill: #ffffff"/>
  </g>
  <g id="axes_1">
   <g id="patch_2">
    <path d="M 57.6 276.48 
L 414.72 276.48 
L 414.72 41.472 
L 57.6 41.472 
z
" style="fill: #ffffff"/>
   </g>
   <g id="matplotlib.axis_1">
    <g id="xtick_1">
     <g id="line2d_1">
      <path d="M 61.484556 276.48 
L 61.484556 41.472 
" clip-path="url(#p23596dcc63)" style="fill: none; stroke-dasharray: 2.96,1.28; stroke-dashoffset: 0; stroke: #808080; stroke-width: 0.8"/>
     </g>
     <g id="line2d_2">
      <defs>
       <path id="m06e93455a7" d="M 0 0 
L 0 3.5 
" style="stroke: #000000; stroke-width: 0.8"/>
      </defs>
      <g>
       <use xlink:href="#m06e93455a7" x="61.484556" y="276.48" style="stroke: #000000; stroke-width: 0.8"/>
      </g>
     </g>
     <g id="text_1">
      <!-- 23.01.2020 -->
      <g transform="translate(10.859345 318.688565) rotate(-30) scale(0.1 -0.1)">
       <defs>
        <path id="DejaVuSans-32" d="M 1228 531 
L 3431 531 
L 3431 0 
L 469 0 
L 469 531 
Q 828 903 1448 1529 
Q 2069 2156 2228 2338 
Q 2531 2678 2651 2914 
Q 2772 3150 2772 3378 
Q 2772 3750 2511 3984 
Q 2250 4219 1831 4219 
Q 1534 4219 1204 4116 
Q 875 4013 500 3803 
L 500 4441 
Q 881 4594 1212 4672 
Q 1544 4750 1819 4750 
Q 2544 4750 2975 4387 
Q 3406 4025 3406 3419 
Q 3406 3131 3298 2873 
Q 3191 2616 2906 2266 
Q 2828 2175 2409 1742 
Q 1991 1309 1228 531 
z
" transform="scale(0.015625)"/>
        <path id="DejaVuSans-33" d="M 2597 2516 
Q 3050 2419 3304 2112 
Q 3559 1806 3559 1356 
Q 3559 666 3084 287 
Q 2609 -91 1734 -91 
Q 1441 -91 1130 -33 
Q 819 25 488 141 
L 488 750 
Q 750 597 1062 519 
Q 1375 441 1716 441 
Q 2309 441 2620 675 
Q 2931 909 2931 1356 
Q 2931 1769 2642 2001 
Q 2353 2234 1838 2234 
L 1294 2234 
L 1294 2753 
L 1863 2753 
Q 2328 2753 2575 2939 
Q 2822 3125 2822 3475 
Q 2822 3834 2567 4026 
Q 2313 4219 1838 4219 
Q 1578 4219 1281 4162 
Q 984 4106 628 3988 
L 628 4550 
Q 988 4650 1302 4700 
Q 1616 4750 1894 4750 
Q 2613 4750 3031 4423 
Q 3450 4097 3450 3541 
Q 3450 3153 3228 2886 
Q 3006 2619 2597 2516 
z
" transform="scale(0.015625)"/>
        <path id="DejaVuSans-2e" d="M 684 794 
L 1344 794 
L 1344 0 
L 684 0 
L 684 794 
z
" transform="scale(0.015625)"/>
        <path id="DejaVuSans-30" d="M 2034 4250 
Q 1547 4250 1301 3770 
Q 1056 3291 1056 2328 
Q 1056 1369 1301 889 
Q 1547 409 2034 409 
Q 2525 409 2770 889 
Q 3016 1369 3016 2328 
Q 3016 3291 2770 3770 
Q 2525 4250 2034 4250 
z
M 2034 4750 
Q 2819 4750 3233 4129 
Q 3647 3509 3647 2328 
Q 3647 1150 3233 529 
Q 2819 -91 2034 -91 
Q 1250 -91 836 529 
Q 422 1150 422 2328 
Q 422 3509 836 4129 
Q 1250 4750 2034 4750 
z
" transform="scale(0.015625)"/>
        <path id="DejaVuSans-31" d="M 794 531 
L 1825 531 
L 1825 4091 
L 703 3866 
L 703 4441 
L 1819 4666 
L 2450 4666 
L 2450 531 
L 3481 531 
L 3481 0 
L 794 0 
L 794 531 
z
" transform="scale(0.015625)"/>
       </defs>
       <use xlink:href="#DejaVuSans-32"/>
       <use xlink:href="#DejaVuSans-33" x="63.623047"/>
       <use xlink:href="#DejaVuSans-2e" x="127.246094"/>
       <use xlink:href="#DejaVuSans-30" x="159.033203"/>
       <use xlink:href="#DejaVuSans-31" x="222.65625"/>
       <use xlink:href="#DejaVuSans-2e" x="286.279297"/>
       <use xlink:href="#DejaVuSans-32" x="318.066406"/>
       <use xlink:href="#DejaVuSans-30" x="381.689453"/>
       <use xlink:href="#DejaVuSans-32" x="445.3125"/>
       <use xlink:href="#DejaVuSans-30" x="508.935547"/>
      </g>
     </g>
    </g>
    <g id="xtick_2">
     <g id="line2d_3">
      <path d="M 97.557283 276.48 
L 97.557283 41.472 
" clip-path="url(#p23596dcc63)" style="fill: none; stroke-dasharray: 2.96,1.28; stroke-dashoffset: 0; stroke: #808080; stroke-width: 0.8"/>
     </g>
     <g id="line2d_4">
      <g>
       <use xlink:href="#m06e93455a7" x="97.557283" y="276.48" style="stroke: #000000; stroke-width: 0.8"/>
      </g>
     </g>
     <g id="text_2">
      <!-- 18.05.2020 -->
      <g transform="translate(46.932072 318.688565) rotate(-30) scale(0.1 -0.1)">
       <defs>
        <path id="DejaVuSans-38" d="M 2034 2216 
Q 1584 2216 1326 1975 
Q 1069 1734 1069 1313 
Q 1069 891 1326 650 
Q 1584 409 2034 409 
Q 2484 409 2743 651 
Q 3003 894 3003 1313 
Q 3003 1734 2745 1975 
Q 2488 2216 2034 2216 
z
M 1403 2484 
Q 997 2584 770 2862 
Q 544 3141 544 3541 
Q 544 4100 942 4425 
Q 1341 4750 2034 4750 
Q 2731 4750 3128 4425 
Q 3525 4100 3525 3541 
Q 3525 3141 3298 2862 
Q 3072 2584 2669 2484 
Q 3125 2378 3379 2068 
Q 3634 1759 3634 1313 
Q 3634 634 3220 271 
Q 2806 -91 2034 -91 
Q 1263 -91 848 271 
Q 434 634 434 1313 
Q 434 1759 690 2068 
Q 947 2378 1403 2484 
z
M 1172 3481 
Q 1172 3119 1398 2916 
Q 1625 2713 2034 2713 
Q 2441 2713 2670 2916 
Q 2900 3119 2900 3481 
Q 2900 3844 2670 4047 
Q 2441 4250 2034 4250 
Q 1625 4250 1398 4047 
Q 1172 3844 1172 3481 
z
" transform="scale(0.015625)"/>
        <path id="DejaVuSans-35" d="M 691 4666 
L 3169 4666 
L 3169 4134 
L 1269 4134 
L 1269 2991 
Q 1406 3038 1543 3061 
Q 1681 3084 1819 3084 
Q 2600 3084 3056 2656 
Q 3513 2228 3513 1497 
Q 3513 744 3044 326 
Q 2575 -91 1722 -91 
Q 1428 -91 1123 -41 
Q 819 9 494 109 
L 494 744 
Q 775 591 1075 516 
Q 1375 441 1709 441 
Q 2250 441 2565 725 
Q 2881 1009 2881 1497 
Q 2881 1984 2565 2268 
Q 2250 2553 1709 2553 
Q 1456 2553 1204 2497 
Q 953 2441 691 2322 
L 691 4666 
z
" transform="scale(0.015625)"/>
       </defs>
       <use xlink:href="#DejaVuSans-31"/>
       <use xlink:href="#DejaVuSans-38" x="63.623047"/>
       <use xlink:href="#DejaVuSans-2e" x="127.246094"/>
       <use xlink:href="#DejaVuSans-30" x="159.033203"/>
       <use xlink:href="#DejaVuSans-35" x="222.65625"/>
       <use xlink:href="#DejaVuSans-2e" x="286.279297"/>
       <use xlink:href="#DejaVuSans-32" x="318.066406"/>
       <use xlink:href="#DejaVuSans-30" x="381.689453"/>
       <use xlink:href="#DejaVuSans-32" x="445.3125"/>
       <use xlink:href="#DejaVuSans-30" x="508.935547"/>
      </g>
     </g>
    </g>
    <g id="xtick_3">
     <g id="line2d_5">
      <path d="M 133.63001 276.48 
L 133.63001 41.472 
" clip-path="url(#p23596dcc63)" style="fill: none; stroke-dasharray: 2.96,1.28; stroke-dashoffset: 0; stroke: #808080; stroke-width: 0.8"/>
     </g>
     <g id="line2d_6">
      <g>
       <use xlink:href="#m06e93455a7" x="133.63001" y="276.48" style="stroke: #000000; stroke-width: 0.8"/>
      </g>
     </g>
     <g id="text_3">
      <!-- 11.09.2020 -->
      <g transform="translate(83.0048 318.688565) rotate(-30) scale(0.1 -0.1)">
       <defs>
        <path id="DejaVuSans-39" d="M 703 97 
L 703 672 
Q 941 559 1184 500 
Q 1428 441 1663 441 
Q 2288 441 2617 861 
Q 2947 1281 2994 2138 
Q 2813 1869 2534 1725 
Q 2256 1581 1919 1581 
Q 1219 1581 811 2004 
Q 403 2428 403 3163 
Q 403 3881 828 4315 
Q 1253 4750 1959 4750 
Q 2769 4750 3195 4129 
Q 3622 3509 3622 2328 
Q 3622 1225 3098 567 
Q 2575 -91 1691 -91 
Q 1453 -91 1209 -44 
Q 966 3 703 97 
z
M 1959 2075 
Q 2384 2075 2632 2365 
Q 2881 2656 2881 3163 
Q 2881 3666 2632 3958 
Q 2384 4250 1959 4250 
Q 1534 4250 1286 3958 
Q 1038 3666 1038 3163 
Q 1038 2656 1286 2365 
Q 1534 2075 1959 2075 
z
" transform="scale(0.015625)"/>
       </defs>
       <use xlink:href="#DejaVuSans-31"/>
       <use xlink:href="#DejaVuSans-31" x="63.623047"/>
       <use xlink:href="#DejaVuSans-2e" x="127.246094"/>
       <use xlink:href="#DejaVuSans-30" x="159.033203"/>
       <use xlink:href="#DejaVuSans-39" x="222.65625"/>
       <use xlink:href="#DejaVuSans-2e" x="286.279297"/>
       <use xlink:href="#DejaVuSans-32" x="318.066406"/>
       <use xlink:href="#DejaVuSans-30" x="381.689453"/>
       <use xlink:href="#DejaVuSans-32" x="445.3125"/>
       <use xlink:href="#DejaVuSans-30" x="508.935547"/>
      </g>
     </g>
    </g>
    <g id="xtick_4">
     <g id="line2d_7">
      <path d="M 169.702738 276.48 
L 169.702738 41.472 
" clip-path="url(#p23596dcc63)" style="fill: none; stroke-dasharray: 2.96,1.28; stroke-dashoffset: 0; stroke: #808080; stroke-width: 0.8"/>
     </g>
     <g id="line2d_8">
      <g>
       <use xlink:href="#m06e93455a7" x="169.702738" y="276.48" style="stroke: #000000; stroke-width: 0.8"/>
      </g>
     </g>
     <g id="text_4">
      <!-- 05.01.2021 -->
      <g transform="translate(119.077527 318.688565) rotate(-30) scale(0.1 -0.1)">
       <use xlink:href="#DejaVuSans-30"/>
       <use xlink:href="#DejaVuSans-35" x="63.623047"/>
       <use xlink:href="#DejaVuSans-2e" x="127.246094"/>
       <use xlink:href="#DejaVuSans-30" x="159.033203"/>
       <use xlink:href="#DejaVuSans-31" x="222.65625"/>
       <use xlink:href="#DejaVuSans-2e" x="286.279297"/>
       <use xlink:href="#DejaVuSans-32" x="318.066406"/>
       <use xlink:href="#DejaVuSans-30" x="381.689453"/>
       <use xlink:href="#DejaVuSans-32" x="445.3125"/>
       <use xlink:href="#DejaVuSans-31" x="508.935547"/>
      </g>
     </g>
    </g>
    <g id="xtick_5">
     <g id="line2d_9">
      <path d="M 205.775465 276.48 
L 205.775465 41.472 
" clip-path="url(#p23596dcc63)" style="fill: none; stroke-dasharray: 2.96,1.28; stroke-dashoffset: 0; stroke: #808080; stroke-width: 0.8"/>
     </g>
     <g id="line2d_10">
      <g>
       <use xlink:href="#m06e93455a7" x="205.775465" y="276.48" style="stroke: #000000; stroke-width: 0.8"/>
      </g>
     </g>
     <g id="text_5">
      <!-- 01.05.2021 -->
      <g transform="translate(155.150254 318.688565) rotate(-30) scale(0.1 -0.1)">
       <use xlink:href="#DejaVuSans-30"/>
       <use xlink:href="#DejaVuSans-31" x="63.623047"/>
       <use xlink:href="#DejaVuSans-2e" x="127.246094"/>
       <use xlink:href="#DejaVuSans-30" x="159.033203"/>
       <use xlink:href="#DejaVuSans-35" x="222.65625"/>
       <use xlink:href="#DejaVuSans-2e" x="286.279297"/>
       <use xlink:href="#DejaVuSans-32" x="318.066406"/>
       <use xlink:href="#DejaVuSans-30" x="381.689453"/>
       <use xlink:href="#DejaVuSans-32" x="445.3125"/>
       <use xlink:href="#DejaVuSans-31" x="508.935547"/>
      </g>
     </g>
    </g>
    <g id="xtick_6">
     <g id="line2d_11">
      <path d="M 241.848192 276.48 
L 241.848192 41.472 
" clip-path="url(#p23596dcc63)" style="fill: none; stroke-dasharray: 2.96,1.28; stroke-dashoffset: 0; stroke: #808080; stroke-width: 0.8"/>
     </g>
     <g id="line2d_12">
      <g>
       <use xlink:href="#m06e93455a7" x="241.848192" y="276.48" style="stroke: #000000; stroke-width: 0.8"/>
      </g>
     </g>
     <g id="text_6">
      <!-- 25.08.2021 -->
      <g transform="translate(191.222981 318.688565) rotate(-30) scale(0.1 -0.1)">
       <use xlink:href="#DejaVuSans-32"/>
       <use xlink:href="#DejaVuSans-35" x="63.623047"/>
       <use xlink:href="#DejaVuSans-2e" x="127.246094"/>
       <use xlink:href="#DejaVuSans-30" x="159.033203"/>
       <use xlink:href="#DejaVuSans-38" x="222.65625"/>
       <use xlink:href="#DejaVuSans-2e" x="286.279297"/>
       <use xlink:href="#DejaVuSans-32" x="318.066406"/>
       <use xlink:href="#DejaVuSans-30" x="381.689453"/>
       <use xlink:href="#DejaVuSans-32" x="445.3125"/>
       <use xlink:href="#DejaVuSans-31" x="508.935547"/>
      </g>
     </g>
    </g>
    <g id="xtick_7">
     <g id="line2d_13">
      <path d="M 277.92092 276.48 
L 277.92092 41.472 
" clip-path="url(#p23596dcc63)" style="fill: none; stroke-dasharray: 2.96,1.28; stroke-dashoffset: 0; stroke: #808080; stroke-width: 0.8"/>
     </g>
     <g id="line2d_14">
      <g>
       <use xlink:href="#m06e93455a7" x="277.92092" y="276.48" style="stroke: #000000; stroke-width: 0.8"/>
      </g>
     </g>
     <g id="text_7">
      <!-- 19.12.2021 -->
      <g transform="translate(227.295709 318.688565) rotate(-30) scale(0.1 -0.1)">
       <use xlink:href="#DejaVuSans-31"/>
       <use xlink:href="#DejaVuSans-39" x="63.623047"/>
       <use xlink:href="#DejaVuSans-2e" x="127.246094"/>
       <use xlink:href="#DejaVuSans-31" x="159.033203"/>
       <use xlink:href="#DejaVuSans-32" x="222.65625"/>
       <use xlink:href="#DejaVuSans-2e" x="286.279297"/>
       <use xlink:href="#DejaVuSans-32" x="318.066406"/>
       <use xlink:href="#DejaVuSans-30" x="381.689453"/>
       <use xlink:href="#DejaVuSans-32" x="445.3125"/>
       <use xlink:href="#DejaVuSans-31" x="508.935547"/>
      </g>
     </g>
    </g>
    <g id="xtick_8">
     <g id="line2d_15">
      <path d="M 313.993647 276.48 
L 313.993647 41.472 
" clip-path="url(#p23596dcc63)" style="fill: none; stroke-dasharray: 2.96,1.28; stroke-dashoffset: 0; stroke: #808080; stroke-width: 0.8"/>
     </g>
     <g id="line2d_16">
      <g>
       <use xlink:href="#m06e93455a7" x="313.993647" y="276.48" style="stroke: #000000; stroke-width: 0.8"/>
      </g>
     </g>
     <g id="text_8">
      <!-- 14.04.2022 -->
      <g transform="translate(263.368436 318.688565) rotate(-30) scale(0.1 -0.1)">
       <defs>
        <path id="DejaVuSans-34" d="M 2419 4116 
L 825 1625 
L 2419 1625 
L 2419 4116 
z
M 2253 4666 
L 3047 4666 
L 3047 1625 
L 3713 1625 
L 3713 1100 
L 3047 1100 
L 3047 0 
L 2419 0 
L 2419 1100 
L 313 1100 
L 313 1709 
L 2253 4666 
z
" transform="scale(0.015625)"/>
       </defs>
       <use xlink:href="#DejaVuSans-31"/>
       <use xlink:href="#DejaVuSans-34" x="63.623047"/>
       <use xlink:href="#DejaVuSans-2e" x="127.246094"/>
       <use xlink:href="#DejaVuSans-30" x="159.033203"/>
       <use xlink:href="#DejaVuSans-34" x="222.65625"/>
       <use xlink:href="#DejaVuSans-2e" x="286.279297"/>
       <use xlink:href="#DejaVuSans-32" x="318.066406"/>
       <use xlink:href="#DejaVuSans-30" x="381.689453"/>
       <use xlink:href="#DejaVuSans-32" x="445.3125"/>
       <use xlink:href="#DejaVuSans-32" x="508.935547"/>
      </g>
     </g>
    </g>
    <g id="xtick_9">
     <g id="line2d_17">
      <path d="M 350.066374 276.48 
L 350.066374 41.472 
" clip-path="url(#p23596dcc63)" style="fill: none; stroke-dasharray: 2.96,1.28; stroke-dashoffset: 0; stroke: #808080; stroke-width: 0.8"/>
     </g>
     <g id="line2d_18">
      <g>
       <use xlink:href="#m06e93455a7" x="350.066374" y="276.48" style="stroke: #000000; stroke-width: 0.8"/>
      </g>
     </g>
     <g id="text_9">
      <!-- 08.08.2022 -->
      <g transform="translate(299.441163 318.688565) rotate(-30) scale(0.1 -0.1)">
       <use xlink:href="#DejaVuSans-30"/>
       <use xlink:href="#DejaVuSans-38" x="63.623047"/>
       <use xlink:href="#DejaVuSans-2e" x="127.246094"/>
       <use xlink:href="#DejaVuSans-30" x="159.033203"/>
       <use xlink:href="#DejaVuSans-38" x="222.65625"/>
       <use xlink:href="#DejaVuSans-2e" x="286.279297"/>
       <use xlink:href="#DejaVuSans-32" x="318.066406"/>
       <use xlink:href="#DejaVuSans-30" x="381.689453"/>
       <use xlink:href="#DejaVuSans-32" x="445.3125"/>
       <use xlink:href="#DejaVuSans-32" x="508.935547"/>
      </g>
     </g>
    </g>
    <g id="xtick_10">
     <g id="line2d_19">
      <path d="M 386.139101 276.48 
L 386.139101 41.472 
" clip-path="url(#p23596dcc63)" style="fill: none; stroke-dasharray: 2.96,1.28; stroke-dashoffset: 0; stroke: #808080; stroke-width: 0.8"/>
     </g>
     <g id="line2d_20">
      <g>
       <use xlink:href="#m06e93455a7" x="386.139101" y="276.48" style="stroke: #000000; stroke-width: 0.8"/>
      </g>
     </g>
     <g id="text_10">
      <!-- 02.12.2022 -->
      <g transform="translate(335.513891 318.688565) rotate(-30) scale(0.1 -0.1)">
       <use xlink:href="#DejaVuSans-30"/>
       <use xlink:href="#DejaVuSans-32" x="63.623047"/>
       <use xlink:href="#DejaVuSans-2e" x="127.246094"/>
       <use xlink:href="#DejaVuSans-31" x="159.033203"/>
       <use xlink:href="#DejaVuSans-32" x="222.65625"/>
       <use xlink:href="#DejaVuSans-2e" x="286.279297"/>
       <use xlink:href="#DejaVuSans-32" x="318.066406"/>
       <use xlink:href="#DejaVuSans-30" x="381.689453"/>
       <use xlink:href="#DejaVuSans-32" x="445.3125"/>
       <use xlink:href="#DejaVuSans-32" x="508.935547"/>
      </g>
     </g>
    </g>
   </g>
   <g id="matplotlib.axis_2">
    <g id="ytick_1">
     <g id="line2d_21">
      <path d="M 57.6 265.797818 
L 414.72 265.797818 
" clip-path="url(#p23596dcc63)" style="fill: none; stroke-dasharray: 2.96,1.28; stroke-dashoffset: 0; stroke: #808080; stroke-width: 0.8"/>
     </g>
     <g id="line2d_22">
      <defs>
       <path id="mc8cbb9b6dc" d="M 0 0 
L -3.5 0 
" style="stroke: #000000; stroke-width: 0.8"/>
      </defs>
      <g>
       <use xlink:href="#mc8cbb9b6dc" x="57.6" y="265.797818" style="stroke: #000000; stroke-width: 0.8"/>
      </g>
     </g>
     <g id="text_11">
      <!-- 0 -->
      <g transform="translate(44.2375 269.597037) scale(0.1 -0.1)">
       <use xlink:href="#DejaVuSans-30"/>
      </g>
     </g>
    </g>
    <g id="ytick_2">
     <g id="line2d_23">
      <path d="M 57.6 216.903911 
L 414.72 216.903911 
" clip-path="url(#p23596dcc63)" style="fill: none; stroke-dasharray: 2.96,1.28; stroke-dashoffset: 0; stroke: #808080; stroke-width: 0.8"/>
     </g>
     <g id="line2d_24">
      <g>
       <use xlink:href="#mc8cbb9b6dc" x="57.6" y="216.903911" style="stroke: #000000; stroke-width: 0.8"/>
      </g>
     </g>
     <g id="text_12">
      <!-- 500 -->
      <g transform="translate(31.5125 220.703129) scale(0.1 -0.1)">
       <use xlink:href="#DejaVuSans-35"/>
       <use xlink:href="#DejaVuSans-30" x="63.623047"/>
       <use xlink:href="#DejaVuSans-30" x="127.246094"/>
      </g>
     </g>
    </g>
    <g id="ytick_3">
     <g id="line2d_25">
      <path d="M 57.6 168.010003 
L 414.72 168.010003 
" clip-path="url(#p23596dcc63)" style="fill: none; stroke-dasharray: 2.96,1.28; stroke-dashoffset: 0; stroke: #808080; stroke-width: 0.8"/>
     </g>
     <g id="line2d_26">
      <g>
       <use xlink:href="#mc8cbb9b6dc" x="57.6" y="168.010003" style="stroke: #000000; stroke-width: 0.8"/>
      </g>
     </g>
     <g id="text_13">
      <!-- 1000 -->
      <g transform="translate(25.15 171.809222) scale(0.1 -0.1)">
       <use xlink:href="#DejaVuSans-31"/>
       <use xlink:href="#DejaVuSans-30" x="63.623047"/>
       <use xlink:href="#DejaVuSans-30" x="127.246094"/>
       <use xlink:href="#DejaVuSans-30" x="190.869141"/>
      </g>
     </g>
    </g>
    <g id="ytick_4">
     <g id="line2d_27">
      <path d="M 57.6 119.116095 
L 414.72 119.116095 
" clip-path="url(#p23596dcc63)" style="fill: none; stroke-dasharray: 2.96,1.28; stroke-dashoffset: 0; stroke: #808080; stroke-width: 0.8"/>
     </g>
     <g id="line2d_28">
      <g>
       <use xlink:href="#mc8cbb9b6dc" x="57.6" y="119.116095" style="stroke: #000000; stroke-width: 0.8"/>
      </g>
     </g>
     <g id="text_14">
      <!-- 1500 -->
      <g transform="translate(25.15 122.915314) scale(0.1 -0.1)">
       <use xlink:href="#DejaVuSans-31"/>
       <use xlink:href="#DejaVuSans-35" x="63.623047"/>
       <use xlink:href="#DejaVuSans-30" x="127.246094"/>
       <use xlink:href="#DejaVuSans-30" x="190.869141"/>
      </g>
     </g>
    </g>
    <g id="ytick_5">
     <g id="line2d_29">
      <path d="M 57.6 70.222188 
L 414.72 70.222188 
" clip-path="url(#p23596dcc63)" style="fill: none; stroke-dasharray: 2.96,1.28; stroke-dashoffset: 0; stroke: #808080; stroke-width: 0.8"/>
     </g>
     <g id="line2d_30">
      <g>
       <use xlink:href="#mc8cbb9b6dc" x="57.6" y="70.222188" style="stroke: #000000; stroke-width: 0.8"/>
      </g>
     </g>
     <g id="text_15">
      <!-- 2000 -->
      <g transform="translate(25.15 74.021406) scale(0.1 -0.1)">
       <use xlink:href="#DejaVuSans-32"/>
       <use xlink:href="#DejaVuSans-30" x="63.623047"/>
       <use xlink:href="#DejaVuSans-30" x="127.246094"/>
       <use xlink:href="#DejaVuSans-30" x="190.869141"/>
      </g>
     </g>
    </g>
    <g id="text_16">
     <!-- Inzidenz pro 7 Tage pro 100.000 Einwohner -->
     <g transform="translate(19.070312 267.301) rotate(-90) scale(0.1 -0.1)">
      <defs>
       <path id="DejaVuSans-49" d="M 628 4666 
L 1259 4666 
L 1259 0 
L 628 0 
L 628 4666 
z
" transform="scale(0.015625)"/>
       <path id="DejaVuSans-6e" d="M 3513 2113 
L 3513 0 
L 2938 0 
L 2938 2094 
Q 2938 2591 2744 2837 
Q 2550 3084 2163 3084 
Q 1697 3084 1428 2787 
Q 1159 2491 1159 1978 
L 1159 0 
L 581 0 
L 581 3500 
L 1159 3500 
L 1159 2956 
Q 1366 3272 1645 3428 
Q 1925 3584 2291 3584 
Q 2894 3584 3203 3211 
Q 3513 2838 3513 2113 
z
" transform="scale(0.015625)"/>
       <path id="DejaVuSans-7a" d="M 353 3500 
L 3084 3500 
L 3084 2975 
L 922 459 
L 3084 459 
L 3084 0 
L 275 0 
L 275 525 
L 2438 3041 
L 353 3041 
L 353 3500 
z
" transform="scale(0.015625)"/>
       <path id="DejaVuSans-69" d="M 603 3500 
L 1178 3500 
L 1178 0 
L 603 0 
L 603 3500 
z
M 603 4863 
L 1178 4863 
L 1178 4134 
L 603 4134 
L 603 4863 
z
" transform="scale(0.015625)"/>
       <path id="DejaVuSans-64" d="M 2906 2969 
L 2906 4863 
L 3481 4863 
L 3481 0 
L 2906 0 
L 2906 525 
Q 2725 213 2448 61 
Q 2172 -91 1784 -91 
Q 1150 -91 751 415 
Q 353 922 353 1747 
Q 353 2572 751 3078 
Q 1150 3584 1784 3584 
Q 2172 3584 2448 3432 
Q 2725 3281 2906 2969 
z
M 947 1747 
Q 947 1113 1208 752 
Q 1469 391 1925 391 
Q 2381 391 2643 752 
Q 2906 1113 2906 1747 
Q 2906 2381 2643 2742 
Q 2381 3103 1925 3103 
Q 1469 3103 1208 2742 
Q 947 2381 947 1747 
z
" transform="scale(0.015625)"/>
       <path id="DejaVuSans-65" d="M 3597 1894 
L 3597 1613 
L 953 1613 
Q 991 1019 1311 708 
Q 1631 397 2203 397 
Q 2534 397 2845 478 
Q 3156 559 3463 722 
L 3463 178 
Q 3153 47 2828 -22 
Q 2503 -91 2169 -91 
Q 1331 -91 842 396 
Q 353 884 353 1716 
Q 353 2575 817 3079 
Q 1281 3584 2069 3584 
Q 2775 3584 3186 3129 
Q 3597 2675 3597 1894 
z
M 3022 2063 
Q 3016 2534 2758 2815 
Q 2500 3097 2075 3097 
Q 1594 3097 1305 2825 
Q 1016 2553 972 2059 
L 3022 2063 
z
" transform="scale(0.015625)"/>
       <path id="DejaVuSans-20" transform="scale(0.015625)"/>
       <path id="DejaVuSans-70" d="M 1159 525 
L 1159 -1331 
L 581 -1331 
L 581 3500 
L 1159 3500 
L 1159 2969 
Q 1341 3281 1617 3432 
Q 1894 3584 2278 3584 
Q 2916 3584 3314 3078 
Q 3713 2572 3713 1747 
Q 3713 922 3314 415 
Q 2916 -91 2278 -91 
Q 1894 -91 1617 61 
Q 1341 213 1159 525 
z
M 3116 1747 
Q 3116 2381 2855 2742 
Q 2594 3103 2138 3103 
Q 1681 3103 1420 2742 
Q 1159 2381 1159 1747 
Q 1159 1113 1420 752 
Q 1681 391 2138 391 
Q 2594 391 2855 752 
Q 3116 1113 3116 1747 
z
" transform="scale(0.015625)"/>
       <path id="DejaVuSans-72" d="M 2631 2963 
Q 2534 3019 2420 3045 
Q 2306 3072 2169 3072 
Q 1681 3072 1420 2755 
Q 1159 2438 1159 1844 
L 1159 0 
L 581 0 
L 581 3500 
L 1159 3500 
L 1159 2956 
Q 1341 3275 1631 3429 
Q 1922 3584 2338 3584 
Q 2397 3584 2469 3576 
Q 2541 3569 2628 3553 
L 2631 2963 
z
" transform="scale(0.015625)"/>
       <path id="DejaVuSans-6f" d="M 1959 3097 
Q 1497 3097 1228 2736 
Q 959 2375 959 1747 
Q 959 1119 1226 758 
Q 1494 397 1959 397 
Q 2419 397 2687 759 
Q 2956 1122 2956 1747 
Q 2956 2369 2687 2733 
Q 2419 3097 1959 3097 
z
M 1959 3584 
Q 2709 3584 3137 3096 
Q 3566 2609 3566 1747 
Q 3566 888 3137 398 
Q 2709 -91 1959 -91 
Q 1206 -91 779 398 
Q 353 888 353 1747 
Q 353 2609 779 3096 
Q 1206 3584 1959 3584 
z
" transform="scale(0.015625)"/>
       <path id="DejaVuSans-37" d="M 525 4666 
L 3525 4666 
L 3525 4397 
L 1831 0 
L 1172 0 
L 2766 4134 
L 525 4134 
L 525 4666 
z
" transform="scale(0.015625)"/>
       <path id="DejaVuSans-54" d="M -19 4666 
L 3928 4666 
L 3928 4134 
L 2272 4134 
L 2272 0 
L 1638 0 
L 1638 4134 
L -19 4134 
L -19 4666 
z
" transform="scale(0.015625)"/>
       <path id="DejaVuSans-61" d="M 2194 1759 
Q 1497 1759 1228 1600 
Q 959 1441 959 1056 
Q 959 750 1161 570 
Q 1363 391 1709 391 
Q 2188 391 2477 730 
Q 2766 1069 2766 1631 
L 2766 1759 
L 2194 1759 
z
M 3341 1997 
L 3341 0 
L 2766 0 
L 2766 531 
Q 2569 213 2275 61 
Q 1981 -91 1556 -91 
Q 1019 -91 701 211 
Q 384 513 384 1019 
Q 384 1609 779 1909 
Q 1175 2209 1959 2209 
L 2766 2209 
L 2766 2266 
Q 2766 2663 2505 2880 
Q 2244 3097 1772 3097 
Q 1472 3097 1187 3025 
Q 903 2953 641 2809 
L 641 3341 
Q 956 3463 1253 3523 
Q 1550 3584 1831 3584 
Q 2591 3584 2966 3190 
Q 3341 2797 3341 1997 
z
" transform="scale(0.015625)"/>
       <path id="DejaVuSans-67" d="M 2906 1791 
Q 2906 2416 2648 2759 
Q 2391 3103 1925 3103 
Q 1463 3103 1205 2759 
Q 947 2416 947 1791 
Q 947 1169 1205 825 
Q 1463 481 1925 481 
Q 2391 481 2648 825 
Q 2906 1169 2906 1791 
z
M 3481 434 
Q 3481 -459 3084 -895 
Q 2688 -1331 1869 -1331 
Q 1566 -1331 1297 -1286 
Q 1028 -1241 775 -1147 
L 775 -588 
Q 1028 -725 1275 -790 
Q 1522 -856 1778 -856 
Q 2344 -856 2625 -561 
Q 2906 -266 2906 331 
L 2906 616 
Q 2728 306 2450 153 
Q 2172 0 1784 0 
Q 1141 0 747 490 
Q 353 981 353 1791 
Q 353 2603 747 3093 
Q 1141 3584 1784 3584 
Q 2172 3584 2450 3431 
Q 2728 3278 2906 2969 
L 2906 3500 
L 3481 3500 
L 3481 434 
z
" transform="scale(0.015625)"/>
       <path id="DejaVuSans-45" d="M 628 4666 
L 3578 4666 
L 3578 4134 
L 1259 4134 
L 1259 2753 
L 3481 2753 
L 3481 2222 
L 1259 2222 
L 1259 531 
L 3634 531 
L 3634 0 
L 628 0 
L 628 4666 
z
" transform="scale(0.015625)"/>
       <path id="DejaVuSans-77" d="M 269 3500 
L 844 3500 
L 1563 769 
L 2278 3500 
L 2956 3500 
L 3675 769 
L 4391 3500 
L 4966 3500 
L 4050 0 
L 3372 0 
L 2619 2869 
L 1863 0 
L 1184 0 
L 269 3500 
z
" transform="scale(0.015625)"/>
       <path id="DejaVuSans-68" d="M 3513 2113 
L 3513 0 
L 2938 0 
L 2938 2094 
Q 2938 2591 2744 2837 
Q 2550 3084 2163 3084 
Q 1697 3084 1428 2787 
Q 1159 2491 1159 1978 
L 1159 0 
L 581 0 
L 581 4863 
L 1159 4863 
L 1159 2956 
Q 1366 3272 1645 3428 
Q 1925 3584 2291 3584 
Q 2894 3584 3203 3211 
Q 3513 2838 3513 2113 
z
" transform="scale(0.015625)"/>
      </defs>
      <use xlink:href="#DejaVuSans-49"/>
      <use xlink:href="#DejaVuSans-6e" x="29.492188"/>
      <use xlink:href="#DejaVuSans-7a" x="92.871094"/>
      <use xlink:href="#DejaVuSans-69" x="145.361328"/>
      <use xlink:href="#DejaVuSans-64" x="173.144531"/>
      <use xlink:href="#DejaVuSans-65" x="236.621094"/>
      <use xlink:href="#DejaVuSans-6e" x="298.144531"/>
      <use xlink:href="#DejaVuSans-7a" x="361.523438"/>
      <use xlink:href="#DejaVuSans-20" x="414.013672"/>
      <use xlink:href="#DejaVuSans-70" x="445.800781"/>
      <use xlink:href="#DejaVuSans-72" x="509.277344"/>
      <use xlink:href="#DejaVuSans-6f" x="548.140625"/>
      <use xlink:href="#DejaVuSans-20" x="609.322266"/>
      <use xlink:href="#DejaVuSans-37" x="641.109375"/>
      <use xlink:href="#DejaVuSans-20" x="704.732422"/>
      <use xlink:href="#DejaVuSans-54" x="736.519531"/>
      <use xlink:href="#DejaVuSans-61" x="781.103516"/>
      <use xlink:href="#DejaVuSans-67" x="842.382812"/>
      <use xlink:href="#DejaVuSans-65" x="905.859375"/>
      <use xlink:href="#DejaVuSans-20" x="967.382812"/>
      <use xlink:href="#DejaVuSans-70" x="999.169922"/>
      <use xlink:href="#DejaVuSans-72" x="1062.646484"/>
      <use xlink:href="#DejaVuSans-6f" x="1101.509766"/>
      <use xlink:href="#DejaVuSans-20" x="1162.691406"/>
      <use xlink:href="#DejaVuSans-31" x="1194.478516"/>
      <use xlink:href="#DejaVuSans-30" x="1258.101562"/>
      <use xlink:href="#DejaVuSans-30" x="1321.724609"/>
      <use xlink:href="#DejaVuSans-2e" x="1385.347656"/>
      <use xlink:href="#DejaVuSans-30" x="1417.134766"/>
      <use xlink:href="#DejaVuSans-30" x="1480.757812"/>
      <use xlink:href="#DejaVuSans-30" x="1544.380859"/>
      <use xlink:href="#DejaVuSans-20" x="1608.003906"/>
      <use xlink:href="#DejaVuSans-45" x="1639.791016"/>
      <use xlink:href="#DejaVuSans-69" x="1702.974609"/>
      <use xlink:href="#DejaVuSans-6e" x="1730.757812"/>
      <use xlink:href="#DejaVuSans-77" x="1794.136719"/>
      <use xlink:href="#DejaVuSans-6f" x="1875.923828"/>
      <use xlink:href="#DejaVuSans-68" x="1937.105469"/>
      <use xlink:href="#DejaVuSans-6e" x="2000.484375"/>
      <use xlink:href="#DejaVuSans-65" x="2063.863281"/>
      <use xlink:href="#DejaVuSans-72" x="2125.386719"/>
     </g>
    </g>
   </g>
   <g id="line2d_31">
    <path d="M 73.832727 265.797818 
L 76.631473 265.797818 
L 76.942445 265.673895 
L 77.875361 265.611933 
L 78.186332 265.48801 
L 78.808276 264.620548 
L 79.119248 264.558586 
L 79.430219 264.31074 
L 80.052163 264.248778 
L 80.985078 264.372701 
L 81.607022 264.248778 
L 81.917994 264.372701 
L 82.539937 264.372701 
L 82.850909 264.496624 
L 83.161881 264.744471 
L 83.472853 264.744471 
L 83.783824 264.248778 
L 84.094796 264.062893 
L 84.71674 264.000931 
L 85.027712 263.753085 
L 85.338683 263.133469 
L 85.649655 262.947584 
L 85.960627 263.319354 
L 86.271599 263.381315 
L 86.582571 263.319354 
L 86.893542 263.381315 
L 88.137429 264.744471 
L 88.448401 264.682509 
L 89.381317 264.868394 
L 89.692288 265.240164 
L 90.625204 265.426049 
L 90.936176 265.302125 
L 91.869091 265.302125 
L 92.491034 265.48801 
L 93.734922 265.673895 
L 94.978809 265.48801 
L 95.600752 265.549972 
L 96.222696 265.673895 
L 97.155611 265.549972 
L 97.777555 265.549972 
L 98.088527 265.426049 
L 98.399498 265.426049 
L 99.021442 265.611933 
L 99.643386 265.673895 
L 99.954357 265.673895 
L 100.265329 265.797818 
L 100.576301 265.673895 
L 102.442132 265.673895 
L 102.753103 265.797818 
L 104.307962 265.797818 
L 104.618934 265.673895 
L 106.484765 265.673895 
L 106.795737 265.797818 
L 115.502947 265.735857 
L 117.368777 265.426049 
L 118.612665 265.426049 
L 118.923636 265.611933 
L 119.54558 265.48801 
L 119.856552 265.549972 
L 120.789467 265.426049 
L 121.722382 265.426049 
L 122.033354 265.178202 
L 122.96627 265.302125 
L 123.588213 265.364087 
L 124.210157 265.426049 
L 125.143072 265.426049 
L 125.454044 265.054279 
L 125.765016 264.868394 
L 126.075987 264.868394 
L 126.386959 264.372701 
L 127.319875 264.186816 
L 127.630846 264.496624 
L 127.941818 264.620548 
L 128.25279 264.620548 
L 128.563762 265.240164 
L 130.118621 265.48801 
L 131.362508 265.178202 
L 131.67348 265.054279 
L 131.984451 264.682509 
L 132.917367 264.434663 
L 133.53931 264.186816 
L 133.850282 264.186816 
L 134.161254 264.434663 
L 134.472226 264.248778 
L 134.783197 264.372701 
L 135.094169 264.248778 
L 135.405141 264.372701 
L 135.716113 264.124855 
L 136.027085 264.062893 
L 136.649028 264.31074 
L 136.96 264.31074 
L 137.270972 264.744471 
L 137.581944 264.558586 
L 137.892915 264.868394 
L 138.203887 264.930356 
L 138.514859 264.558586 
L 138.825831 264.682509 
L 139.447774 264.620548 
L 139.758746 264.868394 
L 140.069718 264.434663 
L 140.38069 264.558586 
L 140.691661 264.992317 
L 141.313605 264.930356 
L 141.935549 264.992317 
L 142.24652 265.302125 
L 143.490408 264.868394 
L 143.801379 264.496624 
L 144.112351 264.31074 
L 144.423323 264.496624 
L 144.734295 264.062893 
L 145.045266 264.062893 
L 145.356238 263.93897 
L 145.66721 264.000931 
L 145.978182 263.381315 
L 146.289154 261.398544 
L 146.600125 260.716966 
L 146.911097 260.46912 
L 147.222069 259.539695 
L 147.533041 259.105964 
L 147.844013 259.105964 
L 148.154984 258.858118 
L 148.776928 257.433001 
L 149.0879 256.25573 
L 149.398871 255.760037 
L 149.709843 255.88396 
L 150.020815 254.272958 
L 150.331787 254.210997 
L 150.642759 255.512191 
L 150.95373 254.892575 
L 151.264702 253.777266 
L 151.575674 254.396882 
L 152.197618 254.582767 
L 152.819561 253.157649 
L 153.130533 254.272958 
L 153.441505 256.007884 
L 153.752476 254.644728 
L 154.063448 254.520805 
L 154.37442 255.574152 
L 154.685392 255.574152 
L 154.996364 256.441615 
L 155.307335 256.379653 
L 155.618307 255.821999 
L 155.929279 257.061231 
L 156.551223 257.866732 
L 156.862194 257.742809 
L 157.173166 257.80477 
L 157.484138 257.618885 
L 157.79511 258.486348 
L 158.728025 258.920079 
L 159.038997 260.09735 
L 159.349969 259.973427 
L 159.971912 261.026774 
L 160.282884 261.336582 
L 160.593856 261.398544 
L 160.904828 259.415772 
L 161.215799 259.477734 
L 161.526771 260.407158 
L 161.837743 259.973427 
L 162.148715 259.167926 
L 162.459687 259.044003 
L 162.770658 257.556924 
L 163.08163 259.044003 
L 163.392602 258.796156 
L 163.703574 256.441615 
L 164.014545 255.945922 
L 164.636489 253.96315 
L 164.947461 255.016498 
L 165.258433 254.892575 
L 165.569404 253.157649 
L 165.880376 254.830613 
L 166.191348 253.095688 
L 166.813292 255.388267 
L 167.124263 255.450229 
L 167.746207 256.565538 
L 168.057179 256.317692 
L 168.36815 258.672233 
L 168.679122 258.486348 
L 168.990094 258.486348 
L 169.612038 257.433001 
L 169.923009 258.238502 
L 170.233981 257.123193 
L 170.544953 256.813385 
L 170.855925 257.433001 
L 171.166897 256.6275 
L 171.477868 256.875346 
L 171.78884 257.433001 
L 172.099812 255.078459 
L 172.410784 255.078459 
L 172.721755 254.830613 
L 173.343699 253.653342 
L 173.654671 254.149035 
L 173.965643 254.087074 
L 174.587586 256.565538 
L 175.20953 255.574152 
L 175.520502 255.264344 
L 176.142445 255.140421 
L 176.453417 255.821999 
L 176.764389 255.88396 
L 177.697304 258.734194 
L 178.008276 258.672233 
L 178.319248 258.424386 
L 178.630219 259.105964 
L 178.941191 259.229887 
L 179.252163 259.477734 
L 179.563135 258.920079 
L 179.874107 259.539695 
L 180.185078 259.663619 
L 180.49605 260.09735 
L 180.807022 260.964812 
L 181.739937 261.770313 
L 182.050909 261.708352 
L 182.361881 261.770313 
L 182.672853 261.708352 
L 182.983824 261.832275 
L 183.294796 261.460505 
L 183.605768 261.398544 
L 183.91674 261.150697 
L 184.227712 260.655004 
L 185.160627 260.09735 
L 185.471599 260.593043 
L 185.782571 260.531081 
L 186.404514 262.327968 
L 187.026458 262.575814 
L 187.337429 262.637776 
L 187.959373 262.204045 
L 188.270345 261.274621 
L 188.581317 259.72558 
L 188.892288 259.663619 
L 189.20326 259.787542 
L 189.514232 259.415772 
L 189.825204 258.424386 
L 190.136176 258.424386 
L 190.447147 257.433001 
L 190.758119 257.866732 
L 191.069091 257.556924 
L 191.380063 257.061231 
L 191.691034 256.875346 
L 192.002006 256.441615 
L 192.312978 254.520805 
L 192.62395 255.388267 
L 193.556865 255.078459 
L 193.867837 254.582767 
L 194.178809 253.095688 
L 194.489781 254.644728 
L 194.800752 253.839227 
L 195.111724 253.529419 
L 195.422696 253.033726 
L 195.733668 253.343534 
L 196.044639 253.901189 
L 196.666583 253.157649 
L 196.977555 253.219611 
L 197.288527 254.830613 
L 197.91047 254.644728 
L 198.221442 255.512191 
L 198.532414 257.247116 
L 198.843386 256.565538 
L 199.154357 256.503576 
L 199.465329 256.131807 
L 199.776301 255.140421 
L 200.087273 255.326306 
L 200.398245 254.149035 
L 200.709216 254.210997 
L 201.020188 252.352148 
L 201.33116 252.228225 
L 201.642132 250.555262 
L 201.953103 252.352148 
L 202.264075 252.228225 
L 202.575047 250.059569 
L 202.886019 249.749761 
L 203.196991 251.546648 
L 203.507962 252.290187 
L 203.818934 252.661957 
L 204.129906 252.661957 
L 204.440878 252.104302 
L 204.75185 253.715304 
L 205.062821 253.467457 
L 205.373793 254.272958 
L 205.684765 253.901189 
L 205.995737 254.272958 
L 206.306708 254.33492 
L 206.928652 255.202383 
L 207.550596 257.433001 
L 207.861567 257.556924 
L 208.172539 258.486348 
L 208.483511 258.610271 
L 208.794483 258.610271 
L 209.105455 258.052617 
L 209.416426 258.17654 
L 209.727398 257.80477 
L 210.03837 259.229887 
L 210.349342 258.052617 
L 210.971285 258.362425 
L 211.593229 259.415772 
L 211.904201 259.353811 
L 212.215172 259.105964 
L 212.526144 260.407158 
L 212.837116 260.283235 
L 213.148088 260.345196 
L 213.45906 262.080121 
L 213.770031 262.327968 
L 214.081003 263.319354 
L 214.391975 263.505239 
L 214.702947 263.19543 
L 215.32489 263.257392 
L 215.635862 262.38993 
L 215.946834 262.823661 
L 216.257806 262.451891 
L 216.568777 262.699738 
L 216.879749 263.319354 
L 218.434608 264.31074 
L 218.74558 264.620548 
L 219.056552 264.744471 
L 219.367524 264.744471 
L 219.678495 264.558586 
L 219.989467 265.054279 
L 220.300439 265.11624 
L 220.611411 265.426049 
L 220.922382 265.364087 
L 221.855298 265.611933 
L 222.16627 265.735857 
L 222.477241 265.549972 
L 224.343072 265.549972 
L 224.654044 265.673895 
L 224.965016 265.673895 
L 225.586959 265.48801 
L 226.208903 265.48801 
L 226.519875 265.240164 
L 226.830846 265.302125 
L 227.141818 265.240164 
L 227.763762 265.48801 
L 228.385705 265.48801 
L 228.696677 265.673895 
L 229.007649 265.549972 
L 229.318621 265.302125 
L 229.629592 265.302125 
L 229.940564 264.992317 
L 230.251536 264.992317 
L 230.87348 264.806432 
L 231.184451 264.744471 
L 231.495423 264.992317 
L 231.806395 264.930356 
L 232.117367 265.178202 
L 232.73931 265.178202 
L 233.361254 265.426049 
L 233.983197 264.868394 
L 234.294169 264.868394 
L 234.605141 264.682509 
L 234.916113 264.806432 
L 235.227085 264.062893 
L 235.538056 263.691123 
L 235.849028 263.815047 
L 236.470972 263.443277 
L 236.781944 263.505239 
L 237.092915 263.319354 
L 237.714859 264.062893 
L 238.025831 263.691123 
L 238.336803 264.000931 
L 238.647774 263.815047 
L 238.958746 263.877008 
L 239.269718 263.815047 
L 239.891661 262.451891 
L 240.202633 261.64639 
L 240.513605 261.708352 
L 240.824577 261.336582 
L 241.135549 261.336582 
L 241.44652 261.522467 
L 242.068464 259.973427 
L 242.379436 260.221273 
L 242.690408 259.229887 
L 243.001379 258.672233 
L 243.623323 258.052617 
L 244.245266 259.167926 
L 244.86721 257.80477 
L 245.489154 256.813385 
L 245.800125 257.061231 
L 246.422069 254.892575 
L 247.665956 257.309077 
L 247.976928 257.061231 
L 248.598871 259.415772 
L 248.909843 259.72558 
L 249.220815 260.46912 
L 250.15373 260.531081 
L 250.464702 260.345196 
L 251.086646 261.64639 
L 251.397618 261.770313 
L 251.708589 262.513853 
L 252.330533 262.761699 
L 252.641505 263.629162 
L 252.952476 263.629162 
L 253.263448 263.753085 
L 254.196364 263.629162 
L 254.507335 263.815047 
L 254.818307 263.505239 
L 255.440251 263.381315 
L 255.751223 263.505239 
L 256.062194 263.505239 
L 256.373166 263.381315 
L 256.684138 263.133469 
L 256.99511 263.257392 
L 257.306082 262.699738 
L 257.617053 262.451891 
L 257.928025 261.770313 
L 258.549969 261.336582 
L 258.86094 261.584429 
L 259.171912 261.336582 
L 260.104828 261.274621 
L 260.726771 261.770313 
L 261.037743 261.150697 
L 261.659687 260.345196 
L 262.28163 259.291849 
L 262.592602 257.928694 
L 263.214545 258.114578 
L 263.525517 255.88396 
L 264.147461 254.70669 
L 264.458433 254.582767 
L 264.769404 253.343534 
L 265.080376 253.095688 
L 265.391348 253.529419 
L 265.70232 250.679185 
L 266.013292 249.563876 
L 266.635235 248.200721 
L 266.946207 248.57249 
L 267.257179 247.828951 
L 267.56815 247.457181 
L 268.190094 248.882298 
L 268.812038 246.961488 
L 269.123009 246.527757 
L 269.433981 246.713642 
L 269.744953 246.403834 
L 270.055925 247.209335 
L 270.366897 246.65168 
L 270.677868 247.39522 
L 270.98884 247.457181 
L 271.299812 247.705028 
L 271.610784 247.519143 
L 271.921755 247.705028 
L 272.232727 249.192106 
L 272.543699 249.439953 
L 272.854671 249.935646 
L 273.165643 250.86507 
L 273.476614 252.476072 
L 273.787586 251.484686 
L 274.720502 250.555262 
L 275.031473 250.431339 
L 275.342445 250.988993 
L 275.653417 249.687799 
L 275.964389 250.617223 
L 276.275361 250.927031 
L 276.586332 250.988993 
L 276.897304 249.439953 
L 277.208276 250.12153 
L 277.519248 247.766989 
L 277.830219 248.510529 
L 278.141191 248.386605 
L 278.452163 248.076797 
L 278.763135 247.333258 
L 279.074107 248.014836 
L 279.385078 247.147373 
L 280.007022 250.12153 
L 280.317994 250.4933 
L 280.939937 250.679185 
L 281.250909 251.422724 
L 281.561881 251.360763 
L 281.872853 251.174878 
L 282.183824 251.236839 
L 282.494796 251.112916 
L 282.805768 250.369377 
L 283.11674 247.643066 
L 283.427712 249.31603 
L 283.738683 245.784218 
L 284.671599 241.075135 
L 285.293542 240.765327 
L 285.604514 235.374667 
L 285.915486 235.250744 
L 286.226458 233.763665 
L 286.537429 234.755051 
L 286.848401 227.877312 
L 287.159373 227.939274 
L 287.470345 226.26631 
L 288.092288 217.901493 
L 288.40326 198.879278 
L 288.714232 192.745078 
L 289.025204 201.295781 
L 289.336176 190.51446 
L 289.647147 188.469727 
L 289.958119 179.237447 
L 290.269091 175.395827 
L 290.580063 184.132414 
L 290.891034 176.573098 
L 291.202006 176.387213 
L 291.512978 164.36666 
L 291.82395 162.81762 
L 292.756865 154.328879 
L 293.067837 158.976 
L 293.378809 144.167175 
L 293.689781 141.007133 
L 294.000752 130.90739 
L 294.933668 145.344445 
L 295.244639 134.005471 
L 295.555611 149.000181 
L 295.866583 153.709263 
L 296.177555 151.66453 
L 296.488527 140.821248 
L 297.11047 135.926281 
L 297.421442 147.265255 
L 297.732414 147.079371 
L 298.354357 167.83651 
L 298.665329 181.777873 
L 298.976301 178.431946 
L 299.598245 158.046576 
L 299.909216 158.170499 
L 300.220188 146.893486 
L 300.53116 130.969352 
L 300.842132 123.348073 
L 301.464075 96.642619 
L 301.775047 100.608162 
L 302.086019 100.422277 
L 302.396991 97.44812 
L 302.707962 105.936861 
L 303.018934 96.828504 
L 303.329906 94.969655 
L 303.640878 87.84407 
L 303.95185 88.277801 
L 304.262821 88.401725 
L 304.884765 67.83047 
L 305.195737 72.291706 
L 305.506708 72.725437 
L 305.81768 70.370896 
L 306.128652 71.30032 
L 306.439624 71.362281 
L 306.750596 74.088592 
L 307.061567 66.095544 
L 307.372539 53.269491 
L 307.683511 52.154182 
L 307.994483 61.572347 
L 308.305455 59.589575 
L 308.616426 59.651537 
L 308.927398 58.288381 
L 309.23837 66.777122 
L 309.549342 84.188335 
L 309.860313 94.597886 
L 310.171285 109.902404 
L 310.482257 117.523682 
L 310.793229 117.151912 
L 311.104201 127.747348 
L 311.415172 124.897114 
L 311.726144 120.311954 
L 312.037116 124.029651 
L 312.348088 121.737072 
L 312.65906 132.270545 
L 312.970031 111.451444 
L 313.281003 107.05217 
L 313.591975 107.361978 
L 314.213918 96.828504 
L 314.52489 121.30334 
L 314.835862 121.30334 
L 315.146834 142.494211 
L 315.457806 173.846787 
L 315.768777 162.755658 
L 316.079749 178.1841 
L 316.390721 181.468065 
L 316.701693 159.781501 
L 317.012665 152.8418 
L 317.323636 149.186065 
L 317.634608 119.568415 
L 317.94558 134.191355 
L 318.256552 134.191355 
L 319.811411 162.198004 
L 320.122382 167.216894 
L 320.744326 170.562821 
L 321.055298 173.227171 
L 321.677241 173.227171 
L 321.988213 175.89152 
L 322.299185 184.75203 
L 322.610157 188.221881 
L 323.2321 198.631431 
L 323.854044 198.631431 
L 324.165016 209.474713 
L 324.475987 212.758679 
L 325.097931 222.982345 
L 325.408903 224.407462 
L 326.030846 224.407462 
L 326.341818 227.443581 
L 326.65279 232.586394 
L 326.963762 233.701703 
L 327.274734 239.71198 
L 327.896677 239.650018 
L 328.207649 239.650018 
L 328.518621 239.030402 
L 328.829592 239.959826 
L 329.451536 231.161277 
L 330.384451 231.161277 
L 330.695423 240.145711 
L 331.317367 226.762003 
L 331.628339 221.867036 
L 331.93931 219.388571 
L 332.250282 219.264648 
L 332.561254 219.264648 
L 332.872226 204.765631 
L 333.183197 205.137401 
L 333.494169 206.314671 
L 334.116113 204.889554 
L 334.427085 205.013477 
L 334.738056 205.013477 
L 335.049028 198.259662 
L 335.36 198.631431 
L 335.670972 188.159919 
L 336.292915 180.042948 
L 336.914859 180.042948 
L 337.225831 177.688407 
L 337.536803 162.383889 
L 337.847774 169.137704 
L 338.158746 164.924315 
L 338.469718 163.932929 
L 339.091661 163.932929 
L 339.402633 160.463079 
L 339.713605 166.907086 
L 340.024577 166.907086 
L 340.335549 165.172161 
L 340.64652 164.242737 
L 341.268464 164.242737 
L 341.579436 162.198004 
L 341.890408 159.099923 
L 342.201379 147.141332 
L 342.823323 137.165513 
L 343.445266 137.103551 
L 343.756238 124.091613 
L 344.06721 126.446154 
L 344.378182 116.718181 
L 345.000125 130.597582 
L 345.622069 130.659544 
L 345.933041 145.53033 
L 346.244013 148.318603 
L 346.554984 171.616169 
L 346.865956 179.36137 
L 347.176928 183.57476 
L 347.798871 183.57476 
L 348.109843 195.223543 
L 348.420815 199.313009 
L 348.731787 205.633093 
L 349.35373 211.64337 
L 349.975674 211.64337 
L 350.908589 225.274924 
L 351.219561 225.89454 
L 351.530533 224.531385 
L 352.152476 224.531385 
L 352.463448 223.292153 
L 352.77442 219.884264 
L 353.085392 219.264648 
L 353.707335 222.920383 
L 354.329279 222.920383 
L 354.640251 223.911769 
L 354.951223 227.629466 
L 355.262194 228.496928 
L 355.573166 228.496928 
L 355.884138 228.620851 
L 356.506082 228.620851 
L 356.817053 231.718932 
L 357.128025 231.471085 
L 357.438997 234.073473 
L 357.749969 233.94955 
L 358.06094 235.622513 
L 358.682884 235.622513 
L 358.993856 236.056245 
L 359.615799 233.515819 
L 359.926771 233.639742 
L 360.237743 234.32132 
L 360.859687 234.32132 
L 361.170658 229.984007 
L 361.48163 232.214625 
L 361.792602 232.090702 
L 362.103574 231.842855 
L 362.414545 229.364391 
L 363.036489 229.364391 
L 363.347461 230.789508 
L 363.969404 226.328272 
L 364.280376 224.531385 
L 364.591348 221.123496 
L 365.213292 221.123496 
L 365.524263 220.627803 
L 366.457179 202.535013 
L 366.76815 202.287166 
L 367.390094 202.287166 
L 367.701066 213.068487 
L 368.012038 213.006525 
L 368.323009 214.431642 
L 368.633981 206.810364 
L 368.944953 202.658936 
L 369.566897 202.658936 
L 369.877868 151.66453 
L 370.499812 135.802357 
L 370.810784 137.475321 
L 371.121755 143.733444 
L 371.743699 143.733444 
L 372.054671 179.299409 
L 372.676614 216.166567 
L 372.987586 226.885926 
L 373.298558 219.884264 
L 373.920502 219.884264 
L 374.231473 218.768955 
L 374.853417 198.755355 
L 375.164389 194.046272 
L 375.475361 202.349128 
L 376.097304 202.349128 
L 376.408276 218.830917 
L 376.719248 171.120476 
L 377.030219 171.925977 
L 377.341191 173.660902 
L 377.652163 171.306361 
L 378.274107 171.306361 
L 378.585078 160.339155 
L 378.89605 215.175182 
L 379.517994 224.779231 
L 379.828966 227.629466 
L 380.450909 227.629466 
L 380.761881 230.045968 
L 381.072853 227.443581 
L 381.383824 229.612237 
L 381.694796 229.364391 
L 382.31674 229.426352 
L 382.627712 229.426352 
L 382.938683 228.806736 
L 383.249655 229.860084 
L 383.871599 225.089039 
L 384.804514 225.089039 
L 385.115486 226.080425 
L 385.426458 216.848145 
L 385.737429 225.212963 
L 386.048401 215.11322 
L 386.359373 210.775907 
L 386.981317 210.775907 
L 387.292288 204.393861 
L 387.60326 210.156291 
L 387.914232 197.082391 
L 388.225204 203.712283 
L 388.536176 203.030706 
L 389.158119 203.030706 
L 389.469091 202.720898 
L 389.780063 200.49028 
L 390.091034 195.161581 
L 390.402006 195.595312 
L 390.712978 196.27689 
L 391.334922 196.27689 
L 391.645893 191.134076 
L 391.956865 188.221881 
L 392.267837 191.196038 
L 392.578809 188.283842 
L 392.889781 189.585036 
L 393.511724 189.585036 
L 393.822696 209.660598 
L 394.133668 210.466099 
L 394.444639 211.891216 
L 394.755611 217.281876 
L 395.066583 219.698379 
L 395.688527 219.698379 
L 395.999498 210.466099 
L 396.621442 223.97373 
L 396.932414 228.373005 
L 397.243386 229.798122 
L 397.865329 229.798122 
L 398.176301 232.524433 
L 398.487273 237.109592 
L 398.487273 237.109592 
" clip-path="url(#p23596dcc63)" style="fill: none; stroke: #1f77b4; stroke-width: 1.5; stroke-linecap: square"/>
   </g>
   <g id="patch_3">
    <path d="M 57.6 276.48 
L 57.6 41.472 
" style="fill: none; stroke: #000000; stroke-width: 0.8; stroke-linejoin: miter; stroke-linecap: square"/>
   </g>
   <g id="patch_4">
    <path d="M 414.72 276.48 
L 414.72 41.472 
" style="fill: none; stroke: #000000; stroke-width: 0.8; stroke-linejoin: miter; stroke-linecap: square"/>
   </g>
   <g id="patch_5">
    <path d="M 57.6 276.48 
L 414.72 276.48 
" style="fill: none; stroke: #000000; stroke-width: 0.8; stroke-linejoin: miter; stroke-linecap: square"/>
   </g>
   <g id="patch_6">
    <path d="M 57.6 41.472 
L 414.72 41.472 
" style="fill: none; stroke: #000000; stroke-width: 0.8; stroke-linejoin: miter; stroke-linecap: square"/>
   </g>
  </g>
  <g id="text_17">
   <!-- Inzidenzverlauf LK Schaumburg -->
   <g transform="translate(88.024219 20.589187) scale(0.18 -0.18)">
    <defs>
     <path id="DejaVuSans-76" d="M 191 3500 
L 800 3500 
L 1894 563 
L 2988 3500 
L 3597 3500 
L 2284 0 
L 1503 0 
L 191 3500 
z
" transform="scale(0.015625)"/>
     <path id="DejaVuSans-6c" d="M 603 4863 
L 1178 4863 
L 1178 0 
L 603 0 
L 603 4863 
z
" transform="scale(0.015625)"/>
     <path id="DejaVuSans-75" d="M 544 1381 
L 544 3500 
L 1119 3500 
L 1119 1403 
Q 1119 906 1312 657 
Q 1506 409 1894 409 
Q 2359 409 2629 706 
Q 2900 1003 2900 1516 
L 2900 3500 
L 3475 3500 
L 3475 0 
L 2900 0 
L 2900 538 
Q 2691 219 2414 64 
Q 2138 -91 1772 -91 
Q 1169 -91 856 284 
Q 544 659 544 1381 
z
M 1991 3584 
L 1991 3584 
z
" transform="scale(0.015625)"/>
     <path id="DejaVuSans-66" d="M 2375 4863 
L 2375 4384 
L 1825 4384 
Q 1516 4384 1395 4259 
Q 1275 4134 1275 3809 
L 1275 3500 
L 2222 3500 
L 2222 3053 
L 1275 3053 
L 1275 0 
L 697 0 
L 697 3053 
L 147 3053 
L 147 3500 
L 697 3500 
L 697 3744 
Q 697 4328 969 4595 
Q 1241 4863 1831 4863 
L 2375 4863 
z
" transform="scale(0.015625)"/>
     <path id="DejaVuSans-4c" d="M 628 4666 
L 1259 4666 
L 1259 531 
L 3531 531 
L 3531 0 
L 628 0 
L 628 4666 
z
" transform="scale(0.015625)"/>
     <path id="DejaVuSans-4b" d="M 628 4666 
L 1259 4666 
L 1259 2694 
L 3353 4666 
L 4166 4666 
L 1850 2491 
L 4331 0 
L 3500 0 
L 1259 2247 
L 1259 0 
L 628 0 
L 628 4666 
z
" transform="scale(0.015625)"/>
     <path id="DejaVuSans-53" d="M 3425 4513 
L 3425 3897 
Q 3066 4069 2747 4153 
Q 2428 4238 2131 4238 
Q 1616 4238 1336 4038 
Q 1056 3838 1056 3469 
Q 1056 3159 1242 3001 
Q 1428 2844 1947 2747 
L 2328 2669 
Q 3034 2534 3370 2195 
Q 3706 1856 3706 1288 
Q 3706 609 3251 259 
Q 2797 -91 1919 -91 
Q 1588 -91 1214 -16 
Q 841 59 441 206 
L 441 856 
Q 825 641 1194 531 
Q 1563 422 1919 422 
Q 2459 422 2753 634 
Q 3047 847 3047 1241 
Q 3047 1584 2836 1778 
Q 2625 1972 2144 2069 
L 1759 2144 
Q 1053 2284 737 2584 
Q 422 2884 422 3419 
Q 422 4038 858 4394 
Q 1294 4750 2059 4750 
Q 2388 4750 2728 4690 
Q 3069 4631 3425 4513 
z
" transform="scale(0.015625)"/>
     <path id="DejaVuSans-63" d="M 3122 3366 
L 3122 2828 
Q 2878 2963 2633 3030 
Q 2388 3097 2138 3097 
Q 1578 3097 1268 2742 
Q 959 2388 959 1747 
Q 959 1106 1268 751 
Q 1578 397 2138 397 
Q 2388 397 2633 464 
Q 2878 531 3122 666 
L 3122 134 
Q 2881 22 2623 -34 
Q 2366 -91 2075 -91 
Q 1284 -91 818 406 
Q 353 903 353 1747 
Q 353 2603 823 3093 
Q 1294 3584 2113 3584 
Q 2378 3584 2631 3529 
Q 2884 3475 3122 3366 
z
" transform="scale(0.015625)"/>
     <path id="DejaVuSans-6d" d="M 3328 2828 
Q 3544 3216 3844 3400 
Q 4144 3584 4550 3584 
Q 5097 3584 5394 3201 
Q 5691 2819 5691 2113 
L 5691 0 
L 5113 0 
L 5113 2094 
Q 5113 2597 4934 2840 
Q 4756 3084 4391 3084 
Q 3944 3084 3684 2787 
Q 3425 2491 3425 1978 
L 3425 0 
L 2847 0 
L 2847 2094 
Q 2847 2600 2669 2842 
Q 2491 3084 2119 3084 
Q 1678 3084 1418 2786 
Q 1159 2488 1159 1978 
L 1159 0 
L 581 0 
L 581 3500 
L 1159 3500 
L 1159 2956 
Q 1356 3278 1631 3431 
Q 1906 3584 2284 3584 
Q 2666 3584 2933 3390 
Q 3200 3197 3328 2828 
z
" transform="scale(0.015625)"/>
     <path id="DejaVuSans-62" d="M 3116 1747 
Q 3116 2381 2855 2742 
Q 2594 3103 2138 3103 
Q 1681 3103 1420 2742 
Q 1159 2381 1159 1747 
Q 1159 1113 1420 752 
Q 1681 391 2138 391 
Q 2594 391 2855 752 
Q 3116 1113 3116 1747 
z
M 1159 2969 
Q 1341 3281 1617 3432 
Q 1894 3584 2278 3584 
Q 2916 3584 3314 3078 
Q 3713 2572 3713 1747 
Q 3713 922 3314 415 
Q 2916 -91 2278 -91 
Q 1894 -91 1617 61 
Q 1341 213 1159 525 
L 1159 0 
L 581 0 
L 581 4863 
L 1159 4863 
L 1159 2969 
z
" transform="scale(0.015625)"/>
    </defs>
    <use xlink:href="#DejaVuSans-49"/>
    <use xlink:href="#DejaVuSans-6e" x="29.492188"/>
    <use xlink:href="#DejaVuSans-7a" x="92.871094"/>
    <use xlink:href="#DejaVuSans-69" x="145.361328"/>
    <use xlink:href="#DejaVuSans-64" x="173.144531"/>
    <use xlink:href="#DejaVuSans-65" x="236.621094"/>
    <use xlink:href="#DejaVuSans-6e" x="298.144531"/>
    <use xlink:href="#DejaVuSans-7a" x="361.523438"/>
    <use xlink:href="#DejaVuSans-76" x="414.013672"/>
    <use xlink:href="#DejaVuSans-65" x="473.193359"/>
    <use xlink:href="#DejaVuSans-72" x="534.716797"/>
    <use xlink:href="#DejaVuSans-6c" x="575.830078"/>
    <use xlink:href="#DejaVuSans-61" x="603.613281"/>
    <use xlink:href="#DejaVuSans-75" x="664.892578"/>
    <use xlink:href="#DejaVuSans-66" x="728.271484"/>
    <use xlink:href="#DejaVuSans-20" x="763.476562"/>
    <use xlink:href="#DejaVuSans-4c" x="795.263672"/>
    <use xlink:href="#DejaVuSans-4b" x="850.976562"/>
    <use xlink:href="#DejaVuSans-20" x="916.552734"/>
    <use xlink:href="#DejaVuSans-53" x="948.339844"/>
    <use xlink:href="#DejaVuSans-63" x="1011.816406"/>
    <use xlink:href="#DejaVuSans-68" x="1066.796875"/>
    <use xlink:href="#DejaVuSans-61" x="1130.175781"/>
    <use xlink:href="#DejaVuSans-75" x="1191.455078"/>
    <use xlink:href="#DejaVuSans-6d" x="1254.833984"/>
    <use xlink:href="#DejaVuSans-62" x="1352.246094"/>
    <use xlink:href="#DejaVuSans-75" x="1415.722656"/>
    <use xlink:href="#DejaVuSans-72" x="1479.101562"/>
    <use xlink:href="#DejaVuSans-67" x="1518.464844"/>
   </g>
  </g>
 </g>
 <defs>
  <clipPath id="p23596dcc63">
   <rect x="57.6" y="41.472" width="357.12" height="235.008"/>
  </clipPath>
 </defs>
</svg>
