<?xml version="1.0" encoding="utf-8" standalone="no"?>
<!DOCTYPE svg PUBLIC "-//W3C//DTD SVG 1.1//EN"
  "http://www.w3.org/Graphics/SVG/1.1/DTD/svg11.dtd">
<svg xmlns:xlink="http://www.w3.org/1999/xlink" width="460.8pt" height="345.6pt" viewBox="0 0 460.8 345.6" xmlns="http://www.w3.org/2000/svg" version="1.1">
 <metadata>
  <rdf:RDF xmlns:dc="http://purl.org/dc/elements/1.1/" xmlns:cc="http://creativecommons.org/ns#" xmlns:rdf="http://www.w3.org/1999/02/22-rdf-syntax-ns#">
   <cc:Work>
    <dc:type rdf:resource="http://purl.org/dc/dcmitype/StillImage"/>
    <dc:date>2022-04-16T09:20:17.098154</dc:date>
    <dc:format>image/svg+xml</dc:format>
    <dc:creator>
     <cc:Agent>
      <dc:title>Matplotlib v3.5.1, https://matplotlib.org/</dc:title>
     </cc:Agent>
    </dc:creator>
   </cc:Work>
  </rdf:RDF>
 </metadata>
 <defs>
  <style type="text/css">*{stroke-linejoin: round; stroke-linecap: butt}</style>
 </defs>
 <g id="figure_1">
  <g id="patch_1">
   <path d="M 0 345.6 
L 460.8 345.6 
L 460.8 0 
L 0 0 
z
" style="fill: #ffffff"/>
  </g>
  <g id="axes_1">
   <g id="patch_2">
    <path d="M 57.6 276.48 
L 414.72 276.48 
L 414.72 41.472 
L 57.6 41.472 
z
" style="fill: #ffffff"/>
   </g>
   <g id="matplotlib.axis_1">
    <g id="xtick_1">
     <g id="line2d_1">
      <path d="M 60.532657 276.48 
L 60.532657 41.472 
" clip-path="url(#p3b88869ab2)" style="fill: none; stroke-dasharray: 2.96,1.28; stroke-dashoffset: 0; stroke: #808080; stroke-width: 0.8"/>
     </g>
     <g id="line2d_2">
      <defs>
       <path id="m2053fe3343" d="M 0 0 
L 0 3.5 
" style="stroke: #000000; stroke-width: 0.8"/>
      </defs>
      <g>
       <use xlink:href="#m2053fe3343" x="60.532657" y="276.48" style="stroke: #000000; stroke-width: 0.8"/>
      </g>
     </g>
     <g id="text_1">
      <!-- 31.01.2020 -->
      <g transform="translate(9.907446 318.688565)rotate(-30)scale(0.1 -0.1)">
       <defs>
        <path id="DejaVuSans-33" d="M 2597 2516 
Q 3050 2419 3304 2112 
Q 3559 1806 3559 1356 
Q 3559 666 3084 287 
Q 2609 -91 1734 -91 
Q 1441 -91 1130 -33 
Q 819 25 488 141 
L 488 750 
Q 750 597 1062 519 
Q 1375 441 1716 441 
Q 2309 441 2620 675 
Q 2931 909 2931 1356 
Q 2931 1769 2642 2001 
Q 2353 2234 1838 2234 
L 1294 2234 
L 1294 2753 
L 1863 2753 
Q 2328 2753 2575 2939 
Q 2822 3125 2822 3475 
Q 2822 3834 2567 4026 
Q 2313 4219 1838 4219 
Q 1578 4219 1281 4162 
Q 984 4106 628 3988 
L 628 4550 
Q 988 4650 1302 4700 
Q 1616 4750 1894 4750 
Q 2613 4750 3031 4423 
Q 3450 4097 3450 3541 
Q 3450 3153 3228 2886 
Q 3006 2619 2597 2516 
z
" transform="scale(0.015625)"/>
        <path id="DejaVuSans-31" d="M 794 531 
L 1825 531 
L 1825 4091 
L 703 3866 
L 703 4441 
L 1819 4666 
L 2450 4666 
L 2450 531 
L 3481 531 
L 3481 0 
L 794 0 
L 794 531 
z
" transform="scale(0.015625)"/>
        <path id="DejaVuSans-2e" d="M 684 794 
L 1344 794 
L 1344 0 
L 684 0 
L 684 794 
z
" transform="scale(0.015625)"/>
        <path id="DejaVuSans-30" d="M 2034 4250 
Q 1547 4250 1301 3770 
Q 1056 3291 1056 2328 
Q 1056 1369 1301 889 
Q 1547 409 2034 409 
Q 2525 409 2770 889 
Q 3016 1369 3016 2328 
Q 3016 3291 2770 3770 
Q 2525 4250 2034 4250 
z
M 2034 4750 
Q 2819 4750 3233 4129 
Q 3647 3509 3647 2328 
Q 3647 1150 3233 529 
Q 2819 -91 2034 -91 
Q 1250 -91 836 529 
Q 422 1150 422 2328 
Q 422 3509 836 4129 
Q 1250 4750 2034 4750 
z
" transform="scale(0.015625)"/>
        <path id="DejaVuSans-32" d="M 1228 531 
L 3431 531 
L 3431 0 
L 469 0 
L 469 531 
Q 828 903 1448 1529 
Q 2069 2156 2228 2338 
Q 2531 2678 2651 2914 
Q 2772 3150 2772 3378 
Q 2772 3750 2511 3984 
Q 2250 4219 1831 4219 
Q 1534 4219 1204 4116 
Q 875 4013 500 3803 
L 500 4441 
Q 881 4594 1212 4672 
Q 1544 4750 1819 4750 
Q 2544 4750 2975 4387 
Q 3406 4025 3406 3419 
Q 3406 3131 3298 2873 
Q 3191 2616 2906 2266 
Q 2828 2175 2409 1742 
Q 1991 1309 1228 531 
z
" transform="scale(0.015625)"/>
       </defs>
       <use xlink:href="#DejaVuSans-33"/>
       <use xlink:href="#DejaVuSans-31" x="63.623047"/>
       <use xlink:href="#DejaVuSans-2e" x="127.246094"/>
       <use xlink:href="#DejaVuSans-30" x="159.033203"/>
       <use xlink:href="#DejaVuSans-31" x="222.65625"/>
       <use xlink:href="#DejaVuSans-2e" x="286.279297"/>
       <use xlink:href="#DejaVuSans-32" x="318.066406"/>
       <use xlink:href="#DejaVuSans-30" x="381.689453"/>
       <use xlink:href="#DejaVuSans-32" x="445.3125"/>
       <use xlink:href="#DejaVuSans-30" x="508.935547"/>
      </g>
     </g>
    </g>
    <g id="xtick_2">
     <g id="line2d_3">
      <path d="M 96.605384 276.48 
L 96.605384 41.472 
" clip-path="url(#p3b88869ab2)" style="fill: none; stroke-dasharray: 2.96,1.28; stroke-dashoffset: 0; stroke: #808080; stroke-width: 0.8"/>
     </g>
     <g id="line2d_4">
      <g>
       <use xlink:href="#m2053fe3343" x="96.605384" y="276.48" style="stroke: #000000; stroke-width: 0.8"/>
      </g>
     </g>
     <g id="text_2">
      <!-- 26.04.2020 -->
      <g transform="translate(45.980173 318.688565)rotate(-30)scale(0.1 -0.1)">
       <defs>
        <path id="DejaVuSans-36" d="M 2113 2584 
Q 1688 2584 1439 2293 
Q 1191 2003 1191 1497 
Q 1191 994 1439 701 
Q 1688 409 2113 409 
Q 2538 409 2786 701 
Q 3034 994 3034 1497 
Q 3034 2003 2786 2293 
Q 2538 2584 2113 2584 
z
M 3366 4563 
L 3366 3988 
Q 3128 4100 2886 4159 
Q 2644 4219 2406 4219 
Q 1781 4219 1451 3797 
Q 1122 3375 1075 2522 
Q 1259 2794 1537 2939 
Q 1816 3084 2150 3084 
Q 2853 3084 3261 2657 
Q 3669 2231 3669 1497 
Q 3669 778 3244 343 
Q 2819 -91 2113 -91 
Q 1303 -91 875 529 
Q 447 1150 447 2328 
Q 447 3434 972 4092 
Q 1497 4750 2381 4750 
Q 2619 4750 2861 4703 
Q 3103 4656 3366 4563 
z
" transform="scale(0.015625)"/>
        <path id="DejaVuSans-34" d="M 2419 4116 
L 825 1625 
L 2419 1625 
L 2419 4116 
z
M 2253 4666 
L 3047 4666 
L 3047 1625 
L 3713 1625 
L 3713 1100 
L 3047 1100 
L 3047 0 
L 2419 0 
L 2419 1100 
L 313 1100 
L 313 1709 
L 2253 4666 
z
" transform="scale(0.015625)"/>
       </defs>
       <use xlink:href="#DejaVuSans-32"/>
       <use xlink:href="#DejaVuSans-36" x="63.623047"/>
       <use xlink:href="#DejaVuSans-2e" x="127.246094"/>
       <use xlink:href="#DejaVuSans-30" x="159.033203"/>
       <use xlink:href="#DejaVuSans-34" x="222.65625"/>
       <use xlink:href="#DejaVuSans-2e" x="286.279297"/>
       <use xlink:href="#DejaVuSans-32" x="318.066406"/>
       <use xlink:href="#DejaVuSans-30" x="381.689453"/>
       <use xlink:href="#DejaVuSans-32" x="445.3125"/>
       <use xlink:href="#DejaVuSans-30" x="508.935547"/>
      </g>
     </g>
    </g>
    <g id="xtick_3">
     <g id="line2d_5">
      <path d="M 132.678111 276.48 
L 132.678111 41.472 
" clip-path="url(#p3b88869ab2)" style="fill: none; stroke-dasharray: 2.96,1.28; stroke-dashoffset: 0; stroke: #808080; stroke-width: 0.8"/>
     </g>
     <g id="line2d_6">
      <g>
       <use xlink:href="#m2053fe3343" x="132.678111" y="276.48" style="stroke: #000000; stroke-width: 0.8"/>
      </g>
     </g>
     <g id="text_3">
      <!-- 21.07.2020 -->
      <g transform="translate(82.052901 318.688565)rotate(-30)scale(0.1 -0.1)">
       <defs>
        <path id="DejaVuSans-37" d="M 525 4666 
L 3525 4666 
L 3525 4397 
L 1831 0 
L 1172 0 
L 2766 4134 
L 525 4134 
L 525 4666 
z
" transform="scale(0.015625)"/>
       </defs>
       <use xlink:href="#DejaVuSans-32"/>
       <use xlink:href="#DejaVuSans-31" x="63.623047"/>
       <use xlink:href="#DejaVuSans-2e" x="127.246094"/>
       <use xlink:href="#DejaVuSans-30" x="159.033203"/>
       <use xlink:href="#DejaVuSans-37" x="222.65625"/>
       <use xlink:href="#DejaVuSans-2e" x="286.279297"/>
       <use xlink:href="#DejaVuSans-32" x="318.066406"/>
       <use xlink:href="#DejaVuSans-30" x="381.689453"/>
       <use xlink:href="#DejaVuSans-32" x="445.3125"/>
       <use xlink:href="#DejaVuSans-30" x="508.935547"/>
      </g>
     </g>
    </g>
    <g id="xtick_4">
     <g id="line2d_7">
      <path d="M 168.750839 276.48 
L 168.750839 41.472 
" clip-path="url(#p3b88869ab2)" style="fill: none; stroke-dasharray: 2.96,1.28; stroke-dashoffset: 0; stroke: #808080; stroke-width: 0.8"/>
     </g>
     <g id="line2d_8">
      <g>
       <use xlink:href="#m2053fe3343" x="168.750839" y="276.48" style="stroke: #000000; stroke-width: 0.8"/>
      </g>
     </g>
     <g id="text_4">
      <!-- 15.10.2020 -->
      <g transform="translate(118.125628 318.688565)rotate(-30)scale(0.1 -0.1)">
       <defs>
        <path id="DejaVuSans-35" d="M 691 4666 
L 3169 4666 
L 3169 4134 
L 1269 4134 
L 1269 2991 
Q 1406 3038 1543 3061 
Q 1681 3084 1819 3084 
Q 2600 3084 3056 2656 
Q 3513 2228 3513 1497 
Q 3513 744 3044 326 
Q 2575 -91 1722 -91 
Q 1428 -91 1123 -41 
Q 819 9 494 109 
L 494 744 
Q 775 591 1075 516 
Q 1375 441 1709 441 
Q 2250 441 2565 725 
Q 2881 1009 2881 1497 
Q 2881 1984 2565 2268 
Q 2250 2553 1709 2553 
Q 1456 2553 1204 2497 
Q 953 2441 691 2322 
L 691 4666 
z
" transform="scale(0.015625)"/>
       </defs>
       <use xlink:href="#DejaVuSans-31"/>
       <use xlink:href="#DejaVuSans-35" x="63.623047"/>
       <use xlink:href="#DejaVuSans-2e" x="127.246094"/>
       <use xlink:href="#DejaVuSans-31" x="159.033203"/>
       <use xlink:href="#DejaVuSans-30" x="222.65625"/>
       <use xlink:href="#DejaVuSans-2e" x="286.279297"/>
       <use xlink:href="#DejaVuSans-32" x="318.066406"/>
       <use xlink:href="#DejaVuSans-30" x="381.689453"/>
       <use xlink:href="#DejaVuSans-32" x="445.3125"/>
       <use xlink:href="#DejaVuSans-30" x="508.935547"/>
      </g>
     </g>
    </g>
    <g id="xtick_5">
     <g id="line2d_9">
      <path d="M 204.823566 276.48 
L 204.823566 41.472 
" clip-path="url(#p3b88869ab2)" style="fill: none; stroke-dasharray: 2.96,1.28; stroke-dashoffset: 0; stroke: #808080; stroke-width: 0.8"/>
     </g>
     <g id="line2d_10">
      <g>
       <use xlink:href="#m2053fe3343" x="204.823566" y="276.48" style="stroke: #000000; stroke-width: 0.8"/>
      </g>
     </g>
     <g id="text_5">
      <!-- 09.01.2021 -->
      <g transform="translate(154.198355 318.688565)rotate(-30)scale(0.1 -0.1)">
       <defs>
        <path id="DejaVuSans-39" d="M 703 97 
L 703 672 
Q 941 559 1184 500 
Q 1428 441 1663 441 
Q 2288 441 2617 861 
Q 2947 1281 2994 2138 
Q 2813 1869 2534 1725 
Q 2256 1581 1919 1581 
Q 1219 1581 811 2004 
Q 403 2428 403 3163 
Q 403 3881 828 4315 
Q 1253 4750 1959 4750 
Q 2769 4750 3195 4129 
Q 3622 3509 3622 2328 
Q 3622 1225 3098 567 
Q 2575 -91 1691 -91 
Q 1453 -91 1209 -44 
Q 966 3 703 97 
z
M 1959 2075 
Q 2384 2075 2632 2365 
Q 2881 2656 2881 3163 
Q 2881 3666 2632 3958 
Q 2384 4250 1959 4250 
Q 1534 4250 1286 3958 
Q 1038 3666 1038 3163 
Q 1038 2656 1286 2365 
Q 1534 2075 1959 2075 
z
" transform="scale(0.015625)"/>
       </defs>
       <use xlink:href="#DejaVuSans-30"/>
       <use xlink:href="#DejaVuSans-39" x="63.623047"/>
       <use xlink:href="#DejaVuSans-2e" x="127.246094"/>
       <use xlink:href="#DejaVuSans-30" x="159.033203"/>
       <use xlink:href="#DejaVuSans-31" x="222.65625"/>
       <use xlink:href="#DejaVuSans-2e" x="286.279297"/>
       <use xlink:href="#DejaVuSans-32" x="318.066406"/>
       <use xlink:href="#DejaVuSans-30" x="381.689453"/>
       <use xlink:href="#DejaVuSans-32" x="445.3125"/>
       <use xlink:href="#DejaVuSans-31" x="508.935547"/>
      </g>
     </g>
    </g>
    <g id="xtick_6">
     <g id="line2d_11">
      <path d="M 240.896293 276.48 
L 240.896293 41.472 
" clip-path="url(#p3b88869ab2)" style="fill: none; stroke-dasharray: 2.96,1.28; stroke-dashoffset: 0; stroke: #808080; stroke-width: 0.8"/>
     </g>
     <g id="line2d_12">
      <g>
       <use xlink:href="#m2053fe3343" x="240.896293" y="276.48" style="stroke: #000000; stroke-width: 0.8"/>
      </g>
     </g>
     <g id="text_6">
      <!-- 05.04.2021 -->
      <g transform="translate(190.271082 318.688565)rotate(-30)scale(0.1 -0.1)">
       <use xlink:href="#DejaVuSans-30"/>
       <use xlink:href="#DejaVuSans-35" x="63.623047"/>
       <use xlink:href="#DejaVuSans-2e" x="127.246094"/>
       <use xlink:href="#DejaVuSans-30" x="159.033203"/>
       <use xlink:href="#DejaVuSans-34" x="222.65625"/>
       <use xlink:href="#DejaVuSans-2e" x="286.279297"/>
       <use xlink:href="#DejaVuSans-32" x="318.066406"/>
       <use xlink:href="#DejaVuSans-30" x="381.689453"/>
       <use xlink:href="#DejaVuSans-32" x="445.3125"/>
       <use xlink:href="#DejaVuSans-31" x="508.935547"/>
      </g>
     </g>
    </g>
    <g id="xtick_7">
     <g id="line2d_13">
      <path d="M 276.96902 276.48 
L 276.96902 41.472 
" clip-path="url(#p3b88869ab2)" style="fill: none; stroke-dasharray: 2.96,1.28; stroke-dashoffset: 0; stroke: #808080; stroke-width: 0.8"/>
     </g>
     <g id="line2d_14">
      <g>
       <use xlink:href="#m2053fe3343" x="276.96902" y="276.48" style="stroke: #000000; stroke-width: 0.8"/>
      </g>
     </g>
     <g id="text_7">
      <!-- 30.06.2021 -->
      <g transform="translate(226.34381 318.688565)rotate(-30)scale(0.1 -0.1)">
       <use xlink:href="#DejaVuSans-33"/>
       <use xlink:href="#DejaVuSans-30" x="63.623047"/>
       <use xlink:href="#DejaVuSans-2e" x="127.246094"/>
       <use xlink:href="#DejaVuSans-30" x="159.033203"/>
       <use xlink:href="#DejaVuSans-36" x="222.65625"/>
       <use xlink:href="#DejaVuSans-2e" x="286.279297"/>
       <use xlink:href="#DejaVuSans-32" x="318.066406"/>
       <use xlink:href="#DejaVuSans-30" x="381.689453"/>
       <use xlink:href="#DejaVuSans-32" x="445.3125"/>
       <use xlink:href="#DejaVuSans-31" x="508.935547"/>
      </g>
     </g>
    </g>
    <g id="xtick_8">
     <g id="line2d_15">
      <path d="M 313.041748 276.48 
L 313.041748 41.472 
" clip-path="url(#p3b88869ab2)" style="fill: none; stroke-dasharray: 2.96,1.28; stroke-dashoffset: 0; stroke: #808080; stroke-width: 0.8"/>
     </g>
     <g id="line2d_16">
      <g>
       <use xlink:href="#m2053fe3343" x="313.041748" y="276.48" style="stroke: #000000; stroke-width: 0.8"/>
      </g>
     </g>
     <g id="text_8">
      <!-- 24.09.2021 -->
      <g transform="translate(262.416537 318.688565)rotate(-30)scale(0.1 -0.1)">
       <use xlink:href="#DejaVuSans-32"/>
       <use xlink:href="#DejaVuSans-34" x="63.623047"/>
       <use xlink:href="#DejaVuSans-2e" x="127.246094"/>
       <use xlink:href="#DejaVuSans-30" x="159.033203"/>
       <use xlink:href="#DejaVuSans-39" x="222.65625"/>
       <use xlink:href="#DejaVuSans-2e" x="286.279297"/>
       <use xlink:href="#DejaVuSans-32" x="318.066406"/>
       <use xlink:href="#DejaVuSans-30" x="381.689453"/>
       <use xlink:href="#DejaVuSans-32" x="445.3125"/>
       <use xlink:href="#DejaVuSans-31" x="508.935547"/>
      </g>
     </g>
    </g>
    <g id="xtick_9">
     <g id="line2d_17">
      <path d="M 349.114475 276.48 
L 349.114475 41.472 
" clip-path="url(#p3b88869ab2)" style="fill: none; stroke-dasharray: 2.96,1.28; stroke-dashoffset: 0; stroke: #808080; stroke-width: 0.8"/>
     </g>
     <g id="line2d_18">
      <g>
       <use xlink:href="#m2053fe3343" x="349.114475" y="276.48" style="stroke: #000000; stroke-width: 0.8"/>
      </g>
     </g>
     <g id="text_9">
      <!-- 19.12.2021 -->
      <g transform="translate(298.489264 318.688565)rotate(-30)scale(0.1 -0.1)">
       <use xlink:href="#DejaVuSans-31"/>
       <use xlink:href="#DejaVuSans-39" x="63.623047"/>
       <use xlink:href="#DejaVuSans-2e" x="127.246094"/>
       <use xlink:href="#DejaVuSans-31" x="159.033203"/>
       <use xlink:href="#DejaVuSans-32" x="222.65625"/>
       <use xlink:href="#DejaVuSans-2e" x="286.279297"/>
       <use xlink:href="#DejaVuSans-32" x="318.066406"/>
       <use xlink:href="#DejaVuSans-30" x="381.689453"/>
       <use xlink:href="#DejaVuSans-32" x="445.3125"/>
       <use xlink:href="#DejaVuSans-31" x="508.935547"/>
      </g>
     </g>
    </g>
    <g id="xtick_10">
     <g id="line2d_19">
      <path d="M 385.187202 276.48 
L 385.187202 41.472 
" clip-path="url(#p3b88869ab2)" style="fill: none; stroke-dasharray: 2.96,1.28; stroke-dashoffset: 0; stroke: #808080; stroke-width: 0.8"/>
     </g>
     <g id="line2d_20">
      <g>
       <use xlink:href="#m2053fe3343" x="385.187202" y="276.48" style="stroke: #000000; stroke-width: 0.8"/>
      </g>
     </g>
     <g id="text_10">
      <!-- 15.03.2022 -->
      <g transform="translate(334.561991 318.688565)rotate(-30)scale(0.1 -0.1)">
       <use xlink:href="#DejaVuSans-31"/>
       <use xlink:href="#DejaVuSans-35" x="63.623047"/>
       <use xlink:href="#DejaVuSans-2e" x="127.246094"/>
       <use xlink:href="#DejaVuSans-30" x="159.033203"/>
       <use xlink:href="#DejaVuSans-33" x="222.65625"/>
       <use xlink:href="#DejaVuSans-2e" x="286.279297"/>
       <use xlink:href="#DejaVuSans-32" x="318.066406"/>
       <use xlink:href="#DejaVuSans-30" x="381.689453"/>
       <use xlink:href="#DejaVuSans-32" x="445.3125"/>
       <use xlink:href="#DejaVuSans-32" x="508.935547"/>
      </g>
     </g>
    </g>
   </g>
   <g id="matplotlib.axis_2">
    <g id="ytick_1">
     <g id="line2d_21">
      <path d="M 57.6 265.797818 
L 414.72 265.797818 
" clip-path="url(#p3b88869ab2)" style="fill: none; stroke-dasharray: 2.96,1.28; stroke-dashoffset: 0; stroke: #808080; stroke-width: 0.8"/>
     </g>
     <g id="line2d_22">
      <defs>
       <path id="mb20108a370" d="M 0 0 
L -3.5 0 
" style="stroke: #000000; stroke-width: 0.8"/>
      </defs>
      <g>
       <use xlink:href="#mb20108a370" x="57.6" y="265.797818" style="stroke: #000000; stroke-width: 0.8"/>
      </g>
     </g>
     <g id="text_11">
      <!-- 0 -->
      <g transform="translate(44.2375 269.597037)scale(0.1 -0.1)">
       <use xlink:href="#DejaVuSans-30"/>
      </g>
     </g>
    </g>
    <g id="ytick_2">
     <g id="line2d_23">
      <path d="M 57.6 228.452797 
L 414.72 228.452797 
" clip-path="url(#p3b88869ab2)" style="fill: none; stroke-dasharray: 2.96,1.28; stroke-dashoffset: 0; stroke: #808080; stroke-width: 0.8"/>
     </g>
     <g id="line2d_24">
      <g>
       <use xlink:href="#mb20108a370" x="57.6" y="228.452797" style="stroke: #000000; stroke-width: 0.8"/>
      </g>
     </g>
     <g id="text_12">
      <!-- 200 -->
      <g transform="translate(31.5125 232.252015)scale(0.1 -0.1)">
       <use xlink:href="#DejaVuSans-32"/>
       <use xlink:href="#DejaVuSans-30" x="63.623047"/>
       <use xlink:href="#DejaVuSans-30" x="127.246094"/>
      </g>
     </g>
    </g>
    <g id="ytick_3">
     <g id="line2d_25">
      <path d="M 57.6 191.107775 
L 414.72 191.107775 
" clip-path="url(#p3b88869ab2)" style="fill: none; stroke-dasharray: 2.96,1.28; stroke-dashoffset: 0; stroke: #808080; stroke-width: 0.8"/>
     </g>
     <g id="line2d_26">
      <g>
       <use xlink:href="#mb20108a370" x="57.6" y="191.107775" style="stroke: #000000; stroke-width: 0.8"/>
      </g>
     </g>
     <g id="text_13">
      <!-- 400 -->
      <g transform="translate(31.5125 194.906994)scale(0.1 -0.1)">
       <use xlink:href="#DejaVuSans-34"/>
       <use xlink:href="#DejaVuSans-30" x="63.623047"/>
       <use xlink:href="#DejaVuSans-30" x="127.246094"/>
      </g>
     </g>
    </g>
    <g id="ytick_4">
     <g id="line2d_27">
      <path d="M 57.6 153.762753 
L 414.72 153.762753 
" clip-path="url(#p3b88869ab2)" style="fill: none; stroke-dasharray: 2.96,1.28; stroke-dashoffset: 0; stroke: #808080; stroke-width: 0.8"/>
     </g>
     <g id="line2d_28">
      <g>
       <use xlink:href="#mb20108a370" x="57.6" y="153.762753" style="stroke: #000000; stroke-width: 0.8"/>
      </g>
     </g>
     <g id="text_14">
      <!-- 600 -->
      <g transform="translate(31.5125 157.561972)scale(0.1 -0.1)">
       <use xlink:href="#DejaVuSans-36"/>
       <use xlink:href="#DejaVuSans-30" x="63.623047"/>
       <use xlink:href="#DejaVuSans-30" x="127.246094"/>
      </g>
     </g>
    </g>
    <g id="ytick_5">
     <g id="line2d_29">
      <path d="M 57.6 116.417732 
L 414.72 116.417732 
" clip-path="url(#p3b88869ab2)" style="fill: none; stroke-dasharray: 2.96,1.28; stroke-dashoffset: 0; stroke: #808080; stroke-width: 0.8"/>
     </g>
     <g id="line2d_30">
      <g>
       <use xlink:href="#mb20108a370" x="57.6" y="116.417732" style="stroke: #000000; stroke-width: 0.8"/>
      </g>
     </g>
     <g id="text_15">
      <!-- 800 -->
      <g transform="translate(31.5125 120.21695)scale(0.1 -0.1)">
       <defs>
        <path id="DejaVuSans-38" d="M 2034 2216 
Q 1584 2216 1326 1975 
Q 1069 1734 1069 1313 
Q 1069 891 1326 650 
Q 1584 409 2034 409 
Q 2484 409 2743 651 
Q 3003 894 3003 1313 
Q 3003 1734 2745 1975 
Q 2488 2216 2034 2216 
z
M 1403 2484 
Q 997 2584 770 2862 
Q 544 3141 544 3541 
Q 544 4100 942 4425 
Q 1341 4750 2034 4750 
Q 2731 4750 3128 4425 
Q 3525 4100 3525 3541 
Q 3525 3141 3298 2862 
Q 3072 2584 2669 2484 
Q 3125 2378 3379 2068 
Q 3634 1759 3634 1313 
Q 3634 634 3220 271 
Q 2806 -91 2034 -91 
Q 1263 -91 848 271 
Q 434 634 434 1313 
Q 434 1759 690 2068 
Q 947 2378 1403 2484 
z
M 1172 3481 
Q 1172 3119 1398 2916 
Q 1625 2713 2034 2713 
Q 2441 2713 2670 2916 
Q 2900 3119 2900 3481 
Q 2900 3844 2670 4047 
Q 2441 4250 2034 4250 
Q 1625 4250 1398 4047 
Q 1172 3844 1172 3481 
z
" transform="scale(0.015625)"/>
       </defs>
       <use xlink:href="#DejaVuSans-38"/>
       <use xlink:href="#DejaVuSans-30" x="63.623047"/>
       <use xlink:href="#DejaVuSans-30" x="127.246094"/>
      </g>
     </g>
    </g>
    <g id="ytick_6">
     <g id="line2d_31">
      <path d="M 57.6 79.07271 
L 414.72 79.07271 
" clip-path="url(#p3b88869ab2)" style="fill: none; stroke-dasharray: 2.96,1.28; stroke-dashoffset: 0; stroke: #808080; stroke-width: 0.8"/>
     </g>
     <g id="line2d_32">
      <g>
       <use xlink:href="#mb20108a370" x="57.6" y="79.07271" style="stroke: #000000; stroke-width: 0.8"/>
      </g>
     </g>
     <g id="text_16">
      <!-- 1000 -->
      <g transform="translate(25.15 82.871929)scale(0.1 -0.1)">
       <use xlink:href="#DejaVuSans-31"/>
       <use xlink:href="#DejaVuSans-30" x="63.623047"/>
       <use xlink:href="#DejaVuSans-30" x="127.246094"/>
       <use xlink:href="#DejaVuSans-30" x="190.869141"/>
      </g>
     </g>
    </g>
    <g id="ytick_7">
     <g id="line2d_33">
      <path d="M 57.6 41.727688 
L 414.72 41.727688 
" clip-path="url(#p3b88869ab2)" style="fill: none; stroke-dasharray: 2.96,1.28; stroke-dashoffset: 0; stroke: #808080; stroke-width: 0.8"/>
     </g>
     <g id="line2d_34">
      <g>
       <use xlink:href="#mb20108a370" x="57.6" y="41.727688" style="stroke: #000000; stroke-width: 0.8"/>
      </g>
     </g>
     <g id="text_17">
      <!-- 1200 -->
      <g transform="translate(25.15 45.526907)scale(0.1 -0.1)">
       <use xlink:href="#DejaVuSans-31"/>
       <use xlink:href="#DejaVuSans-32" x="63.623047"/>
       <use xlink:href="#DejaVuSans-30" x="127.246094"/>
       <use xlink:href="#DejaVuSans-30" x="190.869141"/>
      </g>
     </g>
    </g>
    <g id="text_18">
     <!-- Inzidenz pro 7 Tage pro 100.000 Einwohner -->
     <g transform="translate(19.070312 267.301)rotate(-90)scale(0.1 -0.1)">
      <defs>
       <path id="DejaVuSans-49" d="M 628 4666 
L 1259 4666 
L 1259 0 
L 628 0 
L 628 4666 
z
" transform="scale(0.015625)"/>
       <path id="DejaVuSans-6e" d="M 3513 2113 
L 3513 0 
L 2938 0 
L 2938 2094 
Q 2938 2591 2744 2837 
Q 2550 3084 2163 3084 
Q 1697 3084 1428 2787 
Q 1159 2491 1159 1978 
L 1159 0 
L 581 0 
L 581 3500 
L 1159 3500 
L 1159 2956 
Q 1366 3272 1645 3428 
Q 1925 3584 2291 3584 
Q 2894 3584 3203 3211 
Q 3513 2838 3513 2113 
z
" transform="scale(0.015625)"/>
       <path id="DejaVuSans-7a" d="M 353 3500 
L 3084 3500 
L 3084 2975 
L 922 459 
L 3084 459 
L 3084 0 
L 275 0 
L 275 525 
L 2438 3041 
L 353 3041 
L 353 3500 
z
" transform="scale(0.015625)"/>
       <path id="DejaVuSans-69" d="M 603 3500 
L 1178 3500 
L 1178 0 
L 603 0 
L 603 3500 
z
M 603 4863 
L 1178 4863 
L 1178 4134 
L 603 4134 
L 603 4863 
z
" transform="scale(0.015625)"/>
       <path id="DejaVuSans-64" d="M 2906 2969 
L 2906 4863 
L 3481 4863 
L 3481 0 
L 2906 0 
L 2906 525 
Q 2725 213 2448 61 
Q 2172 -91 1784 -91 
Q 1150 -91 751 415 
Q 353 922 353 1747 
Q 353 2572 751 3078 
Q 1150 3584 1784 3584 
Q 2172 3584 2448 3432 
Q 2725 3281 2906 2969 
z
M 947 1747 
Q 947 1113 1208 752 
Q 1469 391 1925 391 
Q 2381 391 2643 752 
Q 2906 1113 2906 1747 
Q 2906 2381 2643 2742 
Q 2381 3103 1925 3103 
Q 1469 3103 1208 2742 
Q 947 2381 947 1747 
z
" transform="scale(0.015625)"/>
       <path id="DejaVuSans-65" d="M 3597 1894 
L 3597 1613 
L 953 1613 
Q 991 1019 1311 708 
Q 1631 397 2203 397 
Q 2534 397 2845 478 
Q 3156 559 3463 722 
L 3463 178 
Q 3153 47 2828 -22 
Q 2503 -91 2169 -91 
Q 1331 -91 842 396 
Q 353 884 353 1716 
Q 353 2575 817 3079 
Q 1281 3584 2069 3584 
Q 2775 3584 3186 3129 
Q 3597 2675 3597 1894 
z
M 3022 2063 
Q 3016 2534 2758 2815 
Q 2500 3097 2075 3097 
Q 1594 3097 1305 2825 
Q 1016 2553 972 2059 
L 3022 2063 
z
" transform="scale(0.015625)"/>
       <path id="DejaVuSans-20" transform="scale(0.015625)"/>
       <path id="DejaVuSans-70" d="M 1159 525 
L 1159 -1331 
L 581 -1331 
L 581 3500 
L 1159 3500 
L 1159 2969 
Q 1341 3281 1617 3432 
Q 1894 3584 2278 3584 
Q 2916 3584 3314 3078 
Q 3713 2572 3713 1747 
Q 3713 922 3314 415 
Q 2916 -91 2278 -91 
Q 1894 -91 1617 61 
Q 1341 213 1159 525 
z
M 3116 1747 
Q 3116 2381 2855 2742 
Q 2594 3103 2138 3103 
Q 1681 3103 1420 2742 
Q 1159 2381 1159 1747 
Q 1159 1113 1420 752 
Q 1681 391 2138 391 
Q 2594 391 2855 752 
Q 3116 1113 3116 1747 
z
" transform="scale(0.015625)"/>
       <path id="DejaVuSans-72" d="M 2631 2963 
Q 2534 3019 2420 3045 
Q 2306 3072 2169 3072 
Q 1681 3072 1420 2755 
Q 1159 2438 1159 1844 
L 1159 0 
L 581 0 
L 581 3500 
L 1159 3500 
L 1159 2956 
Q 1341 3275 1631 3429 
Q 1922 3584 2338 3584 
Q 2397 3584 2469 3576 
Q 2541 3569 2628 3553 
L 2631 2963 
z
" transform="scale(0.015625)"/>
       <path id="DejaVuSans-6f" d="M 1959 3097 
Q 1497 3097 1228 2736 
Q 959 2375 959 1747 
Q 959 1119 1226 758 
Q 1494 397 1959 397 
Q 2419 397 2687 759 
Q 2956 1122 2956 1747 
Q 2956 2369 2687 2733 
Q 2419 3097 1959 3097 
z
M 1959 3584 
Q 2709 3584 3137 3096 
Q 3566 2609 3566 1747 
Q 3566 888 3137 398 
Q 2709 -91 1959 -91 
Q 1206 -91 779 398 
Q 353 888 353 1747 
Q 353 2609 779 3096 
Q 1206 3584 1959 3584 
z
" transform="scale(0.015625)"/>
       <path id="DejaVuSans-54" d="M -19 4666 
L 3928 4666 
L 3928 4134 
L 2272 4134 
L 2272 0 
L 1638 0 
L 1638 4134 
L -19 4134 
L -19 4666 
z
" transform="scale(0.015625)"/>
       <path id="DejaVuSans-61" d="M 2194 1759 
Q 1497 1759 1228 1600 
Q 959 1441 959 1056 
Q 959 750 1161 570 
Q 1363 391 1709 391 
Q 2188 391 2477 730 
Q 2766 1069 2766 1631 
L 2766 1759 
L 2194 1759 
z
M 3341 1997 
L 3341 0 
L 2766 0 
L 2766 531 
Q 2569 213 2275 61 
Q 1981 -91 1556 -91 
Q 1019 -91 701 211 
Q 384 513 384 1019 
Q 384 1609 779 1909 
Q 1175 2209 1959 2209 
L 2766 2209 
L 2766 2266 
Q 2766 2663 2505 2880 
Q 2244 3097 1772 3097 
Q 1472 3097 1187 3025 
Q 903 2953 641 2809 
L 641 3341 
Q 956 3463 1253 3523 
Q 1550 3584 1831 3584 
Q 2591 3584 2966 3190 
Q 3341 2797 3341 1997 
z
" transform="scale(0.015625)"/>
       <path id="DejaVuSans-67" d="M 2906 1791 
Q 2906 2416 2648 2759 
Q 2391 3103 1925 3103 
Q 1463 3103 1205 2759 
Q 947 2416 947 1791 
Q 947 1169 1205 825 
Q 1463 481 1925 481 
Q 2391 481 2648 825 
Q 2906 1169 2906 1791 
z
M 3481 434 
Q 3481 -459 3084 -895 
Q 2688 -1331 1869 -1331 
Q 1566 -1331 1297 -1286 
Q 1028 -1241 775 -1147 
L 775 -588 
Q 1028 -725 1275 -790 
Q 1522 -856 1778 -856 
Q 2344 -856 2625 -561 
Q 2906 -266 2906 331 
L 2906 616 
Q 2728 306 2450 153 
Q 2172 0 1784 0 
Q 1141 0 747 490 
Q 353 981 353 1791 
Q 353 2603 747 3093 
Q 1141 3584 1784 3584 
Q 2172 3584 2450 3431 
Q 2728 3278 2906 2969 
L 2906 3500 
L 3481 3500 
L 3481 434 
z
" transform="scale(0.015625)"/>
       <path id="DejaVuSans-45" d="M 628 4666 
L 3578 4666 
L 3578 4134 
L 1259 4134 
L 1259 2753 
L 3481 2753 
L 3481 2222 
L 1259 2222 
L 1259 531 
L 3634 531 
L 3634 0 
L 628 0 
L 628 4666 
z
" transform="scale(0.015625)"/>
       <path id="DejaVuSans-77" d="M 269 3500 
L 844 3500 
L 1563 769 
L 2278 3500 
L 2956 3500 
L 3675 769 
L 4391 3500 
L 4966 3500 
L 4050 0 
L 3372 0 
L 2619 2869 
L 1863 0 
L 1184 0 
L 269 3500 
z
" transform="scale(0.015625)"/>
       <path id="DejaVuSans-68" d="M 3513 2113 
L 3513 0 
L 2938 0 
L 2938 2094 
Q 2938 2591 2744 2837 
Q 2550 3084 2163 3084 
Q 1697 3084 1428 2787 
Q 1159 2491 1159 1978 
L 1159 0 
L 581 0 
L 581 4863 
L 1159 4863 
L 1159 2956 
Q 1366 3272 1645 3428 
Q 1925 3584 2291 3584 
Q 2894 3584 3203 3211 
Q 3513 2838 3513 2113 
z
" transform="scale(0.015625)"/>
      </defs>
      <use xlink:href="#DejaVuSans-49"/>
      <use xlink:href="#DejaVuSans-6e" x="29.492188"/>
      <use xlink:href="#DejaVuSans-7a" x="92.871094"/>
      <use xlink:href="#DejaVuSans-69" x="145.361328"/>
      <use xlink:href="#DejaVuSans-64" x="173.144531"/>
      <use xlink:href="#DejaVuSans-65" x="236.621094"/>
      <use xlink:href="#DejaVuSans-6e" x="298.144531"/>
      <use xlink:href="#DejaVuSans-7a" x="361.523438"/>
      <use xlink:href="#DejaVuSans-20" x="414.013672"/>
      <use xlink:href="#DejaVuSans-70" x="445.800781"/>
      <use xlink:href="#DejaVuSans-72" x="509.277344"/>
      <use xlink:href="#DejaVuSans-6f" x="548.140625"/>
      <use xlink:href="#DejaVuSans-20" x="609.322266"/>
      <use xlink:href="#DejaVuSans-37" x="641.109375"/>
      <use xlink:href="#DejaVuSans-20" x="704.732422"/>
      <use xlink:href="#DejaVuSans-54" x="736.519531"/>
      <use xlink:href="#DejaVuSans-61" x="781.103516"/>
      <use xlink:href="#DejaVuSans-67" x="842.382812"/>
      <use xlink:href="#DejaVuSans-65" x="905.859375"/>
      <use xlink:href="#DejaVuSans-20" x="967.382812"/>
      <use xlink:href="#DejaVuSans-70" x="999.169922"/>
      <use xlink:href="#DejaVuSans-72" x="1062.646484"/>
      <use xlink:href="#DejaVuSans-6f" x="1101.509766"/>
      <use xlink:href="#DejaVuSans-20" x="1162.691406"/>
      <use xlink:href="#DejaVuSans-31" x="1194.478516"/>
      <use xlink:href="#DejaVuSans-30" x="1258.101562"/>
      <use xlink:href="#DejaVuSans-30" x="1321.724609"/>
      <use xlink:href="#DejaVuSans-2e" x="1385.347656"/>
      <use xlink:href="#DejaVuSans-30" x="1417.134766"/>
      <use xlink:href="#DejaVuSans-30" x="1480.757812"/>
      <use xlink:href="#DejaVuSans-30" x="1544.380859"/>
      <use xlink:href="#DejaVuSans-20" x="1608.003906"/>
      <use xlink:href="#DejaVuSans-45" x="1639.791016"/>
      <use xlink:href="#DejaVuSans-69" x="1702.974609"/>
      <use xlink:href="#DejaVuSans-6e" x="1730.757812"/>
      <use xlink:href="#DejaVuSans-77" x="1794.136719"/>
      <use xlink:href="#DejaVuSans-6f" x="1875.923828"/>
      <use xlink:href="#DejaVuSans-68" x="1937.105469"/>
      <use xlink:href="#DejaVuSans-6e" x="2000.484375"/>
      <use xlink:href="#DejaVuSans-65" x="2063.863281"/>
      <use xlink:href="#DejaVuSans-72" x="2125.386719"/>
     </g>
    </g>
   </g>
   <g id="line2d_35">
    <path d="M 73.832727 265.797818 
L 78.02723 265.797818 
L 78.446681 265.51277 
L 78.866131 265.370246 
L 80.543932 265.370246 
L 81.382833 264.372577 
L 81.802283 264.515101 
L 82.221734 264.515101 
L 82.641184 263.517432 
L 83.060634 263.374908 
L 83.480085 262.947336 
L 83.899535 262.804812 
L 84.318985 262.37724 
L 85.157886 262.37724 
L 85.577336 262.804812 
L 85.996786 262.519764 
L 86.416237 261.949667 
L 86.835687 262.37724 
L 87.255137 263.374908 
L 87.674588 263.232384 
L 88.094038 263.232384 
L 88.932939 262.662288 
L 89.352389 263.08986 
L 89.771839 263.08986 
L 90.19129 262.947336 
L 90.61074 263.08986 
L 91.03019 263.08986 
L 91.869091 264.657625 
L 92.288541 264.942674 
L 93.127442 265.227722 
L 93.546892 265.227722 
L 93.966342 264.942674 
L 95.224693 264.942674 
L 95.644144 265.085198 
L 96.483044 265.085198 
L 96.902495 265.370246 
L 97.741395 265.370246 
L 98.160846 265.655294 
L 98.580296 265.370246 
L 98.999746 265.51277 
L 99.419197 265.51277 
L 99.838647 258.671613 
L 100.258097 258.671613 
L 100.677548 254.538414 
L 101.096998 254.253366 
L 101.516448 254.538414 
L 102.355349 254.538414 
L 102.774799 261.094523 
L 103.194249 261.094523 
L 103.6137 265.085198 
L 104.03315 264.800149 
L 104.4526 264.657625 
L 105.291501 264.657625 
L 105.710951 264.942674 
L 106.130402 264.942674 
L 107.388753 265.370246 
L 109.066554 265.370246 
L 109.486004 265.227722 
L 109.905455 265.655294 
L 110.324905 265.227722 
L 112.002706 265.227722 
L 112.422156 265.370246 
L 112.841607 265.370246 
L 113.261057 265.797818 
L 114.519408 265.797818 
L 114.938858 265.655294 
L 115.777759 265.655294 
L 116.197209 265.51277 
L 118.713911 265.51277 
L 119.133362 265.655294 
L 119.552812 265.51277 
L 120.391712 265.51277 
L 120.811163 265.655294 
L 122.069514 265.655294 
L 122.488964 265.797818 
L 123.327865 265.797818 
L 123.747315 265.655294 
L 125.844567 265.655294 
L 126.264017 264.942674 
L 126.683467 265.085198 
L 128.780719 265.085198 
L 129.200169 265.797818 
L 129.619619 265.655294 
L 132.136321 265.655294 
L 132.555772 265.797818 
L 138.428076 265.797818 
L 138.847526 265.655294 
L 141.783679 265.655294 
L 142.203129 265.227722 
L 142.622579 265.085198 
L 144.300381 265.085198 
L 144.719831 265.227722 
L 145.139281 265.51277 
L 145.558732 265.655294 
L 145.978182 265.51277 
L 146.817082 265.51277 
L 147.236533 265.370246 
L 148.494884 265.370246 
L 148.914334 265.51277 
L 150.592135 265.51277 
L 151.011586 265.655294 
L 151.431036 265.655294 
L 151.850486 265.51277 
L 152.689387 265.51277 
L 153.108837 265.655294 
L 156.88389 265.655294 
L 157.30334 265.370246 
L 157.722791 265.51277 
L 158.561691 265.51277 
L 158.981142 265.227722 
L 159.400592 265.085198 
L 159.820042 264.800149 
L 161.497844 264.800149 
L 162.336744 263.802481 
L 162.756195 263.374908 
L 163.175645 263.517432 
L 164.433996 263.517432 
L 164.853446 263.659957 
L 165.692347 264.515101 
L 166.111797 264.230053 
L 167.370148 264.230053 
L 167.789598 264.657625 
L 168.209049 264.372577 
L 169.4674 263.945005 
L 170.3063 263.945005 
L 170.725751 263.659957 
L 171.145201 264.087529 
L 171.564651 264.230053 
L 171.984101 264.230053 
L 172.403552 263.802481 
L 172.823002 263.802481 
L 173.242452 263.659957 
L 173.661903 263.232384 
L 174.081353 261.949667 
L 174.500803 261.379571 
L 174.920254 261.807143 
L 175.339704 261.664619 
L 175.759154 261.094523 
L 176.178605 261.237047 
L 177.017505 262.234716 
L 177.436956 262.37724 
L 177.856406 261.664619 
L 178.695307 261.379571 
L 179.114757 261.094523 
L 179.534207 260.381902 
L 179.953658 260.524426 
L 180.373108 259.811806 
L 181.212008 260.096854 
L 181.631459 260.809474 
L 182.050909 260.381902 
L 182.470359 261.522095 
L 182.88981 260.951999 
L 183.30926 260.951999 
L 183.72871 261.379571 
L 184.148161 261.237047 
L 184.567611 260.239378 
L 184.987061 260.524426 
L 185.406512 259.811806 
L 185.825962 260.096854 
L 186.245412 261.094523 
L 186.664863 260.524426 
L 187.084313 260.381902 
L 188.762114 262.092191 
L 189.181564 261.522095 
L 189.601015 261.807143 
L 190.020465 262.234716 
L 190.439915 262.092191 
L 190.859366 261.807143 
L 191.278816 261.664619 
L 192.117717 260.096854 
L 192.537167 257.388896 
L 192.956617 256.106179 
L 193.376068 254.39589 
L 193.795518 253.825793 
L 194.214968 252.970649 
L 194.634419 245.559395 
L 195.053869 243.421533 
L 195.473319 244.419202 
L 195.89277 243.706582 
L 196.31222 242.708913 
L 196.73167 242.281341 
L 197.151121 242.993961 
L 197.570571 248.837449 
L 197.990021 248.837449 
L 198.409471 248.694925 
L 198.828922 250.120166 
L 199.248372 252.400552 
L 200.087273 251.830456 
L 200.506723 253.255697 
L 200.926173 253.255697 
L 201.345624 255.393558 
L 201.765074 255.251034 
L 202.184524 254.965986 
L 202.603975 255.963655 
L 203.023425 256.106179 
L 203.442875 256.676275 
L 203.862326 258.529089 
L 205.120677 254.680938 
L 205.540127 255.10851 
L 205.959577 254.680938 
L 206.379027 252.6856 
L 206.798478 251.402883 
L 207.217928 250.690263 
L 208.056829 252.6856 
L 208.476279 252.543076 
L 208.895729 252.970649 
L 209.31518 252.115504 
L 209.73463 253.968317 
L 210.15408 254.39589 
L 210.573531 254.110841 
L 210.992981 254.538414 
L 211.412431 254.538414 
L 211.831882 254.680938 
L 212.251332 256.818799 
L 212.670782 256.533751 
L 213.090233 256.818799 
L 213.509683 258.101516 
L 213.929133 258.814137 
L 214.348584 257.816468 
L 214.768034 257.673944 
L 215.187484 257.388896 
L 215.606934 256.391227 
L 216.026385 256.818799 
L 216.865285 255.821131 
L 217.284736 257.103848 
L 217.704186 257.246372 
L 218.123636 255.821131 
L 218.543087 257.388896 
L 218.962537 258.386565 
L 219.381987 258.529089 
L 219.801438 258.956661 
L 220.220888 258.814137 
L 220.640338 259.384233 
L 221.059789 261.237047 
L 221.479239 261.379571 
L 221.898689 260.66695 
L 222.31814 260.524426 
L 222.73759 260.66695 
L 223.15704 260.381902 
L 223.57649 258.956661 
L 224.834841 258.101516 
L 225.254292 257.388896 
L 225.673742 257.816468 
L 226.093192 257.958992 
L 226.512643 259.526757 
L 227.770994 262.092191 
L 228.190444 263.232384 
L 228.609894 263.232384 
L 229.029345 263.517432 
L 229.448795 263.232384 
L 229.868245 263.517432 
L 230.287696 261.664619 
L 230.707146 261.379571 
L 231.965497 256.533751 
L 232.384947 256.676275 
L 232.804397 255.963655 
L 233.223848 256.391227 
L 233.643298 256.391227 
L 234.062748 257.673944 
L 234.482199 257.53142 
L 234.901649 257.958992 
L 235.321099 257.53142 
L 235.74055 257.388896 
L 236.16 255.963655 
L 236.57945 253.683269 
L 236.998901 252.115504 
L 237.418351 251.830456 
L 237.837801 252.6856 
L 238.676702 249.692594 
L 239.096152 248.979974 
L 240.354503 251.687932 
L 240.773953 250.120166 
L 241.193404 250.832787 
L 241.612854 252.6856 
L 242.032304 253.255697 
L 242.451755 251.97298 
L 242.871205 252.115504 
L 243.290655 250.262691 
L 243.710106 250.405215 
L 244.129556 250.405215 
L 244.549006 248.124829 
L 245.387907 249.835118 
L 245.807357 249.692594 
L 246.226808 248.267353 
L 246.646258 249.692594 
L 247.065708 248.694925 
L 247.485159 249.265022 
L 247.904609 248.552401 
L 248.324059 247.269684 
L 248.74351 245.559395 
L 249.16296 247.839781 
L 249.58241 247.839781 
L 250.00186 248.409877 
L 250.840761 250.547739 
L 251.679662 253.398221 
L 252.099112 253.968317 
L 252.518562 253.398221 
L 252.938013 254.823462 
L 253.357463 254.680938 
L 253.776913 254.110841 
L 254.196364 254.680938 
L 254.615814 253.683269 
L 255.035264 254.110841 
L 255.454715 254.965986 
L 255.874165 254.110841 
L 256.293615 255.10851 
L 256.713066 256.676275 
L 257.132516 256.961324 
L 257.551966 259.241709 
L 257.971416 258.956661 
L 258.390867 258.814137 
L 258.810317 260.096854 
L 259.229767 258.529089 
L 259.649218 258.529089 
L 260.068668 259.811806 
L 260.488118 258.671613 
L 260.907569 259.526757 
L 261.327019 259.526757 
L 261.746469 258.671613 
L 262.16592 261.094523 
L 262.58537 261.664619 
L 263.00482 261.807143 
L 263.424271 263.08986 
L 263.843721 263.517432 
L 264.263171 262.804812 
L 264.682622 263.517432 
L 265.102072 263.374908 
L 265.521522 263.517432 
L 265.940973 263.945005 
L 266.779873 264.230053 
L 267.199323 265.085198 
L 267.618774 265.227722 
L 268.038224 265.227722 
L 268.457674 265.370246 
L 268.877125 265.227722 
L 269.296575 265.370246 
L 269.716025 265.370246 
L 270.135476 265.51277 
L 270.554926 265.227722 
L 270.974376 265.370246 
L 273.071628 265.370246 
L 273.491078 265.655294 
L 276.42723 265.655294 
L 276.846681 265.51277 
L 277.266131 265.51277 
L 277.685581 265.655294 
L 278.105032 265.51277 
L 279.363383 265.51277 
L 279.782833 265.655294 
L 280.621734 265.655294 
L 281.041184 265.797818 
L 283.557886 265.797818 
L 283.977336 265.655294 
L 284.396786 265.370246 
L 285.235687 265.370246 
L 286.494038 264.230053 
L 286.913488 264.087529 
L 287.332939 264.372577 
L 288.171839 264.372577 
L 288.59129 263.659957 
L 289.01074 263.232384 
L 289.43019 262.37724 
L 289.849641 261.949667 
L 290.269091 260.809474 
L 291.107992 260.096854 
L 291.527442 260.239378 
L 291.946892 260.096854 
L 292.366342 260.66695 
L 292.785793 260.096854 
L 293.205243 259.811806 
L 293.624693 259.811806 
L 294.044144 259.669282 
L 294.463594 259.95433 
L 294.883044 259.95433 
L 295.721945 258.529089 
L 296.141395 258.386565 
L 296.560846 258.101516 
L 296.980296 258.101516 
L 297.399746 256.676275 
L 297.819197 253.825793 
L 298.238647 253.255697 
L 298.658097 254.110841 
L 299.077548 253.398221 
L 299.496998 253.825793 
L 299.916448 253.255697 
L 300.335899 254.39589 
L 300.755349 256.533751 
L 301.594249 257.246372 
L 302.0137 257.388896 
L 302.43315 256.676275 
L 302.8526 257.53142 
L 303.272051 257.388896 
L 303.691501 256.106179 
L 304.110951 255.678607 
L 304.530402 254.823462 
L 305.369302 255.821131 
L 305.788753 255.821131 
L 306.208203 254.965986 
L 307.047104 258.529089 
L 307.886004 260.096854 
L 308.305455 259.95433 
L 308.724905 259.95433 
L 309.144355 261.237047 
L 309.563805 261.379571 
L 309.983256 260.809474 
L 310.822156 261.522095 
L 311.241607 261.664619 
L 311.661057 261.522095 
L 312.080507 261.664619 
L 312.499958 262.519764 
L 313.338858 263.517432 
L 313.758309 263.517432 
L 314.177759 264.087529 
L 314.597209 263.802481 
L 315.01666 263.659957 
L 315.43611 261.949667 
L 315.85556 261.664619 
L 316.275011 261.522095 
L 316.694461 261.664619 
L 317.113911 261.664619 
L 317.533362 261.237047 
L 317.952812 261.237047 
L 318.372262 261.094523 
L 318.791712 260.66695 
L 319.211163 260.809474 
L 319.630613 260.66695 
L 320.050063 260.66695 
L 320.469514 261.522095 
L 320.888964 261.094523 
L 321.308414 262.234716 
L 321.727865 262.662288 
L 322.147315 262.234716 
L 322.566765 262.37724 
L 322.986216 262.37724 
L 323.405666 261.949667 
L 323.825116 261.237047 
L 324.244567 261.237047 
L 325.083467 259.811806 
L 325.502918 259.526757 
L 325.922368 259.526757 
L 326.341818 259.241709 
L 326.761268 259.384233 
L 327.180719 258.814137 
L 327.600169 258.814137 
L 328.019619 258.956661 
L 328.43907 258.101516 
L 328.85852 258.101516 
L 329.27797 258.671613 
L 329.697421 258.956661 
L 330.116871 258.814137 
L 331.375222 259.95433 
L 331.794672 259.95433 
L 332.633573 257.388896 
L 333.053023 256.818799 
L 333.472474 255.678607 
L 334.311374 251.402883 
L 334.730825 251.402883 
L 335.569725 249.977642 
L 335.989175 245.701919 
L 336.408626 242.566389 
L 336.828076 241.426196 
L 337.247526 240.856099 
L 337.666977 240.856099 
L 338.505877 235.867756 
L 338.925328 235.725232 
L 339.344778 236.7229 
L 339.764228 235.297659 
L 340.183679 236.152804 
L 340.603129 234.442515 
L 341.022579 238.005617 
L 341.44203 239.430858 
L 341.86148 239.430858 
L 342.28093 237.863093 
L 342.700381 239.003286 
L 343.119831 236.7229 
L 343.539281 237.435521 
L 343.958732 237.435521 
L 344.378182 235.297659 
L 344.797632 238.148141 
L 345.217082 238.860762 
L 345.636533 239.288334 
L 346.055983 240.998624 
L 346.475433 239.573382 
L 346.894884 239.288334 
L 347.314334 240.571051 
L 347.733784 237.863093 
L 348.572685 239.858431 
L 349.411586 241.853768 
L 349.831036 241.996292 
L 350.250486 241.56872 
L 350.669937 244.419202 
L 351.089387 243.99163 
L 351.928288 249.55007 
L 352.347738 250.975311 
L 352.767188 243.279009 
L 353.186638 241.996292 
L 353.606089 239.003286 
L 354.025539 234.585039 
L 354.444989 232.732225 
L 354.86444 229.881743 
L 355.28389 229.454171 
L 355.70334 223.040586 
L 356.122791 219.477483 
L 356.542241 217.767194 
L 356.961691 209.64332 
L 357.381142 195.105861 
L 357.800592 189.832469 
L 358.639493 190.830138 
L 359.058943 188.549752 
L 359.478393 183.418884 
L 359.897844 184.274029 
L 360.317294 183.988981 
L 360.736744 188.407228 
L 361.156195 182.991312 
L 361.575645 184.701601 
L 362.414545 174.154817 
L 362.833996 166.030943 
L 363.253446 162.752889 
L 363.672896 161.612696 
L 364.092347 164.605702 
L 364.511797 157.764545 
L 364.931247 158.049593 
L 365.770148 143.939707 
L 366.189598 143.227086 
L 366.609049 140.804176 
L 367.028499 142.371942 
L 367.8674 133.963019 
L 368.28685 133.820495 
L 368.7063 139.949032 
L 369.125751 136.956025 
L 369.545201 134.960688 
L 369.964651 131.255061 
L 370.384101 136.956025 
L 371.223002 121.705946 
L 371.642452 123.558759 
L 372.481353 127.834483 
L 372.900803 125.696621 
L 373.320254 121.278374 
L 373.739704 123.558759 
L 374.159154 119.42556 
L 374.578605 102.607716 
L 374.998055 103.177812 
L 375.417505 104.745577 
L 375.836956 107.596059 
L 376.256406 98.331992 
L 377.095307 107.311011 
L 377.514757 108.736252 
L 377.934207 87.642684 
L 378.353658 85.504823 
L 378.773108 78.80619 
L 379.192558 90.635691 
L 379.612008 72.535129 
L 380.031459 59.707959 
L 380.450909 57.427574 
L 380.870359 74.245418 
L 381.28981 77.665997 
L 381.70926 83.794534 
L 382.12871 70.967364 
L 382.548161 83.366961 
L 382.967611 81.799196 
L 383.387061 82.369292 
L 383.806512 80.516479 
L 384.225962 80.231431 
L 384.645412 81.086576 
L 385.064863 84.36463 
L 385.484313 70.82484 
L 385.903763 80.801527 
L 386.323214 79.233762 
L 386.742664 74.672991 
L 387.581564 83.081913 
L 388.001015 63.413586 
L 388.420465 62.273393 
L 388.839915 54.006995 
L 389.259366 61.418249 
L 389.678816 92.773552 
L 390.517717 92.773552 
L 390.937167 96.194131 
L 391.776068 105.458198 
L 392.195518 99.329661 
L 392.614968 53.721947 
L 393.453869 53.721947 
L 393.873319 52.154182 
L 394.29277 61.560773 
L 394.71222 63.698634 
L 395.13167 61.275725 
L 395.551121 81.371624 
L 396.390021 81.371624 
L 396.809471 93.343649 
L 397.228922 74.672991 
L 397.648372 62.130869 
L 398.067822 64.411255 
L 398.487273 89.92307 
L 398.487273 89.92307 
" clip-path="url(#p3b88869ab2)" style="fill: none; stroke: #1f77b4; stroke-width: 1.5; stroke-linecap: square"/>
   </g>
   <g id="patch_3">
    <path d="M 57.6 276.48 
L 57.6 41.472 
" style="fill: none; stroke: #000000; stroke-width: 0.8; stroke-linejoin: miter; stroke-linecap: square"/>
   </g>
   <g id="patch_4">
    <path d="M 414.72 276.48 
L 414.72 41.472 
" style="fill: none; stroke: #000000; stroke-width: 0.8; stroke-linejoin: miter; stroke-linecap: square"/>
   </g>
   <g id="patch_5">
    <path d="M 57.6 276.48 
L 414.72 276.48 
" style="fill: none; stroke: #000000; stroke-width: 0.8; stroke-linejoin: miter; stroke-linecap: square"/>
   </g>
   <g id="patch_6">
    <path d="M 57.6 41.472 
L 414.72 41.472 
" style="fill: none; stroke: #000000; stroke-width: 0.8; stroke-linejoin: miter; stroke-linecap: square"/>
   </g>
  </g>
  <g id="text_19">
   <!-- Inzidenzverlauf LK Steinburg -->
   <g transform="translate(101.392031 20.589187)scale(0.18 -0.18)">
    <defs>
     <path id="DejaVuSans-76" d="M 191 3500 
L 800 3500 
L 1894 563 
L 2988 3500 
L 3597 3500 
L 2284 0 
L 1503 0 
L 191 3500 
z
" transform="scale(0.015625)"/>
     <path id="DejaVuSans-6c" d="M 603 4863 
L 1178 4863 
L 1178 0 
L 603 0 
L 603 4863 
z
" transform="scale(0.015625)"/>
     <path id="DejaVuSans-75" d="M 544 1381 
L 544 3500 
L 1119 3500 
L 1119 1403 
Q 1119 906 1312 657 
Q 1506 409 1894 409 
Q 2359 409 2629 706 
Q 2900 1003 2900 1516 
L 2900 3500 
L 3475 3500 
L 3475 0 
L 2900 0 
L 2900 538 
Q 2691 219 2414 64 
Q 2138 -91 1772 -91 
Q 1169 -91 856 284 
Q 544 659 544 1381 
z
M 1991 3584 
L 1991 3584 
z
" transform="scale(0.015625)"/>
     <path id="DejaVuSans-66" d="M 2375 4863 
L 2375 4384 
L 1825 4384 
Q 1516 4384 1395 4259 
Q 1275 4134 1275 3809 
L 1275 3500 
L 2222 3500 
L 2222 3053 
L 1275 3053 
L 1275 0 
L 697 0 
L 697 3053 
L 147 3053 
L 147 3500 
L 697 3500 
L 697 3744 
Q 697 4328 969 4595 
Q 1241 4863 1831 4863 
L 2375 4863 
z
" transform="scale(0.015625)"/>
     <path id="DejaVuSans-4c" d="M 628 4666 
L 1259 4666 
L 1259 531 
L 3531 531 
L 3531 0 
L 628 0 
L 628 4666 
z
" transform="scale(0.015625)"/>
     <path id="DejaVuSans-4b" d="M 628 4666 
L 1259 4666 
L 1259 2694 
L 3353 4666 
L 4166 4666 
L 1850 2491 
L 4331 0 
L 3500 0 
L 1259 2247 
L 1259 0 
L 628 0 
L 628 4666 
z
" transform="scale(0.015625)"/>
     <path id="DejaVuSans-53" d="M 3425 4513 
L 3425 3897 
Q 3066 4069 2747 4153 
Q 2428 4238 2131 4238 
Q 1616 4238 1336 4038 
Q 1056 3838 1056 3469 
Q 1056 3159 1242 3001 
Q 1428 2844 1947 2747 
L 2328 2669 
Q 3034 2534 3370 2195 
Q 3706 1856 3706 1288 
Q 3706 609 3251 259 
Q 2797 -91 1919 -91 
Q 1588 -91 1214 -16 
Q 841 59 441 206 
L 441 856 
Q 825 641 1194 531 
Q 1563 422 1919 422 
Q 2459 422 2753 634 
Q 3047 847 3047 1241 
Q 3047 1584 2836 1778 
Q 2625 1972 2144 2069 
L 1759 2144 
Q 1053 2284 737 2584 
Q 422 2884 422 3419 
Q 422 4038 858 4394 
Q 1294 4750 2059 4750 
Q 2388 4750 2728 4690 
Q 3069 4631 3425 4513 
z
" transform="scale(0.015625)"/>
     <path id="DejaVuSans-74" d="M 1172 4494 
L 1172 3500 
L 2356 3500 
L 2356 3053 
L 1172 3053 
L 1172 1153 
Q 1172 725 1289 603 
Q 1406 481 1766 481 
L 2356 481 
L 2356 0 
L 1766 0 
Q 1100 0 847 248 
Q 594 497 594 1153 
L 594 3053 
L 172 3053 
L 172 3500 
L 594 3500 
L 594 4494 
L 1172 4494 
z
" transform="scale(0.015625)"/>
     <path id="DejaVuSans-62" d="M 3116 1747 
Q 3116 2381 2855 2742 
Q 2594 3103 2138 3103 
Q 1681 3103 1420 2742 
Q 1159 2381 1159 1747 
Q 1159 1113 1420 752 
Q 1681 391 2138 391 
Q 2594 391 2855 752 
Q 3116 1113 3116 1747 
z
M 1159 2969 
Q 1341 3281 1617 3432 
Q 1894 3584 2278 3584 
Q 2916 3584 3314 3078 
Q 3713 2572 3713 1747 
Q 3713 922 3314 415 
Q 2916 -91 2278 -91 
Q 1894 -91 1617 61 
Q 1341 213 1159 525 
L 1159 0 
L 581 0 
L 581 4863 
L 1159 4863 
L 1159 2969 
z
" transform="scale(0.015625)"/>
    </defs>
    <use xlink:href="#DejaVuSans-49"/>
    <use xlink:href="#DejaVuSans-6e" x="29.492188"/>
    <use xlink:href="#DejaVuSans-7a" x="92.871094"/>
    <use xlink:href="#DejaVuSans-69" x="145.361328"/>
    <use xlink:href="#DejaVuSans-64" x="173.144531"/>
    <use xlink:href="#DejaVuSans-65" x="236.621094"/>
    <use xlink:href="#DejaVuSans-6e" x="298.144531"/>
    <use xlink:href="#DejaVuSans-7a" x="361.523438"/>
    <use xlink:href="#DejaVuSans-76" x="414.013672"/>
    <use xlink:href="#DejaVuSans-65" x="473.193359"/>
    <use xlink:href="#DejaVuSans-72" x="534.716797"/>
    <use xlink:href="#DejaVuSans-6c" x="575.830078"/>
    <use xlink:href="#DejaVuSans-61" x="603.613281"/>
    <use xlink:href="#DejaVuSans-75" x="664.892578"/>
    <use xlink:href="#DejaVuSans-66" x="728.271484"/>
    <use xlink:href="#DejaVuSans-20" x="763.476562"/>
    <use xlink:href="#DejaVuSans-4c" x="795.263672"/>
    <use xlink:href="#DejaVuSans-4b" x="850.976562"/>
    <use xlink:href="#DejaVuSans-20" x="916.552734"/>
    <use xlink:href="#DejaVuSans-53" x="948.339844"/>
    <use xlink:href="#DejaVuSans-74" x="1011.816406"/>
    <use xlink:href="#DejaVuSans-65" x="1051.025391"/>
    <use xlink:href="#DejaVuSans-69" x="1112.548828"/>
    <use xlink:href="#DejaVuSans-6e" x="1140.332031"/>
    <use xlink:href="#DejaVuSans-62" x="1203.710938"/>
    <use xlink:href="#DejaVuSans-75" x="1267.1875"/>
    <use xlink:href="#DejaVuSans-72" x="1330.566406"/>
    <use xlink:href="#DejaVuSans-67" x="1369.929688"/>
   </g>
  </g>
 </g>
 <defs>
  <clipPath id="p3b88869ab2">
   <rect x="57.6" y="41.472" width="357.12" height="235.008"/>
  </clipPath>
 </defs>
</svg>
