<?xml version="1.0" encoding="utf-8" standalone="no"?>
<!DOCTYPE svg PUBLIC "-//W3C//DTD SVG 1.1//EN"
  "http://www.w3.org/Graphics/SVG/1.1/DTD/svg11.dtd">
<svg xmlns:xlink="http://www.w3.org/1999/xlink" width="460.8pt" height="345.6pt" viewBox="0 0 460.8 345.6" xmlns="http://www.w3.org/2000/svg" version="1.1">
 <metadata>
  <rdf:RDF xmlns:dc="http://purl.org/dc/elements/1.1/" xmlns:cc="http://creativecommons.org/ns#" xmlns:rdf="http://www.w3.org/1999/02/22-rdf-syntax-ns#">
   <cc:Work>
    <dc:type rdf:resource="http://purl.org/dc/dcmitype/StillImage"/>
    <dc:date>2022-12-25T09:17:00.943857</dc:date>
    <dc:format>image/svg+xml</dc:format>
    <dc:creator>
     <cc:Agent>
      <dc:title>Matplotlib v3.6.2, https://matplotlib.org/</dc:title>
     </cc:Agent>
    </dc:creator>
   </cc:Work>
  </rdf:RDF>
 </metadata>
 <defs>
  <style type="text/css">*{stroke-linejoin: round; stroke-linecap: butt}</style>
 </defs>
 <g id="figure_1">
  <g id="patch_1">
   <path d="M 0 345.6 
L 460.8 345.6 
L 460.8 0 
L 0 0 
z
" style="fill: #ffffff"/>
  </g>
  <g id="axes_1">
   <g id="patch_2">
    <path d="M 57.6 276.48 
L 414.72 276.48 
L 414.72 41.472 
L 57.6 41.472 
z
" style="fill: #ffffff"/>
   </g>
   <g id="matplotlib.axis_1">
    <g id="xtick_1">
     <g id="line2d_1">
      <path d="M 60.964036 276.48 
L 60.964036 41.472 
" clip-path="url(#p3138fc79c0)" style="fill: none; stroke-dasharray: 2.96,1.28; stroke-dashoffset: 0; stroke: #808080; stroke-width: 0.8"/>
     </g>
     <g id="line2d_2">
      <defs>
       <path id="m6ee1583f8c" d="M 0 0 
L 0 3.5 
" style="stroke: #000000; stroke-width: 0.8"/>
      </defs>
      <g>
       <use xlink:href="#m6ee1583f8c" x="60.964036" y="276.48" style="stroke: #000000; stroke-width: 0.8"/>
      </g>
     </g>
     <g id="text_1">
      <!-- 22.01.2020 -->
      <g transform="translate(10.338826 318.688565) rotate(-30) scale(0.1 -0.1)">
       <defs>
        <path id="DejaVuSans-32" d="M 1228 531 
L 3431 531 
L 3431 0 
L 469 0 
L 469 531 
Q 828 903 1448 1529 
Q 2069 2156 2228 2338 
Q 2531 2678 2651 2914 
Q 2772 3150 2772 3378 
Q 2772 3750 2511 3984 
Q 2250 4219 1831 4219 
Q 1534 4219 1204 4116 
Q 875 4013 500 3803 
L 500 4441 
Q 881 4594 1212 4672 
Q 1544 4750 1819 4750 
Q 2544 4750 2975 4387 
Q 3406 4025 3406 3419 
Q 3406 3131 3298 2873 
Q 3191 2616 2906 2266 
Q 2828 2175 2409 1742 
Q 1991 1309 1228 531 
z
" transform="scale(0.015625)"/>
        <path id="DejaVuSans-2e" d="M 684 794 
L 1344 794 
L 1344 0 
L 684 0 
L 684 794 
z
" transform="scale(0.015625)"/>
        <path id="DejaVuSans-30" d="M 2034 4250 
Q 1547 4250 1301 3770 
Q 1056 3291 1056 2328 
Q 1056 1369 1301 889 
Q 1547 409 2034 409 
Q 2525 409 2770 889 
Q 3016 1369 3016 2328 
Q 3016 3291 2770 3770 
Q 2525 4250 2034 4250 
z
M 2034 4750 
Q 2819 4750 3233 4129 
Q 3647 3509 3647 2328 
Q 3647 1150 3233 529 
Q 2819 -91 2034 -91 
Q 1250 -91 836 529 
Q 422 1150 422 2328 
Q 422 3509 836 4129 
Q 1250 4750 2034 4750 
z
" transform="scale(0.015625)"/>
        <path id="DejaVuSans-31" d="M 794 531 
L 1825 531 
L 1825 4091 
L 703 3866 
L 703 4441 
L 1819 4666 
L 2450 4666 
L 2450 531 
L 3481 531 
L 3481 0 
L 794 0 
L 794 531 
z
" transform="scale(0.015625)"/>
       </defs>
       <use xlink:href="#DejaVuSans-32"/>
       <use xlink:href="#DejaVuSans-32" x="63.623047"/>
       <use xlink:href="#DejaVuSans-2e" x="127.246094"/>
       <use xlink:href="#DejaVuSans-30" x="159.033203"/>
       <use xlink:href="#DejaVuSans-31" x="222.65625"/>
       <use xlink:href="#DejaVuSans-2e" x="286.279297"/>
       <use xlink:href="#DejaVuSans-32" x="318.066406"/>
       <use xlink:href="#DejaVuSans-30" x="381.689453"/>
       <use xlink:href="#DejaVuSans-32" x="445.3125"/>
       <use xlink:href="#DejaVuSans-30" x="508.935547"/>
      </g>
     </g>
    </g>
    <g id="xtick_2">
     <g id="line2d_3">
      <path d="M 97.001639 276.48 
L 97.001639 41.472 
" clip-path="url(#p3138fc79c0)" style="fill: none; stroke-dasharray: 2.96,1.28; stroke-dashoffset: 0; stroke: #808080; stroke-width: 0.8"/>
     </g>
     <g id="line2d_4">
      <g>
       <use xlink:href="#m6ee1583f8c" x="97.001639" y="276.48" style="stroke: #000000; stroke-width: 0.8"/>
      </g>
     </g>
     <g id="text_2">
      <!-- 15.05.2020 -->
      <g transform="translate(46.376429 318.688565) rotate(-30) scale(0.1 -0.1)">
       <defs>
        <path id="DejaVuSans-35" d="M 691 4666 
L 3169 4666 
L 3169 4134 
L 1269 4134 
L 1269 2991 
Q 1406 3038 1543 3061 
Q 1681 3084 1819 3084 
Q 2600 3084 3056 2656 
Q 3513 2228 3513 1497 
Q 3513 744 3044 326 
Q 2575 -91 1722 -91 
Q 1428 -91 1123 -41 
Q 819 9 494 109 
L 494 744 
Q 775 591 1075 516 
Q 1375 441 1709 441 
Q 2250 441 2565 725 
Q 2881 1009 2881 1497 
Q 2881 1984 2565 2268 
Q 2250 2553 1709 2553 
Q 1456 2553 1204 2497 
Q 953 2441 691 2322 
L 691 4666 
z
" transform="scale(0.015625)"/>
       </defs>
       <use xlink:href="#DejaVuSans-31"/>
       <use xlink:href="#DejaVuSans-35" x="63.623047"/>
       <use xlink:href="#DejaVuSans-2e" x="127.246094"/>
       <use xlink:href="#DejaVuSans-30" x="159.033203"/>
       <use xlink:href="#DejaVuSans-35" x="222.65625"/>
       <use xlink:href="#DejaVuSans-2e" x="286.279297"/>
       <use xlink:href="#DejaVuSans-32" x="318.066406"/>
       <use xlink:href="#DejaVuSans-30" x="381.689453"/>
       <use xlink:href="#DejaVuSans-32" x="445.3125"/>
       <use xlink:href="#DejaVuSans-30" x="508.935547"/>
      </g>
     </g>
    </g>
    <g id="xtick_3">
     <g id="line2d_5">
      <path d="M 133.039242 276.48 
L 133.039242 41.472 
" clip-path="url(#p3138fc79c0)" style="fill: none; stroke-dasharray: 2.96,1.28; stroke-dashoffset: 0; stroke: #808080; stroke-width: 0.8"/>
     </g>
     <g id="line2d_6">
      <g>
       <use xlink:href="#m6ee1583f8c" x="133.039242" y="276.48" style="stroke: #000000; stroke-width: 0.8"/>
      </g>
     </g>
     <g id="text_3">
      <!-- 06.09.2020 -->
      <g transform="translate(82.414032 318.688565) rotate(-30) scale(0.1 -0.1)">
       <defs>
        <path id="DejaVuSans-36" d="M 2113 2584 
Q 1688 2584 1439 2293 
Q 1191 2003 1191 1497 
Q 1191 994 1439 701 
Q 1688 409 2113 409 
Q 2538 409 2786 701 
Q 3034 994 3034 1497 
Q 3034 2003 2786 2293 
Q 2538 2584 2113 2584 
z
M 3366 4563 
L 3366 3988 
Q 3128 4100 2886 4159 
Q 2644 4219 2406 4219 
Q 1781 4219 1451 3797 
Q 1122 3375 1075 2522 
Q 1259 2794 1537 2939 
Q 1816 3084 2150 3084 
Q 2853 3084 3261 2657 
Q 3669 2231 3669 1497 
Q 3669 778 3244 343 
Q 2819 -91 2113 -91 
Q 1303 -91 875 529 
Q 447 1150 447 2328 
Q 447 3434 972 4092 
Q 1497 4750 2381 4750 
Q 2619 4750 2861 4703 
Q 3103 4656 3366 4563 
z
" transform="scale(0.015625)"/>
        <path id="DejaVuSans-39" d="M 703 97 
L 703 672 
Q 941 559 1184 500 
Q 1428 441 1663 441 
Q 2288 441 2617 861 
Q 2947 1281 2994 2138 
Q 2813 1869 2534 1725 
Q 2256 1581 1919 1581 
Q 1219 1581 811 2004 
Q 403 2428 403 3163 
Q 403 3881 828 4315 
Q 1253 4750 1959 4750 
Q 2769 4750 3195 4129 
Q 3622 3509 3622 2328 
Q 3622 1225 3098 567 
Q 2575 -91 1691 -91 
Q 1453 -91 1209 -44 
Q 966 3 703 97 
z
M 1959 2075 
Q 2384 2075 2632 2365 
Q 2881 2656 2881 3163 
Q 2881 3666 2632 3958 
Q 2384 4250 1959 4250 
Q 1534 4250 1286 3958 
Q 1038 3666 1038 3163 
Q 1038 2656 1286 2365 
Q 1534 2075 1959 2075 
z
" transform="scale(0.015625)"/>
       </defs>
       <use xlink:href="#DejaVuSans-30"/>
       <use xlink:href="#DejaVuSans-36" x="63.623047"/>
       <use xlink:href="#DejaVuSans-2e" x="127.246094"/>
       <use xlink:href="#DejaVuSans-30" x="159.033203"/>
       <use xlink:href="#DejaVuSans-39" x="222.65625"/>
       <use xlink:href="#DejaVuSans-2e" x="286.279297"/>
       <use xlink:href="#DejaVuSans-32" x="318.066406"/>
       <use xlink:href="#DejaVuSans-30" x="381.689453"/>
       <use xlink:href="#DejaVuSans-32" x="445.3125"/>
       <use xlink:href="#DejaVuSans-30" x="508.935547"/>
      </g>
     </g>
    </g>
    <g id="xtick_4">
     <g id="line2d_7">
      <path d="M 169.076845 276.48 
L 169.076845 41.472 
" clip-path="url(#p3138fc79c0)" style="fill: none; stroke-dasharray: 2.96,1.28; stroke-dashoffset: 0; stroke: #808080; stroke-width: 0.8"/>
     </g>
     <g id="line2d_8">
      <g>
       <use xlink:href="#m6ee1583f8c" x="169.076845" y="276.48" style="stroke: #000000; stroke-width: 0.8"/>
      </g>
     </g>
     <g id="text_4">
      <!-- 29.12.2020 -->
      <g transform="translate(118.451634 318.688565) rotate(-30) scale(0.1 -0.1)">
       <use xlink:href="#DejaVuSans-32"/>
       <use xlink:href="#DejaVuSans-39" x="63.623047"/>
       <use xlink:href="#DejaVuSans-2e" x="127.246094"/>
       <use xlink:href="#DejaVuSans-31" x="159.033203"/>
       <use xlink:href="#DejaVuSans-32" x="222.65625"/>
       <use xlink:href="#DejaVuSans-2e" x="286.279297"/>
       <use xlink:href="#DejaVuSans-32" x="318.066406"/>
       <use xlink:href="#DejaVuSans-30" x="381.689453"/>
       <use xlink:href="#DejaVuSans-32" x="445.3125"/>
       <use xlink:href="#DejaVuSans-30" x="508.935547"/>
      </g>
     </g>
    </g>
    <g id="xtick_5">
     <g id="line2d_9">
      <path d="M 205.114448 276.48 
L 205.114448 41.472 
" clip-path="url(#p3138fc79c0)" style="fill: none; stroke-dasharray: 2.96,1.28; stroke-dashoffset: 0; stroke: #808080; stroke-width: 0.8"/>
     </g>
     <g id="line2d_10">
      <g>
       <use xlink:href="#m6ee1583f8c" x="205.114448" y="276.48" style="stroke: #000000; stroke-width: 0.8"/>
      </g>
     </g>
     <g id="text_5">
      <!-- 22.04.2021 -->
      <g transform="translate(154.489237 318.688565) rotate(-30) scale(0.1 -0.1)">
       <defs>
        <path id="DejaVuSans-34" d="M 2419 4116 
L 825 1625 
L 2419 1625 
L 2419 4116 
z
M 2253 4666 
L 3047 4666 
L 3047 1625 
L 3713 1625 
L 3713 1100 
L 3047 1100 
L 3047 0 
L 2419 0 
L 2419 1100 
L 313 1100 
L 313 1709 
L 2253 4666 
z
" transform="scale(0.015625)"/>
       </defs>
       <use xlink:href="#DejaVuSans-32"/>
       <use xlink:href="#DejaVuSans-32" x="63.623047"/>
       <use xlink:href="#DejaVuSans-2e" x="127.246094"/>
       <use xlink:href="#DejaVuSans-30" x="159.033203"/>
       <use xlink:href="#DejaVuSans-34" x="222.65625"/>
       <use xlink:href="#DejaVuSans-2e" x="286.279297"/>
       <use xlink:href="#DejaVuSans-32" x="318.066406"/>
       <use xlink:href="#DejaVuSans-30" x="381.689453"/>
       <use xlink:href="#DejaVuSans-32" x="445.3125"/>
       <use xlink:href="#DejaVuSans-31" x="508.935547"/>
      </g>
     </g>
    </g>
    <g id="xtick_6">
     <g id="line2d_11">
      <path d="M 241.152051 276.48 
L 241.152051 41.472 
" clip-path="url(#p3138fc79c0)" style="fill: none; stroke-dasharray: 2.96,1.28; stroke-dashoffset: 0; stroke: #808080; stroke-width: 0.8"/>
     </g>
     <g id="line2d_12">
      <g>
       <use xlink:href="#m6ee1583f8c" x="241.152051" y="276.48" style="stroke: #000000; stroke-width: 0.8"/>
      </g>
     </g>
     <g id="text_6">
      <!-- 14.08.2021 -->
      <g transform="translate(190.52684 318.688565) rotate(-30) scale(0.1 -0.1)">
       <defs>
        <path id="DejaVuSans-38" d="M 2034 2216 
Q 1584 2216 1326 1975 
Q 1069 1734 1069 1313 
Q 1069 891 1326 650 
Q 1584 409 2034 409 
Q 2484 409 2743 651 
Q 3003 894 3003 1313 
Q 3003 1734 2745 1975 
Q 2488 2216 2034 2216 
z
M 1403 2484 
Q 997 2584 770 2862 
Q 544 3141 544 3541 
Q 544 4100 942 4425 
Q 1341 4750 2034 4750 
Q 2731 4750 3128 4425 
Q 3525 4100 3525 3541 
Q 3525 3141 3298 2862 
Q 3072 2584 2669 2484 
Q 3125 2378 3379 2068 
Q 3634 1759 3634 1313 
Q 3634 634 3220 271 
Q 2806 -91 2034 -91 
Q 1263 -91 848 271 
Q 434 634 434 1313 
Q 434 1759 690 2068 
Q 947 2378 1403 2484 
z
M 1172 3481 
Q 1172 3119 1398 2916 
Q 1625 2713 2034 2713 
Q 2441 2713 2670 2916 
Q 2900 3119 2900 3481 
Q 2900 3844 2670 4047 
Q 2441 4250 2034 4250 
Q 1625 4250 1398 4047 
Q 1172 3844 1172 3481 
z
" transform="scale(0.015625)"/>
       </defs>
       <use xlink:href="#DejaVuSans-31"/>
       <use xlink:href="#DejaVuSans-34" x="63.623047"/>
       <use xlink:href="#DejaVuSans-2e" x="127.246094"/>
       <use xlink:href="#DejaVuSans-30" x="159.033203"/>
       <use xlink:href="#DejaVuSans-38" x="222.65625"/>
       <use xlink:href="#DejaVuSans-2e" x="286.279297"/>
       <use xlink:href="#DejaVuSans-32" x="318.066406"/>
       <use xlink:href="#DejaVuSans-30" x="381.689453"/>
       <use xlink:href="#DejaVuSans-32" x="445.3125"/>
       <use xlink:href="#DejaVuSans-31" x="508.935547"/>
      </g>
     </g>
    </g>
    <g id="xtick_7">
     <g id="line2d_13">
      <path d="M 277.189654 276.48 
L 277.189654 41.472 
" clip-path="url(#p3138fc79c0)" style="fill: none; stroke-dasharray: 2.96,1.28; stroke-dashoffset: 0; stroke: #808080; stroke-width: 0.8"/>
     </g>
     <g id="line2d_14">
      <g>
       <use xlink:href="#m6ee1583f8c" x="277.189654" y="276.48" style="stroke: #000000; stroke-width: 0.8"/>
      </g>
     </g>
     <g id="text_7">
      <!-- 06.12.2021 -->
      <g transform="translate(226.564443 318.688565) rotate(-30) scale(0.1 -0.1)">
       <use xlink:href="#DejaVuSans-30"/>
       <use xlink:href="#DejaVuSans-36" x="63.623047"/>
       <use xlink:href="#DejaVuSans-2e" x="127.246094"/>
       <use xlink:href="#DejaVuSans-31" x="159.033203"/>
       <use xlink:href="#DejaVuSans-32" x="222.65625"/>
       <use xlink:href="#DejaVuSans-2e" x="286.279297"/>
       <use xlink:href="#DejaVuSans-32" x="318.066406"/>
       <use xlink:href="#DejaVuSans-30" x="381.689453"/>
       <use xlink:href="#DejaVuSans-32" x="445.3125"/>
       <use xlink:href="#DejaVuSans-31" x="508.935547"/>
      </g>
     </g>
    </g>
    <g id="xtick_8">
     <g id="line2d_15">
      <path d="M 313.227257 276.48 
L 313.227257 41.472 
" clip-path="url(#p3138fc79c0)" style="fill: none; stroke-dasharray: 2.96,1.28; stroke-dashoffset: 0; stroke: #808080; stroke-width: 0.8"/>
     </g>
     <g id="line2d_16">
      <g>
       <use xlink:href="#m6ee1583f8c" x="313.227257" y="276.48" style="stroke: #000000; stroke-width: 0.8"/>
      </g>
     </g>
     <g id="text_8">
      <!-- 30.03.2022 -->
      <g transform="translate(262.602046 318.688565) rotate(-30) scale(0.1 -0.1)">
       <defs>
        <path id="DejaVuSans-33" d="M 2597 2516 
Q 3050 2419 3304 2112 
Q 3559 1806 3559 1356 
Q 3559 666 3084 287 
Q 2609 -91 1734 -91 
Q 1441 -91 1130 -33 
Q 819 25 488 141 
L 488 750 
Q 750 597 1062 519 
Q 1375 441 1716 441 
Q 2309 441 2620 675 
Q 2931 909 2931 1356 
Q 2931 1769 2642 2001 
Q 2353 2234 1838 2234 
L 1294 2234 
L 1294 2753 
L 1863 2753 
Q 2328 2753 2575 2939 
Q 2822 3125 2822 3475 
Q 2822 3834 2567 4026 
Q 2313 4219 1838 4219 
Q 1578 4219 1281 4162 
Q 984 4106 628 3988 
L 628 4550 
Q 988 4650 1302 4700 
Q 1616 4750 1894 4750 
Q 2613 4750 3031 4423 
Q 3450 4097 3450 3541 
Q 3450 3153 3228 2886 
Q 3006 2619 2597 2516 
z
" transform="scale(0.015625)"/>
       </defs>
       <use xlink:href="#DejaVuSans-33"/>
       <use xlink:href="#DejaVuSans-30" x="63.623047"/>
       <use xlink:href="#DejaVuSans-2e" x="127.246094"/>
       <use xlink:href="#DejaVuSans-30" x="159.033203"/>
       <use xlink:href="#DejaVuSans-33" x="222.65625"/>
       <use xlink:href="#DejaVuSans-2e" x="286.279297"/>
       <use xlink:href="#DejaVuSans-32" x="318.066406"/>
       <use xlink:href="#DejaVuSans-30" x="381.689453"/>
       <use xlink:href="#DejaVuSans-32" x="445.3125"/>
       <use xlink:href="#DejaVuSans-32" x="508.935547"/>
      </g>
     </g>
    </g>
    <g id="xtick_9">
     <g id="line2d_17">
      <path d="M 349.26486 276.48 
L 349.26486 41.472 
" clip-path="url(#p3138fc79c0)" style="fill: none; stroke-dasharray: 2.96,1.28; stroke-dashoffset: 0; stroke: #808080; stroke-width: 0.8"/>
     </g>
     <g id="line2d_18">
      <g>
       <use xlink:href="#m6ee1583f8c" x="349.26486" y="276.48" style="stroke: #000000; stroke-width: 0.8"/>
      </g>
     </g>
     <g id="text_9">
      <!-- 22.07.2022 -->
      <g transform="translate(298.639649 318.688565) rotate(-30) scale(0.1 -0.1)">
       <defs>
        <path id="DejaVuSans-37" d="M 525 4666 
L 3525 4666 
L 3525 4397 
L 1831 0 
L 1172 0 
L 2766 4134 
L 525 4134 
L 525 4666 
z
" transform="scale(0.015625)"/>
       </defs>
       <use xlink:href="#DejaVuSans-32"/>
       <use xlink:href="#DejaVuSans-32" x="63.623047"/>
       <use xlink:href="#DejaVuSans-2e" x="127.246094"/>
       <use xlink:href="#DejaVuSans-30" x="159.033203"/>
       <use xlink:href="#DejaVuSans-37" x="222.65625"/>
       <use xlink:href="#DejaVuSans-2e" x="286.279297"/>
       <use xlink:href="#DejaVuSans-32" x="318.066406"/>
       <use xlink:href="#DejaVuSans-30" x="381.689453"/>
       <use xlink:href="#DejaVuSans-32" x="445.3125"/>
       <use xlink:href="#DejaVuSans-32" x="508.935547"/>
      </g>
     </g>
    </g>
    <g id="xtick_10">
     <g id="line2d_19">
      <path d="M 385.302463 276.48 
L 385.302463 41.472 
" clip-path="url(#p3138fc79c0)" style="fill: none; stroke-dasharray: 2.96,1.28; stroke-dashoffset: 0; stroke: #808080; stroke-width: 0.8"/>
     </g>
     <g id="line2d_20">
      <g>
       <use xlink:href="#m6ee1583f8c" x="385.302463" y="276.48" style="stroke: #000000; stroke-width: 0.8"/>
      </g>
     </g>
     <g id="text_10">
      <!-- 13.11.2022 -->
      <g transform="translate(334.677252 318.688565) rotate(-30) scale(0.1 -0.1)">
       <use xlink:href="#DejaVuSans-31"/>
       <use xlink:href="#DejaVuSans-33" x="63.623047"/>
       <use xlink:href="#DejaVuSans-2e" x="127.246094"/>
       <use xlink:href="#DejaVuSans-31" x="159.033203"/>
       <use xlink:href="#DejaVuSans-31" x="222.65625"/>
       <use xlink:href="#DejaVuSans-2e" x="286.279297"/>
       <use xlink:href="#DejaVuSans-32" x="318.066406"/>
       <use xlink:href="#DejaVuSans-30" x="381.689453"/>
       <use xlink:href="#DejaVuSans-32" x="445.3125"/>
       <use xlink:href="#DejaVuSans-32" x="508.935547"/>
      </g>
     </g>
    </g>
   </g>
   <g id="matplotlib.axis_2">
    <g id="ytick_1">
     <g id="line2d_21">
      <path d="M 57.6 265.797818 
L 414.72 265.797818 
" clip-path="url(#p3138fc79c0)" style="fill: none; stroke-dasharray: 2.96,1.28; stroke-dashoffset: 0; stroke: #808080; stroke-width: 0.8"/>
     </g>
     <g id="line2d_22">
      <defs>
       <path id="mc74e1b1e87" d="M 0 0 
L -3.5 0 
" style="stroke: #000000; stroke-width: 0.8"/>
      </defs>
      <g>
       <use xlink:href="#mc74e1b1e87" x="57.6" y="265.797818" style="stroke: #000000; stroke-width: 0.8"/>
      </g>
     </g>
     <g id="text_11">
      <!-- 0 -->
      <g transform="translate(44.2375 269.597037) scale(0.1 -0.1)">
       <use xlink:href="#DejaVuSans-30"/>
      </g>
     </g>
    </g>
    <g id="ytick_2">
     <g id="line2d_23">
      <path d="M 57.6 238.996004 
L 414.72 238.996004 
" clip-path="url(#p3138fc79c0)" style="fill: none; stroke-dasharray: 2.96,1.28; stroke-dashoffset: 0; stroke: #808080; stroke-width: 0.8"/>
     </g>
     <g id="line2d_24">
      <g>
       <use xlink:href="#mc74e1b1e87" x="57.6" y="238.996004" style="stroke: #000000; stroke-width: 0.8"/>
      </g>
     </g>
     <g id="text_12">
      <!-- 250 -->
      <g transform="translate(31.5125 242.795222) scale(0.1 -0.1)">
       <use xlink:href="#DejaVuSans-32"/>
       <use xlink:href="#DejaVuSans-35" x="63.623047"/>
       <use xlink:href="#DejaVuSans-30" x="127.246094"/>
      </g>
     </g>
    </g>
    <g id="ytick_3">
     <g id="line2d_25">
      <path d="M 57.6 212.194189 
L 414.72 212.194189 
" clip-path="url(#p3138fc79c0)" style="fill: none; stroke-dasharray: 2.96,1.28; stroke-dashoffset: 0; stroke: #808080; stroke-width: 0.8"/>
     </g>
     <g id="line2d_26">
      <g>
       <use xlink:href="#mc74e1b1e87" x="57.6" y="212.194189" style="stroke: #000000; stroke-width: 0.8"/>
      </g>
     </g>
     <g id="text_13">
      <!-- 500 -->
      <g transform="translate(31.5125 215.993408) scale(0.1 -0.1)">
       <use xlink:href="#DejaVuSans-35"/>
       <use xlink:href="#DejaVuSans-30" x="63.623047"/>
       <use xlink:href="#DejaVuSans-30" x="127.246094"/>
      </g>
     </g>
    </g>
    <g id="ytick_4">
     <g id="line2d_27">
      <path d="M 57.6 185.392375 
L 414.72 185.392375 
" clip-path="url(#p3138fc79c0)" style="fill: none; stroke-dasharray: 2.96,1.28; stroke-dashoffset: 0; stroke: #808080; stroke-width: 0.8"/>
     </g>
     <g id="line2d_28">
      <g>
       <use xlink:href="#mc74e1b1e87" x="57.6" y="185.392375" style="stroke: #000000; stroke-width: 0.8"/>
      </g>
     </g>
     <g id="text_14">
      <!-- 750 -->
      <g transform="translate(31.5125 189.191594) scale(0.1 -0.1)">
       <use xlink:href="#DejaVuSans-37"/>
       <use xlink:href="#DejaVuSans-35" x="63.623047"/>
       <use xlink:href="#DejaVuSans-30" x="127.246094"/>
      </g>
     </g>
    </g>
    <g id="ytick_5">
     <g id="line2d_29">
      <path d="M 57.6 158.59056 
L 414.72 158.59056 
" clip-path="url(#p3138fc79c0)" style="fill: none; stroke-dasharray: 2.96,1.28; stroke-dashoffset: 0; stroke: #808080; stroke-width: 0.8"/>
     </g>
     <g id="line2d_30">
      <g>
       <use xlink:href="#mc74e1b1e87" x="57.6" y="158.59056" style="stroke: #000000; stroke-width: 0.8"/>
      </g>
     </g>
     <g id="text_15">
      <!-- 1000 -->
      <g transform="translate(25.15 162.389779) scale(0.1 -0.1)">
       <use xlink:href="#DejaVuSans-31"/>
       <use xlink:href="#DejaVuSans-30" x="63.623047"/>
       <use xlink:href="#DejaVuSans-30" x="127.246094"/>
       <use xlink:href="#DejaVuSans-30" x="190.869141"/>
      </g>
     </g>
    </g>
    <g id="ytick_6">
     <g id="line2d_31">
      <path d="M 57.6 131.788746 
L 414.72 131.788746 
" clip-path="url(#p3138fc79c0)" style="fill: none; stroke-dasharray: 2.96,1.28; stroke-dashoffset: 0; stroke: #808080; stroke-width: 0.8"/>
     </g>
     <g id="line2d_32">
      <g>
       <use xlink:href="#mc74e1b1e87" x="57.6" y="131.788746" style="stroke: #000000; stroke-width: 0.8"/>
      </g>
     </g>
     <g id="text_16">
      <!-- 1250 -->
      <g transform="translate(25.15 135.587965) scale(0.1 -0.1)">
       <use xlink:href="#DejaVuSans-31"/>
       <use xlink:href="#DejaVuSans-32" x="63.623047"/>
       <use xlink:href="#DejaVuSans-35" x="127.246094"/>
       <use xlink:href="#DejaVuSans-30" x="190.869141"/>
      </g>
     </g>
    </g>
    <g id="ytick_7">
     <g id="line2d_33">
      <path d="M 57.6 104.986932 
L 414.72 104.986932 
" clip-path="url(#p3138fc79c0)" style="fill: none; stroke-dasharray: 2.96,1.28; stroke-dashoffset: 0; stroke: #808080; stroke-width: 0.8"/>
     </g>
     <g id="line2d_34">
      <g>
       <use xlink:href="#mc74e1b1e87" x="57.6" y="104.986932" style="stroke: #000000; stroke-width: 0.8"/>
      </g>
     </g>
     <g id="text_17">
      <!-- 1500 -->
      <g transform="translate(25.15 108.78615) scale(0.1 -0.1)">
       <use xlink:href="#DejaVuSans-31"/>
       <use xlink:href="#DejaVuSans-35" x="63.623047"/>
       <use xlink:href="#DejaVuSans-30" x="127.246094"/>
       <use xlink:href="#DejaVuSans-30" x="190.869141"/>
      </g>
     </g>
    </g>
    <g id="ytick_8">
     <g id="line2d_35">
      <path d="M 57.6 78.185117 
L 414.72 78.185117 
" clip-path="url(#p3138fc79c0)" style="fill: none; stroke-dasharray: 2.96,1.28; stroke-dashoffset: 0; stroke: #808080; stroke-width: 0.8"/>
     </g>
     <g id="line2d_36">
      <g>
       <use xlink:href="#mc74e1b1e87" x="57.6" y="78.185117" style="stroke: #000000; stroke-width: 0.8"/>
      </g>
     </g>
     <g id="text_18">
      <!-- 1750 -->
      <g transform="translate(25.15 81.984336) scale(0.1 -0.1)">
       <use xlink:href="#DejaVuSans-31"/>
       <use xlink:href="#DejaVuSans-37" x="63.623047"/>
       <use xlink:href="#DejaVuSans-35" x="127.246094"/>
       <use xlink:href="#DejaVuSans-30" x="190.869141"/>
      </g>
     </g>
    </g>
    <g id="ytick_9">
     <g id="line2d_37">
      <path d="M 57.6 51.383303 
L 414.72 51.383303 
" clip-path="url(#p3138fc79c0)" style="fill: none; stroke-dasharray: 2.96,1.28; stroke-dashoffset: 0; stroke: #808080; stroke-width: 0.8"/>
     </g>
     <g id="line2d_38">
      <g>
       <use xlink:href="#mc74e1b1e87" x="57.6" y="51.383303" style="stroke: #000000; stroke-width: 0.8"/>
      </g>
     </g>
     <g id="text_19">
      <!-- 2000 -->
      <g transform="translate(25.15 55.182521) scale(0.1 -0.1)">
       <use xlink:href="#DejaVuSans-32"/>
       <use xlink:href="#DejaVuSans-30" x="63.623047"/>
       <use xlink:href="#DejaVuSans-30" x="127.246094"/>
       <use xlink:href="#DejaVuSans-30" x="190.869141"/>
      </g>
     </g>
    </g>
    <g id="text_20">
     <!-- Inzidenz pro 7 Tage pro 100.000 Einwohner -->
     <g transform="translate(19.070312 267.301) rotate(-90) scale(0.1 -0.1)">
      <defs>
       <path id="DejaVuSans-49" d="M 628 4666 
L 1259 4666 
L 1259 0 
L 628 0 
L 628 4666 
z
" transform="scale(0.015625)"/>
       <path id="DejaVuSans-6e" d="M 3513 2113 
L 3513 0 
L 2938 0 
L 2938 2094 
Q 2938 2591 2744 2837 
Q 2550 3084 2163 3084 
Q 1697 3084 1428 2787 
Q 1159 2491 1159 1978 
L 1159 0 
L 581 0 
L 581 3500 
L 1159 3500 
L 1159 2956 
Q 1366 3272 1645 3428 
Q 1925 3584 2291 3584 
Q 2894 3584 3203 3211 
Q 3513 2838 3513 2113 
z
" transform="scale(0.015625)"/>
       <path id="DejaVuSans-7a" d="M 353 3500 
L 3084 3500 
L 3084 2975 
L 922 459 
L 3084 459 
L 3084 0 
L 275 0 
L 275 525 
L 2438 3041 
L 353 3041 
L 353 3500 
z
" transform="scale(0.015625)"/>
       <path id="DejaVuSans-69" d="M 603 3500 
L 1178 3500 
L 1178 0 
L 603 0 
L 603 3500 
z
M 603 4863 
L 1178 4863 
L 1178 4134 
L 603 4134 
L 603 4863 
z
" transform="scale(0.015625)"/>
       <path id="DejaVuSans-64" d="M 2906 2969 
L 2906 4863 
L 3481 4863 
L 3481 0 
L 2906 0 
L 2906 525 
Q 2725 213 2448 61 
Q 2172 -91 1784 -91 
Q 1150 -91 751 415 
Q 353 922 353 1747 
Q 353 2572 751 3078 
Q 1150 3584 1784 3584 
Q 2172 3584 2448 3432 
Q 2725 3281 2906 2969 
z
M 947 1747 
Q 947 1113 1208 752 
Q 1469 391 1925 391 
Q 2381 391 2643 752 
Q 2906 1113 2906 1747 
Q 2906 2381 2643 2742 
Q 2381 3103 1925 3103 
Q 1469 3103 1208 2742 
Q 947 2381 947 1747 
z
" transform="scale(0.015625)"/>
       <path id="DejaVuSans-65" d="M 3597 1894 
L 3597 1613 
L 953 1613 
Q 991 1019 1311 708 
Q 1631 397 2203 397 
Q 2534 397 2845 478 
Q 3156 559 3463 722 
L 3463 178 
Q 3153 47 2828 -22 
Q 2503 -91 2169 -91 
Q 1331 -91 842 396 
Q 353 884 353 1716 
Q 353 2575 817 3079 
Q 1281 3584 2069 3584 
Q 2775 3584 3186 3129 
Q 3597 2675 3597 1894 
z
M 3022 2063 
Q 3016 2534 2758 2815 
Q 2500 3097 2075 3097 
Q 1594 3097 1305 2825 
Q 1016 2553 972 2059 
L 3022 2063 
z
" transform="scale(0.015625)"/>
       <path id="DejaVuSans-20" transform="scale(0.015625)"/>
       <path id="DejaVuSans-70" d="M 1159 525 
L 1159 -1331 
L 581 -1331 
L 581 3500 
L 1159 3500 
L 1159 2969 
Q 1341 3281 1617 3432 
Q 1894 3584 2278 3584 
Q 2916 3584 3314 3078 
Q 3713 2572 3713 1747 
Q 3713 922 3314 415 
Q 2916 -91 2278 -91 
Q 1894 -91 1617 61 
Q 1341 213 1159 525 
z
M 3116 1747 
Q 3116 2381 2855 2742 
Q 2594 3103 2138 3103 
Q 1681 3103 1420 2742 
Q 1159 2381 1159 1747 
Q 1159 1113 1420 752 
Q 1681 391 2138 391 
Q 2594 391 2855 752 
Q 3116 1113 3116 1747 
z
" transform="scale(0.015625)"/>
       <path id="DejaVuSans-72" d="M 2631 2963 
Q 2534 3019 2420 3045 
Q 2306 3072 2169 3072 
Q 1681 3072 1420 2755 
Q 1159 2438 1159 1844 
L 1159 0 
L 581 0 
L 581 3500 
L 1159 3500 
L 1159 2956 
Q 1341 3275 1631 3429 
Q 1922 3584 2338 3584 
Q 2397 3584 2469 3576 
Q 2541 3569 2628 3553 
L 2631 2963 
z
" transform="scale(0.015625)"/>
       <path id="DejaVuSans-6f" d="M 1959 3097 
Q 1497 3097 1228 2736 
Q 959 2375 959 1747 
Q 959 1119 1226 758 
Q 1494 397 1959 397 
Q 2419 397 2687 759 
Q 2956 1122 2956 1747 
Q 2956 2369 2687 2733 
Q 2419 3097 1959 3097 
z
M 1959 3584 
Q 2709 3584 3137 3096 
Q 3566 2609 3566 1747 
Q 3566 888 3137 398 
Q 2709 -91 1959 -91 
Q 1206 -91 779 398 
Q 353 888 353 1747 
Q 353 2609 779 3096 
Q 1206 3584 1959 3584 
z
" transform="scale(0.015625)"/>
       <path id="DejaVuSans-54" d="M -19 4666 
L 3928 4666 
L 3928 4134 
L 2272 4134 
L 2272 0 
L 1638 0 
L 1638 4134 
L -19 4134 
L -19 4666 
z
" transform="scale(0.015625)"/>
       <path id="DejaVuSans-61" d="M 2194 1759 
Q 1497 1759 1228 1600 
Q 959 1441 959 1056 
Q 959 750 1161 570 
Q 1363 391 1709 391 
Q 2188 391 2477 730 
Q 2766 1069 2766 1631 
L 2766 1759 
L 2194 1759 
z
M 3341 1997 
L 3341 0 
L 2766 0 
L 2766 531 
Q 2569 213 2275 61 
Q 1981 -91 1556 -91 
Q 1019 -91 701 211 
Q 384 513 384 1019 
Q 384 1609 779 1909 
Q 1175 2209 1959 2209 
L 2766 2209 
L 2766 2266 
Q 2766 2663 2505 2880 
Q 2244 3097 1772 3097 
Q 1472 3097 1187 3025 
Q 903 2953 641 2809 
L 641 3341 
Q 956 3463 1253 3523 
Q 1550 3584 1831 3584 
Q 2591 3584 2966 3190 
Q 3341 2797 3341 1997 
z
" transform="scale(0.015625)"/>
       <path id="DejaVuSans-67" d="M 2906 1791 
Q 2906 2416 2648 2759 
Q 2391 3103 1925 3103 
Q 1463 3103 1205 2759 
Q 947 2416 947 1791 
Q 947 1169 1205 825 
Q 1463 481 1925 481 
Q 2391 481 2648 825 
Q 2906 1169 2906 1791 
z
M 3481 434 
Q 3481 -459 3084 -895 
Q 2688 -1331 1869 -1331 
Q 1566 -1331 1297 -1286 
Q 1028 -1241 775 -1147 
L 775 -588 
Q 1028 -725 1275 -790 
Q 1522 -856 1778 -856 
Q 2344 -856 2625 -561 
Q 2906 -266 2906 331 
L 2906 616 
Q 2728 306 2450 153 
Q 2172 0 1784 0 
Q 1141 0 747 490 
Q 353 981 353 1791 
Q 353 2603 747 3093 
Q 1141 3584 1784 3584 
Q 2172 3584 2450 3431 
Q 2728 3278 2906 2969 
L 2906 3500 
L 3481 3500 
L 3481 434 
z
" transform="scale(0.015625)"/>
       <path id="DejaVuSans-45" d="M 628 4666 
L 3578 4666 
L 3578 4134 
L 1259 4134 
L 1259 2753 
L 3481 2753 
L 3481 2222 
L 1259 2222 
L 1259 531 
L 3634 531 
L 3634 0 
L 628 0 
L 628 4666 
z
" transform="scale(0.015625)"/>
       <path id="DejaVuSans-77" d="M 269 3500 
L 844 3500 
L 1563 769 
L 2278 3500 
L 2956 3500 
L 3675 769 
L 4391 3500 
L 4966 3500 
L 4050 0 
L 3372 0 
L 2619 2869 
L 1863 0 
L 1184 0 
L 269 3500 
z
" transform="scale(0.015625)"/>
       <path id="DejaVuSans-68" d="M 3513 2113 
L 3513 0 
L 2938 0 
L 2938 2094 
Q 2938 2591 2744 2837 
Q 2550 3084 2163 3084 
Q 1697 3084 1428 2787 
Q 1159 2491 1159 1978 
L 1159 0 
L 581 0 
L 581 4863 
L 1159 4863 
L 1159 2956 
Q 1366 3272 1645 3428 
Q 1925 3584 2291 3584 
Q 2894 3584 3203 3211 
Q 3513 2838 3513 2113 
z
" transform="scale(0.015625)"/>
      </defs>
      <use xlink:href="#DejaVuSans-49"/>
      <use xlink:href="#DejaVuSans-6e" x="29.492188"/>
      <use xlink:href="#DejaVuSans-7a" x="92.871094"/>
      <use xlink:href="#DejaVuSans-69" x="145.361328"/>
      <use xlink:href="#DejaVuSans-64" x="173.144531"/>
      <use xlink:href="#DejaVuSans-65" x="236.621094"/>
      <use xlink:href="#DejaVuSans-6e" x="298.144531"/>
      <use xlink:href="#DejaVuSans-7a" x="361.523438"/>
      <use xlink:href="#DejaVuSans-20" x="414.013672"/>
      <use xlink:href="#DejaVuSans-70" x="445.800781"/>
      <use xlink:href="#DejaVuSans-72" x="509.277344"/>
      <use xlink:href="#DejaVuSans-6f" x="548.140625"/>
      <use xlink:href="#DejaVuSans-20" x="609.322266"/>
      <use xlink:href="#DejaVuSans-37" x="641.109375"/>
      <use xlink:href="#DejaVuSans-20" x="704.732422"/>
      <use xlink:href="#DejaVuSans-54" x="736.519531"/>
      <use xlink:href="#DejaVuSans-61" x="781.103516"/>
      <use xlink:href="#DejaVuSans-67" x="842.382812"/>
      <use xlink:href="#DejaVuSans-65" x="905.859375"/>
      <use xlink:href="#DejaVuSans-20" x="967.382812"/>
      <use xlink:href="#DejaVuSans-70" x="999.169922"/>
      <use xlink:href="#DejaVuSans-72" x="1062.646484"/>
      <use xlink:href="#DejaVuSans-6f" x="1101.509766"/>
      <use xlink:href="#DejaVuSans-20" x="1162.691406"/>
      <use xlink:href="#DejaVuSans-31" x="1194.478516"/>
      <use xlink:href="#DejaVuSans-30" x="1258.101562"/>
      <use xlink:href="#DejaVuSans-30" x="1321.724609"/>
      <use xlink:href="#DejaVuSans-2e" x="1385.347656"/>
      <use xlink:href="#DejaVuSans-30" x="1417.134766"/>
      <use xlink:href="#DejaVuSans-30" x="1480.757812"/>
      <use xlink:href="#DejaVuSans-30" x="1544.380859"/>
      <use xlink:href="#DejaVuSans-20" x="1608.003906"/>
      <use xlink:href="#DejaVuSans-45" x="1639.791016"/>
      <use xlink:href="#DejaVuSans-69" x="1702.974609"/>
      <use xlink:href="#DejaVuSans-6e" x="1730.757812"/>
      <use xlink:href="#DejaVuSans-77" x="1794.136719"/>
      <use xlink:href="#DejaVuSans-6f" x="1875.923828"/>
      <use xlink:href="#DejaVuSans-68" x="1937.105469"/>
      <use xlink:href="#DejaVuSans-6e" x="2000.484375"/>
      <use xlink:href="#DejaVuSans-65" x="2063.863281"/>
      <use xlink:href="#DejaVuSans-72" x="2125.386719"/>
     </g>
    </g>
   </g>
   <g id="line2d_39">
    <path d="M 73.832727 265.797818 
L 76.993921 265.691245 
L 77.31004 265.478099 
L 78.258398 265.193904 
L 78.574517 264.554465 
L 78.890636 264.625514 
L 79.206756 263.986075 
L 79.522875 264.199221 
L 79.838994 263.026916 
L 80.471233 262.849294 
L 80.787352 263.026916 
L 81.103472 262.671673 
L 81.419591 262.671673 
L 81.73571 262.103282 
L 82.05183 262.742721 
L 82.684068 262.778246 
L 83.000188 262.920343 
L 83.316307 262.707197 
L 83.948546 263.453209 
L 84.264665 263.772928 
L 84.580784 263.70188 
L 84.896904 263.097965 
L 85.213023 263.240063 
L 86.161381 262.991392 
L 86.4775 263.097965 
L 86.79362 263.346636 
L 87.109739 264.057123 
L 87.425858 264.092648 
L 87.741978 264.696562 
L 88.058097 264.980757 
L 88.374216 264.980757 
L 88.690335 265.122855 
L 89.322574 265.158379 
L 89.638693 265.300477 
L 90.270932 265.371526 
L 90.587051 265.584672 
L 90.903171 265.478099 
L 92.167648 265.513623 
L 93.748245 265.371526 
L 94.696603 265.478099 
L 95.012722 265.513623 
L 95.328841 265.762294 
L 95.96108 265.655721 
L 97.541677 265.549148 
L 98.173915 265.655721 
L 99.754512 265.726769 
L 106.076898 265.726769 
L 106.393018 265.549148 
L 107.973614 265.478099 
L 108.289734 265.40705 
L 108.605853 265.549148 
L 109.554211 265.513623 
L 109.87033 265.40705 
L 110.186449 265.478099 
L 110.818688 265.40705 
L 111.767046 265.442574 
L 112.083165 265.584672 
L 112.715404 265.620196 
L 113.663762 265.620196 
L 121.250626 265.549148 
L 121.882864 265.513623 
L 122.515103 265.513623 
L 122.831222 265.371526 
L 123.147342 264.767611 
L 123.77958 264.305794 
L 124.411819 264.128172 
L 124.727938 264.128172 
L 125.044058 264.305794 
L 125.360177 264.909709 
L 126.308535 265.513623 
L 129.153609 265.300477 
L 130.734206 265.620196 
L 132.630921 265.300477 
L 133.26316 265.264952 
L 134.843757 265.300477 
L 135.159876 265.442574 
L 138.321069 265.40705 
L 138.953308 265.229428 
L 140.217785 264.909709 
L 140.533905 264.554465 
L 141.482263 264.625514 
L 141.798382 264.234745 
L 142.114501 264.163697 
L 142.74674 264.27027 
L 143.695098 263.026916 
L 144.011217 263.240063 
L 144.959575 262.920343 
L 145.907933 263.026916 
L 146.224052 262.991392 
L 146.540172 262.742721 
L 147.17241 262.671673 
L 147.48853 262.351953 
L 147.804649 262.209856 
L 148.120768 261.605941 
L 148.436888 261.428319 
L 148.753007 261.428319 
L 149.385246 261.215173 
L 149.701365 260.717831 
L 150.017484 260.895453 
L 150.333604 260.149441 
L 150.649723 259.758673 
L 150.965842 258.941612 
L 151.281962 258.941612 
L 151.598081 258.053503 
L 151.9142 258.302173 
L 152.23032 257.556161 
L 152.546439 258.266649 
L 152.862558 257.662735 
L 153.178678 257.698259 
L 153.494797 256.881198 
L 153.810916 257.200918 
L 154.127035 257.023296 
L 154.443155 255.886515 
L 154.759274 255.531272 
L 155.075393 255.637845 
L 156.023751 256.597003 
L 156.339871 256.135186 
L 156.65599 257.094344 
L 156.972109 255.993089 
L 157.288229 256.028613 
L 157.604348 255.35365 
L 157.920467 255.35365 
L 158.868825 255.744418 
L 159.184945 256.987771 
L 159.501064 257.520637 
L 159.817183 258.337698 
L 160.133303 258.728466 
L 160.449422 258.550844 
L 160.765541 258.906088 
L 161.081661 258.408747 
L 161.39778 258.124552 
L 161.713899 257.591686 
L 163.294496 257.698259 
L 163.610615 257.165393 
L 163.926735 257.307491 
L 164.242854 255.424698 
L 165.507331 250.984151 
L 165.82345 251.090724 
L 166.13957 250.664431 
L 166.455689 251.090724 
L 166.771808 250.664431 
L 167.087928 251.374919 
L 167.404047 251.055199 
L 167.720166 252.689321 
L 168.352405 253.932674 
L 168.668524 255.744418 
L 168.984644 256.739101 
L 169.933002 254.145821 
L 170.56524 255.318125 
L 170.88136 255.424698 
L 171.197479 256.064137 
L 171.513598 256.099662 
L 171.829718 257.094344 
L 172.461956 253.861626 
L 172.778076 253.00904 
L 173.410314 252.618272 
L 173.726434 253.044565 
L 174.042553 253.115614 
L 174.358672 255.35365 
L 174.674792 256.064137 
L 174.990911 255.779942 
L 175.62315 256.135186 
L 175.939269 255.993089 
L 176.255388 256.454906 
L 176.571507 256.561479 
L 176.887627 256.525954 
L 177.203746 257.094344 
L 177.519865 256.810149 
L 178.152104 256.525954 
L 178.468223 257.37854 
L 178.784343 257.05882 
L 179.100462 257.05882 
L 179.732701 257.875881 
L 180.04882 257.591686 
L 180.364939 257.662735 
L 180.681059 257.343015 
L 180.997178 257.591686 
L 181.313297 258.444271 
L 181.629417 257.520637 
L 182.261655 257.698259 
L 182.893894 258.835039 
L 183.210013 259.261332 
L 183.526133 258.51532 
L 183.842252 259.332381 
L 184.158371 259.08371 
L 184.474491 259.403429 
L 184.79061 259.332381 
L 185.106729 258.941612 
L 185.422849 258.941612 
L 185.738968 259.545527 
L 186.055087 259.08371 
L 186.371207 259.403429 
L 186.687326 259.261332 
L 187.319564 260.256015 
L 187.635684 259.971819 
L 187.951803 259.865246 
L 188.267922 260.22049 
L 188.584042 259.971819 
L 188.900161 259.971819 
L 189.5324 258.550844 
L 189.848519 258.76399 
L 190.164638 258.51532 
L 190.480758 258.550844 
L 190.796877 258.373222 
L 191.112996 258.586369 
L 191.429116 258.586369 
L 191.745235 258.231125 
L 192.061354 258.089027 
L 192.377474 258.266649 
L 193.641951 257.840357 
L 193.95807 257.911405 
L 194.27419 256.739101 
L 194.590309 256.099662 
L 195.854786 255.850991 
L 196.170906 255.495747 
L 196.487025 254.927357 
L 196.803144 255.176028 
L 197.119264 254.962882 
L 197.435383 254.891833 
L 197.751502 254.998406 
L 198.067621 254.714211 
L 198.383741 254.856308 
L 199.015979 255.957564 
L 199.332099 256.348332 
L 199.648218 256.277284 
L 199.964337 256.383857 
L 200.280457 257.733783 
L 200.912695 258.799515 
L 201.544934 257.37854 
L 202.177173 257.307491 
L 202.493292 255.247077 
L 203.44165 253.648479 
L 203.757769 253.790577 
L 204.390008 251.907785 
L 204.706127 251.694638 
L 205.022247 252.156455 
L 205.338366 251.730163 
L 205.654485 251.62359 
L 205.970605 251.659114 
L 207.235082 254.252394 
L 207.867321 256.525954 
L 208.18344 256.668052 
L 208.499559 257.485113 
L 208.815678 257.485113 
L 209.131798 258.017978 
L 209.447917 257.804832 
L 209.764036 257.769308 
L 210.080156 258.160076 
L 210.712394 258.337698 
L 211.028514 258.160076 
L 211.660752 258.76399 
L 211.976872 260.078393 
L 212.60911 260.966502 
L 212.92523 261.002027 
L 213.241349 261.392795 
L 213.557468 261.570417 
L 213.873588 261.890136 
L 214.505826 261.286222 
L 214.821946 261.67699 
L 215.454184 261.854612 
L 215.770304 262.636148 
L 216.086423 262.849294 
L 217.3509 262.494051 
L 217.66702 261.996709 
L 218.615378 261.179648 
L 218.931497 261.463844 
L 219.247616 262.138807 
L 219.563736 262.138807 
L 220.512093 263.417685 
L 220.828213 264.27027 
L 221.144332 264.305794 
L 221.460451 264.199221 
L 222.724929 264.554465 
L 223.041048 264.767611 
L 223.357167 264.696562 
L 223.989406 264.767611 
L 224.621645 264.732087 
L 224.937764 265.016282 
L 225.570003 264.980757 
L 225.886122 264.767611 
L 226.83448 264.554465 
L 227.150599 264.163697 
L 228.098957 264.661038 
L 228.731196 264.661038 
L 229.679554 265.193904 
L 229.995673 265.087331 
L 230.627912 265.193904 
L 230.944031 265.122855 
L 231.57627 264.589989 
L 232.208508 264.696562 
L 232.524628 264.83866 
L 233.156866 264.945233 
L 233.789105 265.40705 
L 235.053582 264.661038 
L 235.369702 264.696562 
L 235.685821 264.554465 
L 236.00194 264.092648 
L 237.898656 263.559782 
L 238.214776 263.808453 
L 238.530895 263.630831 
L 239.163134 263.666355 
L 239.795372 263.240063 
L 240.111492 262.991392 
L 240.427611 263.133489 
L 241.375969 262.458526 
L 242.008207 262.280904 
L 243.272685 259.545527 
L 243.588804 259.687624 
L 243.904923 259.6521 
L 244.221043 259.048186 
L 244.537162 258.799515 
L 244.853281 259.012661 
L 245.169401 258.1956 
L 246.117759 257.129869 
L 246.749997 258.373222 
L 247.066117 258.337698 
L 247.382236 259.119234 
L 247.698355 258.941612 
L 248.014475 258.906088 
L 248.330594 258.621893 
L 248.962833 258.444271 
L 249.278952 257.875881 
L 249.595071 258.017978 
L 250.543429 259.332381 
L 250.859549 259.545527 
L 251.807907 261.428319 
L 252.124026 261.534892 
L 252.440145 261.250697 
L 253.072384 261.392795 
L 253.388503 260.682307 
L 253.704622 260.575734 
L 254.020742 260.184966 
L 254.336861 260.327063 
L 254.65298 260.149441 
L 254.9691 260.504685 
L 255.285219 260.362588 
L 255.601338 260.824405 
L 255.917458 260.646783 
L 256.233577 260.824405 
L 256.549696 260.78888 
L 256.865816 260.930978 
L 257.181935 260.930978 
L 257.498054 261.179648 
L 257.814174 260.859929 
L 258.130293 261.037551 
L 258.446412 260.824405 
L 258.762532 260.753356 
L 259.078651 261.144124 
L 259.39477 260.895453 
L 259.71089 260.859929 
L 260.343128 261.570417 
L 260.659248 262.174331 
L 260.975367 262.387477 
L 261.291486 261.67699 
L 261.923725 261.534892 
L 262.239844 261.179648 
L 262.555964 260.327063 
L 262.872083 258.941612 
L 263.188202 258.1956 
L 263.504322 258.479795 
L 263.820441 258.1956 
L 264.452679 257.165393 
L 264.768799 257.129869 
L 265.084918 257.343015 
L 265.717157 256.774625 
L 266.033276 256.135186 
L 266.349395 256.206235 
L 266.665515 257.05882 
L 266.981634 256.668052 
L 267.297753 255.708894 
L 267.613873 255.35365 
L 268.562231 255.850991 
L 268.87835 254.46554 
L 269.194469 253.790577 
L 269.510589 253.790577 
L 270.775066 249.918419 
L 271.407305 251.055199 
L 271.723424 251.517016 
L 272.039543 252.369602 
L 272.355663 252.902467 
L 272.671782 252.547224 
L 272.987901 252.014358 
L 273.936259 245.300249 
L 274.252379 244.767384 
L 274.568498 244.873957 
L 274.884617 245.513396 
L 275.200736 245.584445 
L 275.832975 244.09242 
L 276.149094 243.097738 
L 276.465214 240.149214 
L 276.781333 238.65719 
L 277.097452 237.911178 
L 277.413572 235.033703 
L 277.729691 233.328533 
L 278.04581 230.841826 
L 278.36193 226.934144 
L 278.678049 226.117083 
L 278.994168 226.827571 
L 279.310288 227.005192 
L 279.626407 225.371071 
L 279.942526 227.467009 
L 280.258646 227.538058 
L 280.574765 229.17218 
L 281.207004 229.918192 
L 281.523123 230.770777 
L 281.839242 230.806301 
L 282.155362 228.355119 
L 282.471481 229.456375 
L 283.10372 237.378312 
L 283.419839 237.413837 
L 283.735958 237.911178 
L 284.368197 246.11731 
L 284.684316 246.756749 
L 285.000436 245.691018 
L 285.632674 247.289615 
L 285.948793 247.254091 
L 286.581032 243.417457 
L 287.213271 240.824177 
L 287.52939 237.76908 
L 287.845509 237.058593 
L 288.161629 236.95202 
L 288.477748 236.454678 
L 288.793867 234.35874 
L 289.109987 235.531044 
L 289.426106 233.861398 
L 290.374464 227.71568 
L 291.006703 230.87735 
L 291.322822 229.491899 
L 291.638941 229.882667 
L 291.955061 213.186208 
L 292.27118 215.886061 
L 293.535657 168.567583 
L 293.851777 145.618832 
L 294.167896 136.631163 
L 294.484015 116.169119 
L 294.800135 117.092753 
L 295.432373 84.126126 
L 295.748493 63.628557 
L 296.064612 55.848718 
L 296.380731 59.791924 
L 296.69685 52.154182 
L 297.01297 54.711937 
L 297.329089 69.276934 
L 297.645208 63.16674 
L 297.961328 70.342666 
L 298.277447 84.978711 
L 298.593566 82.349907 
L 298.909686 83.309065 
L 299.225805 74.499018 
L 299.541924 81.461797 
L 299.858044 97.12805 
L 300.174163 97.625391 
L 300.490282 87.64304 
L 301.43864 109.419486 
L 301.75476 108.318231 
L 302.070879 108.353755 
L 302.386998 111.266754 
L 302.703118 121.639874 
L 303.019237 120.964911 
L 303.335356 122.954276 
L 303.651476 131.622225 
L 303.967595 134.073408 
L 304.283714 133.36292 
L 304.599834 134.641798 
L 304.915953 129.135519 
L 305.232072 126.009373 
L 305.548192 124.588398 
L 305.864311 117.696668 
L 306.49655 109.881303 
L 307.444907 87.32332 
L 307.761027 92.154637 
L 308.077146 91.621771 
L 308.393265 80.111871 
L 308.709385 76.843628 
L 309.025504 64.94296 
L 309.341623 61.390521 
L 309.657743 65.795545 
L 309.973862 57.767034 
L 310.606101 65.582398 
L 310.92222 60.786607 
L 311.238339 65.546874 
L 311.554459 65.973167 
L 311.870578 66.932325 
L 312.186697 69.24141 
L 312.502817 69.205885 
L 312.818936 79.117188 
L 313.135055 84.197175 
L 313.451175 91.977015 
L 314.083413 118.868972 
L 314.715652 131.835372 
L 315.031771 131.480128 
L 315.347891 138.194236 
L 315.66401 153.434196 
L 315.980129 155.565659 
L 316.296249 159.650963 
L 316.612368 157.128732 
L 316.928487 155.849854 
L 317.560726 164.588852 
L 317.876845 164.304657 
L 318.192965 164.659901 
L 318.509084 171.800302 
L 318.825203 182.102373 
L 319.141322 180.468251 
L 319.773561 187.217884 
L 321.038038 172.226595 
L 321.354158 174.961972 
L 321.670277 165.974303 
L 321.986396 167.217657 
L 322.302516 173.789668 
L 322.618635 186.471872 
L 322.934754 190.308505 
L 323.250874 190.699274 
L 323.566993 190.663749 
L 324.515351 201.53421 
L 324.83147 202.457844 
L 325.779828 207.218111 
L 326.095948 207.573355 
L 326.412067 212.156001 
L 327.044306 214.855854 
L 327.360425 214.536134 
L 327.676544 216.20578 
L 327.992664 216.170256 
L 328.308783 216.632073 
L 328.624902 216.845219 
L 329.257141 223.488279 
L 329.57326 226.756522 
L 329.889379 228.461692 
L 330.205499 228.674838 
L 330.521618 230.415533 
L 330.837737 236.667825 
L 331.153857 238.799287 
L 331.469976 243.595079 
L 331.786095 246.11731 
L 332.102215 245.335774 
L 332.418334 245.016054 
L 332.734453 245.335774 
L 333.366692 241.037324 
L 333.998931 227.680156 
L 334.31505 227.573583 
L 334.631169 227.14729 
L 334.947289 230.699728 
L 335.263408 227.928826 
L 335.895647 214.287464 
L 336.527885 210.841598 
L 336.844005 210.806074 
L 337.476243 192.404444 
L 337.792363 190.734798 
L 338.108482 201.463161 
L 338.424601 204.731405 
L 338.740721 204.482734 
L 339.05684 204.376161 
L 339.372959 202.031552 
L 339.689079 197.448906 
L 340.637436 174.144911 
L 340.953556 171.267436 
L 341.269675 171.764778 
L 342.534152 186.081104 
L 342.850272 181.533983 
L 343.166391 185.796909 
L 343.48251 183.523348 
L 343.79863 184.446982 
L 344.430868 192.262346 
L 344.746988 188.638859 
L 345.063107 197.484431 
L 345.379226 196.241077 
L 345.695346 197.23576 
L 346.011465 199.331699 
L 346.327584 200.077711 
L 346.643704 201.214491 
L 346.959823 204.340636 
L 347.275942 201.711832 
L 347.592062 204.376161 
L 347.908181 205.832661 
L 348.2243 199.118552 
L 348.856539 204.944551 
L 349.172658 205.26427 
L 349.488778 206.756294 
L 349.804897 205.26427 
L 350.121016 205.193222 
L 350.437136 210.415306 
L 350.753255 211.481037 
L 351.069374 214.713756 
L 351.701613 226.436802 
L 352.017732 228.213021 
L 352.333851 228.532741 
L 352.649971 229.349802 
L 353.282209 234.145593 
L 353.598329 231.907557 
L 353.914448 232.262801 
L 354.230567 232.866716 
L 354.546687 232.085179 
L 354.862806 234.820557 
L 355.178925 235.282374 
L 355.495045 234.713983 
L 355.811164 237.378312 
L 356.127283 236.490203 
L 356.443403 236.277056 
L 356.759522 237.129642 
L 357.075641 235.246849 
L 357.391761 235.49552 
L 357.70788 235.992861 
L 358.023999 235.246849 
L 358.656238 236.277056 
L 358.972357 236.06391 
L 359.288477 237.626983 
L 359.604596 237.733556 
L 360.236835 238.65719 
L 360.552954 240.575507 
L 360.869073 240.824177 
L 361.185193 240.93075 
L 361.501312 240.078165 
L 362.133551 243.417457 
L 362.44967 245.051579 
L 362.765789 243.381933 
L 363.081908 243.133262 
L 363.398028 243.133262 
L 363.714147 245.691018 
L 364.030266 246.365981 
L 364.346386 248.213249 
L 364.662505 249.136883 
L 364.978624 251.694638 
L 365.294744 252.298553 
L 365.610863 252.19198 
L 365.926982 252.369602 
L 366.243102 252.866943 
L 366.559221 249.953944 
L 366.87534 249.27898 
L 367.19146 247.396188 
L 367.507579 246.188359 
L 367.823698 245.833115 
L 368.139818 245.797591 
L 368.455937 244.09242 
L 368.772056 244.554237 
L 369.088176 244.198994 
L 369.720414 241.214945 
L 370.036534 241.001799 
L 370.352653 238.230897 
L 370.668772 238.053275 
L 371.301011 232.90224 
L 371.61713 231.800984 
L 371.93325 232.156228 
L 372.249369 232.120704 
L 372.565488 236.703349 
L 372.881608 232.653569 
L 373.513846 227.324912 
L 373.829965 222.351498 
L 374.146085 219.616121 
L 374.462204 219.083255 
L 374.778323 213.896695 
L 375.094443 214.216415 
L 375.410562 211.33894 
L 376.042801 216.5255 
L 376.35892 218.053048 
L 376.675039 218.372768 
L 376.991159 214.50061 
L 377.307278 213.04411 
L 377.623397 214.820329 
L 377.939517 211.800757 
L 378.255636 211.658659 
L 378.571755 212.902013 
L 378.887875 212.333623 
L 379.203994 215.708439 
L 379.520113 215.388719 
L 379.836233 218.479341 
L 380.152352 219.11878 
L 380.468471 220.752901 
L 380.784591 221.001572 
L 381.10071 220.362133 
L 381.416829 220.894999 
L 381.732949 228.959034 
L 382.049068 230.380009 
L 382.365187 234.03902 
L 382.681307 234.749508 
L 382.997426 235.886288 
L 383.629665 239.261104 
L 383.945784 236.348105 
L 384.261903 235.246849 
L 384.578022 235.708666 
L 384.894142 237.129642 
L 385.210261 235.957337 
L 385.52638 235.637617 
L 386.158619 235.424471 
L 386.474738 237.840129 
L 386.790858 238.0888 
L 387.106977 238.586141 
L 387.423096 239.438726 
L 388.055335 240.078165 
L 388.371454 241.747811 
L 388.687574 241.712287 
L 389.319812 243.595079 
L 389.635932 244.163469 
L 389.952051 244.341091 
L 390.26817 244.731859 
L 390.58429 243.27536 
L 390.900409 244.518713 
L 391.216528 243.595079 
L 391.532648 243.808225 
L 392.164886 243.168787 
L 392.481006 243.346408 
L 392.797125 244.021372 
L 393.113244 244.163469 
L 393.429364 243.488506 
L 393.745483 243.808225 
L 394.377722 244.127945 
L 394.693841 244.021372 
L 395.00996 244.838433 
L 395.326079 243.808225 
L 395.642199 245.513396 
L 395.958318 242.884591 
L 396.274437 243.310884 
L 396.590557 243.488506 
L 396.906676 243.381933 
L 397.222795 243.52403 
L 397.538915 242.813543 
L 397.855034 241.641238 
L 398.171153 245.335774 
L 398.487273 246.43703 
L 398.487273 246.43703 
" clip-path="url(#p3138fc79c0)" style="fill: none; stroke: #1f77b4; stroke-width: 1.5; stroke-linecap: square"/>
   </g>
   <g id="patch_3">
    <path d="M 57.6 276.48 
L 57.6 41.472 
" style="fill: none; stroke: #000000; stroke-width: 0.8; stroke-linejoin: miter; stroke-linecap: square"/>
   </g>
   <g id="patch_4">
    <path d="M 414.72 276.48 
L 414.72 41.472 
" style="fill: none; stroke: #000000; stroke-width: 0.8; stroke-linejoin: miter; stroke-linecap: square"/>
   </g>
   <g id="patch_5">
    <path d="M 57.6 276.48 
L 414.72 276.48 
" style="fill: none; stroke: #000000; stroke-width: 0.8; stroke-linejoin: miter; stroke-linecap: square"/>
   </g>
   <g id="patch_6">
    <path d="M 57.6 41.472 
L 414.72 41.472 
" style="fill: none; stroke: #000000; stroke-width: 0.8; stroke-linejoin: miter; stroke-linecap: square"/>
   </g>
  </g>
  <g id="text_21">
   <!-- Inzidenzverlauf LK Soest -->
   <g transform="translate(120.074063 20.589187) scale(0.18 -0.18)">
    <defs>
     <path id="DejaVuSans-76" d="M 191 3500 
L 800 3500 
L 1894 563 
L 2988 3500 
L 3597 3500 
L 2284 0 
L 1503 0 
L 191 3500 
z
" transform="scale(0.015625)"/>
     <path id="DejaVuSans-6c" d="M 603 4863 
L 1178 4863 
L 1178 0 
L 603 0 
L 603 4863 
z
" transform="scale(0.015625)"/>
     <path id="DejaVuSans-75" d="M 544 1381 
L 544 3500 
L 1119 3500 
L 1119 1403 
Q 1119 906 1312 657 
Q 1506 409 1894 409 
Q 2359 409 2629 706 
Q 2900 1003 2900 1516 
L 2900 3500 
L 3475 3500 
L 3475 0 
L 2900 0 
L 2900 538 
Q 2691 219 2414 64 
Q 2138 -91 1772 -91 
Q 1169 -91 856 284 
Q 544 659 544 1381 
z
M 1991 3584 
L 1991 3584 
z
" transform="scale(0.015625)"/>
     <path id="DejaVuSans-66" d="M 2375 4863 
L 2375 4384 
L 1825 4384 
Q 1516 4384 1395 4259 
Q 1275 4134 1275 3809 
L 1275 3500 
L 2222 3500 
L 2222 3053 
L 1275 3053 
L 1275 0 
L 697 0 
L 697 3053 
L 147 3053 
L 147 3500 
L 697 3500 
L 697 3744 
Q 697 4328 969 4595 
Q 1241 4863 1831 4863 
L 2375 4863 
z
" transform="scale(0.015625)"/>
     <path id="DejaVuSans-4c" d="M 628 4666 
L 1259 4666 
L 1259 531 
L 3531 531 
L 3531 0 
L 628 0 
L 628 4666 
z
" transform="scale(0.015625)"/>
     <path id="DejaVuSans-4b" d="M 628 4666 
L 1259 4666 
L 1259 2694 
L 3353 4666 
L 4166 4666 
L 1850 2491 
L 4331 0 
L 3500 0 
L 1259 2247 
L 1259 0 
L 628 0 
L 628 4666 
z
" transform="scale(0.015625)"/>
     <path id="DejaVuSans-53" d="M 3425 4513 
L 3425 3897 
Q 3066 4069 2747 4153 
Q 2428 4238 2131 4238 
Q 1616 4238 1336 4038 
Q 1056 3838 1056 3469 
Q 1056 3159 1242 3001 
Q 1428 2844 1947 2747 
L 2328 2669 
Q 3034 2534 3370 2195 
Q 3706 1856 3706 1288 
Q 3706 609 3251 259 
Q 2797 -91 1919 -91 
Q 1588 -91 1214 -16 
Q 841 59 441 206 
L 441 856 
Q 825 641 1194 531 
Q 1563 422 1919 422 
Q 2459 422 2753 634 
Q 3047 847 3047 1241 
Q 3047 1584 2836 1778 
Q 2625 1972 2144 2069 
L 1759 2144 
Q 1053 2284 737 2584 
Q 422 2884 422 3419 
Q 422 4038 858 4394 
Q 1294 4750 2059 4750 
Q 2388 4750 2728 4690 
Q 3069 4631 3425 4513 
z
" transform="scale(0.015625)"/>
     <path id="DejaVuSans-73" d="M 2834 3397 
L 2834 2853 
Q 2591 2978 2328 3040 
Q 2066 3103 1784 3103 
Q 1356 3103 1142 2972 
Q 928 2841 928 2578 
Q 928 2378 1081 2264 
Q 1234 2150 1697 2047 
L 1894 2003 
Q 2506 1872 2764 1633 
Q 3022 1394 3022 966 
Q 3022 478 2636 193 
Q 2250 -91 1575 -91 
Q 1294 -91 989 -36 
Q 684 19 347 128 
L 347 722 
Q 666 556 975 473 
Q 1284 391 1588 391 
Q 1994 391 2212 530 
Q 2431 669 2431 922 
Q 2431 1156 2273 1281 
Q 2116 1406 1581 1522 
L 1381 1569 
Q 847 1681 609 1914 
Q 372 2147 372 2553 
Q 372 3047 722 3315 
Q 1072 3584 1716 3584 
Q 2034 3584 2315 3537 
Q 2597 3491 2834 3397 
z
" transform="scale(0.015625)"/>
     <path id="DejaVuSans-74" d="M 1172 4494 
L 1172 3500 
L 2356 3500 
L 2356 3053 
L 1172 3053 
L 1172 1153 
Q 1172 725 1289 603 
Q 1406 481 1766 481 
L 2356 481 
L 2356 0 
L 1766 0 
Q 1100 0 847 248 
Q 594 497 594 1153 
L 594 3053 
L 172 3053 
L 172 3500 
L 594 3500 
L 594 4494 
L 1172 4494 
z
" transform="scale(0.015625)"/>
    </defs>
    <use xlink:href="#DejaVuSans-49"/>
    <use xlink:href="#DejaVuSans-6e" x="29.492188"/>
    <use xlink:href="#DejaVuSans-7a" x="92.871094"/>
    <use xlink:href="#DejaVuSans-69" x="145.361328"/>
    <use xlink:href="#DejaVuSans-64" x="173.144531"/>
    <use xlink:href="#DejaVuSans-65" x="236.621094"/>
    <use xlink:href="#DejaVuSans-6e" x="298.144531"/>
    <use xlink:href="#DejaVuSans-7a" x="361.523438"/>
    <use xlink:href="#DejaVuSans-76" x="414.013672"/>
    <use xlink:href="#DejaVuSans-65" x="473.193359"/>
    <use xlink:href="#DejaVuSans-72" x="534.716797"/>
    <use xlink:href="#DejaVuSans-6c" x="575.830078"/>
    <use xlink:href="#DejaVuSans-61" x="603.613281"/>
    <use xlink:href="#DejaVuSans-75" x="664.892578"/>
    <use xlink:href="#DejaVuSans-66" x="728.271484"/>
    <use xlink:href="#DejaVuSans-20" x="763.476562"/>
    <use xlink:href="#DejaVuSans-4c" x="795.263672"/>
    <use xlink:href="#DejaVuSans-4b" x="850.976562"/>
    <use xlink:href="#DejaVuSans-20" x="916.552734"/>
    <use xlink:href="#DejaVuSans-53" x="948.339844"/>
    <use xlink:href="#DejaVuSans-6f" x="1011.816406"/>
    <use xlink:href="#DejaVuSans-65" x="1072.998047"/>
    <use xlink:href="#DejaVuSans-73" x="1134.521484"/>
    <use xlink:href="#DejaVuSans-74" x="1186.621094"/>
   </g>
  </g>
 </g>
 <defs>
  <clipPath id="p3138fc79c0">
   <rect x="57.6" y="41.472" width="357.12" height="235.008"/>
  </clipPath>
 </defs>
</svg>
