<?xml version="1.0" encoding="utf-8" standalone="no"?>
<!DOCTYPE svg PUBLIC "-//W3C//DTD SVG 1.1//EN"
  "http://www.w3.org/Graphics/SVG/1.1/DTD/svg11.dtd">
<svg xmlns:xlink="http://www.w3.org/1999/xlink" width="460.8pt" height="345.6pt" viewBox="0 0 460.8 345.6" xmlns="http://www.w3.org/2000/svg" version="1.1">
 <metadata>
  <rdf:RDF xmlns:dc="http://purl.org/dc/elements/1.1/" xmlns:cc="http://creativecommons.org/ns#" xmlns:rdf="http://www.w3.org/1999/02/22-rdf-syntax-ns#">
   <cc:Work>
    <dc:type rdf:resource="http://purl.org/dc/dcmitype/StillImage"/>
    <dc:date>2022-08-31T09:25:20.460356</dc:date>
    <dc:format>image/svg+xml</dc:format>
    <dc:creator>
     <cc:Agent>
      <dc:title>Matplotlib v3.5.3, https://matplotlib.org/</dc:title>
     </cc:Agent>
    </dc:creator>
   </cc:Work>
  </rdf:RDF>
 </metadata>
 <defs>
  <style type="text/css">*{stroke-linejoin: round; stroke-linecap: butt}</style>
 </defs>
 <g id="figure_1">
  <g id="patch_1">
   <path d="M 0 345.6 
L 460.8 345.6 
L 460.8 0 
L 0 0 
z
" style="fill: #ffffff"/>
  </g>
  <g id="axes_1">
   <g id="patch_2">
    <path d="M 57.6 276.48 
L 414.72 276.48 
L 414.72 41.472 
L 57.6 41.472 
z
" style="fill: #ffffff"/>
   </g>
   <g id="matplotlib.axis_1">
    <g id="xtick_1">
     <g id="line2d_1">
      <path d="M 60.038176 276.48 
L 60.038176 41.472 
" clip-path="url(#pa281d46342)" style="fill: none; stroke-dasharray: 2.96,1.28; stroke-dashoffset: 0; stroke: #808080; stroke-width: 0.8"/>
     </g>
     <g id="line2d_2">
      <defs>
       <path id="ma3c500ae0c" d="M 0 0 
L 0 3.5 
" style="stroke: #000000; stroke-width: 0.8"/>
      </defs>
      <g>
       <use xlink:href="#ma3c500ae0c" x="60.038176" y="276.48" style="stroke: #000000; stroke-width: 0.8"/>
      </g>
     </g>
     <g id="text_1">
      <!-- 24.01.2020 -->
      <g transform="translate(9.412965 318.688565)rotate(-30)scale(0.1 -0.1)">
       <defs>
        <path id="DejaVuSans-32" d="M 1228 531 
L 3431 531 
L 3431 0 
L 469 0 
L 469 531 
Q 828 903 1448 1529 
Q 2069 2156 2228 2338 
Q 2531 2678 2651 2914 
Q 2772 3150 2772 3378 
Q 2772 3750 2511 3984 
Q 2250 4219 1831 4219 
Q 1534 4219 1204 4116 
Q 875 4013 500 3803 
L 500 4441 
Q 881 4594 1212 4672 
Q 1544 4750 1819 4750 
Q 2544 4750 2975 4387 
Q 3406 4025 3406 3419 
Q 3406 3131 3298 2873 
Q 3191 2616 2906 2266 
Q 2828 2175 2409 1742 
Q 1991 1309 1228 531 
z
" transform="scale(0.015625)"/>
        <path id="DejaVuSans-34" d="M 2419 4116 
L 825 1625 
L 2419 1625 
L 2419 4116 
z
M 2253 4666 
L 3047 4666 
L 3047 1625 
L 3713 1625 
L 3713 1100 
L 3047 1100 
L 3047 0 
L 2419 0 
L 2419 1100 
L 313 1100 
L 313 1709 
L 2253 4666 
z
" transform="scale(0.015625)"/>
        <path id="DejaVuSans-2e" d="M 684 794 
L 1344 794 
L 1344 0 
L 684 0 
L 684 794 
z
" transform="scale(0.015625)"/>
        <path id="DejaVuSans-30" d="M 2034 4250 
Q 1547 4250 1301 3770 
Q 1056 3291 1056 2328 
Q 1056 1369 1301 889 
Q 1547 409 2034 409 
Q 2525 409 2770 889 
Q 3016 1369 3016 2328 
Q 3016 3291 2770 3770 
Q 2525 4250 2034 4250 
z
M 2034 4750 
Q 2819 4750 3233 4129 
Q 3647 3509 3647 2328 
Q 3647 1150 3233 529 
Q 2819 -91 2034 -91 
Q 1250 -91 836 529 
Q 422 1150 422 2328 
Q 422 3509 836 4129 
Q 1250 4750 2034 4750 
z
" transform="scale(0.015625)"/>
        <path id="DejaVuSans-31" d="M 794 531 
L 1825 531 
L 1825 4091 
L 703 3866 
L 703 4441 
L 1819 4666 
L 2450 4666 
L 2450 531 
L 3481 531 
L 3481 0 
L 794 0 
L 794 531 
z
" transform="scale(0.015625)"/>
       </defs>
       <use xlink:href="#DejaVuSans-32"/>
       <use xlink:href="#DejaVuSans-34" x="63.623047"/>
       <use xlink:href="#DejaVuSans-2e" x="127.246094"/>
       <use xlink:href="#DejaVuSans-30" x="159.033203"/>
       <use xlink:href="#DejaVuSans-31" x="222.65625"/>
       <use xlink:href="#DejaVuSans-2e" x="286.279297"/>
       <use xlink:href="#DejaVuSans-32" x="318.066406"/>
       <use xlink:href="#DejaVuSans-30" x="381.689453"/>
       <use xlink:href="#DejaVuSans-32" x="445.3125"/>
       <use xlink:href="#DejaVuSans-30" x="508.935547"/>
      </g>
     </g>
    </g>
    <g id="xtick_2">
     <g id="line2d_3">
      <path d="M 96.031709 276.48 
L 96.031709 41.472 
" clip-path="url(#pa281d46342)" style="fill: none; stroke-dasharray: 2.96,1.28; stroke-dashoffset: 0; stroke: #808080; stroke-width: 0.8"/>
     </g>
     <g id="line2d_4">
      <g>
       <use xlink:href="#ma3c500ae0c" x="96.031709" y="276.48" style="stroke: #000000; stroke-width: 0.8"/>
      </g>
     </g>
     <g id="text_2">
      <!-- 04.05.2020 -->
      <g transform="translate(45.406499 318.688565)rotate(-30)scale(0.1 -0.1)">
       <defs>
        <path id="DejaVuSans-35" d="M 691 4666 
L 3169 4666 
L 3169 4134 
L 1269 4134 
L 1269 2991 
Q 1406 3038 1543 3061 
Q 1681 3084 1819 3084 
Q 2600 3084 3056 2656 
Q 3513 2228 3513 1497 
Q 3513 744 3044 326 
Q 2575 -91 1722 -91 
Q 1428 -91 1123 -41 
Q 819 9 494 109 
L 494 744 
Q 775 591 1075 516 
Q 1375 441 1709 441 
Q 2250 441 2565 725 
Q 2881 1009 2881 1497 
Q 2881 1984 2565 2268 
Q 2250 2553 1709 2553 
Q 1456 2553 1204 2497 
Q 953 2441 691 2322 
L 691 4666 
z
" transform="scale(0.015625)"/>
       </defs>
       <use xlink:href="#DejaVuSans-30"/>
       <use xlink:href="#DejaVuSans-34" x="63.623047"/>
       <use xlink:href="#DejaVuSans-2e" x="127.246094"/>
       <use xlink:href="#DejaVuSans-30" x="159.033203"/>
       <use xlink:href="#DejaVuSans-35" x="222.65625"/>
       <use xlink:href="#DejaVuSans-2e" x="286.279297"/>
       <use xlink:href="#DejaVuSans-32" x="318.066406"/>
       <use xlink:href="#DejaVuSans-30" x="381.689453"/>
       <use xlink:href="#DejaVuSans-32" x="445.3125"/>
       <use xlink:href="#DejaVuSans-30" x="508.935547"/>
      </g>
     </g>
    </g>
    <g id="xtick_3">
     <g id="line2d_5">
      <path d="M 132.025243 276.48 
L 132.025243 41.472 
" clip-path="url(#pa281d46342)" style="fill: none; stroke-dasharray: 2.96,1.28; stroke-dashoffset: 0; stroke: #808080; stroke-width: 0.8"/>
     </g>
     <g id="line2d_6">
      <g>
       <use xlink:href="#ma3c500ae0c" x="132.025243" y="276.48" style="stroke: #000000; stroke-width: 0.8"/>
      </g>
     </g>
     <g id="text_3">
      <!-- 13.08.2020 -->
      <g transform="translate(81.400032 318.688565)rotate(-30)scale(0.1 -0.1)">
       <defs>
        <path id="DejaVuSans-33" d="M 2597 2516 
Q 3050 2419 3304 2112 
Q 3559 1806 3559 1356 
Q 3559 666 3084 287 
Q 2609 -91 1734 -91 
Q 1441 -91 1130 -33 
Q 819 25 488 141 
L 488 750 
Q 750 597 1062 519 
Q 1375 441 1716 441 
Q 2309 441 2620 675 
Q 2931 909 2931 1356 
Q 2931 1769 2642 2001 
Q 2353 2234 1838 2234 
L 1294 2234 
L 1294 2753 
L 1863 2753 
Q 2328 2753 2575 2939 
Q 2822 3125 2822 3475 
Q 2822 3834 2567 4026 
Q 2313 4219 1838 4219 
Q 1578 4219 1281 4162 
Q 984 4106 628 3988 
L 628 4550 
Q 988 4650 1302 4700 
Q 1616 4750 1894 4750 
Q 2613 4750 3031 4423 
Q 3450 4097 3450 3541 
Q 3450 3153 3228 2886 
Q 3006 2619 2597 2516 
z
" transform="scale(0.015625)"/>
        <path id="DejaVuSans-38" d="M 2034 2216 
Q 1584 2216 1326 1975 
Q 1069 1734 1069 1313 
Q 1069 891 1326 650 
Q 1584 409 2034 409 
Q 2484 409 2743 651 
Q 3003 894 3003 1313 
Q 3003 1734 2745 1975 
Q 2488 2216 2034 2216 
z
M 1403 2484 
Q 997 2584 770 2862 
Q 544 3141 544 3541 
Q 544 4100 942 4425 
Q 1341 4750 2034 4750 
Q 2731 4750 3128 4425 
Q 3525 4100 3525 3541 
Q 3525 3141 3298 2862 
Q 3072 2584 2669 2484 
Q 3125 2378 3379 2068 
Q 3634 1759 3634 1313 
Q 3634 634 3220 271 
Q 2806 -91 2034 -91 
Q 1263 -91 848 271 
Q 434 634 434 1313 
Q 434 1759 690 2068 
Q 947 2378 1403 2484 
z
M 1172 3481 
Q 1172 3119 1398 2916 
Q 1625 2713 2034 2713 
Q 2441 2713 2670 2916 
Q 2900 3119 2900 3481 
Q 2900 3844 2670 4047 
Q 2441 4250 2034 4250 
Q 1625 4250 1398 4047 
Q 1172 3844 1172 3481 
z
" transform="scale(0.015625)"/>
       </defs>
       <use xlink:href="#DejaVuSans-31"/>
       <use xlink:href="#DejaVuSans-33" x="63.623047"/>
       <use xlink:href="#DejaVuSans-2e" x="127.246094"/>
       <use xlink:href="#DejaVuSans-30" x="159.033203"/>
       <use xlink:href="#DejaVuSans-38" x="222.65625"/>
       <use xlink:href="#DejaVuSans-2e" x="286.279297"/>
       <use xlink:href="#DejaVuSans-32" x="318.066406"/>
       <use xlink:href="#DejaVuSans-30" x="381.689453"/>
       <use xlink:href="#DejaVuSans-32" x="445.3125"/>
       <use xlink:href="#DejaVuSans-30" x="508.935547"/>
      </g>
     </g>
    </g>
    <g id="xtick_4">
     <g id="line2d_7">
      <path d="M 168.018777 276.48 
L 168.018777 41.472 
" clip-path="url(#pa281d46342)" style="fill: none; stroke-dasharray: 2.96,1.28; stroke-dashoffset: 0; stroke: #808080; stroke-width: 0.8"/>
     </g>
     <g id="line2d_8">
      <g>
       <use xlink:href="#ma3c500ae0c" x="168.018777" y="276.48" style="stroke: #000000; stroke-width: 0.8"/>
      </g>
     </g>
     <g id="text_4">
      <!-- 22.11.2020 -->
      <g transform="translate(117.393566 318.688565)rotate(-30)scale(0.1 -0.1)">
       <use xlink:href="#DejaVuSans-32"/>
       <use xlink:href="#DejaVuSans-32" x="63.623047"/>
       <use xlink:href="#DejaVuSans-2e" x="127.246094"/>
       <use xlink:href="#DejaVuSans-31" x="159.033203"/>
       <use xlink:href="#DejaVuSans-31" x="222.65625"/>
       <use xlink:href="#DejaVuSans-2e" x="286.279297"/>
       <use xlink:href="#DejaVuSans-32" x="318.066406"/>
       <use xlink:href="#DejaVuSans-30" x="381.689453"/>
       <use xlink:href="#DejaVuSans-32" x="445.3125"/>
       <use xlink:href="#DejaVuSans-30" x="508.935547"/>
      </g>
     </g>
    </g>
    <g id="xtick_5">
     <g id="line2d_9">
      <path d="M 204.01231 276.48 
L 204.01231 41.472 
" clip-path="url(#pa281d46342)" style="fill: none; stroke-dasharray: 2.96,1.28; stroke-dashoffset: 0; stroke: #808080; stroke-width: 0.8"/>
     </g>
     <g id="line2d_10">
      <g>
       <use xlink:href="#ma3c500ae0c" x="204.01231" y="276.48" style="stroke: #000000; stroke-width: 0.8"/>
      </g>
     </g>
     <g id="text_5">
      <!-- 03.03.2021 -->
      <g transform="translate(153.387099 318.688565)rotate(-30)scale(0.1 -0.1)">
       <use xlink:href="#DejaVuSans-30"/>
       <use xlink:href="#DejaVuSans-33" x="63.623047"/>
       <use xlink:href="#DejaVuSans-2e" x="127.246094"/>
       <use xlink:href="#DejaVuSans-30" x="159.033203"/>
       <use xlink:href="#DejaVuSans-33" x="222.65625"/>
       <use xlink:href="#DejaVuSans-2e" x="286.279297"/>
       <use xlink:href="#DejaVuSans-32" x="318.066406"/>
       <use xlink:href="#DejaVuSans-30" x="381.689453"/>
       <use xlink:href="#DejaVuSans-32" x="445.3125"/>
       <use xlink:href="#DejaVuSans-31" x="508.935547"/>
      </g>
     </g>
    </g>
    <g id="xtick_6">
     <g id="line2d_11">
      <path d="M 240.005844 276.48 
L 240.005844 41.472 
" clip-path="url(#pa281d46342)" style="fill: none; stroke-dasharray: 2.96,1.28; stroke-dashoffset: 0; stroke: #808080; stroke-width: 0.8"/>
     </g>
     <g id="line2d_12">
      <g>
       <use xlink:href="#ma3c500ae0c" x="240.005844" y="276.48" style="stroke: #000000; stroke-width: 0.8"/>
      </g>
     </g>
     <g id="text_6">
      <!-- 12.06.2021 -->
      <g transform="translate(189.380633 318.688565)rotate(-30)scale(0.1 -0.1)">
       <defs>
        <path id="DejaVuSans-36" d="M 2113 2584 
Q 1688 2584 1439 2293 
Q 1191 2003 1191 1497 
Q 1191 994 1439 701 
Q 1688 409 2113 409 
Q 2538 409 2786 701 
Q 3034 994 3034 1497 
Q 3034 2003 2786 2293 
Q 2538 2584 2113 2584 
z
M 3366 4563 
L 3366 3988 
Q 3128 4100 2886 4159 
Q 2644 4219 2406 4219 
Q 1781 4219 1451 3797 
Q 1122 3375 1075 2522 
Q 1259 2794 1537 2939 
Q 1816 3084 2150 3084 
Q 2853 3084 3261 2657 
Q 3669 2231 3669 1497 
Q 3669 778 3244 343 
Q 2819 -91 2113 -91 
Q 1303 -91 875 529 
Q 447 1150 447 2328 
Q 447 3434 972 4092 
Q 1497 4750 2381 4750 
Q 2619 4750 2861 4703 
Q 3103 4656 3366 4563 
z
" transform="scale(0.015625)"/>
       </defs>
       <use xlink:href="#DejaVuSans-31"/>
       <use xlink:href="#DejaVuSans-32" x="63.623047"/>
       <use xlink:href="#DejaVuSans-2e" x="127.246094"/>
       <use xlink:href="#DejaVuSans-30" x="159.033203"/>
       <use xlink:href="#DejaVuSans-36" x="222.65625"/>
       <use xlink:href="#DejaVuSans-2e" x="286.279297"/>
       <use xlink:href="#DejaVuSans-32" x="318.066406"/>
       <use xlink:href="#DejaVuSans-30" x="381.689453"/>
       <use xlink:href="#DejaVuSans-32" x="445.3125"/>
       <use xlink:href="#DejaVuSans-31" x="508.935547"/>
      </g>
     </g>
    </g>
    <g id="xtick_7">
     <g id="line2d_13">
      <path d="M 275.999377 276.48 
L 275.999377 41.472 
" clip-path="url(#pa281d46342)" style="fill: none; stroke-dasharray: 2.96,1.28; stroke-dashoffset: 0; stroke: #808080; stroke-width: 0.8"/>
     </g>
     <g id="line2d_14">
      <g>
       <use xlink:href="#ma3c500ae0c" x="275.999377" y="276.48" style="stroke: #000000; stroke-width: 0.8"/>
      </g>
     </g>
     <g id="text_7">
      <!-- 21.09.2021 -->
      <g transform="translate(225.374167 318.688565)rotate(-30)scale(0.1 -0.1)">
       <defs>
        <path id="DejaVuSans-39" d="M 703 97 
L 703 672 
Q 941 559 1184 500 
Q 1428 441 1663 441 
Q 2288 441 2617 861 
Q 2947 1281 2994 2138 
Q 2813 1869 2534 1725 
Q 2256 1581 1919 1581 
Q 1219 1581 811 2004 
Q 403 2428 403 3163 
Q 403 3881 828 4315 
Q 1253 4750 1959 4750 
Q 2769 4750 3195 4129 
Q 3622 3509 3622 2328 
Q 3622 1225 3098 567 
Q 2575 -91 1691 -91 
Q 1453 -91 1209 -44 
Q 966 3 703 97 
z
M 1959 2075 
Q 2384 2075 2632 2365 
Q 2881 2656 2881 3163 
Q 2881 3666 2632 3958 
Q 2384 4250 1959 4250 
Q 1534 4250 1286 3958 
Q 1038 3666 1038 3163 
Q 1038 2656 1286 2365 
Q 1534 2075 1959 2075 
z
" transform="scale(0.015625)"/>
       </defs>
       <use xlink:href="#DejaVuSans-32"/>
       <use xlink:href="#DejaVuSans-31" x="63.623047"/>
       <use xlink:href="#DejaVuSans-2e" x="127.246094"/>
       <use xlink:href="#DejaVuSans-30" x="159.033203"/>
       <use xlink:href="#DejaVuSans-39" x="222.65625"/>
       <use xlink:href="#DejaVuSans-2e" x="286.279297"/>
       <use xlink:href="#DejaVuSans-32" x="318.066406"/>
       <use xlink:href="#DejaVuSans-30" x="381.689453"/>
       <use xlink:href="#DejaVuSans-32" x="445.3125"/>
       <use xlink:href="#DejaVuSans-31" x="508.935547"/>
      </g>
     </g>
    </g>
    <g id="xtick_8">
     <g id="line2d_15">
      <path d="M 311.992911 276.48 
L 311.992911 41.472 
" clip-path="url(#pa281d46342)" style="fill: none; stroke-dasharray: 2.96,1.28; stroke-dashoffset: 0; stroke: #808080; stroke-width: 0.8"/>
     </g>
     <g id="line2d_16">
      <g>
       <use xlink:href="#ma3c500ae0c" x="311.992911" y="276.48" style="stroke: #000000; stroke-width: 0.8"/>
      </g>
     </g>
     <g id="text_8">
      <!-- 31.12.2021 -->
      <g transform="translate(261.3677 318.688565)rotate(-30)scale(0.1 -0.1)">
       <use xlink:href="#DejaVuSans-33"/>
       <use xlink:href="#DejaVuSans-31" x="63.623047"/>
       <use xlink:href="#DejaVuSans-2e" x="127.246094"/>
       <use xlink:href="#DejaVuSans-31" x="159.033203"/>
       <use xlink:href="#DejaVuSans-32" x="222.65625"/>
       <use xlink:href="#DejaVuSans-2e" x="286.279297"/>
       <use xlink:href="#DejaVuSans-32" x="318.066406"/>
       <use xlink:href="#DejaVuSans-30" x="381.689453"/>
       <use xlink:href="#DejaVuSans-32" x="445.3125"/>
       <use xlink:href="#DejaVuSans-31" x="508.935547"/>
      </g>
     </g>
    </g>
    <g id="xtick_9">
     <g id="line2d_17">
      <path d="M 347.986444 276.48 
L 347.986444 41.472 
" clip-path="url(#pa281d46342)" style="fill: none; stroke-dasharray: 2.96,1.28; stroke-dashoffset: 0; stroke: #808080; stroke-width: 0.8"/>
     </g>
     <g id="line2d_18">
      <g>
       <use xlink:href="#ma3c500ae0c" x="347.986444" y="276.48" style="stroke: #000000; stroke-width: 0.8"/>
      </g>
     </g>
     <g id="text_9">
      <!-- 11.04.2022 -->
      <g transform="translate(297.361234 318.688565)rotate(-30)scale(0.1 -0.1)">
       <use xlink:href="#DejaVuSans-31"/>
       <use xlink:href="#DejaVuSans-31" x="63.623047"/>
       <use xlink:href="#DejaVuSans-2e" x="127.246094"/>
       <use xlink:href="#DejaVuSans-30" x="159.033203"/>
       <use xlink:href="#DejaVuSans-34" x="222.65625"/>
       <use xlink:href="#DejaVuSans-2e" x="286.279297"/>
       <use xlink:href="#DejaVuSans-32" x="318.066406"/>
       <use xlink:href="#DejaVuSans-30" x="381.689453"/>
       <use xlink:href="#DejaVuSans-32" x="445.3125"/>
       <use xlink:href="#DejaVuSans-32" x="508.935547"/>
      </g>
     </g>
    </g>
    <g id="xtick_10">
     <g id="line2d_19">
      <path d="M 383.979978 276.48 
L 383.979978 41.472 
" clip-path="url(#pa281d46342)" style="fill: none; stroke-dasharray: 2.96,1.28; stroke-dashoffset: 0; stroke: #808080; stroke-width: 0.8"/>
     </g>
     <g id="line2d_20">
      <g>
       <use xlink:href="#ma3c500ae0c" x="383.979978" y="276.48" style="stroke: #000000; stroke-width: 0.8"/>
      </g>
     </g>
     <g id="text_10">
      <!-- 21.07.2022 -->
      <g transform="translate(333.354767 318.688565)rotate(-30)scale(0.1 -0.1)">
       <defs>
        <path id="DejaVuSans-37" d="M 525 4666 
L 3525 4666 
L 3525 4397 
L 1831 0 
L 1172 0 
L 2766 4134 
L 525 4134 
L 525 4666 
z
" transform="scale(0.015625)"/>
       </defs>
       <use xlink:href="#DejaVuSans-32"/>
       <use xlink:href="#DejaVuSans-31" x="63.623047"/>
       <use xlink:href="#DejaVuSans-2e" x="127.246094"/>
       <use xlink:href="#DejaVuSans-30" x="159.033203"/>
       <use xlink:href="#DejaVuSans-37" x="222.65625"/>
       <use xlink:href="#DejaVuSans-2e" x="286.279297"/>
       <use xlink:href="#DejaVuSans-32" x="318.066406"/>
       <use xlink:href="#DejaVuSans-30" x="381.689453"/>
       <use xlink:href="#DejaVuSans-32" x="445.3125"/>
       <use xlink:href="#DejaVuSans-32" x="508.935547"/>
      </g>
     </g>
    </g>
   </g>
   <g id="matplotlib.axis_2">
    <g id="ytick_1">
     <g id="line2d_21">
      <path d="M 57.6 265.797818 
L 414.72 265.797818 
" clip-path="url(#pa281d46342)" style="fill: none; stroke-dasharray: 2.96,1.28; stroke-dashoffset: 0; stroke: #808080; stroke-width: 0.8"/>
     </g>
     <g id="line2d_22">
      <defs>
       <path id="mdb2a1cb5aa" d="M 0 0 
L -3.5 0 
" style="stroke: #000000; stroke-width: 0.8"/>
      </defs>
      <g>
       <use xlink:href="#mdb2a1cb5aa" x="57.6" y="265.797818" style="stroke: #000000; stroke-width: 0.8"/>
      </g>
     </g>
     <g id="text_11">
      <!-- 0 -->
      <g transform="translate(44.2375 269.597037)scale(0.1 -0.1)">
       <use xlink:href="#DejaVuSans-30"/>
      </g>
     </g>
    </g>
    <g id="ytick_2">
     <g id="line2d_23">
      <path d="M 57.6 233.852593 
L 414.72 233.852593 
" clip-path="url(#pa281d46342)" style="fill: none; stroke-dasharray: 2.96,1.28; stroke-dashoffset: 0; stroke: #808080; stroke-width: 0.8"/>
     </g>
     <g id="line2d_24">
      <g>
       <use xlink:href="#mdb2a1cb5aa" x="57.6" y="233.852593" style="stroke: #000000; stroke-width: 0.8"/>
      </g>
     </g>
     <g id="text_12">
      <!-- 500 -->
      <g transform="translate(31.5125 237.651811)scale(0.1 -0.1)">
       <use xlink:href="#DejaVuSans-35"/>
       <use xlink:href="#DejaVuSans-30" x="63.623047"/>
       <use xlink:href="#DejaVuSans-30" x="127.246094"/>
      </g>
     </g>
    </g>
    <g id="ytick_3">
     <g id="line2d_25">
      <path d="M 57.6 201.907367 
L 414.72 201.907367 
" clip-path="url(#pa281d46342)" style="fill: none; stroke-dasharray: 2.96,1.28; stroke-dashoffset: 0; stroke: #808080; stroke-width: 0.8"/>
     </g>
     <g id="line2d_26">
      <g>
       <use xlink:href="#mdb2a1cb5aa" x="57.6" y="201.907367" style="stroke: #000000; stroke-width: 0.8"/>
      </g>
     </g>
     <g id="text_13">
      <!-- 1000 -->
      <g transform="translate(25.15 205.706586)scale(0.1 -0.1)">
       <use xlink:href="#DejaVuSans-31"/>
       <use xlink:href="#DejaVuSans-30" x="63.623047"/>
       <use xlink:href="#DejaVuSans-30" x="127.246094"/>
       <use xlink:href="#DejaVuSans-30" x="190.869141"/>
      </g>
     </g>
    </g>
    <g id="ytick_4">
     <g id="line2d_27">
      <path d="M 57.6 169.962141 
L 414.72 169.962141 
" clip-path="url(#pa281d46342)" style="fill: none; stroke-dasharray: 2.96,1.28; stroke-dashoffset: 0; stroke: #808080; stroke-width: 0.8"/>
     </g>
     <g id="line2d_28">
      <g>
       <use xlink:href="#mdb2a1cb5aa" x="57.6" y="169.962141" style="stroke: #000000; stroke-width: 0.8"/>
      </g>
     </g>
     <g id="text_14">
      <!-- 1500 -->
      <g transform="translate(25.15 173.76136)scale(0.1 -0.1)">
       <use xlink:href="#DejaVuSans-31"/>
       <use xlink:href="#DejaVuSans-35" x="63.623047"/>
       <use xlink:href="#DejaVuSans-30" x="127.246094"/>
       <use xlink:href="#DejaVuSans-30" x="190.869141"/>
      </g>
     </g>
    </g>
    <g id="ytick_5">
     <g id="line2d_29">
      <path d="M 57.6 138.016916 
L 414.72 138.016916 
" clip-path="url(#pa281d46342)" style="fill: none; stroke-dasharray: 2.96,1.28; stroke-dashoffset: 0; stroke: #808080; stroke-width: 0.8"/>
     </g>
     <g id="line2d_30">
      <g>
       <use xlink:href="#mdb2a1cb5aa" x="57.6" y="138.016916" style="stroke: #000000; stroke-width: 0.8"/>
      </g>
     </g>
     <g id="text_15">
      <!-- 2000 -->
      <g transform="translate(25.15 141.816135)scale(0.1 -0.1)">
       <use xlink:href="#DejaVuSans-32"/>
       <use xlink:href="#DejaVuSans-30" x="63.623047"/>
       <use xlink:href="#DejaVuSans-30" x="127.246094"/>
       <use xlink:href="#DejaVuSans-30" x="190.869141"/>
      </g>
     </g>
    </g>
    <g id="ytick_6">
     <g id="line2d_31">
      <path d="M 57.6 106.07169 
L 414.72 106.07169 
" clip-path="url(#pa281d46342)" style="fill: none; stroke-dasharray: 2.96,1.28; stroke-dashoffset: 0; stroke: #808080; stroke-width: 0.8"/>
     </g>
     <g id="line2d_32">
      <g>
       <use xlink:href="#mdb2a1cb5aa" x="57.6" y="106.07169" style="stroke: #000000; stroke-width: 0.8"/>
      </g>
     </g>
     <g id="text_16">
      <!-- 2500 -->
      <g transform="translate(25.15 109.870909)scale(0.1 -0.1)">
       <use xlink:href="#DejaVuSans-32"/>
       <use xlink:href="#DejaVuSans-35" x="63.623047"/>
       <use xlink:href="#DejaVuSans-30" x="127.246094"/>
       <use xlink:href="#DejaVuSans-30" x="190.869141"/>
      </g>
     </g>
    </g>
    <g id="ytick_7">
     <g id="line2d_33">
      <path d="M 57.6 74.126465 
L 414.72 74.126465 
" clip-path="url(#pa281d46342)" style="fill: none; stroke-dasharray: 2.96,1.28; stroke-dashoffset: 0; stroke: #808080; stroke-width: 0.8"/>
     </g>
     <g id="line2d_34">
      <g>
       <use xlink:href="#mdb2a1cb5aa" x="57.6" y="74.126465" style="stroke: #000000; stroke-width: 0.8"/>
      </g>
     </g>
     <g id="text_17">
      <!-- 3000 -->
      <g transform="translate(25.15 77.925683)scale(0.1 -0.1)">
       <use xlink:href="#DejaVuSans-33"/>
       <use xlink:href="#DejaVuSans-30" x="63.623047"/>
       <use xlink:href="#DejaVuSans-30" x="127.246094"/>
       <use xlink:href="#DejaVuSans-30" x="190.869141"/>
      </g>
     </g>
    </g>
    <g id="ytick_8">
     <g id="line2d_35">
      <path d="M 57.6 42.181239 
L 414.72 42.181239 
" clip-path="url(#pa281d46342)" style="fill: none; stroke-dasharray: 2.96,1.28; stroke-dashoffset: 0; stroke: #808080; stroke-width: 0.8"/>
     </g>
     <g id="line2d_36">
      <g>
       <use xlink:href="#mdb2a1cb5aa" x="57.6" y="42.181239" style="stroke: #000000; stroke-width: 0.8"/>
      </g>
     </g>
     <g id="text_18">
      <!-- 3500 -->
      <g transform="translate(25.15 45.980458)scale(0.1 -0.1)">
       <use xlink:href="#DejaVuSans-33"/>
       <use xlink:href="#DejaVuSans-35" x="63.623047"/>
       <use xlink:href="#DejaVuSans-30" x="127.246094"/>
       <use xlink:href="#DejaVuSans-30" x="190.869141"/>
      </g>
     </g>
    </g>
    <g id="text_19">
     <!-- Inzidenz pro 7 Tage pro 100.000 Einwohner -->
     <g transform="translate(19.070312 267.301)rotate(-90)scale(0.1 -0.1)">
      <defs>
       <path id="DejaVuSans-49" d="M 628 4666 
L 1259 4666 
L 1259 0 
L 628 0 
L 628 4666 
z
" transform="scale(0.015625)"/>
       <path id="DejaVuSans-6e" d="M 3513 2113 
L 3513 0 
L 2938 0 
L 2938 2094 
Q 2938 2591 2744 2837 
Q 2550 3084 2163 3084 
Q 1697 3084 1428 2787 
Q 1159 2491 1159 1978 
L 1159 0 
L 581 0 
L 581 3500 
L 1159 3500 
L 1159 2956 
Q 1366 3272 1645 3428 
Q 1925 3584 2291 3584 
Q 2894 3584 3203 3211 
Q 3513 2838 3513 2113 
z
" transform="scale(0.015625)"/>
       <path id="DejaVuSans-7a" d="M 353 3500 
L 3084 3500 
L 3084 2975 
L 922 459 
L 3084 459 
L 3084 0 
L 275 0 
L 275 525 
L 2438 3041 
L 353 3041 
L 353 3500 
z
" transform="scale(0.015625)"/>
       <path id="DejaVuSans-69" d="M 603 3500 
L 1178 3500 
L 1178 0 
L 603 0 
L 603 3500 
z
M 603 4863 
L 1178 4863 
L 1178 4134 
L 603 4134 
L 603 4863 
z
" transform="scale(0.015625)"/>
       <path id="DejaVuSans-64" d="M 2906 2969 
L 2906 4863 
L 3481 4863 
L 3481 0 
L 2906 0 
L 2906 525 
Q 2725 213 2448 61 
Q 2172 -91 1784 -91 
Q 1150 -91 751 415 
Q 353 922 353 1747 
Q 353 2572 751 3078 
Q 1150 3584 1784 3584 
Q 2172 3584 2448 3432 
Q 2725 3281 2906 2969 
z
M 947 1747 
Q 947 1113 1208 752 
Q 1469 391 1925 391 
Q 2381 391 2643 752 
Q 2906 1113 2906 1747 
Q 2906 2381 2643 2742 
Q 2381 3103 1925 3103 
Q 1469 3103 1208 2742 
Q 947 2381 947 1747 
z
" transform="scale(0.015625)"/>
       <path id="DejaVuSans-65" d="M 3597 1894 
L 3597 1613 
L 953 1613 
Q 991 1019 1311 708 
Q 1631 397 2203 397 
Q 2534 397 2845 478 
Q 3156 559 3463 722 
L 3463 178 
Q 3153 47 2828 -22 
Q 2503 -91 2169 -91 
Q 1331 -91 842 396 
Q 353 884 353 1716 
Q 353 2575 817 3079 
Q 1281 3584 2069 3584 
Q 2775 3584 3186 3129 
Q 3597 2675 3597 1894 
z
M 3022 2063 
Q 3016 2534 2758 2815 
Q 2500 3097 2075 3097 
Q 1594 3097 1305 2825 
Q 1016 2553 972 2059 
L 3022 2063 
z
" transform="scale(0.015625)"/>
       <path id="DejaVuSans-20" transform="scale(0.015625)"/>
       <path id="DejaVuSans-70" d="M 1159 525 
L 1159 -1331 
L 581 -1331 
L 581 3500 
L 1159 3500 
L 1159 2969 
Q 1341 3281 1617 3432 
Q 1894 3584 2278 3584 
Q 2916 3584 3314 3078 
Q 3713 2572 3713 1747 
Q 3713 922 3314 415 
Q 2916 -91 2278 -91 
Q 1894 -91 1617 61 
Q 1341 213 1159 525 
z
M 3116 1747 
Q 3116 2381 2855 2742 
Q 2594 3103 2138 3103 
Q 1681 3103 1420 2742 
Q 1159 2381 1159 1747 
Q 1159 1113 1420 752 
Q 1681 391 2138 391 
Q 2594 391 2855 752 
Q 3116 1113 3116 1747 
z
" transform="scale(0.015625)"/>
       <path id="DejaVuSans-72" d="M 2631 2963 
Q 2534 3019 2420 3045 
Q 2306 3072 2169 3072 
Q 1681 3072 1420 2755 
Q 1159 2438 1159 1844 
L 1159 0 
L 581 0 
L 581 3500 
L 1159 3500 
L 1159 2956 
Q 1341 3275 1631 3429 
Q 1922 3584 2338 3584 
Q 2397 3584 2469 3576 
Q 2541 3569 2628 3553 
L 2631 2963 
z
" transform="scale(0.015625)"/>
       <path id="DejaVuSans-6f" d="M 1959 3097 
Q 1497 3097 1228 2736 
Q 959 2375 959 1747 
Q 959 1119 1226 758 
Q 1494 397 1959 397 
Q 2419 397 2687 759 
Q 2956 1122 2956 1747 
Q 2956 2369 2687 2733 
Q 2419 3097 1959 3097 
z
M 1959 3584 
Q 2709 3584 3137 3096 
Q 3566 2609 3566 1747 
Q 3566 888 3137 398 
Q 2709 -91 1959 -91 
Q 1206 -91 779 398 
Q 353 888 353 1747 
Q 353 2609 779 3096 
Q 1206 3584 1959 3584 
z
" transform="scale(0.015625)"/>
       <path id="DejaVuSans-54" d="M -19 4666 
L 3928 4666 
L 3928 4134 
L 2272 4134 
L 2272 0 
L 1638 0 
L 1638 4134 
L -19 4134 
L -19 4666 
z
" transform="scale(0.015625)"/>
       <path id="DejaVuSans-61" d="M 2194 1759 
Q 1497 1759 1228 1600 
Q 959 1441 959 1056 
Q 959 750 1161 570 
Q 1363 391 1709 391 
Q 2188 391 2477 730 
Q 2766 1069 2766 1631 
L 2766 1759 
L 2194 1759 
z
M 3341 1997 
L 3341 0 
L 2766 0 
L 2766 531 
Q 2569 213 2275 61 
Q 1981 -91 1556 -91 
Q 1019 -91 701 211 
Q 384 513 384 1019 
Q 384 1609 779 1909 
Q 1175 2209 1959 2209 
L 2766 2209 
L 2766 2266 
Q 2766 2663 2505 2880 
Q 2244 3097 1772 3097 
Q 1472 3097 1187 3025 
Q 903 2953 641 2809 
L 641 3341 
Q 956 3463 1253 3523 
Q 1550 3584 1831 3584 
Q 2591 3584 2966 3190 
Q 3341 2797 3341 1997 
z
" transform="scale(0.015625)"/>
       <path id="DejaVuSans-67" d="M 2906 1791 
Q 2906 2416 2648 2759 
Q 2391 3103 1925 3103 
Q 1463 3103 1205 2759 
Q 947 2416 947 1791 
Q 947 1169 1205 825 
Q 1463 481 1925 481 
Q 2391 481 2648 825 
Q 2906 1169 2906 1791 
z
M 3481 434 
Q 3481 -459 3084 -895 
Q 2688 -1331 1869 -1331 
Q 1566 -1331 1297 -1286 
Q 1028 -1241 775 -1147 
L 775 -588 
Q 1028 -725 1275 -790 
Q 1522 -856 1778 -856 
Q 2344 -856 2625 -561 
Q 2906 -266 2906 331 
L 2906 616 
Q 2728 306 2450 153 
Q 2172 0 1784 0 
Q 1141 0 747 490 
Q 353 981 353 1791 
Q 353 2603 747 3093 
Q 1141 3584 1784 3584 
Q 2172 3584 2450 3431 
Q 2728 3278 2906 2969 
L 2906 3500 
L 3481 3500 
L 3481 434 
z
" transform="scale(0.015625)"/>
       <path id="DejaVuSans-45" d="M 628 4666 
L 3578 4666 
L 3578 4134 
L 1259 4134 
L 1259 2753 
L 3481 2753 
L 3481 2222 
L 1259 2222 
L 1259 531 
L 3634 531 
L 3634 0 
L 628 0 
L 628 4666 
z
" transform="scale(0.015625)"/>
       <path id="DejaVuSans-77" d="M 269 3500 
L 844 3500 
L 1563 769 
L 2278 3500 
L 2956 3500 
L 3675 769 
L 4391 3500 
L 4966 3500 
L 4050 0 
L 3372 0 
L 2619 2869 
L 1863 0 
L 1184 0 
L 269 3500 
z
" transform="scale(0.015625)"/>
       <path id="DejaVuSans-68" d="M 3513 2113 
L 3513 0 
L 2938 0 
L 2938 2094 
Q 2938 2591 2744 2837 
Q 2550 3084 2163 3084 
Q 1697 3084 1428 2787 
Q 1159 2491 1159 1978 
L 1159 0 
L 581 0 
L 581 4863 
L 1159 4863 
L 1159 2956 
Q 1366 3272 1645 3428 
Q 1925 3584 2291 3584 
Q 2894 3584 3203 3211 
Q 3513 2838 3513 2113 
z
" transform="scale(0.015625)"/>
      </defs>
      <use xlink:href="#DejaVuSans-49"/>
      <use xlink:href="#DejaVuSans-6e" x="29.492188"/>
      <use xlink:href="#DejaVuSans-7a" x="92.871094"/>
      <use xlink:href="#DejaVuSans-69" x="145.361328"/>
      <use xlink:href="#DejaVuSans-64" x="173.144531"/>
      <use xlink:href="#DejaVuSans-65" x="236.621094"/>
      <use xlink:href="#DejaVuSans-6e" x="298.144531"/>
      <use xlink:href="#DejaVuSans-7a" x="361.523438"/>
      <use xlink:href="#DejaVuSans-20" x="414.013672"/>
      <use xlink:href="#DejaVuSans-70" x="445.800781"/>
      <use xlink:href="#DejaVuSans-72" x="509.277344"/>
      <use xlink:href="#DejaVuSans-6f" x="548.140625"/>
      <use xlink:href="#DejaVuSans-20" x="609.322266"/>
      <use xlink:href="#DejaVuSans-37" x="641.109375"/>
      <use xlink:href="#DejaVuSans-20" x="704.732422"/>
      <use xlink:href="#DejaVuSans-54" x="736.519531"/>
      <use xlink:href="#DejaVuSans-61" x="781.103516"/>
      <use xlink:href="#DejaVuSans-67" x="842.382812"/>
      <use xlink:href="#DejaVuSans-65" x="905.859375"/>
      <use xlink:href="#DejaVuSans-20" x="967.382812"/>
      <use xlink:href="#DejaVuSans-70" x="999.169922"/>
      <use xlink:href="#DejaVuSans-72" x="1062.646484"/>
      <use xlink:href="#DejaVuSans-6f" x="1101.509766"/>
      <use xlink:href="#DejaVuSans-20" x="1162.691406"/>
      <use xlink:href="#DejaVuSans-31" x="1194.478516"/>
      <use xlink:href="#DejaVuSans-30" x="1258.101562"/>
      <use xlink:href="#DejaVuSans-30" x="1321.724609"/>
      <use xlink:href="#DejaVuSans-2e" x="1385.347656"/>
      <use xlink:href="#DejaVuSans-30" x="1417.134766"/>
      <use xlink:href="#DejaVuSans-30" x="1480.757812"/>
      <use xlink:href="#DejaVuSans-30" x="1544.380859"/>
      <use xlink:href="#DejaVuSans-20" x="1608.003906"/>
      <use xlink:href="#DejaVuSans-45" x="1639.791016"/>
      <use xlink:href="#DejaVuSans-69" x="1702.974609"/>
      <use xlink:href="#DejaVuSans-6e" x="1730.757812"/>
      <use xlink:href="#DejaVuSans-77" x="1794.136719"/>
      <use xlink:href="#DejaVuSans-6f" x="1875.923828"/>
      <use xlink:href="#DejaVuSans-68" x="1937.105469"/>
      <use xlink:href="#DejaVuSans-6e" x="2000.484375"/>
      <use xlink:href="#DejaVuSans-65" x="2063.863281"/>
      <use xlink:href="#DejaVuSans-72" x="2125.386719"/>
     </g>
    </g>
   </g>
   <g id="line2d_37">
    <path d="M 73.832727 265.797818 
L 77.396443 265.707622 
L 77.752815 265.497166 
L 78.109187 265.497166 
L 80.247416 264.474947 
L 80.603788 263.963838 
L 80.96016 264.054034 
L 81.672903 263.542925 
L 82.029275 262.851424 
L 82.385646 262.610902 
L 82.742018 262.550772 
L 83.098389 262.881489 
L 83.454761 262.851424 
L 83.811133 262.580837 
L 84.167504 262.94162 
L 84.880247 262.761228 
L 85.592991 262.129858 
L 85.949362 261.979532 
L 86.305734 262.340315 
L 86.662106 262.129858 
L 87.018477 262.520706 
L 87.374849 262.610902 
L 87.73122 263.242272 
L 88.087592 263.63312 
L 88.800335 263.873642 
L 89.156707 263.783447 
L 90.225822 264.384752 
L 90.582193 264.14423 
L 90.938565 264.234425 
L 91.294937 264.174295 
L 91.651308 264.354686 
L 92.364051 264.174295 
L 92.720423 264.084099 
L 93.076795 264.324621 
L 93.789538 264.414817 
L 94.14591 264.444882 
L 94.502281 264.805665 
L 95.215024 264.865796 
L 95.571396 264.715469 
L 96.284139 264.685404 
L 96.640511 264.895861 
L 97.353254 264.986057 
L 98.422369 265.286709 
L 98.778741 265.346839 
L 99.491484 265.286709 
L 100.204227 265.376905 
L 101.273342 265.40697 
L 101.986085 265.527231 
L 104.124315 265.737688 
L 104.480687 265.587361 
L 105.19343 265.497166 
L 107.33166 265.376905 
L 108.044403 265.527231 
L 108.757146 265.527231 
L 109.826261 265.707622 
L 110.539004 265.587361 
L 111.251747 265.617427 
L 111.964491 265.587361 
L 113.033605 265.647492 
L 113.746349 265.4671 
L 114.459092 265.4671 
L 115.171835 265.346839 
L 116.597322 265.647492 
L 119.448295 265.797818 
L 131.56493 265.737688 
L 131.921301 265.647492 
L 132.277673 265.677557 
L 132.990416 265.497166 
L 135.128646 265.226579 
L 136.197761 265.136383 
L 137.979619 265.437035 
L 138.33599 265.376905 
L 138.692362 265.437035 
L 139.048734 265.316774 
L 140.47422 265.497166 
L 142.61245 265.40697 
L 143.325193 265.40697 
L 144.037936 265.437035 
L 144.394308 265.316774 
L 147.245281 265.4671 
L 147.601653 265.316774 
L 148.314396 265.437035 
L 149.027139 265.376905 
L 149.383511 265.256644 
L 150.096254 265.437035 
L 150.808997 265.256644 
L 151.878112 264.986057 
L 152.590855 264.595208 
L 153.303598 264.084099 
L 153.65997 263.903708 
L 155.085457 261.79914 
L 155.441828 261.949467 
L 155.7982 261.859271 
L 156.154571 261.949467 
L 156.867315 262.460576 
L 157.223686 262.550772 
L 157.936429 261.889336 
L 158.292801 261.889336 
L 158.649173 260.927248 
L 159.005544 260.867118 
L 159.361916 260.47627 
L 159.718288 260.47627 
L 160.074659 260.837053 
L 160.431031 260.806987 
L 160.787402 260.025291 
L 161.500146 259.003073 
L 162.569261 257.018766 
L 162.925632 256.718114 
L 163.282004 256.748179 
L 163.638375 257.800463 
L 163.994747 257.860593 
L 164.351119 258.401768 
L 164.70749 257.169093 
L 165.063862 257.048832 
L 165.420234 256.447527 
L 166.132977 256.86844 
L 166.84572 255.03446 
L 167.202092 255.786091 
L 167.558463 255.365178 
L 167.914835 255.335113 
L 168.271206 254.884134 
L 168.627578 254.703742 
L 168.98395 254.222699 
L 169.340321 254.222699 
L 169.696693 253.020089 
L 170.409436 251.757348 
L 170.765808 251.637087 
L 171.122179 251.246239 
L 171.478551 251.757348 
L 171.834923 251.426631 
L 172.191294 252.448849 
L 172.547666 252.388719 
L 173.616781 253.20048 
L 173.973152 252.448849 
L 175.042267 251.156043 
L 175.398639 251.125978 
L 175.75501 250.073695 
L 176.111382 250.043629 
L 176.467754 250.374347 
L 176.824125 251.065848 
L 177.536869 250.133825 
L 177.89324 249.682846 
L 178.249612 249.983499 
L 178.605983 249.652781 
L 178.962355 248.871085 
L 179.318727 248.450171 
L 180.744213 254.613547 
L 181.100585 255.184786 
L 181.456956 256.627918 
L 181.813328 257.169093 
L 182.1697 255.936418 
L 182.526071 256.86844 
L 182.882443 256.838375 
L 183.238814 255.906352 
L 183.595186 255.996548 
L 183.951558 255.876287 
L 184.307929 255.906352 
L 184.664301 256.958636 
L 185.020673 255.936418 
L 185.377044 255.786091 
L 185.733416 256.056679 
L 186.089787 255.936418 
L 186.446159 256.297201 
L 186.802531 256.86844 
L 187.158902 257.018766 
L 187.515274 257.559941 
L 187.871646 257.650137 
L 188.94076 259.484117 
L 190.009875 261.137705 
L 190.366247 261.257966 
L 190.722619 261.137705 
L 191.07899 261.257966 
L 191.435362 261.137705 
L 191.791733 261.137705 
L 192.148105 261.408292 
L 192.504477 261.137705 
L 192.860848 260.716792 
L 193.21722 259.965161 
L 193.929963 259.874965 
L 194.286335 260.055356 
L 194.642706 259.664508 
L 195.35545 260.145552 
L 195.711821 260.867118 
L 196.424564 260.716792 
L 196.780936 260.957314 
L 197.137308 261.708945 
L 197.493679 261.829206 
L 198.206423 262.400445 
L 198.562794 262.610902 
L 198.919166 263.182142 
L 199.631909 263.452729 
L 199.988281 263.302403 
L 200.344652 263.51286 
L 201.413767 263.482794 
L 201.770139 263.272338 
L 202.12651 263.392599 
L 202.482882 263.783447 
L 203.551997 263.603055 
L 203.908368 263.57299 
L 204.26474 263.903708 
L 204.621112 263.663186 
L 204.977483 263.57299 
L 205.690227 263.813512 
L 206.046598 263.813512 
L 206.759341 263.242272 
L 207.472085 263.122011 
L 208.184828 262.37038 
L 208.541199 262.340315 
L 208.897571 262.189989 
L 209.253943 261.73901 
L 209.966686 261.408292 
L 210.323058 261.588684 
L 211.035801 261.588684 
L 211.748544 261.10764 
L 212.461287 260.235748 
L 212.817659 259.935095 
L 213.174031 259.965161 
L 213.886774 259.604378 
L 214.243145 259.814834 
L 214.599517 258.942942 
L 215.31226 259.965161 
L 216.025003 260.205682 
L 216.381375 260.656661 
L 216.737747 260.686726 
L 217.094118 261.197836 
L 217.806862 258.762551 
L 218.163233 258.852746 
L 218.519605 258.70242 
L 218.875976 256.417462 
L 219.232348 255.395243 
L 219.58872 255.094591 
L 219.945091 254.944264 
L 220.301463 255.365178 
L 220.657835 254.613547 
L 221.014206 254.703742 
L 221.726949 252.990023 
L 222.083321 253.20048 
L 222.439693 252.599175 
L 222.796064 251.035783 
L 223.152436 251.035783 
L 223.508808 250.644934 
L 223.865179 250.885456 
L 224.577922 247.548214 
L 224.934294 247.939062 
L 226.003409 248.119454 
L 226.35978 248.059323 
L 226.716152 248.209649 
L 227.072524 248.570432 
L 227.428895 248.570432 
L 227.785267 249.652781 
L 228.141639 249.592651 
L 228.49801 249.803107 
L 228.854382 250.73513 
L 229.210753 253.741655 
L 229.567125 255.425308 
L 229.923497 256.297201 
L 230.279868 256.447527 
L 230.63624 257.259288 
L 230.992612 257.43968 
L 231.348983 257.980854 
L 232.061726 258.281507 
L 232.418098 258.612224 
L 232.77447 259.123334 
L 233.130841 259.213529 
L 233.487213 259.454051 
L 233.843584 261.408292 
L 234.199956 261.889336 
L 234.912699 261.408292 
L 235.269071 261.73901 
L 235.625443 261.408292 
L 235.981814 261.378227 
L 236.338186 260.716792 
L 236.694557 260.897183 
L 237.050929 261.438358 
L 237.407301 262.430511 
L 238.120044 262.911555 
L 238.476416 262.280184 
L 239.54553 263.362533 
L 239.901902 262.911555 
L 240.258274 262.971685 
L 240.614645 262.881489 
L 240.971017 263.51286 
L 241.327388 263.603055 
L 242.396503 264.565143 
L 242.752875 264.655339 
L 243.109247 264.865796 
L 243.465618 264.925926 
L 243.82199 265.256644 
L 244.534733 265.527231 
L 247.385706 265.136383 
L 248.454821 265.286709 
L 250.236679 265.647492 
L 250.949422 265.587361 
L 251.662165 265.497166 
L 252.73128 265.316774 
L 253.087652 265.376905 
L 253.800395 265.196513 
L 254.156767 265.076252 
L 255.225882 265.076252 
L 255.582253 265.046187 
L 255.938625 265.136383 
L 256.294997 265.106318 
L 256.651368 265.226579 
L 258.076855 265.196513 
L 258.433226 265.106318 
L 258.789598 265.196513 
L 259.145969 264.986057 
L 260.571456 264.805665 
L 262.709686 263.452729 
L 263.066057 263.452729 
L 263.422429 263.693251 
L 263.778801 263.57299 
L 264.135172 263.182142 
L 264.491544 263.122011 
L 264.847915 262.791294 
L 265.560659 262.731163 
L 265.91703 262.610902 
L 266.986145 261.408292 
L 267.342517 261.10764 
L 267.698888 261.257966 
L 268.05526 261.10764 
L 268.411632 261.16777 
L 268.768003 260.566465 
L 269.480746 260.806987 
L 270.549861 259.874965 
L 270.906233 259.90503 
L 272.688091 256.86844 
L 273.044463 257.048832 
L 273.400834 256.928571 
L 273.757206 257.048832 
L 274.113577 256.657983 
L 274.826321 256.958636 
L 275.182692 257.710267 
L 275.539064 257.319419 
L 276.251807 257.289354 
L 276.608179 258.221376 
L 276.96455 258.101115 
L 277.320922 258.251441 
L 277.677294 258.07105 
L 278.033665 258.251441 
L 278.390037 258.251441 
L 278.746409 257.650137 
L 279.10278 256.086744 
L 279.459152 255.425308 
L 279.815523 255.184786 
L 280.171895 255.395243 
L 280.528267 254.733808 
L 280.884638 254.583482 
L 281.24101 254.192633 
L 281.953753 254.854069 
L 282.310125 255.455374 
L 282.666496 254.673677 
L 283.022868 255.635765 
L 283.37924 255.996548 
L 284.091983 257.620071 
L 284.448354 258.040985 
L 284.804726 257.319419 
L 285.161098 257.349484 
L 285.873841 257.108962 
L 286.230213 256.718114 
L 286.942956 254.884134 
L 287.299327 255.305047 
L 287.655699 254.553416 
L 288.724814 253.952111 
L 289.081186 252.990023 
L 289.437557 251.396565 
L 289.793929 249.051476 
L 290.1503 250.614869 
L 290.506672 249.652781 
L 290.863044 249.652781 
L 291.219415 251.426631 
L 291.575787 251.847544 
L 291.932158 250.705065 
L 292.644902 247.397888 
L 293.001273 247.518149 
L 293.357645 245.834495 
L 293.714017 245.112929 
L 294.42676 240.36262 
L 294.783131 235.642377 
L 295.495875 232.245004 
L 296.208618 223.8568 
L 296.56499 222.413669 
L 296.921361 222.353538 
L 297.277733 226.803194 
L 297.634104 227.043716 
L 297.990476 225.961368 
L 298.346848 226.26202 
L 299.772334 207.531372 
L 300.128706 209.215026 
L 300.485077 211.890833 
L 300.841449 206.71961 
L 301.197821 208.914373 
L 301.554192 207.381046 
L 302.266935 201.578453 
L 302.623307 201.187605 
L 302.979679 199.564082 
L 303.33605 205.426805 
L 303.692422 205.45687 
L 304.048794 206.569284 
L 304.761537 219.918253 
L 305.117908 219.55747 
L 305.47428 219.55747 
L 306.187023 225.05941 
L 306.543395 228.546979 
L 307.256138 230.531285 
L 307.61251 230.862003 
L 307.968881 231.974417 
L 308.325253 234.620158 
L 308.681625 236.183551 
L 309.394368 241.024056 
L 309.750739 246.014886 
L 310.107111 247.127301 
L 310.463483 247.157366 
L 310.819854 246.014886 
L 311.176226 245.263255 
L 311.532598 247.668475 
L 312.245341 247.097235 
L 312.601712 246.255408 
L 312.958084 247.878932 
L 313.314456 246.676322 
L 313.670827 244.60182 
L 314.027199 244.271102 
L 314.383571 248.390041 
L 314.739942 248.871085 
L 315.096314 247.458018 
L 315.809057 242.407057 
L 316.165429 241.5051 
L 317.234543 226.111694 
L 317.590915 227.735217 
L 317.947287 228.336522 
L 318.303658 227.855478 
L 318.66003 228.72737 
L 319.016402 228.877696 
L 319.372773 222.744386 
L 319.729145 223.405822 
L 320.441888 223.977061 
L 321.511003 209.245091 
L 321.867375 208.794112 
L 322.223746 202.390215 
L 322.580118 200.796757 
L 322.936489 202.300019 
L 323.292861 188.800724 
L 323.649233 180.953695 
L 324.005604 168.897531 
L 324.361976 143.702855 
L 324.718347 127.16697 
L 325.074719 126.445404 
L 325.431091 122.657183 
L 325.787462 129.361733 
L 326.143834 125.423186 
L 326.500206 124.551294 
L 326.856577 142.921159 
L 327.212949 153.925039 
L 327.925692 149.144665 
L 328.282064 148.362968 
L 328.994807 153.323734 
L 329.351179 153.023081 
L 329.70755 149.836165 
L 330.063922 149.204795 
L 330.420293 149.655774 
L 330.776665 142.289789 
L 331.489408 154.285822 
L 331.84578 150.257079 
L 332.202151 147.97212 
L 332.558523 144.93553 
L 332.914895 139.704177 
L 333.271266 147.521141 
L 333.627638 148.453164 
L 333.98401 146.859706 
L 334.340381 143.432268 
L 334.696753 141.778679 
L 335.053124 141.778679 
L 335.409496 138.651894 
L 336.122239 90.968414 
L 336.478611 71.245613 
L 337.191354 53.717575 
L 337.547726 52.154182 
L 337.904097 53.867901 
L 338.260469 54.499271 
L 339.329584 115.110806 
L 339.685955 125.573512 
L 340.398699 129.932973 
L 340.75507 146.679314 
L 341.111442 141.929006 
L 341.467814 129.211407 
L 341.824185 121.935617 
L 342.180557 120.161768 
L 342.536928 116.403612 
L 342.8933 120.552616 
L 343.606043 149.956426 
L 343.962415 156.901498 
L 345.03153 201.518323 
L 345.387901 208.042481 
L 345.744273 203.292172 
L 346.100645 205.697392 
L 346.457016 214.416313 
L 346.813388 219.767927 
L 347.16976 221.992755 
L 347.882503 221.992755 
L 348.238874 226.051563 
L 348.595246 227.52476 
L 348.951618 230.892068 
L 349.307989 229.569197 
L 349.664361 235.912964 
L 350.377104 235.912964 
L 350.733476 245.383516 
L 351.089847 241.204447 
L 351.446219 243.248884 
L 351.802591 241.56523 
L 352.158962 238.047596 
L 352.871705 238.047596 
L 353.228077 232.154808 
L 353.584449 235.792703 
L 353.94082 237.2659 
L 354.297192 240.813599 
L 354.653564 239.881576 
L 355.366307 239.881576 
L 355.722678 240.30249 
L 356.07905 241.204447 
L 356.791793 239.610989 
L 357.148165 240.963925 
L 358.21728 241.024056 
L 358.573651 243.609667 
L 359.286395 244.932538 
L 359.642766 244.391363 
L 360.355509 244.391363 
L 360.711881 244.090711 
L 361.068253 242.888101 
L 361.424624 244.571755 
L 361.780996 247.518149 
L 362.137368 249.382194 
L 362.850111 249.382194 
L 363.562854 253.922046 
L 363.919226 254.703742 
L 364.275597 255.966483 
L 364.631969 255.816157 
L 365.344712 255.816157 
L 365.701084 257.379549 
L 366.057455 257.319419 
L 366.413827 257.409615 
L 366.770199 255.876287 
L 367.12657 256.327266 
L 367.839313 256.327266 
L 368.195685 258.040985 
L 368.552057 258.101115 
L 368.908428 258.01092 
L 369.2648 256.537722 
L 369.621172 255.906352 
L 370.333915 255.906352 
L 370.690286 251.93774 
L 371.046658 251.757348 
L 371.40303 250.705065 
L 371.759401 253.711589 
L 372.115773 252.56911 
L 372.828516 252.56911 
L 373.184888 252.088066 
L 374.254003 243.008362 
L 374.610374 242.76784 
L 375.323117 242.76784 
L 376.035861 240.152164 
L 376.392232 237.596618 
L 376.748604 235.912964 
L 377.104976 232.124743 
L 377.817719 232.124743 
L 378.17409 229.899915 
L 378.530462 230.591415 
L 378.886834 229.448936 
L 379.243205 225.360063 
L 379.599577 226.592738 
L 380.31232 226.592738 
L 380.668692 226.26202 
L 381.025063 217.783621 
L 381.381435 213.724813 
L 381.737807 213.664682 
L 382.094178 212.85292 
L 382.806921 212.85292 
L 383.163293 210.38757 
L 383.519665 214.62677 
L 383.876036 216.791468 
L 384.232408 221.120863 
L 384.58878 220.098645 
L 385.301523 220.098645 
L 386.014266 222.834582 
L 386.370638 227.915609 
L 386.727009 227.103847 
L 387.083381 230.591415 
L 387.796124 230.591415 
L 389.221611 246.014886 
L 389.577982 246.345604 
L 390.290725 246.345604 
L 390.647097 248.84102 
L 391.35984 250.885456 
L 391.716212 250.193956 
L 392.072584 252.358653 
L 392.785327 252.358653 
L 394.567185 255.515504 
L 395.279928 255.515504 
L 395.6363 255.66583 
L 395.992671 256.207005 
L 396.349043 256.357331 
L 396.705415 256.688049 
L 397.774529 256.688049 
L 398.130901 257.559941 
L 398.487273 257.770398 
L 398.487273 257.770398 
" clip-path="url(#pa281d46342)" style="fill: none; stroke: #1f77b4; stroke-width: 1.5; stroke-linecap: square"/>
   </g>
   <g id="patch_3">
    <path d="M 57.6 276.48 
L 57.6 41.472 
" style="fill: none; stroke: #000000; stroke-width: 0.8; stroke-linejoin: miter; stroke-linecap: square"/>
   </g>
   <g id="patch_4">
    <path d="M 414.72 276.48 
L 414.72 41.472 
" style="fill: none; stroke: #000000; stroke-width: 0.8; stroke-linejoin: miter; stroke-linecap: square"/>
   </g>
   <g id="patch_5">
    <path d="M 57.6 276.48 
L 414.72 276.48 
" style="fill: none; stroke: #000000; stroke-width: 0.8; stroke-linejoin: miter; stroke-linecap: square"/>
   </g>
   <g id="patch_6">
    <path d="M 57.6 41.472 
L 414.72 41.472 
" style="fill: none; stroke: #000000; stroke-width: 0.8; stroke-linejoin: miter; stroke-linecap: square"/>
   </g>
  </g>
  <g id="text_20">
   <!-- Inzidenzverlauf LK Schwarzwald-Baar-Kreis -->
   <g transform="translate(37.669219 20.589187)scale(0.18 -0.18)">
    <defs>
     <path id="DejaVuSans-76" d="M 191 3500 
L 800 3500 
L 1894 563 
L 2988 3500 
L 3597 3500 
L 2284 0 
L 1503 0 
L 191 3500 
z
" transform="scale(0.015625)"/>
     <path id="DejaVuSans-6c" d="M 603 4863 
L 1178 4863 
L 1178 0 
L 603 0 
L 603 4863 
z
" transform="scale(0.015625)"/>
     <path id="DejaVuSans-75" d="M 544 1381 
L 544 3500 
L 1119 3500 
L 1119 1403 
Q 1119 906 1312 657 
Q 1506 409 1894 409 
Q 2359 409 2629 706 
Q 2900 1003 2900 1516 
L 2900 3500 
L 3475 3500 
L 3475 0 
L 2900 0 
L 2900 538 
Q 2691 219 2414 64 
Q 2138 -91 1772 -91 
Q 1169 -91 856 284 
Q 544 659 544 1381 
z
M 1991 3584 
L 1991 3584 
z
" transform="scale(0.015625)"/>
     <path id="DejaVuSans-66" d="M 2375 4863 
L 2375 4384 
L 1825 4384 
Q 1516 4384 1395 4259 
Q 1275 4134 1275 3809 
L 1275 3500 
L 2222 3500 
L 2222 3053 
L 1275 3053 
L 1275 0 
L 697 0 
L 697 3053 
L 147 3053 
L 147 3500 
L 697 3500 
L 697 3744 
Q 697 4328 969 4595 
Q 1241 4863 1831 4863 
L 2375 4863 
z
" transform="scale(0.015625)"/>
     <path id="DejaVuSans-4c" d="M 628 4666 
L 1259 4666 
L 1259 531 
L 3531 531 
L 3531 0 
L 628 0 
L 628 4666 
z
" transform="scale(0.015625)"/>
     <path id="DejaVuSans-4b" d="M 628 4666 
L 1259 4666 
L 1259 2694 
L 3353 4666 
L 4166 4666 
L 1850 2491 
L 4331 0 
L 3500 0 
L 1259 2247 
L 1259 0 
L 628 0 
L 628 4666 
z
" transform="scale(0.015625)"/>
     <path id="DejaVuSans-53" d="M 3425 4513 
L 3425 3897 
Q 3066 4069 2747 4153 
Q 2428 4238 2131 4238 
Q 1616 4238 1336 4038 
Q 1056 3838 1056 3469 
Q 1056 3159 1242 3001 
Q 1428 2844 1947 2747 
L 2328 2669 
Q 3034 2534 3370 2195 
Q 3706 1856 3706 1288 
Q 3706 609 3251 259 
Q 2797 -91 1919 -91 
Q 1588 -91 1214 -16 
Q 841 59 441 206 
L 441 856 
Q 825 641 1194 531 
Q 1563 422 1919 422 
Q 2459 422 2753 634 
Q 3047 847 3047 1241 
Q 3047 1584 2836 1778 
Q 2625 1972 2144 2069 
L 1759 2144 
Q 1053 2284 737 2584 
Q 422 2884 422 3419 
Q 422 4038 858 4394 
Q 1294 4750 2059 4750 
Q 2388 4750 2728 4690 
Q 3069 4631 3425 4513 
z
" transform="scale(0.015625)"/>
     <path id="DejaVuSans-63" d="M 3122 3366 
L 3122 2828 
Q 2878 2963 2633 3030 
Q 2388 3097 2138 3097 
Q 1578 3097 1268 2742 
Q 959 2388 959 1747 
Q 959 1106 1268 751 
Q 1578 397 2138 397 
Q 2388 397 2633 464 
Q 2878 531 3122 666 
L 3122 134 
Q 2881 22 2623 -34 
Q 2366 -91 2075 -91 
Q 1284 -91 818 406 
Q 353 903 353 1747 
Q 353 2603 823 3093 
Q 1294 3584 2113 3584 
Q 2378 3584 2631 3529 
Q 2884 3475 3122 3366 
z
" transform="scale(0.015625)"/>
     <path id="DejaVuSans-2d" d="M 313 2009 
L 1997 2009 
L 1997 1497 
L 313 1497 
L 313 2009 
z
" transform="scale(0.015625)"/>
     <path id="DejaVuSans-42" d="M 1259 2228 
L 1259 519 
L 2272 519 
Q 2781 519 3026 730 
Q 3272 941 3272 1375 
Q 3272 1813 3026 2020 
Q 2781 2228 2272 2228 
L 1259 2228 
z
M 1259 4147 
L 1259 2741 
L 2194 2741 
Q 2656 2741 2882 2914 
Q 3109 3088 3109 3444 
Q 3109 3797 2882 3972 
Q 2656 4147 2194 4147 
L 1259 4147 
z
M 628 4666 
L 2241 4666 
Q 2963 4666 3353 4366 
Q 3744 4066 3744 3513 
Q 3744 3084 3544 2831 
Q 3344 2578 2956 2516 
Q 3422 2416 3680 2098 
Q 3938 1781 3938 1306 
Q 3938 681 3513 340 
Q 3088 0 2303 0 
L 628 0 
L 628 4666 
z
" transform="scale(0.015625)"/>
     <path id="DejaVuSans-73" d="M 2834 3397 
L 2834 2853 
Q 2591 2978 2328 3040 
Q 2066 3103 1784 3103 
Q 1356 3103 1142 2972 
Q 928 2841 928 2578 
Q 928 2378 1081 2264 
Q 1234 2150 1697 2047 
L 1894 2003 
Q 2506 1872 2764 1633 
Q 3022 1394 3022 966 
Q 3022 478 2636 193 
Q 2250 -91 1575 -91 
Q 1294 -91 989 -36 
Q 684 19 347 128 
L 347 722 
Q 666 556 975 473 
Q 1284 391 1588 391 
Q 1994 391 2212 530 
Q 2431 669 2431 922 
Q 2431 1156 2273 1281 
Q 2116 1406 1581 1522 
L 1381 1569 
Q 847 1681 609 1914 
Q 372 2147 372 2553 
Q 372 3047 722 3315 
Q 1072 3584 1716 3584 
Q 2034 3584 2315 3537 
Q 2597 3491 2834 3397 
z
" transform="scale(0.015625)"/>
    </defs>
    <use xlink:href="#DejaVuSans-49"/>
    <use xlink:href="#DejaVuSans-6e" x="29.492188"/>
    <use xlink:href="#DejaVuSans-7a" x="92.871094"/>
    <use xlink:href="#DejaVuSans-69" x="145.361328"/>
    <use xlink:href="#DejaVuSans-64" x="173.144531"/>
    <use xlink:href="#DejaVuSans-65" x="236.621094"/>
    <use xlink:href="#DejaVuSans-6e" x="298.144531"/>
    <use xlink:href="#DejaVuSans-7a" x="361.523438"/>
    <use xlink:href="#DejaVuSans-76" x="414.013672"/>
    <use xlink:href="#DejaVuSans-65" x="473.193359"/>
    <use xlink:href="#DejaVuSans-72" x="534.716797"/>
    <use xlink:href="#DejaVuSans-6c" x="575.830078"/>
    <use xlink:href="#DejaVuSans-61" x="603.613281"/>
    <use xlink:href="#DejaVuSans-75" x="664.892578"/>
    <use xlink:href="#DejaVuSans-66" x="728.271484"/>
    <use xlink:href="#DejaVuSans-20" x="763.476562"/>
    <use xlink:href="#DejaVuSans-4c" x="795.263672"/>
    <use xlink:href="#DejaVuSans-4b" x="850.976562"/>
    <use xlink:href="#DejaVuSans-20" x="916.552734"/>
    <use xlink:href="#DejaVuSans-53" x="948.339844"/>
    <use xlink:href="#DejaVuSans-63" x="1011.816406"/>
    <use xlink:href="#DejaVuSans-68" x="1066.796875"/>
    <use xlink:href="#DejaVuSans-77" x="1130.175781"/>
    <use xlink:href="#DejaVuSans-61" x="1211.962891"/>
    <use xlink:href="#DejaVuSans-72" x="1273.242188"/>
    <use xlink:href="#DejaVuSans-7a" x="1314.355469"/>
    <use xlink:href="#DejaVuSans-77" x="1366.845703"/>
    <use xlink:href="#DejaVuSans-61" x="1448.632812"/>
    <use xlink:href="#DejaVuSans-6c" x="1509.912109"/>
    <use xlink:href="#DejaVuSans-64" x="1537.695312"/>
    <use xlink:href="#DejaVuSans-2d" x="1601.171875"/>
    <use xlink:href="#DejaVuSans-42" x="1633.630859"/>
    <use xlink:href="#DejaVuSans-61" x="1702.234375"/>
    <use xlink:href="#DejaVuSans-61" x="1763.513672"/>
    <use xlink:href="#DejaVuSans-72" x="1824.792969"/>
    <use xlink:href="#DejaVuSans-2d" x="1859.53125"/>
    <use xlink:href="#DejaVuSans-4b" x="1895.615234"/>
    <use xlink:href="#DejaVuSans-72" x="1961.191406"/>
    <use xlink:href="#DejaVuSans-65" x="2000.054688"/>
    <use xlink:href="#DejaVuSans-69" x="2061.578125"/>
    <use xlink:href="#DejaVuSans-73" x="2089.361328"/>
   </g>
  </g>
 </g>
 <defs>
  <clipPath id="pa281d46342">
   <rect x="57.6" y="41.472" width="357.12" height="235.008"/>
  </clipPath>
 </defs>
</svg>
