<?xml version="1.0" encoding="utf-8" standalone="no"?>
<!DOCTYPE svg PUBLIC "-//W3C//DTD SVG 1.1//EN"
  "http://www.w3.org/Graphics/SVG/1.1/DTD/svg11.dtd">
<svg xmlns:xlink="http://www.w3.org/1999/xlink" width="460.8pt" height="345.6pt" viewBox="0 0 460.8 345.6" xmlns="http://www.w3.org/2000/svg" version="1.1">
 <metadata>
  <rdf:RDF xmlns:dc="http://purl.org/dc/elements/1.1/" xmlns:cc="http://creativecommons.org/ns#" xmlns:rdf="http://www.w3.org/1999/02/22-rdf-syntax-ns#">
   <cc:Work>
    <dc:type rdf:resource="http://purl.org/dc/dcmitype/StillImage"/>
    <dc:date>2022-07-01T09:23:54.118060</dc:date>
    <dc:format>image/svg+xml</dc:format>
    <dc:creator>
     <cc:Agent>
      <dc:title>Matplotlib v3.5.2, https://matplotlib.org/</dc:title>
     </cc:Agent>
    </dc:creator>
   </cc:Work>
  </rdf:RDF>
 </metadata>
 <defs>
  <style type="text/css">*{stroke-linejoin: round; stroke-linecap: butt}</style>
 </defs>
 <g id="figure_1">
  <g id="patch_1">
   <path d="M 0 345.6 
L 460.8 345.6 
L 460.8 0 
L 0 0 
z
" style="fill: #ffffff"/>
  </g>
  <g id="axes_1">
   <g id="patch_2">
    <path d="M 57.6 276.48 
L 414.72 276.48 
L 414.72 41.472 
L 57.6 41.472 
z
" style="fill: #ffffff"/>
   </g>
   <g id="matplotlib.axis_1">
    <g id="xtick_1">
     <g id="line2d_1">
      <path d="M 58.666267 276.48 
L 58.666267 41.472 
" clip-path="url(#pa328a45010)" style="fill: none; stroke-dasharray: 2.96,1.28; stroke-dashoffset: 0; stroke: #808080; stroke-width: 0.8"/>
     </g>
     <g id="line2d_2">
      <defs>
       <path id="m6b52831ef2" d="M 0 0 
L 0 3.5 
" style="stroke: #000000; stroke-width: 0.8"/>
      </defs>
      <g>
       <use xlink:href="#m6b52831ef2" x="58.666267" y="276.48" style="stroke: #000000; stroke-width: 0.8"/>
      </g>
     </g>
     <g id="text_1">
      <!-- 23.01.2020 -->
      <g transform="translate(8.041057 318.688565)rotate(-30)scale(0.1 -0.1)">
       <defs>
        <path id="DejaVuSans-32" d="M 1228 531 
L 3431 531 
L 3431 0 
L 469 0 
L 469 531 
Q 828 903 1448 1529 
Q 2069 2156 2228 2338 
Q 2531 2678 2651 2914 
Q 2772 3150 2772 3378 
Q 2772 3750 2511 3984 
Q 2250 4219 1831 4219 
Q 1534 4219 1204 4116 
Q 875 4013 500 3803 
L 500 4441 
Q 881 4594 1212 4672 
Q 1544 4750 1819 4750 
Q 2544 4750 2975 4387 
Q 3406 4025 3406 3419 
Q 3406 3131 3298 2873 
Q 3191 2616 2906 2266 
Q 2828 2175 2409 1742 
Q 1991 1309 1228 531 
z
" transform="scale(0.015625)"/>
        <path id="DejaVuSans-33" d="M 2597 2516 
Q 3050 2419 3304 2112 
Q 3559 1806 3559 1356 
Q 3559 666 3084 287 
Q 2609 -91 1734 -91 
Q 1441 -91 1130 -33 
Q 819 25 488 141 
L 488 750 
Q 750 597 1062 519 
Q 1375 441 1716 441 
Q 2309 441 2620 675 
Q 2931 909 2931 1356 
Q 2931 1769 2642 2001 
Q 2353 2234 1838 2234 
L 1294 2234 
L 1294 2753 
L 1863 2753 
Q 2328 2753 2575 2939 
Q 2822 3125 2822 3475 
Q 2822 3834 2567 4026 
Q 2313 4219 1838 4219 
Q 1578 4219 1281 4162 
Q 984 4106 628 3988 
L 628 4550 
Q 988 4650 1302 4700 
Q 1616 4750 1894 4750 
Q 2613 4750 3031 4423 
Q 3450 4097 3450 3541 
Q 3450 3153 3228 2886 
Q 3006 2619 2597 2516 
z
" transform="scale(0.015625)"/>
        <path id="DejaVuSans-2e" d="M 684 794 
L 1344 794 
L 1344 0 
L 684 0 
L 684 794 
z
" transform="scale(0.015625)"/>
        <path id="DejaVuSans-30" d="M 2034 4250 
Q 1547 4250 1301 3770 
Q 1056 3291 1056 2328 
Q 1056 1369 1301 889 
Q 1547 409 2034 409 
Q 2525 409 2770 889 
Q 3016 1369 3016 2328 
Q 3016 3291 2770 3770 
Q 2525 4250 2034 4250 
z
M 2034 4750 
Q 2819 4750 3233 4129 
Q 3647 3509 3647 2328 
Q 3647 1150 3233 529 
Q 2819 -91 2034 -91 
Q 1250 -91 836 529 
Q 422 1150 422 2328 
Q 422 3509 836 4129 
Q 1250 4750 2034 4750 
z
" transform="scale(0.015625)"/>
        <path id="DejaVuSans-31" d="M 794 531 
L 1825 531 
L 1825 4091 
L 703 3866 
L 703 4441 
L 1819 4666 
L 2450 4666 
L 2450 531 
L 3481 531 
L 3481 0 
L 794 0 
L 794 531 
z
" transform="scale(0.015625)"/>
       </defs>
       <use xlink:href="#DejaVuSans-32"/>
       <use xlink:href="#DejaVuSans-33" x="63.623047"/>
       <use xlink:href="#DejaVuSans-2e" x="127.246094"/>
       <use xlink:href="#DejaVuSans-30" x="159.033203"/>
       <use xlink:href="#DejaVuSans-31" x="222.65625"/>
       <use xlink:href="#DejaVuSans-2e" x="286.279297"/>
       <use xlink:href="#DejaVuSans-32" x="318.066406"/>
       <use xlink:href="#DejaVuSans-30" x="381.689453"/>
       <use xlink:href="#DejaVuSans-32" x="445.3125"/>
       <use xlink:href="#DejaVuSans-30" x="508.935547"/>
      </g>
     </g>
    </g>
    <g id="xtick_2">
     <g id="line2d_3">
      <path d="M 94.569241 276.48 
L 94.569241 41.472 
" clip-path="url(#pa328a45010)" style="fill: none; stroke-dasharray: 2.96,1.28; stroke-dashoffset: 0; stroke: #808080; stroke-width: 0.8"/>
     </g>
     <g id="line2d_4">
      <g>
       <use xlink:href="#m6b52831ef2" x="94.569241" y="276.48" style="stroke: #000000; stroke-width: 0.8"/>
      </g>
     </g>
     <g id="text_2">
      <!-- 26.04.2020 -->
      <g transform="translate(43.94403 318.688565)rotate(-30)scale(0.1 -0.1)">
       <defs>
        <path id="DejaVuSans-36" d="M 2113 2584 
Q 1688 2584 1439 2293 
Q 1191 2003 1191 1497 
Q 1191 994 1439 701 
Q 1688 409 2113 409 
Q 2538 409 2786 701 
Q 3034 994 3034 1497 
Q 3034 2003 2786 2293 
Q 2538 2584 2113 2584 
z
M 3366 4563 
L 3366 3988 
Q 3128 4100 2886 4159 
Q 2644 4219 2406 4219 
Q 1781 4219 1451 3797 
Q 1122 3375 1075 2522 
Q 1259 2794 1537 2939 
Q 1816 3084 2150 3084 
Q 2853 3084 3261 2657 
Q 3669 2231 3669 1497 
Q 3669 778 3244 343 
Q 2819 -91 2113 -91 
Q 1303 -91 875 529 
Q 447 1150 447 2328 
Q 447 3434 972 4092 
Q 1497 4750 2381 4750 
Q 2619 4750 2861 4703 
Q 3103 4656 3366 4563 
z
" transform="scale(0.015625)"/>
        <path id="DejaVuSans-34" d="M 2419 4116 
L 825 1625 
L 2419 1625 
L 2419 4116 
z
M 2253 4666 
L 3047 4666 
L 3047 1625 
L 3713 1625 
L 3713 1100 
L 3047 1100 
L 3047 0 
L 2419 0 
L 2419 1100 
L 313 1100 
L 313 1709 
L 2253 4666 
z
" transform="scale(0.015625)"/>
       </defs>
       <use xlink:href="#DejaVuSans-32"/>
       <use xlink:href="#DejaVuSans-36" x="63.623047"/>
       <use xlink:href="#DejaVuSans-2e" x="127.246094"/>
       <use xlink:href="#DejaVuSans-30" x="159.033203"/>
       <use xlink:href="#DejaVuSans-34" x="222.65625"/>
       <use xlink:href="#DejaVuSans-2e" x="286.279297"/>
       <use xlink:href="#DejaVuSans-32" x="318.066406"/>
       <use xlink:href="#DejaVuSans-30" x="381.689453"/>
       <use xlink:href="#DejaVuSans-32" x="445.3125"/>
       <use xlink:href="#DejaVuSans-30" x="508.935547"/>
      </g>
     </g>
    </g>
    <g id="xtick_3">
     <g id="line2d_5">
      <path d="M 130.472214 276.48 
L 130.472214 41.472 
" clip-path="url(#pa328a45010)" style="fill: none; stroke-dasharray: 2.96,1.28; stroke-dashoffset: 0; stroke: #808080; stroke-width: 0.8"/>
     </g>
     <g id="line2d_6">
      <g>
       <use xlink:href="#m6b52831ef2" x="130.472214" y="276.48" style="stroke: #000000; stroke-width: 0.8"/>
      </g>
     </g>
     <g id="text_3">
      <!-- 29.07.2020 -->
      <g transform="translate(79.847003 318.688565)rotate(-30)scale(0.1 -0.1)">
       <defs>
        <path id="DejaVuSans-39" d="M 703 97 
L 703 672 
Q 941 559 1184 500 
Q 1428 441 1663 441 
Q 2288 441 2617 861 
Q 2947 1281 2994 2138 
Q 2813 1869 2534 1725 
Q 2256 1581 1919 1581 
Q 1219 1581 811 2004 
Q 403 2428 403 3163 
Q 403 3881 828 4315 
Q 1253 4750 1959 4750 
Q 2769 4750 3195 4129 
Q 3622 3509 3622 2328 
Q 3622 1225 3098 567 
Q 2575 -91 1691 -91 
Q 1453 -91 1209 -44 
Q 966 3 703 97 
z
M 1959 2075 
Q 2384 2075 2632 2365 
Q 2881 2656 2881 3163 
Q 2881 3666 2632 3958 
Q 2384 4250 1959 4250 
Q 1534 4250 1286 3958 
Q 1038 3666 1038 3163 
Q 1038 2656 1286 2365 
Q 1534 2075 1959 2075 
z
" transform="scale(0.015625)"/>
        <path id="DejaVuSans-37" d="M 525 4666 
L 3525 4666 
L 3525 4397 
L 1831 0 
L 1172 0 
L 2766 4134 
L 525 4134 
L 525 4666 
z
" transform="scale(0.015625)"/>
       </defs>
       <use xlink:href="#DejaVuSans-32"/>
       <use xlink:href="#DejaVuSans-39" x="63.623047"/>
       <use xlink:href="#DejaVuSans-2e" x="127.246094"/>
       <use xlink:href="#DejaVuSans-30" x="159.033203"/>
       <use xlink:href="#DejaVuSans-37" x="222.65625"/>
       <use xlink:href="#DejaVuSans-2e" x="286.279297"/>
       <use xlink:href="#DejaVuSans-32" x="318.066406"/>
       <use xlink:href="#DejaVuSans-30" x="381.689453"/>
       <use xlink:href="#DejaVuSans-32" x="445.3125"/>
       <use xlink:href="#DejaVuSans-30" x="508.935547"/>
      </g>
     </g>
    </g>
    <g id="xtick_4">
     <g id="line2d_7">
      <path d="M 166.375187 276.48 
L 166.375187 41.472 
" clip-path="url(#pa328a45010)" style="fill: none; stroke-dasharray: 2.96,1.28; stroke-dashoffset: 0; stroke: #808080; stroke-width: 0.8"/>
     </g>
     <g id="line2d_8">
      <g>
       <use xlink:href="#m6b52831ef2" x="166.375187" y="276.48" style="stroke: #000000; stroke-width: 0.8"/>
      </g>
     </g>
     <g id="text_4">
      <!-- 31.10.2020 -->
      <g transform="translate(115.749976 318.688565)rotate(-30)scale(0.1 -0.1)">
       <use xlink:href="#DejaVuSans-33"/>
       <use xlink:href="#DejaVuSans-31" x="63.623047"/>
       <use xlink:href="#DejaVuSans-2e" x="127.246094"/>
       <use xlink:href="#DejaVuSans-31" x="159.033203"/>
       <use xlink:href="#DejaVuSans-30" x="222.65625"/>
       <use xlink:href="#DejaVuSans-2e" x="286.279297"/>
       <use xlink:href="#DejaVuSans-32" x="318.066406"/>
       <use xlink:href="#DejaVuSans-30" x="381.689453"/>
       <use xlink:href="#DejaVuSans-32" x="445.3125"/>
       <use xlink:href="#DejaVuSans-30" x="508.935547"/>
      </g>
     </g>
    </g>
    <g id="xtick_5">
     <g id="line2d_9">
      <path d="M 202.27816 276.48 
L 202.27816 41.472 
" clip-path="url(#pa328a45010)" style="fill: none; stroke-dasharray: 2.96,1.28; stroke-dashoffset: 0; stroke: #808080; stroke-width: 0.8"/>
     </g>
     <g id="line2d_10">
      <g>
       <use xlink:href="#m6b52831ef2" x="202.27816" y="276.48" style="stroke: #000000; stroke-width: 0.8"/>
      </g>
     </g>
     <g id="text_5">
      <!-- 02.02.2021 -->
      <g transform="translate(151.65295 318.688565)rotate(-30)scale(0.1 -0.1)">
       <use xlink:href="#DejaVuSans-30"/>
       <use xlink:href="#DejaVuSans-32" x="63.623047"/>
       <use xlink:href="#DejaVuSans-2e" x="127.246094"/>
       <use xlink:href="#DejaVuSans-30" x="159.033203"/>
       <use xlink:href="#DejaVuSans-32" x="222.65625"/>
       <use xlink:href="#DejaVuSans-2e" x="286.279297"/>
       <use xlink:href="#DejaVuSans-32" x="318.066406"/>
       <use xlink:href="#DejaVuSans-30" x="381.689453"/>
       <use xlink:href="#DejaVuSans-32" x="445.3125"/>
       <use xlink:href="#DejaVuSans-31" x="508.935547"/>
      </g>
     </g>
    </g>
    <g id="xtick_6">
     <g id="line2d_11">
      <path d="M 238.181134 276.48 
L 238.181134 41.472 
" clip-path="url(#pa328a45010)" style="fill: none; stroke-dasharray: 2.96,1.28; stroke-dashoffset: 0; stroke: #808080; stroke-width: 0.8"/>
     </g>
     <g id="line2d_12">
      <g>
       <use xlink:href="#m6b52831ef2" x="238.181134" y="276.48" style="stroke: #000000; stroke-width: 0.8"/>
      </g>
     </g>
     <g id="text_6">
      <!-- 07.05.2021 -->
      <g transform="translate(187.555923 318.688565)rotate(-30)scale(0.1 -0.1)">
       <defs>
        <path id="DejaVuSans-35" d="M 691 4666 
L 3169 4666 
L 3169 4134 
L 1269 4134 
L 1269 2991 
Q 1406 3038 1543 3061 
Q 1681 3084 1819 3084 
Q 2600 3084 3056 2656 
Q 3513 2228 3513 1497 
Q 3513 744 3044 326 
Q 2575 -91 1722 -91 
Q 1428 -91 1123 -41 
Q 819 9 494 109 
L 494 744 
Q 775 591 1075 516 
Q 1375 441 1709 441 
Q 2250 441 2565 725 
Q 2881 1009 2881 1497 
Q 2881 1984 2565 2268 
Q 2250 2553 1709 2553 
Q 1456 2553 1204 2497 
Q 953 2441 691 2322 
L 691 4666 
z
" transform="scale(0.015625)"/>
       </defs>
       <use xlink:href="#DejaVuSans-30"/>
       <use xlink:href="#DejaVuSans-37" x="63.623047"/>
       <use xlink:href="#DejaVuSans-2e" x="127.246094"/>
       <use xlink:href="#DejaVuSans-30" x="159.033203"/>
       <use xlink:href="#DejaVuSans-35" x="222.65625"/>
       <use xlink:href="#DejaVuSans-2e" x="286.279297"/>
       <use xlink:href="#DejaVuSans-32" x="318.066406"/>
       <use xlink:href="#DejaVuSans-30" x="381.689453"/>
       <use xlink:href="#DejaVuSans-32" x="445.3125"/>
       <use xlink:href="#DejaVuSans-31" x="508.935547"/>
      </g>
     </g>
    </g>
    <g id="xtick_7">
     <g id="line2d_13">
      <path d="M 274.084107 276.48 
L 274.084107 41.472 
" clip-path="url(#pa328a45010)" style="fill: none; stroke-dasharray: 2.96,1.28; stroke-dashoffset: 0; stroke: #808080; stroke-width: 0.8"/>
     </g>
     <g id="line2d_14">
      <g>
       <use xlink:href="#m6b52831ef2" x="274.084107" y="276.48" style="stroke: #000000; stroke-width: 0.8"/>
      </g>
     </g>
     <g id="text_7">
      <!-- 09.08.2021 -->
      <g transform="translate(223.458896 318.688565)rotate(-30)scale(0.1 -0.1)">
       <defs>
        <path id="DejaVuSans-38" d="M 2034 2216 
Q 1584 2216 1326 1975 
Q 1069 1734 1069 1313 
Q 1069 891 1326 650 
Q 1584 409 2034 409 
Q 2484 409 2743 651 
Q 3003 894 3003 1313 
Q 3003 1734 2745 1975 
Q 2488 2216 2034 2216 
z
M 1403 2484 
Q 997 2584 770 2862 
Q 544 3141 544 3541 
Q 544 4100 942 4425 
Q 1341 4750 2034 4750 
Q 2731 4750 3128 4425 
Q 3525 4100 3525 3541 
Q 3525 3141 3298 2862 
Q 3072 2584 2669 2484 
Q 3125 2378 3379 2068 
Q 3634 1759 3634 1313 
Q 3634 634 3220 271 
Q 2806 -91 2034 -91 
Q 1263 -91 848 271 
Q 434 634 434 1313 
Q 434 1759 690 2068 
Q 947 2378 1403 2484 
z
M 1172 3481 
Q 1172 3119 1398 2916 
Q 1625 2713 2034 2713 
Q 2441 2713 2670 2916 
Q 2900 3119 2900 3481 
Q 2900 3844 2670 4047 
Q 2441 4250 2034 4250 
Q 1625 4250 1398 4047 
Q 1172 3844 1172 3481 
z
" transform="scale(0.015625)"/>
       </defs>
       <use xlink:href="#DejaVuSans-30"/>
       <use xlink:href="#DejaVuSans-39" x="63.623047"/>
       <use xlink:href="#DejaVuSans-2e" x="127.246094"/>
       <use xlink:href="#DejaVuSans-30" x="159.033203"/>
       <use xlink:href="#DejaVuSans-38" x="222.65625"/>
       <use xlink:href="#DejaVuSans-2e" x="286.279297"/>
       <use xlink:href="#DejaVuSans-32" x="318.066406"/>
       <use xlink:href="#DejaVuSans-30" x="381.689453"/>
       <use xlink:href="#DejaVuSans-32" x="445.3125"/>
       <use xlink:href="#DejaVuSans-31" x="508.935547"/>
      </g>
     </g>
    </g>
    <g id="xtick_8">
     <g id="line2d_15">
      <path d="M 309.98708 276.48 
L 309.98708 41.472 
" clip-path="url(#pa328a45010)" style="fill: none; stroke-dasharray: 2.96,1.28; stroke-dashoffset: 0; stroke: #808080; stroke-width: 0.8"/>
     </g>
     <g id="line2d_16">
      <g>
       <use xlink:href="#m6b52831ef2" x="309.98708" y="276.48" style="stroke: #000000; stroke-width: 0.8"/>
      </g>
     </g>
     <g id="text_8">
      <!-- 11.11.2021 -->
      <g transform="translate(259.361869 318.688565)rotate(-30)scale(0.1 -0.1)">
       <use xlink:href="#DejaVuSans-31"/>
       <use xlink:href="#DejaVuSans-31" x="63.623047"/>
       <use xlink:href="#DejaVuSans-2e" x="127.246094"/>
       <use xlink:href="#DejaVuSans-31" x="159.033203"/>
       <use xlink:href="#DejaVuSans-31" x="222.65625"/>
       <use xlink:href="#DejaVuSans-2e" x="286.279297"/>
       <use xlink:href="#DejaVuSans-32" x="318.066406"/>
       <use xlink:href="#DejaVuSans-30" x="381.689453"/>
       <use xlink:href="#DejaVuSans-32" x="445.3125"/>
       <use xlink:href="#DejaVuSans-31" x="508.935547"/>
      </g>
     </g>
    </g>
    <g id="xtick_9">
     <g id="line2d_17">
      <path d="M 345.890053 276.48 
L 345.890053 41.472 
" clip-path="url(#pa328a45010)" style="fill: none; stroke-dasharray: 2.96,1.28; stroke-dashoffset: 0; stroke: #808080; stroke-width: 0.8"/>
     </g>
     <g id="line2d_18">
      <g>
       <use xlink:href="#m6b52831ef2" x="345.890053" y="276.48" style="stroke: #000000; stroke-width: 0.8"/>
      </g>
     </g>
     <g id="text_9">
      <!-- 13.02.2022 -->
      <g transform="translate(295.264843 318.688565)rotate(-30)scale(0.1 -0.1)">
       <use xlink:href="#DejaVuSans-31"/>
       <use xlink:href="#DejaVuSans-33" x="63.623047"/>
       <use xlink:href="#DejaVuSans-2e" x="127.246094"/>
       <use xlink:href="#DejaVuSans-30" x="159.033203"/>
       <use xlink:href="#DejaVuSans-32" x="222.65625"/>
       <use xlink:href="#DejaVuSans-2e" x="286.279297"/>
       <use xlink:href="#DejaVuSans-32" x="318.066406"/>
       <use xlink:href="#DejaVuSans-30" x="381.689453"/>
       <use xlink:href="#DejaVuSans-32" x="445.3125"/>
       <use xlink:href="#DejaVuSans-32" x="508.935547"/>
      </g>
     </g>
    </g>
    <g id="xtick_10">
     <g id="line2d_19">
      <path d="M 381.793027 276.48 
L 381.793027 41.472 
" clip-path="url(#pa328a45010)" style="fill: none; stroke-dasharray: 2.96,1.28; stroke-dashoffset: 0; stroke: #808080; stroke-width: 0.8"/>
     </g>
     <g id="line2d_20">
      <g>
       <use xlink:href="#m6b52831ef2" x="381.793027" y="276.48" style="stroke: #000000; stroke-width: 0.8"/>
      </g>
     </g>
     <g id="text_10">
      <!-- 18.05.2022 -->
      <g transform="translate(331.167816 318.688565)rotate(-30)scale(0.1 -0.1)">
       <use xlink:href="#DejaVuSans-31"/>
       <use xlink:href="#DejaVuSans-38" x="63.623047"/>
       <use xlink:href="#DejaVuSans-2e" x="127.246094"/>
       <use xlink:href="#DejaVuSans-30" x="159.033203"/>
       <use xlink:href="#DejaVuSans-35" x="222.65625"/>
       <use xlink:href="#DejaVuSans-2e" x="286.279297"/>
       <use xlink:href="#DejaVuSans-32" x="318.066406"/>
       <use xlink:href="#DejaVuSans-30" x="381.689453"/>
       <use xlink:href="#DejaVuSans-32" x="445.3125"/>
       <use xlink:href="#DejaVuSans-32" x="508.935547"/>
      </g>
     </g>
    </g>
   </g>
   <g id="matplotlib.axis_2">
    <g id="ytick_1">
     <g id="line2d_21">
      <path d="M 57.6 265.797818 
L 414.72 265.797818 
" clip-path="url(#pa328a45010)" style="fill: none; stroke-dasharray: 2.96,1.28; stroke-dashoffset: 0; stroke: #808080; stroke-width: 0.8"/>
     </g>
     <g id="line2d_22">
      <defs>
       <path id="mfb59df5669" d="M 0 0 
L -3.5 0 
" style="stroke: #000000; stroke-width: 0.8"/>
      </defs>
      <g>
       <use xlink:href="#mfb59df5669" x="57.6" y="265.797818" style="stroke: #000000; stroke-width: 0.8"/>
      </g>
     </g>
     <g id="text_11">
      <!-- 0 -->
      <g transform="translate(44.2375 269.597037)scale(0.1 -0.1)">
       <use xlink:href="#DejaVuSans-30"/>
      </g>
     </g>
    </g>
    <g id="ytick_2">
     <g id="line2d_23">
      <path d="M 57.6 218.300522 
L 414.72 218.300522 
" clip-path="url(#pa328a45010)" style="fill: none; stroke-dasharray: 2.96,1.28; stroke-dashoffset: 0; stroke: #808080; stroke-width: 0.8"/>
     </g>
     <g id="line2d_24">
      <g>
       <use xlink:href="#mfb59df5669" x="57.6" y="218.300522" style="stroke: #000000; stroke-width: 0.8"/>
      </g>
     </g>
     <g id="text_12">
      <!-- 1000 -->
      <g transform="translate(25.15 222.099741)scale(0.1 -0.1)">
       <use xlink:href="#DejaVuSans-31"/>
       <use xlink:href="#DejaVuSans-30" x="63.623047"/>
       <use xlink:href="#DejaVuSans-30" x="127.246094"/>
       <use xlink:href="#DejaVuSans-30" x="190.869141"/>
      </g>
     </g>
    </g>
    <g id="ytick_3">
     <g id="line2d_25">
      <path d="M 57.6 170.803226 
L 414.72 170.803226 
" clip-path="url(#pa328a45010)" style="fill: none; stroke-dasharray: 2.96,1.28; stroke-dashoffset: 0; stroke: #808080; stroke-width: 0.8"/>
     </g>
     <g id="line2d_26">
      <g>
       <use xlink:href="#mfb59df5669" x="57.6" y="170.803226" style="stroke: #000000; stroke-width: 0.8"/>
      </g>
     </g>
     <g id="text_13">
      <!-- 2000 -->
      <g transform="translate(25.15 174.602445)scale(0.1 -0.1)">
       <use xlink:href="#DejaVuSans-32"/>
       <use xlink:href="#DejaVuSans-30" x="63.623047"/>
       <use xlink:href="#DejaVuSans-30" x="127.246094"/>
       <use xlink:href="#DejaVuSans-30" x="190.869141"/>
      </g>
     </g>
    </g>
    <g id="ytick_4">
     <g id="line2d_27">
      <path d="M 57.6 123.30593 
L 414.72 123.30593 
" clip-path="url(#pa328a45010)" style="fill: none; stroke-dasharray: 2.96,1.28; stroke-dashoffset: 0; stroke: #808080; stroke-width: 0.8"/>
     </g>
     <g id="line2d_28">
      <g>
       <use xlink:href="#mfb59df5669" x="57.6" y="123.30593" style="stroke: #000000; stroke-width: 0.8"/>
      </g>
     </g>
     <g id="text_14">
      <!-- 3000 -->
      <g transform="translate(25.15 127.105149)scale(0.1 -0.1)">
       <use xlink:href="#DejaVuSans-33"/>
       <use xlink:href="#DejaVuSans-30" x="63.623047"/>
       <use xlink:href="#DejaVuSans-30" x="127.246094"/>
       <use xlink:href="#DejaVuSans-30" x="190.869141"/>
      </g>
     </g>
    </g>
    <g id="ytick_5">
     <g id="line2d_29">
      <path d="M 57.6 75.808634 
L 414.72 75.808634 
" clip-path="url(#pa328a45010)" style="fill: none; stroke-dasharray: 2.96,1.28; stroke-dashoffset: 0; stroke: #808080; stroke-width: 0.8"/>
     </g>
     <g id="line2d_30">
      <g>
       <use xlink:href="#mfb59df5669" x="57.6" y="75.808634" style="stroke: #000000; stroke-width: 0.8"/>
      </g>
     </g>
     <g id="text_15">
      <!-- 4000 -->
      <g transform="translate(25.15 79.607853)scale(0.1 -0.1)">
       <use xlink:href="#DejaVuSans-34"/>
       <use xlink:href="#DejaVuSans-30" x="63.623047"/>
       <use xlink:href="#DejaVuSans-30" x="127.246094"/>
       <use xlink:href="#DejaVuSans-30" x="190.869141"/>
      </g>
     </g>
    </g>
    <g id="text_16">
     <!-- Inzidenz pro 7 Tage pro 100.000 Einwohner -->
     <g transform="translate(19.070312 267.301)rotate(-90)scale(0.1 -0.1)">
      <defs>
       <path id="DejaVuSans-49" d="M 628 4666 
L 1259 4666 
L 1259 0 
L 628 0 
L 628 4666 
z
" transform="scale(0.015625)"/>
       <path id="DejaVuSans-6e" d="M 3513 2113 
L 3513 0 
L 2938 0 
L 2938 2094 
Q 2938 2591 2744 2837 
Q 2550 3084 2163 3084 
Q 1697 3084 1428 2787 
Q 1159 2491 1159 1978 
L 1159 0 
L 581 0 
L 581 3500 
L 1159 3500 
L 1159 2956 
Q 1366 3272 1645 3428 
Q 1925 3584 2291 3584 
Q 2894 3584 3203 3211 
Q 3513 2838 3513 2113 
z
" transform="scale(0.015625)"/>
       <path id="DejaVuSans-7a" d="M 353 3500 
L 3084 3500 
L 3084 2975 
L 922 459 
L 3084 459 
L 3084 0 
L 275 0 
L 275 525 
L 2438 3041 
L 353 3041 
L 353 3500 
z
" transform="scale(0.015625)"/>
       <path id="DejaVuSans-69" d="M 603 3500 
L 1178 3500 
L 1178 0 
L 603 0 
L 603 3500 
z
M 603 4863 
L 1178 4863 
L 1178 4134 
L 603 4134 
L 603 4863 
z
" transform="scale(0.015625)"/>
       <path id="DejaVuSans-64" d="M 2906 2969 
L 2906 4863 
L 3481 4863 
L 3481 0 
L 2906 0 
L 2906 525 
Q 2725 213 2448 61 
Q 2172 -91 1784 -91 
Q 1150 -91 751 415 
Q 353 922 353 1747 
Q 353 2572 751 3078 
Q 1150 3584 1784 3584 
Q 2172 3584 2448 3432 
Q 2725 3281 2906 2969 
z
M 947 1747 
Q 947 1113 1208 752 
Q 1469 391 1925 391 
Q 2381 391 2643 752 
Q 2906 1113 2906 1747 
Q 2906 2381 2643 2742 
Q 2381 3103 1925 3103 
Q 1469 3103 1208 2742 
Q 947 2381 947 1747 
z
" transform="scale(0.015625)"/>
       <path id="DejaVuSans-65" d="M 3597 1894 
L 3597 1613 
L 953 1613 
Q 991 1019 1311 708 
Q 1631 397 2203 397 
Q 2534 397 2845 478 
Q 3156 559 3463 722 
L 3463 178 
Q 3153 47 2828 -22 
Q 2503 -91 2169 -91 
Q 1331 -91 842 396 
Q 353 884 353 1716 
Q 353 2575 817 3079 
Q 1281 3584 2069 3584 
Q 2775 3584 3186 3129 
Q 3597 2675 3597 1894 
z
M 3022 2063 
Q 3016 2534 2758 2815 
Q 2500 3097 2075 3097 
Q 1594 3097 1305 2825 
Q 1016 2553 972 2059 
L 3022 2063 
z
" transform="scale(0.015625)"/>
       <path id="DejaVuSans-20" transform="scale(0.015625)"/>
       <path id="DejaVuSans-70" d="M 1159 525 
L 1159 -1331 
L 581 -1331 
L 581 3500 
L 1159 3500 
L 1159 2969 
Q 1341 3281 1617 3432 
Q 1894 3584 2278 3584 
Q 2916 3584 3314 3078 
Q 3713 2572 3713 1747 
Q 3713 922 3314 415 
Q 2916 -91 2278 -91 
Q 1894 -91 1617 61 
Q 1341 213 1159 525 
z
M 3116 1747 
Q 3116 2381 2855 2742 
Q 2594 3103 2138 3103 
Q 1681 3103 1420 2742 
Q 1159 2381 1159 1747 
Q 1159 1113 1420 752 
Q 1681 391 2138 391 
Q 2594 391 2855 752 
Q 3116 1113 3116 1747 
z
" transform="scale(0.015625)"/>
       <path id="DejaVuSans-72" d="M 2631 2963 
Q 2534 3019 2420 3045 
Q 2306 3072 2169 3072 
Q 1681 3072 1420 2755 
Q 1159 2438 1159 1844 
L 1159 0 
L 581 0 
L 581 3500 
L 1159 3500 
L 1159 2956 
Q 1341 3275 1631 3429 
Q 1922 3584 2338 3584 
Q 2397 3584 2469 3576 
Q 2541 3569 2628 3553 
L 2631 2963 
z
" transform="scale(0.015625)"/>
       <path id="DejaVuSans-6f" d="M 1959 3097 
Q 1497 3097 1228 2736 
Q 959 2375 959 1747 
Q 959 1119 1226 758 
Q 1494 397 1959 397 
Q 2419 397 2687 759 
Q 2956 1122 2956 1747 
Q 2956 2369 2687 2733 
Q 2419 3097 1959 3097 
z
M 1959 3584 
Q 2709 3584 3137 3096 
Q 3566 2609 3566 1747 
Q 3566 888 3137 398 
Q 2709 -91 1959 -91 
Q 1206 -91 779 398 
Q 353 888 353 1747 
Q 353 2609 779 3096 
Q 1206 3584 1959 3584 
z
" transform="scale(0.015625)"/>
       <path id="DejaVuSans-54" d="M -19 4666 
L 3928 4666 
L 3928 4134 
L 2272 4134 
L 2272 0 
L 1638 0 
L 1638 4134 
L -19 4134 
L -19 4666 
z
" transform="scale(0.015625)"/>
       <path id="DejaVuSans-61" d="M 2194 1759 
Q 1497 1759 1228 1600 
Q 959 1441 959 1056 
Q 959 750 1161 570 
Q 1363 391 1709 391 
Q 2188 391 2477 730 
Q 2766 1069 2766 1631 
L 2766 1759 
L 2194 1759 
z
M 3341 1997 
L 3341 0 
L 2766 0 
L 2766 531 
Q 2569 213 2275 61 
Q 1981 -91 1556 -91 
Q 1019 -91 701 211 
Q 384 513 384 1019 
Q 384 1609 779 1909 
Q 1175 2209 1959 2209 
L 2766 2209 
L 2766 2266 
Q 2766 2663 2505 2880 
Q 2244 3097 1772 3097 
Q 1472 3097 1187 3025 
Q 903 2953 641 2809 
L 641 3341 
Q 956 3463 1253 3523 
Q 1550 3584 1831 3584 
Q 2591 3584 2966 3190 
Q 3341 2797 3341 1997 
z
" transform="scale(0.015625)"/>
       <path id="DejaVuSans-67" d="M 2906 1791 
Q 2906 2416 2648 2759 
Q 2391 3103 1925 3103 
Q 1463 3103 1205 2759 
Q 947 2416 947 1791 
Q 947 1169 1205 825 
Q 1463 481 1925 481 
Q 2391 481 2648 825 
Q 2906 1169 2906 1791 
z
M 3481 434 
Q 3481 -459 3084 -895 
Q 2688 -1331 1869 -1331 
Q 1566 -1331 1297 -1286 
Q 1028 -1241 775 -1147 
L 775 -588 
Q 1028 -725 1275 -790 
Q 1522 -856 1778 -856 
Q 2344 -856 2625 -561 
Q 2906 -266 2906 331 
L 2906 616 
Q 2728 306 2450 153 
Q 2172 0 1784 0 
Q 1141 0 747 490 
Q 353 981 353 1791 
Q 353 2603 747 3093 
Q 1141 3584 1784 3584 
Q 2172 3584 2450 3431 
Q 2728 3278 2906 2969 
L 2906 3500 
L 3481 3500 
L 3481 434 
z
" transform="scale(0.015625)"/>
       <path id="DejaVuSans-45" d="M 628 4666 
L 3578 4666 
L 3578 4134 
L 1259 4134 
L 1259 2753 
L 3481 2753 
L 3481 2222 
L 1259 2222 
L 1259 531 
L 3634 531 
L 3634 0 
L 628 0 
L 628 4666 
z
" transform="scale(0.015625)"/>
       <path id="DejaVuSans-77" d="M 269 3500 
L 844 3500 
L 1563 769 
L 2278 3500 
L 2956 3500 
L 3675 769 
L 4391 3500 
L 4966 3500 
L 4050 0 
L 3372 0 
L 2619 2869 
L 1863 0 
L 1184 0 
L 269 3500 
z
" transform="scale(0.015625)"/>
       <path id="DejaVuSans-68" d="M 3513 2113 
L 3513 0 
L 2938 0 
L 2938 2094 
Q 2938 2591 2744 2837 
Q 2550 3084 2163 3084 
Q 1697 3084 1428 2787 
Q 1159 2491 1159 1978 
L 1159 0 
L 581 0 
L 581 4863 
L 1159 4863 
L 1159 2956 
Q 1366 3272 1645 3428 
Q 1925 3584 2291 3584 
Q 2894 3584 3203 3211 
Q 3513 2838 3513 2113 
z
" transform="scale(0.015625)"/>
      </defs>
      <use xlink:href="#DejaVuSans-49"/>
      <use xlink:href="#DejaVuSans-6e" x="29.492188"/>
      <use xlink:href="#DejaVuSans-7a" x="92.871094"/>
      <use xlink:href="#DejaVuSans-69" x="145.361328"/>
      <use xlink:href="#DejaVuSans-64" x="173.144531"/>
      <use xlink:href="#DejaVuSans-65" x="236.621094"/>
      <use xlink:href="#DejaVuSans-6e" x="298.144531"/>
      <use xlink:href="#DejaVuSans-7a" x="361.523438"/>
      <use xlink:href="#DejaVuSans-20" x="414.013672"/>
      <use xlink:href="#DejaVuSans-70" x="445.800781"/>
      <use xlink:href="#DejaVuSans-72" x="509.277344"/>
      <use xlink:href="#DejaVuSans-6f" x="548.140625"/>
      <use xlink:href="#DejaVuSans-20" x="609.322266"/>
      <use xlink:href="#DejaVuSans-37" x="641.109375"/>
      <use xlink:href="#DejaVuSans-20" x="704.732422"/>
      <use xlink:href="#DejaVuSans-54" x="736.519531"/>
      <use xlink:href="#DejaVuSans-61" x="781.103516"/>
      <use xlink:href="#DejaVuSans-67" x="842.382812"/>
      <use xlink:href="#DejaVuSans-65" x="905.859375"/>
      <use xlink:href="#DejaVuSans-20" x="967.382812"/>
      <use xlink:href="#DejaVuSans-70" x="999.169922"/>
      <use xlink:href="#DejaVuSans-72" x="1062.646484"/>
      <use xlink:href="#DejaVuSans-6f" x="1101.509766"/>
      <use xlink:href="#DejaVuSans-20" x="1162.691406"/>
      <use xlink:href="#DejaVuSans-31" x="1194.478516"/>
      <use xlink:href="#DejaVuSans-30" x="1258.101562"/>
      <use xlink:href="#DejaVuSans-30" x="1321.724609"/>
      <use xlink:href="#DejaVuSans-2e" x="1385.347656"/>
      <use xlink:href="#DejaVuSans-30" x="1417.134766"/>
      <use xlink:href="#DejaVuSans-30" x="1480.757812"/>
      <use xlink:href="#DejaVuSans-30" x="1544.380859"/>
      <use xlink:href="#DejaVuSans-20" x="1608.003906"/>
      <use xlink:href="#DejaVuSans-45" x="1639.791016"/>
      <use xlink:href="#DejaVuSans-69" x="1702.974609"/>
      <use xlink:href="#DejaVuSans-6e" x="1730.757812"/>
      <use xlink:href="#DejaVuSans-77" x="1794.136719"/>
      <use xlink:href="#DejaVuSans-6f" x="1875.923828"/>
      <use xlink:href="#DejaVuSans-68" x="1937.105469"/>
      <use xlink:href="#DejaVuSans-6e" x="2000.484375"/>
      <use xlink:href="#DejaVuSans-65" x="2063.863281"/>
      <use xlink:href="#DejaVuSans-72" x="2125.386719"/>
     </g>
    </g>
   </g>
   <g id="line2d_31">
    <path d="M 73.832727 265.764415 
L 77.652193 265.69761 
L 79.943872 265.263375 
L 80.325818 264.996154 
L 80.707765 264.895945 
L 81.471658 264.194489 
L 81.853604 264.060878 
L 82.235551 263.726851 
L 83.38139 263.359421 
L 83.763337 263.760254 
L 84.145283 263.893865 
L 84.52723 263.693448 
L 85.67307 263.59324 
L 86.055016 263.559838 
L 86.436963 263.125603 
L 86.818909 263.392824 
L 87.200856 263.493032 
L 87.582802 263.726851 
L 87.964749 263.726851 
L 88.346695 263.559838 
L 88.728642 263.59324 
L 89.110588 263.927267 
L 89.874481 264.060878 
L 90.638374 264.361502 
L 91.020321 264.728932 
L 92.548107 265.229972 
L 95.985626 265.563999 
L 96.367572 265.363583 
L 96.749519 265.463791 
L 97.131465 265.33018 
L 98.659251 265.296778 
L 99.041198 265.463791 
L 99.423144 265.396986 
L 100.187037 265.563999 
L 101.714824 265.630805 
L 102.478717 265.69761 
L 108.207914 265.597402 
L 108.971807 265.630805 
L 110.499594 265.731013 
L 111.645433 265.731013 
L 123.103829 265.731013 
L 123.867722 265.563999 
L 125.777455 265.497194 
L 126.923294 265.597402 
L 128.45108 265.664207 
L 129.59692 265.764415 
L 133.034439 265.731013 
L 134.180278 265.530597 
L 135.326118 265.463791 
L 136.471957 265.229972 
L 136.853904 265.029556 
L 138.763636 265.096362 
L 139.909476 265.497194 
L 141.055316 265.597402 
L 141.437262 265.664207 
L 142.583102 265.463791 
L 151.749818 265.530597 
L 152.131765 265.630805 
L 152.895658 265.296778 
L 154.80539 265.19657 
L 155.187337 265.029556 
L 155.569283 265.19657 
L 155.95123 265.029556 
L 156.333176 265.096362 
L 156.715123 264.962751 
L 157.09707 264.561918 
L 157.479016 264.561918 
L 158.242909 264.161086 
L 158.624856 264.227892 
L 159.006802 264.027475 
L 159.770695 264.194489 
L 160.152642 263.927267 
L 160.534588 264.127683 
L 161.298481 263.426227 
L 161.680428 263.59324 
L 162.062374 263.59324 
L 162.444321 263.292616 
L 162.826267 263.292616 
L 163.208214 263.058797 
L 163.59016 263.058797 
L 164.354053 262.357341 
L 164.736 262.323938 
L 165.88184 261.321857 
L 166.263786 259.651722 
L 166.645733 259.61832 
L 167.027679 259.384501 
L 167.409626 258.783252 
L 167.791572 259.351098 
L 168.173519 258.88346 
L 168.555465 258.88346 
L 168.937412 260.286374 
L 170.083251 260.319776 
L 170.465198 259.75193 
L 170.847144 259.985749 
L 171.611037 259.718528 
L 171.992984 260.152763 
L 172.37493 260.019152 
L 172.756877 260.286374 
L 173.138824 260.11936 
L 173.52077 260.353179 
L 173.902717 260.11936 
L 174.66661 260.052555 
L 175.048556 260.152763 
L 175.430503 259.985749 
L 175.812449 260.286374 
L 176.194396 259.61832 
L 176.576342 260.019152 
L 176.958289 260.11936 
L 177.340235 259.083877 
L 177.722182 258.88346 
L 178.104128 259.150682 
L 178.486075 258.916863 
L 178.868021 259.117279 
L 179.249968 258.182004 
L 179.631914 257.781171 
L 180.013861 258.282212 
L 180.395807 258.282212 
L 180.777754 258.048393 
L 181.159701 258.282212 
L 181.541647 258.01499 
L 181.923594 258.716447 
L 182.30554 259.150682 
L 183.45138 258.88346 
L 183.833326 257.680963 
L 184.215273 257.814574 
L 185.361112 257.814574 
L 185.743059 257.847977 
L 186.125005 258.148601 
L 186.506952 259.317695 
L 186.888898 259.651722 
L 187.270845 260.152763 
L 187.652791 260.386582 
L 188.416684 262.090119 
L 189.944471 262.357341 
L 190.326417 262.591159 
L 190.708364 262.624562 
L 191.09031 262.424146 
L 191.472257 261.889703 
L 191.854203 261.756092 
L 192.23615 261.789495 
L 193.381989 260.520192 
L 194.145882 260.921025 
L 194.909775 261.422065 
L 195.291722 262.056716 
L 195.673668 262.090119 
L 196.055615 262.390743 
L 196.437561 262.323938 
L 196.819508 262.524354 
L 197.201455 262.424146 
L 197.583401 262.524354 
L 198.347294 262.290535 
L 198.729241 262.424146 
L 199.111187 262.323938 
L 199.493134 262.591159 
L 199.87508 262.190327 
L 200.257027 262.22373 
L 200.638973 261.522273 
L 201.02092 261.488871 
L 202.166759 260.720609 
L 202.548706 260.98783 
L 202.930652 261.088038 
L 203.312599 261.689287 
L 203.694545 261.989911 
L 204.458439 262.156924 
L 204.840385 262.190327 
L 205.604278 262.657965 
L 205.986225 263.159005 
L 206.368171 263.192408 
L 206.750118 263.392824 
L 207.895957 264.394905 
L 208.277904 264.261294 
L 208.65985 263.96067 
L 209.041797 264.161086 
L 210.187636 264.127683 
L 210.569583 263.793656 
L 210.951529 263.96067 
L 211.333476 263.927267 
L 211.715422 263.526435 
L 212.479316 263.559838 
L 212.861262 263.426227 
L 214.007102 263.559838 
L 214.389048 264.027475 
L 215.152941 263.526435 
L 215.916834 263.660046 
L 216.298781 263.259213 
L 217.062674 263.0922 
L 217.44462 263.326019 
L 217.826567 263.426227 
L 218.208513 262.925186 
L 218.59046 262.958589 
L 218.972406 263.225811 
L 219.354353 262.891784 
L 219.736299 262.958589 
L 220.118246 262.824978 
L 220.500193 262.824978 
L 220.882139 263.125603 
L 221.264086 263.225811 
L 221.646032 262.72477 
L 222.027979 263.025395 
L 222.409925 262.624562 
L 222.791872 262.390743 
L 223.173818 262.290535 
L 223.555765 262.657965 
L 223.937711 262.390743 
L 224.319658 262.490951 
L 224.701604 261.923106 
L 225.083551 261.989911 
L 225.465497 262.190327 
L 225.847444 262.22373 
L 226.22939 261.722689 
L 226.611337 261.756092 
L 226.993283 261.655884 
L 228.139123 259.985749 
L 228.903016 260.219568 
L 229.284963 259.885541 
L 229.666909 260.11936 
L 230.048856 261.221649 
L 230.812749 262.156924 
L 231.958588 261.689287 
L 232.722481 261.221649 
L 233.104428 260.353179 
L 233.486374 260.219568 
L 233.868321 260.386582 
L 234.250267 260.019152 
L 235.01416 259.985749 
L 235.396107 259.852138 
L 235.778053 260.520192 
L 236.541947 260.553595 
L 236.923893 260.186165 
L 237.687786 259.985749 
L 238.069733 259.61832 
L 238.451679 259.918944 
L 238.833626 259.952347 
L 239.215572 259.584917 
L 239.597519 260.11936 
L 239.979465 260.286374 
L 240.361412 260.319776 
L 240.743358 261.35526 
L 241.125305 261.622481 
L 241.507251 261.221649 
L 242.653091 262.090119 
L 243.035037 262.791576 
L 243.416984 262.357341 
L 243.79893 262.156924 
L 244.180877 262.557757 
L 244.94477 262.958589 
L 245.326717 263.025395 
L 245.708663 262.891784 
L 246.09061 263.0922 
L 246.472556 263.559838 
L 247.236449 263.526435 
L 247.618396 263.025395 
L 248.382289 263.259213 
L 248.764235 263.45963 
L 249.146182 263.426227 
L 249.528128 263.626643 
L 249.910075 263.559838 
L 250.673968 264.628724 
L 251.055914 264.795737 
L 251.437861 264.762335 
L 251.819807 264.962751 
L 252.201754 264.795737 
L 252.965647 264.962751 
L 253.72954 264.929348 
L 254.111487 265.129764 
L 254.493433 265.096362 
L 255.257326 265.229972 
L 255.639273 265.19657 
L 256.021219 265.33018 
L 256.403166 265.296778 
L 256.785112 265.096362 
L 257.167059 265.029556 
L 257.549005 265.163167 
L 259.076791 265.263375 
L 259.458738 265.430389 
L 260.986524 265.497194 
L 261.750417 265.530597 
L 264.042096 265.664207 
L 264.805989 265.463791 
L 265.569882 265.497194 
L 266.333775 265.33018 
L 267.097668 265.163167 
L 268.625455 264.862543 
L 269.007401 264.996154 
L 269.771294 264.862543 
L 270.535187 264.929348 
L 270.917134 264.795737 
L 271.681027 264.82914 
L 272.826866 264.628724 
L 273.208813 264.595321 
L 273.590759 264.695529 
L 274.354652 264.595321 
L 274.736599 264.762335 
L 275.500492 264.82914 
L 275.882439 264.628724 
L 277.028278 264.394905 
L 278.938011 262.891784 
L 279.701904 262.791576 
L 280.465797 261.789495 
L 280.847743 261.622481 
L 281.22969 261.722689 
L 281.611636 261.054636 
L 282.375529 260.954427 
L 282.757476 260.887622 
L 283.521369 261.188246 
L 283.903316 260.386582 
L 284.285262 260.787414 
L 284.667209 260.48679 
L 285.049155 260.720609 
L 285.431102 261.088038 
L 285.813048 260.887622 
L 286.194995 260.954427 
L 286.576941 261.689287 
L 287.340834 262.557757 
L 288.104727 262.524354 
L 288.486674 262.824978 
L 288.86862 262.891784 
L 289.632513 263.426227 
L 290.396406 263.359421 
L 291.542246 264.294697 
L 292.688086 264.261294 
L 293.070032 264.361502 
L 293.833925 264.094281 
L 294.215872 264.060878 
L 294.597818 264.294697 
L 294.979765 263.994073 
L 295.743658 263.827059 
L 296.125604 264.027475 
L 296.507551 263.927267 
L 296.889497 263.660046 
L 297.271444 263.225811 
L 298.417283 263.0922 
L 299.181176 262.591159 
L 299.94507 262.591159 
L 301.472856 262.791576 
L 301.854802 263.159005 
L 302.236749 263.192408 
L 302.618695 263.493032 
L 303.382588 263.392824 
L 303.764535 263.359421 
L 304.146481 263.660046 
L 304.910374 263.626643 
L 305.292321 263.259213 
L 305.674267 263.45963 
L 306.056214 263.426227 
L 306.820107 263.726851 
L 307.202053 262.958589 
L 307.584 262.891784 
L 308.347893 261.756092 
L 308.72984 261.789495 
L 309.111786 261.622481 
L 309.493733 259.718528 
L 309.875679 259.451306 
L 310.257626 258.74985 
L 310.639572 258.88346 
L 311.021519 258.38242 
L 311.403465 257.680963 
L 312.167358 257.280131 
L 313.695144 251.134035 
L 314.077091 251.301049 
L 314.459037 250.6998 
L 314.840984 248.361611 
L 315.604877 245.321966 
L 315.986824 244.420093 
L 316.36877 244.453496 
L 316.750717 243.518221 
L 317.132663 243.718637 
L 317.51461 244.987939 
L 317.896556 246.992101 
L 319.042396 248.729041 
L 319.806289 247.058906 
L 320.188235 246.85849 
L 320.570182 245.756201 
L 320.952128 246.023423 
L 321.334075 246.524463 
L 321.716021 245.321966 
L 322.097968 247.493141 
L 322.479914 248.729041 
L 322.861861 248.428417 
L 323.243807 247.927376 
L 323.625754 249.163276 
L 324.007701 249.4639 
L 324.389647 250.131954 
L 324.771594 249.998344 
L 325.15354 250.19876 
L 325.917433 253.472224 
L 326.29938 252.904378 
L 326.681326 253.973264 
L 327.063273 255.910621 
L 327.827166 254.741526 
L 328.209112 255.242567 
L 328.973005 257.580755 
L 329.354952 256.946104 
L 329.736898 257.747769 
L 330.118845 257.51395 
L 330.500791 257.580755 
L 330.882738 256.511869 
L 331.646631 252.403338 
L 332.028578 251.534867 
L 332.410524 248.996263 
L 332.792471 249.664317 
L 333.174417 249.697719 
L 333.556364 249.4639 
L 333.93831 250.265565 
L 334.320257 250.33237 
L 334.702203 250.866814 
L 335.08415 250.33237 
L 335.466096 249.063068 
L 336.229989 247.459739 
L 336.611936 243.585026 
L 336.993882 236.804279 
L 337.375829 233.530815 
L 337.757775 232.962969 
L 338.139722 230.357559 
L 338.521668 228.520411 
L 339.285561 221.405637 
L 339.667508 219.902515 
L 340.049455 215.025722 
L 340.431401 215.259541 
L 340.813348 211.251217 
L 341.195294 208.712613 
L 341.577241 209.948512 
L 341.959187 206.240813 
L 342.341134 206.508035 
L 342.72308 206.341021 
L 343.105027 201.998671 
L 343.486973 203.668806 
L 343.86892 200.49555 
L 344.250866 195.819172 
L 344.632813 196.854656 
L 345.014759 193.213762 
L 345.396706 196.387018 
L 345.778652 197.255488 
L 346.160599 191.109392 
L 346.542545 192.913138 
L 346.924492 190.875574 
L 347.306439 191.410017 
L 347.688385 197.121878 
L 348.070332 194.516467 
L 348.452278 196.052991 
L 348.834225 201.531033 
L 349.980064 206.407827 
L 350.362011 203.769014 
L 350.743957 206.842062 
L 351.50785 209.280458 
L 351.889797 207.977753 
L 352.271743 209.247056 
L 352.65369 208.17817 
L 353.035636 205.20533 
L 353.417583 199.359858 
L 353.799529 199.25965 
L 354.181476 197.088475 
L 354.563422 188.838009 
L 355.327316 187.167874 
L 355.709262 182.5249 
L 356.091209 186.332807 
L 356.473155 183.7608 
L 356.855102 182.625108 
L 357.237048 188.97162 
L 357.618995 189.673077 
L 358.000941 195.017508 
L 358.382888 203.234571 
L 358.764834 202.599919 
L 359.528727 208.411988 
L 359.910674 209.614485 
L 360.674567 197.255488 
L 361.056513 195.351535 
L 361.820406 178.549979 
L 362.202353 175.176307 
L 362.584299 159.877873 
L 362.966246 155.769341 
L 364.494032 52.154182 
L 364.875979 57.164586 
L 365.257925 68.387892 
L 365.639872 73.531907 
L 366.403765 133.957382 
L 367.167658 194.282648 
L 367.549604 199.660482 
L 367.931551 201.86506 
L 368.313497 205.038316 
L 368.695444 203.602 
L 369.07739 204.637484 
L 369.459337 212.821144 
L 369.841283 213.589406 
L 370.22323 213.589406 
L 370.605176 223.042369 
L 370.987123 220.637375 
L 371.36907 220.837791 
L 371.751016 219.601891 
L 372.132963 213.556003 
L 372.514909 215.159333 
L 372.896856 215.159333 
L 373.278802 210.349345 
L 373.660749 214.357668 
L 374.424642 227.752149 
L 374.806588 227.852357 
L 375.188535 228.954646 
L 375.570481 228.954646 
L 375.952428 229.75631 
L 376.334374 233.397204 
L 376.716321 234.733312 
L 377.098267 235.134144 
L 377.480214 236.57046 
L 377.86216 237.171709 
L 378.244107 237.171709 
L 379.008 240.244757 
L 379.389947 240.812602 
L 379.771893 240.879408 
L 380.535786 244.520302 
L 380.917733 244.520302 
L 381.299679 245.956617 
L 382.063572 249.764525 
L 382.445519 252.703962 
L 382.827465 253.539029 
L 383.209412 255.476385 
L 383.591358 255.476385 
L 383.973305 254.474305 
L 384.355251 255.710204 
L 384.737198 256.511869 
L 385.119144 258.349017 
L 385.501091 257.847977 
L 386.264984 257.847977 
L 387.410824 255.877218 
L 387.79277 253.539029 
L 388.174717 254.04007 
L 388.93861 254.04007 
L 389.320556 256.879299 
L 389.702503 254.741526 
L 390.084449 251.468062 
L 390.466396 249.83133 
L 390.848342 247.693558 
L 391.612235 247.693558 
L 391.994182 241.180032 
L 392.376128 237.839763 
L 392.758075 236.704071 
L 393.140021 240.678992 
L 393.521968 237.138306 
L 394.285861 237.138306 
L 394.667807 233.129983 
L 395.431701 230.825197 
L 395.813647 223.710423 
L 396.195594 224.04445 
L 396.959487 224.04445 
L 397.341433 224.946322 
L 397.72338 224.478685 
L 398.487273 221.539247 
L 398.487273 221.539247 
" clip-path="url(#pa328a45010)" style="fill: none; stroke: #1f77b4; stroke-width: 1.5; stroke-linecap: square"/>
   </g>
   <g id="patch_3">
    <path d="M 57.6 276.48 
L 57.6 41.472 
" style="fill: none; stroke: #000000; stroke-width: 0.8; stroke-linejoin: miter; stroke-linecap: square"/>
   </g>
   <g id="patch_4">
    <path d="M 414.72 276.48 
L 414.72 41.472 
" style="fill: none; stroke: #000000; stroke-width: 0.8; stroke-linejoin: miter; stroke-linecap: square"/>
   </g>
   <g id="patch_5">
    <path d="M 57.6 276.48 
L 414.72 276.48 
" style="fill: none; stroke: #000000; stroke-width: 0.8; stroke-linejoin: miter; stroke-linecap: square"/>
   </g>
   <g id="patch_6">
    <path d="M 57.6 41.472 
L 414.72 41.472 
" style="fill: none; stroke: #000000; stroke-width: 0.8; stroke-linejoin: miter; stroke-linecap: square"/>
   </g>
  </g>
  <g id="text_17">
   <!-- Inzidenzverlauf LK Saar-Pfalz-Kreis -->
   <g transform="translate(75.224531 20.589187)scale(0.18 -0.18)">
    <defs>
     <path id="DejaVuSans-76" d="M 191 3500 
L 800 3500 
L 1894 563 
L 2988 3500 
L 3597 3500 
L 2284 0 
L 1503 0 
L 191 3500 
z
" transform="scale(0.015625)"/>
     <path id="DejaVuSans-6c" d="M 603 4863 
L 1178 4863 
L 1178 0 
L 603 0 
L 603 4863 
z
" transform="scale(0.015625)"/>
     <path id="DejaVuSans-75" d="M 544 1381 
L 544 3500 
L 1119 3500 
L 1119 1403 
Q 1119 906 1312 657 
Q 1506 409 1894 409 
Q 2359 409 2629 706 
Q 2900 1003 2900 1516 
L 2900 3500 
L 3475 3500 
L 3475 0 
L 2900 0 
L 2900 538 
Q 2691 219 2414 64 
Q 2138 -91 1772 -91 
Q 1169 -91 856 284 
Q 544 659 544 1381 
z
M 1991 3584 
L 1991 3584 
z
" transform="scale(0.015625)"/>
     <path id="DejaVuSans-66" d="M 2375 4863 
L 2375 4384 
L 1825 4384 
Q 1516 4384 1395 4259 
Q 1275 4134 1275 3809 
L 1275 3500 
L 2222 3500 
L 2222 3053 
L 1275 3053 
L 1275 0 
L 697 0 
L 697 3053 
L 147 3053 
L 147 3500 
L 697 3500 
L 697 3744 
Q 697 4328 969 4595 
Q 1241 4863 1831 4863 
L 2375 4863 
z
" transform="scale(0.015625)"/>
     <path id="DejaVuSans-4c" d="M 628 4666 
L 1259 4666 
L 1259 531 
L 3531 531 
L 3531 0 
L 628 0 
L 628 4666 
z
" transform="scale(0.015625)"/>
     <path id="DejaVuSans-4b" d="M 628 4666 
L 1259 4666 
L 1259 2694 
L 3353 4666 
L 4166 4666 
L 1850 2491 
L 4331 0 
L 3500 0 
L 1259 2247 
L 1259 0 
L 628 0 
L 628 4666 
z
" transform="scale(0.015625)"/>
     <path id="DejaVuSans-53" d="M 3425 4513 
L 3425 3897 
Q 3066 4069 2747 4153 
Q 2428 4238 2131 4238 
Q 1616 4238 1336 4038 
Q 1056 3838 1056 3469 
Q 1056 3159 1242 3001 
Q 1428 2844 1947 2747 
L 2328 2669 
Q 3034 2534 3370 2195 
Q 3706 1856 3706 1288 
Q 3706 609 3251 259 
Q 2797 -91 1919 -91 
Q 1588 -91 1214 -16 
Q 841 59 441 206 
L 441 856 
Q 825 641 1194 531 
Q 1563 422 1919 422 
Q 2459 422 2753 634 
Q 3047 847 3047 1241 
Q 3047 1584 2836 1778 
Q 2625 1972 2144 2069 
L 1759 2144 
Q 1053 2284 737 2584 
Q 422 2884 422 3419 
Q 422 4038 858 4394 
Q 1294 4750 2059 4750 
Q 2388 4750 2728 4690 
Q 3069 4631 3425 4513 
z
" transform="scale(0.015625)"/>
     <path id="DejaVuSans-2d" d="M 313 2009 
L 1997 2009 
L 1997 1497 
L 313 1497 
L 313 2009 
z
" transform="scale(0.015625)"/>
     <path id="DejaVuSans-50" d="M 1259 4147 
L 1259 2394 
L 2053 2394 
Q 2494 2394 2734 2622 
Q 2975 2850 2975 3272 
Q 2975 3691 2734 3919 
Q 2494 4147 2053 4147 
L 1259 4147 
z
M 628 4666 
L 2053 4666 
Q 2838 4666 3239 4311 
Q 3641 3956 3641 3272 
Q 3641 2581 3239 2228 
Q 2838 1875 2053 1875 
L 1259 1875 
L 1259 0 
L 628 0 
L 628 4666 
z
" transform="scale(0.015625)"/>
     <path id="DejaVuSans-73" d="M 2834 3397 
L 2834 2853 
Q 2591 2978 2328 3040 
Q 2066 3103 1784 3103 
Q 1356 3103 1142 2972 
Q 928 2841 928 2578 
Q 928 2378 1081 2264 
Q 1234 2150 1697 2047 
L 1894 2003 
Q 2506 1872 2764 1633 
Q 3022 1394 3022 966 
Q 3022 478 2636 193 
Q 2250 -91 1575 -91 
Q 1294 -91 989 -36 
Q 684 19 347 128 
L 347 722 
Q 666 556 975 473 
Q 1284 391 1588 391 
Q 1994 391 2212 530 
Q 2431 669 2431 922 
Q 2431 1156 2273 1281 
Q 2116 1406 1581 1522 
L 1381 1569 
Q 847 1681 609 1914 
Q 372 2147 372 2553 
Q 372 3047 722 3315 
Q 1072 3584 1716 3584 
Q 2034 3584 2315 3537 
Q 2597 3491 2834 3397 
z
" transform="scale(0.015625)"/>
    </defs>
    <use xlink:href="#DejaVuSans-49"/>
    <use xlink:href="#DejaVuSans-6e" x="29.492188"/>
    <use xlink:href="#DejaVuSans-7a" x="92.871094"/>
    <use xlink:href="#DejaVuSans-69" x="145.361328"/>
    <use xlink:href="#DejaVuSans-64" x="173.144531"/>
    <use xlink:href="#DejaVuSans-65" x="236.621094"/>
    <use xlink:href="#DejaVuSans-6e" x="298.144531"/>
    <use xlink:href="#DejaVuSans-7a" x="361.523438"/>
    <use xlink:href="#DejaVuSans-76" x="414.013672"/>
    <use xlink:href="#DejaVuSans-65" x="473.193359"/>
    <use xlink:href="#DejaVuSans-72" x="534.716797"/>
    <use xlink:href="#DejaVuSans-6c" x="575.830078"/>
    <use xlink:href="#DejaVuSans-61" x="603.613281"/>
    <use xlink:href="#DejaVuSans-75" x="664.892578"/>
    <use xlink:href="#DejaVuSans-66" x="728.271484"/>
    <use xlink:href="#DejaVuSans-20" x="763.476562"/>
    <use xlink:href="#DejaVuSans-4c" x="795.263672"/>
    <use xlink:href="#DejaVuSans-4b" x="850.976562"/>
    <use xlink:href="#DejaVuSans-20" x="916.552734"/>
    <use xlink:href="#DejaVuSans-53" x="948.339844"/>
    <use xlink:href="#DejaVuSans-61" x="1011.816406"/>
    <use xlink:href="#DejaVuSans-61" x="1073.095703"/>
    <use xlink:href="#DejaVuSans-72" x="1134.375"/>
    <use xlink:href="#DejaVuSans-2d" x="1169.113281"/>
    <use xlink:href="#DejaVuSans-50" x="1205.197266"/>
    <use xlink:href="#DejaVuSans-66" x="1265.5"/>
    <use xlink:href="#DejaVuSans-61" x="1300.705078"/>
    <use xlink:href="#DejaVuSans-6c" x="1361.984375"/>
    <use xlink:href="#DejaVuSans-7a" x="1389.767578"/>
    <use xlink:href="#DejaVuSans-2d" x="1442.257812"/>
    <use xlink:href="#DejaVuSans-4b" x="1478.341797"/>
    <use xlink:href="#DejaVuSans-72" x="1543.917969"/>
    <use xlink:href="#DejaVuSans-65" x="1582.78125"/>
    <use xlink:href="#DejaVuSans-69" x="1644.304688"/>
    <use xlink:href="#DejaVuSans-73" x="1672.087891"/>
   </g>
  </g>
 </g>
 <defs>
  <clipPath id="pa328a45010">
   <rect x="57.6" y="41.472" width="357.12" height="235.008"/>
  </clipPath>
 </defs>
</svg>
