<?xml version="1.0" encoding="utf-8" standalone="no"?>
<!DOCTYPE svg PUBLIC "-//W3C//DTD SVG 1.1//EN"
  "http://www.w3.org/Graphics/SVG/1.1/DTD/svg11.dtd">
<svg xmlns:xlink="http://www.w3.org/1999/xlink" width="460.8pt" height="345.6pt" viewBox="0 0 460.8 345.6" xmlns="http://www.w3.org/2000/svg" version="1.1">
 <metadata>
  <rdf:RDF xmlns:dc="http://purl.org/dc/elements/1.1/" xmlns:cc="http://creativecommons.org/ns#" xmlns:rdf="http://www.w3.org/1999/02/22-rdf-syntax-ns#">
   <cc:Work>
    <dc:type rdf:resource="http://purl.org/dc/dcmitype/StillImage"/>
    <dc:date>2021-12-06T09:21:52.526620</dc:date>
    <dc:format>image/svg+xml</dc:format>
    <dc:creator>
     <cc:Agent>
      <dc:title>Matplotlib v3.5.0, https://matplotlib.org/</dc:title>
     </cc:Agent>
    </dc:creator>
   </cc:Work>
  </rdf:RDF>
 </metadata>
 <defs>
  <style type="text/css">*{stroke-linejoin: round; stroke-linecap: butt}</style>
 </defs>
 <g id="figure_1">
  <g id="patch_1">
   <path d="M 0 345.6 
L 460.8 345.6 
L 460.8 0 
L 0 0 
z
" style="fill: #ffffff"/>
  </g>
  <g id="axes_1">
   <g id="patch_2">
    <path d="M 57.6 276.48 
L 414.72 276.48 
L 414.72 41.472 
L 57.6 41.472 
z
" style="fill: #ffffff"/>
   </g>
   <g id="matplotlib.axis_1">
    <g id="xtick_1">
     <g id="line2d_1">
      <path d="M 58.327906 276.48 
L 58.327906 41.472 
" clip-path="url(#p345ccfe77b)" style="fill: none; stroke-dasharray: 2.96,1.28; stroke-dashoffset: 0; stroke: #808080; stroke-width: 0.8"/>
     </g>
     <g id="line2d_2">
      <defs>
       <path id="m5598a35a76" d="M 0 0 
L 0 3.5 
" style="stroke: #000000; stroke-width: 0.8"/>
      </defs>
      <g>
       <use xlink:href="#m5598a35a76" x="58.327906" y="276.48" style="stroke: #000000; stroke-width: 0.8"/>
      </g>
     </g>
     <g id="text_1">
      <!-- 01.02.2020 -->
      <g transform="translate(7.702695 318.688565)rotate(-30)scale(0.1 -0.1)">
       <defs>
        <path id="DejaVuSans-30" d="M 2034 4250 
Q 1547 4250 1301 3770 
Q 1056 3291 1056 2328 
Q 1056 1369 1301 889 
Q 1547 409 2034 409 
Q 2525 409 2770 889 
Q 3016 1369 3016 2328 
Q 3016 3291 2770 3770 
Q 2525 4250 2034 4250 
z
M 2034 4750 
Q 2819 4750 3233 4129 
Q 3647 3509 3647 2328 
Q 3647 1150 3233 529 
Q 2819 -91 2034 -91 
Q 1250 -91 836 529 
Q 422 1150 422 2328 
Q 422 3509 836 4129 
Q 1250 4750 2034 4750 
z
" transform="scale(0.015625)"/>
        <path id="DejaVuSans-31" d="M 794 531 
L 1825 531 
L 1825 4091 
L 703 3866 
L 703 4441 
L 1819 4666 
L 2450 4666 
L 2450 531 
L 3481 531 
L 3481 0 
L 794 0 
L 794 531 
z
" transform="scale(0.015625)"/>
        <path id="DejaVuSans-2e" d="M 684 794 
L 1344 794 
L 1344 0 
L 684 0 
L 684 794 
z
" transform="scale(0.015625)"/>
        <path id="DejaVuSans-32" d="M 1228 531 
L 3431 531 
L 3431 0 
L 469 0 
L 469 531 
Q 828 903 1448 1529 
Q 2069 2156 2228 2338 
Q 2531 2678 2651 2914 
Q 2772 3150 2772 3378 
Q 2772 3750 2511 3984 
Q 2250 4219 1831 4219 
Q 1534 4219 1204 4116 
Q 875 4013 500 3803 
L 500 4441 
Q 881 4594 1212 4672 
Q 1544 4750 1819 4750 
Q 2544 4750 2975 4387 
Q 3406 4025 3406 3419 
Q 3406 3131 3298 2873 
Q 3191 2616 2906 2266 
Q 2828 2175 2409 1742 
Q 1991 1309 1228 531 
z
" transform="scale(0.015625)"/>
       </defs>
       <use xlink:href="#DejaVuSans-30"/>
       <use xlink:href="#DejaVuSans-31" x="63.623047"/>
       <use xlink:href="#DejaVuSans-2e" x="127.246094"/>
       <use xlink:href="#DejaVuSans-30" x="159.033203"/>
       <use xlink:href="#DejaVuSans-32" x="222.65625"/>
       <use xlink:href="#DejaVuSans-2e" x="286.279297"/>
       <use xlink:href="#DejaVuSans-32" x="318.066406"/>
       <use xlink:href="#DejaVuSans-30" x="381.689453"/>
       <use xlink:href="#DejaVuSans-32" x="445.3125"/>
       <use xlink:href="#DejaVuSans-30" x="508.935547"/>
      </g>
     </g>
    </g>
    <g id="xtick_2">
     <g id="line2d_3">
      <path d="M 94.176231 276.48 
L 94.176231 41.472 
" clip-path="url(#p345ccfe77b)" style="fill: none; stroke-dasharray: 2.96,1.28; stroke-dashoffset: 0; stroke: #808080; stroke-width: 0.8"/>
     </g>
     <g id="line2d_4">
      <g>
       <use xlink:href="#m5598a35a76" x="94.176231" y="276.48" style="stroke: #000000; stroke-width: 0.8"/>
      </g>
     </g>
     <g id="text_2">
      <!-- 12.04.2020 -->
      <g transform="translate(43.55102 318.688565)rotate(-30)scale(0.1 -0.1)">
       <defs>
        <path id="DejaVuSans-34" d="M 2419 4116 
L 825 1625 
L 2419 1625 
L 2419 4116 
z
M 2253 4666 
L 3047 4666 
L 3047 1625 
L 3713 1625 
L 3713 1100 
L 3047 1100 
L 3047 0 
L 2419 0 
L 2419 1100 
L 313 1100 
L 313 1709 
L 2253 4666 
z
" transform="scale(0.015625)"/>
       </defs>
       <use xlink:href="#DejaVuSans-31"/>
       <use xlink:href="#DejaVuSans-32" x="63.623047"/>
       <use xlink:href="#DejaVuSans-2e" x="127.246094"/>
       <use xlink:href="#DejaVuSans-30" x="159.033203"/>
       <use xlink:href="#DejaVuSans-34" x="222.65625"/>
       <use xlink:href="#DejaVuSans-2e" x="286.279297"/>
       <use xlink:href="#DejaVuSans-32" x="318.066406"/>
       <use xlink:href="#DejaVuSans-30" x="381.689453"/>
       <use xlink:href="#DejaVuSans-32" x="445.3125"/>
       <use xlink:href="#DejaVuSans-30" x="508.935547"/>
      </g>
     </g>
    </g>
    <g id="xtick_3">
     <g id="line2d_5">
      <path d="M 130.024555 276.48 
L 130.024555 41.472 
" clip-path="url(#p345ccfe77b)" style="fill: none; stroke-dasharray: 2.96,1.28; stroke-dashoffset: 0; stroke: #808080; stroke-width: 0.8"/>
     </g>
     <g id="line2d_6">
      <g>
       <use xlink:href="#m5598a35a76" x="130.024555" y="276.48" style="stroke: #000000; stroke-width: 0.8"/>
      </g>
     </g>
     <g id="text_3">
      <!-- 22.06.2020 -->
      <g transform="translate(79.399345 318.688565)rotate(-30)scale(0.1 -0.1)">
       <defs>
        <path id="DejaVuSans-36" d="M 2113 2584 
Q 1688 2584 1439 2293 
Q 1191 2003 1191 1497 
Q 1191 994 1439 701 
Q 1688 409 2113 409 
Q 2538 409 2786 701 
Q 3034 994 3034 1497 
Q 3034 2003 2786 2293 
Q 2538 2584 2113 2584 
z
M 3366 4563 
L 3366 3988 
Q 3128 4100 2886 4159 
Q 2644 4219 2406 4219 
Q 1781 4219 1451 3797 
Q 1122 3375 1075 2522 
Q 1259 2794 1537 2939 
Q 1816 3084 2150 3084 
Q 2853 3084 3261 2657 
Q 3669 2231 3669 1497 
Q 3669 778 3244 343 
Q 2819 -91 2113 -91 
Q 1303 -91 875 529 
Q 447 1150 447 2328 
Q 447 3434 972 4092 
Q 1497 4750 2381 4750 
Q 2619 4750 2861 4703 
Q 3103 4656 3366 4563 
z
" transform="scale(0.015625)"/>
       </defs>
       <use xlink:href="#DejaVuSans-32"/>
       <use xlink:href="#DejaVuSans-32" x="63.623047"/>
       <use xlink:href="#DejaVuSans-2e" x="127.246094"/>
       <use xlink:href="#DejaVuSans-30" x="159.033203"/>
       <use xlink:href="#DejaVuSans-36" x="222.65625"/>
       <use xlink:href="#DejaVuSans-2e" x="286.279297"/>
       <use xlink:href="#DejaVuSans-32" x="318.066406"/>
       <use xlink:href="#DejaVuSans-30" x="381.689453"/>
       <use xlink:href="#DejaVuSans-32" x="445.3125"/>
       <use xlink:href="#DejaVuSans-30" x="508.935547"/>
      </g>
     </g>
    </g>
    <g id="xtick_4">
     <g id="line2d_7">
      <path d="M 165.87288 276.48 
L 165.87288 41.472 
" clip-path="url(#p345ccfe77b)" style="fill: none; stroke-dasharray: 2.96,1.28; stroke-dashoffset: 0; stroke: #808080; stroke-width: 0.8"/>
     </g>
     <g id="line2d_8">
      <g>
       <use xlink:href="#m5598a35a76" x="165.87288" y="276.48" style="stroke: #000000; stroke-width: 0.8"/>
      </g>
     </g>
     <g id="text_4">
      <!-- 01.09.2020 -->
      <g transform="translate(115.247669 318.688565)rotate(-30)scale(0.1 -0.1)">
       <defs>
        <path id="DejaVuSans-39" d="M 703 97 
L 703 672 
Q 941 559 1184 500 
Q 1428 441 1663 441 
Q 2288 441 2617 861 
Q 2947 1281 2994 2138 
Q 2813 1869 2534 1725 
Q 2256 1581 1919 1581 
Q 1219 1581 811 2004 
Q 403 2428 403 3163 
Q 403 3881 828 4315 
Q 1253 4750 1959 4750 
Q 2769 4750 3195 4129 
Q 3622 3509 3622 2328 
Q 3622 1225 3098 567 
Q 2575 -91 1691 -91 
Q 1453 -91 1209 -44 
Q 966 3 703 97 
z
M 1959 2075 
Q 2384 2075 2632 2365 
Q 2881 2656 2881 3163 
Q 2881 3666 2632 3958 
Q 2384 4250 1959 4250 
Q 1534 4250 1286 3958 
Q 1038 3666 1038 3163 
Q 1038 2656 1286 2365 
Q 1534 2075 1959 2075 
z
" transform="scale(0.015625)"/>
       </defs>
       <use xlink:href="#DejaVuSans-30"/>
       <use xlink:href="#DejaVuSans-31" x="63.623047"/>
       <use xlink:href="#DejaVuSans-2e" x="127.246094"/>
       <use xlink:href="#DejaVuSans-30" x="159.033203"/>
       <use xlink:href="#DejaVuSans-39" x="222.65625"/>
       <use xlink:href="#DejaVuSans-2e" x="286.279297"/>
       <use xlink:href="#DejaVuSans-32" x="318.066406"/>
       <use xlink:href="#DejaVuSans-30" x="381.689453"/>
       <use xlink:href="#DejaVuSans-32" x="445.3125"/>
       <use xlink:href="#DejaVuSans-30" x="508.935547"/>
      </g>
     </g>
    </g>
    <g id="xtick_5">
     <g id="line2d_9">
      <path d="M 201.721205 276.48 
L 201.721205 41.472 
" clip-path="url(#p345ccfe77b)" style="fill: none; stroke-dasharray: 2.96,1.28; stroke-dashoffset: 0; stroke: #808080; stroke-width: 0.8"/>
     </g>
     <g id="line2d_10">
      <g>
       <use xlink:href="#m5598a35a76" x="201.721205" y="276.48" style="stroke: #000000; stroke-width: 0.8"/>
      </g>
     </g>
     <g id="text_5">
      <!-- 11.11.2020 -->
      <g transform="translate(151.095994 318.688565)rotate(-30)scale(0.1 -0.1)">
       <use xlink:href="#DejaVuSans-31"/>
       <use xlink:href="#DejaVuSans-31" x="63.623047"/>
       <use xlink:href="#DejaVuSans-2e" x="127.246094"/>
       <use xlink:href="#DejaVuSans-31" x="159.033203"/>
       <use xlink:href="#DejaVuSans-31" x="222.65625"/>
       <use xlink:href="#DejaVuSans-2e" x="286.279297"/>
       <use xlink:href="#DejaVuSans-32" x="318.066406"/>
       <use xlink:href="#DejaVuSans-30" x="381.689453"/>
       <use xlink:href="#DejaVuSans-32" x="445.3125"/>
       <use xlink:href="#DejaVuSans-30" x="508.935547"/>
      </g>
     </g>
    </g>
    <g id="xtick_6">
     <g id="line2d_11">
      <path d="M 237.569529 276.48 
L 237.569529 41.472 
" clip-path="url(#p345ccfe77b)" style="fill: none; stroke-dasharray: 2.96,1.28; stroke-dashoffset: 0; stroke: #808080; stroke-width: 0.8"/>
     </g>
     <g id="line2d_12">
      <g>
       <use xlink:href="#m5598a35a76" x="237.569529" y="276.48" style="stroke: #000000; stroke-width: 0.8"/>
      </g>
     </g>
     <g id="text_6">
      <!-- 21.01.2021 -->
      <g transform="translate(186.944318 318.688565)rotate(-30)scale(0.1 -0.1)">
       <use xlink:href="#DejaVuSans-32"/>
       <use xlink:href="#DejaVuSans-31" x="63.623047"/>
       <use xlink:href="#DejaVuSans-2e" x="127.246094"/>
       <use xlink:href="#DejaVuSans-30" x="159.033203"/>
       <use xlink:href="#DejaVuSans-31" x="222.65625"/>
       <use xlink:href="#DejaVuSans-2e" x="286.279297"/>
       <use xlink:href="#DejaVuSans-32" x="318.066406"/>
       <use xlink:href="#DejaVuSans-30" x="381.689453"/>
       <use xlink:href="#DejaVuSans-32" x="445.3125"/>
       <use xlink:href="#DejaVuSans-31" x="508.935547"/>
      </g>
     </g>
    </g>
    <g id="xtick_7">
     <g id="line2d_13">
      <path d="M 273.417854 276.48 
L 273.417854 41.472 
" clip-path="url(#p345ccfe77b)" style="fill: none; stroke-dasharray: 2.96,1.28; stroke-dashoffset: 0; stroke: #808080; stroke-width: 0.8"/>
     </g>
     <g id="line2d_14">
      <g>
       <use xlink:href="#m5598a35a76" x="273.417854" y="276.48" style="stroke: #000000; stroke-width: 0.8"/>
      </g>
     </g>
     <g id="text_7">
      <!-- 02.04.2021 -->
      <g transform="translate(222.792643 318.688565)rotate(-30)scale(0.1 -0.1)">
       <use xlink:href="#DejaVuSans-30"/>
       <use xlink:href="#DejaVuSans-32" x="63.623047"/>
       <use xlink:href="#DejaVuSans-2e" x="127.246094"/>
       <use xlink:href="#DejaVuSans-30" x="159.033203"/>
       <use xlink:href="#DejaVuSans-34" x="222.65625"/>
       <use xlink:href="#DejaVuSans-2e" x="286.279297"/>
       <use xlink:href="#DejaVuSans-32" x="318.066406"/>
       <use xlink:href="#DejaVuSans-30" x="381.689453"/>
       <use xlink:href="#DejaVuSans-32" x="445.3125"/>
       <use xlink:href="#DejaVuSans-31" x="508.935547"/>
      </g>
     </g>
    </g>
    <g id="xtick_8">
     <g id="line2d_15">
      <path d="M 309.266178 276.48 
L 309.266178 41.472 
" clip-path="url(#p345ccfe77b)" style="fill: none; stroke-dasharray: 2.96,1.28; stroke-dashoffset: 0; stroke: #808080; stroke-width: 0.8"/>
     </g>
     <g id="line2d_16">
      <g>
       <use xlink:href="#m5598a35a76" x="309.266178" y="276.48" style="stroke: #000000; stroke-width: 0.8"/>
      </g>
     </g>
     <g id="text_8">
      <!-- 12.06.2021 -->
      <g transform="translate(258.640968 318.688565)rotate(-30)scale(0.1 -0.1)">
       <use xlink:href="#DejaVuSans-31"/>
       <use xlink:href="#DejaVuSans-32" x="63.623047"/>
       <use xlink:href="#DejaVuSans-2e" x="127.246094"/>
       <use xlink:href="#DejaVuSans-30" x="159.033203"/>
       <use xlink:href="#DejaVuSans-36" x="222.65625"/>
       <use xlink:href="#DejaVuSans-2e" x="286.279297"/>
       <use xlink:href="#DejaVuSans-32" x="318.066406"/>
       <use xlink:href="#DejaVuSans-30" x="381.689453"/>
       <use xlink:href="#DejaVuSans-32" x="445.3125"/>
       <use xlink:href="#DejaVuSans-31" x="508.935547"/>
      </g>
     </g>
    </g>
    <g id="xtick_9">
     <g id="line2d_17">
      <path d="M 345.114503 276.48 
L 345.114503 41.472 
" clip-path="url(#p345ccfe77b)" style="fill: none; stroke-dasharray: 2.96,1.28; stroke-dashoffset: 0; stroke: #808080; stroke-width: 0.8"/>
     </g>
     <g id="line2d_18">
      <g>
       <use xlink:href="#m5598a35a76" x="345.114503" y="276.48" style="stroke: #000000; stroke-width: 0.8"/>
      </g>
     </g>
     <g id="text_9">
      <!-- 22.08.2021 -->
      <g transform="translate(294.489292 318.688565)rotate(-30)scale(0.1 -0.1)">
       <defs>
        <path id="DejaVuSans-38" d="M 2034 2216 
Q 1584 2216 1326 1975 
Q 1069 1734 1069 1313 
Q 1069 891 1326 650 
Q 1584 409 2034 409 
Q 2484 409 2743 651 
Q 3003 894 3003 1313 
Q 3003 1734 2745 1975 
Q 2488 2216 2034 2216 
z
M 1403 2484 
Q 997 2584 770 2862 
Q 544 3141 544 3541 
Q 544 4100 942 4425 
Q 1341 4750 2034 4750 
Q 2731 4750 3128 4425 
Q 3525 4100 3525 3541 
Q 3525 3141 3298 2862 
Q 3072 2584 2669 2484 
Q 3125 2378 3379 2068 
Q 3634 1759 3634 1313 
Q 3634 634 3220 271 
Q 2806 -91 2034 -91 
Q 1263 -91 848 271 
Q 434 634 434 1313 
Q 434 1759 690 2068 
Q 947 2378 1403 2484 
z
M 1172 3481 
Q 1172 3119 1398 2916 
Q 1625 2713 2034 2713 
Q 2441 2713 2670 2916 
Q 2900 3119 2900 3481 
Q 2900 3844 2670 4047 
Q 2441 4250 2034 4250 
Q 1625 4250 1398 4047 
Q 1172 3844 1172 3481 
z
" transform="scale(0.015625)"/>
       </defs>
       <use xlink:href="#DejaVuSans-32"/>
       <use xlink:href="#DejaVuSans-32" x="63.623047"/>
       <use xlink:href="#DejaVuSans-2e" x="127.246094"/>
       <use xlink:href="#DejaVuSans-30" x="159.033203"/>
       <use xlink:href="#DejaVuSans-38" x="222.65625"/>
       <use xlink:href="#DejaVuSans-2e" x="286.279297"/>
       <use xlink:href="#DejaVuSans-32" x="318.066406"/>
       <use xlink:href="#DejaVuSans-30" x="381.689453"/>
       <use xlink:href="#DejaVuSans-32" x="445.3125"/>
       <use xlink:href="#DejaVuSans-31" x="508.935547"/>
      </g>
     </g>
    </g>
    <g id="xtick_10">
     <g id="line2d_19">
      <path d="M 380.962828 276.48 
L 380.962828 41.472 
" clip-path="url(#p345ccfe77b)" style="fill: none; stroke-dasharray: 2.96,1.28; stroke-dashoffset: 0; stroke: #808080; stroke-width: 0.8"/>
     </g>
     <g id="line2d_20">
      <g>
       <use xlink:href="#m5598a35a76" x="380.962828" y="276.48" style="stroke: #000000; stroke-width: 0.8"/>
      </g>
     </g>
     <g id="text_10">
      <!-- 01.11.2021 -->
      <g transform="translate(330.337617 318.688565)rotate(-30)scale(0.1 -0.1)">
       <use xlink:href="#DejaVuSans-30"/>
       <use xlink:href="#DejaVuSans-31" x="63.623047"/>
       <use xlink:href="#DejaVuSans-2e" x="127.246094"/>
       <use xlink:href="#DejaVuSans-31" x="159.033203"/>
       <use xlink:href="#DejaVuSans-31" x="222.65625"/>
       <use xlink:href="#DejaVuSans-2e" x="286.279297"/>
       <use xlink:href="#DejaVuSans-32" x="318.066406"/>
       <use xlink:href="#DejaVuSans-30" x="381.689453"/>
       <use xlink:href="#DejaVuSans-32" x="445.3125"/>
       <use xlink:href="#DejaVuSans-31" x="508.935547"/>
      </g>
     </g>
    </g>
   </g>
   <g id="matplotlib.axis_2">
    <g id="ytick_1">
     <g id="line2d_21">
      <path d="M 57.6 265.797818 
L 414.72 265.797818 
" clip-path="url(#p345ccfe77b)" style="fill: none; stroke-dasharray: 2.96,1.28; stroke-dashoffset: 0; stroke: #808080; stroke-width: 0.8"/>
     </g>
     <g id="line2d_22">
      <defs>
       <path id="mb1b1ec016f" d="M 0 0 
L -3.5 0 
" style="stroke: #000000; stroke-width: 0.8"/>
      </defs>
      <g>
       <use xlink:href="#mb1b1ec016f" x="57.6" y="265.797818" style="stroke: #000000; stroke-width: 0.8"/>
      </g>
     </g>
     <g id="text_11">
      <!-- 0 -->
      <g transform="translate(44.2375 269.597037)scale(0.1 -0.1)">
       <use xlink:href="#DejaVuSans-30"/>
      </g>
     </g>
    </g>
    <g id="ytick_2">
     <g id="line2d_23">
      <path d="M 57.6 237.865424 
L 414.72 237.865424 
" clip-path="url(#p345ccfe77b)" style="fill: none; stroke-dasharray: 2.96,1.28; stroke-dashoffset: 0; stroke: #808080; stroke-width: 0.8"/>
     </g>
     <g id="line2d_24">
      <g>
       <use xlink:href="#mb1b1ec016f" x="57.6" y="237.865424" style="stroke: #000000; stroke-width: 0.8"/>
      </g>
     </g>
     <g id="text_12">
      <!-- 20 -->
      <g transform="translate(37.875 241.664643)scale(0.1 -0.1)">
       <use xlink:href="#DejaVuSans-32"/>
       <use xlink:href="#DejaVuSans-30" x="63.623047"/>
      </g>
     </g>
    </g>
    <g id="ytick_3">
     <g id="line2d_25">
      <path d="M 57.6 209.933031 
L 414.72 209.933031 
" clip-path="url(#p345ccfe77b)" style="fill: none; stroke-dasharray: 2.96,1.28; stroke-dashoffset: 0; stroke: #808080; stroke-width: 0.8"/>
     </g>
     <g id="line2d_26">
      <g>
       <use xlink:href="#mb1b1ec016f" x="57.6" y="209.933031" style="stroke: #000000; stroke-width: 0.8"/>
      </g>
     </g>
     <g id="text_13">
      <!-- 40 -->
      <g transform="translate(37.875 213.732249)scale(0.1 -0.1)">
       <use xlink:href="#DejaVuSans-34"/>
       <use xlink:href="#DejaVuSans-30" x="63.623047"/>
      </g>
     </g>
    </g>
    <g id="ytick_4">
     <g id="line2d_27">
      <path d="M 57.6 182.000637 
L 414.72 182.000637 
" clip-path="url(#p345ccfe77b)" style="fill: none; stroke-dasharray: 2.96,1.28; stroke-dashoffset: 0; stroke: #808080; stroke-width: 0.8"/>
     </g>
     <g id="line2d_28">
      <g>
       <use xlink:href="#mb1b1ec016f" x="57.6" y="182.000637" style="stroke: #000000; stroke-width: 0.8"/>
      </g>
     </g>
     <g id="text_14">
      <!-- 60 -->
      <g transform="translate(37.875 185.799855)scale(0.1 -0.1)">
       <use xlink:href="#DejaVuSans-36"/>
       <use xlink:href="#DejaVuSans-30" x="63.623047"/>
      </g>
     </g>
    </g>
    <g id="ytick_5">
     <g id="line2d_29">
      <path d="M 57.6 154.068243 
L 414.72 154.068243 
" clip-path="url(#p345ccfe77b)" style="fill: none; stroke-dasharray: 2.96,1.28; stroke-dashoffset: 0; stroke: #808080; stroke-width: 0.8"/>
     </g>
     <g id="line2d_30">
      <g>
       <use xlink:href="#mb1b1ec016f" x="57.6" y="154.068243" style="stroke: #000000; stroke-width: 0.8"/>
      </g>
     </g>
     <g id="text_15">
      <!-- 80 -->
      <g transform="translate(37.875 157.867462)scale(0.1 -0.1)">
       <use xlink:href="#DejaVuSans-38"/>
       <use xlink:href="#DejaVuSans-30" x="63.623047"/>
      </g>
     </g>
    </g>
    <g id="ytick_6">
     <g id="line2d_31">
      <path d="M 57.6 126.135849 
L 414.72 126.135849 
" clip-path="url(#p345ccfe77b)" style="fill: none; stroke-dasharray: 2.96,1.28; stroke-dashoffset: 0; stroke: #808080; stroke-width: 0.8"/>
     </g>
     <g id="line2d_32">
      <g>
       <use xlink:href="#mb1b1ec016f" x="57.6" y="126.135849" style="stroke: #000000; stroke-width: 0.8"/>
      </g>
     </g>
     <g id="text_16">
      <!-- 100 -->
      <g transform="translate(31.5125 129.935068)scale(0.1 -0.1)">
       <use xlink:href="#DejaVuSans-31"/>
       <use xlink:href="#DejaVuSans-30" x="63.623047"/>
       <use xlink:href="#DejaVuSans-30" x="127.246094"/>
      </g>
     </g>
    </g>
    <g id="ytick_7">
     <g id="line2d_33">
      <path d="M 57.6 98.203455 
L 414.72 98.203455 
" clip-path="url(#p345ccfe77b)" style="fill: none; stroke-dasharray: 2.96,1.28; stroke-dashoffset: 0; stroke: #808080; stroke-width: 0.8"/>
     </g>
     <g id="line2d_34">
      <g>
       <use xlink:href="#mb1b1ec016f" x="57.6" y="98.203455" style="stroke: #000000; stroke-width: 0.8"/>
      </g>
     </g>
     <g id="text_17">
      <!-- 120 -->
      <g transform="translate(31.5125 102.002674)scale(0.1 -0.1)">
       <use xlink:href="#DejaVuSans-31"/>
       <use xlink:href="#DejaVuSans-32" x="63.623047"/>
       <use xlink:href="#DejaVuSans-30" x="127.246094"/>
      </g>
     </g>
    </g>
    <g id="ytick_8">
     <g id="line2d_35">
      <path d="M 57.6 70.271061 
L 414.72 70.271061 
" clip-path="url(#p345ccfe77b)" style="fill: none; stroke-dasharray: 2.96,1.28; stroke-dashoffset: 0; stroke: #808080; stroke-width: 0.8"/>
     </g>
     <g id="line2d_36">
      <g>
       <use xlink:href="#mb1b1ec016f" x="57.6" y="70.271061" style="stroke: #000000; stroke-width: 0.8"/>
      </g>
     </g>
     <g id="text_18">
      <!-- 140 -->
      <g transform="translate(31.5125 74.07028)scale(0.1 -0.1)">
       <use xlink:href="#DejaVuSans-31"/>
       <use xlink:href="#DejaVuSans-34" x="63.623047"/>
       <use xlink:href="#DejaVuSans-30" x="127.246094"/>
      </g>
     </g>
    </g>
    <g id="ytick_9">
     <g id="line2d_37">
      <path d="M 57.6 42.338668 
L 414.72 42.338668 
" clip-path="url(#p345ccfe77b)" style="fill: none; stroke-dasharray: 2.96,1.28; stroke-dashoffset: 0; stroke: #808080; stroke-width: 0.8"/>
     </g>
     <g id="line2d_38">
      <g>
       <use xlink:href="#mb1b1ec016f" x="57.6" y="42.338668" style="stroke: #000000; stroke-width: 0.8"/>
      </g>
     </g>
     <g id="text_19">
      <!-- 160 -->
      <g transform="translate(31.5125 46.137886)scale(0.1 -0.1)">
       <use xlink:href="#DejaVuSans-31"/>
       <use xlink:href="#DejaVuSans-36" x="63.623047"/>
       <use xlink:href="#DejaVuSans-30" x="127.246094"/>
      </g>
     </g>
    </g>
    <g id="text_20">
     <!-- Inzidenz pro 7 Tage pro 100.000 Einwohner -->
     <g transform="translate(25.432812 267.301)rotate(-90)scale(0.1 -0.1)">
      <defs>
       <path id="DejaVuSans-49" d="M 628 4666 
L 1259 4666 
L 1259 0 
L 628 0 
L 628 4666 
z
" transform="scale(0.015625)"/>
       <path id="DejaVuSans-6e" d="M 3513 2113 
L 3513 0 
L 2938 0 
L 2938 2094 
Q 2938 2591 2744 2837 
Q 2550 3084 2163 3084 
Q 1697 3084 1428 2787 
Q 1159 2491 1159 1978 
L 1159 0 
L 581 0 
L 581 3500 
L 1159 3500 
L 1159 2956 
Q 1366 3272 1645 3428 
Q 1925 3584 2291 3584 
Q 2894 3584 3203 3211 
Q 3513 2838 3513 2113 
z
" transform="scale(0.015625)"/>
       <path id="DejaVuSans-7a" d="M 353 3500 
L 3084 3500 
L 3084 2975 
L 922 459 
L 3084 459 
L 3084 0 
L 275 0 
L 275 525 
L 2438 3041 
L 353 3041 
L 353 3500 
z
" transform="scale(0.015625)"/>
       <path id="DejaVuSans-69" d="M 603 3500 
L 1178 3500 
L 1178 0 
L 603 0 
L 603 3500 
z
M 603 4863 
L 1178 4863 
L 1178 4134 
L 603 4134 
L 603 4863 
z
" transform="scale(0.015625)"/>
       <path id="DejaVuSans-64" d="M 2906 2969 
L 2906 4863 
L 3481 4863 
L 3481 0 
L 2906 0 
L 2906 525 
Q 2725 213 2448 61 
Q 2172 -91 1784 -91 
Q 1150 -91 751 415 
Q 353 922 353 1747 
Q 353 2572 751 3078 
Q 1150 3584 1784 3584 
Q 2172 3584 2448 3432 
Q 2725 3281 2906 2969 
z
M 947 1747 
Q 947 1113 1208 752 
Q 1469 391 1925 391 
Q 2381 391 2643 752 
Q 2906 1113 2906 1747 
Q 2906 2381 2643 2742 
Q 2381 3103 1925 3103 
Q 1469 3103 1208 2742 
Q 947 2381 947 1747 
z
" transform="scale(0.015625)"/>
       <path id="DejaVuSans-65" d="M 3597 1894 
L 3597 1613 
L 953 1613 
Q 991 1019 1311 708 
Q 1631 397 2203 397 
Q 2534 397 2845 478 
Q 3156 559 3463 722 
L 3463 178 
Q 3153 47 2828 -22 
Q 2503 -91 2169 -91 
Q 1331 -91 842 396 
Q 353 884 353 1716 
Q 353 2575 817 3079 
Q 1281 3584 2069 3584 
Q 2775 3584 3186 3129 
Q 3597 2675 3597 1894 
z
M 3022 2063 
Q 3016 2534 2758 2815 
Q 2500 3097 2075 3097 
Q 1594 3097 1305 2825 
Q 1016 2553 972 2059 
L 3022 2063 
z
" transform="scale(0.015625)"/>
       <path id="DejaVuSans-20" transform="scale(0.015625)"/>
       <path id="DejaVuSans-70" d="M 1159 525 
L 1159 -1331 
L 581 -1331 
L 581 3500 
L 1159 3500 
L 1159 2969 
Q 1341 3281 1617 3432 
Q 1894 3584 2278 3584 
Q 2916 3584 3314 3078 
Q 3713 2572 3713 1747 
Q 3713 922 3314 415 
Q 2916 -91 2278 -91 
Q 1894 -91 1617 61 
Q 1341 213 1159 525 
z
M 3116 1747 
Q 3116 2381 2855 2742 
Q 2594 3103 2138 3103 
Q 1681 3103 1420 2742 
Q 1159 2381 1159 1747 
Q 1159 1113 1420 752 
Q 1681 391 2138 391 
Q 2594 391 2855 752 
Q 3116 1113 3116 1747 
z
" transform="scale(0.015625)"/>
       <path id="DejaVuSans-72" d="M 2631 2963 
Q 2534 3019 2420 3045 
Q 2306 3072 2169 3072 
Q 1681 3072 1420 2755 
Q 1159 2438 1159 1844 
L 1159 0 
L 581 0 
L 581 3500 
L 1159 3500 
L 1159 2956 
Q 1341 3275 1631 3429 
Q 1922 3584 2338 3584 
Q 2397 3584 2469 3576 
Q 2541 3569 2628 3553 
L 2631 2963 
z
" transform="scale(0.015625)"/>
       <path id="DejaVuSans-6f" d="M 1959 3097 
Q 1497 3097 1228 2736 
Q 959 2375 959 1747 
Q 959 1119 1226 758 
Q 1494 397 1959 397 
Q 2419 397 2687 759 
Q 2956 1122 2956 1747 
Q 2956 2369 2687 2733 
Q 2419 3097 1959 3097 
z
M 1959 3584 
Q 2709 3584 3137 3096 
Q 3566 2609 3566 1747 
Q 3566 888 3137 398 
Q 2709 -91 1959 -91 
Q 1206 -91 779 398 
Q 353 888 353 1747 
Q 353 2609 779 3096 
Q 1206 3584 1959 3584 
z
" transform="scale(0.015625)"/>
       <path id="DejaVuSans-37" d="M 525 4666 
L 3525 4666 
L 3525 4397 
L 1831 0 
L 1172 0 
L 2766 4134 
L 525 4134 
L 525 4666 
z
" transform="scale(0.015625)"/>
       <path id="DejaVuSans-54" d="M -19 4666 
L 3928 4666 
L 3928 4134 
L 2272 4134 
L 2272 0 
L 1638 0 
L 1638 4134 
L -19 4134 
L -19 4666 
z
" transform="scale(0.015625)"/>
       <path id="DejaVuSans-61" d="M 2194 1759 
Q 1497 1759 1228 1600 
Q 959 1441 959 1056 
Q 959 750 1161 570 
Q 1363 391 1709 391 
Q 2188 391 2477 730 
Q 2766 1069 2766 1631 
L 2766 1759 
L 2194 1759 
z
M 3341 1997 
L 3341 0 
L 2766 0 
L 2766 531 
Q 2569 213 2275 61 
Q 1981 -91 1556 -91 
Q 1019 -91 701 211 
Q 384 513 384 1019 
Q 384 1609 779 1909 
Q 1175 2209 1959 2209 
L 2766 2209 
L 2766 2266 
Q 2766 2663 2505 2880 
Q 2244 3097 1772 3097 
Q 1472 3097 1187 3025 
Q 903 2953 641 2809 
L 641 3341 
Q 956 3463 1253 3523 
Q 1550 3584 1831 3584 
Q 2591 3584 2966 3190 
Q 3341 2797 3341 1997 
z
" transform="scale(0.015625)"/>
       <path id="DejaVuSans-67" d="M 2906 1791 
Q 2906 2416 2648 2759 
Q 2391 3103 1925 3103 
Q 1463 3103 1205 2759 
Q 947 2416 947 1791 
Q 947 1169 1205 825 
Q 1463 481 1925 481 
Q 2391 481 2648 825 
Q 2906 1169 2906 1791 
z
M 3481 434 
Q 3481 -459 3084 -895 
Q 2688 -1331 1869 -1331 
Q 1566 -1331 1297 -1286 
Q 1028 -1241 775 -1147 
L 775 -588 
Q 1028 -725 1275 -790 
Q 1522 -856 1778 -856 
Q 2344 -856 2625 -561 
Q 2906 -266 2906 331 
L 2906 616 
Q 2728 306 2450 153 
Q 2172 0 1784 0 
Q 1141 0 747 490 
Q 353 981 353 1791 
Q 353 2603 747 3093 
Q 1141 3584 1784 3584 
Q 2172 3584 2450 3431 
Q 2728 3278 2906 2969 
L 2906 3500 
L 3481 3500 
L 3481 434 
z
" transform="scale(0.015625)"/>
       <path id="DejaVuSans-45" d="M 628 4666 
L 3578 4666 
L 3578 4134 
L 1259 4134 
L 1259 2753 
L 3481 2753 
L 3481 2222 
L 1259 2222 
L 1259 531 
L 3634 531 
L 3634 0 
L 628 0 
L 628 4666 
z
" transform="scale(0.015625)"/>
       <path id="DejaVuSans-77" d="M 269 3500 
L 844 3500 
L 1563 769 
L 2278 3500 
L 2956 3500 
L 3675 769 
L 4391 3500 
L 4966 3500 
L 4050 0 
L 3372 0 
L 2619 2869 
L 1863 0 
L 1184 0 
L 269 3500 
z
" transform="scale(0.015625)"/>
       <path id="DejaVuSans-68" d="M 3513 2113 
L 3513 0 
L 2938 0 
L 2938 2094 
Q 2938 2591 2744 2837 
Q 2550 3084 2163 3084 
Q 1697 3084 1428 2787 
Q 1159 2491 1159 1978 
L 1159 0 
L 581 0 
L 581 4863 
L 1159 4863 
L 1159 2956 
Q 1366 3272 1645 3428 
Q 1925 3584 2291 3584 
Q 2894 3584 3203 3211 
Q 3513 2838 3513 2113 
z
" transform="scale(0.015625)"/>
      </defs>
      <use xlink:href="#DejaVuSans-49"/>
      <use xlink:href="#DejaVuSans-6e" x="29.492188"/>
      <use xlink:href="#DejaVuSans-7a" x="92.871094"/>
      <use xlink:href="#DejaVuSans-69" x="145.361328"/>
      <use xlink:href="#DejaVuSans-64" x="173.144531"/>
      <use xlink:href="#DejaVuSans-65" x="236.621094"/>
      <use xlink:href="#DejaVuSans-6e" x="298.144531"/>
      <use xlink:href="#DejaVuSans-7a" x="361.523438"/>
      <use xlink:href="#DejaVuSans-20" x="414.013672"/>
      <use xlink:href="#DejaVuSans-70" x="445.800781"/>
      <use xlink:href="#DejaVuSans-72" x="509.277344"/>
      <use xlink:href="#DejaVuSans-6f" x="548.140625"/>
      <use xlink:href="#DejaVuSans-20" x="609.322266"/>
      <use xlink:href="#DejaVuSans-37" x="641.109375"/>
      <use xlink:href="#DejaVuSans-20" x="704.732422"/>
      <use xlink:href="#DejaVuSans-54" x="736.519531"/>
      <use xlink:href="#DejaVuSans-61" x="781.103516"/>
      <use xlink:href="#DejaVuSans-67" x="842.382812"/>
      <use xlink:href="#DejaVuSans-65" x="905.859375"/>
      <use xlink:href="#DejaVuSans-20" x="967.382812"/>
      <use xlink:href="#DejaVuSans-70" x="999.169922"/>
      <use xlink:href="#DejaVuSans-72" x="1062.646484"/>
      <use xlink:href="#DejaVuSans-6f" x="1101.509766"/>
      <use xlink:href="#DejaVuSans-20" x="1162.691406"/>
      <use xlink:href="#DejaVuSans-31" x="1194.478516"/>
      <use xlink:href="#DejaVuSans-30" x="1258.101562"/>
      <use xlink:href="#DejaVuSans-30" x="1321.724609"/>
      <use xlink:href="#DejaVuSans-2e" x="1385.347656"/>
      <use xlink:href="#DejaVuSans-30" x="1417.134766"/>
      <use xlink:href="#DejaVuSans-30" x="1480.757812"/>
      <use xlink:href="#DejaVuSans-30" x="1544.380859"/>
      <use xlink:href="#DejaVuSans-20" x="1608.003906"/>
      <use xlink:href="#DejaVuSans-45" x="1639.791016"/>
      <use xlink:href="#DejaVuSans-69" x="1702.974609"/>
      <use xlink:href="#DejaVuSans-6e" x="1730.757812"/>
      <use xlink:href="#DejaVuSans-77" x="1794.136719"/>
      <use xlink:href="#DejaVuSans-6f" x="1875.923828"/>
      <use xlink:href="#DejaVuSans-68" x="1937.105469"/>
      <use xlink:href="#DejaVuSans-6e" x="2000.484375"/>
      <use xlink:href="#DejaVuSans-65" x="2063.863281"/>
      <use xlink:href="#DejaVuSans-72" x="2125.386719"/>
     </g>
    </g>
   </g>
   <g id="line2d_39">
    <path d="M 73.832727 265.293942 
L 75.347445 265.293942 
L 75.852351 264.790065 
L 76.862163 264.790065 
L 77.367069 265.293942 
L 78.376881 265.293942 
L 78.881787 264.286189 
L 79.386693 264.790065 
L 79.891599 263.782312 
L 80.396505 263.782312 
L 81.911223 257.735794 
L 82.416129 256.728041 
L 82.921035 254.208659 
L 83.425941 254.208659 
L 83.930847 253.704782 
L 84.435753 253.704782 
L 84.940659 251.1854 
L 85.445565 250.681523 
L 86.455377 247.658264 
L 87.465189 241.10787 
L 87.970095 242.619499 
L 88.475001 240.603993 
L 88.979907 235.061352 
L 89.484813 234.053599 
L 89.989719 231.03034 
L 90.494625 231.534216 
L 90.999531 234.053599 
L 91.504437 230.022587 
L 92.009343 230.526463 
L 92.514249 235.061352 
L 93.019155 235.565228 
L 93.524061 240.603993 
L 94.028966 244.131129 
L 94.533872 244.131129 
L 95.038778 245.642758 
L 95.543684 250.177647 
L 96.04859 251.689276 
L 96.553496 254.208659 
L 97.058402 255.216412 
L 97.563308 254.208659 
L 98.068214 255.216412 
L 98.57312 257.735794 
L 99.078026 259.247424 
L 99.582932 261.26293 
L 100.087838 262.774559 
L 100.592744 261.26293 
L 101.09765 262.270683 
L 101.602556 261.766806 
L 102.107462 261.766806 
L 103.117274 259.7513 
L 103.62218 258.239671 
L 104.127086 259.7513 
L 105.136898 259.7513 
L 105.641804 258.743547 
L 106.651616 255.720288 
L 107.156522 248.162141 
L 107.661428 246.650511 
L 108.166334 241.611746 
L 108.67124 238.084611 
L 109.176146 238.588487 
L 109.681052 237.580734 
L 110.185958 239.59624 
L 110.690864 247.658264 
L 111.19577 248.162141 
L 111.700676 253.704782 
L 112.205582 257.735794 
L 112.710488 258.743547 
L 113.215394 260.255177 
L 113.7203 258.743547 
L 114.225206 259.247424 
L 114.730112 256.728041 
L 116.24483 256.728041 
L 117.254642 260.759053 
L 118.264454 260.759053 
L 118.76936 260.255177 
L 119.274266 260.255177 
L 119.779171 258.239671 
L 120.788983 258.239671 
L 121.293889 258.743547 
L 121.798795 262.774559 
L 122.303701 263.278436 
L 122.808607 263.278436 
L 123.313513 265.293942 
L 124.828231 265.293942 
L 125.333137 265.797818 
L 128.362573 265.797818 
L 128.867479 265.293942 
L 130.887103 265.293942 
L 131.392009 264.790065 
L 131.896915 264.790065 
L 132.401821 265.293942 
L 134.421445 265.293942 
L 135.431257 264.286189 
L 135.936163 264.286189 
L 136.441069 263.782312 
L 137.450881 263.782312 
L 137.955787 263.278436 
L 138.460693 264.286189 
L 138.965599 264.790065 
L 139.470505 264.790065 
L 139.975411 265.293942 
L 140.480317 262.270683 
L 141.490129 260.255177 
L 141.995035 260.255177 
L 143.004847 259.247424 
L 143.509753 259.247424 
L 144.014659 262.270683 
L 144.519565 263.278436 
L 145.024471 264.790065 
L 146.034282 263.782312 
L 146.539188 264.286189 
L 148.558812 264.286189 
L 149.063718 264.790065 
L 149.568624 265.797818 
L 150.07353 265.293942 
L 150.578436 265.293942 
L 151.588248 264.286189 
L 152.093154 263.278436 
L 152.59806 263.278436 
L 153.102966 262.270683 
L 153.607872 262.774559 
L 154.112778 261.26293 
L 154.617684 261.766806 
L 155.12259 260.255177 
L 155.627496 260.759053 
L 156.132402 257.735794 
L 156.637308 258.743547 
L 157.142214 258.239671 
L 157.64712 259.247424 
L 158.152026 259.247424 
L 158.656932 260.255177 
L 159.161838 260.759053 
L 159.666744 262.270683 
L 160.17165 259.7513 
L 161.181462 258.743547 
L 161.686368 258.743547 
L 162.191274 259.7513 
L 162.69618 257.735794 
L 163.201086 257.231918 
L 163.705992 258.239671 
L 164.715804 259.247424 
L 165.22071 256.728041 
L 165.725616 256.728041 
L 166.230522 258.743547 
L 166.735428 259.7513 
L 167.240334 259.7513 
L 167.74524 259.247424 
L 168.250146 259.247424 
L 168.755052 261.26293 
L 169.259958 260.759053 
L 169.764864 259.7513 
L 170.26977 260.759053 
L 171.279582 261.766806 
L 171.784487 261.766806 
L 172.794299 260.759053 
L 173.299205 258.239671 
L 173.804111 257.231918 
L 174.309017 255.216412 
L 174.813923 254.208659 
L 175.318829 254.208659 
L 175.823735 255.216412 
L 176.328641 255.216412 
L 176.833547 258.239671 
L 177.338453 258.239671 
L 177.843359 260.255177 
L 178.348265 260.759053 
L 178.853171 260.759053 
L 179.358077 260.255177 
L 179.862983 260.759053 
L 180.367889 260.255177 
L 180.872795 258.239671 
L 181.377701 258.743547 
L 181.882607 254.208659 
L 182.387513 254.712535 
L 182.892419 254.208659 
L 183.397325 252.697029 
L 183.902231 249.67377 
L 184.407137 249.67377 
L 184.912043 245.642758 
L 185.416949 238.588487 
L 185.921855 236.069105 
L 186.426761 234.557475 
L 186.931667 235.565228 
L 187.941479 234.557475 
L 188.446385 233.549722 
L 188.951291 238.084611 
L 189.456197 234.053599 
L 189.961103 235.061352 
L 190.466009 233.045846 
L 190.970915 229.51871 
L 191.475821 223.472192 
L 191.980727 222.464439 
L 192.485633 215.914045 
L 192.990539 214.402415 
L 193.495445 210.371403 
L 194.000351 203.317132 
L 195.010163 170.56516 
L 195.515069 164.014765 
L 196.019975 165.022518 
L 196.524881 157.46437 
L 197.029787 147.890717 
L 197.534692 149.906223 
L 198.039598 163.510889 
L 199.04941 182.154319 
L 199.554316 172.076789 
L 200.059222 173.084542 
L 201.069034 164.518642 
L 201.57394 164.518642 
L 202.078846 176.611678 
L 202.583752 173.588419 
L 203.088658 168.045777 
L 203.593564 167.038024 
L 204.09847 183.665949 
L 204.603376 180.64269 
L 205.108282 184.169825 
L 206.118094 172.076789 
L 206.623 181.146566 
L 207.127906 196.766738 
L 207.632812 186.689208 
L 208.137718 194.751232 
L 208.642624 188.704714 
L 209.14753 180.64269 
L 209.652436 180.138813 
L 210.157342 189.712467 
L 210.662248 176.107801 
L 211.167154 184.673702 
L 211.67206 182.658196 
L 212.176966 190.72022 
L 212.681872 193.743479 
L 213.691684 192.735726 
L 214.19659 189.712467 
L 214.701496 194.247355 
L 215.206402 187.193084 
L 216.216214 178.627184 
L 216.72112 179.634937 
L 217.226026 169.05353 
L 217.730932 170.56516 
L 218.235838 163.510889 
L 218.740744 173.084542 
L 219.24565 163.007012 
L 219.750556 165.526395 
L 220.255462 156.960494 
L 220.760368 141.844199 
L 221.265274 134.789928 
L 221.77018 135.797681 
L 222.275086 116.146497 
L 222.779992 115.642621 
L 223.284897 106.572844 
L 223.789803 116.146497 
L 224.294709 146.882964 
L 224.799615 160.991506 
L 225.304521 160.48763 
L 225.809427 176.107801 
L 226.314333 169.05353 
L 226.819239 176.611678 
L 227.324145 170.061283 
L 227.829051 166.030271 
L 228.333957 123.704645 
L 228.838863 107.07672 
L 229.343769 103.549585 
L 229.848675 103.549585 
L 230.353581 88.43329 
L 230.858487 83.394525 
L 231.363393 72.309242 
L 231.868299 110.099979 
L 232.373205 124.208521 
L 232.878111 131.766669 
L 233.887923 158.976 
L 234.392829 158.976 
L 234.897735 165.022518 
L 235.402641 163.007012 
L 236.412453 155.448864 
L 236.917359 158.472123 
L 237.927171 166.030271 
L 238.432077 168.549654 
L 238.936983 164.518642 
L 239.441889 161.999259 
L 239.946795 165.022518 
L 240.451701 141.844199 
L 240.956607 111.107732 
L 241.461513 116.146497 
L 241.966419 117.15425 
L 242.471325 127.23178 
L 242.976231 134.286051 
L 243.481137 132.774422 
L 243.986043 152.929482 
L 244.490949 184.673702 
L 244.995855 186.185331 
L 245.500761 193.239602 
L 246.510573 202.813256 
L 247.015479 209.36365 
L 247.520385 210.371403 
L 248.025291 216.921798 
L 248.530197 216.921798 
L 249.035103 208.859774 
L 249.540008 203.821009 
L 250.044914 202.309379 
L 250.54982 196.766738 
L 251.054726 197.270614 
L 251.559632 197.270614 
L 252.064538 201.805503 
L 252.569444 197.774491 
L 253.07435 197.774491 
L 254.084162 195.758985 
L 254.589068 195.758985 
L 255.59888 196.766738 
L 256.103786 201.301626 
L 256.608692 199.28612 
L 257.113598 199.789997 
L 258.12341 201.805503 
L 258.628316 195.255108 
L 259.133222 184.169825 
L 259.638128 183.162072 
L 260.143034 175.603925 
L 260.64794 172.076789 
L 261.152846 170.56516 
L 261.657752 163.007012 
L 262.162658 160.991506 
L 262.667564 153.937235 
L 263.17247 152.929482 
L 263.677376 150.410099 
L 264.182282 146.882964 
L 264.687188 141.340322 
L 265.192094 130.255039 
L 265.697 122.193015 
L 266.201906 129.751163 
L 266.706812 119.673633 
L 267.211718 122.193015 
L 267.716624 129.247286 
L 268.22153 129.247286 
L 268.726436 140.332569 
L 269.231342 140.836446 
L 269.736248 122.193015 
L 270.241154 117.15425 
L 270.74606 114.130991 
L 271.250966 101.534079 
L 271.755872 97.503067 
L 272.260778 89.944919 
L 272.765684 77.348007 
L 273.27059 73.316995 
L 273.775496 80.371266 
L 274.280402 80.371266 
L 274.785308 81.882895 
L 275.290213 89.441043 
L 275.795119 90.952672 
L 276.300025 103.045708 
L 276.804931 127.23178 
L 277.814743 122.193015 
L 278.319649 125.216274 
L 278.824555 114.130991 
L 279.329461 114.130991 
L 279.834367 114.634868 
L 280.339273 116.146497 
L 280.844179 126.727904 
L 282.358897 152.425605 
L 282.863803 164.518642 
L 283.368709 172.580666 
L 283.873615 169.05353 
L 284.378521 168.549654 
L 284.883427 174.092295 
L 285.388333 174.092295 
L 285.893239 181.146566 
L 286.398145 183.162072 
L 287.407957 189.20859 
L 287.912863 194.751232 
L 288.417769 194.247355 
L 288.922675 194.247355 
L 289.427581 191.224096 
L 289.932487 189.20859 
L 290.437393 192.231849 
L 290.942299 201.301626 
L 291.447205 199.789997 
L 291.952111 201.301626 
L 292.457017 199.789997 
L 292.961923 202.309379 
L 293.466829 208.859774 
L 293.971735 209.867527 
L 294.476641 210.371403 
L 294.981547 218.433427 
L 295.991359 230.526463 
L 296.496265 226.495451 
L 297.001171 228.510957 
L 297.506077 222.968316 
L 298.515889 220.95281 
L 299.020795 218.937304 
L 299.525701 217.929551 
L 300.030607 224.983822 
L 300.535513 226.999328 
L 301.040418 236.572981 
L 301.545324 241.10787 
L 302.05023 242.115623 
L 303.060042 246.650511 
L 303.564948 250.681523 
L 304.069854 252.697029 
L 304.57476 253.704782 
L 305.079666 254.208659 
L 305.584572 252.193153 
L 306.089478 253.200906 
L 306.594384 256.224165 
L 307.09929 251.1854 
L 308.109102 243.627252 
L 308.614008 244.635005 
L 309.118914 244.635005 
L 309.62382 245.642758 
L 310.128726 241.10787 
L 310.633632 244.635005 
L 311.138538 249.169894 
L 311.643444 255.216412 
L 312.14835 254.712535 
L 312.653256 258.743547 
L 313.158162 258.743547 
L 313.663068 260.255177 
L 314.167974 259.247424 
L 314.67288 259.247424 
L 315.682692 260.255177 
L 316.187598 259.7513 
L 316.692504 261.26293 
L 317.19741 260.759053 
L 317.702316 259.247424 
L 318.207222 259.7513 
L 318.712128 258.239671 
L 319.217034 258.743547 
L 319.72194 257.231918 
L 320.226846 256.224165 
L 320.731752 257.231918 
L 321.236658 259.7513 
L 321.741564 259.7513 
L 322.24647 260.255177 
L 322.751376 260.255177 
L 323.256282 261.766806 
L 323.761188 261.766806 
L 324.266094 261.26293 
L 324.771 260.255177 
L 325.275906 258.743547 
L 325.780812 258.743547 
L 326.285718 257.231918 
L 327.295529 251.689276 
L 327.800435 251.689276 
L 328.305341 250.681523 
L 328.810247 251.1854 
L 330.829871 245.138882 
L 331.334777 245.138882 
L 331.839683 243.123376 
L 332.344589 233.045846 
L 332.849495 229.51871 
L 333.354401 230.022587 
L 333.859307 226.999328 
L 334.364213 226.495451 
L 334.869119 221.960563 
L 335.374025 222.968316 
L 335.878931 227.503204 
L 336.888743 218.937304 
L 337.393649 220.95281 
L 337.898555 219.44118 
L 338.403461 220.448933 
L 338.908367 216.921798 
L 339.413273 208.355897 
L 339.918179 213.898539 
L 340.423085 211.883033 
L 340.927991 203.821009 
L 341.432897 202.813256 
L 341.937803 203.317132 
L 342.442709 200.293873 
L 342.947615 202.813256 
L 343.452521 193.743479 
L 343.957427 188.200837 
L 344.462333 195.758985 
L 344.967239 193.743479 
L 345.472145 192.231849 
L 345.977051 192.735726 
L 346.481957 196.262861 
L 346.986863 197.774491 
L 347.491769 201.301626 
L 348.501581 195.758985 
L 349.006487 193.239602 
L 349.511393 195.758985 
L 350.016299 194.247355 
L 351.026111 203.317132 
L 351.531017 203.317132 
L 352.035923 207.348144 
L 352.540829 212.386909 
L 353.55064 212.386909 
L 354.055546 210.87528 
L 354.560452 206.844268 
L 355.570264 215.410168 
L 356.07517 215.914045 
L 356.580076 215.914045 
L 357.084982 218.937304 
L 358.094794 226.495451 
L 358.5997 224.983822 
L 359.104606 225.487698 
L 359.609512 225.487698 
L 360.114418 229.014834 
L 360.619324 227.503204 
L 361.12423 223.976069 
L 362.134042 214.906292 
L 363.143854 212.890786 
L 363.64876 209.36365 
L 364.153666 209.36365 
L 364.658572 214.402415 
L 365.163478 216.417921 
L 365.668384 218.937304 
L 366.17329 219.945057 
L 366.678196 219.945057 
L 367.183102 220.448933 
L 367.688008 223.472192 
L 368.192914 221.456686 
L 368.69782 224.983822 
L 369.202726 226.495451 
L 369.707632 222.968316 
L 370.212538 222.464439 
L 370.717444 224.983822 
L 371.22235 226.495451 
L 371.727256 223.472192 
L 372.232162 225.487698 
L 372.737068 219.945057 
L 373.241974 220.95281 
L 373.74688 224.479945 
L 374.251786 186.689208 
L 374.756692 181.650443 
L 375.261598 179.634937 
L 375.766504 170.061283 
L 377.281222 149.402346 
L 377.786128 180.138813 
L 378.291034 170.56516 
L 379.300845 160.48763 
L 379.805751 165.022518 
L 380.310657 158.976 
L 380.815563 155.952741 
L 381.320469 156.960494 
L 381.825375 166.030271 
L 382.330281 166.534148 
L 382.835187 172.076789 
L 383.340093 168.045777 
L 383.844999 179.634937 
L 384.349905 176.107801 
L 384.854811 168.549654 
L 385.359717 155.952741 
L 385.864623 153.937235 
L 386.369529 145.875211 
L 386.874435 142.348075 
L 387.379341 124.208521 
L 387.884247 126.727904 
L 388.389153 130.255039 
L 388.894059 128.239533 
L 389.903871 93.472055 
L 390.408777 85.913907 
L 390.913683 94.983684 
L 391.418589 87.425537 
L 391.923495 64.247218 
L 392.428401 55.177441 
L 392.933307 55.177441 
L 393.438213 60.720082 
L 393.943119 61.727835 
L 394.448025 52.154182 
L 394.952931 55.177441 
L 395.457837 73.316995 
L 395.962743 74.324748 
L 396.467649 70.797612 
L 396.972555 68.782106 
L 397.477461 74.828624 
L 397.982367 83.394525 
L 398.487273 82.890648 
L 398.487273 82.890648 
" clip-path="url(#p345ccfe77b)" style="fill: none; stroke: #1f77b4; stroke-width: 1.5; stroke-linecap: square"/>
   </g>
   <g id="patch_3">
    <path d="M 57.6 276.48 
L 57.6 41.472 
" style="fill: none; stroke: #000000; stroke-width: 0.8; stroke-linejoin: miter; stroke-linecap: square"/>
   </g>
   <g id="patch_4">
    <path d="M 414.72 276.48 
L 414.72 41.472 
" style="fill: none; stroke: #000000; stroke-width: 0.8; stroke-linejoin: miter; stroke-linecap: square"/>
   </g>
   <g id="patch_5">
    <path d="M 57.6 276.48 
L 414.72 276.48 
" style="fill: none; stroke: #000000; stroke-width: 0.8; stroke-linejoin: miter; stroke-linecap: square"/>
   </g>
   <g id="patch_6">
    <path d="M 57.6 41.472 
L 414.72 41.472 
" style="fill: none; stroke: #000000; stroke-width: 0.8; stroke-linejoin: miter; stroke-linecap: square"/>
   </g>
  </g>
  <g id="text_21">
   <!-- Inzidenzverlauf LK Segeberg -->
   <g transform="translate(102.038906 20.589187)scale(0.18 -0.18)">
    <defs>
     <path id="DejaVuSans-76" d="M 191 3500 
L 800 3500 
L 1894 563 
L 2988 3500 
L 3597 3500 
L 2284 0 
L 1503 0 
L 191 3500 
z
" transform="scale(0.015625)"/>
     <path id="DejaVuSans-6c" d="M 603 4863 
L 1178 4863 
L 1178 0 
L 603 0 
L 603 4863 
z
" transform="scale(0.015625)"/>
     <path id="DejaVuSans-75" d="M 544 1381 
L 544 3500 
L 1119 3500 
L 1119 1403 
Q 1119 906 1312 657 
Q 1506 409 1894 409 
Q 2359 409 2629 706 
Q 2900 1003 2900 1516 
L 2900 3500 
L 3475 3500 
L 3475 0 
L 2900 0 
L 2900 538 
Q 2691 219 2414 64 
Q 2138 -91 1772 -91 
Q 1169 -91 856 284 
Q 544 659 544 1381 
z
M 1991 3584 
L 1991 3584 
z
" transform="scale(0.015625)"/>
     <path id="DejaVuSans-66" d="M 2375 4863 
L 2375 4384 
L 1825 4384 
Q 1516 4384 1395 4259 
Q 1275 4134 1275 3809 
L 1275 3500 
L 2222 3500 
L 2222 3053 
L 1275 3053 
L 1275 0 
L 697 0 
L 697 3053 
L 147 3053 
L 147 3500 
L 697 3500 
L 697 3744 
Q 697 4328 969 4595 
Q 1241 4863 1831 4863 
L 2375 4863 
z
" transform="scale(0.015625)"/>
     <path id="DejaVuSans-4c" d="M 628 4666 
L 1259 4666 
L 1259 531 
L 3531 531 
L 3531 0 
L 628 0 
L 628 4666 
z
" transform="scale(0.015625)"/>
     <path id="DejaVuSans-4b" d="M 628 4666 
L 1259 4666 
L 1259 2694 
L 3353 4666 
L 4166 4666 
L 1850 2491 
L 4331 0 
L 3500 0 
L 1259 2247 
L 1259 0 
L 628 0 
L 628 4666 
z
" transform="scale(0.015625)"/>
     <path id="DejaVuSans-53" d="M 3425 4513 
L 3425 3897 
Q 3066 4069 2747 4153 
Q 2428 4238 2131 4238 
Q 1616 4238 1336 4038 
Q 1056 3838 1056 3469 
Q 1056 3159 1242 3001 
Q 1428 2844 1947 2747 
L 2328 2669 
Q 3034 2534 3370 2195 
Q 3706 1856 3706 1288 
Q 3706 609 3251 259 
Q 2797 -91 1919 -91 
Q 1588 -91 1214 -16 
Q 841 59 441 206 
L 441 856 
Q 825 641 1194 531 
Q 1563 422 1919 422 
Q 2459 422 2753 634 
Q 3047 847 3047 1241 
Q 3047 1584 2836 1778 
Q 2625 1972 2144 2069 
L 1759 2144 
Q 1053 2284 737 2584 
Q 422 2884 422 3419 
Q 422 4038 858 4394 
Q 1294 4750 2059 4750 
Q 2388 4750 2728 4690 
Q 3069 4631 3425 4513 
z
" transform="scale(0.015625)"/>
     <path id="DejaVuSans-62" d="M 3116 1747 
Q 3116 2381 2855 2742 
Q 2594 3103 2138 3103 
Q 1681 3103 1420 2742 
Q 1159 2381 1159 1747 
Q 1159 1113 1420 752 
Q 1681 391 2138 391 
Q 2594 391 2855 752 
Q 3116 1113 3116 1747 
z
M 1159 2969 
Q 1341 3281 1617 3432 
Q 1894 3584 2278 3584 
Q 2916 3584 3314 3078 
Q 3713 2572 3713 1747 
Q 3713 922 3314 415 
Q 2916 -91 2278 -91 
Q 1894 -91 1617 61 
Q 1341 213 1159 525 
L 1159 0 
L 581 0 
L 581 4863 
L 1159 4863 
L 1159 2969 
z
" transform="scale(0.015625)"/>
    </defs>
    <use xlink:href="#DejaVuSans-49"/>
    <use xlink:href="#DejaVuSans-6e" x="29.492188"/>
    <use xlink:href="#DejaVuSans-7a" x="92.871094"/>
    <use xlink:href="#DejaVuSans-69" x="145.361328"/>
    <use xlink:href="#DejaVuSans-64" x="173.144531"/>
    <use xlink:href="#DejaVuSans-65" x="236.621094"/>
    <use xlink:href="#DejaVuSans-6e" x="298.144531"/>
    <use xlink:href="#DejaVuSans-7a" x="361.523438"/>
    <use xlink:href="#DejaVuSans-76" x="414.013672"/>
    <use xlink:href="#DejaVuSans-65" x="473.193359"/>
    <use xlink:href="#DejaVuSans-72" x="534.716797"/>
    <use xlink:href="#DejaVuSans-6c" x="575.830078"/>
    <use xlink:href="#DejaVuSans-61" x="603.613281"/>
    <use xlink:href="#DejaVuSans-75" x="664.892578"/>
    <use xlink:href="#DejaVuSans-66" x="728.271484"/>
    <use xlink:href="#DejaVuSans-20" x="763.476562"/>
    <use xlink:href="#DejaVuSans-4c" x="795.263672"/>
    <use xlink:href="#DejaVuSans-4b" x="850.976562"/>
    <use xlink:href="#DejaVuSans-20" x="916.552734"/>
    <use xlink:href="#DejaVuSans-53" x="948.339844"/>
    <use xlink:href="#DejaVuSans-65" x="1011.816406"/>
    <use xlink:href="#DejaVuSans-67" x="1073.339844"/>
    <use xlink:href="#DejaVuSans-65" x="1136.816406"/>
    <use xlink:href="#DejaVuSans-62" x="1198.339844"/>
    <use xlink:href="#DejaVuSans-65" x="1261.816406"/>
    <use xlink:href="#DejaVuSans-72" x="1323.339844"/>
    <use xlink:href="#DejaVuSans-67" x="1362.703125"/>
   </g>
  </g>
 </g>
 <defs>
  <clipPath id="p345ccfe77b">
   <rect x="57.6" y="41.472" width="357.12" height="235.008"/>
  </clipPath>
 </defs>
</svg>
