<?xml version="1.0" encoding="utf-8" standalone="no"?>
<!DOCTYPE svg PUBLIC "-//W3C//DTD SVG 1.1//EN"
  "http://www.w3.org/Graphics/SVG/1.1/DTD/svg11.dtd">
<svg xmlns:xlink="http://www.w3.org/1999/xlink" width="460.8pt" height="345.6pt" viewBox="0 0 460.8 345.6" xmlns="http://www.w3.org/2000/svg" version="1.1">
 <metadata>
  <rdf:RDF xmlns:dc="http://purl.org/dc/elements/1.1/" xmlns:cc="http://creativecommons.org/ns#" xmlns:rdf="http://www.w3.org/1999/02/22-rdf-syntax-ns#">
   <cc:Work>
    <dc:type rdf:resource="http://purl.org/dc/dcmitype/StillImage"/>
    <dc:date>2022-04-28T09:24:38.341181</dc:date>
    <dc:format>image/svg+xml</dc:format>
    <dc:creator>
     <cc:Agent>
      <dc:title>Matplotlib v3.5.1, https://matplotlib.org/</dc:title>
     </cc:Agent>
    </dc:creator>
   </cc:Work>
  </rdf:RDF>
 </metadata>
 <defs>
  <style type="text/css">*{stroke-linejoin: round; stroke-linecap: butt}</style>
 </defs>
 <g id="figure_1">
  <g id="patch_1">
   <path d="M 0 345.6 
L 460.8 345.6 
L 460.8 0 
L 0 0 
z
" style="fill: #ffffff"/>
  </g>
  <g id="axes_1">
   <g id="patch_2">
    <path d="M 57.6 276.48 
L 414.72 276.48 
L 414.72 41.472 
L 57.6 41.472 
z
" style="fill: #ffffff"/>
   </g>
   <g id="matplotlib.axis_1">
    <g id="xtick_1">
     <g id="line2d_1">
      <path d="M 59.083525 276.48 
L 59.083525 41.472 
" clip-path="url(#pf1a965a5c8)" style="fill: none; stroke-dasharray: 2.96,1.28; stroke-dashoffset: 0; stroke: #808080; stroke-width: 0.8"/>
     </g>
     <g id="line2d_2">
      <defs>
       <path id="mef68c7b34c" d="M 0 0 
L 0 3.5 
" style="stroke: #000000; stroke-width: 0.8"/>
      </defs>
      <g>
       <use xlink:href="#mef68c7b34c" x="59.083525" y="276.48" style="stroke: #000000; stroke-width: 0.8"/>
      </g>
     </g>
     <g id="text_1">
      <!-- 27.01.2020 -->
      <g transform="translate(8.458315 318.688565)rotate(-30)scale(0.1 -0.1)">
       <defs>
        <path id="DejaVuSans-32" d="M 1228 531 
L 3431 531 
L 3431 0 
L 469 0 
L 469 531 
Q 828 903 1448 1529 
Q 2069 2156 2228 2338 
Q 2531 2678 2651 2914 
Q 2772 3150 2772 3378 
Q 2772 3750 2511 3984 
Q 2250 4219 1831 4219 
Q 1534 4219 1204 4116 
Q 875 4013 500 3803 
L 500 4441 
Q 881 4594 1212 4672 
Q 1544 4750 1819 4750 
Q 2544 4750 2975 4387 
Q 3406 4025 3406 3419 
Q 3406 3131 3298 2873 
Q 3191 2616 2906 2266 
Q 2828 2175 2409 1742 
Q 1991 1309 1228 531 
z
" transform="scale(0.015625)"/>
        <path id="DejaVuSans-37" d="M 525 4666 
L 3525 4666 
L 3525 4397 
L 1831 0 
L 1172 0 
L 2766 4134 
L 525 4134 
L 525 4666 
z
" transform="scale(0.015625)"/>
        <path id="DejaVuSans-2e" d="M 684 794 
L 1344 794 
L 1344 0 
L 684 0 
L 684 794 
z
" transform="scale(0.015625)"/>
        <path id="DejaVuSans-30" d="M 2034 4250 
Q 1547 4250 1301 3770 
Q 1056 3291 1056 2328 
Q 1056 1369 1301 889 
Q 1547 409 2034 409 
Q 2525 409 2770 889 
Q 3016 1369 3016 2328 
Q 3016 3291 2770 3770 
Q 2525 4250 2034 4250 
z
M 2034 4750 
Q 2819 4750 3233 4129 
Q 3647 3509 3647 2328 
Q 3647 1150 3233 529 
Q 2819 -91 2034 -91 
Q 1250 -91 836 529 
Q 422 1150 422 2328 
Q 422 3509 836 4129 
Q 1250 4750 2034 4750 
z
" transform="scale(0.015625)"/>
        <path id="DejaVuSans-31" d="M 794 531 
L 1825 531 
L 1825 4091 
L 703 3866 
L 703 4441 
L 1819 4666 
L 2450 4666 
L 2450 531 
L 3481 531 
L 3481 0 
L 794 0 
L 794 531 
z
" transform="scale(0.015625)"/>
       </defs>
       <use xlink:href="#DejaVuSans-32"/>
       <use xlink:href="#DejaVuSans-37" x="63.623047"/>
       <use xlink:href="#DejaVuSans-2e" x="127.246094"/>
       <use xlink:href="#DejaVuSans-30" x="159.033203"/>
       <use xlink:href="#DejaVuSans-31" x="222.65625"/>
       <use xlink:href="#DejaVuSans-2e" x="286.279297"/>
       <use xlink:href="#DejaVuSans-32" x="318.066406"/>
       <use xlink:href="#DejaVuSans-30" x="381.689453"/>
       <use xlink:href="#DejaVuSans-32" x="445.3125"/>
       <use xlink:href="#DejaVuSans-30" x="508.935547"/>
      </g>
     </g>
    </g>
    <g id="xtick_2">
     <g id="line2d_3">
      <path d="M 95.01857 276.48 
L 95.01857 41.472 
" clip-path="url(#pf1a965a5c8)" style="fill: none; stroke-dasharray: 2.96,1.28; stroke-dashoffset: 0; stroke: #808080; stroke-width: 0.8"/>
     </g>
     <g id="line2d_4">
      <g>
       <use xlink:href="#mef68c7b34c" x="95.01857" y="276.48" style="stroke: #000000; stroke-width: 0.8"/>
      </g>
     </g>
     <g id="text_2">
      <!-- 23.04.2020 -->
      <g transform="translate(44.39336 318.688565)rotate(-30)scale(0.1 -0.1)">
       <defs>
        <path id="DejaVuSans-33" d="M 2597 2516 
Q 3050 2419 3304 2112 
Q 3559 1806 3559 1356 
Q 3559 666 3084 287 
Q 2609 -91 1734 -91 
Q 1441 -91 1130 -33 
Q 819 25 488 141 
L 488 750 
Q 750 597 1062 519 
Q 1375 441 1716 441 
Q 2309 441 2620 675 
Q 2931 909 2931 1356 
Q 2931 1769 2642 2001 
Q 2353 2234 1838 2234 
L 1294 2234 
L 1294 2753 
L 1863 2753 
Q 2328 2753 2575 2939 
Q 2822 3125 2822 3475 
Q 2822 3834 2567 4026 
Q 2313 4219 1838 4219 
Q 1578 4219 1281 4162 
Q 984 4106 628 3988 
L 628 4550 
Q 988 4650 1302 4700 
Q 1616 4750 1894 4750 
Q 2613 4750 3031 4423 
Q 3450 4097 3450 3541 
Q 3450 3153 3228 2886 
Q 3006 2619 2597 2516 
z
" transform="scale(0.015625)"/>
        <path id="DejaVuSans-34" d="M 2419 4116 
L 825 1625 
L 2419 1625 
L 2419 4116 
z
M 2253 4666 
L 3047 4666 
L 3047 1625 
L 3713 1625 
L 3713 1100 
L 3047 1100 
L 3047 0 
L 2419 0 
L 2419 1100 
L 313 1100 
L 313 1709 
L 2253 4666 
z
" transform="scale(0.015625)"/>
       </defs>
       <use xlink:href="#DejaVuSans-32"/>
       <use xlink:href="#DejaVuSans-33" x="63.623047"/>
       <use xlink:href="#DejaVuSans-2e" x="127.246094"/>
       <use xlink:href="#DejaVuSans-30" x="159.033203"/>
       <use xlink:href="#DejaVuSans-34" x="222.65625"/>
       <use xlink:href="#DejaVuSans-2e" x="286.279297"/>
       <use xlink:href="#DejaVuSans-32" x="318.066406"/>
       <use xlink:href="#DejaVuSans-30" x="381.689453"/>
       <use xlink:href="#DejaVuSans-32" x="445.3125"/>
       <use xlink:href="#DejaVuSans-30" x="508.935547"/>
      </g>
     </g>
    </g>
    <g id="xtick_3">
     <g id="line2d_5">
      <path d="M 130.953616 276.48 
L 130.953616 41.472 
" clip-path="url(#pf1a965a5c8)" style="fill: none; stroke-dasharray: 2.96,1.28; stroke-dashoffset: 0; stroke: #808080; stroke-width: 0.8"/>
     </g>
     <g id="line2d_6">
      <g>
       <use xlink:href="#mef68c7b34c" x="130.953616" y="276.48" style="stroke: #000000; stroke-width: 0.8"/>
      </g>
     </g>
     <g id="text_3">
      <!-- 19.07.2020 -->
      <g transform="translate(80.328405 318.688565)rotate(-30)scale(0.1 -0.1)">
       <defs>
        <path id="DejaVuSans-39" d="M 703 97 
L 703 672 
Q 941 559 1184 500 
Q 1428 441 1663 441 
Q 2288 441 2617 861 
Q 2947 1281 2994 2138 
Q 2813 1869 2534 1725 
Q 2256 1581 1919 1581 
Q 1219 1581 811 2004 
Q 403 2428 403 3163 
Q 403 3881 828 4315 
Q 1253 4750 1959 4750 
Q 2769 4750 3195 4129 
Q 3622 3509 3622 2328 
Q 3622 1225 3098 567 
Q 2575 -91 1691 -91 
Q 1453 -91 1209 -44 
Q 966 3 703 97 
z
M 1959 2075 
Q 2384 2075 2632 2365 
Q 2881 2656 2881 3163 
Q 2881 3666 2632 3958 
Q 2384 4250 1959 4250 
Q 1534 4250 1286 3958 
Q 1038 3666 1038 3163 
Q 1038 2656 1286 2365 
Q 1534 2075 1959 2075 
z
" transform="scale(0.015625)"/>
       </defs>
       <use xlink:href="#DejaVuSans-31"/>
       <use xlink:href="#DejaVuSans-39" x="63.623047"/>
       <use xlink:href="#DejaVuSans-2e" x="127.246094"/>
       <use xlink:href="#DejaVuSans-30" x="159.033203"/>
       <use xlink:href="#DejaVuSans-37" x="222.65625"/>
       <use xlink:href="#DejaVuSans-2e" x="286.279297"/>
       <use xlink:href="#DejaVuSans-32" x="318.066406"/>
       <use xlink:href="#DejaVuSans-30" x="381.689453"/>
       <use xlink:href="#DejaVuSans-32" x="445.3125"/>
       <use xlink:href="#DejaVuSans-30" x="508.935547"/>
      </g>
     </g>
    </g>
    <g id="xtick_4">
     <g id="line2d_7">
      <path d="M 166.888661 276.48 
L 166.888661 41.472 
" clip-path="url(#pf1a965a5c8)" style="fill: none; stroke-dasharray: 2.96,1.28; stroke-dashoffset: 0; stroke: #808080; stroke-width: 0.8"/>
     </g>
     <g id="line2d_8">
      <g>
       <use xlink:href="#mef68c7b34c" x="166.888661" y="276.48" style="stroke: #000000; stroke-width: 0.8"/>
      </g>
     </g>
     <g id="text_4">
      <!-- 14.10.2020 -->
      <g transform="translate(116.26345 318.688565)rotate(-30)scale(0.1 -0.1)">
       <use xlink:href="#DejaVuSans-31"/>
       <use xlink:href="#DejaVuSans-34" x="63.623047"/>
       <use xlink:href="#DejaVuSans-2e" x="127.246094"/>
       <use xlink:href="#DejaVuSans-31" x="159.033203"/>
       <use xlink:href="#DejaVuSans-30" x="222.65625"/>
       <use xlink:href="#DejaVuSans-2e" x="286.279297"/>
       <use xlink:href="#DejaVuSans-32" x="318.066406"/>
       <use xlink:href="#DejaVuSans-30" x="381.689453"/>
       <use xlink:href="#DejaVuSans-32" x="445.3125"/>
       <use xlink:href="#DejaVuSans-30" x="508.935547"/>
      </g>
     </g>
    </g>
    <g id="xtick_5">
     <g id="line2d_9">
      <path d="M 202.823706 276.48 
L 202.823706 41.472 
" clip-path="url(#pf1a965a5c8)" style="fill: none; stroke-dasharray: 2.96,1.28; stroke-dashoffset: 0; stroke: #808080; stroke-width: 0.8"/>
     </g>
     <g id="line2d_10">
      <g>
       <use xlink:href="#mef68c7b34c" x="202.823706" y="276.48" style="stroke: #000000; stroke-width: 0.8"/>
      </g>
     </g>
     <g id="text_5">
      <!-- 09.01.2021 -->
      <g transform="translate(152.198495 318.688565)rotate(-30)scale(0.1 -0.1)">
       <use xlink:href="#DejaVuSans-30"/>
       <use xlink:href="#DejaVuSans-39" x="63.623047"/>
       <use xlink:href="#DejaVuSans-2e" x="127.246094"/>
       <use xlink:href="#DejaVuSans-30" x="159.033203"/>
       <use xlink:href="#DejaVuSans-31" x="222.65625"/>
       <use xlink:href="#DejaVuSans-2e" x="286.279297"/>
       <use xlink:href="#DejaVuSans-32" x="318.066406"/>
       <use xlink:href="#DejaVuSans-30" x="381.689453"/>
       <use xlink:href="#DejaVuSans-32" x="445.3125"/>
       <use xlink:href="#DejaVuSans-31" x="508.935547"/>
      </g>
     </g>
    </g>
    <g id="xtick_6">
     <g id="line2d_11">
      <path d="M 238.758751 276.48 
L 238.758751 41.472 
" clip-path="url(#pf1a965a5c8)" style="fill: none; stroke-dasharray: 2.96,1.28; stroke-dashoffset: 0; stroke: #808080; stroke-width: 0.8"/>
     </g>
     <g id="line2d_12">
      <g>
       <use xlink:href="#mef68c7b34c" x="238.758751" y="276.48" style="stroke: #000000; stroke-width: 0.8"/>
      </g>
     </g>
     <g id="text_6">
      <!-- 06.04.2021 -->
      <g transform="translate(188.13354 318.688565)rotate(-30)scale(0.1 -0.1)">
       <defs>
        <path id="DejaVuSans-36" d="M 2113 2584 
Q 1688 2584 1439 2293 
Q 1191 2003 1191 1497 
Q 1191 994 1439 701 
Q 1688 409 2113 409 
Q 2538 409 2786 701 
Q 3034 994 3034 1497 
Q 3034 2003 2786 2293 
Q 2538 2584 2113 2584 
z
M 3366 4563 
L 3366 3988 
Q 3128 4100 2886 4159 
Q 2644 4219 2406 4219 
Q 1781 4219 1451 3797 
Q 1122 3375 1075 2522 
Q 1259 2794 1537 2939 
Q 1816 3084 2150 3084 
Q 2853 3084 3261 2657 
Q 3669 2231 3669 1497 
Q 3669 778 3244 343 
Q 2819 -91 2113 -91 
Q 1303 -91 875 529 
Q 447 1150 447 2328 
Q 447 3434 972 4092 
Q 1497 4750 2381 4750 
Q 2619 4750 2861 4703 
Q 3103 4656 3366 4563 
z
" transform="scale(0.015625)"/>
       </defs>
       <use xlink:href="#DejaVuSans-30"/>
       <use xlink:href="#DejaVuSans-36" x="63.623047"/>
       <use xlink:href="#DejaVuSans-2e" x="127.246094"/>
       <use xlink:href="#DejaVuSans-30" x="159.033203"/>
       <use xlink:href="#DejaVuSans-34" x="222.65625"/>
       <use xlink:href="#DejaVuSans-2e" x="286.279297"/>
       <use xlink:href="#DejaVuSans-32" x="318.066406"/>
       <use xlink:href="#DejaVuSans-30" x="381.689453"/>
       <use xlink:href="#DejaVuSans-32" x="445.3125"/>
       <use xlink:href="#DejaVuSans-31" x="508.935547"/>
      </g>
     </g>
    </g>
    <g id="xtick_7">
     <g id="line2d_13">
      <path d="M 274.693796 276.48 
L 274.693796 41.472 
" clip-path="url(#pf1a965a5c8)" style="fill: none; stroke-dasharray: 2.96,1.28; stroke-dashoffset: 0; stroke: #808080; stroke-width: 0.8"/>
     </g>
     <g id="line2d_14">
      <g>
       <use xlink:href="#mef68c7b34c" x="274.693796" y="276.48" style="stroke: #000000; stroke-width: 0.8"/>
      </g>
     </g>
     <g id="text_7">
      <!-- 02.07.2021 -->
      <g transform="translate(224.068585 318.688565)rotate(-30)scale(0.1 -0.1)">
       <use xlink:href="#DejaVuSans-30"/>
       <use xlink:href="#DejaVuSans-32" x="63.623047"/>
       <use xlink:href="#DejaVuSans-2e" x="127.246094"/>
       <use xlink:href="#DejaVuSans-30" x="159.033203"/>
       <use xlink:href="#DejaVuSans-37" x="222.65625"/>
       <use xlink:href="#DejaVuSans-2e" x="286.279297"/>
       <use xlink:href="#DejaVuSans-32" x="318.066406"/>
       <use xlink:href="#DejaVuSans-30" x="381.689453"/>
       <use xlink:href="#DejaVuSans-32" x="445.3125"/>
       <use xlink:href="#DejaVuSans-31" x="508.935547"/>
      </g>
     </g>
    </g>
    <g id="xtick_8">
     <g id="line2d_15">
      <path d="M 310.628841 276.48 
L 310.628841 41.472 
" clip-path="url(#pf1a965a5c8)" style="fill: none; stroke-dasharray: 2.96,1.28; stroke-dashoffset: 0; stroke: #808080; stroke-width: 0.8"/>
     </g>
     <g id="line2d_16">
      <g>
       <use xlink:href="#mef68c7b34c" x="310.628841" y="276.48" style="stroke: #000000; stroke-width: 0.8"/>
      </g>
     </g>
     <g id="text_8">
      <!-- 27.09.2021 -->
      <g transform="translate(260.00363 318.688565)rotate(-30)scale(0.1 -0.1)">
       <use xlink:href="#DejaVuSans-32"/>
       <use xlink:href="#DejaVuSans-37" x="63.623047"/>
       <use xlink:href="#DejaVuSans-2e" x="127.246094"/>
       <use xlink:href="#DejaVuSans-30" x="159.033203"/>
       <use xlink:href="#DejaVuSans-39" x="222.65625"/>
       <use xlink:href="#DejaVuSans-2e" x="286.279297"/>
       <use xlink:href="#DejaVuSans-32" x="318.066406"/>
       <use xlink:href="#DejaVuSans-30" x="381.689453"/>
       <use xlink:href="#DejaVuSans-32" x="445.3125"/>
       <use xlink:href="#DejaVuSans-31" x="508.935547"/>
      </g>
     </g>
    </g>
    <g id="xtick_9">
     <g id="line2d_17">
      <path d="M 346.563886 276.48 
L 346.563886 41.472 
" clip-path="url(#pf1a965a5c8)" style="fill: none; stroke-dasharray: 2.96,1.28; stroke-dashoffset: 0; stroke: #808080; stroke-width: 0.8"/>
     </g>
     <g id="line2d_18">
      <g>
       <use xlink:href="#mef68c7b34c" x="346.563886" y="276.48" style="stroke: #000000; stroke-width: 0.8"/>
      </g>
     </g>
     <g id="text_9">
      <!-- 23.12.2021 -->
      <g transform="translate(295.938675 318.688565)rotate(-30)scale(0.1 -0.1)">
       <use xlink:href="#DejaVuSans-32"/>
       <use xlink:href="#DejaVuSans-33" x="63.623047"/>
       <use xlink:href="#DejaVuSans-2e" x="127.246094"/>
       <use xlink:href="#DejaVuSans-31" x="159.033203"/>
       <use xlink:href="#DejaVuSans-32" x="222.65625"/>
       <use xlink:href="#DejaVuSans-2e" x="286.279297"/>
       <use xlink:href="#DejaVuSans-32" x="318.066406"/>
       <use xlink:href="#DejaVuSans-30" x="381.689453"/>
       <use xlink:href="#DejaVuSans-32" x="445.3125"/>
       <use xlink:href="#DejaVuSans-31" x="508.935547"/>
      </g>
     </g>
    </g>
    <g id="xtick_10">
     <g id="line2d_19">
      <path d="M 382.498931 276.48 
L 382.498931 41.472 
" clip-path="url(#pf1a965a5c8)" style="fill: none; stroke-dasharray: 2.96,1.28; stroke-dashoffset: 0; stroke: #808080; stroke-width: 0.8"/>
     </g>
     <g id="line2d_20">
      <g>
       <use xlink:href="#mef68c7b34c" x="382.498931" y="276.48" style="stroke: #000000; stroke-width: 0.8"/>
      </g>
     </g>
     <g id="text_10">
      <!-- 20.03.2022 -->
      <g transform="translate(331.873721 318.688565)rotate(-30)scale(0.1 -0.1)">
       <use xlink:href="#DejaVuSans-32"/>
       <use xlink:href="#DejaVuSans-30" x="63.623047"/>
       <use xlink:href="#DejaVuSans-2e" x="127.246094"/>
       <use xlink:href="#DejaVuSans-30" x="159.033203"/>
       <use xlink:href="#DejaVuSans-33" x="222.65625"/>
       <use xlink:href="#DejaVuSans-2e" x="286.279297"/>
       <use xlink:href="#DejaVuSans-32" x="318.066406"/>
       <use xlink:href="#DejaVuSans-30" x="381.689453"/>
       <use xlink:href="#DejaVuSans-32" x="445.3125"/>
       <use xlink:href="#DejaVuSans-32" x="508.935547"/>
      </g>
     </g>
    </g>
   </g>
   <g id="matplotlib.axis_2">
    <g id="ytick_1">
     <g id="line2d_21">
      <path d="M 57.6 265.797818 
L 414.72 265.797818 
" clip-path="url(#pf1a965a5c8)" style="fill: none; stroke-dasharray: 2.96,1.28; stroke-dashoffset: 0; stroke: #808080; stroke-width: 0.8"/>
     </g>
     <g id="line2d_22">
      <defs>
       <path id="m8af5860108" d="M 0 0 
L -3.5 0 
" style="stroke: #000000; stroke-width: 0.8"/>
      </defs>
      <g>
       <use xlink:href="#m8af5860108" x="57.6" y="265.797818" style="stroke: #000000; stroke-width: 0.8"/>
      </g>
     </g>
     <g id="text_11">
      <!-- 0 -->
      <g transform="translate(44.2375 269.597037)scale(0.1 -0.1)">
       <use xlink:href="#DejaVuSans-30"/>
      </g>
     </g>
    </g>
    <g id="ytick_2">
     <g id="line2d_23">
      <path d="M 57.6 239.083781 
L 414.72 239.083781 
" clip-path="url(#pf1a965a5c8)" style="fill: none; stroke-dasharray: 2.96,1.28; stroke-dashoffset: 0; stroke: #808080; stroke-width: 0.8"/>
     </g>
     <g id="line2d_24">
      <g>
       <use xlink:href="#m8af5860108" x="57.6" y="239.083781" style="stroke: #000000; stroke-width: 0.8"/>
      </g>
     </g>
     <g id="text_12">
      <!-- 250 -->
      <g transform="translate(31.5125 242.882999)scale(0.1 -0.1)">
       <defs>
        <path id="DejaVuSans-35" d="M 691 4666 
L 3169 4666 
L 3169 4134 
L 1269 4134 
L 1269 2991 
Q 1406 3038 1543 3061 
Q 1681 3084 1819 3084 
Q 2600 3084 3056 2656 
Q 3513 2228 3513 1497 
Q 3513 744 3044 326 
Q 2575 -91 1722 -91 
Q 1428 -91 1123 -41 
Q 819 9 494 109 
L 494 744 
Q 775 591 1075 516 
Q 1375 441 1709 441 
Q 2250 441 2565 725 
Q 2881 1009 2881 1497 
Q 2881 1984 2565 2268 
Q 2250 2553 1709 2553 
Q 1456 2553 1204 2497 
Q 953 2441 691 2322 
L 691 4666 
z
" transform="scale(0.015625)"/>
       </defs>
       <use xlink:href="#DejaVuSans-32"/>
       <use xlink:href="#DejaVuSans-35" x="63.623047"/>
       <use xlink:href="#DejaVuSans-30" x="127.246094"/>
      </g>
     </g>
    </g>
    <g id="ytick_3">
     <g id="line2d_25">
      <path d="M 57.6 212.369743 
L 414.72 212.369743 
" clip-path="url(#pf1a965a5c8)" style="fill: none; stroke-dasharray: 2.96,1.28; stroke-dashoffset: 0; stroke: #808080; stroke-width: 0.8"/>
     </g>
     <g id="line2d_26">
      <g>
       <use xlink:href="#m8af5860108" x="57.6" y="212.369743" style="stroke: #000000; stroke-width: 0.8"/>
      </g>
     </g>
     <g id="text_13">
      <!-- 500 -->
      <g transform="translate(31.5125 216.168962)scale(0.1 -0.1)">
       <use xlink:href="#DejaVuSans-35"/>
       <use xlink:href="#DejaVuSans-30" x="63.623047"/>
       <use xlink:href="#DejaVuSans-30" x="127.246094"/>
      </g>
     </g>
    </g>
    <g id="ytick_4">
     <g id="line2d_27">
      <path d="M 57.6 185.655706 
L 414.72 185.655706 
" clip-path="url(#pf1a965a5c8)" style="fill: none; stroke-dasharray: 2.96,1.28; stroke-dashoffset: 0; stroke: #808080; stroke-width: 0.8"/>
     </g>
     <g id="line2d_28">
      <g>
       <use xlink:href="#m8af5860108" x="57.6" y="185.655706" style="stroke: #000000; stroke-width: 0.8"/>
      </g>
     </g>
     <g id="text_14">
      <!-- 750 -->
      <g transform="translate(31.5125 189.454924)scale(0.1 -0.1)">
       <use xlink:href="#DejaVuSans-37"/>
       <use xlink:href="#DejaVuSans-35" x="63.623047"/>
       <use xlink:href="#DejaVuSans-30" x="127.246094"/>
      </g>
     </g>
    </g>
    <g id="ytick_5">
     <g id="line2d_29">
      <path d="M 57.6 158.941668 
L 414.72 158.941668 
" clip-path="url(#pf1a965a5c8)" style="fill: none; stroke-dasharray: 2.96,1.28; stroke-dashoffset: 0; stroke: #808080; stroke-width: 0.8"/>
     </g>
     <g id="line2d_30">
      <g>
       <use xlink:href="#m8af5860108" x="57.6" y="158.941668" style="stroke: #000000; stroke-width: 0.8"/>
      </g>
     </g>
     <g id="text_15">
      <!-- 1000 -->
      <g transform="translate(25.15 162.740887)scale(0.1 -0.1)">
       <use xlink:href="#DejaVuSans-31"/>
       <use xlink:href="#DejaVuSans-30" x="63.623047"/>
       <use xlink:href="#DejaVuSans-30" x="127.246094"/>
       <use xlink:href="#DejaVuSans-30" x="190.869141"/>
      </g>
     </g>
    </g>
    <g id="ytick_6">
     <g id="line2d_31">
      <path d="M 57.6 132.227631 
L 414.72 132.227631 
" clip-path="url(#pf1a965a5c8)" style="fill: none; stroke-dasharray: 2.96,1.28; stroke-dashoffset: 0; stroke: #808080; stroke-width: 0.8"/>
     </g>
     <g id="line2d_32">
      <g>
       <use xlink:href="#m8af5860108" x="57.6" y="132.227631" style="stroke: #000000; stroke-width: 0.8"/>
      </g>
     </g>
     <g id="text_16">
      <!-- 1250 -->
      <g transform="translate(25.15 136.02685)scale(0.1 -0.1)">
       <use xlink:href="#DejaVuSans-31"/>
       <use xlink:href="#DejaVuSans-32" x="63.623047"/>
       <use xlink:href="#DejaVuSans-35" x="127.246094"/>
       <use xlink:href="#DejaVuSans-30" x="190.869141"/>
      </g>
     </g>
    </g>
    <g id="ytick_7">
     <g id="line2d_33">
      <path d="M 57.6 105.513593 
L 414.72 105.513593 
" clip-path="url(#pf1a965a5c8)" style="fill: none; stroke-dasharray: 2.96,1.28; stroke-dashoffset: 0; stroke: #808080; stroke-width: 0.8"/>
     </g>
     <g id="line2d_34">
      <g>
       <use xlink:href="#m8af5860108" x="57.6" y="105.513593" style="stroke: #000000; stroke-width: 0.8"/>
      </g>
     </g>
     <g id="text_17">
      <!-- 1500 -->
      <g transform="translate(25.15 109.312812)scale(0.1 -0.1)">
       <use xlink:href="#DejaVuSans-31"/>
       <use xlink:href="#DejaVuSans-35" x="63.623047"/>
       <use xlink:href="#DejaVuSans-30" x="127.246094"/>
       <use xlink:href="#DejaVuSans-30" x="190.869141"/>
      </g>
     </g>
    </g>
    <g id="ytick_8">
     <g id="line2d_35">
      <path d="M 57.6 78.799556 
L 414.72 78.799556 
" clip-path="url(#pf1a965a5c8)" style="fill: none; stroke-dasharray: 2.96,1.28; stroke-dashoffset: 0; stroke: #808080; stroke-width: 0.8"/>
     </g>
     <g id="line2d_36">
      <g>
       <use xlink:href="#m8af5860108" x="57.6" y="78.799556" style="stroke: #000000; stroke-width: 0.8"/>
      </g>
     </g>
     <g id="text_18">
      <!-- 1750 -->
      <g transform="translate(25.15 82.598775)scale(0.1 -0.1)">
       <use xlink:href="#DejaVuSans-31"/>
       <use xlink:href="#DejaVuSans-37" x="63.623047"/>
       <use xlink:href="#DejaVuSans-35" x="127.246094"/>
       <use xlink:href="#DejaVuSans-30" x="190.869141"/>
      </g>
     </g>
    </g>
    <g id="ytick_9">
     <g id="line2d_37">
      <path d="M 57.6 52.085518 
L 414.72 52.085518 
" clip-path="url(#pf1a965a5c8)" style="fill: none; stroke-dasharray: 2.96,1.28; stroke-dashoffset: 0; stroke: #808080; stroke-width: 0.8"/>
     </g>
     <g id="line2d_38">
      <g>
       <use xlink:href="#m8af5860108" x="57.6" y="52.085518" style="stroke: #000000; stroke-width: 0.8"/>
      </g>
     </g>
     <g id="text_19">
      <!-- 2000 -->
      <g transform="translate(25.15 55.884737)scale(0.1 -0.1)">
       <use xlink:href="#DejaVuSans-32"/>
       <use xlink:href="#DejaVuSans-30" x="63.623047"/>
       <use xlink:href="#DejaVuSans-30" x="127.246094"/>
       <use xlink:href="#DejaVuSans-30" x="190.869141"/>
      </g>
     </g>
    </g>
    <g id="text_20">
     <!-- Inzidenz pro 7 Tage pro 100.000 Einwohner -->
     <g transform="translate(19.070312 267.301)rotate(-90)scale(0.1 -0.1)">
      <defs>
       <path id="DejaVuSans-49" d="M 628 4666 
L 1259 4666 
L 1259 0 
L 628 0 
L 628 4666 
z
" transform="scale(0.015625)"/>
       <path id="DejaVuSans-6e" d="M 3513 2113 
L 3513 0 
L 2938 0 
L 2938 2094 
Q 2938 2591 2744 2837 
Q 2550 3084 2163 3084 
Q 1697 3084 1428 2787 
Q 1159 2491 1159 1978 
L 1159 0 
L 581 0 
L 581 3500 
L 1159 3500 
L 1159 2956 
Q 1366 3272 1645 3428 
Q 1925 3584 2291 3584 
Q 2894 3584 3203 3211 
Q 3513 2838 3513 2113 
z
" transform="scale(0.015625)"/>
       <path id="DejaVuSans-7a" d="M 353 3500 
L 3084 3500 
L 3084 2975 
L 922 459 
L 3084 459 
L 3084 0 
L 275 0 
L 275 525 
L 2438 3041 
L 353 3041 
L 353 3500 
z
" transform="scale(0.015625)"/>
       <path id="DejaVuSans-69" d="M 603 3500 
L 1178 3500 
L 1178 0 
L 603 0 
L 603 3500 
z
M 603 4863 
L 1178 4863 
L 1178 4134 
L 603 4134 
L 603 4863 
z
" transform="scale(0.015625)"/>
       <path id="DejaVuSans-64" d="M 2906 2969 
L 2906 4863 
L 3481 4863 
L 3481 0 
L 2906 0 
L 2906 525 
Q 2725 213 2448 61 
Q 2172 -91 1784 -91 
Q 1150 -91 751 415 
Q 353 922 353 1747 
Q 353 2572 751 3078 
Q 1150 3584 1784 3584 
Q 2172 3584 2448 3432 
Q 2725 3281 2906 2969 
z
M 947 1747 
Q 947 1113 1208 752 
Q 1469 391 1925 391 
Q 2381 391 2643 752 
Q 2906 1113 2906 1747 
Q 2906 2381 2643 2742 
Q 2381 3103 1925 3103 
Q 1469 3103 1208 2742 
Q 947 2381 947 1747 
z
" transform="scale(0.015625)"/>
       <path id="DejaVuSans-65" d="M 3597 1894 
L 3597 1613 
L 953 1613 
Q 991 1019 1311 708 
Q 1631 397 2203 397 
Q 2534 397 2845 478 
Q 3156 559 3463 722 
L 3463 178 
Q 3153 47 2828 -22 
Q 2503 -91 2169 -91 
Q 1331 -91 842 396 
Q 353 884 353 1716 
Q 353 2575 817 3079 
Q 1281 3584 2069 3584 
Q 2775 3584 3186 3129 
Q 3597 2675 3597 1894 
z
M 3022 2063 
Q 3016 2534 2758 2815 
Q 2500 3097 2075 3097 
Q 1594 3097 1305 2825 
Q 1016 2553 972 2059 
L 3022 2063 
z
" transform="scale(0.015625)"/>
       <path id="DejaVuSans-20" transform="scale(0.015625)"/>
       <path id="DejaVuSans-70" d="M 1159 525 
L 1159 -1331 
L 581 -1331 
L 581 3500 
L 1159 3500 
L 1159 2969 
Q 1341 3281 1617 3432 
Q 1894 3584 2278 3584 
Q 2916 3584 3314 3078 
Q 3713 2572 3713 1747 
Q 3713 922 3314 415 
Q 2916 -91 2278 -91 
Q 1894 -91 1617 61 
Q 1341 213 1159 525 
z
M 3116 1747 
Q 3116 2381 2855 2742 
Q 2594 3103 2138 3103 
Q 1681 3103 1420 2742 
Q 1159 2381 1159 1747 
Q 1159 1113 1420 752 
Q 1681 391 2138 391 
Q 2594 391 2855 752 
Q 3116 1113 3116 1747 
z
" transform="scale(0.015625)"/>
       <path id="DejaVuSans-72" d="M 2631 2963 
Q 2534 3019 2420 3045 
Q 2306 3072 2169 3072 
Q 1681 3072 1420 2755 
Q 1159 2438 1159 1844 
L 1159 0 
L 581 0 
L 581 3500 
L 1159 3500 
L 1159 2956 
Q 1341 3275 1631 3429 
Q 1922 3584 2338 3584 
Q 2397 3584 2469 3576 
Q 2541 3569 2628 3553 
L 2631 2963 
z
" transform="scale(0.015625)"/>
       <path id="DejaVuSans-6f" d="M 1959 3097 
Q 1497 3097 1228 2736 
Q 959 2375 959 1747 
Q 959 1119 1226 758 
Q 1494 397 1959 397 
Q 2419 397 2687 759 
Q 2956 1122 2956 1747 
Q 2956 2369 2687 2733 
Q 2419 3097 1959 3097 
z
M 1959 3584 
Q 2709 3584 3137 3096 
Q 3566 2609 3566 1747 
Q 3566 888 3137 398 
Q 2709 -91 1959 -91 
Q 1206 -91 779 398 
Q 353 888 353 1747 
Q 353 2609 779 3096 
Q 1206 3584 1959 3584 
z
" transform="scale(0.015625)"/>
       <path id="DejaVuSans-54" d="M -19 4666 
L 3928 4666 
L 3928 4134 
L 2272 4134 
L 2272 0 
L 1638 0 
L 1638 4134 
L -19 4134 
L -19 4666 
z
" transform="scale(0.015625)"/>
       <path id="DejaVuSans-61" d="M 2194 1759 
Q 1497 1759 1228 1600 
Q 959 1441 959 1056 
Q 959 750 1161 570 
Q 1363 391 1709 391 
Q 2188 391 2477 730 
Q 2766 1069 2766 1631 
L 2766 1759 
L 2194 1759 
z
M 3341 1997 
L 3341 0 
L 2766 0 
L 2766 531 
Q 2569 213 2275 61 
Q 1981 -91 1556 -91 
Q 1019 -91 701 211 
Q 384 513 384 1019 
Q 384 1609 779 1909 
Q 1175 2209 1959 2209 
L 2766 2209 
L 2766 2266 
Q 2766 2663 2505 2880 
Q 2244 3097 1772 3097 
Q 1472 3097 1187 3025 
Q 903 2953 641 2809 
L 641 3341 
Q 956 3463 1253 3523 
Q 1550 3584 1831 3584 
Q 2591 3584 2966 3190 
Q 3341 2797 3341 1997 
z
" transform="scale(0.015625)"/>
       <path id="DejaVuSans-67" d="M 2906 1791 
Q 2906 2416 2648 2759 
Q 2391 3103 1925 3103 
Q 1463 3103 1205 2759 
Q 947 2416 947 1791 
Q 947 1169 1205 825 
Q 1463 481 1925 481 
Q 2391 481 2648 825 
Q 2906 1169 2906 1791 
z
M 3481 434 
Q 3481 -459 3084 -895 
Q 2688 -1331 1869 -1331 
Q 1566 -1331 1297 -1286 
Q 1028 -1241 775 -1147 
L 775 -588 
Q 1028 -725 1275 -790 
Q 1522 -856 1778 -856 
Q 2344 -856 2625 -561 
Q 2906 -266 2906 331 
L 2906 616 
Q 2728 306 2450 153 
Q 2172 0 1784 0 
Q 1141 0 747 490 
Q 353 981 353 1791 
Q 353 2603 747 3093 
Q 1141 3584 1784 3584 
Q 2172 3584 2450 3431 
Q 2728 3278 2906 2969 
L 2906 3500 
L 3481 3500 
L 3481 434 
z
" transform="scale(0.015625)"/>
       <path id="DejaVuSans-45" d="M 628 4666 
L 3578 4666 
L 3578 4134 
L 1259 4134 
L 1259 2753 
L 3481 2753 
L 3481 2222 
L 1259 2222 
L 1259 531 
L 3634 531 
L 3634 0 
L 628 0 
L 628 4666 
z
" transform="scale(0.015625)"/>
       <path id="DejaVuSans-77" d="M 269 3500 
L 844 3500 
L 1563 769 
L 2278 3500 
L 2956 3500 
L 3675 769 
L 4391 3500 
L 4966 3500 
L 4050 0 
L 3372 0 
L 2619 2869 
L 1863 0 
L 1184 0 
L 269 3500 
z
" transform="scale(0.015625)"/>
       <path id="DejaVuSans-68" d="M 3513 2113 
L 3513 0 
L 2938 0 
L 2938 2094 
Q 2938 2591 2744 2837 
Q 2550 3084 2163 3084 
Q 1697 3084 1428 2787 
Q 1159 2491 1159 1978 
L 1159 0 
L 581 0 
L 581 4863 
L 1159 4863 
L 1159 2956 
Q 1366 3272 1645 3428 
Q 1925 3584 2291 3584 
Q 2894 3584 3203 3211 
Q 3513 2838 3513 2113 
z
" transform="scale(0.015625)"/>
      </defs>
      <use xlink:href="#DejaVuSans-49"/>
      <use xlink:href="#DejaVuSans-6e" x="29.492188"/>
      <use xlink:href="#DejaVuSans-7a" x="92.871094"/>
      <use xlink:href="#DejaVuSans-69" x="145.361328"/>
      <use xlink:href="#DejaVuSans-64" x="173.144531"/>
      <use xlink:href="#DejaVuSans-65" x="236.621094"/>
      <use xlink:href="#DejaVuSans-6e" x="298.144531"/>
      <use xlink:href="#DejaVuSans-7a" x="361.523438"/>
      <use xlink:href="#DejaVuSans-20" x="414.013672"/>
      <use xlink:href="#DejaVuSans-70" x="445.800781"/>
      <use xlink:href="#DejaVuSans-72" x="509.277344"/>
      <use xlink:href="#DejaVuSans-6f" x="548.140625"/>
      <use xlink:href="#DejaVuSans-20" x="609.322266"/>
      <use xlink:href="#DejaVuSans-37" x="641.109375"/>
      <use xlink:href="#DejaVuSans-20" x="704.732422"/>
      <use xlink:href="#DejaVuSans-54" x="736.519531"/>
      <use xlink:href="#DejaVuSans-61" x="781.103516"/>
      <use xlink:href="#DejaVuSans-67" x="842.382812"/>
      <use xlink:href="#DejaVuSans-65" x="905.859375"/>
      <use xlink:href="#DejaVuSans-20" x="967.382812"/>
      <use xlink:href="#DejaVuSans-70" x="999.169922"/>
      <use xlink:href="#DejaVuSans-72" x="1062.646484"/>
      <use xlink:href="#DejaVuSans-6f" x="1101.509766"/>
      <use xlink:href="#DejaVuSans-20" x="1162.691406"/>
      <use xlink:href="#DejaVuSans-31" x="1194.478516"/>
      <use xlink:href="#DejaVuSans-30" x="1258.101562"/>
      <use xlink:href="#DejaVuSans-30" x="1321.724609"/>
      <use xlink:href="#DejaVuSans-2e" x="1385.347656"/>
      <use xlink:href="#DejaVuSans-30" x="1417.134766"/>
      <use xlink:href="#DejaVuSans-30" x="1480.757812"/>
      <use xlink:href="#DejaVuSans-30" x="1544.380859"/>
      <use xlink:href="#DejaVuSans-20" x="1608.003906"/>
      <use xlink:href="#DejaVuSans-45" x="1639.791016"/>
      <use xlink:href="#DejaVuSans-69" x="1702.974609"/>
      <use xlink:href="#DejaVuSans-6e" x="1730.757812"/>
      <use xlink:href="#DejaVuSans-77" x="1794.136719"/>
      <use xlink:href="#DejaVuSans-6f" x="1875.923828"/>
      <use xlink:href="#DejaVuSans-68" x="1937.105469"/>
      <use xlink:href="#DejaVuSans-6e" x="2000.484375"/>
      <use xlink:href="#DejaVuSans-65" x="2063.863281"/>
      <use xlink:href="#DejaVuSans-72" x="2125.386719"/>
     </g>
    </g>
   </g>
   <g id="line2d_39">
    <path d="M 73.832727 265.797818 
L 78.789285 265.726294 
L 79.202332 265.225622 
L 79.615378 265.154098 
L 81.680611 263.723608 
L 82.093657 264.009706 
L 82.91975 263.795133 
L 84.571936 264.009706 
L 84.984983 262.79379 
L 85.398029 262.722265 
L 85.811076 262.79379 
L 86.637169 262.221594 
L 87.050215 261.935496 
L 87.463262 262.150069 
L 87.876308 263.365986 
L 88.702401 262.865314 
L 89.115448 263.151412 
L 89.528494 263.294461 
L 89.941541 263.652084 
L 90.354587 263.723608 
L 90.767634 263.652084 
L 92.006773 263.866657 
L 92.832866 263.652084 
L 93.658959 263.866657 
L 94.072006 264.367328 
L 94.485052 264.653426 
L 94.898099 264.653426 
L 95.311145 264.939524 
L 95.724192 265.082573 
L 96.137238 265.082573 
L 96.550285 265.225622 
L 100.267703 264.653426 
L 100.680749 265.082573 
L 101.506842 265.440196 
L 102.332935 265.440196 
L 102.745982 265.654769 
L 108.528633 265.726294 
L 109.354726 265.797818 
L 115.550423 265.726294 
L 115.96347 265.583245 
L 122.98526 265.654769 
L 123.398307 265.726294 
L 123.811353 265.654769 
L 124.637446 265.726294 
L 125.876586 265.726294 
L 126.289632 265.583245 
L 127.115725 265.583245 
L 127.528772 265.368671 
L 128.354865 265.154098 
L 128.767911 264.653426 
L 129.180958 264.724951 
L 130.007051 264.367328 
L 130.420097 264.581902 
L 130.833144 264.295804 
L 131.24619 264.438853 
L 131.659237 264.868 
L 132.48533 265.082573 
L 132.898376 265.297147 
L 133.311423 265.297147 
L 133.724469 265.51172 
L 134.550562 265.51172 
L 134.963609 265.368671 
L 135.376655 265.368671 
L 135.789702 265.154098 
L 136.615795 265.082573 
L 137.441888 265.082573 
L 137.854934 265.225622 
L 138.267981 264.724951 
L 139.920167 264.939524 
L 140.74626 264.868 
L 141.159306 265.368671 
L 141.985399 265.440196 
L 142.398446 265.225622 
L 142.811492 265.154098 
L 143.224539 265.225622 
L 144.876724 264.868 
L 145.702817 265.082573 
L 146.941957 265.011049 
L 147.355003 264.939524 
L 148.181096 261.649398 
L 148.594143 261.577874 
L 149.007189 261.3633 
L 149.420236 261.291776 
L 150.246329 261.649398 
L 151.072422 264.724951 
L 151.485468 264.581902 
L 151.898515 264.295804 
L 152.724608 264.367328 
L 153.137654 264.295804 
L 153.550701 264.009706 
L 154.376794 264.438853 
L 154.78984 264.939524 
L 156.02898 264.868 
L 156.442026 265.368671 
L 157.268119 265.297147 
L 158.094212 265.297147 
L 158.920305 264.653426 
L 160.159445 264.796475 
L 160.572491 264.724951 
L 160.985538 264.510377 
L 161.811631 264.939524 
L 162.224677 264.510377 
L 162.637724 264.295804 
L 163.876863 264.295804 
L 164.28991 264.009706 
L 164.702956 264.009706 
L 165.116003 264.295804 
L 165.529049 263.938182 
L 166.355142 263.723608 
L 166.768189 263.365986 
L 167.181235 263.43751 
L 168.007328 262.722265 
L 168.420375 262.865314 
L 168.833421 262.865314 
L 169.246468 262.364643 
L 169.659514 262.650741 
L 170.072561 261.148727 
L 170.898654 259.503664 
L 171.3117 259.217566 
L 171.724747 259.217566 
L 172.55084 257.000307 
L 174.616072 251.779019 
L 175.029119 251.922068 
L 175.855212 250.20548 
L 176.268258 250.348529 
L 177.094351 251.707495 
L 177.507398 251.779019 
L 177.920444 253.281033 
L 178.333491 253.352558 
L 178.746537 255.641341 
L 179.159584 256.714209 
L 179.57263 256.857258 
L 179.985677 257.286404 
L 180.398723 258.001649 
L 180.81177 257.572502 
L 181.224816 258.287747 
L 181.637863 257.357929 
L 182.050909 258.216223 
L 182.463956 256.57116 
L 182.877002 256.213537 
L 183.290049 253.424082 
L 183.703095 253.638656 
L 184.116142 253.996278 
L 184.529188 254.711523 
L 184.942235 252.780362 
L 185.355281 254.425425 
L 185.768328 253.781705 
L 186.181374 255.569817 
L 186.594421 254.49695 
L 187.007467 252.208166 
L 187.420514 252.208166 
L 187.83356 252.494264 
L 188.246607 251.206823 
L 189.0727 252.994935 
L 189.485746 252.780362 
L 189.898793 254.639999 
L 190.311839 253.781705 
L 190.724885 253.71018 
L 191.137932 254.353901 
L 191.550978 253.137984 
L 191.964025 253.137984 
L 192.377071 252.565788 
L 193.616211 248.417368 
L 194.029257 247.48755 
L 194.442304 244.411997 
L 194.85535 243.124556 
L 195.268397 243.124556 
L 195.681443 242.266263 
L 196.09449 242.909983 
L 196.507536 244.197424 
L 196.920583 246.700781 
L 197.333629 250.491578 
L 198.159722 253.209509 
L 198.572769 252.923411 
L 198.985815 252.923411 
L 199.398862 253.924754 
L 199.811908 253.352558 
L 200.224955 252.994935 
L 200.638001 253.71018 
L 201.051048 252.708837 
L 201.877141 256.857258 
L 202.703234 255.355243 
L 203.11628 255.927439 
L 203.529327 255.14067 
L 203.942373 256.428111 
L 204.35542 257.21488 
L 205.594559 260.218908 
L 206.420652 260.934153 
L 206.833699 260.648055 
L 207.246745 260.218908 
L 207.659792 259.575188 
L 208.072838 260.004335 
L 208.485885 259.789761 
L 208.898931 259.93281 
L 209.725024 260.576531 
L 210.551117 261.434825 
L 210.964164 260.791104 
L 211.37721 260.648055 
L 211.790257 260.004335 
L 212.203303 259.861286 
L 213.029396 260.147384 
L 213.442443 260.075859 
L 213.855489 260.505006 
L 214.268536 260.075859 
L 214.681582 259.93281 
L 215.507675 259.074517 
L 215.920722 257.930125 
L 216.746815 257.429453 
L 217.159861 258.573845 
L 217.985954 259.575188 
L 218.399001 259.575188 
L 218.812047 261.148727 
L 219.63814 261.220251 
L 220.051187 260.791104 
L 220.464233 260.71958 
L 220.87728 260.218908 
L 221.290326 260.004335 
L 221.703373 259.432139 
L 222.116419 259.718237 
L 222.529466 259.718237 
L 223.768605 260.648055 
L 224.594698 262.00702 
L 225.007745 261.720923 
L 225.420791 262.507692 
L 226.246884 262.722265 
L 226.659931 262.579216 
L 227.072977 262.00702 
L 227.486024 260.791104 
L 227.89907 260.433482 
L 228.312117 259.718237 
L 228.725163 259.28909 
L 229.13821 259.074517 
L 229.551256 259.074517 
L 230.377349 260.075859 
L 231.203442 259.360615 
L 231.616489 259.575188 
L 232.855628 257.8586 
L 233.268675 258.64537 
L 233.681721 259.074517 
L 234.094768 259.28909 
L 234.920861 258.64537 
L 235.333907 259.575188 
L 235.746954 259.646712 
L 236.16 258.716894 
L 236.573046 258.788419 
L 236.986093 259.360615 
L 237.399139 259.503664 
L 237.812186 260.576531 
L 238.638279 260.075859 
L 239.051325 260.147384 
L 240.703511 255.855915 
L 241.116558 255.498292 
L 241.529604 256.070488 
L 241.942651 255.14067 
L 242.355697 255.712866 
L 243.18179 254.711523 
L 243.594837 254.568474 
L 244.007883 254.783048 
L 244.42093 253.495607 
L 244.833976 253.495607 
L 245.660069 253.853229 
L 246.073116 254.711523 
L 246.486162 254.783048 
L 246.899209 254.282376 
L 247.725302 256.356586 
L 248.138348 256.356586 
L 248.551395 257.644027 
L 248.964441 257.21488 
L 249.377488 257.715551 
L 249.790534 258.001649 
L 250.203581 258.001649 
L 250.616627 256.857258 
L 251.029674 257.286404 
L 251.44272 257.000307 
L 251.855767 257.286404 
L 252.268813 256.928782 
L 252.68186 257.21488 
L 253.094906 257.071831 
L 253.507953 257.787076 
L 254.334046 258.144698 
L 255.160139 260.075859 
L 255.573185 259.432139 
L 255.986232 260.147384 
L 256.399278 260.576531 
L 256.812325 260.791104 
L 257.638418 261.649398 
L 258.051464 261.720923 
L 258.464511 262.150069 
L 258.877557 261.720923 
L 259.290604 262.722265 
L 259.70365 262.650741 
L 260.116697 263.079888 
L 260.94279 263.008363 
L 261.768883 263.795133 
L 262.181929 263.509035 
L 262.594976 264.295804 
L 263.008022 264.367328 
L 263.421069 264.581902 
L 263.834115 264.367328 
L 264.247162 264.367328 
L 264.660208 264.581902 
L 265.073255 264.653426 
L 265.486301 264.581902 
L 265.899348 264.367328 
L 266.312394 264.367328 
L 266.725441 264.724951 
L 267.551534 264.581902 
L 267.96458 264.939524 
L 268.377627 265.011049 
L 268.790673 265.368671 
L 270.029813 265.583245 
L 270.442859 265.797818 
L 271.681999 265.654769 
L 273.334185 265.583245 
L 274.573324 265.225622 
L 275.399417 265.154098 
L 275.812464 265.154098 
L 276.22551 264.939524 
L 276.638557 265.082573 
L 277.051603 265.082573 
L 277.46465 264.939524 
L 277.877696 264.939524 
L 278.290743 264.724951 
L 278.703789 264.653426 
L 279.116836 264.939524 
L 279.529882 264.295804 
L 279.942929 264.22428 
L 280.355975 264.295804 
L 280.769022 264.081231 
L 281.182068 264.295804 
L 281.595115 264.295804 
L 282.008161 264.152755 
L 282.421207 264.581902 
L 282.834254 264.581902 
L 283.2473 264.367328 
L 283.660347 264.438853 
L 284.073393 264.152755 
L 284.48644 264.081231 
L 284.899486 264.152755 
L 285.725579 264.009706 
L 286.138626 264.22428 
L 286.551672 264.22428 
L 286.964719 264.438853 
L 287.790812 264.438853 
L 288.616905 264.081231 
L 289.029951 264.22428 
L 289.856044 264.152755 
L 290.269091 264.009706 
L 291.921277 264.22428 
L 292.74737 263.795133 
L 293.160416 264.081231 
L 293.573463 264.009706 
L 293.986509 263.580559 
L 294.399556 263.580559 
L 295.638695 262.364643 
L 296.051742 262.078545 
L 296.464788 262.00702 
L 297.703928 258.359272 
L 298.116974 257.8586 
L 298.530021 258.073174 
L 298.943067 258.144698 
L 299.356114 257.572502 
L 299.76916 257.930125 
L 300.182207 259.002992 
L 300.595253 258.931468 
L 301.0083 259.002992 
L 301.421346 258.573845 
L 301.834393 258.359272 
L 302.247439 258.716894 
L 302.660486 258.859943 
L 303.073532 258.64537 
L 303.899625 259.575188 
L 304.312672 259.789761 
L 305.551811 260.862629 
L 305.964858 261.506349 
L 306.790951 262.150069 
L 307.203997 262.507692 
L 307.617044 262.150069 
L 308.856183 262.507692 
L 309.26923 262.579216 
L 310.095323 262.078545 
L 310.508369 262.293118 
L 310.921416 262.078545 
L 311.334462 262.507692 
L 312.160555 262.865314 
L 312.573602 262.79379 
L 312.986648 263.222937 
L 313.399695 263.294461 
L 313.812741 263.509035 
L 314.225788 262.936839 
L 315.051881 260.934153 
L 315.464927 261.220251 
L 315.877974 260.648055 
L 316.29102 259.861286 
L 316.704067 259.575188 
L 317.117113 258.573845 
L 317.943206 259.432139 
L 318.356253 259.146041 
L 318.769299 258.216223 
L 319.182346 258.359272 
L 319.595392 257.000307 
L 320.421485 256.428111 
L 320.834532 256.57116 
L 321.247578 256.57116 
L 321.660625 257.21488 
L 322.073671 257.572502 
L 322.486718 259.002992 
L 322.899764 258.859943 
L 323.725857 257.644027 
L 324.138904 257.143356 
L 324.55195 257.572502 
L 325.378043 257.143356 
L 325.79109 258.287747 
L 326.204136 257.572502 
L 326.617183 255.712866 
L 327.030229 254.926096 
L 327.443276 253.567131 
L 328.269368 252.065117 
L 328.682415 250.563103 
L 329.095461 250.348529 
L 329.508508 248.631942 
L 329.921554 248.631942 
L 330.747647 248.417368 
L 331.160694 248.846515 
L 331.57374 248.774991 
L 331.986787 248.13127 
L 332.399833 249.347187 
L 332.81288 247.988221 
L 333.225926 248.417368 
L 333.638973 248.345844 
L 334.052019 245.127242 
L 334.465066 243.482179 
L 334.878112 243.768277 
L 335.704205 237.331073 
L 336.117252 236.901926 
L 336.530298 234.827716 
L 336.943345 232.18131 
L 337.769438 223.955995 
L 338.182484 226.530876 
L 338.595531 227.603743 
L 339.008577 226.101729 
L 339.421624 227.603743 
L 339.83467 233.397227 
L 340.247717 237.617171 
L 340.660763 240.692724 
L 341.07381 241.694067 
L 341.486856 245.41334 
L 341.899903 247.272977 
L 342.312949 247.988221 
L 342.725996 246.84383 
L 343.552089 251.063774 
L 343.965135 251.206823 
L 344.378182 250.491578 
L 344.791228 250.777676 
L 345.204275 251.421397 
L 345.617321 253.06646 
L 346.030368 251.278348 
L 346.443414 250.99225 
L 347.269507 253.924754 
L 348.0956 254.49695 
L 348.508647 254.49695 
L 348.921693 254.997621 
L 349.33474 256.499635 
L 349.747786 256.499635 
L 350.160833 256.213537 
L 350.986926 254.49695 
L 351.399972 252.351215 
L 351.813019 249.132613 
L 352.226065 244.76962 
L 352.639112 237.76022 
L 353.052158 235.04229 
L 353.465205 236.043632 
L 353.878251 235.185339 
L 354.291298 231.966737 
L 354.704344 230.822345 
L 355.117391 228.390513 
L 355.530437 231.466065 
L 355.943484 231.179967 
L 356.35653 228.318988 
L 356.769577 228.390513 
L 357.182623 227.031547 
L 357.59567 228.819659 
L 358.008716 222.167882 
L 358.421763 207.505363 
L 358.834809 188.336801 
L 359.247856 184.33143 
L 359.660902 184.546003 
L 360.073949 171.528547 
L 360.486995 163.160182 
L 360.900042 162.230364 
L 361.726135 158.081944 
L 362.139181 158.010419 
L 362.552228 153.432852 
L 362.965274 160.72835 
L 363.378321 146.995649 
L 363.791367 141.059117 
L 364.204414 142.418082 
L 364.61746 143.3479 
L 365.030507 138.913382 
L 365.443553 141.702837 
L 365.8566 132.404654 
L 366.269646 140.057774 
L 366.682693 124.393912 
L 367.095739 113.236092 
L 367.508786 117.599085 
L 367.921832 119.530247 
L 368.334879 115.954022 
L 368.747925 115.167253 
L 369.160972 112.878469 
L 369.574018 127.183366 
L 369.987065 130.044346 
L 370.400111 127.827087 
L 370.813158 133.906668 
L 371.226204 137.339843 
L 371.639251 127.183366 
L 372.052297 129.829772 
L 372.465344 135.980878 
L 372.87839 131.188738 
L 373.291437 128.899954 
L 373.704483 120.245491 
L 374.117529 114.237435 
L 374.530576 138.984906 
L 375.356669 152.216936 
L 375.769715 158.153468 
L 376.182762 136.982221 
L 376.595808 143.848571 
L 377.008855 145.994306 
L 377.421901 120.889212 
L 378.247994 87.487277 
L 378.661041 83.267333 
L 379.074087 92.780089 
L 379.487134 82.838186 
L 379.90018 75.900311 
L 380.313227 83.69648 
L 380.726273 85.341543 
L 381.13932 81.836843 
L 381.552366 98.430524 
L 381.965413 97.143083 
L 382.791506 111.662553 
L 383.617599 95.283446 
L 384.030645 91.778746 
L 384.443692 72.681709 
L 384.856738 85.699165 
L 385.682831 82.623612 
L 386.095878 94.925824 
L 386.508924 89.847585 
L 386.921971 73.683052 
L 387.335017 72.967807 
L 387.748064 63.097428 
L 388.16111 73.897625 
L 388.574157 69.749205 
L 388.987203 63.526575 
L 389.40025 52.154182 
L 389.813296 81.264647 
L 390.639389 105.582972 
L 391.052436 105.582972 
L 391.465482 104.796203 
L 391.878529 108.300902 
L 392.291575 133.262948 
L 392.704622 135.909354 
L 393.117668 142.70418 
L 393.530715 158.582615 
L 393.943761 158.582615 
L 394.356808 158.940238 
L 394.769854 184.402954 
L 395.182901 169.597386 
L 395.595947 168.667568 
L 396.42204 143.061802 
L 396.835087 143.061802 
L 397.248133 145.636684 
L 397.66118 127.254891 
L 398.074226 146.709551 
L 398.487273 156.937552 
L 398.487273 156.937552 
" clip-path="url(#pf1a965a5c8)" style="fill: none; stroke: #1f77b4; stroke-width: 1.5; stroke-linecap: square"/>
   </g>
   <g id="patch_3">
    <path d="M 57.6 276.48 
L 57.6 41.472 
" style="fill: none; stroke: #000000; stroke-width: 0.8; stroke-linejoin: miter; stroke-linecap: square"/>
   </g>
   <g id="patch_4">
    <path d="M 414.72 276.48 
L 414.72 41.472 
" style="fill: none; stroke: #000000; stroke-width: 0.8; stroke-linejoin: miter; stroke-linecap: square"/>
   </g>
   <g id="patch_5">
    <path d="M 57.6 276.48 
L 414.72 276.48 
" style="fill: none; stroke: #000000; stroke-width: 0.8; stroke-linejoin: miter; stroke-linecap: square"/>
   </g>
   <g id="patch_6">
    <path d="M 57.6 41.472 
L 414.72 41.472 
" style="fill: none; stroke: #000000; stroke-width: 0.8; stroke-linejoin: miter; stroke-linecap: square"/>
   </g>
  </g>
  <g id="text_21">
   <!-- Inzidenzverlauf LK Trier-Saarburg -->
   <g transform="translate(81.651094 20.589187)scale(0.18 -0.18)">
    <defs>
     <path id="DejaVuSans-76" d="M 191 3500 
L 800 3500 
L 1894 563 
L 2988 3500 
L 3597 3500 
L 2284 0 
L 1503 0 
L 191 3500 
z
" transform="scale(0.015625)"/>
     <path id="DejaVuSans-6c" d="M 603 4863 
L 1178 4863 
L 1178 0 
L 603 0 
L 603 4863 
z
" transform="scale(0.015625)"/>
     <path id="DejaVuSans-75" d="M 544 1381 
L 544 3500 
L 1119 3500 
L 1119 1403 
Q 1119 906 1312 657 
Q 1506 409 1894 409 
Q 2359 409 2629 706 
Q 2900 1003 2900 1516 
L 2900 3500 
L 3475 3500 
L 3475 0 
L 2900 0 
L 2900 538 
Q 2691 219 2414 64 
Q 2138 -91 1772 -91 
Q 1169 -91 856 284 
Q 544 659 544 1381 
z
M 1991 3584 
L 1991 3584 
z
" transform="scale(0.015625)"/>
     <path id="DejaVuSans-66" d="M 2375 4863 
L 2375 4384 
L 1825 4384 
Q 1516 4384 1395 4259 
Q 1275 4134 1275 3809 
L 1275 3500 
L 2222 3500 
L 2222 3053 
L 1275 3053 
L 1275 0 
L 697 0 
L 697 3053 
L 147 3053 
L 147 3500 
L 697 3500 
L 697 3744 
Q 697 4328 969 4595 
Q 1241 4863 1831 4863 
L 2375 4863 
z
" transform="scale(0.015625)"/>
     <path id="DejaVuSans-4c" d="M 628 4666 
L 1259 4666 
L 1259 531 
L 3531 531 
L 3531 0 
L 628 0 
L 628 4666 
z
" transform="scale(0.015625)"/>
     <path id="DejaVuSans-4b" d="M 628 4666 
L 1259 4666 
L 1259 2694 
L 3353 4666 
L 4166 4666 
L 1850 2491 
L 4331 0 
L 3500 0 
L 1259 2247 
L 1259 0 
L 628 0 
L 628 4666 
z
" transform="scale(0.015625)"/>
     <path id="DejaVuSans-2d" d="M 313 2009 
L 1997 2009 
L 1997 1497 
L 313 1497 
L 313 2009 
z
" transform="scale(0.015625)"/>
     <path id="DejaVuSans-53" d="M 3425 4513 
L 3425 3897 
Q 3066 4069 2747 4153 
Q 2428 4238 2131 4238 
Q 1616 4238 1336 4038 
Q 1056 3838 1056 3469 
Q 1056 3159 1242 3001 
Q 1428 2844 1947 2747 
L 2328 2669 
Q 3034 2534 3370 2195 
Q 3706 1856 3706 1288 
Q 3706 609 3251 259 
Q 2797 -91 1919 -91 
Q 1588 -91 1214 -16 
Q 841 59 441 206 
L 441 856 
Q 825 641 1194 531 
Q 1563 422 1919 422 
Q 2459 422 2753 634 
Q 3047 847 3047 1241 
Q 3047 1584 2836 1778 
Q 2625 1972 2144 2069 
L 1759 2144 
Q 1053 2284 737 2584 
Q 422 2884 422 3419 
Q 422 4038 858 4394 
Q 1294 4750 2059 4750 
Q 2388 4750 2728 4690 
Q 3069 4631 3425 4513 
z
" transform="scale(0.015625)"/>
     <path id="DejaVuSans-62" d="M 3116 1747 
Q 3116 2381 2855 2742 
Q 2594 3103 2138 3103 
Q 1681 3103 1420 2742 
Q 1159 2381 1159 1747 
Q 1159 1113 1420 752 
Q 1681 391 2138 391 
Q 2594 391 2855 752 
Q 3116 1113 3116 1747 
z
M 1159 2969 
Q 1341 3281 1617 3432 
Q 1894 3584 2278 3584 
Q 2916 3584 3314 3078 
Q 3713 2572 3713 1747 
Q 3713 922 3314 415 
Q 2916 -91 2278 -91 
Q 1894 -91 1617 61 
Q 1341 213 1159 525 
L 1159 0 
L 581 0 
L 581 4863 
L 1159 4863 
L 1159 2969 
z
" transform="scale(0.015625)"/>
    </defs>
    <use xlink:href="#DejaVuSans-49"/>
    <use xlink:href="#DejaVuSans-6e" x="29.492188"/>
    <use xlink:href="#DejaVuSans-7a" x="92.871094"/>
    <use xlink:href="#DejaVuSans-69" x="145.361328"/>
    <use xlink:href="#DejaVuSans-64" x="173.144531"/>
    <use xlink:href="#DejaVuSans-65" x="236.621094"/>
    <use xlink:href="#DejaVuSans-6e" x="298.144531"/>
    <use xlink:href="#DejaVuSans-7a" x="361.523438"/>
    <use xlink:href="#DejaVuSans-76" x="414.013672"/>
    <use xlink:href="#DejaVuSans-65" x="473.193359"/>
    <use xlink:href="#DejaVuSans-72" x="534.716797"/>
    <use xlink:href="#DejaVuSans-6c" x="575.830078"/>
    <use xlink:href="#DejaVuSans-61" x="603.613281"/>
    <use xlink:href="#DejaVuSans-75" x="664.892578"/>
    <use xlink:href="#DejaVuSans-66" x="728.271484"/>
    <use xlink:href="#DejaVuSans-20" x="763.476562"/>
    <use xlink:href="#DejaVuSans-4c" x="795.263672"/>
    <use xlink:href="#DejaVuSans-4b" x="850.976562"/>
    <use xlink:href="#DejaVuSans-20" x="916.552734"/>
    <use xlink:href="#DejaVuSans-54" x="948.339844"/>
    <use xlink:href="#DejaVuSans-72" x="994.673828"/>
    <use xlink:href="#DejaVuSans-69" x="1035.787109"/>
    <use xlink:href="#DejaVuSans-65" x="1063.570312"/>
    <use xlink:href="#DejaVuSans-72" x="1125.09375"/>
    <use xlink:href="#DejaVuSans-2d" x="1159.832031"/>
    <use xlink:href="#DejaVuSans-53" x="1195.916016"/>
    <use xlink:href="#DejaVuSans-61" x="1259.392578"/>
    <use xlink:href="#DejaVuSans-61" x="1320.671875"/>
    <use xlink:href="#DejaVuSans-72" x="1381.951172"/>
    <use xlink:href="#DejaVuSans-62" x="1423.064453"/>
    <use xlink:href="#DejaVuSans-75" x="1486.541016"/>
    <use xlink:href="#DejaVuSans-72" x="1549.919922"/>
    <use xlink:href="#DejaVuSans-67" x="1589.283203"/>
   </g>
  </g>
 </g>
 <defs>
  <clipPath id="pf1a965a5c8">
   <rect x="57.6" y="41.472" width="357.12" height="235.008"/>
  </clipPath>
 </defs>
</svg>
