<?xml version="1.0" encoding="utf-8" standalone="no"?>
<!DOCTYPE svg PUBLIC "-//W3C//DTD SVG 1.1//EN"
  "http://www.w3.org/Graphics/SVG/1.1/DTD/svg11.dtd">
<svg xmlns:xlink="http://www.w3.org/1999/xlink" width="460.8pt" height="345.6pt" viewBox="0 0 460.8 345.6" xmlns="http://www.w3.org/2000/svg" version="1.1">
 <metadata>
  <rdf:RDF xmlns:dc="http://purl.org/dc/elements/1.1/" xmlns:cc="http://creativecommons.org/ns#" xmlns:rdf="http://www.w3.org/1999/02/22-rdf-syntax-ns#">
   <cc:Work>
    <dc:type rdf:resource="http://purl.org/dc/dcmitype/StillImage"/>
    <dc:date>2022-11-23T09:20:37.687982</dc:date>
    <dc:format>image/svg+xml</dc:format>
    <dc:creator>
     <cc:Agent>
      <dc:title>Matplotlib v3.6.2, https://matplotlib.org/</dc:title>
     </cc:Agent>
    </dc:creator>
   </cc:Work>
  </rdf:RDF>
 </metadata>
 <defs>
  <style type="text/css">*{stroke-linejoin: round; stroke-linecap: butt}</style>
 </defs>
 <g id="figure_1">
  <g id="patch_1">
   <path d="M 0 345.6 
L 460.8 345.6 
L 460.8 0 
L 0 0 
z
" style="fill: #ffffff"/>
  </g>
  <g id="axes_1">
   <g id="patch_2">
    <path d="M 57.6 276.48 
L 414.72 276.48 
L 414.72 41.472 
L 57.6 41.472 
z
" style="fill: #ffffff"/>
   </g>
   <g id="matplotlib.axis_1">
    <g id="xtick_1">
     <g id="line2d_1">
      <path d="M 59.571311 276.48 
L 59.571311 41.472 
" clip-path="url(#p70e1b8de5a)" style="fill: none; stroke-dasharray: 2.96,1.28; stroke-dashoffset: 0; stroke: #808080; stroke-width: 0.8"/>
     </g>
     <g id="line2d_2">
      <defs>
       <path id="m2e38b9599d" d="M 0 0 
L 0 3.5 
" style="stroke: #000000; stroke-width: 0.8"/>
      </defs>
      <g>
       <use xlink:href="#m2e38b9599d" x="59.571311" y="276.48" style="stroke: #000000; stroke-width: 0.8"/>
      </g>
     </g>
     <g id="text_1">
      <!-- 19.01.2020 -->
      <g transform="translate(8.9461 318.688565) rotate(-30) scale(0.1 -0.1)">
       <defs>
        <path id="DejaVuSans-31" d="M 794 531 
L 1825 531 
L 1825 4091 
L 703 3866 
L 703 4441 
L 1819 4666 
L 2450 4666 
L 2450 531 
L 3481 531 
L 3481 0 
L 794 0 
L 794 531 
z
" transform="scale(0.015625)"/>
        <path id="DejaVuSans-39" d="M 703 97 
L 703 672 
Q 941 559 1184 500 
Q 1428 441 1663 441 
Q 2288 441 2617 861 
Q 2947 1281 2994 2138 
Q 2813 1869 2534 1725 
Q 2256 1581 1919 1581 
Q 1219 1581 811 2004 
Q 403 2428 403 3163 
Q 403 3881 828 4315 
Q 1253 4750 1959 4750 
Q 2769 4750 3195 4129 
Q 3622 3509 3622 2328 
Q 3622 1225 3098 567 
Q 2575 -91 1691 -91 
Q 1453 -91 1209 -44 
Q 966 3 703 97 
z
M 1959 2075 
Q 2384 2075 2632 2365 
Q 2881 2656 2881 3163 
Q 2881 3666 2632 3958 
Q 2384 4250 1959 4250 
Q 1534 4250 1286 3958 
Q 1038 3666 1038 3163 
Q 1038 2656 1286 2365 
Q 1534 2075 1959 2075 
z
" transform="scale(0.015625)"/>
        <path id="DejaVuSans-2e" d="M 684 794 
L 1344 794 
L 1344 0 
L 684 0 
L 684 794 
z
" transform="scale(0.015625)"/>
        <path id="DejaVuSans-30" d="M 2034 4250 
Q 1547 4250 1301 3770 
Q 1056 3291 1056 2328 
Q 1056 1369 1301 889 
Q 1547 409 2034 409 
Q 2525 409 2770 889 
Q 3016 1369 3016 2328 
Q 3016 3291 2770 3770 
Q 2525 4250 2034 4250 
z
M 2034 4750 
Q 2819 4750 3233 4129 
Q 3647 3509 3647 2328 
Q 3647 1150 3233 529 
Q 2819 -91 2034 -91 
Q 1250 -91 836 529 
Q 422 1150 422 2328 
Q 422 3509 836 4129 
Q 1250 4750 2034 4750 
z
" transform="scale(0.015625)"/>
        <path id="DejaVuSans-32" d="M 1228 531 
L 3431 531 
L 3431 0 
L 469 0 
L 469 531 
Q 828 903 1448 1529 
Q 2069 2156 2228 2338 
Q 2531 2678 2651 2914 
Q 2772 3150 2772 3378 
Q 2772 3750 2511 3984 
Q 2250 4219 1831 4219 
Q 1534 4219 1204 4116 
Q 875 4013 500 3803 
L 500 4441 
Q 881 4594 1212 4672 
Q 1544 4750 1819 4750 
Q 2544 4750 2975 4387 
Q 3406 4025 3406 3419 
Q 3406 3131 3298 2873 
Q 3191 2616 2906 2266 
Q 2828 2175 2409 1742 
Q 1991 1309 1228 531 
z
" transform="scale(0.015625)"/>
       </defs>
       <use xlink:href="#DejaVuSans-31"/>
       <use xlink:href="#DejaVuSans-39" x="63.623047"/>
       <use xlink:href="#DejaVuSans-2e" x="127.246094"/>
       <use xlink:href="#DejaVuSans-30" x="159.033203"/>
       <use xlink:href="#DejaVuSans-31" x="222.65625"/>
       <use xlink:href="#DejaVuSans-2e" x="286.279297"/>
       <use xlink:href="#DejaVuSans-32" x="318.066406"/>
       <use xlink:href="#DejaVuSans-30" x="381.689453"/>
       <use xlink:href="#DejaVuSans-32" x="445.3125"/>
       <use xlink:href="#DejaVuSans-30" x="508.935547"/>
      </g>
     </g>
    </g>
    <g id="xtick_2">
     <g id="line2d_3">
      <path d="M 95.462768 276.48 
L 95.462768 41.472 
" clip-path="url(#p70e1b8de5a)" style="fill: none; stroke-dasharray: 2.96,1.28; stroke-dashoffset: 0; stroke: #808080; stroke-width: 0.8"/>
     </g>
     <g id="line2d_4">
      <g>
       <use xlink:href="#m2e38b9599d" x="95.462768" y="276.48" style="stroke: #000000; stroke-width: 0.8"/>
      </g>
     </g>
     <g id="text_2">
      <!-- 08.05.2020 -->
      <g transform="translate(44.837558 318.688565) rotate(-30) scale(0.1 -0.1)">
       <defs>
        <path id="DejaVuSans-38" d="M 2034 2216 
Q 1584 2216 1326 1975 
Q 1069 1734 1069 1313 
Q 1069 891 1326 650 
Q 1584 409 2034 409 
Q 2484 409 2743 651 
Q 3003 894 3003 1313 
Q 3003 1734 2745 1975 
Q 2488 2216 2034 2216 
z
M 1403 2484 
Q 997 2584 770 2862 
Q 544 3141 544 3541 
Q 544 4100 942 4425 
Q 1341 4750 2034 4750 
Q 2731 4750 3128 4425 
Q 3525 4100 3525 3541 
Q 3525 3141 3298 2862 
Q 3072 2584 2669 2484 
Q 3125 2378 3379 2068 
Q 3634 1759 3634 1313 
Q 3634 634 3220 271 
Q 2806 -91 2034 -91 
Q 1263 -91 848 271 
Q 434 634 434 1313 
Q 434 1759 690 2068 
Q 947 2378 1403 2484 
z
M 1172 3481 
Q 1172 3119 1398 2916 
Q 1625 2713 2034 2713 
Q 2441 2713 2670 2916 
Q 2900 3119 2900 3481 
Q 2900 3844 2670 4047 
Q 2441 4250 2034 4250 
Q 1625 4250 1398 4047 
Q 1172 3844 1172 3481 
z
" transform="scale(0.015625)"/>
        <path id="DejaVuSans-35" d="M 691 4666 
L 3169 4666 
L 3169 4134 
L 1269 4134 
L 1269 2991 
Q 1406 3038 1543 3061 
Q 1681 3084 1819 3084 
Q 2600 3084 3056 2656 
Q 3513 2228 3513 1497 
Q 3513 744 3044 326 
Q 2575 -91 1722 -91 
Q 1428 -91 1123 -41 
Q 819 9 494 109 
L 494 744 
Q 775 591 1075 516 
Q 1375 441 1709 441 
Q 2250 441 2565 725 
Q 2881 1009 2881 1497 
Q 2881 1984 2565 2268 
Q 2250 2553 1709 2553 
Q 1456 2553 1204 2497 
Q 953 2441 691 2322 
L 691 4666 
z
" transform="scale(0.015625)"/>
       </defs>
       <use xlink:href="#DejaVuSans-30"/>
       <use xlink:href="#DejaVuSans-38" x="63.623047"/>
       <use xlink:href="#DejaVuSans-2e" x="127.246094"/>
       <use xlink:href="#DejaVuSans-30" x="159.033203"/>
       <use xlink:href="#DejaVuSans-35" x="222.65625"/>
       <use xlink:href="#DejaVuSans-2e" x="286.279297"/>
       <use xlink:href="#DejaVuSans-32" x="318.066406"/>
       <use xlink:href="#DejaVuSans-30" x="381.689453"/>
       <use xlink:href="#DejaVuSans-32" x="445.3125"/>
       <use xlink:href="#DejaVuSans-30" x="508.935547"/>
      </g>
     </g>
    </g>
    <g id="xtick_3">
     <g id="line2d_5">
      <path d="M 131.354226 276.48 
L 131.354226 41.472 
" clip-path="url(#p70e1b8de5a)" style="fill: none; stroke-dasharray: 2.96,1.28; stroke-dashoffset: 0; stroke: #808080; stroke-width: 0.8"/>
     </g>
     <g id="line2d_6">
      <g>
       <use xlink:href="#m2e38b9599d" x="131.354226" y="276.48" style="stroke: #000000; stroke-width: 0.8"/>
      </g>
     </g>
     <g id="text_3">
      <!-- 26.08.2020 -->
      <g transform="translate(80.729015 318.688565) rotate(-30) scale(0.1 -0.1)">
       <defs>
        <path id="DejaVuSans-36" d="M 2113 2584 
Q 1688 2584 1439 2293 
Q 1191 2003 1191 1497 
Q 1191 994 1439 701 
Q 1688 409 2113 409 
Q 2538 409 2786 701 
Q 3034 994 3034 1497 
Q 3034 2003 2786 2293 
Q 2538 2584 2113 2584 
z
M 3366 4563 
L 3366 3988 
Q 3128 4100 2886 4159 
Q 2644 4219 2406 4219 
Q 1781 4219 1451 3797 
Q 1122 3375 1075 2522 
Q 1259 2794 1537 2939 
Q 1816 3084 2150 3084 
Q 2853 3084 3261 2657 
Q 3669 2231 3669 1497 
Q 3669 778 3244 343 
Q 2819 -91 2113 -91 
Q 1303 -91 875 529 
Q 447 1150 447 2328 
Q 447 3434 972 4092 
Q 1497 4750 2381 4750 
Q 2619 4750 2861 4703 
Q 3103 4656 3366 4563 
z
" transform="scale(0.015625)"/>
       </defs>
       <use xlink:href="#DejaVuSans-32"/>
       <use xlink:href="#DejaVuSans-36" x="63.623047"/>
       <use xlink:href="#DejaVuSans-2e" x="127.246094"/>
       <use xlink:href="#DejaVuSans-30" x="159.033203"/>
       <use xlink:href="#DejaVuSans-38" x="222.65625"/>
       <use xlink:href="#DejaVuSans-2e" x="286.279297"/>
       <use xlink:href="#DejaVuSans-32" x="318.066406"/>
       <use xlink:href="#DejaVuSans-30" x="381.689453"/>
       <use xlink:href="#DejaVuSans-32" x="445.3125"/>
       <use xlink:href="#DejaVuSans-30" x="508.935547"/>
      </g>
     </g>
    </g>
    <g id="xtick_4">
     <g id="line2d_7">
      <path d="M 167.245683 276.48 
L 167.245683 41.472 
" clip-path="url(#p70e1b8de5a)" style="fill: none; stroke-dasharray: 2.96,1.28; stroke-dashoffset: 0; stroke: #808080; stroke-width: 0.8"/>
     </g>
     <g id="line2d_8">
      <g>
       <use xlink:href="#m2e38b9599d" x="167.245683" y="276.48" style="stroke: #000000; stroke-width: 0.8"/>
      </g>
     </g>
     <g id="text_4">
      <!-- 14.12.2020 -->
      <g transform="translate(116.620472 318.688565) rotate(-30) scale(0.1 -0.1)">
       <defs>
        <path id="DejaVuSans-34" d="M 2419 4116 
L 825 1625 
L 2419 1625 
L 2419 4116 
z
M 2253 4666 
L 3047 4666 
L 3047 1625 
L 3713 1625 
L 3713 1100 
L 3047 1100 
L 3047 0 
L 2419 0 
L 2419 1100 
L 313 1100 
L 313 1709 
L 2253 4666 
z
" transform="scale(0.015625)"/>
       </defs>
       <use xlink:href="#DejaVuSans-31"/>
       <use xlink:href="#DejaVuSans-34" x="63.623047"/>
       <use xlink:href="#DejaVuSans-2e" x="127.246094"/>
       <use xlink:href="#DejaVuSans-31" x="159.033203"/>
       <use xlink:href="#DejaVuSans-32" x="222.65625"/>
       <use xlink:href="#DejaVuSans-2e" x="286.279297"/>
       <use xlink:href="#DejaVuSans-32" x="318.066406"/>
       <use xlink:href="#DejaVuSans-30" x="381.689453"/>
       <use xlink:href="#DejaVuSans-32" x="445.3125"/>
       <use xlink:href="#DejaVuSans-30" x="508.935547"/>
      </g>
     </g>
    </g>
    <g id="xtick_5">
     <g id="line2d_9">
      <path d="M 203.13714 276.48 
L 203.13714 41.472 
" clip-path="url(#p70e1b8de5a)" style="fill: none; stroke-dasharray: 2.96,1.28; stroke-dashoffset: 0; stroke: #808080; stroke-width: 0.8"/>
     </g>
     <g id="line2d_10">
      <g>
       <use xlink:href="#m2e38b9599d" x="203.13714" y="276.48" style="stroke: #000000; stroke-width: 0.8"/>
      </g>
     </g>
     <g id="text_5">
      <!-- 03.04.2021 -->
      <g transform="translate(152.511929 318.688565) rotate(-30) scale(0.1 -0.1)">
       <defs>
        <path id="DejaVuSans-33" d="M 2597 2516 
Q 3050 2419 3304 2112 
Q 3559 1806 3559 1356 
Q 3559 666 3084 287 
Q 2609 -91 1734 -91 
Q 1441 -91 1130 -33 
Q 819 25 488 141 
L 488 750 
Q 750 597 1062 519 
Q 1375 441 1716 441 
Q 2309 441 2620 675 
Q 2931 909 2931 1356 
Q 2931 1769 2642 2001 
Q 2353 2234 1838 2234 
L 1294 2234 
L 1294 2753 
L 1863 2753 
Q 2328 2753 2575 2939 
Q 2822 3125 2822 3475 
Q 2822 3834 2567 4026 
Q 2313 4219 1838 4219 
Q 1578 4219 1281 4162 
Q 984 4106 628 3988 
L 628 4550 
Q 988 4650 1302 4700 
Q 1616 4750 1894 4750 
Q 2613 4750 3031 4423 
Q 3450 4097 3450 3541 
Q 3450 3153 3228 2886 
Q 3006 2619 2597 2516 
z
" transform="scale(0.015625)"/>
       </defs>
       <use xlink:href="#DejaVuSans-30"/>
       <use xlink:href="#DejaVuSans-33" x="63.623047"/>
       <use xlink:href="#DejaVuSans-2e" x="127.246094"/>
       <use xlink:href="#DejaVuSans-30" x="159.033203"/>
       <use xlink:href="#DejaVuSans-34" x="222.65625"/>
       <use xlink:href="#DejaVuSans-2e" x="286.279297"/>
       <use xlink:href="#DejaVuSans-32" x="318.066406"/>
       <use xlink:href="#DejaVuSans-30" x="381.689453"/>
       <use xlink:href="#DejaVuSans-32" x="445.3125"/>
       <use xlink:href="#DejaVuSans-31" x="508.935547"/>
      </g>
     </g>
    </g>
    <g id="xtick_6">
     <g id="line2d_11">
      <path d="M 239.028598 276.48 
L 239.028598 41.472 
" clip-path="url(#p70e1b8de5a)" style="fill: none; stroke-dasharray: 2.96,1.28; stroke-dashoffset: 0; stroke: #808080; stroke-width: 0.8"/>
     </g>
     <g id="line2d_12">
      <g>
       <use xlink:href="#m2e38b9599d" x="239.028598" y="276.48" style="stroke: #000000; stroke-width: 0.8"/>
      </g>
     </g>
     <g id="text_6">
      <!-- 22.07.2021 -->
      <g transform="translate(188.403387 318.688565) rotate(-30) scale(0.1 -0.1)">
       <defs>
        <path id="DejaVuSans-37" d="M 525 4666 
L 3525 4666 
L 3525 4397 
L 1831 0 
L 1172 0 
L 2766 4134 
L 525 4134 
L 525 4666 
z
" transform="scale(0.015625)"/>
       </defs>
       <use xlink:href="#DejaVuSans-32"/>
       <use xlink:href="#DejaVuSans-32" x="63.623047"/>
       <use xlink:href="#DejaVuSans-2e" x="127.246094"/>
       <use xlink:href="#DejaVuSans-30" x="159.033203"/>
       <use xlink:href="#DejaVuSans-37" x="222.65625"/>
       <use xlink:href="#DejaVuSans-2e" x="286.279297"/>
       <use xlink:href="#DejaVuSans-32" x="318.066406"/>
       <use xlink:href="#DejaVuSans-30" x="381.689453"/>
       <use xlink:href="#DejaVuSans-32" x="445.3125"/>
       <use xlink:href="#DejaVuSans-31" x="508.935547"/>
      </g>
     </g>
    </g>
    <g id="xtick_7">
     <g id="line2d_13">
      <path d="M 274.920055 276.48 
L 274.920055 41.472 
" clip-path="url(#p70e1b8de5a)" style="fill: none; stroke-dasharray: 2.96,1.28; stroke-dashoffset: 0; stroke: #808080; stroke-width: 0.8"/>
     </g>
     <g id="line2d_14">
      <g>
       <use xlink:href="#m2e38b9599d" x="274.920055" y="276.48" style="stroke: #000000; stroke-width: 0.8"/>
      </g>
     </g>
     <g id="text_7">
      <!-- 09.11.2021 -->
      <g transform="translate(224.294844 318.688565) rotate(-30) scale(0.1 -0.1)">
       <use xlink:href="#DejaVuSans-30"/>
       <use xlink:href="#DejaVuSans-39" x="63.623047"/>
       <use xlink:href="#DejaVuSans-2e" x="127.246094"/>
       <use xlink:href="#DejaVuSans-31" x="159.033203"/>
       <use xlink:href="#DejaVuSans-31" x="222.65625"/>
       <use xlink:href="#DejaVuSans-2e" x="286.279297"/>
       <use xlink:href="#DejaVuSans-32" x="318.066406"/>
       <use xlink:href="#DejaVuSans-30" x="381.689453"/>
       <use xlink:href="#DejaVuSans-32" x="445.3125"/>
       <use xlink:href="#DejaVuSans-31" x="508.935547"/>
      </g>
     </g>
    </g>
    <g id="xtick_8">
     <g id="line2d_15">
      <path d="M 310.811512 276.48 
L 310.811512 41.472 
" clip-path="url(#p70e1b8de5a)" style="fill: none; stroke-dasharray: 2.96,1.28; stroke-dashoffset: 0; stroke: #808080; stroke-width: 0.8"/>
     </g>
     <g id="line2d_16">
      <g>
       <use xlink:href="#m2e38b9599d" x="310.811512" y="276.48" style="stroke: #000000; stroke-width: 0.8"/>
      </g>
     </g>
     <g id="text_8">
      <!-- 27.02.2022 -->
      <g transform="translate(260.186301 318.688565) rotate(-30) scale(0.1 -0.1)">
       <use xlink:href="#DejaVuSans-32"/>
       <use xlink:href="#DejaVuSans-37" x="63.623047"/>
       <use xlink:href="#DejaVuSans-2e" x="127.246094"/>
       <use xlink:href="#DejaVuSans-30" x="159.033203"/>
       <use xlink:href="#DejaVuSans-32" x="222.65625"/>
       <use xlink:href="#DejaVuSans-2e" x="286.279297"/>
       <use xlink:href="#DejaVuSans-32" x="318.066406"/>
       <use xlink:href="#DejaVuSans-30" x="381.689453"/>
       <use xlink:href="#DejaVuSans-32" x="445.3125"/>
       <use xlink:href="#DejaVuSans-32" x="508.935547"/>
      </g>
     </g>
    </g>
    <g id="xtick_9">
     <g id="line2d_17">
      <path d="M 346.702969 276.48 
L 346.702969 41.472 
" clip-path="url(#p70e1b8de5a)" style="fill: none; stroke-dasharray: 2.96,1.28; stroke-dashoffset: 0; stroke: #808080; stroke-width: 0.8"/>
     </g>
     <g id="line2d_18">
      <g>
       <use xlink:href="#m2e38b9599d" x="346.702969" y="276.48" style="stroke: #000000; stroke-width: 0.8"/>
      </g>
     </g>
     <g id="text_9">
      <!-- 17.06.2022 -->
      <g transform="translate(296.077759 318.688565) rotate(-30) scale(0.1 -0.1)">
       <use xlink:href="#DejaVuSans-31"/>
       <use xlink:href="#DejaVuSans-37" x="63.623047"/>
       <use xlink:href="#DejaVuSans-2e" x="127.246094"/>
       <use xlink:href="#DejaVuSans-30" x="159.033203"/>
       <use xlink:href="#DejaVuSans-36" x="222.65625"/>
       <use xlink:href="#DejaVuSans-2e" x="286.279297"/>
       <use xlink:href="#DejaVuSans-32" x="318.066406"/>
       <use xlink:href="#DejaVuSans-30" x="381.689453"/>
       <use xlink:href="#DejaVuSans-32" x="445.3125"/>
       <use xlink:href="#DejaVuSans-32" x="508.935547"/>
      </g>
     </g>
    </g>
    <g id="xtick_10">
     <g id="line2d_19">
      <path d="M 382.594427 276.48 
L 382.594427 41.472 
" clip-path="url(#p70e1b8de5a)" style="fill: none; stroke-dasharray: 2.96,1.28; stroke-dashoffset: 0; stroke: #808080; stroke-width: 0.8"/>
     </g>
     <g id="line2d_20">
      <g>
       <use xlink:href="#m2e38b9599d" x="382.594427" y="276.48" style="stroke: #000000; stroke-width: 0.8"/>
      </g>
     </g>
     <g id="text_10">
      <!-- 05.10.2022 -->
      <g transform="translate(331.969216 318.688565) rotate(-30) scale(0.1 -0.1)">
       <use xlink:href="#DejaVuSans-30"/>
       <use xlink:href="#DejaVuSans-35" x="63.623047"/>
       <use xlink:href="#DejaVuSans-2e" x="127.246094"/>
       <use xlink:href="#DejaVuSans-31" x="159.033203"/>
       <use xlink:href="#DejaVuSans-30" x="222.65625"/>
       <use xlink:href="#DejaVuSans-2e" x="286.279297"/>
       <use xlink:href="#DejaVuSans-32" x="318.066406"/>
       <use xlink:href="#DejaVuSans-30" x="381.689453"/>
       <use xlink:href="#DejaVuSans-32" x="445.3125"/>
       <use xlink:href="#DejaVuSans-32" x="508.935547"/>
      </g>
     </g>
    </g>
   </g>
   <g id="matplotlib.axis_2">
    <g id="ytick_1">
     <g id="line2d_21">
      <path d="M 57.6 265.797818 
L 414.72 265.797818 
" clip-path="url(#p70e1b8de5a)" style="fill: none; stroke-dasharray: 2.96,1.28; stroke-dashoffset: 0; stroke: #808080; stroke-width: 0.8"/>
     </g>
     <g id="line2d_22">
      <defs>
       <path id="m06102161a3" d="M 0 0 
L -3.5 0 
" style="stroke: #000000; stroke-width: 0.8"/>
      </defs>
      <g>
       <use xlink:href="#m06102161a3" x="57.6" y="265.797818" style="stroke: #000000; stroke-width: 0.8"/>
      </g>
     </g>
     <g id="text_11">
      <!-- 0 -->
      <g transform="translate(44.2375 269.597037) scale(0.1 -0.1)">
       <use xlink:href="#DejaVuSans-30"/>
      </g>
     </g>
    </g>
    <g id="ytick_2">
     <g id="line2d_23">
      <path d="M 57.6 239.02103 
L 414.72 239.02103 
" clip-path="url(#p70e1b8de5a)" style="fill: none; stroke-dasharray: 2.96,1.28; stroke-dashoffset: 0; stroke: #808080; stroke-width: 0.8"/>
     </g>
     <g id="line2d_24">
      <g>
       <use xlink:href="#m06102161a3" x="57.6" y="239.02103" style="stroke: #000000; stroke-width: 0.8"/>
      </g>
     </g>
     <g id="text_12">
      <!-- 250 -->
      <g transform="translate(31.5125 242.820248) scale(0.1 -0.1)">
       <use xlink:href="#DejaVuSans-32"/>
       <use xlink:href="#DejaVuSans-35" x="63.623047"/>
       <use xlink:href="#DejaVuSans-30" x="127.246094"/>
      </g>
     </g>
    </g>
    <g id="ytick_3">
     <g id="line2d_25">
      <path d="M 57.6 212.244241 
L 414.72 212.244241 
" clip-path="url(#p70e1b8de5a)" style="fill: none; stroke-dasharray: 2.96,1.28; stroke-dashoffset: 0; stroke: #808080; stroke-width: 0.8"/>
     </g>
     <g id="line2d_26">
      <g>
       <use xlink:href="#m06102161a3" x="57.6" y="212.244241" style="stroke: #000000; stroke-width: 0.8"/>
      </g>
     </g>
     <g id="text_13">
      <!-- 500 -->
      <g transform="translate(31.5125 216.04346) scale(0.1 -0.1)">
       <use xlink:href="#DejaVuSans-35"/>
       <use xlink:href="#DejaVuSans-30" x="63.623047"/>
       <use xlink:href="#DejaVuSans-30" x="127.246094"/>
      </g>
     </g>
    </g>
    <g id="ytick_4">
     <g id="line2d_27">
      <path d="M 57.6 185.467452 
L 414.72 185.467452 
" clip-path="url(#p70e1b8de5a)" style="fill: none; stroke-dasharray: 2.96,1.28; stroke-dashoffset: 0; stroke: #808080; stroke-width: 0.8"/>
     </g>
     <g id="line2d_28">
      <g>
       <use xlink:href="#m06102161a3" x="57.6" y="185.467452" style="stroke: #000000; stroke-width: 0.8"/>
      </g>
     </g>
     <g id="text_14">
      <!-- 750 -->
      <g transform="translate(31.5125 189.266671) scale(0.1 -0.1)">
       <use xlink:href="#DejaVuSans-37"/>
       <use xlink:href="#DejaVuSans-35" x="63.623047"/>
       <use xlink:href="#DejaVuSans-30" x="127.246094"/>
      </g>
     </g>
    </g>
    <g id="ytick_5">
     <g id="line2d_29">
      <path d="M 57.6 158.690664 
L 414.72 158.690664 
" clip-path="url(#p70e1b8de5a)" style="fill: none; stroke-dasharray: 2.96,1.28; stroke-dashoffset: 0; stroke: #808080; stroke-width: 0.8"/>
     </g>
     <g id="line2d_30">
      <g>
       <use xlink:href="#m06102161a3" x="57.6" y="158.690664" style="stroke: #000000; stroke-width: 0.8"/>
      </g>
     </g>
     <g id="text_15">
      <!-- 1000 -->
      <g transform="translate(25.15 162.489883) scale(0.1 -0.1)">
       <use xlink:href="#DejaVuSans-31"/>
       <use xlink:href="#DejaVuSans-30" x="63.623047"/>
       <use xlink:href="#DejaVuSans-30" x="127.246094"/>
       <use xlink:href="#DejaVuSans-30" x="190.869141"/>
      </g>
     </g>
    </g>
    <g id="ytick_6">
     <g id="line2d_31">
      <path d="M 57.6 131.913875 
L 414.72 131.913875 
" clip-path="url(#p70e1b8de5a)" style="fill: none; stroke-dasharray: 2.96,1.28; stroke-dashoffset: 0; stroke: #808080; stroke-width: 0.8"/>
     </g>
     <g id="line2d_32">
      <g>
       <use xlink:href="#m06102161a3" x="57.6" y="131.913875" style="stroke: #000000; stroke-width: 0.8"/>
      </g>
     </g>
     <g id="text_16">
      <!-- 1250 -->
      <g transform="translate(25.15 135.713094) scale(0.1 -0.1)">
       <use xlink:href="#DejaVuSans-31"/>
       <use xlink:href="#DejaVuSans-32" x="63.623047"/>
       <use xlink:href="#DejaVuSans-35" x="127.246094"/>
       <use xlink:href="#DejaVuSans-30" x="190.869141"/>
      </g>
     </g>
    </g>
    <g id="ytick_7">
     <g id="line2d_33">
      <path d="M 57.6 105.137087 
L 414.72 105.137087 
" clip-path="url(#p70e1b8de5a)" style="fill: none; stroke-dasharray: 2.96,1.28; stroke-dashoffset: 0; stroke: #808080; stroke-width: 0.8"/>
     </g>
     <g id="line2d_34">
      <g>
       <use xlink:href="#m06102161a3" x="57.6" y="105.137087" style="stroke: #000000; stroke-width: 0.8"/>
      </g>
     </g>
     <g id="text_17">
      <!-- 1500 -->
      <g transform="translate(25.15 108.936305) scale(0.1 -0.1)">
       <use xlink:href="#DejaVuSans-31"/>
       <use xlink:href="#DejaVuSans-35" x="63.623047"/>
       <use xlink:href="#DejaVuSans-30" x="127.246094"/>
       <use xlink:href="#DejaVuSans-30" x="190.869141"/>
      </g>
     </g>
    </g>
    <g id="ytick_8">
     <g id="line2d_35">
      <path d="M 57.6 78.360298 
L 414.72 78.360298 
" clip-path="url(#p70e1b8de5a)" style="fill: none; stroke-dasharray: 2.96,1.28; stroke-dashoffset: 0; stroke: #808080; stroke-width: 0.8"/>
     </g>
     <g id="line2d_36">
      <g>
       <use xlink:href="#m06102161a3" x="57.6" y="78.360298" style="stroke: #000000; stroke-width: 0.8"/>
      </g>
     </g>
     <g id="text_18">
      <!-- 1750 -->
      <g transform="translate(25.15 82.159517) scale(0.1 -0.1)">
       <use xlink:href="#DejaVuSans-31"/>
       <use xlink:href="#DejaVuSans-37" x="63.623047"/>
       <use xlink:href="#DejaVuSans-35" x="127.246094"/>
       <use xlink:href="#DejaVuSans-30" x="190.869141"/>
      </g>
     </g>
    </g>
    <g id="ytick_9">
     <g id="line2d_37">
      <path d="M 57.6 51.58351 
L 414.72 51.58351 
" clip-path="url(#p70e1b8de5a)" style="fill: none; stroke-dasharray: 2.96,1.28; stroke-dashoffset: 0; stroke: #808080; stroke-width: 0.8"/>
     </g>
     <g id="line2d_38">
      <g>
       <use xlink:href="#m06102161a3" x="57.6" y="51.58351" style="stroke: #000000; stroke-width: 0.8"/>
      </g>
     </g>
     <g id="text_19">
      <!-- 2000 -->
      <g transform="translate(25.15 55.382728) scale(0.1 -0.1)">
       <use xlink:href="#DejaVuSans-32"/>
       <use xlink:href="#DejaVuSans-30" x="63.623047"/>
       <use xlink:href="#DejaVuSans-30" x="127.246094"/>
       <use xlink:href="#DejaVuSans-30" x="190.869141"/>
      </g>
     </g>
    </g>
    <g id="text_20">
     <!-- Inzidenz pro 7 Tage pro 100.000 Einwohner -->
     <g transform="translate(19.070312 267.301) rotate(-90) scale(0.1 -0.1)">
      <defs>
       <path id="DejaVuSans-49" d="M 628 4666 
L 1259 4666 
L 1259 0 
L 628 0 
L 628 4666 
z
" transform="scale(0.015625)"/>
       <path id="DejaVuSans-6e" d="M 3513 2113 
L 3513 0 
L 2938 0 
L 2938 2094 
Q 2938 2591 2744 2837 
Q 2550 3084 2163 3084 
Q 1697 3084 1428 2787 
Q 1159 2491 1159 1978 
L 1159 0 
L 581 0 
L 581 3500 
L 1159 3500 
L 1159 2956 
Q 1366 3272 1645 3428 
Q 1925 3584 2291 3584 
Q 2894 3584 3203 3211 
Q 3513 2838 3513 2113 
z
" transform="scale(0.015625)"/>
       <path id="DejaVuSans-7a" d="M 353 3500 
L 3084 3500 
L 3084 2975 
L 922 459 
L 3084 459 
L 3084 0 
L 275 0 
L 275 525 
L 2438 3041 
L 353 3041 
L 353 3500 
z
" transform="scale(0.015625)"/>
       <path id="DejaVuSans-69" d="M 603 3500 
L 1178 3500 
L 1178 0 
L 603 0 
L 603 3500 
z
M 603 4863 
L 1178 4863 
L 1178 4134 
L 603 4134 
L 603 4863 
z
" transform="scale(0.015625)"/>
       <path id="DejaVuSans-64" d="M 2906 2969 
L 2906 4863 
L 3481 4863 
L 3481 0 
L 2906 0 
L 2906 525 
Q 2725 213 2448 61 
Q 2172 -91 1784 -91 
Q 1150 -91 751 415 
Q 353 922 353 1747 
Q 353 2572 751 3078 
Q 1150 3584 1784 3584 
Q 2172 3584 2448 3432 
Q 2725 3281 2906 2969 
z
M 947 1747 
Q 947 1113 1208 752 
Q 1469 391 1925 391 
Q 2381 391 2643 752 
Q 2906 1113 2906 1747 
Q 2906 2381 2643 2742 
Q 2381 3103 1925 3103 
Q 1469 3103 1208 2742 
Q 947 2381 947 1747 
z
" transform="scale(0.015625)"/>
       <path id="DejaVuSans-65" d="M 3597 1894 
L 3597 1613 
L 953 1613 
Q 991 1019 1311 708 
Q 1631 397 2203 397 
Q 2534 397 2845 478 
Q 3156 559 3463 722 
L 3463 178 
Q 3153 47 2828 -22 
Q 2503 -91 2169 -91 
Q 1331 -91 842 396 
Q 353 884 353 1716 
Q 353 2575 817 3079 
Q 1281 3584 2069 3584 
Q 2775 3584 3186 3129 
Q 3597 2675 3597 1894 
z
M 3022 2063 
Q 3016 2534 2758 2815 
Q 2500 3097 2075 3097 
Q 1594 3097 1305 2825 
Q 1016 2553 972 2059 
L 3022 2063 
z
" transform="scale(0.015625)"/>
       <path id="DejaVuSans-20" transform="scale(0.015625)"/>
       <path id="DejaVuSans-70" d="M 1159 525 
L 1159 -1331 
L 581 -1331 
L 581 3500 
L 1159 3500 
L 1159 2969 
Q 1341 3281 1617 3432 
Q 1894 3584 2278 3584 
Q 2916 3584 3314 3078 
Q 3713 2572 3713 1747 
Q 3713 922 3314 415 
Q 2916 -91 2278 -91 
Q 1894 -91 1617 61 
Q 1341 213 1159 525 
z
M 3116 1747 
Q 3116 2381 2855 2742 
Q 2594 3103 2138 3103 
Q 1681 3103 1420 2742 
Q 1159 2381 1159 1747 
Q 1159 1113 1420 752 
Q 1681 391 2138 391 
Q 2594 391 2855 752 
Q 3116 1113 3116 1747 
z
" transform="scale(0.015625)"/>
       <path id="DejaVuSans-72" d="M 2631 2963 
Q 2534 3019 2420 3045 
Q 2306 3072 2169 3072 
Q 1681 3072 1420 2755 
Q 1159 2438 1159 1844 
L 1159 0 
L 581 0 
L 581 3500 
L 1159 3500 
L 1159 2956 
Q 1341 3275 1631 3429 
Q 1922 3584 2338 3584 
Q 2397 3584 2469 3576 
Q 2541 3569 2628 3553 
L 2631 2963 
z
" transform="scale(0.015625)"/>
       <path id="DejaVuSans-6f" d="M 1959 3097 
Q 1497 3097 1228 2736 
Q 959 2375 959 1747 
Q 959 1119 1226 758 
Q 1494 397 1959 397 
Q 2419 397 2687 759 
Q 2956 1122 2956 1747 
Q 2956 2369 2687 2733 
Q 2419 3097 1959 3097 
z
M 1959 3584 
Q 2709 3584 3137 3096 
Q 3566 2609 3566 1747 
Q 3566 888 3137 398 
Q 2709 -91 1959 -91 
Q 1206 -91 779 398 
Q 353 888 353 1747 
Q 353 2609 779 3096 
Q 1206 3584 1959 3584 
z
" transform="scale(0.015625)"/>
       <path id="DejaVuSans-54" d="M -19 4666 
L 3928 4666 
L 3928 4134 
L 2272 4134 
L 2272 0 
L 1638 0 
L 1638 4134 
L -19 4134 
L -19 4666 
z
" transform="scale(0.015625)"/>
       <path id="DejaVuSans-61" d="M 2194 1759 
Q 1497 1759 1228 1600 
Q 959 1441 959 1056 
Q 959 750 1161 570 
Q 1363 391 1709 391 
Q 2188 391 2477 730 
Q 2766 1069 2766 1631 
L 2766 1759 
L 2194 1759 
z
M 3341 1997 
L 3341 0 
L 2766 0 
L 2766 531 
Q 2569 213 2275 61 
Q 1981 -91 1556 -91 
Q 1019 -91 701 211 
Q 384 513 384 1019 
Q 384 1609 779 1909 
Q 1175 2209 1959 2209 
L 2766 2209 
L 2766 2266 
Q 2766 2663 2505 2880 
Q 2244 3097 1772 3097 
Q 1472 3097 1187 3025 
Q 903 2953 641 2809 
L 641 3341 
Q 956 3463 1253 3523 
Q 1550 3584 1831 3584 
Q 2591 3584 2966 3190 
Q 3341 2797 3341 1997 
z
" transform="scale(0.015625)"/>
       <path id="DejaVuSans-67" d="M 2906 1791 
Q 2906 2416 2648 2759 
Q 2391 3103 1925 3103 
Q 1463 3103 1205 2759 
Q 947 2416 947 1791 
Q 947 1169 1205 825 
Q 1463 481 1925 481 
Q 2391 481 2648 825 
Q 2906 1169 2906 1791 
z
M 3481 434 
Q 3481 -459 3084 -895 
Q 2688 -1331 1869 -1331 
Q 1566 -1331 1297 -1286 
Q 1028 -1241 775 -1147 
L 775 -588 
Q 1028 -725 1275 -790 
Q 1522 -856 1778 -856 
Q 2344 -856 2625 -561 
Q 2906 -266 2906 331 
L 2906 616 
Q 2728 306 2450 153 
Q 2172 0 1784 0 
Q 1141 0 747 490 
Q 353 981 353 1791 
Q 353 2603 747 3093 
Q 1141 3584 1784 3584 
Q 2172 3584 2450 3431 
Q 2728 3278 2906 2969 
L 2906 3500 
L 3481 3500 
L 3481 434 
z
" transform="scale(0.015625)"/>
       <path id="DejaVuSans-45" d="M 628 4666 
L 3578 4666 
L 3578 4134 
L 1259 4134 
L 1259 2753 
L 3481 2753 
L 3481 2222 
L 1259 2222 
L 1259 531 
L 3634 531 
L 3634 0 
L 628 0 
L 628 4666 
z
" transform="scale(0.015625)"/>
       <path id="DejaVuSans-77" d="M 269 3500 
L 844 3500 
L 1563 769 
L 2278 3500 
L 2956 3500 
L 3675 769 
L 4391 3500 
L 4966 3500 
L 4050 0 
L 3372 0 
L 2619 2869 
L 1863 0 
L 1184 0 
L 269 3500 
z
" transform="scale(0.015625)"/>
       <path id="DejaVuSans-68" d="M 3513 2113 
L 3513 0 
L 2938 0 
L 2938 2094 
Q 2938 2591 2744 2837 
Q 2550 3084 2163 3084 
Q 1697 3084 1428 2787 
Q 1159 2491 1159 1978 
L 1159 0 
L 581 0 
L 581 4863 
L 1159 4863 
L 1159 2956 
Q 1366 3272 1645 3428 
Q 1925 3584 2291 3584 
Q 2894 3584 3203 3211 
Q 3513 2838 3513 2113 
z
" transform="scale(0.015625)"/>
      </defs>
      <use xlink:href="#DejaVuSans-49"/>
      <use xlink:href="#DejaVuSans-6e" x="29.492188"/>
      <use xlink:href="#DejaVuSans-7a" x="92.871094"/>
      <use xlink:href="#DejaVuSans-69" x="145.361328"/>
      <use xlink:href="#DejaVuSans-64" x="173.144531"/>
      <use xlink:href="#DejaVuSans-65" x="236.621094"/>
      <use xlink:href="#DejaVuSans-6e" x="298.144531"/>
      <use xlink:href="#DejaVuSans-7a" x="361.523438"/>
      <use xlink:href="#DejaVuSans-20" x="414.013672"/>
      <use xlink:href="#DejaVuSans-70" x="445.800781"/>
      <use xlink:href="#DejaVuSans-72" x="509.277344"/>
      <use xlink:href="#DejaVuSans-6f" x="548.140625"/>
      <use xlink:href="#DejaVuSans-20" x="609.322266"/>
      <use xlink:href="#DejaVuSans-37" x="641.109375"/>
      <use xlink:href="#DejaVuSans-20" x="704.732422"/>
      <use xlink:href="#DejaVuSans-54" x="736.519531"/>
      <use xlink:href="#DejaVuSans-61" x="781.103516"/>
      <use xlink:href="#DejaVuSans-67" x="842.382812"/>
      <use xlink:href="#DejaVuSans-65" x="905.859375"/>
      <use xlink:href="#DejaVuSans-20" x="967.382812"/>
      <use xlink:href="#DejaVuSans-70" x="999.169922"/>
      <use xlink:href="#DejaVuSans-72" x="1062.646484"/>
      <use xlink:href="#DejaVuSans-6f" x="1101.509766"/>
      <use xlink:href="#DejaVuSans-20" x="1162.691406"/>
      <use xlink:href="#DejaVuSans-31" x="1194.478516"/>
      <use xlink:href="#DejaVuSans-30" x="1258.101562"/>
      <use xlink:href="#DejaVuSans-30" x="1321.724609"/>
      <use xlink:href="#DejaVuSans-2e" x="1385.347656"/>
      <use xlink:href="#DejaVuSans-30" x="1417.134766"/>
      <use xlink:href="#DejaVuSans-30" x="1480.757812"/>
      <use xlink:href="#DejaVuSans-30" x="1544.380859"/>
      <use xlink:href="#DejaVuSans-20" x="1608.003906"/>
      <use xlink:href="#DejaVuSans-45" x="1639.791016"/>
      <use xlink:href="#DejaVuSans-69" x="1702.974609"/>
      <use xlink:href="#DejaVuSans-6e" x="1730.757812"/>
      <use xlink:href="#DejaVuSans-77" x="1794.136719"/>
      <use xlink:href="#DejaVuSans-6f" x="1875.923828"/>
      <use xlink:href="#DejaVuSans-68" x="1937.105469"/>
      <use xlink:href="#DejaVuSans-6e" x="2000.484375"/>
      <use xlink:href="#DejaVuSans-65" x="2063.863281"/>
      <use xlink:href="#DejaVuSans-72" x="2125.386719"/>
     </g>
    </g>
   </g>
   <g id="line2d_39">
    <path d="M 73.832727 265.797818 
L 77.748159 265.726126 
L 78.074445 265.224278 
L 78.400731 265.152586 
L 80.032161 263.718736 
L 80.358447 264.005506 
L 81.011019 263.790428 
L 82.316163 264.005506 
L 82.642449 262.786733 
L 82.968735 262.715041 
L 83.295021 262.786733 
L 83.947593 262.213193 
L 84.273878 261.926423 
L 84.600164 262.141501 
L 84.92645 263.360273 
L 85.579022 262.858426 
L 86.55788 263.647043 
L 86.884166 263.718736 
L 87.210452 263.647043 
L 88.18931 263.862121 
L 88.841882 263.647043 
L 89.494454 263.862121 
L 89.82074 264.363968 
L 90.147026 264.650738 
L 90.473312 264.650738 
L 91.125884 265.080893 
L 91.45217 265.080893 
L 91.778456 265.224278 
L 94.71503 264.650738 
L 95.041316 265.080893 
L 95.693888 265.439356 
L 96.34646 265.439356 
L 96.672746 265.654433 
L 101.240749 265.726126 
L 101.893321 265.797818 
L 106.787611 265.726126 
L 107.113897 265.582741 
L 112.660758 265.654433 
L 112.987044 265.726126 
L 113.31333 265.654433 
L 113.965902 265.726126 
L 114.94476 265.726126 
L 115.271046 265.582741 
L 115.923618 265.582741 
L 116.249904 265.367663 
L 116.902476 265.152586 
L 117.228762 264.650738 
L 117.555048 264.722431 
L 118.20762 264.363968 
L 118.533906 264.579046 
L 118.860192 264.292276 
L 119.186478 264.435661 
L 119.512764 264.865816 
L 120.165336 265.080893 
L 120.491622 265.295971 
L 120.817908 265.295971 
L 121.144194 265.511048 
L 121.796766 265.511048 
L 122.123052 265.367663 
L 122.449338 265.367663 
L 122.775624 265.152586 
L 123.428196 265.080893 
L 124.080767 265.080893 
L 124.407053 265.224278 
L 124.733339 264.722431 
L 126.038483 264.937508 
L 126.691055 264.865816 
L 127.017341 265.367663 
L 127.669913 265.439356 
L 127.996199 265.224278 
L 128.322485 265.152586 
L 128.648771 265.224278 
L 129.953915 264.865816 
L 130.606487 265.080893 
L 131.585345 265.009201 
L 131.911631 264.937508 
L 132.564203 261.639653 
L 132.890489 261.567961 
L 133.216775 261.352883 
L 133.543061 261.281191 
L 134.195633 261.639653 
L 134.848205 264.722431 
L 135.174491 264.579046 
L 135.500777 264.292276 
L 136.153349 264.363968 
L 136.479635 264.292276 
L 136.805921 264.005506 
L 137.458492 264.435661 
L 137.784778 264.937508 
L 138.763636 264.865816 
L 139.089922 265.367663 
L 139.742494 265.295971 
L 140.395066 265.295971 
L 141.047638 264.650738 
L 142.026496 264.794123 
L 142.352782 264.722431 
L 142.679068 264.507353 
L 143.33164 264.937508 
L 143.657926 264.507353 
L 143.984212 264.292276 
L 144.96307 264.292276 
L 145.289356 264.005506 
L 145.615642 264.005506 
L 145.941928 264.292276 
L 146.268214 263.933813 
L 146.920786 263.718736 
L 147.247072 263.360273 
L 147.573358 263.431966 
L 148.22593 262.715041 
L 148.552216 262.858426 
L 148.878502 262.858426 
L 149.204788 262.356578 
L 149.531074 262.643348 
L 149.85736 261.137806 
L 150.509931 259.488879 
L 150.836217 259.202109 
L 151.162503 259.202109 
L 151.815075 256.979641 
L 153.446505 251.746089 
L 153.772791 251.889474 
L 154.425363 250.168854 
L 154.751649 250.312239 
L 155.404221 251.674397 
L 155.730507 251.746089 
L 156.056793 253.251631 
L 156.383079 253.323324 
L 156.709365 255.617484 
L 157.035651 256.692871 
L 157.361937 256.836256 
L 157.688223 257.266411 
L 158.014509 257.983336 
L 158.340795 257.553181 
L 158.667081 258.270106 
L 158.993367 257.338104 
L 159.319653 258.198414 
L 159.645939 256.549486 
L 159.972225 256.191024 
L 160.298511 253.395016 
L 160.624797 253.610094 
L 160.951083 253.968556 
L 161.277369 254.685481 
L 161.603655 252.749784 
L 161.929941 254.398711 
L 162.256227 253.753479 
L 162.582513 255.545791 
L 162.908799 254.470404 
L 163.235085 252.176244 
L 163.56137 252.176244 
L 163.887656 252.463014 
L 164.213942 251.172549 
L 164.866514 252.964862 
L 165.1928 252.749784 
L 165.519086 254.613789 
L 165.845372 253.753479 
L 166.171658 253.681786 
L 166.497944 254.327019 
L 166.82423 253.108246 
L 167.150516 253.108246 
L 167.476802 252.534707 
L 168.45566 248.376542 
L 168.781946 247.444539 
L 169.108232 244.361762 
L 169.434518 243.071297 
L 169.760804 243.071297 
L 170.08709 242.210987 
L 170.413376 242.85622 
L 170.739662 244.146685 
L 171.065948 246.655922 
L 171.392234 250.455624 
L 172.044806 253.179939 
L 172.371092 252.893169 
L 172.697378 252.964862 
L 173.023664 253.968556 
L 173.676236 253.036554 
L 174.002522 253.753479 
L 174.328808 252.749784 
L 174.98138 256.836256 
L 175.633952 255.330714 
L 175.960238 255.904254 
L 176.286524 255.115636 
L 176.61281 256.406101 
L 177.265381 258.270106 
L 177.917953 260.205804 
L 178.570525 260.922728 
L 179.223097 260.205804 
L 179.549383 259.560571 
L 179.875669 259.990726 
L 180.201955 259.775649 
L 180.528241 259.919034 
L 181.180813 260.564266 
L 181.833385 261.424576 
L 182.159671 260.779344 
L 182.485957 260.635959 
L 182.812243 259.990726 
L 183.138529 259.847341 
L 183.791101 260.134111 
L 184.117387 260.062419 
L 184.443673 260.492574 
L 184.769959 260.062419 
L 185.096245 259.919034 
L 185.748817 259.058724 
L 186.075103 257.911644 
L 186.727675 257.409796 
L 187.053961 258.556876 
L 187.706533 259.560571 
L 188.032819 259.560571 
L 188.359105 261.137806 
L 189.011677 261.209498 
L 189.337963 260.779344 
L 189.664249 260.707651 
L 189.990534 260.205804 
L 190.31682 259.990726 
L 190.643106 259.417186 
L 190.969392 259.703956 
L 191.295678 259.703956 
L 192.274536 260.635959 
L 192.927108 261.998116 
L 193.253394 261.711346 
L 193.57968 262.499963 
L 194.232252 262.715041 
L 194.558538 262.571656 
L 194.884824 261.998116 
L 195.21111 260.779344 
L 195.537396 260.420881 
L 195.863682 259.703956 
L 196.189968 259.273801 
L 196.516254 259.058724 
L 196.84254 259.058724 
L 197.495112 260.062419 
L 198.147684 259.345494 
L 198.47397 259.560571 
L 199.452828 257.839951 
L 199.779114 258.628569 
L 200.1054 259.058724 
L 200.431686 259.273801 
L 201.084258 258.628569 
L 201.410544 259.560571 
L 201.73683 259.632264 
L 202.063116 258.700261 
L 202.389402 258.771954 
L 202.715688 259.345494 
L 203.041974 259.488879 
L 203.368259 260.564266 
L 204.020831 260.062419 
L 204.347117 260.134111 
L 205.652261 255.832561 
L 205.978547 255.474099 
L 206.304833 256.047639 
L 206.631119 255.115636 
L 206.957405 255.689176 
L 207.609977 254.685481 
L 207.936263 254.542096 
L 208.262549 254.757174 
L 208.588835 253.466709 
L 208.915121 253.466709 
L 209.567693 253.825171 
L 209.893979 254.685481 
L 210.220265 254.757174 
L 210.546551 254.327019 
L 211.199123 256.406101 
L 211.525409 256.406101 
L 211.851695 257.624874 
L 212.177981 257.194719 
L 212.504267 257.696566 
L 212.830553 257.911644 
L 213.156839 257.911644 
L 213.483125 256.836256 
L 213.809411 257.266411 
L 214.135697 257.051334 
L 214.461983 257.338104 
L 214.788269 256.979641 
L 215.114555 257.266411 
L 215.440841 257.123026 
L 215.767127 257.768259 
L 216.419698 258.126721 
L 217.07227 260.062419 
L 217.398556 259.417186 
L 218.051128 260.635959 
L 218.377414 260.779344 
L 219.029986 261.639653 
L 219.356272 261.639653 
L 219.682558 262.213193 
L 220.008844 261.783038 
L 220.33513 262.643348 
L 220.661416 262.643348 
L 220.987702 263.073503 
L 221.313988 262.930118 
L 221.640274 263.001811 
L 221.96656 263.288581 
L 222.292846 263.790428 
L 222.619132 263.503658 
L 222.945418 264.292276 
L 223.271704 264.363968 
L 223.59799 264.579046 
L 223.924276 264.435661 
L 224.250562 264.435661 
L 224.903134 264.650738 
L 225.22942 264.579046 
L 225.555706 264.363968 
L 225.881992 264.435661 
L 226.208278 264.722431 
L 226.86085 264.579046 
L 227.187136 264.937508 
L 227.513422 265.009201 
L 227.839708 265.367663 
L 228.818566 265.582741 
L 229.144852 265.797818 
L 229.797423 265.726126 
L 231.102567 265.654433 
L 231.755139 265.439356 
L 232.407711 265.152586 
L 233.386569 265.152586 
L 233.712855 264.937508 
L 234.039141 265.080893 
L 234.365427 265.080893 
L 234.691713 264.937508 
L 235.017999 264.937508 
L 235.344285 264.722431 
L 235.670571 264.650738 
L 235.996857 264.937508 
L 236.323143 264.292276 
L 236.649429 264.220583 
L 236.975715 264.292276 
L 237.302001 264.077198 
L 237.628287 264.292276 
L 237.954573 264.292276 
L 238.280859 264.148891 
L 238.607145 264.579046 
L 238.933431 264.579046 
L 239.259717 264.363968 
L 239.586003 264.435661 
L 239.912289 264.148891 
L 240.238575 264.077198 
L 240.564861 264.148891 
L 241.217433 264.005506 
L 241.543719 264.220583 
L 241.870005 264.220583 
L 242.196291 264.435661 
L 242.848862 264.435661 
L 243.501434 264.077198 
L 243.82772 264.220583 
L 244.480292 264.148891 
L 244.806578 264.005506 
L 246.111722 264.220583 
L 246.764294 263.790428 
L 247.09058 264.077198 
L 247.416866 264.005506 
L 247.743152 263.575351 
L 248.069438 263.575351 
L 249.048296 262.356578 
L 249.374582 262.069808 
L 249.700868 261.998116 
L 250.679726 258.341799 
L 251.006012 257.839951 
L 251.332298 258.055029 
L 251.658584 258.126721 
L 251.98487 257.553181 
L 252.311156 257.911644 
L 252.637442 258.987031 
L 252.963728 258.915339 
L 253.290014 258.987031 
L 253.6163 258.556876 
L 253.942586 258.341799 
L 254.268872 258.700261 
L 254.595158 258.843646 
L 254.921444 258.628569 
L 255.574016 259.560571 
L 255.900302 259.775649 
L 256.879159 260.851036 
L 257.205445 261.496268 
L 258.184303 262.499963 
L 258.510589 262.141501 
L 259.489447 262.499963 
L 259.815733 262.571656 
L 260.468305 262.069808 
L 260.794591 262.284886 
L 261.120877 262.069808 
L 261.447163 262.499963 
L 262.099735 262.858426 
L 262.426021 262.786733 
L 262.752307 263.216888 
L 263.078593 263.288581 
L 263.404879 263.503658 
L 263.731165 262.930118 
L 264.383737 260.922728 
L 264.710023 261.209498 
L 265.688881 259.560571 
L 266.015167 258.556876 
L 266.667739 259.417186 
L 266.994025 259.130416 
L 267.320311 258.198414 
L 267.646597 258.341799 
L 267.972883 256.979641 
L 268.625455 256.406101 
L 268.951741 256.549486 
L 269.278026 256.549486 
L 269.604312 257.194719 
L 269.930598 257.553181 
L 270.256884 258.987031 
L 270.58317 258.843646 
L 271.235742 257.624874 
L 271.562028 257.123026 
L 271.888314 257.553181 
L 272.540886 257.123026 
L 272.867172 258.270106 
L 273.193458 257.553181 
L 273.519744 255.689176 
L 273.84603 254.900559 
L 274.172316 253.538401 
L 274.824888 252.032859 
L 275.151174 250.527317 
L 275.47746 250.312239 
L 275.803746 248.591619 
L 276.130032 248.591619 
L 276.782604 248.376542 
L 277.10889 248.806697 
L 277.435176 248.735004 
L 277.761462 248.089772 
L 278.087748 249.308544 
L 278.414034 247.946387 
L 278.74032 248.376542 
L 279.066606 248.304849 
L 279.392892 245.078687 
L 279.719178 243.42976 
L 280.045464 243.71653 
L 280.698036 237.264205 
L 281.024322 236.83405 
L 281.676894 232.102345 
L 282.329466 223.857708 
L 282.655751 226.438638 
L 282.982037 227.514026 
L 283.308323 226.008483 
L 283.634609 227.514026 
L 284.287181 237.550975 
L 284.613467 240.633752 
L 284.939753 241.637447 
L 285.266039 245.365457 
L 285.592325 247.229462 
L 285.918611 247.946387 
L 286.244897 246.799307 
L 286.897469 251.029164 
L 287.223755 251.172549 
L 287.550041 250.455624 
L 287.876327 250.814087 
L 288.202613 251.459319 
L 288.528899 253.108246 
L 288.855185 251.315934 
L 289.181471 251.029164 
L 289.834043 253.968556 
L 290.486615 254.470404 
L 290.812901 254.470404 
L 291.139187 254.972251 
L 291.465473 256.477794 
L 291.791759 256.477794 
L 292.118045 256.191024 
L 292.770617 254.542096 
L 293.096903 252.391322 
L 293.423189 249.236852 
L 293.749475 244.86361 
L 294.075761 237.837745 
L 294.402047 235.11343 
L 294.728333 236.117125 
L 295.054619 235.185123 
L 295.380905 231.95896 
L 295.70719 230.81188 
L 296.033476 228.374336 
L 296.359762 231.457113 
L 296.686048 231.170343 
L 297.012334 228.302643 
L 297.33862 228.374336 
L 297.664906 227.012178 
L 297.991192 228.732798 
L 298.317478 222.065396 
L 298.97005 188.226538 
L 299.296336 184.211758 
L 299.622622 184.426836 
L 299.948908 171.378802 
L 300.275194 162.99078 
L 300.60148 162.273855 
L 301.254052 158.330768 
L 301.580338 158.330768 
L 301.906624 153.742448 
L 302.23291 161.126775 
L 302.559196 147.505201 
L 302.885482 141.411339 
L 303.538054 143.562113 
L 303.86434 139.045486 
L 304.190626 141.841494 
L 304.516912 132.449777 
L 304.843198 139.977489 
L 305.49577 113.02111 
L 305.822056 117.32266 
L 306.148342 119.258358 
L 306.474628 115.745425 
L 306.800914 115.0285 
L 307.1272 112.73434 
L 307.453486 127.07284 
L 307.779772 130.083924 
L 308.106058 127.933149 
L 308.432344 134.027012 
L 308.75863 137.396559 
L 309.084915 127.431302 
L 309.411201 130.227309 
L 309.737487 136.536249 
L 310.063773 131.876237 
L 310.390059 129.797154 
L 311.042631 115.100193 
L 311.368917 139.619026 
L 312.347775 158.474153 
L 312.674061 137.109789 
L 313.000347 143.992268 
L 313.326633 146.214736 
L 313.652919 121.05067 
L 314.305491 87.641967 
L 314.631777 83.12534 
L 314.958063 92.732134 
L 315.610635 75.812705 
L 315.936921 83.627187 
L 316.263207 85.204422 
L 316.589493 81.763182 
L 316.915779 98.395841 
L 317.242065 96.890299 
L 317.894637 111.372183 
L 318.547209 95.313064 
L 318.873495 91.800132 
L 319.199781 72.658236 
L 319.526067 85.70627 
L 320.178639 82.766877 
L 320.504925 95.169679 
L 320.831211 89.792742 
L 321.157497 73.590238 
L 321.483783 72.945005 
L 321.810069 63.051441 
L 322.136354 73.733623 
L 322.46264 69.718843 
L 322.788926 63.553289 
L 323.115212 52.154182 
L 323.441498 81.261335 
L 324.09407 105.780168 
L 324.420356 105.780168 
L 324.746642 104.848166 
L 325.072928 108.217713 
L 325.399214 133.238394 
L 325.7255 135.962709 
L 326.051786 142.701804 
L 326.378072 158.545845 
L 326.704358 158.545845 
L 327.030644 159.047692 
L 327.35693 184.570221 
L 327.683216 169.729874 
L 328.009502 168.797872 
L 328.662074 143.203651 
L 328.98836 143.203651 
L 329.314646 145.641196 
L 329.640932 127.216225 
L 329.967218 146.716583 
L 330.293504 155.176298 
L 330.946076 183.996681 
L 331.272362 183.996681 
L 331.598648 187.366228 
L 332.25122 207.870282 
L 332.577506 211.526599 
L 332.903792 212.673679 
L 333.230078 214.609376 
L 333.556364 214.537684 
L 333.88265 221.635241 
L 334.208936 217.978924 
L 334.535222 220.201391 
L 334.861508 220.344776 
L 335.514079 223.929401 
L 336.166651 224.001093 
L 336.492937 229.521415 
L 336.819223 230.453418 
L 337.471795 237.335897 
L 337.798081 237.479282 
L 338.450653 237.479282 
L 338.776939 239.056517 
L 339.103225 242.28268 
L 339.429511 243.71653 
L 339.755797 247.444539 
L 340.082083 249.595314 
L 340.734655 249.595314 
L 341.060941 250.240547 
L 341.713513 247.659617 
L 342.039799 243.071297 
L 342.366085 243.788222 
L 343.018657 243.788222 
L 343.671229 245.365457 
L 343.997515 243.644837 
L 344.323801 233.822965 
L 344.650087 235.328508 
L 345.302659 235.328508 
L 345.628945 222.137088 
L 345.955231 218.122309 
L 346.281517 205.934585 
L 346.607803 220.344776 
L 346.934089 209.590902 
L 347.586661 209.590902 
L 347.912947 207.655204 
L 348.239233 200.485955 
L 348.565519 208.013667 
L 348.891804 188.298231 
L 349.21809 186.362533 
L 349.870662 186.362533 
L 350.196948 186.147456 
L 350.523234 191.381008 
L 350.84952 189.158541 
L 351.175806 194.463785 
L 351.502092 194.60717 
L 352.154664 194.60717 
L 352.48095 194.177015 
L 352.807236 190.018851 
L 353.133522 189.230233 
L 353.786094 193.029935 
L 354.438666 193.029935 
L 354.764952 197.116408 
L 355.091238 189.875466 
L 355.417524 179.193284 
L 355.74381 179.551746 
L 356.070096 178.619744 
L 356.722668 178.619744 
L 357.048954 174.676656 
L 357.701526 193.101628 
L 358.027812 192.671473 
L 358.354098 198.406872 
L 359.00667 198.406872 
L 359.332956 195.682558 
L 359.659242 197.76164 
L 359.985528 200.987802 
L 360.311814 202.565037 
L 360.6381 206.006277 
L 361.290672 206.006277 
L 361.616958 212.745372 
L 361.943243 212.100139 
L 362.595815 222.854013 
L 362.922101 224.861403 
L 363.574673 224.861403 
L 364.227245 235.830355 
L 364.553531 226.223561 
L 364.879817 223.929401 
L 365.206103 219.699544 
L 365.858675 219.699544 
L 366.184961 221.993703 
L 366.511247 221.778626 
L 366.837533 231.38542 
L 367.163819 235.256815 
L 367.490105 236.83405 
L 368.142677 236.83405 
L 368.468963 236.618973 
L 368.795249 235.758663 
L 369.121535 237.909437 
L 369.447821 237.335897 
L 369.774107 239.12821 
L 370.426679 239.12821 
L 370.752965 239.271595 
L 371.079251 240.920522 
L 371.405537 239.199902 
L 371.731823 240.920522 
L 372.058109 239.70175 
L 372.710681 239.70175 
L 373.036967 243.214682 
L 373.363253 241.42237 
L 373.689539 244.648532 
L 374.015825 244.218377 
L 374.342111 244.791917 
L 374.994683 244.791917 
L 375.320968 241.924217 
L 375.647254 242.56945 
L 376.299826 236.618973 
L 376.626112 236.762358 
L 377.278684 236.762358 
L 377.60497 234.468198 
L 377.931256 229.091261 
L 378.257542 229.378031 
L 378.583828 227.298948 
L 378.910114 222.854013 
L 379.562686 222.854013 
L 379.888972 217.692154 
L 380.215258 215.182916 
L 380.86783 201.20288 
L 381.194116 197.259793 
L 381.846688 197.259793 
L 382.172974 211.741677 
L 383.478118 174.891734 
L 384.13069 174.891734 
L 384.456976 156.323378 
L 384.783262 155.032913 
L 385.109548 160.911697 
L 385.76212 175.178504 
L 386.414692 175.178504 
L 386.740978 170.661877 
L 387.067264 178.619744 
L 387.719836 186.577611 
L 388.046122 192.671473 
L 388.698693 192.671473 
L 389.024979 202.708422 
L 389.677551 212.601987 
L 390.003837 213.820759 
L 390.330123 221.276779 
L 390.982695 221.276779 
L 391.308981 226.008483 
L 391.635267 237.192513 
L 391.961553 236.332203 
L 392.287839 238.913132 
L 392.614125 239.343287 
L 393.266697 239.343287 
L 393.592983 243.42976 
L 393.919269 240.418675 
L 394.571841 248.376542 
L 394.898127 247.731309 
L 395.550699 247.731309 
L 396.203271 242.784527 
L 396.529557 245.150379 
L 396.855843 244.433455 
L 397.182129 246.655922 
L 397.834701 246.655922 
L 398.487273 252.606399 
L 398.487273 252.606399 
" clip-path="url(#p70e1b8de5a)" style="fill: none; stroke: #1f77b4; stroke-width: 1.5; stroke-linecap: square"/>
   </g>
   <g id="patch_3">
    <path d="M 57.6 276.48 
L 57.6 41.472 
" style="fill: none; stroke: #000000; stroke-width: 0.8; stroke-linejoin: miter; stroke-linecap: square"/>
   </g>
   <g id="patch_4">
    <path d="M 414.72 276.48 
L 414.72 41.472 
" style="fill: none; stroke: #000000; stroke-width: 0.8; stroke-linejoin: miter; stroke-linecap: square"/>
   </g>
   <g id="patch_5">
    <path d="M 57.6 276.48 
L 414.72 276.48 
" style="fill: none; stroke: #000000; stroke-width: 0.8; stroke-linejoin: miter; stroke-linecap: square"/>
   </g>
   <g id="patch_6">
    <path d="M 57.6 41.472 
L 414.72 41.472 
" style="fill: none; stroke: #000000; stroke-width: 0.8; stroke-linejoin: miter; stroke-linecap: square"/>
   </g>
  </g>
  <g id="text_21">
   <!-- Inzidenzverlauf LK Trier-Saarburg -->
   <g transform="translate(81.651094 20.589187) scale(0.18 -0.18)">
    <defs>
     <path id="DejaVuSans-76" d="M 191 3500 
L 800 3500 
L 1894 563 
L 2988 3500 
L 3597 3500 
L 2284 0 
L 1503 0 
L 191 3500 
z
" transform="scale(0.015625)"/>
     <path id="DejaVuSans-6c" d="M 603 4863 
L 1178 4863 
L 1178 0 
L 603 0 
L 603 4863 
z
" transform="scale(0.015625)"/>
     <path id="DejaVuSans-75" d="M 544 1381 
L 544 3500 
L 1119 3500 
L 1119 1403 
Q 1119 906 1312 657 
Q 1506 409 1894 409 
Q 2359 409 2629 706 
Q 2900 1003 2900 1516 
L 2900 3500 
L 3475 3500 
L 3475 0 
L 2900 0 
L 2900 538 
Q 2691 219 2414 64 
Q 2138 -91 1772 -91 
Q 1169 -91 856 284 
Q 544 659 544 1381 
z
M 1991 3584 
L 1991 3584 
z
" transform="scale(0.015625)"/>
     <path id="DejaVuSans-66" d="M 2375 4863 
L 2375 4384 
L 1825 4384 
Q 1516 4384 1395 4259 
Q 1275 4134 1275 3809 
L 1275 3500 
L 2222 3500 
L 2222 3053 
L 1275 3053 
L 1275 0 
L 697 0 
L 697 3053 
L 147 3053 
L 147 3500 
L 697 3500 
L 697 3744 
Q 697 4328 969 4595 
Q 1241 4863 1831 4863 
L 2375 4863 
z
" transform="scale(0.015625)"/>
     <path id="DejaVuSans-4c" d="M 628 4666 
L 1259 4666 
L 1259 531 
L 3531 531 
L 3531 0 
L 628 0 
L 628 4666 
z
" transform="scale(0.015625)"/>
     <path id="DejaVuSans-4b" d="M 628 4666 
L 1259 4666 
L 1259 2694 
L 3353 4666 
L 4166 4666 
L 1850 2491 
L 4331 0 
L 3500 0 
L 1259 2247 
L 1259 0 
L 628 0 
L 628 4666 
z
" transform="scale(0.015625)"/>
     <path id="DejaVuSans-2d" d="M 313 2009 
L 1997 2009 
L 1997 1497 
L 313 1497 
L 313 2009 
z
" transform="scale(0.015625)"/>
     <path id="DejaVuSans-53" d="M 3425 4513 
L 3425 3897 
Q 3066 4069 2747 4153 
Q 2428 4238 2131 4238 
Q 1616 4238 1336 4038 
Q 1056 3838 1056 3469 
Q 1056 3159 1242 3001 
Q 1428 2844 1947 2747 
L 2328 2669 
Q 3034 2534 3370 2195 
Q 3706 1856 3706 1288 
Q 3706 609 3251 259 
Q 2797 -91 1919 -91 
Q 1588 -91 1214 -16 
Q 841 59 441 206 
L 441 856 
Q 825 641 1194 531 
Q 1563 422 1919 422 
Q 2459 422 2753 634 
Q 3047 847 3047 1241 
Q 3047 1584 2836 1778 
Q 2625 1972 2144 2069 
L 1759 2144 
Q 1053 2284 737 2584 
Q 422 2884 422 3419 
Q 422 4038 858 4394 
Q 1294 4750 2059 4750 
Q 2388 4750 2728 4690 
Q 3069 4631 3425 4513 
z
" transform="scale(0.015625)"/>
     <path id="DejaVuSans-62" d="M 3116 1747 
Q 3116 2381 2855 2742 
Q 2594 3103 2138 3103 
Q 1681 3103 1420 2742 
Q 1159 2381 1159 1747 
Q 1159 1113 1420 752 
Q 1681 391 2138 391 
Q 2594 391 2855 752 
Q 3116 1113 3116 1747 
z
M 1159 2969 
Q 1341 3281 1617 3432 
Q 1894 3584 2278 3584 
Q 2916 3584 3314 3078 
Q 3713 2572 3713 1747 
Q 3713 922 3314 415 
Q 2916 -91 2278 -91 
Q 1894 -91 1617 61 
Q 1341 213 1159 525 
L 1159 0 
L 581 0 
L 581 4863 
L 1159 4863 
L 1159 2969 
z
" transform="scale(0.015625)"/>
    </defs>
    <use xlink:href="#DejaVuSans-49"/>
    <use xlink:href="#DejaVuSans-6e" x="29.492188"/>
    <use xlink:href="#DejaVuSans-7a" x="92.871094"/>
    <use xlink:href="#DejaVuSans-69" x="145.361328"/>
    <use xlink:href="#DejaVuSans-64" x="173.144531"/>
    <use xlink:href="#DejaVuSans-65" x="236.621094"/>
    <use xlink:href="#DejaVuSans-6e" x="298.144531"/>
    <use xlink:href="#DejaVuSans-7a" x="361.523438"/>
    <use xlink:href="#DejaVuSans-76" x="414.013672"/>
    <use xlink:href="#DejaVuSans-65" x="473.193359"/>
    <use xlink:href="#DejaVuSans-72" x="534.716797"/>
    <use xlink:href="#DejaVuSans-6c" x="575.830078"/>
    <use xlink:href="#DejaVuSans-61" x="603.613281"/>
    <use xlink:href="#DejaVuSans-75" x="664.892578"/>
    <use xlink:href="#DejaVuSans-66" x="728.271484"/>
    <use xlink:href="#DejaVuSans-20" x="763.476562"/>
    <use xlink:href="#DejaVuSans-4c" x="795.263672"/>
    <use xlink:href="#DejaVuSans-4b" x="850.976562"/>
    <use xlink:href="#DejaVuSans-20" x="916.552734"/>
    <use xlink:href="#DejaVuSans-54" x="948.339844"/>
    <use xlink:href="#DejaVuSans-72" x="994.673828"/>
    <use xlink:href="#DejaVuSans-69" x="1035.787109"/>
    <use xlink:href="#DejaVuSans-65" x="1063.570312"/>
    <use xlink:href="#DejaVuSans-72" x="1125.09375"/>
    <use xlink:href="#DejaVuSans-2d" x="1159.832031"/>
    <use xlink:href="#DejaVuSans-53" x="1195.916016"/>
    <use xlink:href="#DejaVuSans-61" x="1259.392578"/>
    <use xlink:href="#DejaVuSans-61" x="1320.671875"/>
    <use xlink:href="#DejaVuSans-72" x="1381.951172"/>
    <use xlink:href="#DejaVuSans-62" x="1423.064453"/>
    <use xlink:href="#DejaVuSans-75" x="1486.541016"/>
    <use xlink:href="#DejaVuSans-72" x="1549.919922"/>
    <use xlink:href="#DejaVuSans-67" x="1589.283203"/>
   </g>
  </g>
 </g>
 <defs>
  <clipPath id="p70e1b8de5a">
   <rect x="57.6" y="41.472" width="357.12" height="235.008"/>
  </clipPath>
 </defs>
</svg>
