<?xml version="1.0" encoding="utf-8" standalone="no"?>
<!DOCTYPE svg PUBLIC "-//W3C//DTD SVG 1.1//EN"
  "http://www.w3.org/Graphics/SVG/1.1/DTD/svg11.dtd">
<svg xmlns:xlink="http://www.w3.org/1999/xlink" width="460.8pt" height="345.6pt" viewBox="0 0 460.8 345.6" xmlns="http://www.w3.org/2000/svg" version="1.1">
 <metadata>
  <rdf:RDF xmlns:dc="http://purl.org/dc/elements/1.1/" xmlns:cc="http://creativecommons.org/ns#" xmlns:rdf="http://www.w3.org/1999/02/22-rdf-syntax-ns#">
   <cc:Work>
    <dc:type rdf:resource="http://purl.org/dc/dcmitype/StillImage"/>
    <dc:date>2023-01-13T09:21:09.662532</dc:date>
    <dc:format>image/svg+xml</dc:format>
    <dc:creator>
     <cc:Agent>
      <dc:title>Matplotlib v3.6.3, https://matplotlib.org/</dc:title>
     </cc:Agent>
    </dc:creator>
   </cc:Work>
  </rdf:RDF>
 </metadata>
 <defs>
  <style type="text/css">*{stroke-linejoin: round; stroke-linecap: butt}</style>
 </defs>
 <g id="figure_1">
  <g id="patch_1">
   <path d="M 0 345.6 
L 460.8 345.6 
L 460.8 0 
L 0 0 
z
" style="fill: #ffffff"/>
  </g>
  <g id="axes_1">
   <g id="patch_2">
    <path d="M 57.6 276.48 
L 414.72 276.48 
L 414.72 41.472 
L 57.6 41.472 
z
" style="fill: #ffffff"/>
   </g>
   <g id="matplotlib.axis_1">
    <g id="xtick_1">
     <g id="line2d_1">
      <path d="M 60.577035 276.48 
L 60.577035 41.472 
" clip-path="url(#pe37283e133)" style="fill: none; stroke-dasharray: 2.96,1.28; stroke-dashoffset: 0; stroke: #808080; stroke-width: 0.8"/>
     </g>
     <g id="line2d_2">
      <defs>
       <path id="mbd740d9745" d="M 0 0 
L 0 3.5 
" style="stroke: #000000; stroke-width: 0.8"/>
      </defs>
      <g>
       <use xlink:href="#mbd740d9745" x="60.577035" y="276.48" style="stroke: #000000; stroke-width: 0.8"/>
      </g>
     </g>
     <g id="text_1">
      <!-- 20.01.2020 -->
      <g transform="translate(9.951824 318.688565) rotate(-30) scale(0.1 -0.1)">
       <defs>
        <path id="DejaVuSans-32" d="M 1228 531 
L 3431 531 
L 3431 0 
L 469 0 
L 469 531 
Q 828 903 1448 1529 
Q 2069 2156 2228 2338 
Q 2531 2678 2651 2914 
Q 2772 3150 2772 3378 
Q 2772 3750 2511 3984 
Q 2250 4219 1831 4219 
Q 1534 4219 1204 4116 
Q 875 4013 500 3803 
L 500 4441 
Q 881 4594 1212 4672 
Q 1544 4750 1819 4750 
Q 2544 4750 2975 4387 
Q 3406 4025 3406 3419 
Q 3406 3131 3298 2873 
Q 3191 2616 2906 2266 
Q 2828 2175 2409 1742 
Q 1991 1309 1228 531 
z
" transform="scale(0.015625)"/>
        <path id="DejaVuSans-30" d="M 2034 4250 
Q 1547 4250 1301 3770 
Q 1056 3291 1056 2328 
Q 1056 1369 1301 889 
Q 1547 409 2034 409 
Q 2525 409 2770 889 
Q 3016 1369 3016 2328 
Q 3016 3291 2770 3770 
Q 2525 4250 2034 4250 
z
M 2034 4750 
Q 2819 4750 3233 4129 
Q 3647 3509 3647 2328 
Q 3647 1150 3233 529 
Q 2819 -91 2034 -91 
Q 1250 -91 836 529 
Q 422 1150 422 2328 
Q 422 3509 836 4129 
Q 1250 4750 2034 4750 
z
" transform="scale(0.015625)"/>
        <path id="DejaVuSans-2e" d="M 684 794 
L 1344 794 
L 1344 0 
L 684 0 
L 684 794 
z
" transform="scale(0.015625)"/>
        <path id="DejaVuSans-31" d="M 794 531 
L 1825 531 
L 1825 4091 
L 703 3866 
L 703 4441 
L 1819 4666 
L 2450 4666 
L 2450 531 
L 3481 531 
L 3481 0 
L 794 0 
L 794 531 
z
" transform="scale(0.015625)"/>
       </defs>
       <use xlink:href="#DejaVuSans-32"/>
       <use xlink:href="#DejaVuSans-30" x="63.623047"/>
       <use xlink:href="#DejaVuSans-2e" x="127.246094"/>
       <use xlink:href="#DejaVuSans-30" x="159.033203"/>
       <use xlink:href="#DejaVuSans-31" x="222.65625"/>
       <use xlink:href="#DejaVuSans-2e" x="286.279297"/>
       <use xlink:href="#DejaVuSans-32" x="318.066406"/>
       <use xlink:href="#DejaVuSans-30" x="381.689453"/>
       <use xlink:href="#DejaVuSans-32" x="445.3125"/>
       <use xlink:href="#DejaVuSans-30" x="508.935547"/>
      </g>
     </g>
    </g>
    <g id="xtick_2">
     <g id="line2d_3">
      <path d="M 96.580789 276.48 
L 96.580789 41.472 
" clip-path="url(#pe37283e133)" style="fill: none; stroke-dasharray: 2.96,1.28; stroke-dashoffset: 0; stroke: #808080; stroke-width: 0.8"/>
     </g>
     <g id="line2d_4">
      <g>
       <use xlink:href="#mbd740d9745" x="96.580789" y="276.48" style="stroke: #000000; stroke-width: 0.8"/>
      </g>
     </g>
     <g id="text_2">
      <!-- 15.05.2020 -->
      <g transform="translate(45.955578 318.688565) rotate(-30) scale(0.1 -0.1)">
       <defs>
        <path id="DejaVuSans-35" d="M 691 4666 
L 3169 4666 
L 3169 4134 
L 1269 4134 
L 1269 2991 
Q 1406 3038 1543 3061 
Q 1681 3084 1819 3084 
Q 2600 3084 3056 2656 
Q 3513 2228 3513 1497 
Q 3513 744 3044 326 
Q 2575 -91 1722 -91 
Q 1428 -91 1123 -41 
Q 819 9 494 109 
L 494 744 
Q 775 591 1075 516 
Q 1375 441 1709 441 
Q 2250 441 2565 725 
Q 2881 1009 2881 1497 
Q 2881 1984 2565 2268 
Q 2250 2553 1709 2553 
Q 1456 2553 1204 2497 
Q 953 2441 691 2322 
L 691 4666 
z
" transform="scale(0.015625)"/>
       </defs>
       <use xlink:href="#DejaVuSans-31"/>
       <use xlink:href="#DejaVuSans-35" x="63.623047"/>
       <use xlink:href="#DejaVuSans-2e" x="127.246094"/>
       <use xlink:href="#DejaVuSans-30" x="159.033203"/>
       <use xlink:href="#DejaVuSans-35" x="222.65625"/>
       <use xlink:href="#DejaVuSans-2e" x="286.279297"/>
       <use xlink:href="#DejaVuSans-32" x="318.066406"/>
       <use xlink:href="#DejaVuSans-30" x="381.689453"/>
       <use xlink:href="#DejaVuSans-32" x="445.3125"/>
       <use xlink:href="#DejaVuSans-30" x="508.935547"/>
      </g>
     </g>
    </g>
    <g id="xtick_3">
     <g id="line2d_5">
      <path d="M 132.584544 276.48 
L 132.584544 41.472 
" clip-path="url(#pe37283e133)" style="fill: none; stroke-dasharray: 2.96,1.28; stroke-dashoffset: 0; stroke: #808080; stroke-width: 0.8"/>
     </g>
     <g id="line2d_6">
      <g>
       <use xlink:href="#mbd740d9745" x="132.584544" y="276.48" style="stroke: #000000; stroke-width: 0.8"/>
      </g>
     </g>
     <g id="text_3">
      <!-- 08.09.2020 -->
      <g transform="translate(81.959333 318.688565) rotate(-30) scale(0.1 -0.1)">
       <defs>
        <path id="DejaVuSans-38" d="M 2034 2216 
Q 1584 2216 1326 1975 
Q 1069 1734 1069 1313 
Q 1069 891 1326 650 
Q 1584 409 2034 409 
Q 2484 409 2743 651 
Q 3003 894 3003 1313 
Q 3003 1734 2745 1975 
Q 2488 2216 2034 2216 
z
M 1403 2484 
Q 997 2584 770 2862 
Q 544 3141 544 3541 
Q 544 4100 942 4425 
Q 1341 4750 2034 4750 
Q 2731 4750 3128 4425 
Q 3525 4100 3525 3541 
Q 3525 3141 3298 2862 
Q 3072 2584 2669 2484 
Q 3125 2378 3379 2068 
Q 3634 1759 3634 1313 
Q 3634 634 3220 271 
Q 2806 -91 2034 -91 
Q 1263 -91 848 271 
Q 434 634 434 1313 
Q 434 1759 690 2068 
Q 947 2378 1403 2484 
z
M 1172 3481 
Q 1172 3119 1398 2916 
Q 1625 2713 2034 2713 
Q 2441 2713 2670 2916 
Q 2900 3119 2900 3481 
Q 2900 3844 2670 4047 
Q 2441 4250 2034 4250 
Q 1625 4250 1398 4047 
Q 1172 3844 1172 3481 
z
" transform="scale(0.015625)"/>
        <path id="DejaVuSans-39" d="M 703 97 
L 703 672 
Q 941 559 1184 500 
Q 1428 441 1663 441 
Q 2288 441 2617 861 
Q 2947 1281 2994 2138 
Q 2813 1869 2534 1725 
Q 2256 1581 1919 1581 
Q 1219 1581 811 2004 
Q 403 2428 403 3163 
Q 403 3881 828 4315 
Q 1253 4750 1959 4750 
Q 2769 4750 3195 4129 
Q 3622 3509 3622 2328 
Q 3622 1225 3098 567 
Q 2575 -91 1691 -91 
Q 1453 -91 1209 -44 
Q 966 3 703 97 
z
M 1959 2075 
Q 2384 2075 2632 2365 
Q 2881 2656 2881 3163 
Q 2881 3666 2632 3958 
Q 2384 4250 1959 4250 
Q 1534 4250 1286 3958 
Q 1038 3666 1038 3163 
Q 1038 2656 1286 2365 
Q 1534 2075 1959 2075 
z
" transform="scale(0.015625)"/>
       </defs>
       <use xlink:href="#DejaVuSans-30"/>
       <use xlink:href="#DejaVuSans-38" x="63.623047"/>
       <use xlink:href="#DejaVuSans-2e" x="127.246094"/>
       <use xlink:href="#DejaVuSans-30" x="159.033203"/>
       <use xlink:href="#DejaVuSans-39" x="222.65625"/>
       <use xlink:href="#DejaVuSans-2e" x="286.279297"/>
       <use xlink:href="#DejaVuSans-32" x="318.066406"/>
       <use xlink:href="#DejaVuSans-30" x="381.689453"/>
       <use xlink:href="#DejaVuSans-32" x="445.3125"/>
       <use xlink:href="#DejaVuSans-30" x="508.935547"/>
      </g>
     </g>
    </g>
    <g id="xtick_4">
     <g id="line2d_7">
      <path d="M 168.588298 276.48 
L 168.588298 41.472 
" clip-path="url(#pe37283e133)" style="fill: none; stroke-dasharray: 2.96,1.28; stroke-dashoffset: 0; stroke: #808080; stroke-width: 0.8"/>
     </g>
     <g id="line2d_8">
      <g>
       <use xlink:href="#mbd740d9745" x="168.588298" y="276.48" style="stroke: #000000; stroke-width: 0.8"/>
      </g>
     </g>
     <g id="text_4">
      <!-- 02.01.2021 -->
      <g transform="translate(117.963088 318.688565) rotate(-30) scale(0.1 -0.1)">
       <use xlink:href="#DejaVuSans-30"/>
       <use xlink:href="#DejaVuSans-32" x="63.623047"/>
       <use xlink:href="#DejaVuSans-2e" x="127.246094"/>
       <use xlink:href="#DejaVuSans-30" x="159.033203"/>
       <use xlink:href="#DejaVuSans-31" x="222.65625"/>
       <use xlink:href="#DejaVuSans-2e" x="286.279297"/>
       <use xlink:href="#DejaVuSans-32" x="318.066406"/>
       <use xlink:href="#DejaVuSans-30" x="381.689453"/>
       <use xlink:href="#DejaVuSans-32" x="445.3125"/>
       <use xlink:href="#DejaVuSans-31" x="508.935547"/>
      </g>
     </g>
    </g>
    <g id="xtick_5">
     <g id="line2d_9">
      <path d="M 204.592053 276.48 
L 204.592053 41.472 
" clip-path="url(#pe37283e133)" style="fill: none; stroke-dasharray: 2.96,1.28; stroke-dashoffset: 0; stroke: #808080; stroke-width: 0.8"/>
     </g>
     <g id="line2d_10">
      <g>
       <use xlink:href="#mbd740d9745" x="204.592053" y="276.48" style="stroke: #000000; stroke-width: 0.8"/>
      </g>
     </g>
     <g id="text_5">
      <!-- 28.04.2021 -->
      <g transform="translate(153.966842 318.688565) rotate(-30) scale(0.1 -0.1)">
       <defs>
        <path id="DejaVuSans-34" d="M 2419 4116 
L 825 1625 
L 2419 1625 
L 2419 4116 
z
M 2253 4666 
L 3047 4666 
L 3047 1625 
L 3713 1625 
L 3713 1100 
L 3047 1100 
L 3047 0 
L 2419 0 
L 2419 1100 
L 313 1100 
L 313 1709 
L 2253 4666 
z
" transform="scale(0.015625)"/>
       </defs>
       <use xlink:href="#DejaVuSans-32"/>
       <use xlink:href="#DejaVuSans-38" x="63.623047"/>
       <use xlink:href="#DejaVuSans-2e" x="127.246094"/>
       <use xlink:href="#DejaVuSans-30" x="159.033203"/>
       <use xlink:href="#DejaVuSans-34" x="222.65625"/>
       <use xlink:href="#DejaVuSans-2e" x="286.279297"/>
       <use xlink:href="#DejaVuSans-32" x="318.066406"/>
       <use xlink:href="#DejaVuSans-30" x="381.689453"/>
       <use xlink:href="#DejaVuSans-32" x="445.3125"/>
       <use xlink:href="#DejaVuSans-31" x="508.935547"/>
      </g>
     </g>
    </g>
    <g id="xtick_6">
     <g id="line2d_11">
      <path d="M 240.595807 276.48 
L 240.595807 41.472 
" clip-path="url(#pe37283e133)" style="fill: none; stroke-dasharray: 2.96,1.28; stroke-dashoffset: 0; stroke: #808080; stroke-width: 0.8"/>
     </g>
     <g id="line2d_12">
      <g>
       <use xlink:href="#mbd740d9745" x="240.595807" y="276.48" style="stroke: #000000; stroke-width: 0.8"/>
      </g>
     </g>
     <g id="text_6">
      <!-- 22.08.2021 -->
      <g transform="translate(189.970597 318.688565) rotate(-30) scale(0.1 -0.1)">
       <use xlink:href="#DejaVuSans-32"/>
       <use xlink:href="#DejaVuSans-32" x="63.623047"/>
       <use xlink:href="#DejaVuSans-2e" x="127.246094"/>
       <use xlink:href="#DejaVuSans-30" x="159.033203"/>
       <use xlink:href="#DejaVuSans-38" x="222.65625"/>
       <use xlink:href="#DejaVuSans-2e" x="286.279297"/>
       <use xlink:href="#DejaVuSans-32" x="318.066406"/>
       <use xlink:href="#DejaVuSans-30" x="381.689453"/>
       <use xlink:href="#DejaVuSans-32" x="445.3125"/>
       <use xlink:href="#DejaVuSans-31" x="508.935547"/>
      </g>
     </g>
    </g>
    <g id="xtick_7">
     <g id="line2d_13">
      <path d="M 276.599562 276.48 
L 276.599562 41.472 
" clip-path="url(#pe37283e133)" style="fill: none; stroke-dasharray: 2.96,1.28; stroke-dashoffset: 0; stroke: #808080; stroke-width: 0.8"/>
     </g>
     <g id="line2d_14">
      <g>
       <use xlink:href="#mbd740d9745" x="276.599562" y="276.48" style="stroke: #000000; stroke-width: 0.8"/>
      </g>
     </g>
     <g id="text_7">
      <!-- 16.12.2021 -->
      <g transform="translate(225.974351 318.688565) rotate(-30) scale(0.1 -0.1)">
       <defs>
        <path id="DejaVuSans-36" d="M 2113 2584 
Q 1688 2584 1439 2293 
Q 1191 2003 1191 1497 
Q 1191 994 1439 701 
Q 1688 409 2113 409 
Q 2538 409 2786 701 
Q 3034 994 3034 1497 
Q 3034 2003 2786 2293 
Q 2538 2584 2113 2584 
z
M 3366 4563 
L 3366 3988 
Q 3128 4100 2886 4159 
Q 2644 4219 2406 4219 
Q 1781 4219 1451 3797 
Q 1122 3375 1075 2522 
Q 1259 2794 1537 2939 
Q 1816 3084 2150 3084 
Q 2853 3084 3261 2657 
Q 3669 2231 3669 1497 
Q 3669 778 3244 343 
Q 2819 -91 2113 -91 
Q 1303 -91 875 529 
Q 447 1150 447 2328 
Q 447 3434 972 4092 
Q 1497 4750 2381 4750 
Q 2619 4750 2861 4703 
Q 3103 4656 3366 4563 
z
" transform="scale(0.015625)"/>
       </defs>
       <use xlink:href="#DejaVuSans-31"/>
       <use xlink:href="#DejaVuSans-36" x="63.623047"/>
       <use xlink:href="#DejaVuSans-2e" x="127.246094"/>
       <use xlink:href="#DejaVuSans-31" x="159.033203"/>
       <use xlink:href="#DejaVuSans-32" x="222.65625"/>
       <use xlink:href="#DejaVuSans-2e" x="286.279297"/>
       <use xlink:href="#DejaVuSans-32" x="318.066406"/>
       <use xlink:href="#DejaVuSans-30" x="381.689453"/>
       <use xlink:href="#DejaVuSans-32" x="445.3125"/>
       <use xlink:href="#DejaVuSans-31" x="508.935547"/>
      </g>
     </g>
    </g>
    <g id="xtick_8">
     <g id="line2d_15">
      <path d="M 312.603317 276.48 
L 312.603317 41.472 
" clip-path="url(#pe37283e133)" style="fill: none; stroke-dasharray: 2.96,1.28; stroke-dashoffset: 0; stroke: #808080; stroke-width: 0.8"/>
     </g>
     <g id="line2d_16">
      <g>
       <use xlink:href="#mbd740d9745" x="312.603317" y="276.48" style="stroke: #000000; stroke-width: 0.8"/>
      </g>
     </g>
     <g id="text_8">
      <!-- 11.04.2022 -->
      <g transform="translate(261.978106 318.688565) rotate(-30) scale(0.1 -0.1)">
       <use xlink:href="#DejaVuSans-31"/>
       <use xlink:href="#DejaVuSans-31" x="63.623047"/>
       <use xlink:href="#DejaVuSans-2e" x="127.246094"/>
       <use xlink:href="#DejaVuSans-30" x="159.033203"/>
       <use xlink:href="#DejaVuSans-34" x="222.65625"/>
       <use xlink:href="#DejaVuSans-2e" x="286.279297"/>
       <use xlink:href="#DejaVuSans-32" x="318.066406"/>
       <use xlink:href="#DejaVuSans-30" x="381.689453"/>
       <use xlink:href="#DejaVuSans-32" x="445.3125"/>
       <use xlink:href="#DejaVuSans-32" x="508.935547"/>
      </g>
     </g>
    </g>
    <g id="xtick_9">
     <g id="line2d_17">
      <path d="M 348.607071 276.48 
L 348.607071 41.472 
" clip-path="url(#pe37283e133)" style="fill: none; stroke-dasharray: 2.96,1.28; stroke-dashoffset: 0; stroke: #808080; stroke-width: 0.8"/>
     </g>
     <g id="line2d_18">
      <g>
       <use xlink:href="#mbd740d9745" x="348.607071" y="276.48" style="stroke: #000000; stroke-width: 0.8"/>
      </g>
     </g>
     <g id="text_9">
      <!-- 05.08.2022 -->
      <g transform="translate(297.98186 318.688565) rotate(-30) scale(0.1 -0.1)">
       <use xlink:href="#DejaVuSans-30"/>
       <use xlink:href="#DejaVuSans-35" x="63.623047"/>
       <use xlink:href="#DejaVuSans-2e" x="127.246094"/>
       <use xlink:href="#DejaVuSans-30" x="159.033203"/>
       <use xlink:href="#DejaVuSans-38" x="222.65625"/>
       <use xlink:href="#DejaVuSans-2e" x="286.279297"/>
       <use xlink:href="#DejaVuSans-32" x="318.066406"/>
       <use xlink:href="#DejaVuSans-30" x="381.689453"/>
       <use xlink:href="#DejaVuSans-32" x="445.3125"/>
       <use xlink:href="#DejaVuSans-32" x="508.935547"/>
      </g>
     </g>
    </g>
    <g id="xtick_10">
     <g id="line2d_19">
      <path d="M 384.610826 276.48 
L 384.610826 41.472 
" clip-path="url(#pe37283e133)" style="fill: none; stroke-dasharray: 2.96,1.28; stroke-dashoffset: 0; stroke: #808080; stroke-width: 0.8"/>
     </g>
     <g id="line2d_20">
      <g>
       <use xlink:href="#mbd740d9745" x="384.610826" y="276.48" style="stroke: #000000; stroke-width: 0.8"/>
      </g>
     </g>
     <g id="text_10">
      <!-- 29.11.2022 -->
      <g transform="translate(333.985615 318.688565) rotate(-30) scale(0.1 -0.1)">
       <use xlink:href="#DejaVuSans-32"/>
       <use xlink:href="#DejaVuSans-39" x="63.623047"/>
       <use xlink:href="#DejaVuSans-2e" x="127.246094"/>
       <use xlink:href="#DejaVuSans-31" x="159.033203"/>
       <use xlink:href="#DejaVuSans-31" x="222.65625"/>
       <use xlink:href="#DejaVuSans-2e" x="286.279297"/>
       <use xlink:href="#DejaVuSans-32" x="318.066406"/>
       <use xlink:href="#DejaVuSans-30" x="381.689453"/>
       <use xlink:href="#DejaVuSans-32" x="445.3125"/>
       <use xlink:href="#DejaVuSans-32" x="508.935547"/>
      </g>
     </g>
    </g>
   </g>
   <g id="matplotlib.axis_2">
    <g id="ytick_1">
     <g id="line2d_21">
      <path d="M 57.6 265.684929 
L 414.72 265.684929 
" clip-path="url(#pe37283e133)" style="fill: none; stroke-dasharray: 2.96,1.28; stroke-dashoffset: 0; stroke: #808080; stroke-width: 0.8"/>
     </g>
     <g id="line2d_22">
      <defs>
       <path id="mc373f456ec" d="M 0 0 
L -3.5 0 
" style="stroke: #000000; stroke-width: 0.8"/>
      </defs>
      <g>
       <use xlink:href="#mc373f456ec" x="57.6" y="265.684929" style="stroke: #000000; stroke-width: 0.8"/>
      </g>
     </g>
     <g id="text_11">
      <!-- 0 -->
      <g transform="translate(44.2375 269.484147) scale(0.1 -0.1)">
       <use xlink:href="#DejaVuSans-30"/>
      </g>
     </g>
    </g>
    <g id="ytick_2">
     <g id="line2d_23">
      <path d="M 57.6 224.666197 
L 414.72 224.666197 
" clip-path="url(#pe37283e133)" style="fill: none; stroke-dasharray: 2.96,1.28; stroke-dashoffset: 0; stroke: #808080; stroke-width: 0.8"/>
     </g>
     <g id="line2d_24">
      <g>
       <use xlink:href="#mc373f456ec" x="57.6" y="224.666197" style="stroke: #000000; stroke-width: 0.8"/>
      </g>
     </g>
     <g id="text_12">
      <!-- 500 -->
      <g transform="translate(31.5125 228.465416) scale(0.1 -0.1)">
       <use xlink:href="#DejaVuSans-35"/>
       <use xlink:href="#DejaVuSans-30" x="63.623047"/>
       <use xlink:href="#DejaVuSans-30" x="127.246094"/>
      </g>
     </g>
    </g>
    <g id="ytick_3">
     <g id="line2d_25">
      <path d="M 57.6 183.647466 
L 414.72 183.647466 
" clip-path="url(#pe37283e133)" style="fill: none; stroke-dasharray: 2.96,1.28; stroke-dashoffset: 0; stroke: #808080; stroke-width: 0.8"/>
     </g>
     <g id="line2d_26">
      <g>
       <use xlink:href="#mc373f456ec" x="57.6" y="183.647466" style="stroke: #000000; stroke-width: 0.8"/>
      </g>
     </g>
     <g id="text_13">
      <!-- 1000 -->
      <g transform="translate(25.15 187.446684) scale(0.1 -0.1)">
       <use xlink:href="#DejaVuSans-31"/>
       <use xlink:href="#DejaVuSans-30" x="63.623047"/>
       <use xlink:href="#DejaVuSans-30" x="127.246094"/>
       <use xlink:href="#DejaVuSans-30" x="190.869141"/>
      </g>
     </g>
    </g>
    <g id="ytick_4">
     <g id="line2d_27">
      <path d="M 57.6 142.628734 
L 414.72 142.628734 
" clip-path="url(#pe37283e133)" style="fill: none; stroke-dasharray: 2.96,1.28; stroke-dashoffset: 0; stroke: #808080; stroke-width: 0.8"/>
     </g>
     <g id="line2d_28">
      <g>
       <use xlink:href="#mc373f456ec" x="57.6" y="142.628734" style="stroke: #000000; stroke-width: 0.8"/>
      </g>
     </g>
     <g id="text_14">
      <!-- 1500 -->
      <g transform="translate(25.15 146.427953) scale(0.1 -0.1)">
       <use xlink:href="#DejaVuSans-31"/>
       <use xlink:href="#DejaVuSans-35" x="63.623047"/>
       <use xlink:href="#DejaVuSans-30" x="127.246094"/>
       <use xlink:href="#DejaVuSans-30" x="190.869141"/>
      </g>
     </g>
    </g>
    <g id="ytick_5">
     <g id="line2d_29">
      <path d="M 57.6 101.610003 
L 414.72 101.610003 
" clip-path="url(#pe37283e133)" style="fill: none; stroke-dasharray: 2.96,1.28; stroke-dashoffset: 0; stroke: #808080; stroke-width: 0.8"/>
     </g>
     <g id="line2d_30">
      <g>
       <use xlink:href="#mc373f456ec" x="57.6" y="101.610003" style="stroke: #000000; stroke-width: 0.8"/>
      </g>
     </g>
     <g id="text_15">
      <!-- 2000 -->
      <g transform="translate(25.15 105.409221) scale(0.1 -0.1)">
       <use xlink:href="#DejaVuSans-32"/>
       <use xlink:href="#DejaVuSans-30" x="63.623047"/>
       <use xlink:href="#DejaVuSans-30" x="127.246094"/>
       <use xlink:href="#DejaVuSans-30" x="190.869141"/>
      </g>
     </g>
    </g>
    <g id="ytick_6">
     <g id="line2d_31">
      <path d="M 57.6 60.591271 
L 414.72 60.591271 
" clip-path="url(#pe37283e133)" style="fill: none; stroke-dasharray: 2.96,1.28; stroke-dashoffset: 0; stroke: #808080; stroke-width: 0.8"/>
     </g>
     <g id="line2d_32">
      <g>
       <use xlink:href="#mc373f456ec" x="57.6" y="60.591271" style="stroke: #000000; stroke-width: 0.8"/>
      </g>
     </g>
     <g id="text_16">
      <!-- 2500 -->
      <g transform="translate(25.15 64.39049) scale(0.1 -0.1)">
       <use xlink:href="#DejaVuSans-32"/>
       <use xlink:href="#DejaVuSans-35" x="63.623047"/>
       <use xlink:href="#DejaVuSans-30" x="127.246094"/>
       <use xlink:href="#DejaVuSans-30" x="190.869141"/>
      </g>
     </g>
    </g>
    <g id="text_17">
     <!-- Inzidenz pro 7 Tage pro 100.000 Einwohner -->
     <g transform="translate(19.070312 267.301) rotate(-90) scale(0.1 -0.1)">
      <defs>
       <path id="DejaVuSans-49" d="M 628 4666 
L 1259 4666 
L 1259 0 
L 628 0 
L 628 4666 
z
" transform="scale(0.015625)"/>
       <path id="DejaVuSans-6e" d="M 3513 2113 
L 3513 0 
L 2938 0 
L 2938 2094 
Q 2938 2591 2744 2837 
Q 2550 3084 2163 3084 
Q 1697 3084 1428 2787 
Q 1159 2491 1159 1978 
L 1159 0 
L 581 0 
L 581 3500 
L 1159 3500 
L 1159 2956 
Q 1366 3272 1645 3428 
Q 1925 3584 2291 3584 
Q 2894 3584 3203 3211 
Q 3513 2838 3513 2113 
z
" transform="scale(0.015625)"/>
       <path id="DejaVuSans-7a" d="M 353 3500 
L 3084 3500 
L 3084 2975 
L 922 459 
L 3084 459 
L 3084 0 
L 275 0 
L 275 525 
L 2438 3041 
L 353 3041 
L 353 3500 
z
" transform="scale(0.015625)"/>
       <path id="DejaVuSans-69" d="M 603 3500 
L 1178 3500 
L 1178 0 
L 603 0 
L 603 3500 
z
M 603 4863 
L 1178 4863 
L 1178 4134 
L 603 4134 
L 603 4863 
z
" transform="scale(0.015625)"/>
       <path id="DejaVuSans-64" d="M 2906 2969 
L 2906 4863 
L 3481 4863 
L 3481 0 
L 2906 0 
L 2906 525 
Q 2725 213 2448 61 
Q 2172 -91 1784 -91 
Q 1150 -91 751 415 
Q 353 922 353 1747 
Q 353 2572 751 3078 
Q 1150 3584 1784 3584 
Q 2172 3584 2448 3432 
Q 2725 3281 2906 2969 
z
M 947 1747 
Q 947 1113 1208 752 
Q 1469 391 1925 391 
Q 2381 391 2643 752 
Q 2906 1113 2906 1747 
Q 2906 2381 2643 2742 
Q 2381 3103 1925 3103 
Q 1469 3103 1208 2742 
Q 947 2381 947 1747 
z
" transform="scale(0.015625)"/>
       <path id="DejaVuSans-65" d="M 3597 1894 
L 3597 1613 
L 953 1613 
Q 991 1019 1311 708 
Q 1631 397 2203 397 
Q 2534 397 2845 478 
Q 3156 559 3463 722 
L 3463 178 
Q 3153 47 2828 -22 
Q 2503 -91 2169 -91 
Q 1331 -91 842 396 
Q 353 884 353 1716 
Q 353 2575 817 3079 
Q 1281 3584 2069 3584 
Q 2775 3584 3186 3129 
Q 3597 2675 3597 1894 
z
M 3022 2063 
Q 3016 2534 2758 2815 
Q 2500 3097 2075 3097 
Q 1594 3097 1305 2825 
Q 1016 2553 972 2059 
L 3022 2063 
z
" transform="scale(0.015625)"/>
       <path id="DejaVuSans-20" transform="scale(0.015625)"/>
       <path id="DejaVuSans-70" d="M 1159 525 
L 1159 -1331 
L 581 -1331 
L 581 3500 
L 1159 3500 
L 1159 2969 
Q 1341 3281 1617 3432 
Q 1894 3584 2278 3584 
Q 2916 3584 3314 3078 
Q 3713 2572 3713 1747 
Q 3713 922 3314 415 
Q 2916 -91 2278 -91 
Q 1894 -91 1617 61 
Q 1341 213 1159 525 
z
M 3116 1747 
Q 3116 2381 2855 2742 
Q 2594 3103 2138 3103 
Q 1681 3103 1420 2742 
Q 1159 2381 1159 1747 
Q 1159 1113 1420 752 
Q 1681 391 2138 391 
Q 2594 391 2855 752 
Q 3116 1113 3116 1747 
z
" transform="scale(0.015625)"/>
       <path id="DejaVuSans-72" d="M 2631 2963 
Q 2534 3019 2420 3045 
Q 2306 3072 2169 3072 
Q 1681 3072 1420 2755 
Q 1159 2438 1159 1844 
L 1159 0 
L 581 0 
L 581 3500 
L 1159 3500 
L 1159 2956 
Q 1341 3275 1631 3429 
Q 1922 3584 2338 3584 
Q 2397 3584 2469 3576 
Q 2541 3569 2628 3553 
L 2631 2963 
z
" transform="scale(0.015625)"/>
       <path id="DejaVuSans-6f" d="M 1959 3097 
Q 1497 3097 1228 2736 
Q 959 2375 959 1747 
Q 959 1119 1226 758 
Q 1494 397 1959 397 
Q 2419 397 2687 759 
Q 2956 1122 2956 1747 
Q 2956 2369 2687 2733 
Q 2419 3097 1959 3097 
z
M 1959 3584 
Q 2709 3584 3137 3096 
Q 3566 2609 3566 1747 
Q 3566 888 3137 398 
Q 2709 -91 1959 -91 
Q 1206 -91 779 398 
Q 353 888 353 1747 
Q 353 2609 779 3096 
Q 1206 3584 1959 3584 
z
" transform="scale(0.015625)"/>
       <path id="DejaVuSans-37" d="M 525 4666 
L 3525 4666 
L 3525 4397 
L 1831 0 
L 1172 0 
L 2766 4134 
L 525 4134 
L 525 4666 
z
" transform="scale(0.015625)"/>
       <path id="DejaVuSans-54" d="M -19 4666 
L 3928 4666 
L 3928 4134 
L 2272 4134 
L 2272 0 
L 1638 0 
L 1638 4134 
L -19 4134 
L -19 4666 
z
" transform="scale(0.015625)"/>
       <path id="DejaVuSans-61" d="M 2194 1759 
Q 1497 1759 1228 1600 
Q 959 1441 959 1056 
Q 959 750 1161 570 
Q 1363 391 1709 391 
Q 2188 391 2477 730 
Q 2766 1069 2766 1631 
L 2766 1759 
L 2194 1759 
z
M 3341 1997 
L 3341 0 
L 2766 0 
L 2766 531 
Q 2569 213 2275 61 
Q 1981 -91 1556 -91 
Q 1019 -91 701 211 
Q 384 513 384 1019 
Q 384 1609 779 1909 
Q 1175 2209 1959 2209 
L 2766 2209 
L 2766 2266 
Q 2766 2663 2505 2880 
Q 2244 3097 1772 3097 
Q 1472 3097 1187 3025 
Q 903 2953 641 2809 
L 641 3341 
Q 956 3463 1253 3523 
Q 1550 3584 1831 3584 
Q 2591 3584 2966 3190 
Q 3341 2797 3341 1997 
z
" transform="scale(0.015625)"/>
       <path id="DejaVuSans-67" d="M 2906 1791 
Q 2906 2416 2648 2759 
Q 2391 3103 1925 3103 
Q 1463 3103 1205 2759 
Q 947 2416 947 1791 
Q 947 1169 1205 825 
Q 1463 481 1925 481 
Q 2391 481 2648 825 
Q 2906 1169 2906 1791 
z
M 3481 434 
Q 3481 -459 3084 -895 
Q 2688 -1331 1869 -1331 
Q 1566 -1331 1297 -1286 
Q 1028 -1241 775 -1147 
L 775 -588 
Q 1028 -725 1275 -790 
Q 1522 -856 1778 -856 
Q 2344 -856 2625 -561 
Q 2906 -266 2906 331 
L 2906 616 
Q 2728 306 2450 153 
Q 2172 0 1784 0 
Q 1141 0 747 490 
Q 353 981 353 1791 
Q 353 2603 747 3093 
Q 1141 3584 1784 3584 
Q 2172 3584 2450 3431 
Q 2728 3278 2906 2969 
L 2906 3500 
L 3481 3500 
L 3481 434 
z
" transform="scale(0.015625)"/>
       <path id="DejaVuSans-45" d="M 628 4666 
L 3578 4666 
L 3578 4134 
L 1259 4134 
L 1259 2753 
L 3481 2753 
L 3481 2222 
L 1259 2222 
L 1259 531 
L 3634 531 
L 3634 0 
L 628 0 
L 628 4666 
z
" transform="scale(0.015625)"/>
       <path id="DejaVuSans-77" d="M 269 3500 
L 844 3500 
L 1563 769 
L 2278 3500 
L 2956 3500 
L 3675 769 
L 4391 3500 
L 4966 3500 
L 4050 0 
L 3372 0 
L 2619 2869 
L 1863 0 
L 1184 0 
L 269 3500 
z
" transform="scale(0.015625)"/>
       <path id="DejaVuSans-68" d="M 3513 2113 
L 3513 0 
L 2938 0 
L 2938 2094 
Q 2938 2591 2744 2837 
Q 2550 3084 2163 3084 
Q 1697 3084 1428 2787 
Q 1159 2491 1159 1978 
L 1159 0 
L 581 0 
L 581 4863 
L 1159 4863 
L 1159 2956 
Q 1366 3272 1645 3428 
Q 1925 3584 2291 3584 
Q 2894 3584 3203 3211 
Q 3513 2838 3513 2113 
z
" transform="scale(0.015625)"/>
      </defs>
      <use xlink:href="#DejaVuSans-49"/>
      <use xlink:href="#DejaVuSans-6e" x="29.492188"/>
      <use xlink:href="#DejaVuSans-7a" x="92.871094"/>
      <use xlink:href="#DejaVuSans-69" x="145.361328"/>
      <use xlink:href="#DejaVuSans-64" x="173.144531"/>
      <use xlink:href="#DejaVuSans-65" x="236.621094"/>
      <use xlink:href="#DejaVuSans-6e" x="298.144531"/>
      <use xlink:href="#DejaVuSans-7a" x="361.523438"/>
      <use xlink:href="#DejaVuSans-20" x="414.013672"/>
      <use xlink:href="#DejaVuSans-70" x="445.800781"/>
      <use xlink:href="#DejaVuSans-72" x="509.277344"/>
      <use xlink:href="#DejaVuSans-6f" x="548.140625"/>
      <use xlink:href="#DejaVuSans-20" x="609.322266"/>
      <use xlink:href="#DejaVuSans-37" x="641.109375"/>
      <use xlink:href="#DejaVuSans-20" x="704.732422"/>
      <use xlink:href="#DejaVuSans-54" x="736.519531"/>
      <use xlink:href="#DejaVuSans-61" x="781.103516"/>
      <use xlink:href="#DejaVuSans-67" x="842.382812"/>
      <use xlink:href="#DejaVuSans-65" x="905.859375"/>
      <use xlink:href="#DejaVuSans-20" x="967.382812"/>
      <use xlink:href="#DejaVuSans-70" x="999.169922"/>
      <use xlink:href="#DejaVuSans-72" x="1062.646484"/>
      <use xlink:href="#DejaVuSans-6f" x="1101.509766"/>
      <use xlink:href="#DejaVuSans-20" x="1162.691406"/>
      <use xlink:href="#DejaVuSans-31" x="1194.478516"/>
      <use xlink:href="#DejaVuSans-30" x="1258.101562"/>
      <use xlink:href="#DejaVuSans-30" x="1321.724609"/>
      <use xlink:href="#DejaVuSans-2e" x="1385.347656"/>
      <use xlink:href="#DejaVuSans-30" x="1417.134766"/>
      <use xlink:href="#DejaVuSans-30" x="1480.757812"/>
      <use xlink:href="#DejaVuSans-30" x="1544.380859"/>
      <use xlink:href="#DejaVuSans-20" x="1608.003906"/>
      <use xlink:href="#DejaVuSans-45" x="1639.791016"/>
      <use xlink:href="#DejaVuSans-69" x="1702.974609"/>
      <use xlink:href="#DejaVuSans-6e" x="1730.757812"/>
      <use xlink:href="#DejaVuSans-77" x="1794.136719"/>
      <use xlink:href="#DejaVuSans-6f" x="1875.923828"/>
      <use xlink:href="#DejaVuSans-68" x="1937.105469"/>
      <use xlink:href="#DejaVuSans-6e" x="2000.484375"/>
      <use xlink:href="#DejaVuSans-65" x="2063.863281"/>
      <use xlink:href="#DejaVuSans-72" x="2125.386719"/>
     </g>
    </g>
   </g>
   <g id="line2d_33">
    <path d="M 73.832727 265.684929 
L 76.315745 265.684929 
L 76.626122 265.515594 
L 76.936499 265.515594 
L 77.557254 264.894701 
L 78.178008 264.612477 
L 78.798762 264.556032 
L 79.10914 264.104474 
L 79.729894 264.104474 
L 80.661026 263.314246 
L 81.28178 262.128905 
L 82.523289 261.564457 
L 82.833666 261.564457 
L 83.45442 262.016015 
L 83.764797 261.677346 
L 84.075175 261.790236 
L 84.385552 262.128905 
L 84.695929 261.846681 
L 85.006306 261.169343 
L 85.627061 262.07246 
L 85.937438 262.693353 
L 86.558192 263.032022 
L 86.868569 263.540025 
L 87.178947 264.443143 
L 87.489324 264.217363 
L 87.799701 264.386698 
L 88.110078 264.273808 
L 88.420455 264.499587 
L 89.351587 264.330253 
L 89.661964 264.612477 
L 89.972341 264.612477 
L 90.282719 264.894701 
L 90.593096 264.894701 
L 91.834605 265.459149 
L 92.765736 265.684929 
L 94.007245 265.797818 
L 94.627999 265.741373 
L 95.248754 265.572039 
L 96.80064 265.628484 
L 97.731771 265.684929 
L 112.629877 265.628484 
L 112.940254 265.572039 
L 113.250631 265.176925 
L 113.561008 265.176925 
L 114.181763 265.064036 
L 115.112894 265.064036 
L 115.423271 265.402704 
L 115.733649 265.402704 
L 116.044026 265.515594 
L 116.975157 265.459149 
L 118.527043 265.628484 
L 122.561947 265.572039 
L 124.42421 265.23337 
L 125.355342 265.459149 
L 125.665719 265.459149 
L 126.907228 264.668922 
L 127.527982 264.556032 
L 128.148736 264.556032 
L 129.079868 264.951146 
L 129.700622 265.064036 
L 130.942131 265.12048 
L 131.252508 265.176925 
L 132.494017 264.612477 
L 132.804394 264.104474 
L 133.114771 263.370691 
L 133.735526 263.144912 
L 134.045903 262.467574 
L 134.35628 262.411129 
L 134.666657 262.975577 
L 134.977035 262.862688 
L 135.287412 263.370691 
L 135.597789 263.088467 
L 135.908166 263.032022 
L 136.218543 263.483581 
L 136.528921 263.70936 
L 136.839298 263.427136 
L 137.149675 264.048029 
L 137.460052 264.160918 
L 138.391184 264.951146 
L 138.701561 264.951146 
L 139.011938 265.176925 
L 139.322315 264.838256 
L 140.253447 264.556032 
L 140.563824 263.652915 
L 140.874201 263.257801 
L 141.184578 263.257801 
L 141.494956 263.540025 
L 141.805333 262.241795 
L 142.11571 262.298239 
L 142.426087 262.18535 
L 142.736464 263.088467 
L 143.046842 263.483581 
L 143.357219 262.749798 
L 143.667596 262.524019 
L 143.977973 263.144912 
L 144.28835 261.451567 
L 144.598728 260.604895 
L 145.219482 259.419554 
L 145.529859 259.984002 
L 145.840236 259.701778 
L 146.460991 257.726209 
L 147.392122 258.742216 
L 147.7025 254.33952 
L 148.012877 254.33952 
L 148.323254 254.057296 
L 148.633631 255.637751 
L 148.944008 254.283075 
L 149.564763 250.388383 
L 149.87514 254.395965 
L 150.185517 253.492848 
L 150.495894 254.000851 
L 150.806272 252.646176 
L 151.116649 252.476841 
L 151.427026 253.492848 
L 152.04778 253.323513 
L 152.358157 252.476841 
L 152.668535 250.219048 
L 152.978912 251.009276 
L 153.289289 251.460834 
L 153.599666 251.347945 
L 154.530798 253.887962 
L 154.841175 254.000851 
L 155.151552 253.154179 
L 155.461929 253.323513 
L 155.772307 253.944406 
L 156.082684 254.22663 
L 156.703438 253.605737 
L 157.013815 255.807085 
L 157.324193 257.048871 
L 157.944947 257.50043 
L 158.255324 257.61332 
L 158.565701 257.895544 
L 158.876079 257.726209 
L 159.186456 258.008433 
L 159.496833 257.669764 
L 159.80721 257.839099 
L 160.117587 257.048871 
L 160.427965 257.218206 
L 160.738342 257.218206 
L 161.048719 257.951988 
L 161.359096 256.597313 
L 161.669473 256.202199 
L 161.979851 256.145754 
L 162.290228 256.258644 
L 162.910982 252.9284 
L 163.221359 251.630169 
L 163.531736 251.799503 
L 163.842114 251.573724 
L 164.462868 247.961256 
L 164.773245 249.993269 
L 165.083622 250.275493 
L 165.394 250.388383 
L 165.704377 248.864373 
L 166.014754 248.920818 
L 166.325131 251.122165 
L 166.635508 254.33952 
L 166.945886 253.154179 
L 167.256263 253.887962 
L 167.56664 253.662182 
L 168.187394 256.032865 
L 168.497772 255.807085 
L 168.808149 255.355527 
L 169.118526 255.637751 
L 169.428903 254.000851 
L 169.73928 253.831517 
L 170.049658 254.113741 
L 170.360035 254.057296 
L 170.670412 253.041289 
L 170.980789 249.541711 
L 171.291166 249.880379 
L 171.601544 250.444828 
L 172.222298 248.469259 
L 172.532675 247.509697 
L 172.843052 248.469259 
L 173.15343 249.823935 
L 173.463807 248.0177 
L 173.774184 249.372376 
L 174.084561 251.686614 
L 174.394938 251.799503 
L 174.705315 252.533286 
L 175.015693 251.517279 
L 175.32607 252.81551 
L 175.636447 254.621744 
L 175.946824 254.678189 
L 176.257201 254.170186 
L 176.567579 254.960413 
L 176.877956 255.186192 
L 177.188333 255.919975 
L 177.49871 256.258644 
L 177.809087 256.879537 
L 178.119465 256.540868 
L 179.360973 260.604895 
L 179.671351 261.000009 
L 179.981728 260.830674 
L 180.292105 261.056453 
L 180.602482 260.887119 
L 181.223237 261.395122 
L 181.533614 261.451567 
L 181.843991 261.733791 
L 182.464745 261.733791 
L 182.775123 262.524019 
L 183.0855 262.354684 
L 183.395877 262.524019 
L 184.016631 262.580464 
L 184.637386 263.088467 
L 184.947763 262.693353 
L 185.878894 263.314246 
L 186.499649 262.749798 
L 186.810026 262.693353 
L 187.741158 261.056453 
L 188.051535 261.000009 
L 188.361912 260.774229 
L 188.982666 259.758223 
L 189.293044 259.701778 
L 189.603421 258.290657 
L 189.913798 257.782654 
L 190.534552 255.524861 
L 190.84493 255.919975 
L 191.465684 255.694196 
L 191.776061 255.186192 
L 192.086438 255.411972 
L 192.396816 254.621744 
L 192.707193 255.242637 
L 193.327947 253.267069 
L 193.638324 251.630169 
L 193.948702 250.896386 
L 194.259079 249.598155 
L 194.569456 249.6546 
L 195.19021 248.525704 
L 195.500588 249.033707 
L 195.810965 250.331938 
L 196.121342 250.896386 
L 196.431719 250.727052 
L 197.052473 251.2915 
L 197.362851 252.420396 
L 197.673228 252.984844 
L 197.983605 253.154179 
L 198.293982 253.154179 
L 198.604359 251.630169 
L 198.914737 251.743058 
L 199.225114 251.122165 
L 199.535491 250.952831 
L 200.156245 249.090152 
L 200.466623 248.13059 
L 201.087377 249.033707 
L 201.397754 250.162604 
L 201.708131 248.920818 
L 202.328886 247.735476 
L 202.94964 249.541711 
L 203.570395 247.340363 
L 203.880772 247.227473 
L 204.191149 248.751483 
L 204.811903 247.622587 
L 205.122281 248.187035 
L 205.432658 246.775914 
L 206.053412 249.259486 
L 206.674167 248.469259 
L 206.984544 248.24348 
L 207.294921 248.187035 
L 207.605298 249.598155 
L 207.915675 247.453252 
L 208.53643 246.098577 
L 208.846807 245.929242 
L 209.157184 247.566142 
L 209.467561 248.187035 
L 210.398693 250.783497 
L 210.70907 251.009276 
L 211.019447 252.81551 
L 211.329824 253.492848 
L 212.260956 256.653758 
L 212.571333 257.50043 
L 212.88171 257.951988 
L 213.192088 259.419554 
L 213.502465 259.645333 
L 214.123219 258.742216 
L 214.743974 258.685771 
L 215.054351 258.798661 
L 215.364728 258.685771 
L 215.675105 259.701778 
L 215.985482 260.266226 
L 216.606237 261.846681 
L 216.916614 262.18535 
L 217.226991 262.016015 
L 217.847746 261.959571 
L 218.158123 262.241795 
L 218.4685 262.016015 
L 219.089254 262.18535 
L 219.710009 263.82225 
L 221.882649 265.064036 
L 222.193026 265.34626 
L 222.813781 265.23337 
L 223.434535 265.176925 
L 223.744912 265.289815 
L 224.055289 265.007591 
L 224.365667 265.007591 
L 224.986421 265.176925 
L 225.917553 265.176925 
L 226.22793 265.459149 
L 226.848684 265.459149 
L 227.779816 265.572039 
L 228.40057 265.402704 
L 229.021325 265.402704 
L 229.642079 265.064036 
L 229.952456 264.894701 
L 230.262833 265.007591 
L 230.57321 264.781811 
L 230.883588 264.725367 
L 231.193965 264.443143 
L 232.125096 264.838256 
L 233.056228 264.838256 
L 233.366605 264.951146 
L 233.676982 264.612477 
L 233.98736 264.443143 
L 234.297737 264.556032 
L 234.608114 264.273808 
L 234.918491 264.612477 
L 235.539246 264.386698 
L 235.849623 264.725367 
L 236.16 264.781811 
L 236.470377 264.556032 
L 236.780754 264.668922 
L 237.401509 264.443143 
L 237.711886 264.499587 
L 238.022263 264.160918 
L 238.33264 263.991584 
L 238.643018 263.991584 
L 238.953395 263.878694 
L 239.263772 263.427136 
L 239.574149 262.693353 
L 240.194904 262.07246 
L 240.815658 261.112898 
L 241.126035 260.887119 
L 241.436412 259.588888 
L 241.74679 259.306664 
L 242.367544 258.403547 
L 242.677921 258.403547 
L 242.988298 258.290657 
L 243.609053 257.669764 
L 243.91943 256.879537 
L 244.540184 256.653758 
L 244.850561 256.202199 
L 245.160939 256.145754 
L 245.471316 256.653758 
L 245.781693 257.726209 
L 246.09207 258.290657 
L 246.402447 258.008433 
L 246.712825 257.161761 
L 247.023202 257.218206 
L 247.333579 256.540868 
L 247.643956 256.145754 
L 247.954333 253.718627 
L 248.264711 253.097734 
L 248.575088 253.097734 
L 249.195842 252.363951 
L 249.506219 253.605737 
L 249.816597 253.605737 
L 250.437351 255.524861 
L 251.058105 255.97642 
L 251.368483 257.105316 
L 251.67886 256.992427 
L 251.989237 257.38754 
L 252.299614 258.855106 
L 252.920369 259.02444 
L 253.230746 260.66134 
L 253.541123 259.927557 
L 254.161877 259.701778 
L 254.472254 259.758223 
L 254.782632 258.855106 
L 255.093009 258.91155 
L 255.403386 257.895544 
L 255.713763 258.121323 
L 256.02414 258.516437 
L 256.644895 257.669764 
L 257.265649 257.61332 
L 257.576026 257.839099 
L 258.196781 256.597313 
L 258.507158 256.823092 
L 258.817535 255.468416 
L 259.43829 249.76749 
L 260.369421 245.590573 
L 260.990176 242.881222 
L 261.300553 240.905653 
L 261.61093 240.171871 
L 261.921307 235.430506 
L 262.231684 235.148282 
L 262.542062 235.938509 
L 262.852439 236.051399 
L 263.162816 237.575409 
L 263.473193 237.801188 
L 264.093948 228.487793 
L 264.404325 228.713573 
L 264.714702 227.358897 
L 265.645833 205.740532 
L 265.956211 201.055612 
L 266.266588 202.579622 
L 266.887342 187.170187 
L 267.197719 192.36311 
L 267.508097 186.944407 
L 267.818474 192.927558 
L 268.439228 185.138173 
L 268.749605 185.984845 
L 269.059983 191.403548 
L 269.37036 190.218207 
L 269.680737 191.798662 
L 269.991114 182.598156 
L 270.301491 188.581307 
L 270.611869 181.864374 
L 270.922246 183.952832 
L 271.232623 185.081728 
L 272.163755 192.024441 
L 272.474132 190.782655 
L 272.784509 200.942722 
L 273.405263 198.346261 
L 273.715641 198.854264 
L 274.026018 197.556033 
L 274.336395 201.112057 
L 274.646772 209.635224 
L 274.957149 214.15081 
L 275.267527 216.182823 
L 275.577904 212.6268 
L 275.888281 212.570355 
L 276.198658 215.110372 
L 276.509035 219.174398 
L 276.819412 218.779285 
L 277.12979 219.908181 
L 277.440167 220.416184 
L 277.750544 226.34289 
L 278.060921 227.189563 
L 279.612807 238.196302 
L 280.543939 236.672292 
L 280.854316 238.76075 
L 281.164693 239.720312 
L 281.47507 239.438088 
L 281.785448 239.325199 
L 282.095825 242.373219 
L 282.406202 241.470102 
L 282.716579 243.219891 
L 283.026956 241.470102 
L 283.337334 242.203884 
L 283.647711 240.623429 
L 283.958088 237.970523 
L 284.578842 239.494533 
L 285.199597 235.035392 
L 285.509974 229.729579 
L 285.820351 228.149125 
L 286.130728 227.697566 
L 286.441106 219.795291 
L 286.751483 220.303295 
L 287.06186 215.56193 
L 287.372237 208.336993 
L 287.682614 209.861003 
L 287.992991 203.539184 
L 288.303369 201.563615 
L 288.613746 202.579622 
L 288.924123 186.775073 
L 289.2345 183.952832 
L 289.544877 178.082571 
L 290.165632 153.641965 
L 290.476009 155.899757 
L 290.786386 156.52065 
L 291.096763 149.577938 
L 291.407141 138.853422 
L 291.717518 135.297399 
L 292.027895 127.1129 
L 292.338272 125.871114 
L 292.648649 126.830676 
L 292.959027 128.7498 
L 293.269404 103.406077 
L 293.579781 89.97221 
L 294.200535 82.860163 
L 294.510913 74.675664 
L 294.82129 60.112901 
L 295.131667 52.154182 
L 295.752421 91.60911 
L 296.062799 90.423768 
L 296.373176 98.608267 
L 296.99393 90.593103 
L 297.304307 79.473474 
L 297.614685 94.54424 
L 297.925062 93.641123 
L 298.235439 91.326886 
L 298.545816 90.197989 
L 298.856193 96.519809 
L 299.476948 133.43472 
L 299.787325 115.428823 
L 300.718456 130.217365 
L 301.028834 140.885436 
L 301.339211 128.86269 
L 301.649588 111.477686 
L 301.959965 123.387542 
L 302.270342 119.549295 
L 302.58072 105.889649 
L 302.891097 79.134805 
L 303.201474 72.925875 
L 303.511851 72.812985 
L 303.822228 77.893019 
L 304.132606 71.23253 
L 304.442983 69.144072 
L 304.75336 62.991587 
L 305.063737 73.828992 
L 305.374114 72.812985 
L 305.684492 78.288133 
L 305.994869 79.699253 
L 306.305246 63.781814 
L 306.615623 59.379119 
L 306.926 59.830677 
L 307.236378 57.347105 
L 307.546755 53.621747 
L 307.857132 61.467577 
L 308.167509 72.925875 
L 308.477886 68.579624 
L 308.788264 70.555193 
L 309.098641 79.586363 
L 309.719395 105.776759 
L 310.029772 105.3252 
L 310.340149 102.333625 
L 310.650527 128.919134 
L 310.960904 136.48274 
L 311.271281 155.673978 
L 311.581658 161.31846 
L 311.892035 173.002537 
L 312.202413 166.229159 
L 312.51279 163.914922 
L 313.133544 182.146598 
L 313.754299 192.306665 
L 314.064676 195.693354 
L 314.375053 204.555191 
L 314.68543 200.716943 
L 314.995807 206.19209 
L 315.306185 209.296555 
L 315.616562 208.167659 
L 315.926939 209.409445 
L 316.237316 195.241796 
L 316.547693 189.2022 
L 316.858071 193.492006 
L 317.478825 188.355528 
L 317.789202 188.976421 
L 318.099579 190.048872 
L 318.409957 197.894702 
L 318.720334 201.676505 
L 319.030711 202.861846 
L 319.341088 200.660498 
L 319.651465 202.410287 
L 319.961843 205.401863 
L 321.203351 227.641121 
L 321.513728 219.738847 
L 321.824106 218.779285 
L 322.134483 222.786867 
L 322.44486 224.423767 
L 322.755237 222.504643 
L 323.375992 222.504643 
L 323.686369 227.471787 
L 324.307123 232.269596 
L 324.6175 233.398493 
L 324.927878 238.026968 
L 325.548632 238.139857 
L 326.479764 246.211466 
L 326.790141 250.952831 
L 327.100518 251.347945 
L 327.721272 251.347945 
L 328.03165 251.799503 
L 328.342027 253.041289 
L 328.652404 252.081727 
L 328.962781 249.598155 
L 329.273158 248.582149 
L 329.893913 248.582149 
L 330.20429 254.565299 
L 330.514667 246.324356 
L 330.825044 244.856791 
L 331.135422 242.486108 
L 331.445799 241.131433 
L 332.066553 241.131433 
L 332.37693 231.705148 
L 332.687307 237.34963 
L 332.997685 234.753168 
L 333.308062 239.607423 
L 333.618439 239.042974 
L 334.239193 238.87364 
L 334.549571 234.753168 
L 334.859948 234.132275 
L 335.170325 236.502958 
L 335.480702 229.560245 
L 335.791079 229.278021 
L 336.411834 229.447355 
L 336.722211 231.930927 
L 337.032588 230.350472 
L 337.342965 227.076673 
L 337.653343 225.891332 
L 337.96372 227.020228 
L 338.584474 226.963783 
L 338.894851 230.068248 
L 339.205229 226.34289 
L 339.515606 225.891332 
L 339.825983 228.544238 
L 340.13636 225.101104 
L 340.757115 225.101104 
L 341.067492 214.715258 
L 341.377869 219.851736 
L 341.688246 212.288131 
L 341.998623 209.353 
L 342.309001 211.272124 
L 342.929755 211.046345 
L 343.240132 205.796977 
L 343.550509 203.539184 
L 343.860886 207.885435 
L 344.171264 202.918291 
L 344.481641 203.934298 
L 345.102395 204.216522 
L 345.412772 212.288131 
L 345.72315 207.095207 
L 346.033527 211.554348 
L 346.343904 220.472629 
L 346.654281 218.666395 
L 347.275036 218.666395 
L 347.585413 221.77086 
L 347.89579 226.56867 
L 348.206167 228.09268 
L 349.137299 228.487793 
L 349.447676 228.431349 
L 349.758053 233.285603 
L 350.378808 237.914078 
L 350.689185 239.099419 
L 350.999562 242.147439 
L 351.620316 242.203884 
L 351.930694 249.880379 
L 352.241071 249.485266 
L 352.551448 250.106159 
L 352.861825 250.444828 
L 353.172202 251.630169 
L 353.792957 251.630169 
L 354.103334 246.945249 
L 354.724088 248.977262 
L 355.034465 248.807928 
L 355.344843 249.203042 
L 355.965597 249.203042 
L 356.275974 247.283918 
L 356.586351 248.751483 
L 356.896729 248.24348 
L 357.207106 248.977262 
L 357.82786 248.977262 
L 358.138237 248.977262 
L 358.448615 252.081727 
L 359.069369 252.081727 
L 359.379746 252.70262 
L 359.690123 252.251062 
L 360.621255 252.307507 
L 360.931632 251.743058 
L 361.242009 250.839941 
L 361.552387 250.557717 
L 361.862764 249.598155 
L 362.483518 249.598155 
L 363.104273 242.316774 
L 363.41465 241.526546 
L 363.725027 236.502958 
L 364.035404 233.737162 
L 364.656159 233.737162 
L 365.276913 219.117954 
L 365.58729 210.481896 
L 365.897667 208.619217 
L 366.208044 199.531602 
L 366.828799 189.258645 
L 367.139176 201.563615 
L 367.449553 206.812983 
L 368.070308 184.743059 
L 368.380685 186.549294 
L 368.691062 186.323514 
L 369.001439 187.113742 
L 369.311816 177.179454 
L 369.622194 171.083413 
L 369.932571 184.573725 
L 370.863702 204.047187 
L 371.17408 208.280549 
L 371.484457 200.265384 
L 372.105211 213.981475 
L 372.415588 215.618375 
L 372.725966 218.327726 
L 373.036343 217.368164 
L 373.34672 216.973051 
L 373.657097 226.399335 
L 373.967474 228.318459 
L 374.277852 229.108686 
L 374.588229 234.922503 
L 374.898606 234.753168 
L 375.208983 234.358055 
L 375.51936 234.696723 
L 376.140115 247.961256 
L 376.450492 249.203042 
L 376.760869 249.823935 
L 377.071246 251.799503 
L 377.381624 252.081727 
L 377.692001 251.686614 
L 378.002378 253.097734 
L 378.312755 251.009276 
L 378.933509 253.718627 
L 379.243887 253.323513 
L 379.554264 253.887962 
L 379.864641 254.170186 
L 380.485395 255.581306 
L 381.416527 258.685771 
L 381.726904 258.742216 
L 382.037281 258.459992 
L 382.347659 258.516437 
L 382.658036 259.080885 
L 382.968413 259.306664 
L 383.899545 259.306664 
L 384.209922 259.758223 
L 384.520299 260.66134 
L 384.830676 260.209781 
L 385.141053 260.266226 
L 385.451431 259.984002 
L 386.072185 259.984002 
L 386.692939 259.588888 
L 387.003317 259.701778 
L 387.313694 259.363109 
L 387.624071 259.475999 
L 387.934448 259.363109 
L 388.555203 259.475999 
L 388.86558 258.91155 
L 389.175957 259.588888 
L 389.486334 258.685771 
L 390.727843 258.403547 
L 391.03822 258.572881 
L 391.348597 258.064878 
L 391.969352 258.403547 
L 392.279729 258.234213 
L 392.590106 258.347102 
L 392.900483 258.290657 
L 393.521238 260.266226 
L 393.831615 260.774229 
L 394.141992 260.717785 
L 394.452369 260.322671 
L 394.762746 260.379116 
L 395.073124 260.66134 
L 395.383501 259.871112 
L 395.693878 259.419554 
L 396.004255 260.096892 
L 396.314632 260.322671 
L 396.62501 261.508012 
L 397.245764 261.056453 
L 397.556141 261.225788 
L 398.487273 262.298239 
L 398.487273 262.298239 
" clip-path="url(#pe37283e133)" style="fill: none; stroke: #1f77b4; stroke-width: 1.5; stroke-linecap: square"/>
   </g>
   <g id="patch_3">
    <path d="M 57.6 276.48 
L 57.6 41.472 
" style="fill: none; stroke: #000000; stroke-width: 0.8; stroke-linejoin: miter; stroke-linecap: square"/>
   </g>
   <g id="patch_4">
    <path d="M 414.72 276.48 
L 414.72 41.472 
" style="fill: none; stroke: #000000; stroke-width: 0.8; stroke-linejoin: miter; stroke-linecap: square"/>
   </g>
   <g id="patch_5">
    <path d="M 57.6 276.48 
L 414.72 276.48 
" style="fill: none; stroke: #000000; stroke-width: 0.8; stroke-linejoin: miter; stroke-linecap: square"/>
   </g>
   <g id="patch_6">
    <path d="M 57.6 41.472 
L 414.72 41.472 
" style="fill: none; stroke: #000000; stroke-width: 0.8; stroke-linejoin: miter; stroke-linecap: square"/>
   </g>
  </g>
  <g id="text_18">
   <!-- Inzidenzverlauf LK Unterallgäu -->
   <g transform="translate(92.543906 20.589187) scale(0.18 -0.18)">
    <defs>
     <path id="DejaVuSans-76" d="M 191 3500 
L 800 3500 
L 1894 563 
L 2988 3500 
L 3597 3500 
L 2284 0 
L 1503 0 
L 191 3500 
z
" transform="scale(0.015625)"/>
     <path id="DejaVuSans-6c" d="M 603 4863 
L 1178 4863 
L 1178 0 
L 603 0 
L 603 4863 
z
" transform="scale(0.015625)"/>
     <path id="DejaVuSans-75" d="M 544 1381 
L 544 3500 
L 1119 3500 
L 1119 1403 
Q 1119 906 1312 657 
Q 1506 409 1894 409 
Q 2359 409 2629 706 
Q 2900 1003 2900 1516 
L 2900 3500 
L 3475 3500 
L 3475 0 
L 2900 0 
L 2900 538 
Q 2691 219 2414 64 
Q 2138 -91 1772 -91 
Q 1169 -91 856 284 
Q 544 659 544 1381 
z
M 1991 3584 
L 1991 3584 
z
" transform="scale(0.015625)"/>
     <path id="DejaVuSans-66" d="M 2375 4863 
L 2375 4384 
L 1825 4384 
Q 1516 4384 1395 4259 
Q 1275 4134 1275 3809 
L 1275 3500 
L 2222 3500 
L 2222 3053 
L 1275 3053 
L 1275 0 
L 697 0 
L 697 3053 
L 147 3053 
L 147 3500 
L 697 3500 
L 697 3744 
Q 697 4328 969 4595 
Q 1241 4863 1831 4863 
L 2375 4863 
z
" transform="scale(0.015625)"/>
     <path id="DejaVuSans-4c" d="M 628 4666 
L 1259 4666 
L 1259 531 
L 3531 531 
L 3531 0 
L 628 0 
L 628 4666 
z
" transform="scale(0.015625)"/>
     <path id="DejaVuSans-4b" d="M 628 4666 
L 1259 4666 
L 1259 2694 
L 3353 4666 
L 4166 4666 
L 1850 2491 
L 4331 0 
L 3500 0 
L 1259 2247 
L 1259 0 
L 628 0 
L 628 4666 
z
" transform="scale(0.015625)"/>
     <path id="DejaVuSans-55" d="M 556 4666 
L 1191 4666 
L 1191 1831 
Q 1191 1081 1462 751 
Q 1734 422 2344 422 
Q 2950 422 3222 751 
Q 3494 1081 3494 1831 
L 3494 4666 
L 4128 4666 
L 4128 1753 
Q 4128 841 3676 375 
Q 3225 -91 2344 -91 
Q 1459 -91 1007 375 
Q 556 841 556 1753 
L 556 4666 
z
" transform="scale(0.015625)"/>
     <path id="DejaVuSans-74" d="M 1172 4494 
L 1172 3500 
L 2356 3500 
L 2356 3053 
L 1172 3053 
L 1172 1153 
Q 1172 725 1289 603 
Q 1406 481 1766 481 
L 2356 481 
L 2356 0 
L 1766 0 
Q 1100 0 847 248 
Q 594 497 594 1153 
L 594 3053 
L 172 3053 
L 172 3500 
L 594 3500 
L 594 4494 
L 1172 4494 
z
" transform="scale(0.015625)"/>
     <path id="DejaVuSans-e4" d="M 2194 1759 
Q 1497 1759 1228 1600 
Q 959 1441 959 1056 
Q 959 750 1161 570 
Q 1363 391 1709 391 
Q 2188 391 2477 730 
Q 2766 1069 2766 1631 
L 2766 1759 
L 2194 1759 
z
M 3341 1997 
L 3341 0 
L 2766 0 
L 2766 531 
Q 2569 213 2275 61 
Q 1981 -91 1556 -91 
Q 1019 -91 701 211 
Q 384 513 384 1019 
Q 384 1609 779 1909 
Q 1175 2209 1959 2209 
L 2766 2209 
L 2766 2266 
Q 2766 2663 2505 2880 
Q 2244 3097 1772 3097 
Q 1472 3097 1187 3025 
Q 903 2953 641 2809 
L 641 3341 
Q 956 3463 1253 3523 
Q 1550 3584 1831 3584 
Q 2591 3584 2966 3190 
Q 3341 2797 3341 1997 
z
M 2150 4850 
L 2784 4850 
L 2784 4219 
L 2150 4219 
L 2150 4850 
z
M 928 4850 
L 1562 4850 
L 1562 4219 
L 928 4219 
L 928 4850 
z
" transform="scale(0.015625)"/>
    </defs>
    <use xlink:href="#DejaVuSans-49"/>
    <use xlink:href="#DejaVuSans-6e" x="29.492188"/>
    <use xlink:href="#DejaVuSans-7a" x="92.871094"/>
    <use xlink:href="#DejaVuSans-69" x="145.361328"/>
    <use xlink:href="#DejaVuSans-64" x="173.144531"/>
    <use xlink:href="#DejaVuSans-65" x="236.621094"/>
    <use xlink:href="#DejaVuSans-6e" x="298.144531"/>
    <use xlink:href="#DejaVuSans-7a" x="361.523438"/>
    <use xlink:href="#DejaVuSans-76" x="414.013672"/>
    <use xlink:href="#DejaVuSans-65" x="473.193359"/>
    <use xlink:href="#DejaVuSans-72" x="534.716797"/>
    <use xlink:href="#DejaVuSans-6c" x="575.830078"/>
    <use xlink:href="#DejaVuSans-61" x="603.613281"/>
    <use xlink:href="#DejaVuSans-75" x="664.892578"/>
    <use xlink:href="#DejaVuSans-66" x="728.271484"/>
    <use xlink:href="#DejaVuSans-20" x="763.476562"/>
    <use xlink:href="#DejaVuSans-4c" x="795.263672"/>
    <use xlink:href="#DejaVuSans-4b" x="850.976562"/>
    <use xlink:href="#DejaVuSans-20" x="916.552734"/>
    <use xlink:href="#DejaVuSans-55" x="948.339844"/>
    <use xlink:href="#DejaVuSans-6e" x="1021.533203"/>
    <use xlink:href="#DejaVuSans-74" x="1084.912109"/>
    <use xlink:href="#DejaVuSans-65" x="1124.121094"/>
    <use xlink:href="#DejaVuSans-72" x="1185.644531"/>
    <use xlink:href="#DejaVuSans-61" x="1226.757812"/>
    <use xlink:href="#DejaVuSans-6c" x="1288.037109"/>
    <use xlink:href="#DejaVuSans-6c" x="1315.820312"/>
    <use xlink:href="#DejaVuSans-67" x="1343.603516"/>
    <use xlink:href="#DejaVuSans-e4" x="1407.080078"/>
    <use xlink:href="#DejaVuSans-75" x="1468.359375"/>
   </g>
  </g>
 </g>
 <defs>
  <clipPath id="pe37283e133">
   <rect x="57.6" y="41.472" width="357.12" height="235.008"/>
  </clipPath>
 </defs>
</svg>
