<?xml version="1.0" encoding="utf-8" standalone="no"?>
<!DOCTYPE svg PUBLIC "-//W3C//DTD SVG 1.1//EN"
  "http://www.w3.org/Graphics/SVG/1.1/DTD/svg11.dtd">
<svg xmlns:xlink="http://www.w3.org/1999/xlink" width="460.8pt" height="345.6pt" viewBox="0 0 460.8 345.6" xmlns="http://www.w3.org/2000/svg" version="1.1">
 <metadata>
  <rdf:RDF xmlns:dc="http://purl.org/dc/elements/1.1/" xmlns:cc="http://creativecommons.org/ns#" xmlns:rdf="http://www.w3.org/1999/02/22-rdf-syntax-ns#">
   <cc:Work>
    <dc:type rdf:resource="http://purl.org/dc/dcmitype/StillImage"/>
    <dc:date>2022-10-30T09:23:12.744479</dc:date>
    <dc:format>image/svg+xml</dc:format>
    <dc:creator>
     <cc:Agent>
      <dc:title>Matplotlib v3.6.1, https://matplotlib.org/</dc:title>
     </cc:Agent>
    </dc:creator>
   </cc:Work>
  </rdf:RDF>
 </metadata>
 <defs>
  <style type="text/css">*{stroke-linejoin: round; stroke-linecap: butt}</style>
 </defs>
 <g id="figure_1">
  <g id="patch_1">
   <path d="M 0 345.6 
L 460.8 345.6 
L 460.8 0 
L 0 0 
z
" style="fill: #ffffff"/>
  </g>
  <g id="axes_1">
   <g id="patch_2">
    <path d="M 57.6 276.48 
L 414.72 276.48 
L 414.72 41.472 
L 57.6 41.472 
z
" style="fill: #ffffff"/>
   </g>
   <g id="matplotlib.axis_1">
    <g id="xtick_1">
     <g id="line2d_1">
      <path d="M 61.89362 276.48 
L 61.89362 41.472 
" clip-path="url(#p5b2863934a)" style="fill: none; stroke-dasharray: 2.96,1.28; stroke-dashoffset: 0; stroke: #808080; stroke-width: 0.8"/>
     </g>
     <g id="line2d_2">
      <defs>
       <path id="m324584a1f4" d="M 0 0 
L 0 3.5 
" style="stroke: #000000; stroke-width: 0.8"/>
      </defs>
      <g>
       <use xlink:href="#m324584a1f4" x="61.89362" y="276.48" style="stroke: #000000; stroke-width: 0.8"/>
      </g>
     </g>
     <g id="text_1">
      <!-- 27.01.2020 -->
      <g transform="translate(11.26841 318.688565) rotate(-30) scale(0.1 -0.1)">
       <defs>
        <path id="DejaVuSans-32" d="M 1228 531 
L 3431 531 
L 3431 0 
L 469 0 
L 469 531 
Q 828 903 1448 1529 
Q 2069 2156 2228 2338 
Q 2531 2678 2651 2914 
Q 2772 3150 2772 3378 
Q 2772 3750 2511 3984 
Q 2250 4219 1831 4219 
Q 1534 4219 1204 4116 
Q 875 4013 500 3803 
L 500 4441 
Q 881 4594 1212 4672 
Q 1544 4750 1819 4750 
Q 2544 4750 2975 4387 
Q 3406 4025 3406 3419 
Q 3406 3131 3298 2873 
Q 3191 2616 2906 2266 
Q 2828 2175 2409 1742 
Q 1991 1309 1228 531 
z
" transform="scale(0.015625)"/>
        <path id="DejaVuSans-37" d="M 525 4666 
L 3525 4666 
L 3525 4397 
L 1831 0 
L 1172 0 
L 2766 4134 
L 525 4134 
L 525 4666 
z
" transform="scale(0.015625)"/>
        <path id="DejaVuSans-2e" d="M 684 794 
L 1344 794 
L 1344 0 
L 684 0 
L 684 794 
z
" transform="scale(0.015625)"/>
        <path id="DejaVuSans-30" d="M 2034 4250 
Q 1547 4250 1301 3770 
Q 1056 3291 1056 2328 
Q 1056 1369 1301 889 
Q 1547 409 2034 409 
Q 2525 409 2770 889 
Q 3016 1369 3016 2328 
Q 3016 3291 2770 3770 
Q 2525 4250 2034 4250 
z
M 2034 4750 
Q 2819 4750 3233 4129 
Q 3647 3509 3647 2328 
Q 3647 1150 3233 529 
Q 2819 -91 2034 -91 
Q 1250 -91 836 529 
Q 422 1150 422 2328 
Q 422 3509 836 4129 
Q 1250 4750 2034 4750 
z
" transform="scale(0.015625)"/>
        <path id="DejaVuSans-31" d="M 794 531 
L 1825 531 
L 1825 4091 
L 703 3866 
L 703 4441 
L 1819 4666 
L 2450 4666 
L 2450 531 
L 3481 531 
L 3481 0 
L 794 0 
L 794 531 
z
" transform="scale(0.015625)"/>
       </defs>
       <use xlink:href="#DejaVuSans-32"/>
       <use xlink:href="#DejaVuSans-37" x="63.623047"/>
       <use xlink:href="#DejaVuSans-2e" x="127.246094"/>
       <use xlink:href="#DejaVuSans-30" x="159.033203"/>
       <use xlink:href="#DejaVuSans-31" x="222.65625"/>
       <use xlink:href="#DejaVuSans-2e" x="286.279297"/>
       <use xlink:href="#DejaVuSans-32" x="318.066406"/>
       <use xlink:href="#DejaVuSans-30" x="381.689453"/>
       <use xlink:href="#DejaVuSans-32" x="445.3125"/>
       <use xlink:href="#DejaVuSans-30" x="508.935547"/>
      </g>
     </g>
    </g>
    <g id="xtick_2">
     <g id="line2d_3">
      <path d="M 98.003498 276.48 
L 98.003498 41.472 
" clip-path="url(#p5b2863934a)" style="fill: none; stroke-dasharray: 2.96,1.28; stroke-dashoffset: 0; stroke: #808080; stroke-width: 0.8"/>
     </g>
     <g id="line2d_4">
      <g>
       <use xlink:href="#m324584a1f4" x="98.003498" y="276.48" style="stroke: #000000; stroke-width: 0.8"/>
      </g>
     </g>
     <g id="text_2">
      <!-- 14.05.2020 -->
      <g transform="translate(47.378287 318.688565) rotate(-30) scale(0.1 -0.1)">
       <defs>
        <path id="DejaVuSans-34" d="M 2419 4116 
L 825 1625 
L 2419 1625 
L 2419 4116 
z
M 2253 4666 
L 3047 4666 
L 3047 1625 
L 3713 1625 
L 3713 1100 
L 3047 1100 
L 3047 0 
L 2419 0 
L 2419 1100 
L 313 1100 
L 313 1709 
L 2253 4666 
z
" transform="scale(0.015625)"/>
        <path id="DejaVuSans-35" d="M 691 4666 
L 3169 4666 
L 3169 4134 
L 1269 4134 
L 1269 2991 
Q 1406 3038 1543 3061 
Q 1681 3084 1819 3084 
Q 2600 3084 3056 2656 
Q 3513 2228 3513 1497 
Q 3513 744 3044 326 
Q 2575 -91 1722 -91 
Q 1428 -91 1123 -41 
Q 819 9 494 109 
L 494 744 
Q 775 591 1075 516 
Q 1375 441 1709 441 
Q 2250 441 2565 725 
Q 2881 1009 2881 1497 
Q 2881 1984 2565 2268 
Q 2250 2553 1709 2553 
Q 1456 2553 1204 2497 
Q 953 2441 691 2322 
L 691 4666 
z
" transform="scale(0.015625)"/>
       </defs>
       <use xlink:href="#DejaVuSans-31"/>
       <use xlink:href="#DejaVuSans-34" x="63.623047"/>
       <use xlink:href="#DejaVuSans-2e" x="127.246094"/>
       <use xlink:href="#DejaVuSans-30" x="159.033203"/>
       <use xlink:href="#DejaVuSans-35" x="222.65625"/>
       <use xlink:href="#DejaVuSans-2e" x="286.279297"/>
       <use xlink:href="#DejaVuSans-32" x="318.066406"/>
       <use xlink:href="#DejaVuSans-30" x="381.689453"/>
       <use xlink:href="#DejaVuSans-32" x="445.3125"/>
       <use xlink:href="#DejaVuSans-30" x="508.935547"/>
      </g>
     </g>
    </g>
    <g id="xtick_3">
     <g id="line2d_5">
      <path d="M 134.113375 276.48 
L 134.113375 41.472 
" clip-path="url(#p5b2863934a)" style="fill: none; stroke-dasharray: 2.96,1.28; stroke-dashoffset: 0; stroke: #808080; stroke-width: 0.8"/>
     </g>
     <g id="line2d_6">
      <g>
       <use xlink:href="#m324584a1f4" x="134.113375" y="276.48" style="stroke: #000000; stroke-width: 0.8"/>
      </g>
     </g>
     <g id="text_3">
      <!-- 30.08.2020 -->
      <g transform="translate(83.488164 318.688565) rotate(-30) scale(0.1 -0.1)">
       <defs>
        <path id="DejaVuSans-33" d="M 2597 2516 
Q 3050 2419 3304 2112 
Q 3559 1806 3559 1356 
Q 3559 666 3084 287 
Q 2609 -91 1734 -91 
Q 1441 -91 1130 -33 
Q 819 25 488 141 
L 488 750 
Q 750 597 1062 519 
Q 1375 441 1716 441 
Q 2309 441 2620 675 
Q 2931 909 2931 1356 
Q 2931 1769 2642 2001 
Q 2353 2234 1838 2234 
L 1294 2234 
L 1294 2753 
L 1863 2753 
Q 2328 2753 2575 2939 
Q 2822 3125 2822 3475 
Q 2822 3834 2567 4026 
Q 2313 4219 1838 4219 
Q 1578 4219 1281 4162 
Q 984 4106 628 3988 
L 628 4550 
Q 988 4650 1302 4700 
Q 1616 4750 1894 4750 
Q 2613 4750 3031 4423 
Q 3450 4097 3450 3541 
Q 3450 3153 3228 2886 
Q 3006 2619 2597 2516 
z
" transform="scale(0.015625)"/>
        <path id="DejaVuSans-38" d="M 2034 2216 
Q 1584 2216 1326 1975 
Q 1069 1734 1069 1313 
Q 1069 891 1326 650 
Q 1584 409 2034 409 
Q 2484 409 2743 651 
Q 3003 894 3003 1313 
Q 3003 1734 2745 1975 
Q 2488 2216 2034 2216 
z
M 1403 2484 
Q 997 2584 770 2862 
Q 544 3141 544 3541 
Q 544 4100 942 4425 
Q 1341 4750 2034 4750 
Q 2731 4750 3128 4425 
Q 3525 4100 3525 3541 
Q 3525 3141 3298 2862 
Q 3072 2584 2669 2484 
Q 3125 2378 3379 2068 
Q 3634 1759 3634 1313 
Q 3634 634 3220 271 
Q 2806 -91 2034 -91 
Q 1263 -91 848 271 
Q 434 634 434 1313 
Q 434 1759 690 2068 
Q 947 2378 1403 2484 
z
M 1172 3481 
Q 1172 3119 1398 2916 
Q 1625 2713 2034 2713 
Q 2441 2713 2670 2916 
Q 2900 3119 2900 3481 
Q 2900 3844 2670 4047 
Q 2441 4250 2034 4250 
Q 1625 4250 1398 4047 
Q 1172 3844 1172 3481 
z
" transform="scale(0.015625)"/>
       </defs>
       <use xlink:href="#DejaVuSans-33"/>
       <use xlink:href="#DejaVuSans-30" x="63.623047"/>
       <use xlink:href="#DejaVuSans-2e" x="127.246094"/>
       <use xlink:href="#DejaVuSans-30" x="159.033203"/>
       <use xlink:href="#DejaVuSans-38" x="222.65625"/>
       <use xlink:href="#DejaVuSans-2e" x="286.279297"/>
       <use xlink:href="#DejaVuSans-32" x="318.066406"/>
       <use xlink:href="#DejaVuSans-30" x="381.689453"/>
       <use xlink:href="#DejaVuSans-32" x="445.3125"/>
       <use xlink:href="#DejaVuSans-30" x="508.935547"/>
      </g>
     </g>
    </g>
    <g id="xtick_4">
     <g id="line2d_7">
      <path d="M 170.223253 276.48 
L 170.223253 41.472 
" clip-path="url(#p5b2863934a)" style="fill: none; stroke-dasharray: 2.96,1.28; stroke-dashoffset: 0; stroke: #808080; stroke-width: 0.8"/>
     </g>
     <g id="line2d_8">
      <g>
       <use xlink:href="#m324584a1f4" x="170.223253" y="276.48" style="stroke: #000000; stroke-width: 0.8"/>
      </g>
     </g>
     <g id="text_4">
      <!-- 16.12.2020 -->
      <g transform="translate(119.598042 318.688565) rotate(-30) scale(0.1 -0.1)">
       <defs>
        <path id="DejaVuSans-36" d="M 2113 2584 
Q 1688 2584 1439 2293 
Q 1191 2003 1191 1497 
Q 1191 994 1439 701 
Q 1688 409 2113 409 
Q 2538 409 2786 701 
Q 3034 994 3034 1497 
Q 3034 2003 2786 2293 
Q 2538 2584 2113 2584 
z
M 3366 4563 
L 3366 3988 
Q 3128 4100 2886 4159 
Q 2644 4219 2406 4219 
Q 1781 4219 1451 3797 
Q 1122 3375 1075 2522 
Q 1259 2794 1537 2939 
Q 1816 3084 2150 3084 
Q 2853 3084 3261 2657 
Q 3669 2231 3669 1497 
Q 3669 778 3244 343 
Q 2819 -91 2113 -91 
Q 1303 -91 875 529 
Q 447 1150 447 2328 
Q 447 3434 972 4092 
Q 1497 4750 2381 4750 
Q 2619 4750 2861 4703 
Q 3103 4656 3366 4563 
z
" transform="scale(0.015625)"/>
       </defs>
       <use xlink:href="#DejaVuSans-31"/>
       <use xlink:href="#DejaVuSans-36" x="63.623047"/>
       <use xlink:href="#DejaVuSans-2e" x="127.246094"/>
       <use xlink:href="#DejaVuSans-31" x="159.033203"/>
       <use xlink:href="#DejaVuSans-32" x="222.65625"/>
       <use xlink:href="#DejaVuSans-2e" x="286.279297"/>
       <use xlink:href="#DejaVuSans-32" x="318.066406"/>
       <use xlink:href="#DejaVuSans-30" x="381.689453"/>
       <use xlink:href="#DejaVuSans-32" x="445.3125"/>
       <use xlink:href="#DejaVuSans-30" x="508.935547"/>
      </g>
     </g>
    </g>
    <g id="xtick_5">
     <g id="line2d_9">
      <path d="M 206.33313 276.48 
L 206.33313 41.472 
" clip-path="url(#p5b2863934a)" style="fill: none; stroke-dasharray: 2.96,1.28; stroke-dashoffset: 0; stroke: #808080; stroke-width: 0.8"/>
     </g>
     <g id="line2d_10">
      <g>
       <use xlink:href="#m324584a1f4" x="206.33313" y="276.48" style="stroke: #000000; stroke-width: 0.8"/>
      </g>
     </g>
     <g id="text_5">
      <!-- 03.04.2021 -->
      <g transform="translate(155.707919 318.688565) rotate(-30) scale(0.1 -0.1)">
       <use xlink:href="#DejaVuSans-30"/>
       <use xlink:href="#DejaVuSans-33" x="63.623047"/>
       <use xlink:href="#DejaVuSans-2e" x="127.246094"/>
       <use xlink:href="#DejaVuSans-30" x="159.033203"/>
       <use xlink:href="#DejaVuSans-34" x="222.65625"/>
       <use xlink:href="#DejaVuSans-2e" x="286.279297"/>
       <use xlink:href="#DejaVuSans-32" x="318.066406"/>
       <use xlink:href="#DejaVuSans-30" x="381.689453"/>
       <use xlink:href="#DejaVuSans-32" x="445.3125"/>
       <use xlink:href="#DejaVuSans-31" x="508.935547"/>
      </g>
     </g>
    </g>
    <g id="xtick_6">
     <g id="line2d_11">
      <path d="M 242.443007 276.48 
L 242.443007 41.472 
" clip-path="url(#p5b2863934a)" style="fill: none; stroke-dasharray: 2.96,1.28; stroke-dashoffset: 0; stroke: #808080; stroke-width: 0.8"/>
     </g>
     <g id="line2d_12">
      <g>
       <use xlink:href="#m324584a1f4" x="242.443007" y="276.48" style="stroke: #000000; stroke-width: 0.8"/>
      </g>
     </g>
     <g id="text_6">
      <!-- 20.07.2021 -->
      <g transform="translate(191.817796 318.688565) rotate(-30) scale(0.1 -0.1)">
       <use xlink:href="#DejaVuSans-32"/>
       <use xlink:href="#DejaVuSans-30" x="63.623047"/>
       <use xlink:href="#DejaVuSans-2e" x="127.246094"/>
       <use xlink:href="#DejaVuSans-30" x="159.033203"/>
       <use xlink:href="#DejaVuSans-37" x="222.65625"/>
       <use xlink:href="#DejaVuSans-2e" x="286.279297"/>
       <use xlink:href="#DejaVuSans-32" x="318.066406"/>
       <use xlink:href="#DejaVuSans-30" x="381.689453"/>
       <use xlink:href="#DejaVuSans-32" x="445.3125"/>
       <use xlink:href="#DejaVuSans-31" x="508.935547"/>
      </g>
     </g>
    </g>
    <g id="xtick_7">
     <g id="line2d_13">
      <path d="M 278.552885 276.48 
L 278.552885 41.472 
" clip-path="url(#p5b2863934a)" style="fill: none; stroke-dasharray: 2.96,1.28; stroke-dashoffset: 0; stroke: #808080; stroke-width: 0.8"/>
     </g>
     <g id="line2d_14">
      <g>
       <use xlink:href="#m324584a1f4" x="278.552885" y="276.48" style="stroke: #000000; stroke-width: 0.8"/>
      </g>
     </g>
     <g id="text_7">
      <!-- 05.11.2021 -->
      <g transform="translate(227.927674 318.688565) rotate(-30) scale(0.1 -0.1)">
       <use xlink:href="#DejaVuSans-30"/>
       <use xlink:href="#DejaVuSans-35" x="63.623047"/>
       <use xlink:href="#DejaVuSans-2e" x="127.246094"/>
       <use xlink:href="#DejaVuSans-31" x="159.033203"/>
       <use xlink:href="#DejaVuSans-31" x="222.65625"/>
       <use xlink:href="#DejaVuSans-2e" x="286.279297"/>
       <use xlink:href="#DejaVuSans-32" x="318.066406"/>
       <use xlink:href="#DejaVuSans-30" x="381.689453"/>
       <use xlink:href="#DejaVuSans-32" x="445.3125"/>
       <use xlink:href="#DejaVuSans-31" x="508.935547"/>
      </g>
     </g>
    </g>
    <g id="xtick_8">
     <g id="line2d_15">
      <path d="M 314.662762 276.48 
L 314.662762 41.472 
" clip-path="url(#p5b2863934a)" style="fill: none; stroke-dasharray: 2.96,1.28; stroke-dashoffset: 0; stroke: #808080; stroke-width: 0.8"/>
     </g>
     <g id="line2d_16">
      <g>
       <use xlink:href="#m324584a1f4" x="314.662762" y="276.48" style="stroke: #000000; stroke-width: 0.8"/>
      </g>
     </g>
     <g id="text_8">
      <!-- 21.02.2022 -->
      <g transform="translate(264.037551 318.688565) rotate(-30) scale(0.1 -0.1)">
       <use xlink:href="#DejaVuSans-32"/>
       <use xlink:href="#DejaVuSans-31" x="63.623047"/>
       <use xlink:href="#DejaVuSans-2e" x="127.246094"/>
       <use xlink:href="#DejaVuSans-30" x="159.033203"/>
       <use xlink:href="#DejaVuSans-32" x="222.65625"/>
       <use xlink:href="#DejaVuSans-2e" x="286.279297"/>
       <use xlink:href="#DejaVuSans-32" x="318.066406"/>
       <use xlink:href="#DejaVuSans-30" x="381.689453"/>
       <use xlink:href="#DejaVuSans-32" x="445.3125"/>
       <use xlink:href="#DejaVuSans-32" x="508.935547"/>
      </g>
     </g>
    </g>
    <g id="xtick_9">
     <g id="line2d_17">
      <path d="M 350.772639 276.48 
L 350.772639 41.472 
" clip-path="url(#p5b2863934a)" style="fill: none; stroke-dasharray: 2.96,1.28; stroke-dashoffset: 0; stroke: #808080; stroke-width: 0.8"/>
     </g>
     <g id="line2d_18">
      <g>
       <use xlink:href="#m324584a1f4" x="350.772639" y="276.48" style="stroke: #000000; stroke-width: 0.8"/>
      </g>
     </g>
     <g id="text_9">
      <!-- 09.06.2022 -->
      <g transform="translate(300.147428 318.688565) rotate(-30) scale(0.1 -0.1)">
       <defs>
        <path id="DejaVuSans-39" d="M 703 97 
L 703 672 
Q 941 559 1184 500 
Q 1428 441 1663 441 
Q 2288 441 2617 861 
Q 2947 1281 2994 2138 
Q 2813 1869 2534 1725 
Q 2256 1581 1919 1581 
Q 1219 1581 811 2004 
Q 403 2428 403 3163 
Q 403 3881 828 4315 
Q 1253 4750 1959 4750 
Q 2769 4750 3195 4129 
Q 3622 3509 3622 2328 
Q 3622 1225 3098 567 
Q 2575 -91 1691 -91 
Q 1453 -91 1209 -44 
Q 966 3 703 97 
z
M 1959 2075 
Q 2384 2075 2632 2365 
Q 2881 2656 2881 3163 
Q 2881 3666 2632 3958 
Q 2384 4250 1959 4250 
Q 1534 4250 1286 3958 
Q 1038 3666 1038 3163 
Q 1038 2656 1286 2365 
Q 1534 2075 1959 2075 
z
" transform="scale(0.015625)"/>
       </defs>
       <use xlink:href="#DejaVuSans-30"/>
       <use xlink:href="#DejaVuSans-39" x="63.623047"/>
       <use xlink:href="#DejaVuSans-2e" x="127.246094"/>
       <use xlink:href="#DejaVuSans-30" x="159.033203"/>
       <use xlink:href="#DejaVuSans-36" x="222.65625"/>
       <use xlink:href="#DejaVuSans-2e" x="286.279297"/>
       <use xlink:href="#DejaVuSans-32" x="318.066406"/>
       <use xlink:href="#DejaVuSans-30" x="381.689453"/>
       <use xlink:href="#DejaVuSans-32" x="445.3125"/>
       <use xlink:href="#DejaVuSans-32" x="508.935547"/>
      </g>
     </g>
    </g>
    <g id="xtick_10">
     <g id="line2d_19">
      <path d="M 386.882517 276.48 
L 386.882517 41.472 
" clip-path="url(#p5b2863934a)" style="fill: none; stroke-dasharray: 2.96,1.28; stroke-dashoffset: 0; stroke: #808080; stroke-width: 0.8"/>
     </g>
     <g id="line2d_20">
      <g>
       <use xlink:href="#m324584a1f4" x="386.882517" y="276.48" style="stroke: #000000; stroke-width: 0.8"/>
      </g>
     </g>
     <g id="text_10">
      <!-- 25.09.2022 -->
      <g transform="translate(336.257306 318.688565) rotate(-30) scale(0.1 -0.1)">
       <use xlink:href="#DejaVuSans-32"/>
       <use xlink:href="#DejaVuSans-35" x="63.623047"/>
       <use xlink:href="#DejaVuSans-2e" x="127.246094"/>
       <use xlink:href="#DejaVuSans-30" x="159.033203"/>
       <use xlink:href="#DejaVuSans-39" x="222.65625"/>
       <use xlink:href="#DejaVuSans-2e" x="286.279297"/>
       <use xlink:href="#DejaVuSans-32" x="318.066406"/>
       <use xlink:href="#DejaVuSans-30" x="381.689453"/>
       <use xlink:href="#DejaVuSans-32" x="445.3125"/>
       <use xlink:href="#DejaVuSans-32" x="508.935547"/>
      </g>
     </g>
    </g>
   </g>
   <g id="matplotlib.axis_2">
    <g id="ytick_1">
     <g id="line2d_21">
      <path d="M 57.6 265.797818 
L 414.72 265.797818 
" clip-path="url(#p5b2863934a)" style="fill: none; stroke-dasharray: 2.96,1.28; stroke-dashoffset: 0; stroke: #808080; stroke-width: 0.8"/>
     </g>
     <g id="line2d_22">
      <defs>
       <path id="mabdf3522e3" d="M 0 0 
L -3.5 0 
" style="stroke: #000000; stroke-width: 0.8"/>
      </defs>
      <g>
       <use xlink:href="#mabdf3522e3" x="57.6" y="265.797818" style="stroke: #000000; stroke-width: 0.8"/>
      </g>
     </g>
     <g id="text_11">
      <!-- 0 -->
      <g transform="translate(44.2375 269.597037) scale(0.1 -0.1)">
       <use xlink:href="#DejaVuSans-30"/>
      </g>
     </g>
    </g>
    <g id="ytick_2">
     <g id="line2d_23">
      <path d="M 57.6 219.427614 
L 414.72 219.427614 
" clip-path="url(#p5b2863934a)" style="fill: none; stroke-dasharray: 2.96,1.28; stroke-dashoffset: 0; stroke: #808080; stroke-width: 0.8"/>
     </g>
     <g id="line2d_24">
      <g>
       <use xlink:href="#mabdf3522e3" x="57.6" y="219.427614" style="stroke: #000000; stroke-width: 0.8"/>
      </g>
     </g>
     <g id="text_12">
      <!-- 500 -->
      <g transform="translate(31.5125 223.226833) scale(0.1 -0.1)">
       <use xlink:href="#DejaVuSans-35"/>
       <use xlink:href="#DejaVuSans-30" x="63.623047"/>
       <use xlink:href="#DejaVuSans-30" x="127.246094"/>
      </g>
     </g>
    </g>
    <g id="ytick_3">
     <g id="line2d_25">
      <path d="M 57.6 173.05741 
L 414.72 173.05741 
" clip-path="url(#p5b2863934a)" style="fill: none; stroke-dasharray: 2.96,1.28; stroke-dashoffset: 0; stroke: #808080; stroke-width: 0.8"/>
     </g>
     <g id="line2d_26">
      <g>
       <use xlink:href="#mabdf3522e3" x="57.6" y="173.05741" style="stroke: #000000; stroke-width: 0.8"/>
      </g>
     </g>
     <g id="text_13">
      <!-- 1000 -->
      <g transform="translate(25.15 176.856629) scale(0.1 -0.1)">
       <use xlink:href="#DejaVuSans-31"/>
       <use xlink:href="#DejaVuSans-30" x="63.623047"/>
       <use xlink:href="#DejaVuSans-30" x="127.246094"/>
       <use xlink:href="#DejaVuSans-30" x="190.869141"/>
      </g>
     </g>
    </g>
    <g id="ytick_4">
     <g id="line2d_27">
      <path d="M 57.6 126.687206 
L 414.72 126.687206 
" clip-path="url(#p5b2863934a)" style="fill: none; stroke-dasharray: 2.96,1.28; stroke-dashoffset: 0; stroke: #808080; stroke-width: 0.8"/>
     </g>
     <g id="line2d_28">
      <g>
       <use xlink:href="#mabdf3522e3" x="57.6" y="126.687206" style="stroke: #000000; stroke-width: 0.8"/>
      </g>
     </g>
     <g id="text_14">
      <!-- 1500 -->
      <g transform="translate(25.15 130.486425) scale(0.1 -0.1)">
       <use xlink:href="#DejaVuSans-31"/>
       <use xlink:href="#DejaVuSans-35" x="63.623047"/>
       <use xlink:href="#DejaVuSans-30" x="127.246094"/>
       <use xlink:href="#DejaVuSans-30" x="190.869141"/>
      </g>
     </g>
    </g>
    <g id="ytick_5">
     <g id="line2d_29">
      <path d="M 57.6 80.317002 
L 414.72 80.317002 
" clip-path="url(#p5b2863934a)" style="fill: none; stroke-dasharray: 2.96,1.28; stroke-dashoffset: 0; stroke: #808080; stroke-width: 0.8"/>
     </g>
     <g id="line2d_30">
      <g>
       <use xlink:href="#mabdf3522e3" x="57.6" y="80.317002" style="stroke: #000000; stroke-width: 0.8"/>
      </g>
     </g>
     <g id="text_15">
      <!-- 2000 -->
      <g transform="translate(25.15 84.116221) scale(0.1 -0.1)">
       <use xlink:href="#DejaVuSans-32"/>
       <use xlink:href="#DejaVuSans-30" x="63.623047"/>
       <use xlink:href="#DejaVuSans-30" x="127.246094"/>
       <use xlink:href="#DejaVuSans-30" x="190.869141"/>
      </g>
     </g>
    </g>
    <g id="text_16">
     <!-- Inzidenz pro 7 Tage pro 100.000 Einwohner -->
     <g transform="translate(19.070312 267.301) rotate(-90) scale(0.1 -0.1)">
      <defs>
       <path id="DejaVuSans-49" d="M 628 4666 
L 1259 4666 
L 1259 0 
L 628 0 
L 628 4666 
z
" transform="scale(0.015625)"/>
       <path id="DejaVuSans-6e" d="M 3513 2113 
L 3513 0 
L 2938 0 
L 2938 2094 
Q 2938 2591 2744 2837 
Q 2550 3084 2163 3084 
Q 1697 3084 1428 2787 
Q 1159 2491 1159 1978 
L 1159 0 
L 581 0 
L 581 3500 
L 1159 3500 
L 1159 2956 
Q 1366 3272 1645 3428 
Q 1925 3584 2291 3584 
Q 2894 3584 3203 3211 
Q 3513 2838 3513 2113 
z
" transform="scale(0.015625)"/>
       <path id="DejaVuSans-7a" d="M 353 3500 
L 3084 3500 
L 3084 2975 
L 922 459 
L 3084 459 
L 3084 0 
L 275 0 
L 275 525 
L 2438 3041 
L 353 3041 
L 353 3500 
z
" transform="scale(0.015625)"/>
       <path id="DejaVuSans-69" d="M 603 3500 
L 1178 3500 
L 1178 0 
L 603 0 
L 603 3500 
z
M 603 4863 
L 1178 4863 
L 1178 4134 
L 603 4134 
L 603 4863 
z
" transform="scale(0.015625)"/>
       <path id="DejaVuSans-64" d="M 2906 2969 
L 2906 4863 
L 3481 4863 
L 3481 0 
L 2906 0 
L 2906 525 
Q 2725 213 2448 61 
Q 2172 -91 1784 -91 
Q 1150 -91 751 415 
Q 353 922 353 1747 
Q 353 2572 751 3078 
Q 1150 3584 1784 3584 
Q 2172 3584 2448 3432 
Q 2725 3281 2906 2969 
z
M 947 1747 
Q 947 1113 1208 752 
Q 1469 391 1925 391 
Q 2381 391 2643 752 
Q 2906 1113 2906 1747 
Q 2906 2381 2643 2742 
Q 2381 3103 1925 3103 
Q 1469 3103 1208 2742 
Q 947 2381 947 1747 
z
" transform="scale(0.015625)"/>
       <path id="DejaVuSans-65" d="M 3597 1894 
L 3597 1613 
L 953 1613 
Q 991 1019 1311 708 
Q 1631 397 2203 397 
Q 2534 397 2845 478 
Q 3156 559 3463 722 
L 3463 178 
Q 3153 47 2828 -22 
Q 2503 -91 2169 -91 
Q 1331 -91 842 396 
Q 353 884 353 1716 
Q 353 2575 817 3079 
Q 1281 3584 2069 3584 
Q 2775 3584 3186 3129 
Q 3597 2675 3597 1894 
z
M 3022 2063 
Q 3016 2534 2758 2815 
Q 2500 3097 2075 3097 
Q 1594 3097 1305 2825 
Q 1016 2553 972 2059 
L 3022 2063 
z
" transform="scale(0.015625)"/>
       <path id="DejaVuSans-20" transform="scale(0.015625)"/>
       <path id="DejaVuSans-70" d="M 1159 525 
L 1159 -1331 
L 581 -1331 
L 581 3500 
L 1159 3500 
L 1159 2969 
Q 1341 3281 1617 3432 
Q 1894 3584 2278 3584 
Q 2916 3584 3314 3078 
Q 3713 2572 3713 1747 
Q 3713 922 3314 415 
Q 2916 -91 2278 -91 
Q 1894 -91 1617 61 
Q 1341 213 1159 525 
z
M 3116 1747 
Q 3116 2381 2855 2742 
Q 2594 3103 2138 3103 
Q 1681 3103 1420 2742 
Q 1159 2381 1159 1747 
Q 1159 1113 1420 752 
Q 1681 391 2138 391 
Q 2594 391 2855 752 
Q 3116 1113 3116 1747 
z
" transform="scale(0.015625)"/>
       <path id="DejaVuSans-72" d="M 2631 2963 
Q 2534 3019 2420 3045 
Q 2306 3072 2169 3072 
Q 1681 3072 1420 2755 
Q 1159 2438 1159 1844 
L 1159 0 
L 581 0 
L 581 3500 
L 1159 3500 
L 1159 2956 
Q 1341 3275 1631 3429 
Q 1922 3584 2338 3584 
Q 2397 3584 2469 3576 
Q 2541 3569 2628 3553 
L 2631 2963 
z
" transform="scale(0.015625)"/>
       <path id="DejaVuSans-6f" d="M 1959 3097 
Q 1497 3097 1228 2736 
Q 959 2375 959 1747 
Q 959 1119 1226 758 
Q 1494 397 1959 397 
Q 2419 397 2687 759 
Q 2956 1122 2956 1747 
Q 2956 2369 2687 2733 
Q 2419 3097 1959 3097 
z
M 1959 3584 
Q 2709 3584 3137 3096 
Q 3566 2609 3566 1747 
Q 3566 888 3137 398 
Q 2709 -91 1959 -91 
Q 1206 -91 779 398 
Q 353 888 353 1747 
Q 353 2609 779 3096 
Q 1206 3584 1959 3584 
z
" transform="scale(0.015625)"/>
       <path id="DejaVuSans-54" d="M -19 4666 
L 3928 4666 
L 3928 4134 
L 2272 4134 
L 2272 0 
L 1638 0 
L 1638 4134 
L -19 4134 
L -19 4666 
z
" transform="scale(0.015625)"/>
       <path id="DejaVuSans-61" d="M 2194 1759 
Q 1497 1759 1228 1600 
Q 959 1441 959 1056 
Q 959 750 1161 570 
Q 1363 391 1709 391 
Q 2188 391 2477 730 
Q 2766 1069 2766 1631 
L 2766 1759 
L 2194 1759 
z
M 3341 1997 
L 3341 0 
L 2766 0 
L 2766 531 
Q 2569 213 2275 61 
Q 1981 -91 1556 -91 
Q 1019 -91 701 211 
Q 384 513 384 1019 
Q 384 1609 779 1909 
Q 1175 2209 1959 2209 
L 2766 2209 
L 2766 2266 
Q 2766 2663 2505 2880 
Q 2244 3097 1772 3097 
Q 1472 3097 1187 3025 
Q 903 2953 641 2809 
L 641 3341 
Q 956 3463 1253 3523 
Q 1550 3584 1831 3584 
Q 2591 3584 2966 3190 
Q 3341 2797 3341 1997 
z
" transform="scale(0.015625)"/>
       <path id="DejaVuSans-67" d="M 2906 1791 
Q 2906 2416 2648 2759 
Q 2391 3103 1925 3103 
Q 1463 3103 1205 2759 
Q 947 2416 947 1791 
Q 947 1169 1205 825 
Q 1463 481 1925 481 
Q 2391 481 2648 825 
Q 2906 1169 2906 1791 
z
M 3481 434 
Q 3481 -459 3084 -895 
Q 2688 -1331 1869 -1331 
Q 1566 -1331 1297 -1286 
Q 1028 -1241 775 -1147 
L 775 -588 
Q 1028 -725 1275 -790 
Q 1522 -856 1778 -856 
Q 2344 -856 2625 -561 
Q 2906 -266 2906 331 
L 2906 616 
Q 2728 306 2450 153 
Q 2172 0 1784 0 
Q 1141 0 747 490 
Q 353 981 353 1791 
Q 353 2603 747 3093 
Q 1141 3584 1784 3584 
Q 2172 3584 2450 3431 
Q 2728 3278 2906 2969 
L 2906 3500 
L 3481 3500 
L 3481 434 
z
" transform="scale(0.015625)"/>
       <path id="DejaVuSans-45" d="M 628 4666 
L 3578 4666 
L 3578 4134 
L 1259 4134 
L 1259 2753 
L 3481 2753 
L 3481 2222 
L 1259 2222 
L 1259 531 
L 3634 531 
L 3634 0 
L 628 0 
L 628 4666 
z
" transform="scale(0.015625)"/>
       <path id="DejaVuSans-77" d="M 269 3500 
L 844 3500 
L 1563 769 
L 2278 3500 
L 2956 3500 
L 3675 769 
L 4391 3500 
L 4966 3500 
L 4050 0 
L 3372 0 
L 2619 2869 
L 1863 0 
L 1184 0 
L 269 3500 
z
" transform="scale(0.015625)"/>
       <path id="DejaVuSans-68" d="M 3513 2113 
L 3513 0 
L 2938 0 
L 2938 2094 
Q 2938 2591 2744 2837 
Q 2550 3084 2163 3084 
Q 1697 3084 1428 2787 
Q 1159 2491 1159 1978 
L 1159 0 
L 581 0 
L 581 4863 
L 1159 4863 
L 1159 2956 
Q 1366 3272 1645 3428 
Q 1925 3584 2291 3584 
Q 2894 3584 3203 3211 
Q 3513 2838 3513 2113 
z
" transform="scale(0.015625)"/>
      </defs>
      <use xlink:href="#DejaVuSans-49"/>
      <use xlink:href="#DejaVuSans-6e" x="29.492188"/>
      <use xlink:href="#DejaVuSans-7a" x="92.871094"/>
      <use xlink:href="#DejaVuSans-69" x="145.361328"/>
      <use xlink:href="#DejaVuSans-64" x="173.144531"/>
      <use xlink:href="#DejaVuSans-65" x="236.621094"/>
      <use xlink:href="#DejaVuSans-6e" x="298.144531"/>
      <use xlink:href="#DejaVuSans-7a" x="361.523438"/>
      <use xlink:href="#DejaVuSans-20" x="414.013672"/>
      <use xlink:href="#DejaVuSans-70" x="445.800781"/>
      <use xlink:href="#DejaVuSans-72" x="509.277344"/>
      <use xlink:href="#DejaVuSans-6f" x="548.140625"/>
      <use xlink:href="#DejaVuSans-20" x="609.322266"/>
      <use xlink:href="#DejaVuSans-37" x="641.109375"/>
      <use xlink:href="#DejaVuSans-20" x="704.732422"/>
      <use xlink:href="#DejaVuSans-54" x="736.519531"/>
      <use xlink:href="#DejaVuSans-61" x="781.103516"/>
      <use xlink:href="#DejaVuSans-67" x="842.382812"/>
      <use xlink:href="#DejaVuSans-65" x="905.859375"/>
      <use xlink:href="#DejaVuSans-20" x="967.382812"/>
      <use xlink:href="#DejaVuSans-70" x="999.169922"/>
      <use xlink:href="#DejaVuSans-72" x="1062.646484"/>
      <use xlink:href="#DejaVuSans-6f" x="1101.509766"/>
      <use xlink:href="#DejaVuSans-20" x="1162.691406"/>
      <use xlink:href="#DejaVuSans-31" x="1194.478516"/>
      <use xlink:href="#DejaVuSans-30" x="1258.101562"/>
      <use xlink:href="#DejaVuSans-30" x="1321.724609"/>
      <use xlink:href="#DejaVuSans-2e" x="1385.347656"/>
      <use xlink:href="#DejaVuSans-30" x="1417.134766"/>
      <use xlink:href="#DejaVuSans-30" x="1480.757812"/>
      <use xlink:href="#DejaVuSans-30" x="1544.380859"/>
      <use xlink:href="#DejaVuSans-20" x="1608.003906"/>
      <use xlink:href="#DejaVuSans-45" x="1639.791016"/>
      <use xlink:href="#DejaVuSans-69" x="1702.974609"/>
      <use xlink:href="#DejaVuSans-6e" x="1730.757812"/>
      <use xlink:href="#DejaVuSans-77" x="1794.136719"/>
      <use xlink:href="#DejaVuSans-6f" x="1875.923828"/>
      <use xlink:href="#DejaVuSans-68" x="1937.105469"/>
      <use xlink:href="#DejaVuSans-6e" x="2000.484375"/>
      <use xlink:href="#DejaVuSans-65" x="2063.863281"/>
      <use xlink:href="#DejaVuSans-72" x="2125.386719"/>
     </g>
    </g>
   </g>
   <g id="line2d_31">
    <path d="M 73.832727 265.797818 
L 76.173182 265.703878 
L 77.844936 265.539482 
L 78.513637 265.445542 
L 79.182339 264.952356 
L 79.85104 264.811445 
L 80.185391 264.529625 
L 80.854092 264.388714 
L 81.188443 263.942498 
L 81.522794 263.919013 
L 82.525846 263.449312 
L 83.194547 263.590222 
L 83.528898 264.083408 
L 83.863249 263.848558 
L 84.197599 263.801588 
L 84.866301 262.93264 
L 85.200652 262.650819 
L 85.535002 262.157633 
L 85.869353 262.016723 
L 86.203704 262.486424 
L 86.538054 262.392484 
L 87.206756 263.496282 
L 87.875457 263.707647 
L 88.209808 263.989468 
L 88.544159 263.472797 
L 88.87851 263.261431 
L 89.21286 262.79173 
L 89.547211 262.79173 
L 89.881562 262.603849 
L 90.215912 262.768245 
L 90.550263 262.533394 
L 91.218965 263.425827 
L 91.553315 264.153864 
L 91.887666 264.036438 
L 92.556367 264.670535 
L 93.225069 264.952356 
L 93.55942 264.811445 
L 93.89377 264.811445 
L 94.228121 265.046296 
L 94.896822 264.999326 
L 95.231173 265.093266 
L 95.565524 265.069781 
L 95.899875 265.281147 
L 97.571628 265.375087 
L 98.57468 265.680393 
L 99.243382 265.586453 
L 99.577732 265.586453 
L 100.246434 265.422057 
L 100.915135 265.445542 
L 101.249486 265.586453 
L 101.918187 265.609938 
L 102.586889 265.774333 
L 106.599097 265.586453 
L 107.9365 265.539482 
L 108.605202 265.304632 
L 109.608254 265.210692 
L 109.942605 264.999326 
L 110.611306 265.046296 
L 110.945657 265.140236 
L 111.614358 265.069781 
L 111.948709 264.952356 
L 112.28306 265.093266 
L 112.951761 265.046296 
L 113.954813 265.093266 
L 114.957865 265.469027 
L 115.960918 265.515997 
L 117.29832 265.515997 
L 117.967022 265.422057 
L 118.635723 265.375087 
L 119.638775 265.398572 
L 120.307477 265.492512 
L 120.641828 265.445542 
L 121.310529 265.539482 
L 121.64488 265.492512 
L 121.97923 265.046296 
L 122.647932 264.881901 
L 123.316633 264.64705 
L 123.985335 264.177349 
L 124.319685 264.50614 
L 125.322738 264.200834 
L 125.991439 263.895528 
L 126.32579 263.919013 
L 126.994491 263.519767 
L 127.328842 263.613707 
L 127.997543 263.472797 
L 128.331894 263.214461 
L 128.666245 263.214461 
L 129.334946 263.707647 
L 129.669297 263.684162 
L 130.003648 263.942498 
L 130.672349 264.928871 
L 131.34105 265.069781 
L 132.009752 265.022811 
L 132.344103 265.093266 
L 132.678453 264.905386 
L 134.350207 264.834931 
L 134.684558 264.764475 
L 136.356311 265.210692 
L 136.690662 265.328117 
L 137.025013 265.304632 
L 137.693714 265.445542 
L 138.696766 265.281147 
L 139.699818 265.281147 
L 140.034169 265.116751 
L 140.702871 264.999326 
L 141.037221 264.811445 
L 142.040273 264.78796 
L 143.043326 264.529625 
L 143.377676 264.623565 
L 144.046378 264.341744 
L 144.715079 263.942498 
L 145.04943 263.731132 
L 145.383781 263.050066 
L 145.718131 262.69779 
L 146.386833 262.815215 
L 147.055534 261.053835 
L 147.389885 260.865955 
L 148.058586 259.997007 
L 148.392937 259.903067 
L 149.061638 259.104575 
L 149.395989 259.550791 
L 149.73034 258.306082 
L 150.064691 258.024262 
L 150.399041 258.446993 
L 150.733392 257.343195 
L 151.067743 256.685613 
L 151.402093 256.685613 
L 151.736444 255.863636 
L 152.070795 255.393934 
L 152.405146 255.628785 
L 152.739496 253.84392 
L 153.073847 254.055286 
L 153.408198 253.961345 
L 153.742548 254.219681 
L 154.076899 253.280279 
L 154.41125 248.982512 
L 155.079951 244.70823 
L 155.414302 244.402924 
L 156.083003 241.208955 
L 156.417354 242.171843 
L 156.751705 245.788543 
L 157.086056 247.737803 
L 157.420406 248.959027 
L 157.754757 248.818116 
L 158.089108 249.804489 
L 158.423458 249.358273 
L 158.757809 249.123422 
L 159.09216 248.348415 
L 159.426511 246.680975 
L 159.760861 248.23099 
L 160.095212 248.982512 
L 160.429563 246.892341 
L 160.763913 248.536295 
L 161.098264 248.771146 
L 161.766966 250.814347 
L 162.101316 250.250705 
L 162.435667 246.258244 
L 163.104369 245.553692 
L 163.438719 244.402924 
L 163.77307 243.839282 
L 164.107421 244.003678 
L 164.441771 244.355954 
L 165.110473 251.471929 
L 165.779174 249.874944 
L 166.113525 250.415101 
L 166.447876 249.851459 
L 166.782226 250.509041 
L 167.116577 248.653721 
L 167.450928 248.3719 
L 167.785279 244.144588 
L 168.119629 246.868856 
L 168.45398 243.416551 
L 168.788331 241.349866 
L 169.122681 240.762739 
L 169.457032 242.101388 
L 169.791383 242.054417 
L 170.125734 245.342327 
L 170.460084 243.792312 
L 170.794435 247.596893 
L 171.128786 249.781004 
L 171.463136 250.109795 
L 172.131838 251.518899 
L 172.466189 251.096167 
L 172.800539 249.616608 
L 173.13489 248.724176 
L 173.803591 251.354503 
L 174.472293 252.059055 
L 174.806644 252.834062 
L 175.140994 254.360592 
L 175.475345 254.078771 
L 175.809696 254.994688 
L 176.144046 254.783323 
L 176.478397 254.947718 
L 176.812748 254.031801 
L 177.147099 255.159084 
L 177.481449 253.89089 
L 177.8158 254.877263 
L 178.484501 250.955257 
L 178.818852 251.025712 
L 179.153203 251.706779 
L 179.487554 251.190108 
L 179.821904 252.857547 
L 180.156255 253.139368 
L 180.824956 254.759838 
L 181.493658 254.712867 
L 182.49671 255.51136 
L 182.831061 255.51136 
L 183.165411 254.712867 
L 183.834113 254.689382 
L 184.168464 255.69924 
L 185.171516 256.990919 
L 185.505866 257.906836 
L 186.174568 258.188657 
L 186.508919 258.047747 
L 186.843269 258.141687 
L 187.17762 258.963664 
L 187.846322 259.621246 
L 188.515023 259.621246 
L 189.183724 260.865955 
L 189.518075 260.607619 
L 189.852426 260.654589 
L 190.186777 260.93641 
L 190.521127 260.560649 
L 191.189829 260.184888 
L 191.524179 259.691701 
L 191.85853 259.715186 
L 192.527232 259.198515 
L 192.861582 259.339425 
L 193.195933 259.668216 
L 193.530284 259.12806 
L 193.864634 259.245485 
L 194.533336 258.799269 
L 194.867687 258.752299 
L 195.202037 259.151545 
L 195.536388 259.104575 
L 195.870739 259.550791 
L 196.53944 259.856097 
L 196.873791 260.631104 
L 197.876843 260.584134 
L 198.211194 260.184888 
L 198.545544 260.513679 
L 198.879895 260.419738 
L 199.214246 259.832612 
L 199.548597 260.043977 
L 200.551649 259.503821 
L 200.885999 259.151545 
L 201.22035 259.26897 
L 201.554701 259.17503 
L 201.889052 258.634873 
L 202.892104 258.963664 
L 203.226454 257.742441 
L 203.895156 256.497732 
L 204.563857 256.403792 
L 205.232559 255.675755 
L 205.566909 255.816666 
L 205.90126 255.6053 
L 206.235611 255.722725 
L 206.569962 256.990919 
L 206.904312 256.826523 
L 207.238663 256.098486 
L 207.573014 257.930321 
L 207.907364 258.000777 
L 208.241715 257.131829 
L 208.910417 253.021943 
L 209.244767 252.740122 
L 209.579118 253.397704 
L 209.913469 249.851459 
L 210.247819 247.949169 
L 210.916521 247.056736 
L 211.250872 245.694603 
L 211.585222 246.046879 
L 211.919573 245.905968 
L 212.253924 246.046879 
L 212.588275 245.130961 
L 212.922625 243.886253 
L 213.256976 243.698372 
L 213.591327 244.215043 
L 213.925677 244.027163 
L 214.260028 244.191558 
L 214.594379 243.980193 
L 215.26308 247.432497 
L 215.931782 250.27419 
L 216.600483 250.438586 
L 217.603535 252.951488 
L 217.937886 252.974973 
L 218.272237 253.186338 
L 218.606587 253.186338 
L 218.940938 253.538614 
L 219.275289 253.609069 
L 219.94399 254.971203 
L 220.278341 257.178799 
L 220.612692 257.46062 
L 220.947042 257.50759 
L 221.281393 257.249255 
L 221.615744 258.658358 
L 221.950095 259.010634 
L 222.284445 259.621246 
L 222.618796 259.034119 
L 223.287497 259.36291 
L 223.621848 259.621246 
L 223.956199 261.07732 
L 224.29055 261.781872 
L 224.6249 261.218231 
L 224.959251 261.500051 
L 225.293602 262.275058 
L 225.962303 262.181118 
L 226.296654 261.617477 
L 226.631005 261.523536 
L 226.965355 262.322029 
L 227.299706 262.768245 
L 228.302758 262.674305 
L 228.97146 263.754618 
L 229.30581 263.848558 
L 229.640161 263.731132 
L 229.974512 264.177349 
L 232.314967 265.351602 
L 233.318019 265.375087 
L 233.65237 265.398572 
L 234.321071 265.257662 
L 235.992825 265.469027 
L 236.327175 265.656908 
L 236.995877 265.609938 
L 239.001981 265.515997 
L 240.005033 265.562968 
L 242.345488 265.445542 
L 242.679839 265.234177 
L 243.01419 265.375087 
L 243.34854 265.351602 
L 244.017242 264.858416 
L 245.020294 264.576595 
L 245.688995 263.919013 
L 246.023346 264.036438 
L 247.360749 263.919013 
L 248.02945 264.224319 
L 249.032503 264.083408 
L 249.701204 264.271289 
L 250.704256 263.731132 
L 251.038607 263.355371 
L 251.707308 263.120521 
L 252.71036 261.03035 
L 253.044711 260.419738 
L 253.379062 259.456851 
L 253.713413 259.550791 
L 254.047763 259.386395 
L 254.382114 258.423508 
L 254.716465 258.165172 
L 255.050815 257.437135 
L 255.385166 257.249255 
L 255.719517 257.36668 
L 256.053868 257.249255 
L 256.722569 257.36668 
L 257.05692 257.131829 
L 257.725621 258.000777 
L 258.059972 258.376538 
L 258.728673 258.493963 
L 259.063024 259.222 
L 259.397375 259.644731 
L 260.066076 259.715186 
L 260.400427 260.067462 
L 261.069128 259.926552 
L 261.403479 260.161403 
L 261.73783 260.795499 
L 262.072181 261.100805 
L 263.409583 261.523536 
L 263.743934 261.899297 
L 264.078285 261.288686 
L 264.412636 261.734902 
L 264.746986 261.828842 
L 265.750038 261.453081 
L 266.084389 261.006865 
L 266.41874 261.241716 
L 267.087441 260.959895 
L 269.093546 262.063693 
L 269.427896 262.345514 
L 270.430948 261.993238 
L 270.765299 261.734902 
L 271.09965 261.993238 
L 271.434001 261.758387 
L 271.768351 261.805357 
L 272.102702 262.157633 
L 272.437053 262.157633 
L 272.771403 262.415969 
L 273.105754 262.392484 
L 273.774456 261.805357 
L 274.108806 260.912925 
L 275.446209 260.537164 
L 275.78056 259.832612 
L 276.114911 259.503821 
L 276.449261 259.832612 
L 276.783612 260.419738 
L 277.117963 259.08109 
L 277.452313 259.292455 
L 277.786664 260.043977 
L 278.121015 260.231858 
L 278.455366 259.809127 
L 278.789716 259.715186 
L 279.124067 258.024262 
L 279.458418 259.36291 
L 279.792768 258.822754 
L 280.127119 256.474247 
L 280.46147 255.065143 
L 281.130171 253.468159 
L 281.464522 252.17648 
L 282.133223 252.246936 
L 282.467574 250.626466 
L 282.801925 250.297675 
L 283.136276 249.264332 
L 283.804977 246.140819 
L 284.139328 246.140819 
L 284.473678 245.765058 
L 285.14238 247.455982 
L 285.476731 246.187789 
L 285.811081 246.140819 
L 286.145432 247.127192 
L 286.479783 247.127192 
L 286.814134 246.986281 
L 287.148484 248.043109 
L 287.482835 246.399154 
L 287.817186 246.680975 
L 288.151536 246.281729 
L 288.485887 246.117334 
L 288.820238 246.117334 
L 289.82329 243.674887 
L 290.157641 244.144588 
L 290.491991 243.674887 
L 290.826342 243.463521 
L 291.160693 243.463521 
L 291.495044 243.721857 
L 291.829394 243.205186 
L 292.163745 243.651402 
L 292.498096 244.332469 
L 293.166797 247.455982 
L 293.501148 246.821886 
L 293.835499 247.338557 
L 294.169849 247.127192 
L 294.5042 247.855229 
L 295.172901 248.677206 
L 295.507252 250.18025 
L 295.841603 250.814347 
L 296.175954 250.36813 
L 296.510304 251.166623 
L 296.844655 251.565869 
L 297.847707 250.814347 
L 298.182058 250.814347 
L 298.516409 250.509041 
L 298.850759 249.240847 
L 299.519461 244.778685 
L 299.853811 243.604432 
L 300.188162 239.33015 
L 300.522513 237.56877 
L 300.856864 236.911188 
L 301.525565 229.278542 
L 301.859916 226.648215 
L 302.528617 216.267816 
L 302.862968 213.097332 
L 303.531669 211.453378 
L 303.86602 207.531372 
L 304.200371 194.896407 
L 304.534721 194.285795 
L 304.869072 183.623576 
L 306.206475 125.850316 
L 306.540826 126.413957 
L 306.875176 120.237385 
L 307.209527 129.185195 
L 307.543878 144.779278 
L 308.881281 185.361471 
L 309.215631 187.968313 
L 309.549982 178.0811 
L 309.884333 176.343206 
L 310.218684 149.546746 
L 310.553034 132.238253 
L 311.556087 52.154182 
L 311.890437 60.914111 
L 312.224788 62.534581 
L 312.559139 71.670271 
L 312.893489 75.169546 
L 313.22784 83.037042 
L 313.562191 96.61141 
L 313.896542 123.68969 
L 314.230892 123.337414 
L 314.565243 127.917002 
L 315.233944 162.416562 
L 315.568295 177.587914 
L 315.902646 179.84248 
L 316.571347 186.79406 
L 316.905698 186.79406 
L 317.574399 189.330447 
L 317.90875 190.199394 
L 318.243101 194.403221 
L 318.911802 199.194174 
L 319.246153 199.194174 
L 319.580504 190.880461 
L 320.249205 182.261442 
L 320.583556 177.705339 
L 320.917907 169.978753 
L 321.252257 166.103717 
L 321.586608 166.103717 
L 321.920959 170.237089 
L 322.255309 165.164315 
L 322.924011 151.402067 
L 323.258362 150.486149 
L 323.592712 154.971796 
L 323.927063 154.971796 
L 324.261414 148.560374 
L 324.595764 146.869449 
L 324.930115 151.378581 
L 325.264466 144.755793 
L 325.598817 145.34292 
L 325.933167 144.098211 
L 326.267518 144.098211 
L 326.601869 144.356547 
L 326.936219 143.111839 
L 327.27057 144.849733 
L 327.604921 156.545296 
L 327.939272 160.161996 
L 328.273622 168.428739 
L 328.942324 168.428739 
L 329.276674 176.202295 
L 329.611025 171.552252 
L 329.945376 177.329578 
L 330.279727 175.356833 
L 330.948428 175.356833 
L 331.282779 171.951498 
L 331.617129 171.787103 
L 331.95148 177.634884 
L 332.285831 173.078782 
L 332.620182 189.659237 
L 332.954532 189.659237 
L 333.288883 179.60763 
L 333.623234 203.773761 
L 333.957584 198.325226 
L 334.291935 196.469906 
L 334.626286 190.622125 
L 334.960637 177.681854 
L 335.294987 177.681854 
L 335.629338 187.733462 
L 335.963689 170.331029 
L 336.29804 172.162864 
L 336.63239 178.386406 
L 336.966741 188.74332 
L 337.301092 193.158512 
L 337.969793 193.158512 
L 338.304144 196.516876 
L 338.638495 202.505568 
L 339.307196 207.202581 
L 339.641547 207.648797 
L 340.310248 207.648797 
L 340.644599 206.498029 
L 340.97895 207.601827 
L 341.3133 212.15793 
L 341.647651 211.382923 
L 341.982002 212.228385 
L 342.650703 212.228385 
L 343.319405 216.479182 
L 343.653755 214.811742 
L 343.988106 217.277674 
L 344.322457 216.784488 
L 344.991158 216.761002 
L 345.99421 227.986864 
L 346.328561 235.85436 
L 346.662912 238.296807 
L 347.331613 238.320292 
L 347.665964 237.874076 
L 348.000315 238.014986 
L 348.334665 235.337689 
L 348.669016 228.268684 
L 349.003367 227.047461 
L 349.672068 227.047461 
L 350.006419 236.746793 
L 350.34077 230.734616 
L 350.67512 227.470192 
L 351.009471 222.444388 
L 351.343822 219.861031 
L 352.012523 219.837546 
L 352.346874 206.216208 
L 352.681225 204.713164 
L 353.015575 202.200262 
L 353.349926 214.295071 
L 353.684277 211.570803 
L 354.352978 211.570803 
L 354.687329 205.840447 
L 355.02168 208.54123 
L 355.35603 205.934387 
L 355.690381 188.74332 
L 356.024732 184.821314 
L 356.693433 184.844799 
L 357.027784 189.048626 
L 357.362135 182.331897 
L 357.696485 182.120532 
L 358.030836 182.050076 
L 358.365187 188.438014 
L 359.033888 188.391044 
L 359.368239 189.001656 
L 359.70259 190.763035 
L 360.03694 195.013832 
L 360.371291 202.153292 
L 360.705642 202.529053 
L 361.039993 202.529053 
L 361.374343 202.341173 
L 362.043045 203.233605 
L 362.377395 203.139665 
L 362.711746 202.881329 
L 363.714798 203.21012 
L 364.049149 202.435113 
L 364.3835 208.705625 
L 364.71785 209.527602 
L 365.386552 213.96628 
L 366.055253 213.895825 
L 366.389604 214.15416 
L 366.723955 214.741287 
L 367.058305 218.357987 
L 367.392656 225.098201 
L 367.727007 219.062539 
L 368.395708 219.132994 
L 369.06441 224.464104 
L 369.39876 224.417134 
L 369.733111 217.911771 
L 370.067462 225.027745 
L 370.736163 225.027745 
L 371.070514 226.319424 
L 371.404865 224.440619 
L 371.739215 223.759552 
L 372.073566 224.017888 
L 372.407917 223.830007 
L 373.076618 223.830007 
L 373.410969 224.628499 
L 373.74532 224.417134 
L 374.414021 226.554275 
L 374.748372 226.201999 
L 375.417073 226.201999 
L 375.751424 227.117916 
L 376.085775 229.489908 
L 376.420125 229.560363 
L 376.754476 229.372482 
L 377.088827 231.603564 
L 377.423178 231.603564 
L 377.757528 231.486138 
L 378.091879 231.204317 
L 378.42623 231.627049 
L 379.094931 233.99904 
L 379.429282 234.139951 
L 379.763633 234.139951 
L 380.097983 234.257376 
L 380.432334 237.169524 
L 380.766685 237.70968 
L 381.769737 241.373351 
L 382.438438 241.373351 
L 382.772789 241.608201 
L 383.10714 242.030932 
L 383.44149 241.702141 
L 383.775841 242.500634 
L 384.110192 241.514261 
L 384.778893 241.514261 
L 385.113244 242.406693 
L 385.447595 241.655171 
L 385.781946 241.373351 
L 386.450647 237.56877 
L 387.119348 237.5218 
L 387.453699 235.525569 
L 388.456751 225.098201 
L 388.791102 224.886835 
L 389.459803 224.91032 
L 389.794154 232.14372 
L 390.462856 225.145171 
L 390.797206 218.217076 
L 391.131557 213.637489 
L 391.800258 213.590519 
L 392.134609 203.562396 
L 392.46896 204.830589 
L 392.803311 201.707076 
L 393.137661 202.411628 
L 393.472012 204.102552 
L 394.140713 204.149523 
L 394.809415 193.745639 
L 395.143766 190.669095 
L 395.478116 191.631983 
L 395.812467 191.279707 
L 396.481168 191.303192 
L 396.815519 190.856976 
L 397.14987 194.1214 
L 397.484221 204.619224 
L 397.818571 205.934387 
L 398.152922 208.49426 
L 398.487273 208.49426 
L 398.487273 208.49426 
" clip-path="url(#p5b2863934a)" style="fill: none; stroke: #1f77b4; stroke-width: 1.5; stroke-linecap: square"/>
   </g>
   <g id="patch_3">
    <path d="M 57.6 276.48 
L 57.6 41.472 
" style="fill: none; stroke: #000000; stroke-width: 0.8; stroke-linejoin: miter; stroke-linecap: square"/>
   </g>
   <g id="patch_4">
    <path d="M 414.72 276.48 
L 414.72 41.472 
" style="fill: none; stroke: #000000; stroke-width: 0.8; stroke-linejoin: miter; stroke-linecap: square"/>
   </g>
   <g id="patch_5">
    <path d="M 57.6 276.48 
L 414.72 276.48 
" style="fill: none; stroke: #000000; stroke-width: 0.8; stroke-linejoin: miter; stroke-linecap: square"/>
   </g>
   <g id="patch_6">
    <path d="M 57.6 41.472 
L 414.72 41.472 
" style="fill: none; stroke: #000000; stroke-width: 0.8; stroke-linejoin: miter; stroke-linecap: square"/>
   </g>
  </g>
  <g id="text_17">
   <!-- Inzidenzverlauf LK Unna -->
   <g transform="translate(121.539375 20.589187) scale(0.18 -0.18)">
    <defs>
     <path id="DejaVuSans-76" d="M 191 3500 
L 800 3500 
L 1894 563 
L 2988 3500 
L 3597 3500 
L 2284 0 
L 1503 0 
L 191 3500 
z
" transform="scale(0.015625)"/>
     <path id="DejaVuSans-6c" d="M 603 4863 
L 1178 4863 
L 1178 0 
L 603 0 
L 603 4863 
z
" transform="scale(0.015625)"/>
     <path id="DejaVuSans-75" d="M 544 1381 
L 544 3500 
L 1119 3500 
L 1119 1403 
Q 1119 906 1312 657 
Q 1506 409 1894 409 
Q 2359 409 2629 706 
Q 2900 1003 2900 1516 
L 2900 3500 
L 3475 3500 
L 3475 0 
L 2900 0 
L 2900 538 
Q 2691 219 2414 64 
Q 2138 -91 1772 -91 
Q 1169 -91 856 284 
Q 544 659 544 1381 
z
M 1991 3584 
L 1991 3584 
z
" transform="scale(0.015625)"/>
     <path id="DejaVuSans-66" d="M 2375 4863 
L 2375 4384 
L 1825 4384 
Q 1516 4384 1395 4259 
Q 1275 4134 1275 3809 
L 1275 3500 
L 2222 3500 
L 2222 3053 
L 1275 3053 
L 1275 0 
L 697 0 
L 697 3053 
L 147 3053 
L 147 3500 
L 697 3500 
L 697 3744 
Q 697 4328 969 4595 
Q 1241 4863 1831 4863 
L 2375 4863 
z
" transform="scale(0.015625)"/>
     <path id="DejaVuSans-4c" d="M 628 4666 
L 1259 4666 
L 1259 531 
L 3531 531 
L 3531 0 
L 628 0 
L 628 4666 
z
" transform="scale(0.015625)"/>
     <path id="DejaVuSans-4b" d="M 628 4666 
L 1259 4666 
L 1259 2694 
L 3353 4666 
L 4166 4666 
L 1850 2491 
L 4331 0 
L 3500 0 
L 1259 2247 
L 1259 0 
L 628 0 
L 628 4666 
z
" transform="scale(0.015625)"/>
     <path id="DejaVuSans-55" d="M 556 4666 
L 1191 4666 
L 1191 1831 
Q 1191 1081 1462 751 
Q 1734 422 2344 422 
Q 2950 422 3222 751 
Q 3494 1081 3494 1831 
L 3494 4666 
L 4128 4666 
L 4128 1753 
Q 4128 841 3676 375 
Q 3225 -91 2344 -91 
Q 1459 -91 1007 375 
Q 556 841 556 1753 
L 556 4666 
z
" transform="scale(0.015625)"/>
    </defs>
    <use xlink:href="#DejaVuSans-49"/>
    <use xlink:href="#DejaVuSans-6e" x="29.492188"/>
    <use xlink:href="#DejaVuSans-7a" x="92.871094"/>
    <use xlink:href="#DejaVuSans-69" x="145.361328"/>
    <use xlink:href="#DejaVuSans-64" x="173.144531"/>
    <use xlink:href="#DejaVuSans-65" x="236.621094"/>
    <use xlink:href="#DejaVuSans-6e" x="298.144531"/>
    <use xlink:href="#DejaVuSans-7a" x="361.523438"/>
    <use xlink:href="#DejaVuSans-76" x="414.013672"/>
    <use xlink:href="#DejaVuSans-65" x="473.193359"/>
    <use xlink:href="#DejaVuSans-72" x="534.716797"/>
    <use xlink:href="#DejaVuSans-6c" x="575.830078"/>
    <use xlink:href="#DejaVuSans-61" x="603.613281"/>
    <use xlink:href="#DejaVuSans-75" x="664.892578"/>
    <use xlink:href="#DejaVuSans-66" x="728.271484"/>
    <use xlink:href="#DejaVuSans-20" x="763.476562"/>
    <use xlink:href="#DejaVuSans-4c" x="795.263672"/>
    <use xlink:href="#DejaVuSans-4b" x="850.976562"/>
    <use xlink:href="#DejaVuSans-20" x="916.552734"/>
    <use xlink:href="#DejaVuSans-55" x="948.339844"/>
    <use xlink:href="#DejaVuSans-6e" x="1021.533203"/>
    <use xlink:href="#DejaVuSans-6e" x="1084.912109"/>
    <use xlink:href="#DejaVuSans-61" x="1148.291016"/>
   </g>
  </g>
 </g>
 <defs>
  <clipPath id="p5b2863934a">
   <rect x="57.6" y="41.472" width="357.12" height="235.008"/>
  </clipPath>
 </defs>
</svg>
