<?xml version="1.0" encoding="utf-8" standalone="no"?>
<!DOCTYPE svg PUBLIC "-//W3C//DTD SVG 1.1//EN"
  "http://www.w3.org/Graphics/SVG/1.1/DTD/svg11.dtd">
<svg xmlns:xlink="http://www.w3.org/1999/xlink" width="460.8pt" height="345.6pt" viewBox="0 0 460.8 345.6" xmlns="http://www.w3.org/2000/svg" version="1.1">
 <metadata>
  <rdf:RDF xmlns:dc="http://purl.org/dc/elements/1.1/" xmlns:cc="http://creativecommons.org/ns#" xmlns:rdf="http://www.w3.org/1999/02/22-rdf-syntax-ns#">
   <cc:Work>
    <dc:type rdf:resource="http://purl.org/dc/dcmitype/StillImage"/>
    <dc:date>2022-09-13T09:27:16.123621</dc:date>
    <dc:format>image/svg+xml</dc:format>
    <dc:creator>
     <cc:Agent>
      <dc:title>Matplotlib v3.5.3, https://matplotlib.org/</dc:title>
     </cc:Agent>
    </dc:creator>
   </cc:Work>
  </rdf:RDF>
 </metadata>
 <defs>
  <style type="text/css">*{stroke-linejoin: round; stroke-linecap: butt}</style>
 </defs>
 <g id="figure_1">
  <g id="patch_1">
   <path d="M 0 345.6 
L 460.8 345.6 
L 460.8 0 
L 0 0 
z
" style="fill: #ffffff"/>
  </g>
  <g id="axes_1">
   <g id="patch_2">
    <path d="M 57.6 276.48 
L 414.72 276.48 
L 414.72 41.472 
L 57.6 41.472 
z
" style="fill: #ffffff"/>
   </g>
   <g id="matplotlib.axis_1">
    <g id="xtick_1">
     <g id="line2d_1">
      <path d="M 58.475466 276.48 
L 58.475466 41.472 
" clip-path="url(#p6ff4e8a88f)" style="fill: none; stroke-dasharray: 2.96,1.28; stroke-dashoffset: 0; stroke: #808080; stroke-width: 0.8"/>
     </g>
     <g id="line2d_2">
      <defs>
       <path id="mc56eeec56c" d="M 0 0 
L 0 3.5 
" style="stroke: #000000; stroke-width: 0.8"/>
      </defs>
      <g>
       <use xlink:href="#mc56eeec56c" x="58.475466" y="276.48" style="stroke: #000000; stroke-width: 0.8"/>
      </g>
     </g>
     <g id="text_1">
      <!-- 19.01.2020 -->
      <g transform="translate(7.850256 318.688565)rotate(-30)scale(0.1 -0.1)">
       <defs>
        <path id="DejaVuSans-31" d="M 794 531 
L 1825 531 
L 1825 4091 
L 703 3866 
L 703 4441 
L 1819 4666 
L 2450 4666 
L 2450 531 
L 3481 531 
L 3481 0 
L 794 0 
L 794 531 
z
" transform="scale(0.015625)"/>
        <path id="DejaVuSans-39" d="M 703 97 
L 703 672 
Q 941 559 1184 500 
Q 1428 441 1663 441 
Q 2288 441 2617 861 
Q 2947 1281 2994 2138 
Q 2813 1869 2534 1725 
Q 2256 1581 1919 1581 
Q 1219 1581 811 2004 
Q 403 2428 403 3163 
Q 403 3881 828 4315 
Q 1253 4750 1959 4750 
Q 2769 4750 3195 4129 
Q 3622 3509 3622 2328 
Q 3622 1225 3098 567 
Q 2575 -91 1691 -91 
Q 1453 -91 1209 -44 
Q 966 3 703 97 
z
M 1959 2075 
Q 2384 2075 2632 2365 
Q 2881 2656 2881 3163 
Q 2881 3666 2632 3958 
Q 2384 4250 1959 4250 
Q 1534 4250 1286 3958 
Q 1038 3666 1038 3163 
Q 1038 2656 1286 2365 
Q 1534 2075 1959 2075 
z
" transform="scale(0.015625)"/>
        <path id="DejaVuSans-2e" d="M 684 794 
L 1344 794 
L 1344 0 
L 684 0 
L 684 794 
z
" transform="scale(0.015625)"/>
        <path id="DejaVuSans-30" d="M 2034 4250 
Q 1547 4250 1301 3770 
Q 1056 3291 1056 2328 
Q 1056 1369 1301 889 
Q 1547 409 2034 409 
Q 2525 409 2770 889 
Q 3016 1369 3016 2328 
Q 3016 3291 2770 3770 
Q 2525 4250 2034 4250 
z
M 2034 4750 
Q 2819 4750 3233 4129 
Q 3647 3509 3647 2328 
Q 3647 1150 3233 529 
Q 2819 -91 2034 -91 
Q 1250 -91 836 529 
Q 422 1150 422 2328 
Q 422 3509 836 4129 
Q 1250 4750 2034 4750 
z
" transform="scale(0.015625)"/>
        <path id="DejaVuSans-32" d="M 1228 531 
L 3431 531 
L 3431 0 
L 469 0 
L 469 531 
Q 828 903 1448 1529 
Q 2069 2156 2228 2338 
Q 2531 2678 2651 2914 
Q 2772 3150 2772 3378 
Q 2772 3750 2511 3984 
Q 2250 4219 1831 4219 
Q 1534 4219 1204 4116 
Q 875 4013 500 3803 
L 500 4441 
Q 881 4594 1212 4672 
Q 1544 4750 1819 4750 
Q 2544 4750 2975 4387 
Q 3406 4025 3406 3419 
Q 3406 3131 3298 2873 
Q 3191 2616 2906 2266 
Q 2828 2175 2409 1742 
Q 1991 1309 1228 531 
z
" transform="scale(0.015625)"/>
       </defs>
       <use xlink:href="#DejaVuSans-31"/>
       <use xlink:href="#DejaVuSans-39" x="63.623047"/>
       <use xlink:href="#DejaVuSans-2e" x="127.246094"/>
       <use xlink:href="#DejaVuSans-30" x="159.033203"/>
       <use xlink:href="#DejaVuSans-31" x="222.65625"/>
       <use xlink:href="#DejaVuSans-2e" x="286.279297"/>
       <use xlink:href="#DejaVuSans-32" x="318.066406"/>
       <use xlink:href="#DejaVuSans-30" x="381.689453"/>
       <use xlink:href="#DejaVuSans-32" x="445.3125"/>
       <use xlink:href="#DejaVuSans-30" x="508.935547"/>
      </g>
     </g>
    </g>
    <g id="xtick_2">
     <g id="line2d_3">
      <path d="M 94.313955 276.48 
L 94.313955 41.472 
" clip-path="url(#p6ff4e8a88f)" style="fill: none; stroke-dasharray: 2.96,1.28; stroke-dashoffset: 0; stroke: #808080; stroke-width: 0.8"/>
     </g>
     <g id="line2d_4">
      <g>
       <use xlink:href="#mc56eeec56c" x="94.313955" y="276.48" style="stroke: #000000; stroke-width: 0.8"/>
      </g>
     </g>
     <g id="text_2">
      <!-- 30.04.2020 -->
      <g transform="translate(43.688744 318.688565)rotate(-30)scale(0.1 -0.1)">
       <defs>
        <path id="DejaVuSans-33" d="M 2597 2516 
Q 3050 2419 3304 2112 
Q 3559 1806 3559 1356 
Q 3559 666 3084 287 
Q 2609 -91 1734 -91 
Q 1441 -91 1130 -33 
Q 819 25 488 141 
L 488 750 
Q 750 597 1062 519 
Q 1375 441 1716 441 
Q 2309 441 2620 675 
Q 2931 909 2931 1356 
Q 2931 1769 2642 2001 
Q 2353 2234 1838 2234 
L 1294 2234 
L 1294 2753 
L 1863 2753 
Q 2328 2753 2575 2939 
Q 2822 3125 2822 3475 
Q 2822 3834 2567 4026 
Q 2313 4219 1838 4219 
Q 1578 4219 1281 4162 
Q 984 4106 628 3988 
L 628 4550 
Q 988 4650 1302 4700 
Q 1616 4750 1894 4750 
Q 2613 4750 3031 4423 
Q 3450 4097 3450 3541 
Q 3450 3153 3228 2886 
Q 3006 2619 2597 2516 
z
" transform="scale(0.015625)"/>
        <path id="DejaVuSans-34" d="M 2419 4116 
L 825 1625 
L 2419 1625 
L 2419 4116 
z
M 2253 4666 
L 3047 4666 
L 3047 1625 
L 3713 1625 
L 3713 1100 
L 3047 1100 
L 3047 0 
L 2419 0 
L 2419 1100 
L 313 1100 
L 313 1709 
L 2253 4666 
z
" transform="scale(0.015625)"/>
       </defs>
       <use xlink:href="#DejaVuSans-33"/>
       <use xlink:href="#DejaVuSans-30" x="63.623047"/>
       <use xlink:href="#DejaVuSans-2e" x="127.246094"/>
       <use xlink:href="#DejaVuSans-30" x="159.033203"/>
       <use xlink:href="#DejaVuSans-34" x="222.65625"/>
       <use xlink:href="#DejaVuSans-2e" x="286.279297"/>
       <use xlink:href="#DejaVuSans-32" x="318.066406"/>
       <use xlink:href="#DejaVuSans-30" x="381.689453"/>
       <use xlink:href="#DejaVuSans-32" x="445.3125"/>
       <use xlink:href="#DejaVuSans-30" x="508.935547"/>
      </g>
     </g>
    </g>
    <g id="xtick_3">
     <g id="line2d_5">
      <path d="M 130.152444 276.48 
L 130.152444 41.472 
" clip-path="url(#p6ff4e8a88f)" style="fill: none; stroke-dasharray: 2.96,1.28; stroke-dashoffset: 0; stroke: #808080; stroke-width: 0.8"/>
     </g>
     <g id="line2d_6">
      <g>
       <use xlink:href="#mc56eeec56c" x="130.152444" y="276.48" style="stroke: #000000; stroke-width: 0.8"/>
      </g>
     </g>
     <g id="text_3">
      <!-- 10.08.2020 -->
      <g transform="translate(79.527233 318.688565)rotate(-30)scale(0.1 -0.1)">
       <defs>
        <path id="DejaVuSans-38" d="M 2034 2216 
Q 1584 2216 1326 1975 
Q 1069 1734 1069 1313 
Q 1069 891 1326 650 
Q 1584 409 2034 409 
Q 2484 409 2743 651 
Q 3003 894 3003 1313 
Q 3003 1734 2745 1975 
Q 2488 2216 2034 2216 
z
M 1403 2484 
Q 997 2584 770 2862 
Q 544 3141 544 3541 
Q 544 4100 942 4425 
Q 1341 4750 2034 4750 
Q 2731 4750 3128 4425 
Q 3525 4100 3525 3541 
Q 3525 3141 3298 2862 
Q 3072 2584 2669 2484 
Q 3125 2378 3379 2068 
Q 3634 1759 3634 1313 
Q 3634 634 3220 271 
Q 2806 -91 2034 -91 
Q 1263 -91 848 271 
Q 434 634 434 1313 
Q 434 1759 690 2068 
Q 947 2378 1403 2484 
z
M 1172 3481 
Q 1172 3119 1398 2916 
Q 1625 2713 2034 2713 
Q 2441 2713 2670 2916 
Q 2900 3119 2900 3481 
Q 2900 3844 2670 4047 
Q 2441 4250 2034 4250 
Q 1625 4250 1398 4047 
Q 1172 3844 1172 3481 
z
" transform="scale(0.015625)"/>
       </defs>
       <use xlink:href="#DejaVuSans-31"/>
       <use xlink:href="#DejaVuSans-30" x="63.623047"/>
       <use xlink:href="#DejaVuSans-2e" x="127.246094"/>
       <use xlink:href="#DejaVuSans-30" x="159.033203"/>
       <use xlink:href="#DejaVuSans-38" x="222.65625"/>
       <use xlink:href="#DejaVuSans-2e" x="286.279297"/>
       <use xlink:href="#DejaVuSans-32" x="318.066406"/>
       <use xlink:href="#DejaVuSans-30" x="381.689453"/>
       <use xlink:href="#DejaVuSans-32" x="445.3125"/>
       <use xlink:href="#DejaVuSans-30" x="508.935547"/>
      </g>
     </g>
    </g>
    <g id="xtick_4">
     <g id="line2d_7">
      <path d="M 165.990933 276.48 
L 165.990933 41.472 
" clip-path="url(#p6ff4e8a88f)" style="fill: none; stroke-dasharray: 2.96,1.28; stroke-dashoffset: 0; stroke: #808080; stroke-width: 0.8"/>
     </g>
     <g id="line2d_8">
      <g>
       <use xlink:href="#mc56eeec56c" x="165.990933" y="276.48" style="stroke: #000000; stroke-width: 0.8"/>
      </g>
     </g>
     <g id="text_4">
      <!-- 20.11.2020 -->
      <g transform="translate(115.365722 318.688565)rotate(-30)scale(0.1 -0.1)">
       <use xlink:href="#DejaVuSans-32"/>
       <use xlink:href="#DejaVuSans-30" x="63.623047"/>
       <use xlink:href="#DejaVuSans-2e" x="127.246094"/>
       <use xlink:href="#DejaVuSans-31" x="159.033203"/>
       <use xlink:href="#DejaVuSans-31" x="222.65625"/>
       <use xlink:href="#DejaVuSans-2e" x="286.279297"/>
       <use xlink:href="#DejaVuSans-32" x="318.066406"/>
       <use xlink:href="#DejaVuSans-30" x="381.689453"/>
       <use xlink:href="#DejaVuSans-32" x="445.3125"/>
       <use xlink:href="#DejaVuSans-30" x="508.935547"/>
      </g>
     </g>
    </g>
    <g id="xtick_5">
     <g id="line2d_9">
      <path d="M 201.829421 276.48 
L 201.829421 41.472 
" clip-path="url(#p6ff4e8a88f)" style="fill: none; stroke-dasharray: 2.96,1.28; stroke-dashoffset: 0; stroke: #808080; stroke-width: 0.8"/>
     </g>
     <g id="line2d_10">
      <g>
       <use xlink:href="#mc56eeec56c" x="201.829421" y="276.48" style="stroke: #000000; stroke-width: 0.8"/>
      </g>
     </g>
     <g id="text_5">
      <!-- 02.03.2021 -->
      <g transform="translate(151.204211 318.688565)rotate(-30)scale(0.1 -0.1)">
       <use xlink:href="#DejaVuSans-30"/>
       <use xlink:href="#DejaVuSans-32" x="63.623047"/>
       <use xlink:href="#DejaVuSans-2e" x="127.246094"/>
       <use xlink:href="#DejaVuSans-30" x="159.033203"/>
       <use xlink:href="#DejaVuSans-33" x="222.65625"/>
       <use xlink:href="#DejaVuSans-2e" x="286.279297"/>
       <use xlink:href="#DejaVuSans-32" x="318.066406"/>
       <use xlink:href="#DejaVuSans-30" x="381.689453"/>
       <use xlink:href="#DejaVuSans-32" x="445.3125"/>
       <use xlink:href="#DejaVuSans-31" x="508.935547"/>
      </g>
     </g>
    </g>
    <g id="xtick_6">
     <g id="line2d_11">
      <path d="M 237.66791 276.48 
L 237.66791 41.472 
" clip-path="url(#p6ff4e8a88f)" style="fill: none; stroke-dasharray: 2.96,1.28; stroke-dashoffset: 0; stroke: #808080; stroke-width: 0.8"/>
     </g>
     <g id="line2d_12">
      <g>
       <use xlink:href="#mc56eeec56c" x="237.66791" y="276.48" style="stroke: #000000; stroke-width: 0.8"/>
      </g>
     </g>
     <g id="text_6">
      <!-- 12.06.2021 -->
      <g transform="translate(187.042699 318.688565)rotate(-30)scale(0.1 -0.1)">
       <defs>
        <path id="DejaVuSans-36" d="M 2113 2584 
Q 1688 2584 1439 2293 
Q 1191 2003 1191 1497 
Q 1191 994 1439 701 
Q 1688 409 2113 409 
Q 2538 409 2786 701 
Q 3034 994 3034 1497 
Q 3034 2003 2786 2293 
Q 2538 2584 2113 2584 
z
M 3366 4563 
L 3366 3988 
Q 3128 4100 2886 4159 
Q 2644 4219 2406 4219 
Q 1781 4219 1451 3797 
Q 1122 3375 1075 2522 
Q 1259 2794 1537 2939 
Q 1816 3084 2150 3084 
Q 2853 3084 3261 2657 
Q 3669 2231 3669 1497 
Q 3669 778 3244 343 
Q 2819 -91 2113 -91 
Q 1303 -91 875 529 
Q 447 1150 447 2328 
Q 447 3434 972 4092 
Q 1497 4750 2381 4750 
Q 2619 4750 2861 4703 
Q 3103 4656 3366 4563 
z
" transform="scale(0.015625)"/>
       </defs>
       <use xlink:href="#DejaVuSans-31"/>
       <use xlink:href="#DejaVuSans-32" x="63.623047"/>
       <use xlink:href="#DejaVuSans-2e" x="127.246094"/>
       <use xlink:href="#DejaVuSans-30" x="159.033203"/>
       <use xlink:href="#DejaVuSans-36" x="222.65625"/>
       <use xlink:href="#DejaVuSans-2e" x="286.279297"/>
       <use xlink:href="#DejaVuSans-32" x="318.066406"/>
       <use xlink:href="#DejaVuSans-30" x="381.689453"/>
       <use xlink:href="#DejaVuSans-32" x="445.3125"/>
       <use xlink:href="#DejaVuSans-31" x="508.935547"/>
      </g>
     </g>
    </g>
    <g id="xtick_7">
     <g id="line2d_13">
      <path d="M 273.506399 276.48 
L 273.506399 41.472 
" clip-path="url(#p6ff4e8a88f)" style="fill: none; stroke-dasharray: 2.96,1.28; stroke-dashoffset: 0; stroke: #808080; stroke-width: 0.8"/>
     </g>
     <g id="line2d_14">
      <g>
       <use xlink:href="#mc56eeec56c" x="273.506399" y="276.48" style="stroke: #000000; stroke-width: 0.8"/>
      </g>
     </g>
     <g id="text_7">
      <!-- 22.09.2021 -->
      <g transform="translate(222.881188 318.688565)rotate(-30)scale(0.1 -0.1)">
       <use xlink:href="#DejaVuSans-32"/>
       <use xlink:href="#DejaVuSans-32" x="63.623047"/>
       <use xlink:href="#DejaVuSans-2e" x="127.246094"/>
       <use xlink:href="#DejaVuSans-30" x="159.033203"/>
       <use xlink:href="#DejaVuSans-39" x="222.65625"/>
       <use xlink:href="#DejaVuSans-2e" x="286.279297"/>
       <use xlink:href="#DejaVuSans-32" x="318.066406"/>
       <use xlink:href="#DejaVuSans-30" x="381.689453"/>
       <use xlink:href="#DejaVuSans-32" x="445.3125"/>
       <use xlink:href="#DejaVuSans-31" x="508.935547"/>
      </g>
     </g>
    </g>
    <g id="xtick_8">
     <g id="line2d_15">
      <path d="M 309.344888 276.48 
L 309.344888 41.472 
" clip-path="url(#p6ff4e8a88f)" style="fill: none; stroke-dasharray: 2.96,1.28; stroke-dashoffset: 0; stroke: #808080; stroke-width: 0.8"/>
     </g>
     <g id="line2d_16">
      <g>
       <use xlink:href="#mc56eeec56c" x="309.344888" y="276.48" style="stroke: #000000; stroke-width: 0.8"/>
      </g>
     </g>
     <g id="text_8">
      <!-- 02.01.2022 -->
      <g transform="translate(258.719677 318.688565)rotate(-30)scale(0.1 -0.1)">
       <use xlink:href="#DejaVuSans-30"/>
       <use xlink:href="#DejaVuSans-32" x="63.623047"/>
       <use xlink:href="#DejaVuSans-2e" x="127.246094"/>
       <use xlink:href="#DejaVuSans-30" x="159.033203"/>
       <use xlink:href="#DejaVuSans-31" x="222.65625"/>
       <use xlink:href="#DejaVuSans-2e" x="286.279297"/>
       <use xlink:href="#DejaVuSans-32" x="318.066406"/>
       <use xlink:href="#DejaVuSans-30" x="381.689453"/>
       <use xlink:href="#DejaVuSans-32" x="445.3125"/>
       <use xlink:href="#DejaVuSans-32" x="508.935547"/>
      </g>
     </g>
    </g>
    <g id="xtick_9">
     <g id="line2d_17">
      <path d="M 345.183377 276.48 
L 345.183377 41.472 
" clip-path="url(#p6ff4e8a88f)" style="fill: none; stroke-dasharray: 2.96,1.28; stroke-dashoffset: 0; stroke: #808080; stroke-width: 0.8"/>
     </g>
     <g id="line2d_18">
      <g>
       <use xlink:href="#mc56eeec56c" x="345.183377" y="276.48" style="stroke: #000000; stroke-width: 0.8"/>
      </g>
     </g>
     <g id="text_9">
      <!-- 14.04.2022 -->
      <g transform="translate(294.558166 318.688565)rotate(-30)scale(0.1 -0.1)">
       <use xlink:href="#DejaVuSans-31"/>
       <use xlink:href="#DejaVuSans-34" x="63.623047"/>
       <use xlink:href="#DejaVuSans-2e" x="127.246094"/>
       <use xlink:href="#DejaVuSans-30" x="159.033203"/>
       <use xlink:href="#DejaVuSans-34" x="222.65625"/>
       <use xlink:href="#DejaVuSans-2e" x="286.279297"/>
       <use xlink:href="#DejaVuSans-32" x="318.066406"/>
       <use xlink:href="#DejaVuSans-30" x="381.689453"/>
       <use xlink:href="#DejaVuSans-32" x="445.3125"/>
       <use xlink:href="#DejaVuSans-32" x="508.935547"/>
      </g>
     </g>
    </g>
    <g id="xtick_10">
     <g id="line2d_19">
      <path d="M 381.021865 276.48 
L 381.021865 41.472 
" clip-path="url(#p6ff4e8a88f)" style="fill: none; stroke-dasharray: 2.96,1.28; stroke-dashoffset: 0; stroke: #808080; stroke-width: 0.8"/>
     </g>
     <g id="line2d_20">
      <g>
       <use xlink:href="#mc56eeec56c" x="381.021865" y="276.48" style="stroke: #000000; stroke-width: 0.8"/>
      </g>
     </g>
     <g id="text_10">
      <!-- 25.07.2022 -->
      <g transform="translate(330.396655 318.688565)rotate(-30)scale(0.1 -0.1)">
       <defs>
        <path id="DejaVuSans-35" d="M 691 4666 
L 3169 4666 
L 3169 4134 
L 1269 4134 
L 1269 2991 
Q 1406 3038 1543 3061 
Q 1681 3084 1819 3084 
Q 2600 3084 3056 2656 
Q 3513 2228 3513 1497 
Q 3513 744 3044 326 
Q 2575 -91 1722 -91 
Q 1428 -91 1123 -41 
Q 819 9 494 109 
L 494 744 
Q 775 591 1075 516 
Q 1375 441 1709 441 
Q 2250 441 2565 725 
Q 2881 1009 2881 1497 
Q 2881 1984 2565 2268 
Q 2250 2553 1709 2553 
Q 1456 2553 1204 2497 
Q 953 2441 691 2322 
L 691 4666 
z
" transform="scale(0.015625)"/>
        <path id="DejaVuSans-37" d="M 525 4666 
L 3525 4666 
L 3525 4397 
L 1831 0 
L 1172 0 
L 2766 4134 
L 525 4134 
L 525 4666 
z
" transform="scale(0.015625)"/>
       </defs>
       <use xlink:href="#DejaVuSans-32"/>
       <use xlink:href="#DejaVuSans-35" x="63.623047"/>
       <use xlink:href="#DejaVuSans-2e" x="127.246094"/>
       <use xlink:href="#DejaVuSans-30" x="159.033203"/>
       <use xlink:href="#DejaVuSans-37" x="222.65625"/>
       <use xlink:href="#DejaVuSans-2e" x="286.279297"/>
       <use xlink:href="#DejaVuSans-32" x="318.066406"/>
       <use xlink:href="#DejaVuSans-30" x="381.689453"/>
       <use xlink:href="#DejaVuSans-32" x="445.3125"/>
       <use xlink:href="#DejaVuSans-32" x="508.935547"/>
      </g>
     </g>
    </g>
   </g>
   <g id="matplotlib.axis_2">
    <g id="ytick_1">
     <g id="line2d_21">
      <path d="M 57.6 265.684988 
L 414.72 265.684988 
" clip-path="url(#p6ff4e8a88f)" style="fill: none; stroke-dasharray: 2.96,1.28; stroke-dashoffset: 0; stroke: #808080; stroke-width: 0.8"/>
     </g>
     <g id="line2d_22">
      <defs>
       <path id="m42f5ba6e1b" d="M 0 0 
L -3.5 0 
" style="stroke: #000000; stroke-width: 0.8"/>
      </defs>
      <g>
       <use xlink:href="#m42f5ba6e1b" x="57.6" y="265.684988" style="stroke: #000000; stroke-width: 0.8"/>
      </g>
     </g>
     <g id="text_11">
      <!-- 0 -->
      <g transform="translate(44.2375 269.484207)scale(0.1 -0.1)">
       <use xlink:href="#DejaVuSans-30"/>
      </g>
     </g>
    </g>
    <g id="ytick_2">
     <g id="line2d_23">
      <path d="M 57.6 224.68792 
L 414.72 224.68792 
" clip-path="url(#p6ff4e8a88f)" style="fill: none; stroke-dasharray: 2.96,1.28; stroke-dashoffset: 0; stroke: #808080; stroke-width: 0.8"/>
     </g>
     <g id="line2d_24">
      <g>
       <use xlink:href="#m42f5ba6e1b" x="57.6" y="224.68792" style="stroke: #000000; stroke-width: 0.8"/>
      </g>
     </g>
     <g id="text_12">
      <!-- 500 -->
      <g transform="translate(31.5125 228.487138)scale(0.1 -0.1)">
       <use xlink:href="#DejaVuSans-35"/>
       <use xlink:href="#DejaVuSans-30" x="63.623047"/>
       <use xlink:href="#DejaVuSans-30" x="127.246094"/>
      </g>
     </g>
    </g>
    <g id="ytick_3">
     <g id="line2d_25">
      <path d="M 57.6 183.690851 
L 414.72 183.690851 
" clip-path="url(#p6ff4e8a88f)" style="fill: none; stroke-dasharray: 2.96,1.28; stroke-dashoffset: 0; stroke: #808080; stroke-width: 0.8"/>
     </g>
     <g id="line2d_26">
      <g>
       <use xlink:href="#m42f5ba6e1b" x="57.6" y="183.690851" style="stroke: #000000; stroke-width: 0.8"/>
      </g>
     </g>
     <g id="text_13">
      <!-- 1000 -->
      <g transform="translate(25.15 187.49007)scale(0.1 -0.1)">
       <use xlink:href="#DejaVuSans-31"/>
       <use xlink:href="#DejaVuSans-30" x="63.623047"/>
       <use xlink:href="#DejaVuSans-30" x="127.246094"/>
       <use xlink:href="#DejaVuSans-30" x="190.869141"/>
      </g>
     </g>
    </g>
    <g id="ytick_4">
     <g id="line2d_27">
      <path d="M 57.6 142.693782 
L 414.72 142.693782 
" clip-path="url(#p6ff4e8a88f)" style="fill: none; stroke-dasharray: 2.96,1.28; stroke-dashoffset: 0; stroke: #808080; stroke-width: 0.8"/>
     </g>
     <g id="line2d_28">
      <g>
       <use xlink:href="#m42f5ba6e1b" x="57.6" y="142.693782" style="stroke: #000000; stroke-width: 0.8"/>
      </g>
     </g>
     <g id="text_14">
      <!-- 1500 -->
      <g transform="translate(25.15 146.493001)scale(0.1 -0.1)">
       <use xlink:href="#DejaVuSans-31"/>
       <use xlink:href="#DejaVuSans-35" x="63.623047"/>
       <use xlink:href="#DejaVuSans-30" x="127.246094"/>
       <use xlink:href="#DejaVuSans-30" x="190.869141"/>
      </g>
     </g>
    </g>
    <g id="ytick_5">
     <g id="line2d_29">
      <path d="M 57.6 101.696714 
L 414.72 101.696714 
" clip-path="url(#p6ff4e8a88f)" style="fill: none; stroke-dasharray: 2.96,1.28; stroke-dashoffset: 0; stroke: #808080; stroke-width: 0.8"/>
     </g>
     <g id="line2d_30">
      <g>
       <use xlink:href="#m42f5ba6e1b" x="57.6" y="101.696714" style="stroke: #000000; stroke-width: 0.8"/>
      </g>
     </g>
     <g id="text_15">
      <!-- 2000 -->
      <g transform="translate(25.15 105.495933)scale(0.1 -0.1)">
       <use xlink:href="#DejaVuSans-32"/>
       <use xlink:href="#DejaVuSans-30" x="63.623047"/>
       <use xlink:href="#DejaVuSans-30" x="127.246094"/>
       <use xlink:href="#DejaVuSans-30" x="190.869141"/>
      </g>
     </g>
    </g>
    <g id="ytick_6">
     <g id="line2d_31">
      <path d="M 57.6 60.699645 
L 414.72 60.699645 
" clip-path="url(#p6ff4e8a88f)" style="fill: none; stroke-dasharray: 2.96,1.28; stroke-dashoffset: 0; stroke: #808080; stroke-width: 0.8"/>
     </g>
     <g id="line2d_32">
      <g>
       <use xlink:href="#m42f5ba6e1b" x="57.6" y="60.699645" style="stroke: #000000; stroke-width: 0.8"/>
      </g>
     </g>
     <g id="text_16">
      <!-- 2500 -->
      <g transform="translate(25.15 64.498864)scale(0.1 -0.1)">
       <use xlink:href="#DejaVuSans-32"/>
       <use xlink:href="#DejaVuSans-35" x="63.623047"/>
       <use xlink:href="#DejaVuSans-30" x="127.246094"/>
       <use xlink:href="#DejaVuSans-30" x="190.869141"/>
      </g>
     </g>
    </g>
    <g id="text_17">
     <!-- Inzidenz pro 7 Tage pro 100.000 Einwohner -->
     <g transform="translate(19.070312 267.301)rotate(-90)scale(0.1 -0.1)">
      <defs>
       <path id="DejaVuSans-49" d="M 628 4666 
L 1259 4666 
L 1259 0 
L 628 0 
L 628 4666 
z
" transform="scale(0.015625)"/>
       <path id="DejaVuSans-6e" d="M 3513 2113 
L 3513 0 
L 2938 0 
L 2938 2094 
Q 2938 2591 2744 2837 
Q 2550 3084 2163 3084 
Q 1697 3084 1428 2787 
Q 1159 2491 1159 1978 
L 1159 0 
L 581 0 
L 581 3500 
L 1159 3500 
L 1159 2956 
Q 1366 3272 1645 3428 
Q 1925 3584 2291 3584 
Q 2894 3584 3203 3211 
Q 3513 2838 3513 2113 
z
" transform="scale(0.015625)"/>
       <path id="DejaVuSans-7a" d="M 353 3500 
L 3084 3500 
L 3084 2975 
L 922 459 
L 3084 459 
L 3084 0 
L 275 0 
L 275 525 
L 2438 3041 
L 353 3041 
L 353 3500 
z
" transform="scale(0.015625)"/>
       <path id="DejaVuSans-69" d="M 603 3500 
L 1178 3500 
L 1178 0 
L 603 0 
L 603 3500 
z
M 603 4863 
L 1178 4863 
L 1178 4134 
L 603 4134 
L 603 4863 
z
" transform="scale(0.015625)"/>
       <path id="DejaVuSans-64" d="M 2906 2969 
L 2906 4863 
L 3481 4863 
L 3481 0 
L 2906 0 
L 2906 525 
Q 2725 213 2448 61 
Q 2172 -91 1784 -91 
Q 1150 -91 751 415 
Q 353 922 353 1747 
Q 353 2572 751 3078 
Q 1150 3584 1784 3584 
Q 2172 3584 2448 3432 
Q 2725 3281 2906 2969 
z
M 947 1747 
Q 947 1113 1208 752 
Q 1469 391 1925 391 
Q 2381 391 2643 752 
Q 2906 1113 2906 1747 
Q 2906 2381 2643 2742 
Q 2381 3103 1925 3103 
Q 1469 3103 1208 2742 
Q 947 2381 947 1747 
z
" transform="scale(0.015625)"/>
       <path id="DejaVuSans-65" d="M 3597 1894 
L 3597 1613 
L 953 1613 
Q 991 1019 1311 708 
Q 1631 397 2203 397 
Q 2534 397 2845 478 
Q 3156 559 3463 722 
L 3463 178 
Q 3153 47 2828 -22 
Q 2503 -91 2169 -91 
Q 1331 -91 842 396 
Q 353 884 353 1716 
Q 353 2575 817 3079 
Q 1281 3584 2069 3584 
Q 2775 3584 3186 3129 
Q 3597 2675 3597 1894 
z
M 3022 2063 
Q 3016 2534 2758 2815 
Q 2500 3097 2075 3097 
Q 1594 3097 1305 2825 
Q 1016 2553 972 2059 
L 3022 2063 
z
" transform="scale(0.015625)"/>
       <path id="DejaVuSans-20" transform="scale(0.015625)"/>
       <path id="DejaVuSans-70" d="M 1159 525 
L 1159 -1331 
L 581 -1331 
L 581 3500 
L 1159 3500 
L 1159 2969 
Q 1341 3281 1617 3432 
Q 1894 3584 2278 3584 
Q 2916 3584 3314 3078 
Q 3713 2572 3713 1747 
Q 3713 922 3314 415 
Q 2916 -91 2278 -91 
Q 1894 -91 1617 61 
Q 1341 213 1159 525 
z
M 3116 1747 
Q 3116 2381 2855 2742 
Q 2594 3103 2138 3103 
Q 1681 3103 1420 2742 
Q 1159 2381 1159 1747 
Q 1159 1113 1420 752 
Q 1681 391 2138 391 
Q 2594 391 2855 752 
Q 3116 1113 3116 1747 
z
" transform="scale(0.015625)"/>
       <path id="DejaVuSans-72" d="M 2631 2963 
Q 2534 3019 2420 3045 
Q 2306 3072 2169 3072 
Q 1681 3072 1420 2755 
Q 1159 2438 1159 1844 
L 1159 0 
L 581 0 
L 581 3500 
L 1159 3500 
L 1159 2956 
Q 1341 3275 1631 3429 
Q 1922 3584 2338 3584 
Q 2397 3584 2469 3576 
Q 2541 3569 2628 3553 
L 2631 2963 
z
" transform="scale(0.015625)"/>
       <path id="DejaVuSans-6f" d="M 1959 3097 
Q 1497 3097 1228 2736 
Q 959 2375 959 1747 
Q 959 1119 1226 758 
Q 1494 397 1959 397 
Q 2419 397 2687 759 
Q 2956 1122 2956 1747 
Q 2956 2369 2687 2733 
Q 2419 3097 1959 3097 
z
M 1959 3584 
Q 2709 3584 3137 3096 
Q 3566 2609 3566 1747 
Q 3566 888 3137 398 
Q 2709 -91 1959 -91 
Q 1206 -91 779 398 
Q 353 888 353 1747 
Q 353 2609 779 3096 
Q 1206 3584 1959 3584 
z
" transform="scale(0.015625)"/>
       <path id="DejaVuSans-54" d="M -19 4666 
L 3928 4666 
L 3928 4134 
L 2272 4134 
L 2272 0 
L 1638 0 
L 1638 4134 
L -19 4134 
L -19 4666 
z
" transform="scale(0.015625)"/>
       <path id="DejaVuSans-61" d="M 2194 1759 
Q 1497 1759 1228 1600 
Q 959 1441 959 1056 
Q 959 750 1161 570 
Q 1363 391 1709 391 
Q 2188 391 2477 730 
Q 2766 1069 2766 1631 
L 2766 1759 
L 2194 1759 
z
M 3341 1997 
L 3341 0 
L 2766 0 
L 2766 531 
Q 2569 213 2275 61 
Q 1981 -91 1556 -91 
Q 1019 -91 701 211 
Q 384 513 384 1019 
Q 384 1609 779 1909 
Q 1175 2209 1959 2209 
L 2766 2209 
L 2766 2266 
Q 2766 2663 2505 2880 
Q 2244 3097 1772 3097 
Q 1472 3097 1187 3025 
Q 903 2953 641 2809 
L 641 3341 
Q 956 3463 1253 3523 
Q 1550 3584 1831 3584 
Q 2591 3584 2966 3190 
Q 3341 2797 3341 1997 
z
" transform="scale(0.015625)"/>
       <path id="DejaVuSans-67" d="M 2906 1791 
Q 2906 2416 2648 2759 
Q 2391 3103 1925 3103 
Q 1463 3103 1205 2759 
Q 947 2416 947 1791 
Q 947 1169 1205 825 
Q 1463 481 1925 481 
Q 2391 481 2648 825 
Q 2906 1169 2906 1791 
z
M 3481 434 
Q 3481 -459 3084 -895 
Q 2688 -1331 1869 -1331 
Q 1566 -1331 1297 -1286 
Q 1028 -1241 775 -1147 
L 775 -588 
Q 1028 -725 1275 -790 
Q 1522 -856 1778 -856 
Q 2344 -856 2625 -561 
Q 2906 -266 2906 331 
L 2906 616 
Q 2728 306 2450 153 
Q 2172 0 1784 0 
Q 1141 0 747 490 
Q 353 981 353 1791 
Q 353 2603 747 3093 
Q 1141 3584 1784 3584 
Q 2172 3584 2450 3431 
Q 2728 3278 2906 2969 
L 2906 3500 
L 3481 3500 
L 3481 434 
z
" transform="scale(0.015625)"/>
       <path id="DejaVuSans-45" d="M 628 4666 
L 3578 4666 
L 3578 4134 
L 1259 4134 
L 1259 2753 
L 3481 2753 
L 3481 2222 
L 1259 2222 
L 1259 531 
L 3634 531 
L 3634 0 
L 628 0 
L 628 4666 
z
" transform="scale(0.015625)"/>
       <path id="DejaVuSans-77" d="M 269 3500 
L 844 3500 
L 1563 769 
L 2278 3500 
L 2956 3500 
L 3675 769 
L 4391 3500 
L 4966 3500 
L 4050 0 
L 3372 0 
L 2619 2869 
L 1863 0 
L 1184 0 
L 269 3500 
z
" transform="scale(0.015625)"/>
       <path id="DejaVuSans-68" d="M 3513 2113 
L 3513 0 
L 2938 0 
L 2938 2094 
Q 2938 2591 2744 2837 
Q 2550 3084 2163 3084 
Q 1697 3084 1428 2787 
Q 1159 2491 1159 1978 
L 1159 0 
L 581 0 
L 581 4863 
L 1159 4863 
L 1159 2956 
Q 1366 3272 1645 3428 
Q 1925 3584 2291 3584 
Q 2894 3584 3203 3211 
Q 3513 2838 3513 2113 
z
" transform="scale(0.015625)"/>
      </defs>
      <use xlink:href="#DejaVuSans-49"/>
      <use xlink:href="#DejaVuSans-6e" x="29.492188"/>
      <use xlink:href="#DejaVuSans-7a" x="92.871094"/>
      <use xlink:href="#DejaVuSans-69" x="145.361328"/>
      <use xlink:href="#DejaVuSans-64" x="173.144531"/>
      <use xlink:href="#DejaVuSans-65" x="236.621094"/>
      <use xlink:href="#DejaVuSans-6e" x="298.144531"/>
      <use xlink:href="#DejaVuSans-7a" x="361.523438"/>
      <use xlink:href="#DejaVuSans-20" x="414.013672"/>
      <use xlink:href="#DejaVuSans-70" x="445.800781"/>
      <use xlink:href="#DejaVuSans-72" x="509.277344"/>
      <use xlink:href="#DejaVuSans-6f" x="548.140625"/>
      <use xlink:href="#DejaVuSans-20" x="609.322266"/>
      <use xlink:href="#DejaVuSans-37" x="641.109375"/>
      <use xlink:href="#DejaVuSans-20" x="704.732422"/>
      <use xlink:href="#DejaVuSans-54" x="736.519531"/>
      <use xlink:href="#DejaVuSans-61" x="781.103516"/>
      <use xlink:href="#DejaVuSans-67" x="842.382812"/>
      <use xlink:href="#DejaVuSans-65" x="905.859375"/>
      <use xlink:href="#DejaVuSans-20" x="967.382812"/>
      <use xlink:href="#DejaVuSans-70" x="999.169922"/>
      <use xlink:href="#DejaVuSans-72" x="1062.646484"/>
      <use xlink:href="#DejaVuSans-6f" x="1101.509766"/>
      <use xlink:href="#DejaVuSans-20" x="1162.691406"/>
      <use xlink:href="#DejaVuSans-31" x="1194.478516"/>
      <use xlink:href="#DejaVuSans-30" x="1258.101562"/>
      <use xlink:href="#DejaVuSans-30" x="1321.724609"/>
      <use xlink:href="#DejaVuSans-2e" x="1385.347656"/>
      <use xlink:href="#DejaVuSans-30" x="1417.134766"/>
      <use xlink:href="#DejaVuSans-30" x="1480.757812"/>
      <use xlink:href="#DejaVuSans-30" x="1544.380859"/>
      <use xlink:href="#DejaVuSans-20" x="1608.003906"/>
      <use xlink:href="#DejaVuSans-45" x="1639.791016"/>
      <use xlink:href="#DejaVuSans-69" x="1702.974609"/>
      <use xlink:href="#DejaVuSans-6e" x="1730.757812"/>
      <use xlink:href="#DejaVuSans-77" x="1794.136719"/>
      <use xlink:href="#DejaVuSans-6f" x="1875.923828"/>
      <use xlink:href="#DejaVuSans-68" x="1937.105469"/>
      <use xlink:href="#DejaVuSans-6e" x="2000.484375"/>
      <use xlink:href="#DejaVuSans-65" x="2063.863281"/>
      <use xlink:href="#DejaVuSans-72" x="2125.386719"/>
     </g>
    </g>
   </g>
   <g id="line2d_33">
    <path d="M 73.832727 265.684988 
L 76.643589 265.684988 
L 76.994947 265.515743 
L 77.346305 265.515743 
L 78.04902 264.895178 
L 78.751736 264.613103 
L 79.454451 264.556688 
L 79.805809 264.105368 
L 80.157166 264.161783 
L 80.508524 264.105368 
L 81.562597 263.315558 
L 82.265313 262.130843 
L 83.670744 261.566693 
L 84.022102 261.566693 
L 84.724817 262.018013 
L 85.076175 261.679523 
L 85.427532 261.792353 
L 85.77889 262.130843 
L 86.130248 261.848768 
L 86.481606 261.171788 
L 87.184321 262.074428 
L 87.535679 262.694993 
L 88.238394 263.033483 
L 88.589752 263.541218 
L 88.94111 264.443858 
L 89.292468 264.218198 
L 89.643825 264.387443 
L 89.995183 264.274613 
L 90.346541 264.500273 
L 91.400614 264.331028 
L 91.751972 264.613103 
L 92.103329 264.613103 
L 92.454687 264.895178 
L 92.806045 264.895178 
L 94.211476 265.459328 
L 95.265549 265.684988 
L 96.319622 265.797818 
L 97.373695 265.741403 
L 98.076411 265.572158 
L 99.8332 265.628573 
L 100.535915 265.684988 
L 117.752444 265.628573 
L 118.103802 265.572158 
L 118.455159 265.177253 
L 118.806517 265.177253 
L 119.509233 265.064423 
L 120.563306 265.064423 
L 120.914664 265.402913 
L 121.266021 265.402913 
L 121.617379 265.515743 
L 122.320094 265.459328 
L 123.02281 265.515743 
L 123.725525 265.628573 
L 124.076883 265.572158 
L 124.779599 265.628573 
L 128.995891 265.572158 
L 131.104038 265.233668 
L 132.158111 265.459328 
L 132.509469 265.459328 
L 133.9149 264.669518 
L 134.617615 264.556688 
L 135.320331 264.556688 
L 136.374404 264.951593 
L 137.077119 265.064423 
L 138.48255 265.120838 
L 138.833908 265.177253 
L 140.239339 264.613103 
L 140.590697 264.105368 
L 140.942054 263.371973 
L 141.64477 263.146313 
L 141.996128 262.469333 
L 142.347485 262.412918 
L 142.698843 262.977068 
L 143.050201 262.864238 
L 143.401558 263.371973 
L 143.752916 263.089898 
L 144.104274 263.033483 
L 144.455632 263.484803 
L 144.806989 263.710463 
L 145.158347 263.428388 
L 145.509705 264.048953 
L 145.861063 264.161783 
L 146.915136 264.951593 
L 147.266494 264.951593 
L 147.617851 265.177253 
L 147.969209 264.838763 
L 149.023282 264.556688 
L 149.37464 263.654048 
L 149.725998 263.259143 
L 150.077355 263.259143 
L 150.428713 263.541218 
L 150.780071 262.243673 
L 151.131429 262.300088 
L 151.482786 262.187258 
L 151.834144 263.089898 
L 152.185502 263.484803 
L 152.53686 262.751408 
L 152.888217 262.525748 
L 153.239575 263.146313 
L 153.590933 261.453863 
L 153.94229 260.607637 
L 154.645006 259.422922 
L 154.996364 259.987072 
L 155.347721 259.704997 
L 156.050437 257.730472 
L 157.10451 258.745942 
L 157.455868 254.345572 
L 157.807226 254.345572 
L 158.158583 254.063496 
L 158.509941 255.643117 
L 158.861299 254.289156 
L 159.212656 251.919726 
L 159.564014 250.396521 
L 159.915372 254.401987 
L 160.26673 253.499346 
L 160.618087 254.007081 
L 160.969445 252.653121 
L 161.320803 252.483876 
L 161.672161 253.499346 
L 162.374876 253.330101 
L 162.726234 252.483876 
L 163.077591 250.227276 
L 163.428949 251.017086 
L 163.780307 251.468406 
L 164.131665 251.355576 
L 165.185738 253.894251 
L 165.537096 254.007081 
L 165.888453 253.104441 
L 166.239811 253.273686 
L 166.591169 253.894251 
L 166.942527 254.176326 
L 167.293884 253.781421 
L 167.645242 253.555761 
L 167.9966 255.755947 
L 168.347957 257.053492 
L 169.050673 257.504812 
L 169.402031 257.617642 
L 169.753388 257.899717 
L 170.104746 257.730472 
L 170.456104 258.012547 
L 170.807462 257.674057 
L 171.158819 257.843302 
L 171.510177 257.053492 
L 171.861535 257.222737 
L 172.212893 257.222737 
L 172.56425 257.956132 
L 172.915608 256.602172 
L 173.266966 256.207267 
L 173.618323 256.150852 
L 173.969681 256.263682 
L 174.672397 252.935196 
L 175.023754 251.637651 
L 175.375112 251.806896 
L 175.72647 251.581236 
L 176.429185 247.970676 
L 176.780543 250.001616 
L 177.131901 250.283691 
L 177.483259 250.396521 
L 177.834616 248.873316 
L 178.185974 248.929731 
L 178.537332 251.129916 
L 178.888689 254.345572 
L 179.240047 253.160856 
L 179.591405 253.894251 
L 179.942763 253.668591 
L 180.645478 256.038022 
L 180.996836 255.812362 
L 181.348194 255.361042 
L 181.699551 255.643117 
L 182.050909 254.007081 
L 182.402267 253.837836 
L 182.753625 254.119911 
L 183.104982 254.063496 
L 183.45634 253.048026 
L 183.807698 249.550296 
L 184.159055 249.888786 
L 184.510413 250.452936 
L 184.861771 249.268221 
L 185.564486 247.519355 
L 185.915844 248.478411 
L 186.267202 249.832371 
L 186.61856 248.027091 
L 186.969917 249.381051 
L 187.321275 251.694066 
L 187.672633 251.806896 
L 188.023991 252.540291 
L 188.375348 251.524821 
L 188.726706 252.822366 
L 189.078064 254.627647 
L 189.429421 254.684062 
L 189.780779 254.176326 
L 190.132137 254.966137 
L 190.483495 255.191797 
L 190.834852 255.925192 
L 191.18621 256.263682 
L 191.537568 256.884247 
L 191.888926 256.545757 
L 192.240283 257.617642 
L 192.591641 259.084432 
L 192.942999 259.535752 
L 193.294357 260.607637 
L 193.645714 261.002542 
L 193.997072 260.833297 
L 194.34843 261.058957 
L 194.699787 260.889712 
L 195.402503 261.397448 
L 195.753861 261.453863 
L 196.105218 261.735938 
L 196.456576 261.792353 
L 196.807934 261.735938 
L 197.159292 262.525748 
L 197.510649 262.356503 
L 197.862007 262.525748 
L 198.564723 262.582163 
L 199.267438 263.089898 
L 199.618796 262.694993 
L 200.672869 263.315558 
L 201.375584 262.751408 
L 201.726942 262.694993 
L 202.781015 261.058957 
L 203.132373 261.002542 
L 203.483731 260.776882 
L 204.186446 259.761412 
L 204.537804 259.704997 
L 204.889162 258.294622 
L 205.240519 257.786887 
L 205.943235 255.530287 
L 206.294593 255.925192 
L 206.64595 255.868777 
L 206.997308 255.699532 
L 207.348666 255.191797 
L 207.700024 255.417457 
L 208.051381 254.627647 
L 208.402739 255.248212 
L 209.105455 253.273686 
L 209.456812 251.637651 
L 209.80817 250.904256 
L 210.159528 249.606711 
L 210.510885 249.663126 
L 211.213601 248.534826 
L 211.564959 249.042561 
L 211.916316 250.340106 
L 212.267674 250.904256 
L 212.619032 250.735011 
L 213.321747 251.299161 
L 213.673105 252.427461 
L 214.024463 252.991611 
L 214.375821 253.160856 
L 214.727178 253.160856 
L 215.078536 251.637651 
L 215.429894 251.750481 
L 215.781251 251.129916 
L 216.132609 251.017086 
L 216.483967 250.227276 
L 217.186682 248.196336 
L 217.889398 249.098976 
L 218.240756 250.227276 
L 218.592113 248.929731 
L 219.294829 247.745016 
L 219.997544 249.550296 
L 220.70026 247.35011 
L 221.051617 247.23728 
L 221.402975 248.760486 
L 222.105691 247.632186 
L 222.457048 248.196336 
L 222.808406 246.78596 
L 223.511122 249.268221 
L 224.213837 248.478411 
L 224.565195 248.252751 
L 224.916553 248.196336 
L 225.26791 249.606711 
L 225.619268 247.46294 
L 226.321983 246.10898 
L 226.673341 245.939735 
L 227.024699 247.575771 
L 227.376057 248.196336 
L 228.43013 250.791426 
L 228.781488 251.017086 
L 229.132845 252.822366 
L 229.484203 253.499346 
L 230.186919 255.699532 
L 230.889634 257.504812 
L 231.240992 257.956132 
L 231.592349 259.422922 
L 231.943707 259.648582 
L 232.295065 259.084432 
L 232.646423 258.745942 
L 233.349138 258.689527 
L 233.700496 258.802357 
L 234.051854 258.689527 
L 234.403211 259.704997 
L 234.754569 260.269147 
L 235.105927 261.228203 
L 235.457285 261.848768 
L 235.808642 262.187258 
L 236.16 262.018013 
L 236.862715 261.961598 
L 237.214073 262.243673 
L 237.565431 262.018013 
L 238.268146 262.187258 
L 238.970862 263.823293 
L 241.430366 265.064423 
L 241.781724 265.346498 
L 242.484439 265.233668 
L 243.187155 265.177253 
L 243.538512 265.290083 
L 243.88987 265.008008 
L 244.241228 265.008008 
L 244.943943 265.177253 
L 245.998017 265.177253 
L 246.349374 265.459328 
L 246.700732 265.402913 
L 248.106163 265.572158 
L 248.808878 265.402913 
L 249.511594 265.402913 
L 250.214309 265.064423 
L 250.565667 264.895178 
L 250.917025 265.008008 
L 251.268383 264.782348 
L 251.61974 264.725933 
L 251.971098 264.443858 
L 253.025171 264.838763 
L 254.079244 264.838763 
L 254.430602 264.951593 
L 254.78196 264.613103 
L 255.133318 264.443858 
L 255.484675 264.556688 
L 255.836033 264.274613 
L 256.187391 264.613103 
L 256.890106 264.387443 
L 257.241464 264.725933 
L 257.592822 264.782348 
L 257.944179 264.556688 
L 258.295537 264.669518 
L 258.998253 264.443858 
L 259.34961 264.500273 
L 259.700968 264.161783 
L 260.052326 263.992538 
L 260.403684 263.992538 
L 260.755041 263.879708 
L 261.106399 263.428388 
L 261.457757 262.694993 
L 262.160472 262.074428 
L 262.863188 261.115372 
L 263.214545 260.889712 
L 263.565903 259.592167 
L 263.917261 259.310092 
L 264.619976 258.407452 
L 264.971334 258.407452 
L 265.322692 258.294622 
L 266.025407 257.674057 
L 266.376765 256.884247 
L 267.079481 256.658587 
L 267.430838 256.207267 
L 267.782196 256.150852 
L 268.133554 256.658587 
L 268.484911 257.730472 
L 268.836269 258.294622 
L 269.187627 258.012547 
L 269.538985 257.166322 
L 269.890342 257.222737 
L 270.2417 256.545757 
L 270.593058 256.150852 
L 270.944416 253.725006 
L 271.295773 253.104441 
L 271.647131 253.104441 
L 272.349847 252.371046 
L 272.701204 253.612176 
L 273.052562 253.612176 
L 273.755277 255.530287 
L 274.457993 255.925192 
L 274.809351 257.053492 
L 275.160708 256.940662 
L 275.512066 257.335567 
L 275.863424 258.802357 
L 276.566139 259.028017 
L 276.917497 260.664052 
L 277.268855 259.930657 
L 277.97157 259.704997 
L 278.322928 259.761412 
L 278.674286 258.858772 
L 279.025643 258.915187 
L 279.377001 257.899717 
L 279.728359 258.125377 
L 280.079717 258.520282 
L 280.782432 257.674057 
L 281.485148 257.617642 
L 281.836505 257.843302 
L 282.539221 256.602172 
L 282.890579 256.827832 
L 283.241936 255.473872 
L 283.944652 249.775956 
L 284.998725 245.601245 
L 285.70144 242.893325 
L 286.052798 240.9188 
L 286.404156 240.185404 
L 286.755514 235.446544 
L 287.106871 235.164469 
L 287.458229 235.954279 
L 287.809587 236.067109 
L 288.160945 237.590314 
L 288.512302 237.815974 
L 289.215018 228.507498 
L 289.566375 228.733158 
L 289.917733 227.379198 
L 290.971806 205.772249 
L 291.323164 201.033389 
L 291.674522 202.556594 
L 292.02588 196.012453 
L 292.377237 187.155297 
L 292.728595 192.345477 
L 293.079953 186.929637 
L 293.431311 192.909627 
L 294.134026 185.180771 
L 294.485384 186.026996 
L 294.836741 191.442837 
L 295.188099 190.258122 
L 295.539457 191.837742 
L 295.890815 182.642096 
L 296.242172 188.622087 
L 296.59353 181.908701 
L 296.944888 183.996056 
L 297.296246 185.124356 
L 298.350319 192.063402 
L 298.701677 190.822272 
L 299.053034 200.976974 
L 299.75575 198.381883 
L 300.107107 198.889618 
L 300.458465 197.592073 
L 300.809823 201.146219 
L 301.161181 209.664885 
L 301.512538 214.234501 
L 301.863896 216.265441 
L 302.215254 212.711295 
L 302.566612 212.65488 
L 302.917969 215.193556 
L 303.269327 219.255436 
L 303.620685 218.860531 
L 303.972043 219.932416 
L 304.3234 220.440152 
L 304.674758 226.363727 
L 305.026116 227.209953 
L 305.728831 231.610323 
L 306.080189 233.077113 
L 306.431547 235.277299 
L 306.782904 238.210879 
L 307.836978 236.687674 
L 308.188335 238.775029 
L 308.539693 239.734084 
L 308.891051 239.452009 
L 309.242409 239.339179 
L 309.593766 242.38559 
L 309.945124 241.48295 
L 310.296482 243.231815 
L 310.647839 241.48295 
L 310.999197 242.216345 
L 311.350555 240.523894 
L 311.701913 237.759559 
L 312.404628 239.113519 
L 312.755986 237.477484 
L 313.107344 234.938809 
L 313.458701 229.635798 
L 313.810059 228.169008 
L 314.161417 227.830518 
L 314.512774 219.932416 
L 314.864132 220.609397 
L 315.21549 215.588461 
L 315.566848 208.36734 
L 315.918205 209.890545 
L 316.269563 203.459234 
L 316.620921 201.484709 
L 316.972279 202.500179 
L 317.323636 186.703977 
L 317.674994 183.883226 
L 318.026352 178.016065 
L 318.37771 163.404578 
L 318.729067 153.644782 
L 319.080425 155.901382 
L 319.431783 156.465532 
L 319.78314 149.526486 
L 320.134498 138.807635 
L 320.485856 135.253489 
L 320.837214 127.129728 
L 321.188571 126.057843 
L 321.539929 126.960483 
L 321.891287 128.935008 
L 322.242645 103.661084 
L 322.594002 90.177897 
L 323.296718 83.013191 
L 323.648076 74.720185 
L 323.999433 60.108698 
L 324.350791 52.154182 
L 325.053506 91.588273 
L 325.404864 90.403557 
L 325.756222 98.583734 
L 326.458937 90.685632 
L 326.810295 79.571876 
L 327.161653 94.634683 
L 327.513011 93.844873 
L 327.864368 91.531858 
L 328.215726 90.403557 
L 328.567084 96.722038 
L 329.269799 133.617454 
L 329.621157 115.621066 
L 330.67523 130.176138 
L 331.026588 140.612915 
L 331.377946 128.483688 
L 331.729303 111.107865 
L 332.080661 123.011432 
L 332.432019 119.062382 
L 332.783377 105.52278 
L 333.134734 78.782066 
L 333.486092 72.74566 
L 333.83745 72.74566 
L 334.188808 77.823011 
L 334.540165 71.16604 
L 334.891523 69.191514 
L 335.242881 62.985863 
L 335.594238 73.817545 
L 335.945596 72.802075 
L 336.296954 78.274331 
L 336.648312 79.684706 
L 336.999669 63.775674 
L 337.351027 59.375303 
L 337.702385 59.883038 
L 338.053743 57.400778 
L 338.4051 53.677387 
L 338.756458 61.519073 
L 339.107816 72.97132 
L 339.459174 68.627364 
L 339.810531 70.60189 
L 340.161889 79.628291 
L 340.864604 105.804855 
L 341.215962 105.29712 
L 341.56732 102.250709 
L 341.918678 128.709348 
L 342.270035 136.212544 
L 342.621393 155.280817 
L 342.972751 160.865903 
L 343.324109 172.543809 
L 343.675466 165.830424 
L 344.026824 163.573823 
L 344.378182 174.57475 
L 345.080897 187.098882 
L 345.783613 195.391888 
L 346.13497 204.249044 
L 346.486328 200.356409 
L 346.837686 205.885079 
L 347.189044 209.04432 
L 347.540401 207.91602 
L 347.891759 209.49564 
L 348.243117 195.222643 
L 348.594475 189.073407 
L 348.945832 193.304533 
L 349.648548 188.057937 
L 349.999906 188.678502 
L 350.351263 190.258122 
L 350.702621 198.269053 
L 351.053979 202.105274 
L 351.405336 203.402819 
L 351.756694 201.259049 
L 352.108052 203.007914 
L 352.45941 205.941494 
L 353.513483 220.101661 
L 353.864841 227.435613 
L 354.216198 219.481096 
L 354.567556 218.578456 
L 354.918914 222.696752 
L 355.270272 224.332787 
L 355.621629 222.471092 
L 356.324345 222.471092 
L 356.675702 227.492028 
L 357.378418 232.230888 
L 357.729776 233.246358 
L 358.081133 237.872389 
L 358.783849 237.985219 
L 359.135207 240.636724 
L 359.486564 244.3037 
L 359.837922 245.99615 
L 360.18928 250.847841 
L 360.540638 251.242746 
L 361.243353 251.242746 
L 361.594711 251.806896 
L 361.946068 253.048026 
L 362.297426 252.088971 
L 362.648784 249.606711 
L 363.000142 248.591241 
L 363.702857 248.591241 
L 364.054215 254.571232 
L 364.405573 246.391055 
L 364.75693 244.86785 
L 365.108288 242.49842 
L 365.459646 241.14446 
L 366.162361 241.14446 
L 366.513719 231.723153 
L 366.865077 237.308239 
L 367.216434 234.769564 
L 367.567792 239.621254 
L 367.91915 239.057104 
L 368.621865 238.887859 
L 368.973223 234.769564 
L 369.324581 234.092584 
L 369.675939 236.405599 
L 370.027296 229.466553 
L 370.378654 229.184478 
L 371.08137 229.353723 
L 371.432727 231.835983 
L 371.784085 230.312778 
L 372.135443 227.097123 
L 372.4868 225.912407 
L 372.838158 227.040707 
L 373.540874 226.984292 
L 373.892231 230.087118 
L 374.243589 226.363727 
L 374.594947 225.968822 
L 374.946305 228.563913 
L 375.297662 225.122597 
L 376.000378 225.122597 
L 376.351736 214.742236 
L 376.703093 219.876001 
L 377.054451 212.147145 
L 377.405809 209.26998 
L 377.757166 211.18809 
L 378.108524 211.131675 
L 378.459882 210.96243 
L 378.81124 205.715834 
L 379.162597 203.459234 
L 379.513955 207.91602 
L 379.865313 202.951499 
L 380.216671 203.966969 
L 380.919386 204.249044 
L 381.270744 212.31639 
L 381.622102 207.12621 
L 381.973459 211.582995 
L 382.324817 220.496567 
L 382.676175 218.691286 
L 383.37889 218.691286 
L 383.730248 221.794112 
L 384.081606 226.532972 
L 384.432963 228.056178 
L 385.487037 228.394668 
L 385.838394 228.338253 
L 386.189752 233.189943 
L 386.54111 236.010694 
L 386.892468 237.872389 
L 387.243825 239.113519 
L 387.595183 242.15993 
L 388.297898 242.216345 
L 388.649256 249.888786 
L 389.000614 249.493881 
L 389.351972 250.114446 
L 389.703329 250.452936 
L 390.054687 251.637651 
L 390.757403 251.637651 
L 391.10876 246.89879 
L 391.811476 248.929731 
L 392.162834 248.816901 
L 392.514191 249.211806 
L 393.216907 249.211806 
L 393.568264 247.293695 
L 393.919622 248.760486 
L 394.27098 248.252751 
L 394.622338 248.929731 
L 395.676411 248.873316 
L 396.027769 252.032556 
L 396.379126 251.976141 
L 396.730484 252.032556 
L 397.081842 252.653121 
L 397.4332 252.258216 
L 398.135915 252.314631 
L 398.487273 253.104441 
L 398.487273 253.104441 
" clip-path="url(#p6ff4e8a88f)" style="fill: none; stroke: #1f77b4; stroke-width: 1.5; stroke-linecap: square"/>
   </g>
   <g id="patch_3">
    <path d="M 57.6 276.48 
L 57.6 41.472 
" style="fill: none; stroke: #000000; stroke-width: 0.8; stroke-linejoin: miter; stroke-linecap: square"/>
   </g>
   <g id="patch_4">
    <path d="M 414.72 276.48 
L 414.72 41.472 
" style="fill: none; stroke: #000000; stroke-width: 0.8; stroke-linejoin: miter; stroke-linecap: square"/>
   </g>
   <g id="patch_5">
    <path d="M 57.6 276.48 
L 414.72 276.48 
" style="fill: none; stroke: #000000; stroke-width: 0.8; stroke-linejoin: miter; stroke-linecap: square"/>
   </g>
   <g id="patch_6">
    <path d="M 57.6 41.472 
L 414.72 41.472 
" style="fill: none; stroke: #000000; stroke-width: 0.8; stroke-linejoin: miter; stroke-linecap: square"/>
   </g>
  </g>
  <g id="text_18">
   <!-- Inzidenzverlauf LK Unterallgäu -->
   <g transform="translate(92.543906 20.589187)scale(0.18 -0.18)">
    <defs>
     <path id="DejaVuSans-76" d="M 191 3500 
L 800 3500 
L 1894 563 
L 2988 3500 
L 3597 3500 
L 2284 0 
L 1503 0 
L 191 3500 
z
" transform="scale(0.015625)"/>
     <path id="DejaVuSans-6c" d="M 603 4863 
L 1178 4863 
L 1178 0 
L 603 0 
L 603 4863 
z
" transform="scale(0.015625)"/>
     <path id="DejaVuSans-75" d="M 544 1381 
L 544 3500 
L 1119 3500 
L 1119 1403 
Q 1119 906 1312 657 
Q 1506 409 1894 409 
Q 2359 409 2629 706 
Q 2900 1003 2900 1516 
L 2900 3500 
L 3475 3500 
L 3475 0 
L 2900 0 
L 2900 538 
Q 2691 219 2414 64 
Q 2138 -91 1772 -91 
Q 1169 -91 856 284 
Q 544 659 544 1381 
z
M 1991 3584 
L 1991 3584 
z
" transform="scale(0.015625)"/>
     <path id="DejaVuSans-66" d="M 2375 4863 
L 2375 4384 
L 1825 4384 
Q 1516 4384 1395 4259 
Q 1275 4134 1275 3809 
L 1275 3500 
L 2222 3500 
L 2222 3053 
L 1275 3053 
L 1275 0 
L 697 0 
L 697 3053 
L 147 3053 
L 147 3500 
L 697 3500 
L 697 3744 
Q 697 4328 969 4595 
Q 1241 4863 1831 4863 
L 2375 4863 
z
" transform="scale(0.015625)"/>
     <path id="DejaVuSans-4c" d="M 628 4666 
L 1259 4666 
L 1259 531 
L 3531 531 
L 3531 0 
L 628 0 
L 628 4666 
z
" transform="scale(0.015625)"/>
     <path id="DejaVuSans-4b" d="M 628 4666 
L 1259 4666 
L 1259 2694 
L 3353 4666 
L 4166 4666 
L 1850 2491 
L 4331 0 
L 3500 0 
L 1259 2247 
L 1259 0 
L 628 0 
L 628 4666 
z
" transform="scale(0.015625)"/>
     <path id="DejaVuSans-55" d="M 556 4666 
L 1191 4666 
L 1191 1831 
Q 1191 1081 1462 751 
Q 1734 422 2344 422 
Q 2950 422 3222 751 
Q 3494 1081 3494 1831 
L 3494 4666 
L 4128 4666 
L 4128 1753 
Q 4128 841 3676 375 
Q 3225 -91 2344 -91 
Q 1459 -91 1007 375 
Q 556 841 556 1753 
L 556 4666 
z
" transform="scale(0.015625)"/>
     <path id="DejaVuSans-74" d="M 1172 4494 
L 1172 3500 
L 2356 3500 
L 2356 3053 
L 1172 3053 
L 1172 1153 
Q 1172 725 1289 603 
Q 1406 481 1766 481 
L 2356 481 
L 2356 0 
L 1766 0 
Q 1100 0 847 248 
Q 594 497 594 1153 
L 594 3053 
L 172 3053 
L 172 3500 
L 594 3500 
L 594 4494 
L 1172 4494 
z
" transform="scale(0.015625)"/>
     <path id="DejaVuSans-e4" d="M 2194 1759 
Q 1497 1759 1228 1600 
Q 959 1441 959 1056 
Q 959 750 1161 570 
Q 1363 391 1709 391 
Q 2188 391 2477 730 
Q 2766 1069 2766 1631 
L 2766 1759 
L 2194 1759 
z
M 3341 1997 
L 3341 0 
L 2766 0 
L 2766 531 
Q 2569 213 2275 61 
Q 1981 -91 1556 -91 
Q 1019 -91 701 211 
Q 384 513 384 1019 
Q 384 1609 779 1909 
Q 1175 2209 1959 2209 
L 2766 2209 
L 2766 2266 
Q 2766 2663 2505 2880 
Q 2244 3097 1772 3097 
Q 1472 3097 1187 3025 
Q 903 2953 641 2809 
L 641 3341 
Q 956 3463 1253 3523 
Q 1550 3584 1831 3584 
Q 2591 3584 2966 3190 
Q 3341 2797 3341 1997 
z
M 2150 4850 
L 2784 4850 
L 2784 4219 
L 2150 4219 
L 2150 4850 
z
M 928 4850 
L 1562 4850 
L 1562 4219 
L 928 4219 
L 928 4850 
z
" transform="scale(0.015625)"/>
    </defs>
    <use xlink:href="#DejaVuSans-49"/>
    <use xlink:href="#DejaVuSans-6e" x="29.492188"/>
    <use xlink:href="#DejaVuSans-7a" x="92.871094"/>
    <use xlink:href="#DejaVuSans-69" x="145.361328"/>
    <use xlink:href="#DejaVuSans-64" x="173.144531"/>
    <use xlink:href="#DejaVuSans-65" x="236.621094"/>
    <use xlink:href="#DejaVuSans-6e" x="298.144531"/>
    <use xlink:href="#DejaVuSans-7a" x="361.523438"/>
    <use xlink:href="#DejaVuSans-76" x="414.013672"/>
    <use xlink:href="#DejaVuSans-65" x="473.193359"/>
    <use xlink:href="#DejaVuSans-72" x="534.716797"/>
    <use xlink:href="#DejaVuSans-6c" x="575.830078"/>
    <use xlink:href="#DejaVuSans-61" x="603.613281"/>
    <use xlink:href="#DejaVuSans-75" x="664.892578"/>
    <use xlink:href="#DejaVuSans-66" x="728.271484"/>
    <use xlink:href="#DejaVuSans-20" x="763.476562"/>
    <use xlink:href="#DejaVuSans-4c" x="795.263672"/>
    <use xlink:href="#DejaVuSans-4b" x="850.976562"/>
    <use xlink:href="#DejaVuSans-20" x="916.552734"/>
    <use xlink:href="#DejaVuSans-55" x="948.339844"/>
    <use xlink:href="#DejaVuSans-6e" x="1021.533203"/>
    <use xlink:href="#DejaVuSans-74" x="1084.912109"/>
    <use xlink:href="#DejaVuSans-65" x="1124.121094"/>
    <use xlink:href="#DejaVuSans-72" x="1185.644531"/>
    <use xlink:href="#DejaVuSans-61" x="1226.757812"/>
    <use xlink:href="#DejaVuSans-6c" x="1288.037109"/>
    <use xlink:href="#DejaVuSans-6c" x="1315.820312"/>
    <use xlink:href="#DejaVuSans-67" x="1343.603516"/>
    <use xlink:href="#DejaVuSans-e4" x="1407.080078"/>
    <use xlink:href="#DejaVuSans-75" x="1468.359375"/>
   </g>
  </g>
 </g>
 <defs>
  <clipPath id="p6ff4e8a88f">
   <rect x="57.6" y="41.472" width="357.12" height="235.008"/>
  </clipPath>
 </defs>
</svg>
