<?xml version="1.0" encoding="utf-8" standalone="no"?>
<!DOCTYPE svg PUBLIC "-//W3C//DTD SVG 1.1//EN"
  "http://www.w3.org/Graphics/SVG/1.1/DTD/svg11.dtd">
<svg xmlns:xlink="http://www.w3.org/1999/xlink" width="460.8pt" height="345.6pt" viewBox="0 0 460.8 345.6" xmlns="http://www.w3.org/2000/svg" version="1.1">
 <metadata>
  <rdf:RDF xmlns:dc="http://purl.org/dc/elements/1.1/" xmlns:cc="http://creativecommons.org/ns#" xmlns:rdf="http://www.w3.org/1999/02/22-rdf-syntax-ns#">
   <cc:Work>
    <dc:type rdf:resource="http://purl.org/dc/dcmitype/StillImage"/>
    <dc:date>2022-05-28T09:21:59.609929</dc:date>
    <dc:format>image/svg+xml</dc:format>
    <dc:creator>
     <cc:Agent>
      <dc:title>Matplotlib v3.5.2, https://matplotlib.org/</dc:title>
     </cc:Agent>
    </dc:creator>
   </cc:Work>
  </rdf:RDF>
 </metadata>
 <defs>
  <style type="text/css">*{stroke-linejoin: round; stroke-linecap: butt}</style>
 </defs>
 <g id="figure_1">
  <g id="patch_1">
   <path d="M 0 345.6 
L 460.8 345.6 
L 460.8 0 
L 0 0 
z
" style="fill: #ffffff"/>
  </g>
  <g id="axes_1">
   <g id="patch_2">
    <path d="M 57.6 276.48 
L 414.72 276.48 
L 414.72 41.472 
L 57.6 41.472 
z
" style="fill: #ffffff"/>
   </g>
   <g id="matplotlib.axis_1">
    <g id="xtick_1">
     <g id="line2d_1">
      <path d="M 58.034332 276.48 
L 58.034332 41.472 
" clip-path="url(#pbf443b7a01)" style="fill: none; stroke-dasharray: 2.96,1.28; stroke-dashoffset: 0; stroke: #808080; stroke-width: 0.8"/>
     </g>
     <g id="line2d_2">
      <defs>
       <path id="m3c50753af9" d="M 0 0 
L 0 3.5 
" style="stroke: #000000; stroke-width: 0.8"/>
      </defs>
      <g>
       <use xlink:href="#m3c50753af9" x="58.034332" y="276.48" style="stroke: #000000; stroke-width: 0.8"/>
      </g>
     </g>
     <g id="text_1">
      <!-- 23.01.2020 -->
      <g transform="translate(7.409121 318.688565)rotate(-30)scale(0.1 -0.1)">
       <defs>
        <path id="DejaVuSans-32" d="M 1228 531 
L 3431 531 
L 3431 0 
L 469 0 
L 469 531 
Q 828 903 1448 1529 
Q 2069 2156 2228 2338 
Q 2531 2678 2651 2914 
Q 2772 3150 2772 3378 
Q 2772 3750 2511 3984 
Q 2250 4219 1831 4219 
Q 1534 4219 1204 4116 
Q 875 4013 500 3803 
L 500 4441 
Q 881 4594 1212 4672 
Q 1544 4750 1819 4750 
Q 2544 4750 2975 4387 
Q 3406 4025 3406 3419 
Q 3406 3131 3298 2873 
Q 3191 2616 2906 2266 
Q 2828 2175 2409 1742 
Q 1991 1309 1228 531 
z
" transform="scale(0.015625)"/>
        <path id="DejaVuSans-33" d="M 2597 2516 
Q 3050 2419 3304 2112 
Q 3559 1806 3559 1356 
Q 3559 666 3084 287 
Q 2609 -91 1734 -91 
Q 1441 -91 1130 -33 
Q 819 25 488 141 
L 488 750 
Q 750 597 1062 519 
Q 1375 441 1716 441 
Q 2309 441 2620 675 
Q 2931 909 2931 1356 
Q 2931 1769 2642 2001 
Q 2353 2234 1838 2234 
L 1294 2234 
L 1294 2753 
L 1863 2753 
Q 2328 2753 2575 2939 
Q 2822 3125 2822 3475 
Q 2822 3834 2567 4026 
Q 2313 4219 1838 4219 
Q 1578 4219 1281 4162 
Q 984 4106 628 3988 
L 628 4550 
Q 988 4650 1302 4700 
Q 1616 4750 1894 4750 
Q 2613 4750 3031 4423 
Q 3450 4097 3450 3541 
Q 3450 3153 3228 2886 
Q 3006 2619 2597 2516 
z
" transform="scale(0.015625)"/>
        <path id="DejaVuSans-2e" d="M 684 794 
L 1344 794 
L 1344 0 
L 684 0 
L 684 794 
z
" transform="scale(0.015625)"/>
        <path id="DejaVuSans-30" d="M 2034 4250 
Q 1547 4250 1301 3770 
Q 1056 3291 1056 2328 
Q 1056 1369 1301 889 
Q 1547 409 2034 409 
Q 2525 409 2770 889 
Q 3016 1369 3016 2328 
Q 3016 3291 2770 3770 
Q 2525 4250 2034 4250 
z
M 2034 4750 
Q 2819 4750 3233 4129 
Q 3647 3509 3647 2328 
Q 3647 1150 3233 529 
Q 2819 -91 2034 -91 
Q 1250 -91 836 529 
Q 422 1150 422 2328 
Q 422 3509 836 4129 
Q 1250 4750 2034 4750 
z
" transform="scale(0.015625)"/>
        <path id="DejaVuSans-31" d="M 794 531 
L 1825 531 
L 1825 4091 
L 703 3866 
L 703 4441 
L 1819 4666 
L 2450 4666 
L 2450 531 
L 3481 531 
L 3481 0 
L 794 0 
L 794 531 
z
" transform="scale(0.015625)"/>
       </defs>
       <use xlink:href="#DejaVuSans-32"/>
       <use xlink:href="#DejaVuSans-33" x="63.623047"/>
       <use xlink:href="#DejaVuSans-2e" x="127.246094"/>
       <use xlink:href="#DejaVuSans-30" x="159.033203"/>
       <use xlink:href="#DejaVuSans-31" x="222.65625"/>
       <use xlink:href="#DejaVuSans-2e" x="286.279297"/>
       <use xlink:href="#DejaVuSans-32" x="318.066406"/>
       <use xlink:href="#DejaVuSans-30" x="381.689453"/>
       <use xlink:href="#DejaVuSans-32" x="445.3125"/>
       <use xlink:href="#DejaVuSans-30" x="508.935547"/>
      </g>
     </g>
    </g>
    <g id="xtick_2">
     <g id="line2d_3">
      <path d="M 93.841818 276.48 
L 93.841818 41.472 
" clip-path="url(#pbf443b7a01)" style="fill: none; stroke-dasharray: 2.96,1.28; stroke-dashoffset: 0; stroke: #808080; stroke-width: 0.8"/>
     </g>
     <g id="line2d_4">
      <g>
       <use xlink:href="#m3c50753af9" x="93.841818" y="276.48" style="stroke: #000000; stroke-width: 0.8"/>
      </g>
     </g>
     <g id="text_2">
      <!-- 22.04.2020 -->
      <g transform="translate(43.216607 318.688565)rotate(-30)scale(0.1 -0.1)">
       <defs>
        <path id="DejaVuSans-34" d="M 2419 4116 
L 825 1625 
L 2419 1625 
L 2419 4116 
z
M 2253 4666 
L 3047 4666 
L 3047 1625 
L 3713 1625 
L 3713 1100 
L 3047 1100 
L 3047 0 
L 2419 0 
L 2419 1100 
L 313 1100 
L 313 1709 
L 2253 4666 
z
" transform="scale(0.015625)"/>
       </defs>
       <use xlink:href="#DejaVuSans-32"/>
       <use xlink:href="#DejaVuSans-32" x="63.623047"/>
       <use xlink:href="#DejaVuSans-2e" x="127.246094"/>
       <use xlink:href="#DejaVuSans-30" x="159.033203"/>
       <use xlink:href="#DejaVuSans-34" x="222.65625"/>
       <use xlink:href="#DejaVuSans-2e" x="286.279297"/>
       <use xlink:href="#DejaVuSans-32" x="318.066406"/>
       <use xlink:href="#DejaVuSans-30" x="381.689453"/>
       <use xlink:href="#DejaVuSans-32" x="445.3125"/>
       <use xlink:href="#DejaVuSans-30" x="508.935547"/>
      </g>
     </g>
    </g>
    <g id="xtick_3">
     <g id="line2d_5">
      <path d="M 129.649305 276.48 
L 129.649305 41.472 
" clip-path="url(#pbf443b7a01)" style="fill: none; stroke-dasharray: 2.96,1.28; stroke-dashoffset: 0; stroke: #808080; stroke-width: 0.8"/>
     </g>
     <g id="line2d_6">
      <g>
       <use xlink:href="#m3c50753af9" x="129.649305" y="276.48" style="stroke: #000000; stroke-width: 0.8"/>
      </g>
     </g>
     <g id="text_3">
      <!-- 21.07.2020 -->
      <g transform="translate(79.024094 318.688565)rotate(-30)scale(0.1 -0.1)">
       <defs>
        <path id="DejaVuSans-37" d="M 525 4666 
L 3525 4666 
L 3525 4397 
L 1831 0 
L 1172 0 
L 2766 4134 
L 525 4134 
L 525 4666 
z
" transform="scale(0.015625)"/>
       </defs>
       <use xlink:href="#DejaVuSans-32"/>
       <use xlink:href="#DejaVuSans-31" x="63.623047"/>
       <use xlink:href="#DejaVuSans-2e" x="127.246094"/>
       <use xlink:href="#DejaVuSans-30" x="159.033203"/>
       <use xlink:href="#DejaVuSans-37" x="222.65625"/>
       <use xlink:href="#DejaVuSans-2e" x="286.279297"/>
       <use xlink:href="#DejaVuSans-32" x="318.066406"/>
       <use xlink:href="#DejaVuSans-30" x="381.689453"/>
       <use xlink:href="#DejaVuSans-32" x="445.3125"/>
       <use xlink:href="#DejaVuSans-30" x="508.935547"/>
      </g>
     </g>
    </g>
    <g id="xtick_4">
     <g id="line2d_7">
      <path d="M 165.456791 276.48 
L 165.456791 41.472 
" clip-path="url(#pbf443b7a01)" style="fill: none; stroke-dasharray: 2.96,1.28; stroke-dashoffset: 0; stroke: #808080; stroke-width: 0.8"/>
     </g>
     <g id="line2d_8">
      <g>
       <use xlink:href="#m3c50753af9" x="165.456791" y="276.48" style="stroke: #000000; stroke-width: 0.8"/>
      </g>
     </g>
     <g id="text_4">
      <!-- 19.10.2020 -->
      <g transform="translate(114.831581 318.688565)rotate(-30)scale(0.1 -0.1)">
       <defs>
        <path id="DejaVuSans-39" d="M 703 97 
L 703 672 
Q 941 559 1184 500 
Q 1428 441 1663 441 
Q 2288 441 2617 861 
Q 2947 1281 2994 2138 
Q 2813 1869 2534 1725 
Q 2256 1581 1919 1581 
Q 1219 1581 811 2004 
Q 403 2428 403 3163 
Q 403 3881 828 4315 
Q 1253 4750 1959 4750 
Q 2769 4750 3195 4129 
Q 3622 3509 3622 2328 
Q 3622 1225 3098 567 
Q 2575 -91 1691 -91 
Q 1453 -91 1209 -44 
Q 966 3 703 97 
z
M 1959 2075 
Q 2384 2075 2632 2365 
Q 2881 2656 2881 3163 
Q 2881 3666 2632 3958 
Q 2384 4250 1959 4250 
Q 1534 4250 1286 3958 
Q 1038 3666 1038 3163 
Q 1038 2656 1286 2365 
Q 1534 2075 1959 2075 
z
" transform="scale(0.015625)"/>
       </defs>
       <use xlink:href="#DejaVuSans-31"/>
       <use xlink:href="#DejaVuSans-39" x="63.623047"/>
       <use xlink:href="#DejaVuSans-2e" x="127.246094"/>
       <use xlink:href="#DejaVuSans-31" x="159.033203"/>
       <use xlink:href="#DejaVuSans-30" x="222.65625"/>
       <use xlink:href="#DejaVuSans-2e" x="286.279297"/>
       <use xlink:href="#DejaVuSans-32" x="318.066406"/>
       <use xlink:href="#DejaVuSans-30" x="381.689453"/>
       <use xlink:href="#DejaVuSans-32" x="445.3125"/>
       <use xlink:href="#DejaVuSans-30" x="508.935547"/>
      </g>
     </g>
    </g>
    <g id="xtick_5">
     <g id="line2d_9">
      <path d="M 201.264278 276.48 
L 201.264278 41.472 
" clip-path="url(#pbf443b7a01)" style="fill: none; stroke-dasharray: 2.96,1.28; stroke-dashoffset: 0; stroke: #808080; stroke-width: 0.8"/>
     </g>
     <g id="line2d_10">
      <g>
       <use xlink:href="#m3c50753af9" x="201.264278" y="276.48" style="stroke: #000000; stroke-width: 0.8"/>
      </g>
     </g>
     <g id="text_5">
      <!-- 17.01.2021 -->
      <g transform="translate(150.639067 318.688565)rotate(-30)scale(0.1 -0.1)">
       <use xlink:href="#DejaVuSans-31"/>
       <use xlink:href="#DejaVuSans-37" x="63.623047"/>
       <use xlink:href="#DejaVuSans-2e" x="127.246094"/>
       <use xlink:href="#DejaVuSans-30" x="159.033203"/>
       <use xlink:href="#DejaVuSans-31" x="222.65625"/>
       <use xlink:href="#DejaVuSans-2e" x="286.279297"/>
       <use xlink:href="#DejaVuSans-32" x="318.066406"/>
       <use xlink:href="#DejaVuSans-30" x="381.689453"/>
       <use xlink:href="#DejaVuSans-32" x="445.3125"/>
       <use xlink:href="#DejaVuSans-31" x="508.935547"/>
      </g>
     </g>
    </g>
    <g id="xtick_6">
     <g id="line2d_11">
      <path d="M 237.071765 276.48 
L 237.071765 41.472 
" clip-path="url(#pbf443b7a01)" style="fill: none; stroke-dasharray: 2.96,1.28; stroke-dashoffset: 0; stroke: #808080; stroke-width: 0.8"/>
     </g>
     <g id="line2d_12">
      <g>
       <use xlink:href="#m3c50753af9" x="237.071765" y="276.48" style="stroke: #000000; stroke-width: 0.8"/>
      </g>
     </g>
     <g id="text_6">
      <!-- 17.04.2021 -->
      <g transform="translate(186.446554 318.688565)rotate(-30)scale(0.1 -0.1)">
       <use xlink:href="#DejaVuSans-31"/>
       <use xlink:href="#DejaVuSans-37" x="63.623047"/>
       <use xlink:href="#DejaVuSans-2e" x="127.246094"/>
       <use xlink:href="#DejaVuSans-30" x="159.033203"/>
       <use xlink:href="#DejaVuSans-34" x="222.65625"/>
       <use xlink:href="#DejaVuSans-2e" x="286.279297"/>
       <use xlink:href="#DejaVuSans-32" x="318.066406"/>
       <use xlink:href="#DejaVuSans-30" x="381.689453"/>
       <use xlink:href="#DejaVuSans-32" x="445.3125"/>
       <use xlink:href="#DejaVuSans-31" x="508.935547"/>
      </g>
     </g>
    </g>
    <g id="xtick_7">
     <g id="line2d_13">
      <path d="M 272.879251 276.48 
L 272.879251 41.472 
" clip-path="url(#pbf443b7a01)" style="fill: none; stroke-dasharray: 2.96,1.28; stroke-dashoffset: 0; stroke: #808080; stroke-width: 0.8"/>
     </g>
     <g id="line2d_14">
      <g>
       <use xlink:href="#m3c50753af9" x="272.879251" y="276.48" style="stroke: #000000; stroke-width: 0.8"/>
      </g>
     </g>
     <g id="text_7">
      <!-- 16.07.2021 -->
      <g transform="translate(222.254041 318.688565)rotate(-30)scale(0.1 -0.1)">
       <defs>
        <path id="DejaVuSans-36" d="M 2113 2584 
Q 1688 2584 1439 2293 
Q 1191 2003 1191 1497 
Q 1191 994 1439 701 
Q 1688 409 2113 409 
Q 2538 409 2786 701 
Q 3034 994 3034 1497 
Q 3034 2003 2786 2293 
Q 2538 2584 2113 2584 
z
M 3366 4563 
L 3366 3988 
Q 3128 4100 2886 4159 
Q 2644 4219 2406 4219 
Q 1781 4219 1451 3797 
Q 1122 3375 1075 2522 
Q 1259 2794 1537 2939 
Q 1816 3084 2150 3084 
Q 2853 3084 3261 2657 
Q 3669 2231 3669 1497 
Q 3669 778 3244 343 
Q 2819 -91 2113 -91 
Q 1303 -91 875 529 
Q 447 1150 447 2328 
Q 447 3434 972 4092 
Q 1497 4750 2381 4750 
Q 2619 4750 2861 4703 
Q 3103 4656 3366 4563 
z
" transform="scale(0.015625)"/>
       </defs>
       <use xlink:href="#DejaVuSans-31"/>
       <use xlink:href="#DejaVuSans-36" x="63.623047"/>
       <use xlink:href="#DejaVuSans-2e" x="127.246094"/>
       <use xlink:href="#DejaVuSans-30" x="159.033203"/>
       <use xlink:href="#DejaVuSans-37" x="222.65625"/>
       <use xlink:href="#DejaVuSans-2e" x="286.279297"/>
       <use xlink:href="#DejaVuSans-32" x="318.066406"/>
       <use xlink:href="#DejaVuSans-30" x="381.689453"/>
       <use xlink:href="#DejaVuSans-32" x="445.3125"/>
       <use xlink:href="#DejaVuSans-31" x="508.935547"/>
      </g>
     </g>
    </g>
    <g id="xtick_8">
     <g id="line2d_15">
      <path d="M 308.686738 276.48 
L 308.686738 41.472 
" clip-path="url(#pbf443b7a01)" style="fill: none; stroke-dasharray: 2.96,1.28; stroke-dashoffset: 0; stroke: #808080; stroke-width: 0.8"/>
     </g>
     <g id="line2d_16">
      <g>
       <use xlink:href="#m3c50753af9" x="308.686738" y="276.48" style="stroke: #000000; stroke-width: 0.8"/>
      </g>
     </g>
     <g id="text_8">
      <!-- 14.10.2021 -->
      <g transform="translate(258.061527 318.688565)rotate(-30)scale(0.1 -0.1)">
       <use xlink:href="#DejaVuSans-31"/>
       <use xlink:href="#DejaVuSans-34" x="63.623047"/>
       <use xlink:href="#DejaVuSans-2e" x="127.246094"/>
       <use xlink:href="#DejaVuSans-31" x="159.033203"/>
       <use xlink:href="#DejaVuSans-30" x="222.65625"/>
       <use xlink:href="#DejaVuSans-2e" x="286.279297"/>
       <use xlink:href="#DejaVuSans-32" x="318.066406"/>
       <use xlink:href="#DejaVuSans-30" x="381.689453"/>
       <use xlink:href="#DejaVuSans-32" x="445.3125"/>
       <use xlink:href="#DejaVuSans-31" x="508.935547"/>
      </g>
     </g>
    </g>
    <g id="xtick_9">
     <g id="line2d_17">
      <path d="M 344.494225 276.48 
L 344.494225 41.472 
" clip-path="url(#pbf443b7a01)" style="fill: none; stroke-dasharray: 2.96,1.28; stroke-dashoffset: 0; stroke: #808080; stroke-width: 0.8"/>
     </g>
     <g id="line2d_18">
      <g>
       <use xlink:href="#m3c50753af9" x="344.494225" y="276.48" style="stroke: #000000; stroke-width: 0.8"/>
      </g>
     </g>
     <g id="text_9">
      <!-- 12.01.2022 -->
      <g transform="translate(293.869014 318.688565)rotate(-30)scale(0.1 -0.1)">
       <use xlink:href="#DejaVuSans-31"/>
       <use xlink:href="#DejaVuSans-32" x="63.623047"/>
       <use xlink:href="#DejaVuSans-2e" x="127.246094"/>
       <use xlink:href="#DejaVuSans-30" x="159.033203"/>
       <use xlink:href="#DejaVuSans-31" x="222.65625"/>
       <use xlink:href="#DejaVuSans-2e" x="286.279297"/>
       <use xlink:href="#DejaVuSans-32" x="318.066406"/>
       <use xlink:href="#DejaVuSans-30" x="381.689453"/>
       <use xlink:href="#DejaVuSans-32" x="445.3125"/>
       <use xlink:href="#DejaVuSans-32" x="508.935547"/>
      </g>
     </g>
    </g>
    <g id="xtick_10">
     <g id="line2d_19">
      <path d="M 380.301711 276.48 
L 380.301711 41.472 
" clip-path="url(#pbf443b7a01)" style="fill: none; stroke-dasharray: 2.96,1.28; stroke-dashoffset: 0; stroke: #808080; stroke-width: 0.8"/>
     </g>
     <g id="line2d_20">
      <g>
       <use xlink:href="#m3c50753af9" x="380.301711" y="276.48" style="stroke: #000000; stroke-width: 0.8"/>
      </g>
     </g>
     <g id="text_10">
      <!-- 12.04.2022 -->
      <g transform="translate(329.6765 318.688565)rotate(-30)scale(0.1 -0.1)">
       <use xlink:href="#DejaVuSans-31"/>
       <use xlink:href="#DejaVuSans-32" x="63.623047"/>
       <use xlink:href="#DejaVuSans-2e" x="127.246094"/>
       <use xlink:href="#DejaVuSans-30" x="159.033203"/>
       <use xlink:href="#DejaVuSans-34" x="222.65625"/>
       <use xlink:href="#DejaVuSans-2e" x="286.279297"/>
       <use xlink:href="#DejaVuSans-32" x="318.066406"/>
       <use xlink:href="#DejaVuSans-30" x="381.689453"/>
       <use xlink:href="#DejaVuSans-32" x="445.3125"/>
       <use xlink:href="#DejaVuSans-32" x="508.935547"/>
      </g>
     </g>
    </g>
   </g>
   <g id="matplotlib.axis_2">
    <g id="ytick_1">
     <g id="line2d_21">
      <path d="M 57.6 265.797818 
L 414.72 265.797818 
" clip-path="url(#pbf443b7a01)" style="fill: none; stroke-dasharray: 2.96,1.28; stroke-dashoffset: 0; stroke: #808080; stroke-width: 0.8"/>
     </g>
     <g id="line2d_22">
      <defs>
       <path id="m4185283842" d="M 0 0 
L -3.5 0 
" style="stroke: #000000; stroke-width: 0.8"/>
      </defs>
      <g>
       <use xlink:href="#m4185283842" x="57.6" y="265.797818" style="stroke: #000000; stroke-width: 0.8"/>
      </g>
     </g>
     <g id="text_11">
      <!-- 0 -->
      <g transform="translate(44.2375 269.597037)scale(0.1 -0.1)">
       <use xlink:href="#DejaVuSans-30"/>
      </g>
     </g>
    </g>
    <g id="ytick_2">
     <g id="line2d_23">
      <path d="M 57.6 217.343643 
L 414.72 217.343643 
" clip-path="url(#pbf443b7a01)" style="fill: none; stroke-dasharray: 2.96,1.28; stroke-dashoffset: 0; stroke: #808080; stroke-width: 0.8"/>
     </g>
     <g id="line2d_24">
      <g>
       <use xlink:href="#m4185283842" x="57.6" y="217.343643" style="stroke: #000000; stroke-width: 0.8"/>
      </g>
     </g>
     <g id="text_12">
      <!-- 500 -->
      <g transform="translate(31.5125 221.142862)scale(0.1 -0.1)">
       <defs>
        <path id="DejaVuSans-35" d="M 691 4666 
L 3169 4666 
L 3169 4134 
L 1269 4134 
L 1269 2991 
Q 1406 3038 1543 3061 
Q 1681 3084 1819 3084 
Q 2600 3084 3056 2656 
Q 3513 2228 3513 1497 
Q 3513 744 3044 326 
Q 2575 -91 1722 -91 
Q 1428 -91 1123 -41 
Q 819 9 494 109 
L 494 744 
Q 775 591 1075 516 
Q 1375 441 1709 441 
Q 2250 441 2565 725 
Q 2881 1009 2881 1497 
Q 2881 1984 2565 2268 
Q 2250 2553 1709 2553 
Q 1456 2553 1204 2497 
Q 953 2441 691 2322 
L 691 4666 
z
" transform="scale(0.015625)"/>
       </defs>
       <use xlink:href="#DejaVuSans-35"/>
       <use xlink:href="#DejaVuSans-30" x="63.623047"/>
       <use xlink:href="#DejaVuSans-30" x="127.246094"/>
      </g>
     </g>
    </g>
    <g id="ytick_3">
     <g id="line2d_25">
      <path d="M 57.6 168.889468 
L 414.72 168.889468 
" clip-path="url(#pbf443b7a01)" style="fill: none; stroke-dasharray: 2.96,1.28; stroke-dashoffset: 0; stroke: #808080; stroke-width: 0.8"/>
     </g>
     <g id="line2d_26">
      <g>
       <use xlink:href="#m4185283842" x="57.6" y="168.889468" style="stroke: #000000; stroke-width: 0.8"/>
      </g>
     </g>
     <g id="text_13">
      <!-- 1000 -->
      <g transform="translate(25.15 172.688687)scale(0.1 -0.1)">
       <use xlink:href="#DejaVuSans-31"/>
       <use xlink:href="#DejaVuSans-30" x="63.623047"/>
       <use xlink:href="#DejaVuSans-30" x="127.246094"/>
       <use xlink:href="#DejaVuSans-30" x="190.869141"/>
      </g>
     </g>
    </g>
    <g id="ytick_4">
     <g id="line2d_27">
      <path d="M 57.6 120.435293 
L 414.72 120.435293 
" clip-path="url(#pbf443b7a01)" style="fill: none; stroke-dasharray: 2.96,1.28; stroke-dashoffset: 0; stroke: #808080; stroke-width: 0.8"/>
     </g>
     <g id="line2d_28">
      <g>
       <use xlink:href="#m4185283842" x="57.6" y="120.435293" style="stroke: #000000; stroke-width: 0.8"/>
      </g>
     </g>
     <g id="text_14">
      <!-- 1500 -->
      <g transform="translate(25.15 124.234512)scale(0.1 -0.1)">
       <use xlink:href="#DejaVuSans-31"/>
       <use xlink:href="#DejaVuSans-35" x="63.623047"/>
       <use xlink:href="#DejaVuSans-30" x="127.246094"/>
       <use xlink:href="#DejaVuSans-30" x="190.869141"/>
      </g>
     </g>
    </g>
    <g id="ytick_5">
     <g id="line2d_29">
      <path d="M 57.6 71.981119 
L 414.72 71.981119 
" clip-path="url(#pbf443b7a01)" style="fill: none; stroke-dasharray: 2.96,1.28; stroke-dashoffset: 0; stroke: #808080; stroke-width: 0.8"/>
     </g>
     <g id="line2d_30">
      <g>
       <use xlink:href="#m4185283842" x="57.6" y="71.981119" style="stroke: #000000; stroke-width: 0.8"/>
      </g>
     </g>
     <g id="text_15">
      <!-- 2000 -->
      <g transform="translate(25.15 75.780337)scale(0.1 -0.1)">
       <use xlink:href="#DejaVuSans-32"/>
       <use xlink:href="#DejaVuSans-30" x="63.623047"/>
       <use xlink:href="#DejaVuSans-30" x="127.246094"/>
       <use xlink:href="#DejaVuSans-30" x="190.869141"/>
      </g>
     </g>
    </g>
    <g id="text_16">
     <!-- Inzidenz pro 7 Tage pro 100.000 Einwohner -->
     <g transform="translate(19.070312 267.301)rotate(-90)scale(0.1 -0.1)">
      <defs>
       <path id="DejaVuSans-49" d="M 628 4666 
L 1259 4666 
L 1259 0 
L 628 0 
L 628 4666 
z
" transform="scale(0.015625)"/>
       <path id="DejaVuSans-6e" d="M 3513 2113 
L 3513 0 
L 2938 0 
L 2938 2094 
Q 2938 2591 2744 2837 
Q 2550 3084 2163 3084 
Q 1697 3084 1428 2787 
Q 1159 2491 1159 1978 
L 1159 0 
L 581 0 
L 581 3500 
L 1159 3500 
L 1159 2956 
Q 1366 3272 1645 3428 
Q 1925 3584 2291 3584 
Q 2894 3584 3203 3211 
Q 3513 2838 3513 2113 
z
" transform="scale(0.015625)"/>
       <path id="DejaVuSans-7a" d="M 353 3500 
L 3084 3500 
L 3084 2975 
L 922 459 
L 3084 459 
L 3084 0 
L 275 0 
L 275 525 
L 2438 3041 
L 353 3041 
L 353 3500 
z
" transform="scale(0.015625)"/>
       <path id="DejaVuSans-69" d="M 603 3500 
L 1178 3500 
L 1178 0 
L 603 0 
L 603 3500 
z
M 603 4863 
L 1178 4863 
L 1178 4134 
L 603 4134 
L 603 4863 
z
" transform="scale(0.015625)"/>
       <path id="DejaVuSans-64" d="M 2906 2969 
L 2906 4863 
L 3481 4863 
L 3481 0 
L 2906 0 
L 2906 525 
Q 2725 213 2448 61 
Q 2172 -91 1784 -91 
Q 1150 -91 751 415 
Q 353 922 353 1747 
Q 353 2572 751 3078 
Q 1150 3584 1784 3584 
Q 2172 3584 2448 3432 
Q 2725 3281 2906 2969 
z
M 947 1747 
Q 947 1113 1208 752 
Q 1469 391 1925 391 
Q 2381 391 2643 752 
Q 2906 1113 2906 1747 
Q 2906 2381 2643 2742 
Q 2381 3103 1925 3103 
Q 1469 3103 1208 2742 
Q 947 2381 947 1747 
z
" transform="scale(0.015625)"/>
       <path id="DejaVuSans-65" d="M 3597 1894 
L 3597 1613 
L 953 1613 
Q 991 1019 1311 708 
Q 1631 397 2203 397 
Q 2534 397 2845 478 
Q 3156 559 3463 722 
L 3463 178 
Q 3153 47 2828 -22 
Q 2503 -91 2169 -91 
Q 1331 -91 842 396 
Q 353 884 353 1716 
Q 353 2575 817 3079 
Q 1281 3584 2069 3584 
Q 2775 3584 3186 3129 
Q 3597 2675 3597 1894 
z
M 3022 2063 
Q 3016 2534 2758 2815 
Q 2500 3097 2075 3097 
Q 1594 3097 1305 2825 
Q 1016 2553 972 2059 
L 3022 2063 
z
" transform="scale(0.015625)"/>
       <path id="DejaVuSans-20" transform="scale(0.015625)"/>
       <path id="DejaVuSans-70" d="M 1159 525 
L 1159 -1331 
L 581 -1331 
L 581 3500 
L 1159 3500 
L 1159 2969 
Q 1341 3281 1617 3432 
Q 1894 3584 2278 3584 
Q 2916 3584 3314 3078 
Q 3713 2572 3713 1747 
Q 3713 922 3314 415 
Q 2916 -91 2278 -91 
Q 1894 -91 1617 61 
Q 1341 213 1159 525 
z
M 3116 1747 
Q 3116 2381 2855 2742 
Q 2594 3103 2138 3103 
Q 1681 3103 1420 2742 
Q 1159 2381 1159 1747 
Q 1159 1113 1420 752 
Q 1681 391 2138 391 
Q 2594 391 2855 752 
Q 3116 1113 3116 1747 
z
" transform="scale(0.015625)"/>
       <path id="DejaVuSans-72" d="M 2631 2963 
Q 2534 3019 2420 3045 
Q 2306 3072 2169 3072 
Q 1681 3072 1420 2755 
Q 1159 2438 1159 1844 
L 1159 0 
L 581 0 
L 581 3500 
L 1159 3500 
L 1159 2956 
Q 1341 3275 1631 3429 
Q 1922 3584 2338 3584 
Q 2397 3584 2469 3576 
Q 2541 3569 2628 3553 
L 2631 2963 
z
" transform="scale(0.015625)"/>
       <path id="DejaVuSans-6f" d="M 1959 3097 
Q 1497 3097 1228 2736 
Q 959 2375 959 1747 
Q 959 1119 1226 758 
Q 1494 397 1959 397 
Q 2419 397 2687 759 
Q 2956 1122 2956 1747 
Q 2956 2369 2687 2733 
Q 2419 3097 1959 3097 
z
M 1959 3584 
Q 2709 3584 3137 3096 
Q 3566 2609 3566 1747 
Q 3566 888 3137 398 
Q 2709 -91 1959 -91 
Q 1206 -91 779 398 
Q 353 888 353 1747 
Q 353 2609 779 3096 
Q 1206 3584 1959 3584 
z
" transform="scale(0.015625)"/>
       <path id="DejaVuSans-54" d="M -19 4666 
L 3928 4666 
L 3928 4134 
L 2272 4134 
L 2272 0 
L 1638 0 
L 1638 4134 
L -19 4134 
L -19 4666 
z
" transform="scale(0.015625)"/>
       <path id="DejaVuSans-61" d="M 2194 1759 
Q 1497 1759 1228 1600 
Q 959 1441 959 1056 
Q 959 750 1161 570 
Q 1363 391 1709 391 
Q 2188 391 2477 730 
Q 2766 1069 2766 1631 
L 2766 1759 
L 2194 1759 
z
M 3341 1997 
L 3341 0 
L 2766 0 
L 2766 531 
Q 2569 213 2275 61 
Q 1981 -91 1556 -91 
Q 1019 -91 701 211 
Q 384 513 384 1019 
Q 384 1609 779 1909 
Q 1175 2209 1959 2209 
L 2766 2209 
L 2766 2266 
Q 2766 2663 2505 2880 
Q 2244 3097 1772 3097 
Q 1472 3097 1187 3025 
Q 903 2953 641 2809 
L 641 3341 
Q 956 3463 1253 3523 
Q 1550 3584 1831 3584 
Q 2591 3584 2966 3190 
Q 3341 2797 3341 1997 
z
" transform="scale(0.015625)"/>
       <path id="DejaVuSans-67" d="M 2906 1791 
Q 2906 2416 2648 2759 
Q 2391 3103 1925 3103 
Q 1463 3103 1205 2759 
Q 947 2416 947 1791 
Q 947 1169 1205 825 
Q 1463 481 1925 481 
Q 2391 481 2648 825 
Q 2906 1169 2906 1791 
z
M 3481 434 
Q 3481 -459 3084 -895 
Q 2688 -1331 1869 -1331 
Q 1566 -1331 1297 -1286 
Q 1028 -1241 775 -1147 
L 775 -588 
Q 1028 -725 1275 -790 
Q 1522 -856 1778 -856 
Q 2344 -856 2625 -561 
Q 2906 -266 2906 331 
L 2906 616 
Q 2728 306 2450 153 
Q 2172 0 1784 0 
Q 1141 0 747 490 
Q 353 981 353 1791 
Q 353 2603 747 3093 
Q 1141 3584 1784 3584 
Q 2172 3584 2450 3431 
Q 2728 3278 2906 2969 
L 2906 3500 
L 3481 3500 
L 3481 434 
z
" transform="scale(0.015625)"/>
       <path id="DejaVuSans-45" d="M 628 4666 
L 3578 4666 
L 3578 4134 
L 1259 4134 
L 1259 2753 
L 3481 2753 
L 3481 2222 
L 1259 2222 
L 1259 531 
L 3634 531 
L 3634 0 
L 628 0 
L 628 4666 
z
" transform="scale(0.015625)"/>
       <path id="DejaVuSans-77" d="M 269 3500 
L 844 3500 
L 1563 769 
L 2278 3500 
L 2956 3500 
L 3675 769 
L 4391 3500 
L 4966 3500 
L 4050 0 
L 3372 0 
L 2619 2869 
L 1863 0 
L 1184 0 
L 269 3500 
z
" transform="scale(0.015625)"/>
       <path id="DejaVuSans-68" d="M 3513 2113 
L 3513 0 
L 2938 0 
L 2938 2094 
Q 2938 2591 2744 2837 
Q 2550 3084 2163 3084 
Q 1697 3084 1428 2787 
Q 1159 2491 1159 1978 
L 1159 0 
L 581 0 
L 581 4863 
L 1159 4863 
L 1159 2956 
Q 1366 3272 1645 3428 
Q 1925 3584 2291 3584 
Q 2894 3584 3203 3211 
Q 3513 2838 3513 2113 
z
" transform="scale(0.015625)"/>
      </defs>
      <use xlink:href="#DejaVuSans-49"/>
      <use xlink:href="#DejaVuSans-6e" x="29.492188"/>
      <use xlink:href="#DejaVuSans-7a" x="92.871094"/>
      <use xlink:href="#DejaVuSans-69" x="145.361328"/>
      <use xlink:href="#DejaVuSans-64" x="173.144531"/>
      <use xlink:href="#DejaVuSans-65" x="236.621094"/>
      <use xlink:href="#DejaVuSans-6e" x="298.144531"/>
      <use xlink:href="#DejaVuSans-7a" x="361.523438"/>
      <use xlink:href="#DejaVuSans-20" x="414.013672"/>
      <use xlink:href="#DejaVuSans-70" x="445.800781"/>
      <use xlink:href="#DejaVuSans-72" x="509.277344"/>
      <use xlink:href="#DejaVuSans-6f" x="548.140625"/>
      <use xlink:href="#DejaVuSans-20" x="609.322266"/>
      <use xlink:href="#DejaVuSans-37" x="641.109375"/>
      <use xlink:href="#DejaVuSans-20" x="704.732422"/>
      <use xlink:href="#DejaVuSans-54" x="736.519531"/>
      <use xlink:href="#DejaVuSans-61" x="781.103516"/>
      <use xlink:href="#DejaVuSans-67" x="842.382812"/>
      <use xlink:href="#DejaVuSans-65" x="905.859375"/>
      <use xlink:href="#DejaVuSans-20" x="967.382812"/>
      <use xlink:href="#DejaVuSans-70" x="999.169922"/>
      <use xlink:href="#DejaVuSans-72" x="1062.646484"/>
      <use xlink:href="#DejaVuSans-6f" x="1101.509766"/>
      <use xlink:href="#DejaVuSans-20" x="1162.691406"/>
      <use xlink:href="#DejaVuSans-31" x="1194.478516"/>
      <use xlink:href="#DejaVuSans-30" x="1258.101562"/>
      <use xlink:href="#DejaVuSans-30" x="1321.724609"/>
      <use xlink:href="#DejaVuSans-2e" x="1385.347656"/>
      <use xlink:href="#DejaVuSans-30" x="1417.134766"/>
      <use xlink:href="#DejaVuSans-30" x="1480.757812"/>
      <use xlink:href="#DejaVuSans-30" x="1544.380859"/>
      <use xlink:href="#DejaVuSans-20" x="1608.003906"/>
      <use xlink:href="#DejaVuSans-45" x="1639.791016"/>
      <use xlink:href="#DejaVuSans-69" x="1702.974609"/>
      <use xlink:href="#DejaVuSans-6e" x="1730.757812"/>
      <use xlink:href="#DejaVuSans-77" x="1794.136719"/>
      <use xlink:href="#DejaVuSans-6f" x="1875.923828"/>
      <use xlink:href="#DejaVuSans-68" x="1937.105469"/>
      <use xlink:href="#DejaVuSans-6e" x="2000.484375"/>
      <use xlink:href="#DejaVuSans-65" x="2063.863281"/>
      <use xlink:href="#DejaVuSans-72" x="2125.386719"/>
     </g>
    </g>
   </g>
   <g id="line2d_31">
    <path d="M 73.832727 265.797818 
L 77.015615 265.706086 
L 77.413476 265.614354 
L 77.811337 265.706086 
L 78.607059 265.614354 
L 79.402781 265.522622 
L 79.800642 265.430891 
L 80.198503 264.880499 
L 80.596364 264.605303 
L 80.994225 264.513571 
L 81.392086 264.054912 
L 81.789947 263.871448 
L 82.187807 263.412788 
L 83.38139 263.412788 
L 84.177112 263.137593 
L 84.574973 263.137593 
L 84.972834 263.687984 
L 85.370695 263.321056 
L 85.768556 263.687984 
L 86.166417 263.229324 
L 86.564278 263.229324 
L 86.962139 263.50452 
L 87.757861 263.50452 
L 88.553583 263.045861 
L 88.951444 263.321056 
L 89.349305 263.321056 
L 90.145027 263.779716 
L 90.542888 263.779716 
L 90.940749 264.421839 
L 91.736471 265.155695 
L 92.134332 265.247427 
L 92.930053 264.880499 
L 93.327914 264.880499 
L 94.123636 264.421839 
L 94.521497 264.421839 
L 95.71508 264.880499 
L 96.112941 264.880499 
L 96.510802 265.063963 
L 96.908663 265.430891 
L 98.500107 265.706086 
L 125.156791 265.614354 
L 125.952513 265.522622 
L 127.543957 265.430891 
L 127.941818 265.339159 
L 128.73754 265.430891 
L 129.135401 265.430891 
L 129.533262 265.247427 
L 130.328984 265.430891 
L 131.522567 265.247427 
L 132.318289 265.155695 
L 132.71615 264.972231 
L 133.114011 264.605303 
L 135.103316 265.155695 
L 135.501176 265.339159 
L 135.899037 265.706086 
L 136.296898 265.430891 
L 138.684064 265.430891 
L 139.081925 265.797818 
L 140.275508 265.797818 
L 140.673369 265.339159 
L 141.866952 265.339159 
L 142.264813 264.788767 
L 143.060535 264.788767 
L 143.458396 265.155695 
L 144.254118 265.063963 
L 144.651979 265.063963 
L 145.04984 265.522622 
L 147.039144 265.430891 
L 147.437005 265.339159 
L 148.232727 265.430891 
L 151.813476 265.430891 
L 152.211337 265.247427 
L 154.200642 265.155695 
L 154.598503 264.972231 
L 154.996364 265.339159 
L 155.394225 265.247427 
L 155.792086 265.430891 
L 156.587807 265.339159 
L 157.78139 265.247427 
L 158.577112 264.880499 
L 159.372834 264.972231 
L 159.770695 264.972231 
L 160.168556 265.247427 
L 160.566417 265.247427 
L 161.362139 265.522622 
L 162.157861 265.430891 
L 162.953583 265.339159 
L 163.351444 265.247427 
L 164.147166 264.146644 
L 164.545027 263.96318 
L 165.340749 263.96318 
L 165.73861 263.045861 
L 166.136471 262.495469 
L 166.534332 262.312005 
L 166.932193 262.312005 
L 167.330053 261.761614 
L 167.727914 260.936027 
L 168.921497 260.385635 
L 169.319358 259.376584 
L 169.717219 258.826192 
L 170.11508 258.734461 
L 170.512941 258.184069 
L 170.910802 258.000605 
L 171.308663 259.009656 
L 171.706524 259.009656 
L 172.502246 260.569099 
L 172.900107 260.385635 
L 173.297968 260.844295 
L 173.695829 260.936027 
L 174.09369 260.660831 
L 174.491551 260.569099 
L 174.889412 260.202171 
L 175.287273 258.459265 
L 176.480856 259.19312 
L 176.878717 258.917924 
L 177.276578 257.725409 
L 177.674439 256.899822 
L 178.072299 257.175018 
L 178.47016 256.165967 
L 178.868021 256.257699 
L 179.265882 255.890771 
L 179.663743 256.257699 
L 180.061604 256.899822 
L 180.459465 256.991554 
L 181.653048 256.074235 
L 182.050909 256.165967 
L 182.44877 255.432111 
L 182.846631 254.973452 
L 183.642353 255.982503 
L 184.040214 256.80809 
L 184.438075 254.973452 
L 184.835936 255.065184 
L 185.233797 255.890771 
L 185.631658 254.973452 
L 186.42738 251.395907 
L 186.825241 247.543167 
L 187.223102 247.359703 
L 187.620963 246.534115 
L 188.018824 246.25892 
L 188.416684 244.607745 
L 188.814545 239.654222 
L 189.212406 237.085728 
L 189.610267 237.911315 
L 190.008128 238.369975 
L 190.405989 238.553439 
L 190.80385 238.186511 
L 191.201711 239.287294 
L 191.997433 244.516013 
L 192.395294 248.919145 
L 192.793155 250.203392 
L 193.191016 249.377805 
L 193.588877 249.653001 
L 193.986738 249.653001 
L 194.384599 251.028979 
L 194.78246 249.010877 
L 195.180321 249.010877 
L 195.578182 248.460486 
L 195.976043 249.744733 
L 196.373904 248.827413 
L 197.169626 245.708528 
L 197.567487 243.598694 
L 197.965348 240.021149 
L 198.363209 239.379026 
L 198.76107 239.379026 
L 199.15893 240.204613 
L 199.556791 242.039251 
L 199.954652 244.424281 
L 200.352513 248.827413 
L 200.750374 249.561269 
L 201.148235 249.653001 
L 201.546096 249.561269 
L 201.943957 250.11166 
L 202.341818 251.028979 
L 202.739679 252.49669 
L 203.13754 251.946299 
L 203.535401 254.056133 
L 203.933262 254.973452 
L 204.728984 255.707307 
L 205.126845 256.349431 
L 205.524706 256.165967 
L 205.922567 258.184069 
L 206.320428 257.633678 
L 206.718289 258.734461 
L 207.11615 258.000605 
L 207.514011 257.725409 
L 207.911872 258.367533 
L 208.309733 258.642729 
L 209.105455 259.560048 
L 209.503316 258.550997 
L 209.901176 259.19312 
L 210.696898 259.284852 
L 211.094759 260.385635 
L 211.49262 260.660831 
L 212.288342 260.752563 
L 212.686203 261.027758 
L 213.084064 260.660831 
L 213.481925 259.835244 
L 213.879786 260.110439 
L 214.277647 260.110439 
L 214.675508 260.660831 
L 215.073369 260.385635 
L 215.47123 260.385635 
L 215.869091 260.752563 
L 216.664813 261.027758 
L 217.062674 260.752563 
L 217.460535 260.202171 
L 217.858396 261.11949 
L 218.256257 261.027758 
L 218.654118 260.385635 
L 219.051979 261.027758 
L 219.44984 261.211222 
L 219.847701 261.945078 
L 220.245561 262.403737 
L 221.041283 262.220273 
L 221.439144 262.954129 
L 221.837005 262.954129 
L 222.632727 262.312005 
L 223.030588 262.312005 
L 223.428449 261.761614 
L 224.224171 261.486418 
L 224.622032 260.936027 
L 225.019893 259.926975 
L 225.815615 259.65178 
L 226.213476 258.917924 
L 227.80492 257.358482 
L 228.600642 251.579371 
L 228.998503 252.404958 
L 229.396364 252.221494 
L 229.794225 250.478588 
L 230.192086 249.653001 
L 230.589947 247.910094 
L 230.987807 249.653001 
L 231.385668 249.744733 
L 231.783529 249.561269 
L 232.18139 250.478588 
L 232.579251 252.680154 
L 232.977112 252.404958 
L 233.374973 253.689205 
L 233.772834 250.203392 
L 234.170695 250.478588 
L 234.966417 247.451435 
L 235.364278 246.625847 
L 236.16 242.681375 
L 236.557861 246.075456 
L 236.955722 244.149086 
L 237.353583 243.782158 
L 237.751444 244.791209 
L 238.149305 245.433332 
L 238.945027 248.919145 
L 239.342888 249.102609 
L 239.740749 251.395907 
L 240.13861 252.313226 
L 240.934332 251.762835 
L 241.332193 250.845516 
L 241.730053 251.304175 
L 242.127914 251.304175 
L 242.923636 252.95535 
L 243.719358 253.505741 
L 244.117219 256.716358 
L 244.51508 256.532894 
L 244.912941 256.991554 
L 245.310802 257.725409 
L 245.708663 257.541946 
L 246.106524 257.541946 
L 246.504385 257.725409 
L 246.902246 256.441163 
L 247.300107 257.450214 
L 247.697968 257.725409 
L 248.49369 258.734461 
L 248.891551 258.275801 
L 249.289412 258.184069 
L 249.687273 257.633678 
L 250.085134 257.633678 
L 250.482995 257.358482 
L 250.880856 257.633678 
L 251.278717 258.734461 
L 251.676578 259.376584 
L 252.074439 259.468316 
L 252.472299 261.761614 
L 252.87016 262.312005 
L 253.268021 263.412788 
L 253.665882 263.229324 
L 254.859465 263.229324 
L 255.257326 263.045861 
L 255.655187 264.054912 
L 256.053048 264.054912 
L 256.450909 264.697035 
L 256.84877 264.605303 
L 257.246631 264.697035 
L 257.644492 264.605303 
L 258.440214 264.972231 
L 258.838075 265.339159 
L 260.429519 265.430891 
L 261.623102 265.614354 
L 262.020963 265.614354 
L 262.418824 265.797818 
L 269.978182 265.797818 
L 270.376043 265.522622 
L 271.569626 265.522622 
L 272.365348 265.247427 
L 272.763209 265.155695 
L 273.16107 265.430891 
L 273.956791 265.430891 
L 274.354652 265.247427 
L 278.333262 265.339159 
L 278.731123 265.063963 
L 279.526845 265.063963 
L 279.924706 264.880499 
L 280.322567 264.972231 
L 281.118289 264.513571 
L 281.51615 264.330107 
L 283.903316 264.238376 
L 284.301176 264.697035 
L 285.096898 264.697035 
L 286.290481 263.596252 
L 286.688342 263.779716 
L 287.086203 263.50452 
L 288.677647 263.412788 
L 289.075508 263.229324 
L 289.473369 262.678933 
L 289.87123 262.862397 
L 290.666952 262.862397 
L 291.462674 261.761614 
L 292.258396 261.486418 
L 292.656257 260.844295 
L 293.451979 260.844295 
L 293.84984 260.569099 
L 294.247701 260.844295 
L 294.645561 261.394686 
L 295.043422 260.752563 
L 295.839144 260.660831 
L 296.237005 260.660831 
L 296.634866 261.11949 
L 297.032727 261.027758 
L 297.430588 260.752563 
L 298.22631 261.853346 
L 299.022032 261.853346 
L 299.419893 262.770665 
L 299.817754 262.770665 
L 300.613476 263.412788 
L 301.409198 263.321056 
L 302.20492 263.229324 
L 302.602781 263.045861 
L 303.398503 261.945078 
L 304.194225 261.853346 
L 304.592086 261.853346 
L 304.989947 261.027758 
L 305.387807 261.302954 
L 305.785668 261.761614 
L 306.183529 262.03681 
L 306.979251 261.945078 
L 308.172834 262.03681 
L 308.570695 261.57815 
L 308.968556 261.57815 
L 309.366417 261.027758 
L 310.162139 261.027758 
L 310.957861 261.302954 
L 311.753583 259.284852 
L 312.549305 259.19312 
L 312.947166 259.19312 
L 314.140749 256.257699 
L 314.53861 255.156916 
L 314.936471 254.88172 
L 315.732193 254.88172 
L 316.130053 254.331328 
L 316.527914 253.322277 
L 316.925775 254.42306 
L 317.323636 254.88172 
L 317.721497 254.606524 
L 318.517219 254.606524 
L 318.91508 252.680154 
L 319.312941 252.038031 
L 319.710802 249.561269 
L 320.108663 248.368754 
L 320.506524 248.093558 
L 322.097968 248.093558 
L 322.495829 250.386856 
L 322.89369 250.662052 
L 323.291551 250.478588 
L 324.087273 250.478588 
L 324.485134 249.744733 
L 324.882995 249.377805 
L 325.280856 246.167188 
L 325.678717 245.525064 
L 326.076578 245.158137 
L 326.872299 245.158137 
L 327.27016 246.25892 
L 327.668021 246.992775 
L 328.065882 247.451435 
L 328.463743 248.64395 
L 328.861604 249.194341 
L 330.055187 249.102609 
L 330.453048 247.634898 
L 330.850909 249.377805 
L 331.24877 249.744733 
L 331.646631 249.286073 
L 332.442353 249.286073 
L 332.840214 250.11166 
L 333.238075 251.946299 
L 333.635936 252.49669 
L 334.033797 252.680154 
L 334.431658 253.780937 
L 335.22738 253.780937 
L 335.625241 253.138814 
L 336.023102 250.11166 
L 336.818824 248.368754 
L 337.216684 249.744733 
L 338.012406 249.744733 
L 338.410267 249.102609 
L 338.808128 250.845516 
L 339.205989 251.028979 
L 339.60385 250.753784 
L 340.797433 250.753784 
L 341.195294 251.395907 
L 341.593155 251.487639 
L 341.991016 249.010877 
L 342.388877 248.735681 
L 342.786738 245.158137 
L 343.58246 245.158137 
L 344.378182 238.278243 
L 345.571765 226.077898 
L 345.969626 218.922808 
L 346.367487 216.812974 
L 346.765348 223.050745 
L 347.163209 222.775549 
L 347.56107 221.766498 
L 347.95893 216.262583 
L 348.356791 212.409842 
L 348.754652 219.564932 
L 349.152513 221.674766 
L 349.550374 194.430386 
L 349.948235 191.311501 
L 350.743957 152.325436 
L 351.141818 146.271129 
L 351.93754 146.271129 
L 352.335401 133.428661 
L 352.733262 111.596464 
L 353.131123 125.356252 
L 353.528984 120.035801 
L 353.926845 112.055124 
L 354.722567 112.055124 
L 355.120428 99.212656 
L 355.518289 105.725622 
L 355.91615 96.09377 
L 356.314011 100.038243 
L 356.711872 105.266962 
L 357.507594 105.266962 
L 357.905455 122.604295 
L 358.303316 127.557818 
L 358.701176 137.097938 
L 359.099037 142.693585 
L 359.496898 142.326657 
L 360.29262 142.326657 
L 360.690481 155.077393 
L 361.088342 162.049019 
L 361.486203 152.05024 
L 362.281925 172.414726 
L 363.077647 172.414726 
L 363.475508 178.010373 
L 363.873369 176.175735 
L 364.27123 182.505237 
L 364.669091 181.496186 
L 365.066952 179.936743 
L 365.862674 179.936743 
L 366.260535 170.396624 
L 366.658396 168.653717 
L 367.454118 159.113598 
L 367.851979 148.472695 
L 368.647701 148.472695 
L 369.045561 142.418389 
L 369.443422 140.033359 
L 369.841283 131.227095 
L 370.239144 114.990545 
L 371.034866 114.898814 
L 371.432727 114.898814 
L 372.228449 95.451647 
L 372.62631 94.62606 
L 373.024171 94.075668 
L 373.422032 92.057566 
L 374.217754 92.057566 
L 374.615615 70.317102 
L 375.013476 77.930851 
L 375.411337 64.99665 
L 375.809198 67.565144 
L 376.207059 61.786033 
L 377.002781 61.786033 
L 377.400642 88.296557 
L 377.798503 74.995429 
L 378.594225 82.150519 
L 378.992086 96.919358 
L 379.787807 96.919358 
L 380.185668 88.571753 
L 381.379251 109.48663 
L 381.777112 127.64955 
L 382.572834 127.64955 
L 382.970695 174.157632 
L 383.368556 134.162516 
L 383.766417 132.878269 
L 384.164278 105.542158 
L 384.562139 89.213877 
L 385.357861 89.213877 
L 385.755722 52.154182 
L 386.153583 87.837898 
L 386.551444 102.973664 
L 386.949305 136.27235 
L 387.347166 141.317606 
L 388.142888 141.317606 
L 388.540749 148.656159 
L 388.93861 158.930134 
L 389.336471 172.59819 
L 389.734332 179.386352 
L 390.132193 180.211939 
L 390.927914 180.211939 
L 391.325775 194.246922 
L 391.723636 198.833518 
L 392.121497 198.741786 
L 392.519358 201.035084 
L 392.917219 204.887825 
L 393.712941 204.887825 
L 394.110802 206.997659 
L 394.508663 213.327161 
L 394.906524 217.179902 
L 395.304385 218.647612 
L 395.702246 219.381468 
L 396.497968 219.381468 
L 396.895829 225.160579 
L 397.29369 228.646392 
L 397.691551 233.141255 
L 398.089412 239.287294 
L 398.487273 238.736902 
L 398.487273 238.736902 
" clip-path="url(#pbf443b7a01)" style="fill: none; stroke: #1f77b4; stroke-width: 1.5; stroke-linecap: square"/>
   </g>
   <g id="patch_3">
    <path d="M 57.6 276.48 
L 57.6 41.472 
" style="fill: none; stroke: #000000; stroke-width: 0.8; stroke-linejoin: miter; stroke-linecap: square"/>
   </g>
   <g id="patch_4">
    <path d="M 414.72 276.48 
L 414.72 41.472 
" style="fill: none; stroke: #000000; stroke-width: 0.8; stroke-linejoin: miter; stroke-linecap: square"/>
   </g>
   <g id="patch_5">
    <path d="M 57.6 276.48 
L 414.72 276.48 
" style="fill: none; stroke: #000000; stroke-width: 0.8; stroke-linejoin: miter; stroke-linecap: square"/>
   </g>
   <g id="patch_6">
    <path d="M 57.6 41.472 
L 414.72 41.472 
" style="fill: none; stroke: #000000; stroke-width: 0.8; stroke-linejoin: miter; stroke-linecap: square"/>
   </g>
  </g>
  <g id="text_17">
   <!-- Inzidenzverlauf LK Vogelsbergkreis -->
   <g transform="translate(73.700156 20.589187)scale(0.18 -0.18)">
    <defs>
     <path id="DejaVuSans-76" d="M 191 3500 
L 800 3500 
L 1894 563 
L 2988 3500 
L 3597 3500 
L 2284 0 
L 1503 0 
L 191 3500 
z
" transform="scale(0.015625)"/>
     <path id="DejaVuSans-6c" d="M 603 4863 
L 1178 4863 
L 1178 0 
L 603 0 
L 603 4863 
z
" transform="scale(0.015625)"/>
     <path id="DejaVuSans-75" d="M 544 1381 
L 544 3500 
L 1119 3500 
L 1119 1403 
Q 1119 906 1312 657 
Q 1506 409 1894 409 
Q 2359 409 2629 706 
Q 2900 1003 2900 1516 
L 2900 3500 
L 3475 3500 
L 3475 0 
L 2900 0 
L 2900 538 
Q 2691 219 2414 64 
Q 2138 -91 1772 -91 
Q 1169 -91 856 284 
Q 544 659 544 1381 
z
M 1991 3584 
L 1991 3584 
z
" transform="scale(0.015625)"/>
     <path id="DejaVuSans-66" d="M 2375 4863 
L 2375 4384 
L 1825 4384 
Q 1516 4384 1395 4259 
Q 1275 4134 1275 3809 
L 1275 3500 
L 2222 3500 
L 2222 3053 
L 1275 3053 
L 1275 0 
L 697 0 
L 697 3053 
L 147 3053 
L 147 3500 
L 697 3500 
L 697 3744 
Q 697 4328 969 4595 
Q 1241 4863 1831 4863 
L 2375 4863 
z
" transform="scale(0.015625)"/>
     <path id="DejaVuSans-4c" d="M 628 4666 
L 1259 4666 
L 1259 531 
L 3531 531 
L 3531 0 
L 628 0 
L 628 4666 
z
" transform="scale(0.015625)"/>
     <path id="DejaVuSans-4b" d="M 628 4666 
L 1259 4666 
L 1259 2694 
L 3353 4666 
L 4166 4666 
L 1850 2491 
L 4331 0 
L 3500 0 
L 1259 2247 
L 1259 0 
L 628 0 
L 628 4666 
z
" transform="scale(0.015625)"/>
     <path id="DejaVuSans-56" d="M 1831 0 
L 50 4666 
L 709 4666 
L 2188 738 
L 3669 4666 
L 4325 4666 
L 2547 0 
L 1831 0 
z
" transform="scale(0.015625)"/>
     <path id="DejaVuSans-73" d="M 2834 3397 
L 2834 2853 
Q 2591 2978 2328 3040 
Q 2066 3103 1784 3103 
Q 1356 3103 1142 2972 
Q 928 2841 928 2578 
Q 928 2378 1081 2264 
Q 1234 2150 1697 2047 
L 1894 2003 
Q 2506 1872 2764 1633 
Q 3022 1394 3022 966 
Q 3022 478 2636 193 
Q 2250 -91 1575 -91 
Q 1294 -91 989 -36 
Q 684 19 347 128 
L 347 722 
Q 666 556 975 473 
Q 1284 391 1588 391 
Q 1994 391 2212 530 
Q 2431 669 2431 922 
Q 2431 1156 2273 1281 
Q 2116 1406 1581 1522 
L 1381 1569 
Q 847 1681 609 1914 
Q 372 2147 372 2553 
Q 372 3047 722 3315 
Q 1072 3584 1716 3584 
Q 2034 3584 2315 3537 
Q 2597 3491 2834 3397 
z
" transform="scale(0.015625)"/>
     <path id="DejaVuSans-62" d="M 3116 1747 
Q 3116 2381 2855 2742 
Q 2594 3103 2138 3103 
Q 1681 3103 1420 2742 
Q 1159 2381 1159 1747 
Q 1159 1113 1420 752 
Q 1681 391 2138 391 
Q 2594 391 2855 752 
Q 3116 1113 3116 1747 
z
M 1159 2969 
Q 1341 3281 1617 3432 
Q 1894 3584 2278 3584 
Q 2916 3584 3314 3078 
Q 3713 2572 3713 1747 
Q 3713 922 3314 415 
Q 2916 -91 2278 -91 
Q 1894 -91 1617 61 
Q 1341 213 1159 525 
L 1159 0 
L 581 0 
L 581 4863 
L 1159 4863 
L 1159 2969 
z
" transform="scale(0.015625)"/>
     <path id="DejaVuSans-6b" d="M 581 4863 
L 1159 4863 
L 1159 1991 
L 2875 3500 
L 3609 3500 
L 1753 1863 
L 3688 0 
L 2938 0 
L 1159 1709 
L 1159 0 
L 581 0 
L 581 4863 
z
" transform="scale(0.015625)"/>
    </defs>
    <use xlink:href="#DejaVuSans-49"/>
    <use xlink:href="#DejaVuSans-6e" x="29.492188"/>
    <use xlink:href="#DejaVuSans-7a" x="92.871094"/>
    <use xlink:href="#DejaVuSans-69" x="145.361328"/>
    <use xlink:href="#DejaVuSans-64" x="173.144531"/>
    <use xlink:href="#DejaVuSans-65" x="236.621094"/>
    <use xlink:href="#DejaVuSans-6e" x="298.144531"/>
    <use xlink:href="#DejaVuSans-7a" x="361.523438"/>
    <use xlink:href="#DejaVuSans-76" x="414.013672"/>
    <use xlink:href="#DejaVuSans-65" x="473.193359"/>
    <use xlink:href="#DejaVuSans-72" x="534.716797"/>
    <use xlink:href="#DejaVuSans-6c" x="575.830078"/>
    <use xlink:href="#DejaVuSans-61" x="603.613281"/>
    <use xlink:href="#DejaVuSans-75" x="664.892578"/>
    <use xlink:href="#DejaVuSans-66" x="728.271484"/>
    <use xlink:href="#DejaVuSans-20" x="763.476562"/>
    <use xlink:href="#DejaVuSans-4c" x="795.263672"/>
    <use xlink:href="#DejaVuSans-4b" x="850.976562"/>
    <use xlink:href="#DejaVuSans-20" x="916.552734"/>
    <use xlink:href="#DejaVuSans-56" x="948.339844"/>
    <use xlink:href="#DejaVuSans-6f" x="1008.998047"/>
    <use xlink:href="#DejaVuSans-67" x="1070.179688"/>
    <use xlink:href="#DejaVuSans-65" x="1133.65625"/>
    <use xlink:href="#DejaVuSans-6c" x="1195.179688"/>
    <use xlink:href="#DejaVuSans-73" x="1222.962891"/>
    <use xlink:href="#DejaVuSans-62" x="1275.0625"/>
    <use xlink:href="#DejaVuSans-65" x="1338.539062"/>
    <use xlink:href="#DejaVuSans-72" x="1400.0625"/>
    <use xlink:href="#DejaVuSans-67" x="1439.425781"/>
    <use xlink:href="#DejaVuSans-6b" x="1502.902344"/>
    <use xlink:href="#DejaVuSans-72" x="1560.8125"/>
    <use xlink:href="#DejaVuSans-65" x="1599.675781"/>
    <use xlink:href="#DejaVuSans-69" x="1661.199219"/>
    <use xlink:href="#DejaVuSans-73" x="1688.982422"/>
   </g>
  </g>
 </g>
 <defs>
  <clipPath id="pbf443b7a01">
   <rect x="57.6" y="41.472" width="357.12" height="235.008"/>
  </clipPath>
 </defs>
</svg>
