<?xml version="1.0" encoding="utf-8" standalone="no"?>
<!DOCTYPE svg PUBLIC "-//W3C//DTD SVG 1.1//EN"
  "http://www.w3.org/Graphics/SVG/1.1/DTD/svg11.dtd">
<svg height="345.6pt" version="1.1" viewBox="0 0 460.8 345.6" width="460.8pt" xmlns="http://www.w3.org/2000/svg" xmlns:xlink="http://www.w3.org/1999/xlink">
 <metadata>
  <rdf:RDF xmlns:cc="http://creativecommons.org/ns#" xmlns:dc="http://purl.org/dc/elements/1.1/" xmlns:rdf="http://www.w3.org/1999/02/22-rdf-syntax-ns#">
   <cc:Work>
    <dc:type rdf:resource="http://purl.org/dc/dcmitype/StillImage"/>
    <dc:date>2021-09-18T09:18:26.520764</dc:date>
    <dc:format>image/svg+xml</dc:format>
    <dc:creator>
     <cc:Agent>
      <dc:title>Matplotlib v3.4.3, https://matplotlib.org/</dc:title>
     </cc:Agent>
    </dc:creator>
   </cc:Work>
  </rdf:RDF>
 </metadata>
 <defs>
  <style type="text/css">*{stroke-linecap:butt;stroke-linejoin:round;}</style>
 </defs>
 <g id="figure_1">
  <g id="patch_1">
   <path d="M 0 345.6 
L 460.8 345.6 
L 460.8 0 
L 0 0 
z
" style="fill:#ffffff;"/>
  </g>
  <g id="axes_1">
   <g id="patch_2">
    <path d="M 57.6 276.48 
L 414.72 276.48 
L 414.72 41.472 
L 57.6 41.472 
z
" style="fill:#ffffff;"/>
   </g>
   <g id="matplotlib.axis_1">
    <g id="xtick_1">
     <g id="line2d_1">
      <path clip-path="url(#pdef39d4371)" d="M 91.845106 276.48 
L 91.845106 41.472 
" style="fill:none;stroke:#808080;stroke-dasharray:2.96,1.28;stroke-dashoffset:0;stroke-width:0.8;"/>
     </g>
     <g id="line2d_2">
      <defs>
       <path d="M 0 0 
L 0 3.5 
" id="m71547c71d1" style="stroke:#000000;stroke-width:0.8;"/>
      </defs>
      <g>
       <use style="stroke:#000000;stroke-width:0.8;" x="91.845106" xlink:href="#m71547c71d1" y="276.48"/>
      </g>
     </g>
     <g id="text_1">
      <!-- 03.04.2020 -->
      <g transform="translate(41.219896 318.688565)rotate(-30)scale(0.1 -0.1)">
       <defs>
        <path d="M 2034 4250 
Q 1547 4250 1301 3770 
Q 1056 3291 1056 2328 
Q 1056 1369 1301 889 
Q 1547 409 2034 409 
Q 2525 409 2770 889 
Q 3016 1369 3016 2328 
Q 3016 3291 2770 3770 
Q 2525 4250 2034 4250 
z
M 2034 4750 
Q 2819 4750 3233 4129 
Q 3647 3509 3647 2328 
Q 3647 1150 3233 529 
Q 2819 -91 2034 -91 
Q 1250 -91 836 529 
Q 422 1150 422 2328 
Q 422 3509 836 4129 
Q 1250 4750 2034 4750 
z
" id="DejaVuSans-30" transform="scale(0.015625)"/>
        <path d="M 2597 2516 
Q 3050 2419 3304 2112 
Q 3559 1806 3559 1356 
Q 3559 666 3084 287 
Q 2609 -91 1734 -91 
Q 1441 -91 1130 -33 
Q 819 25 488 141 
L 488 750 
Q 750 597 1062 519 
Q 1375 441 1716 441 
Q 2309 441 2620 675 
Q 2931 909 2931 1356 
Q 2931 1769 2642 2001 
Q 2353 2234 1838 2234 
L 1294 2234 
L 1294 2753 
L 1863 2753 
Q 2328 2753 2575 2939 
Q 2822 3125 2822 3475 
Q 2822 3834 2567 4026 
Q 2313 4219 1838 4219 
Q 1578 4219 1281 4162 
Q 984 4106 628 3988 
L 628 4550 
Q 988 4650 1302 4700 
Q 1616 4750 1894 4750 
Q 2613 4750 3031 4423 
Q 3450 4097 3450 3541 
Q 3450 3153 3228 2886 
Q 3006 2619 2597 2516 
z
" id="DejaVuSans-33" transform="scale(0.015625)"/>
        <path d="M 684 794 
L 1344 794 
L 1344 0 
L 684 0 
L 684 794 
z
" id="DejaVuSans-2e" transform="scale(0.015625)"/>
        <path d="M 2419 4116 
L 825 1625 
L 2419 1625 
L 2419 4116 
z
M 2253 4666 
L 3047 4666 
L 3047 1625 
L 3713 1625 
L 3713 1100 
L 3047 1100 
L 3047 0 
L 2419 0 
L 2419 1100 
L 313 1100 
L 313 1709 
L 2253 4666 
z
" id="DejaVuSans-34" transform="scale(0.015625)"/>
        <path d="M 1228 531 
L 3431 531 
L 3431 0 
L 469 0 
L 469 531 
Q 828 903 1448 1529 
Q 2069 2156 2228 2338 
Q 2531 2678 2651 2914 
Q 2772 3150 2772 3378 
Q 2772 3750 2511 3984 
Q 2250 4219 1831 4219 
Q 1534 4219 1204 4116 
Q 875 4013 500 3803 
L 500 4441 
Q 881 4594 1212 4672 
Q 1544 4750 1819 4750 
Q 2544 4750 2975 4387 
Q 3406 4025 3406 3419 
Q 3406 3131 3298 2873 
Q 3191 2616 2906 2266 
Q 2828 2175 2409 1742 
Q 1991 1309 1228 531 
z
" id="DejaVuSans-32" transform="scale(0.015625)"/>
       </defs>
       <use xlink:href="#DejaVuSans-30"/>
       <use x="63.623047" xlink:href="#DejaVuSans-33"/>
       <use x="127.246094" xlink:href="#DejaVuSans-2e"/>
       <use x="159.033203" xlink:href="#DejaVuSans-30"/>
       <use x="222.65625" xlink:href="#DejaVuSans-34"/>
       <use x="286.279297" xlink:href="#DejaVuSans-2e"/>
       <use x="318.066406" xlink:href="#DejaVuSans-32"/>
       <use x="381.689453" xlink:href="#DejaVuSans-30"/>
       <use x="445.3125" xlink:href="#DejaVuSans-32"/>
       <use x="508.935547" xlink:href="#DejaVuSans-30"/>
      </g>
     </g>
    </g>
    <g id="xtick_2">
     <g id="line2d_3">
      <path clip-path="url(#pdef39d4371)" d="M 127.534081 276.48 
L 127.534081 41.472 
" style="fill:none;stroke:#808080;stroke-dasharray:2.96,1.28;stroke-dashoffset:0;stroke-width:0.8;"/>
     </g>
     <g id="line2d_4">
      <g>
       <use style="stroke:#000000;stroke-width:0.8;" x="127.534081" xlink:href="#m71547c71d1" y="276.48"/>
      </g>
     </g>
     <g id="text_2">
      <!-- 04.06.2020 -->
      <g transform="translate(76.90887 318.688565)rotate(-30)scale(0.1 -0.1)">
       <defs>
        <path d="M 2113 2584 
Q 1688 2584 1439 2293 
Q 1191 2003 1191 1497 
Q 1191 994 1439 701 
Q 1688 409 2113 409 
Q 2538 409 2786 701 
Q 3034 994 3034 1497 
Q 3034 2003 2786 2293 
Q 2538 2584 2113 2584 
z
M 3366 4563 
L 3366 3988 
Q 3128 4100 2886 4159 
Q 2644 4219 2406 4219 
Q 1781 4219 1451 3797 
Q 1122 3375 1075 2522 
Q 1259 2794 1537 2939 
Q 1816 3084 2150 3084 
Q 2853 3084 3261 2657 
Q 3669 2231 3669 1497 
Q 3669 778 3244 343 
Q 2819 -91 2113 -91 
Q 1303 -91 875 529 
Q 447 1150 447 2328 
Q 447 3434 972 4092 
Q 1497 4750 2381 4750 
Q 2619 4750 2861 4703 
Q 3103 4656 3366 4563 
z
" id="DejaVuSans-36" transform="scale(0.015625)"/>
       </defs>
       <use xlink:href="#DejaVuSans-30"/>
       <use x="63.623047" xlink:href="#DejaVuSans-34"/>
       <use x="127.246094" xlink:href="#DejaVuSans-2e"/>
       <use x="159.033203" xlink:href="#DejaVuSans-30"/>
       <use x="222.65625" xlink:href="#DejaVuSans-36"/>
       <use x="286.279297" xlink:href="#DejaVuSans-2e"/>
       <use x="318.066406" xlink:href="#DejaVuSans-32"/>
       <use x="381.689453" xlink:href="#DejaVuSans-30"/>
       <use x="445.3125" xlink:href="#DejaVuSans-32"/>
       <use x="508.935547" xlink:href="#DejaVuSans-30"/>
      </g>
     </g>
    </g>
    <g id="xtick_3">
     <g id="line2d_5">
      <path clip-path="url(#pdef39d4371)" d="M 163.223056 276.48 
L 163.223056 41.472 
" style="fill:none;stroke:#808080;stroke-dasharray:2.96,1.28;stroke-dashoffset:0;stroke-width:0.8;"/>
     </g>
     <g id="line2d_6">
      <g>
       <use style="stroke:#000000;stroke-width:0.8;" x="163.223056" xlink:href="#m71547c71d1" y="276.48"/>
      </g>
     </g>
     <g id="text_3">
      <!-- 05.08.2020 -->
      <g transform="translate(112.597845 318.688565)rotate(-30)scale(0.1 -0.1)">
       <defs>
        <path d="M 691 4666 
L 3169 4666 
L 3169 4134 
L 1269 4134 
L 1269 2991 
Q 1406 3038 1543 3061 
Q 1681 3084 1819 3084 
Q 2600 3084 3056 2656 
Q 3513 2228 3513 1497 
Q 3513 744 3044 326 
Q 2575 -91 1722 -91 
Q 1428 -91 1123 -41 
Q 819 9 494 109 
L 494 744 
Q 775 591 1075 516 
Q 1375 441 1709 441 
Q 2250 441 2565 725 
Q 2881 1009 2881 1497 
Q 2881 1984 2565 2268 
Q 2250 2553 1709 2553 
Q 1456 2553 1204 2497 
Q 953 2441 691 2322 
L 691 4666 
z
" id="DejaVuSans-35" transform="scale(0.015625)"/>
        <path d="M 2034 2216 
Q 1584 2216 1326 1975 
Q 1069 1734 1069 1313 
Q 1069 891 1326 650 
Q 1584 409 2034 409 
Q 2484 409 2743 651 
Q 3003 894 3003 1313 
Q 3003 1734 2745 1975 
Q 2488 2216 2034 2216 
z
M 1403 2484 
Q 997 2584 770 2862 
Q 544 3141 544 3541 
Q 544 4100 942 4425 
Q 1341 4750 2034 4750 
Q 2731 4750 3128 4425 
Q 3525 4100 3525 3541 
Q 3525 3141 3298 2862 
Q 3072 2584 2669 2484 
Q 3125 2378 3379 2068 
Q 3634 1759 3634 1313 
Q 3634 634 3220 271 
Q 2806 -91 2034 -91 
Q 1263 -91 848 271 
Q 434 634 434 1313 
Q 434 1759 690 2068 
Q 947 2378 1403 2484 
z
M 1172 3481 
Q 1172 3119 1398 2916 
Q 1625 2713 2034 2713 
Q 2441 2713 2670 2916 
Q 2900 3119 2900 3481 
Q 2900 3844 2670 4047 
Q 2441 4250 2034 4250 
Q 1625 4250 1398 4047 
Q 1172 3844 1172 3481 
z
" id="DejaVuSans-38" transform="scale(0.015625)"/>
       </defs>
       <use xlink:href="#DejaVuSans-30"/>
       <use x="63.623047" xlink:href="#DejaVuSans-35"/>
       <use x="127.246094" xlink:href="#DejaVuSans-2e"/>
       <use x="159.033203" xlink:href="#DejaVuSans-30"/>
       <use x="222.65625" xlink:href="#DejaVuSans-38"/>
       <use x="286.279297" xlink:href="#DejaVuSans-2e"/>
       <use x="318.066406" xlink:href="#DejaVuSans-32"/>
       <use x="381.689453" xlink:href="#DejaVuSans-30"/>
       <use x="445.3125" xlink:href="#DejaVuSans-32"/>
       <use x="508.935547" xlink:href="#DejaVuSans-30"/>
      </g>
     </g>
    </g>
    <g id="xtick_4">
     <g id="line2d_7">
      <path clip-path="url(#pdef39d4371)" d="M 198.912031 276.48 
L 198.912031 41.472 
" style="fill:none;stroke:#808080;stroke-dasharray:2.96,1.28;stroke-dashoffset:0;stroke-width:0.8;"/>
     </g>
     <g id="line2d_8">
      <g>
       <use style="stroke:#000000;stroke-width:0.8;" x="198.912031" xlink:href="#m71547c71d1" y="276.48"/>
      </g>
     </g>
     <g id="text_4">
      <!-- 06.10.2020 -->
      <g transform="translate(148.28682 318.688565)rotate(-30)scale(0.1 -0.1)">
       <defs>
        <path d="M 794 531 
L 1825 531 
L 1825 4091 
L 703 3866 
L 703 4441 
L 1819 4666 
L 2450 4666 
L 2450 531 
L 3481 531 
L 3481 0 
L 794 0 
L 794 531 
z
" id="DejaVuSans-31" transform="scale(0.015625)"/>
       </defs>
       <use xlink:href="#DejaVuSans-30"/>
       <use x="63.623047" xlink:href="#DejaVuSans-36"/>
       <use x="127.246094" xlink:href="#DejaVuSans-2e"/>
       <use x="159.033203" xlink:href="#DejaVuSans-31"/>
       <use x="222.65625" xlink:href="#DejaVuSans-30"/>
       <use x="286.279297" xlink:href="#DejaVuSans-2e"/>
       <use x="318.066406" xlink:href="#DejaVuSans-32"/>
       <use x="381.689453" xlink:href="#DejaVuSans-30"/>
       <use x="445.3125" xlink:href="#DejaVuSans-32"/>
       <use x="508.935547" xlink:href="#DejaVuSans-30"/>
      </g>
     </g>
    </g>
    <g id="xtick_5">
     <g id="line2d_9">
      <path clip-path="url(#pdef39d4371)" d="M 234.601006 276.48 
L 234.601006 41.472 
" style="fill:none;stroke:#808080;stroke-dasharray:2.96,1.28;stroke-dashoffset:0;stroke-width:0.8;"/>
     </g>
     <g id="line2d_10">
      <g>
       <use style="stroke:#000000;stroke-width:0.8;" x="234.601006" xlink:href="#m71547c71d1" y="276.48"/>
      </g>
     </g>
     <g id="text_5">
      <!-- 07.12.2020 -->
      <g transform="translate(183.975795 318.688565)rotate(-30)scale(0.1 -0.1)">
       <defs>
        <path d="M 525 4666 
L 3525 4666 
L 3525 4397 
L 1831 0 
L 1172 0 
L 2766 4134 
L 525 4134 
L 525 4666 
z
" id="DejaVuSans-37" transform="scale(0.015625)"/>
       </defs>
       <use xlink:href="#DejaVuSans-30"/>
       <use x="63.623047" xlink:href="#DejaVuSans-37"/>
       <use x="127.246094" xlink:href="#DejaVuSans-2e"/>
       <use x="159.033203" xlink:href="#DejaVuSans-31"/>
       <use x="222.65625" xlink:href="#DejaVuSans-32"/>
       <use x="286.279297" xlink:href="#DejaVuSans-2e"/>
       <use x="318.066406" xlink:href="#DejaVuSans-32"/>
       <use x="381.689453" xlink:href="#DejaVuSans-30"/>
       <use x="445.3125" xlink:href="#DejaVuSans-32"/>
       <use x="508.935547" xlink:href="#DejaVuSans-30"/>
      </g>
     </g>
    </g>
    <g id="xtick_6">
     <g id="line2d_11">
      <path clip-path="url(#pdef39d4371)" d="M 270.289981 276.48 
L 270.289981 41.472 
" style="fill:none;stroke:#808080;stroke-dasharray:2.96,1.28;stroke-dashoffset:0;stroke-width:0.8;"/>
     </g>
     <g id="line2d_12">
      <g>
       <use style="stroke:#000000;stroke-width:0.8;" x="270.289981" xlink:href="#m71547c71d1" y="276.48"/>
      </g>
     </g>
     <g id="text_6">
      <!-- 07.02.2021 -->
      <g transform="translate(219.66477 318.688565)rotate(-30)scale(0.1 -0.1)">
       <use xlink:href="#DejaVuSans-30"/>
       <use x="63.623047" xlink:href="#DejaVuSans-37"/>
       <use x="127.246094" xlink:href="#DejaVuSans-2e"/>
       <use x="159.033203" xlink:href="#DejaVuSans-30"/>
       <use x="222.65625" xlink:href="#DejaVuSans-32"/>
       <use x="286.279297" xlink:href="#DejaVuSans-2e"/>
       <use x="318.066406" xlink:href="#DejaVuSans-32"/>
       <use x="381.689453" xlink:href="#DejaVuSans-30"/>
       <use x="445.3125" xlink:href="#DejaVuSans-32"/>
       <use x="508.935547" xlink:href="#DejaVuSans-31"/>
      </g>
     </g>
    </g>
    <g id="xtick_7">
     <g id="line2d_13">
      <path clip-path="url(#pdef39d4371)" d="M 305.978956 276.48 
L 305.978956 41.472 
" style="fill:none;stroke:#808080;stroke-dasharray:2.96,1.28;stroke-dashoffset:0;stroke-width:0.8;"/>
     </g>
     <g id="line2d_14">
      <g>
       <use style="stroke:#000000;stroke-width:0.8;" x="305.978956" xlink:href="#m71547c71d1" y="276.48"/>
      </g>
     </g>
     <g id="text_7">
      <!-- 10.04.2021 -->
      <g transform="translate(255.353745 318.688565)rotate(-30)scale(0.1 -0.1)">
       <use xlink:href="#DejaVuSans-31"/>
       <use x="63.623047" xlink:href="#DejaVuSans-30"/>
       <use x="127.246094" xlink:href="#DejaVuSans-2e"/>
       <use x="159.033203" xlink:href="#DejaVuSans-30"/>
       <use x="222.65625" xlink:href="#DejaVuSans-34"/>
       <use x="286.279297" xlink:href="#DejaVuSans-2e"/>
       <use x="318.066406" xlink:href="#DejaVuSans-32"/>
       <use x="381.689453" xlink:href="#DejaVuSans-30"/>
       <use x="445.3125" xlink:href="#DejaVuSans-32"/>
       <use x="508.935547" xlink:href="#DejaVuSans-31"/>
      </g>
     </g>
    </g>
    <g id="xtick_8">
     <g id="line2d_15">
      <path clip-path="url(#pdef39d4371)" d="M 341.66793 276.48 
L 341.66793 41.472 
" style="fill:none;stroke:#808080;stroke-dasharray:2.96,1.28;stroke-dashoffset:0;stroke-width:0.8;"/>
     </g>
     <g id="line2d_16">
      <g>
       <use style="stroke:#000000;stroke-width:0.8;" x="341.66793" xlink:href="#m71547c71d1" y="276.48"/>
      </g>
     </g>
     <g id="text_8">
      <!-- 11.06.2021 -->
      <g transform="translate(291.04272 318.688565)rotate(-30)scale(0.1 -0.1)">
       <use xlink:href="#DejaVuSans-31"/>
       <use x="63.623047" xlink:href="#DejaVuSans-31"/>
       <use x="127.246094" xlink:href="#DejaVuSans-2e"/>
       <use x="159.033203" xlink:href="#DejaVuSans-30"/>
       <use x="222.65625" xlink:href="#DejaVuSans-36"/>
       <use x="286.279297" xlink:href="#DejaVuSans-2e"/>
       <use x="318.066406" xlink:href="#DejaVuSans-32"/>
       <use x="381.689453" xlink:href="#DejaVuSans-30"/>
       <use x="445.3125" xlink:href="#DejaVuSans-32"/>
       <use x="508.935547" xlink:href="#DejaVuSans-31"/>
      </g>
     </g>
    </g>
    <g id="xtick_9">
     <g id="line2d_17">
      <path clip-path="url(#pdef39d4371)" d="M 377.356905 276.48 
L 377.356905 41.472 
" style="fill:none;stroke:#808080;stroke-dasharray:2.96,1.28;stroke-dashoffset:0;stroke-width:0.8;"/>
     </g>
     <g id="line2d_18">
      <g>
       <use style="stroke:#000000;stroke-width:0.8;" x="377.356905" xlink:href="#m71547c71d1" y="276.48"/>
      </g>
     </g>
     <g id="text_9">
      <!-- 12.08.2021 -->
      <g transform="translate(326.731694 318.688565)rotate(-30)scale(0.1 -0.1)">
       <use xlink:href="#DejaVuSans-31"/>
       <use x="63.623047" xlink:href="#DejaVuSans-32"/>
       <use x="127.246094" xlink:href="#DejaVuSans-2e"/>
       <use x="159.033203" xlink:href="#DejaVuSans-30"/>
       <use x="222.65625" xlink:href="#DejaVuSans-38"/>
       <use x="286.279297" xlink:href="#DejaVuSans-2e"/>
       <use x="318.066406" xlink:href="#DejaVuSans-32"/>
       <use x="381.689453" xlink:href="#DejaVuSans-30"/>
       <use x="445.3125" xlink:href="#DejaVuSans-32"/>
       <use x="508.935547" xlink:href="#DejaVuSans-31"/>
      </g>
     </g>
    </g>
    <g id="xtick_10">
     <g id="line2d_19">
      <path clip-path="url(#pdef39d4371)" d="M 413.04588 276.48 
L 413.04588 41.472 
" style="fill:none;stroke:#808080;stroke-dasharray:2.96,1.28;stroke-dashoffset:0;stroke-width:0.8;"/>
     </g>
     <g id="line2d_20">
      <g>
       <use style="stroke:#000000;stroke-width:0.8;" x="413.04588" xlink:href="#m71547c71d1" y="276.48"/>
      </g>
     </g>
     <g id="text_10">
      <!-- 13.10.2021 -->
      <g transform="translate(362.420669 318.688565)rotate(-30)scale(0.1 -0.1)">
       <use xlink:href="#DejaVuSans-31"/>
       <use x="63.623047" xlink:href="#DejaVuSans-33"/>
       <use x="127.246094" xlink:href="#DejaVuSans-2e"/>
       <use x="159.033203" xlink:href="#DejaVuSans-31"/>
       <use x="222.65625" xlink:href="#DejaVuSans-30"/>
       <use x="286.279297" xlink:href="#DejaVuSans-2e"/>
       <use x="318.066406" xlink:href="#DejaVuSans-32"/>
       <use x="381.689453" xlink:href="#DejaVuSans-30"/>
       <use x="445.3125" xlink:href="#DejaVuSans-32"/>
       <use x="508.935547" xlink:href="#DejaVuSans-31"/>
      </g>
     </g>
    </g>
   </g>
   <g id="matplotlib.axis_2">
    <g id="ytick_1">
     <g id="line2d_21">
      <path clip-path="url(#pdef39d4371)" d="M 57.6 265.797818 
L 414.72 265.797818 
" style="fill:none;stroke:#808080;stroke-dasharray:2.96,1.28;stroke-dashoffset:0;stroke-width:0.8;"/>
     </g>
     <g id="line2d_22">
      <defs>
       <path d="M 0 0 
L -3.5 0 
" id="m0a047d91b0" style="stroke:#000000;stroke-width:0.8;"/>
      </defs>
      <g>
       <use style="stroke:#000000;stroke-width:0.8;" x="57.6" xlink:href="#m0a047d91b0" y="265.797818"/>
      </g>
     </g>
     <g id="text_11">
      <!-- 0 -->
      <g transform="translate(44.2375 269.597037)scale(0.1 -0.1)">
       <use xlink:href="#DejaVuSans-30"/>
      </g>
     </g>
    </g>
    <g id="ytick_2">
     <g id="line2d_23">
      <path clip-path="url(#pdef39d4371)" d="M 57.6 234.663836 
L 414.72 234.663836 
" style="fill:none;stroke:#808080;stroke-dasharray:2.96,1.28;stroke-dashoffset:0;stroke-width:0.8;"/>
     </g>
     <g id="line2d_24">
      <g>
       <use style="stroke:#000000;stroke-width:0.8;" x="57.6" xlink:href="#m0a047d91b0" y="234.663836"/>
      </g>
     </g>
     <g id="text_12">
      <!-- 50 -->
      <g transform="translate(37.875 238.463055)scale(0.1 -0.1)">
       <use xlink:href="#DejaVuSans-35"/>
       <use x="63.623047" xlink:href="#DejaVuSans-30"/>
      </g>
     </g>
    </g>
    <g id="ytick_3">
     <g id="line2d_25">
      <path clip-path="url(#pdef39d4371)" d="M 57.6 203.529854 
L 414.72 203.529854 
" style="fill:none;stroke:#808080;stroke-dasharray:2.96,1.28;stroke-dashoffset:0;stroke-width:0.8;"/>
     </g>
     <g id="line2d_26">
      <g>
       <use style="stroke:#000000;stroke-width:0.8;" x="57.6" xlink:href="#m0a047d91b0" y="203.529854"/>
      </g>
     </g>
     <g id="text_13">
      <!-- 100 -->
      <g transform="translate(31.5125 207.329073)scale(0.1 -0.1)">
       <use xlink:href="#DejaVuSans-31"/>
       <use x="63.623047" xlink:href="#DejaVuSans-30"/>
       <use x="127.246094" xlink:href="#DejaVuSans-30"/>
      </g>
     </g>
    </g>
    <g id="ytick_4">
     <g id="line2d_27">
      <path clip-path="url(#pdef39d4371)" d="M 57.6 172.395872 
L 414.72 172.395872 
" style="fill:none;stroke:#808080;stroke-dasharray:2.96,1.28;stroke-dashoffset:0;stroke-width:0.8;"/>
     </g>
     <g id="line2d_28">
      <g>
       <use style="stroke:#000000;stroke-width:0.8;" x="57.6" xlink:href="#m0a047d91b0" y="172.395872"/>
      </g>
     </g>
     <g id="text_14">
      <!-- 150 -->
      <g transform="translate(31.5125 176.195091)scale(0.1 -0.1)">
       <use xlink:href="#DejaVuSans-31"/>
       <use x="63.623047" xlink:href="#DejaVuSans-35"/>
       <use x="127.246094" xlink:href="#DejaVuSans-30"/>
      </g>
     </g>
    </g>
    <g id="ytick_5">
     <g id="line2d_29">
      <path clip-path="url(#pdef39d4371)" d="M 57.6 141.26189 
L 414.72 141.26189 
" style="fill:none;stroke:#808080;stroke-dasharray:2.96,1.28;stroke-dashoffset:0;stroke-width:0.8;"/>
     </g>
     <g id="line2d_30">
      <g>
       <use style="stroke:#000000;stroke-width:0.8;" x="57.6" xlink:href="#m0a047d91b0" y="141.26189"/>
      </g>
     </g>
     <g id="text_15">
      <!-- 200 -->
      <g transform="translate(31.5125 145.061109)scale(0.1 -0.1)">
       <use xlink:href="#DejaVuSans-32"/>
       <use x="63.623047" xlink:href="#DejaVuSans-30"/>
       <use x="127.246094" xlink:href="#DejaVuSans-30"/>
      </g>
     </g>
    </g>
    <g id="ytick_6">
     <g id="line2d_31">
      <path clip-path="url(#pdef39d4371)" d="M 57.6 110.127909 
L 414.72 110.127909 
" style="fill:none;stroke:#808080;stroke-dasharray:2.96,1.28;stroke-dashoffset:0;stroke-width:0.8;"/>
     </g>
     <g id="line2d_32">
      <g>
       <use style="stroke:#000000;stroke-width:0.8;" x="57.6" xlink:href="#m0a047d91b0" y="110.127909"/>
      </g>
     </g>
     <g id="text_16">
      <!-- 250 -->
      <g transform="translate(31.5125 113.927127)scale(0.1 -0.1)">
       <use xlink:href="#DejaVuSans-32"/>
       <use x="63.623047" xlink:href="#DejaVuSans-35"/>
       <use x="127.246094" xlink:href="#DejaVuSans-30"/>
      </g>
     </g>
    </g>
    <g id="ytick_7">
     <g id="line2d_33">
      <path clip-path="url(#pdef39d4371)" d="M 57.6 78.993927 
L 414.72 78.993927 
" style="fill:none;stroke:#808080;stroke-dasharray:2.96,1.28;stroke-dashoffset:0;stroke-width:0.8;"/>
     </g>
     <g id="line2d_34">
      <g>
       <use style="stroke:#000000;stroke-width:0.8;" x="57.6" xlink:href="#m0a047d91b0" y="78.993927"/>
      </g>
     </g>
     <g id="text_17">
      <!-- 300 -->
      <g transform="translate(31.5125 82.793145)scale(0.1 -0.1)">
       <use xlink:href="#DejaVuSans-33"/>
       <use x="63.623047" xlink:href="#DejaVuSans-30"/>
       <use x="127.246094" xlink:href="#DejaVuSans-30"/>
      </g>
     </g>
    </g>
    <g id="ytick_8">
     <g id="line2d_35">
      <path clip-path="url(#pdef39d4371)" d="M 57.6 47.859945 
L 414.72 47.859945 
" style="fill:none;stroke:#808080;stroke-dasharray:2.96,1.28;stroke-dashoffset:0;stroke-width:0.8;"/>
     </g>
     <g id="line2d_36">
      <g>
       <use style="stroke:#000000;stroke-width:0.8;" x="57.6" xlink:href="#m0a047d91b0" y="47.859945"/>
      </g>
     </g>
     <g id="text_18">
      <!-- 350 -->
      <g transform="translate(31.5125 51.659163)scale(0.1 -0.1)">
       <use xlink:href="#DejaVuSans-33"/>
       <use x="63.623047" xlink:href="#DejaVuSans-35"/>
       <use x="127.246094" xlink:href="#DejaVuSans-30"/>
      </g>
     </g>
    </g>
    <g id="text_19">
     <!-- Inzidenz pro 7 Tage pro 100.000 Einwohner -->
     <g transform="translate(25.432812 267.301)rotate(-90)scale(0.1 -0.1)">
      <defs>
       <path d="M 628 4666 
L 1259 4666 
L 1259 0 
L 628 0 
L 628 4666 
z
" id="DejaVuSans-49" transform="scale(0.015625)"/>
       <path d="M 3513 2113 
L 3513 0 
L 2938 0 
L 2938 2094 
Q 2938 2591 2744 2837 
Q 2550 3084 2163 3084 
Q 1697 3084 1428 2787 
Q 1159 2491 1159 1978 
L 1159 0 
L 581 0 
L 581 3500 
L 1159 3500 
L 1159 2956 
Q 1366 3272 1645 3428 
Q 1925 3584 2291 3584 
Q 2894 3584 3203 3211 
Q 3513 2838 3513 2113 
z
" id="DejaVuSans-6e" transform="scale(0.015625)"/>
       <path d="M 353 3500 
L 3084 3500 
L 3084 2975 
L 922 459 
L 3084 459 
L 3084 0 
L 275 0 
L 275 525 
L 2438 3041 
L 353 3041 
L 353 3500 
z
" id="DejaVuSans-7a" transform="scale(0.015625)"/>
       <path d="M 603 3500 
L 1178 3500 
L 1178 0 
L 603 0 
L 603 3500 
z
M 603 4863 
L 1178 4863 
L 1178 4134 
L 603 4134 
L 603 4863 
z
" id="DejaVuSans-69" transform="scale(0.015625)"/>
       <path d="M 2906 2969 
L 2906 4863 
L 3481 4863 
L 3481 0 
L 2906 0 
L 2906 525 
Q 2725 213 2448 61 
Q 2172 -91 1784 -91 
Q 1150 -91 751 415 
Q 353 922 353 1747 
Q 353 2572 751 3078 
Q 1150 3584 1784 3584 
Q 2172 3584 2448 3432 
Q 2725 3281 2906 2969 
z
M 947 1747 
Q 947 1113 1208 752 
Q 1469 391 1925 391 
Q 2381 391 2643 752 
Q 2906 1113 2906 1747 
Q 2906 2381 2643 2742 
Q 2381 3103 1925 3103 
Q 1469 3103 1208 2742 
Q 947 2381 947 1747 
z
" id="DejaVuSans-64" transform="scale(0.015625)"/>
       <path d="M 3597 1894 
L 3597 1613 
L 953 1613 
Q 991 1019 1311 708 
Q 1631 397 2203 397 
Q 2534 397 2845 478 
Q 3156 559 3463 722 
L 3463 178 
Q 3153 47 2828 -22 
Q 2503 -91 2169 -91 
Q 1331 -91 842 396 
Q 353 884 353 1716 
Q 353 2575 817 3079 
Q 1281 3584 2069 3584 
Q 2775 3584 3186 3129 
Q 3597 2675 3597 1894 
z
M 3022 2063 
Q 3016 2534 2758 2815 
Q 2500 3097 2075 3097 
Q 1594 3097 1305 2825 
Q 1016 2553 972 2059 
L 3022 2063 
z
" id="DejaVuSans-65" transform="scale(0.015625)"/>
       <path id="DejaVuSans-20" transform="scale(0.015625)"/>
       <path d="M 1159 525 
L 1159 -1331 
L 581 -1331 
L 581 3500 
L 1159 3500 
L 1159 2969 
Q 1341 3281 1617 3432 
Q 1894 3584 2278 3584 
Q 2916 3584 3314 3078 
Q 3713 2572 3713 1747 
Q 3713 922 3314 415 
Q 2916 -91 2278 -91 
Q 1894 -91 1617 61 
Q 1341 213 1159 525 
z
M 3116 1747 
Q 3116 2381 2855 2742 
Q 2594 3103 2138 3103 
Q 1681 3103 1420 2742 
Q 1159 2381 1159 1747 
Q 1159 1113 1420 752 
Q 1681 391 2138 391 
Q 2594 391 2855 752 
Q 3116 1113 3116 1747 
z
" id="DejaVuSans-70" transform="scale(0.015625)"/>
       <path d="M 2631 2963 
Q 2534 3019 2420 3045 
Q 2306 3072 2169 3072 
Q 1681 3072 1420 2755 
Q 1159 2438 1159 1844 
L 1159 0 
L 581 0 
L 581 3500 
L 1159 3500 
L 1159 2956 
Q 1341 3275 1631 3429 
Q 1922 3584 2338 3584 
Q 2397 3584 2469 3576 
Q 2541 3569 2628 3553 
L 2631 2963 
z
" id="DejaVuSans-72" transform="scale(0.015625)"/>
       <path d="M 1959 3097 
Q 1497 3097 1228 2736 
Q 959 2375 959 1747 
Q 959 1119 1226 758 
Q 1494 397 1959 397 
Q 2419 397 2687 759 
Q 2956 1122 2956 1747 
Q 2956 2369 2687 2733 
Q 2419 3097 1959 3097 
z
M 1959 3584 
Q 2709 3584 3137 3096 
Q 3566 2609 3566 1747 
Q 3566 888 3137 398 
Q 2709 -91 1959 -91 
Q 1206 -91 779 398 
Q 353 888 353 1747 
Q 353 2609 779 3096 
Q 1206 3584 1959 3584 
z
" id="DejaVuSans-6f" transform="scale(0.015625)"/>
       <path d="M -19 4666 
L 3928 4666 
L 3928 4134 
L 2272 4134 
L 2272 0 
L 1638 0 
L 1638 4134 
L -19 4134 
L -19 4666 
z
" id="DejaVuSans-54" transform="scale(0.015625)"/>
       <path d="M 2194 1759 
Q 1497 1759 1228 1600 
Q 959 1441 959 1056 
Q 959 750 1161 570 
Q 1363 391 1709 391 
Q 2188 391 2477 730 
Q 2766 1069 2766 1631 
L 2766 1759 
L 2194 1759 
z
M 3341 1997 
L 3341 0 
L 2766 0 
L 2766 531 
Q 2569 213 2275 61 
Q 1981 -91 1556 -91 
Q 1019 -91 701 211 
Q 384 513 384 1019 
Q 384 1609 779 1909 
Q 1175 2209 1959 2209 
L 2766 2209 
L 2766 2266 
Q 2766 2663 2505 2880 
Q 2244 3097 1772 3097 
Q 1472 3097 1187 3025 
Q 903 2953 641 2809 
L 641 3341 
Q 956 3463 1253 3523 
Q 1550 3584 1831 3584 
Q 2591 3584 2966 3190 
Q 3341 2797 3341 1997 
z
" id="DejaVuSans-61" transform="scale(0.015625)"/>
       <path d="M 2906 1791 
Q 2906 2416 2648 2759 
Q 2391 3103 1925 3103 
Q 1463 3103 1205 2759 
Q 947 2416 947 1791 
Q 947 1169 1205 825 
Q 1463 481 1925 481 
Q 2391 481 2648 825 
Q 2906 1169 2906 1791 
z
M 3481 434 
Q 3481 -459 3084 -895 
Q 2688 -1331 1869 -1331 
Q 1566 -1331 1297 -1286 
Q 1028 -1241 775 -1147 
L 775 -588 
Q 1028 -725 1275 -790 
Q 1522 -856 1778 -856 
Q 2344 -856 2625 -561 
Q 2906 -266 2906 331 
L 2906 616 
Q 2728 306 2450 153 
Q 2172 0 1784 0 
Q 1141 0 747 490 
Q 353 981 353 1791 
Q 353 2603 747 3093 
Q 1141 3584 1784 3584 
Q 2172 3584 2450 3431 
Q 2728 3278 2906 2969 
L 2906 3500 
L 3481 3500 
L 3481 434 
z
" id="DejaVuSans-67" transform="scale(0.015625)"/>
       <path d="M 628 4666 
L 3578 4666 
L 3578 4134 
L 1259 4134 
L 1259 2753 
L 3481 2753 
L 3481 2222 
L 1259 2222 
L 1259 531 
L 3634 531 
L 3634 0 
L 628 0 
L 628 4666 
z
" id="DejaVuSans-45" transform="scale(0.015625)"/>
       <path d="M 269 3500 
L 844 3500 
L 1563 769 
L 2278 3500 
L 2956 3500 
L 3675 769 
L 4391 3500 
L 4966 3500 
L 4050 0 
L 3372 0 
L 2619 2869 
L 1863 0 
L 1184 0 
L 269 3500 
z
" id="DejaVuSans-77" transform="scale(0.015625)"/>
       <path d="M 3513 2113 
L 3513 0 
L 2938 0 
L 2938 2094 
Q 2938 2591 2744 2837 
Q 2550 3084 2163 3084 
Q 1697 3084 1428 2787 
Q 1159 2491 1159 1978 
L 1159 0 
L 581 0 
L 581 4863 
L 1159 4863 
L 1159 2956 
Q 1366 3272 1645 3428 
Q 1925 3584 2291 3584 
Q 2894 3584 3203 3211 
Q 3513 2838 3513 2113 
z
" id="DejaVuSans-68" transform="scale(0.015625)"/>
      </defs>
      <use xlink:href="#DejaVuSans-49"/>
      <use x="29.492188" xlink:href="#DejaVuSans-6e"/>
      <use x="92.871094" xlink:href="#DejaVuSans-7a"/>
      <use x="145.361328" xlink:href="#DejaVuSans-69"/>
      <use x="173.144531" xlink:href="#DejaVuSans-64"/>
      <use x="236.621094" xlink:href="#DejaVuSans-65"/>
      <use x="298.144531" xlink:href="#DejaVuSans-6e"/>
      <use x="361.523438" xlink:href="#DejaVuSans-7a"/>
      <use x="414.013672" xlink:href="#DejaVuSans-20"/>
      <use x="445.800781" xlink:href="#DejaVuSans-70"/>
      <use x="509.277344" xlink:href="#DejaVuSans-72"/>
      <use x="548.140625" xlink:href="#DejaVuSans-6f"/>
      <use x="609.322266" xlink:href="#DejaVuSans-20"/>
      <use x="641.109375" xlink:href="#DejaVuSans-37"/>
      <use x="704.732422" xlink:href="#DejaVuSans-20"/>
      <use x="736.519531" xlink:href="#DejaVuSans-54"/>
      <use x="781.103516" xlink:href="#DejaVuSans-61"/>
      <use x="842.382812" xlink:href="#DejaVuSans-67"/>
      <use x="905.859375" xlink:href="#DejaVuSans-65"/>
      <use x="967.382812" xlink:href="#DejaVuSans-20"/>
      <use x="999.169922" xlink:href="#DejaVuSans-70"/>
      <use x="1062.646484" xlink:href="#DejaVuSans-72"/>
      <use x="1101.509766" xlink:href="#DejaVuSans-6f"/>
      <use x="1162.691406" xlink:href="#DejaVuSans-20"/>
      <use x="1194.478516" xlink:href="#DejaVuSans-31"/>
      <use x="1258.101562" xlink:href="#DejaVuSans-30"/>
      <use x="1321.724609" xlink:href="#DejaVuSans-30"/>
      <use x="1385.347656" xlink:href="#DejaVuSans-2e"/>
      <use x="1417.134766" xlink:href="#DejaVuSans-30"/>
      <use x="1480.757812" xlink:href="#DejaVuSans-30"/>
      <use x="1544.380859" xlink:href="#DejaVuSans-30"/>
      <use x="1608.003906" xlink:href="#DejaVuSans-20"/>
      <use x="1639.791016" xlink:href="#DejaVuSans-45"/>
      <use x="1702.974609" xlink:href="#DejaVuSans-69"/>
      <use x="1730.757812" xlink:href="#DejaVuSans-6e"/>
      <use x="1794.136719" xlink:href="#DejaVuSans-77"/>
      <use x="1875.923828" xlink:href="#DejaVuSans-6f"/>
      <use x="1937.105469" xlink:href="#DejaVuSans-68"/>
      <use x="2000.484375" xlink:href="#DejaVuSans-6e"/>
      <use x="2063.863281" xlink:href="#DejaVuSans-65"/>
      <use x="2125.386719" xlink:href="#DejaVuSans-72"/>
     </g>
    </g>
   </g>
   <g id="line2d_37">
    <path clip-path="url(#pdef39d4371)" d="M 73.832727 265.797818 
L 78.437756 265.797818 
L 79.013385 264.489796 
L 80.164642 264.489796 
L 80.740271 264.053788 
L 81.315899 264.053788 
L 82.467157 261.437744 
L 84.194043 252.281588 
L 84.769671 246.613492 
L 85.3453 246.613492 
L 85.920928 242.689425 
L 86.496557 242.689425 
L 87.072186 233.969276 
L 87.647814 236.149314 
L 88.223443 225.249128 
L 88.799072 230.481217 
L 89.3747 230.481217 
L 89.950329 224.377113 
L 90.525957 215.656965 
L 91.101586 222.197076 
L 91.677215 220.889054 
L 92.252843 228.30118 
L 92.828472 229.173195 
L 93.404101 222.197076 
L 93.979729 230.917224 
L 94.555358 236.585321 
L 95.130986 238.329351 
L 95.706615 237.457336 
L 96.282244 241.381403 
L 96.857872 240.07338 
L 97.433501 247.049499 
L 99.160387 254.461625 
L 99.736015 255.769647 
L 100.311644 255.769647 
L 100.887273 257.07767 
L 101.462901 256.205655 
L 102.03853 253.58961 
L 102.614159 254.897633 
L 103.189787 256.641662 
L 103.765416 257.949685 
L 104.341044 259.693714 
L 104.916673 259.257707 
L 105.492302 260.129722 
L 106.06793 262.309759 
L 106.643559 263.181774 
L 107.219188 263.181774 
L 107.794816 264.053788 
L 108.370445 264.489796 
L 109.521702 264.489796 
L 110.097331 263.181774 
L 110.672959 262.745766 
L 111.248588 261.873751 
L 113.551103 261.873751 
L 114.126731 263.617781 
L 114.70236 264.053788 
L 115.277988 265.361811 
L 115.853617 264.925803 
L 116.429246 264.053788 
L 117.004874 264.489796 
L 117.580503 264.489796 
L 118.156132 263.617781 
L 119.307389 263.617781 
L 119.883017 264.053788 
L 120.458646 264.925803 
L 121.609903 264.925803 
L 122.185532 265.797818 
L 127.36619 265.797818 
L 128.517447 264.925803 
L 129.668704 264.925803 
L 130.244333 262.309759 
L 130.819961 262.309759 
L 131.39559 260.565729 
L 131.971219 260.129722 
L 132.546847 260.565729 
L 133.122476 257.949685 
L 133.698104 257.949685 
L 134.273733 260.565729 
L 134.849362 260.565729 
L 136.000619 262.309759 
L 136.576248 262.309759 
L 137.151876 264.925803 
L 138.878762 264.925803 
L 139.454391 265.361811 
L 140.030019 264.925803 
L 141.756905 264.925803 
L 142.332534 263.617781 
L 143.483791 261.873751 
L 144.05942 261.873751 
L 145.210677 261.001737 
L 145.786306 261.001737 
L 146.361934 260.565729 
L 146.937563 261.001737 
L 147.513191 262.309759 
L 148.08882 262.309759 
L 149.240077 263.181774 
L 149.815706 263.181774 
L 150.391335 261.873751 
L 150.966963 259.257707 
L 151.542592 255.33364 
L 152.693849 255.33364 
L 153.269478 238.329351 
L 153.845106 238.329351 
L 154.420735 241.381403 
L 154.996364 243.56144 
L 155.571992 241.381403 
L 156.147621 240.07338 
L 156.72325 239.637373 
L 157.298878 256.205655 
L 157.874507 256.205655 
L 158.450135 252.717596 
L 159.025764 252.281588 
L 159.601393 257.949685 
L 160.177021 258.385692 
L 161.328279 254.025618 
L 161.903907 254.025618 
L 162.479536 253.153603 
L 163.055164 254.461625 
L 164.206422 248.793529 
L 164.78205 249.229536 
L 165.357679 251.845581 
L 165.933308 251.845581 
L 166.508936 256.205655 
L 167.084565 254.025618 
L 167.660193 254.897633 
L 168.235822 257.07767 
L 168.811451 256.205655 
L 169.962708 256.205655 
L 170.538337 251.409573 
L 171.689594 252.281588 
L 172.265222 253.58961 
L 172.840851 256.641662 
L 173.41648 253.58961 
L 173.992108 253.58961 
L 174.567737 257.513677 
L 175.143366 257.07767 
L 175.718994 255.33364 
L 176.294623 254.025618 
L 176.870251 253.153603 
L 177.44588 254.897633 
L 178.021509 254.461625 
L 179.172766 254.461625 
L 179.748395 256.641662 
L 180.324023 258.385692 
L 180.899652 257.949685 
L 181.47528 259.257707 
L 182.050909 259.257707 
L 182.626538 258.385692 
L 183.202166 259.693714 
L 183.777795 260.565729 
L 184.353424 260.129722 
L 184.929052 260.129722 
L 185.504681 259.693714 
L 186.080309 260.129722 
L 186.655938 259.693714 
L 187.231567 259.693714 
L 187.807195 260.129722 
L 188.382824 259.693714 
L 190.10971 259.693714 
L 190.685338 258.821699 
L 191.260967 258.385692 
L 191.836596 255.769647 
L 192.412224 255.769647 
L 192.987853 254.025618 
L 194.13911 252.281588 
L 194.714739 255.33364 
L 195.290368 254.461625 
L 195.865996 256.205655 
L 196.441625 250.101551 
L 197.017253 232.661254 
L 197.592882 229.609202 
L 198.168511 230.481217 
L 198.744139 230.04521 
L 199.895397 221.761069 
L 200.471025 222.197076 
L 201.046654 235.277299 
L 201.622282 233.969276 
L 202.197911 232.225247 
L 202.77354 232.661254 
L 203.349168 222.633083 
L 204.500426 211.296891 
L 205.076054 211.732898 
L 205.651683 207.372824 
L 206.227311 196.036631 
L 206.80294 194.292601 
L 207.378569 196.472638 
L 207.954197 177.724319 
L 208.529826 165.516111 
L 209.681083 147.639807 
L 210.83234 143.279733 
L 211.407969 128.455481 
L 211.983598 127.583466 
L 212.559226 120.607347 
L 213.134855 111.015184 
L 213.710484 98.806976 
L 214.286112 102.731043 
L 214.861741 98.370968 
L 215.437369 96.190931 
L 216.012998 92.266865 
L 216.588627 82.674701 
L 217.164255 81.802686 
L 217.739884 72.210523 
L 218.315513 74.39056 
L 218.891141 76.13459 
L 219.46677 88.342798 
L 220.042398 95.318917 
L 220.618027 113.631228 
L 221.193656 104.475072 
L 221.769284 120.17134 
L 222.344913 117.555295 
L 222.920542 121.915369 
L 223.49617 110.579176 
L 224.071799 95.754924 
L 224.647427 88.778805 
L 225.223056 106.219102 
L 225.798685 107.963132 
L 226.374313 106.219102 
L 226.949942 106.655109 
L 227.525571 117.119288 
L 228.101199 124.967421 
L 228.676828 126.711451 
L 229.252456 130.635518 
L 229.828085 132.379547 
L 230.403714 141.971711 
L 230.979342 139.791673 
L 231.554971 136.303614 
L 232.1306 151.999881 
L 232.706228 159.412007 
L 233.281857 157.667978 
L 233.857485 163.772082 
L 234.433114 164.208089 
L 235.008743 162.028052 
L 235.584371 163.772082 
L 236.16 162.900067 
L 236.735629 163.772082 
L 237.311257 166.824134 
L 237.886886 158.103985 
L 238.462515 155.923948 
L 239.038143 158.103985 
L 239.613772 162.464059 
L 240.1894 149.819844 
L 240.765029 150.691859 
L 241.340658 146.331785 
L 241.916286 146.331785 
L 242.491915 143.71574 
L 243.067544 145.895777 
L 243.643172 135.867607 
L 244.218801 139.355666 
L 244.794429 125.403429 
L 245.945687 156.795963 
L 246.521315 164.644096 
L 247.096944 156.359955 
L 247.672573 162.900067 
L 248.248201 162.900067 
L 248.82383 175.980289 
L 249.399458 175.980289 
L 249.975087 173.800252 
L 250.550716 174.23626 
L 251.126344 173.800252 
L 251.701973 176.852304 
L 252.277602 187.75249 
L 252.85323 195.600623 
L 253.428859 187.75249 
L 254.004487 184.700438 
L 254.580116 178.160327 
L 255.155745 186.444468 
L 255.731373 182.956408 
L 256.307002 184.26443 
L 256.882631 187.316482 
L 257.458259 185.572453 
L 258.033888 195.600623 
L 258.609516 196.472638 
L 259.185145 198.216668 
L 259.760774 214.348942 
L 260.336402 224.813121 
L 260.912031 225.685135 
L 261.48766 229.173195 
L 262.063288 230.917224 
L 262.638917 233.097262 
L 263.214545 232.225247 
L 263.790174 229.173195 
L 264.365803 216.964987 
L 264.941431 216.092972 
L 266.092689 198.216668 
L 266.668317 200.396705 
L 267.243946 196.908646 
L 267.819574 192.112564 
L 268.395203 180.776371 
L 268.970832 165.080104 
L 270.122089 150.255852 
L 270.697718 147.2038 
L 271.273346 149.383837 
L 271.848975 139.355666 
L 272.424603 151.563874 
L 273.000232 144.587755 
L 273.575861 146.331785 
L 274.151489 147.639807 
L 274.727118 145.023763 
L 275.302747 145.895777 
L 276.454004 158.103985 
L 277.029632 173.800252 
L 278.18089 190.368534 
L 278.756518 190.804542 
L 279.332147 189.932527 
L 279.907776 195.164616 
L 280.483404 188.188497 
L 281.059033 194.292601 
L 281.634662 196.036631 
L 282.21029 193.420586 
L 282.785919 195.164616 
L 283.361547 195.164616 
L 283.937176 191.676557 
L 284.512805 199.52469 
L 285.088433 200.832712 
L 285.664062 203.01275 
L 286.239691 196.472638 
L 286.815319 199.088683 
L 287.390948 197.78066 
L 287.966576 205.628794 
L 288.542205 192.112564 
L 289.117834 185.572453 
L 289.693462 182.956408 
L 290.269091 193.420586 
L 290.84472 192.984579 
L 291.420348 190.368534 
L 291.995977 186.880475 
L 292.571605 189.060512 
L 293.147234 187.316482 
L 293.722863 181.648386 
L 294.298491 177.724319 
L 294.87412 176.416297 
L 295.449749 181.212378 
L 296.025377 181.648386 
L 296.601006 179.032341 
L 297.176634 184.700438 
L 297.752263 183.828423 
L 298.327892 182.084393 
L 298.90352 178.596334 
L 299.479149 174.23626 
L 300.054778 172.928237 
L 300.630406 173.800252 
L 301.206035 156.359955 
L 301.781663 151.127866 
L 302.357292 163.336074 
L 302.932921 157.23197 
L 303.508549 163.336074 
L 304.084178 165.516111 
L 304.659807 173.364245 
L 305.235435 177.724319 
L 305.811064 157.23197 
L 306.386692 118.863317 
L 306.962321 128.891488 
L 307.53795 125.839436 
L 308.113578 102.731043 
L 308.689207 68.286456 
L 309.264836 63.490375 
L 309.840464 73.954553 
L 310.416093 91.830857 
L 310.991721 73.954553 
L 311.56735 70.902501 
L 312.142979 75.698583 
L 312.718607 76.13459 
L 313.294236 64.36239 
L 313.869865 69.158471 
L 314.445493 52.154182 
L 315.021122 62.182353 
L 316.172379 69.158471 
L 316.748008 73.954553 
L 317.323636 90.958842 
L 317.899265 90.958842 
L 318.474894 107.091117 
L 319.050522 116.68328 
L 319.626151 117.119288 
L 320.201779 123.659399 
L 320.777408 136.739622 
L 321.353037 142.407718 
L 321.928665 160.72003 
L 322.504294 173.364245 
L 323.079923 166.824134 
L 323.655551 167.260141 
L 324.23118 178.160327 
L 324.806809 196.472638 
L 325.382437 204.756779 
L 325.958066 214.78495 
L 326.533694 216.964987 
L 327.109323 216.52898 
L 327.684952 216.52898 
L 328.26058 216.092972 
L 328.836209 222.633083 
L 329.411838 226.993158 
L 329.987466 222.197076 
L 330.563095 226.55715 
L 331.138723 233.969276 
L 331.714352 235.713306 
L 332.289981 242.689425 
L 332.865609 247.485506 
L 333.441238 249.665544 
L 334.592495 258.385692 
L 335.168124 259.693714 
L 335.743752 254.025618 
L 336.319381 250.537558 
L 336.89501 248.357521 
L 337.470638 250.101551 
L 338.046267 248.357521 
L 338.621896 248.357521 
L 339.197524 247.921514 
L 339.773153 247.921514 
L 340.348781 248.357521 
L 340.92441 248.357521 
L 341.500039 247.049499 
L 342.075667 248.793529 
L 342.651296 248.793529 
L 343.226925 249.229536 
L 343.802553 252.717596 
L 344.378182 254.025618 
L 345.529439 259.257707 
L 347.256325 259.257707 
L 347.831954 260.565729 
L 348.407582 262.309759 
L 348.983211 263.181774 
L 349.558839 263.181774 
L 350.134468 263.617781 
L 351.285725 263.617781 
L 351.861354 264.489796 
L 352.436983 264.489796 
L 353.012611 264.925803 
L 353.58824 265.797818 
L 354.163868 265.361811 
L 355.315126 265.361811 
L 356.466383 264.489796 
L 357.042012 264.489796 
L 358.193269 262.745766 
L 359.344526 262.745766 
L 359.920155 261.873751 
L 360.495783 262.309759 
L 361.071412 261.437744 
L 361.647041 261.437744 
L 362.222669 261.873751 
L 363.373926 261.873751 
L 363.949555 261.437744 
L 364.525184 259.257707 
L 365.676441 259.257707 
L 366.25207 257.949685 
L 367.403327 257.949685 
L 368.554584 258.821699 
L 369.130213 258.385692 
L 369.705841 257.07767 
L 370.857099 250.973566 
L 371.432727 250.973566 
L 372.008356 247.921514 
L 372.583985 245.741477 
L 373.159613 245.305469 
L 373.735242 245.741477 
L 374.31087 247.921514 
L 374.886499 250.973566 
L 375.462128 250.973566 
L 376.037756 252.717596 
L 376.613385 253.153603 
L 377.189014 251.409573 
L 377.764642 251.409573 
L 378.340271 253.153603 
L 380.067157 253.153603 
L 380.642785 254.025618 
L 381.218414 253.153603 
L 381.794043 249.665544 
L 382.369671 241.81741 
L 383.520928 241.81741 
L 384.096557 237.457336 
L 385.247814 231.789239 
L 385.823443 226.993158 
L 387.550329 226.993158 
L 388.125957 221.761069 
L 388.701586 222.197076 
L 389.277215 220.453046 
L 389.852843 224.377113 
L 390.428472 223.505098 
L 391.579729 223.505098 
L 392.730986 221.761069 
L 393.306615 224.813121 
L 393.882244 223.505098 
L 394.457872 228.30118 
L 395.60913 228.30118 
L 396.184758 227.865173 
L 396.760387 228.737187 
L 397.336015 223.941106 
L 397.911644 222.633083 
L 398.487273 222.633083 
L 398.487273 222.633083 
" style="fill:none;stroke:#1f77b4;stroke-linecap:square;stroke-width:1.5;"/>
   </g>
   <g id="patch_3">
    <path d="M 57.6 276.48 
L 57.6 41.472 
" style="fill:none;stroke:#000000;stroke-linecap:square;stroke-linejoin:miter;stroke-width:0.8;"/>
   </g>
   <g id="patch_4">
    <path d="M 414.72 276.48 
L 414.72 41.472 
" style="fill:none;stroke:#000000;stroke-linecap:square;stroke-linejoin:miter;stroke-width:0.8;"/>
   </g>
   <g id="patch_5">
    <path d="M 57.6 276.48 
L 414.72 276.48 
" style="fill:none;stroke:#000000;stroke-linecap:square;stroke-linejoin:miter;stroke-width:0.8;"/>
   </g>
   <g id="patch_6">
    <path d="M 57.6 41.472 
L 414.72 41.472 
" style="fill:none;stroke:#000000;stroke-linecap:square;stroke-linejoin:miter;stroke-width:0.8;"/>
   </g>
  </g>
  <g id="text_20">
   <!-- Inzidenzverlauf LK Vechta -->
   <g transform="translate(114.35625 20.589187)scale(0.18 -0.18)">
    <defs>
     <path d="M 191 3500 
L 800 3500 
L 1894 563 
L 2988 3500 
L 3597 3500 
L 2284 0 
L 1503 0 
L 191 3500 
z
" id="DejaVuSans-76" transform="scale(0.015625)"/>
     <path d="M 603 4863 
L 1178 4863 
L 1178 0 
L 603 0 
L 603 4863 
z
" id="DejaVuSans-6c" transform="scale(0.015625)"/>
     <path d="M 544 1381 
L 544 3500 
L 1119 3500 
L 1119 1403 
Q 1119 906 1312 657 
Q 1506 409 1894 409 
Q 2359 409 2629 706 
Q 2900 1003 2900 1516 
L 2900 3500 
L 3475 3500 
L 3475 0 
L 2900 0 
L 2900 538 
Q 2691 219 2414 64 
Q 2138 -91 1772 -91 
Q 1169 -91 856 284 
Q 544 659 544 1381 
z
M 1991 3584 
L 1991 3584 
z
" id="DejaVuSans-75" transform="scale(0.015625)"/>
     <path d="M 2375 4863 
L 2375 4384 
L 1825 4384 
Q 1516 4384 1395 4259 
Q 1275 4134 1275 3809 
L 1275 3500 
L 2222 3500 
L 2222 3053 
L 1275 3053 
L 1275 0 
L 697 0 
L 697 3053 
L 147 3053 
L 147 3500 
L 697 3500 
L 697 3744 
Q 697 4328 969 4595 
Q 1241 4863 1831 4863 
L 2375 4863 
z
" id="DejaVuSans-66" transform="scale(0.015625)"/>
     <path d="M 628 4666 
L 1259 4666 
L 1259 531 
L 3531 531 
L 3531 0 
L 628 0 
L 628 4666 
z
" id="DejaVuSans-4c" transform="scale(0.015625)"/>
     <path d="M 628 4666 
L 1259 4666 
L 1259 2694 
L 3353 4666 
L 4166 4666 
L 1850 2491 
L 4331 0 
L 3500 0 
L 1259 2247 
L 1259 0 
L 628 0 
L 628 4666 
z
" id="DejaVuSans-4b" transform="scale(0.015625)"/>
     <path d="M 1831 0 
L 50 4666 
L 709 4666 
L 2188 738 
L 3669 4666 
L 4325 4666 
L 2547 0 
L 1831 0 
z
" id="DejaVuSans-56" transform="scale(0.015625)"/>
     <path d="M 3122 3366 
L 3122 2828 
Q 2878 2963 2633 3030 
Q 2388 3097 2138 3097 
Q 1578 3097 1268 2742 
Q 959 2388 959 1747 
Q 959 1106 1268 751 
Q 1578 397 2138 397 
Q 2388 397 2633 464 
Q 2878 531 3122 666 
L 3122 134 
Q 2881 22 2623 -34 
Q 2366 -91 2075 -91 
Q 1284 -91 818 406 
Q 353 903 353 1747 
Q 353 2603 823 3093 
Q 1294 3584 2113 3584 
Q 2378 3584 2631 3529 
Q 2884 3475 3122 3366 
z
" id="DejaVuSans-63" transform="scale(0.015625)"/>
     <path d="M 1172 4494 
L 1172 3500 
L 2356 3500 
L 2356 3053 
L 1172 3053 
L 1172 1153 
Q 1172 725 1289 603 
Q 1406 481 1766 481 
L 2356 481 
L 2356 0 
L 1766 0 
Q 1100 0 847 248 
Q 594 497 594 1153 
L 594 3053 
L 172 3053 
L 172 3500 
L 594 3500 
L 594 4494 
L 1172 4494 
z
" id="DejaVuSans-74" transform="scale(0.015625)"/>
    </defs>
    <use xlink:href="#DejaVuSans-49"/>
    <use x="29.492188" xlink:href="#DejaVuSans-6e"/>
    <use x="92.871094" xlink:href="#DejaVuSans-7a"/>
    <use x="145.361328" xlink:href="#DejaVuSans-69"/>
    <use x="173.144531" xlink:href="#DejaVuSans-64"/>
    <use x="236.621094" xlink:href="#DejaVuSans-65"/>
    <use x="298.144531" xlink:href="#DejaVuSans-6e"/>
    <use x="361.523438" xlink:href="#DejaVuSans-7a"/>
    <use x="414.013672" xlink:href="#DejaVuSans-76"/>
    <use x="473.193359" xlink:href="#DejaVuSans-65"/>
    <use x="534.716797" xlink:href="#DejaVuSans-72"/>
    <use x="575.830078" xlink:href="#DejaVuSans-6c"/>
    <use x="603.613281" xlink:href="#DejaVuSans-61"/>
    <use x="664.892578" xlink:href="#DejaVuSans-75"/>
    <use x="728.271484" xlink:href="#DejaVuSans-66"/>
    <use x="763.476562" xlink:href="#DejaVuSans-20"/>
    <use x="795.263672" xlink:href="#DejaVuSans-4c"/>
    <use x="850.976562" xlink:href="#DejaVuSans-4b"/>
    <use x="916.552734" xlink:href="#DejaVuSans-20"/>
    <use x="948.339844" xlink:href="#DejaVuSans-56"/>
    <use x="1008.998047" xlink:href="#DejaVuSans-65"/>
    <use x="1070.521484" xlink:href="#DejaVuSans-63"/>
    <use x="1125.501953" xlink:href="#DejaVuSans-68"/>
    <use x="1188.880859" xlink:href="#DejaVuSans-74"/>
    <use x="1228.089844" xlink:href="#DejaVuSans-61"/>
   </g>
  </g>
 </g>
 <defs>
  <clipPath id="pdef39d4371">
   <rect height="235.008" width="357.12" x="57.6" y="41.472"/>
  </clipPath>
 </defs>
</svg>
