<?xml version="1.0" encoding="utf-8" standalone="no"?>
<!DOCTYPE svg PUBLIC "-//W3C//DTD SVG 1.1//EN"
  "http://www.w3.org/Graphics/SVG/1.1/DTD/svg11.dtd">
<svg xmlns:xlink="http://www.w3.org/1999/xlink" width="460.8pt" height="345.6pt" viewBox="0 0 460.8 345.6" xmlns="http://www.w3.org/2000/svg" version="1.1">
 <metadata>
  <rdf:RDF xmlns:dc="http://purl.org/dc/elements/1.1/" xmlns:cc="http://creativecommons.org/ns#" xmlns:rdf="http://www.w3.org/1999/02/22-rdf-syntax-ns#">
   <cc:Work>
    <dc:type rdf:resource="http://purl.org/dc/dcmitype/StillImage"/>
    <dc:date>2022-10-27T09:27:24.212277</dc:date>
    <dc:format>image/svg+xml</dc:format>
    <dc:creator>
     <cc:Agent>
      <dc:title>Matplotlib v3.6.1, https://matplotlib.org/</dc:title>
     </cc:Agent>
    </dc:creator>
   </cc:Work>
  </rdf:RDF>
 </metadata>
 <defs>
  <style type="text/css">*{stroke-linejoin: round; stroke-linecap: butt}</style>
 </defs>
 <g id="figure_1">
  <g id="patch_1">
   <path d="M 0 345.6 
L 460.8 345.6 
L 460.8 0 
L 0 0 
z
" style="fill: #ffffff"/>
  </g>
  <g id="axes_1">
   <g id="patch_2">
    <path d="M 57.6 276.48 
L 414.72 276.48 
L 414.72 41.472 
L 57.6 41.472 
z
" style="fill: #ffffff"/>
   </g>
   <g id="matplotlib.axis_1">
    <g id="xtick_1">
     <g id="line2d_1">
      <path d="M 58.838137 276.48 
L 58.838137 41.472 
" clip-path="url(#pfedf30050c)" style="fill: none; stroke-dasharray: 2.96,1.28; stroke-dashoffset: 0; stroke: #808080; stroke-width: 0.8"/>
     </g>
     <g id="line2d_2">
      <defs>
       <path id="m307f9ade29" d="M 0 0 
L 0 3.5 
" style="stroke: #000000; stroke-width: 0.8"/>
      </defs>
      <g>
       <use xlink:href="#m307f9ade29" x="58.838137" y="276.48" style="stroke: #000000; stroke-width: 0.8"/>
      </g>
     </g>
     <g id="text_1">
      <!-- 18.01.2020 -->
      <g transform="translate(8.212926 318.688565) rotate(-30) scale(0.1 -0.1)">
       <defs>
        <path id="DejaVuSans-31" d="M 794 531 
L 1825 531 
L 1825 4091 
L 703 3866 
L 703 4441 
L 1819 4666 
L 2450 4666 
L 2450 531 
L 3481 531 
L 3481 0 
L 794 0 
L 794 531 
z
" transform="scale(0.015625)"/>
        <path id="DejaVuSans-38" d="M 2034 2216 
Q 1584 2216 1326 1975 
Q 1069 1734 1069 1313 
Q 1069 891 1326 650 
Q 1584 409 2034 409 
Q 2484 409 2743 651 
Q 3003 894 3003 1313 
Q 3003 1734 2745 1975 
Q 2488 2216 2034 2216 
z
M 1403 2484 
Q 997 2584 770 2862 
Q 544 3141 544 3541 
Q 544 4100 942 4425 
Q 1341 4750 2034 4750 
Q 2731 4750 3128 4425 
Q 3525 4100 3525 3541 
Q 3525 3141 3298 2862 
Q 3072 2584 2669 2484 
Q 3125 2378 3379 2068 
Q 3634 1759 3634 1313 
Q 3634 634 3220 271 
Q 2806 -91 2034 -91 
Q 1263 -91 848 271 
Q 434 634 434 1313 
Q 434 1759 690 2068 
Q 947 2378 1403 2484 
z
M 1172 3481 
Q 1172 3119 1398 2916 
Q 1625 2713 2034 2713 
Q 2441 2713 2670 2916 
Q 2900 3119 2900 3481 
Q 2900 3844 2670 4047 
Q 2441 4250 2034 4250 
Q 1625 4250 1398 4047 
Q 1172 3844 1172 3481 
z
" transform="scale(0.015625)"/>
        <path id="DejaVuSans-2e" d="M 684 794 
L 1344 794 
L 1344 0 
L 684 0 
L 684 794 
z
" transform="scale(0.015625)"/>
        <path id="DejaVuSans-30" d="M 2034 4250 
Q 1547 4250 1301 3770 
Q 1056 3291 1056 2328 
Q 1056 1369 1301 889 
Q 1547 409 2034 409 
Q 2525 409 2770 889 
Q 3016 1369 3016 2328 
Q 3016 3291 2770 3770 
Q 2525 4250 2034 4250 
z
M 2034 4750 
Q 2819 4750 3233 4129 
Q 3647 3509 3647 2328 
Q 3647 1150 3233 529 
Q 2819 -91 2034 -91 
Q 1250 -91 836 529 
Q 422 1150 422 2328 
Q 422 3509 836 4129 
Q 1250 4750 2034 4750 
z
" transform="scale(0.015625)"/>
        <path id="DejaVuSans-32" d="M 1228 531 
L 3431 531 
L 3431 0 
L 469 0 
L 469 531 
Q 828 903 1448 1529 
Q 2069 2156 2228 2338 
Q 2531 2678 2651 2914 
Q 2772 3150 2772 3378 
Q 2772 3750 2511 3984 
Q 2250 4219 1831 4219 
Q 1534 4219 1204 4116 
Q 875 4013 500 3803 
L 500 4441 
Q 881 4594 1212 4672 
Q 1544 4750 1819 4750 
Q 2544 4750 2975 4387 
Q 3406 4025 3406 3419 
Q 3406 3131 3298 2873 
Q 3191 2616 2906 2266 
Q 2828 2175 2409 1742 
Q 1991 1309 1228 531 
z
" transform="scale(0.015625)"/>
       </defs>
       <use xlink:href="#DejaVuSans-31"/>
       <use xlink:href="#DejaVuSans-38" x="63.623047"/>
       <use xlink:href="#DejaVuSans-2e" x="127.246094"/>
       <use xlink:href="#DejaVuSans-30" x="159.033203"/>
       <use xlink:href="#DejaVuSans-31" x="222.65625"/>
       <use xlink:href="#DejaVuSans-2e" x="286.279297"/>
       <use xlink:href="#DejaVuSans-32" x="318.066406"/>
       <use xlink:href="#DejaVuSans-30" x="381.689453"/>
       <use xlink:href="#DejaVuSans-32" x="445.3125"/>
       <use xlink:href="#DejaVuSans-30" x="508.935547"/>
      </g>
     </g>
    </g>
    <g id="xtick_2">
     <g id="line2d_3">
      <path d="M 94.724538 276.48 
L 94.724538 41.472 
" clip-path="url(#pfedf30050c)" style="fill: none; stroke-dasharray: 2.96,1.28; stroke-dashoffset: 0; stroke: #808080; stroke-width: 0.8"/>
     </g>
     <g id="line2d_4">
      <g>
       <use xlink:href="#m307f9ade29" x="94.724538" y="276.48" style="stroke: #000000; stroke-width: 0.8"/>
      </g>
     </g>
     <g id="text_2">
      <!-- 04.05.2020 -->
      <g transform="translate(44.099327 318.688565) rotate(-30) scale(0.1 -0.1)">
       <defs>
        <path id="DejaVuSans-34" d="M 2419 4116 
L 825 1625 
L 2419 1625 
L 2419 4116 
z
M 2253 4666 
L 3047 4666 
L 3047 1625 
L 3713 1625 
L 3713 1100 
L 3047 1100 
L 3047 0 
L 2419 0 
L 2419 1100 
L 313 1100 
L 313 1709 
L 2253 4666 
z
" transform="scale(0.015625)"/>
        <path id="DejaVuSans-35" d="M 691 4666 
L 3169 4666 
L 3169 4134 
L 1269 4134 
L 1269 2991 
Q 1406 3038 1543 3061 
Q 1681 3084 1819 3084 
Q 2600 3084 3056 2656 
Q 3513 2228 3513 1497 
Q 3513 744 3044 326 
Q 2575 -91 1722 -91 
Q 1428 -91 1123 -41 
Q 819 9 494 109 
L 494 744 
Q 775 591 1075 516 
Q 1375 441 1709 441 
Q 2250 441 2565 725 
Q 2881 1009 2881 1497 
Q 2881 1984 2565 2268 
Q 2250 2553 1709 2553 
Q 1456 2553 1204 2497 
Q 953 2441 691 2322 
L 691 4666 
z
" transform="scale(0.015625)"/>
       </defs>
       <use xlink:href="#DejaVuSans-30"/>
       <use xlink:href="#DejaVuSans-34" x="63.623047"/>
       <use xlink:href="#DejaVuSans-2e" x="127.246094"/>
       <use xlink:href="#DejaVuSans-30" x="159.033203"/>
       <use xlink:href="#DejaVuSans-35" x="222.65625"/>
       <use xlink:href="#DejaVuSans-2e" x="286.279297"/>
       <use xlink:href="#DejaVuSans-32" x="318.066406"/>
       <use xlink:href="#DejaVuSans-30" x="381.689453"/>
       <use xlink:href="#DejaVuSans-32" x="445.3125"/>
       <use xlink:href="#DejaVuSans-30" x="508.935547"/>
      </g>
     </g>
    </g>
    <g id="xtick_3">
     <g id="line2d_5">
      <path d="M 130.610939 276.48 
L 130.610939 41.472 
" clip-path="url(#pfedf30050c)" style="fill: none; stroke-dasharray: 2.96,1.28; stroke-dashoffset: 0; stroke: #808080; stroke-width: 0.8"/>
     </g>
     <g id="line2d_6">
      <g>
       <use xlink:href="#m307f9ade29" x="130.610939" y="276.48" style="stroke: #000000; stroke-width: 0.8"/>
      </g>
     </g>
     <g id="text_3">
      <!-- 19.08.2020 -->
      <g transform="translate(79.985728 318.688565) rotate(-30) scale(0.1 -0.1)">
       <defs>
        <path id="DejaVuSans-39" d="M 703 97 
L 703 672 
Q 941 559 1184 500 
Q 1428 441 1663 441 
Q 2288 441 2617 861 
Q 2947 1281 2994 2138 
Q 2813 1869 2534 1725 
Q 2256 1581 1919 1581 
Q 1219 1581 811 2004 
Q 403 2428 403 3163 
Q 403 3881 828 4315 
Q 1253 4750 1959 4750 
Q 2769 4750 3195 4129 
Q 3622 3509 3622 2328 
Q 3622 1225 3098 567 
Q 2575 -91 1691 -91 
Q 1453 -91 1209 -44 
Q 966 3 703 97 
z
M 1959 2075 
Q 2384 2075 2632 2365 
Q 2881 2656 2881 3163 
Q 2881 3666 2632 3958 
Q 2384 4250 1959 4250 
Q 1534 4250 1286 3958 
Q 1038 3666 1038 3163 
Q 1038 2656 1286 2365 
Q 1534 2075 1959 2075 
z
" transform="scale(0.015625)"/>
       </defs>
       <use xlink:href="#DejaVuSans-31"/>
       <use xlink:href="#DejaVuSans-39" x="63.623047"/>
       <use xlink:href="#DejaVuSans-2e" x="127.246094"/>
       <use xlink:href="#DejaVuSans-30" x="159.033203"/>
       <use xlink:href="#DejaVuSans-38" x="222.65625"/>
       <use xlink:href="#DejaVuSans-2e" x="286.279297"/>
       <use xlink:href="#DejaVuSans-32" x="318.066406"/>
       <use xlink:href="#DejaVuSans-30" x="381.689453"/>
       <use xlink:href="#DejaVuSans-32" x="445.3125"/>
       <use xlink:href="#DejaVuSans-30" x="508.935547"/>
      </g>
     </g>
    </g>
    <g id="xtick_4">
     <g id="line2d_7">
      <path d="M 166.49734 276.48 
L 166.49734 41.472 
" clip-path="url(#pfedf30050c)" style="fill: none; stroke-dasharray: 2.96,1.28; stroke-dashoffset: 0; stroke: #808080; stroke-width: 0.8"/>
     </g>
     <g id="line2d_8">
      <g>
       <use xlink:href="#m307f9ade29" x="166.49734" y="276.48" style="stroke: #000000; stroke-width: 0.8"/>
      </g>
     </g>
     <g id="text_4">
      <!-- 04.12.2020 -->
      <g transform="translate(115.87213 318.688565) rotate(-30) scale(0.1 -0.1)">
       <use xlink:href="#DejaVuSans-30"/>
       <use xlink:href="#DejaVuSans-34" x="63.623047"/>
       <use xlink:href="#DejaVuSans-2e" x="127.246094"/>
       <use xlink:href="#DejaVuSans-31" x="159.033203"/>
       <use xlink:href="#DejaVuSans-32" x="222.65625"/>
       <use xlink:href="#DejaVuSans-2e" x="286.279297"/>
       <use xlink:href="#DejaVuSans-32" x="318.066406"/>
       <use xlink:href="#DejaVuSans-30" x="381.689453"/>
       <use xlink:href="#DejaVuSans-32" x="445.3125"/>
       <use xlink:href="#DejaVuSans-30" x="508.935547"/>
      </g>
     </g>
    </g>
    <g id="xtick_5">
     <g id="line2d_9">
      <path d="M 202.383742 276.48 
L 202.383742 41.472 
" clip-path="url(#pfedf30050c)" style="fill: none; stroke-dasharray: 2.96,1.28; stroke-dashoffset: 0; stroke: #808080; stroke-width: 0.8"/>
     </g>
     <g id="line2d_10">
      <g>
       <use xlink:href="#m307f9ade29" x="202.383742" y="276.48" style="stroke: #000000; stroke-width: 0.8"/>
      </g>
     </g>
     <g id="text_5">
      <!-- 21.03.2021 -->
      <g transform="translate(151.758531 318.688565) rotate(-30) scale(0.1 -0.1)">
       <defs>
        <path id="DejaVuSans-33" d="M 2597 2516 
Q 3050 2419 3304 2112 
Q 3559 1806 3559 1356 
Q 3559 666 3084 287 
Q 2609 -91 1734 -91 
Q 1441 -91 1130 -33 
Q 819 25 488 141 
L 488 750 
Q 750 597 1062 519 
Q 1375 441 1716 441 
Q 2309 441 2620 675 
Q 2931 909 2931 1356 
Q 2931 1769 2642 2001 
Q 2353 2234 1838 2234 
L 1294 2234 
L 1294 2753 
L 1863 2753 
Q 2328 2753 2575 2939 
Q 2822 3125 2822 3475 
Q 2822 3834 2567 4026 
Q 2313 4219 1838 4219 
Q 1578 4219 1281 4162 
Q 984 4106 628 3988 
L 628 4550 
Q 988 4650 1302 4700 
Q 1616 4750 1894 4750 
Q 2613 4750 3031 4423 
Q 3450 4097 3450 3541 
Q 3450 3153 3228 2886 
Q 3006 2619 2597 2516 
z
" transform="scale(0.015625)"/>
       </defs>
       <use xlink:href="#DejaVuSans-32"/>
       <use xlink:href="#DejaVuSans-31" x="63.623047"/>
       <use xlink:href="#DejaVuSans-2e" x="127.246094"/>
       <use xlink:href="#DejaVuSans-30" x="159.033203"/>
       <use xlink:href="#DejaVuSans-33" x="222.65625"/>
       <use xlink:href="#DejaVuSans-2e" x="286.279297"/>
       <use xlink:href="#DejaVuSans-32" x="318.066406"/>
       <use xlink:href="#DejaVuSans-30" x="381.689453"/>
       <use xlink:href="#DejaVuSans-32" x="445.3125"/>
       <use xlink:href="#DejaVuSans-31" x="508.935547"/>
      </g>
     </g>
    </g>
    <g id="xtick_6">
     <g id="line2d_11">
      <path d="M 238.270143 276.48 
L 238.270143 41.472 
" clip-path="url(#pfedf30050c)" style="fill: none; stroke-dasharray: 2.96,1.28; stroke-dashoffset: 0; stroke: #808080; stroke-width: 0.8"/>
     </g>
     <g id="line2d_12">
      <g>
       <use xlink:href="#m307f9ade29" x="238.270143" y="276.48" style="stroke: #000000; stroke-width: 0.8"/>
      </g>
     </g>
     <g id="text_6">
      <!-- 06.07.2021 -->
      <g transform="translate(187.644932 318.688565) rotate(-30) scale(0.1 -0.1)">
       <defs>
        <path id="DejaVuSans-36" d="M 2113 2584 
Q 1688 2584 1439 2293 
Q 1191 2003 1191 1497 
Q 1191 994 1439 701 
Q 1688 409 2113 409 
Q 2538 409 2786 701 
Q 3034 994 3034 1497 
Q 3034 2003 2786 2293 
Q 2538 2584 2113 2584 
z
M 3366 4563 
L 3366 3988 
Q 3128 4100 2886 4159 
Q 2644 4219 2406 4219 
Q 1781 4219 1451 3797 
Q 1122 3375 1075 2522 
Q 1259 2794 1537 2939 
Q 1816 3084 2150 3084 
Q 2853 3084 3261 2657 
Q 3669 2231 3669 1497 
Q 3669 778 3244 343 
Q 2819 -91 2113 -91 
Q 1303 -91 875 529 
Q 447 1150 447 2328 
Q 447 3434 972 4092 
Q 1497 4750 2381 4750 
Q 2619 4750 2861 4703 
Q 3103 4656 3366 4563 
z
" transform="scale(0.015625)"/>
        <path id="DejaVuSans-37" d="M 525 4666 
L 3525 4666 
L 3525 4397 
L 1831 0 
L 1172 0 
L 2766 4134 
L 525 4134 
L 525 4666 
z
" transform="scale(0.015625)"/>
       </defs>
       <use xlink:href="#DejaVuSans-30"/>
       <use xlink:href="#DejaVuSans-36" x="63.623047"/>
       <use xlink:href="#DejaVuSans-2e" x="127.246094"/>
       <use xlink:href="#DejaVuSans-30" x="159.033203"/>
       <use xlink:href="#DejaVuSans-37" x="222.65625"/>
       <use xlink:href="#DejaVuSans-2e" x="286.279297"/>
       <use xlink:href="#DejaVuSans-32" x="318.066406"/>
       <use xlink:href="#DejaVuSans-30" x="381.689453"/>
       <use xlink:href="#DejaVuSans-32" x="445.3125"/>
       <use xlink:href="#DejaVuSans-31" x="508.935547"/>
      </g>
     </g>
    </g>
    <g id="xtick_7">
     <g id="line2d_13">
      <path d="M 274.156544 276.48 
L 274.156544 41.472 
" clip-path="url(#pfedf30050c)" style="fill: none; stroke-dasharray: 2.96,1.28; stroke-dashoffset: 0; stroke: #808080; stroke-width: 0.8"/>
     </g>
     <g id="line2d_14">
      <g>
       <use xlink:href="#m307f9ade29" x="274.156544" y="276.48" style="stroke: #000000; stroke-width: 0.8"/>
      </g>
     </g>
     <g id="text_7">
      <!-- 21.10.2021 -->
      <g transform="translate(223.531333 318.688565) rotate(-30) scale(0.1 -0.1)">
       <use xlink:href="#DejaVuSans-32"/>
       <use xlink:href="#DejaVuSans-31" x="63.623047"/>
       <use xlink:href="#DejaVuSans-2e" x="127.246094"/>
       <use xlink:href="#DejaVuSans-31" x="159.033203"/>
       <use xlink:href="#DejaVuSans-30" x="222.65625"/>
       <use xlink:href="#DejaVuSans-2e" x="286.279297"/>
       <use xlink:href="#DejaVuSans-32" x="318.066406"/>
       <use xlink:href="#DejaVuSans-30" x="381.689453"/>
       <use xlink:href="#DejaVuSans-32" x="445.3125"/>
       <use xlink:href="#DejaVuSans-31" x="508.935547"/>
      </g>
     </g>
    </g>
    <g id="xtick_8">
     <g id="line2d_15">
      <path d="M 310.042945 276.48 
L 310.042945 41.472 
" clip-path="url(#pfedf30050c)" style="fill: none; stroke-dasharray: 2.96,1.28; stroke-dashoffset: 0; stroke: #808080; stroke-width: 0.8"/>
     </g>
     <g id="line2d_16">
      <g>
       <use xlink:href="#m307f9ade29" x="310.042945" y="276.48" style="stroke: #000000; stroke-width: 0.8"/>
      </g>
     </g>
     <g id="text_8">
      <!-- 05.02.2022 -->
      <g transform="translate(259.417734 318.688565) rotate(-30) scale(0.1 -0.1)">
       <use xlink:href="#DejaVuSans-30"/>
       <use xlink:href="#DejaVuSans-35" x="63.623047"/>
       <use xlink:href="#DejaVuSans-2e" x="127.246094"/>
       <use xlink:href="#DejaVuSans-30" x="159.033203"/>
       <use xlink:href="#DejaVuSans-32" x="222.65625"/>
       <use xlink:href="#DejaVuSans-2e" x="286.279297"/>
       <use xlink:href="#DejaVuSans-32" x="318.066406"/>
       <use xlink:href="#DejaVuSans-30" x="381.689453"/>
       <use xlink:href="#DejaVuSans-32" x="445.3125"/>
       <use xlink:href="#DejaVuSans-32" x="508.935547"/>
      </g>
     </g>
    </g>
    <g id="xtick_9">
     <g id="line2d_17">
      <path d="M 345.929346 276.48 
L 345.929346 41.472 
" clip-path="url(#pfedf30050c)" style="fill: none; stroke-dasharray: 2.96,1.28; stroke-dashoffset: 0; stroke: #808080; stroke-width: 0.8"/>
     </g>
     <g id="line2d_18">
      <g>
       <use xlink:href="#m307f9ade29" x="345.929346" y="276.48" style="stroke: #000000; stroke-width: 0.8"/>
      </g>
     </g>
     <g id="text_9">
      <!-- 23.05.2022 -->
      <g transform="translate(295.304136 318.688565) rotate(-30) scale(0.1 -0.1)">
       <use xlink:href="#DejaVuSans-32"/>
       <use xlink:href="#DejaVuSans-33" x="63.623047"/>
       <use xlink:href="#DejaVuSans-2e" x="127.246094"/>
       <use xlink:href="#DejaVuSans-30" x="159.033203"/>
       <use xlink:href="#DejaVuSans-35" x="222.65625"/>
       <use xlink:href="#DejaVuSans-2e" x="286.279297"/>
       <use xlink:href="#DejaVuSans-32" x="318.066406"/>
       <use xlink:href="#DejaVuSans-30" x="381.689453"/>
       <use xlink:href="#DejaVuSans-32" x="445.3125"/>
       <use xlink:href="#DejaVuSans-32" x="508.935547"/>
      </g>
     </g>
    </g>
    <g id="xtick_10">
     <g id="line2d_19">
      <path d="M 381.815748 276.48 
L 381.815748 41.472 
" clip-path="url(#pfedf30050c)" style="fill: none; stroke-dasharray: 2.96,1.28; stroke-dashoffset: 0; stroke: #808080; stroke-width: 0.8"/>
     </g>
     <g id="line2d_20">
      <g>
       <use xlink:href="#m307f9ade29" x="381.815748" y="276.48" style="stroke: #000000; stroke-width: 0.8"/>
      </g>
     </g>
     <g id="text_10">
      <!-- 07.09.2022 -->
      <g transform="translate(331.190537 318.688565) rotate(-30) scale(0.1 -0.1)">
       <use xlink:href="#DejaVuSans-30"/>
       <use xlink:href="#DejaVuSans-37" x="63.623047"/>
       <use xlink:href="#DejaVuSans-2e" x="127.246094"/>
       <use xlink:href="#DejaVuSans-30" x="159.033203"/>
       <use xlink:href="#DejaVuSans-39" x="222.65625"/>
       <use xlink:href="#DejaVuSans-2e" x="286.279297"/>
       <use xlink:href="#DejaVuSans-32" x="318.066406"/>
       <use xlink:href="#DejaVuSans-30" x="381.689453"/>
       <use xlink:href="#DejaVuSans-32" x="445.3125"/>
       <use xlink:href="#DejaVuSans-32" x="508.935547"/>
      </g>
     </g>
    </g>
   </g>
   <g id="matplotlib.axis_2">
    <g id="ytick_1">
     <g id="line2d_21">
      <path d="M 57.6 265.823164 
L 414.72 265.823164 
" clip-path="url(#pfedf30050c)" style="fill: none; stroke-dasharray: 2.96,1.28; stroke-dashoffset: 0; stroke: #808080; stroke-width: 0.8"/>
     </g>
     <g id="line2d_22">
      <defs>
       <path id="m37a8a21ac0" d="M 0 0 
L -3.5 0 
" style="stroke: #000000; stroke-width: 0.8"/>
      </defs>
      <g>
       <use xlink:href="#m37a8a21ac0" x="57.6" y="265.823164" style="stroke: #000000; stroke-width: 0.8"/>
      </g>
     </g>
     <g id="text_11">
      <!-- 0 -->
      <g transform="translate(44.2375 269.622383) scale(0.1 -0.1)">
       <use xlink:href="#DejaVuSans-30"/>
      </g>
     </g>
    </g>
    <g id="ytick_2">
     <g id="line2d_23">
      <path d="M 57.6 236.676485 
L 414.72 236.676485 
" clip-path="url(#pfedf30050c)" style="fill: none; stroke-dasharray: 2.96,1.28; stroke-dashoffset: 0; stroke: #808080; stroke-width: 0.8"/>
     </g>
     <g id="line2d_24">
      <g>
       <use xlink:href="#m37a8a21ac0" x="57.6" y="236.676485" style="stroke: #000000; stroke-width: 0.8"/>
      </g>
     </g>
     <g id="text_12">
      <!-- 250 -->
      <g transform="translate(31.5125 240.475703) scale(0.1 -0.1)">
       <use xlink:href="#DejaVuSans-32"/>
       <use xlink:href="#DejaVuSans-35" x="63.623047"/>
       <use xlink:href="#DejaVuSans-30" x="127.246094"/>
      </g>
     </g>
    </g>
    <g id="ytick_3">
     <g id="line2d_25">
      <path d="M 57.6 207.529805 
L 414.72 207.529805 
" clip-path="url(#pfedf30050c)" style="fill: none; stroke-dasharray: 2.96,1.28; stroke-dashoffset: 0; stroke: #808080; stroke-width: 0.8"/>
     </g>
     <g id="line2d_26">
      <g>
       <use xlink:href="#m37a8a21ac0" x="57.6" y="207.529805" style="stroke: #000000; stroke-width: 0.8"/>
      </g>
     </g>
     <g id="text_13">
      <!-- 500 -->
      <g transform="translate(31.5125 211.329024) scale(0.1 -0.1)">
       <use xlink:href="#DejaVuSans-35"/>
       <use xlink:href="#DejaVuSans-30" x="63.623047"/>
       <use xlink:href="#DejaVuSans-30" x="127.246094"/>
      </g>
     </g>
    </g>
    <g id="ytick_4">
     <g id="line2d_27">
      <path d="M 57.6 178.383125 
L 414.72 178.383125 
" clip-path="url(#pfedf30050c)" style="fill: none; stroke-dasharray: 2.96,1.28; stroke-dashoffset: 0; stroke: #808080; stroke-width: 0.8"/>
     </g>
     <g id="line2d_28">
      <g>
       <use xlink:href="#m37a8a21ac0" x="57.6" y="178.383125" style="stroke: #000000; stroke-width: 0.8"/>
      </g>
     </g>
     <g id="text_14">
      <!-- 750 -->
      <g transform="translate(31.5125 182.182344) scale(0.1 -0.1)">
       <use xlink:href="#DejaVuSans-37"/>
       <use xlink:href="#DejaVuSans-35" x="63.623047"/>
       <use xlink:href="#DejaVuSans-30" x="127.246094"/>
      </g>
     </g>
    </g>
    <g id="ytick_5">
     <g id="line2d_29">
      <path d="M 57.6 149.236446 
L 414.72 149.236446 
" clip-path="url(#pfedf30050c)" style="fill: none; stroke-dasharray: 2.96,1.28; stroke-dashoffset: 0; stroke: #808080; stroke-width: 0.8"/>
     </g>
     <g id="line2d_30">
      <g>
       <use xlink:href="#m37a8a21ac0" x="57.6" y="149.236446" style="stroke: #000000; stroke-width: 0.8"/>
      </g>
     </g>
     <g id="text_15">
      <!-- 1000 -->
      <g transform="translate(25.15 153.035664) scale(0.1 -0.1)">
       <use xlink:href="#DejaVuSans-31"/>
       <use xlink:href="#DejaVuSans-30" x="63.623047"/>
       <use xlink:href="#DejaVuSans-30" x="127.246094"/>
       <use xlink:href="#DejaVuSans-30" x="190.869141"/>
      </g>
     </g>
    </g>
    <g id="ytick_6">
     <g id="line2d_31">
      <path d="M 57.6 120.089766 
L 414.72 120.089766 
" clip-path="url(#pfedf30050c)" style="fill: none; stroke-dasharray: 2.96,1.28; stroke-dashoffset: 0; stroke: #808080; stroke-width: 0.8"/>
     </g>
     <g id="line2d_32">
      <g>
       <use xlink:href="#m37a8a21ac0" x="57.6" y="120.089766" style="stroke: #000000; stroke-width: 0.8"/>
      </g>
     </g>
     <g id="text_16">
      <!-- 1250 -->
      <g transform="translate(25.15 123.888985) scale(0.1 -0.1)">
       <use xlink:href="#DejaVuSans-31"/>
       <use xlink:href="#DejaVuSans-32" x="63.623047"/>
       <use xlink:href="#DejaVuSans-35" x="127.246094"/>
       <use xlink:href="#DejaVuSans-30" x="190.869141"/>
      </g>
     </g>
    </g>
    <g id="ytick_7">
     <g id="line2d_33">
      <path d="M 57.6 90.943086 
L 414.72 90.943086 
" clip-path="url(#pfedf30050c)" style="fill: none; stroke-dasharray: 2.96,1.28; stroke-dashoffset: 0; stroke: #808080; stroke-width: 0.8"/>
     </g>
     <g id="line2d_34">
      <g>
       <use xlink:href="#m37a8a21ac0" x="57.6" y="90.943086" style="stroke: #000000; stroke-width: 0.8"/>
      </g>
     </g>
     <g id="text_17">
      <!-- 1500 -->
      <g transform="translate(25.15 94.742305) scale(0.1 -0.1)">
       <use xlink:href="#DejaVuSans-31"/>
       <use xlink:href="#DejaVuSans-35" x="63.623047"/>
       <use xlink:href="#DejaVuSans-30" x="127.246094"/>
       <use xlink:href="#DejaVuSans-30" x="190.869141"/>
      </g>
     </g>
    </g>
    <g id="ytick_8">
     <g id="line2d_35">
      <path d="M 57.6 61.796407 
L 414.72 61.796407 
" clip-path="url(#pfedf30050c)" style="fill: none; stroke-dasharray: 2.96,1.28; stroke-dashoffset: 0; stroke: #808080; stroke-width: 0.8"/>
     </g>
     <g id="line2d_36">
      <g>
       <use xlink:href="#m37a8a21ac0" x="57.6" y="61.796407" style="stroke: #000000; stroke-width: 0.8"/>
      </g>
     </g>
     <g id="text_18">
      <!-- 1750 -->
      <g transform="translate(25.15 65.595625) scale(0.1 -0.1)">
       <use xlink:href="#DejaVuSans-31"/>
       <use xlink:href="#DejaVuSans-37" x="63.623047"/>
       <use xlink:href="#DejaVuSans-35" x="127.246094"/>
       <use xlink:href="#DejaVuSans-30" x="190.869141"/>
      </g>
     </g>
    </g>
    <g id="text_19">
     <!-- Inzidenz pro 7 Tage pro 100.000 Einwohner -->
     <g transform="translate(19.070312 267.301) rotate(-90) scale(0.1 -0.1)">
      <defs>
       <path id="DejaVuSans-49" d="M 628 4666 
L 1259 4666 
L 1259 0 
L 628 0 
L 628 4666 
z
" transform="scale(0.015625)"/>
       <path id="DejaVuSans-6e" d="M 3513 2113 
L 3513 0 
L 2938 0 
L 2938 2094 
Q 2938 2591 2744 2837 
Q 2550 3084 2163 3084 
Q 1697 3084 1428 2787 
Q 1159 2491 1159 1978 
L 1159 0 
L 581 0 
L 581 3500 
L 1159 3500 
L 1159 2956 
Q 1366 3272 1645 3428 
Q 1925 3584 2291 3584 
Q 2894 3584 3203 3211 
Q 3513 2838 3513 2113 
z
" transform="scale(0.015625)"/>
       <path id="DejaVuSans-7a" d="M 353 3500 
L 3084 3500 
L 3084 2975 
L 922 459 
L 3084 459 
L 3084 0 
L 275 0 
L 275 525 
L 2438 3041 
L 353 3041 
L 353 3500 
z
" transform="scale(0.015625)"/>
       <path id="DejaVuSans-69" d="M 603 3500 
L 1178 3500 
L 1178 0 
L 603 0 
L 603 3500 
z
M 603 4863 
L 1178 4863 
L 1178 4134 
L 603 4134 
L 603 4863 
z
" transform="scale(0.015625)"/>
       <path id="DejaVuSans-64" d="M 2906 2969 
L 2906 4863 
L 3481 4863 
L 3481 0 
L 2906 0 
L 2906 525 
Q 2725 213 2448 61 
Q 2172 -91 1784 -91 
Q 1150 -91 751 415 
Q 353 922 353 1747 
Q 353 2572 751 3078 
Q 1150 3584 1784 3584 
Q 2172 3584 2448 3432 
Q 2725 3281 2906 2969 
z
M 947 1747 
Q 947 1113 1208 752 
Q 1469 391 1925 391 
Q 2381 391 2643 752 
Q 2906 1113 2906 1747 
Q 2906 2381 2643 2742 
Q 2381 3103 1925 3103 
Q 1469 3103 1208 2742 
Q 947 2381 947 1747 
z
" transform="scale(0.015625)"/>
       <path id="DejaVuSans-65" d="M 3597 1894 
L 3597 1613 
L 953 1613 
Q 991 1019 1311 708 
Q 1631 397 2203 397 
Q 2534 397 2845 478 
Q 3156 559 3463 722 
L 3463 178 
Q 3153 47 2828 -22 
Q 2503 -91 2169 -91 
Q 1331 -91 842 396 
Q 353 884 353 1716 
Q 353 2575 817 3079 
Q 1281 3584 2069 3584 
Q 2775 3584 3186 3129 
Q 3597 2675 3597 1894 
z
M 3022 2063 
Q 3016 2534 2758 2815 
Q 2500 3097 2075 3097 
Q 1594 3097 1305 2825 
Q 1016 2553 972 2059 
L 3022 2063 
z
" transform="scale(0.015625)"/>
       <path id="DejaVuSans-20" transform="scale(0.015625)"/>
       <path id="DejaVuSans-70" d="M 1159 525 
L 1159 -1331 
L 581 -1331 
L 581 3500 
L 1159 3500 
L 1159 2969 
Q 1341 3281 1617 3432 
Q 1894 3584 2278 3584 
Q 2916 3584 3314 3078 
Q 3713 2572 3713 1747 
Q 3713 922 3314 415 
Q 2916 -91 2278 -91 
Q 1894 -91 1617 61 
Q 1341 213 1159 525 
z
M 3116 1747 
Q 3116 2381 2855 2742 
Q 2594 3103 2138 3103 
Q 1681 3103 1420 2742 
Q 1159 2381 1159 1747 
Q 1159 1113 1420 752 
Q 1681 391 2138 391 
Q 2594 391 2855 752 
Q 3116 1113 3116 1747 
z
" transform="scale(0.015625)"/>
       <path id="DejaVuSans-72" d="M 2631 2963 
Q 2534 3019 2420 3045 
Q 2306 3072 2169 3072 
Q 1681 3072 1420 2755 
Q 1159 2438 1159 1844 
L 1159 0 
L 581 0 
L 581 3500 
L 1159 3500 
L 1159 2956 
Q 1341 3275 1631 3429 
Q 1922 3584 2338 3584 
Q 2397 3584 2469 3576 
Q 2541 3569 2628 3553 
L 2631 2963 
z
" transform="scale(0.015625)"/>
       <path id="DejaVuSans-6f" d="M 1959 3097 
Q 1497 3097 1228 2736 
Q 959 2375 959 1747 
Q 959 1119 1226 758 
Q 1494 397 1959 397 
Q 2419 397 2687 759 
Q 2956 1122 2956 1747 
Q 2956 2369 2687 2733 
Q 2419 3097 1959 3097 
z
M 1959 3584 
Q 2709 3584 3137 3096 
Q 3566 2609 3566 1747 
Q 3566 888 3137 398 
Q 2709 -91 1959 -91 
Q 1206 -91 779 398 
Q 353 888 353 1747 
Q 353 2609 779 3096 
Q 1206 3584 1959 3584 
z
" transform="scale(0.015625)"/>
       <path id="DejaVuSans-54" d="M -19 4666 
L 3928 4666 
L 3928 4134 
L 2272 4134 
L 2272 0 
L 1638 0 
L 1638 4134 
L -19 4134 
L -19 4666 
z
" transform="scale(0.015625)"/>
       <path id="DejaVuSans-61" d="M 2194 1759 
Q 1497 1759 1228 1600 
Q 959 1441 959 1056 
Q 959 750 1161 570 
Q 1363 391 1709 391 
Q 2188 391 2477 730 
Q 2766 1069 2766 1631 
L 2766 1759 
L 2194 1759 
z
M 3341 1997 
L 3341 0 
L 2766 0 
L 2766 531 
Q 2569 213 2275 61 
Q 1981 -91 1556 -91 
Q 1019 -91 701 211 
Q 384 513 384 1019 
Q 384 1609 779 1909 
Q 1175 2209 1959 2209 
L 2766 2209 
L 2766 2266 
Q 2766 2663 2505 2880 
Q 2244 3097 1772 3097 
Q 1472 3097 1187 3025 
Q 903 2953 641 2809 
L 641 3341 
Q 956 3463 1253 3523 
Q 1550 3584 1831 3584 
Q 2591 3584 2966 3190 
Q 3341 2797 3341 1997 
z
" transform="scale(0.015625)"/>
       <path id="DejaVuSans-67" d="M 2906 1791 
Q 2906 2416 2648 2759 
Q 2391 3103 1925 3103 
Q 1463 3103 1205 2759 
Q 947 2416 947 1791 
Q 947 1169 1205 825 
Q 1463 481 1925 481 
Q 2391 481 2648 825 
Q 2906 1169 2906 1791 
z
M 3481 434 
Q 3481 -459 3084 -895 
Q 2688 -1331 1869 -1331 
Q 1566 -1331 1297 -1286 
Q 1028 -1241 775 -1147 
L 775 -588 
Q 1028 -725 1275 -790 
Q 1522 -856 1778 -856 
Q 2344 -856 2625 -561 
Q 2906 -266 2906 331 
L 2906 616 
Q 2728 306 2450 153 
Q 2172 0 1784 0 
Q 1141 0 747 490 
Q 353 981 353 1791 
Q 353 2603 747 3093 
Q 1141 3584 1784 3584 
Q 2172 3584 2450 3431 
Q 2728 3278 2906 2969 
L 2906 3500 
L 3481 3500 
L 3481 434 
z
" transform="scale(0.015625)"/>
       <path id="DejaVuSans-45" d="M 628 4666 
L 3578 4666 
L 3578 4134 
L 1259 4134 
L 1259 2753 
L 3481 2753 
L 3481 2222 
L 1259 2222 
L 1259 531 
L 3634 531 
L 3634 0 
L 628 0 
L 628 4666 
z
" transform="scale(0.015625)"/>
       <path id="DejaVuSans-77" d="M 269 3500 
L 844 3500 
L 1563 769 
L 2278 3500 
L 2956 3500 
L 3675 769 
L 4391 3500 
L 4966 3500 
L 4050 0 
L 3372 0 
L 2619 2869 
L 1863 0 
L 1184 0 
L 269 3500 
z
" transform="scale(0.015625)"/>
       <path id="DejaVuSans-68" d="M 3513 2113 
L 3513 0 
L 2938 0 
L 2938 2094 
Q 2938 2591 2744 2837 
Q 2550 3084 2163 3084 
Q 1697 3084 1428 2787 
Q 1159 2491 1159 1978 
L 1159 0 
L 581 0 
L 581 4863 
L 1159 4863 
L 1159 2956 
Q 1366 3272 1645 3428 
Q 1925 3584 2291 3584 
Q 2894 3584 3203 3211 
Q 3513 2838 3513 2113 
z
" transform="scale(0.015625)"/>
      </defs>
      <use xlink:href="#DejaVuSans-49"/>
      <use xlink:href="#DejaVuSans-6e" x="29.492188"/>
      <use xlink:href="#DejaVuSans-7a" x="92.871094"/>
      <use xlink:href="#DejaVuSans-69" x="145.361328"/>
      <use xlink:href="#DejaVuSans-64" x="173.144531"/>
      <use xlink:href="#DejaVuSans-65" x="236.621094"/>
      <use xlink:href="#DejaVuSans-6e" x="298.144531"/>
      <use xlink:href="#DejaVuSans-7a" x="361.523438"/>
      <use xlink:href="#DejaVuSans-20" x="414.013672"/>
      <use xlink:href="#DejaVuSans-70" x="445.800781"/>
      <use xlink:href="#DejaVuSans-72" x="509.277344"/>
      <use xlink:href="#DejaVuSans-6f" x="548.140625"/>
      <use xlink:href="#DejaVuSans-20" x="609.322266"/>
      <use xlink:href="#DejaVuSans-37" x="641.109375"/>
      <use xlink:href="#DejaVuSans-20" x="704.732422"/>
      <use xlink:href="#DejaVuSans-54" x="736.519531"/>
      <use xlink:href="#DejaVuSans-61" x="781.103516"/>
      <use xlink:href="#DejaVuSans-67" x="842.382812"/>
      <use xlink:href="#DejaVuSans-65" x="905.859375"/>
      <use xlink:href="#DejaVuSans-20" x="967.382812"/>
      <use xlink:href="#DejaVuSans-70" x="999.169922"/>
      <use xlink:href="#DejaVuSans-72" x="1062.646484"/>
      <use xlink:href="#DejaVuSans-6f" x="1101.509766"/>
      <use xlink:href="#DejaVuSans-20" x="1162.691406"/>
      <use xlink:href="#DejaVuSans-31" x="1194.478516"/>
      <use xlink:href="#DejaVuSans-30" x="1258.101562"/>
      <use xlink:href="#DejaVuSans-30" x="1321.724609"/>
      <use xlink:href="#DejaVuSans-2e" x="1385.347656"/>
      <use xlink:href="#DejaVuSans-30" x="1417.134766"/>
      <use xlink:href="#DejaVuSans-30" x="1480.757812"/>
      <use xlink:href="#DejaVuSans-30" x="1544.380859"/>
      <use xlink:href="#DejaVuSans-20" x="1608.003906"/>
      <use xlink:href="#DejaVuSans-45" x="1639.791016"/>
      <use xlink:href="#DejaVuSans-69" x="1702.974609"/>
      <use xlink:href="#DejaVuSans-6e" x="1730.757812"/>
      <use xlink:href="#DejaVuSans-77" x="1794.136719"/>
      <use xlink:href="#DejaVuSans-6f" x="1875.923828"/>
      <use xlink:href="#DejaVuSans-68" x="1937.105469"/>
      <use xlink:href="#DejaVuSans-6e" x="2000.484375"/>
      <use xlink:href="#DejaVuSans-65" x="2063.863281"/>
      <use xlink:href="#DejaVuSans-72" x="2125.386719"/>
     </g>
    </g>
   </g>
   <g id="line2d_37">
    <path d="M 73.832727 265.797818 
L 76.180436 265.797818 
L 77.521983 265.189508 
L 77.85737 264.961392 
L 78.192757 264.961392 
L 78.863531 263.922195 
L 79.869692 263.009729 
L 80.205079 263.111114 
L 80.540466 263.085768 
L 80.875853 263.263192 
L 81.21124 263.567347 
L 81.882014 263.516655 
L 82.552787 263.694078 
L 83.223561 263.795464 
L 83.558948 263.846156 
L 84.229722 264.277043 
L 84.565109 264.353081 
L 84.900496 264.22635 
L 85.235883 264.251696 
L 85.57127 264.099619 
L 86.242044 263.592693 
L 86.577431 263.440616 
L 86.912817 263.719425 
L 87.248204 263.465962 
L 87.583591 263.035076 
L 88.925139 264.175657 
L 89.260526 263.896849 
L 89.595913 264.251696 
L 89.9313 264.378428 
L 91.943621 264.302389 
L 92.279008 264.530505 
L 93.620556 264.707929 
L 93.955943 264.986738 
L 94.962104 264.986738 
L 95.968264 265.189508 
L 96.639038 265.113469 
L 98.65136 264.961392 
L 99.322134 265.113469 
L 99.992908 265.290893 
L 100.328295 265.392278 
L 100.663681 265.620394 
L 101.334455 265.519009 
L 102.005229 265.442971 
L 104.352938 265.493663 
L 105.023711 265.544356 
L 105.359098 265.519009 
L 106.029872 265.290893 
L 106.700646 265.214854 
L 107.37142 265.214854 
L 108.042194 265.316239 
L 110.389902 265.569702 
L 111.396063 265.493663 
L 112.066837 264.936045 
L 112.402224 263.770117 
L 112.737611 263.465962 
L 113.743772 263.187153 
L 114.079159 263.491308 
L 114.414545 263.61804 
L 114.749932 264.733275 
L 115.420706 264.63189 
L 115.756093 264.910699 
L 117.097641 264.83466 
L 117.433028 265.088123 
L 118.103802 265.189508 
L 118.439189 265.164162 
L 119.109962 265.341585 
L 119.780736 265.2402 
L 120.45151 265.341585 
L 121.122284 265.366932 
L 122.799219 265.214854 
L 123.134606 265.189508 
L 123.469992 264.986738 
L 123.805379 264.555851 
L 124.81154 264.150311 
L 125.482314 263.795464 
L 126.153088 263.922195 
L 126.488475 263.567347 
L 127.159249 263.465962 
L 127.830023 263.313885 
L 128.165409 263.2125 
L 128.836183 264.074272 
L 129.17157 263.972887 
L 129.506957 264.02358 
L 130.513118 264.733275 
L 131.183892 264.42912 
L 131.854666 264.733275 
L 132.190053 264.809314 
L 132.860826 264.454466 
L 133.5316 264.581198 
L 134.202374 264.910699 
L 135.879309 265.214854 
L 136.214696 265.03743 
L 137.89163 264.733275 
L 138.562404 264.986738 
L 138.897791 264.885353 
L 139.568565 265.03743 
L 139.903952 265.012084 
L 141.2455 264.277043 
L 142.587047 264.454466 
L 142.922434 264.606544 
L 143.257821 264.530505 
L 143.928595 264.657236 
L 144.599369 264.479813 
L 145.60553 264.277043 
L 145.940917 264.353081 
L 146.276304 263.896849 
L 146.61169 263.643386 
L 147.282464 263.440616 
L 147.617851 262.959037 
L 148.288625 262.52815 
L 149.630173 262.071918 
L 150.300947 259.61333 
L 150.636334 259.765408 
L 150.971721 260.246987 
L 151.307107 259.765408 
L 151.642494 258.624826 
L 151.977881 257.965823 
L 152.313268 258.447402 
L 152.648655 258.624826 
L 152.984042 258.295325 
L 153.319429 258.39671 
L 153.654816 258.650172 
L 153.990203 259.182444 
L 154.32559 258.016516 
L 154.660977 257.433552 
L 154.996364 256.445048 
L 155.331751 257.028012 
L 156.002524 253.150034 
L 156.337911 252.541724 
L 156.673298 251.451834 
L 157.008685 251.882721 
L 157.344072 252.719147 
L 157.679459 250.86887 
L 158.014846 251.857374 
L 158.350233 251.553219 
L 158.68562 250.133829 
L 159.021007 251.249064 
L 159.691781 249.626903 
L 160.027168 250.894217 
L 160.362554 251.629258 
L 160.697941 251.578566 
L 161.033328 251.147679 
L 161.368715 249.170671 
L 161.704102 247.979396 
L 162.039489 247.675241 
L 162.374876 248.182167 
L 162.710263 247.472471 
L 163.04565 245.799618 
L 163.716424 245.748926 
L 164.051811 245.216654 
L 164.722585 242.352526 
L 165.057971 242.251141 
L 165.393358 243.771917 
L 165.728745 244.177457 
L 166.064132 244.405574 
L 166.399519 243.341031 
L 166.734906 244.329535 
L 167.070293 244.329535 
L 167.40568 243.264992 
L 167.741067 244.811114 
L 168.076454 244.83646 
L 168.747228 245.495463 
L 169.082615 245.343385 
L 169.418002 244.278842 
L 169.753388 244.887153 
L 170.088775 245.089923 
L 170.424162 245.470117 
L 170.759549 245.089923 
L 171.094936 245.977042 
L 171.430323 244.760421 
L 171.76571 245.216654 
L 172.101097 245.115269 
L 172.436484 244.43092 
L 172.771871 244.000033 
L 173.107258 243.264992 
L 173.778032 250.590061 
L 174.113418 250.691446 
L 174.448805 250.944909 
L 175.119579 252.820532 
L 175.454966 252.76984 
L 175.790353 251.730643 
L 176.12574 252.085491 
L 176.796514 254.670809 
L 177.131901 254.214577 
L 177.467288 251.984106 
L 177.802675 253.961114 
L 178.473449 251.578566 
L 178.808835 250.767485 
L 179.144222 250.564715 
L 179.479609 251.249064 
L 179.814996 252.795186 
L 180.150383 253.17538 
L 180.48577 254.366654 
L 180.821157 254.315962 
L 181.156544 254.392001 
L 181.491931 254.163884 
L 181.827318 254.239923 
L 182.162705 254.670809 
L 182.498092 254.290616 
L 182.833479 254.214577 
L 183.168866 254.442693 
L 183.504252 254.341308 
L 183.839639 254.949618 
L 184.510413 255.633967 
L 184.8458 256.875934 
L 185.181187 256.825242 
L 185.516574 257.256128 
L 185.851961 256.977319 
L 186.187348 256.875934 
L 186.522735 257.002666 
L 186.858122 257.509591 
L 187.193509 257.509591 
L 187.528896 257.357513 
L 187.864282 257.534937 
L 188.199669 257.839092 
L 188.535056 257.889785 
L 188.870443 258.143247 
L 189.20583 259.182444 
L 189.541217 259.233137 
L 189.876604 259.714715 
L 190.211991 259.689369 
L 190.547378 260.373718 
L 191.218152 259.968178 
L 191.553539 259.385214 
L 191.888926 259.562638 
L 192.224313 259.587984 
L 192.559699 260.069563 
L 192.895086 259.942832 
L 193.230473 260.120256 
L 193.56586 260.018871 
L 193.901247 259.664023 
L 194.572021 259.486599 
L 194.907408 259.258483 
L 195.242795 259.61333 
L 195.578182 259.435907 
L 195.913569 259.587984 
L 196.584343 259.41056 
L 196.91973 259.309175 
L 197.255116 259.587984 
L 197.590503 259.20779 
L 197.92589 259.182444 
L 198.261277 259.00502 
L 198.596664 259.030366 
L 198.932051 258.903635 
L 199.267438 258.650172 
L 199.602825 258.117901 
L 199.938212 257.281474 
L 200.273599 257.205436 
L 200.608986 257.281474 
L 201.27976 255.836737 
L 201.615147 255.633967 
L 201.950533 254.721502 
L 202.28592 254.645463 
L 202.956694 253.885075 
L 203.292081 252.110837 
L 203.627468 251.375796 
L 204.298242 250.590061 
L 204.633629 251.122333 
L 205.304403 251.375796 
L 205.63979 252.744494 
L 206.310563 253.124688 
L 206.64595 254.594771 
L 207.316724 254.87358 
L 207.652111 255.203081 
L 207.987498 256.622472 
L 208.322885 256.622472 
L 208.993659 252.921917 
L 209.99982 250.590061 
L 210.335207 248.131474 
L 210.670594 248.35959 
L 211.00598 249.44948 
L 211.341367 249.677596 
L 212.012141 249.778981 
L 212.347528 249.626903 
L 213.018302 245.951696 
L 213.353689 245.470117 
L 213.689076 245.774272 
L 214.024463 244.912499 
L 214.35985 245.470117 
L 214.695237 245.470117 
L 215.366011 248.841169 
L 215.701397 249.272056 
L 216.036784 248.891862 
L 216.372171 250.007097 
L 216.707558 249.728289 
L 217.042945 250.159175 
L 217.378332 250.311253 
L 218.049106 252.921917 
L 218.384493 254.265269 
L 218.71988 254.620117 
L 219.055267 254.797541 
L 219.390654 254.746848 
L 219.726041 255.304466 
L 220.061427 255.608621 
L 221.067588 256.951973 
L 221.402975 257.129397 
L 221.738362 257.687015 
L 222.409136 259.841447 
L 222.744523 259.638677 
L 223.07991 259.765408 
L 224.086071 260.627181 
L 224.421458 261.590339 
L 225.092231 261.945186 
L 225.763005 262.350727 
L 226.098392 262.32538 
L 226.769166 261.970533 
L 227.104553 262.350727 
L 227.775327 263.41527 
L 228.110714 263.516655 
L 228.446101 263.744771 
L 229.116875 263.592693 
L 229.452261 263.82081 
L 230.793809 264.02358 
L 231.129196 264.150311 
L 231.464583 264.606544 
L 232.135357 264.885353 
L 232.806131 264.986738 
L 233.141518 264.986738 
L 233.476905 265.113469 
L 234.147678 265.164162 
L 234.483065 265.164162 
L 235.153839 265.366932 
L 237.166161 265.442971 
L 238.507708 265.341585 
L 238.843095 265.366932 
L 239.513869 265.189508 
L 240.184643 265.2402 
L 240.52003 265.113469 
L 240.855417 265.189508 
L 241.190804 265.062777 
L 241.526191 265.113469 
L 241.861578 264.961392 
L 242.196965 264.555851 
L 243.203125 263.947541 
L 243.538512 263.972887 
L 243.873899 263.770117 
L 245.215447 264.201004 
L 245.550834 263.871502 
L 246.221608 263.82081 
L 246.556995 263.440616 
L 248.569316 262.959037 
L 249.24009 263.364577 
L 249.910864 263.2125 
L 250.246251 262.756267 
L 250.581638 262.781613 
L 250.917025 262.629536 
L 251.587799 261.691724 
L 251.923186 261.793109 
L 252.593959 260.551142 
L 253.60012 256.749203 
L 253.935507 256.673164 
L 254.606281 256.115546 
L 254.941668 255.405851 
L 255.277055 255.532582 
L 255.612442 255.27912 
L 255.947829 256.394355 
L 256.283216 256.064854 
L 256.953989 256.445048 
L 257.289376 257.306821 
L 257.624763 256.29297 
L 257.96015 257.002666 
L 258.630924 256.90128 
L 258.966311 256.951973 
L 259.301698 257.154743 
L 259.637085 257.610976 
L 259.972472 258.903635 
L 260.307859 258.979674 
L 260.643246 259.638677 
L 260.978633 259.866793 
L 261.984793 259.385214 
L 262.32018 259.942832 
L 262.655567 260.120256 
L 262.990954 260.069563 
L 263.326341 260.196294 
L 263.661728 260.449757 
L 264.332502 261.336876 
L 265.67405 261.71707 
L 266.009437 261.71707 
L 266.344823 261.5143 
L 266.68021 261.742416 
L 267.015597 261.767763 
L 267.350984 261.387569 
L 268.021758 261.210145 
L 268.692532 261.362222 
L 269.027919 260.728566 
L 269.363306 260.50045 
L 269.698693 260.982029 
L 270.03408 261.10876 
L 271.04024 261.032721 
L 271.375627 261.91984 
L 271.711014 262.12261 
L 272.046401 262.12261 
L 272.717175 262.578843 
L 273.052562 262.52815 
L 273.387949 262.629536 
L 273.723336 262.300034 
L 274.058723 262.376073 
L 274.729497 261.387569 
L 275.064884 260.931336 
L 275.40027 260.753912 
L 275.735657 260.373718 
L 276.406431 258.39671 
L 277.077205 257.332167 
L 277.412592 257.636322 
L 277.747979 257.560283 
L 278.083366 257.712361 
L 278.418753 258.067208 
L 278.75414 257.458898 
L 279.424914 255.025657 
L 279.760301 253.37815 
L 280.431074 251.95876 
L 280.766461 249.753635 
L 281.101848 248.460975 
L 282.108009 246.712083 
L 282.443396 246.509313 
L 282.778783 244.83646 
L 283.11417 244.912499 
L 283.784944 242.656682 
L 284.120331 240.400864 
L 284.455718 239.133551 
L 284.791104 238.575934 
L 285.126491 237.30862 
L 285.461878 234.038953 
L 285.797265 233.405296 
L 286.132652 231.833828 
L 286.468039 231.27621 
L 287.138813 232.467485 
L 287.4742 231.808482 
L 287.809587 232.340753 
L 288.144974 230.591861 
L 288.480361 232.087291 
L 288.815748 234.292415 
L 289.151134 234.216377 
L 289.486521 233.709451 
L 289.821908 234.317762 
L 290.157295 234.672609 
L 290.828069 236.953773 
L 291.498843 237.055158 
L 291.83423 237.764853 
L 292.505004 240.882443 
L 292.840391 243.011529 
L 293.175778 242.073718 
L 293.511165 241.870948 
L 293.846551 242.023025 
L 294.181938 241.972333 
L 294.517325 241.541446 
L 294.852712 242.048371 
L 295.188099 241.71887 
L 295.523486 243.264992 
L 296.19426 247.371086 
L 296.529647 247.649895 
L 297.200421 249.626903 
L 297.535808 249.85502 
L 297.871195 249.119978 
L 298.541968 246.306543 
L 298.877355 246.306543 
L 299.212742 244.811114 
L 300.55429 232.56887 
L 300.889677 231.783136 
L 301.560451 227.854465 
L 301.895838 222.12621 
L 302.231225 218.932581 
L 302.566612 211.708897 
L 302.901998 206.893107 
L 303.572772 202.229395 
L 303.908159 195.918176 
L 304.578933 179.367067 
L 304.91432 174.221776 
L 305.585094 137.393659 
L 305.920481 131.589365 
L 306.255868 123.808062 
L 306.926642 92.277313 
L 307.262029 78.260831 
L 307.597415 76.106399 
L 307.932802 86.168864 
L 308.268189 80.491302 
L 308.603576 81.809308 
L 309.27435 69.896565 
L 309.609737 69.668448 
L 310.280511 52.154182 
L 310.615898 59.884792 
L 310.951285 56.361661 
L 311.622059 76.309169 
L 311.957446 76.892133 
L 312.292832 92.834931 
L 312.628219 99.095458 
L 312.963606 98.411109 
L 313.298993 103.708477 
L 313.969767 110.323851 
L 314.305154 118.33327 
L 314.640541 122.109863 
L 314.975928 123.174406 
L 315.311315 127.863464 
L 315.646702 126.46942 
L 315.982089 131.28521 
L 316.317476 133.845182 
L 316.652863 138.73701 
L 316.988249 138.407509 
L 317.323636 144.059725 
L 317.659023 142.995182 
L 318.329797 151.993105 
L 318.665184 150.903216 
L 319.000571 144.820113 
L 319.335958 143.045875 
L 319.671345 139.674822 
L 320.677506 117.877037 
L 321.348279 109.766234 
L 321.683666 103.784516 
L 322.019053 102.618588 
L 322.35444 106.623297 
L 322.689827 113.644212 
L 323.025214 97.574682 
L 323.695988 88.779529 
L 324.031375 92.530776 
L 324.366762 88.044488 
L 324.702149 85.053629 
L 325.037536 73.242271 
L 325.372923 85.028283 
L 325.70831 85.864709 
L 326.043696 88.50072 
L 326.379083 85.18036 
L 327.385244 97.853491 
L 327.720631 97.067757 
L 328.056018 97.52399 
L 329.062179 119.625929 
L 329.397566 119.904738 
L 329.732953 122.540749 
L 330.06834 129.282855 
L 330.403727 138.306124 
L 330.739113 140.105708 
L 331.0745 141.094213 
L 331.409887 141.525099 
L 332.416048 148.698091 
L 332.751435 154.350307 
L 333.086822 151.258063 
L 333.422209 163.398923 
L 333.757596 167.403632 
L 334.092983 165.147815 
L 334.42837 177.339366 
L 334.763757 178.632026 
L 335.099144 171.154879 
L 335.43453 177.973023 
L 335.769917 168.011942 
L 336.105304 166.896707 
L 336.440691 169.58341 
L 336.776078 160.686873 
L 337.111465 166.187011 
L 337.446852 178.226485 
L 338.117626 192.141583 
L 338.453013 194.853633 
L 338.7884 196.551832 
L 339.123787 200.987428 
L 340.129947 208.084381 
L 340.800721 212.342553 
L 341.136108 211.987705 
L 341.471495 215.612221 
L 341.806882 214.218176 
L 342.142269 213.457789 
L 342.813043 214.623717 
L 343.14843 214.674409 
L 343.483817 216.448647 
L 343.819204 215.865683 
L 344.489977 224.610144 
L 345.160751 228.234659 
L 345.496138 229.248509 
L 345.831525 228.792277 
L 346.166912 229.983551 
L 346.502299 230.617208 
L 347.173073 238.423856 
L 347.50846 236.801695 
L 347.843847 236.953773 
L 348.179234 236.776349 
L 348.514621 236.066654 
L 348.850008 235.737152 
L 349.520781 226.967346 
L 349.856168 227.803773 
L 350.191555 227.195462 
L 350.526942 227.448925 
L 350.862329 232.340753 
L 351.197716 230.110282 
L 352.539264 212.190476 
L 352.874651 210.593661 
L 353.210038 203.446015 
L 353.545424 198.985073 
L 353.880811 197.31222 
L 354.216198 202.812359 
L 354.551585 203.040475 
L 354.886972 200.860697 
L 355.222359 200.252387 
L 355.893133 184.664436 
L 356.22852 179.443106 
L 356.563907 168.899061 
L 356.899294 163.728424 
L 357.234681 163.474961 
L 357.570068 163.829809 
L 357.905455 165.223853 
L 358.240841 168.037288 
L 358.576228 165.198507 
L 358.911615 166.769975 
L 359.247002 167.175516 
L 359.917776 164.894352 
L 360.253163 166.719283 
L 360.58855 165.223853 
L 360.923937 169.482025 
L 361.259324 170.87607 
L 361.594711 177.440751 
L 362.265485 185.171361 
L 362.600872 177.009865 
L 362.936258 179.392413 
L 363.271645 179.088258 
L 363.607032 177.643521 
L 363.942419 175.184934 
L 364.277806 176.021361 
L 364.613193 173.58812 
L 364.94858 183.498508 
L 365.283967 181.952386 
L 365.954741 192.242968 
L 366.290128 194.169284 
L 366.625515 192.851278 
L 366.960902 192.800586 
L 367.296289 194.3974 
L 367.631675 198.959727 
L 367.967062 199.846846 
L 368.302449 201.367622 
L 368.637836 200.607234 
L 368.973223 202.381472 
L 369.30861 202.558896 
L 369.643997 203.724824 
L 370.650158 208.819423 
L 370.985545 212.748093 
L 371.320932 212.925517 
L 371.656319 212.925517 
L 371.991705 213.457789 
L 372.327092 216.119146 
L 372.662479 215.079949 
L 373.333253 214.116791 
L 373.66864 213.863329 
L 374.004027 215.586875 
L 374.339414 215.738952 
L 374.674801 216.828841 
L 375.345575 220.808204 
L 375.680962 221.948786 
L 376.351736 222.785213 
L 376.687122 226.232304 
L 377.022509 225.395878 
L 377.357896 227.271501 
L 377.693283 227.702387 
L 378.02867 228.437429 
L 378.364057 229.730088 
L 378.699444 229.400587 
L 379.034831 229.45128 
L 379.370218 231.960559 
L 379.705605 233.126487 
L 380.040992 234.976764 
L 380.376379 235.711806 
L 380.711766 235.48369 
L 381.047153 235.559728 
L 381.382539 236.801695 
L 381.717926 236.472194 
L 382.3887 233.912221 
L 382.724087 234.343108 
L 383.059474 234.444493 
L 383.394861 235.432997 
L 383.730248 232.315407 
L 384.065635 232.087291 
L 384.401022 233.78549 
L 384.736409 234.064299 
L 385.071796 232.56887 
L 385.407183 232.340753 
L 385.742569 231.783136 
L 386.413343 235.661114 
L 387.084117 232.3661 
L 387.419504 232.036598 
L 387.754891 230.946709 
L 388.090278 229.299202 
L 389.431826 214.370254 
L 390.1026 210.568315 
L 390.437986 210.365545 
L 390.773373 217.538537 
L 392.114921 191.533273 
L 392.450308 187.934104 
L 392.785695 186.945599 
L 393.121082 177.212635 
L 393.456469 177.744906 
L 393.791856 175.083549 
L 394.127243 175.311665 
L 394.46263 175.058203 
L 394.798017 175.818591 
L 395.133403 174.3992 
L 395.46879 172.244768 
L 395.804177 168.873715 
L 396.139564 170.394491 
L 396.810338 175.742552 
L 397.481112 179.240336 
L 397.816499 183.169006 
L 398.151886 195.335212 
L 398.487273 213.001556 
L 398.487273 213.001556 
" clip-path="url(#pfedf30050c)" style="fill: none; stroke: #1f77b4; stroke-width: 1.5; stroke-linecap: square"/>
   </g>
   <g id="patch_3">
    <path d="M 57.6 276.48 
L 57.6 41.472 
" style="fill: none; stroke: #000000; stroke-width: 0.8; stroke-linejoin: miter; stroke-linecap: square"/>
   </g>
   <g id="patch_4">
    <path d="M 414.72 276.48 
L 414.72 41.472 
" style="fill: none; stroke: #000000; stroke-width: 0.8; stroke-linejoin: miter; stroke-linecap: square"/>
   </g>
   <g id="patch_5">
    <path d="M 57.6 276.48 
L 414.72 276.48 
" style="fill: none; stroke: #000000; stroke-width: 0.8; stroke-linejoin: miter; stroke-linecap: square"/>
   </g>
   <g id="patch_6">
    <path d="M 57.6 41.472 
L 414.72 41.472 
" style="fill: none; stroke: #000000; stroke-width: 0.8; stroke-linejoin: miter; stroke-linecap: square"/>
   </g>
  </g>
  <g id="text_20">
   <!-- Inzidenzverlauf LK Wesel -->
   <g transform="translate(118.414688 20.589187) scale(0.18 -0.18)">
    <defs>
     <path id="DejaVuSans-76" d="M 191 3500 
L 800 3500 
L 1894 563 
L 2988 3500 
L 3597 3500 
L 2284 0 
L 1503 0 
L 191 3500 
z
" transform="scale(0.015625)"/>
     <path id="DejaVuSans-6c" d="M 603 4863 
L 1178 4863 
L 1178 0 
L 603 0 
L 603 4863 
z
" transform="scale(0.015625)"/>
     <path id="DejaVuSans-75" d="M 544 1381 
L 544 3500 
L 1119 3500 
L 1119 1403 
Q 1119 906 1312 657 
Q 1506 409 1894 409 
Q 2359 409 2629 706 
Q 2900 1003 2900 1516 
L 2900 3500 
L 3475 3500 
L 3475 0 
L 2900 0 
L 2900 538 
Q 2691 219 2414 64 
Q 2138 -91 1772 -91 
Q 1169 -91 856 284 
Q 544 659 544 1381 
z
M 1991 3584 
L 1991 3584 
z
" transform="scale(0.015625)"/>
     <path id="DejaVuSans-66" d="M 2375 4863 
L 2375 4384 
L 1825 4384 
Q 1516 4384 1395 4259 
Q 1275 4134 1275 3809 
L 1275 3500 
L 2222 3500 
L 2222 3053 
L 1275 3053 
L 1275 0 
L 697 0 
L 697 3053 
L 147 3053 
L 147 3500 
L 697 3500 
L 697 3744 
Q 697 4328 969 4595 
Q 1241 4863 1831 4863 
L 2375 4863 
z
" transform="scale(0.015625)"/>
     <path id="DejaVuSans-4c" d="M 628 4666 
L 1259 4666 
L 1259 531 
L 3531 531 
L 3531 0 
L 628 0 
L 628 4666 
z
" transform="scale(0.015625)"/>
     <path id="DejaVuSans-4b" d="M 628 4666 
L 1259 4666 
L 1259 2694 
L 3353 4666 
L 4166 4666 
L 1850 2491 
L 4331 0 
L 3500 0 
L 1259 2247 
L 1259 0 
L 628 0 
L 628 4666 
z
" transform="scale(0.015625)"/>
     <path id="DejaVuSans-57" d="M 213 4666 
L 850 4666 
L 1831 722 
L 2809 4666 
L 3519 4666 
L 4500 722 
L 5478 4666 
L 6119 4666 
L 4947 0 
L 4153 0 
L 3169 4050 
L 2175 0 
L 1381 0 
L 213 4666 
z
" transform="scale(0.015625)"/>
     <path id="DejaVuSans-73" d="M 2834 3397 
L 2834 2853 
Q 2591 2978 2328 3040 
Q 2066 3103 1784 3103 
Q 1356 3103 1142 2972 
Q 928 2841 928 2578 
Q 928 2378 1081 2264 
Q 1234 2150 1697 2047 
L 1894 2003 
Q 2506 1872 2764 1633 
Q 3022 1394 3022 966 
Q 3022 478 2636 193 
Q 2250 -91 1575 -91 
Q 1294 -91 989 -36 
Q 684 19 347 128 
L 347 722 
Q 666 556 975 473 
Q 1284 391 1588 391 
Q 1994 391 2212 530 
Q 2431 669 2431 922 
Q 2431 1156 2273 1281 
Q 2116 1406 1581 1522 
L 1381 1569 
Q 847 1681 609 1914 
Q 372 2147 372 2553 
Q 372 3047 722 3315 
Q 1072 3584 1716 3584 
Q 2034 3584 2315 3537 
Q 2597 3491 2834 3397 
z
" transform="scale(0.015625)"/>
    </defs>
    <use xlink:href="#DejaVuSans-49"/>
    <use xlink:href="#DejaVuSans-6e" x="29.492188"/>
    <use xlink:href="#DejaVuSans-7a" x="92.871094"/>
    <use xlink:href="#DejaVuSans-69" x="145.361328"/>
    <use xlink:href="#DejaVuSans-64" x="173.144531"/>
    <use xlink:href="#DejaVuSans-65" x="236.621094"/>
    <use xlink:href="#DejaVuSans-6e" x="298.144531"/>
    <use xlink:href="#DejaVuSans-7a" x="361.523438"/>
    <use xlink:href="#DejaVuSans-76" x="414.013672"/>
    <use xlink:href="#DejaVuSans-65" x="473.193359"/>
    <use xlink:href="#DejaVuSans-72" x="534.716797"/>
    <use xlink:href="#DejaVuSans-6c" x="575.830078"/>
    <use xlink:href="#DejaVuSans-61" x="603.613281"/>
    <use xlink:href="#DejaVuSans-75" x="664.892578"/>
    <use xlink:href="#DejaVuSans-66" x="728.271484"/>
    <use xlink:href="#DejaVuSans-20" x="763.476562"/>
    <use xlink:href="#DejaVuSans-4c" x="795.263672"/>
    <use xlink:href="#DejaVuSans-4b" x="850.976562"/>
    <use xlink:href="#DejaVuSans-20" x="916.552734"/>
    <use xlink:href="#DejaVuSans-57" x="948.339844"/>
    <use xlink:href="#DejaVuSans-65" x="1041.341797"/>
    <use xlink:href="#DejaVuSans-73" x="1102.865234"/>
    <use xlink:href="#DejaVuSans-65" x="1154.964844"/>
    <use xlink:href="#DejaVuSans-6c" x="1216.488281"/>
   </g>
  </g>
 </g>
 <defs>
  <clipPath id="pfedf30050c">
   <rect x="57.6" y="41.472" width="357.12" height="235.008"/>
  </clipPath>
 </defs>
</svg>
