<?xml version="1.0" encoding="utf-8" standalone="no"?>
<!DOCTYPE svg PUBLIC "-//W3C//DTD SVG 1.1//EN"
  "http://www.w3.org/Graphics/SVG/1.1/DTD/svg11.dtd">
<svg xmlns:xlink="http://www.w3.org/1999/xlink" width="460.8pt" height="345.6pt" viewBox="0 0 460.8 345.6" xmlns="http://www.w3.org/2000/svg" version="1.1">
 <metadata>
  <rdf:RDF xmlns:dc="http://purl.org/dc/elements/1.1/" xmlns:cc="http://creativecommons.org/ns#" xmlns:rdf="http://www.w3.org/1999/02/22-rdf-syntax-ns#">
   <cc:Work>
    <dc:type rdf:resource="http://purl.org/dc/dcmitype/StillImage"/>
    <dc:date>2021-11-28T09:20:45.151426</dc:date>
    <dc:format>image/svg+xml</dc:format>
    <dc:creator>
     <cc:Agent>
      <dc:title>Matplotlib v3.5.0, https://matplotlib.org/</dc:title>
     </cc:Agent>
    </dc:creator>
   </cc:Work>
  </rdf:RDF>
 </metadata>
 <defs>
  <style type="text/css">*{stroke-linejoin: round; stroke-linecap: butt}</style>
 </defs>
 <g id="figure_1">
  <g id="patch_1">
   <path d="M 0 345.6 
L 460.8 345.6 
L 460.8 0 
L 0 0 
z
" style="fill: #ffffff"/>
  </g>
  <g id="axes_1">
   <g id="patch_2">
    <path d="M 57.6 276.48 
L 414.72 276.48 
L 414.72 41.472 
L 57.6 41.472 
z
" style="fill: #ffffff"/>
   </g>
   <g id="matplotlib.axis_1">
    <g id="xtick_1">
     <g id="line2d_1">
      <path d="M 57.621303 276.48 
L 57.621303 41.472 
" clip-path="url(#p60293f763c)" style="fill: none; stroke-dasharray: 2.96,1.28; stroke-dashoffset: 0; stroke: #808080; stroke-width: 0.8"/>
     </g>
     <g id="line2d_2">
      <defs>
       <path id="mb1e03ed969" d="M 0 0 
L 0 3.5 
" style="stroke: #000000; stroke-width: 0.8"/>
      </defs>
      <g>
       <use xlink:href="#mb1e03ed969" x="57.621303" y="276.48" style="stroke: #000000; stroke-width: 0.8"/>
      </g>
     </g>
     <g id="text_1">
      <!-- 31.01.2020 -->
      <g transform="translate(6.996092 318.688565)rotate(-30)scale(0.1 -0.1)">
       <defs>
        <path id="DejaVuSans-33" d="M 2597 2516 
Q 3050 2419 3304 2112 
Q 3559 1806 3559 1356 
Q 3559 666 3084 287 
Q 2609 -91 1734 -91 
Q 1441 -91 1130 -33 
Q 819 25 488 141 
L 488 750 
Q 750 597 1062 519 
Q 1375 441 1716 441 
Q 2309 441 2620 675 
Q 2931 909 2931 1356 
Q 2931 1769 2642 2001 
Q 2353 2234 1838 2234 
L 1294 2234 
L 1294 2753 
L 1863 2753 
Q 2328 2753 2575 2939 
Q 2822 3125 2822 3475 
Q 2822 3834 2567 4026 
Q 2313 4219 1838 4219 
Q 1578 4219 1281 4162 
Q 984 4106 628 3988 
L 628 4550 
Q 988 4650 1302 4700 
Q 1616 4750 1894 4750 
Q 2613 4750 3031 4423 
Q 3450 4097 3450 3541 
Q 3450 3153 3228 2886 
Q 3006 2619 2597 2516 
z
" transform="scale(0.015625)"/>
        <path id="DejaVuSans-31" d="M 794 531 
L 1825 531 
L 1825 4091 
L 703 3866 
L 703 4441 
L 1819 4666 
L 2450 4666 
L 2450 531 
L 3481 531 
L 3481 0 
L 794 0 
L 794 531 
z
" transform="scale(0.015625)"/>
        <path id="DejaVuSans-2e" d="M 684 794 
L 1344 794 
L 1344 0 
L 684 0 
L 684 794 
z
" transform="scale(0.015625)"/>
        <path id="DejaVuSans-30" d="M 2034 4250 
Q 1547 4250 1301 3770 
Q 1056 3291 1056 2328 
Q 1056 1369 1301 889 
Q 1547 409 2034 409 
Q 2525 409 2770 889 
Q 3016 1369 3016 2328 
Q 3016 3291 2770 3770 
Q 2525 4250 2034 4250 
z
M 2034 4750 
Q 2819 4750 3233 4129 
Q 3647 3509 3647 2328 
Q 3647 1150 3233 529 
Q 2819 -91 2034 -91 
Q 1250 -91 836 529 
Q 422 1150 422 2328 
Q 422 3509 836 4129 
Q 1250 4750 2034 4750 
z
" transform="scale(0.015625)"/>
        <path id="DejaVuSans-32" d="M 1228 531 
L 3431 531 
L 3431 0 
L 469 0 
L 469 531 
Q 828 903 1448 1529 
Q 2069 2156 2228 2338 
Q 2531 2678 2651 2914 
Q 2772 3150 2772 3378 
Q 2772 3750 2511 3984 
Q 2250 4219 1831 4219 
Q 1534 4219 1204 4116 
Q 875 4013 500 3803 
L 500 4441 
Q 881 4594 1212 4672 
Q 1544 4750 1819 4750 
Q 2544 4750 2975 4387 
Q 3406 4025 3406 3419 
Q 3406 3131 3298 2873 
Q 3191 2616 2906 2266 
Q 2828 2175 2409 1742 
Q 1991 1309 1228 531 
z
" transform="scale(0.015625)"/>
       </defs>
       <use xlink:href="#DejaVuSans-33"/>
       <use xlink:href="#DejaVuSans-31" x="63.623047"/>
       <use xlink:href="#DejaVuSans-2e" x="127.246094"/>
       <use xlink:href="#DejaVuSans-30" x="159.033203"/>
       <use xlink:href="#DejaVuSans-31" x="222.65625"/>
       <use xlink:href="#DejaVuSans-2e" x="286.279297"/>
       <use xlink:href="#DejaVuSans-32" x="318.066406"/>
       <use xlink:href="#DejaVuSans-30" x="381.689453"/>
       <use xlink:href="#DejaVuSans-32" x="445.3125"/>
       <use xlink:href="#DejaVuSans-30" x="508.935547"/>
      </g>
     </g>
    </g>
    <g id="xtick_2">
     <g id="line2d_3">
      <path d="M 93.409993 276.48 
L 93.409993 41.472 
" clip-path="url(#p60293f763c)" style="fill: none; stroke-dasharray: 2.96,1.28; stroke-dashoffset: 0; stroke: #808080; stroke-width: 0.8"/>
     </g>
     <g id="line2d_4">
      <g>
       <use xlink:href="#mb1e03ed969" x="93.409993" y="276.48" style="stroke: #000000; stroke-width: 0.8"/>
      </g>
     </g>
     <g id="text_2">
      <!-- 10.04.2020 -->
      <g transform="translate(42.784782 318.688565)rotate(-30)scale(0.1 -0.1)">
       <defs>
        <path id="DejaVuSans-34" d="M 2419 4116 
L 825 1625 
L 2419 1625 
L 2419 4116 
z
M 2253 4666 
L 3047 4666 
L 3047 1625 
L 3713 1625 
L 3713 1100 
L 3047 1100 
L 3047 0 
L 2419 0 
L 2419 1100 
L 313 1100 
L 313 1709 
L 2253 4666 
z
" transform="scale(0.015625)"/>
       </defs>
       <use xlink:href="#DejaVuSans-31"/>
       <use xlink:href="#DejaVuSans-30" x="63.623047"/>
       <use xlink:href="#DejaVuSans-2e" x="127.246094"/>
       <use xlink:href="#DejaVuSans-30" x="159.033203"/>
       <use xlink:href="#DejaVuSans-34" x="222.65625"/>
       <use xlink:href="#DejaVuSans-2e" x="286.279297"/>
       <use xlink:href="#DejaVuSans-32" x="318.066406"/>
       <use xlink:href="#DejaVuSans-30" x="381.689453"/>
       <use xlink:href="#DejaVuSans-32" x="445.3125"/>
       <use xlink:href="#DejaVuSans-30" x="508.935547"/>
      </g>
     </g>
    </g>
    <g id="xtick_3">
     <g id="line2d_5">
      <path d="M 129.198683 276.48 
L 129.198683 41.472 
" clip-path="url(#p60293f763c)" style="fill: none; stroke-dasharray: 2.96,1.28; stroke-dashoffset: 0; stroke: #808080; stroke-width: 0.8"/>
     </g>
     <g id="line2d_6">
      <g>
       <use xlink:href="#mb1e03ed969" x="129.198683" y="276.48" style="stroke: #000000; stroke-width: 0.8"/>
      </g>
     </g>
     <g id="text_3">
      <!-- 19.06.2020 -->
      <g transform="translate(78.573472 318.688565)rotate(-30)scale(0.1 -0.1)">
       <defs>
        <path id="DejaVuSans-39" d="M 703 97 
L 703 672 
Q 941 559 1184 500 
Q 1428 441 1663 441 
Q 2288 441 2617 861 
Q 2947 1281 2994 2138 
Q 2813 1869 2534 1725 
Q 2256 1581 1919 1581 
Q 1219 1581 811 2004 
Q 403 2428 403 3163 
Q 403 3881 828 4315 
Q 1253 4750 1959 4750 
Q 2769 4750 3195 4129 
Q 3622 3509 3622 2328 
Q 3622 1225 3098 567 
Q 2575 -91 1691 -91 
Q 1453 -91 1209 -44 
Q 966 3 703 97 
z
M 1959 2075 
Q 2384 2075 2632 2365 
Q 2881 2656 2881 3163 
Q 2881 3666 2632 3958 
Q 2384 4250 1959 4250 
Q 1534 4250 1286 3958 
Q 1038 3666 1038 3163 
Q 1038 2656 1286 2365 
Q 1534 2075 1959 2075 
z
" transform="scale(0.015625)"/>
        <path id="DejaVuSans-36" d="M 2113 2584 
Q 1688 2584 1439 2293 
Q 1191 2003 1191 1497 
Q 1191 994 1439 701 
Q 1688 409 2113 409 
Q 2538 409 2786 701 
Q 3034 994 3034 1497 
Q 3034 2003 2786 2293 
Q 2538 2584 2113 2584 
z
M 3366 4563 
L 3366 3988 
Q 3128 4100 2886 4159 
Q 2644 4219 2406 4219 
Q 1781 4219 1451 3797 
Q 1122 3375 1075 2522 
Q 1259 2794 1537 2939 
Q 1816 3084 2150 3084 
Q 2853 3084 3261 2657 
Q 3669 2231 3669 1497 
Q 3669 778 3244 343 
Q 2819 -91 2113 -91 
Q 1303 -91 875 529 
Q 447 1150 447 2328 
Q 447 3434 972 4092 
Q 1497 4750 2381 4750 
Q 2619 4750 2861 4703 
Q 3103 4656 3366 4563 
z
" transform="scale(0.015625)"/>
       </defs>
       <use xlink:href="#DejaVuSans-31"/>
       <use xlink:href="#DejaVuSans-39" x="63.623047"/>
       <use xlink:href="#DejaVuSans-2e" x="127.246094"/>
       <use xlink:href="#DejaVuSans-30" x="159.033203"/>
       <use xlink:href="#DejaVuSans-36" x="222.65625"/>
       <use xlink:href="#DejaVuSans-2e" x="286.279297"/>
       <use xlink:href="#DejaVuSans-32" x="318.066406"/>
       <use xlink:href="#DejaVuSans-30" x="381.689453"/>
       <use xlink:href="#DejaVuSans-32" x="445.3125"/>
       <use xlink:href="#DejaVuSans-30" x="508.935547"/>
      </g>
     </g>
    </g>
    <g id="xtick_4">
     <g id="line2d_7">
      <path d="M 164.987373 276.48 
L 164.987373 41.472 
" clip-path="url(#p60293f763c)" style="fill: none; stroke-dasharray: 2.96,1.28; stroke-dashoffset: 0; stroke: #808080; stroke-width: 0.8"/>
     </g>
     <g id="line2d_8">
      <g>
       <use xlink:href="#mb1e03ed969" x="164.987373" y="276.48" style="stroke: #000000; stroke-width: 0.8"/>
      </g>
     </g>
     <g id="text_4">
      <!-- 28.08.2020 -->
      <g transform="translate(114.362162 318.688565)rotate(-30)scale(0.1 -0.1)">
       <defs>
        <path id="DejaVuSans-38" d="M 2034 2216 
Q 1584 2216 1326 1975 
Q 1069 1734 1069 1313 
Q 1069 891 1326 650 
Q 1584 409 2034 409 
Q 2484 409 2743 651 
Q 3003 894 3003 1313 
Q 3003 1734 2745 1975 
Q 2488 2216 2034 2216 
z
M 1403 2484 
Q 997 2584 770 2862 
Q 544 3141 544 3541 
Q 544 4100 942 4425 
Q 1341 4750 2034 4750 
Q 2731 4750 3128 4425 
Q 3525 4100 3525 3541 
Q 3525 3141 3298 2862 
Q 3072 2584 2669 2484 
Q 3125 2378 3379 2068 
Q 3634 1759 3634 1313 
Q 3634 634 3220 271 
Q 2806 -91 2034 -91 
Q 1263 -91 848 271 
Q 434 634 434 1313 
Q 434 1759 690 2068 
Q 947 2378 1403 2484 
z
M 1172 3481 
Q 1172 3119 1398 2916 
Q 1625 2713 2034 2713 
Q 2441 2713 2670 2916 
Q 2900 3119 2900 3481 
Q 2900 3844 2670 4047 
Q 2441 4250 2034 4250 
Q 1625 4250 1398 4047 
Q 1172 3844 1172 3481 
z
" transform="scale(0.015625)"/>
       </defs>
       <use xlink:href="#DejaVuSans-32"/>
       <use xlink:href="#DejaVuSans-38" x="63.623047"/>
       <use xlink:href="#DejaVuSans-2e" x="127.246094"/>
       <use xlink:href="#DejaVuSans-30" x="159.033203"/>
       <use xlink:href="#DejaVuSans-38" x="222.65625"/>
       <use xlink:href="#DejaVuSans-2e" x="286.279297"/>
       <use xlink:href="#DejaVuSans-32" x="318.066406"/>
       <use xlink:href="#DejaVuSans-30" x="381.689453"/>
       <use xlink:href="#DejaVuSans-32" x="445.3125"/>
       <use xlink:href="#DejaVuSans-30" x="508.935547"/>
      </g>
     </g>
    </g>
    <g id="xtick_5">
     <g id="line2d_9">
      <path d="M 200.776063 276.48 
L 200.776063 41.472 
" clip-path="url(#p60293f763c)" style="fill: none; stroke-dasharray: 2.96,1.28; stroke-dashoffset: 0; stroke: #808080; stroke-width: 0.8"/>
     </g>
     <g id="line2d_10">
      <g>
       <use xlink:href="#mb1e03ed969" x="200.776063" y="276.48" style="stroke: #000000; stroke-width: 0.8"/>
      </g>
     </g>
     <g id="text_5">
      <!-- 06.11.2020 -->
      <g transform="translate(150.150852 318.688565)rotate(-30)scale(0.1 -0.1)">
       <use xlink:href="#DejaVuSans-30"/>
       <use xlink:href="#DejaVuSans-36" x="63.623047"/>
       <use xlink:href="#DejaVuSans-2e" x="127.246094"/>
       <use xlink:href="#DejaVuSans-31" x="159.033203"/>
       <use xlink:href="#DejaVuSans-31" x="222.65625"/>
       <use xlink:href="#DejaVuSans-2e" x="286.279297"/>
       <use xlink:href="#DejaVuSans-32" x="318.066406"/>
       <use xlink:href="#DejaVuSans-30" x="381.689453"/>
       <use xlink:href="#DejaVuSans-32" x="445.3125"/>
       <use xlink:href="#DejaVuSans-30" x="508.935547"/>
      </g>
     </g>
    </g>
    <g id="xtick_6">
     <g id="line2d_11">
      <path d="M 236.564753 276.48 
L 236.564753 41.472 
" clip-path="url(#p60293f763c)" style="fill: none; stroke-dasharray: 2.96,1.28; stroke-dashoffset: 0; stroke: #808080; stroke-width: 0.8"/>
     </g>
     <g id="line2d_12">
      <g>
       <use xlink:href="#mb1e03ed969" x="236.564753" y="276.48" style="stroke: #000000; stroke-width: 0.8"/>
      </g>
     </g>
     <g id="text_6">
      <!-- 15.01.2021 -->
      <g transform="translate(185.939542 318.688565)rotate(-30)scale(0.1 -0.1)">
       <defs>
        <path id="DejaVuSans-35" d="M 691 4666 
L 3169 4666 
L 3169 4134 
L 1269 4134 
L 1269 2991 
Q 1406 3038 1543 3061 
Q 1681 3084 1819 3084 
Q 2600 3084 3056 2656 
Q 3513 2228 3513 1497 
Q 3513 744 3044 326 
Q 2575 -91 1722 -91 
Q 1428 -91 1123 -41 
Q 819 9 494 109 
L 494 744 
Q 775 591 1075 516 
Q 1375 441 1709 441 
Q 2250 441 2565 725 
Q 2881 1009 2881 1497 
Q 2881 1984 2565 2268 
Q 2250 2553 1709 2553 
Q 1456 2553 1204 2497 
Q 953 2441 691 2322 
L 691 4666 
z
" transform="scale(0.015625)"/>
       </defs>
       <use xlink:href="#DejaVuSans-31"/>
       <use xlink:href="#DejaVuSans-35" x="63.623047"/>
       <use xlink:href="#DejaVuSans-2e" x="127.246094"/>
       <use xlink:href="#DejaVuSans-30" x="159.033203"/>
       <use xlink:href="#DejaVuSans-31" x="222.65625"/>
       <use xlink:href="#DejaVuSans-2e" x="286.279297"/>
       <use xlink:href="#DejaVuSans-32" x="318.066406"/>
       <use xlink:href="#DejaVuSans-30" x="381.689453"/>
       <use xlink:href="#DejaVuSans-32" x="445.3125"/>
       <use xlink:href="#DejaVuSans-31" x="508.935547"/>
      </g>
     </g>
    </g>
    <g id="xtick_7">
     <g id="line2d_13">
      <path d="M 272.353443 276.48 
L 272.353443 41.472 
" clip-path="url(#p60293f763c)" style="fill: none; stroke-dasharray: 2.96,1.28; stroke-dashoffset: 0; stroke: #808080; stroke-width: 0.8"/>
     </g>
     <g id="line2d_14">
      <g>
       <use xlink:href="#mb1e03ed969" x="272.353443" y="276.48" style="stroke: #000000; stroke-width: 0.8"/>
      </g>
     </g>
     <g id="text_7">
      <!-- 26.03.2021 -->
      <g transform="translate(221.728232 318.688565)rotate(-30)scale(0.1 -0.1)">
       <use xlink:href="#DejaVuSans-32"/>
       <use xlink:href="#DejaVuSans-36" x="63.623047"/>
       <use xlink:href="#DejaVuSans-2e" x="127.246094"/>
       <use xlink:href="#DejaVuSans-30" x="159.033203"/>
       <use xlink:href="#DejaVuSans-33" x="222.65625"/>
       <use xlink:href="#DejaVuSans-2e" x="286.279297"/>
       <use xlink:href="#DejaVuSans-32" x="318.066406"/>
       <use xlink:href="#DejaVuSans-30" x="381.689453"/>
       <use xlink:href="#DejaVuSans-32" x="445.3125"/>
       <use xlink:href="#DejaVuSans-31" x="508.935547"/>
      </g>
     </g>
    </g>
    <g id="xtick_8">
     <g id="line2d_15">
      <path d="M 308.142133 276.48 
L 308.142133 41.472 
" clip-path="url(#p60293f763c)" style="fill: none; stroke-dasharray: 2.96,1.28; stroke-dashoffset: 0; stroke: #808080; stroke-width: 0.8"/>
     </g>
     <g id="line2d_16">
      <g>
       <use xlink:href="#mb1e03ed969" x="308.142133" y="276.48" style="stroke: #000000; stroke-width: 0.8"/>
      </g>
     </g>
     <g id="text_8">
      <!-- 04.06.2021 -->
      <g transform="translate(257.516922 318.688565)rotate(-30)scale(0.1 -0.1)">
       <use xlink:href="#DejaVuSans-30"/>
       <use xlink:href="#DejaVuSans-34" x="63.623047"/>
       <use xlink:href="#DejaVuSans-2e" x="127.246094"/>
       <use xlink:href="#DejaVuSans-30" x="159.033203"/>
       <use xlink:href="#DejaVuSans-36" x="222.65625"/>
       <use xlink:href="#DejaVuSans-2e" x="286.279297"/>
       <use xlink:href="#DejaVuSans-32" x="318.066406"/>
       <use xlink:href="#DejaVuSans-30" x="381.689453"/>
       <use xlink:href="#DejaVuSans-32" x="445.3125"/>
       <use xlink:href="#DejaVuSans-31" x="508.935547"/>
      </g>
     </g>
    </g>
    <g id="xtick_9">
     <g id="line2d_17">
      <path d="M 343.930823 276.48 
L 343.930823 41.472 
" clip-path="url(#p60293f763c)" style="fill: none; stroke-dasharray: 2.96,1.28; stroke-dashoffset: 0; stroke: #808080; stroke-width: 0.8"/>
     </g>
     <g id="line2d_18">
      <g>
       <use xlink:href="#mb1e03ed969" x="343.930823" y="276.48" style="stroke: #000000; stroke-width: 0.8"/>
      </g>
     </g>
     <g id="text_9">
      <!-- 13.08.2021 -->
      <g transform="translate(293.305612 318.688565)rotate(-30)scale(0.1 -0.1)">
       <use xlink:href="#DejaVuSans-31"/>
       <use xlink:href="#DejaVuSans-33" x="63.623047"/>
       <use xlink:href="#DejaVuSans-2e" x="127.246094"/>
       <use xlink:href="#DejaVuSans-30" x="159.033203"/>
       <use xlink:href="#DejaVuSans-38" x="222.65625"/>
       <use xlink:href="#DejaVuSans-2e" x="286.279297"/>
       <use xlink:href="#DejaVuSans-32" x="318.066406"/>
       <use xlink:href="#DejaVuSans-30" x="381.689453"/>
       <use xlink:href="#DejaVuSans-32" x="445.3125"/>
       <use xlink:href="#DejaVuSans-31" x="508.935547"/>
      </g>
     </g>
    </g>
    <g id="xtick_10">
     <g id="line2d_19">
      <path d="M 379.719513 276.48 
L 379.719513 41.472 
" clip-path="url(#p60293f763c)" style="fill: none; stroke-dasharray: 2.96,1.28; stroke-dashoffset: 0; stroke: #808080; stroke-width: 0.8"/>
     </g>
     <g id="line2d_20">
      <g>
       <use xlink:href="#mb1e03ed969" x="379.719513" y="276.48" style="stroke: #000000; stroke-width: 0.8"/>
      </g>
     </g>
     <g id="text_10">
      <!-- 22.10.2021 -->
      <g transform="translate(329.094302 318.688565)rotate(-30)scale(0.1 -0.1)">
       <use xlink:href="#DejaVuSans-32"/>
       <use xlink:href="#DejaVuSans-32" x="63.623047"/>
       <use xlink:href="#DejaVuSans-2e" x="127.246094"/>
       <use xlink:href="#DejaVuSans-31" x="159.033203"/>
       <use xlink:href="#DejaVuSans-30" x="222.65625"/>
       <use xlink:href="#DejaVuSans-2e" x="286.279297"/>
       <use xlink:href="#DejaVuSans-32" x="318.066406"/>
       <use xlink:href="#DejaVuSans-30" x="381.689453"/>
       <use xlink:href="#DejaVuSans-32" x="445.3125"/>
       <use xlink:href="#DejaVuSans-31" x="508.935547"/>
      </g>
     </g>
    </g>
   </g>
   <g id="matplotlib.axis_2">
    <g id="ytick_1">
     <g id="line2d_21">
      <path d="M 57.6 265.797818 
L 414.72 265.797818 
" clip-path="url(#p60293f763c)" style="fill: none; stroke-dasharray: 2.96,1.28; stroke-dashoffset: 0; stroke: #808080; stroke-width: 0.8"/>
     </g>
     <g id="line2d_22">
      <defs>
       <path id="m21c0760ec8" d="M 0 0 
L -3.5 0 
" style="stroke: #000000; stroke-width: 0.8"/>
      </defs>
      <g>
       <use xlink:href="#m21c0760ec8" x="57.6" y="265.797818" style="stroke: #000000; stroke-width: 0.8"/>
      </g>
     </g>
     <g id="text_11">
      <!-- 0 -->
      <g transform="translate(44.2375 269.597037)scale(0.1 -0.1)">
       <use xlink:href="#DejaVuSans-30"/>
      </g>
     </g>
    </g>
    <g id="ytick_2">
     <g id="line2d_23">
      <path d="M 57.6 232.418115 
L 414.72 232.418115 
" clip-path="url(#p60293f763c)" style="fill: none; stroke-dasharray: 2.96,1.28; stroke-dashoffset: 0; stroke: #808080; stroke-width: 0.8"/>
     </g>
     <g id="line2d_24">
      <g>
       <use xlink:href="#m21c0760ec8" x="57.6" y="232.418115" style="stroke: #000000; stroke-width: 0.8"/>
      </g>
     </g>
     <g id="text_12">
      <!-- 100 -->
      <g transform="translate(31.5125 236.217334)scale(0.1 -0.1)">
       <use xlink:href="#DejaVuSans-31"/>
       <use xlink:href="#DejaVuSans-30" x="63.623047"/>
       <use xlink:href="#DejaVuSans-30" x="127.246094"/>
      </g>
     </g>
    </g>
    <g id="ytick_3">
     <g id="line2d_25">
      <path d="M 57.6 199.038412 
L 414.72 199.038412 
" clip-path="url(#p60293f763c)" style="fill: none; stroke-dasharray: 2.96,1.28; stroke-dashoffset: 0; stroke: #808080; stroke-width: 0.8"/>
     </g>
     <g id="line2d_26">
      <g>
       <use xlink:href="#m21c0760ec8" x="57.6" y="199.038412" style="stroke: #000000; stroke-width: 0.8"/>
      </g>
     </g>
     <g id="text_13">
      <!-- 200 -->
      <g transform="translate(31.5125 202.837631)scale(0.1 -0.1)">
       <use xlink:href="#DejaVuSans-32"/>
       <use xlink:href="#DejaVuSans-30" x="63.623047"/>
       <use xlink:href="#DejaVuSans-30" x="127.246094"/>
      </g>
     </g>
    </g>
    <g id="ytick_4">
     <g id="line2d_27">
      <path d="M 57.6 165.658709 
L 414.72 165.658709 
" clip-path="url(#p60293f763c)" style="fill: none; stroke-dasharray: 2.96,1.28; stroke-dashoffset: 0; stroke: #808080; stroke-width: 0.8"/>
     </g>
     <g id="line2d_28">
      <g>
       <use xlink:href="#m21c0760ec8" x="57.6" y="165.658709" style="stroke: #000000; stroke-width: 0.8"/>
      </g>
     </g>
     <g id="text_14">
      <!-- 300 -->
      <g transform="translate(31.5125 169.457928)scale(0.1 -0.1)">
       <use xlink:href="#DejaVuSans-33"/>
       <use xlink:href="#DejaVuSans-30" x="63.623047"/>
       <use xlink:href="#DejaVuSans-30" x="127.246094"/>
      </g>
     </g>
    </g>
    <g id="ytick_5">
     <g id="line2d_29">
      <path d="M 57.6 132.279007 
L 414.72 132.279007 
" clip-path="url(#p60293f763c)" style="fill: none; stroke-dasharray: 2.96,1.28; stroke-dashoffset: 0; stroke: #808080; stroke-width: 0.8"/>
     </g>
     <g id="line2d_30">
      <g>
       <use xlink:href="#m21c0760ec8" x="57.6" y="132.279007" style="stroke: #000000; stroke-width: 0.8"/>
      </g>
     </g>
     <g id="text_15">
      <!-- 400 -->
      <g transform="translate(31.5125 136.078225)scale(0.1 -0.1)">
       <use xlink:href="#DejaVuSans-34"/>
       <use xlink:href="#DejaVuSans-30" x="63.623047"/>
       <use xlink:href="#DejaVuSans-30" x="127.246094"/>
      </g>
     </g>
    </g>
    <g id="ytick_6">
     <g id="line2d_31">
      <path d="M 57.6 98.899304 
L 414.72 98.899304 
" clip-path="url(#p60293f763c)" style="fill: none; stroke-dasharray: 2.96,1.28; stroke-dashoffset: 0; stroke: #808080; stroke-width: 0.8"/>
     </g>
     <g id="line2d_32">
      <g>
       <use xlink:href="#m21c0760ec8" x="57.6" y="98.899304" style="stroke: #000000; stroke-width: 0.8"/>
      </g>
     </g>
     <g id="text_16">
      <!-- 500 -->
      <g transform="translate(31.5125 102.698522)scale(0.1 -0.1)">
       <use xlink:href="#DejaVuSans-35"/>
       <use xlink:href="#DejaVuSans-30" x="63.623047"/>
       <use xlink:href="#DejaVuSans-30" x="127.246094"/>
      </g>
     </g>
    </g>
    <g id="ytick_7">
     <g id="line2d_33">
      <path d="M 57.6 65.519601 
L 414.72 65.519601 
" clip-path="url(#p60293f763c)" style="fill: none; stroke-dasharray: 2.96,1.28; stroke-dashoffset: 0; stroke: #808080; stroke-width: 0.8"/>
     </g>
     <g id="line2d_34">
      <g>
       <use xlink:href="#m21c0760ec8" x="57.6" y="65.519601" style="stroke: #000000; stroke-width: 0.8"/>
      </g>
     </g>
     <g id="text_17">
      <!-- 600 -->
      <g transform="translate(31.5125 69.31882)scale(0.1 -0.1)">
       <use xlink:href="#DejaVuSans-36"/>
       <use xlink:href="#DejaVuSans-30" x="63.623047"/>
       <use xlink:href="#DejaVuSans-30" x="127.246094"/>
      </g>
     </g>
    </g>
    <g id="text_18">
     <!-- Inzidenz pro 7 Tage pro 100.000 Einwohner -->
     <g transform="translate(25.432812 267.301)rotate(-90)scale(0.1 -0.1)">
      <defs>
       <path id="DejaVuSans-49" d="M 628 4666 
L 1259 4666 
L 1259 0 
L 628 0 
L 628 4666 
z
" transform="scale(0.015625)"/>
       <path id="DejaVuSans-6e" d="M 3513 2113 
L 3513 0 
L 2938 0 
L 2938 2094 
Q 2938 2591 2744 2837 
Q 2550 3084 2163 3084 
Q 1697 3084 1428 2787 
Q 1159 2491 1159 1978 
L 1159 0 
L 581 0 
L 581 3500 
L 1159 3500 
L 1159 2956 
Q 1366 3272 1645 3428 
Q 1925 3584 2291 3584 
Q 2894 3584 3203 3211 
Q 3513 2838 3513 2113 
z
" transform="scale(0.015625)"/>
       <path id="DejaVuSans-7a" d="M 353 3500 
L 3084 3500 
L 3084 2975 
L 922 459 
L 3084 459 
L 3084 0 
L 275 0 
L 275 525 
L 2438 3041 
L 353 3041 
L 353 3500 
z
" transform="scale(0.015625)"/>
       <path id="DejaVuSans-69" d="M 603 3500 
L 1178 3500 
L 1178 0 
L 603 0 
L 603 3500 
z
M 603 4863 
L 1178 4863 
L 1178 4134 
L 603 4134 
L 603 4863 
z
" transform="scale(0.015625)"/>
       <path id="DejaVuSans-64" d="M 2906 2969 
L 2906 4863 
L 3481 4863 
L 3481 0 
L 2906 0 
L 2906 525 
Q 2725 213 2448 61 
Q 2172 -91 1784 -91 
Q 1150 -91 751 415 
Q 353 922 353 1747 
Q 353 2572 751 3078 
Q 1150 3584 1784 3584 
Q 2172 3584 2448 3432 
Q 2725 3281 2906 2969 
z
M 947 1747 
Q 947 1113 1208 752 
Q 1469 391 1925 391 
Q 2381 391 2643 752 
Q 2906 1113 2906 1747 
Q 2906 2381 2643 2742 
Q 2381 3103 1925 3103 
Q 1469 3103 1208 2742 
Q 947 2381 947 1747 
z
" transform="scale(0.015625)"/>
       <path id="DejaVuSans-65" d="M 3597 1894 
L 3597 1613 
L 953 1613 
Q 991 1019 1311 708 
Q 1631 397 2203 397 
Q 2534 397 2845 478 
Q 3156 559 3463 722 
L 3463 178 
Q 3153 47 2828 -22 
Q 2503 -91 2169 -91 
Q 1331 -91 842 396 
Q 353 884 353 1716 
Q 353 2575 817 3079 
Q 1281 3584 2069 3584 
Q 2775 3584 3186 3129 
Q 3597 2675 3597 1894 
z
M 3022 2063 
Q 3016 2534 2758 2815 
Q 2500 3097 2075 3097 
Q 1594 3097 1305 2825 
Q 1016 2553 972 2059 
L 3022 2063 
z
" transform="scale(0.015625)"/>
       <path id="DejaVuSans-20" transform="scale(0.015625)"/>
       <path id="DejaVuSans-70" d="M 1159 525 
L 1159 -1331 
L 581 -1331 
L 581 3500 
L 1159 3500 
L 1159 2969 
Q 1341 3281 1617 3432 
Q 1894 3584 2278 3584 
Q 2916 3584 3314 3078 
Q 3713 2572 3713 1747 
Q 3713 922 3314 415 
Q 2916 -91 2278 -91 
Q 1894 -91 1617 61 
Q 1341 213 1159 525 
z
M 3116 1747 
Q 3116 2381 2855 2742 
Q 2594 3103 2138 3103 
Q 1681 3103 1420 2742 
Q 1159 2381 1159 1747 
Q 1159 1113 1420 752 
Q 1681 391 2138 391 
Q 2594 391 2855 752 
Q 3116 1113 3116 1747 
z
" transform="scale(0.015625)"/>
       <path id="DejaVuSans-72" d="M 2631 2963 
Q 2534 3019 2420 3045 
Q 2306 3072 2169 3072 
Q 1681 3072 1420 2755 
Q 1159 2438 1159 1844 
L 1159 0 
L 581 0 
L 581 3500 
L 1159 3500 
L 1159 2956 
Q 1341 3275 1631 3429 
Q 1922 3584 2338 3584 
Q 2397 3584 2469 3576 
Q 2541 3569 2628 3553 
L 2631 2963 
z
" transform="scale(0.015625)"/>
       <path id="DejaVuSans-6f" d="M 1959 3097 
Q 1497 3097 1228 2736 
Q 959 2375 959 1747 
Q 959 1119 1226 758 
Q 1494 397 1959 397 
Q 2419 397 2687 759 
Q 2956 1122 2956 1747 
Q 2956 2369 2687 2733 
Q 2419 3097 1959 3097 
z
M 1959 3584 
Q 2709 3584 3137 3096 
Q 3566 2609 3566 1747 
Q 3566 888 3137 398 
Q 2709 -91 1959 -91 
Q 1206 -91 779 398 
Q 353 888 353 1747 
Q 353 2609 779 3096 
Q 1206 3584 1959 3584 
z
" transform="scale(0.015625)"/>
       <path id="DejaVuSans-37" d="M 525 4666 
L 3525 4666 
L 3525 4397 
L 1831 0 
L 1172 0 
L 2766 4134 
L 525 4134 
L 525 4666 
z
" transform="scale(0.015625)"/>
       <path id="DejaVuSans-54" d="M -19 4666 
L 3928 4666 
L 3928 4134 
L 2272 4134 
L 2272 0 
L 1638 0 
L 1638 4134 
L -19 4134 
L -19 4666 
z
" transform="scale(0.015625)"/>
       <path id="DejaVuSans-61" d="M 2194 1759 
Q 1497 1759 1228 1600 
Q 959 1441 959 1056 
Q 959 750 1161 570 
Q 1363 391 1709 391 
Q 2188 391 2477 730 
Q 2766 1069 2766 1631 
L 2766 1759 
L 2194 1759 
z
M 3341 1997 
L 3341 0 
L 2766 0 
L 2766 531 
Q 2569 213 2275 61 
Q 1981 -91 1556 -91 
Q 1019 -91 701 211 
Q 384 513 384 1019 
Q 384 1609 779 1909 
Q 1175 2209 1959 2209 
L 2766 2209 
L 2766 2266 
Q 2766 2663 2505 2880 
Q 2244 3097 1772 3097 
Q 1472 3097 1187 3025 
Q 903 2953 641 2809 
L 641 3341 
Q 956 3463 1253 3523 
Q 1550 3584 1831 3584 
Q 2591 3584 2966 3190 
Q 3341 2797 3341 1997 
z
" transform="scale(0.015625)"/>
       <path id="DejaVuSans-67" d="M 2906 1791 
Q 2906 2416 2648 2759 
Q 2391 3103 1925 3103 
Q 1463 3103 1205 2759 
Q 947 2416 947 1791 
Q 947 1169 1205 825 
Q 1463 481 1925 481 
Q 2391 481 2648 825 
Q 2906 1169 2906 1791 
z
M 3481 434 
Q 3481 -459 3084 -895 
Q 2688 -1331 1869 -1331 
Q 1566 -1331 1297 -1286 
Q 1028 -1241 775 -1147 
L 775 -588 
Q 1028 -725 1275 -790 
Q 1522 -856 1778 -856 
Q 2344 -856 2625 -561 
Q 2906 -266 2906 331 
L 2906 616 
Q 2728 306 2450 153 
Q 2172 0 1784 0 
Q 1141 0 747 490 
Q 353 981 353 1791 
Q 353 2603 747 3093 
Q 1141 3584 1784 3584 
Q 2172 3584 2450 3431 
Q 2728 3278 2906 2969 
L 2906 3500 
L 3481 3500 
L 3481 434 
z
" transform="scale(0.015625)"/>
       <path id="DejaVuSans-45" d="M 628 4666 
L 3578 4666 
L 3578 4134 
L 1259 4134 
L 1259 2753 
L 3481 2753 
L 3481 2222 
L 1259 2222 
L 1259 531 
L 3634 531 
L 3634 0 
L 628 0 
L 628 4666 
z
" transform="scale(0.015625)"/>
       <path id="DejaVuSans-77" d="M 269 3500 
L 844 3500 
L 1563 769 
L 2278 3500 
L 2956 3500 
L 3675 769 
L 4391 3500 
L 4966 3500 
L 4050 0 
L 3372 0 
L 2619 2869 
L 1863 0 
L 1184 0 
L 269 3500 
z
" transform="scale(0.015625)"/>
       <path id="DejaVuSans-68" d="M 3513 2113 
L 3513 0 
L 2938 0 
L 2938 2094 
Q 2938 2591 2744 2837 
Q 2550 3084 2163 3084 
Q 1697 3084 1428 2787 
Q 1159 2491 1159 1978 
L 1159 0 
L 581 0 
L 581 4863 
L 1159 4863 
L 1159 2956 
Q 1366 3272 1645 3428 
Q 1925 3584 2291 3584 
Q 2894 3584 3203 3211 
Q 3513 2838 3513 2113 
z
" transform="scale(0.015625)"/>
      </defs>
      <use xlink:href="#DejaVuSans-49"/>
      <use xlink:href="#DejaVuSans-6e" x="29.492188"/>
      <use xlink:href="#DejaVuSans-7a" x="92.871094"/>
      <use xlink:href="#DejaVuSans-69" x="145.361328"/>
      <use xlink:href="#DejaVuSans-64" x="173.144531"/>
      <use xlink:href="#DejaVuSans-65" x="236.621094"/>
      <use xlink:href="#DejaVuSans-6e" x="298.144531"/>
      <use xlink:href="#DejaVuSans-7a" x="361.523438"/>
      <use xlink:href="#DejaVuSans-20" x="414.013672"/>
      <use xlink:href="#DejaVuSans-70" x="445.800781"/>
      <use xlink:href="#DejaVuSans-72" x="509.277344"/>
      <use xlink:href="#DejaVuSans-6f" x="548.140625"/>
      <use xlink:href="#DejaVuSans-20" x="609.322266"/>
      <use xlink:href="#DejaVuSans-37" x="641.109375"/>
      <use xlink:href="#DejaVuSans-20" x="704.732422"/>
      <use xlink:href="#DejaVuSans-54" x="736.519531"/>
      <use xlink:href="#DejaVuSans-61" x="781.103516"/>
      <use xlink:href="#DejaVuSans-67" x="842.382812"/>
      <use xlink:href="#DejaVuSans-65" x="905.859375"/>
      <use xlink:href="#DejaVuSans-20" x="967.382812"/>
      <use xlink:href="#DejaVuSans-70" x="999.169922"/>
      <use xlink:href="#DejaVuSans-72" x="1062.646484"/>
      <use xlink:href="#DejaVuSans-6f" x="1101.509766"/>
      <use xlink:href="#DejaVuSans-20" x="1162.691406"/>
      <use xlink:href="#DejaVuSans-31" x="1194.478516"/>
      <use xlink:href="#DejaVuSans-30" x="1258.101562"/>
      <use xlink:href="#DejaVuSans-30" x="1321.724609"/>
      <use xlink:href="#DejaVuSans-2e" x="1385.347656"/>
      <use xlink:href="#DejaVuSans-30" x="1417.134766"/>
      <use xlink:href="#DejaVuSans-30" x="1480.757812"/>
      <use xlink:href="#DejaVuSans-30" x="1544.380859"/>
      <use xlink:href="#DejaVuSans-20" x="1608.003906"/>
      <use xlink:href="#DejaVuSans-45" x="1639.791016"/>
      <use xlink:href="#DejaVuSans-69" x="1702.974609"/>
      <use xlink:href="#DejaVuSans-6e" x="1730.757812"/>
      <use xlink:href="#DejaVuSans-77" x="1794.136719"/>
      <use xlink:href="#DejaVuSans-6f" x="1875.923828"/>
      <use xlink:href="#DejaVuSans-68" x="1937.105469"/>
      <use xlink:href="#DejaVuSans-6e" x="2000.484375"/>
      <use xlink:href="#DejaVuSans-65" x="2063.863281"/>
      <use xlink:href="#DejaVuSans-72" x="2125.386719"/>
     </g>
    </g>
   </g>
   <g id="line2d_35">
    <path d="M 73.832727 265.621545 
L 74.343994 265.268997 
L 74.855261 263.682535 
L 75.366528 263.329987 
L 76.900329 263.329987 
L 77.411596 262.97744 
L 77.922863 262.272346 
L 78.43413 263.682535 
L 78.945397 264.035082 
L 79.456664 262.624893 
L 79.967931 262.096072 
L 80.479198 261.919798 
L 80.990465 261.390977 
L 81.501732 259.628241 
L 82.012999 258.746873 
L 82.524266 256.63159 
L 83.035533 257.16041 
L 83.5468 255.045127 
L 84.058067 252.224749 
L 84.569334 245.878898 
L 85.080601 247.112814 
L 85.591868 237.946585 
L 86.103135 233.539744 
L 86.614402 230.89564 
L 87.125669 222.787053 
L 87.636936 224.197242 
L 88.148203 224.549789 
L 88.65947 217.675118 
L 89.170737 224.726063 
L 89.682004 226.312526 
L 90.193271 226.136252 
L 90.704538 228.427809 
L 91.215805 227.01762 
L 92.238339 233.716018 
L 92.749606 233.187197 
L 93.260873 233.716018 
L 93.77214 233.363471 
L 94.283407 235.126207 
L 94.794674 235.478754 
L 95.305941 236.360122 
L 95.817208 238.475406 
L 96.328475 239.356774 
L 96.839742 239.885595 
L 97.351009 240.238142 
L 97.862276 244.644983 
L 98.373543 241.648331 
L 98.88481 242.529699 
L 99.396077 244.468709 
L 99.907344 240.766963 
L 100.418611 238.827953 
L 100.929878 239.1805 
L 101.441145 238.475406 
L 101.952412 240.238142 
L 102.463679 241.472058 
L 102.974946 242.177152 
L 103.99748 247.289087 
L 104.508747 247.641635 
L 105.020014 246.583993 
L 105.531281 249.756918 
L 106.042548 249.756918 
L 106.553815 249.933192 
L 107.065082 251.167107 
L 107.576349 253.458664 
L 108.087616 254.868853 
L 108.598883 257.336684 
L 109.11015 257.336684 
L 109.621417 257.865505 
L 110.132684 257.865505 
L 110.643951 260.157062 
L 111.155218 260.862157 
L 112.177752 263.153714 
L 112.689019 263.682535 
L 113.200286 263.682535 
L 113.711553 263.506261 
L 114.22282 263.153714 
L 114.734087 262.97744 
L 115.245354 263.153714 
L 115.756621 263.682535 
L 116.267888 262.97744 
L 116.779155 263.153714 
L 117.290422 263.153714 
L 117.801689 263.506261 
L 118.312956 264.035082 
L 118.824223 264.211356 
L 119.33549 264.211356 
L 119.846757 264.740176 
L 120.869291 264.740176 
L 121.380558 264.211356 
L 121.891825 264.387629 
L 122.403092 263.858808 
L 122.914359 263.682535 
L 124.44816 264.211356 
L 124.959427 264.91645 
L 125.470694 264.91645 
L 125.981961 265.268997 
L 127.004495 265.621545 
L 129.049563 265.621545 
L 129.56083 265.797818 
L 131.605898 265.797818 
L 132.117165 264.740176 
L 133.139699 264.387629 
L 133.650966 263.858808 
L 134.162233 263.682535 
L 135.184767 263.682535 
L 135.696034 264.387629 
L 136.207301 264.387629 
L 136.718568 264.563903 
L 137.229835 265.092724 
L 137.741102 265.268997 
L 138.252369 265.092724 
L 138.763636 265.092724 
L 139.78617 265.445271 
L 140.297437 265.445271 
L 140.808704 264.740176 
L 141.319971 264.387629 
L 141.831238 264.563903 
L 142.342505 264.387629 
L 142.853772 264.387629 
L 143.365039 264.035082 
L 143.876306 263.858808 
L 144.387573 264.563903 
L 144.89884 264.91645 
L 145.410107 264.740176 
L 146.432641 265.092724 
L 146.943908 264.211356 
L 147.455175 264.035082 
L 148.477709 264.035082 
L 148.988976 264.211356 
L 150.01151 264.211356 
L 150.522777 265.445271 
L 151.034044 265.797818 
L 154.101646 265.797818 
L 155.12418 265.445271 
L 155.635447 265.092724 
L 156.146714 265.092724 
L 156.657981 264.740176 
L 157.169248 264.740176 
L 157.680515 263.153714 
L 158.191782 262.801167 
L 158.703049 262.624893 
L 159.214316 262.97744 
L 159.725583 262.448619 
L 160.23685 262.448619 
L 160.748117 261.214704 
L 161.259384 261.919798 
L 162.281918 261.567251 
L 162.793185 261.214704 
L 163.304452 261.03843 
L 163.815719 260.157062 
L 164.326986 259.804515 
L 164.838253 259.980788 
L 165.34952 259.980788 
L 165.860787 259.804515 
L 166.372054 257.689231 
L 167.394588 258.041779 
L 167.905855 258.923147 
L 168.417122 258.923147 
L 168.928389 259.09942 
L 169.439656 259.628241 
L 169.950923 261.390977 
L 170.46219 261.919798 
L 170.973457 262.624893 
L 171.484724 262.801167 
L 171.995991 263.153714 
L 172.507258 262.97744 
L 173.018525 262.272346 
L 173.529792 262.272346 
L 174.552326 261.919798 
L 175.063593 261.567251 
L 175.57486 261.567251 
L 176.086127 261.743525 
L 176.597394 262.096072 
L 177.108661 262.096072 
L 177.619928 262.272346 
L 178.131195 262.801167 
L 178.642462 263.506261 
L 179.153729 263.329987 
L 179.664996 263.858808 
L 180.176263 264.211356 
L 180.68753 264.740176 
L 181.198797 264.563903 
L 181.710064 264.211356 
L 182.221331 263.682535 
L 182.732598 263.858808 
L 183.243865 263.506261 
L 183.755132 262.801167 
L 184.266399 262.97744 
L 184.777666 262.801167 
L 185.288933 263.153714 
L 185.8002 263.329987 
L 186.311467 262.801167 
L 186.822734 262.448619 
L 187.334001 262.97744 
L 187.845268 262.801167 
L 188.356535 262.97744 
L 188.867802 262.97744 
L 189.379069 262.448619 
L 189.890336 261.743525 
L 190.401603 260.333336 
L 190.91287 258.218052 
L 191.424137 256.984137 
L 191.935404 256.984137 
L 193.469205 252.401023 
L 193.980472 252.75357 
L 194.491739 252.224749 
L 195.003006 252.224749 
L 196.02554 249.228097 
L 196.536807 249.228097 
L 197.559341 242.529699 
L 198.070608 241.648331 
L 198.581875 238.475406 
L 199.093142 234.421113 
L 199.604409 235.302481 
L 200.115676 230.190545 
L 200.626943 228.075262 
L 201.13821 225.07861 
L 201.649477 224.020968 
L 202.160744 224.726063 
L 202.672011 229.661725 
L 203.183278 229.485451 
L 203.694545 227.546441 
L 204.205812 229.661725 
L 204.717079 229.132904 
L 205.228346 228.075262 
L 206.25088 227.01762 
L 206.762147 226.665073 
L 207.273414 227.722715 
L 207.784681 230.719366 
L 208.295948 235.126207 
L 208.807215 236.536396 
L 209.318482 234.77366 
L 209.829749 235.302481 
L 210.341016 234.068565 
L 210.852283 234.949933 
L 211.36355 234.068565 
L 211.874817 234.597386 
L 212.386084 232.129555 
L 212.897351 236.888943 
L 213.408618 233.010923 
L 213.919885 232.482103 
L 214.431152 231.600734 
L 214.942419 229.837998 
L 215.964953 222.258232 
L 216.47622 215.559834 
L 216.987487 216.79375 
L 217.498754 212.563183 
L 218.010021 214.149645 
L 218.521288 212.563183 
L 219.032555 209.03771 
L 219.543822 210.095352 
L 220.055089 210.624173 
L 220.566356 203.22068 
L 221.077623 206.041059 
L 222.100157 199.166387 
L 222.611424 194.230725 
L 223.122691 191.586621 
L 223.633958 192.467989 
L 224.145225 192.644263 
L 224.656492 190.000158 
L 225.679026 187.356054 
L 226.190293 192.115442 
L 226.70156 202.868133 
L 227.212827 208.332616 
L 227.724094 207.0987 
L 228.235361 211.152994 
L 229.257895 209.390257 
L 229.769162 213.620824 
L 230.791696 215.559834 
L 231.302963 211.505541 
L 231.81423 212.210635 
L 232.325497 218.73276 
L 232.836764 220.495496 
L 233.348031 216.088655 
L 233.859298 207.274974 
L 234.370565 204.983417 
L 234.881832 214.149645 
L 235.393099 209.03771 
L 235.904366 205.15969 
L 236.415634 212.034362 
L 237.438168 221.20059 
L 237.949435 221.553138 
L 238.460702 226.488799 
L 238.971969 233.363471 
L 239.483236 233.539744 
L 239.994503 233.363471 
L 240.50577 235.126207 
L 241.017037 234.421113 
L 241.528304 234.421113 
L 242.039571 235.478754 
L 242.550838 234.244839 
L 243.062105 236.007575 
L 243.573372 236.888943 
L 244.084639 238.122859 
L 244.595906 240.590689 
L 245.107173 240.061869 
L 246.129707 238.475406 
L 246.640974 241.295784 
L 247.152241 243.234794 
L 247.663508 244.292436 
L 248.174775 246.407719 
L 248.686042 244.644983 
L 249.197309 244.821257 
L 249.708576 246.231446 
L 250.219843 248.170455 
L 250.73111 247.817908 
L 251.242377 248.699276 
L 251.753644 244.292436 
L 252.264911 245.878898 
L 252.776178 245.173804 
L 253.287445 245.350077 
L 253.798712 246.407719 
L 254.309979 246.407719 
L 254.821246 245.878898 
L 255.332513 249.228097 
L 255.84378 251.343381 
L 256.355047 250.990833 
L 256.866314 251.872202 
L 257.377581 248.170455 
L 257.888848 247.465361 
L 258.400115 247.641635 
L 259.422649 245.350077 
L 259.933916 244.99753 
L 260.445183 244.99753 
L 260.95645 248.699276 
L 261.467717 249.051824 
L 261.978984 249.228097 
L 262.490251 249.228097 
L 263.001518 250.109465 
L 263.512785 252.224749 
L 264.024052 251.343381 
L 264.535319 250.109465 
L 265.046586 249.580644 
L 265.557853 250.285739 
L 266.06912 251.695928 
L 266.580387 252.224749 
L 267.091654 251.695928 
L 268.625455 246.93654 
L 269.136722 245.878898 
L 269.647989 240.238142 
L 270.159256 238.299132 
L 270.670523 238.65168 
L 271.18179 234.421113 
L 271.693057 231.777008 
L 272.204324 229.837998 
L 272.715591 224.902337 
L 273.226858 223.668421 
L 273.738125 219.790401 
L 274.249392 217.146297 
L 274.760659 222.258232 
L 275.271926 218.909033 
L 275.783193 220.67177 
L 276.29446 216.79375 
L 277.316994 226.312526 
L 277.828261 228.427809 
L 278.339528 231.248187 
L 278.850795 233.187197 
L 279.362062 224.197242 
L 279.873329 228.95663 
L 280.384596 227.546441 
L 281.40713 223.844695 
L 282.429664 212.386909 
L 282.940931 217.851392 
L 283.452198 216.264929 
L 283.963465 211.505541 
L 284.474732 211.329267 
L 284.985999 213.092004 
L 285.497266 207.274974 
L 286.008533 198.461293 
L 287.031067 188.766243 
L 287.542334 186.650959 
L 288.053601 182.420392 
L 288.564868 181.362751 
L 289.076135 173.606711 
L 289.587402 176.779636 
L 290.098669 176.95591 
L 290.609936 181.362751 
L 291.121203 180.481383 
L 291.63247 183.125487 
L 292.143737 183.301761 
L 292.655004 184.006855 
L 293.166271 185.945865 
L 293.677538 185.593318 
L 294.188805 181.362751 
L 294.700072 182.067845 
L 295.211339 179.952562 
L 295.722606 181.539024 
L 296.233873 187.003507 
L 296.74514 183.654308 
L 297.256407 183.125487 
L 297.767674 193.173084 
L 298.278941 193.349357 
L 298.790208 198.285019 
L 299.301475 195.464641 
L 299.812742 194.583273 
L 300.835276 211.329267 
L 301.346543 206.569879 
L 301.85781 210.095352 
L 302.369077 209.566531 
L 302.880344 211.505541 
L 303.391611 224.197242 
L 303.902878 230.366819 
L 304.414145 230.543093 
L 304.925412 232.83465 
L 305.436679 238.65168 
L 305.947946 239.1805 
L 306.459213 239.004227 
L 306.97048 238.475406 
L 307.481747 239.533048 
L 308.504281 247.641635 
L 309.015548 249.051824 
L 309.526815 251.519654 
L 310.038082 252.75357 
L 310.549349 252.929843 
L 311.060616 256.984137 
L 311.571883 258.041779 
L 312.08315 258.041779 
L 312.594417 258.746873 
L 313.105684 258.746873 
L 313.616951 259.628241 
L 314.128218 261.390977 
L 314.639485 262.448619 
L 315.150752 262.272346 
L 315.662019 262.97744 
L 316.173286 262.801167 
L 316.684553 262.801167 
L 317.19582 261.919798 
L 317.707087 262.624893 
L 318.218354 262.97744 
L 318.729621 262.97744 
L 319.240888 262.801167 
L 319.752155 263.682535 
L 320.263422 263.682535 
L 320.774689 264.035082 
L 321.797223 263.682535 
L 322.819757 264.387629 
L 323.331024 264.563903 
L 324.353558 264.563903 
L 324.864825 265.092724 
L 325.376092 265.092724 
L 325.887359 265.621545 
L 327.932427 265.621545 
L 329.466228 264.563903 
L 329.977495 264.563903 
L 330.488762 264.035082 
L 331.000029 263.858808 
L 331.511296 263.858808 
L 332.022563 263.682535 
L 333.045097 264.035082 
L 333.556364 264.035082 
L 334.067631 264.211356 
L 334.578898 263.858808 
L 335.601432 263.858808 
L 336.112699 264.035082 
L 336.623966 264.035082 
L 337.135233 263.329987 
L 337.6465 262.97744 
L 338.157767 263.329987 
L 339.180301 262.97744 
L 339.691568 262.97744 
L 340.202835 262.448619 
L 340.714102 262.97744 
L 341.225369 263.153714 
L 341.736636 263.153714 
L 342.247903 262.801167 
L 343.270437 260.509609 
L 343.781704 260.157062 
L 344.292971 258.570599 
L 344.804238 258.218052 
L 345.315505 257.689231 
L 346.338039 255.750221 
L 346.849306 253.811212 
L 347.360573 252.577296 
L 347.87184 253.458664 
L 348.383107 252.224749 
L 348.894374 252.048475 
L 349.405641 253.106117 
L 349.916908 250.109465 
L 350.939442 242.177152 
L 351.450709 239.709321 
L 351.961976 236.536396 
L 352.473243 236.536396 
L 352.98451 235.655028 
L 353.495777 235.302481 
L 354.007044 228.251536 
L 354.518311 228.251536 
L 355.029578 225.959978 
L 355.540845 222.787053 
L 356.052112 221.553138 
L 356.563379 221.20059 
L 357.074646 216.617476 
L 357.585913 219.614128 
L 358.09718 221.376864 
L 358.608447 219.085307 
L 359.119714 219.261581 
L 359.630981 220.319222 
L 360.142248 220.495496 
L 360.653515 219.437854 
L 361.164782 219.437854 
L 361.676049 220.495496 
L 362.698583 229.485451 
L 363.721117 231.071914 
L 364.743651 245.878898 
L 365.254918 246.055172 
L 365.766185 246.760266 
L 366.277452 246.583993 
L 366.788719 244.468709 
L 367.299986 243.05852 
L 368.32252 238.122859 
L 368.833787 236.536396 
L 369.345054 236.536396 
L 369.856321 236.888943 
L 370.367588 237.594038 
L 370.878855 239.004227 
L 371.390122 242.000878 
L 371.901389 240.238142 
L 372.412656 240.766963 
L 372.923923 240.414416 
L 373.43519 241.648331 
L 373.946457 239.885595 
L 374.457724 238.827953 
L 374.968991 235.831302 
L 375.480258 236.71267 
L 375.991525 234.597386 
L 376.502792 235.302481 
L 377.014059 228.95663 
L 377.525326 231.777008 
L 378.036593 230.190545 
L 379.059127 229.485451 
L 379.570394 230.719366 
L 380.081661 229.485451 
L 380.592928 231.248187 
L 381.104195 227.546441 
L 381.615462 227.01762 
L 382.126729 225.254884 
L 383.149263 214.325919 
L 383.66053 210.271626 
L 384.171797 204.807143 
L 384.683064 205.335964 
L 385.194331 207.803795 
L 385.705598 211.329267 
L 386.216865 209.566531 
L 386.728132 197.403651 
L 388.261933 182.420392 
L 388.7732 175.193174 
L 389.284467 164.087935 
L 389.795734 156.331896 
L 390.307001 154.921707 
L 390.818268 142.053732 
L 391.329535 136.765523 
L 391.840802 126.189105 
L 392.352069 130.419672 
L 392.863336 124.602643 
L 393.374603 106.97528 
L 393.88587 99.748061 
L 394.397137 97.103957 
L 394.908404 98.337872 
L 395.419671 97.632778 
L 395.930938 96.575136 
L 396.442205 80.534236 
L 396.953472 78.595226 
L 397.464739 67.313714 
L 397.976006 63.25942 
L 398.487273 52.154182 
L 398.487273 52.154182 
" clip-path="url(#p60293f763c)" style="fill: none; stroke: #1f77b4; stroke-width: 1.5; stroke-linecap: square"/>
   </g>
   <g id="patch_3">
    <path d="M 57.6 276.48 
L 57.6 41.472 
" style="fill: none; stroke: #000000; stroke-width: 0.8; stroke-linejoin: miter; stroke-linecap: square"/>
   </g>
   <g id="patch_4">
    <path d="M 414.72 276.48 
L 414.72 41.472 
" style="fill: none; stroke: #000000; stroke-width: 0.8; stroke-linejoin: miter; stroke-linecap: square"/>
   </g>
   <g id="patch_5">
    <path d="M 57.6 276.48 
L 414.72 276.48 
" style="fill: none; stroke: #000000; stroke-width: 0.8; stroke-linejoin: miter; stroke-linecap: square"/>
   </g>
   <g id="patch_6">
    <path d="M 57.6 41.472 
L 414.72 41.472 
" style="fill: none; stroke: #000000; stroke-width: 0.8; stroke-linejoin: miter; stroke-linecap: square"/>
   </g>
  </g>
  <g id="text_19">
   <!-- Inzidenzverlauf LK Zollernalbkreis -->
   <g transform="translate(78.427969 20.589187)scale(0.18 -0.18)">
    <defs>
     <path id="DejaVuSans-76" d="M 191 3500 
L 800 3500 
L 1894 563 
L 2988 3500 
L 3597 3500 
L 2284 0 
L 1503 0 
L 191 3500 
z
" transform="scale(0.015625)"/>
     <path id="DejaVuSans-6c" d="M 603 4863 
L 1178 4863 
L 1178 0 
L 603 0 
L 603 4863 
z
" transform="scale(0.015625)"/>
     <path id="DejaVuSans-75" d="M 544 1381 
L 544 3500 
L 1119 3500 
L 1119 1403 
Q 1119 906 1312 657 
Q 1506 409 1894 409 
Q 2359 409 2629 706 
Q 2900 1003 2900 1516 
L 2900 3500 
L 3475 3500 
L 3475 0 
L 2900 0 
L 2900 538 
Q 2691 219 2414 64 
Q 2138 -91 1772 -91 
Q 1169 -91 856 284 
Q 544 659 544 1381 
z
M 1991 3584 
L 1991 3584 
z
" transform="scale(0.015625)"/>
     <path id="DejaVuSans-66" d="M 2375 4863 
L 2375 4384 
L 1825 4384 
Q 1516 4384 1395 4259 
Q 1275 4134 1275 3809 
L 1275 3500 
L 2222 3500 
L 2222 3053 
L 1275 3053 
L 1275 0 
L 697 0 
L 697 3053 
L 147 3053 
L 147 3500 
L 697 3500 
L 697 3744 
Q 697 4328 969 4595 
Q 1241 4863 1831 4863 
L 2375 4863 
z
" transform="scale(0.015625)"/>
     <path id="DejaVuSans-4c" d="M 628 4666 
L 1259 4666 
L 1259 531 
L 3531 531 
L 3531 0 
L 628 0 
L 628 4666 
z
" transform="scale(0.015625)"/>
     <path id="DejaVuSans-4b" d="M 628 4666 
L 1259 4666 
L 1259 2694 
L 3353 4666 
L 4166 4666 
L 1850 2491 
L 4331 0 
L 3500 0 
L 1259 2247 
L 1259 0 
L 628 0 
L 628 4666 
z
" transform="scale(0.015625)"/>
     <path id="DejaVuSans-5a" d="M 359 4666 
L 4025 4666 
L 4025 4184 
L 1075 531 
L 4097 531 
L 4097 0 
L 288 0 
L 288 481 
L 3238 4134 
L 359 4134 
L 359 4666 
z
" transform="scale(0.015625)"/>
     <path id="DejaVuSans-62" d="M 3116 1747 
Q 3116 2381 2855 2742 
Q 2594 3103 2138 3103 
Q 1681 3103 1420 2742 
Q 1159 2381 1159 1747 
Q 1159 1113 1420 752 
Q 1681 391 2138 391 
Q 2594 391 2855 752 
Q 3116 1113 3116 1747 
z
M 1159 2969 
Q 1341 3281 1617 3432 
Q 1894 3584 2278 3584 
Q 2916 3584 3314 3078 
Q 3713 2572 3713 1747 
Q 3713 922 3314 415 
Q 2916 -91 2278 -91 
Q 1894 -91 1617 61 
Q 1341 213 1159 525 
L 1159 0 
L 581 0 
L 581 4863 
L 1159 4863 
L 1159 2969 
z
" transform="scale(0.015625)"/>
     <path id="DejaVuSans-6b" d="M 581 4863 
L 1159 4863 
L 1159 1991 
L 2875 3500 
L 3609 3500 
L 1753 1863 
L 3688 0 
L 2938 0 
L 1159 1709 
L 1159 0 
L 581 0 
L 581 4863 
z
" transform="scale(0.015625)"/>
     <path id="DejaVuSans-73" d="M 2834 3397 
L 2834 2853 
Q 2591 2978 2328 3040 
Q 2066 3103 1784 3103 
Q 1356 3103 1142 2972 
Q 928 2841 928 2578 
Q 928 2378 1081 2264 
Q 1234 2150 1697 2047 
L 1894 2003 
Q 2506 1872 2764 1633 
Q 3022 1394 3022 966 
Q 3022 478 2636 193 
Q 2250 -91 1575 -91 
Q 1294 -91 989 -36 
Q 684 19 347 128 
L 347 722 
Q 666 556 975 473 
Q 1284 391 1588 391 
Q 1994 391 2212 530 
Q 2431 669 2431 922 
Q 2431 1156 2273 1281 
Q 2116 1406 1581 1522 
L 1381 1569 
Q 847 1681 609 1914 
Q 372 2147 372 2553 
Q 372 3047 722 3315 
Q 1072 3584 1716 3584 
Q 2034 3584 2315 3537 
Q 2597 3491 2834 3397 
z
" transform="scale(0.015625)"/>
    </defs>
    <use xlink:href="#DejaVuSans-49"/>
    <use xlink:href="#DejaVuSans-6e" x="29.492188"/>
    <use xlink:href="#DejaVuSans-7a" x="92.871094"/>
    <use xlink:href="#DejaVuSans-69" x="145.361328"/>
    <use xlink:href="#DejaVuSans-64" x="173.144531"/>
    <use xlink:href="#DejaVuSans-65" x="236.621094"/>
    <use xlink:href="#DejaVuSans-6e" x="298.144531"/>
    <use xlink:href="#DejaVuSans-7a" x="361.523438"/>
    <use xlink:href="#DejaVuSans-76" x="414.013672"/>
    <use xlink:href="#DejaVuSans-65" x="473.193359"/>
    <use xlink:href="#DejaVuSans-72" x="534.716797"/>
    <use xlink:href="#DejaVuSans-6c" x="575.830078"/>
    <use xlink:href="#DejaVuSans-61" x="603.613281"/>
    <use xlink:href="#DejaVuSans-75" x="664.892578"/>
    <use xlink:href="#DejaVuSans-66" x="728.271484"/>
    <use xlink:href="#DejaVuSans-20" x="763.476562"/>
    <use xlink:href="#DejaVuSans-4c" x="795.263672"/>
    <use xlink:href="#DejaVuSans-4b" x="850.976562"/>
    <use xlink:href="#DejaVuSans-20" x="916.552734"/>
    <use xlink:href="#DejaVuSans-5a" x="948.339844"/>
    <use xlink:href="#DejaVuSans-6f" x="1016.845703"/>
    <use xlink:href="#DejaVuSans-6c" x="1078.027344"/>
    <use xlink:href="#DejaVuSans-6c" x="1105.810547"/>
    <use xlink:href="#DejaVuSans-65" x="1133.59375"/>
    <use xlink:href="#DejaVuSans-72" x="1195.117188"/>
    <use xlink:href="#DejaVuSans-6e" x="1234.480469"/>
    <use xlink:href="#DejaVuSans-61" x="1297.859375"/>
    <use xlink:href="#DejaVuSans-6c" x="1359.138672"/>
    <use xlink:href="#DejaVuSans-62" x="1386.921875"/>
    <use xlink:href="#DejaVuSans-6b" x="1450.398438"/>
    <use xlink:href="#DejaVuSans-72" x="1508.308594"/>
    <use xlink:href="#DejaVuSans-65" x="1547.171875"/>
    <use xlink:href="#DejaVuSans-69" x="1608.695312"/>
    <use xlink:href="#DejaVuSans-73" x="1636.478516"/>
   </g>
  </g>
 </g>
 <defs>
  <clipPath id="p60293f763c">
   <rect x="57.6" y="41.472" width="357.12" height="235.008"/>
  </clipPath>
 </defs>
</svg>
