<?xml version="1.0" encoding="utf-8" standalone="no"?>
<!DOCTYPE svg PUBLIC "-//W3C//DTD SVG 1.1//EN"
  "http://www.w3.org/Graphics/SVG/1.1/DTD/svg11.dtd">
<svg xmlns:xlink="http://www.w3.org/1999/xlink" width="460.8pt" height="345.6pt" viewBox="0 0 460.8 345.6" xmlns="http://www.w3.org/2000/svg" version="1.1">
 <metadata>
  <rdf:RDF xmlns:dc="http://purl.org/dc/elements/1.1/" xmlns:cc="http://creativecommons.org/ns#" xmlns:rdf="http://www.w3.org/1999/02/22-rdf-syntax-ns#">
   <cc:Work>
    <dc:type rdf:resource="http://purl.org/dc/dcmitype/StillImage"/>
    <dc:date>2022-03-13T09:20:36.324849</dc:date>
    <dc:format>image/svg+xml</dc:format>
    <dc:creator>
     <cc:Agent>
      <dc:title>Matplotlib v3.5.1, https://matplotlib.org/</dc:title>
     </cc:Agent>
    </dc:creator>
   </cc:Work>
  </rdf:RDF>
 </metadata>
 <defs>
  <style type="text/css">*{stroke-linejoin: round; stroke-linecap: butt}</style>
 </defs>
 <g id="figure_1">
  <g id="patch_1">
   <path d="M 0 345.6 
L 460.8 345.6 
L 460.8 0 
L 0 0 
z
" style="fill: #ffffff"/>
  </g>
  <g id="axes_1">
   <g id="patch_2">
    <path d="M 57.6 276.48 
L 414.72 276.48 
L 414.72 41.472 
L 57.6 41.472 
z
" style="fill: #ffffff"/>
   </g>
   <g id="matplotlib.axis_1">
    <g id="xtick_1">
     <g id="line2d_1">
      <path d="M 59.48285 276.48 
L 59.48285 41.472 
" clip-path="url(#pccd2950dd7)" style="fill: none; stroke-dasharray: 2.96,1.28; stroke-dashoffset: 0; stroke: #808080; stroke-width: 0.8"/>
     </g>
     <g id="line2d_2">
      <defs>
       <path id="m8259daa14c" d="M 0 0 
L 0 3.5 
" style="stroke: #000000; stroke-width: 0.8"/>
      </defs>
      <g>
       <use xlink:href="#m8259daa14c" x="59.48285" y="276.48" style="stroke: #000000; stroke-width: 0.8"/>
      </g>
     </g>
     <g id="text_1">
      <!-- 30.01.2020 -->
      <g transform="translate(8.857639 318.688565)rotate(-30)scale(0.1 -0.1)">
       <defs>
        <path id="DejaVuSans-33" d="M 2597 2516 
Q 3050 2419 3304 2112 
Q 3559 1806 3559 1356 
Q 3559 666 3084 287 
Q 2609 -91 1734 -91 
Q 1441 -91 1130 -33 
Q 819 25 488 141 
L 488 750 
Q 750 597 1062 519 
Q 1375 441 1716 441 
Q 2309 441 2620 675 
Q 2931 909 2931 1356 
Q 2931 1769 2642 2001 
Q 2353 2234 1838 2234 
L 1294 2234 
L 1294 2753 
L 1863 2753 
Q 2328 2753 2575 2939 
Q 2822 3125 2822 3475 
Q 2822 3834 2567 4026 
Q 2313 4219 1838 4219 
Q 1578 4219 1281 4162 
Q 984 4106 628 3988 
L 628 4550 
Q 988 4650 1302 4700 
Q 1616 4750 1894 4750 
Q 2613 4750 3031 4423 
Q 3450 4097 3450 3541 
Q 3450 3153 3228 2886 
Q 3006 2619 2597 2516 
z
" transform="scale(0.015625)"/>
        <path id="DejaVuSans-30" d="M 2034 4250 
Q 1547 4250 1301 3770 
Q 1056 3291 1056 2328 
Q 1056 1369 1301 889 
Q 1547 409 2034 409 
Q 2525 409 2770 889 
Q 3016 1369 3016 2328 
Q 3016 3291 2770 3770 
Q 2525 4250 2034 4250 
z
M 2034 4750 
Q 2819 4750 3233 4129 
Q 3647 3509 3647 2328 
Q 3647 1150 3233 529 
Q 2819 -91 2034 -91 
Q 1250 -91 836 529 
Q 422 1150 422 2328 
Q 422 3509 836 4129 
Q 1250 4750 2034 4750 
z
" transform="scale(0.015625)"/>
        <path id="DejaVuSans-2e" d="M 684 794 
L 1344 794 
L 1344 0 
L 684 0 
L 684 794 
z
" transform="scale(0.015625)"/>
        <path id="DejaVuSans-31" d="M 794 531 
L 1825 531 
L 1825 4091 
L 703 3866 
L 703 4441 
L 1819 4666 
L 2450 4666 
L 2450 531 
L 3481 531 
L 3481 0 
L 794 0 
L 794 531 
z
" transform="scale(0.015625)"/>
        <path id="DejaVuSans-32" d="M 1228 531 
L 3431 531 
L 3431 0 
L 469 0 
L 469 531 
Q 828 903 1448 1529 
Q 2069 2156 2228 2338 
Q 2531 2678 2651 2914 
Q 2772 3150 2772 3378 
Q 2772 3750 2511 3984 
Q 2250 4219 1831 4219 
Q 1534 4219 1204 4116 
Q 875 4013 500 3803 
L 500 4441 
Q 881 4594 1212 4672 
Q 1544 4750 1819 4750 
Q 2544 4750 2975 4387 
Q 3406 4025 3406 3419 
Q 3406 3131 3298 2873 
Q 3191 2616 2906 2266 
Q 2828 2175 2409 1742 
Q 1991 1309 1228 531 
z
" transform="scale(0.015625)"/>
       </defs>
       <use xlink:href="#DejaVuSans-33"/>
       <use xlink:href="#DejaVuSans-30" x="63.623047"/>
       <use xlink:href="#DejaVuSans-2e" x="127.246094"/>
       <use xlink:href="#DejaVuSans-30" x="159.033203"/>
       <use xlink:href="#DejaVuSans-31" x="222.65625"/>
       <use xlink:href="#DejaVuSans-2e" x="286.279297"/>
       <use xlink:href="#DejaVuSans-32" x="318.066406"/>
       <use xlink:href="#DejaVuSans-30" x="381.689453"/>
       <use xlink:href="#DejaVuSans-32" x="445.3125"/>
       <use xlink:href="#DejaVuSans-30" x="508.935547"/>
      </g>
     </g>
    </g>
    <g id="xtick_2">
     <g id="line2d_3">
      <path d="M 95.458084 276.48 
L 95.458084 41.472 
" clip-path="url(#pccd2950dd7)" style="fill: none; stroke-dasharray: 2.96,1.28; stroke-dashoffset: 0; stroke: #808080; stroke-width: 0.8"/>
     </g>
     <g id="line2d_4">
      <g>
       <use xlink:href="#m8259daa14c" x="95.458084" y="276.48" style="stroke: #000000; stroke-width: 0.8"/>
      </g>
     </g>
     <g id="text_2">
      <!-- 21.04.2020 -->
      <g transform="translate(44.832873 318.688565)rotate(-30)scale(0.1 -0.1)">
       <defs>
        <path id="DejaVuSans-34" d="M 2419 4116 
L 825 1625 
L 2419 1625 
L 2419 4116 
z
M 2253 4666 
L 3047 4666 
L 3047 1625 
L 3713 1625 
L 3713 1100 
L 3047 1100 
L 3047 0 
L 2419 0 
L 2419 1100 
L 313 1100 
L 313 1709 
L 2253 4666 
z
" transform="scale(0.015625)"/>
       </defs>
       <use xlink:href="#DejaVuSans-32"/>
       <use xlink:href="#DejaVuSans-31" x="63.623047"/>
       <use xlink:href="#DejaVuSans-2e" x="127.246094"/>
       <use xlink:href="#DejaVuSans-30" x="159.033203"/>
       <use xlink:href="#DejaVuSans-34" x="222.65625"/>
       <use xlink:href="#DejaVuSans-2e" x="286.279297"/>
       <use xlink:href="#DejaVuSans-32" x="318.066406"/>
       <use xlink:href="#DejaVuSans-30" x="381.689453"/>
       <use xlink:href="#DejaVuSans-32" x="445.3125"/>
       <use xlink:href="#DejaVuSans-30" x="508.935547"/>
      </g>
     </g>
    </g>
    <g id="xtick_3">
     <g id="line2d_5">
      <path d="M 131.433317 276.48 
L 131.433317 41.472 
" clip-path="url(#pccd2950dd7)" style="fill: none; stroke-dasharray: 2.96,1.28; stroke-dashoffset: 0; stroke: #808080; stroke-width: 0.8"/>
     </g>
     <g id="line2d_6">
      <g>
       <use xlink:href="#m8259daa14c" x="131.433317" y="276.48" style="stroke: #000000; stroke-width: 0.8"/>
      </g>
     </g>
     <g id="text_3">
      <!-- 12.07.2020 -->
      <g transform="translate(80.808106 318.688565)rotate(-30)scale(0.1 -0.1)">
       <defs>
        <path id="DejaVuSans-37" d="M 525 4666 
L 3525 4666 
L 3525 4397 
L 1831 0 
L 1172 0 
L 2766 4134 
L 525 4134 
L 525 4666 
z
" transform="scale(0.015625)"/>
       </defs>
       <use xlink:href="#DejaVuSans-31"/>
       <use xlink:href="#DejaVuSans-32" x="63.623047"/>
       <use xlink:href="#DejaVuSans-2e" x="127.246094"/>
       <use xlink:href="#DejaVuSans-30" x="159.033203"/>
       <use xlink:href="#DejaVuSans-37" x="222.65625"/>
       <use xlink:href="#DejaVuSans-2e" x="286.279297"/>
       <use xlink:href="#DejaVuSans-32" x="318.066406"/>
       <use xlink:href="#DejaVuSans-30" x="381.689453"/>
       <use xlink:href="#DejaVuSans-32" x="445.3125"/>
       <use xlink:href="#DejaVuSans-30" x="508.935547"/>
      </g>
     </g>
    </g>
    <g id="xtick_4">
     <g id="line2d_7">
      <path d="M 167.40855 276.48 
L 167.40855 41.472 
" clip-path="url(#pccd2950dd7)" style="fill: none; stroke-dasharray: 2.96,1.28; stroke-dashoffset: 0; stroke: #808080; stroke-width: 0.8"/>
     </g>
     <g id="line2d_8">
      <g>
       <use xlink:href="#m8259daa14c" x="167.40855" y="276.48" style="stroke: #000000; stroke-width: 0.8"/>
      </g>
     </g>
     <g id="text_4">
      <!-- 02.10.2020 -->
      <g transform="translate(116.78334 318.688565)rotate(-30)scale(0.1 -0.1)">
       <use xlink:href="#DejaVuSans-30"/>
       <use xlink:href="#DejaVuSans-32" x="63.623047"/>
       <use xlink:href="#DejaVuSans-2e" x="127.246094"/>
       <use xlink:href="#DejaVuSans-31" x="159.033203"/>
       <use xlink:href="#DejaVuSans-30" x="222.65625"/>
       <use xlink:href="#DejaVuSans-2e" x="286.279297"/>
       <use xlink:href="#DejaVuSans-32" x="318.066406"/>
       <use xlink:href="#DejaVuSans-30" x="381.689453"/>
       <use xlink:href="#DejaVuSans-32" x="445.3125"/>
       <use xlink:href="#DejaVuSans-30" x="508.935547"/>
      </g>
     </g>
    </g>
    <g id="xtick_5">
     <g id="line2d_9">
      <path d="M 203.383784 276.48 
L 203.383784 41.472 
" clip-path="url(#pccd2950dd7)" style="fill: none; stroke-dasharray: 2.96,1.28; stroke-dashoffset: 0; stroke: #808080; stroke-width: 0.8"/>
     </g>
     <g id="line2d_10">
      <g>
       <use xlink:href="#m8259daa14c" x="203.383784" y="276.48" style="stroke: #000000; stroke-width: 0.8"/>
      </g>
     </g>
     <g id="text_5">
      <!-- 23.12.2020 -->
      <g transform="translate(152.758573 318.688565)rotate(-30)scale(0.1 -0.1)">
       <use xlink:href="#DejaVuSans-32"/>
       <use xlink:href="#DejaVuSans-33" x="63.623047"/>
       <use xlink:href="#DejaVuSans-2e" x="127.246094"/>
       <use xlink:href="#DejaVuSans-31" x="159.033203"/>
       <use xlink:href="#DejaVuSans-32" x="222.65625"/>
       <use xlink:href="#DejaVuSans-2e" x="286.279297"/>
       <use xlink:href="#DejaVuSans-32" x="318.066406"/>
       <use xlink:href="#DejaVuSans-30" x="381.689453"/>
       <use xlink:href="#DejaVuSans-32" x="445.3125"/>
       <use xlink:href="#DejaVuSans-30" x="508.935547"/>
      </g>
     </g>
    </g>
    <g id="xtick_6">
     <g id="line2d_11">
      <path d="M 239.359017 276.48 
L 239.359017 41.472 
" clip-path="url(#pccd2950dd7)" style="fill: none; stroke-dasharray: 2.96,1.28; stroke-dashoffset: 0; stroke: #808080; stroke-width: 0.8"/>
     </g>
     <g id="line2d_12">
      <g>
       <use xlink:href="#m8259daa14c" x="239.359017" y="276.48" style="stroke: #000000; stroke-width: 0.8"/>
      </g>
     </g>
     <g id="text_6">
      <!-- 15.03.2021 -->
      <g transform="translate(188.733806 318.688565)rotate(-30)scale(0.1 -0.1)">
       <defs>
        <path id="DejaVuSans-35" d="M 691 4666 
L 3169 4666 
L 3169 4134 
L 1269 4134 
L 1269 2991 
Q 1406 3038 1543 3061 
Q 1681 3084 1819 3084 
Q 2600 3084 3056 2656 
Q 3513 2228 3513 1497 
Q 3513 744 3044 326 
Q 2575 -91 1722 -91 
Q 1428 -91 1123 -41 
Q 819 9 494 109 
L 494 744 
Q 775 591 1075 516 
Q 1375 441 1709 441 
Q 2250 441 2565 725 
Q 2881 1009 2881 1497 
Q 2881 1984 2565 2268 
Q 2250 2553 1709 2553 
Q 1456 2553 1204 2497 
Q 953 2441 691 2322 
L 691 4666 
z
" transform="scale(0.015625)"/>
       </defs>
       <use xlink:href="#DejaVuSans-31"/>
       <use xlink:href="#DejaVuSans-35" x="63.623047"/>
       <use xlink:href="#DejaVuSans-2e" x="127.246094"/>
       <use xlink:href="#DejaVuSans-30" x="159.033203"/>
       <use xlink:href="#DejaVuSans-33" x="222.65625"/>
       <use xlink:href="#DejaVuSans-2e" x="286.279297"/>
       <use xlink:href="#DejaVuSans-32" x="318.066406"/>
       <use xlink:href="#DejaVuSans-30" x="381.689453"/>
       <use xlink:href="#DejaVuSans-32" x="445.3125"/>
       <use xlink:href="#DejaVuSans-31" x="508.935547"/>
      </g>
     </g>
    </g>
    <g id="xtick_7">
     <g id="line2d_13">
      <path d="M 275.334251 276.48 
L 275.334251 41.472 
" clip-path="url(#pccd2950dd7)" style="fill: none; stroke-dasharray: 2.96,1.28; stroke-dashoffset: 0; stroke: #808080; stroke-width: 0.8"/>
     </g>
     <g id="line2d_14">
      <g>
       <use xlink:href="#m8259daa14c" x="275.334251" y="276.48" style="stroke: #000000; stroke-width: 0.8"/>
      </g>
     </g>
     <g id="text_7">
      <!-- 05.06.2021 -->
      <g transform="translate(224.70904 318.688565)rotate(-30)scale(0.1 -0.1)">
       <defs>
        <path id="DejaVuSans-36" d="M 2113 2584 
Q 1688 2584 1439 2293 
Q 1191 2003 1191 1497 
Q 1191 994 1439 701 
Q 1688 409 2113 409 
Q 2538 409 2786 701 
Q 3034 994 3034 1497 
Q 3034 2003 2786 2293 
Q 2538 2584 2113 2584 
z
M 3366 4563 
L 3366 3988 
Q 3128 4100 2886 4159 
Q 2644 4219 2406 4219 
Q 1781 4219 1451 3797 
Q 1122 3375 1075 2522 
Q 1259 2794 1537 2939 
Q 1816 3084 2150 3084 
Q 2853 3084 3261 2657 
Q 3669 2231 3669 1497 
Q 3669 778 3244 343 
Q 2819 -91 2113 -91 
Q 1303 -91 875 529 
Q 447 1150 447 2328 
Q 447 3434 972 4092 
Q 1497 4750 2381 4750 
Q 2619 4750 2861 4703 
Q 3103 4656 3366 4563 
z
" transform="scale(0.015625)"/>
       </defs>
       <use xlink:href="#DejaVuSans-30"/>
       <use xlink:href="#DejaVuSans-35" x="63.623047"/>
       <use xlink:href="#DejaVuSans-2e" x="127.246094"/>
       <use xlink:href="#DejaVuSans-30" x="159.033203"/>
       <use xlink:href="#DejaVuSans-36" x="222.65625"/>
       <use xlink:href="#DejaVuSans-2e" x="286.279297"/>
       <use xlink:href="#DejaVuSans-32" x="318.066406"/>
       <use xlink:href="#DejaVuSans-30" x="381.689453"/>
       <use xlink:href="#DejaVuSans-32" x="445.3125"/>
       <use xlink:href="#DejaVuSans-31" x="508.935547"/>
      </g>
     </g>
    </g>
    <g id="xtick_8">
     <g id="line2d_15">
      <path d="M 311.309484 276.48 
L 311.309484 41.472 
" clip-path="url(#pccd2950dd7)" style="fill: none; stroke-dasharray: 2.96,1.28; stroke-dashoffset: 0; stroke: #808080; stroke-width: 0.8"/>
     </g>
     <g id="line2d_16">
      <g>
       <use xlink:href="#m8259daa14c" x="311.309484" y="276.48" style="stroke: #000000; stroke-width: 0.8"/>
      </g>
     </g>
     <g id="text_8">
      <!-- 26.08.2021 -->
      <g transform="translate(260.684273 318.688565)rotate(-30)scale(0.1 -0.1)">
       <defs>
        <path id="DejaVuSans-38" d="M 2034 2216 
Q 1584 2216 1326 1975 
Q 1069 1734 1069 1313 
Q 1069 891 1326 650 
Q 1584 409 2034 409 
Q 2484 409 2743 651 
Q 3003 894 3003 1313 
Q 3003 1734 2745 1975 
Q 2488 2216 2034 2216 
z
M 1403 2484 
Q 997 2584 770 2862 
Q 544 3141 544 3541 
Q 544 4100 942 4425 
Q 1341 4750 2034 4750 
Q 2731 4750 3128 4425 
Q 3525 4100 3525 3541 
Q 3525 3141 3298 2862 
Q 3072 2584 2669 2484 
Q 3125 2378 3379 2068 
Q 3634 1759 3634 1313 
Q 3634 634 3220 271 
Q 2806 -91 2034 -91 
Q 1263 -91 848 271 
Q 434 634 434 1313 
Q 434 1759 690 2068 
Q 947 2378 1403 2484 
z
M 1172 3481 
Q 1172 3119 1398 2916 
Q 1625 2713 2034 2713 
Q 2441 2713 2670 2916 
Q 2900 3119 2900 3481 
Q 2900 3844 2670 4047 
Q 2441 4250 2034 4250 
Q 1625 4250 1398 4047 
Q 1172 3844 1172 3481 
z
" transform="scale(0.015625)"/>
       </defs>
       <use xlink:href="#DejaVuSans-32"/>
       <use xlink:href="#DejaVuSans-36" x="63.623047"/>
       <use xlink:href="#DejaVuSans-2e" x="127.246094"/>
       <use xlink:href="#DejaVuSans-30" x="159.033203"/>
       <use xlink:href="#DejaVuSans-38" x="222.65625"/>
       <use xlink:href="#DejaVuSans-2e" x="286.279297"/>
       <use xlink:href="#DejaVuSans-32" x="318.066406"/>
       <use xlink:href="#DejaVuSans-30" x="381.689453"/>
       <use xlink:href="#DejaVuSans-32" x="445.3125"/>
       <use xlink:href="#DejaVuSans-31" x="508.935547"/>
      </g>
     </g>
    </g>
    <g id="xtick_9">
     <g id="line2d_17">
      <path d="M 347.284717 276.48 
L 347.284717 41.472 
" clip-path="url(#pccd2950dd7)" style="fill: none; stroke-dasharray: 2.96,1.28; stroke-dashoffset: 0; stroke: #808080; stroke-width: 0.8"/>
     </g>
     <g id="line2d_18">
      <g>
       <use xlink:href="#m8259daa14c" x="347.284717" y="276.48" style="stroke: #000000; stroke-width: 0.8"/>
      </g>
     </g>
     <g id="text_9">
      <!-- 16.11.2021 -->
      <g transform="translate(296.659507 318.688565)rotate(-30)scale(0.1 -0.1)">
       <use xlink:href="#DejaVuSans-31"/>
       <use xlink:href="#DejaVuSans-36" x="63.623047"/>
       <use xlink:href="#DejaVuSans-2e" x="127.246094"/>
       <use xlink:href="#DejaVuSans-31" x="159.033203"/>
       <use xlink:href="#DejaVuSans-31" x="222.65625"/>
       <use xlink:href="#DejaVuSans-2e" x="286.279297"/>
       <use xlink:href="#DejaVuSans-32" x="318.066406"/>
       <use xlink:href="#DejaVuSans-30" x="381.689453"/>
       <use xlink:href="#DejaVuSans-32" x="445.3125"/>
       <use xlink:href="#DejaVuSans-31" x="508.935547"/>
      </g>
     </g>
    </g>
    <g id="xtick_10">
     <g id="line2d_19">
      <path d="M 383.259951 276.48 
L 383.259951 41.472 
" clip-path="url(#pccd2950dd7)" style="fill: none; stroke-dasharray: 2.96,1.28; stroke-dashoffset: 0; stroke: #808080; stroke-width: 0.8"/>
     </g>
     <g id="line2d_20">
      <g>
       <use xlink:href="#m8259daa14c" x="383.259951" y="276.48" style="stroke: #000000; stroke-width: 0.8"/>
      </g>
     </g>
     <g id="text_10">
      <!-- 06.02.2022 -->
      <g transform="translate(332.63474 318.688565)rotate(-30)scale(0.1 -0.1)">
       <use xlink:href="#DejaVuSans-30"/>
       <use xlink:href="#DejaVuSans-36" x="63.623047"/>
       <use xlink:href="#DejaVuSans-2e" x="127.246094"/>
       <use xlink:href="#DejaVuSans-30" x="159.033203"/>
       <use xlink:href="#DejaVuSans-32" x="222.65625"/>
       <use xlink:href="#DejaVuSans-2e" x="286.279297"/>
       <use xlink:href="#DejaVuSans-32" x="318.066406"/>
       <use xlink:href="#DejaVuSans-30" x="381.689453"/>
       <use xlink:href="#DejaVuSans-32" x="445.3125"/>
       <use xlink:href="#DejaVuSans-32" x="508.935547"/>
      </g>
     </g>
    </g>
   </g>
   <g id="matplotlib.axis_2">
    <g id="ytick_1">
     <g id="line2d_21">
      <path d="M 57.6 265.797818 
L 414.72 265.797818 
" clip-path="url(#pccd2950dd7)" style="fill: none; stroke-dasharray: 2.96,1.28; stroke-dashoffset: 0; stroke: #808080; stroke-width: 0.8"/>
     </g>
     <g id="line2d_22">
      <defs>
       <path id="m2c0713ec83" d="M 0 0 
L -3.5 0 
" style="stroke: #000000; stroke-width: 0.8"/>
      </defs>
      <g>
       <use xlink:href="#m2c0713ec83" x="57.6" y="265.797818" style="stroke: #000000; stroke-width: 0.8"/>
      </g>
     </g>
     <g id="text_11">
      <!-- 0 -->
      <g transform="translate(44.2375 269.597037)scale(0.1 -0.1)">
       <use xlink:href="#DejaVuSans-30"/>
      </g>
     </g>
    </g>
    <g id="ytick_2">
     <g id="line2d_23">
      <path d="M 57.6 220.415454 
L 414.72 220.415454 
" clip-path="url(#pccd2950dd7)" style="fill: none; stroke-dasharray: 2.96,1.28; stroke-dashoffset: 0; stroke: #808080; stroke-width: 0.8"/>
     </g>
     <g id="line2d_24">
      <g>
       <use xlink:href="#m2c0713ec83" x="57.6" y="220.415454" style="stroke: #000000; stroke-width: 0.8"/>
      </g>
     </g>
     <g id="text_12">
      <!-- 500 -->
      <g transform="translate(31.5125 224.214673)scale(0.1 -0.1)">
       <use xlink:href="#DejaVuSans-35"/>
       <use xlink:href="#DejaVuSans-30" x="63.623047"/>
       <use xlink:href="#DejaVuSans-30" x="127.246094"/>
      </g>
     </g>
    </g>
    <g id="ytick_3">
     <g id="line2d_25">
      <path d="M 57.6 175.03309 
L 414.72 175.03309 
" clip-path="url(#pccd2950dd7)" style="fill: none; stroke-dasharray: 2.96,1.28; stroke-dashoffset: 0; stroke: #808080; stroke-width: 0.8"/>
     </g>
     <g id="line2d_26">
      <g>
       <use xlink:href="#m2c0713ec83" x="57.6" y="175.03309" style="stroke: #000000; stroke-width: 0.8"/>
      </g>
     </g>
     <g id="text_13">
      <!-- 1000 -->
      <g transform="translate(25.15 178.832308)scale(0.1 -0.1)">
       <use xlink:href="#DejaVuSans-31"/>
       <use xlink:href="#DejaVuSans-30" x="63.623047"/>
       <use xlink:href="#DejaVuSans-30" x="127.246094"/>
       <use xlink:href="#DejaVuSans-30" x="190.869141"/>
      </g>
     </g>
    </g>
    <g id="ytick_4">
     <g id="line2d_27">
      <path d="M 57.6 129.650725 
L 414.72 129.650725 
" clip-path="url(#pccd2950dd7)" style="fill: none; stroke-dasharray: 2.96,1.28; stroke-dashoffset: 0; stroke: #808080; stroke-width: 0.8"/>
     </g>
     <g id="line2d_28">
      <g>
       <use xlink:href="#m2c0713ec83" x="57.6" y="129.650725" style="stroke: #000000; stroke-width: 0.8"/>
      </g>
     </g>
     <g id="text_14">
      <!-- 1500 -->
      <g transform="translate(25.15 133.449944)scale(0.1 -0.1)">
       <use xlink:href="#DejaVuSans-31"/>
       <use xlink:href="#DejaVuSans-35" x="63.623047"/>
       <use xlink:href="#DejaVuSans-30" x="127.246094"/>
       <use xlink:href="#DejaVuSans-30" x="190.869141"/>
      </g>
     </g>
    </g>
    <g id="ytick_5">
     <g id="line2d_29">
      <path d="M 57.6 84.268361 
L 414.72 84.268361 
" clip-path="url(#pccd2950dd7)" style="fill: none; stroke-dasharray: 2.96,1.28; stroke-dashoffset: 0; stroke: #808080; stroke-width: 0.8"/>
     </g>
     <g id="line2d_30">
      <g>
       <use xlink:href="#m2c0713ec83" x="57.6" y="84.268361" style="stroke: #000000; stroke-width: 0.8"/>
      </g>
     </g>
     <g id="text_15">
      <!-- 2000 -->
      <g transform="translate(25.15 88.06758)scale(0.1 -0.1)">
       <use xlink:href="#DejaVuSans-32"/>
       <use xlink:href="#DejaVuSans-30" x="63.623047"/>
       <use xlink:href="#DejaVuSans-30" x="127.246094"/>
       <use xlink:href="#DejaVuSans-30" x="190.869141"/>
      </g>
     </g>
    </g>
    <g id="text_16">
     <!-- Inzidenz pro 7 Tage pro 100.000 Einwohner -->
     <g transform="translate(19.070312 267.301)rotate(-90)scale(0.1 -0.1)">
      <defs>
       <path id="DejaVuSans-49" d="M 628 4666 
L 1259 4666 
L 1259 0 
L 628 0 
L 628 4666 
z
" transform="scale(0.015625)"/>
       <path id="DejaVuSans-6e" d="M 3513 2113 
L 3513 0 
L 2938 0 
L 2938 2094 
Q 2938 2591 2744 2837 
Q 2550 3084 2163 3084 
Q 1697 3084 1428 2787 
Q 1159 2491 1159 1978 
L 1159 0 
L 581 0 
L 581 3500 
L 1159 3500 
L 1159 2956 
Q 1366 3272 1645 3428 
Q 1925 3584 2291 3584 
Q 2894 3584 3203 3211 
Q 3513 2838 3513 2113 
z
" transform="scale(0.015625)"/>
       <path id="DejaVuSans-7a" d="M 353 3500 
L 3084 3500 
L 3084 2975 
L 922 459 
L 3084 459 
L 3084 0 
L 275 0 
L 275 525 
L 2438 3041 
L 353 3041 
L 353 3500 
z
" transform="scale(0.015625)"/>
       <path id="DejaVuSans-69" d="M 603 3500 
L 1178 3500 
L 1178 0 
L 603 0 
L 603 3500 
z
M 603 4863 
L 1178 4863 
L 1178 4134 
L 603 4134 
L 603 4863 
z
" transform="scale(0.015625)"/>
       <path id="DejaVuSans-64" d="M 2906 2969 
L 2906 4863 
L 3481 4863 
L 3481 0 
L 2906 0 
L 2906 525 
Q 2725 213 2448 61 
Q 2172 -91 1784 -91 
Q 1150 -91 751 415 
Q 353 922 353 1747 
Q 353 2572 751 3078 
Q 1150 3584 1784 3584 
Q 2172 3584 2448 3432 
Q 2725 3281 2906 2969 
z
M 947 1747 
Q 947 1113 1208 752 
Q 1469 391 1925 391 
Q 2381 391 2643 752 
Q 2906 1113 2906 1747 
Q 2906 2381 2643 2742 
Q 2381 3103 1925 3103 
Q 1469 3103 1208 2742 
Q 947 2381 947 1747 
z
" transform="scale(0.015625)"/>
       <path id="DejaVuSans-65" d="M 3597 1894 
L 3597 1613 
L 953 1613 
Q 991 1019 1311 708 
Q 1631 397 2203 397 
Q 2534 397 2845 478 
Q 3156 559 3463 722 
L 3463 178 
Q 3153 47 2828 -22 
Q 2503 -91 2169 -91 
Q 1331 -91 842 396 
Q 353 884 353 1716 
Q 353 2575 817 3079 
Q 1281 3584 2069 3584 
Q 2775 3584 3186 3129 
Q 3597 2675 3597 1894 
z
M 3022 2063 
Q 3016 2534 2758 2815 
Q 2500 3097 2075 3097 
Q 1594 3097 1305 2825 
Q 1016 2553 972 2059 
L 3022 2063 
z
" transform="scale(0.015625)"/>
       <path id="DejaVuSans-20" transform="scale(0.015625)"/>
       <path id="DejaVuSans-70" d="M 1159 525 
L 1159 -1331 
L 581 -1331 
L 581 3500 
L 1159 3500 
L 1159 2969 
Q 1341 3281 1617 3432 
Q 1894 3584 2278 3584 
Q 2916 3584 3314 3078 
Q 3713 2572 3713 1747 
Q 3713 922 3314 415 
Q 2916 -91 2278 -91 
Q 1894 -91 1617 61 
Q 1341 213 1159 525 
z
M 3116 1747 
Q 3116 2381 2855 2742 
Q 2594 3103 2138 3103 
Q 1681 3103 1420 2742 
Q 1159 2381 1159 1747 
Q 1159 1113 1420 752 
Q 1681 391 2138 391 
Q 2594 391 2855 752 
Q 3116 1113 3116 1747 
z
" transform="scale(0.015625)"/>
       <path id="DejaVuSans-72" d="M 2631 2963 
Q 2534 3019 2420 3045 
Q 2306 3072 2169 3072 
Q 1681 3072 1420 2755 
Q 1159 2438 1159 1844 
L 1159 0 
L 581 0 
L 581 3500 
L 1159 3500 
L 1159 2956 
Q 1341 3275 1631 3429 
Q 1922 3584 2338 3584 
Q 2397 3584 2469 3576 
Q 2541 3569 2628 3553 
L 2631 2963 
z
" transform="scale(0.015625)"/>
       <path id="DejaVuSans-6f" d="M 1959 3097 
Q 1497 3097 1228 2736 
Q 959 2375 959 1747 
Q 959 1119 1226 758 
Q 1494 397 1959 397 
Q 2419 397 2687 759 
Q 2956 1122 2956 1747 
Q 2956 2369 2687 2733 
Q 2419 3097 1959 3097 
z
M 1959 3584 
Q 2709 3584 3137 3096 
Q 3566 2609 3566 1747 
Q 3566 888 3137 398 
Q 2709 -91 1959 -91 
Q 1206 -91 779 398 
Q 353 888 353 1747 
Q 353 2609 779 3096 
Q 1206 3584 1959 3584 
z
" transform="scale(0.015625)"/>
       <path id="DejaVuSans-54" d="M -19 4666 
L 3928 4666 
L 3928 4134 
L 2272 4134 
L 2272 0 
L 1638 0 
L 1638 4134 
L -19 4134 
L -19 4666 
z
" transform="scale(0.015625)"/>
       <path id="DejaVuSans-61" d="M 2194 1759 
Q 1497 1759 1228 1600 
Q 959 1441 959 1056 
Q 959 750 1161 570 
Q 1363 391 1709 391 
Q 2188 391 2477 730 
Q 2766 1069 2766 1631 
L 2766 1759 
L 2194 1759 
z
M 3341 1997 
L 3341 0 
L 2766 0 
L 2766 531 
Q 2569 213 2275 61 
Q 1981 -91 1556 -91 
Q 1019 -91 701 211 
Q 384 513 384 1019 
Q 384 1609 779 1909 
Q 1175 2209 1959 2209 
L 2766 2209 
L 2766 2266 
Q 2766 2663 2505 2880 
Q 2244 3097 1772 3097 
Q 1472 3097 1187 3025 
Q 903 2953 641 2809 
L 641 3341 
Q 956 3463 1253 3523 
Q 1550 3584 1831 3584 
Q 2591 3584 2966 3190 
Q 3341 2797 3341 1997 
z
" transform="scale(0.015625)"/>
       <path id="DejaVuSans-67" d="M 2906 1791 
Q 2906 2416 2648 2759 
Q 2391 3103 1925 3103 
Q 1463 3103 1205 2759 
Q 947 2416 947 1791 
Q 947 1169 1205 825 
Q 1463 481 1925 481 
Q 2391 481 2648 825 
Q 2906 1169 2906 1791 
z
M 3481 434 
Q 3481 -459 3084 -895 
Q 2688 -1331 1869 -1331 
Q 1566 -1331 1297 -1286 
Q 1028 -1241 775 -1147 
L 775 -588 
Q 1028 -725 1275 -790 
Q 1522 -856 1778 -856 
Q 2344 -856 2625 -561 
Q 2906 -266 2906 331 
L 2906 616 
Q 2728 306 2450 153 
Q 2172 0 1784 0 
Q 1141 0 747 490 
Q 353 981 353 1791 
Q 353 2603 747 3093 
Q 1141 3584 1784 3584 
Q 2172 3584 2450 3431 
Q 2728 3278 2906 2969 
L 2906 3500 
L 3481 3500 
L 3481 434 
z
" transform="scale(0.015625)"/>
       <path id="DejaVuSans-45" d="M 628 4666 
L 3578 4666 
L 3578 4134 
L 1259 4134 
L 1259 2753 
L 3481 2753 
L 3481 2222 
L 1259 2222 
L 1259 531 
L 3634 531 
L 3634 0 
L 628 0 
L 628 4666 
z
" transform="scale(0.015625)"/>
       <path id="DejaVuSans-77" d="M 269 3500 
L 844 3500 
L 1563 769 
L 2278 3500 
L 2956 3500 
L 3675 769 
L 4391 3500 
L 4966 3500 
L 4050 0 
L 3372 0 
L 2619 2869 
L 1863 0 
L 1184 0 
L 269 3500 
z
" transform="scale(0.015625)"/>
       <path id="DejaVuSans-68" d="M 3513 2113 
L 3513 0 
L 2938 0 
L 2938 2094 
Q 2938 2591 2744 2837 
Q 2550 3084 2163 3084 
Q 1697 3084 1428 2787 
Q 1159 2491 1159 1978 
L 1159 0 
L 581 0 
L 581 4863 
L 1159 4863 
L 1159 2956 
Q 1366 3272 1645 3428 
Q 1925 3584 2291 3584 
Q 2894 3584 3203 3211 
Q 3513 2838 3513 2113 
z
" transform="scale(0.015625)"/>
      </defs>
      <use xlink:href="#DejaVuSans-49"/>
      <use xlink:href="#DejaVuSans-6e" x="29.492188"/>
      <use xlink:href="#DejaVuSans-7a" x="92.871094"/>
      <use xlink:href="#DejaVuSans-69" x="145.361328"/>
      <use xlink:href="#DejaVuSans-64" x="173.144531"/>
      <use xlink:href="#DejaVuSans-65" x="236.621094"/>
      <use xlink:href="#DejaVuSans-6e" x="298.144531"/>
      <use xlink:href="#DejaVuSans-7a" x="361.523438"/>
      <use xlink:href="#DejaVuSans-20" x="414.013672"/>
      <use xlink:href="#DejaVuSans-70" x="445.800781"/>
      <use xlink:href="#DejaVuSans-72" x="509.277344"/>
      <use xlink:href="#DejaVuSans-6f" x="548.140625"/>
      <use xlink:href="#DejaVuSans-20" x="609.322266"/>
      <use xlink:href="#DejaVuSans-37" x="641.109375"/>
      <use xlink:href="#DejaVuSans-20" x="704.732422"/>
      <use xlink:href="#DejaVuSans-54" x="736.519531"/>
      <use xlink:href="#DejaVuSans-61" x="781.103516"/>
      <use xlink:href="#DejaVuSans-67" x="842.382812"/>
      <use xlink:href="#DejaVuSans-65" x="905.859375"/>
      <use xlink:href="#DejaVuSans-20" x="967.382812"/>
      <use xlink:href="#DejaVuSans-70" x="999.169922"/>
      <use xlink:href="#DejaVuSans-72" x="1062.646484"/>
      <use xlink:href="#DejaVuSans-6f" x="1101.509766"/>
      <use xlink:href="#DejaVuSans-20" x="1162.691406"/>
      <use xlink:href="#DejaVuSans-31" x="1194.478516"/>
      <use xlink:href="#DejaVuSans-30" x="1258.101562"/>
      <use xlink:href="#DejaVuSans-30" x="1321.724609"/>
      <use xlink:href="#DejaVuSans-2e" x="1385.347656"/>
      <use xlink:href="#DejaVuSans-30" x="1417.134766"/>
      <use xlink:href="#DejaVuSans-30" x="1480.757812"/>
      <use xlink:href="#DejaVuSans-30" x="1544.380859"/>
      <use xlink:href="#DejaVuSans-20" x="1608.003906"/>
      <use xlink:href="#DejaVuSans-45" x="1639.791016"/>
      <use xlink:href="#DejaVuSans-69" x="1702.974609"/>
      <use xlink:href="#DejaVuSans-6e" x="1730.757812"/>
      <use xlink:href="#DejaVuSans-77" x="1794.136719"/>
      <use xlink:href="#DejaVuSans-6f" x="1875.923828"/>
      <use xlink:href="#DejaVuSans-68" x="1937.105469"/>
      <use xlink:href="#DejaVuSans-6e" x="2000.484375"/>
      <use xlink:href="#DejaVuSans-65" x="2063.863281"/>
      <use xlink:href="#DejaVuSans-72" x="2125.386719"/>
     </g>
    </g>
   </g>
   <g id="line2d_31">
    <path d="M 73.832727 265.797818 
L 76.903784 265.736611 
L 79.097396 265.491782 
L 79.536118 265.185746 
L 79.97484 265.185746 
L 82.168452 264.481864 
L 82.607174 264.390053 
L 83.045897 264.053414 
L 83.484619 263.900396 
L 83.923342 263.410738 
L 84.362064 263.104703 
L 84.800786 263.043495 
L 85.239509 262.615045 
L 86.116953 262.584442 
L 86.555676 262.706856 
L 86.994398 263.196513 
L 87.871843 262.768063 
L 88.310565 263.074099 
L 88.749287 263.227117 
L 89.626732 262.921081 
L 90.065455 262.73746 
L 90.504177 263.349531 
L 90.942899 263.533153 
L 92.259066 264.543071 
L 92.697789 264.940918 
L 93.136511 264.7879 
L 94.013956 264.849107 
L 94.452678 264.420657 
L 95.768845 264.328846 
L 96.207568 264.665485 
L 96.64629 264.604278 
L 97.085012 264.757296 
L 97.523735 265.124539 
L 98.401179 265.21635 
L 101.033514 265.491782 
L 103.227125 265.706007 
L 104.10457 265.675404 
L 112.879017 265.6448 
L 113.31774 265.552989 
L 116.827518 265.706007 
L 117.266241 265.706007 
L 117.704963 265.552989 
L 118.582408 265.583593 
L 119.898575 265.614197 
L 120.337297 265.246954 
L 120.77602 265.399972 
L 122.969631 265.338764 
L 123.408354 265.675404 
L 127.356855 265.583593 
L 127.795577 265.491782 
L 128.673022 265.491782 
L 129.111744 265.124539 
L 129.989189 264.940918 
L 130.427912 264.390053 
L 131.744079 264.084017 
L 132.182801 264.328846 
L 132.621523 264.267639 
L 133.060246 264.328846 
L 133.498968 264.818503 
L 134.376413 265.155143 
L 134.815135 265.002125 
L 136.131302 265.063332 
L 136.570025 264.726693 
L 137.008747 264.910314 
L 137.447469 264.910314 
L 137.886192 265.063332 
L 138.324914 264.879711 
L 139.202359 264.940918 
L 139.641081 265.308161 
L 140.957248 265.185746 
L 141.395971 265.491782 
L 141.834693 265.583593 
L 147.099361 265.124539 
L 147.538084 264.665485 
L 147.976806 264.512468 
L 148.415528 263.808585 
L 149.292973 263.318928 
L 149.731695 263.318928 
L 150.170418 263.441342 
L 150.60914 262.82927 
L 151.047862 262.676252 
L 151.486585 262.798667 
L 151.925307 263.043495 
L 152.802752 263.012892 
L 153.241474 262.798667 
L 153.680197 263.839189 
L 154.118919 263.747378 
L 154.557641 263.839189 
L 155.435086 263.441342 
L 156.312531 263.349531 
L 156.751253 263.16591 
L 157.189975 263.349531 
L 157.628698 263.716774 
L 158.06742 263.777981 
L 158.506143 263.961603 
L 159.82231 263.777981 
L 160.699754 263.563756 
L 161.138477 263.59436 
L 162.015921 263.318928 
L 163.770811 264.206432 
L 165.5257 264.573675 
L 165.964423 264.512468 
L 166.403145 264.328846 
L 166.841867 263.808585 
L 167.28059 263.930999 
L 167.719312 263.747378 
L 168.596757 263.59436 
L 169.035479 263.288324 
L 169.474201 263.288324 
L 169.912924 263.441342 
L 170.351646 263.043495 
L 170.790369 263.043495 
L 171.229091 263.16591 
L 171.667813 262.615045 
L 172.106536 261.390902 
L 173.422703 259.554687 
L 173.861425 256.861571 
L 174.300147 255.025356 
L 174.73887 254.321473 
L 175.177592 254.046041 
L 175.616314 253.09733 
L 176.055037 253.066726 
L 176.932482 249.792143 
L 177.371204 249.180071 
L 177.809926 250.220593 
L 178.248649 250.404214 
L 178.687371 248.996449 
L 179.126093 244.65074 
L 179.564816 246.058505 
L 180.003538 243.88565 
L 180.44226 238.101573 
L 180.880983 235.500268 
L 181.319705 234.184313 
L 181.758428 234.276124 
L 182.19715 236.448979 
L 182.635872 230.726108 
L 183.074595 230.664901 
L 183.513317 233.908881 
L 183.952039 235.7757 
L 184.390762 236.051132 
L 185.268206 233.480431 
L 185.706929 236.20415 
L 186.145651 236.081736 
L 186.584373 237.734329 
L 187.023096 237.244672 
L 187.461818 238.040365 
L 187.900541 240.21322 
L 188.339263 238.836059 
L 188.777985 238.744248 
L 189.216708 241.008913 
L 189.65543 241.467967 
L 190.094152 241.376156 
L 190.532875 240.488652 
L 190.971597 239.264509 
L 191.410319 241.07012 
L 191.849042 240.396842 
L 192.287764 240.97831 
L 192.726486 240.549859 
L 193.165209 241.559778 
L 194.042654 241.865814 
L 194.481376 242.141246 
L 194.920098 243.365389 
L 195.358821 243.671425 
L 195.797543 244.375308 
L 196.236265 244.038668 
L 196.674988 244.742551 
L 197.11371 243.732632 
L 197.552432 244.130479 
L 197.991155 243.824443 
L 198.429877 245.07919 
L 198.8686 245.232208 
L 199.307322 244.926172 
L 199.746044 242.69211 
L 200.184767 242.845128 
L 201.062211 242.783921 
L 201.500934 241.620985 
L 201.939656 241.467967 
L 202.378378 241.651589 
L 202.817101 244.283497 
L 203.255823 244.926172 
L 203.694545 243.365389 
L 204.133268 244.956776 
L 205.010713 249.180071 
L 205.888157 250.189989 
L 206.32688 250.496025 
L 206.765602 252.577069 
L 207.204324 252.393447 
L 207.643047 251.505943 
L 208.081769 251.811979 
L 208.959214 250.128782 
L 209.836658 252.424051 
L 210.275381 252.362844 
L 210.714103 253.219744 
L 211.152826 251.04689 
L 212.03027 252.821898 
L 212.468993 252.362844 
L 212.907715 251.444736 
L 213.346437 253.586987 
L 213.78516 253.036123 
L 214.223882 253.495176 
L 214.662604 253.250348 
L 215.101327 253.372762 
L 215.540049 254.872338 
L 215.978771 254.872338 
L 216.417494 254.321473 
L 216.856216 254.260266 
L 217.294939 254.902941 
L 218.172383 254.749924 
L 218.611106 254.076645 
L 219.049828 254.566302 
L 219.48855 254.168455 
L 220.804717 255.637428 
L 221.24344 255.851653 
L 221.682162 256.280103 
L 222.120885 256.310706 
L 222.559607 256.953382 
L 223.437052 257.718471 
L 223.875774 257.473643 
L 224.753219 258.422354 
L 225.630663 260.227965 
L 226.069386 260.625812 
L 226.508108 260.870641 
L 226.94683 261.452109 
L 227.385553 261.146073 
L 228.262998 260.870641 
L 229.140442 260.01374 
L 230.017887 260.044344 
L 230.895332 260.564605 
L 231.334054 261.023659 
L 231.772776 260.993055 
L 232.211499 261.63573 
L 233.088943 260.962452 
L 233.527666 261.054262 
L 233.966388 260.809434 
L 234.405111 260.411587 
L 234.843833 260.748226 
L 235.282555 260.074948 
L 235.721278 259.891326 
L 236.16 259.952533 
L 236.598722 259.493479 
L 237.037445 259.952533 
L 237.476167 259.58529 
L 237.914889 258.881408 
L 238.353612 259.187444 
L 238.792334 259.340461 
L 239.231057 259.034426 
L 239.669779 258.973218 
L 240.108501 257.871489 
L 240.547224 257.626661 
L 241.424668 255.943463 
L 241.863391 255.698635 
L 242.302113 254.964149 
L 242.740835 254.811131 
L 244.057002 253.311555 
L 244.934447 250.159386 
L 245.37317 250.618439 
L 245.811892 249.761539 
L 246.250614 249.608521 
L 246.689337 249.180071 
L 247.128059 249.210674 
L 247.566781 251.505943 
L 248.005504 253.09733 
L 248.444226 252.179222 
L 249.321671 254.535698 
L 249.760393 254.413284 
L 250.199115 252.883105 
L 250.637838 250.312403 
L 251.07656 248.414981 
L 251.515283 248.200756 
L 251.954005 246.670577 
L 252.392727 244.22229 
L 253.708894 239.968391 
L 254.586339 240.947706 
L 255.025061 240.825292 
L 255.463784 240.825292 
L 255.902506 241.83521 
L 256.779951 246.915405 
L 257.218673 246.731784 
L 257.657396 246.242126 
L 258.096118 246.211523 
L 258.53484 247.068423 
L 258.973563 245.874883 
L 259.412285 245.966694 
L 259.851007 247.03782 
L 260.28973 246.976613 
L 260.728452 248.384378 
L 261.167174 249.271882 
L 261.605897 248.690413 
L 262.044619 248.353774 
L 262.483342 249.271882 
L 262.922064 247.711099 
L 263.360786 249.730935 
L 263.799509 248.721017 
L 264.238231 248.506792 
L 264.676953 249.210674 
L 265.115676 252.362844 
L 265.554398 252.821898 
L 265.99312 255.117167 
L 266.431843 254.841734 
L 266.870565 255.453806 
L 267.309287 255.851653 
L 267.74801 256.524932 
L 268.186732 256.892175 
L 268.625455 257.687868 
L 269.064177 257.014589 
L 269.502899 257.137003 
L 270.380344 259.126236 
L 270.819066 260.809434 
L 271.257789 260.564605 
L 271.696511 260.840037 
L 272.135233 261.696938 
L 273.012678 261.941766 
L 273.4514 261.574523 
L 273.890123 261.390902 
L 274.328845 262.492631 
L 274.767568 262.82927 
L 275.20629 263.410738 
L 276.522457 263.257721 
L 276.961179 263.135306 
L 277.399902 262.706856 
L 277.838624 262.584442 
L 278.277346 262.339613 
L 278.716069 262.553838 
L 279.154791 262.615045 
L 280.032236 262.890477 
L 280.470958 263.563756 
L 280.909681 263.808585 
L 282.225848 264.114621 
L 283.542015 264.696089 
L 283.980737 264.726693 
L 284.419459 264.879711 
L 284.858182 264.726693 
L 285.296904 264.726693 
L 285.735627 264.849107 
L 286.174349 264.696089 
L 287.051794 264.726693 
L 287.490516 264.665485 
L 288.367961 264.849107 
L 288.806683 264.849107 
L 289.245405 265.063332 
L 290.561572 264.390053 
L 291.000295 264.420657 
L 291.439017 264.267639 
L 292.316462 263.59436 
L 292.755184 263.716774 
L 293.193907 263.716774 
L 293.632629 263.930999 
L 294.071351 263.808585 
L 294.510074 263.900396 
L 294.948796 264.206432 
L 295.387518 264.145225 
L 295.826241 263.900396 
L 296.264963 263.992207 
L 296.703686 263.441342 
L 297.142408 263.563756 
L 298.019853 263.533153 
L 298.458575 262.125388 
L 298.897297 262.217199 
L 299.33602 261.941766 
L 299.774742 262.492631 
L 300.213464 262.370217 
L 301.090909 261.849956 
L 301.529631 263.043495 
L 302.407076 263.012892 
L 302.845799 262.676252 
L 304.161966 262.921081 
L 305.03941 262.462027 
L 305.478133 262.645649 
L 305.916855 262.553838 
L 306.355577 261.97237 
L 307.233022 261.819352 
L 308.549189 260.656416 
L 308.987912 260.472794 
L 309.865356 259.646497 
L 310.304079 258.330543 
L 311.181523 256.647346 
L 311.620246 254.933545 
L 312.058968 253.86242 
L 312.49769 254.229663 
L 313.375135 252.821898 
L 313.813857 253.433969 
L 314.25258 251.720168 
L 314.691302 252.118015 
L 315.130025 251.47534 
L 315.568747 250.618439 
L 316.007469 250.740854 
L 316.446192 251.016286 
L 316.884914 249.486107 
L 317.323636 251.016286 
L 317.762359 250.251196 
L 318.201081 250.159386 
L 319.078526 250.679647 
L 319.955971 252.638276 
L 320.394693 251.689565 
L 320.833415 252.699483 
L 321.272138 254.137852 
L 321.71086 253.95423 
L 322.588305 255.239581 
L 323.027027 255.729238 
L 323.465749 256.586139 
L 323.904472 256.76976 
L 324.343194 256.402517 
L 324.781916 256.433121 
L 325.220639 256.34131 
L 325.659361 254.902941 
L 326.098084 254.352077 
L 326.536806 254.596906 
L 326.975528 255.208977 
L 327.414251 255.208977 
L 327.852973 255.882256 
L 328.291695 255.361995 
L 328.730418 256.463724 
L 329.16914 256.616742 
L 329.607862 255.943463 
L 330.046585 255.545617 
L 330.485307 255.882256 
L 330.924029 255.91286 
L 331.362752 256.371914 
L 332.240197 255.637428 
L 332.678919 256.830967 
L 333.117641 256.433121 
L 333.556364 255.729238 
L 333.995086 255.606824 
L 334.433808 255.606824 
L 335.311253 254.71932 
L 335.749975 253.127933 
L 336.188698 252.454655 
L 336.62742 251.230511 
L 337.504865 249.975764 
L 337.943587 250.404214 
L 338.38231 249.700332 
L 338.821032 247.680495 
L 340.575921 243.334786 
L 341.014644 243.763236 
L 341.892088 242.233057 
L 342.330811 240.64167 
L 342.769533 238.438212 
L 343.208256 237.030447 
L 343.646978 237.305879 
L 344.0857 233.939485 
L 344.524423 227.66575 
L 345.401867 223.350644 
L 345.84059 220.443303 
L 346.279312 218.851917 
L 346.718034 216.311819 
L 347.156757 215.546729 
L 347.595479 214.445 
L 348.034201 213.006632 
L 348.472924 213.129046 
L 348.911646 209.211787 
L 349.350369 210.894984 
L 349.789091 210.956191 
L 350.227813 210.160498 
L 350.666536 210.894984 
L 351.105258 212.547578 
L 351.54398 210.619552 
L 351.982703 215.97518 
L 352.421425 213.649307 
L 352.860147 213.282064 
L 353.29887 213.832929 
L 353.737592 215.607937 
L 354.176314 213.741118 
L 354.615037 215.607937 
L 355.053759 216.985098 
L 355.931204 222.218311 
L 356.369926 222.89159 
L 356.808649 224.268751 
L 358.563538 233.174395 
L 359.00226 234.000692 
L 359.879705 236.295961 
L 360.75715 241.07012 
L 361.195872 242.049435 
L 362.073317 242.630903 
L 362.512039 243.732632 
L 362.950762 245.997298 
L 363.389484 247.558081 
L 363.828206 247.46627 
L 364.266929 248.65981 
L 364.705651 248.904639 
L 365.583096 248.996449 
L 366.021818 248.874035 
L 367.337985 246.915405 
L 367.776708 246.823595 
L 368.21543 246.915405 
L 368.654152 245.140397 
L 369.531597 239.080887 
L 369.970319 238.070969 
L 371.725209 227.053678 
L 372.163931 219.831231 
L 372.602654 214.598018 
L 373.041376 211.96611 
L 373.480098 206.641086 
L 373.918821 204.100988 
L 374.357543 202.785034 
L 374.796265 199.816486 
L 376.989877 160.796913 
L 377.4286 156.604222 
L 377.867322 154.676196 
L 378.744767 139.741646 
L 379.183489 137.109738 
L 379.622211 119.023018 
L 380.499656 106.230719 
L 380.938378 99.16129 
L 381.815823 74.096953 
L 382.254545 56.224459 
L 382.693268 57.050756 
L 383.13199 57.540413 
L 383.570713 56.622305 
L 384.009435 52.154182 
L 384.448157 68.618911 
L 384.88688 63.23268 
L 385.325602 65.374931 
L 385.764324 74.402989 
L 386.203047 72.934017 
L 386.641769 66.752093 
L 387.080491 67.088732 
L 387.519214 59.1318 
L 388.396658 78.50387 
L 388.835381 78.656888 
L 389.274103 78.473266 
L 389.712826 89.245728 
L 390.151548 96.376364 
L 390.59027 105.526836 
L 391.028993 107.577277 
L 391.467715 112.994111 
L 392.34516 128.540733 
L 392.783882 131.509281 
L 393.222604 133.131271 
L 394.100049 150.055055 
L 394.538771 152.625756 
L 394.977494 152.166702 
L 395.854939 154.614989 
L 396.293661 150.208073 
L 396.732383 144.117959 
L 397.171106 146.535642 
L 397.609828 139.251989 
L 398.04855 128.93858 
L 398.487273 127.194176 
L 398.487273 127.194176 
" clip-path="url(#pccd2950dd7)" style="fill: none; stroke: #1f77b4; stroke-width: 1.5; stroke-linecap: square"/>
   </g>
   <g id="patch_3">
    <path d="M 57.6 276.48 
L 57.6 41.472 
" style="fill: none; stroke: #000000; stroke-width: 0.8; stroke-linejoin: miter; stroke-linecap: square"/>
   </g>
   <g id="patch_4">
    <path d="M 414.72 276.48 
L 414.72 41.472 
" style="fill: none; stroke: #000000; stroke-width: 0.8; stroke-linejoin: miter; stroke-linecap: square"/>
   </g>
   <g id="patch_5">
    <path d="M 57.6 276.48 
L 414.72 276.48 
" style="fill: none; stroke: #000000; stroke-width: 0.8; stroke-linejoin: miter; stroke-linecap: square"/>
   </g>
   <g id="patch_6">
    <path d="M 57.6 41.472 
L 414.72 41.472 
" style="fill: none; stroke: #000000; stroke-width: 0.8; stroke-linejoin: miter; stroke-linecap: square"/>
   </g>
  </g>
  <g id="text_17">
   <!-- Inzidenzverlauf SK Augsburg -->
   <g transform="translate(101.414531 20.589187)scale(0.18 -0.18)">
    <defs>
     <path id="DejaVuSans-76" d="M 191 3500 
L 800 3500 
L 1894 563 
L 2988 3500 
L 3597 3500 
L 2284 0 
L 1503 0 
L 191 3500 
z
" transform="scale(0.015625)"/>
     <path id="DejaVuSans-6c" d="M 603 4863 
L 1178 4863 
L 1178 0 
L 603 0 
L 603 4863 
z
" transform="scale(0.015625)"/>
     <path id="DejaVuSans-75" d="M 544 1381 
L 544 3500 
L 1119 3500 
L 1119 1403 
Q 1119 906 1312 657 
Q 1506 409 1894 409 
Q 2359 409 2629 706 
Q 2900 1003 2900 1516 
L 2900 3500 
L 3475 3500 
L 3475 0 
L 2900 0 
L 2900 538 
Q 2691 219 2414 64 
Q 2138 -91 1772 -91 
Q 1169 -91 856 284 
Q 544 659 544 1381 
z
M 1991 3584 
L 1991 3584 
z
" transform="scale(0.015625)"/>
     <path id="DejaVuSans-66" d="M 2375 4863 
L 2375 4384 
L 1825 4384 
Q 1516 4384 1395 4259 
Q 1275 4134 1275 3809 
L 1275 3500 
L 2222 3500 
L 2222 3053 
L 1275 3053 
L 1275 0 
L 697 0 
L 697 3053 
L 147 3053 
L 147 3500 
L 697 3500 
L 697 3744 
Q 697 4328 969 4595 
Q 1241 4863 1831 4863 
L 2375 4863 
z
" transform="scale(0.015625)"/>
     <path id="DejaVuSans-53" d="M 3425 4513 
L 3425 3897 
Q 3066 4069 2747 4153 
Q 2428 4238 2131 4238 
Q 1616 4238 1336 4038 
Q 1056 3838 1056 3469 
Q 1056 3159 1242 3001 
Q 1428 2844 1947 2747 
L 2328 2669 
Q 3034 2534 3370 2195 
Q 3706 1856 3706 1288 
Q 3706 609 3251 259 
Q 2797 -91 1919 -91 
Q 1588 -91 1214 -16 
Q 841 59 441 206 
L 441 856 
Q 825 641 1194 531 
Q 1563 422 1919 422 
Q 2459 422 2753 634 
Q 3047 847 3047 1241 
Q 3047 1584 2836 1778 
Q 2625 1972 2144 2069 
L 1759 2144 
Q 1053 2284 737 2584 
Q 422 2884 422 3419 
Q 422 4038 858 4394 
Q 1294 4750 2059 4750 
Q 2388 4750 2728 4690 
Q 3069 4631 3425 4513 
z
" transform="scale(0.015625)"/>
     <path id="DejaVuSans-4b" d="M 628 4666 
L 1259 4666 
L 1259 2694 
L 3353 4666 
L 4166 4666 
L 1850 2491 
L 4331 0 
L 3500 0 
L 1259 2247 
L 1259 0 
L 628 0 
L 628 4666 
z
" transform="scale(0.015625)"/>
     <path id="DejaVuSans-41" d="M 2188 4044 
L 1331 1722 
L 3047 1722 
L 2188 4044 
z
M 1831 4666 
L 2547 4666 
L 4325 0 
L 3669 0 
L 3244 1197 
L 1141 1197 
L 716 0 
L 50 0 
L 1831 4666 
z
" transform="scale(0.015625)"/>
     <path id="DejaVuSans-73" d="M 2834 3397 
L 2834 2853 
Q 2591 2978 2328 3040 
Q 2066 3103 1784 3103 
Q 1356 3103 1142 2972 
Q 928 2841 928 2578 
Q 928 2378 1081 2264 
Q 1234 2150 1697 2047 
L 1894 2003 
Q 2506 1872 2764 1633 
Q 3022 1394 3022 966 
Q 3022 478 2636 193 
Q 2250 -91 1575 -91 
Q 1294 -91 989 -36 
Q 684 19 347 128 
L 347 722 
Q 666 556 975 473 
Q 1284 391 1588 391 
Q 1994 391 2212 530 
Q 2431 669 2431 922 
Q 2431 1156 2273 1281 
Q 2116 1406 1581 1522 
L 1381 1569 
Q 847 1681 609 1914 
Q 372 2147 372 2553 
Q 372 3047 722 3315 
Q 1072 3584 1716 3584 
Q 2034 3584 2315 3537 
Q 2597 3491 2834 3397 
z
" transform="scale(0.015625)"/>
     <path id="DejaVuSans-62" d="M 3116 1747 
Q 3116 2381 2855 2742 
Q 2594 3103 2138 3103 
Q 1681 3103 1420 2742 
Q 1159 2381 1159 1747 
Q 1159 1113 1420 752 
Q 1681 391 2138 391 
Q 2594 391 2855 752 
Q 3116 1113 3116 1747 
z
M 1159 2969 
Q 1341 3281 1617 3432 
Q 1894 3584 2278 3584 
Q 2916 3584 3314 3078 
Q 3713 2572 3713 1747 
Q 3713 922 3314 415 
Q 2916 -91 2278 -91 
Q 1894 -91 1617 61 
Q 1341 213 1159 525 
L 1159 0 
L 581 0 
L 581 4863 
L 1159 4863 
L 1159 2969 
z
" transform="scale(0.015625)"/>
    </defs>
    <use xlink:href="#DejaVuSans-49"/>
    <use xlink:href="#DejaVuSans-6e" x="29.492188"/>
    <use xlink:href="#DejaVuSans-7a" x="92.871094"/>
    <use xlink:href="#DejaVuSans-69" x="145.361328"/>
    <use xlink:href="#DejaVuSans-64" x="173.144531"/>
    <use xlink:href="#DejaVuSans-65" x="236.621094"/>
    <use xlink:href="#DejaVuSans-6e" x="298.144531"/>
    <use xlink:href="#DejaVuSans-7a" x="361.523438"/>
    <use xlink:href="#DejaVuSans-76" x="414.013672"/>
    <use xlink:href="#DejaVuSans-65" x="473.193359"/>
    <use xlink:href="#DejaVuSans-72" x="534.716797"/>
    <use xlink:href="#DejaVuSans-6c" x="575.830078"/>
    <use xlink:href="#DejaVuSans-61" x="603.613281"/>
    <use xlink:href="#DejaVuSans-75" x="664.892578"/>
    <use xlink:href="#DejaVuSans-66" x="728.271484"/>
    <use xlink:href="#DejaVuSans-20" x="763.476562"/>
    <use xlink:href="#DejaVuSans-53" x="795.263672"/>
    <use xlink:href="#DejaVuSans-4b" x="858.740234"/>
    <use xlink:href="#DejaVuSans-20" x="924.316406"/>
    <use xlink:href="#DejaVuSans-41" x="956.103516"/>
    <use xlink:href="#DejaVuSans-75" x="1024.511719"/>
    <use xlink:href="#DejaVuSans-67" x="1087.890625"/>
    <use xlink:href="#DejaVuSans-73" x="1151.367188"/>
    <use xlink:href="#DejaVuSans-62" x="1203.466797"/>
    <use xlink:href="#DejaVuSans-75" x="1266.943359"/>
    <use xlink:href="#DejaVuSans-72" x="1330.322266"/>
    <use xlink:href="#DejaVuSans-67" x="1369.685547"/>
   </g>
  </g>
 </g>
 <defs>
  <clipPath id="pccd2950dd7">
   <rect x="57.6" y="41.472" width="357.12" height="235.008"/>
  </clipPath>
 </defs>
</svg>
