<?xml version="1.0" encoding="utf-8" standalone="no"?>
<!DOCTYPE svg PUBLIC "-//W3C//DTD SVG 1.1//EN"
  "http://www.w3.org/Graphics/SVG/1.1/DTD/svg11.dtd">
<svg xmlns:xlink="http://www.w3.org/1999/xlink" width="460.8pt" height="345.6pt" viewBox="0 0 460.8 345.6" xmlns="http://www.w3.org/2000/svg" version="1.1">
 <metadata>
  <rdf:RDF xmlns:dc="http://purl.org/dc/elements/1.1/" xmlns:cc="http://creativecommons.org/ns#" xmlns:rdf="http://www.w3.org/1999/02/22-rdf-syntax-ns#">
   <cc:Work>
    <dc:type rdf:resource="http://purl.org/dc/dcmitype/StillImage"/>
    <dc:date>2022-09-02T09:23:45.418795</dc:date>
    <dc:format>image/svg+xml</dc:format>
    <dc:creator>
     <cc:Agent>
      <dc:title>Matplotlib v3.5.3, https://matplotlib.org/</dc:title>
     </cc:Agent>
    </dc:creator>
   </cc:Work>
  </rdf:RDF>
 </metadata>
 <defs>
  <style type="text/css">*{stroke-linejoin: round; stroke-linecap: butt}</style>
 </defs>
 <g id="figure_1">
  <g id="patch_1">
   <path d="M 0 345.6 
L 460.8 345.6 
L 460.8 0 
L 0 0 
z
" style="fill: #ffffff"/>
  </g>
  <g id="axes_1">
   <g id="patch_2">
    <path d="M 57.6 276.48 
L 414.72 276.48 
L 414.72 41.472 
L 57.6 41.472 
z
" style="fill: #ffffff"/>
   </g>
   <g id="matplotlib.axis_1">
    <g id="xtick_1">
     <g id="line2d_1">
      <path d="M 59.001621 276.48 
L 59.001621 41.472 
" clip-path="url(#p0b72c3f93b)" style="fill: none; stroke-dasharray: 2.96,1.28; stroke-dashoffset: 0; stroke: #808080; stroke-width: 0.8"/>
     </g>
     <g id="line2d_2">
      <defs>
       <path id="m22dd7cd851" d="M 0 0 
L 0 3.5 
" style="stroke: #000000; stroke-width: 0.8"/>
      </defs>
      <g>
       <use xlink:href="#m22dd7cd851" x="59.001621" y="276.48" style="stroke: #000000; stroke-width: 0.8"/>
      </g>
     </g>
     <g id="text_1">
      <!-- 21.01.2020 -->
      <g transform="translate(8.37641 318.688565)rotate(-30)scale(0.1 -0.1)">
       <defs>
        <path id="DejaVuSans-32" d="M 1228 531 
L 3431 531 
L 3431 0 
L 469 0 
L 469 531 
Q 828 903 1448 1529 
Q 2069 2156 2228 2338 
Q 2531 2678 2651 2914 
Q 2772 3150 2772 3378 
Q 2772 3750 2511 3984 
Q 2250 4219 1831 4219 
Q 1534 4219 1204 4116 
Q 875 4013 500 3803 
L 500 4441 
Q 881 4594 1212 4672 
Q 1544 4750 1819 4750 
Q 2544 4750 2975 4387 
Q 3406 4025 3406 3419 
Q 3406 3131 3298 2873 
Q 3191 2616 2906 2266 
Q 2828 2175 2409 1742 
Q 1991 1309 1228 531 
z
" transform="scale(0.015625)"/>
        <path id="DejaVuSans-31" d="M 794 531 
L 1825 531 
L 1825 4091 
L 703 3866 
L 703 4441 
L 1819 4666 
L 2450 4666 
L 2450 531 
L 3481 531 
L 3481 0 
L 794 0 
L 794 531 
z
" transform="scale(0.015625)"/>
        <path id="DejaVuSans-2e" d="M 684 794 
L 1344 794 
L 1344 0 
L 684 0 
L 684 794 
z
" transform="scale(0.015625)"/>
        <path id="DejaVuSans-30" d="M 2034 4250 
Q 1547 4250 1301 3770 
Q 1056 3291 1056 2328 
Q 1056 1369 1301 889 
Q 1547 409 2034 409 
Q 2525 409 2770 889 
Q 3016 1369 3016 2328 
Q 3016 3291 2770 3770 
Q 2525 4250 2034 4250 
z
M 2034 4750 
Q 2819 4750 3233 4129 
Q 3647 3509 3647 2328 
Q 3647 1150 3233 529 
Q 2819 -91 2034 -91 
Q 1250 -91 836 529 
Q 422 1150 422 2328 
Q 422 3509 836 4129 
Q 1250 4750 2034 4750 
z
" transform="scale(0.015625)"/>
       </defs>
       <use xlink:href="#DejaVuSans-32"/>
       <use xlink:href="#DejaVuSans-31" x="63.623047"/>
       <use xlink:href="#DejaVuSans-2e" x="127.246094"/>
       <use xlink:href="#DejaVuSans-30" x="159.033203"/>
       <use xlink:href="#DejaVuSans-31" x="222.65625"/>
       <use xlink:href="#DejaVuSans-2e" x="286.279297"/>
       <use xlink:href="#DejaVuSans-32" x="318.066406"/>
       <use xlink:href="#DejaVuSans-30" x="381.689453"/>
       <use xlink:href="#DejaVuSans-32" x="445.3125"/>
       <use xlink:href="#DejaVuSans-30" x="508.935547"/>
      </g>
     </g>
    </g>
    <g id="xtick_2">
     <g id="line2d_3">
      <path d="M 94.916308 276.48 
L 94.916308 41.472 
" clip-path="url(#p0b72c3f93b)" style="fill: none; stroke-dasharray: 2.96,1.28; stroke-dashoffset: 0; stroke: #808080; stroke-width: 0.8"/>
     </g>
     <g id="line2d_4">
      <g>
       <use xlink:href="#m22dd7cd851" x="94.916308" y="276.48" style="stroke: #000000; stroke-width: 0.8"/>
      </g>
     </g>
     <g id="text_2">
      <!-- 01.05.2020 -->
      <g transform="translate(44.291097 318.688565)rotate(-30)scale(0.1 -0.1)">
       <defs>
        <path id="DejaVuSans-35" d="M 691 4666 
L 3169 4666 
L 3169 4134 
L 1269 4134 
L 1269 2991 
Q 1406 3038 1543 3061 
Q 1681 3084 1819 3084 
Q 2600 3084 3056 2656 
Q 3513 2228 3513 1497 
Q 3513 744 3044 326 
Q 2575 -91 1722 -91 
Q 1428 -91 1123 -41 
Q 819 9 494 109 
L 494 744 
Q 775 591 1075 516 
Q 1375 441 1709 441 
Q 2250 441 2565 725 
Q 2881 1009 2881 1497 
Q 2881 1984 2565 2268 
Q 2250 2553 1709 2553 
Q 1456 2553 1204 2497 
Q 953 2441 691 2322 
L 691 4666 
z
" transform="scale(0.015625)"/>
       </defs>
       <use xlink:href="#DejaVuSans-30"/>
       <use xlink:href="#DejaVuSans-31" x="63.623047"/>
       <use xlink:href="#DejaVuSans-2e" x="127.246094"/>
       <use xlink:href="#DejaVuSans-30" x="159.033203"/>
       <use xlink:href="#DejaVuSans-35" x="222.65625"/>
       <use xlink:href="#DejaVuSans-2e" x="286.279297"/>
       <use xlink:href="#DejaVuSans-32" x="318.066406"/>
       <use xlink:href="#DejaVuSans-30" x="381.689453"/>
       <use xlink:href="#DejaVuSans-32" x="445.3125"/>
       <use xlink:href="#DejaVuSans-30" x="508.935547"/>
      </g>
     </g>
    </g>
    <g id="xtick_3">
     <g id="line2d_5">
      <path d="M 130.830995 276.48 
L 130.830995 41.472 
" clip-path="url(#p0b72c3f93b)" style="fill: none; stroke-dasharray: 2.96,1.28; stroke-dashoffset: 0; stroke: #808080; stroke-width: 0.8"/>
     </g>
     <g id="line2d_6">
      <g>
       <use xlink:href="#m22dd7cd851" x="130.830995" y="276.48" style="stroke: #000000; stroke-width: 0.8"/>
      </g>
     </g>
     <g id="text_3">
      <!-- 10.08.2020 -->
      <g transform="translate(80.205784 318.688565)rotate(-30)scale(0.1 -0.1)">
       <defs>
        <path id="DejaVuSans-38" d="M 2034 2216 
Q 1584 2216 1326 1975 
Q 1069 1734 1069 1313 
Q 1069 891 1326 650 
Q 1584 409 2034 409 
Q 2484 409 2743 651 
Q 3003 894 3003 1313 
Q 3003 1734 2745 1975 
Q 2488 2216 2034 2216 
z
M 1403 2484 
Q 997 2584 770 2862 
Q 544 3141 544 3541 
Q 544 4100 942 4425 
Q 1341 4750 2034 4750 
Q 2731 4750 3128 4425 
Q 3525 4100 3525 3541 
Q 3525 3141 3298 2862 
Q 3072 2584 2669 2484 
Q 3125 2378 3379 2068 
Q 3634 1759 3634 1313 
Q 3634 634 3220 271 
Q 2806 -91 2034 -91 
Q 1263 -91 848 271 
Q 434 634 434 1313 
Q 434 1759 690 2068 
Q 947 2378 1403 2484 
z
M 1172 3481 
Q 1172 3119 1398 2916 
Q 1625 2713 2034 2713 
Q 2441 2713 2670 2916 
Q 2900 3119 2900 3481 
Q 2900 3844 2670 4047 
Q 2441 4250 2034 4250 
Q 1625 4250 1398 4047 
Q 1172 3844 1172 3481 
z
" transform="scale(0.015625)"/>
       </defs>
       <use xlink:href="#DejaVuSans-31"/>
       <use xlink:href="#DejaVuSans-30" x="63.623047"/>
       <use xlink:href="#DejaVuSans-2e" x="127.246094"/>
       <use xlink:href="#DejaVuSans-30" x="159.033203"/>
       <use xlink:href="#DejaVuSans-38" x="222.65625"/>
       <use xlink:href="#DejaVuSans-2e" x="286.279297"/>
       <use xlink:href="#DejaVuSans-32" x="318.066406"/>
       <use xlink:href="#DejaVuSans-30" x="381.689453"/>
       <use xlink:href="#DejaVuSans-32" x="445.3125"/>
       <use xlink:href="#DejaVuSans-30" x="508.935547"/>
      </g>
     </g>
    </g>
    <g id="xtick_4">
     <g id="line2d_7">
      <path d="M 166.745682 276.48 
L 166.745682 41.472 
" clip-path="url(#p0b72c3f93b)" style="fill: none; stroke-dasharray: 2.96,1.28; stroke-dashoffset: 0; stroke: #808080; stroke-width: 0.8"/>
     </g>
     <g id="line2d_8">
      <g>
       <use xlink:href="#m22dd7cd851" x="166.745682" y="276.48" style="stroke: #000000; stroke-width: 0.8"/>
      </g>
     </g>
     <g id="text_4">
      <!-- 19.11.2020 -->
      <g transform="translate(116.120471 318.688565)rotate(-30)scale(0.1 -0.1)">
       <defs>
        <path id="DejaVuSans-39" d="M 703 97 
L 703 672 
Q 941 559 1184 500 
Q 1428 441 1663 441 
Q 2288 441 2617 861 
Q 2947 1281 2994 2138 
Q 2813 1869 2534 1725 
Q 2256 1581 1919 1581 
Q 1219 1581 811 2004 
Q 403 2428 403 3163 
Q 403 3881 828 4315 
Q 1253 4750 1959 4750 
Q 2769 4750 3195 4129 
Q 3622 3509 3622 2328 
Q 3622 1225 3098 567 
Q 2575 -91 1691 -91 
Q 1453 -91 1209 -44 
Q 966 3 703 97 
z
M 1959 2075 
Q 2384 2075 2632 2365 
Q 2881 2656 2881 3163 
Q 2881 3666 2632 3958 
Q 2384 4250 1959 4250 
Q 1534 4250 1286 3958 
Q 1038 3666 1038 3163 
Q 1038 2656 1286 2365 
Q 1534 2075 1959 2075 
z
" transform="scale(0.015625)"/>
       </defs>
       <use xlink:href="#DejaVuSans-31"/>
       <use xlink:href="#DejaVuSans-39" x="63.623047"/>
       <use xlink:href="#DejaVuSans-2e" x="127.246094"/>
       <use xlink:href="#DejaVuSans-31" x="159.033203"/>
       <use xlink:href="#DejaVuSans-31" x="222.65625"/>
       <use xlink:href="#DejaVuSans-2e" x="286.279297"/>
       <use xlink:href="#DejaVuSans-32" x="318.066406"/>
       <use xlink:href="#DejaVuSans-30" x="381.689453"/>
       <use xlink:href="#DejaVuSans-32" x="445.3125"/>
       <use xlink:href="#DejaVuSans-30" x="508.935547"/>
      </g>
     </g>
    </g>
    <g id="xtick_5">
     <g id="line2d_9">
      <path d="M 202.660368 276.48 
L 202.660368 41.472 
" clip-path="url(#p0b72c3f93b)" style="fill: none; stroke-dasharray: 2.96,1.28; stroke-dashoffset: 0; stroke: #808080; stroke-width: 0.8"/>
     </g>
     <g id="line2d_10">
      <g>
       <use xlink:href="#m22dd7cd851" x="202.660368" y="276.48" style="stroke: #000000; stroke-width: 0.8"/>
      </g>
     </g>
     <g id="text_5">
      <!-- 28.02.2021 -->
      <g transform="translate(152.035158 318.688565)rotate(-30)scale(0.1 -0.1)">
       <use xlink:href="#DejaVuSans-32"/>
       <use xlink:href="#DejaVuSans-38" x="63.623047"/>
       <use xlink:href="#DejaVuSans-2e" x="127.246094"/>
       <use xlink:href="#DejaVuSans-30" x="159.033203"/>
       <use xlink:href="#DejaVuSans-32" x="222.65625"/>
       <use xlink:href="#DejaVuSans-2e" x="286.279297"/>
       <use xlink:href="#DejaVuSans-32" x="318.066406"/>
       <use xlink:href="#DejaVuSans-30" x="381.689453"/>
       <use xlink:href="#DejaVuSans-32" x="445.3125"/>
       <use xlink:href="#DejaVuSans-31" x="508.935547"/>
      </g>
     </g>
    </g>
    <g id="xtick_6">
     <g id="line2d_11">
      <path d="M 238.575055 276.48 
L 238.575055 41.472 
" clip-path="url(#p0b72c3f93b)" style="fill: none; stroke-dasharray: 2.96,1.28; stroke-dashoffset: 0; stroke: #808080; stroke-width: 0.8"/>
     </g>
     <g id="line2d_12">
      <g>
       <use xlink:href="#m22dd7cd851" x="238.575055" y="276.48" style="stroke: #000000; stroke-width: 0.8"/>
      </g>
     </g>
     <g id="text_6">
      <!-- 09.06.2021 -->
      <g transform="translate(187.949844 318.688565)rotate(-30)scale(0.1 -0.1)">
       <defs>
        <path id="DejaVuSans-36" d="M 2113 2584 
Q 1688 2584 1439 2293 
Q 1191 2003 1191 1497 
Q 1191 994 1439 701 
Q 1688 409 2113 409 
Q 2538 409 2786 701 
Q 3034 994 3034 1497 
Q 3034 2003 2786 2293 
Q 2538 2584 2113 2584 
z
M 3366 4563 
L 3366 3988 
Q 3128 4100 2886 4159 
Q 2644 4219 2406 4219 
Q 1781 4219 1451 3797 
Q 1122 3375 1075 2522 
Q 1259 2794 1537 2939 
Q 1816 3084 2150 3084 
Q 2853 3084 3261 2657 
Q 3669 2231 3669 1497 
Q 3669 778 3244 343 
Q 2819 -91 2113 -91 
Q 1303 -91 875 529 
Q 447 1150 447 2328 
Q 447 3434 972 4092 
Q 1497 4750 2381 4750 
Q 2619 4750 2861 4703 
Q 3103 4656 3366 4563 
z
" transform="scale(0.015625)"/>
       </defs>
       <use xlink:href="#DejaVuSans-30"/>
       <use xlink:href="#DejaVuSans-39" x="63.623047"/>
       <use xlink:href="#DejaVuSans-2e" x="127.246094"/>
       <use xlink:href="#DejaVuSans-30" x="159.033203"/>
       <use xlink:href="#DejaVuSans-36" x="222.65625"/>
       <use xlink:href="#DejaVuSans-2e" x="286.279297"/>
       <use xlink:href="#DejaVuSans-32" x="318.066406"/>
       <use xlink:href="#DejaVuSans-30" x="381.689453"/>
       <use xlink:href="#DejaVuSans-32" x="445.3125"/>
       <use xlink:href="#DejaVuSans-31" x="508.935547"/>
      </g>
     </g>
    </g>
    <g id="xtick_7">
     <g id="line2d_13">
      <path d="M 274.489742 276.48 
L 274.489742 41.472 
" clip-path="url(#p0b72c3f93b)" style="fill: none; stroke-dasharray: 2.96,1.28; stroke-dashoffset: 0; stroke: #808080; stroke-width: 0.8"/>
     </g>
     <g id="line2d_14">
      <g>
       <use xlink:href="#m22dd7cd851" x="274.489742" y="276.48" style="stroke: #000000; stroke-width: 0.8"/>
      </g>
     </g>
     <g id="text_7">
      <!-- 18.09.2021 -->
      <g transform="translate(223.864531 318.688565)rotate(-30)scale(0.1 -0.1)">
       <use xlink:href="#DejaVuSans-31"/>
       <use xlink:href="#DejaVuSans-38" x="63.623047"/>
       <use xlink:href="#DejaVuSans-2e" x="127.246094"/>
       <use xlink:href="#DejaVuSans-30" x="159.033203"/>
       <use xlink:href="#DejaVuSans-39" x="222.65625"/>
       <use xlink:href="#DejaVuSans-2e" x="286.279297"/>
       <use xlink:href="#DejaVuSans-32" x="318.066406"/>
       <use xlink:href="#DejaVuSans-30" x="381.689453"/>
       <use xlink:href="#DejaVuSans-32" x="445.3125"/>
       <use xlink:href="#DejaVuSans-31" x="508.935547"/>
      </g>
     </g>
    </g>
    <g id="xtick_8">
     <g id="line2d_15">
      <path d="M 310.404429 276.48 
L 310.404429 41.472 
" clip-path="url(#p0b72c3f93b)" style="fill: none; stroke-dasharray: 2.96,1.28; stroke-dashoffset: 0; stroke: #808080; stroke-width: 0.8"/>
     </g>
     <g id="line2d_16">
      <g>
       <use xlink:href="#m22dd7cd851" x="310.404429" y="276.48" style="stroke: #000000; stroke-width: 0.8"/>
      </g>
     </g>
     <g id="text_8">
      <!-- 28.12.2021 -->
      <g transform="translate(259.779218 318.688565)rotate(-30)scale(0.1 -0.1)">
       <use xlink:href="#DejaVuSans-32"/>
       <use xlink:href="#DejaVuSans-38" x="63.623047"/>
       <use xlink:href="#DejaVuSans-2e" x="127.246094"/>
       <use xlink:href="#DejaVuSans-31" x="159.033203"/>
       <use xlink:href="#DejaVuSans-32" x="222.65625"/>
       <use xlink:href="#DejaVuSans-2e" x="286.279297"/>
       <use xlink:href="#DejaVuSans-32" x="318.066406"/>
       <use xlink:href="#DejaVuSans-30" x="381.689453"/>
       <use xlink:href="#DejaVuSans-32" x="445.3125"/>
       <use xlink:href="#DejaVuSans-31" x="508.935547"/>
      </g>
     </g>
    </g>
    <g id="xtick_9">
     <g id="line2d_17">
      <path d="M 346.319116 276.48 
L 346.319116 41.472 
" clip-path="url(#p0b72c3f93b)" style="fill: none; stroke-dasharray: 2.96,1.28; stroke-dashoffset: 0; stroke: #808080; stroke-width: 0.8"/>
     </g>
     <g id="line2d_18">
      <g>
       <use xlink:href="#m22dd7cd851" x="346.319116" y="276.48" style="stroke: #000000; stroke-width: 0.8"/>
      </g>
     </g>
     <g id="text_9">
      <!-- 08.04.2022 -->
      <g transform="translate(295.693905 318.688565)rotate(-30)scale(0.1 -0.1)">
       <defs>
        <path id="DejaVuSans-34" d="M 2419 4116 
L 825 1625 
L 2419 1625 
L 2419 4116 
z
M 2253 4666 
L 3047 4666 
L 3047 1625 
L 3713 1625 
L 3713 1100 
L 3047 1100 
L 3047 0 
L 2419 0 
L 2419 1100 
L 313 1100 
L 313 1709 
L 2253 4666 
z
" transform="scale(0.015625)"/>
       </defs>
       <use xlink:href="#DejaVuSans-30"/>
       <use xlink:href="#DejaVuSans-38" x="63.623047"/>
       <use xlink:href="#DejaVuSans-2e" x="127.246094"/>
       <use xlink:href="#DejaVuSans-30" x="159.033203"/>
       <use xlink:href="#DejaVuSans-34" x="222.65625"/>
       <use xlink:href="#DejaVuSans-2e" x="286.279297"/>
       <use xlink:href="#DejaVuSans-32" x="318.066406"/>
       <use xlink:href="#DejaVuSans-30" x="381.689453"/>
       <use xlink:href="#DejaVuSans-32" x="445.3125"/>
       <use xlink:href="#DejaVuSans-32" x="508.935547"/>
      </g>
     </g>
    </g>
    <g id="xtick_10">
     <g id="line2d_19">
      <path d="M 382.233803 276.48 
L 382.233803 41.472 
" clip-path="url(#p0b72c3f93b)" style="fill: none; stroke-dasharray: 2.96,1.28; stroke-dashoffset: 0; stroke: #808080; stroke-width: 0.8"/>
     </g>
     <g id="line2d_20">
      <g>
       <use xlink:href="#m22dd7cd851" x="382.233803" y="276.48" style="stroke: #000000; stroke-width: 0.8"/>
      </g>
     </g>
     <g id="text_10">
      <!-- 18.07.2022 -->
      <g transform="translate(331.608592 318.688565)rotate(-30)scale(0.1 -0.1)">
       <defs>
        <path id="DejaVuSans-37" d="M 525 4666 
L 3525 4666 
L 3525 4397 
L 1831 0 
L 1172 0 
L 2766 4134 
L 525 4134 
L 525 4666 
z
" transform="scale(0.015625)"/>
       </defs>
       <use xlink:href="#DejaVuSans-31"/>
       <use xlink:href="#DejaVuSans-38" x="63.623047"/>
       <use xlink:href="#DejaVuSans-2e" x="127.246094"/>
       <use xlink:href="#DejaVuSans-30" x="159.033203"/>
       <use xlink:href="#DejaVuSans-37" x="222.65625"/>
       <use xlink:href="#DejaVuSans-2e" x="286.279297"/>
       <use xlink:href="#DejaVuSans-32" x="318.066406"/>
       <use xlink:href="#DejaVuSans-30" x="381.689453"/>
       <use xlink:href="#DejaVuSans-32" x="445.3125"/>
       <use xlink:href="#DejaVuSans-32" x="508.935547"/>
      </g>
     </g>
    </g>
   </g>
   <g id="matplotlib.axis_2">
    <g id="ytick_1">
     <g id="line2d_21">
      <path d="M 57.6 265.797818 
L 414.72 265.797818 
" clip-path="url(#p0b72c3f93b)" style="fill: none; stroke-dasharray: 2.96,1.28; stroke-dashoffset: 0; stroke: #808080; stroke-width: 0.8"/>
     </g>
     <g id="line2d_22">
      <defs>
       <path id="md000fe13ce" d="M 0 0 
L -3.5 0 
" style="stroke: #000000; stroke-width: 0.8"/>
      </defs>
      <g>
       <use xlink:href="#md000fe13ce" x="57.6" y="265.797818" style="stroke: #000000; stroke-width: 0.8"/>
      </g>
     </g>
     <g id="text_11">
      <!-- 0 -->
      <g transform="translate(44.2375 269.597037)scale(0.1 -0.1)">
       <use xlink:href="#DejaVuSans-30"/>
      </g>
     </g>
    </g>
    <g id="ytick_2">
     <g id="line2d_23">
      <path d="M 57.6 220.395943 
L 414.72 220.395943 
" clip-path="url(#p0b72c3f93b)" style="fill: none; stroke-dasharray: 2.96,1.28; stroke-dashoffset: 0; stroke: #808080; stroke-width: 0.8"/>
     </g>
     <g id="line2d_24">
      <g>
       <use xlink:href="#md000fe13ce" x="57.6" y="220.395943" style="stroke: #000000; stroke-width: 0.8"/>
      </g>
     </g>
     <g id="text_12">
      <!-- 500 -->
      <g transform="translate(31.5125 224.195162)scale(0.1 -0.1)">
       <use xlink:href="#DejaVuSans-35"/>
       <use xlink:href="#DejaVuSans-30" x="63.623047"/>
       <use xlink:href="#DejaVuSans-30" x="127.246094"/>
      </g>
     </g>
    </g>
    <g id="ytick_3">
     <g id="line2d_25">
      <path d="M 57.6 174.994068 
L 414.72 174.994068 
" clip-path="url(#p0b72c3f93b)" style="fill: none; stroke-dasharray: 2.96,1.28; stroke-dashoffset: 0; stroke: #808080; stroke-width: 0.8"/>
     </g>
     <g id="line2d_26">
      <g>
       <use xlink:href="#md000fe13ce" x="57.6" y="174.994068" style="stroke: #000000; stroke-width: 0.8"/>
      </g>
     </g>
     <g id="text_13">
      <!-- 1000 -->
      <g transform="translate(25.15 178.793287)scale(0.1 -0.1)">
       <use xlink:href="#DejaVuSans-31"/>
       <use xlink:href="#DejaVuSans-30" x="63.623047"/>
       <use xlink:href="#DejaVuSans-30" x="127.246094"/>
       <use xlink:href="#DejaVuSans-30" x="190.869141"/>
      </g>
     </g>
    </g>
    <g id="ytick_4">
     <g id="line2d_27">
      <path d="M 57.6 129.592193 
L 414.72 129.592193 
" clip-path="url(#p0b72c3f93b)" style="fill: none; stroke-dasharray: 2.96,1.28; stroke-dashoffset: 0; stroke: #808080; stroke-width: 0.8"/>
     </g>
     <g id="line2d_28">
      <g>
       <use xlink:href="#md000fe13ce" x="57.6" y="129.592193" style="stroke: #000000; stroke-width: 0.8"/>
      </g>
     </g>
     <g id="text_14">
      <!-- 1500 -->
      <g transform="translate(25.15 133.391411)scale(0.1 -0.1)">
       <use xlink:href="#DejaVuSans-31"/>
       <use xlink:href="#DejaVuSans-35" x="63.623047"/>
       <use xlink:href="#DejaVuSans-30" x="127.246094"/>
       <use xlink:href="#DejaVuSans-30" x="190.869141"/>
      </g>
     </g>
    </g>
    <g id="ytick_5">
     <g id="line2d_29">
      <path d="M 57.6 84.190318 
L 414.72 84.190318 
" clip-path="url(#p0b72c3f93b)" style="fill: none; stroke-dasharray: 2.96,1.28; stroke-dashoffset: 0; stroke: #808080; stroke-width: 0.8"/>
     </g>
     <g id="line2d_30">
      <g>
       <use xlink:href="#md000fe13ce" x="57.6" y="84.190318" style="stroke: #000000; stroke-width: 0.8"/>
      </g>
     </g>
     <g id="text_15">
      <!-- 2000 -->
      <g transform="translate(25.15 87.989536)scale(0.1 -0.1)">
       <use xlink:href="#DejaVuSans-32"/>
       <use xlink:href="#DejaVuSans-30" x="63.623047"/>
       <use xlink:href="#DejaVuSans-30" x="127.246094"/>
       <use xlink:href="#DejaVuSans-30" x="190.869141"/>
      </g>
     </g>
    </g>
    <g id="text_16">
     <!-- Inzidenz pro 7 Tage pro 100.000 Einwohner -->
     <g transform="translate(19.070312 267.301)rotate(-90)scale(0.1 -0.1)">
      <defs>
       <path id="DejaVuSans-49" d="M 628 4666 
L 1259 4666 
L 1259 0 
L 628 0 
L 628 4666 
z
" transform="scale(0.015625)"/>
       <path id="DejaVuSans-6e" d="M 3513 2113 
L 3513 0 
L 2938 0 
L 2938 2094 
Q 2938 2591 2744 2837 
Q 2550 3084 2163 3084 
Q 1697 3084 1428 2787 
Q 1159 2491 1159 1978 
L 1159 0 
L 581 0 
L 581 3500 
L 1159 3500 
L 1159 2956 
Q 1366 3272 1645 3428 
Q 1925 3584 2291 3584 
Q 2894 3584 3203 3211 
Q 3513 2838 3513 2113 
z
" transform="scale(0.015625)"/>
       <path id="DejaVuSans-7a" d="M 353 3500 
L 3084 3500 
L 3084 2975 
L 922 459 
L 3084 459 
L 3084 0 
L 275 0 
L 275 525 
L 2438 3041 
L 353 3041 
L 353 3500 
z
" transform="scale(0.015625)"/>
       <path id="DejaVuSans-69" d="M 603 3500 
L 1178 3500 
L 1178 0 
L 603 0 
L 603 3500 
z
M 603 4863 
L 1178 4863 
L 1178 4134 
L 603 4134 
L 603 4863 
z
" transform="scale(0.015625)"/>
       <path id="DejaVuSans-64" d="M 2906 2969 
L 2906 4863 
L 3481 4863 
L 3481 0 
L 2906 0 
L 2906 525 
Q 2725 213 2448 61 
Q 2172 -91 1784 -91 
Q 1150 -91 751 415 
Q 353 922 353 1747 
Q 353 2572 751 3078 
Q 1150 3584 1784 3584 
Q 2172 3584 2448 3432 
Q 2725 3281 2906 2969 
z
M 947 1747 
Q 947 1113 1208 752 
Q 1469 391 1925 391 
Q 2381 391 2643 752 
Q 2906 1113 2906 1747 
Q 2906 2381 2643 2742 
Q 2381 3103 1925 3103 
Q 1469 3103 1208 2742 
Q 947 2381 947 1747 
z
" transform="scale(0.015625)"/>
       <path id="DejaVuSans-65" d="M 3597 1894 
L 3597 1613 
L 953 1613 
Q 991 1019 1311 708 
Q 1631 397 2203 397 
Q 2534 397 2845 478 
Q 3156 559 3463 722 
L 3463 178 
Q 3153 47 2828 -22 
Q 2503 -91 2169 -91 
Q 1331 -91 842 396 
Q 353 884 353 1716 
Q 353 2575 817 3079 
Q 1281 3584 2069 3584 
Q 2775 3584 3186 3129 
Q 3597 2675 3597 1894 
z
M 3022 2063 
Q 3016 2534 2758 2815 
Q 2500 3097 2075 3097 
Q 1594 3097 1305 2825 
Q 1016 2553 972 2059 
L 3022 2063 
z
" transform="scale(0.015625)"/>
       <path id="DejaVuSans-20" transform="scale(0.015625)"/>
       <path id="DejaVuSans-70" d="M 1159 525 
L 1159 -1331 
L 581 -1331 
L 581 3500 
L 1159 3500 
L 1159 2969 
Q 1341 3281 1617 3432 
Q 1894 3584 2278 3584 
Q 2916 3584 3314 3078 
Q 3713 2572 3713 1747 
Q 3713 922 3314 415 
Q 2916 -91 2278 -91 
Q 1894 -91 1617 61 
Q 1341 213 1159 525 
z
M 3116 1747 
Q 3116 2381 2855 2742 
Q 2594 3103 2138 3103 
Q 1681 3103 1420 2742 
Q 1159 2381 1159 1747 
Q 1159 1113 1420 752 
Q 1681 391 2138 391 
Q 2594 391 2855 752 
Q 3116 1113 3116 1747 
z
" transform="scale(0.015625)"/>
       <path id="DejaVuSans-72" d="M 2631 2963 
Q 2534 3019 2420 3045 
Q 2306 3072 2169 3072 
Q 1681 3072 1420 2755 
Q 1159 2438 1159 1844 
L 1159 0 
L 581 0 
L 581 3500 
L 1159 3500 
L 1159 2956 
Q 1341 3275 1631 3429 
Q 1922 3584 2338 3584 
Q 2397 3584 2469 3576 
Q 2541 3569 2628 3553 
L 2631 2963 
z
" transform="scale(0.015625)"/>
       <path id="DejaVuSans-6f" d="M 1959 3097 
Q 1497 3097 1228 2736 
Q 959 2375 959 1747 
Q 959 1119 1226 758 
Q 1494 397 1959 397 
Q 2419 397 2687 759 
Q 2956 1122 2956 1747 
Q 2956 2369 2687 2733 
Q 2419 3097 1959 3097 
z
M 1959 3584 
Q 2709 3584 3137 3096 
Q 3566 2609 3566 1747 
Q 3566 888 3137 398 
Q 2709 -91 1959 -91 
Q 1206 -91 779 398 
Q 353 888 353 1747 
Q 353 2609 779 3096 
Q 1206 3584 1959 3584 
z
" transform="scale(0.015625)"/>
       <path id="DejaVuSans-54" d="M -19 4666 
L 3928 4666 
L 3928 4134 
L 2272 4134 
L 2272 0 
L 1638 0 
L 1638 4134 
L -19 4134 
L -19 4666 
z
" transform="scale(0.015625)"/>
       <path id="DejaVuSans-61" d="M 2194 1759 
Q 1497 1759 1228 1600 
Q 959 1441 959 1056 
Q 959 750 1161 570 
Q 1363 391 1709 391 
Q 2188 391 2477 730 
Q 2766 1069 2766 1631 
L 2766 1759 
L 2194 1759 
z
M 3341 1997 
L 3341 0 
L 2766 0 
L 2766 531 
Q 2569 213 2275 61 
Q 1981 -91 1556 -91 
Q 1019 -91 701 211 
Q 384 513 384 1019 
Q 384 1609 779 1909 
Q 1175 2209 1959 2209 
L 2766 2209 
L 2766 2266 
Q 2766 2663 2505 2880 
Q 2244 3097 1772 3097 
Q 1472 3097 1187 3025 
Q 903 2953 641 2809 
L 641 3341 
Q 956 3463 1253 3523 
Q 1550 3584 1831 3584 
Q 2591 3584 2966 3190 
Q 3341 2797 3341 1997 
z
" transform="scale(0.015625)"/>
       <path id="DejaVuSans-67" d="M 2906 1791 
Q 2906 2416 2648 2759 
Q 2391 3103 1925 3103 
Q 1463 3103 1205 2759 
Q 947 2416 947 1791 
Q 947 1169 1205 825 
Q 1463 481 1925 481 
Q 2391 481 2648 825 
Q 2906 1169 2906 1791 
z
M 3481 434 
Q 3481 -459 3084 -895 
Q 2688 -1331 1869 -1331 
Q 1566 -1331 1297 -1286 
Q 1028 -1241 775 -1147 
L 775 -588 
Q 1028 -725 1275 -790 
Q 1522 -856 1778 -856 
Q 2344 -856 2625 -561 
Q 2906 -266 2906 331 
L 2906 616 
Q 2728 306 2450 153 
Q 2172 0 1784 0 
Q 1141 0 747 490 
Q 353 981 353 1791 
Q 353 2603 747 3093 
Q 1141 3584 1784 3584 
Q 2172 3584 2450 3431 
Q 2728 3278 2906 2969 
L 2906 3500 
L 3481 3500 
L 3481 434 
z
" transform="scale(0.015625)"/>
       <path id="DejaVuSans-45" d="M 628 4666 
L 3578 4666 
L 3578 4134 
L 1259 4134 
L 1259 2753 
L 3481 2753 
L 3481 2222 
L 1259 2222 
L 1259 531 
L 3634 531 
L 3634 0 
L 628 0 
L 628 4666 
z
" transform="scale(0.015625)"/>
       <path id="DejaVuSans-77" d="M 269 3500 
L 844 3500 
L 1563 769 
L 2278 3500 
L 2956 3500 
L 3675 769 
L 4391 3500 
L 4966 3500 
L 4050 0 
L 3372 0 
L 2619 2869 
L 1863 0 
L 1184 0 
L 269 3500 
z
" transform="scale(0.015625)"/>
       <path id="DejaVuSans-68" d="M 3513 2113 
L 3513 0 
L 2938 0 
L 2938 2094 
Q 2938 2591 2744 2837 
Q 2550 3084 2163 3084 
Q 1697 3084 1428 2787 
Q 1159 2491 1159 1978 
L 1159 0 
L 581 0 
L 581 4863 
L 1159 4863 
L 1159 2956 
Q 1366 3272 1645 3428 
Q 1925 3584 2291 3584 
Q 2894 3584 3203 3211 
Q 3513 2838 3513 2113 
z
" transform="scale(0.015625)"/>
      </defs>
      <use xlink:href="#DejaVuSans-49"/>
      <use xlink:href="#DejaVuSans-6e" x="29.492188"/>
      <use xlink:href="#DejaVuSans-7a" x="92.871094"/>
      <use xlink:href="#DejaVuSans-69" x="145.361328"/>
      <use xlink:href="#DejaVuSans-64" x="173.144531"/>
      <use xlink:href="#DejaVuSans-65" x="236.621094"/>
      <use xlink:href="#DejaVuSans-6e" x="298.144531"/>
      <use xlink:href="#DejaVuSans-7a" x="361.523438"/>
      <use xlink:href="#DejaVuSans-20" x="414.013672"/>
      <use xlink:href="#DejaVuSans-70" x="445.800781"/>
      <use xlink:href="#DejaVuSans-72" x="509.277344"/>
      <use xlink:href="#DejaVuSans-6f" x="548.140625"/>
      <use xlink:href="#DejaVuSans-20" x="609.322266"/>
      <use xlink:href="#DejaVuSans-37" x="641.109375"/>
      <use xlink:href="#DejaVuSans-20" x="704.732422"/>
      <use xlink:href="#DejaVuSans-54" x="736.519531"/>
      <use xlink:href="#DejaVuSans-61" x="781.103516"/>
      <use xlink:href="#DejaVuSans-67" x="842.382812"/>
      <use xlink:href="#DejaVuSans-65" x="905.859375"/>
      <use xlink:href="#DejaVuSans-20" x="967.382812"/>
      <use xlink:href="#DejaVuSans-70" x="999.169922"/>
      <use xlink:href="#DejaVuSans-72" x="1062.646484"/>
      <use xlink:href="#DejaVuSans-6f" x="1101.509766"/>
      <use xlink:href="#DejaVuSans-20" x="1162.691406"/>
      <use xlink:href="#DejaVuSans-31" x="1194.478516"/>
      <use xlink:href="#DejaVuSans-30" x="1258.101562"/>
      <use xlink:href="#DejaVuSans-30" x="1321.724609"/>
      <use xlink:href="#DejaVuSans-2e" x="1385.347656"/>
      <use xlink:href="#DejaVuSans-30" x="1417.134766"/>
      <use xlink:href="#DejaVuSans-30" x="1480.757812"/>
      <use xlink:href="#DejaVuSans-30" x="1544.380859"/>
      <use xlink:href="#DejaVuSans-20" x="1608.003906"/>
      <use xlink:href="#DejaVuSans-45" x="1639.791016"/>
      <use xlink:href="#DejaVuSans-69" x="1702.974609"/>
      <use xlink:href="#DejaVuSans-6e" x="1730.757812"/>
      <use xlink:href="#DejaVuSans-77" x="1794.136719"/>
      <use xlink:href="#DejaVuSans-6f" x="1875.923828"/>
      <use xlink:href="#DejaVuSans-68" x="1937.105469"/>
      <use xlink:href="#DejaVuSans-6e" x="2000.484375"/>
      <use xlink:href="#DejaVuSans-65" x="2063.863281"/>
      <use xlink:href="#DejaVuSans-72" x="2125.386719"/>
     </g>
    </g>
   </g>
   <g id="line2d_31">
    <path d="M 73.832727 265.797818 
L 76.321864 265.736585 
L 78.099819 265.491651 
L 78.45541 265.185483 
L 78.811001 265.185483 
L 80.588955 264.481298 
L 80.944546 264.389448 
L 81.300137 264.052664 
L 81.655728 263.89958 
L 82.36691 263.103545 
L 82.722501 263.042311 
L 83.078092 262.613677 
L 83.789274 262.58306 
L 84.144865 262.705527 
L 84.500456 263.195395 
L 85.211638 262.766761 
L 85.567229 263.072928 
L 85.92282 263.226012 
L 86.634002 262.919844 
L 86.989593 262.736144 
L 87.345184 263.348479 
L 88.056366 263.838347 
L 88.411957 264.083281 
L 89.123139 264.940549 
L 89.478729 264.787466 
L 90.189911 264.848699 
L 90.545502 264.420065 
L 91.612275 264.328214 
L 91.967866 264.664999 
L 92.323457 264.603765 
L 92.679048 264.756849 
L 93.034639 265.12425 
L 93.745821 265.2161 
L 95.879367 265.491651 
L 97.657322 265.705968 
L 98.368503 265.675351 
L 105.480323 265.644734 
L 105.835914 265.552884 
L 108.680641 265.705968 
L 109.036232 265.705968 
L 109.391823 265.552884 
L 110.103005 265.583501 
L 111.169778 265.614118 
L 111.525369 265.246717 
L 111.88096 265.399801 
L 113.658915 265.338567 
L 114.014506 265.675351 
L 117.214824 265.583501 
L 117.570415 265.491651 
L 118.281597 265.491651 
L 118.637188 265.12425 
L 119.34837 264.940549 
L 119.703961 264.389448 
L 120.770734 264.083281 
L 121.126325 264.328214 
L 121.481916 264.266981 
L 121.837507 264.328214 
L 122.193098 264.818082 
L 122.90428 265.154867 
L 123.259871 265.001783 
L 124.326643 265.063016 
L 124.682234 264.726232 
L 125.037825 264.909933 
L 125.393416 264.909933 
L 125.749007 265.063016 
L 126.104598 264.879316 
L 126.81578 264.940549 
L 127.171371 265.30795 
L 128.238144 265.185483 
L 128.593735 265.491651 
L 128.949326 265.583501 
L 133.216417 265.12425 
L 133.572008 264.664999 
L 133.927599 264.511915 
L 134.28319 263.80773 
L 134.994372 263.317862 
L 135.349963 263.317862 
L 135.705554 263.440329 
L 136.061145 262.827994 
L 136.416736 262.67491 
L 136.772327 262.797377 
L 137.127918 263.042311 
L 137.8391 263.011695 
L 138.194691 262.797377 
L 138.550282 263.838347 
L 138.905873 263.746496 
L 139.261464 263.838347 
L 139.972646 263.440329 
L 140.683828 263.348479 
L 141.039419 263.164778 
L 141.395009 263.348479 
L 141.7506 263.71588 
L 142.106191 263.777113 
L 142.461782 263.960814 
L 143.528555 263.777113 
L 144.239737 263.562796 
L 144.595328 263.593413 
L 145.30651 263.317862 
L 146.728874 264.205748 
L 148.151238 264.573148 
L 148.506829 264.511915 
L 148.86242 264.328214 
L 149.218011 263.80773 
L 149.573602 263.930197 
L 150.284783 263.685263 
L 150.640374 263.593413 
L 150.995965 263.287245 
L 151.351556 263.287245 
L 151.707147 263.440329 
L 152.062738 263.042311 
L 152.418329 263.042311 
L 152.77392 263.164778 
L 153.129511 262.613677 
L 153.485102 261.389007 
L 154.551875 259.552003 
L 154.907466 256.857729 
L 155.263057 255.020724 
L 155.618648 254.316539 
L 155.974239 254.040989 
L 156.32983 253.09187 
L 156.685421 253.061253 
L 157.396603 249.785261 
L 157.752194 249.172926 
L 158.107785 250.213896 
L 158.463375 250.397596 
L 158.818966 248.989226 
L 159.174557 244.641648 
L 159.530148 246.050019 
L 159.885739 243.87623 
L 160.24133 238.089665 
L 160.596921 235.487242 
L 160.952512 234.170722 
L 161.308103 234.262572 
L 161.663694 236.436361 
L 162.019285 230.71103 
L 162.374876 230.649797 
L 162.730467 233.895171 
L 163.086058 235.762793 
L 163.441649 236.038343 
L 164.152831 233.466537 
L 164.508422 236.191427 
L 164.864013 236.06896 
L 165.219604 237.722264 
L 165.575195 237.232396 
L 165.930786 238.028432 
L 166.286377 240.202221 
L 166.641968 238.824467 
L 166.997558 238.732617 
L 167.353149 240.998256 
L 167.70874 241.457507 
L 168.064331 241.365657 
L 168.419922 240.477771 
L 168.775513 239.253102 
L 169.131104 241.059489 
L 169.486695 240.385921 
L 169.842286 240.967639 
L 170.197877 240.539005 
L 170.553468 241.549357 
L 171.26465 241.855525 
L 171.620241 242.131075 
L 171.975832 243.355745 
L 172.331423 243.661913 
L 172.687014 244.366098 
L 173.042605 244.029314 
L 173.398196 244.733499 
L 173.753787 243.723146 
L 174.109378 244.121164 
L 174.464969 243.814996 
L 174.82056 245.070283 
L 175.176151 245.223367 
L 175.531742 244.917199 
L 175.887332 242.682177 
L 176.242923 242.835261 
L 176.954105 242.774027 
L 177.309696 241.610591 
L 177.665287 241.457507 
L 178.020878 241.641208 
L 178.376469 244.274247 
L 178.73206 244.917199 
L 179.087651 243.355745 
L 179.443242 244.947816 
L 180.154424 249.172926 
L 180.865606 250.183279 
L 181.221197 250.489446 
L 181.576788 252.571385 
L 181.932379 252.387685 
L 182.28797 251.499799 
L 182.643561 251.805966 
L 183.354743 250.122045 
L 184.065925 252.418301 
L 184.421515 252.357068 
L 184.777106 253.214337 
L 185.132697 251.040548 
L 185.843879 252.816319 
L 186.19947 252.357068 
L 186.555061 251.438565 
L 186.910652 253.581738 
L 187.266243 253.030636 
L 187.621834 253.489887 
L 187.977425 253.244953 
L 188.333016 253.36742 
L 188.688607 254.867641 
L 189.044198 254.867641 
L 189.399789 254.316539 
L 189.75538 254.255306 
L 190.110971 254.898257 
L 190.822153 254.745174 
L 191.177744 254.071605 
L 191.533335 254.561473 
L 191.888926 254.163456 
L 192.955698 255.633059 
L 193.311289 255.847377 
L 193.66688 256.276011 
L 194.022471 256.306628 
L 194.733653 257.378214 
L 195.089244 257.714998 
L 195.444835 257.470064 
L 196.156017 258.419183 
L 196.867199 260.225571 
L 197.933972 261.450241 
L 198.289563 261.144073 
L 199.000745 260.868522 
L 199.711927 260.011254 
L 200.423109 260.04187 
L 201.134291 260.562355 
L 201.489882 261.021606 
L 201.845472 260.990989 
L 202.201063 261.633941 
L 202.912245 260.960373 
L 203.267836 261.052223 
L 203.623427 260.807289 
L 203.979018 260.409271 
L 204.334609 260.746055 
L 204.6902 260.072487 
L 205.045791 259.888787 
L 205.401382 259.95002 
L 205.756973 259.490769 
L 206.112564 259.95002 
L 206.468155 259.582619 
L 206.823746 258.878434 
L 207.179337 259.184602 
L 207.534928 259.337685 
L 207.890519 259.031518 
L 208.24611 258.970284 
L 208.601701 257.868082 
L 208.957292 257.623148 
L 209.668474 255.939227 
L 210.024065 255.694293 
L 210.379655 254.959491 
L 210.735246 254.806407 
L 211.802019 253.306187 
L 212.513201 250.152662 
L 212.868792 250.611913 
L 213.224383 249.754645 
L 213.579974 249.601561 
L 213.935565 249.172926 
L 214.291156 249.203543 
L 215.002338 253.09187 
L 215.357929 252.173367 
L 216.069111 254.530857 
L 216.424702 254.40839 
L 216.780293 252.877552 
L 217.491475 248.407508 
L 217.847066 248.193191 
L 218.202657 246.662353 
L 218.558248 244.213014 
L 219.62502 239.957287 
L 220.336202 240.937022 
L 220.691793 240.814555 
L 221.047384 240.814555 
L 221.402975 241.824908 
L 222.114157 246.907287 
L 222.469748 246.723587 
L 222.825339 246.233719 
L 223.18093 246.203102 
L 223.536521 247.060371 
L 223.892112 245.866318 
L 224.247703 245.958168 
L 224.603294 247.029754 
L 224.958885 246.968521 
L 225.314476 248.376891 
L 225.670067 249.264777 
L 226.025658 248.683059 
L 226.381249 248.346274 
L 226.73684 249.264777 
L 227.092431 247.703323 
L 227.448022 249.724028 
L 227.803612 248.713675 
L 228.159203 248.499358 
L 228.514794 249.203543 
L 228.870385 252.357068 
L 229.225976 252.816319 
L 229.581567 255.112575 
L 229.937158 254.837024 
L 231.003931 256.520945 
L 231.359522 256.888346 
L 231.715113 257.684381 
L 232.070704 257.010813 
L 232.426295 257.13328 
L 233.137477 259.123368 
L 233.493068 260.807289 
L 233.848659 260.562355 
L 234.20425 260.837906 
L 234.559841 261.695175 
L 235.271023 261.940108 
L 235.626614 261.572708 
L 235.982205 261.389007 
L 236.337795 262.49121 
L 236.693386 262.827994 
L 237.048977 263.409712 
L 238.11575 263.256628 
L 238.471341 263.134161 
L 238.826932 262.705527 
L 239.182523 262.58306 
L 239.538114 262.338126 
L 239.893705 262.552443 
L 240.249296 262.613677 
L 240.960478 262.889228 
L 241.316069 263.562796 
L 241.67166 263.80773 
L 242.738433 264.113897 
L 244.160797 264.726232 
L 244.516388 264.879316 
L 244.871978 264.726232 
L 245.227569 264.726232 
L 245.58316 264.848699 
L 245.938751 264.695615 
L 246.649933 264.726232 
L 247.005524 264.664999 
L 247.716706 264.848699 
L 248.072297 264.848699 
L 248.427888 265.063016 
L 249.494661 264.389448 
L 249.850252 264.420065 
L 250.205843 264.266981 
L 250.917025 263.593413 
L 251.272616 263.71588 
L 251.628207 263.71588 
L 251.983798 263.930197 
L 252.339389 263.80773 
L 252.69498 263.89958 
L 253.050571 262.58306 
L 253.406162 262.460593 
L 253.761752 262.185042 
L 254.117343 262.215659 
L 254.472934 262.031959 
L 254.828525 262.185042 
L 255.184116 262.154426 
L 255.539707 263.777113 
L 255.895298 263.746496 
L 256.250889 263.868963 
L 256.60648 263.654646 
L 256.962071 263.838347 
L 257.317662 263.685263 
L 258.028844 263.164778 
L 258.384435 263.042311 
L 259.095617 263.011695 
L 259.451208 262.67491 
L 260.517981 262.919844 
L 261.229163 262.460593 
L 261.584754 262.644294 
L 261.940345 262.552443 
L 262.295935 261.970725 
L 263.007117 261.817642 
L 264.07389 260.654205 
L 264.429481 260.470505 
L 265.140663 259.643853 
L 265.496254 258.327333 
L 266.207436 256.643412 
L 266.563027 254.928874 
L 266.918618 253.857288 
L 267.274209 254.224689 
L 267.985391 252.816319 
L 268.340982 253.428654 
L 268.696573 251.714116 
L 269.052164 252.112134 
L 269.763346 250.611913 
L 270.118937 250.73438 
L 270.474528 251.009931 
L 270.830118 249.479094 
L 271.185709 251.009931 
L 271.5413 250.244512 
L 271.896891 250.152662 
L 272.608073 250.673147 
L 273.319255 252.632618 
L 273.674846 251.683499 
L 274.030437 252.693852 
L 274.386028 254.132839 
L 274.741619 253.949138 
L 275.452801 255.235042 
L 275.808392 255.72491 
L 276.163983 256.582178 
L 276.519574 256.765879 
L 276.875165 256.398478 
L 277.230756 256.429095 
L 277.586347 256.337244 
L 277.941938 254.898257 
L 278.297529 254.347156 
L 278.65312 254.59209 
L 279.008711 255.204425 
L 279.364302 255.204425 
L 279.719892 255.877993 
L 280.075483 255.357509 
L 280.431074 256.459711 
L 280.786665 256.612795 
L 281.142256 255.939227 
L 281.497847 255.541209 
L 281.853438 255.877993 
L 282.209029 255.90861 
L 282.56462 256.367861 
L 283.275802 255.633059 
L 283.631393 256.827112 
L 283.986984 256.429095 
L 284.342575 255.72491 
L 284.698166 255.602443 
L 285.053757 255.602443 
L 285.764939 254.714557 
L 286.12053 253.122486 
L 286.476121 252.448918 
L 286.831712 251.224248 
L 287.542894 249.968962 
L 287.898485 250.397596 
L 288.254075 249.693411 
L 288.609666 247.672706 
L 290.03203 243.325128 
L 290.387621 243.753763 
L 291.098803 242.222926 
L 291.454394 240.630855 
L 291.809985 238.426449 
L 292.165576 237.018079 
L 292.521167 237.29363 
L 292.876758 233.925788 
L 293.232349 227.649356 
L 293.943531 223.332395 
L 294.299122 220.423804 
L 294.654713 218.831734 
L 295.010304 216.290544 
L 295.365895 215.525125 
L 296.077077 212.983936 
L 296.432668 213.106403 
L 296.788258 209.187459 
L 297.143849 210.87138 
L 297.49944 210.932614 
L 297.855031 210.136578 
L 298.210622 210.901997 
L 298.566213 212.555301 
L 298.921804 210.626446 
L 299.277395 215.984376 
L 299.632986 213.657504 
L 299.988577 213.290103 
L 300.344168 213.841204 
L 300.699759 215.586359 
L 301.05535 213.718737 
L 302.122123 219.90332 
L 302.477714 222.199575 
L 302.833305 222.873144 
L 303.188896 224.312131 
L 304.61126 233.099136 
L 304.966851 233.925788 
L 305.678032 236.16081 
L 306.389214 240.998256 
L 306.744805 242.039225 
L 307.455987 242.620943 
L 307.811578 243.723146 
L 308.52276 247.519622 
L 308.878351 247.427772 
L 309.233942 248.621825 
L 309.589533 248.866759 
L 310.300715 248.958609 
L 310.656306 248.866759 
L 311.723079 246.907287 
L 312.07867 246.815437 
L 312.434261 246.907287 
L 312.789852 245.131516 
L 313.501034 239.069401 
L 313.856625 238.089665 
L 315.278988 227.067638 
L 315.99017 214.576006 
L 316.345761 211.881733 
L 316.701352 206.585036 
L 317.056943 204.043846 
L 317.412534 202.78856 
L 317.768125 199.788119 
L 319.54608 160.813005 
L 319.901671 156.557277 
L 320.257262 155.332608 
L 320.968444 140.36102 
L 321.324035 137.72798 
L 321.679626 119.786568 
L 322.390808 107.141853 
L 322.746398 99.3652 
L 323.45758 74.443171 
L 323.813171 56.532376 
L 324.168762 57.236561 
L 324.524353 57.573345 
L 324.879944 56.624226 
L 325.235535 52.154182 
L 325.591126 68.472906 
L 325.946717 62.992509 
L 326.302308 65.135681 
L 326.657899 74.228854 
L 327.01349 72.75925 
L 327.369081 66.605285 
L 327.724672 66.942069 
L 328.080263 59.073566 
L 328.791445 78.545815 
L 329.147036 78.637665 
L 329.502627 78.423348 
L 329.858218 89.169825 
L 330.5694 105.549783 
L 330.924991 107.539871 
L 331.280581 113.020268 
L 331.991763 128.573574 
L 332.347354 131.543398 
L 332.702945 133.135468 
L 333.414127 150.097144 
L 333.769718 152.668951 
L 334.125309 152.270933 
L 334.836491 154.965207 
L 335.192082 150.587012 
L 335.547673 144.49428 
L 335.903264 146.913003 
L 336.258855 139.534368 
L 336.614446 129.094058 
L 336.970037 125.144498 
L 337.325628 110.785246 
L 338.03681 104.172029 
L 339.459174 74.198237 
L 339.814765 80.47467 
L 340.170355 84.240529 
L 340.525946 80.65837 
L 340.881537 75.39229 
L 341.94831 97.038328 
L 342.303901 89.322908 
L 342.659492 85.587666 
L 343.015083 97.86498 
L 343.370674 105.917183 
L 343.726265 93.548019 
L 344.437447 104.478197 
L 344.793038 119.633485 
L 345.148629 126.185468 
L 345.50422 120.307053 
L 345.859811 128.818508 
L 346.215402 153.70992 
L 346.926584 165.405516 
L 347.282175 167.150671 
L 347.637766 171.498248 
L 347.993357 180.285253 
L 348.348948 184.204197 
L 348.704538 186.837237 
L 349.060129 192.440101 
L 349.41572 193.634154 
L 349.771311 193.787237 
L 350.126902 199.818736 
L 350.482493 201.135256 
L 350.838084 198.349132 
L 351.193675 200.982172 
L 351.549266 198.257282 
L 351.904857 198.716533 
L 352.260448 200.461687 
L 352.616039 194.062788 
L 352.97163 191.429748 
L 353.327221 191.98085 
L 353.682812 190.388779 
L 354.038403 190.694946 
L 354.393994 190.633713 
L 354.749585 190.909264 
L 355.460767 195.042524 
L 355.816358 197.583714 
L 356.52754 200.15552 
L 356.883131 199.788119 
L 357.238721 201.043406 
L 357.949903 205.452217 
L 358.661085 212.27975 
L 359.016676 216.168077 
L 359.372267 218.709267 
L 359.727858 219.505302 
L 360.083449 222.107725 
L 360.794631 231.170281 
L 361.150222 234.997374 
L 361.505813 236.742529 
L 361.861404 239.314335 
L 362.216995 239.987903 
L 362.572586 241.488124 
L 362.928177 243.692529 
L 363.283768 244.733499 
L 363.99495 247.856406 
L 364.350541 247.213455 
L 365.061723 248.223807 
L 365.417314 248.713675 
L 365.772905 248.683059 
L 366.128495 247.060371 
L 366.484086 247.274688 
L 366.839677 247.090988 
L 367.195268 246.631737 
L 367.550859 248.346274 
L 367.90645 248.285041 
L 368.262041 246.264336 
L 368.617632 246.172486 
L 368.973223 243.692529 
L 369.328814 242.620943 
L 369.684405 242.253542 
L 370.395587 239.008168 
L 370.751178 239.498035 
L 371.106769 239.742969 
L 371.46236 240.814555 
L 371.817951 241.304423 
L 372.529133 238.426449 
L 373.595906 230.435479 
L 373.951497 228.843409 
L 374.307088 228.16984 
L 374.662678 228.904642 
L 375.018269 226.700237 
L 375.37386 226.485919 
L 375.729451 224.710148 
L 376.440633 222.260809 
L 376.796224 222.168959 
L 377.151815 221.770941 
L 377.507406 220.485038 
L 377.862997 216.22931 
L 378.574179 215.218958 
L 378.92977 212.432834 
L 379.285361 210.840764 
L 379.640952 210.167195 
L 379.996543 210.105962 
L 380.707725 205.268516 
L 381.063316 200.920939 
L 382.130089 194.338339 
L 382.48568 191.766532 
L 382.841271 190.541863 
L 383.196861 186.89847 
L 383.552452 186.837237 
L 383.908043 187.327105 
L 384.263634 187.020937 
L 384.619225 188.735475 
L 384.974816 189.807061 
L 385.330407 192.16455 
L 386.041589 200.461687 
L 387.463953 212.585918 
L 388.175135 222.81191 
L 388.530726 224.679532 
L 388.886317 228.016757 
L 389.597499 230.282396 
L 390.308681 236.864996 
L 390.664272 236.344511 
L 391.019863 239.528652 
L 391.375454 240.753322 
L 391.731045 240.661472 
L 392.086635 240.753322 
L 392.442226 241.273807 
L 392.797817 242.774027 
L 393.153408 243.478212 
L 393.86459 243.937463 
L 394.220181 244.886582 
L 394.575772 245.37645 
L 394.931363 243.478212 
L 395.286954 242.46786 
L 395.642545 244.366098 
L 395.998136 244.151781 
L 396.353727 244.947816 
L 396.709318 246.141869 
L 397.064909 244.611032 
L 397.4205 244.457948 
L 398.131682 246.050019 
L 398.487273 248.591208 
L 398.487273 248.591208 
" clip-path="url(#p0b72c3f93b)" style="fill: none; stroke: #1f77b4; stroke-width: 1.5; stroke-linecap: square"/>
   </g>
   <g id="patch_3">
    <path d="M 57.6 276.48 
L 57.6 41.472 
" style="fill: none; stroke: #000000; stroke-width: 0.8; stroke-linejoin: miter; stroke-linecap: square"/>
   </g>
   <g id="patch_4">
    <path d="M 414.72 276.48 
L 414.72 41.472 
" style="fill: none; stroke: #000000; stroke-width: 0.8; stroke-linejoin: miter; stroke-linecap: square"/>
   </g>
   <g id="patch_5">
    <path d="M 57.6 276.48 
L 414.72 276.48 
" style="fill: none; stroke: #000000; stroke-width: 0.8; stroke-linejoin: miter; stroke-linecap: square"/>
   </g>
   <g id="patch_6">
    <path d="M 57.6 41.472 
L 414.72 41.472 
" style="fill: none; stroke: #000000; stroke-width: 0.8; stroke-linejoin: miter; stroke-linecap: square"/>
   </g>
  </g>
  <g id="text_17">
   <!-- Inzidenzverlauf SK Augsburg -->
   <g transform="translate(101.414531 20.589187)scale(0.18 -0.18)">
    <defs>
     <path id="DejaVuSans-76" d="M 191 3500 
L 800 3500 
L 1894 563 
L 2988 3500 
L 3597 3500 
L 2284 0 
L 1503 0 
L 191 3500 
z
" transform="scale(0.015625)"/>
     <path id="DejaVuSans-6c" d="M 603 4863 
L 1178 4863 
L 1178 0 
L 603 0 
L 603 4863 
z
" transform="scale(0.015625)"/>
     <path id="DejaVuSans-75" d="M 544 1381 
L 544 3500 
L 1119 3500 
L 1119 1403 
Q 1119 906 1312 657 
Q 1506 409 1894 409 
Q 2359 409 2629 706 
Q 2900 1003 2900 1516 
L 2900 3500 
L 3475 3500 
L 3475 0 
L 2900 0 
L 2900 538 
Q 2691 219 2414 64 
Q 2138 -91 1772 -91 
Q 1169 -91 856 284 
Q 544 659 544 1381 
z
M 1991 3584 
L 1991 3584 
z
" transform="scale(0.015625)"/>
     <path id="DejaVuSans-66" d="M 2375 4863 
L 2375 4384 
L 1825 4384 
Q 1516 4384 1395 4259 
Q 1275 4134 1275 3809 
L 1275 3500 
L 2222 3500 
L 2222 3053 
L 1275 3053 
L 1275 0 
L 697 0 
L 697 3053 
L 147 3053 
L 147 3500 
L 697 3500 
L 697 3744 
Q 697 4328 969 4595 
Q 1241 4863 1831 4863 
L 2375 4863 
z
" transform="scale(0.015625)"/>
     <path id="DejaVuSans-53" d="M 3425 4513 
L 3425 3897 
Q 3066 4069 2747 4153 
Q 2428 4238 2131 4238 
Q 1616 4238 1336 4038 
Q 1056 3838 1056 3469 
Q 1056 3159 1242 3001 
Q 1428 2844 1947 2747 
L 2328 2669 
Q 3034 2534 3370 2195 
Q 3706 1856 3706 1288 
Q 3706 609 3251 259 
Q 2797 -91 1919 -91 
Q 1588 -91 1214 -16 
Q 841 59 441 206 
L 441 856 
Q 825 641 1194 531 
Q 1563 422 1919 422 
Q 2459 422 2753 634 
Q 3047 847 3047 1241 
Q 3047 1584 2836 1778 
Q 2625 1972 2144 2069 
L 1759 2144 
Q 1053 2284 737 2584 
Q 422 2884 422 3419 
Q 422 4038 858 4394 
Q 1294 4750 2059 4750 
Q 2388 4750 2728 4690 
Q 3069 4631 3425 4513 
z
" transform="scale(0.015625)"/>
     <path id="DejaVuSans-4b" d="M 628 4666 
L 1259 4666 
L 1259 2694 
L 3353 4666 
L 4166 4666 
L 1850 2491 
L 4331 0 
L 3500 0 
L 1259 2247 
L 1259 0 
L 628 0 
L 628 4666 
z
" transform="scale(0.015625)"/>
     <path id="DejaVuSans-41" d="M 2188 4044 
L 1331 1722 
L 3047 1722 
L 2188 4044 
z
M 1831 4666 
L 2547 4666 
L 4325 0 
L 3669 0 
L 3244 1197 
L 1141 1197 
L 716 0 
L 50 0 
L 1831 4666 
z
" transform="scale(0.015625)"/>
     <path id="DejaVuSans-73" d="M 2834 3397 
L 2834 2853 
Q 2591 2978 2328 3040 
Q 2066 3103 1784 3103 
Q 1356 3103 1142 2972 
Q 928 2841 928 2578 
Q 928 2378 1081 2264 
Q 1234 2150 1697 2047 
L 1894 2003 
Q 2506 1872 2764 1633 
Q 3022 1394 3022 966 
Q 3022 478 2636 193 
Q 2250 -91 1575 -91 
Q 1294 -91 989 -36 
Q 684 19 347 128 
L 347 722 
Q 666 556 975 473 
Q 1284 391 1588 391 
Q 1994 391 2212 530 
Q 2431 669 2431 922 
Q 2431 1156 2273 1281 
Q 2116 1406 1581 1522 
L 1381 1569 
Q 847 1681 609 1914 
Q 372 2147 372 2553 
Q 372 3047 722 3315 
Q 1072 3584 1716 3584 
Q 2034 3584 2315 3537 
Q 2597 3491 2834 3397 
z
" transform="scale(0.015625)"/>
     <path id="DejaVuSans-62" d="M 3116 1747 
Q 3116 2381 2855 2742 
Q 2594 3103 2138 3103 
Q 1681 3103 1420 2742 
Q 1159 2381 1159 1747 
Q 1159 1113 1420 752 
Q 1681 391 2138 391 
Q 2594 391 2855 752 
Q 3116 1113 3116 1747 
z
M 1159 2969 
Q 1341 3281 1617 3432 
Q 1894 3584 2278 3584 
Q 2916 3584 3314 3078 
Q 3713 2572 3713 1747 
Q 3713 922 3314 415 
Q 2916 -91 2278 -91 
Q 1894 -91 1617 61 
Q 1341 213 1159 525 
L 1159 0 
L 581 0 
L 581 4863 
L 1159 4863 
L 1159 2969 
z
" transform="scale(0.015625)"/>
    </defs>
    <use xlink:href="#DejaVuSans-49"/>
    <use xlink:href="#DejaVuSans-6e" x="29.492188"/>
    <use xlink:href="#DejaVuSans-7a" x="92.871094"/>
    <use xlink:href="#DejaVuSans-69" x="145.361328"/>
    <use xlink:href="#DejaVuSans-64" x="173.144531"/>
    <use xlink:href="#DejaVuSans-65" x="236.621094"/>
    <use xlink:href="#DejaVuSans-6e" x="298.144531"/>
    <use xlink:href="#DejaVuSans-7a" x="361.523438"/>
    <use xlink:href="#DejaVuSans-76" x="414.013672"/>
    <use xlink:href="#DejaVuSans-65" x="473.193359"/>
    <use xlink:href="#DejaVuSans-72" x="534.716797"/>
    <use xlink:href="#DejaVuSans-6c" x="575.830078"/>
    <use xlink:href="#DejaVuSans-61" x="603.613281"/>
    <use xlink:href="#DejaVuSans-75" x="664.892578"/>
    <use xlink:href="#DejaVuSans-66" x="728.271484"/>
    <use xlink:href="#DejaVuSans-20" x="763.476562"/>
    <use xlink:href="#DejaVuSans-53" x="795.263672"/>
    <use xlink:href="#DejaVuSans-4b" x="858.740234"/>
    <use xlink:href="#DejaVuSans-20" x="924.316406"/>
    <use xlink:href="#DejaVuSans-41" x="956.103516"/>
    <use xlink:href="#DejaVuSans-75" x="1024.511719"/>
    <use xlink:href="#DejaVuSans-67" x="1087.890625"/>
    <use xlink:href="#DejaVuSans-73" x="1151.367188"/>
    <use xlink:href="#DejaVuSans-62" x="1203.466797"/>
    <use xlink:href="#DejaVuSans-75" x="1266.943359"/>
    <use xlink:href="#DejaVuSans-72" x="1330.322266"/>
    <use xlink:href="#DejaVuSans-67" x="1369.685547"/>
   </g>
  </g>
 </g>
 <defs>
  <clipPath id="p0b72c3f93b">
   <rect x="57.6" y="41.472" width="357.12" height="235.008"/>
  </clipPath>
 </defs>
</svg>
