<?xml version="1.0" encoding="utf-8" standalone="no"?>
<!DOCTYPE svg PUBLIC "-//W3C//DTD SVG 1.1//EN"
  "http://www.w3.org/Graphics/SVG/1.1/DTD/svg11.dtd">
<svg xmlns:xlink="http://www.w3.org/1999/xlink" width="460.8pt" height="345.6pt" viewBox="0 0 460.8 345.6" xmlns="http://www.w3.org/2000/svg" version="1.1">
 <metadata>
  <rdf:RDF xmlns:dc="http://purl.org/dc/elements/1.1/" xmlns:cc="http://creativecommons.org/ns#" xmlns:rdf="http://www.w3.org/1999/02/22-rdf-syntax-ns#">
   <cc:Work>
    <dc:type rdf:resource="http://purl.org/dc/dcmitype/StillImage"/>
    <dc:date>2022-06-05T09:20:01.691700</dc:date>
    <dc:format>image/svg+xml</dc:format>
    <dc:creator>
     <cc:Agent>
      <dc:title>Matplotlib v3.5.2, https://matplotlib.org/</dc:title>
     </cc:Agent>
    </dc:creator>
   </cc:Work>
  </rdf:RDF>
 </metadata>
 <defs>
  <style type="text/css">*{stroke-linejoin: round; stroke-linecap: butt}</style>
 </defs>
 <g id="figure_1">
  <g id="patch_1">
   <path d="M 0 345.6 
L 460.8 345.6 
L 460.8 0 
L 0 0 
z
" style="fill: #ffffff"/>
  </g>
  <g id="axes_1">
   <g id="patch_2">
    <path d="M 57.6 276.48 
L 414.72 276.48 
L 414.72 41.472 
L 57.6 41.472 
z
" style="fill: #ffffff"/>
   </g>
   <g id="matplotlib.axis_1">
    <g id="xtick_1">
     <g id="line2d_1">
      <path d="M 58.581712 276.48 
L 58.581712 41.472 
" clip-path="url(#pafccafbdf0)" style="fill: none; stroke-dasharray: 2.96,1.28; stroke-dashoffset: 0; stroke: #808080; stroke-width: 0.8"/>
     </g>
     <g id="line2d_2">
      <defs>
       <path id="m7a2575f096" d="M 0 0 
L 0 3.5 
" style="stroke: #000000; stroke-width: 0.8"/>
      </defs>
      <g>
       <use xlink:href="#m7a2575f096" x="58.581712" y="276.48" style="stroke: #000000; stroke-width: 0.8"/>
      </g>
     </g>
     <g id="text_1">
      <!-- 24.01.2020 -->
      <g transform="translate(7.956501 318.688565)rotate(-30)scale(0.1 -0.1)">
       <defs>
        <path id="DejaVuSans-32" d="M 1228 531 
L 3431 531 
L 3431 0 
L 469 0 
L 469 531 
Q 828 903 1448 1529 
Q 2069 2156 2228 2338 
Q 2531 2678 2651 2914 
Q 2772 3150 2772 3378 
Q 2772 3750 2511 3984 
Q 2250 4219 1831 4219 
Q 1534 4219 1204 4116 
Q 875 4013 500 3803 
L 500 4441 
Q 881 4594 1212 4672 
Q 1544 4750 1819 4750 
Q 2544 4750 2975 4387 
Q 3406 4025 3406 3419 
Q 3406 3131 3298 2873 
Q 3191 2616 2906 2266 
Q 2828 2175 2409 1742 
Q 1991 1309 1228 531 
z
" transform="scale(0.015625)"/>
        <path id="DejaVuSans-34" d="M 2419 4116 
L 825 1625 
L 2419 1625 
L 2419 4116 
z
M 2253 4666 
L 3047 4666 
L 3047 1625 
L 3713 1625 
L 3713 1100 
L 3047 1100 
L 3047 0 
L 2419 0 
L 2419 1100 
L 313 1100 
L 313 1709 
L 2253 4666 
z
" transform="scale(0.015625)"/>
        <path id="DejaVuSans-2e" d="M 684 794 
L 1344 794 
L 1344 0 
L 684 0 
L 684 794 
z
" transform="scale(0.015625)"/>
        <path id="DejaVuSans-30" d="M 2034 4250 
Q 1547 4250 1301 3770 
Q 1056 3291 1056 2328 
Q 1056 1369 1301 889 
Q 1547 409 2034 409 
Q 2525 409 2770 889 
Q 3016 1369 3016 2328 
Q 3016 3291 2770 3770 
Q 2525 4250 2034 4250 
z
M 2034 4750 
Q 2819 4750 3233 4129 
Q 3647 3509 3647 2328 
Q 3647 1150 3233 529 
Q 2819 -91 2034 -91 
Q 1250 -91 836 529 
Q 422 1150 422 2328 
Q 422 3509 836 4129 
Q 1250 4750 2034 4750 
z
" transform="scale(0.015625)"/>
        <path id="DejaVuSans-31" d="M 794 531 
L 1825 531 
L 1825 4091 
L 703 3866 
L 703 4441 
L 1819 4666 
L 2450 4666 
L 2450 531 
L 3481 531 
L 3481 0 
L 794 0 
L 794 531 
z
" transform="scale(0.015625)"/>
       </defs>
       <use xlink:href="#DejaVuSans-32"/>
       <use xlink:href="#DejaVuSans-34" x="63.623047"/>
       <use xlink:href="#DejaVuSans-2e" x="127.246094"/>
       <use xlink:href="#DejaVuSans-30" x="159.033203"/>
       <use xlink:href="#DejaVuSans-31" x="222.65625"/>
       <use xlink:href="#DejaVuSans-2e" x="286.279297"/>
       <use xlink:href="#DejaVuSans-32" x="318.066406"/>
       <use xlink:href="#DejaVuSans-30" x="381.689453"/>
       <use xlink:href="#DejaVuSans-32" x="445.3125"/>
       <use xlink:href="#DejaVuSans-30" x="508.935547"/>
      </g>
     </g>
    </g>
    <g id="xtick_2">
     <g id="line2d_3">
      <path d="M 94.435552 276.48 
L 94.435552 41.472 
" clip-path="url(#pafccafbdf0)" style="fill: none; stroke-dasharray: 2.96,1.28; stroke-dashoffset: 0; stroke: #808080; stroke-width: 0.8"/>
     </g>
     <g id="line2d_4">
      <g>
       <use xlink:href="#m7a2575f096" x="94.435552" y="276.48" style="stroke: #000000; stroke-width: 0.8"/>
      </g>
     </g>
     <g id="text_2">
      <!-- 24.04.2020 -->
      <g transform="translate(43.810341 318.688565)rotate(-30)scale(0.1 -0.1)">
       <use xlink:href="#DejaVuSans-32"/>
       <use xlink:href="#DejaVuSans-34" x="63.623047"/>
       <use xlink:href="#DejaVuSans-2e" x="127.246094"/>
       <use xlink:href="#DejaVuSans-30" x="159.033203"/>
       <use xlink:href="#DejaVuSans-34" x="222.65625"/>
       <use xlink:href="#DejaVuSans-2e" x="286.279297"/>
       <use xlink:href="#DejaVuSans-32" x="318.066406"/>
       <use xlink:href="#DejaVuSans-30" x="381.689453"/>
       <use xlink:href="#DejaVuSans-32" x="445.3125"/>
       <use xlink:href="#DejaVuSans-30" x="508.935547"/>
      </g>
     </g>
    </g>
    <g id="xtick_3">
     <g id="line2d_5">
      <path d="M 130.289391 276.48 
L 130.289391 41.472 
" clip-path="url(#pafccafbdf0)" style="fill: none; stroke-dasharray: 2.96,1.28; stroke-dashoffset: 0; stroke: #808080; stroke-width: 0.8"/>
     </g>
     <g id="line2d_6">
      <g>
       <use xlink:href="#m7a2575f096" x="130.289391" y="276.48" style="stroke: #000000; stroke-width: 0.8"/>
      </g>
     </g>
     <g id="text_3">
      <!-- 24.07.2020 -->
      <g transform="translate(79.66418 318.688565)rotate(-30)scale(0.1 -0.1)">
       <defs>
        <path id="DejaVuSans-37" d="M 525 4666 
L 3525 4666 
L 3525 4397 
L 1831 0 
L 1172 0 
L 2766 4134 
L 525 4134 
L 525 4666 
z
" transform="scale(0.015625)"/>
       </defs>
       <use xlink:href="#DejaVuSans-32"/>
       <use xlink:href="#DejaVuSans-34" x="63.623047"/>
       <use xlink:href="#DejaVuSans-2e" x="127.246094"/>
       <use xlink:href="#DejaVuSans-30" x="159.033203"/>
       <use xlink:href="#DejaVuSans-37" x="222.65625"/>
       <use xlink:href="#DejaVuSans-2e" x="286.279297"/>
       <use xlink:href="#DejaVuSans-32" x="318.066406"/>
       <use xlink:href="#DejaVuSans-30" x="381.689453"/>
       <use xlink:href="#DejaVuSans-32" x="445.3125"/>
       <use xlink:href="#DejaVuSans-30" x="508.935547"/>
      </g>
     </g>
    </g>
    <g id="xtick_4">
     <g id="line2d_7">
      <path d="M 166.14323 276.48 
L 166.14323 41.472 
" clip-path="url(#pafccafbdf0)" style="fill: none; stroke-dasharray: 2.96,1.28; stroke-dashoffset: 0; stroke: #808080; stroke-width: 0.8"/>
     </g>
     <g id="line2d_8">
      <g>
       <use xlink:href="#m7a2575f096" x="166.14323" y="276.48" style="stroke: #000000; stroke-width: 0.8"/>
      </g>
     </g>
     <g id="text_4">
      <!-- 23.10.2020 -->
      <g transform="translate(115.51802 318.688565)rotate(-30)scale(0.1 -0.1)">
       <defs>
        <path id="DejaVuSans-33" d="M 2597 2516 
Q 3050 2419 3304 2112 
Q 3559 1806 3559 1356 
Q 3559 666 3084 287 
Q 2609 -91 1734 -91 
Q 1441 -91 1130 -33 
Q 819 25 488 141 
L 488 750 
Q 750 597 1062 519 
Q 1375 441 1716 441 
Q 2309 441 2620 675 
Q 2931 909 2931 1356 
Q 2931 1769 2642 2001 
Q 2353 2234 1838 2234 
L 1294 2234 
L 1294 2753 
L 1863 2753 
Q 2328 2753 2575 2939 
Q 2822 3125 2822 3475 
Q 2822 3834 2567 4026 
Q 2313 4219 1838 4219 
Q 1578 4219 1281 4162 
Q 984 4106 628 3988 
L 628 4550 
Q 988 4650 1302 4700 
Q 1616 4750 1894 4750 
Q 2613 4750 3031 4423 
Q 3450 4097 3450 3541 
Q 3450 3153 3228 2886 
Q 3006 2619 2597 2516 
z
" transform="scale(0.015625)"/>
       </defs>
       <use xlink:href="#DejaVuSans-32"/>
       <use xlink:href="#DejaVuSans-33" x="63.623047"/>
       <use xlink:href="#DejaVuSans-2e" x="127.246094"/>
       <use xlink:href="#DejaVuSans-31" x="159.033203"/>
       <use xlink:href="#DejaVuSans-30" x="222.65625"/>
       <use xlink:href="#DejaVuSans-2e" x="286.279297"/>
       <use xlink:href="#DejaVuSans-32" x="318.066406"/>
       <use xlink:href="#DejaVuSans-30" x="381.689453"/>
       <use xlink:href="#DejaVuSans-32" x="445.3125"/>
       <use xlink:href="#DejaVuSans-30" x="508.935547"/>
      </g>
     </g>
    </g>
    <g id="xtick_5">
     <g id="line2d_9">
      <path d="M 201.99707 276.48 
L 201.99707 41.472 
" clip-path="url(#pafccafbdf0)" style="fill: none; stroke-dasharray: 2.96,1.28; stroke-dashoffset: 0; stroke: #808080; stroke-width: 0.8"/>
     </g>
     <g id="line2d_10">
      <g>
       <use xlink:href="#m7a2575f096" x="201.99707" y="276.48" style="stroke: #000000; stroke-width: 0.8"/>
      </g>
     </g>
     <g id="text_5">
      <!-- 22.01.2021 -->
      <g transform="translate(151.371859 318.688565)rotate(-30)scale(0.1 -0.1)">
       <use xlink:href="#DejaVuSans-32"/>
       <use xlink:href="#DejaVuSans-32" x="63.623047"/>
       <use xlink:href="#DejaVuSans-2e" x="127.246094"/>
       <use xlink:href="#DejaVuSans-30" x="159.033203"/>
       <use xlink:href="#DejaVuSans-31" x="222.65625"/>
       <use xlink:href="#DejaVuSans-2e" x="286.279297"/>
       <use xlink:href="#DejaVuSans-32" x="318.066406"/>
       <use xlink:href="#DejaVuSans-30" x="381.689453"/>
       <use xlink:href="#DejaVuSans-32" x="445.3125"/>
       <use xlink:href="#DejaVuSans-31" x="508.935547"/>
      </g>
     </g>
    </g>
    <g id="xtick_6">
     <g id="line2d_11">
      <path d="M 237.850909 276.48 
L 237.850909 41.472 
" clip-path="url(#pafccafbdf0)" style="fill: none; stroke-dasharray: 2.96,1.28; stroke-dashoffset: 0; stroke: #808080; stroke-width: 0.8"/>
     </g>
     <g id="line2d_12">
      <g>
       <use xlink:href="#m7a2575f096" x="237.850909" y="276.48" style="stroke: #000000; stroke-width: 0.8"/>
      </g>
     </g>
     <g id="text_6">
      <!-- 23.04.2021 -->
      <g transform="translate(187.225698 318.688565)rotate(-30)scale(0.1 -0.1)">
       <use xlink:href="#DejaVuSans-32"/>
       <use xlink:href="#DejaVuSans-33" x="63.623047"/>
       <use xlink:href="#DejaVuSans-2e" x="127.246094"/>
       <use xlink:href="#DejaVuSans-30" x="159.033203"/>
       <use xlink:href="#DejaVuSans-34" x="222.65625"/>
       <use xlink:href="#DejaVuSans-2e" x="286.279297"/>
       <use xlink:href="#DejaVuSans-32" x="318.066406"/>
       <use xlink:href="#DejaVuSans-30" x="381.689453"/>
       <use xlink:href="#DejaVuSans-32" x="445.3125"/>
       <use xlink:href="#DejaVuSans-31" x="508.935547"/>
      </g>
     </g>
    </g>
    <g id="xtick_7">
     <g id="line2d_13">
      <path d="M 273.704748 276.48 
L 273.704748 41.472 
" clip-path="url(#pafccafbdf0)" style="fill: none; stroke-dasharray: 2.96,1.28; stroke-dashoffset: 0; stroke: #808080; stroke-width: 0.8"/>
     </g>
     <g id="line2d_14">
      <g>
       <use xlink:href="#m7a2575f096" x="273.704748" y="276.48" style="stroke: #000000; stroke-width: 0.8"/>
      </g>
     </g>
     <g id="text_7">
      <!-- 23.07.2021 -->
      <g transform="translate(223.079538 318.688565)rotate(-30)scale(0.1 -0.1)">
       <use xlink:href="#DejaVuSans-32"/>
       <use xlink:href="#DejaVuSans-33" x="63.623047"/>
       <use xlink:href="#DejaVuSans-2e" x="127.246094"/>
       <use xlink:href="#DejaVuSans-30" x="159.033203"/>
       <use xlink:href="#DejaVuSans-37" x="222.65625"/>
       <use xlink:href="#DejaVuSans-2e" x="286.279297"/>
       <use xlink:href="#DejaVuSans-32" x="318.066406"/>
       <use xlink:href="#DejaVuSans-30" x="381.689453"/>
       <use xlink:href="#DejaVuSans-32" x="445.3125"/>
       <use xlink:href="#DejaVuSans-31" x="508.935547"/>
      </g>
     </g>
    </g>
    <g id="xtick_8">
     <g id="line2d_15">
      <path d="M 309.558588 276.48 
L 309.558588 41.472 
" clip-path="url(#pafccafbdf0)" style="fill: none; stroke-dasharray: 2.96,1.28; stroke-dashoffset: 0; stroke: #808080; stroke-width: 0.8"/>
     </g>
     <g id="line2d_16">
      <g>
       <use xlink:href="#m7a2575f096" x="309.558588" y="276.48" style="stroke: #000000; stroke-width: 0.8"/>
      </g>
     </g>
     <g id="text_8">
      <!-- 22.10.2021 -->
      <g transform="translate(258.933377 318.688565)rotate(-30)scale(0.1 -0.1)">
       <use xlink:href="#DejaVuSans-32"/>
       <use xlink:href="#DejaVuSans-32" x="63.623047"/>
       <use xlink:href="#DejaVuSans-2e" x="127.246094"/>
       <use xlink:href="#DejaVuSans-31" x="159.033203"/>
       <use xlink:href="#DejaVuSans-30" x="222.65625"/>
       <use xlink:href="#DejaVuSans-2e" x="286.279297"/>
       <use xlink:href="#DejaVuSans-32" x="318.066406"/>
       <use xlink:href="#DejaVuSans-30" x="381.689453"/>
       <use xlink:href="#DejaVuSans-32" x="445.3125"/>
       <use xlink:href="#DejaVuSans-31" x="508.935547"/>
      </g>
     </g>
    </g>
    <g id="xtick_9">
     <g id="line2d_17">
      <path d="M 345.412427 276.48 
L 345.412427 41.472 
" clip-path="url(#pafccafbdf0)" style="fill: none; stroke-dasharray: 2.96,1.28; stroke-dashoffset: 0; stroke: #808080; stroke-width: 0.8"/>
     </g>
     <g id="line2d_18">
      <g>
       <use xlink:href="#m7a2575f096" x="345.412427" y="276.48" style="stroke: #000000; stroke-width: 0.8"/>
      </g>
     </g>
     <g id="text_9">
      <!-- 21.01.2022 -->
      <g transform="translate(294.787216 318.688565)rotate(-30)scale(0.1 -0.1)">
       <use xlink:href="#DejaVuSans-32"/>
       <use xlink:href="#DejaVuSans-31" x="63.623047"/>
       <use xlink:href="#DejaVuSans-2e" x="127.246094"/>
       <use xlink:href="#DejaVuSans-30" x="159.033203"/>
       <use xlink:href="#DejaVuSans-31" x="222.65625"/>
       <use xlink:href="#DejaVuSans-2e" x="286.279297"/>
       <use xlink:href="#DejaVuSans-32" x="318.066406"/>
       <use xlink:href="#DejaVuSans-30" x="381.689453"/>
       <use xlink:href="#DejaVuSans-32" x="445.3125"/>
       <use xlink:href="#DejaVuSans-32" x="508.935547"/>
      </g>
     </g>
    </g>
    <g id="xtick_10">
     <g id="line2d_19">
      <path d="M 381.266267 276.48 
L 381.266267 41.472 
" clip-path="url(#pafccafbdf0)" style="fill: none; stroke-dasharray: 2.96,1.28; stroke-dashoffset: 0; stroke: #808080; stroke-width: 0.8"/>
     </g>
     <g id="line2d_20">
      <g>
       <use xlink:href="#m7a2575f096" x="381.266267" y="276.48" style="stroke: #000000; stroke-width: 0.8"/>
      </g>
     </g>
     <g id="text_10">
      <!-- 22.04.2022 -->
      <g transform="translate(330.641056 318.688565)rotate(-30)scale(0.1 -0.1)">
       <use xlink:href="#DejaVuSans-32"/>
       <use xlink:href="#DejaVuSans-32" x="63.623047"/>
       <use xlink:href="#DejaVuSans-2e" x="127.246094"/>
       <use xlink:href="#DejaVuSans-30" x="159.033203"/>
       <use xlink:href="#DejaVuSans-34" x="222.65625"/>
       <use xlink:href="#DejaVuSans-2e" x="286.279297"/>
       <use xlink:href="#DejaVuSans-32" x="318.066406"/>
       <use xlink:href="#DejaVuSans-30" x="381.689453"/>
       <use xlink:href="#DejaVuSans-32" x="445.3125"/>
       <use xlink:href="#DejaVuSans-32" x="508.935547"/>
      </g>
     </g>
    </g>
   </g>
   <g id="matplotlib.axis_2">
    <g id="ytick_1">
     <g id="line2d_21">
      <path d="M 57.6 265.797818 
L 414.72 265.797818 
" clip-path="url(#pafccafbdf0)" style="fill: none; stroke-dasharray: 2.96,1.28; stroke-dashoffset: 0; stroke: #808080; stroke-width: 0.8"/>
     </g>
     <g id="line2d_22">
      <defs>
       <path id="m6ce7cee2f7" d="M 0 0 
L -3.5 0 
" style="stroke: #000000; stroke-width: 0.8"/>
      </defs>
      <g>
       <use xlink:href="#m6ce7cee2f7" x="57.6" y="265.797818" style="stroke: #000000; stroke-width: 0.8"/>
      </g>
     </g>
     <g id="text_11">
      <!-- 0 -->
      <g transform="translate(44.2375 269.597037)scale(0.1 -0.1)">
       <use xlink:href="#DejaVuSans-30"/>
      </g>
     </g>
    </g>
    <g id="ytick_2">
     <g id="line2d_23">
      <path d="M 57.6 224.35212 
L 414.72 224.35212 
" clip-path="url(#pafccafbdf0)" style="fill: none; stroke-dasharray: 2.96,1.28; stroke-dashoffset: 0; stroke: #808080; stroke-width: 0.8"/>
     </g>
     <g id="line2d_24">
      <g>
       <use xlink:href="#m6ce7cee2f7" x="57.6" y="224.35212" style="stroke: #000000; stroke-width: 0.8"/>
      </g>
     </g>
     <g id="text_12">
      <!-- 500 -->
      <g transform="translate(31.5125 228.151339)scale(0.1 -0.1)">
       <defs>
        <path id="DejaVuSans-35" d="M 691 4666 
L 3169 4666 
L 3169 4134 
L 1269 4134 
L 1269 2991 
Q 1406 3038 1543 3061 
Q 1681 3084 1819 3084 
Q 2600 3084 3056 2656 
Q 3513 2228 3513 1497 
Q 3513 744 3044 326 
Q 2575 -91 1722 -91 
Q 1428 -91 1123 -41 
Q 819 9 494 109 
L 494 744 
Q 775 591 1075 516 
Q 1375 441 1709 441 
Q 2250 441 2565 725 
Q 2881 1009 2881 1497 
Q 2881 1984 2565 2268 
Q 2250 2553 1709 2553 
Q 1456 2553 1204 2497 
Q 953 2441 691 2322 
L 691 4666 
z
" transform="scale(0.015625)"/>
       </defs>
       <use xlink:href="#DejaVuSans-35"/>
       <use xlink:href="#DejaVuSans-30" x="63.623047"/>
       <use xlink:href="#DejaVuSans-30" x="127.246094"/>
      </g>
     </g>
    </g>
    <g id="ytick_3">
     <g id="line2d_25">
      <path d="M 57.6 182.906422 
L 414.72 182.906422 
" clip-path="url(#pafccafbdf0)" style="fill: none; stroke-dasharray: 2.96,1.28; stroke-dashoffset: 0; stroke: #808080; stroke-width: 0.8"/>
     </g>
     <g id="line2d_26">
      <g>
       <use xlink:href="#m6ce7cee2f7" x="57.6" y="182.906422" style="stroke: #000000; stroke-width: 0.8"/>
      </g>
     </g>
     <g id="text_13">
      <!-- 1000 -->
      <g transform="translate(25.15 186.705641)scale(0.1 -0.1)">
       <use xlink:href="#DejaVuSans-31"/>
       <use xlink:href="#DejaVuSans-30" x="63.623047"/>
       <use xlink:href="#DejaVuSans-30" x="127.246094"/>
       <use xlink:href="#DejaVuSans-30" x="190.869141"/>
      </g>
     </g>
    </g>
    <g id="ytick_4">
     <g id="line2d_27">
      <path d="M 57.6 141.460724 
L 414.72 141.460724 
" clip-path="url(#pafccafbdf0)" style="fill: none; stroke-dasharray: 2.96,1.28; stroke-dashoffset: 0; stroke: #808080; stroke-width: 0.8"/>
     </g>
     <g id="line2d_28">
      <g>
       <use xlink:href="#m6ce7cee2f7" x="57.6" y="141.460724" style="stroke: #000000; stroke-width: 0.8"/>
      </g>
     </g>
     <g id="text_14">
      <!-- 1500 -->
      <g transform="translate(25.15 145.259943)scale(0.1 -0.1)">
       <use xlink:href="#DejaVuSans-31"/>
       <use xlink:href="#DejaVuSans-35" x="63.623047"/>
       <use xlink:href="#DejaVuSans-30" x="127.246094"/>
       <use xlink:href="#DejaVuSans-30" x="190.869141"/>
      </g>
     </g>
    </g>
    <g id="ytick_5">
     <g id="line2d_29">
      <path d="M 57.6 100.015026 
L 414.72 100.015026 
" clip-path="url(#pafccafbdf0)" style="fill: none; stroke-dasharray: 2.96,1.28; stroke-dashoffset: 0; stroke: #808080; stroke-width: 0.8"/>
     </g>
     <g id="line2d_30">
      <g>
       <use xlink:href="#m6ce7cee2f7" x="57.6" y="100.015026" style="stroke: #000000; stroke-width: 0.8"/>
      </g>
     </g>
     <g id="text_15">
      <!-- 2000 -->
      <g transform="translate(25.15 103.814245)scale(0.1 -0.1)">
       <use xlink:href="#DejaVuSans-32"/>
       <use xlink:href="#DejaVuSans-30" x="63.623047"/>
       <use xlink:href="#DejaVuSans-30" x="127.246094"/>
       <use xlink:href="#DejaVuSans-30" x="190.869141"/>
      </g>
     </g>
    </g>
    <g id="ytick_6">
     <g id="line2d_31">
      <path d="M 57.6 58.569328 
L 414.72 58.569328 
" clip-path="url(#pafccafbdf0)" style="fill: none; stroke-dasharray: 2.96,1.28; stroke-dashoffset: 0; stroke: #808080; stroke-width: 0.8"/>
     </g>
     <g id="line2d_32">
      <g>
       <use xlink:href="#m6ce7cee2f7" x="57.6" y="58.569328" style="stroke: #000000; stroke-width: 0.8"/>
      </g>
     </g>
     <g id="text_16">
      <!-- 2500 -->
      <g transform="translate(25.15 62.368547)scale(0.1 -0.1)">
       <use xlink:href="#DejaVuSans-32"/>
       <use xlink:href="#DejaVuSans-35" x="63.623047"/>
       <use xlink:href="#DejaVuSans-30" x="127.246094"/>
       <use xlink:href="#DejaVuSans-30" x="190.869141"/>
      </g>
     </g>
    </g>
    <g id="text_17">
     <!-- Inzidenz pro 7 Tage pro 100.000 Einwohner -->
     <g transform="translate(19.070312 267.301)rotate(-90)scale(0.1 -0.1)">
      <defs>
       <path id="DejaVuSans-49" d="M 628 4666 
L 1259 4666 
L 1259 0 
L 628 0 
L 628 4666 
z
" transform="scale(0.015625)"/>
       <path id="DejaVuSans-6e" d="M 3513 2113 
L 3513 0 
L 2938 0 
L 2938 2094 
Q 2938 2591 2744 2837 
Q 2550 3084 2163 3084 
Q 1697 3084 1428 2787 
Q 1159 2491 1159 1978 
L 1159 0 
L 581 0 
L 581 3500 
L 1159 3500 
L 1159 2956 
Q 1366 3272 1645 3428 
Q 1925 3584 2291 3584 
Q 2894 3584 3203 3211 
Q 3513 2838 3513 2113 
z
" transform="scale(0.015625)"/>
       <path id="DejaVuSans-7a" d="M 353 3500 
L 3084 3500 
L 3084 2975 
L 922 459 
L 3084 459 
L 3084 0 
L 275 0 
L 275 525 
L 2438 3041 
L 353 3041 
L 353 3500 
z
" transform="scale(0.015625)"/>
       <path id="DejaVuSans-69" d="M 603 3500 
L 1178 3500 
L 1178 0 
L 603 0 
L 603 3500 
z
M 603 4863 
L 1178 4863 
L 1178 4134 
L 603 4134 
L 603 4863 
z
" transform="scale(0.015625)"/>
       <path id="DejaVuSans-64" d="M 2906 2969 
L 2906 4863 
L 3481 4863 
L 3481 0 
L 2906 0 
L 2906 525 
Q 2725 213 2448 61 
Q 2172 -91 1784 -91 
Q 1150 -91 751 415 
Q 353 922 353 1747 
Q 353 2572 751 3078 
Q 1150 3584 1784 3584 
Q 2172 3584 2448 3432 
Q 2725 3281 2906 2969 
z
M 947 1747 
Q 947 1113 1208 752 
Q 1469 391 1925 391 
Q 2381 391 2643 752 
Q 2906 1113 2906 1747 
Q 2906 2381 2643 2742 
Q 2381 3103 1925 3103 
Q 1469 3103 1208 2742 
Q 947 2381 947 1747 
z
" transform="scale(0.015625)"/>
       <path id="DejaVuSans-65" d="M 3597 1894 
L 3597 1613 
L 953 1613 
Q 991 1019 1311 708 
Q 1631 397 2203 397 
Q 2534 397 2845 478 
Q 3156 559 3463 722 
L 3463 178 
Q 3153 47 2828 -22 
Q 2503 -91 2169 -91 
Q 1331 -91 842 396 
Q 353 884 353 1716 
Q 353 2575 817 3079 
Q 1281 3584 2069 3584 
Q 2775 3584 3186 3129 
Q 3597 2675 3597 1894 
z
M 3022 2063 
Q 3016 2534 2758 2815 
Q 2500 3097 2075 3097 
Q 1594 3097 1305 2825 
Q 1016 2553 972 2059 
L 3022 2063 
z
" transform="scale(0.015625)"/>
       <path id="DejaVuSans-20" transform="scale(0.015625)"/>
       <path id="DejaVuSans-70" d="M 1159 525 
L 1159 -1331 
L 581 -1331 
L 581 3500 
L 1159 3500 
L 1159 2969 
Q 1341 3281 1617 3432 
Q 1894 3584 2278 3584 
Q 2916 3584 3314 3078 
Q 3713 2572 3713 1747 
Q 3713 922 3314 415 
Q 2916 -91 2278 -91 
Q 1894 -91 1617 61 
Q 1341 213 1159 525 
z
M 3116 1747 
Q 3116 2381 2855 2742 
Q 2594 3103 2138 3103 
Q 1681 3103 1420 2742 
Q 1159 2381 1159 1747 
Q 1159 1113 1420 752 
Q 1681 391 2138 391 
Q 2594 391 2855 752 
Q 3116 1113 3116 1747 
z
" transform="scale(0.015625)"/>
       <path id="DejaVuSans-72" d="M 2631 2963 
Q 2534 3019 2420 3045 
Q 2306 3072 2169 3072 
Q 1681 3072 1420 2755 
Q 1159 2438 1159 1844 
L 1159 0 
L 581 0 
L 581 3500 
L 1159 3500 
L 1159 2956 
Q 1341 3275 1631 3429 
Q 1922 3584 2338 3584 
Q 2397 3584 2469 3576 
Q 2541 3569 2628 3553 
L 2631 2963 
z
" transform="scale(0.015625)"/>
       <path id="DejaVuSans-6f" d="M 1959 3097 
Q 1497 3097 1228 2736 
Q 959 2375 959 1747 
Q 959 1119 1226 758 
Q 1494 397 1959 397 
Q 2419 397 2687 759 
Q 2956 1122 2956 1747 
Q 2956 2369 2687 2733 
Q 2419 3097 1959 3097 
z
M 1959 3584 
Q 2709 3584 3137 3096 
Q 3566 2609 3566 1747 
Q 3566 888 3137 398 
Q 2709 -91 1959 -91 
Q 1206 -91 779 398 
Q 353 888 353 1747 
Q 353 2609 779 3096 
Q 1206 3584 1959 3584 
z
" transform="scale(0.015625)"/>
       <path id="DejaVuSans-54" d="M -19 4666 
L 3928 4666 
L 3928 4134 
L 2272 4134 
L 2272 0 
L 1638 0 
L 1638 4134 
L -19 4134 
L -19 4666 
z
" transform="scale(0.015625)"/>
       <path id="DejaVuSans-61" d="M 2194 1759 
Q 1497 1759 1228 1600 
Q 959 1441 959 1056 
Q 959 750 1161 570 
Q 1363 391 1709 391 
Q 2188 391 2477 730 
Q 2766 1069 2766 1631 
L 2766 1759 
L 2194 1759 
z
M 3341 1997 
L 3341 0 
L 2766 0 
L 2766 531 
Q 2569 213 2275 61 
Q 1981 -91 1556 -91 
Q 1019 -91 701 211 
Q 384 513 384 1019 
Q 384 1609 779 1909 
Q 1175 2209 1959 2209 
L 2766 2209 
L 2766 2266 
Q 2766 2663 2505 2880 
Q 2244 3097 1772 3097 
Q 1472 3097 1187 3025 
Q 903 2953 641 2809 
L 641 3341 
Q 956 3463 1253 3523 
Q 1550 3584 1831 3584 
Q 2591 3584 2966 3190 
Q 3341 2797 3341 1997 
z
" transform="scale(0.015625)"/>
       <path id="DejaVuSans-67" d="M 2906 1791 
Q 2906 2416 2648 2759 
Q 2391 3103 1925 3103 
Q 1463 3103 1205 2759 
Q 947 2416 947 1791 
Q 947 1169 1205 825 
Q 1463 481 1925 481 
Q 2391 481 2648 825 
Q 2906 1169 2906 1791 
z
M 3481 434 
Q 3481 -459 3084 -895 
Q 2688 -1331 1869 -1331 
Q 1566 -1331 1297 -1286 
Q 1028 -1241 775 -1147 
L 775 -588 
Q 1028 -725 1275 -790 
Q 1522 -856 1778 -856 
Q 2344 -856 2625 -561 
Q 2906 -266 2906 331 
L 2906 616 
Q 2728 306 2450 153 
Q 2172 0 1784 0 
Q 1141 0 747 490 
Q 353 981 353 1791 
Q 353 2603 747 3093 
Q 1141 3584 1784 3584 
Q 2172 3584 2450 3431 
Q 2728 3278 2906 2969 
L 2906 3500 
L 3481 3500 
L 3481 434 
z
" transform="scale(0.015625)"/>
       <path id="DejaVuSans-45" d="M 628 4666 
L 3578 4666 
L 3578 4134 
L 1259 4134 
L 1259 2753 
L 3481 2753 
L 3481 2222 
L 1259 2222 
L 1259 531 
L 3634 531 
L 3634 0 
L 628 0 
L 628 4666 
z
" transform="scale(0.015625)"/>
       <path id="DejaVuSans-77" d="M 269 3500 
L 844 3500 
L 1563 769 
L 2278 3500 
L 2956 3500 
L 3675 769 
L 4391 3500 
L 4966 3500 
L 4050 0 
L 3372 0 
L 2619 2869 
L 1863 0 
L 1184 0 
L 269 3500 
z
" transform="scale(0.015625)"/>
       <path id="DejaVuSans-68" d="M 3513 2113 
L 3513 0 
L 2938 0 
L 2938 2094 
Q 2938 2591 2744 2837 
Q 2550 3084 2163 3084 
Q 1697 3084 1428 2787 
Q 1159 2491 1159 1978 
L 1159 0 
L 581 0 
L 581 4863 
L 1159 4863 
L 1159 2956 
Q 1366 3272 1645 3428 
Q 1925 3584 2291 3584 
Q 2894 3584 3203 3211 
Q 3513 2838 3513 2113 
z
" transform="scale(0.015625)"/>
      </defs>
      <use xlink:href="#DejaVuSans-49"/>
      <use xlink:href="#DejaVuSans-6e" x="29.492188"/>
      <use xlink:href="#DejaVuSans-7a" x="92.871094"/>
      <use xlink:href="#DejaVuSans-69" x="145.361328"/>
      <use xlink:href="#DejaVuSans-64" x="173.144531"/>
      <use xlink:href="#DejaVuSans-65" x="236.621094"/>
      <use xlink:href="#DejaVuSans-6e" x="298.144531"/>
      <use xlink:href="#DejaVuSans-7a" x="361.523438"/>
      <use xlink:href="#DejaVuSans-20" x="414.013672"/>
      <use xlink:href="#DejaVuSans-70" x="445.800781"/>
      <use xlink:href="#DejaVuSans-72" x="509.277344"/>
      <use xlink:href="#DejaVuSans-6f" x="548.140625"/>
      <use xlink:href="#DejaVuSans-20" x="609.322266"/>
      <use xlink:href="#DejaVuSans-37" x="641.109375"/>
      <use xlink:href="#DejaVuSans-20" x="704.732422"/>
      <use xlink:href="#DejaVuSans-54" x="736.519531"/>
      <use xlink:href="#DejaVuSans-61" x="781.103516"/>
      <use xlink:href="#DejaVuSans-67" x="842.382812"/>
      <use xlink:href="#DejaVuSans-65" x="905.859375"/>
      <use xlink:href="#DejaVuSans-20" x="967.382812"/>
      <use xlink:href="#DejaVuSans-70" x="999.169922"/>
      <use xlink:href="#DejaVuSans-72" x="1062.646484"/>
      <use xlink:href="#DejaVuSans-6f" x="1101.509766"/>
      <use xlink:href="#DejaVuSans-20" x="1162.691406"/>
      <use xlink:href="#DejaVuSans-31" x="1194.478516"/>
      <use xlink:href="#DejaVuSans-30" x="1258.101562"/>
      <use xlink:href="#DejaVuSans-30" x="1321.724609"/>
      <use xlink:href="#DejaVuSans-2e" x="1385.347656"/>
      <use xlink:href="#DejaVuSans-30" x="1417.134766"/>
      <use xlink:href="#DejaVuSans-30" x="1480.757812"/>
      <use xlink:href="#DejaVuSans-30" x="1544.380859"/>
      <use xlink:href="#DejaVuSans-20" x="1608.003906"/>
      <use xlink:href="#DejaVuSans-45" x="1639.791016"/>
      <use xlink:href="#DejaVuSans-69" x="1702.974609"/>
      <use xlink:href="#DejaVuSans-6e" x="1730.757812"/>
      <use xlink:href="#DejaVuSans-77" x="1794.136719"/>
      <use xlink:href="#DejaVuSans-6f" x="1875.923828"/>
      <use xlink:href="#DejaVuSans-68" x="1937.105469"/>
      <use xlink:href="#DejaVuSans-6e" x="2000.484375"/>
      <use xlink:href="#DejaVuSans-65" x="2063.863281"/>
      <use xlink:href="#DejaVuSans-72" x="2125.386719"/>
     </g>
    </g>
   </g>
   <g id="line2d_33">
    <path d="M 73.832727 265.797818 
L 75.802718 265.797818 
L 76.196717 265.681073 
L 76.984713 265.681073 
L 77.378711 265.330838 
L 77.77271 265.330838 
L 78.166708 263.929896 
L 78.560706 263.813151 
L 78.954704 263.813151 
L 79.348703 263.696405 
L 79.742701 263.696405 
L 80.136699 263.929896 
L 80.530697 263.57966 
L 80.924695 264.747112 
L 81.712692 264.513621 
L 82.10669 264.630367 
L 82.894687 264.163386 
L 83.682683 263.34617 
L 84.47068 263.57966 
L 85.258676 261.828483 
L 86.046673 262.412209 
L 86.440671 262.295463 
L 86.834669 261.828483 
L 87.228667 261.828483 
L 87.622665 262.061973 
L 88.016664 262.995934 
L 88.410662 262.879189 
L 89.198658 263.696405 
L 89.592657 264.163386 
L 89.986655 264.163386 
L 90.380653 264.747112 
L 90.774651 264.513621 
L 91.16865 264.630367 
L 91.562648 264.630367 
L 92.350644 264.980602 
L 93.138641 264.980602 
L 93.532639 265.330838 
L 93.926637 265.330838 
L 94.320635 265.214092 
L 95.108632 264.747112 
L 95.50263 264.747112 
L 95.896628 264.863857 
L 96.684625 264.863857 
L 97.472621 265.214092 
L 98.260618 265.447583 
L 99.048614 265.447583 
L 99.442613 265.564328 
L 99.836611 265.330838 
L 100.624607 265.564328 
L 102.2006 265.564328 
L 102.594598 265.797818 
L 104.170591 265.797818 
L 104.958588 265.564328 
L 106.928579 265.564328 
L 107.716575 265.797818 
L 110.080565 265.797818 
L 110.474563 265.681073 
L 112.838553 265.681073 
L 113.232551 265.797818 
L 121.900512 265.797818 
L 122.29451 265.447583 
L 123.082507 265.447583 
L 123.870503 265.097347 
L 124.264501 264.980602 
L 124.6585 264.980602 
L 125.052498 265.330838 
L 125.840494 265.330838 
L 126.234492 265.447583 
L 126.628491 265.447583 
L 127.022489 265.564328 
L 127.416487 265.564328 
L 127.810485 265.447583 
L 128.598482 265.447583 
L 129.386478 265.681073 
L 129.780477 265.681073 
L 130.174475 265.447583 
L 130.568473 265.564328 
L 131.750468 265.564328 
L 132.144466 265.447583 
L 132.538464 265.447583 
L 132.932462 265.564328 
L 134.508455 265.564328 
L 134.902454 265.681073 
L 135.296452 265.681073 
L 135.69045 265.564328 
L 136.872445 265.564328 
L 137.266443 265.447583 
L 137.660441 265.214092 
L 138.05444 265.214092 
L 138.448438 265.330838 
L 138.842436 265.330838 
L 139.630432 265.097347 
L 140.024431 265.214092 
L 140.418429 265.214092 
L 140.812427 265.097347 
L 141.206425 265.214092 
L 141.600424 265.214092 
L 142.38842 265.447583 
L 142.782418 265.214092 
L 143.570415 265.447583 
L 144.358411 265.214092 
L 144.75241 264.980602 
L 145.146408 264.980602 
L 145.540406 265.214092 
L 145.934404 264.980602 
L 146.328402 264.980602 
L 146.722401 264.863857 
L 147.116399 264.980602 
L 147.510397 265.214092 
L 148.298394 265.214092 
L 148.692392 265.564328 
L 149.08639 265.330838 
L 149.480388 265.447583 
L 150.268385 264.863857 
L 150.662383 264.863857 
L 151.056381 264.747112 
L 151.45038 264.747112 
L 151.844378 264.863857 
L 152.238376 264.863857 
L 152.632374 264.980602 
L 153.026372 265.214092 
L 153.814369 264.980602 
L 154.602365 264.513621 
L 155.390362 264.747112 
L 155.78436 264.396876 
L 156.572357 264.630367 
L 156.966355 264.513621 
L 157.360353 264.630367 
L 157.754351 264.280131 
L 158.14835 264.280131 
L 158.542348 264.630367 
L 158.936346 264.513621 
L 159.330344 264.630367 
L 159.724342 264.280131 
L 160.512339 264.280131 
L 160.906337 264.163386 
L 161.300335 263.813151 
L 161.694334 263.929896 
L 162.088332 263.813151 
L 162.48233 264.280131 
L 162.876328 264.280131 
L 163.270327 264.396876 
L 164.058323 263.57966 
L 164.452321 263.57966 
L 164.84632 263.462915 
L 165.240318 262.762444 
L 166.422312 259.610325 
L 166.816311 258.909854 
L 167.210309 258.909854 
L 167.998305 257.041931 
L 168.392304 257.158677 
L 168.786302 255.290754 
L 169.1803 255.407499 
L 169.574298 254.473538 
L 169.968297 254.123303 
L 170.756293 253.889812 
L 171.150291 252.839106 
L 171.544289 254.473538 
L 171.938288 252.372125 
L 172.332286 253.773067 
L 172.726284 253.889812 
L 173.120282 253.773067 
L 173.908279 254.356793 
L 174.302277 253.656322 
L 175.484272 253.072596 
L 175.87827 254.123303 
L 176.272268 253.306086 
L 176.666267 253.773067 
L 177.060265 252.839106 
L 177.454263 254.823773 
L 177.848261 254.940519 
L 178.242259 254.940519 
L 178.636258 254.356793 
L 179.030256 254.823773 
L 179.424254 254.707028 
L 179.818252 256.691696 
L 180.212251 255.174009 
L 180.606249 255.174009 
L 181.000247 255.524244 
L 181.394245 255.524244 
L 181.788244 254.006557 
L 182.182242 251.905145 
L 182.57624 250.620948 
L 182.970238 251.671654 
L 183.364237 250.504203 
L 183.758235 250.270712 
L 184.152233 250.737693 
L 184.940229 252.955851 
L 185.334228 250.504203 
L 185.728226 248.86977 
L 186.122224 250.153967 
L 186.516222 249.686987 
L 186.910221 248.519535 
L 187.304219 247.935809 
L 187.698217 241.748316 
L 188.092215 241.16459 
L 188.486214 241.748316 
L 188.880212 239.997139 
L 189.27421 239.179923 
L 189.668208 239.063177 
L 190.062207 238.245961 
L 190.456205 243.849729 
L 190.850203 243.966474 
L 191.244201 245.834396 
L 191.638199 245.717651 
L 192.426196 247.935809 
L 192.820194 248.40279 
L 193.214192 246.301377 
L 193.608191 250.153967 
L 194.002189 250.737693 
L 194.396187 252.955851 
L 194.790185 252.25538 
L 195.184184 252.02189 
L 195.578182 252.605615 
L 195.97218 256.10797 
L 196.366178 256.458206 
L 197.154175 250.504203 
L 197.548173 251.204674 
L 197.942171 251.087928 
L 198.336169 252.02189 
L 198.730168 251.788399 
L 199.124166 250.737693 
L 199.518164 252.605615 
L 199.912162 255.407499 
L 200.306161 254.707028 
L 200.700159 255.290754 
L 201.094157 251.554909 
L 201.882154 251.321419 
L 202.276152 251.554909 
L 202.67015 250.037222 
L 203.064148 251.087928 
L 203.458147 251.087928 
L 203.852145 251.438164 
L 204.246143 252.138635 
L 204.640141 252.138635 
L 205.034139 252.605615 
L 205.428138 252.722361 
L 205.822136 252.605615 
L 206.216134 252.25538 
L 206.610132 256.10797 
L 207.792127 255.757735 
L 208.186125 256.691696 
L 208.580124 256.691696 
L 208.974122 256.574951 
L 210.550115 260.777776 
L 210.944113 260.894522 
L 211.338111 260.894522 
L 211.732109 261.594993 
L 212.126108 261.128012 
L 213.308102 261.711738 
L 213.702101 261.828483 
L 214.490097 261.594993 
L 214.884095 260.544286 
L 215.278094 260.427541 
L 215.672092 259.143344 
L 216.06609 258.559618 
L 216.460088 258.209383 
L 216.854086 258.326128 
L 217.642083 257.041931 
L 218.036081 256.574951 
L 218.430079 257.275422 
L 218.824078 257.158677 
L 219.218076 256.808441 
L 219.612074 256.691696 
L 220.006072 257.158677 
L 220.400071 256.925186 
L 220.794069 255.64099 
L 221.188067 255.757735 
L 221.976064 256.341461 
L 222.370062 256.458206 
L 222.76406 256.10797 
L 223.158058 257.625657 
L 223.552056 258.209383 
L 223.946055 257.975893 
L 224.340053 257.508912 
L 224.734051 258.209383 
L 225.128049 258.209383 
L 225.522048 258.559618 
L 225.916046 259.143344 
L 226.310044 259.96056 
L 227.098041 260.894522 
L 227.492039 259.96056 
L 227.886037 259.96056 
L 228.280035 259.72707 
L 229.068032 256.808441 
L 229.46203 257.275422 
L 229.856028 258.209383 
L 230.250026 258.092638 
L 230.644025 257.859148 
L 231.038023 258.442873 
L 231.432021 259.610325 
L 231.826019 259.376835 
L 232.614016 255.290754 
L 233.402012 254.473538 
L 233.796011 252.839106 
L 234.190009 249.920477 
L 234.584007 249.920477 
L 234.978005 250.037222 
L 235.372004 250.854438 
L 235.766002 251.087928 
L 236.16 250.854438 
L 236.553998 249.686987 
L 236.947996 249.103261 
L 237.341995 248.986516 
L 237.735993 249.103261 
L 238.129991 247.819064 
L 238.523989 247.585574 
L 238.917988 248.40279 
L 239.311986 249.920477 
L 239.705984 250.037222 
L 240.099982 250.037222 
L 240.493981 247.001848 
L 240.887979 242.215297 
L 241.281977 243.149258 
L 241.675975 243.149258 
L 242.069974 243.849729 
L 242.463972 245.133925 
L 242.85797 245.951142 
L 243.251968 250.153967 
L 243.645966 256.224715 
L 244.039965 255.174009 
L 244.433963 255.290754 
L 244.827961 254.473538 
L 245.221959 255.991225 
L 245.615958 255.64099 
L 246.009956 256.224715 
L 246.403954 255.757735 
L 246.797952 256.574951 
L 247.191951 256.458206 
L 247.585949 257.625657 
L 247.979947 256.808441 
L 248.373945 257.975893 
L 248.767944 257.742402 
L 249.161942 259.376835 
L 249.55594 260.077306 
L 249.949938 258.559618 
L 250.343936 259.026599 
L 250.737935 260.777776 
L 251.131933 260.544286 
L 251.525931 260.894522 
L 252.313928 259.49358 
L 252.707926 260.194051 
L 253.101924 260.077306 
L 253.495922 260.310796 
L 254.283919 259.72707 
L 255.465914 262.645699 
L 256.25391 262.879189 
L 257.041906 264.747112 
L 257.435905 264.396876 
L 257.829903 264.280131 
L 258.617899 263.696405 
L 259.011898 263.696405 
L 259.405896 264.280131 
L 259.799894 264.280131 
L 260.193892 264.513621 
L 260.587891 264.280131 
L 260.981889 264.747112 
L 261.375887 264.980602 
L 262.163883 264.630367 
L 262.557882 264.513621 
L 262.95188 264.513621 
L 263.345878 264.980602 
L 263.739876 264.980602 
L 264.133875 264.863857 
L 264.527873 265.214092 
L 264.921871 265.097347 
L 265.315869 264.863857 
L 265.709868 264.863857 
L 266.103866 264.747112 
L 266.497864 264.396876 
L 266.891862 264.513621 
L 267.285861 264.513621 
L 267.679859 264.630367 
L 268.073857 264.513621 
L 268.861853 264.747112 
L 269.255852 265.097347 
L 270.043848 265.097347 
L 270.437846 264.980602 
L 270.831845 265.330838 
L 272.013839 264.747112 
L 272.407838 264.747112 
L 272.801836 264.863857 
L 273.195834 264.863857 
L 273.589832 264.747112 
L 273.983831 264.980602 
L 275.165825 264.980602 
L 275.559823 264.280131 
L 275.953822 263.929896 
L 276.34782 263.11268 
L 277.923813 262.061973 
L 278.317811 262.528954 
L 278.711809 262.295463 
L 279.105808 262.762444 
L 279.499806 262.295463 
L 279.893804 261.128012 
L 280.681801 261.594993 
L 281.075799 261.361502 
L 281.469797 261.594993 
L 281.863795 261.594993 
L 282.257793 261.828483 
L 282.651792 262.879189 
L 283.04579 262.879189 
L 283.439788 262.412209 
L 283.833786 262.295463 
L 284.227785 261.711738 
L 284.621783 261.828483 
L 285.015781 261.244757 
L 285.409779 261.128012 
L 285.803778 260.544286 
L 286.197776 260.894522 
L 286.985772 260.544286 
L 287.379771 260.427541 
L 287.773769 261.361502 
L 288.167767 261.011267 
L 288.561765 261.128012 
L 288.955763 260.077306 
L 289.349762 260.427541 
L 289.74376 259.376835 
L 290.137758 258.793109 
L 290.925755 258.209383 
L 291.319753 258.676364 
L 291.713751 259.49358 
L 292.107749 257.975893 
L 292.501748 258.326128 
L 292.895746 257.625657 
L 293.289744 255.64099 
L 293.683742 255.290754 
L 294.077741 254.240048 
L 294.471739 254.123303 
L 294.865737 254.707028 
L 295.259735 252.722361 
L 295.653733 252.955851 
L 296.047732 254.123303 
L 296.44173 254.707028 
L 296.835728 255.057264 
L 297.229726 255.057264 
L 297.623725 254.940519 
L 298.017723 256.808441 
L 298.805719 257.392167 
L 299.199718 257.625657 
L 299.593716 257.508912 
L 299.987714 257.975893 
L 300.381712 258.676364 
L 300.775711 257.158677 
L 301.169709 257.625657 
L 301.563707 257.742402 
L 301.957705 257.275422 
L 302.351703 257.625657 
L 302.745702 257.625657 
L 303.1397 257.392167 
L 303.533698 258.442873 
L 303.927696 258.909854 
L 304.321695 258.209383 
L 304.715693 259.026599 
L 305.109691 258.793109 
L 305.503689 258.793109 
L 305.897688 259.026599 
L 306.291686 259.96056 
L 306.685684 259.49358 
L 307.079682 260.194051 
L 307.47368 260.194051 
L 307.867679 260.777776 
L 308.261677 260.427541 
L 308.655675 261.011267 
L 309.049673 261.244757 
L 309.443672 261.244757 
L 309.83767 261.361502 
L 310.231668 261.011267 
L 311.019665 261.244757 
L 311.413663 259.260089 
L 311.807661 258.326128 
L 312.201659 258.442873 
L 312.595658 256.458206 
L 312.989656 255.524244 
L 313.383654 253.773067 
L 313.777652 253.306086 
L 314.17165 253.306086 
L 314.565649 252.839106 
L 314.959647 250.504203 
L 315.353645 250.037222 
L 315.747643 249.220006 
L 316.141642 248.052554 
L 316.53564 248.40279 
L 316.929638 246.067887 
L 317.323636 240.464119 
L 317.717635 238.829687 
L 318.111633 236.261294 
L 318.505631 236.378039 
L 318.899629 236.144548 
L 319.293628 234.393371 
L 319.687626 231.474742 
L 320.081624 229.60682 
L 320.475622 228.556113 
L 320.86962 227.972387 
L 321.263619 228.439368 
L 321.657617 225.637484 
L 322.051615 224.937013 
L 322.445613 224.586778 
L 322.839612 226.337955 
L 323.23361 223.419326 
L 323.627608 222.718855 
L 324.021606 221.201168 
L 324.415605 223.536072 
L 324.809603 222.952346 
L 325.203601 225.637484 
L 325.991598 228.322623 
L 326.385596 228.906349 
L 326.779594 228.205878 
L 327.173592 229.490075 
L 327.961589 233.809645 
L 328.355587 234.393371 
L 329.143583 238.479452 
L 329.537582 241.865061 
L 330.325578 243.966474 
L 330.719576 244.199964 
L 331.113575 245.717651 
L 331.507573 247.819064 
L 331.901571 250.620948 
L 332.295569 249.103261 
L 332.689568 248.86977 
L 333.083566 247.702319 
L 333.477564 248.40279 
L 333.871562 251.321419 
L 334.26556 252.138635 
L 334.659559 252.02189 
L 335.841553 255.87448 
L 336.235552 255.057264 
L 336.62955 252.605615 
L 337.023548 252.138635 
L 337.417546 251.438164 
L 337.811545 250.971183 
L 338.205543 249.686987 
L 338.599541 248.86977 
L 338.993539 247.352083 
L 339.387538 248.286045 
L 339.781536 248.40279 
L 340.175534 243.149258 
L 340.569532 242.565532 
L 341.357529 236.027803 
L 341.751527 236.261294 
L 342.145525 232.175213 
L 342.539523 224.470033 
L 342.933522 224.820268 
L 343.32752 220.383952 
L 343.721518 221.901639 
L 344.115516 217.698814 
L 344.509515 209.059672 
L 344.903513 211.161085 
L 345.297511 219.099756 
L 345.691509 219.099756 
L 346.085508 221.784894 
L 346.479506 222.835601 
L 346.873504 224.703523 
L 347.6615 188.162289 
L 348.843495 129.672966 
L 349.237493 118.348686 
L 349.631492 118.582176 
L 350.02549 128.038534 
L 350.419488 131.073908 
L 350.813486 119.399392 
L 351.207485 124.886414 
L 351.601483 127.805043 
L 351.995481 124.536179 
L 352.389479 113.095154 
L 353.177476 98.96899 
L 353.571474 106.67417 
L 353.965472 94.766164 
L 354.35947 91.73079 
L 354.753469 94.532674 
L 355.147467 95.81687 
L 355.541465 96.167106 
L 355.935463 101.887618 
L 356.329462 99.43597 
L 356.72346 109.592799 
L 357.117458 114.846331 
L 357.511456 116.714253 
L 357.905455 117.531469 
L 358.299453 117.414724 
L 358.693451 111.810957 
L 359.087449 122.084531 
L 359.481447 125.937121 
L 359.875446 135.159988 
L 360.269444 137.845127 
L 360.663442 145.550307 
L 361.451439 166.797925 
L 361.845437 168.665848 
L 362.239435 169.016083 
L 362.633433 161.310903 
L 363.027432 161.194158 
L 363.42143 161.427648 
L 364.209426 162.244864 
L 364.603425 150.803839 
L 364.997423 149.402897 
L 365.391421 152.555016 
L 365.785419 151.621055 
L 366.179417 135.510224 
L 366.573416 133.058575 
L 366.967414 134.693007 
L 367.361412 140.41352 
L 367.75541 130.139946 
L 368.149409 125.70363 
L 368.937405 113.328644 
L 369.725402 73.4018 
L 370.1194 59.158891 
L 370.513398 52.154182 
L 370.907396 60.443088 
L 371.301395 62.661246 
L 371.695393 56.590498 
L 372.089391 63.945443 
L 372.483389 65.579875 
L 372.877387 69.899446 
L 373.271386 70.716662 
L 373.665384 74.219016 
L 374.059382 75.853449 
L 374.45338 107.374641 
L 375.241377 125.70363 
L 376.029373 161.777884 
L 376.423372 156.991332 
L 376.81737 160.610432 
L 377.211368 153.839213 
L 377.605366 163.762551 
L 377.999365 165.163493 
L 378.393363 162.011374 
L 378.787361 165.747219 
L 379.181359 171.234241 
L 379.575357 178.472441 
L 379.969356 178.355696 
L 380.363354 173.91938 
L 380.757352 180.690599 
L 381.15135 180.573854 
L 381.545349 180.340364 
L 381.939347 176.721264 
L 382.333345 170.183535 
L 382.727343 180.690599 
L 383.121342 187.228328 
L 383.51534 186.411112 
L 383.909338 195.517234 
L 384.303336 199.369824 
L 385.091333 216.297872 
L 385.485331 203.105669 
L 385.879329 204.856846 
L 386.667326 213.029007 
L 387.061324 213.846224 
L 387.455322 213.846224 
L 387.84932 213.729478 
L 388.243319 217.582069 
L 388.637317 217.932304 
L 389.031315 218.74952 
L 389.425313 221.901639 
L 389.819312 223.185836 
L 390.21331 220.267207 
L 391.001306 220.500697 
L 391.395305 224.119797 
L 391.789303 230.190545 
L 392.183301 231.241252 
L 392.971297 237.07851 
L 393.365296 237.07851 
L 393.759294 240.580864 
L 394.153292 241.16459 
L 394.54729 243.149258 
L 394.941289 246.651613 
L 395.335287 246.067887 
L 395.729285 245.717651 
L 396.123283 245.600906 
L 396.517282 247.935809 
L 396.91128 247.702319 
L 397.305278 247.235338 
L 397.699276 244.78369 
L 398.093274 246.534867 
L 398.487273 246.885103 
L 398.487273 246.885103 
" clip-path="url(#pafccafbdf0)" style="fill: none; stroke: #1f77b4; stroke-width: 1.5; stroke-linecap: square"/>
   </g>
   <g id="patch_3">
    <path d="M 57.6 276.48 
L 57.6 41.472 
" style="fill: none; stroke: #000000; stroke-width: 0.8; stroke-linejoin: miter; stroke-linecap: square"/>
   </g>
   <g id="patch_4">
    <path d="M 414.72 276.48 
L 414.72 41.472 
" style="fill: none; stroke: #000000; stroke-width: 0.8; stroke-linejoin: miter; stroke-linecap: square"/>
   </g>
   <g id="patch_5">
    <path d="M 57.6 276.48 
L 414.72 276.48 
" style="fill: none; stroke: #000000; stroke-width: 0.8; stroke-linejoin: miter; stroke-linecap: square"/>
   </g>
   <g id="patch_6">
    <path d="M 57.6 41.472 
L 414.72 41.472 
" style="fill: none; stroke: #000000; stroke-width: 0.8; stroke-linejoin: miter; stroke-linecap: square"/>
   </g>
  </g>
  <g id="text_18">
   <!-- Inzidenzverlauf SK Aschaffenburg -->
   <g transform="translate(79.086094 20.589187)scale(0.18 -0.18)">
    <defs>
     <path id="DejaVuSans-76" d="M 191 3500 
L 800 3500 
L 1894 563 
L 2988 3500 
L 3597 3500 
L 2284 0 
L 1503 0 
L 191 3500 
z
" transform="scale(0.015625)"/>
     <path id="DejaVuSans-6c" d="M 603 4863 
L 1178 4863 
L 1178 0 
L 603 0 
L 603 4863 
z
" transform="scale(0.015625)"/>
     <path id="DejaVuSans-75" d="M 544 1381 
L 544 3500 
L 1119 3500 
L 1119 1403 
Q 1119 906 1312 657 
Q 1506 409 1894 409 
Q 2359 409 2629 706 
Q 2900 1003 2900 1516 
L 2900 3500 
L 3475 3500 
L 3475 0 
L 2900 0 
L 2900 538 
Q 2691 219 2414 64 
Q 2138 -91 1772 -91 
Q 1169 -91 856 284 
Q 544 659 544 1381 
z
M 1991 3584 
L 1991 3584 
z
" transform="scale(0.015625)"/>
     <path id="DejaVuSans-66" d="M 2375 4863 
L 2375 4384 
L 1825 4384 
Q 1516 4384 1395 4259 
Q 1275 4134 1275 3809 
L 1275 3500 
L 2222 3500 
L 2222 3053 
L 1275 3053 
L 1275 0 
L 697 0 
L 697 3053 
L 147 3053 
L 147 3500 
L 697 3500 
L 697 3744 
Q 697 4328 969 4595 
Q 1241 4863 1831 4863 
L 2375 4863 
z
" transform="scale(0.015625)"/>
     <path id="DejaVuSans-53" d="M 3425 4513 
L 3425 3897 
Q 3066 4069 2747 4153 
Q 2428 4238 2131 4238 
Q 1616 4238 1336 4038 
Q 1056 3838 1056 3469 
Q 1056 3159 1242 3001 
Q 1428 2844 1947 2747 
L 2328 2669 
Q 3034 2534 3370 2195 
Q 3706 1856 3706 1288 
Q 3706 609 3251 259 
Q 2797 -91 1919 -91 
Q 1588 -91 1214 -16 
Q 841 59 441 206 
L 441 856 
Q 825 641 1194 531 
Q 1563 422 1919 422 
Q 2459 422 2753 634 
Q 3047 847 3047 1241 
Q 3047 1584 2836 1778 
Q 2625 1972 2144 2069 
L 1759 2144 
Q 1053 2284 737 2584 
Q 422 2884 422 3419 
Q 422 4038 858 4394 
Q 1294 4750 2059 4750 
Q 2388 4750 2728 4690 
Q 3069 4631 3425 4513 
z
" transform="scale(0.015625)"/>
     <path id="DejaVuSans-4b" d="M 628 4666 
L 1259 4666 
L 1259 2694 
L 3353 4666 
L 4166 4666 
L 1850 2491 
L 4331 0 
L 3500 0 
L 1259 2247 
L 1259 0 
L 628 0 
L 628 4666 
z
" transform="scale(0.015625)"/>
     <path id="DejaVuSans-41" d="M 2188 4044 
L 1331 1722 
L 3047 1722 
L 2188 4044 
z
M 1831 4666 
L 2547 4666 
L 4325 0 
L 3669 0 
L 3244 1197 
L 1141 1197 
L 716 0 
L 50 0 
L 1831 4666 
z
" transform="scale(0.015625)"/>
     <path id="DejaVuSans-73" d="M 2834 3397 
L 2834 2853 
Q 2591 2978 2328 3040 
Q 2066 3103 1784 3103 
Q 1356 3103 1142 2972 
Q 928 2841 928 2578 
Q 928 2378 1081 2264 
Q 1234 2150 1697 2047 
L 1894 2003 
Q 2506 1872 2764 1633 
Q 3022 1394 3022 966 
Q 3022 478 2636 193 
Q 2250 -91 1575 -91 
Q 1294 -91 989 -36 
Q 684 19 347 128 
L 347 722 
Q 666 556 975 473 
Q 1284 391 1588 391 
Q 1994 391 2212 530 
Q 2431 669 2431 922 
Q 2431 1156 2273 1281 
Q 2116 1406 1581 1522 
L 1381 1569 
Q 847 1681 609 1914 
Q 372 2147 372 2553 
Q 372 3047 722 3315 
Q 1072 3584 1716 3584 
Q 2034 3584 2315 3537 
Q 2597 3491 2834 3397 
z
" transform="scale(0.015625)"/>
     <path id="DejaVuSans-63" d="M 3122 3366 
L 3122 2828 
Q 2878 2963 2633 3030 
Q 2388 3097 2138 3097 
Q 1578 3097 1268 2742 
Q 959 2388 959 1747 
Q 959 1106 1268 751 
Q 1578 397 2138 397 
Q 2388 397 2633 464 
Q 2878 531 3122 666 
L 3122 134 
Q 2881 22 2623 -34 
Q 2366 -91 2075 -91 
Q 1284 -91 818 406 
Q 353 903 353 1747 
Q 353 2603 823 3093 
Q 1294 3584 2113 3584 
Q 2378 3584 2631 3529 
Q 2884 3475 3122 3366 
z
" transform="scale(0.015625)"/>
     <path id="DejaVuSans-62" d="M 3116 1747 
Q 3116 2381 2855 2742 
Q 2594 3103 2138 3103 
Q 1681 3103 1420 2742 
Q 1159 2381 1159 1747 
Q 1159 1113 1420 752 
Q 1681 391 2138 391 
Q 2594 391 2855 752 
Q 3116 1113 3116 1747 
z
M 1159 2969 
Q 1341 3281 1617 3432 
Q 1894 3584 2278 3584 
Q 2916 3584 3314 3078 
Q 3713 2572 3713 1747 
Q 3713 922 3314 415 
Q 2916 -91 2278 -91 
Q 1894 -91 1617 61 
Q 1341 213 1159 525 
L 1159 0 
L 581 0 
L 581 4863 
L 1159 4863 
L 1159 2969 
z
" transform="scale(0.015625)"/>
    </defs>
    <use xlink:href="#DejaVuSans-49"/>
    <use xlink:href="#DejaVuSans-6e" x="29.492188"/>
    <use xlink:href="#DejaVuSans-7a" x="92.871094"/>
    <use xlink:href="#DejaVuSans-69" x="145.361328"/>
    <use xlink:href="#DejaVuSans-64" x="173.144531"/>
    <use xlink:href="#DejaVuSans-65" x="236.621094"/>
    <use xlink:href="#DejaVuSans-6e" x="298.144531"/>
    <use xlink:href="#DejaVuSans-7a" x="361.523438"/>
    <use xlink:href="#DejaVuSans-76" x="414.013672"/>
    <use xlink:href="#DejaVuSans-65" x="473.193359"/>
    <use xlink:href="#DejaVuSans-72" x="534.716797"/>
    <use xlink:href="#DejaVuSans-6c" x="575.830078"/>
    <use xlink:href="#DejaVuSans-61" x="603.613281"/>
    <use xlink:href="#DejaVuSans-75" x="664.892578"/>
    <use xlink:href="#DejaVuSans-66" x="728.271484"/>
    <use xlink:href="#DejaVuSans-20" x="763.476562"/>
    <use xlink:href="#DejaVuSans-53" x="795.263672"/>
    <use xlink:href="#DejaVuSans-4b" x="858.740234"/>
    <use xlink:href="#DejaVuSans-20" x="924.316406"/>
    <use xlink:href="#DejaVuSans-41" x="956.103516"/>
    <use xlink:href="#DejaVuSans-73" x="1024.511719"/>
    <use xlink:href="#DejaVuSans-63" x="1076.611328"/>
    <use xlink:href="#DejaVuSans-68" x="1131.591797"/>
    <use xlink:href="#DejaVuSans-61" x="1194.970703"/>
    <use xlink:href="#DejaVuSans-66" x="1256.25"/>
    <use xlink:href="#DejaVuSans-66" x="1291.455078"/>
    <use xlink:href="#DejaVuSans-65" x="1326.660156"/>
    <use xlink:href="#DejaVuSans-6e" x="1388.183594"/>
    <use xlink:href="#DejaVuSans-62" x="1451.5625"/>
    <use xlink:href="#DejaVuSans-75" x="1515.039062"/>
    <use xlink:href="#DejaVuSans-72" x="1578.417969"/>
    <use xlink:href="#DejaVuSans-67" x="1617.78125"/>
   </g>
  </g>
 </g>
 <defs>
  <clipPath id="pafccafbdf0">
   <rect x="57.6" y="41.472" width="357.12" height="235.008"/>
  </clipPath>
 </defs>
</svg>
