<?xml version="1.0" encoding="utf-8" standalone="no"?>
<!DOCTYPE svg PUBLIC "-//W3C//DTD SVG 1.1//EN"
  "http://www.w3.org/Graphics/SVG/1.1/DTD/svg11.dtd">
<svg xmlns:xlink="http://www.w3.org/1999/xlink" width="460.8pt" height="345.6pt" viewBox="0 0 460.8 345.6" xmlns="http://www.w3.org/2000/svg" version="1.1">
 <metadata>
  <rdf:RDF xmlns:dc="http://purl.org/dc/elements/1.1/" xmlns:cc="http://creativecommons.org/ns#" xmlns:rdf="http://www.w3.org/1999/02/22-rdf-syntax-ns#">
   <cc:Work>
    <dc:type rdf:resource="http://purl.org/dc/dcmitype/StillImage"/>
    <dc:date>2021-11-17T09:20:36.299116</dc:date>
    <dc:format>image/svg+xml</dc:format>
    <dc:creator>
     <cc:Agent>
      <dc:title>Matplotlib v3.5.0, https://matplotlib.org/</dc:title>
     </cc:Agent>
    </dc:creator>
   </cc:Work>
  </rdf:RDF>
 </metadata>
 <defs>
  <style type="text/css">*{stroke-linejoin: round; stroke-linecap: butt}</style>
 </defs>
 <g id="figure_1">
  <g id="patch_1">
   <path d="M 0 345.6 
L 460.8 345.6 
L 460.8 0 
L 0 0 
z
" style="fill: #ffffff"/>
  </g>
  <g id="axes_1">
   <g id="patch_2">
    <path d="M 57.6 276.48 
L 414.72 276.48 
L 414.72 41.472 
L 57.6 41.472 
z
" style="fill: #ffffff"/>
   </g>
   <g id="matplotlib.axis_1">
    <g id="xtick_1">
     <g id="line2d_1">
      <path d="M 58.376084 276.48 
L 58.376084 41.472 
" clip-path="url(#p7ed0060d08)" style="fill: none; stroke-dasharray: 2.96,1.28; stroke-dashoffset: 0; stroke: #808080; stroke-width: 0.8"/>
     </g>
     <g id="line2d_2">
      <defs>
       <path id="m2f1a643ff6" d="M 0 0 
L 0 3.5 
" style="stroke: #000000; stroke-width: 0.8"/>
      </defs>
      <g>
       <use xlink:href="#m2f1a643ff6" x="58.376084" y="276.48" style="stroke: #000000; stroke-width: 0.8"/>
      </g>
     </g>
     <g id="text_1">
      <!-- 02.02.2020 -->
      <g transform="translate(7.750873 318.688565)rotate(-30)scale(0.1 -0.1)">
       <defs>
        <path id="DejaVuSans-30" d="M 2034 4250 
Q 1547 4250 1301 3770 
Q 1056 3291 1056 2328 
Q 1056 1369 1301 889 
Q 1547 409 2034 409 
Q 2525 409 2770 889 
Q 3016 1369 3016 2328 
Q 3016 3291 2770 3770 
Q 2525 4250 2034 4250 
z
M 2034 4750 
Q 2819 4750 3233 4129 
Q 3647 3509 3647 2328 
Q 3647 1150 3233 529 
Q 2819 -91 2034 -91 
Q 1250 -91 836 529 
Q 422 1150 422 2328 
Q 422 3509 836 4129 
Q 1250 4750 2034 4750 
z
" transform="scale(0.015625)"/>
        <path id="DejaVuSans-32" d="M 1228 531 
L 3431 531 
L 3431 0 
L 469 0 
L 469 531 
Q 828 903 1448 1529 
Q 2069 2156 2228 2338 
Q 2531 2678 2651 2914 
Q 2772 3150 2772 3378 
Q 2772 3750 2511 3984 
Q 2250 4219 1831 4219 
Q 1534 4219 1204 4116 
Q 875 4013 500 3803 
L 500 4441 
Q 881 4594 1212 4672 
Q 1544 4750 1819 4750 
Q 2544 4750 2975 4387 
Q 3406 4025 3406 3419 
Q 3406 3131 3298 2873 
Q 3191 2616 2906 2266 
Q 2828 2175 2409 1742 
Q 1991 1309 1228 531 
z
" transform="scale(0.015625)"/>
        <path id="DejaVuSans-2e" d="M 684 794 
L 1344 794 
L 1344 0 
L 684 0 
L 684 794 
z
" transform="scale(0.015625)"/>
       </defs>
       <use xlink:href="#DejaVuSans-30"/>
       <use xlink:href="#DejaVuSans-32" x="63.623047"/>
       <use xlink:href="#DejaVuSans-2e" x="127.246094"/>
       <use xlink:href="#DejaVuSans-30" x="159.033203"/>
       <use xlink:href="#DejaVuSans-32" x="222.65625"/>
       <use xlink:href="#DejaVuSans-2e" x="286.279297"/>
       <use xlink:href="#DejaVuSans-32" x="318.066406"/>
       <use xlink:href="#DejaVuSans-30" x="381.689453"/>
       <use xlink:href="#DejaVuSans-32" x="445.3125"/>
       <use xlink:href="#DejaVuSans-30" x="508.935547"/>
      </g>
     </g>
    </g>
    <g id="xtick_2">
     <g id="line2d_3">
      <path d="M 94.275385 276.48 
L 94.275385 41.472 
" clip-path="url(#p7ed0060d08)" style="fill: none; stroke-dasharray: 2.96,1.28; stroke-dashoffset: 0; stroke: #808080; stroke-width: 0.8"/>
     </g>
     <g id="line2d_4">
      <g>
       <use xlink:href="#m2f1a643ff6" x="94.275385" y="276.48" style="stroke: #000000; stroke-width: 0.8"/>
      </g>
     </g>
     <g id="text_2">
      <!-- 11.04.2020 -->
      <g transform="translate(43.650174 318.688565)rotate(-30)scale(0.1 -0.1)">
       <defs>
        <path id="DejaVuSans-31" d="M 794 531 
L 1825 531 
L 1825 4091 
L 703 3866 
L 703 4441 
L 1819 4666 
L 2450 4666 
L 2450 531 
L 3481 531 
L 3481 0 
L 794 0 
L 794 531 
z
" transform="scale(0.015625)"/>
        <path id="DejaVuSans-34" d="M 2419 4116 
L 825 1625 
L 2419 1625 
L 2419 4116 
z
M 2253 4666 
L 3047 4666 
L 3047 1625 
L 3713 1625 
L 3713 1100 
L 3047 1100 
L 3047 0 
L 2419 0 
L 2419 1100 
L 313 1100 
L 313 1709 
L 2253 4666 
z
" transform="scale(0.015625)"/>
       </defs>
       <use xlink:href="#DejaVuSans-31"/>
       <use xlink:href="#DejaVuSans-31" x="63.623047"/>
       <use xlink:href="#DejaVuSans-2e" x="127.246094"/>
       <use xlink:href="#DejaVuSans-30" x="159.033203"/>
       <use xlink:href="#DejaVuSans-34" x="222.65625"/>
       <use xlink:href="#DejaVuSans-2e" x="286.279297"/>
       <use xlink:href="#DejaVuSans-32" x="318.066406"/>
       <use xlink:href="#DejaVuSans-30" x="381.689453"/>
       <use xlink:href="#DejaVuSans-32" x="445.3125"/>
       <use xlink:href="#DejaVuSans-30" x="508.935547"/>
      </g>
     </g>
    </g>
    <g id="xtick_3">
     <g id="line2d_5">
      <path d="M 130.174685 276.48 
L 130.174685 41.472 
" clip-path="url(#p7ed0060d08)" style="fill: none; stroke-dasharray: 2.96,1.28; stroke-dashoffset: 0; stroke: #808080; stroke-width: 0.8"/>
     </g>
     <g id="line2d_6">
      <g>
       <use xlink:href="#m2f1a643ff6" x="130.174685" y="276.48" style="stroke: #000000; stroke-width: 0.8"/>
      </g>
     </g>
     <g id="text_3">
      <!-- 19.06.2020 -->
      <g transform="translate(79.549475 318.688565)rotate(-30)scale(0.1 -0.1)">
       <defs>
        <path id="DejaVuSans-39" d="M 703 97 
L 703 672 
Q 941 559 1184 500 
Q 1428 441 1663 441 
Q 2288 441 2617 861 
Q 2947 1281 2994 2138 
Q 2813 1869 2534 1725 
Q 2256 1581 1919 1581 
Q 1219 1581 811 2004 
Q 403 2428 403 3163 
Q 403 3881 828 4315 
Q 1253 4750 1959 4750 
Q 2769 4750 3195 4129 
Q 3622 3509 3622 2328 
Q 3622 1225 3098 567 
Q 2575 -91 1691 -91 
Q 1453 -91 1209 -44 
Q 966 3 703 97 
z
M 1959 2075 
Q 2384 2075 2632 2365 
Q 2881 2656 2881 3163 
Q 2881 3666 2632 3958 
Q 2384 4250 1959 4250 
Q 1534 4250 1286 3958 
Q 1038 3666 1038 3163 
Q 1038 2656 1286 2365 
Q 1534 2075 1959 2075 
z
" transform="scale(0.015625)"/>
        <path id="DejaVuSans-36" d="M 2113 2584 
Q 1688 2584 1439 2293 
Q 1191 2003 1191 1497 
Q 1191 994 1439 701 
Q 1688 409 2113 409 
Q 2538 409 2786 701 
Q 3034 994 3034 1497 
Q 3034 2003 2786 2293 
Q 2538 2584 2113 2584 
z
M 3366 4563 
L 3366 3988 
Q 3128 4100 2886 4159 
Q 2644 4219 2406 4219 
Q 1781 4219 1451 3797 
Q 1122 3375 1075 2522 
Q 1259 2794 1537 2939 
Q 1816 3084 2150 3084 
Q 2853 3084 3261 2657 
Q 3669 2231 3669 1497 
Q 3669 778 3244 343 
Q 2819 -91 2113 -91 
Q 1303 -91 875 529 
Q 447 1150 447 2328 
Q 447 3434 972 4092 
Q 1497 4750 2381 4750 
Q 2619 4750 2861 4703 
Q 3103 4656 3366 4563 
z
" transform="scale(0.015625)"/>
       </defs>
       <use xlink:href="#DejaVuSans-31"/>
       <use xlink:href="#DejaVuSans-39" x="63.623047"/>
       <use xlink:href="#DejaVuSans-2e" x="127.246094"/>
       <use xlink:href="#DejaVuSans-30" x="159.033203"/>
       <use xlink:href="#DejaVuSans-36" x="222.65625"/>
       <use xlink:href="#DejaVuSans-2e" x="286.279297"/>
       <use xlink:href="#DejaVuSans-32" x="318.066406"/>
       <use xlink:href="#DejaVuSans-30" x="381.689453"/>
       <use xlink:href="#DejaVuSans-32" x="445.3125"/>
       <use xlink:href="#DejaVuSans-30" x="508.935547"/>
      </g>
     </g>
    </g>
    <g id="xtick_4">
     <g id="line2d_7">
      <path d="M 166.073986 276.48 
L 166.073986 41.472 
" clip-path="url(#p7ed0060d08)" style="fill: none; stroke-dasharray: 2.96,1.28; stroke-dashoffset: 0; stroke: #808080; stroke-width: 0.8"/>
     </g>
     <g id="line2d_8">
      <g>
       <use xlink:href="#m2f1a643ff6" x="166.073986" y="276.48" style="stroke: #000000; stroke-width: 0.8"/>
      </g>
     </g>
     <g id="text_4">
      <!-- 27.08.2020 -->
      <g transform="translate(115.448775 318.688565)rotate(-30)scale(0.1 -0.1)">
       <defs>
        <path id="DejaVuSans-37" d="M 525 4666 
L 3525 4666 
L 3525 4397 
L 1831 0 
L 1172 0 
L 2766 4134 
L 525 4134 
L 525 4666 
z
" transform="scale(0.015625)"/>
        <path id="DejaVuSans-38" d="M 2034 2216 
Q 1584 2216 1326 1975 
Q 1069 1734 1069 1313 
Q 1069 891 1326 650 
Q 1584 409 2034 409 
Q 2484 409 2743 651 
Q 3003 894 3003 1313 
Q 3003 1734 2745 1975 
Q 2488 2216 2034 2216 
z
M 1403 2484 
Q 997 2584 770 2862 
Q 544 3141 544 3541 
Q 544 4100 942 4425 
Q 1341 4750 2034 4750 
Q 2731 4750 3128 4425 
Q 3525 4100 3525 3541 
Q 3525 3141 3298 2862 
Q 3072 2584 2669 2484 
Q 3125 2378 3379 2068 
Q 3634 1759 3634 1313 
Q 3634 634 3220 271 
Q 2806 -91 2034 -91 
Q 1263 -91 848 271 
Q 434 634 434 1313 
Q 434 1759 690 2068 
Q 947 2378 1403 2484 
z
M 1172 3481 
Q 1172 3119 1398 2916 
Q 1625 2713 2034 2713 
Q 2441 2713 2670 2916 
Q 2900 3119 2900 3481 
Q 2900 3844 2670 4047 
Q 2441 4250 2034 4250 
Q 1625 4250 1398 4047 
Q 1172 3844 1172 3481 
z
" transform="scale(0.015625)"/>
       </defs>
       <use xlink:href="#DejaVuSans-32"/>
       <use xlink:href="#DejaVuSans-37" x="63.623047"/>
       <use xlink:href="#DejaVuSans-2e" x="127.246094"/>
       <use xlink:href="#DejaVuSans-30" x="159.033203"/>
       <use xlink:href="#DejaVuSans-38" x="222.65625"/>
       <use xlink:href="#DejaVuSans-2e" x="286.279297"/>
       <use xlink:href="#DejaVuSans-32" x="318.066406"/>
       <use xlink:href="#DejaVuSans-30" x="381.689453"/>
       <use xlink:href="#DejaVuSans-32" x="445.3125"/>
       <use xlink:href="#DejaVuSans-30" x="508.935547"/>
      </g>
     </g>
    </g>
    <g id="xtick_5">
     <g id="line2d_9">
      <path d="M 201.973287 276.48 
L 201.973287 41.472 
" clip-path="url(#p7ed0060d08)" style="fill: none; stroke-dasharray: 2.96,1.28; stroke-dashoffset: 0; stroke: #808080; stroke-width: 0.8"/>
     </g>
     <g id="line2d_10">
      <g>
       <use xlink:href="#m2f1a643ff6" x="201.973287" y="276.48" style="stroke: #000000; stroke-width: 0.8"/>
      </g>
     </g>
     <g id="text_5">
      <!-- 04.11.2020 -->
      <g transform="translate(151.348076 318.688565)rotate(-30)scale(0.1 -0.1)">
       <use xlink:href="#DejaVuSans-30"/>
       <use xlink:href="#DejaVuSans-34" x="63.623047"/>
       <use xlink:href="#DejaVuSans-2e" x="127.246094"/>
       <use xlink:href="#DejaVuSans-31" x="159.033203"/>
       <use xlink:href="#DejaVuSans-31" x="222.65625"/>
       <use xlink:href="#DejaVuSans-2e" x="286.279297"/>
       <use xlink:href="#DejaVuSans-32" x="318.066406"/>
       <use xlink:href="#DejaVuSans-30" x="381.689453"/>
       <use xlink:href="#DejaVuSans-32" x="445.3125"/>
       <use xlink:href="#DejaVuSans-30" x="508.935547"/>
      </g>
     </g>
    </g>
    <g id="xtick_6">
     <g id="line2d_11">
      <path d="M 237.872587 276.48 
L 237.872587 41.472 
" clip-path="url(#p7ed0060d08)" style="fill: none; stroke-dasharray: 2.96,1.28; stroke-dashoffset: 0; stroke: #808080; stroke-width: 0.8"/>
     </g>
     <g id="line2d_12">
      <g>
       <use xlink:href="#m2f1a643ff6" x="237.872587" y="276.48" style="stroke: #000000; stroke-width: 0.8"/>
      </g>
     </g>
     <g id="text_6">
      <!-- 12.01.2021 -->
      <g transform="translate(187.247377 318.688565)rotate(-30)scale(0.1 -0.1)">
       <use xlink:href="#DejaVuSans-31"/>
       <use xlink:href="#DejaVuSans-32" x="63.623047"/>
       <use xlink:href="#DejaVuSans-2e" x="127.246094"/>
       <use xlink:href="#DejaVuSans-30" x="159.033203"/>
       <use xlink:href="#DejaVuSans-31" x="222.65625"/>
       <use xlink:href="#DejaVuSans-2e" x="286.279297"/>
       <use xlink:href="#DejaVuSans-32" x="318.066406"/>
       <use xlink:href="#DejaVuSans-30" x="381.689453"/>
       <use xlink:href="#DejaVuSans-32" x="445.3125"/>
       <use xlink:href="#DejaVuSans-31" x="508.935547"/>
      </g>
     </g>
    </g>
    <g id="xtick_7">
     <g id="line2d_13">
      <path d="M 273.771888 276.48 
L 273.771888 41.472 
" clip-path="url(#p7ed0060d08)" style="fill: none; stroke-dasharray: 2.96,1.28; stroke-dashoffset: 0; stroke: #808080; stroke-width: 0.8"/>
     </g>
     <g id="line2d_14">
      <g>
       <use xlink:href="#m2f1a643ff6" x="273.771888" y="276.48" style="stroke: #000000; stroke-width: 0.8"/>
      </g>
     </g>
     <g id="text_7">
      <!-- 22.03.2021 -->
      <g transform="translate(223.146677 318.688565)rotate(-30)scale(0.1 -0.1)">
       <defs>
        <path id="DejaVuSans-33" d="M 2597 2516 
Q 3050 2419 3304 2112 
Q 3559 1806 3559 1356 
Q 3559 666 3084 287 
Q 2609 -91 1734 -91 
Q 1441 -91 1130 -33 
Q 819 25 488 141 
L 488 750 
Q 750 597 1062 519 
Q 1375 441 1716 441 
Q 2309 441 2620 675 
Q 2931 909 2931 1356 
Q 2931 1769 2642 2001 
Q 2353 2234 1838 2234 
L 1294 2234 
L 1294 2753 
L 1863 2753 
Q 2328 2753 2575 2939 
Q 2822 3125 2822 3475 
Q 2822 3834 2567 4026 
Q 2313 4219 1838 4219 
Q 1578 4219 1281 4162 
Q 984 4106 628 3988 
L 628 4550 
Q 988 4650 1302 4700 
Q 1616 4750 1894 4750 
Q 2613 4750 3031 4423 
Q 3450 4097 3450 3541 
Q 3450 3153 3228 2886 
Q 3006 2619 2597 2516 
z
" transform="scale(0.015625)"/>
       </defs>
       <use xlink:href="#DejaVuSans-32"/>
       <use xlink:href="#DejaVuSans-32" x="63.623047"/>
       <use xlink:href="#DejaVuSans-2e" x="127.246094"/>
       <use xlink:href="#DejaVuSans-30" x="159.033203"/>
       <use xlink:href="#DejaVuSans-33" x="222.65625"/>
       <use xlink:href="#DejaVuSans-2e" x="286.279297"/>
       <use xlink:href="#DejaVuSans-32" x="318.066406"/>
       <use xlink:href="#DejaVuSans-30" x="381.689453"/>
       <use xlink:href="#DejaVuSans-32" x="445.3125"/>
       <use xlink:href="#DejaVuSans-31" x="508.935547"/>
      </g>
     </g>
    </g>
    <g id="xtick_8">
     <g id="line2d_15">
      <path d="M 309.671189 276.48 
L 309.671189 41.472 
" clip-path="url(#p7ed0060d08)" style="fill: none; stroke-dasharray: 2.96,1.28; stroke-dashoffset: 0; stroke: #808080; stroke-width: 0.8"/>
     </g>
     <g id="line2d_16">
      <g>
       <use xlink:href="#m2f1a643ff6" x="309.671189" y="276.48" style="stroke: #000000; stroke-width: 0.8"/>
      </g>
     </g>
     <g id="text_8">
      <!-- 30.05.2021 -->
      <g transform="translate(259.045978 318.688565)rotate(-30)scale(0.1 -0.1)">
       <defs>
        <path id="DejaVuSans-35" d="M 691 4666 
L 3169 4666 
L 3169 4134 
L 1269 4134 
L 1269 2991 
Q 1406 3038 1543 3061 
Q 1681 3084 1819 3084 
Q 2600 3084 3056 2656 
Q 3513 2228 3513 1497 
Q 3513 744 3044 326 
Q 2575 -91 1722 -91 
Q 1428 -91 1123 -41 
Q 819 9 494 109 
L 494 744 
Q 775 591 1075 516 
Q 1375 441 1709 441 
Q 2250 441 2565 725 
Q 2881 1009 2881 1497 
Q 2881 1984 2565 2268 
Q 2250 2553 1709 2553 
Q 1456 2553 1204 2497 
Q 953 2441 691 2322 
L 691 4666 
z
" transform="scale(0.015625)"/>
       </defs>
       <use xlink:href="#DejaVuSans-33"/>
       <use xlink:href="#DejaVuSans-30" x="63.623047"/>
       <use xlink:href="#DejaVuSans-2e" x="127.246094"/>
       <use xlink:href="#DejaVuSans-30" x="159.033203"/>
       <use xlink:href="#DejaVuSans-35" x="222.65625"/>
       <use xlink:href="#DejaVuSans-2e" x="286.279297"/>
       <use xlink:href="#DejaVuSans-32" x="318.066406"/>
       <use xlink:href="#DejaVuSans-30" x="381.689453"/>
       <use xlink:href="#DejaVuSans-32" x="445.3125"/>
       <use xlink:href="#DejaVuSans-31" x="508.935547"/>
      </g>
     </g>
    </g>
    <g id="xtick_9">
     <g id="line2d_17">
      <path d="M 345.57049 276.48 
L 345.57049 41.472 
" clip-path="url(#p7ed0060d08)" style="fill: none; stroke-dasharray: 2.96,1.28; stroke-dashoffset: 0; stroke: #808080; stroke-width: 0.8"/>
     </g>
     <g id="line2d_18">
      <g>
       <use xlink:href="#m2f1a643ff6" x="345.57049" y="276.48" style="stroke: #000000; stroke-width: 0.8"/>
      </g>
     </g>
     <g id="text_9">
      <!-- 07.08.2021 -->
      <g transform="translate(294.945279 318.688565)rotate(-30)scale(0.1 -0.1)">
       <use xlink:href="#DejaVuSans-30"/>
       <use xlink:href="#DejaVuSans-37" x="63.623047"/>
       <use xlink:href="#DejaVuSans-2e" x="127.246094"/>
       <use xlink:href="#DejaVuSans-30" x="159.033203"/>
       <use xlink:href="#DejaVuSans-38" x="222.65625"/>
       <use xlink:href="#DejaVuSans-2e" x="286.279297"/>
       <use xlink:href="#DejaVuSans-32" x="318.066406"/>
       <use xlink:href="#DejaVuSans-30" x="381.689453"/>
       <use xlink:href="#DejaVuSans-32" x="445.3125"/>
       <use xlink:href="#DejaVuSans-31" x="508.935547"/>
      </g>
     </g>
    </g>
    <g id="xtick_10">
     <g id="line2d_19">
      <path d="M 381.46979 276.48 
L 381.46979 41.472 
" clip-path="url(#p7ed0060d08)" style="fill: none; stroke-dasharray: 2.96,1.28; stroke-dashoffset: 0; stroke: #808080; stroke-width: 0.8"/>
     </g>
     <g id="line2d_20">
      <g>
       <use xlink:href="#m2f1a643ff6" x="381.46979" y="276.48" style="stroke: #000000; stroke-width: 0.8"/>
      </g>
     </g>
     <g id="text_10">
      <!-- 15.10.2021 -->
      <g transform="translate(330.844579 318.688565)rotate(-30)scale(0.1 -0.1)">
       <use xlink:href="#DejaVuSans-31"/>
       <use xlink:href="#DejaVuSans-35" x="63.623047"/>
       <use xlink:href="#DejaVuSans-2e" x="127.246094"/>
       <use xlink:href="#DejaVuSans-31" x="159.033203"/>
       <use xlink:href="#DejaVuSans-30" x="222.65625"/>
       <use xlink:href="#DejaVuSans-2e" x="286.279297"/>
       <use xlink:href="#DejaVuSans-32" x="318.066406"/>
       <use xlink:href="#DejaVuSans-30" x="381.689453"/>
       <use xlink:href="#DejaVuSans-32" x="445.3125"/>
       <use xlink:href="#DejaVuSans-31" x="508.935547"/>
      </g>
     </g>
    </g>
   </g>
   <g id="matplotlib.axis_2">
    <g id="ytick_1">
     <g id="line2d_21">
      <path d="M 57.6 265.797818 
L 414.72 265.797818 
" clip-path="url(#p7ed0060d08)" style="fill: none; stroke-dasharray: 2.96,1.28; stroke-dashoffset: 0; stroke: #808080; stroke-width: 0.8"/>
     </g>
     <g id="line2d_22">
      <defs>
       <path id="m9c36cafcfe" d="M 0 0 
L -3.5 0 
" style="stroke: #000000; stroke-width: 0.8"/>
      </defs>
      <g>
       <use xlink:href="#m9c36cafcfe" x="57.6" y="265.797818" style="stroke: #000000; stroke-width: 0.8"/>
      </g>
     </g>
     <g id="text_11">
      <!-- 0 -->
      <g transform="translate(44.2375 269.597037)scale(0.1 -0.1)">
       <use xlink:href="#DejaVuSans-30"/>
      </g>
     </g>
    </g>
    <g id="ytick_2">
     <g id="line2d_23">
      <path d="M 57.6 218.461251 
L 414.72 218.461251 
" clip-path="url(#p7ed0060d08)" style="fill: none; stroke-dasharray: 2.96,1.28; stroke-dashoffset: 0; stroke: #808080; stroke-width: 0.8"/>
     </g>
     <g id="line2d_24">
      <g>
       <use xlink:href="#m9c36cafcfe" x="57.6" y="218.461251" style="stroke: #000000; stroke-width: 0.8"/>
      </g>
     </g>
     <g id="text_12">
      <!-- 50 -->
      <g transform="translate(37.875 222.26047)scale(0.1 -0.1)">
       <use xlink:href="#DejaVuSans-35"/>
       <use xlink:href="#DejaVuSans-30" x="63.623047"/>
      </g>
     </g>
    </g>
    <g id="ytick_3">
     <g id="line2d_25">
      <path d="M 57.6 171.124684 
L 414.72 171.124684 
" clip-path="url(#p7ed0060d08)" style="fill: none; stroke-dasharray: 2.96,1.28; stroke-dashoffset: 0; stroke: #808080; stroke-width: 0.8"/>
     </g>
     <g id="line2d_26">
      <g>
       <use xlink:href="#m9c36cafcfe" x="57.6" y="171.124684" style="stroke: #000000; stroke-width: 0.8"/>
      </g>
     </g>
     <g id="text_13">
      <!-- 100 -->
      <g transform="translate(31.5125 174.923902)scale(0.1 -0.1)">
       <use xlink:href="#DejaVuSans-31"/>
       <use xlink:href="#DejaVuSans-30" x="63.623047"/>
       <use xlink:href="#DejaVuSans-30" x="127.246094"/>
      </g>
     </g>
    </g>
    <g id="ytick_4">
     <g id="line2d_27">
      <path d="M 57.6 123.788116 
L 414.72 123.788116 
" clip-path="url(#p7ed0060d08)" style="fill: none; stroke-dasharray: 2.96,1.28; stroke-dashoffset: 0; stroke: #808080; stroke-width: 0.8"/>
     </g>
     <g id="line2d_28">
      <g>
       <use xlink:href="#m9c36cafcfe" x="57.6" y="123.788116" style="stroke: #000000; stroke-width: 0.8"/>
      </g>
     </g>
     <g id="text_14">
      <!-- 150 -->
      <g transform="translate(31.5125 127.587335)scale(0.1 -0.1)">
       <use xlink:href="#DejaVuSans-31"/>
       <use xlink:href="#DejaVuSans-35" x="63.623047"/>
       <use xlink:href="#DejaVuSans-30" x="127.246094"/>
      </g>
     </g>
    </g>
    <g id="ytick_5">
     <g id="line2d_29">
      <path d="M 57.6 76.451549 
L 414.72 76.451549 
" clip-path="url(#p7ed0060d08)" style="fill: none; stroke-dasharray: 2.96,1.28; stroke-dashoffset: 0; stroke: #808080; stroke-width: 0.8"/>
     </g>
     <g id="line2d_30">
      <g>
       <use xlink:href="#m9c36cafcfe" x="57.6" y="76.451549" style="stroke: #000000; stroke-width: 0.8"/>
      </g>
     </g>
     <g id="text_15">
      <!-- 200 -->
      <g transform="translate(31.5125 80.250768)scale(0.1 -0.1)">
       <use xlink:href="#DejaVuSans-32"/>
       <use xlink:href="#DejaVuSans-30" x="63.623047"/>
       <use xlink:href="#DejaVuSans-30" x="127.246094"/>
      </g>
     </g>
    </g>
    <g id="text_16">
     <!-- Inzidenz pro 7 Tage pro 100.000 Einwohner -->
     <g transform="translate(25.432812 267.301)rotate(-90)scale(0.1 -0.1)">
      <defs>
       <path id="DejaVuSans-49" d="M 628 4666 
L 1259 4666 
L 1259 0 
L 628 0 
L 628 4666 
z
" transform="scale(0.015625)"/>
       <path id="DejaVuSans-6e" d="M 3513 2113 
L 3513 0 
L 2938 0 
L 2938 2094 
Q 2938 2591 2744 2837 
Q 2550 3084 2163 3084 
Q 1697 3084 1428 2787 
Q 1159 2491 1159 1978 
L 1159 0 
L 581 0 
L 581 3500 
L 1159 3500 
L 1159 2956 
Q 1366 3272 1645 3428 
Q 1925 3584 2291 3584 
Q 2894 3584 3203 3211 
Q 3513 2838 3513 2113 
z
" transform="scale(0.015625)"/>
       <path id="DejaVuSans-7a" d="M 353 3500 
L 3084 3500 
L 3084 2975 
L 922 459 
L 3084 459 
L 3084 0 
L 275 0 
L 275 525 
L 2438 3041 
L 353 3041 
L 353 3500 
z
" transform="scale(0.015625)"/>
       <path id="DejaVuSans-69" d="M 603 3500 
L 1178 3500 
L 1178 0 
L 603 0 
L 603 3500 
z
M 603 4863 
L 1178 4863 
L 1178 4134 
L 603 4134 
L 603 4863 
z
" transform="scale(0.015625)"/>
       <path id="DejaVuSans-64" d="M 2906 2969 
L 2906 4863 
L 3481 4863 
L 3481 0 
L 2906 0 
L 2906 525 
Q 2725 213 2448 61 
Q 2172 -91 1784 -91 
Q 1150 -91 751 415 
Q 353 922 353 1747 
Q 353 2572 751 3078 
Q 1150 3584 1784 3584 
Q 2172 3584 2448 3432 
Q 2725 3281 2906 2969 
z
M 947 1747 
Q 947 1113 1208 752 
Q 1469 391 1925 391 
Q 2381 391 2643 752 
Q 2906 1113 2906 1747 
Q 2906 2381 2643 2742 
Q 2381 3103 1925 3103 
Q 1469 3103 1208 2742 
Q 947 2381 947 1747 
z
" transform="scale(0.015625)"/>
       <path id="DejaVuSans-65" d="M 3597 1894 
L 3597 1613 
L 953 1613 
Q 991 1019 1311 708 
Q 1631 397 2203 397 
Q 2534 397 2845 478 
Q 3156 559 3463 722 
L 3463 178 
Q 3153 47 2828 -22 
Q 2503 -91 2169 -91 
Q 1331 -91 842 396 
Q 353 884 353 1716 
Q 353 2575 817 3079 
Q 1281 3584 2069 3584 
Q 2775 3584 3186 3129 
Q 3597 2675 3597 1894 
z
M 3022 2063 
Q 3016 2534 2758 2815 
Q 2500 3097 2075 3097 
Q 1594 3097 1305 2825 
Q 1016 2553 972 2059 
L 3022 2063 
z
" transform="scale(0.015625)"/>
       <path id="DejaVuSans-20" transform="scale(0.015625)"/>
       <path id="DejaVuSans-70" d="M 1159 525 
L 1159 -1331 
L 581 -1331 
L 581 3500 
L 1159 3500 
L 1159 2969 
Q 1341 3281 1617 3432 
Q 1894 3584 2278 3584 
Q 2916 3584 3314 3078 
Q 3713 2572 3713 1747 
Q 3713 922 3314 415 
Q 2916 -91 2278 -91 
Q 1894 -91 1617 61 
Q 1341 213 1159 525 
z
M 3116 1747 
Q 3116 2381 2855 2742 
Q 2594 3103 2138 3103 
Q 1681 3103 1420 2742 
Q 1159 2381 1159 1747 
Q 1159 1113 1420 752 
Q 1681 391 2138 391 
Q 2594 391 2855 752 
Q 3116 1113 3116 1747 
z
" transform="scale(0.015625)"/>
       <path id="DejaVuSans-72" d="M 2631 2963 
Q 2534 3019 2420 3045 
Q 2306 3072 2169 3072 
Q 1681 3072 1420 2755 
Q 1159 2438 1159 1844 
L 1159 0 
L 581 0 
L 581 3500 
L 1159 3500 
L 1159 2956 
Q 1341 3275 1631 3429 
Q 1922 3584 2338 3584 
Q 2397 3584 2469 3576 
Q 2541 3569 2628 3553 
L 2631 2963 
z
" transform="scale(0.015625)"/>
       <path id="DejaVuSans-6f" d="M 1959 3097 
Q 1497 3097 1228 2736 
Q 959 2375 959 1747 
Q 959 1119 1226 758 
Q 1494 397 1959 397 
Q 2419 397 2687 759 
Q 2956 1122 2956 1747 
Q 2956 2369 2687 2733 
Q 2419 3097 1959 3097 
z
M 1959 3584 
Q 2709 3584 3137 3096 
Q 3566 2609 3566 1747 
Q 3566 888 3137 398 
Q 2709 -91 1959 -91 
Q 1206 -91 779 398 
Q 353 888 353 1747 
Q 353 2609 779 3096 
Q 1206 3584 1959 3584 
z
" transform="scale(0.015625)"/>
       <path id="DejaVuSans-54" d="M -19 4666 
L 3928 4666 
L 3928 4134 
L 2272 4134 
L 2272 0 
L 1638 0 
L 1638 4134 
L -19 4134 
L -19 4666 
z
" transform="scale(0.015625)"/>
       <path id="DejaVuSans-61" d="M 2194 1759 
Q 1497 1759 1228 1600 
Q 959 1441 959 1056 
Q 959 750 1161 570 
Q 1363 391 1709 391 
Q 2188 391 2477 730 
Q 2766 1069 2766 1631 
L 2766 1759 
L 2194 1759 
z
M 3341 1997 
L 3341 0 
L 2766 0 
L 2766 531 
Q 2569 213 2275 61 
Q 1981 -91 1556 -91 
Q 1019 -91 701 211 
Q 384 513 384 1019 
Q 384 1609 779 1909 
Q 1175 2209 1959 2209 
L 2766 2209 
L 2766 2266 
Q 2766 2663 2505 2880 
Q 2244 3097 1772 3097 
Q 1472 3097 1187 3025 
Q 903 2953 641 2809 
L 641 3341 
Q 956 3463 1253 3523 
Q 1550 3584 1831 3584 
Q 2591 3584 2966 3190 
Q 3341 2797 3341 1997 
z
" transform="scale(0.015625)"/>
       <path id="DejaVuSans-67" d="M 2906 1791 
Q 2906 2416 2648 2759 
Q 2391 3103 1925 3103 
Q 1463 3103 1205 2759 
Q 947 2416 947 1791 
Q 947 1169 1205 825 
Q 1463 481 1925 481 
Q 2391 481 2648 825 
Q 2906 1169 2906 1791 
z
M 3481 434 
Q 3481 -459 3084 -895 
Q 2688 -1331 1869 -1331 
Q 1566 -1331 1297 -1286 
Q 1028 -1241 775 -1147 
L 775 -588 
Q 1028 -725 1275 -790 
Q 1522 -856 1778 -856 
Q 2344 -856 2625 -561 
Q 2906 -266 2906 331 
L 2906 616 
Q 2728 306 2450 153 
Q 2172 0 1784 0 
Q 1141 0 747 490 
Q 353 981 353 1791 
Q 353 2603 747 3093 
Q 1141 3584 1784 3584 
Q 2172 3584 2450 3431 
Q 2728 3278 2906 2969 
L 2906 3500 
L 3481 3500 
L 3481 434 
z
" transform="scale(0.015625)"/>
       <path id="DejaVuSans-45" d="M 628 4666 
L 3578 4666 
L 3578 4134 
L 1259 4134 
L 1259 2753 
L 3481 2753 
L 3481 2222 
L 1259 2222 
L 1259 531 
L 3634 531 
L 3634 0 
L 628 0 
L 628 4666 
z
" transform="scale(0.015625)"/>
       <path id="DejaVuSans-77" d="M 269 3500 
L 844 3500 
L 1563 769 
L 2278 3500 
L 2956 3500 
L 3675 769 
L 4391 3500 
L 4966 3500 
L 4050 0 
L 3372 0 
L 2619 2869 
L 1863 0 
L 1184 0 
L 269 3500 
z
" transform="scale(0.015625)"/>
       <path id="DejaVuSans-68" d="M 3513 2113 
L 3513 0 
L 2938 0 
L 2938 2094 
Q 2938 2591 2744 2837 
Q 2550 3084 2163 3084 
Q 1697 3084 1428 2787 
Q 1159 2491 1159 1978 
L 1159 0 
L 581 0 
L 581 4863 
L 1159 4863 
L 1159 2956 
Q 1366 3272 1645 3428 
Q 1925 3584 2291 3584 
Q 2894 3584 3203 3211 
Q 3513 2838 3513 2113 
z
" transform="scale(0.015625)"/>
      </defs>
      <use xlink:href="#DejaVuSans-49"/>
      <use xlink:href="#DejaVuSans-6e" x="29.492188"/>
      <use xlink:href="#DejaVuSans-7a" x="92.871094"/>
      <use xlink:href="#DejaVuSans-69" x="145.361328"/>
      <use xlink:href="#DejaVuSans-64" x="173.144531"/>
      <use xlink:href="#DejaVuSans-65" x="236.621094"/>
      <use xlink:href="#DejaVuSans-6e" x="298.144531"/>
      <use xlink:href="#DejaVuSans-7a" x="361.523438"/>
      <use xlink:href="#DejaVuSans-20" x="414.013672"/>
      <use xlink:href="#DejaVuSans-70" x="445.800781"/>
      <use xlink:href="#DejaVuSans-72" x="509.277344"/>
      <use xlink:href="#DejaVuSans-6f" x="548.140625"/>
      <use xlink:href="#DejaVuSans-20" x="609.322266"/>
      <use xlink:href="#DejaVuSans-37" x="641.109375"/>
      <use xlink:href="#DejaVuSans-20" x="704.732422"/>
      <use xlink:href="#DejaVuSans-54" x="736.519531"/>
      <use xlink:href="#DejaVuSans-61" x="781.103516"/>
      <use xlink:href="#DejaVuSans-67" x="842.382812"/>
      <use xlink:href="#DejaVuSans-65" x="905.859375"/>
      <use xlink:href="#DejaVuSans-20" x="967.382812"/>
      <use xlink:href="#DejaVuSans-70" x="999.169922"/>
      <use xlink:href="#DejaVuSans-72" x="1062.646484"/>
      <use xlink:href="#DejaVuSans-6f" x="1101.509766"/>
      <use xlink:href="#DejaVuSans-20" x="1162.691406"/>
      <use xlink:href="#DejaVuSans-31" x="1194.478516"/>
      <use xlink:href="#DejaVuSans-30" x="1258.101562"/>
      <use xlink:href="#DejaVuSans-30" x="1321.724609"/>
      <use xlink:href="#DejaVuSans-2e" x="1385.347656"/>
      <use xlink:href="#DejaVuSans-30" x="1417.134766"/>
      <use xlink:href="#DejaVuSans-30" x="1480.757812"/>
      <use xlink:href="#DejaVuSans-30" x="1544.380859"/>
      <use xlink:href="#DejaVuSans-20" x="1608.003906"/>
      <use xlink:href="#DejaVuSans-45" x="1639.791016"/>
      <use xlink:href="#DejaVuSans-69" x="1702.974609"/>
      <use xlink:href="#DejaVuSans-6e" x="1730.757812"/>
      <use xlink:href="#DejaVuSans-77" x="1794.136719"/>
      <use xlink:href="#DejaVuSans-6f" x="1875.923828"/>
      <use xlink:href="#DejaVuSans-68" x="1937.105469"/>
      <use xlink:href="#DejaVuSans-6e" x="2000.484375"/>
      <use xlink:href="#DejaVuSans-65" x="2063.863281"/>
      <use xlink:href="#DejaVuSans-72" x="2125.386719"/>
     </g>
    </g>
   </g>
   <g id="line2d_31">
    <path d="M 73.832727 265.797818 
L 74.353007 265.797818 
L 74.873287 265.538856 
L 75.393566 265.538856 
L 75.913846 265.279894 
L 76.954406 265.279894 
L 77.474685 265.020932 
L 77.994965 264.503008 
L 78.515245 263.726122 
L 79.555804 261.395464 
L 80.596364 261.395464 
L 81.116643 260.618579 
L 81.636923 259.582731 
L 82.157203 259.582731 
L 83.197762 253.108681 
L 83.718042 246.375669 
L 84.238322 241.714354 
L 85.799161 235.240304 
L 86.319441 235.758228 
L 86.83972 236.535114 
L 87.36 243.268126 
L 88.400559 247.152555 
L 88.920839 247.929441 
L 89.441119 249.742175 
L 90.481678 249.224251 
L 91.001958 249.224251 
L 91.522238 251.295947 
L 92.042517 250.001137 
L 92.562797 252.072833 
L 93.083077 253.626605 
L 93.603357 257.252073 
L 94.123636 251.295947 
L 95.164196 251.295947 
L 95.684476 253.626605 
L 96.204755 253.367643 
L 96.725035 245.598783 
L 97.245315 234.72238 
L 97.765594 241.714354 
L 98.285874 240.419544 
L 98.806154 240.678506 
L 99.326434 239.642658 
L 99.846713 240.160582 
L 100.366993 244.821898 
L 100.887273 256.475187 
L 101.407552 259.323769 
L 101.927832 260.100655 
L 102.968392 261.136502 
L 103.488671 261.136502 
L 104.008951 264.244046 
L 104.529231 263.726122 
L 105.04951 263.726122 
L 105.56979 264.503008 
L 106.09007 264.244046 
L 106.61035 264.244046 
L 107.130629 264.76197 
L 108.171189 260.100655 
L 109.211748 259.582731 
L 109.732028 259.582731 
L 110.252308 256.475187 
L 110.772587 254.662453 
L 111.292867 256.734149 
L 111.813147 257.769997 
L 112.333427 257.511035 
L 112.853706 257.511035 
L 113.373986 257.769997 
L 113.894266 258.546883 
L 114.414545 260.359617 
L 114.934825 260.618579 
L 115.455105 262.431312 
L 115.975385 262.690274 
L 117.015944 262.690274 
L 117.536224 265.020932 
L 118.056503 263.985084 
L 119.097063 257.252073 
L 119.617343 256.993111 
L 120.137622 256.993111 
L 120.657902 256.475187 
L 121.178182 256.734149 
L 121.698462 257.511035 
L 122.218741 260.359617 
L 122.739021 261.654426 
L 123.259301 260.359617 
L 123.77958 256.475187 
L 124.29986 256.993111 
L 124.82014 256.993111 
L 125.34042 256.734149 
L 125.860699 255.180377 
L 126.380979 257.511035 
L 126.901259 258.546883 
L 127.421538 262.431312 
L 127.941818 262.431312 
L 128.462098 261.395464 
L 128.982378 261.136502 
L 129.502657 262.17235 
L 130.022937 261.136502 
L 130.543217 261.913388 
L 131.583776 261.913388 
L 132.104056 261.395464 
L 133.144615 260.87754 
L 133.664895 260.87754 
L 134.185175 259.582731 
L 134.705455 259.064807 
L 135.225734 259.064807 
L 135.746014 260.618579 
L 136.266294 261.395464 
L 136.786573 261.913388 
L 137.306853 262.690274 
L 137.827133 262.949236 
L 138.347413 263.46716 
L 138.867692 263.46716 
L 139.387972 263.726122 
L 139.908252 263.46716 
L 140.428531 262.431312 
L 140.948811 261.913388 
L 141.469091 262.17235 
L 142.50965 262.17235 
L 143.02993 259.323769 
L 143.55021 259.582731 
L 144.07049 258.546883 
L 144.590769 257.252073 
L 145.111049 254.921415 
L 145.631329 254.921415 
L 146.151608 254.662453 
L 146.671888 255.180377 
L 147.192168 253.108681 
L 147.712448 251.554909 
L 148.232727 249.224251 
L 148.753007 248.447365 
L 149.273287 247.411517 
L 149.793566 246.634631 
L 150.313846 248.706327 
L 150.834126 247.670479 
L 151.354406 248.965289 
L 151.874685 251.295947 
L 152.394965 254.662453 
L 152.915245 253.108681 
L 153.435524 253.626605 
L 153.955804 252.849719 
L 154.476084 254.662453 
L 154.996364 255.698301 
L 155.516643 255.180377 
L 156.036923 252.331795 
L 156.557203 251.295947 
L 157.077483 251.813871 
L 157.597762 251.554909 
L 158.118042 247.929441 
L 158.638322 241.19643 
L 159.158601 237.570962 
L 159.678881 238.088886 
L 160.199161 241.714354 
L 160.719441 241.714354 
L 161.23972 236.01719 
L 161.76 240.160582 
L 162.28028 247.670479 
L 162.800559 251.813871 
L 163.320839 253.367643 
L 163.841119 252.590757 
L 164.361399 252.590757 
L 164.881678 258.287921 
L 165.401958 257.769997 
L 166.442517 257.769997 
L 166.962797 257.511035 
L 167.483077 256.993111 
L 168.003357 256.216225 
L 168.523636 256.475187 
L 169.043916 256.216225 
L 170.084476 256.216225 
L 170.604755 255.698301 
L 171.125035 256.993111 
L 172.685874 256.993111 
L 173.726434 254.403491 
L 174.246713 251.813871 
L 174.766993 250.260099 
L 175.287273 250.519061 
L 175.807552 249.224251 
L 176.327832 245.598783 
L 176.848112 244.821898 
L 177.368392 242.750202 
L 177.888671 243.268126 
L 178.408951 241.973316 
L 178.929231 241.455392 
L 179.96979 243.527088 
L 180.49007 243.268126 
L 181.530629 249.224251 
L 182.050909 251.036985 
L 182.571189 249.483213 
L 183.091469 249.224251 
L 183.611748 250.001137 
L 184.132028 248.188403 
L 184.652308 247.152555 
L 185.692867 244.562936 
L 186.213147 244.821898 
L 186.733427 244.562936 
L 187.253706 243.268126 
L 187.773986 240.419544 
L 188.814545 229.802102 
L 189.334825 229.284179 
L 189.855105 227.989369 
L 190.375385 227.730407 
L 191.415944 216.336079 
L 191.936224 214.005421 
L 192.456503 210.897878 
L 192.976783 209.344106 
L 193.497063 203.129018 
L 194.017343 200.021474 
L 194.537622 198.467702 
L 195.578182 178.268668 
L 196.098462 162.989911 
L 196.618741 157.551709 
L 197.139021 156.256899 
L 197.659301 139.942294 
L 198.17958 129.583815 
L 198.69986 123.368727 
L 199.22014 119.484298 
L 199.74042 108.866856 
L 200.260699 108.607894 
L 200.780979 106.536198 
L 201.301259 112.492324 
L 201.821538 107.054122 
L 202.341818 103.687617 
L 202.862098 104.20554 
L 203.382378 117.412602 
L 203.902657 112.751286 
L 204.422937 105.759312 
L 204.943217 101.356959 
L 205.463497 109.38478 
L 205.983776 108.348932 
L 206.504056 110.67959 
L 207.024336 115.340906 
L 207.544615 113.528172 
L 208.064895 125.699385 
L 208.585175 125.699385 
L 209.105455 123.368727 
L 209.625734 124.145613 
L 210.146014 112.492324 
L 210.666294 103.946579 
L 211.186573 114.56402 
L 211.706853 107.054122 
L 212.227133 115.599868 
L 212.747413 116.117792 
L 213.267692 120.779107 
L 214.308252 143.3088 
L 214.828531 129.583815 
L 215.348811 137.093712 
L 215.869091 139.165408 
L 216.389371 131.655511 
L 216.90965 140.71918 
L 217.42993 133.468245 
L 217.95021 128.547967 
L 218.47049 135.022017 
L 218.990769 137.611636 
L 219.511049 133.468245 
L 220.031329 137.093712 
L 220.551608 126.217309 
L 221.071888 125.440423 
L 221.592168 122.073917 
L 222.112448 109.643742 
L 222.632727 105.759312 
L 223.153007 105.241388 
L 224.193566 85.81924 
L 224.713846 68.986711 
L 225.234126 60.440965 
L 225.754406 63.807471 
L 226.274685 64.325395 
L 227.315245 60.440965 
L 227.835524 52.154182 
L 228.355804 74.16595 
L 228.876084 90.739517 
L 229.396364 99.544225 
L 229.916643 103.946579 
L 230.436923 109.38478 
L 230.957203 106.277236 
L 231.477483 124.145613 
L 232.518042 139.942294 
L 233.038322 152.372469 
L 233.558601 148.48804 
L 234.078881 151.07766 
L 234.599161 163.507835 
L 235.119441 151.595583 
L 235.63972 151.336621 
L 236.68028 113.528172 
L 237.200559 118.44845 
L 237.720839 120.779107 
L 238.241119 118.707412 
L 238.761399 133.209283 
L 239.281678 135.280979 
L 239.801958 145.639458 
L 240.322238 146.157382 
L 240.842517 146.416344 
L 241.362797 148.48804 
L 242.403357 164.025759 
L 242.923636 164.543683 
L 243.443916 171.794618 
L 243.964196 175.420086 
L 244.484476 176.196972 
L 245.004755 173.089428 
L 245.525035 178.52763 
L 246.045315 178.52763 
L 246.565594 177.23282 
L 247.085874 179.304516 
L 247.606154 182.929983 
L 248.126434 183.447907 
L 248.646713 187.332337 
L 249.166993 189.921957 
L 249.687273 194.583273 
L 250.207552 203.646942 
L 250.727832 196.654969 
L 251.248112 197.949779 
L 251.768392 198.726664 
L 252.288671 200.021474 
L 253.329231 206.236562 
L 253.84951 203.646942 
L 254.36979 208.56722 
L 254.89007 215.041269 
L 255.41035 211.933726 
L 255.930629 211.415802 
L 256.450909 213.74646 
L 256.971189 217.630889 
L 257.491469 214.782307 
L 258.011748 215.818155 
L 258.532028 211.415802 
L 259.052308 212.969574 
L 259.572587 212.969574 
L 260.092867 212.192688 
L 260.613147 203.129018 
L 261.133427 207.27241 
L 261.653706 207.790334 
L 262.173986 211.674764 
L 262.694266 211.415802 
L 263.214545 211.933726 
L 263.734825 215.300231 
L 264.255105 220.479471 
L 264.775385 217.630889 
L 265.295664 218.407775 
L 265.815944 214.005421 
L 266.336224 216.077117 
L 266.856503 216.595041 
L 267.376783 215.041269 
L 268.417343 204.68279 
L 268.937622 195.101197 
L 269.457902 192.770539 
L 269.978182 188.886109 
L 271.018741 175.679048 
L 271.539021 174.384238 
L 272.059301 174.6432 
L 272.57958 180.340364 
L 273.09986 173.866314 
L 273.62014 173.34839 
L 274.14042 170.499808 
L 274.660699 169.204998 
L 275.180979 166.097455 
L 276.221538 131.655511 
L 276.741818 133.727207 
L 277.262098 125.440423 
L 277.782378 132.173435 
L 278.302657 130.619663 
L 278.822937 126.735233 
L 279.343217 130.360701 
L 279.863497 140.71918 
L 280.383776 147.19323 
L 280.904056 156.256899 
L 281.424336 153.926241 
L 281.944615 163.766797 
L 282.464895 171.276694 
L 282.985175 172.571504 
L 283.505455 177.750744 
L 284.025734 168.946036 
L 285.066294 155.738975 
L 285.586573 146.157382 
L 286.106853 133.209283 
L 286.627133 133.986169 
L 287.147413 133.209283 
L 287.667692 122.073917 
L 288.187972 118.707412 
L 288.708252 125.958347 
L 289.228531 116.635716 
L 289.748811 100.062149 
L 290.269091 95.141871 
L 290.789371 84.006506 
L 291.30965 93.847061 
L 291.82993 94.623947 
L 292.35021 87.373012 
L 292.87049 96.177719 
L 293.911049 121.555993 
L 294.431329 132.173435 
L 294.951608 135.280979 
L 295.471888 126.476271 
L 295.992168 130.878625 
L 296.512448 124.145613 
L 297.032727 139.165408 
L 297.553007 139.683332 
L 298.073287 136.316826 
L 298.593566 136.575788 
L 299.113846 156.515861 
L 299.634126 153.667279 
L 300.154406 164.025759 
L 300.674685 155.480013 
L 301.194965 156.515861 
L 301.715245 167.392264 
L 302.235524 172.05358 
L 302.755804 171.535656 
L 303.276084 178.268668 
L 303.796364 178.52763 
L 304.316643 185.260641 
L 304.836923 186.037527 
L 305.357203 179.304516 
L 305.877483 183.188945 
L 306.397762 185.778565 
L 306.918042 186.555451 
L 307.438322 198.20874 
L 308.999161 219.702585 
L 309.519441 218.925699 
L 310.03972 216.336079 
L 310.56 214.782307 
L 311.08028 209.86203 
L 312.120839 218.925699 
L 312.641119 222.551167 
L 313.161399 230.061064 
L 314.201958 234.204456 
L 314.722238 238.60681 
L 315.242517 244.821898 
L 316.283077 248.447365 
L 316.803357 248.188403 
L 317.323636 248.965289 
L 318.364196 253.626605 
L 319.404755 256.475187 
L 319.925035 259.841693 
L 320.445315 260.359617 
L 320.965594 260.100655 
L 321.485874 260.87754 
L 322.006154 260.87754 
L 322.526434 261.395464 
L 323.046713 259.841693 
L 323.566993 260.618579 
L 324.607552 260.618579 
L 325.127832 260.100655 
L 325.648112 260.618579 
L 326.168392 260.618579 
L 326.688671 262.431312 
L 327.208951 261.913388 
L 327.729231 262.17235 
L 328.24951 262.17235 
L 328.76979 262.431312 
L 329.29007 262.949236 
L 329.81035 262.690274 
L 330.330629 261.654426 
L 330.850909 260.359617 
L 331.371189 259.841693 
L 331.891469 259.582731 
L 332.932028 256.993111 
L 333.452308 256.734149 
L 333.972587 255.957263 
L 334.492867 253.626605 
L 335.013147 253.367643 
L 335.533427 252.849719 
L 336.053706 254.144529 
L 336.573986 253.885567 
L 337.094266 251.813871 
L 337.614545 251.295947 
L 338.134825 251.036985 
L 338.655105 250.260099 
L 339.175385 250.778023 
L 339.695664 246.375669 
L 340.215944 244.303974 
L 341.256503 237.053038 
L 341.776783 237.829924 
L 342.297063 235.499266 
L 342.817343 234.463418 
L 343.337622 235.240304 
L 343.857902 232.909646 
L 344.378182 231.873798 
L 344.898462 227.730407 
L 345.418741 219.961547 
L 345.939021 219.702585 
L 346.459301 218.925699 
L 347.49986 209.86203 
L 348.02014 199.244588 
L 348.54042 198.985626 
L 349.060699 198.20874 
L 349.580979 188.886109 
L 350.101259 183.965831 
L 350.621538 183.188945 
L 351.141818 171.535656 
L 352.182378 138.12956 
L 352.702657 131.396549 
L 353.222937 128.547967 
L 353.743217 131.137587 
L 354.263497 127.771081 
L 354.783776 126.217309 
L 355.304056 133.209283 
L 355.824336 134.245131 
L 356.344615 129.583815 
L 356.864895 130.360701 
L 357.385175 125.958347 
L 357.905455 128.547967 
L 358.425734 127.253157 
L 358.946014 126.476271 
L 359.466294 129.324853 
L 359.986573 129.842777 
L 360.506853 132.432397 
L 361.027133 132.173435 
L 361.547413 129.842777 
L 362.067692 141.755028 
L 362.587972 149.78285 
L 363.108252 154.962089 
L 363.628531 163.248873 
L 364.148811 161.177177 
L 364.669091 167.651226 
L 365.189371 172.05358 
L 365.70965 167.910188 
L 366.22993 181.635174 
L 367.27049 189.662995 
L 367.790769 200.280436 
L 368.311049 201.575246 
L 368.831329 201.316284 
L 369.351608 214.005421 
L 369.871888 214.782307 
L 370.392168 224.881825 
L 370.912448 231.355874 
L 371.432727 230.320026 
L 371.953007 229.54314 
L 372.473287 232.391722 
L 372.993566 226.694559 
L 373.513846 227.730407 
L 374.554406 218.148813 
L 375.074685 218.148813 
L 375.594965 219.702585 
L 376.115245 220.479471 
L 376.635524 226.176635 
L 377.155804 224.363901 
L 377.676084 225.399749 
L 378.196364 229.025217 
L 378.716643 229.025217 
L 379.236923 228.248331 
L 379.757203 229.025217 
L 380.277483 229.025217 
L 380.797762 231.096912 
L 381.318042 228.766255 
L 381.838322 225.658711 
L 382.358601 225.399749 
L 383.399161 219.702585 
L 383.919441 211.933726 
L 384.43972 206.495524 
L 385.48028 199.50355 
L 386.000559 191.993653 
L 386.520839 191.734691 
L 387.561399 180.599326 
L 388.081678 171.794618 
L 389.122238 163.766797 
L 389.642517 168.16915 
L 390.162797 166.615379 
L 390.683077 165.838493 
L 391.203357 175.93801 
L 391.723636 174.125276 
L 392.243916 157.292747 
L 392.764196 157.292747 
L 393.284476 140.201256 
L 393.804755 143.567762 
L 394.325035 140.978142 
L 394.845315 117.412602 
L 395.365594 106.018274 
L 395.885874 111.715438 
L 396.406154 100.839035 
L 396.926434 98.508377 
L 397.446713 97.990453 
L 397.966993 102.133845 
L 398.487273 104.20554 
L 398.487273 104.20554 
" clip-path="url(#p7ed0060d08)" style="fill: none; stroke: #1f77b4; stroke-width: 1.5; stroke-linecap: square"/>
   </g>
   <g id="patch_3">
    <path d="M 57.6 276.48 
L 57.6 41.472 
" style="fill: none; stroke: #000000; stroke-width: 0.8; stroke-linejoin: miter; stroke-linecap: square"/>
   </g>
   <g id="patch_4">
    <path d="M 414.72 276.48 
L 414.72 41.472 
" style="fill: none; stroke: #000000; stroke-width: 0.8; stroke-linejoin: miter; stroke-linecap: square"/>
   </g>
   <g id="patch_5">
    <path d="M 57.6 276.48 
L 414.72 276.48 
" style="fill: none; stroke: #000000; stroke-width: 0.8; stroke-linejoin: miter; stroke-linecap: square"/>
   </g>
   <g id="patch_6">
    <path d="M 57.6 41.472 
L 414.72 41.472 
" style="fill: none; stroke: #000000; stroke-width: 0.8; stroke-linejoin: miter; stroke-linecap: square"/>
   </g>
  </g>
  <g id="text_17">
   <!-- Inzidenzverlauf SK Bochum -->
   <g transform="translate(107.545781 20.589187)scale(0.18 -0.18)">
    <defs>
     <path id="DejaVuSans-76" d="M 191 3500 
L 800 3500 
L 1894 563 
L 2988 3500 
L 3597 3500 
L 2284 0 
L 1503 0 
L 191 3500 
z
" transform="scale(0.015625)"/>
     <path id="DejaVuSans-6c" d="M 603 4863 
L 1178 4863 
L 1178 0 
L 603 0 
L 603 4863 
z
" transform="scale(0.015625)"/>
     <path id="DejaVuSans-75" d="M 544 1381 
L 544 3500 
L 1119 3500 
L 1119 1403 
Q 1119 906 1312 657 
Q 1506 409 1894 409 
Q 2359 409 2629 706 
Q 2900 1003 2900 1516 
L 2900 3500 
L 3475 3500 
L 3475 0 
L 2900 0 
L 2900 538 
Q 2691 219 2414 64 
Q 2138 -91 1772 -91 
Q 1169 -91 856 284 
Q 544 659 544 1381 
z
M 1991 3584 
L 1991 3584 
z
" transform="scale(0.015625)"/>
     <path id="DejaVuSans-66" d="M 2375 4863 
L 2375 4384 
L 1825 4384 
Q 1516 4384 1395 4259 
Q 1275 4134 1275 3809 
L 1275 3500 
L 2222 3500 
L 2222 3053 
L 1275 3053 
L 1275 0 
L 697 0 
L 697 3053 
L 147 3053 
L 147 3500 
L 697 3500 
L 697 3744 
Q 697 4328 969 4595 
Q 1241 4863 1831 4863 
L 2375 4863 
z
" transform="scale(0.015625)"/>
     <path id="DejaVuSans-53" d="M 3425 4513 
L 3425 3897 
Q 3066 4069 2747 4153 
Q 2428 4238 2131 4238 
Q 1616 4238 1336 4038 
Q 1056 3838 1056 3469 
Q 1056 3159 1242 3001 
Q 1428 2844 1947 2747 
L 2328 2669 
Q 3034 2534 3370 2195 
Q 3706 1856 3706 1288 
Q 3706 609 3251 259 
Q 2797 -91 1919 -91 
Q 1588 -91 1214 -16 
Q 841 59 441 206 
L 441 856 
Q 825 641 1194 531 
Q 1563 422 1919 422 
Q 2459 422 2753 634 
Q 3047 847 3047 1241 
Q 3047 1584 2836 1778 
Q 2625 1972 2144 2069 
L 1759 2144 
Q 1053 2284 737 2584 
Q 422 2884 422 3419 
Q 422 4038 858 4394 
Q 1294 4750 2059 4750 
Q 2388 4750 2728 4690 
Q 3069 4631 3425 4513 
z
" transform="scale(0.015625)"/>
     <path id="DejaVuSans-4b" d="M 628 4666 
L 1259 4666 
L 1259 2694 
L 3353 4666 
L 4166 4666 
L 1850 2491 
L 4331 0 
L 3500 0 
L 1259 2247 
L 1259 0 
L 628 0 
L 628 4666 
z
" transform="scale(0.015625)"/>
     <path id="DejaVuSans-42" d="M 1259 2228 
L 1259 519 
L 2272 519 
Q 2781 519 3026 730 
Q 3272 941 3272 1375 
Q 3272 1813 3026 2020 
Q 2781 2228 2272 2228 
L 1259 2228 
z
M 1259 4147 
L 1259 2741 
L 2194 2741 
Q 2656 2741 2882 2914 
Q 3109 3088 3109 3444 
Q 3109 3797 2882 3972 
Q 2656 4147 2194 4147 
L 1259 4147 
z
M 628 4666 
L 2241 4666 
Q 2963 4666 3353 4366 
Q 3744 4066 3744 3513 
Q 3744 3084 3544 2831 
Q 3344 2578 2956 2516 
Q 3422 2416 3680 2098 
Q 3938 1781 3938 1306 
Q 3938 681 3513 340 
Q 3088 0 2303 0 
L 628 0 
L 628 4666 
z
" transform="scale(0.015625)"/>
     <path id="DejaVuSans-63" d="M 3122 3366 
L 3122 2828 
Q 2878 2963 2633 3030 
Q 2388 3097 2138 3097 
Q 1578 3097 1268 2742 
Q 959 2388 959 1747 
Q 959 1106 1268 751 
Q 1578 397 2138 397 
Q 2388 397 2633 464 
Q 2878 531 3122 666 
L 3122 134 
Q 2881 22 2623 -34 
Q 2366 -91 2075 -91 
Q 1284 -91 818 406 
Q 353 903 353 1747 
Q 353 2603 823 3093 
Q 1294 3584 2113 3584 
Q 2378 3584 2631 3529 
Q 2884 3475 3122 3366 
z
" transform="scale(0.015625)"/>
     <path id="DejaVuSans-6d" d="M 3328 2828 
Q 3544 3216 3844 3400 
Q 4144 3584 4550 3584 
Q 5097 3584 5394 3201 
Q 5691 2819 5691 2113 
L 5691 0 
L 5113 0 
L 5113 2094 
Q 5113 2597 4934 2840 
Q 4756 3084 4391 3084 
Q 3944 3084 3684 2787 
Q 3425 2491 3425 1978 
L 3425 0 
L 2847 0 
L 2847 2094 
Q 2847 2600 2669 2842 
Q 2491 3084 2119 3084 
Q 1678 3084 1418 2786 
Q 1159 2488 1159 1978 
L 1159 0 
L 581 0 
L 581 3500 
L 1159 3500 
L 1159 2956 
Q 1356 3278 1631 3431 
Q 1906 3584 2284 3584 
Q 2666 3584 2933 3390 
Q 3200 3197 3328 2828 
z
" transform="scale(0.015625)"/>
    </defs>
    <use xlink:href="#DejaVuSans-49"/>
    <use xlink:href="#DejaVuSans-6e" x="29.492188"/>
    <use xlink:href="#DejaVuSans-7a" x="92.871094"/>
    <use xlink:href="#DejaVuSans-69" x="145.361328"/>
    <use xlink:href="#DejaVuSans-64" x="173.144531"/>
    <use xlink:href="#DejaVuSans-65" x="236.621094"/>
    <use xlink:href="#DejaVuSans-6e" x="298.144531"/>
    <use xlink:href="#DejaVuSans-7a" x="361.523438"/>
    <use xlink:href="#DejaVuSans-76" x="414.013672"/>
    <use xlink:href="#DejaVuSans-65" x="473.193359"/>
    <use xlink:href="#DejaVuSans-72" x="534.716797"/>
    <use xlink:href="#DejaVuSans-6c" x="575.830078"/>
    <use xlink:href="#DejaVuSans-61" x="603.613281"/>
    <use xlink:href="#DejaVuSans-75" x="664.892578"/>
    <use xlink:href="#DejaVuSans-66" x="728.271484"/>
    <use xlink:href="#DejaVuSans-20" x="763.476562"/>
    <use xlink:href="#DejaVuSans-53" x="795.263672"/>
    <use xlink:href="#DejaVuSans-4b" x="858.740234"/>
    <use xlink:href="#DejaVuSans-20" x="924.316406"/>
    <use xlink:href="#DejaVuSans-42" x="956.103516"/>
    <use xlink:href="#DejaVuSans-6f" x="1024.707031"/>
    <use xlink:href="#DejaVuSans-63" x="1085.888672"/>
    <use xlink:href="#DejaVuSans-68" x="1140.869141"/>
    <use xlink:href="#DejaVuSans-75" x="1204.248047"/>
    <use xlink:href="#DejaVuSans-6d" x="1267.626953"/>
   </g>
  </g>
 </g>
 <defs>
  <clipPath id="p7ed0060d08">
   <rect x="57.6" y="41.472" width="357.12" height="235.008"/>
  </clipPath>
 </defs>
</svg>
