<?xml version="1.0" encoding="utf-8" standalone="no"?>
<!DOCTYPE svg PUBLIC "-//W3C//DTD SVG 1.1//EN"
  "http://www.w3.org/Graphics/SVG/1.1/DTD/svg11.dtd">
<svg height="345.6pt" version="1.1" viewBox="0 0 460.8 345.6" width="460.8pt" xmlns="http://www.w3.org/2000/svg" xmlns:xlink="http://www.w3.org/1999/xlink">
 <metadata>
  <rdf:RDF xmlns:cc="http://creativecommons.org/ns#" xmlns:dc="http://purl.org/dc/elements/1.1/" xmlns:rdf="http://www.w3.org/1999/02/22-rdf-syntax-ns#">
   <cc:Work>
    <dc:type rdf:resource="http://purl.org/dc/dcmitype/StillImage"/>
    <dc:date>2021-04-15T09:07:18.971991</dc:date>
    <dc:format>image/svg+xml</dc:format>
    <dc:creator>
     <cc:Agent>
      <dc:title>Matplotlib v3.4.1, https://matplotlib.org/</dc:title>
     </cc:Agent>
    </dc:creator>
   </cc:Work>
  </rdf:RDF>
 </metadata>
 <defs>
  <style type="text/css">*{stroke-linecap:butt;stroke-linejoin:round;}</style>
 </defs>
 <g id="figure_1">
  <g id="patch_1">
   <path d="M 0 345.6 
L 460.8 345.6 
L 460.8 0 
L 0 0 
z
" style="fill:#ffffff;"/>
  </g>
  <g id="axes_1">
   <g id="patch_2">
    <path d="M 57.6 276.48 
L 414.72 276.48 
L 414.72 41.472 
L 57.6 41.472 
z
" style="fill:#ffffff;"/>
   </g>
   <g id="matplotlib.axis_1">
    <g id="xtick_1">
     <g id="line2d_1">
      <path clip-path="url(#pc20a1c0e87)" d="M 92.366417 276.48 
L 92.366417 41.472 
" style="fill:none;stroke:#808080;stroke-dasharray:2.96,1.28;stroke-dashoffset:0;stroke-width:0.8;"/>
     </g>
     <g id="line2d_2">
      <defs>
       <path d="M 0 0 
L 0 3.5 
" id="m3e217eb456" style="stroke:#000000;stroke-width:0.8;"/>
      </defs>
      <g>
       <use style="stroke:#000000;stroke-width:0.8;" x="92.366417" xlink:href="#m3e217eb456" y="276.48"/>
      </g>
     </g>
     <g id="text_1">
      <!-- 26.03.2020 -->
      <g transform="translate(41.741206 318.688565)rotate(-30)scale(0.1 -0.1)">
       <defs>
        <path d="M 1228 531 
L 3431 531 
L 3431 0 
L 469 0 
L 469 531 
Q 828 903 1448 1529 
Q 2069 2156 2228 2338 
Q 2531 2678 2651 2914 
Q 2772 3150 2772 3378 
Q 2772 3750 2511 3984 
Q 2250 4219 1831 4219 
Q 1534 4219 1204 4116 
Q 875 4013 500 3803 
L 500 4441 
Q 881 4594 1212 4672 
Q 1544 4750 1819 4750 
Q 2544 4750 2975 4387 
Q 3406 4025 3406 3419 
Q 3406 3131 3298 2873 
Q 3191 2616 2906 2266 
Q 2828 2175 2409 1742 
Q 1991 1309 1228 531 
z
" id="DejaVuSans-32" transform="scale(0.015625)"/>
        <path d="M 2113 2584 
Q 1688 2584 1439 2293 
Q 1191 2003 1191 1497 
Q 1191 994 1439 701 
Q 1688 409 2113 409 
Q 2538 409 2786 701 
Q 3034 994 3034 1497 
Q 3034 2003 2786 2293 
Q 2538 2584 2113 2584 
z
M 3366 4563 
L 3366 3988 
Q 3128 4100 2886 4159 
Q 2644 4219 2406 4219 
Q 1781 4219 1451 3797 
Q 1122 3375 1075 2522 
Q 1259 2794 1537 2939 
Q 1816 3084 2150 3084 
Q 2853 3084 3261 2657 
Q 3669 2231 3669 1497 
Q 3669 778 3244 343 
Q 2819 -91 2113 -91 
Q 1303 -91 875 529 
Q 447 1150 447 2328 
Q 447 3434 972 4092 
Q 1497 4750 2381 4750 
Q 2619 4750 2861 4703 
Q 3103 4656 3366 4563 
z
" id="DejaVuSans-36" transform="scale(0.015625)"/>
        <path d="M 684 794 
L 1344 794 
L 1344 0 
L 684 0 
L 684 794 
z
" id="DejaVuSans-2e" transform="scale(0.015625)"/>
        <path d="M 2034 4250 
Q 1547 4250 1301 3770 
Q 1056 3291 1056 2328 
Q 1056 1369 1301 889 
Q 1547 409 2034 409 
Q 2525 409 2770 889 
Q 3016 1369 3016 2328 
Q 3016 3291 2770 3770 
Q 2525 4250 2034 4250 
z
M 2034 4750 
Q 2819 4750 3233 4129 
Q 3647 3509 3647 2328 
Q 3647 1150 3233 529 
Q 2819 -91 2034 -91 
Q 1250 -91 836 529 
Q 422 1150 422 2328 
Q 422 3509 836 4129 
Q 1250 4750 2034 4750 
z
" id="DejaVuSans-30" transform="scale(0.015625)"/>
        <path d="M 2597 2516 
Q 3050 2419 3304 2112 
Q 3559 1806 3559 1356 
Q 3559 666 3084 287 
Q 2609 -91 1734 -91 
Q 1441 -91 1130 -33 
Q 819 25 488 141 
L 488 750 
Q 750 597 1062 519 
Q 1375 441 1716 441 
Q 2309 441 2620 675 
Q 2931 909 2931 1356 
Q 2931 1769 2642 2001 
Q 2353 2234 1838 2234 
L 1294 2234 
L 1294 2753 
L 1863 2753 
Q 2328 2753 2575 2939 
Q 2822 3125 2822 3475 
Q 2822 3834 2567 4026 
Q 2313 4219 1838 4219 
Q 1578 4219 1281 4162 
Q 984 4106 628 3988 
L 628 4550 
Q 988 4650 1302 4700 
Q 1616 4750 1894 4750 
Q 2613 4750 3031 4423 
Q 3450 4097 3450 3541 
Q 3450 3153 3228 2886 
Q 3006 2619 2597 2516 
z
" id="DejaVuSans-33" transform="scale(0.015625)"/>
       </defs>
       <use xlink:href="#DejaVuSans-32"/>
       <use x="63.623047" xlink:href="#DejaVuSans-36"/>
       <use x="127.246094" xlink:href="#DejaVuSans-2e"/>
       <use x="159.033203" xlink:href="#DejaVuSans-30"/>
       <use x="222.65625" xlink:href="#DejaVuSans-33"/>
       <use x="286.279297" xlink:href="#DejaVuSans-2e"/>
       <use x="318.066406" xlink:href="#DejaVuSans-32"/>
       <use x="381.689453" xlink:href="#DejaVuSans-30"/>
       <use x="445.3125" xlink:href="#DejaVuSans-32"/>
       <use x="508.935547" xlink:href="#DejaVuSans-30"/>
      </g>
     </g>
    </g>
    <g id="xtick_2">
     <g id="line2d_3">
      <path clip-path="url(#pc20a1c0e87)" d="M 128.173904 276.48 
L 128.173904 41.472 
" style="fill:none;stroke:#808080;stroke-dasharray:2.96,1.28;stroke-dashoffset:0;stroke-width:0.8;"/>
     </g>
     <g id="line2d_4">
      <g>
       <use style="stroke:#000000;stroke-width:0.8;" x="128.173904" xlink:href="#m3e217eb456" y="276.48"/>
      </g>
     </g>
     <g id="text_2">
      <!-- 10.05.2020 -->
      <g transform="translate(77.548693 318.688565)rotate(-30)scale(0.1 -0.1)">
       <defs>
        <path d="M 794 531 
L 1825 531 
L 1825 4091 
L 703 3866 
L 703 4441 
L 1819 4666 
L 2450 4666 
L 2450 531 
L 3481 531 
L 3481 0 
L 794 0 
L 794 531 
z
" id="DejaVuSans-31" transform="scale(0.015625)"/>
        <path d="M 691 4666 
L 3169 4666 
L 3169 4134 
L 1269 4134 
L 1269 2991 
Q 1406 3038 1543 3061 
Q 1681 3084 1819 3084 
Q 2600 3084 3056 2656 
Q 3513 2228 3513 1497 
Q 3513 744 3044 326 
Q 2575 -91 1722 -91 
Q 1428 -91 1123 -41 
Q 819 9 494 109 
L 494 744 
Q 775 591 1075 516 
Q 1375 441 1709 441 
Q 2250 441 2565 725 
Q 2881 1009 2881 1497 
Q 2881 1984 2565 2268 
Q 2250 2553 1709 2553 
Q 1456 2553 1204 2497 
Q 953 2441 691 2322 
L 691 4666 
z
" id="DejaVuSans-35" transform="scale(0.015625)"/>
       </defs>
       <use xlink:href="#DejaVuSans-31"/>
       <use x="63.623047" xlink:href="#DejaVuSans-30"/>
       <use x="127.246094" xlink:href="#DejaVuSans-2e"/>
       <use x="159.033203" xlink:href="#DejaVuSans-30"/>
       <use x="222.65625" xlink:href="#DejaVuSans-35"/>
       <use x="286.279297" xlink:href="#DejaVuSans-2e"/>
       <use x="318.066406" xlink:href="#DejaVuSans-32"/>
       <use x="381.689453" xlink:href="#DejaVuSans-30"/>
       <use x="445.3125" xlink:href="#DejaVuSans-32"/>
       <use x="508.935547" xlink:href="#DejaVuSans-30"/>
      </g>
     </g>
    </g>
    <g id="xtick_3">
     <g id="line2d_5">
      <path clip-path="url(#pc20a1c0e87)" d="M 163.98139 276.48 
L 163.98139 41.472 
" style="fill:none;stroke:#808080;stroke-dasharray:2.96,1.28;stroke-dashoffset:0;stroke-width:0.8;"/>
     </g>
     <g id="line2d_6">
      <g>
       <use style="stroke:#000000;stroke-width:0.8;" x="163.98139" xlink:href="#m3e217eb456" y="276.48"/>
      </g>
     </g>
     <g id="text_3">
      <!-- 24.06.2020 -->
      <g transform="translate(113.35618 318.688565)rotate(-30)scale(0.1 -0.1)">
       <defs>
        <path d="M 2419 4116 
L 825 1625 
L 2419 1625 
L 2419 4116 
z
M 2253 4666 
L 3047 4666 
L 3047 1625 
L 3713 1625 
L 3713 1100 
L 3047 1100 
L 3047 0 
L 2419 0 
L 2419 1100 
L 313 1100 
L 313 1709 
L 2253 4666 
z
" id="DejaVuSans-34" transform="scale(0.015625)"/>
       </defs>
       <use xlink:href="#DejaVuSans-32"/>
       <use x="63.623047" xlink:href="#DejaVuSans-34"/>
       <use x="127.246094" xlink:href="#DejaVuSans-2e"/>
       <use x="159.033203" xlink:href="#DejaVuSans-30"/>
       <use x="222.65625" xlink:href="#DejaVuSans-36"/>
       <use x="286.279297" xlink:href="#DejaVuSans-2e"/>
       <use x="318.066406" xlink:href="#DejaVuSans-32"/>
       <use x="381.689453" xlink:href="#DejaVuSans-30"/>
       <use x="445.3125" xlink:href="#DejaVuSans-32"/>
       <use x="508.935547" xlink:href="#DejaVuSans-30"/>
      </g>
     </g>
    </g>
    <g id="xtick_4">
     <g id="line2d_7">
      <path clip-path="url(#pc20a1c0e87)" d="M 199.788877 276.48 
L 199.788877 41.472 
" style="fill:none;stroke:#808080;stroke-dasharray:2.96,1.28;stroke-dashoffset:0;stroke-width:0.8;"/>
     </g>
     <g id="line2d_8">
      <g>
       <use style="stroke:#000000;stroke-width:0.8;" x="199.788877" xlink:href="#m3e217eb456" y="276.48"/>
      </g>
     </g>
     <g id="text_4">
      <!-- 08.08.2020 -->
      <g transform="translate(149.163666 318.688565)rotate(-30)scale(0.1 -0.1)">
       <defs>
        <path d="M 2034 2216 
Q 1584 2216 1326 1975 
Q 1069 1734 1069 1313 
Q 1069 891 1326 650 
Q 1584 409 2034 409 
Q 2484 409 2743 651 
Q 3003 894 3003 1313 
Q 3003 1734 2745 1975 
Q 2488 2216 2034 2216 
z
M 1403 2484 
Q 997 2584 770 2862 
Q 544 3141 544 3541 
Q 544 4100 942 4425 
Q 1341 4750 2034 4750 
Q 2731 4750 3128 4425 
Q 3525 4100 3525 3541 
Q 3525 3141 3298 2862 
Q 3072 2584 2669 2484 
Q 3125 2378 3379 2068 
Q 3634 1759 3634 1313 
Q 3634 634 3220 271 
Q 2806 -91 2034 -91 
Q 1263 -91 848 271 
Q 434 634 434 1313 
Q 434 1759 690 2068 
Q 947 2378 1403 2484 
z
M 1172 3481 
Q 1172 3119 1398 2916 
Q 1625 2713 2034 2713 
Q 2441 2713 2670 2916 
Q 2900 3119 2900 3481 
Q 2900 3844 2670 4047 
Q 2441 4250 2034 4250 
Q 1625 4250 1398 4047 
Q 1172 3844 1172 3481 
z
" id="DejaVuSans-38" transform="scale(0.015625)"/>
       </defs>
       <use xlink:href="#DejaVuSans-30"/>
       <use x="63.623047" xlink:href="#DejaVuSans-38"/>
       <use x="127.246094" xlink:href="#DejaVuSans-2e"/>
       <use x="159.033203" xlink:href="#DejaVuSans-30"/>
       <use x="222.65625" xlink:href="#DejaVuSans-38"/>
       <use x="286.279297" xlink:href="#DejaVuSans-2e"/>
       <use x="318.066406" xlink:href="#DejaVuSans-32"/>
       <use x="381.689453" xlink:href="#DejaVuSans-30"/>
       <use x="445.3125" xlink:href="#DejaVuSans-32"/>
       <use x="508.935547" xlink:href="#DejaVuSans-30"/>
      </g>
     </g>
    </g>
    <g id="xtick_5">
     <g id="line2d_9">
      <path clip-path="url(#pc20a1c0e87)" d="M 235.596364 276.48 
L 235.596364 41.472 
" style="fill:none;stroke:#808080;stroke-dasharray:2.96,1.28;stroke-dashoffset:0;stroke-width:0.8;"/>
     </g>
     <g id="line2d_10">
      <g>
       <use style="stroke:#000000;stroke-width:0.8;" x="235.596364" xlink:href="#m3e217eb456" y="276.48"/>
      </g>
     </g>
     <g id="text_5">
      <!-- 22.09.2020 -->
      <g transform="translate(184.971153 318.688565)rotate(-30)scale(0.1 -0.1)">
       <defs>
        <path d="M 703 97 
L 703 672 
Q 941 559 1184 500 
Q 1428 441 1663 441 
Q 2288 441 2617 861 
Q 2947 1281 2994 2138 
Q 2813 1869 2534 1725 
Q 2256 1581 1919 1581 
Q 1219 1581 811 2004 
Q 403 2428 403 3163 
Q 403 3881 828 4315 
Q 1253 4750 1959 4750 
Q 2769 4750 3195 4129 
Q 3622 3509 3622 2328 
Q 3622 1225 3098 567 
Q 2575 -91 1691 -91 
Q 1453 -91 1209 -44 
Q 966 3 703 97 
z
M 1959 2075 
Q 2384 2075 2632 2365 
Q 2881 2656 2881 3163 
Q 2881 3666 2632 3958 
Q 2384 4250 1959 4250 
Q 1534 4250 1286 3958 
Q 1038 3666 1038 3163 
Q 1038 2656 1286 2365 
Q 1534 2075 1959 2075 
z
" id="DejaVuSans-39" transform="scale(0.015625)"/>
       </defs>
       <use xlink:href="#DejaVuSans-32"/>
       <use x="63.623047" xlink:href="#DejaVuSans-32"/>
       <use x="127.246094" xlink:href="#DejaVuSans-2e"/>
       <use x="159.033203" xlink:href="#DejaVuSans-30"/>
       <use x="222.65625" xlink:href="#DejaVuSans-39"/>
       <use x="286.279297" xlink:href="#DejaVuSans-2e"/>
       <use x="318.066406" xlink:href="#DejaVuSans-32"/>
       <use x="381.689453" xlink:href="#DejaVuSans-30"/>
       <use x="445.3125" xlink:href="#DejaVuSans-32"/>
       <use x="508.935547" xlink:href="#DejaVuSans-30"/>
      </g>
     </g>
    </g>
    <g id="xtick_6">
     <g id="line2d_11">
      <path clip-path="url(#pc20a1c0e87)" d="M 271.40385 276.48 
L 271.40385 41.472 
" style="fill:none;stroke:#808080;stroke-dasharray:2.96,1.28;stroke-dashoffset:0;stroke-width:0.8;"/>
     </g>
     <g id="line2d_12">
      <g>
       <use style="stroke:#000000;stroke-width:0.8;" x="271.40385" xlink:href="#m3e217eb456" y="276.48"/>
      </g>
     </g>
     <g id="text_6">
      <!-- 06.11.2020 -->
      <g transform="translate(220.778639 318.688565)rotate(-30)scale(0.1 -0.1)">
       <use xlink:href="#DejaVuSans-30"/>
       <use x="63.623047" xlink:href="#DejaVuSans-36"/>
       <use x="127.246094" xlink:href="#DejaVuSans-2e"/>
       <use x="159.033203" xlink:href="#DejaVuSans-31"/>
       <use x="222.65625" xlink:href="#DejaVuSans-31"/>
       <use x="286.279297" xlink:href="#DejaVuSans-2e"/>
       <use x="318.066406" xlink:href="#DejaVuSans-32"/>
       <use x="381.689453" xlink:href="#DejaVuSans-30"/>
       <use x="445.3125" xlink:href="#DejaVuSans-32"/>
       <use x="508.935547" xlink:href="#DejaVuSans-30"/>
      </g>
     </g>
    </g>
    <g id="xtick_7">
     <g id="line2d_13">
      <path clip-path="url(#pc20a1c0e87)" d="M 307.211337 276.48 
L 307.211337 41.472 
" style="fill:none;stroke:#808080;stroke-dasharray:2.96,1.28;stroke-dashoffset:0;stroke-width:0.8;"/>
     </g>
     <g id="line2d_14">
      <g>
       <use style="stroke:#000000;stroke-width:0.8;" x="307.211337" xlink:href="#m3e217eb456" y="276.48"/>
      </g>
     </g>
     <g id="text_7">
      <!-- 21.12.2020 -->
      <g transform="translate(256.586126 318.688565)rotate(-30)scale(0.1 -0.1)">
       <use xlink:href="#DejaVuSans-32"/>
       <use x="63.623047" xlink:href="#DejaVuSans-31"/>
       <use x="127.246094" xlink:href="#DejaVuSans-2e"/>
       <use x="159.033203" xlink:href="#DejaVuSans-31"/>
       <use x="222.65625" xlink:href="#DejaVuSans-32"/>
       <use x="286.279297" xlink:href="#DejaVuSans-2e"/>
       <use x="318.066406" xlink:href="#DejaVuSans-32"/>
       <use x="381.689453" xlink:href="#DejaVuSans-30"/>
       <use x="445.3125" xlink:href="#DejaVuSans-32"/>
       <use x="508.935547" xlink:href="#DejaVuSans-30"/>
      </g>
     </g>
    </g>
    <g id="xtick_8">
     <g id="line2d_15">
      <path clip-path="url(#pc20a1c0e87)" d="M 343.018824 276.48 
L 343.018824 41.472 
" style="fill:none;stroke:#808080;stroke-dasharray:2.96,1.28;stroke-dashoffset:0;stroke-width:0.8;"/>
     </g>
     <g id="line2d_16">
      <g>
       <use style="stroke:#000000;stroke-width:0.8;" x="343.018824" xlink:href="#m3e217eb456" y="276.48"/>
      </g>
     </g>
     <g id="text_8">
      <!-- 04.02.2021 -->
      <g transform="translate(292.393613 318.688565)rotate(-30)scale(0.1 -0.1)">
       <use xlink:href="#DejaVuSans-30"/>
       <use x="63.623047" xlink:href="#DejaVuSans-34"/>
       <use x="127.246094" xlink:href="#DejaVuSans-2e"/>
       <use x="159.033203" xlink:href="#DejaVuSans-30"/>
       <use x="222.65625" xlink:href="#DejaVuSans-32"/>
       <use x="286.279297" xlink:href="#DejaVuSans-2e"/>
       <use x="318.066406" xlink:href="#DejaVuSans-32"/>
       <use x="381.689453" xlink:href="#DejaVuSans-30"/>
       <use x="445.3125" xlink:href="#DejaVuSans-32"/>
       <use x="508.935547" xlink:href="#DejaVuSans-31"/>
      </g>
     </g>
    </g>
    <g id="xtick_9">
     <g id="line2d_17">
      <path clip-path="url(#pc20a1c0e87)" d="M 378.82631 276.48 
L 378.82631 41.472 
" style="fill:none;stroke:#808080;stroke-dasharray:2.96,1.28;stroke-dashoffset:0;stroke-width:0.8;"/>
     </g>
     <g id="line2d_18">
      <g>
       <use style="stroke:#000000;stroke-width:0.8;" x="378.82631" xlink:href="#m3e217eb456" y="276.48"/>
      </g>
     </g>
     <g id="text_9">
      <!-- 21.03.2021 -->
      <g transform="translate(328.201099 318.688565)rotate(-30)scale(0.1 -0.1)">
       <use xlink:href="#DejaVuSans-32"/>
       <use x="63.623047" xlink:href="#DejaVuSans-31"/>
       <use x="127.246094" xlink:href="#DejaVuSans-2e"/>
       <use x="159.033203" xlink:href="#DejaVuSans-30"/>
       <use x="222.65625" xlink:href="#DejaVuSans-33"/>
       <use x="286.279297" xlink:href="#DejaVuSans-2e"/>
       <use x="318.066406" xlink:href="#DejaVuSans-32"/>
       <use x="381.689453" xlink:href="#DejaVuSans-30"/>
       <use x="445.3125" xlink:href="#DejaVuSans-32"/>
       <use x="508.935547" xlink:href="#DejaVuSans-31"/>
      </g>
     </g>
    </g>
    <g id="xtick_10">
     <g id="line2d_19">
      <path clip-path="url(#pc20a1c0e87)" d="M 414.633797 276.48 
L 414.633797 41.472 
" style="fill:none;stroke:#808080;stroke-dasharray:2.96,1.28;stroke-dashoffset:0;stroke-width:0.8;"/>
     </g>
     <g id="line2d_20">
      <g>
       <use style="stroke:#000000;stroke-width:0.8;" x="414.633797" xlink:href="#m3e217eb456" y="276.48"/>
      </g>
     </g>
     <g id="text_10">
      <!-- 05.05.2021 -->
      <g transform="translate(364.008586 318.688565)rotate(-30)scale(0.1 -0.1)">
       <use xlink:href="#DejaVuSans-30"/>
       <use x="63.623047" xlink:href="#DejaVuSans-35"/>
       <use x="127.246094" xlink:href="#DejaVuSans-2e"/>
       <use x="159.033203" xlink:href="#DejaVuSans-30"/>
       <use x="222.65625" xlink:href="#DejaVuSans-35"/>
       <use x="286.279297" xlink:href="#DejaVuSans-2e"/>
       <use x="318.066406" xlink:href="#DejaVuSans-32"/>
       <use x="381.689453" xlink:href="#DejaVuSans-30"/>
       <use x="445.3125" xlink:href="#DejaVuSans-32"/>
       <use x="508.935547" xlink:href="#DejaVuSans-31"/>
      </g>
     </g>
    </g>
   </g>
   <g id="matplotlib.axis_2">
    <g id="ytick_1">
     <g id="line2d_21">
      <path clip-path="url(#pc20a1c0e87)" d="M 57.6 265.797818 
L 414.72 265.797818 
" style="fill:none;stroke:#808080;stroke-dasharray:2.96,1.28;stroke-dashoffset:0;stroke-width:0.8;"/>
     </g>
     <g id="line2d_22">
      <defs>
       <path d="M 0 0 
L -3.5 0 
" id="m7df5aa51a5" style="stroke:#000000;stroke-width:0.8;"/>
      </defs>
      <g>
       <use style="stroke:#000000;stroke-width:0.8;" x="57.6" xlink:href="#m7df5aa51a5" y="265.797818"/>
      </g>
     </g>
     <g id="text_11">
      <!-- 0 -->
      <g transform="translate(44.2375 269.597037)scale(0.1 -0.1)">
       <use xlink:href="#DejaVuSans-30"/>
      </g>
     </g>
    </g>
    <g id="ytick_2">
     <g id="line2d_23">
      <path clip-path="url(#pc20a1c0e87)" d="M 57.6 219.312856 
L 414.72 219.312856 
" style="fill:none;stroke:#808080;stroke-dasharray:2.96,1.28;stroke-dashoffset:0;stroke-width:0.8;"/>
     </g>
     <g id="line2d_24">
      <g>
       <use style="stroke:#000000;stroke-width:0.8;" x="57.6" xlink:href="#m7df5aa51a5" y="219.312856"/>
      </g>
     </g>
     <g id="text_12">
      <!-- 100 -->
      <g transform="translate(31.5125 223.112075)scale(0.1 -0.1)">
       <use xlink:href="#DejaVuSans-31"/>
       <use x="63.623047" xlink:href="#DejaVuSans-30"/>
       <use x="127.246094" xlink:href="#DejaVuSans-30"/>
      </g>
     </g>
    </g>
    <g id="ytick_3">
     <g id="line2d_25">
      <path clip-path="url(#pc20a1c0e87)" d="M 57.6 172.827895 
L 414.72 172.827895 
" style="fill:none;stroke:#808080;stroke-dasharray:2.96,1.28;stroke-dashoffset:0;stroke-width:0.8;"/>
     </g>
     <g id="line2d_26">
      <g>
       <use style="stroke:#000000;stroke-width:0.8;" x="57.6" xlink:href="#m7df5aa51a5" y="172.827895"/>
      </g>
     </g>
     <g id="text_13">
      <!-- 200 -->
      <g transform="translate(31.5125 176.627113)scale(0.1 -0.1)">
       <use xlink:href="#DejaVuSans-32"/>
       <use x="63.623047" xlink:href="#DejaVuSans-30"/>
       <use x="127.246094" xlink:href="#DejaVuSans-30"/>
      </g>
     </g>
    </g>
    <g id="ytick_4">
     <g id="line2d_27">
      <path clip-path="url(#pc20a1c0e87)" d="M 57.6 126.342933 
L 414.72 126.342933 
" style="fill:none;stroke:#808080;stroke-dasharray:2.96,1.28;stroke-dashoffset:0;stroke-width:0.8;"/>
     </g>
     <g id="line2d_28">
      <g>
       <use style="stroke:#000000;stroke-width:0.8;" x="57.6" xlink:href="#m7df5aa51a5" y="126.342933"/>
      </g>
     </g>
     <g id="text_14">
      <!-- 300 -->
      <g transform="translate(31.5125 130.142152)scale(0.1 -0.1)">
       <use xlink:href="#DejaVuSans-33"/>
       <use x="63.623047" xlink:href="#DejaVuSans-30"/>
       <use x="127.246094" xlink:href="#DejaVuSans-30"/>
      </g>
     </g>
    </g>
    <g id="ytick_5">
     <g id="line2d_29">
      <path clip-path="url(#pc20a1c0e87)" d="M 57.6 79.857971 
L 414.72 79.857971 
" style="fill:none;stroke:#808080;stroke-dasharray:2.96,1.28;stroke-dashoffset:0;stroke-width:0.8;"/>
     </g>
     <g id="line2d_30">
      <g>
       <use style="stroke:#000000;stroke-width:0.8;" x="57.6" xlink:href="#m7df5aa51a5" y="79.857971"/>
      </g>
     </g>
     <g id="text_15">
      <!-- 400 -->
      <g transform="translate(31.5125 83.65719)scale(0.1 -0.1)">
       <use xlink:href="#DejaVuSans-34"/>
       <use x="63.623047" xlink:href="#DejaVuSans-30"/>
       <use x="127.246094" xlink:href="#DejaVuSans-30"/>
      </g>
     </g>
    </g>
    <g id="text_16">
     <!-- Inzidenz pro 7 Tage pro 100.000 Einwohner -->
     <g transform="translate(25.432812 267.301)rotate(-90)scale(0.1 -0.1)">
      <defs>
       <path d="M 628 4666 
L 1259 4666 
L 1259 0 
L 628 0 
L 628 4666 
z
" id="DejaVuSans-49" transform="scale(0.015625)"/>
       <path d="M 3513 2113 
L 3513 0 
L 2938 0 
L 2938 2094 
Q 2938 2591 2744 2837 
Q 2550 3084 2163 3084 
Q 1697 3084 1428 2787 
Q 1159 2491 1159 1978 
L 1159 0 
L 581 0 
L 581 3500 
L 1159 3500 
L 1159 2956 
Q 1366 3272 1645 3428 
Q 1925 3584 2291 3584 
Q 2894 3584 3203 3211 
Q 3513 2838 3513 2113 
z
" id="DejaVuSans-6e" transform="scale(0.015625)"/>
       <path d="M 353 3500 
L 3084 3500 
L 3084 2975 
L 922 459 
L 3084 459 
L 3084 0 
L 275 0 
L 275 525 
L 2438 3041 
L 353 3041 
L 353 3500 
z
" id="DejaVuSans-7a" transform="scale(0.015625)"/>
       <path d="M 603 3500 
L 1178 3500 
L 1178 0 
L 603 0 
L 603 3500 
z
M 603 4863 
L 1178 4863 
L 1178 4134 
L 603 4134 
L 603 4863 
z
" id="DejaVuSans-69" transform="scale(0.015625)"/>
       <path d="M 2906 2969 
L 2906 4863 
L 3481 4863 
L 3481 0 
L 2906 0 
L 2906 525 
Q 2725 213 2448 61 
Q 2172 -91 1784 -91 
Q 1150 -91 751 415 
Q 353 922 353 1747 
Q 353 2572 751 3078 
Q 1150 3584 1784 3584 
Q 2172 3584 2448 3432 
Q 2725 3281 2906 2969 
z
M 947 1747 
Q 947 1113 1208 752 
Q 1469 391 1925 391 
Q 2381 391 2643 752 
Q 2906 1113 2906 1747 
Q 2906 2381 2643 2742 
Q 2381 3103 1925 3103 
Q 1469 3103 1208 2742 
Q 947 2381 947 1747 
z
" id="DejaVuSans-64" transform="scale(0.015625)"/>
       <path d="M 3597 1894 
L 3597 1613 
L 953 1613 
Q 991 1019 1311 708 
Q 1631 397 2203 397 
Q 2534 397 2845 478 
Q 3156 559 3463 722 
L 3463 178 
Q 3153 47 2828 -22 
Q 2503 -91 2169 -91 
Q 1331 -91 842 396 
Q 353 884 353 1716 
Q 353 2575 817 3079 
Q 1281 3584 2069 3584 
Q 2775 3584 3186 3129 
Q 3597 2675 3597 1894 
z
M 3022 2063 
Q 3016 2534 2758 2815 
Q 2500 3097 2075 3097 
Q 1594 3097 1305 2825 
Q 1016 2553 972 2059 
L 3022 2063 
z
" id="DejaVuSans-65" transform="scale(0.015625)"/>
       <path id="DejaVuSans-20" transform="scale(0.015625)"/>
       <path d="M 1159 525 
L 1159 -1331 
L 581 -1331 
L 581 3500 
L 1159 3500 
L 1159 2969 
Q 1341 3281 1617 3432 
Q 1894 3584 2278 3584 
Q 2916 3584 3314 3078 
Q 3713 2572 3713 1747 
Q 3713 922 3314 415 
Q 2916 -91 2278 -91 
Q 1894 -91 1617 61 
Q 1341 213 1159 525 
z
M 3116 1747 
Q 3116 2381 2855 2742 
Q 2594 3103 2138 3103 
Q 1681 3103 1420 2742 
Q 1159 2381 1159 1747 
Q 1159 1113 1420 752 
Q 1681 391 2138 391 
Q 2594 391 2855 752 
Q 3116 1113 3116 1747 
z
" id="DejaVuSans-70" transform="scale(0.015625)"/>
       <path d="M 2631 2963 
Q 2534 3019 2420 3045 
Q 2306 3072 2169 3072 
Q 1681 3072 1420 2755 
Q 1159 2438 1159 1844 
L 1159 0 
L 581 0 
L 581 3500 
L 1159 3500 
L 1159 2956 
Q 1341 3275 1631 3429 
Q 1922 3584 2338 3584 
Q 2397 3584 2469 3576 
Q 2541 3569 2628 3553 
L 2631 2963 
z
" id="DejaVuSans-72" transform="scale(0.015625)"/>
       <path d="M 1959 3097 
Q 1497 3097 1228 2736 
Q 959 2375 959 1747 
Q 959 1119 1226 758 
Q 1494 397 1959 397 
Q 2419 397 2687 759 
Q 2956 1122 2956 1747 
Q 2956 2369 2687 2733 
Q 2419 3097 1959 3097 
z
M 1959 3584 
Q 2709 3584 3137 3096 
Q 3566 2609 3566 1747 
Q 3566 888 3137 398 
Q 2709 -91 1959 -91 
Q 1206 -91 779 398 
Q 353 888 353 1747 
Q 353 2609 779 3096 
Q 1206 3584 1959 3584 
z
" id="DejaVuSans-6f" transform="scale(0.015625)"/>
       <path d="M 525 4666 
L 3525 4666 
L 3525 4397 
L 1831 0 
L 1172 0 
L 2766 4134 
L 525 4134 
L 525 4666 
z
" id="DejaVuSans-37" transform="scale(0.015625)"/>
       <path d="M -19 4666 
L 3928 4666 
L 3928 4134 
L 2272 4134 
L 2272 0 
L 1638 0 
L 1638 4134 
L -19 4134 
L -19 4666 
z
" id="DejaVuSans-54" transform="scale(0.015625)"/>
       <path d="M 2194 1759 
Q 1497 1759 1228 1600 
Q 959 1441 959 1056 
Q 959 750 1161 570 
Q 1363 391 1709 391 
Q 2188 391 2477 730 
Q 2766 1069 2766 1631 
L 2766 1759 
L 2194 1759 
z
M 3341 1997 
L 3341 0 
L 2766 0 
L 2766 531 
Q 2569 213 2275 61 
Q 1981 -91 1556 -91 
Q 1019 -91 701 211 
Q 384 513 384 1019 
Q 384 1609 779 1909 
Q 1175 2209 1959 2209 
L 2766 2209 
L 2766 2266 
Q 2766 2663 2505 2880 
Q 2244 3097 1772 3097 
Q 1472 3097 1187 3025 
Q 903 2953 641 2809 
L 641 3341 
Q 956 3463 1253 3523 
Q 1550 3584 1831 3584 
Q 2591 3584 2966 3190 
Q 3341 2797 3341 1997 
z
" id="DejaVuSans-61" transform="scale(0.015625)"/>
       <path d="M 2906 1791 
Q 2906 2416 2648 2759 
Q 2391 3103 1925 3103 
Q 1463 3103 1205 2759 
Q 947 2416 947 1791 
Q 947 1169 1205 825 
Q 1463 481 1925 481 
Q 2391 481 2648 825 
Q 2906 1169 2906 1791 
z
M 3481 434 
Q 3481 -459 3084 -895 
Q 2688 -1331 1869 -1331 
Q 1566 -1331 1297 -1286 
Q 1028 -1241 775 -1147 
L 775 -588 
Q 1028 -725 1275 -790 
Q 1522 -856 1778 -856 
Q 2344 -856 2625 -561 
Q 2906 -266 2906 331 
L 2906 616 
Q 2728 306 2450 153 
Q 2172 0 1784 0 
Q 1141 0 747 490 
Q 353 981 353 1791 
Q 353 2603 747 3093 
Q 1141 3584 1784 3584 
Q 2172 3584 2450 3431 
Q 2728 3278 2906 2969 
L 2906 3500 
L 3481 3500 
L 3481 434 
z
" id="DejaVuSans-67" transform="scale(0.015625)"/>
       <path d="M 628 4666 
L 3578 4666 
L 3578 4134 
L 1259 4134 
L 1259 2753 
L 3481 2753 
L 3481 2222 
L 1259 2222 
L 1259 531 
L 3634 531 
L 3634 0 
L 628 0 
L 628 4666 
z
" id="DejaVuSans-45" transform="scale(0.015625)"/>
       <path d="M 269 3500 
L 844 3500 
L 1563 769 
L 2278 3500 
L 2956 3500 
L 3675 769 
L 4391 3500 
L 4966 3500 
L 4050 0 
L 3372 0 
L 2619 2869 
L 1863 0 
L 1184 0 
L 269 3500 
z
" id="DejaVuSans-77" transform="scale(0.015625)"/>
       <path d="M 3513 2113 
L 3513 0 
L 2938 0 
L 2938 2094 
Q 2938 2591 2744 2837 
Q 2550 3084 2163 3084 
Q 1697 3084 1428 2787 
Q 1159 2491 1159 1978 
L 1159 0 
L 581 0 
L 581 4863 
L 1159 4863 
L 1159 2956 
Q 1366 3272 1645 3428 
Q 1925 3584 2291 3584 
Q 2894 3584 3203 3211 
Q 3513 2838 3513 2113 
z
" id="DejaVuSans-68" transform="scale(0.015625)"/>
      </defs>
      <use xlink:href="#DejaVuSans-49"/>
      <use x="29.492188" xlink:href="#DejaVuSans-6e"/>
      <use x="92.871094" xlink:href="#DejaVuSans-7a"/>
      <use x="145.361328" xlink:href="#DejaVuSans-69"/>
      <use x="173.144531" xlink:href="#DejaVuSans-64"/>
      <use x="236.621094" xlink:href="#DejaVuSans-65"/>
      <use x="298.144531" xlink:href="#DejaVuSans-6e"/>
      <use x="361.523438" xlink:href="#DejaVuSans-7a"/>
      <use x="414.013672" xlink:href="#DejaVuSans-20"/>
      <use x="445.800781" xlink:href="#DejaVuSans-70"/>
      <use x="509.277344" xlink:href="#DejaVuSans-72"/>
      <use x="548.140625" xlink:href="#DejaVuSans-6f"/>
      <use x="609.322266" xlink:href="#DejaVuSans-20"/>
      <use x="641.109375" xlink:href="#DejaVuSans-37"/>
      <use x="704.732422" xlink:href="#DejaVuSans-20"/>
      <use x="736.519531" xlink:href="#DejaVuSans-54"/>
      <use x="781.103516" xlink:href="#DejaVuSans-61"/>
      <use x="842.382812" xlink:href="#DejaVuSans-67"/>
      <use x="905.859375" xlink:href="#DejaVuSans-65"/>
      <use x="967.382812" xlink:href="#DejaVuSans-20"/>
      <use x="999.169922" xlink:href="#DejaVuSans-70"/>
      <use x="1062.646484" xlink:href="#DejaVuSans-72"/>
      <use x="1101.509766" xlink:href="#DejaVuSans-6f"/>
      <use x="1162.691406" xlink:href="#DejaVuSans-20"/>
      <use x="1194.478516" xlink:href="#DejaVuSans-31"/>
      <use x="1258.101562" xlink:href="#DejaVuSans-30"/>
      <use x="1321.724609" xlink:href="#DejaVuSans-30"/>
      <use x="1385.347656" xlink:href="#DejaVuSans-2e"/>
      <use x="1417.134766" xlink:href="#DejaVuSans-30"/>
      <use x="1480.757812" xlink:href="#DejaVuSans-30"/>
      <use x="1544.380859" xlink:href="#DejaVuSans-30"/>
      <use x="1608.003906" xlink:href="#DejaVuSans-20"/>
      <use x="1639.791016" xlink:href="#DejaVuSans-45"/>
      <use x="1702.974609" xlink:href="#DejaVuSans-69"/>
      <use x="1730.757812" xlink:href="#DejaVuSans-6e"/>
      <use x="1794.136719" xlink:href="#DejaVuSans-77"/>
      <use x="1875.923828" xlink:href="#DejaVuSans-6f"/>
      <use x="1937.105469" xlink:href="#DejaVuSans-68"/>
      <use x="2000.484375" xlink:href="#DejaVuSans-6e"/>
      <use x="2063.863281" xlink:href="#DejaVuSans-65"/>
      <use x="2125.386719" xlink:href="#DejaVuSans-72"/>
     </g>
    </g>
   </g>
   <g id="line2d_31">
    <path clip-path="url(#pc20a1c0e87)" d="M 73.832727 265.797818 
L 80.198503 265.797818 
L 80.994225 265.298651 
L 84.972834 265.298651 
L 86.564278 264.300316 
L 89.747166 264.300316 
L 90.542888 263.301981 
L 91.33861 263.301981 
L 92.134332 264.300316 
L 92.930053 263.801149 
L 93.725775 260.806144 
L 94.521497 258.310308 
L 95.317219 258.310308 
L 96.112941 259.308642 
L 96.908663 259.80781 
L 97.704385 257.81114 
L 98.500107 254.316969 
L 99.295829 256.313638 
L 100.091551 258.809475 
L 100.887273 258.809475 
L 101.682995 258.310308 
L 102.478717 256.812805 
L 103.274439 257.81114 
L 104.07016 257.311973 
L 104.865882 258.310308 
L 105.661604 257.311973 
L 106.457326 254.816136 
L 107.253048 255.315303 
L 108.04877 251.321964 
L 108.844492 248.32696 
L 109.640214 250.32363 
L 110.435936 249.824462 
L 111.231658 246.829458 
L 112.02738 247.827793 
L 112.823102 246.330291 
L 113.618824 244.333621 
L 114.414545 245.331956 
L 115.210267 243.335286 
L 116.005989 239.341947 
L 116.801711 242.836119 
L 118.393155 242.836119 
L 119.188877 246.330291 
L 119.984599 247.827793 
L 120.780321 248.826127 
L 121.576043 252.819466 
L 122.371765 251.821132 
L 123.167487 253.318634 
L 123.963209 254.316969 
L 124.75893 258.310308 
L 125.554652 256.812805 
L 126.350374 257.311973 
L 127.146096 256.313638 
L 127.941818 256.812805 
L 128.73754 256.812805 
L 129.533262 256.313638 
L 130.328984 254.816136 
L 131.124706 257.81114 
L 131.920428 258.809475 
L 132.71615 257.81114 
L 133.511872 258.310308 
L 134.307594 258.310308 
L 135.103316 255.814471 
L 135.899037 256.812805 
L 136.694759 255.315303 
L 137.490481 257.311973 
L 139.081925 255.315303 
L 139.877647 255.315303 
L 140.673369 254.316969 
L 141.469091 253.817801 
L 142.264813 254.816136 
L 143.060535 253.318634 
L 143.856257 255.315303 
L 144.651979 254.316969 
L 145.447701 254.316969 
L 146.243422 258.809475 
L 147.039144 259.80781 
L 147.834866 257.81114 
L 148.630588 258.310308 
L 149.42631 257.81114 
L 150.222032 260.306977 
L 151.813476 259.308642 
L 152.609198 259.308642 
L 153.40492 261.804479 
L 154.200642 262.802814 
L 154.996364 264.799483 
L 155.792086 264.799483 
L 157.383529 265.797818 
L 158.179251 265.298651 
L 162.953583 265.298651 
L 163.749305 265.797818 
L 165.340749 265.797818 
L 166.136471 265.298651 
L 168.523636 265.298651 
L 170.11508 264.300316 
L 170.910802 264.300316 
L 171.706524 264.799483 
L 173.297968 264.799483 
L 174.09369 263.801149 
L 175.685134 264.799483 
L 178.868021 264.799483 
L 179.663743 265.797818 
L 182.050909 265.797818 
L 182.846631 265.298651 
L 186.029519 265.298651 
L 186.825241 264.799483 
L 187.620963 264.799483 
L 188.416684 265.298651 
L 190.80385 265.298651 
L 191.599572 264.799483 
L 192.395294 265.298651 
L 193.986738 265.298651 
L 194.78246 264.799483 
L 195.578182 264.799483 
L 196.373904 264.300316 
L 197.169626 264.799483 
L 198.76107 264.799483 
L 199.556791 263.801149 
L 201.148235 263.801149 
L 201.943957 264.300316 
L 202.739679 263.801149 
L 203.535401 262.303647 
L 204.331123 262.303647 
L 205.126845 263.301981 
L 205.922567 263.801149 
L 207.514011 263.801149 
L 208.309733 264.300316 
L 209.105455 265.797818 
L 214.675508 265.797818 
L 215.47123 265.298651 
L 220.245561 265.298651 
L 221.041283 265.797818 
L 221.837005 264.799483 
L 226.611337 264.799483 
L 227.407059 265.298651 
L 228.202781 265.298651 
L 228.998503 263.801149 
L 233.772834 263.801149 
L 234.568556 265.298651 
L 235.364278 264.799483 
L 236.16 264.799483 
L 236.955722 263.301981 
L 237.751444 263.301981 
L 238.547166 262.802814 
L 240.13861 262.802814 
L 240.934332 263.301981 
L 243.321497 263.301981 
L 246.504385 261.305312 
L 247.300107 261.305312 
L 248.095829 258.809475 
L 248.891551 257.81114 
L 249.687273 254.816136 
L 251.278717 255.814471 
L 252.074439 250.32363 
L 253.665882 249.325295 
L 254.461604 247.827793 
L 255.257326 250.822797 
L 256.053048 246.330291 
L 256.84877 246.330291 
L 257.644492 247.827793 
L 258.440214 247.827793 
L 259.235936 246.829458 
L 260.031658 246.330291 
L 260.82738 241.837784 
L 261.623102 244.832788 
L 262.418824 244.832788 
L 263.214545 247.827793 
L 264.010267 246.330291 
L 264.805989 245.831123 
L 265.601711 240.839449 
L 266.397433 236.84611 
L 267.193155 236.346943 
L 267.988877 236.346943 
L 268.784599 224.866093 
L 269.580321 221.871089 
L 270.376043 216.380248 
L 271.171765 217.87775 
L 271.967487 220.373587 
L 272.763209 218.376918 
L 273.55893 218.376918 
L 274.354652 223.867759 
L 275.150374 226.862763 
L 275.946096 230.856102 
L 277.53754 233.851106 
L 278.333262 234.350274 
L 279.128984 234.350274 
L 279.924706 239.841115 
L 280.720428 238.343613 
L 281.51615 239.341947 
L 282.311872 239.841115 
L 283.107594 221.371922 
L 283.903316 217.87775 
L 284.699037 212.386909 
L 287.086203 198.410223 
L 287.881925 190.423545 
L 288.677647 193.917716 
L 289.473369 193.418549 
L 290.269091 198.90939 
L 291.064813 194.916051 
L 291.860535 195.415218 
L 292.656257 196.91272 
L 293.451979 185.431871 
L 294.247701 195.914386 
L 295.043422 191.421879 
L 295.839144 191.421879 
L 296.634866 163.967674 
L 297.430588 165.964343 
L 298.22631 162.470172 
L 299.022032 161.471837 
L 299.817754 148.992653 
L 300.613476 120.540112 
L 301.409198 120.540112 
L 302.20492 102.570087 
L 303.000642 97.079246 
L 304.592086 63.635031 
L 305.387807 52.154182 
L 306.183529 66.130868 
L 306.979251 66.130868 
L 307.774973 85.598396 
L 308.570695 77.611718 
L 309.366417 73.119212 
L 310.162139 75.115881 
L 311.753583 116.546773 
L 312.549305 116.546773 
L 313.345027 134.516799 
L 314.140749 143.501811 
L 314.936471 148.992653 
L 315.732193 168.959347 
L 316.527914 182.436867 
L 317.323636 173.451854 
L 318.119358 173.451854 
L 318.91508 184.433536 
L 319.710802 178.942695 
L 320.506524 186.430206 
L 321.302246 190.423545 
L 322.097968 155.481828 
L 322.89369 154.982661 
L 323.689412 154.982661 
L 324.485134 147.49515 
L 325.280856 148.992653 
L 326.076578 152.985992 
L 326.872299 161.471837 
L 327.668021 184.932703 
L 328.463743 190.423545 
L 329.259465 190.423545 
L 330.055187 194.416884 
L 330.850909 199.907725 
L 331.646631 199.408557 
L 332.442353 202.902729 
L 333.238075 201.405227 
L 334.033797 207.395235 
L 334.829519 207.395235 
L 336.420963 210.39024 
L 337.216684 222.370257 
L 338.012406 217.378583 
L 338.808128 219.87442 
L 339.60385 220.872754 
L 340.399572 220.872754 
L 341.195294 225.864428 
L 341.991016 228.859432 
L 342.786738 225.864428 
L 343.58246 226.363596 
L 344.378182 228.360265 
L 345.173904 226.862763 
L 345.969626 226.862763 
L 346.765348 228.859432 
L 347.56107 229.3586 
L 348.356791 231.854437 
L 349.152513 227.36193 
L 349.948235 230.356935 
L 350.743957 228.859432 
L 351.539679 228.859432 
L 352.335401 227.861098 
L 353.131123 222.370257 
L 353.926845 220.872754 
L 354.722567 226.862763 
L 355.518289 218.376918 
L 356.314011 220.373587 
L 357.109733 220.373587 
L 357.905455 218.876085 
L 358.701176 219.87442 
L 359.496898 217.378583 
L 360.29262 219.375252 
L 361.088342 222.869424 
L 361.884064 221.871089 
L 362.679786 219.375252 
L 363.475508 223.867759 
L 364.27123 222.869424 
L 365.066952 220.373587 
L 365.862674 217.378583 
L 366.658396 222.869424 
L 367.454118 221.371922 
L 368.24984 223.867759 
L 369.045561 211.887742 
L 369.841283 214.383579 
L 370.637005 215.381913 
L 371.432727 213.884411 
L 372.228449 200.406892 
L 373.024171 190.423545 
L 373.819893 188.426875 
L 374.615615 200.906059 
L 375.411337 178.942695 
L 376.207059 173.951021 
L 377.002781 159.475167 
L 377.798503 128.52679 
L 378.594225 121.538447 
L 379.389947 123.535116 
L 380.185668 103.568421 
L 380.98139 117.545108 
L 381.777112 95.581743 
L 382.572834 95.082576 
L 383.368556 105.565091 
L 384.164278 108.060928 
L 384.96 107.56176 
L 385.755722 96.580078 
L 386.551444 91.089237 
L 387.347166 84.100894 
L 388.142888 92.087572 
L 388.93861 102.070919 
L 389.734332 106.064258 
L 390.530053 106.563426 
L 391.325775 126.530121 
L 392.121497 136.014301 
L 392.917219 154.982661 
L 393.712941 143.002644 
L 394.508663 128.027623 
L 395.304385 119.541777 
L 396.100107 119.541777 
L 396.895829 117.045941 
L 397.691551 111.055932 
L 398.487273 99.075915 
L 398.487273 99.075915 
" style="fill:none;stroke:#1f77b4;stroke-linecap:square;stroke-width:1.5;"/>
   </g>
   <g id="patch_3">
    <path d="M 57.6 276.48 
L 57.6 41.472 
" style="fill:none;stroke:#000000;stroke-linecap:square;stroke-linejoin:miter;stroke-width:0.8;"/>
   </g>
   <g id="patch_4">
    <path d="M 414.72 276.48 
L 414.72 41.472 
" style="fill:none;stroke:#000000;stroke-linecap:square;stroke-linejoin:miter;stroke-width:0.8;"/>
   </g>
   <g id="patch_5">
    <path d="M 57.6 276.48 
L 414.72 276.48 
" style="fill:none;stroke:#000000;stroke-linecap:square;stroke-linejoin:miter;stroke-width:0.8;"/>
   </g>
   <g id="patch_6">
    <path d="M 57.6 41.472 
L 414.72 41.472 
" style="fill:none;stroke:#000000;stroke-linecap:square;stroke-linejoin:miter;stroke-width:0.8;"/>
   </g>
  </g>
  <g id="text_17">
   <!-- Inzidenzverlauf SK Gera -->
   <g transform="translate(122.623594 20.589187)scale(0.18 -0.18)">
    <defs>
     <path d="M 191 3500 
L 800 3500 
L 1894 563 
L 2988 3500 
L 3597 3500 
L 2284 0 
L 1503 0 
L 191 3500 
z
" id="DejaVuSans-76" transform="scale(0.015625)"/>
     <path d="M 603 4863 
L 1178 4863 
L 1178 0 
L 603 0 
L 603 4863 
z
" id="DejaVuSans-6c" transform="scale(0.015625)"/>
     <path d="M 544 1381 
L 544 3500 
L 1119 3500 
L 1119 1403 
Q 1119 906 1312 657 
Q 1506 409 1894 409 
Q 2359 409 2629 706 
Q 2900 1003 2900 1516 
L 2900 3500 
L 3475 3500 
L 3475 0 
L 2900 0 
L 2900 538 
Q 2691 219 2414 64 
Q 2138 -91 1772 -91 
Q 1169 -91 856 284 
Q 544 659 544 1381 
z
M 1991 3584 
L 1991 3584 
z
" id="DejaVuSans-75" transform="scale(0.015625)"/>
     <path d="M 2375 4863 
L 2375 4384 
L 1825 4384 
Q 1516 4384 1395 4259 
Q 1275 4134 1275 3809 
L 1275 3500 
L 2222 3500 
L 2222 3053 
L 1275 3053 
L 1275 0 
L 697 0 
L 697 3053 
L 147 3053 
L 147 3500 
L 697 3500 
L 697 3744 
Q 697 4328 969 4595 
Q 1241 4863 1831 4863 
L 2375 4863 
z
" id="DejaVuSans-66" transform="scale(0.015625)"/>
     <path d="M 3425 4513 
L 3425 3897 
Q 3066 4069 2747 4153 
Q 2428 4238 2131 4238 
Q 1616 4238 1336 4038 
Q 1056 3838 1056 3469 
Q 1056 3159 1242 3001 
Q 1428 2844 1947 2747 
L 2328 2669 
Q 3034 2534 3370 2195 
Q 3706 1856 3706 1288 
Q 3706 609 3251 259 
Q 2797 -91 1919 -91 
Q 1588 -91 1214 -16 
Q 841 59 441 206 
L 441 856 
Q 825 641 1194 531 
Q 1563 422 1919 422 
Q 2459 422 2753 634 
Q 3047 847 3047 1241 
Q 3047 1584 2836 1778 
Q 2625 1972 2144 2069 
L 1759 2144 
Q 1053 2284 737 2584 
Q 422 2884 422 3419 
Q 422 4038 858 4394 
Q 1294 4750 2059 4750 
Q 2388 4750 2728 4690 
Q 3069 4631 3425 4513 
z
" id="DejaVuSans-53" transform="scale(0.015625)"/>
     <path d="M 628 4666 
L 1259 4666 
L 1259 2694 
L 3353 4666 
L 4166 4666 
L 1850 2491 
L 4331 0 
L 3500 0 
L 1259 2247 
L 1259 0 
L 628 0 
L 628 4666 
z
" id="DejaVuSans-4b" transform="scale(0.015625)"/>
     <path d="M 3809 666 
L 3809 1919 
L 2778 1919 
L 2778 2438 
L 4434 2438 
L 4434 434 
Q 4069 175 3628 42 
Q 3188 -91 2688 -91 
Q 1594 -91 976 548 
Q 359 1188 359 2328 
Q 359 3472 976 4111 
Q 1594 4750 2688 4750 
Q 3144 4750 3555 4637 
Q 3966 4525 4313 4306 
L 4313 3634 
Q 3963 3931 3569 4081 
Q 3175 4231 2741 4231 
Q 1884 4231 1454 3753 
Q 1025 3275 1025 2328 
Q 1025 1384 1454 906 
Q 1884 428 2741 428 
Q 3075 428 3337 486 
Q 3600 544 3809 666 
z
" id="DejaVuSans-47" transform="scale(0.015625)"/>
    </defs>
    <use xlink:href="#DejaVuSans-49"/>
    <use x="29.492188" xlink:href="#DejaVuSans-6e"/>
    <use x="92.871094" xlink:href="#DejaVuSans-7a"/>
    <use x="145.361328" xlink:href="#DejaVuSans-69"/>
    <use x="173.144531" xlink:href="#DejaVuSans-64"/>
    <use x="236.621094" xlink:href="#DejaVuSans-65"/>
    <use x="298.144531" xlink:href="#DejaVuSans-6e"/>
    <use x="361.523438" xlink:href="#DejaVuSans-7a"/>
    <use x="414.013672" xlink:href="#DejaVuSans-76"/>
    <use x="473.193359" xlink:href="#DejaVuSans-65"/>
    <use x="534.716797" xlink:href="#DejaVuSans-72"/>
    <use x="575.830078" xlink:href="#DejaVuSans-6c"/>
    <use x="603.613281" xlink:href="#DejaVuSans-61"/>
    <use x="664.892578" xlink:href="#DejaVuSans-75"/>
    <use x="728.271484" xlink:href="#DejaVuSans-66"/>
    <use x="763.476562" xlink:href="#DejaVuSans-20"/>
    <use x="795.263672" xlink:href="#DejaVuSans-53"/>
    <use x="858.740234" xlink:href="#DejaVuSans-4b"/>
    <use x="924.316406" xlink:href="#DejaVuSans-20"/>
    <use x="956.103516" xlink:href="#DejaVuSans-47"/>
    <use x="1033.59375" xlink:href="#DejaVuSans-65"/>
    <use x="1095.117188" xlink:href="#DejaVuSans-72"/>
    <use x="1136.230469" xlink:href="#DejaVuSans-61"/>
   </g>
  </g>
 </g>
 <defs>
  <clipPath id="pc20a1c0e87">
   <rect height="235.008" width="357.12" x="57.6" y="41.472"/>
  </clipPath>
 </defs>
</svg>
