<?xml version="1.0" encoding="utf-8" standalone="no"?>
<!DOCTYPE svg PUBLIC "-//W3C//DTD SVG 1.1//EN"
  "http://www.w3.org/Graphics/SVG/1.1/DTD/svg11.dtd">
<svg height="345.6pt" version="1.1" viewBox="0 0 460.8 345.6" width="460.8pt" xmlns="http://www.w3.org/2000/svg" xmlns:xlink="http://www.w3.org/1999/xlink">
 <metadata>
  <rdf:RDF xmlns:cc="http://creativecommons.org/ns#" xmlns:dc="http://purl.org/dc/elements/1.1/" xmlns:rdf="http://www.w3.org/1999/02/22-rdf-syntax-ns#">
   <cc:Work>
    <dc:type rdf:resource="http://purl.org/dc/dcmitype/StillImage"/>
    <dc:date>2021-08-08T09:20:09.503031</dc:date>
    <dc:format>image/svg+xml</dc:format>
    <dc:creator>
     <cc:Agent>
      <dc:title>Matplotlib v3.4.2, https://matplotlib.org/</dc:title>
     </cc:Agent>
    </dc:creator>
   </cc:Work>
  </rdf:RDF>
 </metadata>
 <defs>
  <style type="text/css">*{stroke-linecap:butt;stroke-linejoin:round;}</style>
 </defs>
 <g id="figure_1">
  <g id="patch_1">
   <path d="M 0 345.6 
L 460.8 345.6 
L 460.8 0 
L 0 0 
z
" style="fill:#ffffff;"/>
  </g>
  <g id="axes_1">
   <g id="patch_2">
    <path d="M 57.6 276.48 
L 414.72 276.48 
L 414.72 41.472 
L 57.6 41.472 
z
" style="fill:#ffffff;"/>
   </g>
   <g id="matplotlib.axis_1">
    <g id="xtick_1">
     <g id="line2d_1">
      <path clip-path="url(#p3309dc5e93)" d="M 59.115675 276.48 
L 59.115675 41.472 
" style="fill:none;stroke:#808080;stroke-dasharray:2.96,1.28;stroke-dashoffset:0;stroke-width:0.8;"/>
     </g>
     <g id="line2d_2">
      <defs>
       <path d="M 0 0 
L 0 3.5 
" id="mb12b93e4f6" style="stroke:#000000;stroke-width:0.8;"/>
      </defs>
      <g>
       <use style="stroke:#000000;stroke-width:0.8;" x="59.115675" xlink:href="#mb12b93e4f6" y="276.48"/>
      </g>
     </g>
     <g id="text_1">
      <!-- 08.02.2020 -->
      <g transform="translate(8.490465 318.688565)rotate(-30)scale(0.1 -0.1)">
       <defs>
        <path d="M 2034 4250 
Q 1547 4250 1301 3770 
Q 1056 3291 1056 2328 
Q 1056 1369 1301 889 
Q 1547 409 2034 409 
Q 2525 409 2770 889 
Q 3016 1369 3016 2328 
Q 3016 3291 2770 3770 
Q 2525 4250 2034 4250 
z
M 2034 4750 
Q 2819 4750 3233 4129 
Q 3647 3509 3647 2328 
Q 3647 1150 3233 529 
Q 2819 -91 2034 -91 
Q 1250 -91 836 529 
Q 422 1150 422 2328 
Q 422 3509 836 4129 
Q 1250 4750 2034 4750 
z
" id="DejaVuSans-30" transform="scale(0.015625)"/>
        <path d="M 2034 2216 
Q 1584 2216 1326 1975 
Q 1069 1734 1069 1313 
Q 1069 891 1326 650 
Q 1584 409 2034 409 
Q 2484 409 2743 651 
Q 3003 894 3003 1313 
Q 3003 1734 2745 1975 
Q 2488 2216 2034 2216 
z
M 1403 2484 
Q 997 2584 770 2862 
Q 544 3141 544 3541 
Q 544 4100 942 4425 
Q 1341 4750 2034 4750 
Q 2731 4750 3128 4425 
Q 3525 4100 3525 3541 
Q 3525 3141 3298 2862 
Q 3072 2584 2669 2484 
Q 3125 2378 3379 2068 
Q 3634 1759 3634 1313 
Q 3634 634 3220 271 
Q 2806 -91 2034 -91 
Q 1263 -91 848 271 
Q 434 634 434 1313 
Q 434 1759 690 2068 
Q 947 2378 1403 2484 
z
M 1172 3481 
Q 1172 3119 1398 2916 
Q 1625 2713 2034 2713 
Q 2441 2713 2670 2916 
Q 2900 3119 2900 3481 
Q 2900 3844 2670 4047 
Q 2441 4250 2034 4250 
Q 1625 4250 1398 4047 
Q 1172 3844 1172 3481 
z
" id="DejaVuSans-38" transform="scale(0.015625)"/>
        <path d="M 684 794 
L 1344 794 
L 1344 0 
L 684 0 
L 684 794 
z
" id="DejaVuSans-2e" transform="scale(0.015625)"/>
        <path d="M 1228 531 
L 3431 531 
L 3431 0 
L 469 0 
L 469 531 
Q 828 903 1448 1529 
Q 2069 2156 2228 2338 
Q 2531 2678 2651 2914 
Q 2772 3150 2772 3378 
Q 2772 3750 2511 3984 
Q 2250 4219 1831 4219 
Q 1534 4219 1204 4116 
Q 875 4013 500 3803 
L 500 4441 
Q 881 4594 1212 4672 
Q 1544 4750 1819 4750 
Q 2544 4750 2975 4387 
Q 3406 4025 3406 3419 
Q 3406 3131 3298 2873 
Q 3191 2616 2906 2266 
Q 2828 2175 2409 1742 
Q 1991 1309 1228 531 
z
" id="DejaVuSans-32" transform="scale(0.015625)"/>
       </defs>
       <use xlink:href="#DejaVuSans-30"/>
       <use x="63.623047" xlink:href="#DejaVuSans-38"/>
       <use x="127.246094" xlink:href="#DejaVuSans-2e"/>
       <use x="159.033203" xlink:href="#DejaVuSans-30"/>
       <use x="222.65625" xlink:href="#DejaVuSans-32"/>
       <use x="286.279297" xlink:href="#DejaVuSans-2e"/>
       <use x="318.066406" xlink:href="#DejaVuSans-32"/>
       <use x="381.689453" xlink:href="#DejaVuSans-30"/>
       <use x="445.3125" xlink:href="#DejaVuSans-32"/>
       <use x="508.935547" xlink:href="#DejaVuSans-30"/>
      </g>
     </g>
    </g>
    <g id="xtick_2">
     <g id="line2d_3">
      <path clip-path="url(#p3309dc5e93)" d="M 95.11943 276.48 
L 95.11943 41.472 
" style="fill:none;stroke:#808080;stroke-dasharray:2.96,1.28;stroke-dashoffset:0;stroke-width:0.8;"/>
     </g>
     <g id="line2d_4">
      <g>
       <use style="stroke:#000000;stroke-width:0.8;" x="95.11943" xlink:href="#mb12b93e4f6" y="276.48"/>
      </g>
     </g>
     <g id="text_2">
      <!-- 06.04.2020 -->
      <g transform="translate(44.494219 318.688565)rotate(-30)scale(0.1 -0.1)">
       <defs>
        <path d="M 2113 2584 
Q 1688 2584 1439 2293 
Q 1191 2003 1191 1497 
Q 1191 994 1439 701 
Q 1688 409 2113 409 
Q 2538 409 2786 701 
Q 3034 994 3034 1497 
Q 3034 2003 2786 2293 
Q 2538 2584 2113 2584 
z
M 3366 4563 
L 3366 3988 
Q 3128 4100 2886 4159 
Q 2644 4219 2406 4219 
Q 1781 4219 1451 3797 
Q 1122 3375 1075 2522 
Q 1259 2794 1537 2939 
Q 1816 3084 2150 3084 
Q 2853 3084 3261 2657 
Q 3669 2231 3669 1497 
Q 3669 778 3244 343 
Q 2819 -91 2113 -91 
Q 1303 -91 875 529 
Q 447 1150 447 2328 
Q 447 3434 972 4092 
Q 1497 4750 2381 4750 
Q 2619 4750 2861 4703 
Q 3103 4656 3366 4563 
z
" id="DejaVuSans-36" transform="scale(0.015625)"/>
        <path d="M 2419 4116 
L 825 1625 
L 2419 1625 
L 2419 4116 
z
M 2253 4666 
L 3047 4666 
L 3047 1625 
L 3713 1625 
L 3713 1100 
L 3047 1100 
L 3047 0 
L 2419 0 
L 2419 1100 
L 313 1100 
L 313 1709 
L 2253 4666 
z
" id="DejaVuSans-34" transform="scale(0.015625)"/>
       </defs>
       <use xlink:href="#DejaVuSans-30"/>
       <use x="63.623047" xlink:href="#DejaVuSans-36"/>
       <use x="127.246094" xlink:href="#DejaVuSans-2e"/>
       <use x="159.033203" xlink:href="#DejaVuSans-30"/>
       <use x="222.65625" xlink:href="#DejaVuSans-34"/>
       <use x="286.279297" xlink:href="#DejaVuSans-2e"/>
       <use x="318.066406" xlink:href="#DejaVuSans-32"/>
       <use x="381.689453" xlink:href="#DejaVuSans-30"/>
       <use x="445.3125" xlink:href="#DejaVuSans-32"/>
       <use x="508.935547" xlink:href="#DejaVuSans-30"/>
      </g>
     </g>
    </g>
    <g id="xtick_3">
     <g id="line2d_5">
      <path clip-path="url(#p3309dc5e93)" d="M 131.123184 276.48 
L 131.123184 41.472 
" style="fill:none;stroke:#808080;stroke-dasharray:2.96,1.28;stroke-dashoffset:0;stroke-width:0.8;"/>
     </g>
     <g id="line2d_6">
      <g>
       <use style="stroke:#000000;stroke-width:0.8;" x="131.123184" xlink:href="#mb12b93e4f6" y="276.48"/>
      </g>
     </g>
     <g id="text_3">
      <!-- 03.06.2020 -->
      <g transform="translate(80.497974 318.688565)rotate(-30)scale(0.1 -0.1)">
       <defs>
        <path d="M 2597 2516 
Q 3050 2419 3304 2112 
Q 3559 1806 3559 1356 
Q 3559 666 3084 287 
Q 2609 -91 1734 -91 
Q 1441 -91 1130 -33 
Q 819 25 488 141 
L 488 750 
Q 750 597 1062 519 
Q 1375 441 1716 441 
Q 2309 441 2620 675 
Q 2931 909 2931 1356 
Q 2931 1769 2642 2001 
Q 2353 2234 1838 2234 
L 1294 2234 
L 1294 2753 
L 1863 2753 
Q 2328 2753 2575 2939 
Q 2822 3125 2822 3475 
Q 2822 3834 2567 4026 
Q 2313 4219 1838 4219 
Q 1578 4219 1281 4162 
Q 984 4106 628 3988 
L 628 4550 
Q 988 4650 1302 4700 
Q 1616 4750 1894 4750 
Q 2613 4750 3031 4423 
Q 3450 4097 3450 3541 
Q 3450 3153 3228 2886 
Q 3006 2619 2597 2516 
z
" id="DejaVuSans-33" transform="scale(0.015625)"/>
       </defs>
       <use xlink:href="#DejaVuSans-30"/>
       <use x="63.623047" xlink:href="#DejaVuSans-33"/>
       <use x="127.246094" xlink:href="#DejaVuSans-2e"/>
       <use x="159.033203" xlink:href="#DejaVuSans-30"/>
       <use x="222.65625" xlink:href="#DejaVuSans-36"/>
       <use x="286.279297" xlink:href="#DejaVuSans-2e"/>
       <use x="318.066406" xlink:href="#DejaVuSans-32"/>
       <use x="381.689453" xlink:href="#DejaVuSans-30"/>
       <use x="445.3125" xlink:href="#DejaVuSans-32"/>
       <use x="508.935547" xlink:href="#DejaVuSans-30"/>
      </g>
     </g>
    </g>
    <g id="xtick_4">
     <g id="line2d_7">
      <path clip-path="url(#p3309dc5e93)" d="M 167.126939 276.48 
L 167.126939 41.472 
" style="fill:none;stroke:#808080;stroke-dasharray:2.96,1.28;stroke-dashoffset:0;stroke-width:0.8;"/>
     </g>
     <g id="line2d_8">
      <g>
       <use style="stroke:#000000;stroke-width:0.8;" x="167.126939" xlink:href="#mb12b93e4f6" y="276.48"/>
      </g>
     </g>
     <g id="text_4">
      <!-- 31.07.2020 -->
      <g transform="translate(116.501728 318.688565)rotate(-30)scale(0.1 -0.1)">
       <defs>
        <path d="M 794 531 
L 1825 531 
L 1825 4091 
L 703 3866 
L 703 4441 
L 1819 4666 
L 2450 4666 
L 2450 531 
L 3481 531 
L 3481 0 
L 794 0 
L 794 531 
z
" id="DejaVuSans-31" transform="scale(0.015625)"/>
        <path d="M 525 4666 
L 3525 4666 
L 3525 4397 
L 1831 0 
L 1172 0 
L 2766 4134 
L 525 4134 
L 525 4666 
z
" id="DejaVuSans-37" transform="scale(0.015625)"/>
       </defs>
       <use xlink:href="#DejaVuSans-33"/>
       <use x="63.623047" xlink:href="#DejaVuSans-31"/>
       <use x="127.246094" xlink:href="#DejaVuSans-2e"/>
       <use x="159.033203" xlink:href="#DejaVuSans-30"/>
       <use x="222.65625" xlink:href="#DejaVuSans-37"/>
       <use x="286.279297" xlink:href="#DejaVuSans-2e"/>
       <use x="318.066406" xlink:href="#DejaVuSans-32"/>
       <use x="381.689453" xlink:href="#DejaVuSans-30"/>
       <use x="445.3125" xlink:href="#DejaVuSans-32"/>
       <use x="508.935547" xlink:href="#DejaVuSans-30"/>
      </g>
     </g>
    </g>
    <g id="xtick_5">
     <g id="line2d_9">
      <path clip-path="url(#p3309dc5e93)" d="M 203.130694 276.48 
L 203.130694 41.472 
" style="fill:none;stroke:#808080;stroke-dasharray:2.96,1.28;stroke-dashoffset:0;stroke-width:0.8;"/>
     </g>
     <g id="line2d_10">
      <g>
       <use style="stroke:#000000;stroke-width:0.8;" x="203.130694" xlink:href="#mb12b93e4f6" y="276.48"/>
      </g>
     </g>
     <g id="text_5">
      <!-- 27.09.2020 -->
      <g transform="translate(152.505483 318.688565)rotate(-30)scale(0.1 -0.1)">
       <defs>
        <path d="M 703 97 
L 703 672 
Q 941 559 1184 500 
Q 1428 441 1663 441 
Q 2288 441 2617 861 
Q 2947 1281 2994 2138 
Q 2813 1869 2534 1725 
Q 2256 1581 1919 1581 
Q 1219 1581 811 2004 
Q 403 2428 403 3163 
Q 403 3881 828 4315 
Q 1253 4750 1959 4750 
Q 2769 4750 3195 4129 
Q 3622 3509 3622 2328 
Q 3622 1225 3098 567 
Q 2575 -91 1691 -91 
Q 1453 -91 1209 -44 
Q 966 3 703 97 
z
M 1959 2075 
Q 2384 2075 2632 2365 
Q 2881 2656 2881 3163 
Q 2881 3666 2632 3958 
Q 2384 4250 1959 4250 
Q 1534 4250 1286 3958 
Q 1038 3666 1038 3163 
Q 1038 2656 1286 2365 
Q 1534 2075 1959 2075 
z
" id="DejaVuSans-39" transform="scale(0.015625)"/>
       </defs>
       <use xlink:href="#DejaVuSans-32"/>
       <use x="63.623047" xlink:href="#DejaVuSans-37"/>
       <use x="127.246094" xlink:href="#DejaVuSans-2e"/>
       <use x="159.033203" xlink:href="#DejaVuSans-30"/>
       <use x="222.65625" xlink:href="#DejaVuSans-39"/>
       <use x="286.279297" xlink:href="#DejaVuSans-2e"/>
       <use x="318.066406" xlink:href="#DejaVuSans-32"/>
       <use x="381.689453" xlink:href="#DejaVuSans-30"/>
       <use x="445.3125" xlink:href="#DejaVuSans-32"/>
       <use x="508.935547" xlink:href="#DejaVuSans-30"/>
      </g>
     </g>
    </g>
    <g id="xtick_6">
     <g id="line2d_11">
      <path clip-path="url(#p3309dc5e93)" d="M 239.134448 276.48 
L 239.134448 41.472 
" style="fill:none;stroke:#808080;stroke-dasharray:2.96,1.28;stroke-dashoffset:0;stroke-width:0.8;"/>
     </g>
     <g id="line2d_12">
      <g>
       <use style="stroke:#000000;stroke-width:0.8;" x="239.134448" xlink:href="#mb12b93e4f6" y="276.48"/>
      </g>
     </g>
     <g id="text_6">
      <!-- 24.11.2020 -->
      <g transform="translate(188.509237 318.688565)rotate(-30)scale(0.1 -0.1)">
       <use xlink:href="#DejaVuSans-32"/>
       <use x="63.623047" xlink:href="#DejaVuSans-34"/>
       <use x="127.246094" xlink:href="#DejaVuSans-2e"/>
       <use x="159.033203" xlink:href="#DejaVuSans-31"/>
       <use x="222.65625" xlink:href="#DejaVuSans-31"/>
       <use x="286.279297" xlink:href="#DejaVuSans-2e"/>
       <use x="318.066406" xlink:href="#DejaVuSans-32"/>
       <use x="381.689453" xlink:href="#DejaVuSans-30"/>
       <use x="445.3125" xlink:href="#DejaVuSans-32"/>
       <use x="508.935547" xlink:href="#DejaVuSans-30"/>
      </g>
     </g>
    </g>
    <g id="xtick_7">
     <g id="line2d_13">
      <path clip-path="url(#p3309dc5e93)" d="M 275.138203 276.48 
L 275.138203 41.472 
" style="fill:none;stroke:#808080;stroke-dasharray:2.96,1.28;stroke-dashoffset:0;stroke-width:0.8;"/>
     </g>
     <g id="line2d_14">
      <g>
       <use style="stroke:#000000;stroke-width:0.8;" x="275.138203" xlink:href="#mb12b93e4f6" y="276.48"/>
      </g>
     </g>
     <g id="text_7">
      <!-- 21.01.2021 -->
      <g transform="translate(224.512992 318.688565)rotate(-30)scale(0.1 -0.1)">
       <use xlink:href="#DejaVuSans-32"/>
       <use x="63.623047" xlink:href="#DejaVuSans-31"/>
       <use x="127.246094" xlink:href="#DejaVuSans-2e"/>
       <use x="159.033203" xlink:href="#DejaVuSans-30"/>
       <use x="222.65625" xlink:href="#DejaVuSans-31"/>
       <use x="286.279297" xlink:href="#DejaVuSans-2e"/>
       <use x="318.066406" xlink:href="#DejaVuSans-32"/>
       <use x="381.689453" xlink:href="#DejaVuSans-30"/>
       <use x="445.3125" xlink:href="#DejaVuSans-32"/>
       <use x="508.935547" xlink:href="#DejaVuSans-31"/>
      </g>
     </g>
    </g>
    <g id="xtick_8">
     <g id="line2d_15">
      <path clip-path="url(#p3309dc5e93)" d="M 311.141957 276.48 
L 311.141957 41.472 
" style="fill:none;stroke:#808080;stroke-dasharray:2.96,1.28;stroke-dashoffset:0;stroke-width:0.8;"/>
     </g>
     <g id="line2d_16">
      <g>
       <use style="stroke:#000000;stroke-width:0.8;" x="311.141957" xlink:href="#mb12b93e4f6" y="276.48"/>
      </g>
     </g>
     <g id="text_8">
      <!-- 20.03.2021 -->
      <g transform="translate(260.516746 318.688565)rotate(-30)scale(0.1 -0.1)">
       <use xlink:href="#DejaVuSans-32"/>
       <use x="63.623047" xlink:href="#DejaVuSans-30"/>
       <use x="127.246094" xlink:href="#DejaVuSans-2e"/>
       <use x="159.033203" xlink:href="#DejaVuSans-30"/>
       <use x="222.65625" xlink:href="#DejaVuSans-33"/>
       <use x="286.279297" xlink:href="#DejaVuSans-2e"/>
       <use x="318.066406" xlink:href="#DejaVuSans-32"/>
       <use x="381.689453" xlink:href="#DejaVuSans-30"/>
       <use x="445.3125" xlink:href="#DejaVuSans-32"/>
       <use x="508.935547" xlink:href="#DejaVuSans-31"/>
      </g>
     </g>
    </g>
    <g id="xtick_9">
     <g id="line2d_17">
      <path clip-path="url(#p3309dc5e93)" d="M 347.145712 276.48 
L 347.145712 41.472 
" style="fill:none;stroke:#808080;stroke-dasharray:2.96,1.28;stroke-dashoffset:0;stroke-width:0.8;"/>
     </g>
     <g id="line2d_18">
      <g>
       <use style="stroke:#000000;stroke-width:0.8;" x="347.145712" xlink:href="#mb12b93e4f6" y="276.48"/>
      </g>
     </g>
     <g id="text_9">
      <!-- 17.05.2021 -->
      <g transform="translate(296.520501 318.688565)rotate(-30)scale(0.1 -0.1)">
       <defs>
        <path d="M 691 4666 
L 3169 4666 
L 3169 4134 
L 1269 4134 
L 1269 2991 
Q 1406 3038 1543 3061 
Q 1681 3084 1819 3084 
Q 2600 3084 3056 2656 
Q 3513 2228 3513 1497 
Q 3513 744 3044 326 
Q 2575 -91 1722 -91 
Q 1428 -91 1123 -41 
Q 819 9 494 109 
L 494 744 
Q 775 591 1075 516 
Q 1375 441 1709 441 
Q 2250 441 2565 725 
Q 2881 1009 2881 1497 
Q 2881 1984 2565 2268 
Q 2250 2553 1709 2553 
Q 1456 2553 1204 2497 
Q 953 2441 691 2322 
L 691 4666 
z
" id="DejaVuSans-35" transform="scale(0.015625)"/>
       </defs>
       <use xlink:href="#DejaVuSans-31"/>
       <use x="63.623047" xlink:href="#DejaVuSans-37"/>
       <use x="127.246094" xlink:href="#DejaVuSans-2e"/>
       <use x="159.033203" xlink:href="#DejaVuSans-30"/>
       <use x="222.65625" xlink:href="#DejaVuSans-35"/>
       <use x="286.279297" xlink:href="#DejaVuSans-2e"/>
       <use x="318.066406" xlink:href="#DejaVuSans-32"/>
       <use x="381.689453" xlink:href="#DejaVuSans-30"/>
       <use x="445.3125" xlink:href="#DejaVuSans-32"/>
       <use x="508.935547" xlink:href="#DejaVuSans-31"/>
      </g>
     </g>
    </g>
    <g id="xtick_10">
     <g id="line2d_19">
      <path clip-path="url(#p3309dc5e93)" d="M 383.149466 276.48 
L 383.149466 41.472 
" style="fill:none;stroke:#808080;stroke-dasharray:2.96,1.28;stroke-dashoffset:0;stroke-width:0.8;"/>
     </g>
     <g id="line2d_20">
      <g>
       <use style="stroke:#000000;stroke-width:0.8;" x="383.149466" xlink:href="#mb12b93e4f6" y="276.48"/>
      </g>
     </g>
     <g id="text_10">
      <!-- 14.07.2021 -->
      <g transform="translate(332.524256 318.688565)rotate(-30)scale(0.1 -0.1)">
       <use xlink:href="#DejaVuSans-31"/>
       <use x="63.623047" xlink:href="#DejaVuSans-34"/>
       <use x="127.246094" xlink:href="#DejaVuSans-2e"/>
       <use x="159.033203" xlink:href="#DejaVuSans-30"/>
       <use x="222.65625" xlink:href="#DejaVuSans-37"/>
       <use x="286.279297" xlink:href="#DejaVuSans-2e"/>
       <use x="318.066406" xlink:href="#DejaVuSans-32"/>
       <use x="381.689453" xlink:href="#DejaVuSans-30"/>
       <use x="445.3125" xlink:href="#DejaVuSans-32"/>
       <use x="508.935547" xlink:href="#DejaVuSans-31"/>
      </g>
     </g>
    </g>
   </g>
   <g id="matplotlib.axis_2">
    <g id="ytick_1">
     <g id="line2d_21">
      <path clip-path="url(#p3309dc5e93)" d="M 57.6 265.797818 
L 414.72 265.797818 
" style="fill:none;stroke:#808080;stroke-dasharray:2.96,1.28;stroke-dashoffset:0;stroke-width:0.8;"/>
     </g>
     <g id="line2d_22">
      <defs>
       <path d="M 0 0 
L -3.5 0 
" id="m4fc7836119" style="stroke:#000000;stroke-width:0.8;"/>
      </defs>
      <g>
       <use style="stroke:#000000;stroke-width:0.8;" x="57.6" xlink:href="#m4fc7836119" y="265.797818"/>
      </g>
     </g>
     <g id="text_11">
      <!-- 0 -->
      <g transform="translate(44.2375 269.597037)scale(0.1 -0.1)">
       <use xlink:href="#DejaVuSans-30"/>
      </g>
     </g>
    </g>
    <g id="ytick_2">
     <g id="line2d_23">
      <path clip-path="url(#p3309dc5e93)" d="M 57.6 230.644775 
L 414.72 230.644775 
" style="fill:none;stroke:#808080;stroke-dasharray:2.96,1.28;stroke-dashoffset:0;stroke-width:0.8;"/>
     </g>
     <g id="line2d_24">
      <g>
       <use style="stroke:#000000;stroke-width:0.8;" x="57.6" xlink:href="#m4fc7836119" y="230.644775"/>
      </g>
     </g>
     <g id="text_12">
      <!-- 50 -->
      <g transform="translate(37.875 234.443994)scale(0.1 -0.1)">
       <use xlink:href="#DejaVuSans-35"/>
       <use x="63.623047" xlink:href="#DejaVuSans-30"/>
      </g>
     </g>
    </g>
    <g id="ytick_3">
     <g id="line2d_25">
      <path clip-path="url(#p3309dc5e93)" d="M 57.6 195.491732 
L 414.72 195.491732 
" style="fill:none;stroke:#808080;stroke-dasharray:2.96,1.28;stroke-dashoffset:0;stroke-width:0.8;"/>
     </g>
     <g id="line2d_26">
      <g>
       <use style="stroke:#000000;stroke-width:0.8;" x="57.6" xlink:href="#m4fc7836119" y="195.491732"/>
      </g>
     </g>
     <g id="text_13">
      <!-- 100 -->
      <g transform="translate(31.5125 199.290951)scale(0.1 -0.1)">
       <use xlink:href="#DejaVuSans-31"/>
       <use x="63.623047" xlink:href="#DejaVuSans-30"/>
       <use x="127.246094" xlink:href="#DejaVuSans-30"/>
      </g>
     </g>
    </g>
    <g id="ytick_4">
     <g id="line2d_27">
      <path clip-path="url(#p3309dc5e93)" d="M 57.6 160.338689 
L 414.72 160.338689 
" style="fill:none;stroke:#808080;stroke-dasharray:2.96,1.28;stroke-dashoffset:0;stroke-width:0.8;"/>
     </g>
     <g id="line2d_28">
      <g>
       <use style="stroke:#000000;stroke-width:0.8;" x="57.6" xlink:href="#m4fc7836119" y="160.338689"/>
      </g>
     </g>
     <g id="text_14">
      <!-- 150 -->
      <g transform="translate(31.5125 164.137908)scale(0.1 -0.1)">
       <use xlink:href="#DejaVuSans-31"/>
       <use x="63.623047" xlink:href="#DejaVuSans-35"/>
       <use x="127.246094" xlink:href="#DejaVuSans-30"/>
      </g>
     </g>
    </g>
    <g id="ytick_5">
     <g id="line2d_29">
      <path clip-path="url(#p3309dc5e93)" d="M 57.6 125.185646 
L 414.72 125.185646 
" style="fill:none;stroke:#808080;stroke-dasharray:2.96,1.28;stroke-dashoffset:0;stroke-width:0.8;"/>
     </g>
     <g id="line2d_30">
      <g>
       <use style="stroke:#000000;stroke-width:0.8;" x="57.6" xlink:href="#m4fc7836119" y="125.185646"/>
      </g>
     </g>
     <g id="text_15">
      <!-- 200 -->
      <g transform="translate(31.5125 128.984865)scale(0.1 -0.1)">
       <use xlink:href="#DejaVuSans-32"/>
       <use x="63.623047" xlink:href="#DejaVuSans-30"/>
       <use x="127.246094" xlink:href="#DejaVuSans-30"/>
      </g>
     </g>
    </g>
    <g id="ytick_6">
     <g id="line2d_31">
      <path clip-path="url(#p3309dc5e93)" d="M 57.6 90.032603 
L 414.72 90.032603 
" style="fill:none;stroke:#808080;stroke-dasharray:2.96,1.28;stroke-dashoffset:0;stroke-width:0.8;"/>
     </g>
     <g id="line2d_32">
      <g>
       <use style="stroke:#000000;stroke-width:0.8;" x="57.6" xlink:href="#m4fc7836119" y="90.032603"/>
      </g>
     </g>
     <g id="text_16">
      <!-- 250 -->
      <g transform="translate(31.5125 93.831822)scale(0.1 -0.1)">
       <use xlink:href="#DejaVuSans-32"/>
       <use x="63.623047" xlink:href="#DejaVuSans-35"/>
       <use x="127.246094" xlink:href="#DejaVuSans-30"/>
      </g>
     </g>
    </g>
    <g id="ytick_7">
     <g id="line2d_33">
      <path clip-path="url(#p3309dc5e93)" d="M 57.6 54.87956 
L 414.72 54.87956 
" style="fill:none;stroke:#808080;stroke-dasharray:2.96,1.28;stroke-dashoffset:0;stroke-width:0.8;"/>
     </g>
     <g id="line2d_34">
      <g>
       <use style="stroke:#000000;stroke-width:0.8;" x="57.6" xlink:href="#m4fc7836119" y="54.87956"/>
      </g>
     </g>
     <g id="text_17">
      <!-- 300 -->
      <g transform="translate(31.5125 58.678779)scale(0.1 -0.1)">
       <use xlink:href="#DejaVuSans-33"/>
       <use x="63.623047" xlink:href="#DejaVuSans-30"/>
       <use x="127.246094" xlink:href="#DejaVuSans-30"/>
      </g>
     </g>
    </g>
    <g id="text_18">
     <!-- Inzidenz pro 7 Tage pro 100.000 Einwohner -->
     <g transform="translate(25.432812 267.301)rotate(-90)scale(0.1 -0.1)">
      <defs>
       <path d="M 628 4666 
L 1259 4666 
L 1259 0 
L 628 0 
L 628 4666 
z
" id="DejaVuSans-49" transform="scale(0.015625)"/>
       <path d="M 3513 2113 
L 3513 0 
L 2938 0 
L 2938 2094 
Q 2938 2591 2744 2837 
Q 2550 3084 2163 3084 
Q 1697 3084 1428 2787 
Q 1159 2491 1159 1978 
L 1159 0 
L 581 0 
L 581 3500 
L 1159 3500 
L 1159 2956 
Q 1366 3272 1645 3428 
Q 1925 3584 2291 3584 
Q 2894 3584 3203 3211 
Q 3513 2838 3513 2113 
z
" id="DejaVuSans-6e" transform="scale(0.015625)"/>
       <path d="M 353 3500 
L 3084 3500 
L 3084 2975 
L 922 459 
L 3084 459 
L 3084 0 
L 275 0 
L 275 525 
L 2438 3041 
L 353 3041 
L 353 3500 
z
" id="DejaVuSans-7a" transform="scale(0.015625)"/>
       <path d="M 603 3500 
L 1178 3500 
L 1178 0 
L 603 0 
L 603 3500 
z
M 603 4863 
L 1178 4863 
L 1178 4134 
L 603 4134 
L 603 4863 
z
" id="DejaVuSans-69" transform="scale(0.015625)"/>
       <path d="M 2906 2969 
L 2906 4863 
L 3481 4863 
L 3481 0 
L 2906 0 
L 2906 525 
Q 2725 213 2448 61 
Q 2172 -91 1784 -91 
Q 1150 -91 751 415 
Q 353 922 353 1747 
Q 353 2572 751 3078 
Q 1150 3584 1784 3584 
Q 2172 3584 2448 3432 
Q 2725 3281 2906 2969 
z
M 947 1747 
Q 947 1113 1208 752 
Q 1469 391 1925 391 
Q 2381 391 2643 752 
Q 2906 1113 2906 1747 
Q 2906 2381 2643 2742 
Q 2381 3103 1925 3103 
Q 1469 3103 1208 2742 
Q 947 2381 947 1747 
z
" id="DejaVuSans-64" transform="scale(0.015625)"/>
       <path d="M 3597 1894 
L 3597 1613 
L 953 1613 
Q 991 1019 1311 708 
Q 1631 397 2203 397 
Q 2534 397 2845 478 
Q 3156 559 3463 722 
L 3463 178 
Q 3153 47 2828 -22 
Q 2503 -91 2169 -91 
Q 1331 -91 842 396 
Q 353 884 353 1716 
Q 353 2575 817 3079 
Q 1281 3584 2069 3584 
Q 2775 3584 3186 3129 
Q 3597 2675 3597 1894 
z
M 3022 2063 
Q 3016 2534 2758 2815 
Q 2500 3097 2075 3097 
Q 1594 3097 1305 2825 
Q 1016 2553 972 2059 
L 3022 2063 
z
" id="DejaVuSans-65" transform="scale(0.015625)"/>
       <path id="DejaVuSans-20" transform="scale(0.015625)"/>
       <path d="M 1159 525 
L 1159 -1331 
L 581 -1331 
L 581 3500 
L 1159 3500 
L 1159 2969 
Q 1341 3281 1617 3432 
Q 1894 3584 2278 3584 
Q 2916 3584 3314 3078 
Q 3713 2572 3713 1747 
Q 3713 922 3314 415 
Q 2916 -91 2278 -91 
Q 1894 -91 1617 61 
Q 1341 213 1159 525 
z
M 3116 1747 
Q 3116 2381 2855 2742 
Q 2594 3103 2138 3103 
Q 1681 3103 1420 2742 
Q 1159 2381 1159 1747 
Q 1159 1113 1420 752 
Q 1681 391 2138 391 
Q 2594 391 2855 752 
Q 3116 1113 3116 1747 
z
" id="DejaVuSans-70" transform="scale(0.015625)"/>
       <path d="M 2631 2963 
Q 2534 3019 2420 3045 
Q 2306 3072 2169 3072 
Q 1681 3072 1420 2755 
Q 1159 2438 1159 1844 
L 1159 0 
L 581 0 
L 581 3500 
L 1159 3500 
L 1159 2956 
Q 1341 3275 1631 3429 
Q 1922 3584 2338 3584 
Q 2397 3584 2469 3576 
Q 2541 3569 2628 3553 
L 2631 2963 
z
" id="DejaVuSans-72" transform="scale(0.015625)"/>
       <path d="M 1959 3097 
Q 1497 3097 1228 2736 
Q 959 2375 959 1747 
Q 959 1119 1226 758 
Q 1494 397 1959 397 
Q 2419 397 2687 759 
Q 2956 1122 2956 1747 
Q 2956 2369 2687 2733 
Q 2419 3097 1959 3097 
z
M 1959 3584 
Q 2709 3584 3137 3096 
Q 3566 2609 3566 1747 
Q 3566 888 3137 398 
Q 2709 -91 1959 -91 
Q 1206 -91 779 398 
Q 353 888 353 1747 
Q 353 2609 779 3096 
Q 1206 3584 1959 3584 
z
" id="DejaVuSans-6f" transform="scale(0.015625)"/>
       <path d="M -19 4666 
L 3928 4666 
L 3928 4134 
L 2272 4134 
L 2272 0 
L 1638 0 
L 1638 4134 
L -19 4134 
L -19 4666 
z
" id="DejaVuSans-54" transform="scale(0.015625)"/>
       <path d="M 2194 1759 
Q 1497 1759 1228 1600 
Q 959 1441 959 1056 
Q 959 750 1161 570 
Q 1363 391 1709 391 
Q 2188 391 2477 730 
Q 2766 1069 2766 1631 
L 2766 1759 
L 2194 1759 
z
M 3341 1997 
L 3341 0 
L 2766 0 
L 2766 531 
Q 2569 213 2275 61 
Q 1981 -91 1556 -91 
Q 1019 -91 701 211 
Q 384 513 384 1019 
Q 384 1609 779 1909 
Q 1175 2209 1959 2209 
L 2766 2209 
L 2766 2266 
Q 2766 2663 2505 2880 
Q 2244 3097 1772 3097 
Q 1472 3097 1187 3025 
Q 903 2953 641 2809 
L 641 3341 
Q 956 3463 1253 3523 
Q 1550 3584 1831 3584 
Q 2591 3584 2966 3190 
Q 3341 2797 3341 1997 
z
" id="DejaVuSans-61" transform="scale(0.015625)"/>
       <path d="M 2906 1791 
Q 2906 2416 2648 2759 
Q 2391 3103 1925 3103 
Q 1463 3103 1205 2759 
Q 947 2416 947 1791 
Q 947 1169 1205 825 
Q 1463 481 1925 481 
Q 2391 481 2648 825 
Q 2906 1169 2906 1791 
z
M 3481 434 
Q 3481 -459 3084 -895 
Q 2688 -1331 1869 -1331 
Q 1566 -1331 1297 -1286 
Q 1028 -1241 775 -1147 
L 775 -588 
Q 1028 -725 1275 -790 
Q 1522 -856 1778 -856 
Q 2344 -856 2625 -561 
Q 2906 -266 2906 331 
L 2906 616 
Q 2728 306 2450 153 
Q 2172 0 1784 0 
Q 1141 0 747 490 
Q 353 981 353 1791 
Q 353 2603 747 3093 
Q 1141 3584 1784 3584 
Q 2172 3584 2450 3431 
Q 2728 3278 2906 2969 
L 2906 3500 
L 3481 3500 
L 3481 434 
z
" id="DejaVuSans-67" transform="scale(0.015625)"/>
       <path d="M 628 4666 
L 3578 4666 
L 3578 4134 
L 1259 4134 
L 1259 2753 
L 3481 2753 
L 3481 2222 
L 1259 2222 
L 1259 531 
L 3634 531 
L 3634 0 
L 628 0 
L 628 4666 
z
" id="DejaVuSans-45" transform="scale(0.015625)"/>
       <path d="M 269 3500 
L 844 3500 
L 1563 769 
L 2278 3500 
L 2956 3500 
L 3675 769 
L 4391 3500 
L 4966 3500 
L 4050 0 
L 3372 0 
L 2619 2869 
L 1863 0 
L 1184 0 
L 269 3500 
z
" id="DejaVuSans-77" transform="scale(0.015625)"/>
       <path d="M 3513 2113 
L 3513 0 
L 2938 0 
L 2938 2094 
Q 2938 2591 2744 2837 
Q 2550 3084 2163 3084 
Q 1697 3084 1428 2787 
Q 1159 2491 1159 1978 
L 1159 0 
L 581 0 
L 581 4863 
L 1159 4863 
L 1159 2956 
Q 1366 3272 1645 3428 
Q 1925 3584 2291 3584 
Q 2894 3584 3203 3211 
Q 3513 2838 3513 2113 
z
" id="DejaVuSans-68" transform="scale(0.015625)"/>
      </defs>
      <use xlink:href="#DejaVuSans-49"/>
      <use x="29.492188" xlink:href="#DejaVuSans-6e"/>
      <use x="92.871094" xlink:href="#DejaVuSans-7a"/>
      <use x="145.361328" xlink:href="#DejaVuSans-69"/>
      <use x="173.144531" xlink:href="#DejaVuSans-64"/>
      <use x="236.621094" xlink:href="#DejaVuSans-65"/>
      <use x="298.144531" xlink:href="#DejaVuSans-6e"/>
      <use x="361.523438" xlink:href="#DejaVuSans-7a"/>
      <use x="414.013672" xlink:href="#DejaVuSans-20"/>
      <use x="445.800781" xlink:href="#DejaVuSans-70"/>
      <use x="509.277344" xlink:href="#DejaVuSans-72"/>
      <use x="548.140625" xlink:href="#DejaVuSans-6f"/>
      <use x="609.322266" xlink:href="#DejaVuSans-20"/>
      <use x="641.109375" xlink:href="#DejaVuSans-37"/>
      <use x="704.732422" xlink:href="#DejaVuSans-20"/>
      <use x="736.519531" xlink:href="#DejaVuSans-54"/>
      <use x="781.103516" xlink:href="#DejaVuSans-61"/>
      <use x="842.382812" xlink:href="#DejaVuSans-67"/>
      <use x="905.859375" xlink:href="#DejaVuSans-65"/>
      <use x="967.382812" xlink:href="#DejaVuSans-20"/>
      <use x="999.169922" xlink:href="#DejaVuSans-70"/>
      <use x="1062.646484" xlink:href="#DejaVuSans-72"/>
      <use x="1101.509766" xlink:href="#DejaVuSans-6f"/>
      <use x="1162.691406" xlink:href="#DejaVuSans-20"/>
      <use x="1194.478516" xlink:href="#DejaVuSans-31"/>
      <use x="1258.101562" xlink:href="#DejaVuSans-30"/>
      <use x="1321.724609" xlink:href="#DejaVuSans-30"/>
      <use x="1385.347656" xlink:href="#DejaVuSans-2e"/>
      <use x="1417.134766" xlink:href="#DejaVuSans-30"/>
      <use x="1480.757812" xlink:href="#DejaVuSans-30"/>
      <use x="1544.380859" xlink:href="#DejaVuSans-30"/>
      <use x="1608.003906" xlink:href="#DejaVuSans-20"/>
      <use x="1639.791016" xlink:href="#DejaVuSans-45"/>
      <use x="1702.974609" xlink:href="#DejaVuSans-69"/>
      <use x="1730.757812" xlink:href="#DejaVuSans-6e"/>
      <use x="1794.136719" xlink:href="#DejaVuSans-77"/>
      <use x="1875.923828" xlink:href="#DejaVuSans-6f"/>
      <use x="1937.105469" xlink:href="#DejaVuSans-68"/>
      <use x="2000.484375" xlink:href="#DejaVuSans-6e"/>
      <use x="2063.863281" xlink:href="#DejaVuSans-65"/>
      <use x="2125.386719" xlink:href="#DejaVuSans-72"/>
     </g>
    </g>
   </g>
   <g id="line2d_35">
    <path clip-path="url(#p3309dc5e93)" d="M 73.832727 265.797818 
L 75.074236 265.797818 
L 75.69499 265.256263 
L 78.178008 265.256263 
L 78.798762 264.985485 
L 79.419517 264.985485 
L 80.040271 265.256263 
L 80.661026 264.173152 
L 81.28178 263.902374 
L 81.902534 263.360819 
L 82.523289 263.360819 
L 83.144043 262.277708 
L 83.764797 260.923819 
L 84.385552 256.862153 
L 85.006306 256.591375 
L 85.627061 256.04982 
L 86.247815 256.591375 
L 86.868569 255.508264 
L 87.489324 255.508264 
L 88.110078 254.966709 
L 88.730833 256.591375 
L 89.351587 252.800487 
L 89.972341 251.988153 
L 90.593096 251.446598 
L 91.21385 250.092709 
L 92.455359 245.489488 
L 93.076113 243.864821 
L 93.696868 244.406377 
L 94.317622 244.406377 
L 94.938376 242.510933 
L 95.559131 239.2616 
L 96.179885 241.969377 
L 96.80064 243.864821 
L 97.421394 244.677155 
L 98.042148 247.65571 
L 99.283657 249.280376 
L 99.904412 253.883598 
L 101.14592 254.425153 
L 101.766675 256.320597 
L 102.387429 255.237486 
L 103.008184 255.237486 
L 103.628938 256.320597 
L 104.249692 256.320597 
L 104.870447 255.237486 
L 105.491201 254.425153 
L 106.111956 249.821932 
L 106.73271 251.717376 
L 107.353464 250.905043 
L 107.974219 251.17582 
L 108.594973 250.092709 
L 109.215727 251.17582 
L 109.836482 253.342042 
L 110.457236 259.299152 
L 111.077991 259.840708 
L 111.698745 261.194597 
L 112.319499 261.194597 
L 112.940254 262.548485 
L 113.561008 263.360819 
L 114.181763 262.277708 
L 114.802517 261.736152 
L 115.423271 261.736152 
L 116.66478 262.277708 
L 117.285535 262.277708 
L 117.906289 262.00693 
L 118.527043 263.360819 
L 119.147798 263.631596 
L 119.768552 259.56993 
L 121.010061 259.56993 
L 122.25157 259.028375 
L 122.872324 257.674486 
L 123.493078 258.216041 
L 124.113833 262.277708 
L 125.355342 262.277708 
L 125.976096 263.090041 
L 126.59685 262.548485 
L 127.217605 263.631596 
L 127.838359 263.360819 
L 128.459114 262.819263 
L 129.700622 262.819263 
L 130.321377 263.090041 
L 130.942131 262.819263 
L 131.562885 262.819263 
L 132.18364 261.736152 
L 132.804394 260.382263 
L 134.045903 260.382263 
L 134.666657 258.486819 
L 135.287412 259.56993 
L 135.908166 258.757597 
L 136.528921 260.111486 
L 137.149675 262.277708 
L 138.391184 262.277708 
L 139.011938 261.736152 
L 139.632693 260.923819 
L 140.253447 261.194597 
L 140.874201 257.403708 
L 141.494956 256.862153 
L 142.736464 256.862153 
L 143.357219 255.779042 
L 143.977973 255.779042 
L 144.598728 255.508264 
L 145.219482 256.862153 
L 145.840236 256.320597 
L 147.081745 256.320597 
L 147.7025 259.299152 
L 148.323254 260.382263 
L 148.944008 259.56993 
L 149.564763 261.465374 
L 150.185517 262.00693 
L 151.427026 262.00693 
L 152.04778 260.111486 
L 152.668535 259.299152 
L 153.289289 259.56993 
L 153.910043 259.028375 
L 154.530798 256.591375 
L 155.772307 256.591375 
L 156.393061 257.674486 
L 157.013815 257.403708 
L 157.63457 259.028375 
L 158.255324 256.591375 
L 158.876079 259.299152 
L 160.117587 259.299152 
L 160.738342 259.56993 
L 161.359096 259.299152 
L 161.979851 258.216041 
L 162.600605 260.111486 
L 163.221359 257.674486 
L 164.462868 257.674486 
L 165.083622 257.132931 
L 165.704377 256.862153 
L 166.325131 258.216041 
L 166.945886 258.216041 
L 167.56664 260.111486 
L 168.808149 260.111486 
L 169.428903 258.486819 
L 170.049658 258.757597 
L 171.911921 255.508264 
L 173.15343 255.508264 
L 173.774184 255.237486 
L 174.394938 251.717376 
L 175.015693 249.821932 
L 175.636447 250.363487 
L 176.257201 249.551154 
L 178.119465 249.551154 
L 178.740219 249.821932 
L 179.360973 250.634265 
L 179.981728 249.280376 
L 180.602482 250.092709 
L 182.464745 250.092709 
L 183.0855 252.529709 
L 183.706254 253.071264 
L 184.327009 255.237486 
L 184.947763 256.04982 
L 186.189272 256.04982 
L 186.810026 255.508264 
L 187.43078 257.674486 
L 188.672289 258.216041 
L 189.293044 256.591375 
L 190.534552 256.591375 
L 191.155307 259.299152 
L 191.776061 257.674486 
L 192.396816 257.945264 
L 193.01757 256.862153 
L 194.259079 256.862153 
L 194.879833 256.591375 
L 195.500588 250.634265 
L 196.121342 248.738821 
L 197.362851 236.8246 
L 197.983605 236.012267 
L 198.604359 234.929156 
L 199.225114 234.929156 
L 199.845868 235.741489 
L 200.466623 236.283045 
L 201.087377 237.366156 
L 201.708131 239.532377 
L 202.328886 235.470711 
L 202.94964 234.3876 
L 203.570395 233.846045 
L 204.191149 235.741489 
L 204.811903 234.116823 
L 205.432658 234.929156 
L 206.053412 234.3876 
L 206.674167 237.095378 
L 207.294921 237.095378 
L 207.915675 237.636933 
L 208.53643 236.8246 
L 209.157184 233.846045 
L 210.398693 230.86749 
L 211.019447 226.805824 
L 211.640202 227.076601 
L 212.88171 222.47338 
L 213.502465 220.577936 
L 214.123219 215.974714 
L 214.743974 204.872827 
L 215.364728 201.081938 
L 215.985482 191.33394 
L 216.606237 191.875495 
L 217.226991 181.585941 
L 217.847746 175.899609 
L 218.4685 163.173055 
L 219.710009 146.114057 
L 220.330763 140.156947 
L 220.951517 136.907614 
L 221.572272 135.282948 
L 223.434535 88.709177 
L 224.055289 83.293622 
L 224.676044 93.853954 
L 225.296798 97.644842 
L 225.917553 72.73329 
L 226.538307 72.462512 
L 227.159061 79.773511 
L 227.779816 89.250732 
L 228.40057 87.355288 
L 229.021325 83.022844 
L 229.642079 81.1274 
L 230.262833 105.768174 
L 230.883588 113.620729 
L 231.504342 110.642174 
L 232.125096 124.18106 
L 232.745851 110.642174 
L 233.366605 109.82984 
L 233.98736 106.851285 
L 234.608114 85.189066 
L 235.228868 79.502733 
L 235.849623 91.146176 
L 236.470377 84.647511 
L 237.091132 101.43573 
L 237.711886 108.746729 
L 238.33264 112.26684 
L 238.953395 129.325838 
L 239.574149 129.867393 
L 240.194904 129.867393 
L 240.815658 121.202505 
L 241.436412 135.824503 
L 242.057167 134.741392 
L 242.677921 135.824503 
L 243.298675 140.427725 
L 243.91943 162.089944 
L 244.540184 166.15161 
L 245.160939 174.54572 
L 245.781693 149.634168 
L 246.402447 154.508167 
L 247.023202 156.132834 
L 247.643956 143.947835 
L 248.885465 114.162284 
L 249.506219 111.996062 
L 250.126974 109.288285 
L 251.368483 99.811064 
L 251.989237 91.687732 
L 252.609991 87.355288 
L 253.230746 91.95851 
L 253.8515 84.376733 
L 254.472254 89.52151 
L 255.093009 81.398178 
L 255.713763 84.376733 
L 256.334518 89.52151 
L 257.576026 52.154182 
L 258.817535 118.494728 
L 259.43829 129.596615 
L 260.059044 130.138171 
L 260.679798 124.18106 
L 261.921307 171.025609 
L 262.542062 173.733387 
L 263.162816 175.358053 
L 263.78357 165.339277 
L 264.404325 164.256166 
L 265.025079 176.711942 
L 265.645833 155.591278 
L 266.266588 138.532281 
L 266.887342 106.580507 
L 267.508097 86.813732 
L 268.128851 91.416954 
L 268.749605 93.04162 
L 269.37036 97.644842 
L 269.991114 117.682395 
L 270.611869 132.57517 
L 271.232623 139.615392 
L 271.853377 134.470615 
L 272.474132 139.886169 
L 273.094886 140.156947 
L 273.715641 138.532281 
L 274.336395 144.218613 
L 274.957149 143.677058 
L 275.577904 150.988057 
L 276.198658 163.985388 
L 276.819412 165.610055 
L 277.440167 165.880832 
L 278.681676 183.481385 
L 280.543939 193.500162 
L 281.164693 193.77094 
L 281.785448 193.77094 
L 282.406202 198.374161 
L 283.026956 197.561828 
L 283.647711 207.580604 
L 284.268465 208.12216 
L 284.88922 207.851382 
L 285.509974 208.663715 
L 286.130728 208.663715 
L 286.751483 206.497493 
L 287.372237 207.580604 
L 287.992991 210.829937 
L 288.613746 215.974714 
L 289.2345 216.787047 
L 289.855255 217.057825 
L 290.476009 217.057825 
L 291.096763 224.368824 
L 291.717518 222.744158 
L 292.338272 222.744158 
L 292.959027 222.202602 
L 293.579781 225.181157 
L 294.200535 224.368824 
L 294.82129 224.639602 
L 295.442044 221.931824 
L 296.062799 221.390269 
L 296.683553 216.51627 
L 297.304307 213.808492 
L 297.925062 212.454604 
L 298.545816 211.371493 
L 299.16657 211.100715 
L 299.787325 206.226716 
L 300.408079 209.746826 
L 301.028834 209.746826 
L 301.649588 210.559159 
L 302.270342 210.017604 
L 302.891097 211.64227 
L 303.511851 210.829937 
L 304.132606 209.746826 
L 304.75336 206.497493 
L 305.374114 207.580604 
L 305.994869 202.165049 
L 306.615623 200.811161 
L 307.236378 200.269605 
L 307.857132 204.060494 
L 308.477886 204.331271 
L 309.098641 201.352716 
L 309.719395 188.626162 
L 310.340149 182.398274 
L 310.960904 173.462609 
L 311.581658 174.004165 
L 312.202413 171.025609 
L 312.823167 158.840611 
L 313.443921 157.7575 
L 314.064676 161.548389 
L 314.68543 158.028278 
L 315.306185 151.80039 
L 315.926939 150.175723 
L 316.547693 150.175723 
L 317.168448 132.304393 
L 317.789202 124.451838 
L 318.409957 119.036283 
L 319.030711 121.473283 
L 319.651465 142.052391 
L 320.27222 121.202505 
L 320.892974 120.66095 
L 321.513728 165.068499 
L 322.134483 168.047054 
L 322.755237 174.004165 
L 323.375992 166.693166 
L 323.996746 141.240058 
L 324.6175 163.443833 
L 325.238255 163.71461 
L 325.859009 129.596615 
L 327.100518 106.038952 
L 327.721272 107.934396 
L 328.962781 103.060397 
L 329.583536 101.706508 
L 330.20429 84.105955 
L 331.445799 72.73329 
L 332.066553 67.317735 
L 333.308062 64.33918 
L 333.928816 65.422291 
L 334.549571 68.130068 
L 335.170325 75.441067 
L 335.791079 87.08451 
L 336.411834 91.416954 
L 337.032588 101.43573 
L 337.653343 102.518841 
L 338.274097 103.331175 
L 339.515606 136.095281 
L 340.13636 137.178392 
L 340.757115 146.114057 
L 341.377869 149.904946 
L 341.998623 151.80039 
L 342.619378 151.80039 
L 343.240132 155.591278 
L 343.860886 155.049723 
L 344.481641 159.382167 
L 345.102395 179.419719 
L 345.72315 188.355385 
L 346.343904 185.647607 
L 346.964658 185.647607 
L 347.585413 193.500162 
L 348.206167 197.020272 
L 348.826922 202.706605 
L 349.447676 189.167718 
L 350.06843 189.167718 
L 350.689185 192.958606 
L 351.309939 191.33394 
L 351.930694 212.454604 
L 352.551448 212.454604 
L 353.172202 222.47338 
L 353.792957 229.513601 
L 354.413711 231.950601 
L 355.034465 229.784379 
L 355.65522 230.596712 
L 356.275974 224.098046 
L 356.896729 227.888935 
L 357.517483 227.347379 
L 358.758992 239.803155 
L 359.379746 241.698599 
L 360.000501 243.052488 
L 360.621255 245.760265 
L 361.242009 246.843376 
L 361.862764 250.092709 
L 362.483518 247.384932 
L 363.104273 247.65571 
L 363.725027 246.843376 
L 364.345781 246.301821 
L 364.966536 249.009598 
L 365.58729 253.071264 
L 366.208044 254.695931 
L 366.828799 256.862153 
L 368.070308 259.840708 
L 368.691062 259.840708 
L 369.311816 260.382263 
L 369.932571 260.382263 
L 370.553325 260.653041 
L 371.17408 261.465374 
L 371.794834 261.736152 
L 373.036343 261.736152 
L 373.657097 262.819263 
L 374.277852 263.090041 
L 375.51936 262.00693 
L 376.140115 260.923819 
L 378.002378 260.923819 
L 378.623132 261.736152 
L 379.243887 261.736152 
L 379.864641 262.548485 
L 381.726904 262.548485 
L 382.347659 262.819263 
L 382.968413 261.465374 
L 383.589167 260.382263 
L 384.830676 259.299152 
L 386.072185 259.299152 
L 386.692939 259.028375 
L 387.934448 260.111486 
L 388.555203 259.299152 
L 390.417466 259.299152 
L 391.03822 258.486819 
L 391.658974 256.862153 
L 392.279729 254.425153 
L 392.900483 253.342042 
L 393.521238 249.280376 
L 394.762746 249.280376 
L 395.383501 244.406377 
L 396.004255 243.594044 
L 396.62501 238.990822 
L 397.245764 236.283045 
L 397.866518 237.636933 
L 398.487273 237.636933 
L 398.487273 237.636933 
" style="fill:none;stroke:#1f77b4;stroke-linecap:square;stroke-width:1.5;"/>
   </g>
   <g id="patch_3">
    <path d="M 57.6 276.48 
L 57.6 41.472 
" style="fill:none;stroke:#000000;stroke-linecap:square;stroke-linejoin:miter;stroke-width:0.8;"/>
   </g>
   <g id="patch_4">
    <path d="M 414.72 276.48 
L 414.72 41.472 
" style="fill:none;stroke:#000000;stroke-linecap:square;stroke-linejoin:miter;stroke-width:0.8;"/>
   </g>
   <g id="patch_5">
    <path d="M 57.6 276.48 
L 414.72 276.48 
" style="fill:none;stroke:#000000;stroke-linecap:square;stroke-linejoin:miter;stroke-width:0.8;"/>
   </g>
   <g id="patch_6">
    <path d="M 57.6 41.472 
L 414.72 41.472 
" style="fill:none;stroke:#000000;stroke-linecap:square;stroke-linejoin:miter;stroke-width:0.8;"/>
   </g>
  </g>
  <g id="text_19">
   <!-- Inzidenzverlauf SK Gelsenkirchen -->
   <g transform="translate(80.305313 20.589187)scale(0.18 -0.18)">
    <defs>
     <path d="M 191 3500 
L 800 3500 
L 1894 563 
L 2988 3500 
L 3597 3500 
L 2284 0 
L 1503 0 
L 191 3500 
z
" id="DejaVuSans-76" transform="scale(0.015625)"/>
     <path d="M 603 4863 
L 1178 4863 
L 1178 0 
L 603 0 
L 603 4863 
z
" id="DejaVuSans-6c" transform="scale(0.015625)"/>
     <path d="M 544 1381 
L 544 3500 
L 1119 3500 
L 1119 1403 
Q 1119 906 1312 657 
Q 1506 409 1894 409 
Q 2359 409 2629 706 
Q 2900 1003 2900 1516 
L 2900 3500 
L 3475 3500 
L 3475 0 
L 2900 0 
L 2900 538 
Q 2691 219 2414 64 
Q 2138 -91 1772 -91 
Q 1169 -91 856 284 
Q 544 659 544 1381 
z
M 1991 3584 
L 1991 3584 
z
" id="DejaVuSans-75" transform="scale(0.015625)"/>
     <path d="M 2375 4863 
L 2375 4384 
L 1825 4384 
Q 1516 4384 1395 4259 
Q 1275 4134 1275 3809 
L 1275 3500 
L 2222 3500 
L 2222 3053 
L 1275 3053 
L 1275 0 
L 697 0 
L 697 3053 
L 147 3053 
L 147 3500 
L 697 3500 
L 697 3744 
Q 697 4328 969 4595 
Q 1241 4863 1831 4863 
L 2375 4863 
z
" id="DejaVuSans-66" transform="scale(0.015625)"/>
     <path d="M 3425 4513 
L 3425 3897 
Q 3066 4069 2747 4153 
Q 2428 4238 2131 4238 
Q 1616 4238 1336 4038 
Q 1056 3838 1056 3469 
Q 1056 3159 1242 3001 
Q 1428 2844 1947 2747 
L 2328 2669 
Q 3034 2534 3370 2195 
Q 3706 1856 3706 1288 
Q 3706 609 3251 259 
Q 2797 -91 1919 -91 
Q 1588 -91 1214 -16 
Q 841 59 441 206 
L 441 856 
Q 825 641 1194 531 
Q 1563 422 1919 422 
Q 2459 422 2753 634 
Q 3047 847 3047 1241 
Q 3047 1584 2836 1778 
Q 2625 1972 2144 2069 
L 1759 2144 
Q 1053 2284 737 2584 
Q 422 2884 422 3419 
Q 422 4038 858 4394 
Q 1294 4750 2059 4750 
Q 2388 4750 2728 4690 
Q 3069 4631 3425 4513 
z
" id="DejaVuSans-53" transform="scale(0.015625)"/>
     <path d="M 628 4666 
L 1259 4666 
L 1259 2694 
L 3353 4666 
L 4166 4666 
L 1850 2491 
L 4331 0 
L 3500 0 
L 1259 2247 
L 1259 0 
L 628 0 
L 628 4666 
z
" id="DejaVuSans-4b" transform="scale(0.015625)"/>
     <path d="M 3809 666 
L 3809 1919 
L 2778 1919 
L 2778 2438 
L 4434 2438 
L 4434 434 
Q 4069 175 3628 42 
Q 3188 -91 2688 -91 
Q 1594 -91 976 548 
Q 359 1188 359 2328 
Q 359 3472 976 4111 
Q 1594 4750 2688 4750 
Q 3144 4750 3555 4637 
Q 3966 4525 4313 4306 
L 4313 3634 
Q 3963 3931 3569 4081 
Q 3175 4231 2741 4231 
Q 1884 4231 1454 3753 
Q 1025 3275 1025 2328 
Q 1025 1384 1454 906 
Q 1884 428 2741 428 
Q 3075 428 3337 486 
Q 3600 544 3809 666 
z
" id="DejaVuSans-47" transform="scale(0.015625)"/>
     <path d="M 2834 3397 
L 2834 2853 
Q 2591 2978 2328 3040 
Q 2066 3103 1784 3103 
Q 1356 3103 1142 2972 
Q 928 2841 928 2578 
Q 928 2378 1081 2264 
Q 1234 2150 1697 2047 
L 1894 2003 
Q 2506 1872 2764 1633 
Q 3022 1394 3022 966 
Q 3022 478 2636 193 
Q 2250 -91 1575 -91 
Q 1294 -91 989 -36 
Q 684 19 347 128 
L 347 722 
Q 666 556 975 473 
Q 1284 391 1588 391 
Q 1994 391 2212 530 
Q 2431 669 2431 922 
Q 2431 1156 2273 1281 
Q 2116 1406 1581 1522 
L 1381 1569 
Q 847 1681 609 1914 
Q 372 2147 372 2553 
Q 372 3047 722 3315 
Q 1072 3584 1716 3584 
Q 2034 3584 2315 3537 
Q 2597 3491 2834 3397 
z
" id="DejaVuSans-73" transform="scale(0.015625)"/>
     <path d="M 581 4863 
L 1159 4863 
L 1159 1991 
L 2875 3500 
L 3609 3500 
L 1753 1863 
L 3688 0 
L 2938 0 
L 1159 1709 
L 1159 0 
L 581 0 
L 581 4863 
z
" id="DejaVuSans-6b" transform="scale(0.015625)"/>
     <path d="M 3122 3366 
L 3122 2828 
Q 2878 2963 2633 3030 
Q 2388 3097 2138 3097 
Q 1578 3097 1268 2742 
Q 959 2388 959 1747 
Q 959 1106 1268 751 
Q 1578 397 2138 397 
Q 2388 397 2633 464 
Q 2878 531 3122 666 
L 3122 134 
Q 2881 22 2623 -34 
Q 2366 -91 2075 -91 
Q 1284 -91 818 406 
Q 353 903 353 1747 
Q 353 2603 823 3093 
Q 1294 3584 2113 3584 
Q 2378 3584 2631 3529 
Q 2884 3475 3122 3366 
z
" id="DejaVuSans-63" transform="scale(0.015625)"/>
    </defs>
    <use xlink:href="#DejaVuSans-49"/>
    <use x="29.492188" xlink:href="#DejaVuSans-6e"/>
    <use x="92.871094" xlink:href="#DejaVuSans-7a"/>
    <use x="145.361328" xlink:href="#DejaVuSans-69"/>
    <use x="173.144531" xlink:href="#DejaVuSans-64"/>
    <use x="236.621094" xlink:href="#DejaVuSans-65"/>
    <use x="298.144531" xlink:href="#DejaVuSans-6e"/>
    <use x="361.523438" xlink:href="#DejaVuSans-7a"/>
    <use x="414.013672" xlink:href="#DejaVuSans-76"/>
    <use x="473.193359" xlink:href="#DejaVuSans-65"/>
    <use x="534.716797" xlink:href="#DejaVuSans-72"/>
    <use x="575.830078" xlink:href="#DejaVuSans-6c"/>
    <use x="603.613281" xlink:href="#DejaVuSans-61"/>
    <use x="664.892578" xlink:href="#DejaVuSans-75"/>
    <use x="728.271484" xlink:href="#DejaVuSans-66"/>
    <use x="763.476562" xlink:href="#DejaVuSans-20"/>
    <use x="795.263672" xlink:href="#DejaVuSans-53"/>
    <use x="858.740234" xlink:href="#DejaVuSans-4b"/>
    <use x="924.316406" xlink:href="#DejaVuSans-20"/>
    <use x="956.103516" xlink:href="#DejaVuSans-47"/>
    <use x="1033.59375" xlink:href="#DejaVuSans-65"/>
    <use x="1095.117188" xlink:href="#DejaVuSans-6c"/>
    <use x="1122.900391" xlink:href="#DejaVuSans-73"/>
    <use x="1175" xlink:href="#DejaVuSans-65"/>
    <use x="1236.523438" xlink:href="#DejaVuSans-6e"/>
    <use x="1299.902344" xlink:href="#DejaVuSans-6b"/>
    <use x="1357.8125" xlink:href="#DejaVuSans-69"/>
    <use x="1385.595703" xlink:href="#DejaVuSans-72"/>
    <use x="1424.458984" xlink:href="#DejaVuSans-63"/>
    <use x="1479.439453" xlink:href="#DejaVuSans-68"/>
    <use x="1542.818359" xlink:href="#DejaVuSans-65"/>
    <use x="1604.341797" xlink:href="#DejaVuSans-6e"/>
   </g>
  </g>
 </g>
 <defs>
  <clipPath id="p3309dc5e93">
   <rect height="235.008" width="357.12" x="57.6" y="41.472"/>
  </clipPath>
 </defs>
</svg>
