<?xml version="1.0" encoding="utf-8" standalone="no"?>
<!DOCTYPE svg PUBLIC "-//W3C//DTD SVG 1.1//EN"
  "http://www.w3.org/Graphics/SVG/1.1/DTD/svg11.dtd">
<svg xmlns:xlink="http://www.w3.org/1999/xlink" width="460.8pt" height="345.6pt" viewBox="0 0 460.8 345.6" xmlns="http://www.w3.org/2000/svg" version="1.1">
 <metadata>
  <rdf:RDF xmlns:dc="http://purl.org/dc/elements/1.1/" xmlns:cc="http://creativecommons.org/ns#" xmlns:rdf="http://www.w3.org/1999/02/22-rdf-syntax-ns#">
   <cc:Work>
    <dc:type rdf:resource="http://purl.org/dc/dcmitype/StillImage"/>
    <dc:date>2022-06-12T09:20:43.179639</dc:date>
    <dc:format>image/svg+xml</dc:format>
    <dc:creator>
     <cc:Agent>
      <dc:title>Matplotlib v3.5.2, https://matplotlib.org/</dc:title>
     </cc:Agent>
    </dc:creator>
   </cc:Work>
  </rdf:RDF>
 </metadata>
 <defs>
  <style type="text/css">*{stroke-linejoin: round; stroke-linecap: butt}</style>
 </defs>
 <g id="figure_1">
  <g id="patch_1">
   <path d="M 0 345.6 
L 460.8 345.6 
L 460.8 0 
L 0 0 
z
" style="fill: #ffffff"/>
  </g>
  <g id="axes_1">
   <g id="patch_2">
    <path d="M 57.6 276.48 
L 414.72 276.48 
L 414.72 41.472 
L 57.6 41.472 
z
" style="fill: #ffffff"/>
   </g>
   <g id="matplotlib.axis_1">
    <g id="xtick_1">
     <g id="line2d_1">
      <path d="M 59.10086 276.48 
L 59.10086 41.472 
" clip-path="url(#pb92b6fb947)" style="fill: none; stroke-dasharray: 2.96,1.28; stroke-dashoffset: 0; stroke: #808080; stroke-width: 0.8"/>
     </g>
     <g id="line2d_2">
      <defs>
       <path id="m9b65849258" d="M 0 0 
L 0 3.5 
" style="stroke: #000000; stroke-width: 0.8"/>
      </defs>
      <g>
       <use xlink:href="#m9b65849258" x="59.10086" y="276.48" style="stroke: #000000; stroke-width: 0.8"/>
      </g>
     </g>
     <g id="text_1">
      <!-- 25.01.2020 -->
      <g transform="translate(8.475649 318.688565)rotate(-30)scale(0.1 -0.1)">
       <defs>
        <path id="DejaVuSans-32" d="M 1228 531 
L 3431 531 
L 3431 0 
L 469 0 
L 469 531 
Q 828 903 1448 1529 
Q 2069 2156 2228 2338 
Q 2531 2678 2651 2914 
Q 2772 3150 2772 3378 
Q 2772 3750 2511 3984 
Q 2250 4219 1831 4219 
Q 1534 4219 1204 4116 
Q 875 4013 500 3803 
L 500 4441 
Q 881 4594 1212 4672 
Q 1544 4750 1819 4750 
Q 2544 4750 2975 4387 
Q 3406 4025 3406 3419 
Q 3406 3131 3298 2873 
Q 3191 2616 2906 2266 
Q 2828 2175 2409 1742 
Q 1991 1309 1228 531 
z
" transform="scale(0.015625)"/>
        <path id="DejaVuSans-35" d="M 691 4666 
L 3169 4666 
L 3169 4134 
L 1269 4134 
L 1269 2991 
Q 1406 3038 1543 3061 
Q 1681 3084 1819 3084 
Q 2600 3084 3056 2656 
Q 3513 2228 3513 1497 
Q 3513 744 3044 326 
Q 2575 -91 1722 -91 
Q 1428 -91 1123 -41 
Q 819 9 494 109 
L 494 744 
Q 775 591 1075 516 
Q 1375 441 1709 441 
Q 2250 441 2565 725 
Q 2881 1009 2881 1497 
Q 2881 1984 2565 2268 
Q 2250 2553 1709 2553 
Q 1456 2553 1204 2497 
Q 953 2441 691 2322 
L 691 4666 
z
" transform="scale(0.015625)"/>
        <path id="DejaVuSans-2e" d="M 684 794 
L 1344 794 
L 1344 0 
L 684 0 
L 684 794 
z
" transform="scale(0.015625)"/>
        <path id="DejaVuSans-30" d="M 2034 4250 
Q 1547 4250 1301 3770 
Q 1056 3291 1056 2328 
Q 1056 1369 1301 889 
Q 1547 409 2034 409 
Q 2525 409 2770 889 
Q 3016 1369 3016 2328 
Q 3016 3291 2770 3770 
Q 2525 4250 2034 4250 
z
M 2034 4750 
Q 2819 4750 3233 4129 
Q 3647 3509 3647 2328 
Q 3647 1150 3233 529 
Q 2819 -91 2034 -91 
Q 1250 -91 836 529 
Q 422 1150 422 2328 
Q 422 3509 836 4129 
Q 1250 4750 2034 4750 
z
" transform="scale(0.015625)"/>
        <path id="DejaVuSans-31" d="M 794 531 
L 1825 531 
L 1825 4091 
L 703 3866 
L 703 4441 
L 1819 4666 
L 2450 4666 
L 2450 531 
L 3481 531 
L 3481 0 
L 794 0 
L 794 531 
z
" transform="scale(0.015625)"/>
       </defs>
       <use xlink:href="#DejaVuSans-32"/>
       <use xlink:href="#DejaVuSans-35" x="63.623047"/>
       <use xlink:href="#DejaVuSans-2e" x="127.246094"/>
       <use xlink:href="#DejaVuSans-30" x="159.033203"/>
       <use xlink:href="#DejaVuSans-31" x="222.65625"/>
       <use xlink:href="#DejaVuSans-2e" x="286.279297"/>
       <use xlink:href="#DejaVuSans-32" x="318.066406"/>
       <use xlink:href="#DejaVuSans-30" x="381.689453"/>
       <use xlink:href="#DejaVuSans-32" x="445.3125"/>
       <use xlink:href="#DejaVuSans-30" x="508.935547"/>
      </g>
     </g>
    </g>
    <g id="xtick_2">
     <g id="line2d_3">
      <path d="M 95.043361 276.48 
L 95.043361 41.472 
" clip-path="url(#pb92b6fb947)" style="fill: none; stroke-dasharray: 2.96,1.28; stroke-dashoffset: 0; stroke: #808080; stroke-width: 0.8"/>
     </g>
     <g id="line2d_4">
      <g>
       <use xlink:href="#m9b65849258" x="95.043361" y="276.48" style="stroke: #000000; stroke-width: 0.8"/>
      </g>
     </g>
     <g id="text_2">
      <!-- 26.04.2020 -->
      <g transform="translate(44.41815 318.688565)rotate(-30)scale(0.1 -0.1)">
       <defs>
        <path id="DejaVuSans-36" d="M 2113 2584 
Q 1688 2584 1439 2293 
Q 1191 2003 1191 1497 
Q 1191 994 1439 701 
Q 1688 409 2113 409 
Q 2538 409 2786 701 
Q 3034 994 3034 1497 
Q 3034 2003 2786 2293 
Q 2538 2584 2113 2584 
z
M 3366 4563 
L 3366 3988 
Q 3128 4100 2886 4159 
Q 2644 4219 2406 4219 
Q 1781 4219 1451 3797 
Q 1122 3375 1075 2522 
Q 1259 2794 1537 2939 
Q 1816 3084 2150 3084 
Q 2853 3084 3261 2657 
Q 3669 2231 3669 1497 
Q 3669 778 3244 343 
Q 2819 -91 2113 -91 
Q 1303 -91 875 529 
Q 447 1150 447 2328 
Q 447 3434 972 4092 
Q 1497 4750 2381 4750 
Q 2619 4750 2861 4703 
Q 3103 4656 3366 4563 
z
" transform="scale(0.015625)"/>
        <path id="DejaVuSans-34" d="M 2419 4116 
L 825 1625 
L 2419 1625 
L 2419 4116 
z
M 2253 4666 
L 3047 4666 
L 3047 1625 
L 3713 1625 
L 3713 1100 
L 3047 1100 
L 3047 0 
L 2419 0 
L 2419 1100 
L 313 1100 
L 313 1709 
L 2253 4666 
z
" transform="scale(0.015625)"/>
       </defs>
       <use xlink:href="#DejaVuSans-32"/>
       <use xlink:href="#DejaVuSans-36" x="63.623047"/>
       <use xlink:href="#DejaVuSans-2e" x="127.246094"/>
       <use xlink:href="#DejaVuSans-30" x="159.033203"/>
       <use xlink:href="#DejaVuSans-34" x="222.65625"/>
       <use xlink:href="#DejaVuSans-2e" x="286.279297"/>
       <use xlink:href="#DejaVuSans-32" x="318.066406"/>
       <use xlink:href="#DejaVuSans-30" x="381.689453"/>
       <use xlink:href="#DejaVuSans-32" x="445.3125"/>
       <use xlink:href="#DejaVuSans-30" x="508.935547"/>
      </g>
     </g>
    </g>
    <g id="xtick_3">
     <g id="line2d_5">
      <path d="M 130.985862 276.48 
L 130.985862 41.472 
" clip-path="url(#pb92b6fb947)" style="fill: none; stroke-dasharray: 2.96,1.28; stroke-dashoffset: 0; stroke: #808080; stroke-width: 0.8"/>
     </g>
     <g id="line2d_6">
      <g>
       <use xlink:href="#m9b65849258" x="130.985862" y="276.48" style="stroke: #000000; stroke-width: 0.8"/>
      </g>
     </g>
     <g id="text_3">
      <!-- 27.07.2020 -->
      <g transform="translate(80.360651 318.688565)rotate(-30)scale(0.1 -0.1)">
       <defs>
        <path id="DejaVuSans-37" d="M 525 4666 
L 3525 4666 
L 3525 4397 
L 1831 0 
L 1172 0 
L 2766 4134 
L 525 4134 
L 525 4666 
z
" transform="scale(0.015625)"/>
       </defs>
       <use xlink:href="#DejaVuSans-32"/>
       <use xlink:href="#DejaVuSans-37" x="63.623047"/>
       <use xlink:href="#DejaVuSans-2e" x="127.246094"/>
       <use xlink:href="#DejaVuSans-30" x="159.033203"/>
       <use xlink:href="#DejaVuSans-37" x="222.65625"/>
       <use xlink:href="#DejaVuSans-2e" x="286.279297"/>
       <use xlink:href="#DejaVuSans-32" x="318.066406"/>
       <use xlink:href="#DejaVuSans-30" x="381.689453"/>
       <use xlink:href="#DejaVuSans-32" x="445.3125"/>
       <use xlink:href="#DejaVuSans-30" x="508.935547"/>
      </g>
     </g>
    </g>
    <g id="xtick_4">
     <g id="line2d_7">
      <path d="M 166.928362 276.48 
L 166.928362 41.472 
" clip-path="url(#pb92b6fb947)" style="fill: none; stroke-dasharray: 2.96,1.28; stroke-dashoffset: 0; stroke: #808080; stroke-width: 0.8"/>
     </g>
     <g id="line2d_8">
      <g>
       <use xlink:href="#m9b65849258" x="166.928362" y="276.48" style="stroke: #000000; stroke-width: 0.8"/>
      </g>
     </g>
     <g id="text_4">
      <!-- 27.10.2020 -->
      <g transform="translate(116.303152 318.688565)rotate(-30)scale(0.1 -0.1)">
       <use xlink:href="#DejaVuSans-32"/>
       <use xlink:href="#DejaVuSans-37" x="63.623047"/>
       <use xlink:href="#DejaVuSans-2e" x="127.246094"/>
       <use xlink:href="#DejaVuSans-31" x="159.033203"/>
       <use xlink:href="#DejaVuSans-30" x="222.65625"/>
       <use xlink:href="#DejaVuSans-2e" x="286.279297"/>
       <use xlink:href="#DejaVuSans-32" x="318.066406"/>
       <use xlink:href="#DejaVuSans-30" x="381.689453"/>
       <use xlink:href="#DejaVuSans-32" x="445.3125"/>
       <use xlink:href="#DejaVuSans-30" x="508.935547"/>
      </g>
     </g>
    </g>
    <g id="xtick_5">
     <g id="line2d_9">
      <path d="M 202.870863 276.48 
L 202.870863 41.472 
" clip-path="url(#pb92b6fb947)" style="fill: none; stroke-dasharray: 2.96,1.28; stroke-dashoffset: 0; stroke: #808080; stroke-width: 0.8"/>
     </g>
     <g id="line2d_10">
      <g>
       <use xlink:href="#m9b65849258" x="202.870863" y="276.48" style="stroke: #000000; stroke-width: 0.8"/>
      </g>
     </g>
     <g id="text_5">
      <!-- 27.01.2021 -->
      <g transform="translate(152.245652 318.688565)rotate(-30)scale(0.1 -0.1)">
       <use xlink:href="#DejaVuSans-32"/>
       <use xlink:href="#DejaVuSans-37" x="63.623047"/>
       <use xlink:href="#DejaVuSans-2e" x="127.246094"/>
       <use xlink:href="#DejaVuSans-30" x="159.033203"/>
       <use xlink:href="#DejaVuSans-31" x="222.65625"/>
       <use xlink:href="#DejaVuSans-2e" x="286.279297"/>
       <use xlink:href="#DejaVuSans-32" x="318.066406"/>
       <use xlink:href="#DejaVuSans-30" x="381.689453"/>
       <use xlink:href="#DejaVuSans-32" x="445.3125"/>
       <use xlink:href="#DejaVuSans-31" x="508.935547"/>
      </g>
     </g>
    </g>
    <g id="xtick_6">
     <g id="line2d_11">
      <path d="M 238.813364 276.48 
L 238.813364 41.472 
" clip-path="url(#pb92b6fb947)" style="fill: none; stroke-dasharray: 2.96,1.28; stroke-dashoffset: 0; stroke: #808080; stroke-width: 0.8"/>
     </g>
     <g id="line2d_12">
      <g>
       <use xlink:href="#m9b65849258" x="238.813364" y="276.48" style="stroke: #000000; stroke-width: 0.8"/>
      </g>
     </g>
     <g id="text_6">
      <!-- 29.04.2021 -->
      <g transform="translate(188.188153 318.688565)rotate(-30)scale(0.1 -0.1)">
       <defs>
        <path id="DejaVuSans-39" d="M 703 97 
L 703 672 
Q 941 559 1184 500 
Q 1428 441 1663 441 
Q 2288 441 2617 861 
Q 2947 1281 2994 2138 
Q 2813 1869 2534 1725 
Q 2256 1581 1919 1581 
Q 1219 1581 811 2004 
Q 403 2428 403 3163 
Q 403 3881 828 4315 
Q 1253 4750 1959 4750 
Q 2769 4750 3195 4129 
Q 3622 3509 3622 2328 
Q 3622 1225 3098 567 
Q 2575 -91 1691 -91 
Q 1453 -91 1209 -44 
Q 966 3 703 97 
z
M 1959 2075 
Q 2384 2075 2632 2365 
Q 2881 2656 2881 3163 
Q 2881 3666 2632 3958 
Q 2384 4250 1959 4250 
Q 1534 4250 1286 3958 
Q 1038 3666 1038 3163 
Q 1038 2656 1286 2365 
Q 1534 2075 1959 2075 
z
" transform="scale(0.015625)"/>
       </defs>
       <use xlink:href="#DejaVuSans-32"/>
       <use xlink:href="#DejaVuSans-39" x="63.623047"/>
       <use xlink:href="#DejaVuSans-2e" x="127.246094"/>
       <use xlink:href="#DejaVuSans-30" x="159.033203"/>
       <use xlink:href="#DejaVuSans-34" x="222.65625"/>
       <use xlink:href="#DejaVuSans-2e" x="286.279297"/>
       <use xlink:href="#DejaVuSans-32" x="318.066406"/>
       <use xlink:href="#DejaVuSans-30" x="381.689453"/>
       <use xlink:href="#DejaVuSans-32" x="445.3125"/>
       <use xlink:href="#DejaVuSans-31" x="508.935547"/>
      </g>
     </g>
    </g>
    <g id="xtick_7">
     <g id="line2d_13">
      <path d="M 274.755865 276.48 
L 274.755865 41.472 
" clip-path="url(#pb92b6fb947)" style="fill: none; stroke-dasharray: 2.96,1.28; stroke-dashoffset: 0; stroke: #808080; stroke-width: 0.8"/>
     </g>
     <g id="line2d_14">
      <g>
       <use xlink:href="#m9b65849258" x="274.755865" y="276.48" style="stroke: #000000; stroke-width: 0.8"/>
      </g>
     </g>
     <g id="text_7">
      <!-- 30.07.2021 -->
      <g transform="translate(224.130654 318.688565)rotate(-30)scale(0.1 -0.1)">
       <defs>
        <path id="DejaVuSans-33" d="M 2597 2516 
Q 3050 2419 3304 2112 
Q 3559 1806 3559 1356 
Q 3559 666 3084 287 
Q 2609 -91 1734 -91 
Q 1441 -91 1130 -33 
Q 819 25 488 141 
L 488 750 
Q 750 597 1062 519 
Q 1375 441 1716 441 
Q 2309 441 2620 675 
Q 2931 909 2931 1356 
Q 2931 1769 2642 2001 
Q 2353 2234 1838 2234 
L 1294 2234 
L 1294 2753 
L 1863 2753 
Q 2328 2753 2575 2939 
Q 2822 3125 2822 3475 
Q 2822 3834 2567 4026 
Q 2313 4219 1838 4219 
Q 1578 4219 1281 4162 
Q 984 4106 628 3988 
L 628 4550 
Q 988 4650 1302 4700 
Q 1616 4750 1894 4750 
Q 2613 4750 3031 4423 
Q 3450 4097 3450 3541 
Q 3450 3153 3228 2886 
Q 3006 2619 2597 2516 
z
" transform="scale(0.015625)"/>
       </defs>
       <use xlink:href="#DejaVuSans-33"/>
       <use xlink:href="#DejaVuSans-30" x="63.623047"/>
       <use xlink:href="#DejaVuSans-2e" x="127.246094"/>
       <use xlink:href="#DejaVuSans-30" x="159.033203"/>
       <use xlink:href="#DejaVuSans-37" x="222.65625"/>
       <use xlink:href="#DejaVuSans-2e" x="286.279297"/>
       <use xlink:href="#DejaVuSans-32" x="318.066406"/>
       <use xlink:href="#DejaVuSans-30" x="381.689453"/>
       <use xlink:href="#DejaVuSans-32" x="445.3125"/>
       <use xlink:href="#DejaVuSans-31" x="508.935547"/>
      </g>
     </g>
    </g>
    <g id="xtick_8">
     <g id="line2d_15">
      <path d="M 310.698366 276.48 
L 310.698366 41.472 
" clip-path="url(#pb92b6fb947)" style="fill: none; stroke-dasharray: 2.96,1.28; stroke-dashoffset: 0; stroke: #808080; stroke-width: 0.8"/>
     </g>
     <g id="line2d_16">
      <g>
       <use xlink:href="#m9b65849258" x="310.698366" y="276.48" style="stroke: #000000; stroke-width: 0.8"/>
      </g>
     </g>
     <g id="text_8">
      <!-- 30.10.2021 -->
      <g transform="translate(260.073155 318.688565)rotate(-30)scale(0.1 -0.1)">
       <use xlink:href="#DejaVuSans-33"/>
       <use xlink:href="#DejaVuSans-30" x="63.623047"/>
       <use xlink:href="#DejaVuSans-2e" x="127.246094"/>
       <use xlink:href="#DejaVuSans-31" x="159.033203"/>
       <use xlink:href="#DejaVuSans-30" x="222.65625"/>
       <use xlink:href="#DejaVuSans-2e" x="286.279297"/>
       <use xlink:href="#DejaVuSans-32" x="318.066406"/>
       <use xlink:href="#DejaVuSans-30" x="381.689453"/>
       <use xlink:href="#DejaVuSans-32" x="445.3125"/>
       <use xlink:href="#DejaVuSans-31" x="508.935547"/>
      </g>
     </g>
    </g>
    <g id="xtick_9">
     <g id="line2d_17">
      <path d="M 346.640866 276.48 
L 346.640866 41.472 
" clip-path="url(#pb92b6fb947)" style="fill: none; stroke-dasharray: 2.96,1.28; stroke-dashoffset: 0; stroke: #808080; stroke-width: 0.8"/>
     </g>
     <g id="line2d_18">
      <g>
       <use xlink:href="#m9b65849258" x="346.640866" y="276.48" style="stroke: #000000; stroke-width: 0.8"/>
      </g>
     </g>
     <g id="text_9">
      <!-- 30.01.2022 -->
      <g transform="translate(296.015656 318.688565)rotate(-30)scale(0.1 -0.1)">
       <use xlink:href="#DejaVuSans-33"/>
       <use xlink:href="#DejaVuSans-30" x="63.623047"/>
       <use xlink:href="#DejaVuSans-2e" x="127.246094"/>
       <use xlink:href="#DejaVuSans-30" x="159.033203"/>
       <use xlink:href="#DejaVuSans-31" x="222.65625"/>
       <use xlink:href="#DejaVuSans-2e" x="286.279297"/>
       <use xlink:href="#DejaVuSans-32" x="318.066406"/>
       <use xlink:href="#DejaVuSans-30" x="381.689453"/>
       <use xlink:href="#DejaVuSans-32" x="445.3125"/>
       <use xlink:href="#DejaVuSans-32" x="508.935547"/>
      </g>
     </g>
    </g>
    <g id="xtick_10">
     <g id="line2d_19">
      <path d="M 382.583367 276.48 
L 382.583367 41.472 
" clip-path="url(#pb92b6fb947)" style="fill: none; stroke-dasharray: 2.96,1.28; stroke-dashoffset: 0; stroke: #808080; stroke-width: 0.8"/>
     </g>
     <g id="line2d_20">
      <g>
       <use xlink:href="#m9b65849258" x="382.583367" y="276.48" style="stroke: #000000; stroke-width: 0.8"/>
      </g>
     </g>
     <g id="text_10">
      <!-- 02.05.2022 -->
      <g transform="translate(331.958156 318.688565)rotate(-30)scale(0.1 -0.1)">
       <use xlink:href="#DejaVuSans-30"/>
       <use xlink:href="#DejaVuSans-32" x="63.623047"/>
       <use xlink:href="#DejaVuSans-2e" x="127.246094"/>
       <use xlink:href="#DejaVuSans-30" x="159.033203"/>
       <use xlink:href="#DejaVuSans-35" x="222.65625"/>
       <use xlink:href="#DejaVuSans-2e" x="286.279297"/>
       <use xlink:href="#DejaVuSans-32" x="318.066406"/>
       <use xlink:href="#DejaVuSans-30" x="381.689453"/>
       <use xlink:href="#DejaVuSans-32" x="445.3125"/>
       <use xlink:href="#DejaVuSans-32" x="508.935547"/>
      </g>
     </g>
    </g>
   </g>
   <g id="matplotlib.axis_2">
    <g id="ytick_1">
     <g id="line2d_21">
      <path d="M 57.6 265.807711 
L 414.72 265.807711 
" clip-path="url(#pb92b6fb947)" style="fill: none; stroke-dasharray: 2.96,1.28; stroke-dashoffset: 0; stroke: #808080; stroke-width: 0.8"/>
     </g>
     <g id="line2d_22">
      <defs>
       <path id="m7c12b3f777" d="M 0 0 
L -3.5 0 
" style="stroke: #000000; stroke-width: 0.8"/>
      </defs>
      <g>
       <use xlink:href="#m7c12b3f777" x="57.6" y="265.807711" style="stroke: #000000; stroke-width: 0.8"/>
      </g>
     </g>
     <g id="text_11">
      <!-- 0 -->
      <g transform="translate(44.2375 269.60693)scale(0.1 -0.1)">
       <use xlink:href="#DejaVuSans-30"/>
      </g>
     </g>
    </g>
    <g id="ytick_2">
     <g id="line2d_23">
      <path d="M 57.6 220.119607 
L 414.72 220.119607 
" clip-path="url(#pb92b6fb947)" style="fill: none; stroke-dasharray: 2.96,1.28; stroke-dashoffset: 0; stroke: #808080; stroke-width: 0.8"/>
     </g>
     <g id="line2d_24">
      <g>
       <use xlink:href="#m7c12b3f777" x="57.6" y="220.119607" style="stroke: #000000; stroke-width: 0.8"/>
      </g>
     </g>
     <g id="text_12">
      <!-- 500 -->
      <g transform="translate(31.5125 223.918825)scale(0.1 -0.1)">
       <use xlink:href="#DejaVuSans-35"/>
       <use xlink:href="#DejaVuSans-30" x="63.623047"/>
       <use xlink:href="#DejaVuSans-30" x="127.246094"/>
      </g>
     </g>
    </g>
    <g id="ytick_3">
     <g id="line2d_25">
      <path d="M 57.6 174.431502 
L 414.72 174.431502 
" clip-path="url(#pb92b6fb947)" style="fill: none; stroke-dasharray: 2.96,1.28; stroke-dashoffset: 0; stroke: #808080; stroke-width: 0.8"/>
     </g>
     <g id="line2d_26">
      <g>
       <use xlink:href="#m7c12b3f777" x="57.6" y="174.431502" style="stroke: #000000; stroke-width: 0.8"/>
      </g>
     </g>
     <g id="text_13">
      <!-- 1000 -->
      <g transform="translate(25.15 178.230721)scale(0.1 -0.1)">
       <use xlink:href="#DejaVuSans-31"/>
       <use xlink:href="#DejaVuSans-30" x="63.623047"/>
       <use xlink:href="#DejaVuSans-30" x="127.246094"/>
       <use xlink:href="#DejaVuSans-30" x="190.869141"/>
      </g>
     </g>
    </g>
    <g id="ytick_4">
     <g id="line2d_27">
      <path d="M 57.6 128.743397 
L 414.72 128.743397 
" clip-path="url(#pb92b6fb947)" style="fill: none; stroke-dasharray: 2.96,1.28; stroke-dashoffset: 0; stroke: #808080; stroke-width: 0.8"/>
     </g>
     <g id="line2d_28">
      <g>
       <use xlink:href="#m7c12b3f777" x="57.6" y="128.743397" style="stroke: #000000; stroke-width: 0.8"/>
      </g>
     </g>
     <g id="text_14">
      <!-- 1500 -->
      <g transform="translate(25.15 132.542616)scale(0.1 -0.1)">
       <use xlink:href="#DejaVuSans-31"/>
       <use xlink:href="#DejaVuSans-35" x="63.623047"/>
       <use xlink:href="#DejaVuSans-30" x="127.246094"/>
       <use xlink:href="#DejaVuSans-30" x="190.869141"/>
      </g>
     </g>
    </g>
    <g id="ytick_5">
     <g id="line2d_29">
      <path d="M 57.6 83.055293 
L 414.72 83.055293 
" clip-path="url(#pb92b6fb947)" style="fill: none; stroke-dasharray: 2.96,1.28; stroke-dashoffset: 0; stroke: #808080; stroke-width: 0.8"/>
     </g>
     <g id="line2d_30">
      <g>
       <use xlink:href="#m7c12b3f777" x="57.6" y="83.055293" style="stroke: #000000; stroke-width: 0.8"/>
      </g>
     </g>
     <g id="text_15">
      <!-- 2000 -->
      <g transform="translate(25.15 86.854511)scale(0.1 -0.1)">
       <use xlink:href="#DejaVuSans-32"/>
       <use xlink:href="#DejaVuSans-30" x="63.623047"/>
       <use xlink:href="#DejaVuSans-30" x="127.246094"/>
       <use xlink:href="#DejaVuSans-30" x="190.869141"/>
      </g>
     </g>
    </g>
    <g id="text_16">
     <!-- Inzidenz pro 7 Tage pro 100.000 Einwohner -->
     <g transform="translate(19.070312 267.301)rotate(-90)scale(0.1 -0.1)">
      <defs>
       <path id="DejaVuSans-49" d="M 628 4666 
L 1259 4666 
L 1259 0 
L 628 0 
L 628 4666 
z
" transform="scale(0.015625)"/>
       <path id="DejaVuSans-6e" d="M 3513 2113 
L 3513 0 
L 2938 0 
L 2938 2094 
Q 2938 2591 2744 2837 
Q 2550 3084 2163 3084 
Q 1697 3084 1428 2787 
Q 1159 2491 1159 1978 
L 1159 0 
L 581 0 
L 581 3500 
L 1159 3500 
L 1159 2956 
Q 1366 3272 1645 3428 
Q 1925 3584 2291 3584 
Q 2894 3584 3203 3211 
Q 3513 2838 3513 2113 
z
" transform="scale(0.015625)"/>
       <path id="DejaVuSans-7a" d="M 353 3500 
L 3084 3500 
L 3084 2975 
L 922 459 
L 3084 459 
L 3084 0 
L 275 0 
L 275 525 
L 2438 3041 
L 353 3041 
L 353 3500 
z
" transform="scale(0.015625)"/>
       <path id="DejaVuSans-69" d="M 603 3500 
L 1178 3500 
L 1178 0 
L 603 0 
L 603 3500 
z
M 603 4863 
L 1178 4863 
L 1178 4134 
L 603 4134 
L 603 4863 
z
" transform="scale(0.015625)"/>
       <path id="DejaVuSans-64" d="M 2906 2969 
L 2906 4863 
L 3481 4863 
L 3481 0 
L 2906 0 
L 2906 525 
Q 2725 213 2448 61 
Q 2172 -91 1784 -91 
Q 1150 -91 751 415 
Q 353 922 353 1747 
Q 353 2572 751 3078 
Q 1150 3584 1784 3584 
Q 2172 3584 2448 3432 
Q 2725 3281 2906 2969 
z
M 947 1747 
Q 947 1113 1208 752 
Q 1469 391 1925 391 
Q 2381 391 2643 752 
Q 2906 1113 2906 1747 
Q 2906 2381 2643 2742 
Q 2381 3103 1925 3103 
Q 1469 3103 1208 2742 
Q 947 2381 947 1747 
z
" transform="scale(0.015625)"/>
       <path id="DejaVuSans-65" d="M 3597 1894 
L 3597 1613 
L 953 1613 
Q 991 1019 1311 708 
Q 1631 397 2203 397 
Q 2534 397 2845 478 
Q 3156 559 3463 722 
L 3463 178 
Q 3153 47 2828 -22 
Q 2503 -91 2169 -91 
Q 1331 -91 842 396 
Q 353 884 353 1716 
Q 353 2575 817 3079 
Q 1281 3584 2069 3584 
Q 2775 3584 3186 3129 
Q 3597 2675 3597 1894 
z
M 3022 2063 
Q 3016 2534 2758 2815 
Q 2500 3097 2075 3097 
Q 1594 3097 1305 2825 
Q 1016 2553 972 2059 
L 3022 2063 
z
" transform="scale(0.015625)"/>
       <path id="DejaVuSans-20" transform="scale(0.015625)"/>
       <path id="DejaVuSans-70" d="M 1159 525 
L 1159 -1331 
L 581 -1331 
L 581 3500 
L 1159 3500 
L 1159 2969 
Q 1341 3281 1617 3432 
Q 1894 3584 2278 3584 
Q 2916 3584 3314 3078 
Q 3713 2572 3713 1747 
Q 3713 922 3314 415 
Q 2916 -91 2278 -91 
Q 1894 -91 1617 61 
Q 1341 213 1159 525 
z
M 3116 1747 
Q 3116 2381 2855 2742 
Q 2594 3103 2138 3103 
Q 1681 3103 1420 2742 
Q 1159 2381 1159 1747 
Q 1159 1113 1420 752 
Q 1681 391 2138 391 
Q 2594 391 2855 752 
Q 3116 1113 3116 1747 
z
" transform="scale(0.015625)"/>
       <path id="DejaVuSans-72" d="M 2631 2963 
Q 2534 3019 2420 3045 
Q 2306 3072 2169 3072 
Q 1681 3072 1420 2755 
Q 1159 2438 1159 1844 
L 1159 0 
L 581 0 
L 581 3500 
L 1159 3500 
L 1159 2956 
Q 1341 3275 1631 3429 
Q 1922 3584 2338 3584 
Q 2397 3584 2469 3576 
Q 2541 3569 2628 3553 
L 2631 2963 
z
" transform="scale(0.015625)"/>
       <path id="DejaVuSans-6f" d="M 1959 3097 
Q 1497 3097 1228 2736 
Q 959 2375 959 1747 
Q 959 1119 1226 758 
Q 1494 397 1959 397 
Q 2419 397 2687 759 
Q 2956 1122 2956 1747 
Q 2956 2369 2687 2733 
Q 2419 3097 1959 3097 
z
M 1959 3584 
Q 2709 3584 3137 3096 
Q 3566 2609 3566 1747 
Q 3566 888 3137 398 
Q 2709 -91 1959 -91 
Q 1206 -91 779 398 
Q 353 888 353 1747 
Q 353 2609 779 3096 
Q 1206 3584 1959 3584 
z
" transform="scale(0.015625)"/>
       <path id="DejaVuSans-54" d="M -19 4666 
L 3928 4666 
L 3928 4134 
L 2272 4134 
L 2272 0 
L 1638 0 
L 1638 4134 
L -19 4134 
L -19 4666 
z
" transform="scale(0.015625)"/>
       <path id="DejaVuSans-61" d="M 2194 1759 
Q 1497 1759 1228 1600 
Q 959 1441 959 1056 
Q 959 750 1161 570 
Q 1363 391 1709 391 
Q 2188 391 2477 730 
Q 2766 1069 2766 1631 
L 2766 1759 
L 2194 1759 
z
M 3341 1997 
L 3341 0 
L 2766 0 
L 2766 531 
Q 2569 213 2275 61 
Q 1981 -91 1556 -91 
Q 1019 -91 701 211 
Q 384 513 384 1019 
Q 384 1609 779 1909 
Q 1175 2209 1959 2209 
L 2766 2209 
L 2766 2266 
Q 2766 2663 2505 2880 
Q 2244 3097 1772 3097 
Q 1472 3097 1187 3025 
Q 903 2953 641 2809 
L 641 3341 
Q 956 3463 1253 3523 
Q 1550 3584 1831 3584 
Q 2591 3584 2966 3190 
Q 3341 2797 3341 1997 
z
" transform="scale(0.015625)"/>
       <path id="DejaVuSans-67" d="M 2906 1791 
Q 2906 2416 2648 2759 
Q 2391 3103 1925 3103 
Q 1463 3103 1205 2759 
Q 947 2416 947 1791 
Q 947 1169 1205 825 
Q 1463 481 1925 481 
Q 2391 481 2648 825 
Q 2906 1169 2906 1791 
z
M 3481 434 
Q 3481 -459 3084 -895 
Q 2688 -1331 1869 -1331 
Q 1566 -1331 1297 -1286 
Q 1028 -1241 775 -1147 
L 775 -588 
Q 1028 -725 1275 -790 
Q 1522 -856 1778 -856 
Q 2344 -856 2625 -561 
Q 2906 -266 2906 331 
L 2906 616 
Q 2728 306 2450 153 
Q 2172 0 1784 0 
Q 1141 0 747 490 
Q 353 981 353 1791 
Q 353 2603 747 3093 
Q 1141 3584 1784 3584 
Q 2172 3584 2450 3431 
Q 2728 3278 2906 2969 
L 2906 3500 
L 3481 3500 
L 3481 434 
z
" transform="scale(0.015625)"/>
       <path id="DejaVuSans-45" d="M 628 4666 
L 3578 4666 
L 3578 4134 
L 1259 4134 
L 1259 2753 
L 3481 2753 
L 3481 2222 
L 1259 2222 
L 1259 531 
L 3634 531 
L 3634 0 
L 628 0 
L 628 4666 
z
" transform="scale(0.015625)"/>
       <path id="DejaVuSans-77" d="M 269 3500 
L 844 3500 
L 1563 769 
L 2278 3500 
L 2956 3500 
L 3675 769 
L 4391 3500 
L 4966 3500 
L 4050 0 
L 3372 0 
L 2619 2869 
L 1863 0 
L 1184 0 
L 269 3500 
z
" transform="scale(0.015625)"/>
       <path id="DejaVuSans-68" d="M 3513 2113 
L 3513 0 
L 2938 0 
L 2938 2094 
Q 2938 2591 2744 2837 
Q 2550 3084 2163 3084 
Q 1697 3084 1428 2787 
Q 1159 2491 1159 1978 
L 1159 0 
L 581 0 
L 581 4863 
L 1159 4863 
L 1159 2956 
Q 1366 3272 1645 3428 
Q 1925 3584 2291 3584 
Q 2894 3584 3203 3211 
Q 3513 2838 3513 2113 
z
" transform="scale(0.015625)"/>
      </defs>
      <use xlink:href="#DejaVuSans-49"/>
      <use xlink:href="#DejaVuSans-6e" x="29.492188"/>
      <use xlink:href="#DejaVuSans-7a" x="92.871094"/>
      <use xlink:href="#DejaVuSans-69" x="145.361328"/>
      <use xlink:href="#DejaVuSans-64" x="173.144531"/>
      <use xlink:href="#DejaVuSans-65" x="236.621094"/>
      <use xlink:href="#DejaVuSans-6e" x="298.144531"/>
      <use xlink:href="#DejaVuSans-7a" x="361.523438"/>
      <use xlink:href="#DejaVuSans-20" x="414.013672"/>
      <use xlink:href="#DejaVuSans-70" x="445.800781"/>
      <use xlink:href="#DejaVuSans-72" x="509.277344"/>
      <use xlink:href="#DejaVuSans-6f" x="548.140625"/>
      <use xlink:href="#DejaVuSans-20" x="609.322266"/>
      <use xlink:href="#DejaVuSans-37" x="641.109375"/>
      <use xlink:href="#DejaVuSans-20" x="704.732422"/>
      <use xlink:href="#DejaVuSans-54" x="736.519531"/>
      <use xlink:href="#DejaVuSans-61" x="781.103516"/>
      <use xlink:href="#DejaVuSans-67" x="842.382812"/>
      <use xlink:href="#DejaVuSans-65" x="905.859375"/>
      <use xlink:href="#DejaVuSans-20" x="967.382812"/>
      <use xlink:href="#DejaVuSans-70" x="999.169922"/>
      <use xlink:href="#DejaVuSans-72" x="1062.646484"/>
      <use xlink:href="#DejaVuSans-6f" x="1101.509766"/>
      <use xlink:href="#DejaVuSans-20" x="1162.691406"/>
      <use xlink:href="#DejaVuSans-31" x="1194.478516"/>
      <use xlink:href="#DejaVuSans-30" x="1258.101562"/>
      <use xlink:href="#DejaVuSans-30" x="1321.724609"/>
      <use xlink:href="#DejaVuSans-2e" x="1385.347656"/>
      <use xlink:href="#DejaVuSans-30" x="1417.134766"/>
      <use xlink:href="#DejaVuSans-30" x="1480.757812"/>
      <use xlink:href="#DejaVuSans-30" x="1544.380859"/>
      <use xlink:href="#DejaVuSans-20" x="1608.003906"/>
      <use xlink:href="#DejaVuSans-45" x="1639.791016"/>
      <use xlink:href="#DejaVuSans-69" x="1702.974609"/>
      <use xlink:href="#DejaVuSans-6e" x="1730.757812"/>
      <use xlink:href="#DejaVuSans-77" x="1794.136719"/>
      <use xlink:href="#DejaVuSans-6f" x="1875.923828"/>
      <use xlink:href="#DejaVuSans-68" x="1937.105469"/>
      <use xlink:href="#DejaVuSans-6e" x="2000.484375"/>
      <use xlink:href="#DejaVuSans-65" x="2063.863281"/>
      <use xlink:href="#DejaVuSans-72" x="2125.386719"/>
     </g>
    </g>
   </g>
   <g id="line2d_31">
    <path d="M 73.832727 265.797818 
L 76.567483 265.599954 
L 78.1302 264.976683 
L 79.692918 263.43829 
L 80.083597 262.918897 
L 80.864956 261.667408 
L 81.255635 261.533849 
L 82.427673 260.559369 
L 82.818352 260.425811 
L 83.599711 260.524743 
L 83.990391 260.331826 
L 84.38107 260.50001 
L 85.162429 261.039189 
L 85.943787 261.177694 
L 86.334467 261.098549 
L 86.725146 261.281573 
L 87.115825 261.316199 
L 87.506505 261.207374 
L 87.897184 260.955097 
L 88.287863 261.063922 
L 90.24126 262.330252 
L 90.63194 262.98815 
L 91.413298 263.354198 
L 91.803978 263.304732 
L 92.585336 263.621314 
L 93.366695 263.759819 
L 94.929413 264.348465 
L 95.710771 264.432557 
L 96.101451 264.590848 
L 96.882809 264.744192 
L 98.054847 265.120134 
L 100.008244 265.317998 
L 101.961641 265.501022 
L 103.915038 265.580168 
L 105.477755 265.66426 
L 109.775228 265.723619 
L 111.337946 265.64942 
L 113.682022 265.698886 
L 120.71425 265.629634 
L 128.137158 265.723619 
L 129.309196 265.555435 
L 133.606669 265.238852 
L 135.169386 264.625474 
L 136.341424 264.42761 
L 137.513462 264.556222 
L 137.904142 264.724406 
L 138.294821 264.724406 
L 139.07618 264.872804 
L 139.857539 264.942056 
L 140.638897 264.991522 
L 141.810935 264.89259 
L 142.592294 264.848071 
L 143.764332 264.902484 
L 144.155011 264.783765 
L 145.32705 264.803552 
L 146.499088 264.516649 
L 147.671126 264.496862 
L 148.452484 264.294052 
L 150.015202 264.229746 
L 150.405881 264.115974 
L 151.18724 264.239639 
L 152.359278 263.814232 
L 153.140637 263.838965 
L 153.921995 263.581742 
L 155.094033 263.383878 
L 156.656751 263.032669 
L 157.04743 263.096975 
L 157.43811 262.815019 
L 158.219468 262.651781 
L 158.610148 262.453917 
L 159.391506 262.409397 
L 159.782186 262.157121 
L 160.563544 262.439077 
L 160.954224 262.409397 
L 161.344903 262.1868 
L 161.735583 262.1868 
L 162.126262 261.7515 
L 162.907621 261.350825 
L 163.2983 260.875952 
L 164.079659 260.653355 
L 164.861017 259.357346 
L 165.642376 257.05223 
L 166.423735 256.023337 
L 166.814414 255.30608 
L 167.205094 253.906193 
L 167.595773 253.490678 
L 167.986452 252.89214 
L 168.377132 252.634917 
L 169.15849 252.456839 
L 170.330528 251.170723 
L 171.111887 251.165777 
L 171.502566 250.453466 
L 171.893246 250.250656 
L 172.674605 250.255602 
L 173.065284 250.641437 
L 173.846643 250.9135 
L 174.237322 251.764315 
L 175.018681 252.357907 
L 175.40936 253.233455 
L 175.800039 252.981179 
L 176.190719 253.149363 
L 176.581398 253.025698 
L 177.362757 253.629183 
L 177.753436 254.09911 
L 178.144116 254.089217 
L 178.534795 255.043911 
L 178.925474 255.677075 
L 179.316154 257.477638 
L 179.706833 257.868419 
L 180.097512 257.8239 
L 180.488192 257.551837 
L 180.878871 257.858526 
L 181.26955 257.888205 
L 181.66023 256.982978 
L 182.050909 255.766114 
L 182.832268 254.761954 
L 183.222947 254.954872 
L 183.613627 254.875726 
L 184.004306 254.079324 
L 184.394985 254.232668 
L 184.785665 253.451106 
L 185.176344 253.000965 
L 185.957703 252.570611 
L 186.348382 251.675276 
L 186.739061 251.487306 
L 187.911099 250.255602 
L 188.301779 250.606811 
L 188.692458 249.117884 
L 189.083138 248.613331 
L 189.473817 248.390734 
L 189.864496 249.434467 
L 190.255176 251.274602 
L 190.645855 251.897873 
L 191.036534 252.234242 
L 191.817893 253.574771 
L 192.208572 253.3868 
L 193.38061 253.248295 
L 194.161969 252.882247 
L 194.552649 252.728902 
L 194.943328 253.179043 
L 195.724687 251.497199 
L 196.115366 251.828621 
L 196.506045 251.423 
L 198.068763 254.603663 
L 198.459442 254.514625 
L 198.850121 254.757008 
L 199.240801 255.58309 
L 200.412839 256.503158 
L 200.803518 256.626823 
L 201.194198 257.353973 
L 201.584877 256.854366 
L 201.975556 256.641662 
L 202.366236 256.958245 
L 202.756915 257.047284 
L 203.147594 257.002764 
L 203.538274 257.161055 
L 203.928953 257.131376 
L 204.319632 257.695288 
L 204.710312 257.982191 
L 205.100991 258.001977 
L 206.663709 259.288093 
L 207.054388 259.322719 
L 207.445067 259.194108 
L 209.007785 259.599729 
L 209.398464 259.485957 
L 209.789143 259.668981 
L 210.179823 259.490904 
L 210.961181 259.515637 
L 211.351861 259.317773 
L 211.74254 259.446384 
L 212.523899 259.055603 
L 212.914578 259.119909 
L 213.305258 259.04571 
L 213.695937 258.664822 
L 214.086616 258.541157 
L 214.477296 258.214681 
L 215.258654 258.575783 
L 215.649334 258.219628 
L 216.040013 258.175108 
L 216.430692 258.348239 
L 216.821372 258.2592 
L 217.212051 258.338346 
L 217.99341 258.021764 
L 218.384089 258.30372 
L 218.774769 258.229521 
L 219.165448 258.30372 
L 219.556127 258.249307 
L 219.946807 257.759594 
L 220.728165 257.56173 
L 221.118845 257.156109 
L 221.509524 257.141269 
L 221.900203 256.132163 
L 222.290883 255.533624 
L 222.681562 255.3506 
L 223.072242 254.964765 
L 223.8536 254.954872 
L 224.24428 254.648183 
L 224.634959 254.524518 
L 225.025638 254.104057 
L 225.416318 252.926766 
L 226.197676 251.818728 
L 226.979035 251.269655 
L 227.369714 250.468306 
L 227.760394 250.314961 
L 228.151073 250.958019 
L 228.932432 251.121257 
L 229.713791 251.769262 
L 230.10447 253.228509 
L 230.495149 253.465945 
L 230.885829 253.554984 
L 231.276508 253.312601 
L 231.667187 252.822887 
L 232.057867 252.531038 
L 232.448546 252.511252 
L 232.839225 251.87314 
L 233.229905 251.883034 
L 234.011264 252.288655 
L 234.401943 252.778368 
L 235.183302 253.149363 
L 235.573981 253.470892 
L 235.96466 253.639076 
L 236.746019 254.766901 
L 237.136698 254.737221 
L 237.527378 255.078537 
L 237.918057 255.197255 
L 239.090095 255.993658 
L 239.480775 256.018391 
L 240.262133 256.399279 
L 240.652813 256.359706 
L 241.043492 256.725755 
L 241.434171 257.255041 
L 241.824851 257.205575 
L 242.606209 258.105856 
L 242.996889 258.091016 
L 244.168927 259.184215 
L 244.559606 259.931151 
L 245.731644 261.108442 
L 246.903682 261.944417 
L 247.294362 262.137334 
L 248.4664 262.260999 
L 248.857079 262.444024 
L 249.638438 263.067295 
L 251.201155 263.695513 
L 251.982514 263.557009 
L 254.717269 264.101135 
L 255.107949 264.120921 
L 255.889308 264.318785 
L 257.061346 264.472129 
L 257.452025 264.541382 
L 257.842704 264.734299 
L 259.014742 264.709566 
L 259.405422 264.803552 
L 259.796101 264.650207 
L 261.749498 264.932163 
L 262.530857 264.976683 
L 263.312215 265.006362 
L 263.702895 264.947003 
L 264.093574 265.050882 
L 264.874933 264.996469 
L 268.781726 264.605688 
L 269.563085 264.472129 
L 270.344444 264.313838 
L 270.735123 264.19512 
L 271.125802 264.200067 
L 274.641917 262.46381 
L 275.032596 262.523169 
L 275.423275 262.325305 
L 275.813955 262.473703 
L 276.204634 262.419291 
L 276.595313 262.127441 
L 276.985993 261.608048 
L 277.376672 261.400291 
L 277.767351 260.584102 
L 278.54871 259.916311 
L 279.330069 258.818166 
L 279.720748 258.452118 
L 280.892786 258.100909 
L 281.283466 257.685395 
L 282.064824 257.838739 
L 282.846183 257.774434 
L 283.236862 258.155322 
L 283.627542 258.135535 
L 284.018221 258.343293 
L 284.408901 258.31856 
L 284.79958 258.016817 
L 285.190259 258.076176 
L 285.971618 257.398492 
L 286.362297 257.294613 
L 286.752977 257.339133 
L 287.143656 257.210521 
L 287.534335 257.477638 
L 287.925015 257.3144 
L 289.878412 257.200628 
L 290.269091 256.973085 
L 291.831808 258.02671 
L 292.222488 258.051443 
L 293.003846 258.803326 
L 293.394526 258.818166 
L 294.175884 259.520583 
L 294.566564 259.520583 
L 294.957243 259.792646 
L 295.347923 259.812433 
L 296.129281 260.188374 
L 296.91064 260.049869 
L 297.301319 260.232894 
L 297.691999 260.064709 
L 298.473357 259.921258 
L 298.864037 259.565103 
L 299.645395 259.362292 
L 300.036075 259.011084 
L 300.426754 258.946778 
L 300.817434 259.025923 
L 301.989472 259.802539 
L 302.380151 259.802539 
L 302.77083 260.351612 
L 303.16151 260.465384 
L 303.552189 260.223 
L 304.333548 260.262573 
L 304.724227 260.099335 
L 305.114906 260.059763 
L 305.505586 259.649195 
L 306.286945 259.411758 
L 306.677624 258.412545 
L 308.240341 255.894726 
L 308.631021 255.622663 
L 309.0217 255.761168 
L 309.412379 255.726541 
L 309.803059 255.36544 
L 310.193738 255.177469 
L 310.584417 254.791634 
L 310.975097 254.658076 
L 311.365776 254.222775 
L 312.147135 253.807261 
L 312.537814 253.010858 
L 312.928494 252.476625 
L 313.709852 252.056165 
L 314.100532 252.249082 
L 314.88189 250.646384 
L 315.27257 250.572185 
L 315.663249 250.092364 
L 316.053928 249.370161 
L 316.444608 249.305855 
L 316.835287 248.70237 
L 318.398005 247.183764 
L 318.788684 246.95622 
L 319.179363 246.090565 
L 319.960722 245.373308 
L 320.351401 244.567013 
L 320.742081 243.458974 
L 321.13276 243.083033 
L 321.914119 242.76645 
L 322.304798 243.167125 
L 322.695478 243.127552 
L 323.086157 243.468868 
L 323.476836 243.50844 
L 323.867516 243.30563 
L 324.258195 243.27595 
L 324.648874 243.582639 
L 325.430233 242.860436 
L 326.211592 243.087979 
L 326.602271 242.672465 
L 327.38363 242.123393 
L 327.774309 241.396242 
L 328.164989 241.188485 
L 328.555668 239.689666 
L 328.946347 238.85369 
L 329.727706 236.058861 
L 330.118385 235.841211 
L 330.509065 235.875837 
L 330.899744 232.531936 
L 331.681103 231.201301 
L 332.071782 231.824572 
L 332.462461 233.135421 
L 332.853141 232.97713 
L 333.6345 235.208046 
L 334.025179 233.73396 
L 334.415858 231.517883 
L 334.806538 228.500457 
L 335.197217 227.159929 
L 335.587896 226.254701 
L 335.978576 223.138343 
L 336.369255 220.996466 
L 337.150614 212.686178 
L 337.541293 210.153519 
L 337.931972 202.783086 
L 338.713331 199.033563 
L 339.104011 195.155429 
L 339.49469 193.186683 
L 341.448087 158.070772 
L 341.838766 147.598821 
L 343.401483 93.151599 
L 343.792163 89.664247 
L 344.182842 81.962391 
L 344.964201 64.199152 
L 345.35488 57.387684 
L 346.136239 52.154182 
L 346.526918 55.141928 
L 346.917598 65.796903 
L 347.308277 70.768236 
L 347.698956 70.698984 
L 348.089636 77.020738 
L 348.480315 86.260986 
L 348.870994 92.805337 
L 349.261674 96.490554 
L 349.652353 97.415568 
L 350.043032 100.319222 
L 350.824391 118.473243 
L 351.215071 120.832771 
L 351.60575 127.955874 
L 351.996429 132.709556 
L 352.387109 134.851434 
L 352.777788 139.545757 
L 353.559147 153.485274 
L 353.949826 162.443566 
L 354.340505 167.419846 
L 354.731185 167.444579 
L 355.121864 170.630189 
L 355.903223 185.376002 
L 356.293902 188.279656 
L 356.684582 195.63525 
L 357.075261 200.809393 
L 357.46594 201.066616 
L 357.85662 200.873699 
L 358.247299 203.238173 
L 358.637978 202.644581 
L 359.028658 203.886178 
L 359.419337 200.116869 
L 359.810016 197.999724 
L 360.200696 197.574317 
L 360.982054 192.271562 
L 361.372734 191.480106 
L 361.763413 186.79073 
L 362.154093 183.728784 
L 362.544772 179.069088 
L 362.935451 176.798598 
L 363.326131 175.987356 
L 363.71681 167.998598 
L 364.498169 156.53238 
L 364.888848 149.88415 
L 365.279527 146.238506 
L 365.670207 144.729793 
L 366.060886 144.541822 
L 366.451565 140.569703 
L 366.842245 134.332041 
L 367.623604 126.887408 
L 368.014283 125.383642 
L 368.404962 125.126419 
L 369.186321 126.486734 
L 369.577 125.31439 
L 369.96768 126.447161 
L 370.358359 130.730916 
L 370.749038 131.749916 
L 371.139718 132.392974 
L 371.530397 130.038392 
L 371.921076 132.838168 
L 372.702435 141.791513 
L 373.093115 138.249748 
L 373.483794 138.437718 
L 374.265153 139.318213 
L 374.655832 140.767567 
L 375.046511 139.986004 
L 375.437191 141.237494 
L 376.218549 150.655819 
L 376.999908 155.320463 
L 377.390587 164.432099 
L 377.781267 169.56667 
L 378.171946 168.196462 
L 378.562626 165.876506 
L 378.953305 161.840081 
L 379.343984 159.079879 
L 379.734664 161.122824 
L 380.125343 153.000508 
L 380.516022 151.110907 
L 382.07874 180.09798 
L 382.469419 180.058407 
L 383.250778 198.890112 
L 383.641457 201.77398 
L 384.032137 206.117094 
L 384.422816 207.89787 
L 384.813495 208.372744 
L 385.204175 210.099107 
L 385.594854 210.12384 
L 385.985533 210.346437 
L 386.376213 211.513834 
L 386.766892 214.194891 
L 387.157571 214.674711 
L 387.548251 215.500794 
L 388.329609 218.275836 
L 388.720289 221.530698 
L 389.110968 223.400513 
L 389.501648 223.875387 
L 389.892327 227.036264 
L 390.283006 228.752734 
L 391.064365 230.152622 
L 391.455044 231.705854 
L 392.236403 238.180953 
L 392.627082 238.88337 
L 393.017762 238.299671 
L 393.408441 238.586574 
L 393.79912 238.136433 
L 394.580479 235.90057 
L 394.971159 232.843572 
L 395.361838 231.122155 
L 395.752517 230.543403 
L 396.143197 230.459311 
L 396.533876 232.517096 
L 396.924555 232.616028 
L 397.315235 227.600176 
L 397.705914 226.610856 
L 398.096593 231.409058 
L 398.487273 234.738119 
L 398.487273 234.738119 
" clip-path="url(#pb92b6fb947)" style="fill: none; stroke: #1f77b4; stroke-width: 1.5; stroke-linecap: square"/>
   </g>
   <g id="patch_3">
    <path d="M 57.6 276.48 
L 57.6 41.472 
" style="fill: none; stroke: #000000; stroke-width: 0.8; stroke-linejoin: miter; stroke-linecap: square"/>
   </g>
   <g id="patch_4">
    <path d="M 414.72 276.48 
L 414.72 41.472 
" style="fill: none; stroke: #000000; stroke-width: 0.8; stroke-linejoin: miter; stroke-linecap: square"/>
   </g>
   <g id="patch_5">
    <path d="M 57.6 276.48 
L 414.72 276.48 
" style="fill: none; stroke: #000000; stroke-width: 0.8; stroke-linejoin: miter; stroke-linecap: square"/>
   </g>
   <g id="patch_6">
    <path d="M 57.6 41.472 
L 414.72 41.472 
" style="fill: none; stroke: #000000; stroke-width: 0.8; stroke-linejoin: miter; stroke-linecap: square"/>
   </g>
  </g>
  <g id="text_17">
   <!-- Inzidenzverlauf SK Hamburg -->
   <g transform="translate(102.626719 20.589187)scale(0.18 -0.18)">
    <defs>
     <path id="DejaVuSans-76" d="M 191 3500 
L 800 3500 
L 1894 563 
L 2988 3500 
L 3597 3500 
L 2284 0 
L 1503 0 
L 191 3500 
z
" transform="scale(0.015625)"/>
     <path id="DejaVuSans-6c" d="M 603 4863 
L 1178 4863 
L 1178 0 
L 603 0 
L 603 4863 
z
" transform="scale(0.015625)"/>
     <path id="DejaVuSans-75" d="M 544 1381 
L 544 3500 
L 1119 3500 
L 1119 1403 
Q 1119 906 1312 657 
Q 1506 409 1894 409 
Q 2359 409 2629 706 
Q 2900 1003 2900 1516 
L 2900 3500 
L 3475 3500 
L 3475 0 
L 2900 0 
L 2900 538 
Q 2691 219 2414 64 
Q 2138 -91 1772 -91 
Q 1169 -91 856 284 
Q 544 659 544 1381 
z
M 1991 3584 
L 1991 3584 
z
" transform="scale(0.015625)"/>
     <path id="DejaVuSans-66" d="M 2375 4863 
L 2375 4384 
L 1825 4384 
Q 1516 4384 1395 4259 
Q 1275 4134 1275 3809 
L 1275 3500 
L 2222 3500 
L 2222 3053 
L 1275 3053 
L 1275 0 
L 697 0 
L 697 3053 
L 147 3053 
L 147 3500 
L 697 3500 
L 697 3744 
Q 697 4328 969 4595 
Q 1241 4863 1831 4863 
L 2375 4863 
z
" transform="scale(0.015625)"/>
     <path id="DejaVuSans-53" d="M 3425 4513 
L 3425 3897 
Q 3066 4069 2747 4153 
Q 2428 4238 2131 4238 
Q 1616 4238 1336 4038 
Q 1056 3838 1056 3469 
Q 1056 3159 1242 3001 
Q 1428 2844 1947 2747 
L 2328 2669 
Q 3034 2534 3370 2195 
Q 3706 1856 3706 1288 
Q 3706 609 3251 259 
Q 2797 -91 1919 -91 
Q 1588 -91 1214 -16 
Q 841 59 441 206 
L 441 856 
Q 825 641 1194 531 
Q 1563 422 1919 422 
Q 2459 422 2753 634 
Q 3047 847 3047 1241 
Q 3047 1584 2836 1778 
Q 2625 1972 2144 2069 
L 1759 2144 
Q 1053 2284 737 2584 
Q 422 2884 422 3419 
Q 422 4038 858 4394 
Q 1294 4750 2059 4750 
Q 2388 4750 2728 4690 
Q 3069 4631 3425 4513 
z
" transform="scale(0.015625)"/>
     <path id="DejaVuSans-4b" d="M 628 4666 
L 1259 4666 
L 1259 2694 
L 3353 4666 
L 4166 4666 
L 1850 2491 
L 4331 0 
L 3500 0 
L 1259 2247 
L 1259 0 
L 628 0 
L 628 4666 
z
" transform="scale(0.015625)"/>
     <path id="DejaVuSans-48" d="M 628 4666 
L 1259 4666 
L 1259 2753 
L 3553 2753 
L 3553 4666 
L 4184 4666 
L 4184 0 
L 3553 0 
L 3553 2222 
L 1259 2222 
L 1259 0 
L 628 0 
L 628 4666 
z
" transform="scale(0.015625)"/>
     <path id="DejaVuSans-6d" d="M 3328 2828 
Q 3544 3216 3844 3400 
Q 4144 3584 4550 3584 
Q 5097 3584 5394 3201 
Q 5691 2819 5691 2113 
L 5691 0 
L 5113 0 
L 5113 2094 
Q 5113 2597 4934 2840 
Q 4756 3084 4391 3084 
Q 3944 3084 3684 2787 
Q 3425 2491 3425 1978 
L 3425 0 
L 2847 0 
L 2847 2094 
Q 2847 2600 2669 2842 
Q 2491 3084 2119 3084 
Q 1678 3084 1418 2786 
Q 1159 2488 1159 1978 
L 1159 0 
L 581 0 
L 581 3500 
L 1159 3500 
L 1159 2956 
Q 1356 3278 1631 3431 
Q 1906 3584 2284 3584 
Q 2666 3584 2933 3390 
Q 3200 3197 3328 2828 
z
" transform="scale(0.015625)"/>
     <path id="DejaVuSans-62" d="M 3116 1747 
Q 3116 2381 2855 2742 
Q 2594 3103 2138 3103 
Q 1681 3103 1420 2742 
Q 1159 2381 1159 1747 
Q 1159 1113 1420 752 
Q 1681 391 2138 391 
Q 2594 391 2855 752 
Q 3116 1113 3116 1747 
z
M 1159 2969 
Q 1341 3281 1617 3432 
Q 1894 3584 2278 3584 
Q 2916 3584 3314 3078 
Q 3713 2572 3713 1747 
Q 3713 922 3314 415 
Q 2916 -91 2278 -91 
Q 1894 -91 1617 61 
Q 1341 213 1159 525 
L 1159 0 
L 581 0 
L 581 4863 
L 1159 4863 
L 1159 2969 
z
" transform="scale(0.015625)"/>
    </defs>
    <use xlink:href="#DejaVuSans-49"/>
    <use xlink:href="#DejaVuSans-6e" x="29.492188"/>
    <use xlink:href="#DejaVuSans-7a" x="92.871094"/>
    <use xlink:href="#DejaVuSans-69" x="145.361328"/>
    <use xlink:href="#DejaVuSans-64" x="173.144531"/>
    <use xlink:href="#DejaVuSans-65" x="236.621094"/>
    <use xlink:href="#DejaVuSans-6e" x="298.144531"/>
    <use xlink:href="#DejaVuSans-7a" x="361.523438"/>
    <use xlink:href="#DejaVuSans-76" x="414.013672"/>
    <use xlink:href="#DejaVuSans-65" x="473.193359"/>
    <use xlink:href="#DejaVuSans-72" x="534.716797"/>
    <use xlink:href="#DejaVuSans-6c" x="575.830078"/>
    <use xlink:href="#DejaVuSans-61" x="603.613281"/>
    <use xlink:href="#DejaVuSans-75" x="664.892578"/>
    <use xlink:href="#DejaVuSans-66" x="728.271484"/>
    <use xlink:href="#DejaVuSans-20" x="763.476562"/>
    <use xlink:href="#DejaVuSans-53" x="795.263672"/>
    <use xlink:href="#DejaVuSans-4b" x="858.740234"/>
    <use xlink:href="#DejaVuSans-20" x="924.316406"/>
    <use xlink:href="#DejaVuSans-48" x="956.103516"/>
    <use xlink:href="#DejaVuSans-61" x="1031.298828"/>
    <use xlink:href="#DejaVuSans-6d" x="1092.578125"/>
    <use xlink:href="#DejaVuSans-62" x="1189.990234"/>
    <use xlink:href="#DejaVuSans-75" x="1253.466797"/>
    <use xlink:href="#DejaVuSans-72" x="1316.845703"/>
    <use xlink:href="#DejaVuSans-67" x="1356.208984"/>
   </g>
  </g>
 </g>
 <defs>
  <clipPath id="pb92b6fb947">
   <rect x="57.6" y="41.472" width="357.12" height="235.008"/>
  </clipPath>
 </defs>
</svg>
