<?xml version="1.0" encoding="utf-8" standalone="no"?>
<!DOCTYPE svg PUBLIC "-//W3C//DTD SVG 1.1//EN"
  "http://www.w3.org/Graphics/SVG/1.1/DTD/svg11.dtd">
<svg xmlns:xlink="http://www.w3.org/1999/xlink" width="460.8pt" height="345.6pt" viewBox="0 0 460.8 345.6" xmlns="http://www.w3.org/2000/svg" version="1.1">
 <metadata>
  <rdf:RDF xmlns:dc="http://purl.org/dc/elements/1.1/" xmlns:cc="http://creativecommons.org/ns#" xmlns:rdf="http://www.w3.org/1999/02/22-rdf-syntax-ns#">
   <cc:Work>
    <dc:type rdf:resource="http://purl.org/dc/dcmitype/StillImage"/>
    <dc:date>2022-11-15T09:21:51.892212</dc:date>
    <dc:format>image/svg+xml</dc:format>
    <dc:creator>
     <cc:Agent>
      <dc:title>Matplotlib v3.6.2, https://matplotlib.org/</dc:title>
     </cc:Agent>
    </dc:creator>
   </cc:Work>
  </rdf:RDF>
 </metadata>
 <defs>
  <style type="text/css">*{stroke-linejoin: round; stroke-linecap: butt}</style>
 </defs>
 <g id="figure_1">
  <g id="patch_1">
   <path d="M 0 345.6 
L 460.8 345.6 
L 460.8 0 
L 0 0 
z
" style="fill: #ffffff"/>
  </g>
  <g id="axes_1">
   <g id="patch_2">
    <path d="M 57.6 276.48 
L 414.72 276.48 
L 414.72 41.472 
L 57.6 41.472 
z
" style="fill: #ffffff"/>
   </g>
   <g id="matplotlib.axis_1">
    <g id="xtick_1">
     <g id="line2d_1">
      <path d="M 59.126786 276.48 
L 59.126786 41.472 
" clip-path="url(#p8470030268)" style="fill: none; stroke-dasharray: 2.96,1.28; stroke-dashoffset: 0; stroke: #808080; stroke-width: 0.8"/>
     </g>
     <g id="line2d_2">
      <defs>
       <path id="m2e3f3c6b57" d="M 0 0 
L 0 3.5 
" style="stroke: #000000; stroke-width: 0.8"/>
      </defs>
      <g>
       <use xlink:href="#m2e3f3c6b57" x="59.126786" y="276.48" style="stroke: #000000; stroke-width: 0.8"/>
      </g>
     </g>
     <g id="text_1">
      <!-- 18.01.2020 -->
      <g transform="translate(8.501576 318.688565) rotate(-30) scale(0.1 -0.1)">
       <defs>
        <path id="DejaVuSans-31" d="M 794 531 
L 1825 531 
L 1825 4091 
L 703 3866 
L 703 4441 
L 1819 4666 
L 2450 4666 
L 2450 531 
L 3481 531 
L 3481 0 
L 794 0 
L 794 531 
z
" transform="scale(0.015625)"/>
        <path id="DejaVuSans-38" d="M 2034 2216 
Q 1584 2216 1326 1975 
Q 1069 1734 1069 1313 
Q 1069 891 1326 650 
Q 1584 409 2034 409 
Q 2484 409 2743 651 
Q 3003 894 3003 1313 
Q 3003 1734 2745 1975 
Q 2488 2216 2034 2216 
z
M 1403 2484 
Q 997 2584 770 2862 
Q 544 3141 544 3541 
Q 544 4100 942 4425 
Q 1341 4750 2034 4750 
Q 2731 4750 3128 4425 
Q 3525 4100 3525 3541 
Q 3525 3141 3298 2862 
Q 3072 2584 2669 2484 
Q 3125 2378 3379 2068 
Q 3634 1759 3634 1313 
Q 3634 634 3220 271 
Q 2806 -91 2034 -91 
Q 1263 -91 848 271 
Q 434 634 434 1313 
Q 434 1759 690 2068 
Q 947 2378 1403 2484 
z
M 1172 3481 
Q 1172 3119 1398 2916 
Q 1625 2713 2034 2713 
Q 2441 2713 2670 2916 
Q 2900 3119 2900 3481 
Q 2900 3844 2670 4047 
Q 2441 4250 2034 4250 
Q 1625 4250 1398 4047 
Q 1172 3844 1172 3481 
z
" transform="scale(0.015625)"/>
        <path id="DejaVuSans-2e" d="M 684 794 
L 1344 794 
L 1344 0 
L 684 0 
L 684 794 
z
" transform="scale(0.015625)"/>
        <path id="DejaVuSans-30" d="M 2034 4250 
Q 1547 4250 1301 3770 
Q 1056 3291 1056 2328 
Q 1056 1369 1301 889 
Q 1547 409 2034 409 
Q 2525 409 2770 889 
Q 3016 1369 3016 2328 
Q 3016 3291 2770 3770 
Q 2525 4250 2034 4250 
z
M 2034 4750 
Q 2819 4750 3233 4129 
Q 3647 3509 3647 2328 
Q 3647 1150 3233 529 
Q 2819 -91 2034 -91 
Q 1250 -91 836 529 
Q 422 1150 422 2328 
Q 422 3509 836 4129 
Q 1250 4750 2034 4750 
z
" transform="scale(0.015625)"/>
        <path id="DejaVuSans-32" d="M 1228 531 
L 3431 531 
L 3431 0 
L 469 0 
L 469 531 
Q 828 903 1448 1529 
Q 2069 2156 2228 2338 
Q 2531 2678 2651 2914 
Q 2772 3150 2772 3378 
Q 2772 3750 2511 3984 
Q 2250 4219 1831 4219 
Q 1534 4219 1204 4116 
Q 875 4013 500 3803 
L 500 4441 
Q 881 4594 1212 4672 
Q 1544 4750 1819 4750 
Q 2544 4750 2975 4387 
Q 3406 4025 3406 3419 
Q 3406 3131 3298 2873 
Q 3191 2616 2906 2266 
Q 2828 2175 2409 1742 
Q 1991 1309 1228 531 
z
" transform="scale(0.015625)"/>
       </defs>
       <use xlink:href="#DejaVuSans-31"/>
       <use xlink:href="#DejaVuSans-38" x="63.623047"/>
       <use xlink:href="#DejaVuSans-2e" x="127.246094"/>
       <use xlink:href="#DejaVuSans-30" x="159.033203"/>
       <use xlink:href="#DejaVuSans-31" x="222.65625"/>
       <use xlink:href="#DejaVuSans-2e" x="286.279297"/>
       <use xlink:href="#DejaVuSans-32" x="318.066406"/>
       <use xlink:href="#DejaVuSans-30" x="381.689453"/>
       <use xlink:href="#DejaVuSans-32" x="445.3125"/>
       <use xlink:href="#DejaVuSans-30" x="508.935547"/>
      </g>
     </g>
    </g>
    <g id="xtick_2">
     <g id="line2d_3">
      <path d="M 94.980227 276.48 
L 94.980227 41.472 
" clip-path="url(#p8470030268)" style="fill: none; stroke-dasharray: 2.96,1.28; stroke-dashoffset: 0; stroke: #808080; stroke-width: 0.8"/>
     </g>
     <g id="line2d_4">
      <g>
       <use xlink:href="#m2e3f3c6b57" x="94.980227" y="276.48" style="stroke: #000000; stroke-width: 0.8"/>
      </g>
     </g>
     <g id="text_2">
      <!-- 06.05.2020 -->
      <g transform="translate(44.355016 318.688565) rotate(-30) scale(0.1 -0.1)">
       <defs>
        <path id="DejaVuSans-36" d="M 2113 2584 
Q 1688 2584 1439 2293 
Q 1191 2003 1191 1497 
Q 1191 994 1439 701 
Q 1688 409 2113 409 
Q 2538 409 2786 701 
Q 3034 994 3034 1497 
Q 3034 2003 2786 2293 
Q 2538 2584 2113 2584 
z
M 3366 4563 
L 3366 3988 
Q 3128 4100 2886 4159 
Q 2644 4219 2406 4219 
Q 1781 4219 1451 3797 
Q 1122 3375 1075 2522 
Q 1259 2794 1537 2939 
Q 1816 3084 2150 3084 
Q 2853 3084 3261 2657 
Q 3669 2231 3669 1497 
Q 3669 778 3244 343 
Q 2819 -91 2113 -91 
Q 1303 -91 875 529 
Q 447 1150 447 2328 
Q 447 3434 972 4092 
Q 1497 4750 2381 4750 
Q 2619 4750 2861 4703 
Q 3103 4656 3366 4563 
z
" transform="scale(0.015625)"/>
        <path id="DejaVuSans-35" d="M 691 4666 
L 3169 4666 
L 3169 4134 
L 1269 4134 
L 1269 2991 
Q 1406 3038 1543 3061 
Q 1681 3084 1819 3084 
Q 2600 3084 3056 2656 
Q 3513 2228 3513 1497 
Q 3513 744 3044 326 
Q 2575 -91 1722 -91 
Q 1428 -91 1123 -41 
Q 819 9 494 109 
L 494 744 
Q 775 591 1075 516 
Q 1375 441 1709 441 
Q 2250 441 2565 725 
Q 2881 1009 2881 1497 
Q 2881 1984 2565 2268 
Q 2250 2553 1709 2553 
Q 1456 2553 1204 2497 
Q 953 2441 691 2322 
L 691 4666 
z
" transform="scale(0.015625)"/>
       </defs>
       <use xlink:href="#DejaVuSans-30"/>
       <use xlink:href="#DejaVuSans-36" x="63.623047"/>
       <use xlink:href="#DejaVuSans-2e" x="127.246094"/>
       <use xlink:href="#DejaVuSans-30" x="159.033203"/>
       <use xlink:href="#DejaVuSans-35" x="222.65625"/>
       <use xlink:href="#DejaVuSans-2e" x="286.279297"/>
       <use xlink:href="#DejaVuSans-32" x="318.066406"/>
       <use xlink:href="#DejaVuSans-30" x="381.689453"/>
       <use xlink:href="#DejaVuSans-32" x="445.3125"/>
       <use xlink:href="#DejaVuSans-30" x="508.935547"/>
      </g>
     </g>
    </g>
    <g id="xtick_3">
     <g id="line2d_5">
      <path d="M 130.833667 276.48 
L 130.833667 41.472 
" clip-path="url(#p8470030268)" style="fill: none; stroke-dasharray: 2.96,1.28; stroke-dashoffset: 0; stroke: #808080; stroke-width: 0.8"/>
     </g>
     <g id="line2d_6">
      <g>
       <use xlink:href="#m2e3f3c6b57" x="130.833667" y="276.48" style="stroke: #000000; stroke-width: 0.8"/>
      </g>
     </g>
     <g id="text_3">
      <!-- 23.08.2020 -->
      <g transform="translate(80.208456 318.688565) rotate(-30) scale(0.1 -0.1)">
       <defs>
        <path id="DejaVuSans-33" d="M 2597 2516 
Q 3050 2419 3304 2112 
Q 3559 1806 3559 1356 
Q 3559 666 3084 287 
Q 2609 -91 1734 -91 
Q 1441 -91 1130 -33 
Q 819 25 488 141 
L 488 750 
Q 750 597 1062 519 
Q 1375 441 1716 441 
Q 2309 441 2620 675 
Q 2931 909 2931 1356 
Q 2931 1769 2642 2001 
Q 2353 2234 1838 2234 
L 1294 2234 
L 1294 2753 
L 1863 2753 
Q 2328 2753 2575 2939 
Q 2822 3125 2822 3475 
Q 2822 3834 2567 4026 
Q 2313 4219 1838 4219 
Q 1578 4219 1281 4162 
Q 984 4106 628 3988 
L 628 4550 
Q 988 4650 1302 4700 
Q 1616 4750 1894 4750 
Q 2613 4750 3031 4423 
Q 3450 4097 3450 3541 
Q 3450 3153 3228 2886 
Q 3006 2619 2597 2516 
z
" transform="scale(0.015625)"/>
       </defs>
       <use xlink:href="#DejaVuSans-32"/>
       <use xlink:href="#DejaVuSans-33" x="63.623047"/>
       <use xlink:href="#DejaVuSans-2e" x="127.246094"/>
       <use xlink:href="#DejaVuSans-30" x="159.033203"/>
       <use xlink:href="#DejaVuSans-38" x="222.65625"/>
       <use xlink:href="#DejaVuSans-2e" x="286.279297"/>
       <use xlink:href="#DejaVuSans-32" x="318.066406"/>
       <use xlink:href="#DejaVuSans-30" x="381.689453"/>
       <use xlink:href="#DejaVuSans-32" x="445.3125"/>
       <use xlink:href="#DejaVuSans-30" x="508.935547"/>
      </g>
     </g>
    </g>
    <g id="xtick_4">
     <g id="line2d_7">
      <path d="M 166.687107 276.48 
L 166.687107 41.472 
" clip-path="url(#p8470030268)" style="fill: none; stroke-dasharray: 2.96,1.28; stroke-dashoffset: 0; stroke: #808080; stroke-width: 0.8"/>
     </g>
     <g id="line2d_8">
      <g>
       <use xlink:href="#m2e3f3c6b57" x="166.687107" y="276.48" style="stroke: #000000; stroke-width: 0.8"/>
      </g>
     </g>
     <g id="text_4">
      <!-- 10.12.2020 -->
      <g transform="translate(116.061896 318.688565) rotate(-30) scale(0.1 -0.1)">
       <use xlink:href="#DejaVuSans-31"/>
       <use xlink:href="#DejaVuSans-30" x="63.623047"/>
       <use xlink:href="#DejaVuSans-2e" x="127.246094"/>
       <use xlink:href="#DejaVuSans-31" x="159.033203"/>
       <use xlink:href="#DejaVuSans-32" x="222.65625"/>
       <use xlink:href="#DejaVuSans-2e" x="286.279297"/>
       <use xlink:href="#DejaVuSans-32" x="318.066406"/>
       <use xlink:href="#DejaVuSans-30" x="381.689453"/>
       <use xlink:href="#DejaVuSans-32" x="445.3125"/>
       <use xlink:href="#DejaVuSans-30" x="508.935547"/>
      </g>
     </g>
    </g>
    <g id="xtick_5">
     <g id="line2d_9">
      <path d="M 202.540547 276.48 
L 202.540547 41.472 
" clip-path="url(#p8470030268)" style="fill: none; stroke-dasharray: 2.96,1.28; stroke-dashoffset: 0; stroke: #808080; stroke-width: 0.8"/>
     </g>
     <g id="line2d_10">
      <g>
       <use xlink:href="#m2e3f3c6b57" x="202.540547" y="276.48" style="stroke: #000000; stroke-width: 0.8"/>
      </g>
     </g>
     <g id="text_5">
      <!-- 29.03.2021 -->
      <g transform="translate(151.915336 318.688565) rotate(-30) scale(0.1 -0.1)">
       <defs>
        <path id="DejaVuSans-39" d="M 703 97 
L 703 672 
Q 941 559 1184 500 
Q 1428 441 1663 441 
Q 2288 441 2617 861 
Q 2947 1281 2994 2138 
Q 2813 1869 2534 1725 
Q 2256 1581 1919 1581 
Q 1219 1581 811 2004 
Q 403 2428 403 3163 
Q 403 3881 828 4315 
Q 1253 4750 1959 4750 
Q 2769 4750 3195 4129 
Q 3622 3509 3622 2328 
Q 3622 1225 3098 567 
Q 2575 -91 1691 -91 
Q 1453 -91 1209 -44 
Q 966 3 703 97 
z
M 1959 2075 
Q 2384 2075 2632 2365 
Q 2881 2656 2881 3163 
Q 2881 3666 2632 3958 
Q 2384 4250 1959 4250 
Q 1534 4250 1286 3958 
Q 1038 3666 1038 3163 
Q 1038 2656 1286 2365 
Q 1534 2075 1959 2075 
z
" transform="scale(0.015625)"/>
       </defs>
       <use xlink:href="#DejaVuSans-32"/>
       <use xlink:href="#DejaVuSans-39" x="63.623047"/>
       <use xlink:href="#DejaVuSans-2e" x="127.246094"/>
       <use xlink:href="#DejaVuSans-30" x="159.033203"/>
       <use xlink:href="#DejaVuSans-33" x="222.65625"/>
       <use xlink:href="#DejaVuSans-2e" x="286.279297"/>
       <use xlink:href="#DejaVuSans-32" x="318.066406"/>
       <use xlink:href="#DejaVuSans-30" x="381.689453"/>
       <use xlink:href="#DejaVuSans-32" x="445.3125"/>
       <use xlink:href="#DejaVuSans-31" x="508.935547"/>
      </g>
     </g>
    </g>
    <g id="xtick_6">
     <g id="line2d_11">
      <path d="M 238.393987 276.48 
L 238.393987 41.472 
" clip-path="url(#p8470030268)" style="fill: none; stroke-dasharray: 2.96,1.28; stroke-dashoffset: 0; stroke: #808080; stroke-width: 0.8"/>
     </g>
     <g id="line2d_12">
      <g>
       <use xlink:href="#m2e3f3c6b57" x="238.393987" y="276.48" style="stroke: #000000; stroke-width: 0.8"/>
      </g>
     </g>
     <g id="text_6">
      <!-- 16.07.2021 -->
      <g transform="translate(187.768777 318.688565) rotate(-30) scale(0.1 -0.1)">
       <defs>
        <path id="DejaVuSans-37" d="M 525 4666 
L 3525 4666 
L 3525 4397 
L 1831 0 
L 1172 0 
L 2766 4134 
L 525 4134 
L 525 4666 
z
" transform="scale(0.015625)"/>
       </defs>
       <use xlink:href="#DejaVuSans-31"/>
       <use xlink:href="#DejaVuSans-36" x="63.623047"/>
       <use xlink:href="#DejaVuSans-2e" x="127.246094"/>
       <use xlink:href="#DejaVuSans-30" x="159.033203"/>
       <use xlink:href="#DejaVuSans-37" x="222.65625"/>
       <use xlink:href="#DejaVuSans-2e" x="286.279297"/>
       <use xlink:href="#DejaVuSans-32" x="318.066406"/>
       <use xlink:href="#DejaVuSans-30" x="381.689453"/>
       <use xlink:href="#DejaVuSans-32" x="445.3125"/>
       <use xlink:href="#DejaVuSans-31" x="508.935547"/>
      </g>
     </g>
    </g>
    <g id="xtick_7">
     <g id="line2d_13">
      <path d="M 274.247427 276.48 
L 274.247427 41.472 
" clip-path="url(#p8470030268)" style="fill: none; stroke-dasharray: 2.96,1.28; stroke-dashoffset: 0; stroke: #808080; stroke-width: 0.8"/>
     </g>
     <g id="line2d_14">
      <g>
       <use xlink:href="#m2e3f3c6b57" x="274.247427" y="276.48" style="stroke: #000000; stroke-width: 0.8"/>
      </g>
     </g>
     <g id="text_7">
      <!-- 02.11.2021 -->
      <g transform="translate(223.622217 318.688565) rotate(-30) scale(0.1 -0.1)">
       <use xlink:href="#DejaVuSans-30"/>
       <use xlink:href="#DejaVuSans-32" x="63.623047"/>
       <use xlink:href="#DejaVuSans-2e" x="127.246094"/>
       <use xlink:href="#DejaVuSans-31" x="159.033203"/>
       <use xlink:href="#DejaVuSans-31" x="222.65625"/>
       <use xlink:href="#DejaVuSans-2e" x="286.279297"/>
       <use xlink:href="#DejaVuSans-32" x="318.066406"/>
       <use xlink:href="#DejaVuSans-30" x="381.689453"/>
       <use xlink:href="#DejaVuSans-32" x="445.3125"/>
       <use xlink:href="#DejaVuSans-31" x="508.935547"/>
      </g>
     </g>
    </g>
    <g id="xtick_8">
     <g id="line2d_15">
      <path d="M 310.100868 276.48 
L 310.100868 41.472 
" clip-path="url(#p8470030268)" style="fill: none; stroke-dasharray: 2.96,1.28; stroke-dashoffset: 0; stroke: #808080; stroke-width: 0.8"/>
     </g>
     <g id="line2d_16">
      <g>
       <use xlink:href="#m2e3f3c6b57" x="310.100868" y="276.48" style="stroke: #000000; stroke-width: 0.8"/>
      </g>
     </g>
     <g id="text_8">
      <!-- 19.02.2022 -->
      <g transform="translate(259.475657 318.688565) rotate(-30) scale(0.1 -0.1)">
       <use xlink:href="#DejaVuSans-31"/>
       <use xlink:href="#DejaVuSans-39" x="63.623047"/>
       <use xlink:href="#DejaVuSans-2e" x="127.246094"/>
       <use xlink:href="#DejaVuSans-30" x="159.033203"/>
       <use xlink:href="#DejaVuSans-32" x="222.65625"/>
       <use xlink:href="#DejaVuSans-2e" x="286.279297"/>
       <use xlink:href="#DejaVuSans-32" x="318.066406"/>
       <use xlink:href="#DejaVuSans-30" x="381.689453"/>
       <use xlink:href="#DejaVuSans-32" x="445.3125"/>
       <use xlink:href="#DejaVuSans-32" x="508.935547"/>
      </g>
     </g>
    </g>
    <g id="xtick_9">
     <g id="line2d_17">
      <path d="M 345.954308 276.48 
L 345.954308 41.472 
" clip-path="url(#p8470030268)" style="fill: none; stroke-dasharray: 2.96,1.28; stroke-dashoffset: 0; stroke: #808080; stroke-width: 0.8"/>
     </g>
     <g id="line2d_18">
      <g>
       <use xlink:href="#m2e3f3c6b57" x="345.954308" y="276.48" style="stroke: #000000; stroke-width: 0.8"/>
      </g>
     </g>
     <g id="text_9">
      <!-- 08.06.2022 -->
      <g transform="translate(295.329097 318.688565) rotate(-30) scale(0.1 -0.1)">
       <use xlink:href="#DejaVuSans-30"/>
       <use xlink:href="#DejaVuSans-38" x="63.623047"/>
       <use xlink:href="#DejaVuSans-2e" x="127.246094"/>
       <use xlink:href="#DejaVuSans-30" x="159.033203"/>
       <use xlink:href="#DejaVuSans-36" x="222.65625"/>
       <use xlink:href="#DejaVuSans-2e" x="286.279297"/>
       <use xlink:href="#DejaVuSans-32" x="318.066406"/>
       <use xlink:href="#DejaVuSans-30" x="381.689453"/>
       <use xlink:href="#DejaVuSans-32" x="445.3125"/>
       <use xlink:href="#DejaVuSans-32" x="508.935547"/>
      </g>
     </g>
    </g>
    <g id="xtick_10">
     <g id="line2d_19">
      <path d="M 381.807748 276.48 
L 381.807748 41.472 
" clip-path="url(#p8470030268)" style="fill: none; stroke-dasharray: 2.96,1.28; stroke-dashoffset: 0; stroke: #808080; stroke-width: 0.8"/>
     </g>
     <g id="line2d_20">
      <g>
       <use xlink:href="#m2e3f3c6b57" x="381.807748" y="276.48" style="stroke: #000000; stroke-width: 0.8"/>
      </g>
     </g>
     <g id="text_10">
      <!-- 25.09.2022 -->
      <g transform="translate(331.182537 318.688565) rotate(-30) scale(0.1 -0.1)">
       <use xlink:href="#DejaVuSans-32"/>
       <use xlink:href="#DejaVuSans-35" x="63.623047"/>
       <use xlink:href="#DejaVuSans-2e" x="127.246094"/>
       <use xlink:href="#DejaVuSans-30" x="159.033203"/>
       <use xlink:href="#DejaVuSans-39" x="222.65625"/>
       <use xlink:href="#DejaVuSans-2e" x="286.279297"/>
       <use xlink:href="#DejaVuSans-32" x="318.066406"/>
       <use xlink:href="#DejaVuSans-30" x="381.689453"/>
       <use xlink:href="#DejaVuSans-32" x="445.3125"/>
       <use xlink:href="#DejaVuSans-32" x="508.935547"/>
      </g>
     </g>
    </g>
   </g>
   <g id="matplotlib.axis_2">
    <g id="ytick_1">
     <g id="line2d_21">
      <path d="M 57.6 265.807717 
L 414.72 265.807717 
" clip-path="url(#p8470030268)" style="fill: none; stroke-dasharray: 2.96,1.28; stroke-dashoffset: 0; stroke: #808080; stroke-width: 0.8"/>
     </g>
     <g id="line2d_22">
      <defs>
       <path id="m6e49c08f4f" d="M 0 0 
L -3.5 0 
" style="stroke: #000000; stroke-width: 0.8"/>
      </defs>
      <g>
       <use xlink:href="#m6e49c08f4f" x="57.6" y="265.807717" style="stroke: #000000; stroke-width: 0.8"/>
      </g>
     </g>
     <g id="text_11">
      <!-- 0 -->
      <g transform="translate(44.2375 269.606935) scale(0.1 -0.1)">
       <use xlink:href="#DejaVuSans-30"/>
      </g>
     </g>
    </g>
    <g id="ytick_2">
     <g id="line2d_23">
      <path d="M 57.6 220.095269 
L 414.72 220.095269 
" clip-path="url(#p8470030268)" style="fill: none; stroke-dasharray: 2.96,1.28; stroke-dashoffset: 0; stroke: #808080; stroke-width: 0.8"/>
     </g>
     <g id="line2d_24">
      <g>
       <use xlink:href="#m6e49c08f4f" x="57.6" y="220.095269" style="stroke: #000000; stroke-width: 0.8"/>
      </g>
     </g>
     <g id="text_12">
      <!-- 500 -->
      <g transform="translate(31.5125 223.894487) scale(0.1 -0.1)">
       <use xlink:href="#DejaVuSans-35"/>
       <use xlink:href="#DejaVuSans-30" x="63.623047"/>
       <use xlink:href="#DejaVuSans-30" x="127.246094"/>
      </g>
     </g>
    </g>
    <g id="ytick_3">
     <g id="line2d_25">
      <path d="M 57.6 174.382821 
L 414.72 174.382821 
" clip-path="url(#p8470030268)" style="fill: none; stroke-dasharray: 2.96,1.28; stroke-dashoffset: 0; stroke: #808080; stroke-width: 0.8"/>
     </g>
     <g id="line2d_26">
      <g>
       <use xlink:href="#m6e49c08f4f" x="57.6" y="174.382821" style="stroke: #000000; stroke-width: 0.8"/>
      </g>
     </g>
     <g id="text_13">
      <!-- 1000 -->
      <g transform="translate(25.15 178.182039) scale(0.1 -0.1)">
       <use xlink:href="#DejaVuSans-31"/>
       <use xlink:href="#DejaVuSans-30" x="63.623047"/>
       <use xlink:href="#DejaVuSans-30" x="127.246094"/>
       <use xlink:href="#DejaVuSans-30" x="190.869141"/>
      </g>
     </g>
    </g>
    <g id="ytick_4">
     <g id="line2d_27">
      <path d="M 57.6 128.670373 
L 414.72 128.670373 
" clip-path="url(#p8470030268)" style="fill: none; stroke-dasharray: 2.96,1.28; stroke-dashoffset: 0; stroke: #808080; stroke-width: 0.8"/>
     </g>
     <g id="line2d_28">
      <g>
       <use xlink:href="#m6e49c08f4f" x="57.6" y="128.670373" style="stroke: #000000; stroke-width: 0.8"/>
      </g>
     </g>
     <g id="text_14">
      <!-- 1500 -->
      <g transform="translate(25.15 132.469592) scale(0.1 -0.1)">
       <use xlink:href="#DejaVuSans-31"/>
       <use xlink:href="#DejaVuSans-35" x="63.623047"/>
       <use xlink:href="#DejaVuSans-30" x="127.246094"/>
       <use xlink:href="#DejaVuSans-30" x="190.869141"/>
      </g>
     </g>
    </g>
    <g id="ytick_5">
     <g id="line2d_29">
      <path d="M 57.6 82.957925 
L 414.72 82.957925 
" clip-path="url(#p8470030268)" style="fill: none; stroke-dasharray: 2.96,1.28; stroke-dashoffset: 0; stroke: #808080; stroke-width: 0.8"/>
     </g>
     <g id="line2d_30">
      <g>
       <use xlink:href="#m6e49c08f4f" x="57.6" y="82.957925" style="stroke: #000000; stroke-width: 0.8"/>
      </g>
     </g>
     <g id="text_15">
      <!-- 2000 -->
      <g transform="translate(25.15 86.757144) scale(0.1 -0.1)">
       <use xlink:href="#DejaVuSans-32"/>
       <use xlink:href="#DejaVuSans-30" x="63.623047"/>
       <use xlink:href="#DejaVuSans-30" x="127.246094"/>
       <use xlink:href="#DejaVuSans-30" x="190.869141"/>
      </g>
     </g>
    </g>
    <g id="text_16">
     <!-- Inzidenz pro 7 Tage pro 100.000 Einwohner -->
     <g transform="translate(19.070312 267.301) rotate(-90) scale(0.1 -0.1)">
      <defs>
       <path id="DejaVuSans-49" d="M 628 4666 
L 1259 4666 
L 1259 0 
L 628 0 
L 628 4666 
z
" transform="scale(0.015625)"/>
       <path id="DejaVuSans-6e" d="M 3513 2113 
L 3513 0 
L 2938 0 
L 2938 2094 
Q 2938 2591 2744 2837 
Q 2550 3084 2163 3084 
Q 1697 3084 1428 2787 
Q 1159 2491 1159 1978 
L 1159 0 
L 581 0 
L 581 3500 
L 1159 3500 
L 1159 2956 
Q 1366 3272 1645 3428 
Q 1925 3584 2291 3584 
Q 2894 3584 3203 3211 
Q 3513 2838 3513 2113 
z
" transform="scale(0.015625)"/>
       <path id="DejaVuSans-7a" d="M 353 3500 
L 3084 3500 
L 3084 2975 
L 922 459 
L 3084 459 
L 3084 0 
L 275 0 
L 275 525 
L 2438 3041 
L 353 3041 
L 353 3500 
z
" transform="scale(0.015625)"/>
       <path id="DejaVuSans-69" d="M 603 3500 
L 1178 3500 
L 1178 0 
L 603 0 
L 603 3500 
z
M 603 4863 
L 1178 4863 
L 1178 4134 
L 603 4134 
L 603 4863 
z
" transform="scale(0.015625)"/>
       <path id="DejaVuSans-64" d="M 2906 2969 
L 2906 4863 
L 3481 4863 
L 3481 0 
L 2906 0 
L 2906 525 
Q 2725 213 2448 61 
Q 2172 -91 1784 -91 
Q 1150 -91 751 415 
Q 353 922 353 1747 
Q 353 2572 751 3078 
Q 1150 3584 1784 3584 
Q 2172 3584 2448 3432 
Q 2725 3281 2906 2969 
z
M 947 1747 
Q 947 1113 1208 752 
Q 1469 391 1925 391 
Q 2381 391 2643 752 
Q 2906 1113 2906 1747 
Q 2906 2381 2643 2742 
Q 2381 3103 1925 3103 
Q 1469 3103 1208 2742 
Q 947 2381 947 1747 
z
" transform="scale(0.015625)"/>
       <path id="DejaVuSans-65" d="M 3597 1894 
L 3597 1613 
L 953 1613 
Q 991 1019 1311 708 
Q 1631 397 2203 397 
Q 2534 397 2845 478 
Q 3156 559 3463 722 
L 3463 178 
Q 3153 47 2828 -22 
Q 2503 -91 2169 -91 
Q 1331 -91 842 396 
Q 353 884 353 1716 
Q 353 2575 817 3079 
Q 1281 3584 2069 3584 
Q 2775 3584 3186 3129 
Q 3597 2675 3597 1894 
z
M 3022 2063 
Q 3016 2534 2758 2815 
Q 2500 3097 2075 3097 
Q 1594 3097 1305 2825 
Q 1016 2553 972 2059 
L 3022 2063 
z
" transform="scale(0.015625)"/>
       <path id="DejaVuSans-20" transform="scale(0.015625)"/>
       <path id="DejaVuSans-70" d="M 1159 525 
L 1159 -1331 
L 581 -1331 
L 581 3500 
L 1159 3500 
L 1159 2969 
Q 1341 3281 1617 3432 
Q 1894 3584 2278 3584 
Q 2916 3584 3314 3078 
Q 3713 2572 3713 1747 
Q 3713 922 3314 415 
Q 2916 -91 2278 -91 
Q 1894 -91 1617 61 
Q 1341 213 1159 525 
z
M 3116 1747 
Q 3116 2381 2855 2742 
Q 2594 3103 2138 3103 
Q 1681 3103 1420 2742 
Q 1159 2381 1159 1747 
Q 1159 1113 1420 752 
Q 1681 391 2138 391 
Q 2594 391 2855 752 
Q 3116 1113 3116 1747 
z
" transform="scale(0.015625)"/>
       <path id="DejaVuSans-72" d="M 2631 2963 
Q 2534 3019 2420 3045 
Q 2306 3072 2169 3072 
Q 1681 3072 1420 2755 
Q 1159 2438 1159 1844 
L 1159 0 
L 581 0 
L 581 3500 
L 1159 3500 
L 1159 2956 
Q 1341 3275 1631 3429 
Q 1922 3584 2338 3584 
Q 2397 3584 2469 3576 
Q 2541 3569 2628 3553 
L 2631 2963 
z
" transform="scale(0.015625)"/>
       <path id="DejaVuSans-6f" d="M 1959 3097 
Q 1497 3097 1228 2736 
Q 959 2375 959 1747 
Q 959 1119 1226 758 
Q 1494 397 1959 397 
Q 2419 397 2687 759 
Q 2956 1122 2956 1747 
Q 2956 2369 2687 2733 
Q 2419 3097 1959 3097 
z
M 1959 3584 
Q 2709 3584 3137 3096 
Q 3566 2609 3566 1747 
Q 3566 888 3137 398 
Q 2709 -91 1959 -91 
Q 1206 -91 779 398 
Q 353 888 353 1747 
Q 353 2609 779 3096 
Q 1206 3584 1959 3584 
z
" transform="scale(0.015625)"/>
       <path id="DejaVuSans-54" d="M -19 4666 
L 3928 4666 
L 3928 4134 
L 2272 4134 
L 2272 0 
L 1638 0 
L 1638 4134 
L -19 4134 
L -19 4666 
z
" transform="scale(0.015625)"/>
       <path id="DejaVuSans-61" d="M 2194 1759 
Q 1497 1759 1228 1600 
Q 959 1441 959 1056 
Q 959 750 1161 570 
Q 1363 391 1709 391 
Q 2188 391 2477 730 
Q 2766 1069 2766 1631 
L 2766 1759 
L 2194 1759 
z
M 3341 1997 
L 3341 0 
L 2766 0 
L 2766 531 
Q 2569 213 2275 61 
Q 1981 -91 1556 -91 
Q 1019 -91 701 211 
Q 384 513 384 1019 
Q 384 1609 779 1909 
Q 1175 2209 1959 2209 
L 2766 2209 
L 2766 2266 
Q 2766 2663 2505 2880 
Q 2244 3097 1772 3097 
Q 1472 3097 1187 3025 
Q 903 2953 641 2809 
L 641 3341 
Q 956 3463 1253 3523 
Q 1550 3584 1831 3584 
Q 2591 3584 2966 3190 
Q 3341 2797 3341 1997 
z
" transform="scale(0.015625)"/>
       <path id="DejaVuSans-67" d="M 2906 1791 
Q 2906 2416 2648 2759 
Q 2391 3103 1925 3103 
Q 1463 3103 1205 2759 
Q 947 2416 947 1791 
Q 947 1169 1205 825 
Q 1463 481 1925 481 
Q 2391 481 2648 825 
Q 2906 1169 2906 1791 
z
M 3481 434 
Q 3481 -459 3084 -895 
Q 2688 -1331 1869 -1331 
Q 1566 -1331 1297 -1286 
Q 1028 -1241 775 -1147 
L 775 -588 
Q 1028 -725 1275 -790 
Q 1522 -856 1778 -856 
Q 2344 -856 2625 -561 
Q 2906 -266 2906 331 
L 2906 616 
Q 2728 306 2450 153 
Q 2172 0 1784 0 
Q 1141 0 747 490 
Q 353 981 353 1791 
Q 353 2603 747 3093 
Q 1141 3584 1784 3584 
Q 2172 3584 2450 3431 
Q 2728 3278 2906 2969 
L 2906 3500 
L 3481 3500 
L 3481 434 
z
" transform="scale(0.015625)"/>
       <path id="DejaVuSans-45" d="M 628 4666 
L 3578 4666 
L 3578 4134 
L 1259 4134 
L 1259 2753 
L 3481 2753 
L 3481 2222 
L 1259 2222 
L 1259 531 
L 3634 531 
L 3634 0 
L 628 0 
L 628 4666 
z
" transform="scale(0.015625)"/>
       <path id="DejaVuSans-77" d="M 269 3500 
L 844 3500 
L 1563 769 
L 2278 3500 
L 2956 3500 
L 3675 769 
L 4391 3500 
L 4966 3500 
L 4050 0 
L 3372 0 
L 2619 2869 
L 1863 0 
L 1184 0 
L 269 3500 
z
" transform="scale(0.015625)"/>
       <path id="DejaVuSans-68" d="M 3513 2113 
L 3513 0 
L 2938 0 
L 2938 2094 
Q 2938 2591 2744 2837 
Q 2550 3084 2163 3084 
Q 1697 3084 1428 2787 
Q 1159 2491 1159 1978 
L 1159 0 
L 581 0 
L 581 4863 
L 1159 4863 
L 1159 2956 
Q 1366 3272 1645 3428 
Q 1925 3584 2291 3584 
Q 2894 3584 3203 3211 
Q 3513 2838 3513 2113 
z
" transform="scale(0.015625)"/>
      </defs>
      <use xlink:href="#DejaVuSans-49"/>
      <use xlink:href="#DejaVuSans-6e" x="29.492188"/>
      <use xlink:href="#DejaVuSans-7a" x="92.871094"/>
      <use xlink:href="#DejaVuSans-69" x="145.361328"/>
      <use xlink:href="#DejaVuSans-64" x="173.144531"/>
      <use xlink:href="#DejaVuSans-65" x="236.621094"/>
      <use xlink:href="#DejaVuSans-6e" x="298.144531"/>
      <use xlink:href="#DejaVuSans-7a" x="361.523438"/>
      <use xlink:href="#DejaVuSans-20" x="414.013672"/>
      <use xlink:href="#DejaVuSans-70" x="445.800781"/>
      <use xlink:href="#DejaVuSans-72" x="509.277344"/>
      <use xlink:href="#DejaVuSans-6f" x="548.140625"/>
      <use xlink:href="#DejaVuSans-20" x="609.322266"/>
      <use xlink:href="#DejaVuSans-37" x="641.109375"/>
      <use xlink:href="#DejaVuSans-20" x="704.732422"/>
      <use xlink:href="#DejaVuSans-54" x="736.519531"/>
      <use xlink:href="#DejaVuSans-61" x="781.103516"/>
      <use xlink:href="#DejaVuSans-67" x="842.382812"/>
      <use xlink:href="#DejaVuSans-65" x="905.859375"/>
      <use xlink:href="#DejaVuSans-20" x="967.382812"/>
      <use xlink:href="#DejaVuSans-70" x="999.169922"/>
      <use xlink:href="#DejaVuSans-72" x="1062.646484"/>
      <use xlink:href="#DejaVuSans-6f" x="1101.509766"/>
      <use xlink:href="#DejaVuSans-20" x="1162.691406"/>
      <use xlink:href="#DejaVuSans-31" x="1194.478516"/>
      <use xlink:href="#DejaVuSans-30" x="1258.101562"/>
      <use xlink:href="#DejaVuSans-30" x="1321.724609"/>
      <use xlink:href="#DejaVuSans-2e" x="1385.347656"/>
      <use xlink:href="#DejaVuSans-30" x="1417.134766"/>
      <use xlink:href="#DejaVuSans-30" x="1480.757812"/>
      <use xlink:href="#DejaVuSans-30" x="1544.380859"/>
      <use xlink:href="#DejaVuSans-20" x="1608.003906"/>
      <use xlink:href="#DejaVuSans-45" x="1639.791016"/>
      <use xlink:href="#DejaVuSans-69" x="1702.974609"/>
      <use xlink:href="#DejaVuSans-6e" x="1730.757812"/>
      <use xlink:href="#DejaVuSans-77" x="1794.136719"/>
      <use xlink:href="#DejaVuSans-6f" x="1875.923828"/>
      <use xlink:href="#DejaVuSans-68" x="1937.105469"/>
      <use xlink:href="#DejaVuSans-6e" x="2000.484375"/>
      <use xlink:href="#DejaVuSans-65" x="2063.863281"/>
      <use xlink:href="#DejaVuSans-72" x="2125.386719"/>
     </g>
    </g>
   </g>
   <g id="line2d_31">
    <path d="M 73.832727 265.797818 
L 76.135242 265.599849 
L 77.450964 264.976245 
L 78.766687 263.437033 
L 79.424548 262.199724 
L 79.753479 261.665207 
L 80.08241 261.531577 
L 81.069201 260.556578 
L 81.398132 260.422949 
L 82.055993 260.521933 
L 82.384924 260.328913 
L 82.713855 260.497187 
L 83.371716 261.036654 
L 84.029577 261.175232 
L 84.358508 261.096045 
L 84.687439 261.279166 
L 85.016369 261.313811 
L 85.3453 261.204928 
L 85.67423 260.952517 
L 86.003161 261.0614 
L 87.647814 262.328404 
L 87.976745 262.986653 
L 88.634606 263.352896 
L 88.963537 263.303404 
L 89.621398 263.620155 
L 90.279259 263.758733 
L 91.594982 264.347692 
L 92.252843 264.431829 
L 92.581774 264.590205 
L 93.239635 264.743631 
L 94.226427 265.119773 
L 95.87108 265.317742 
L 97.515734 265.500864 
L 99.160387 265.580052 
L 100.476109 265.664189 
L 104.094347 265.72358 
L 105.410069 265.649341 
L 107.383653 265.698833 
L 113.304405 265.614696 
L 118.567295 265.748326 
L 120.211948 265.669138 
L 121.19874 265.431575 
L 121.856601 265.352387 
L 124.159116 265.243504 
L 125.474838 264.624849 
L 126.46163 264.42688 
L 127.448422 264.55556 
L 127.777353 264.723834 
L 128.106284 264.723834 
L 128.764145 264.872311 
L 129.422006 264.9416 
L 130.079867 264.991093 
L 131.066659 264.892108 
L 131.724521 264.847565 
L 132.711313 264.906956 
L 133.040243 264.788174 
L 134.027035 264.807971 
L 135.013827 264.515966 
L 136.000619 264.501119 
L 136.65848 264.293251 
L 137.974203 264.223961 
L 138.303133 264.100231 
L 138.960995 264.228911 
L 139.947787 263.808226 
L 140.605648 263.837921 
L 141.263509 263.580561 
L 142.250301 263.382591 
L 143.566024 263.021297 
L 143.894954 263.085637 
L 144.223885 262.798582 
L 144.881746 262.640206 
L 145.210677 262.437287 
L 145.868538 262.402643 
L 146.197469 262.150232 
L 146.85533 262.442237 
L 147.184261 262.407592 
L 147.513191 262.189826 
L 147.842122 262.184876 
L 148.171053 261.754293 
L 148.828914 261.348456 
L 149.157845 260.873329 
L 149.815706 260.650614 
L 150.473567 259.368762 
L 151.131429 257.067367 
L 151.78929 256.042876 
L 152.118221 255.335135 
L 152.447151 253.929552 
L 153.433943 252.682345 
L 154.091804 252.494274 
L 155.078596 251.217371 
L 155.736458 251.192625 
L 156.065388 250.479935 
L 156.394319 250.272067 
L 156.72325 250.207727 
L 157.05218 250.25722 
L 157.381111 250.638311 
L 158.038972 250.890722 
L 158.367903 251.746939 
L 159.025764 252.375492 
L 159.354695 253.251507 
L 159.683625 252.989197 
L 160.012556 253.172319 
L 160.341487 253.03869 
L 160.999348 253.61775 
L 161.328279 254.082978 
L 161.657209 254.053283 
L 162.31507 255.646937 
L 162.644001 257.433611 
L 162.972932 257.834499 
L 163.301862 257.794905 
L 163.630793 257.537545 
L 163.959724 257.849346 
L 164.288654 257.879042 
L 165.275446 255.285643 
L 165.604377 254.761024 
L 165.933308 254.934247 
L 166.262238 254.860008 
L 166.591169 254.078029 
L 166.920099 254.246303 
L 167.24903 253.449476 
L 167.577961 252.999096 
L 168.235822 252.578411 
L 168.564753 251.647955 
L 168.893683 251.445036 
L 169.880475 250.217626 
L 170.209406 250.569021 
L 170.538337 249.094149 
L 170.867267 248.623972 
L 171.196198 248.391358 
L 171.525128 249.455444 
L 171.854059 251.266864 
L 172.18299 251.900366 
L 172.51192 252.222066 
L 173.169782 253.55836 
L 173.498712 253.370289 
L 174.485504 253.221812 
L 175.143366 252.895162 
L 175.472296 252.731837 
L 175.801227 253.216862 
L 176.459088 251.593513 
L 176.788019 251.925112 
L 177.116949 251.494528 
L 178.432672 254.622445 
L 178.761603 254.538308 
L 179.090533 254.795668 
L 179.419464 255.637038 
L 180.406256 256.552647 
L 180.735187 256.691225 
L 181.064117 257.384118 
L 181.393048 256.879296 
L 181.721978 256.676378 
L 182.050909 257.062418 
L 182.37984 257.166352 
L 182.70877 257.146555 
L 183.037701 257.295032 
L 183.366632 257.290083 
L 183.695562 257.864194 
L 184.024493 258.141351 
L 184.353424 258.091859 
L 185.669146 259.329168 
L 185.998077 259.353914 
L 186.327007 259.220285 
L 187.64273 259.665716 
L 187.971661 259.561782 
L 188.300591 259.744904 
L 188.629522 259.57168 
L 189.287383 259.581579 
L 189.616314 259.368762 
L 189.945245 259.462797 
L 190.603106 259.061909 
L 190.932036 259.1213 
L 191.260967 259.042112 
L 191.589898 258.66597 
L 191.918828 258.557087 
L 192.247759 258.245285 
L 192.90562 258.596681 
L 193.234551 258.245285 
L 193.563482 258.200742 
L 193.892412 258.364067 
L 194.221343 258.270031 
L 194.550274 258.34427 
L 195.208135 258.032468 
L 195.537065 258.309625 
L 196.523857 258.304676 
L 196.852788 257.829549 
L 197.510649 257.636529 
L 197.83958 257.225743 
L 198.168511 257.161403 
L 198.497441 256.14186 
L 198.826372 255.543003 
L 199.155303 255.340084 
L 199.484233 254.949095 
L 200.142095 254.949095 
L 200.471025 254.65214 
L 200.799956 254.538308 
L 201.128886 254.107725 
L 201.457817 252.969401 
L 202.115678 251.87067 
L 202.77354 251.336153 
L 203.10247 250.539326 
L 203.431401 250.395798 
L 203.760332 251.004554 
L 204.418193 251.143133 
L 205.076054 251.781584 
L 205.404985 253.23171 
L 205.733915 253.464324 
L 206.062846 253.538563 
L 206.391777 253.291101 
L 207.049638 252.528919 
L 207.378569 252.504172 
L 207.707499 251.880569 
L 208.03643 251.87067 
L 208.694291 252.291355 
L 209.023222 252.771431 
L 209.681083 253.152522 
L 210.667875 254.097826 
L 210.996806 254.780821 
L 211.325736 254.746176 
L 211.654667 255.082724 
L 211.983598 255.201506 
L 212.97039 256.008231 
L 213.29932 255.998332 
L 213.957182 256.369525 
L 214.286112 256.320033 
L 214.615043 256.671428 
L 214.943973 257.205946 
L 215.272904 257.200997 
L 215.930765 258.077011 
L 216.259696 258.067113 
L 217.246488 259.175741 
L 217.904349 260.373456 
L 219.877933 262.174978 
L 220.864725 262.29376 
L 221.193656 262.48678 
L 221.851517 263.090587 
L 222.838309 263.501373 
L 223.16724 263.719139 
L 223.49617 263.570662 
L 223.825101 263.545916 
L 225.140823 263.931957 
L 225.469754 263.877515 
L 225.798685 264.045789 
L 226.456546 264.124977 
L 227.114407 264.337794 
L 229.087991 264.565459 
L 231.061575 264.674342 
L 231.719436 264.803022 
L 233.035159 264.961397 
L 234.350881 264.906956 
L 235.337673 264.892108 
L 235.666604 264.827768 
L 236.324465 264.832717 
L 236.982327 264.743631 
L 237.640188 264.639697 
L 239.942702 263.97155 
L 240.600564 263.659749 
L 241.258425 263.13018 
L 241.587356 262.932211 
L 241.916286 262.897566 
L 242.245217 262.739191 
L 242.574148 262.734242 
L 242.903078 262.466983 
L 243.232009 262.526374 
L 243.560939 262.328404 
L 243.88987 262.476881 
L 244.218801 262.42244 
L 244.547731 262.130435 
L 244.876662 261.615714 
L 245.205593 261.402897 
L 245.534523 260.586274 
L 246.192385 259.913178 
L 246.850246 258.819397 
L 247.179177 258.448204 
L 248.165968 258.096808 
L 248.494899 257.690971 
L 249.15276 257.839448 
L 249.810622 257.770159 
L 250.139552 258.15125 
L 250.468483 258.131453 
L 250.797414 258.334371 
L 251.126344 258.309625 
L 251.455275 258.007722 
L 251.784206 258.067113 
L 252.442067 257.398966 
L 252.770998 257.295032 
L 253.099928 257.339575 
L 253.428859 257.205946 
L 253.757789 257.478154 
L 254.08672 257.314829 
L 255.731373 257.200997 
L 256.060304 256.973332 
L 257.376027 258.027519 
L 257.704957 258.052265 
L 258.362818 258.7996 
L 258.691749 258.814447 
L 259.34961 259.517239 
L 259.678541 259.517239 
L 260.007472 259.784497 
L 260.336402 259.799345 
L 260.994264 260.180436 
L 261.652125 260.036908 
L 261.981056 260.22003 
L 262.638917 260.017111 
L 262.967847 259.913178 
L 263.296778 259.556833 
L 263.954639 259.368762 
L 264.28357 259.017366 
L 264.612501 258.957975 
L 264.941431 259.037163 
L 265.928223 259.804294 
L 266.257154 259.799345 
L 266.586085 260.34871 
L 266.915015 260.457593 
L 267.243946 260.215081 
L 267.901807 260.254675 
L 268.559668 260.061655 
L 268.888599 259.64097 
L 269.54646 259.403406 
L 270.204322 257.745412 
L 271.191114 255.889449 
L 271.520044 255.612292 
L 271.848975 255.750871 
L 272.177905 255.716226 
L 273.164697 254.770922 
L 273.493628 254.642242 
L 273.822559 254.216608 
L 274.48042 253.805821 
L 275.138281 252.479426 
L 275.796143 252.073589 
L 276.125073 252.26166 
L 276.782935 250.653158 
L 277.111865 250.588818 
L 277.440796 250.103793 
L 277.769726 249.391103 
L 278.098657 249.326763 
L 278.427588 248.722957 
L 280.072241 246.985775 
L 280.401172 246.11471 
L 281.059033 245.392121 
L 281.387964 244.585396 
L 281.716894 243.481717 
L 282.374755 242.853164 
L 282.703686 242.74923 
L 283.032617 243.13527 
L 283.361547 243.105575 
L 283.690478 243.452021 
L 284.019409 243.506463 
L 284.348339 243.338189 
L 284.67727 243.323341 
L 285.006201 243.630194 
L 285.664062 242.689839 
L 286.321923 242.922453 
L 286.650854 242.49187 
L 287.308715 241.947454 
L 287.637646 241.442632 
L 287.966576 241.254561 
L 288.295507 239.774739 
L 288.624438 238.943268 
L 289.282299 236.156849 
L 289.61123 235.948981 
L 289.94016 235.978676 
L 290.269091 232.642892 
L 290.926952 231.281852 
L 291.255883 231.910405 
L 291.584813 233.212054 
L 291.913744 233.04378 
L 292.571605 235.280834 
L 292.900536 233.791114 
L 293.229467 231.598603 
L 293.558397 228.579569 
L 294.216259 226.322718 
L 295.203051 216.839983 
L 295.531981 212.766763 
L 295.860912 210.222856 
L 296.189842 202.873242 
L 296.847704 199.092026 
L 297.176634 195.172232 
L 297.505565 193.202436 
L 299.150218 158.077714 
L 299.479149 147.615031 
L 300.794872 93.094255 
L 301.123802 89.624842 
L 302.439525 57.370676 
L 303.097386 52.154182 
L 303.426317 55.123723 
L 303.755247 65.779426 
L 304.084178 70.728662 
L 304.413109 70.689068 
L 304.742039 76.999343 
L 305.399901 92.777504 
L 305.728831 96.454786 
L 306.057762 97.390192 
L 306.386692 100.31519 
L 307.044554 118.493731 
L 307.373484 120.869363 
L 308.031346 132.767325 
L 308.360276 134.895496 
L 308.689207 139.602219 
L 309.347068 153.529367 
L 309.675999 162.482533 
L 310.00493 167.431768 
L 310.33386 167.461464 
L 310.662791 170.65867 
L 311.320652 185.357898 
L 311.649583 188.253201 
L 312.307444 200.81436 
L 312.636375 201.056872 
L 312.965305 200.844055 
L 313.294236 203.20979 
L 313.623167 202.605983 
L 313.952097 203.85814 
L 314.281028 200.076924 
L 314.609959 197.943803 
L 314.938889 197.528068 
L 315.59675 192.252183 
L 315.925681 191.455356 
L 316.254612 186.778329 
L 316.583542 183.724651 
L 316.912473 179.07237 
L 317.241404 176.800671 
L 317.570334 175.984047 
L 318.228196 162.561721 
L 319.214988 146.239143 
L 319.543918 144.739525 
L 319.872849 144.546505 
L 320.201779 140.56732 
L 320.53071 134.326334 
L 321.188571 126.852989 
L 321.517502 125.338523 
L 321.846433 125.066315 
L 322.504294 126.442202 
L 322.833225 125.274183 
L 323.162155 126.397659 
L 323.491086 130.683697 
L 323.820017 131.723036 
L 324.148947 132.371386 
L 324.477878 130.010601 
L 324.806809 132.806919 
L 325.46467 141.750187 
L 325.7936 138.191687 
L 326.122531 138.345113 
L 326.780392 139.216178 
L 327.109323 140.700949 
L 327.438254 139.938767 
L 327.767184 141.195873 
L 328.425046 150.634064 
L 329.082907 155.276447 
L 329.411838 164.333547 
L 329.740768 169.456006 
L 330.069699 168.090017 
L 330.398629 165.788622 
L 331.056491 158.973525 
L 331.385421 161.022509 
L 331.714352 152.915661 
L 332.043283 151.0498 
L 333.359005 180.091912 
L 333.687936 180.04242 
L 334.345797 198.839615 
L 334.674728 201.725019 
L 335.003658 206.050651 
L 335.332589 207.817528 
L 335.66152 208.272857 
L 335.99045 210.010039 
L 336.319381 210.019937 
L 336.648312 210.232754 
L 336.977242 211.410672 
L 337.306173 214.112955 
L 337.635104 214.593031 
L 337.964034 215.429451 
L 338.621896 218.201023 
L 338.950826 221.45762 
L 339.279757 223.308634 
L 339.608687 223.773862 
L 339.937618 226.931474 
L 340.266549 228.648859 
L 340.92441 230.059391 
L 341.253341 231.603552 
L 341.911202 238.101898 
L 342.240133 238.814588 
L 342.569063 238.230578 
L 342.897994 238.527532 
L 343.226925 238.062304 
L 343.884786 235.810402 
L 344.213716 232.722079 
L 344.542647 230.925507 
L 344.871578 230.262309 
L 345.200508 230.183122 
L 345.529439 232.167765 
L 345.85837 231.885659 
L 346.1873 226.238581 
L 346.845162 219.576911 
L 347.174092 219.557114 
L 347.503023 216.711303 
L 347.831954 210.13377 
L 348.160884 206.144686 
L 348.489815 207.951157 
L 348.818746 207.817528 
L 349.147676 206.362453 
L 349.476607 206.44659 
L 349.805537 207.174127 
L 350.463399 200.636187 
L 350.792329 192.895584 
L 351.12126 188.57985 
L 351.450191 186.204218 
L 352.108052 184.95701 
L 352.436983 183.398001 
L 352.765913 183.27922 
L 353.094844 183.892925 
L 353.423775 185.209421 
L 353.752705 187.020841 
L 354.081636 187.124775 
L 354.410566 186.76843 
L 354.739497 188.921348 
L 355.068428 188.099775 
L 355.397358 191.405864 
L 355.726289 191.62363 
L 356.05522 192.460051 
L 356.38415 192.469949 
L 356.713081 192.974771 
L 357.042012 194.845582 
L 357.370942 198.211062 
L 357.699873 198.438727 
L 358.357734 200.319436 
L 359.015595 201.72007 
L 359.344526 202.833648 
L 359.673457 205.248875 
L 360.660249 215.211685 
L 360.989179 214.949376 
L 361.31811 215.419553 
L 361.647041 216.943917 
L 362.304902 223.976781 
L 362.633833 225.33782 
L 362.962763 225.629825 
L 363.620624 228.436042 
L 363.949555 230.361294 
L 364.278486 229.915863 
L 364.607416 231.276903 
L 364.936347 233.756469 
L 365.265278 234.845301 
L 365.594208 235.364971 
L 365.923139 234.865098 
L 366.25207 236.849741 
L 366.581 237.988066 
L 366.909931 238.47804 
L 367.238862 238.171187 
L 367.567792 238.057355 
L 367.896723 237.720807 
L 368.225653 238.473091 
L 368.554584 238.324614 
L 368.883515 237.404056 
L 369.212445 237.404056 
L 369.541376 238.854182 
L 369.870307 238.982862 
L 370.199237 239.626262 
L 370.528168 239.091745 
L 371.51496 243.39263 
L 371.843891 244.031082 
L 372.172821 245.372324 
L 372.830683 246.292882 
L 373.159613 246.857095 
L 373.488544 246.688821 
L 373.817474 247.554937 
L 374.146405 247.490597 
L 374.475336 247.827145 
L 374.804266 247.86179 
L 375.133197 247.688567 
L 375.462128 247.817247 
L 375.791058 249.0892 
L 376.119989 248.302272 
L 376.44892 249.069403 
L 377.106781 248.955571 
L 377.764642 248.218135 
L 378.093573 247.66382 
L 378.422503 248.074607 
L 378.751434 247.34212 
L 379.080365 247.272831 
L 379.409295 246.980826 
L 379.738226 247.510394 
L 380.067157 247.431206 
L 380.396087 247.708363 
L 381.382879 245.936537 
L 381.71181 245.837553 
L 382.040741 245.392121 
L 382.369671 244.649736 
L 382.698602 242.269154 
L 383.356463 240.041998 
L 383.685394 239.116491 
L 384.014324 238.784892 
L 384.343255 238.067253 
L 385.001116 240.962556 
L 385.330047 237.399107 
L 385.987908 234.068271 
L 386.316839 233.924743 
L 386.64577 233.598094 
L 387.303631 226.817642 
L 387.632561 230.217766 
L 387.961492 230.212817 
L 388.619353 230.974999 
L 388.948284 230.64835 
L 389.277215 228.77259 
L 389.606145 228.554823 
L 389.935076 228.109392 
L 390.264007 227.916372 
L 390.592937 228.074747 
L 390.921868 227.263073 
L 391.250799 227.490738 
L 391.579729 228.119291 
L 391.90866 229.891117 
L 392.23759 230.979948 
L 392.566521 233.10812 
L 392.895452 233.122967 
L 393.553313 235.379819 
L 393.882244 239.947963 
L 394.211174 240.403292 
L 394.869036 239.12144 
L 395.197966 239.586669 
L 395.526897 239.200628 
L 395.855828 240.150881 
L 396.184758 238.388954 
L 397.500481 246.144405 
L 397.829411 246.931334 
L 398.158342 246.753161 
L 398.487273 249.039708 
L 398.487273 249.039708 
" clip-path="url(#p8470030268)" style="fill: none; stroke: #1f77b4; stroke-width: 1.5; stroke-linecap: square"/>
   </g>
   <g id="patch_3">
    <path d="M 57.6 276.48 
L 57.6 41.472 
" style="fill: none; stroke: #000000; stroke-width: 0.8; stroke-linejoin: miter; stroke-linecap: square"/>
   </g>
   <g id="patch_4">
    <path d="M 414.72 276.48 
L 414.72 41.472 
" style="fill: none; stroke: #000000; stroke-width: 0.8; stroke-linejoin: miter; stroke-linecap: square"/>
   </g>
   <g id="patch_5">
    <path d="M 57.6 276.48 
L 414.72 276.48 
" style="fill: none; stroke: #000000; stroke-width: 0.8; stroke-linejoin: miter; stroke-linecap: square"/>
   </g>
   <g id="patch_6">
    <path d="M 57.6 41.472 
L 414.72 41.472 
" style="fill: none; stroke: #000000; stroke-width: 0.8; stroke-linejoin: miter; stroke-linecap: square"/>
   </g>
  </g>
  <g id="text_17">
   <!-- Inzidenzverlauf SK Hamburg -->
   <g transform="translate(102.626719 20.589187) scale(0.18 -0.18)">
    <defs>
     <path id="DejaVuSans-76" d="M 191 3500 
L 800 3500 
L 1894 563 
L 2988 3500 
L 3597 3500 
L 2284 0 
L 1503 0 
L 191 3500 
z
" transform="scale(0.015625)"/>
     <path id="DejaVuSans-6c" d="M 603 4863 
L 1178 4863 
L 1178 0 
L 603 0 
L 603 4863 
z
" transform="scale(0.015625)"/>
     <path id="DejaVuSans-75" d="M 544 1381 
L 544 3500 
L 1119 3500 
L 1119 1403 
Q 1119 906 1312 657 
Q 1506 409 1894 409 
Q 2359 409 2629 706 
Q 2900 1003 2900 1516 
L 2900 3500 
L 3475 3500 
L 3475 0 
L 2900 0 
L 2900 538 
Q 2691 219 2414 64 
Q 2138 -91 1772 -91 
Q 1169 -91 856 284 
Q 544 659 544 1381 
z
M 1991 3584 
L 1991 3584 
z
" transform="scale(0.015625)"/>
     <path id="DejaVuSans-66" d="M 2375 4863 
L 2375 4384 
L 1825 4384 
Q 1516 4384 1395 4259 
Q 1275 4134 1275 3809 
L 1275 3500 
L 2222 3500 
L 2222 3053 
L 1275 3053 
L 1275 0 
L 697 0 
L 697 3053 
L 147 3053 
L 147 3500 
L 697 3500 
L 697 3744 
Q 697 4328 969 4595 
Q 1241 4863 1831 4863 
L 2375 4863 
z
" transform="scale(0.015625)"/>
     <path id="DejaVuSans-53" d="M 3425 4513 
L 3425 3897 
Q 3066 4069 2747 4153 
Q 2428 4238 2131 4238 
Q 1616 4238 1336 4038 
Q 1056 3838 1056 3469 
Q 1056 3159 1242 3001 
Q 1428 2844 1947 2747 
L 2328 2669 
Q 3034 2534 3370 2195 
Q 3706 1856 3706 1288 
Q 3706 609 3251 259 
Q 2797 -91 1919 -91 
Q 1588 -91 1214 -16 
Q 841 59 441 206 
L 441 856 
Q 825 641 1194 531 
Q 1563 422 1919 422 
Q 2459 422 2753 634 
Q 3047 847 3047 1241 
Q 3047 1584 2836 1778 
Q 2625 1972 2144 2069 
L 1759 2144 
Q 1053 2284 737 2584 
Q 422 2884 422 3419 
Q 422 4038 858 4394 
Q 1294 4750 2059 4750 
Q 2388 4750 2728 4690 
Q 3069 4631 3425 4513 
z
" transform="scale(0.015625)"/>
     <path id="DejaVuSans-4b" d="M 628 4666 
L 1259 4666 
L 1259 2694 
L 3353 4666 
L 4166 4666 
L 1850 2491 
L 4331 0 
L 3500 0 
L 1259 2247 
L 1259 0 
L 628 0 
L 628 4666 
z
" transform="scale(0.015625)"/>
     <path id="DejaVuSans-48" d="M 628 4666 
L 1259 4666 
L 1259 2753 
L 3553 2753 
L 3553 4666 
L 4184 4666 
L 4184 0 
L 3553 0 
L 3553 2222 
L 1259 2222 
L 1259 0 
L 628 0 
L 628 4666 
z
" transform="scale(0.015625)"/>
     <path id="DejaVuSans-6d" d="M 3328 2828 
Q 3544 3216 3844 3400 
Q 4144 3584 4550 3584 
Q 5097 3584 5394 3201 
Q 5691 2819 5691 2113 
L 5691 0 
L 5113 0 
L 5113 2094 
Q 5113 2597 4934 2840 
Q 4756 3084 4391 3084 
Q 3944 3084 3684 2787 
Q 3425 2491 3425 1978 
L 3425 0 
L 2847 0 
L 2847 2094 
Q 2847 2600 2669 2842 
Q 2491 3084 2119 3084 
Q 1678 3084 1418 2786 
Q 1159 2488 1159 1978 
L 1159 0 
L 581 0 
L 581 3500 
L 1159 3500 
L 1159 2956 
Q 1356 3278 1631 3431 
Q 1906 3584 2284 3584 
Q 2666 3584 2933 3390 
Q 3200 3197 3328 2828 
z
" transform="scale(0.015625)"/>
     <path id="DejaVuSans-62" d="M 3116 1747 
Q 3116 2381 2855 2742 
Q 2594 3103 2138 3103 
Q 1681 3103 1420 2742 
Q 1159 2381 1159 1747 
Q 1159 1113 1420 752 
Q 1681 391 2138 391 
Q 2594 391 2855 752 
Q 3116 1113 3116 1747 
z
M 1159 2969 
Q 1341 3281 1617 3432 
Q 1894 3584 2278 3584 
Q 2916 3584 3314 3078 
Q 3713 2572 3713 1747 
Q 3713 922 3314 415 
Q 2916 -91 2278 -91 
Q 1894 -91 1617 61 
Q 1341 213 1159 525 
L 1159 0 
L 581 0 
L 581 4863 
L 1159 4863 
L 1159 2969 
z
" transform="scale(0.015625)"/>
    </defs>
    <use xlink:href="#DejaVuSans-49"/>
    <use xlink:href="#DejaVuSans-6e" x="29.492188"/>
    <use xlink:href="#DejaVuSans-7a" x="92.871094"/>
    <use xlink:href="#DejaVuSans-69" x="145.361328"/>
    <use xlink:href="#DejaVuSans-64" x="173.144531"/>
    <use xlink:href="#DejaVuSans-65" x="236.621094"/>
    <use xlink:href="#DejaVuSans-6e" x="298.144531"/>
    <use xlink:href="#DejaVuSans-7a" x="361.523438"/>
    <use xlink:href="#DejaVuSans-76" x="414.013672"/>
    <use xlink:href="#DejaVuSans-65" x="473.193359"/>
    <use xlink:href="#DejaVuSans-72" x="534.716797"/>
    <use xlink:href="#DejaVuSans-6c" x="575.830078"/>
    <use xlink:href="#DejaVuSans-61" x="603.613281"/>
    <use xlink:href="#DejaVuSans-75" x="664.892578"/>
    <use xlink:href="#DejaVuSans-66" x="728.271484"/>
    <use xlink:href="#DejaVuSans-20" x="763.476562"/>
    <use xlink:href="#DejaVuSans-53" x="795.263672"/>
    <use xlink:href="#DejaVuSans-4b" x="858.740234"/>
    <use xlink:href="#DejaVuSans-20" x="924.316406"/>
    <use xlink:href="#DejaVuSans-48" x="956.103516"/>
    <use xlink:href="#DejaVuSans-61" x="1031.298828"/>
    <use xlink:href="#DejaVuSans-6d" x="1092.578125"/>
    <use xlink:href="#DejaVuSans-62" x="1189.990234"/>
    <use xlink:href="#DejaVuSans-75" x="1253.466797"/>
    <use xlink:href="#DejaVuSans-72" x="1316.845703"/>
    <use xlink:href="#DejaVuSans-67" x="1356.208984"/>
   </g>
  </g>
 </g>
 <defs>
  <clipPath id="p8470030268">
   <rect x="57.6" y="41.472" width="357.12" height="235.008"/>
  </clipPath>
 </defs>
</svg>
