<?xml version="1.0" encoding="utf-8" standalone="no"?>
<!DOCTYPE svg PUBLIC "-//W3C//DTD SVG 1.1//EN"
  "http://www.w3.org/Graphics/SVG/1.1/DTD/svg11.dtd">
<svg xmlns:xlink="http://www.w3.org/1999/xlink" width="460.8pt" height="345.6pt" viewBox="0 0 460.8 345.6" xmlns="http://www.w3.org/2000/svg" version="1.1">
 <metadata>
  <rdf:RDF xmlns:dc="http://purl.org/dc/elements/1.1/" xmlns:cc="http://creativecommons.org/ns#" xmlns:rdf="http://www.w3.org/1999/02/22-rdf-syntax-ns#">
   <cc:Work>
    <dc:type rdf:resource="http://purl.org/dc/dcmitype/StillImage"/>
    <dc:date>2022-12-18T09:17:10.903448</dc:date>
    <dc:format>image/svg+xml</dc:format>
    <dc:creator>
     <cc:Agent>
      <dc:title>Matplotlib v3.6.2, https://matplotlib.org/</dc:title>
     </cc:Agent>
    </dc:creator>
   </cc:Work>
  </rdf:RDF>
 </metadata>
 <defs>
  <style type="text/css">*{stroke-linejoin: round; stroke-linecap: butt}</style>
 </defs>
 <g id="figure_1">
  <g id="patch_1">
   <path d="M 0 345.6 
L 460.8 345.6 
L 460.8 0 
L 0 0 
z
" style="fill: #ffffff"/>
  </g>
  <g id="axes_1">
   <g id="patch_2">
    <path d="M 57.6 276.48 
L 414.72 276.48 
L 414.72 41.472 
L 57.6 41.472 
z
" style="fill: #ffffff"/>
   </g>
   <g id="matplotlib.axis_1">
    <g id="xtick_1">
     <g id="line2d_1">
      <path d="M 60.239144 276.48 
L 60.239144 41.472 
" clip-path="url(#p6b6c8f3f57)" style="fill: none; stroke-dasharray: 2.96,1.28; stroke-dashoffset: 0; stroke: #808080; stroke-width: 0.8"/>
     </g>
     <g id="line2d_2">
      <defs>
       <path id="m4b13d4023d" d="M 0 0 
L 0 3.5 
" style="stroke: #000000; stroke-width: 0.8"/>
      </defs>
      <g>
       <use xlink:href="#m4b13d4023d" x="60.239144" y="276.48" style="stroke: #000000; stroke-width: 0.8"/>
      </g>
     </g>
     <g id="text_1">
      <!-- 20.01.2020 -->
      <g transform="translate(9.613934 318.688565) rotate(-30) scale(0.1 -0.1)">
       <defs>
        <path id="DejaVuSans-32" d="M 1228 531 
L 3431 531 
L 3431 0 
L 469 0 
L 469 531 
Q 828 903 1448 1529 
Q 2069 2156 2228 2338 
Q 2531 2678 2651 2914 
Q 2772 3150 2772 3378 
Q 2772 3750 2511 3984 
Q 2250 4219 1831 4219 
Q 1534 4219 1204 4116 
Q 875 4013 500 3803 
L 500 4441 
Q 881 4594 1212 4672 
Q 1544 4750 1819 4750 
Q 2544 4750 2975 4387 
Q 3406 4025 3406 3419 
Q 3406 3131 3298 2873 
Q 3191 2616 2906 2266 
Q 2828 2175 2409 1742 
Q 1991 1309 1228 531 
z
" transform="scale(0.015625)"/>
        <path id="DejaVuSans-30" d="M 2034 4250 
Q 1547 4250 1301 3770 
Q 1056 3291 1056 2328 
Q 1056 1369 1301 889 
Q 1547 409 2034 409 
Q 2525 409 2770 889 
Q 3016 1369 3016 2328 
Q 3016 3291 2770 3770 
Q 2525 4250 2034 4250 
z
M 2034 4750 
Q 2819 4750 3233 4129 
Q 3647 3509 3647 2328 
Q 3647 1150 3233 529 
Q 2819 -91 2034 -91 
Q 1250 -91 836 529 
Q 422 1150 422 2328 
Q 422 3509 836 4129 
Q 1250 4750 2034 4750 
z
" transform="scale(0.015625)"/>
        <path id="DejaVuSans-2e" d="M 684 794 
L 1344 794 
L 1344 0 
L 684 0 
L 684 794 
z
" transform="scale(0.015625)"/>
        <path id="DejaVuSans-31" d="M 794 531 
L 1825 531 
L 1825 4091 
L 703 3866 
L 703 4441 
L 1819 4666 
L 2450 4666 
L 2450 531 
L 3481 531 
L 3481 0 
L 794 0 
L 794 531 
z
" transform="scale(0.015625)"/>
       </defs>
       <use xlink:href="#DejaVuSans-32"/>
       <use xlink:href="#DejaVuSans-30" x="63.623047"/>
       <use xlink:href="#DejaVuSans-2e" x="127.246094"/>
       <use xlink:href="#DejaVuSans-30" x="159.033203"/>
       <use xlink:href="#DejaVuSans-31" x="222.65625"/>
       <use xlink:href="#DejaVuSans-2e" x="286.279297"/>
       <use xlink:href="#DejaVuSans-32" x="318.066406"/>
       <use xlink:href="#DejaVuSans-30" x="381.689453"/>
       <use xlink:href="#DejaVuSans-32" x="445.3125"/>
       <use xlink:href="#DejaVuSans-30" x="508.935547"/>
      </g>
     </g>
    </g>
    <g id="xtick_2">
     <g id="line2d_3">
      <path d="M 96.205775 276.48 
L 96.205775 41.472 
" clip-path="url(#p6b6c8f3f57)" style="fill: none; stroke-dasharray: 2.96,1.28; stroke-dashoffset: 0; stroke: #808080; stroke-width: 0.8"/>
     </g>
     <g id="line2d_4">
      <g>
       <use xlink:href="#m4b13d4023d" x="96.205775" y="276.48" style="stroke: #000000; stroke-width: 0.8"/>
      </g>
     </g>
     <g id="text_2">
      <!-- 12.05.2020 -->
      <g transform="translate(45.580565 318.688565) rotate(-30) scale(0.1 -0.1)">
       <defs>
        <path id="DejaVuSans-35" d="M 691 4666 
L 3169 4666 
L 3169 4134 
L 1269 4134 
L 1269 2991 
Q 1406 3038 1543 3061 
Q 1681 3084 1819 3084 
Q 2600 3084 3056 2656 
Q 3513 2228 3513 1497 
Q 3513 744 3044 326 
Q 2575 -91 1722 -91 
Q 1428 -91 1123 -41 
Q 819 9 494 109 
L 494 744 
Q 775 591 1075 516 
Q 1375 441 1709 441 
Q 2250 441 2565 725 
Q 2881 1009 2881 1497 
Q 2881 1984 2565 2268 
Q 2250 2553 1709 2553 
Q 1456 2553 1204 2497 
Q 953 2441 691 2322 
L 691 4666 
z
" transform="scale(0.015625)"/>
       </defs>
       <use xlink:href="#DejaVuSans-31"/>
       <use xlink:href="#DejaVuSans-32" x="63.623047"/>
       <use xlink:href="#DejaVuSans-2e" x="127.246094"/>
       <use xlink:href="#DejaVuSans-30" x="159.033203"/>
       <use xlink:href="#DejaVuSans-35" x="222.65625"/>
       <use xlink:href="#DejaVuSans-2e" x="286.279297"/>
       <use xlink:href="#DejaVuSans-32" x="318.066406"/>
       <use xlink:href="#DejaVuSans-30" x="381.689453"/>
       <use xlink:href="#DejaVuSans-32" x="445.3125"/>
       <use xlink:href="#DejaVuSans-30" x="508.935547"/>
      </g>
     </g>
    </g>
    <g id="xtick_3">
     <g id="line2d_5">
      <path d="M 132.172406 276.48 
L 132.172406 41.472 
" clip-path="url(#p6b6c8f3f57)" style="fill: none; stroke-dasharray: 2.96,1.28; stroke-dashoffset: 0; stroke: #808080; stroke-width: 0.8"/>
     </g>
     <g id="line2d_6">
      <g>
       <use xlink:href="#m4b13d4023d" x="132.172406" y="276.48" style="stroke: #000000; stroke-width: 0.8"/>
      </g>
     </g>
     <g id="text_3">
      <!-- 02.09.2020 -->
      <g transform="translate(81.547196 318.688565) rotate(-30) scale(0.1 -0.1)">
       <defs>
        <path id="DejaVuSans-39" d="M 703 97 
L 703 672 
Q 941 559 1184 500 
Q 1428 441 1663 441 
Q 2288 441 2617 861 
Q 2947 1281 2994 2138 
Q 2813 1869 2534 1725 
Q 2256 1581 1919 1581 
Q 1219 1581 811 2004 
Q 403 2428 403 3163 
Q 403 3881 828 4315 
Q 1253 4750 1959 4750 
Q 2769 4750 3195 4129 
Q 3622 3509 3622 2328 
Q 3622 1225 3098 567 
Q 2575 -91 1691 -91 
Q 1453 -91 1209 -44 
Q 966 3 703 97 
z
M 1959 2075 
Q 2384 2075 2632 2365 
Q 2881 2656 2881 3163 
Q 2881 3666 2632 3958 
Q 2384 4250 1959 4250 
Q 1534 4250 1286 3958 
Q 1038 3666 1038 3163 
Q 1038 2656 1286 2365 
Q 1534 2075 1959 2075 
z
" transform="scale(0.015625)"/>
       </defs>
       <use xlink:href="#DejaVuSans-30"/>
       <use xlink:href="#DejaVuSans-32" x="63.623047"/>
       <use xlink:href="#DejaVuSans-2e" x="127.246094"/>
       <use xlink:href="#DejaVuSans-30" x="159.033203"/>
       <use xlink:href="#DejaVuSans-39" x="222.65625"/>
       <use xlink:href="#DejaVuSans-2e" x="286.279297"/>
       <use xlink:href="#DejaVuSans-32" x="318.066406"/>
       <use xlink:href="#DejaVuSans-30" x="381.689453"/>
       <use xlink:href="#DejaVuSans-32" x="445.3125"/>
       <use xlink:href="#DejaVuSans-30" x="508.935547"/>
      </g>
     </g>
    </g>
    <g id="xtick_4">
     <g id="line2d_7">
      <path d="M 168.139037 276.48 
L 168.139037 41.472 
" clip-path="url(#p6b6c8f3f57)" style="fill: none; stroke-dasharray: 2.96,1.28; stroke-dashoffset: 0; stroke: #808080; stroke-width: 0.8"/>
     </g>
     <g id="line2d_8">
      <g>
       <use xlink:href="#m4b13d4023d" x="168.139037" y="276.48" style="stroke: #000000; stroke-width: 0.8"/>
      </g>
     </g>
     <g id="text_4">
      <!-- 24.12.2020 -->
      <g transform="translate(117.513827 318.688565) rotate(-30) scale(0.1 -0.1)">
       <defs>
        <path id="DejaVuSans-34" d="M 2419 4116 
L 825 1625 
L 2419 1625 
L 2419 4116 
z
M 2253 4666 
L 3047 4666 
L 3047 1625 
L 3713 1625 
L 3713 1100 
L 3047 1100 
L 3047 0 
L 2419 0 
L 2419 1100 
L 313 1100 
L 313 1709 
L 2253 4666 
z
" transform="scale(0.015625)"/>
       </defs>
       <use xlink:href="#DejaVuSans-32"/>
       <use xlink:href="#DejaVuSans-34" x="63.623047"/>
       <use xlink:href="#DejaVuSans-2e" x="127.246094"/>
       <use xlink:href="#DejaVuSans-31" x="159.033203"/>
       <use xlink:href="#DejaVuSans-32" x="222.65625"/>
       <use xlink:href="#DejaVuSans-2e" x="286.279297"/>
       <use xlink:href="#DejaVuSans-32" x="318.066406"/>
       <use xlink:href="#DejaVuSans-30" x="381.689453"/>
       <use xlink:href="#DejaVuSans-32" x="445.3125"/>
       <use xlink:href="#DejaVuSans-30" x="508.935547"/>
      </g>
     </g>
    </g>
    <g id="xtick_5">
     <g id="line2d_9">
      <path d="M 204.105668 276.48 
L 204.105668 41.472 
" clip-path="url(#p6b6c8f3f57)" style="fill: none; stroke-dasharray: 2.96,1.28; stroke-dashoffset: 0; stroke: #808080; stroke-width: 0.8"/>
     </g>
     <g id="line2d_10">
      <g>
       <use xlink:href="#m4b13d4023d" x="204.105668" y="276.48" style="stroke: #000000; stroke-width: 0.8"/>
      </g>
     </g>
     <g id="text_5">
      <!-- 16.04.2021 -->
      <g transform="translate(153.480458 318.688565) rotate(-30) scale(0.1 -0.1)">
       <defs>
        <path id="DejaVuSans-36" d="M 2113 2584 
Q 1688 2584 1439 2293 
Q 1191 2003 1191 1497 
Q 1191 994 1439 701 
Q 1688 409 2113 409 
Q 2538 409 2786 701 
Q 3034 994 3034 1497 
Q 3034 2003 2786 2293 
Q 2538 2584 2113 2584 
z
M 3366 4563 
L 3366 3988 
Q 3128 4100 2886 4159 
Q 2644 4219 2406 4219 
Q 1781 4219 1451 3797 
Q 1122 3375 1075 2522 
Q 1259 2794 1537 2939 
Q 1816 3084 2150 3084 
Q 2853 3084 3261 2657 
Q 3669 2231 3669 1497 
Q 3669 778 3244 343 
Q 2819 -91 2113 -91 
Q 1303 -91 875 529 
Q 447 1150 447 2328 
Q 447 3434 972 4092 
Q 1497 4750 2381 4750 
Q 2619 4750 2861 4703 
Q 3103 4656 3366 4563 
z
" transform="scale(0.015625)"/>
       </defs>
       <use xlink:href="#DejaVuSans-31"/>
       <use xlink:href="#DejaVuSans-36" x="63.623047"/>
       <use xlink:href="#DejaVuSans-2e" x="127.246094"/>
       <use xlink:href="#DejaVuSans-30" x="159.033203"/>
       <use xlink:href="#DejaVuSans-34" x="222.65625"/>
       <use xlink:href="#DejaVuSans-2e" x="286.279297"/>
       <use xlink:href="#DejaVuSans-32" x="318.066406"/>
       <use xlink:href="#DejaVuSans-30" x="381.689453"/>
       <use xlink:href="#DejaVuSans-32" x="445.3125"/>
       <use xlink:href="#DejaVuSans-31" x="508.935547"/>
      </g>
     </g>
    </g>
    <g id="xtick_6">
     <g id="line2d_11">
      <path d="M 240.072299 276.48 
L 240.072299 41.472 
" clip-path="url(#p6b6c8f3f57)" style="fill: none; stroke-dasharray: 2.96,1.28; stroke-dashoffset: 0; stroke: #808080; stroke-width: 0.8"/>
     </g>
     <g id="line2d_12">
      <g>
       <use xlink:href="#m4b13d4023d" x="240.072299" y="276.48" style="stroke: #000000; stroke-width: 0.8"/>
      </g>
     </g>
     <g id="text_6">
      <!-- 07.08.2021 -->
      <g transform="translate(189.447089 318.688565) rotate(-30) scale(0.1 -0.1)">
       <defs>
        <path id="DejaVuSans-37" d="M 525 4666 
L 3525 4666 
L 3525 4397 
L 1831 0 
L 1172 0 
L 2766 4134 
L 525 4134 
L 525 4666 
z
" transform="scale(0.015625)"/>
        <path id="DejaVuSans-38" d="M 2034 2216 
Q 1584 2216 1326 1975 
Q 1069 1734 1069 1313 
Q 1069 891 1326 650 
Q 1584 409 2034 409 
Q 2484 409 2743 651 
Q 3003 894 3003 1313 
Q 3003 1734 2745 1975 
Q 2488 2216 2034 2216 
z
M 1403 2484 
Q 997 2584 770 2862 
Q 544 3141 544 3541 
Q 544 4100 942 4425 
Q 1341 4750 2034 4750 
Q 2731 4750 3128 4425 
Q 3525 4100 3525 3541 
Q 3525 3141 3298 2862 
Q 3072 2584 2669 2484 
Q 3125 2378 3379 2068 
Q 3634 1759 3634 1313 
Q 3634 634 3220 271 
Q 2806 -91 2034 -91 
Q 1263 -91 848 271 
Q 434 634 434 1313 
Q 434 1759 690 2068 
Q 947 2378 1403 2484 
z
M 1172 3481 
Q 1172 3119 1398 2916 
Q 1625 2713 2034 2713 
Q 2441 2713 2670 2916 
Q 2900 3119 2900 3481 
Q 2900 3844 2670 4047 
Q 2441 4250 2034 4250 
Q 1625 4250 1398 4047 
Q 1172 3844 1172 3481 
z
" transform="scale(0.015625)"/>
       </defs>
       <use xlink:href="#DejaVuSans-30"/>
       <use xlink:href="#DejaVuSans-37" x="63.623047"/>
       <use xlink:href="#DejaVuSans-2e" x="127.246094"/>
       <use xlink:href="#DejaVuSans-30" x="159.033203"/>
       <use xlink:href="#DejaVuSans-38" x="222.65625"/>
       <use xlink:href="#DejaVuSans-2e" x="286.279297"/>
       <use xlink:href="#DejaVuSans-32" x="318.066406"/>
       <use xlink:href="#DejaVuSans-30" x="381.689453"/>
       <use xlink:href="#DejaVuSans-32" x="445.3125"/>
       <use xlink:href="#DejaVuSans-31" x="508.935547"/>
      </g>
     </g>
    </g>
    <g id="xtick_7">
     <g id="line2d_13">
      <path d="M 276.03893 276.48 
L 276.03893 41.472 
" clip-path="url(#p6b6c8f3f57)" style="fill: none; stroke-dasharray: 2.96,1.28; stroke-dashoffset: 0; stroke: #808080; stroke-width: 0.8"/>
     </g>
     <g id="line2d_14">
      <g>
       <use xlink:href="#m4b13d4023d" x="276.03893" y="276.48" style="stroke: #000000; stroke-width: 0.8"/>
      </g>
     </g>
     <g id="text_7">
      <!-- 28.11.2021 -->
      <g transform="translate(225.41372 318.688565) rotate(-30) scale(0.1 -0.1)">
       <use xlink:href="#DejaVuSans-32"/>
       <use xlink:href="#DejaVuSans-38" x="63.623047"/>
       <use xlink:href="#DejaVuSans-2e" x="127.246094"/>
       <use xlink:href="#DejaVuSans-31" x="159.033203"/>
       <use xlink:href="#DejaVuSans-31" x="222.65625"/>
       <use xlink:href="#DejaVuSans-2e" x="286.279297"/>
       <use xlink:href="#DejaVuSans-32" x="318.066406"/>
       <use xlink:href="#DejaVuSans-30" x="381.689453"/>
       <use xlink:href="#DejaVuSans-32" x="445.3125"/>
       <use xlink:href="#DejaVuSans-31" x="508.935547"/>
      </g>
     </g>
    </g>
    <g id="xtick_8">
     <g id="line2d_15">
      <path d="M 312.005561 276.48 
L 312.005561 41.472 
" clip-path="url(#p6b6c8f3f57)" style="fill: none; stroke-dasharray: 2.96,1.28; stroke-dashoffset: 0; stroke: #808080; stroke-width: 0.8"/>
     </g>
     <g id="line2d_16">
      <g>
       <use xlink:href="#m4b13d4023d" x="312.005561" y="276.48" style="stroke: #000000; stroke-width: 0.8"/>
      </g>
     </g>
     <g id="text_8">
      <!-- 21.03.2022 -->
      <g transform="translate(261.380351 318.688565) rotate(-30) scale(0.1 -0.1)">
       <defs>
        <path id="DejaVuSans-33" d="M 2597 2516 
Q 3050 2419 3304 2112 
Q 3559 1806 3559 1356 
Q 3559 666 3084 287 
Q 2609 -91 1734 -91 
Q 1441 -91 1130 -33 
Q 819 25 488 141 
L 488 750 
Q 750 597 1062 519 
Q 1375 441 1716 441 
Q 2309 441 2620 675 
Q 2931 909 2931 1356 
Q 2931 1769 2642 2001 
Q 2353 2234 1838 2234 
L 1294 2234 
L 1294 2753 
L 1863 2753 
Q 2328 2753 2575 2939 
Q 2822 3125 2822 3475 
Q 2822 3834 2567 4026 
Q 2313 4219 1838 4219 
Q 1578 4219 1281 4162 
Q 984 4106 628 3988 
L 628 4550 
Q 988 4650 1302 4700 
Q 1616 4750 1894 4750 
Q 2613 4750 3031 4423 
Q 3450 4097 3450 3541 
Q 3450 3153 3228 2886 
Q 3006 2619 2597 2516 
z
" transform="scale(0.015625)"/>
       </defs>
       <use xlink:href="#DejaVuSans-32"/>
       <use xlink:href="#DejaVuSans-31" x="63.623047"/>
       <use xlink:href="#DejaVuSans-2e" x="127.246094"/>
       <use xlink:href="#DejaVuSans-30" x="159.033203"/>
       <use xlink:href="#DejaVuSans-33" x="222.65625"/>
       <use xlink:href="#DejaVuSans-2e" x="286.279297"/>
       <use xlink:href="#DejaVuSans-32" x="318.066406"/>
       <use xlink:href="#DejaVuSans-30" x="381.689453"/>
       <use xlink:href="#DejaVuSans-32" x="445.3125"/>
       <use xlink:href="#DejaVuSans-32" x="508.935547"/>
      </g>
     </g>
    </g>
    <g id="xtick_9">
     <g id="line2d_17">
      <path d="M 347.972193 276.48 
L 347.972193 41.472 
" clip-path="url(#p6b6c8f3f57)" style="fill: none; stroke-dasharray: 2.96,1.28; stroke-dashoffset: 0; stroke: #808080; stroke-width: 0.8"/>
     </g>
     <g id="line2d_18">
      <g>
       <use xlink:href="#m4b13d4023d" x="347.972193" y="276.48" style="stroke: #000000; stroke-width: 0.8"/>
      </g>
     </g>
     <g id="text_9">
      <!-- 12.07.2022 -->
      <g transform="translate(297.346982 318.688565) rotate(-30) scale(0.1 -0.1)">
       <use xlink:href="#DejaVuSans-31"/>
       <use xlink:href="#DejaVuSans-32" x="63.623047"/>
       <use xlink:href="#DejaVuSans-2e" x="127.246094"/>
       <use xlink:href="#DejaVuSans-30" x="159.033203"/>
       <use xlink:href="#DejaVuSans-37" x="222.65625"/>
       <use xlink:href="#DejaVuSans-2e" x="286.279297"/>
       <use xlink:href="#DejaVuSans-32" x="318.066406"/>
       <use xlink:href="#DejaVuSans-30" x="381.689453"/>
       <use xlink:href="#DejaVuSans-32" x="445.3125"/>
       <use xlink:href="#DejaVuSans-32" x="508.935547"/>
      </g>
     </g>
    </g>
    <g id="xtick_10">
     <g id="line2d_19">
      <path d="M 383.938824 276.48 
L 383.938824 41.472 
" clip-path="url(#p6b6c8f3f57)" style="fill: none; stroke-dasharray: 2.96,1.28; stroke-dashoffset: 0; stroke: #808080; stroke-width: 0.8"/>
     </g>
     <g id="line2d_20">
      <g>
       <use xlink:href="#m4b13d4023d" x="383.938824" y="276.48" style="stroke: #000000; stroke-width: 0.8"/>
      </g>
     </g>
     <g id="text_10">
      <!-- 02.11.2022 -->
      <g transform="translate(333.313613 318.688565) rotate(-30) scale(0.1 -0.1)">
       <use xlink:href="#DejaVuSans-30"/>
       <use xlink:href="#DejaVuSans-32" x="63.623047"/>
       <use xlink:href="#DejaVuSans-2e" x="127.246094"/>
       <use xlink:href="#DejaVuSans-31" x="159.033203"/>
       <use xlink:href="#DejaVuSans-31" x="222.65625"/>
       <use xlink:href="#DejaVuSans-2e" x="286.279297"/>
       <use xlink:href="#DejaVuSans-32" x="318.066406"/>
       <use xlink:href="#DejaVuSans-30" x="381.689453"/>
       <use xlink:href="#DejaVuSans-32" x="445.3125"/>
       <use xlink:href="#DejaVuSans-32" x="508.935547"/>
      </g>
     </g>
    </g>
   </g>
   <g id="matplotlib.axis_2">
    <g id="ytick_1">
     <g id="line2d_21">
      <path d="M 57.6 265.797818 
L 414.72 265.797818 
" clip-path="url(#p6b6c8f3f57)" style="fill: none; stroke-dasharray: 2.96,1.28; stroke-dashoffset: 0; stroke: #808080; stroke-width: 0.8"/>
     </g>
     <g id="line2d_22">
      <defs>
       <path id="m03e9eb24e9" d="M 0 0 
L -3.5 0 
" style="stroke: #000000; stroke-width: 0.8"/>
      </defs>
      <g>
       <use xlink:href="#m03e9eb24e9" x="57.6" y="265.797818" style="stroke: #000000; stroke-width: 0.8"/>
      </g>
     </g>
     <g id="text_11">
      <!-- 0 -->
      <g transform="translate(44.2375 269.597037) scale(0.1 -0.1)">
       <use xlink:href="#DejaVuSans-30"/>
      </g>
     </g>
    </g>
    <g id="ytick_2">
     <g id="line2d_23">
      <path d="M 57.6 215.902867 
L 414.72 215.902867 
" clip-path="url(#p6b6c8f3f57)" style="fill: none; stroke-dasharray: 2.96,1.28; stroke-dashoffset: 0; stroke: #808080; stroke-width: 0.8"/>
     </g>
     <g id="line2d_24">
      <g>
       <use xlink:href="#m03e9eb24e9" x="57.6" y="215.902867" style="stroke: #000000; stroke-width: 0.8"/>
      </g>
     </g>
     <g id="text_12">
      <!-- 500 -->
      <g transform="translate(31.5125 219.702086) scale(0.1 -0.1)">
       <use xlink:href="#DejaVuSans-35"/>
       <use xlink:href="#DejaVuSans-30" x="63.623047"/>
       <use xlink:href="#DejaVuSans-30" x="127.246094"/>
      </g>
     </g>
    </g>
    <g id="ytick_3">
     <g id="line2d_25">
      <path d="M 57.6 166.007917 
L 414.72 166.007917 
" clip-path="url(#p6b6c8f3f57)" style="fill: none; stroke-dasharray: 2.96,1.28; stroke-dashoffset: 0; stroke: #808080; stroke-width: 0.8"/>
     </g>
     <g id="line2d_26">
      <g>
       <use xlink:href="#m03e9eb24e9" x="57.6" y="166.007917" style="stroke: #000000; stroke-width: 0.8"/>
      </g>
     </g>
     <g id="text_13">
      <!-- 1000 -->
      <g transform="translate(25.15 169.807135) scale(0.1 -0.1)">
       <use xlink:href="#DejaVuSans-31"/>
       <use xlink:href="#DejaVuSans-30" x="63.623047"/>
       <use xlink:href="#DejaVuSans-30" x="127.246094"/>
       <use xlink:href="#DejaVuSans-30" x="190.869141"/>
      </g>
     </g>
    </g>
    <g id="ytick_4">
     <g id="line2d_27">
      <path d="M 57.6 116.112966 
L 414.72 116.112966 
" clip-path="url(#p6b6c8f3f57)" style="fill: none; stroke-dasharray: 2.96,1.28; stroke-dashoffset: 0; stroke: #808080; stroke-width: 0.8"/>
     </g>
     <g id="line2d_28">
      <g>
       <use xlink:href="#m03e9eb24e9" x="57.6" y="116.112966" style="stroke: #000000; stroke-width: 0.8"/>
      </g>
     </g>
     <g id="text_14">
      <!-- 1500 -->
      <g transform="translate(25.15 119.912185) scale(0.1 -0.1)">
       <use xlink:href="#DejaVuSans-31"/>
       <use xlink:href="#DejaVuSans-35" x="63.623047"/>
       <use xlink:href="#DejaVuSans-30" x="127.246094"/>
       <use xlink:href="#DejaVuSans-30" x="190.869141"/>
      </g>
     </g>
    </g>
    <g id="ytick_5">
     <g id="line2d_29">
      <path d="M 57.6 66.218015 
L 414.72 66.218015 
" clip-path="url(#p6b6c8f3f57)" style="fill: none; stroke-dasharray: 2.96,1.28; stroke-dashoffset: 0; stroke: #808080; stroke-width: 0.8"/>
     </g>
     <g id="line2d_30">
      <g>
       <use xlink:href="#m03e9eb24e9" x="57.6" y="66.218015" style="stroke: #000000; stroke-width: 0.8"/>
      </g>
     </g>
     <g id="text_15">
      <!-- 2000 -->
      <g transform="translate(25.15 70.017234) scale(0.1 -0.1)">
       <use xlink:href="#DejaVuSans-32"/>
       <use xlink:href="#DejaVuSans-30" x="63.623047"/>
       <use xlink:href="#DejaVuSans-30" x="127.246094"/>
       <use xlink:href="#DejaVuSans-30" x="190.869141"/>
      </g>
     </g>
    </g>
    <g id="text_16">
     <!-- Inzidenz pro 7 Tage pro 100.000 Einwohner -->
     <g transform="translate(19.070312 267.301) rotate(-90) scale(0.1 -0.1)">
      <defs>
       <path id="DejaVuSans-49" d="M 628 4666 
L 1259 4666 
L 1259 0 
L 628 0 
L 628 4666 
z
" transform="scale(0.015625)"/>
       <path id="DejaVuSans-6e" d="M 3513 2113 
L 3513 0 
L 2938 0 
L 2938 2094 
Q 2938 2591 2744 2837 
Q 2550 3084 2163 3084 
Q 1697 3084 1428 2787 
Q 1159 2491 1159 1978 
L 1159 0 
L 581 0 
L 581 3500 
L 1159 3500 
L 1159 2956 
Q 1366 3272 1645 3428 
Q 1925 3584 2291 3584 
Q 2894 3584 3203 3211 
Q 3513 2838 3513 2113 
z
" transform="scale(0.015625)"/>
       <path id="DejaVuSans-7a" d="M 353 3500 
L 3084 3500 
L 3084 2975 
L 922 459 
L 3084 459 
L 3084 0 
L 275 0 
L 275 525 
L 2438 3041 
L 353 3041 
L 353 3500 
z
" transform="scale(0.015625)"/>
       <path id="DejaVuSans-69" d="M 603 3500 
L 1178 3500 
L 1178 0 
L 603 0 
L 603 3500 
z
M 603 4863 
L 1178 4863 
L 1178 4134 
L 603 4134 
L 603 4863 
z
" transform="scale(0.015625)"/>
       <path id="DejaVuSans-64" d="M 2906 2969 
L 2906 4863 
L 3481 4863 
L 3481 0 
L 2906 0 
L 2906 525 
Q 2725 213 2448 61 
Q 2172 -91 1784 -91 
Q 1150 -91 751 415 
Q 353 922 353 1747 
Q 353 2572 751 3078 
Q 1150 3584 1784 3584 
Q 2172 3584 2448 3432 
Q 2725 3281 2906 2969 
z
M 947 1747 
Q 947 1113 1208 752 
Q 1469 391 1925 391 
Q 2381 391 2643 752 
Q 2906 1113 2906 1747 
Q 2906 2381 2643 2742 
Q 2381 3103 1925 3103 
Q 1469 3103 1208 2742 
Q 947 2381 947 1747 
z
" transform="scale(0.015625)"/>
       <path id="DejaVuSans-65" d="M 3597 1894 
L 3597 1613 
L 953 1613 
Q 991 1019 1311 708 
Q 1631 397 2203 397 
Q 2534 397 2845 478 
Q 3156 559 3463 722 
L 3463 178 
Q 3153 47 2828 -22 
Q 2503 -91 2169 -91 
Q 1331 -91 842 396 
Q 353 884 353 1716 
Q 353 2575 817 3079 
Q 1281 3584 2069 3584 
Q 2775 3584 3186 3129 
Q 3597 2675 3597 1894 
z
M 3022 2063 
Q 3016 2534 2758 2815 
Q 2500 3097 2075 3097 
Q 1594 3097 1305 2825 
Q 1016 2553 972 2059 
L 3022 2063 
z
" transform="scale(0.015625)"/>
       <path id="DejaVuSans-20" transform="scale(0.015625)"/>
       <path id="DejaVuSans-70" d="M 1159 525 
L 1159 -1331 
L 581 -1331 
L 581 3500 
L 1159 3500 
L 1159 2969 
Q 1341 3281 1617 3432 
Q 1894 3584 2278 3584 
Q 2916 3584 3314 3078 
Q 3713 2572 3713 1747 
Q 3713 922 3314 415 
Q 2916 -91 2278 -91 
Q 1894 -91 1617 61 
Q 1341 213 1159 525 
z
M 3116 1747 
Q 3116 2381 2855 2742 
Q 2594 3103 2138 3103 
Q 1681 3103 1420 2742 
Q 1159 2381 1159 1747 
Q 1159 1113 1420 752 
Q 1681 391 2138 391 
Q 2594 391 2855 752 
Q 3116 1113 3116 1747 
z
" transform="scale(0.015625)"/>
       <path id="DejaVuSans-72" d="M 2631 2963 
Q 2534 3019 2420 3045 
Q 2306 3072 2169 3072 
Q 1681 3072 1420 2755 
Q 1159 2438 1159 1844 
L 1159 0 
L 581 0 
L 581 3500 
L 1159 3500 
L 1159 2956 
Q 1341 3275 1631 3429 
Q 1922 3584 2338 3584 
Q 2397 3584 2469 3576 
Q 2541 3569 2628 3553 
L 2631 2963 
z
" transform="scale(0.015625)"/>
       <path id="DejaVuSans-6f" d="M 1959 3097 
Q 1497 3097 1228 2736 
Q 959 2375 959 1747 
Q 959 1119 1226 758 
Q 1494 397 1959 397 
Q 2419 397 2687 759 
Q 2956 1122 2956 1747 
Q 2956 2369 2687 2733 
Q 2419 3097 1959 3097 
z
M 1959 3584 
Q 2709 3584 3137 3096 
Q 3566 2609 3566 1747 
Q 3566 888 3137 398 
Q 2709 -91 1959 -91 
Q 1206 -91 779 398 
Q 353 888 353 1747 
Q 353 2609 779 3096 
Q 1206 3584 1959 3584 
z
" transform="scale(0.015625)"/>
       <path id="DejaVuSans-54" d="M -19 4666 
L 3928 4666 
L 3928 4134 
L 2272 4134 
L 2272 0 
L 1638 0 
L 1638 4134 
L -19 4134 
L -19 4666 
z
" transform="scale(0.015625)"/>
       <path id="DejaVuSans-61" d="M 2194 1759 
Q 1497 1759 1228 1600 
Q 959 1441 959 1056 
Q 959 750 1161 570 
Q 1363 391 1709 391 
Q 2188 391 2477 730 
Q 2766 1069 2766 1631 
L 2766 1759 
L 2194 1759 
z
M 3341 1997 
L 3341 0 
L 2766 0 
L 2766 531 
Q 2569 213 2275 61 
Q 1981 -91 1556 -91 
Q 1019 -91 701 211 
Q 384 513 384 1019 
Q 384 1609 779 1909 
Q 1175 2209 1959 2209 
L 2766 2209 
L 2766 2266 
Q 2766 2663 2505 2880 
Q 2244 3097 1772 3097 
Q 1472 3097 1187 3025 
Q 903 2953 641 2809 
L 641 3341 
Q 956 3463 1253 3523 
Q 1550 3584 1831 3584 
Q 2591 3584 2966 3190 
Q 3341 2797 3341 1997 
z
" transform="scale(0.015625)"/>
       <path id="DejaVuSans-67" d="M 2906 1791 
Q 2906 2416 2648 2759 
Q 2391 3103 1925 3103 
Q 1463 3103 1205 2759 
Q 947 2416 947 1791 
Q 947 1169 1205 825 
Q 1463 481 1925 481 
Q 2391 481 2648 825 
Q 2906 1169 2906 1791 
z
M 3481 434 
Q 3481 -459 3084 -895 
Q 2688 -1331 1869 -1331 
Q 1566 -1331 1297 -1286 
Q 1028 -1241 775 -1147 
L 775 -588 
Q 1028 -725 1275 -790 
Q 1522 -856 1778 -856 
Q 2344 -856 2625 -561 
Q 2906 -266 2906 331 
L 2906 616 
Q 2728 306 2450 153 
Q 2172 0 1784 0 
Q 1141 0 747 490 
Q 353 981 353 1791 
Q 353 2603 747 3093 
Q 1141 3584 1784 3584 
Q 2172 3584 2450 3431 
Q 2728 3278 2906 2969 
L 2906 3500 
L 3481 3500 
L 3481 434 
z
" transform="scale(0.015625)"/>
       <path id="DejaVuSans-45" d="M 628 4666 
L 3578 4666 
L 3578 4134 
L 1259 4134 
L 1259 2753 
L 3481 2753 
L 3481 2222 
L 1259 2222 
L 1259 531 
L 3634 531 
L 3634 0 
L 628 0 
L 628 4666 
z
" transform="scale(0.015625)"/>
       <path id="DejaVuSans-77" d="M 269 3500 
L 844 3500 
L 1563 769 
L 2278 3500 
L 2956 3500 
L 3675 769 
L 4391 3500 
L 4966 3500 
L 4050 0 
L 3372 0 
L 2619 2869 
L 1863 0 
L 1184 0 
L 269 3500 
z
" transform="scale(0.015625)"/>
       <path id="DejaVuSans-68" d="M 3513 2113 
L 3513 0 
L 2938 0 
L 2938 2094 
Q 2938 2591 2744 2837 
Q 2550 3084 2163 3084 
Q 1697 3084 1428 2787 
Q 1159 2491 1159 1978 
L 1159 0 
L 581 0 
L 581 4863 
L 1159 4863 
L 1159 2956 
Q 1366 3272 1645 3428 
Q 1925 3584 2291 3584 
Q 2894 3584 3203 3211 
Q 3513 2838 3513 2113 
z
" transform="scale(0.015625)"/>
      </defs>
      <use xlink:href="#DejaVuSans-49"/>
      <use xlink:href="#DejaVuSans-6e" x="29.492188"/>
      <use xlink:href="#DejaVuSans-7a" x="92.871094"/>
      <use xlink:href="#DejaVuSans-69" x="145.361328"/>
      <use xlink:href="#DejaVuSans-64" x="173.144531"/>
      <use xlink:href="#DejaVuSans-65" x="236.621094"/>
      <use xlink:href="#DejaVuSans-6e" x="298.144531"/>
      <use xlink:href="#DejaVuSans-7a" x="361.523438"/>
      <use xlink:href="#DejaVuSans-20" x="414.013672"/>
      <use xlink:href="#DejaVuSans-70" x="445.800781"/>
      <use xlink:href="#DejaVuSans-72" x="509.277344"/>
      <use xlink:href="#DejaVuSans-6f" x="548.140625"/>
      <use xlink:href="#DejaVuSans-20" x="609.322266"/>
      <use xlink:href="#DejaVuSans-37" x="641.109375"/>
      <use xlink:href="#DejaVuSans-20" x="704.732422"/>
      <use xlink:href="#DejaVuSans-54" x="736.519531"/>
      <use xlink:href="#DejaVuSans-61" x="781.103516"/>
      <use xlink:href="#DejaVuSans-67" x="842.382812"/>
      <use xlink:href="#DejaVuSans-65" x="905.859375"/>
      <use xlink:href="#DejaVuSans-20" x="967.382812"/>
      <use xlink:href="#DejaVuSans-70" x="999.169922"/>
      <use xlink:href="#DejaVuSans-72" x="1062.646484"/>
      <use xlink:href="#DejaVuSans-6f" x="1101.509766"/>
      <use xlink:href="#DejaVuSans-20" x="1162.691406"/>
      <use xlink:href="#DejaVuSans-31" x="1194.478516"/>
      <use xlink:href="#DejaVuSans-30" x="1258.101562"/>
      <use xlink:href="#DejaVuSans-30" x="1321.724609"/>
      <use xlink:href="#DejaVuSans-2e" x="1385.347656"/>
      <use xlink:href="#DejaVuSans-30" x="1417.134766"/>
      <use xlink:href="#DejaVuSans-30" x="1480.757812"/>
      <use xlink:href="#DejaVuSans-30" x="1544.380859"/>
      <use xlink:href="#DejaVuSans-20" x="1608.003906"/>
      <use xlink:href="#DejaVuSans-45" x="1639.791016"/>
      <use xlink:href="#DejaVuSans-69" x="1702.974609"/>
      <use xlink:href="#DejaVuSans-6e" x="1730.757812"/>
      <use xlink:href="#DejaVuSans-77" x="1794.136719"/>
      <use xlink:href="#DejaVuSans-6f" x="1875.923828"/>
      <use xlink:href="#DejaVuSans-68" x="1937.105469"/>
      <use xlink:href="#DejaVuSans-6e" x="2000.484375"/>
      <use xlink:href="#DejaVuSans-65" x="2063.863281"/>
      <use xlink:href="#DejaVuSans-72" x="2125.386719"/>
     </g>
    </g>
   </g>
   <g id="line2d_31">
    <path d="M 73.832727 265.797818 
L 76.060749 265.733863 
L 77.333904 265.382107 
L 78.28877 264.998373 
L 78.607059 264.998373 
L 79.243636 264.358817 
L 79.880214 264.32684 
L 80.198503 263.975084 
L 80.516791 263.879151 
L 80.83508 263.59135 
L 81.153369 263.527395 
L 81.471658 263.271573 
L 81.789947 263.335528 
L 82.108235 262.951795 
L 83.063102 263.335528 
L 83.38139 263.271573 
L 83.699679 263.559373 
L 84.017968 263.271573 
L 84.972834 263.30355 
L 85.291123 263.079706 
L 86.245989 263.30355 
L 86.882567 263.719262 
L 87.200856 263.815195 
L 88.155722 264.742551 
L 88.474011 265.030351 
L 89.110588 265.19024 
L 89.428877 265.158262 
L 90.065455 264.838484 
L 90.383743 264.870462 
L 90.702032 264.710573 
L 92.293476 265.094307 
L 92.611765 265.062329 
L 92.930053 265.254196 
L 93.88492 265.286173 
L 94.521497 265.541996 
L 95.158075 265.573974 
L 95.794652 265.605951 
L 96.43123 265.541996 
L 97.386096 265.669907 
L 98.022674 265.637929 
L 98.97754 265.733863 
L 108.207914 265.637929 
L 108.844492 265.573974 
L 110.435936 265.573974 
L 111.072513 265.062329 
L 112.663957 264.966396 
L 113.300535 265.510018 
L 114.255401 265.573974 
L 114.57369 265.637929 
L 115.210267 265.573974 
L 117.756578 265.76584 
L 118.393155 265.669907 
L 123.804064 265.669907 
L 124.122353 265.47804 
L 124.75893 265.510018 
L 126.032086 265.094307 
L 126.350374 265.286173 
L 126.668663 265.158262 
L 126.986952 265.158262 
L 127.623529 264.774529 
L 128.260107 264.646618 
L 128.896684 264.518706 
L 129.214973 264.518706 
L 129.851551 264.678595 
L 130.488128 264.710573 
L 130.806417 264.550684 
L 131.124706 264.710573 
L 132.397861 264.61464 
L 132.71615 264.678595 
L 133.034439 264.934418 
L 133.352727 264.742551 
L 133.989305 264.838484 
L 134.944171 265.19024 
L 135.26246 264.90244 
L 136.217326 264.870462 
L 136.853904 264.32684 
L 137.80877 264.61464 
L 138.445348 264.550684 
L 139.081925 264.774529 
L 139.400214 264.710573 
L 140.036791 264.870462 
L 140.991658 264.710573 
L 141.309947 264.774529 
L 141.628235 264.582662 
L 143.856257 264.262884 
L 144.492834 263.367506 
L 144.811123 263.399484 
L 145.765989 262.695972 
L 146.084278 262.248283 
L 146.720856 262.472128 
L 147.039144 262.376194 
L 147.357433 261.960483 
L 148.312299 259.530171 
L 148.630588 258.602815 
L 149.267166 257.355681 
L 149.903743 255.05328 
L 150.222032 253.16659 
L 150.540321 252.814834 
L 150.85861 251.056056 
L 151.176898 250.032766 
L 151.495187 250.224633 
L 151.813476 250.832211 
L 152.131765 249.041455 
L 152.450053 250.032766 
L 152.768342 250.384522 
L 153.086631 251.631656 
L 153.40492 250.448477 
L 154.041497 250.832211 
L 154.359786 253.230545 
L 154.678075 252.047367 
L 154.996364 252.846812 
L 155.314652 252.463078 
L 155.632941 254.957346 
L 155.95123 255.245146 
L 156.587807 254.221857 
L 156.906096 255.532947 
L 157.224385 255.117235 
L 157.542674 255.277124 
L 157.860963 253.006701 
L 158.179251 252.750879 
L 158.49754 253.966035 
L 158.815829 254.701524 
L 159.134118 254.669546 
L 159.452406 254.381746 
L 159.770695 254.829435 
L 160.088984 256.620192 
L 160.407273 256.971947 
L 160.725561 256.939969 
L 161.04385 255.660858 
L 161.362139 255.309102 
L 161.680428 255.724813 
L 161.998717 255.756791 
L 162.317005 255.085257 
L 162.635294 253.998012 
L 162.953583 253.678235 
L 163.271872 254.285813 
L 163.59016 254.061968 
L 163.908449 253.550323 
L 164.226738 251.439789 
L 164.545027 252.207256 
L 165.181604 252.271212 
L 165.499893 251.439789 
L 166.136471 250.480455 
L 166.454759 251.695611 
L 166.773048 250.320566 
L 167.091337 250.960122 
L 167.409626 250.4165 
L 168.046203 250.896167 
L 168.364492 251.183967 
L 169.00107 255.437013 
L 169.319358 255.788769 
L 169.637647 255.756791 
L 170.274225 256.971947 
L 170.592513 256.876014 
L 170.910802 257.163814 
L 171.229091 257.195792 
L 171.54738 256.971947 
L 171.865668 257.643481 
L 172.502246 256.876014 
L 172.820535 258.059192 
L 173.138824 256.396347 
L 173.457112 255.692836 
L 173.775401 255.724813 
L 174.09369 255.437013 
L 174.730267 257.259747 
L 175.048556 257.163814 
L 175.366845 257.547548 
L 176.003422 257.51557 
L 176.321711 257.707437 
L 176.64 258.570837 
L 176.958289 258.858637 
L 177.276578 258.410948 
L 177.594866 258.794681 
L 177.913155 258.634793 
L 178.231444 258.794681 
L 178.549733 259.146437 
L 178.868021 258.794681 
L 179.18631 258.66677 
L 179.504599 259.050504 
L 179.822888 259.082482 
L 180.141176 259.594126 
L 180.777754 259.626104 
L 181.096043 259.658082 
L 182.050909 261.161038 
L 182.687487 260.809282 
L 183.005775 260.84126 
L 183.324064 261.12906 
L 183.642353 260.777305 
L 183.960642 261.161038 
L 184.27893 261.097083 
L 184.915508 261.384883 
L 185.233797 261.576749 
L 185.552086 261.608727 
L 185.870374 262.088394 
L 186.188663 261.576749 
L 187.143529 260.873238 
L 187.461818 260.777305 
L 187.780107 260.425549 
L 188.098396 260.777305 
L 188.416684 260.905216 
L 188.734973 261.224994 
L 189.68984 261.352905 
L 190.326417 259.945882 
L 190.644706 260.073793 
L 190.962995 258.95457 
L 191.599572 258.410948 
L 191.917861 257.51557 
L 192.23615 257.739414 
L 192.872727 256.332391 
L 193.191016 256.268436 
L 193.509305 255.564924 
L 193.827594 255.34108 
L 194.145882 255.724813 
L 194.464171 255.277124 
L 194.78246 254.637568 
L 195.100749 254.31779 
L 195.419037 254.861413 
L 196.373904 255.692836 
L 196.692193 255.500969 
L 197.010481 257.067881 
L 197.32877 257.451614 
L 197.647059 256.844036 
L 197.965348 256.78008 
L 198.283636 256.939969 
L 198.601925 256.556236 
L 198.920214 256.588214 
L 199.238503 255.309102 
L 199.556791 254.573613 
L 199.87508 254.445702 
L 200.193369 255.692836 
L 200.511658 255.309102 
L 200.829947 255.884702 
L 201.148235 257.131836 
L 201.466524 256.460303 
L 201.784813 255.437013 
L 202.103102 255.05328 
L 202.42139 252.942745 
L 202.739679 253.16659 
L 203.057968 252.559012 
L 203.376257 250.032766 
L 204.012834 251.024078 
L 204.649412 251.727589 
L 205.285989 251.791545 
L 205.604278 252.207256 
L 205.922567 250.832211 
L 206.559144 250.832211 
L 206.877433 250.288588 
L 207.195722 250.1287 
L 207.514011 249.553099 
L 207.832299 250.032766 
L 208.150588 250.9921 
L 208.468877 250.544411 
L 208.787166 250.864189 
L 209.105455 252.239234 
L 209.423743 251.951434 
L 209.742032 252.622967 
L 210.060321 252.910768 
L 210.37861 253.870101 
L 210.696898 255.34108 
L 211.015187 255.117235 
L 211.333476 254.669546 
L 211.651765 255.277124 
L 211.970053 255.437013 
L 212.606631 254.733502 
L 212.92492 255.245146 
L 213.243209 257.035903 
L 213.561497 258.059192 
L 214.198075 257.675459 
L 214.834652 260.009838 
L 215.152941 260.617416 
L 215.789519 259.530171 
L 216.107807 259.817971 
L 216.426096 260.329616 
L 216.744385 261.640705 
L 217.062674 262.216305 
L 217.380963 262.248283 
L 217.699251 262.536083 
L 218.01754 263.367506 
L 218.654118 263.335528 
L 218.972406 263.207617 
L 220.56385 264.071017 
L 221.200428 264.166951 
L 221.518717 264.486729 
L 221.837005 264.646618 
L 222.155294 264.934418 
L 222.791872 265.126285 
L 223.428449 265.286173 
L 224.701604 265.47804 
L 225.338182 265.446062 
L 225.656471 265.573974 
L 226.929626 265.541996 
L 227.566203 265.605951 
L 227.884492 265.318151 
L 228.52107 265.222218 
L 229.157647 264.870462 
L 230.112513 264.774529 
L 231.06738 264.390795 
L 233.295401 263.559373 
L 233.61369 263.719262 
L 233.931979 263.719262 
L 235.523422 264.678595 
L 236.478289 264.742551 
L 236.796578 264.61464 
L 238.388021 264.550684 
L 239.342888 263.847173 
L 239.661176 263.431461 
L 240.297754 263.111684 
L 240.616043 263.143661 
L 240.934332 263.30355 
L 241.25262 263.175639 
L 241.570909 263.239595 
L 241.889198 262.983772 
L 242.207487 262.887839 
L 242.525775 262.504105 
L 242.844064 262.312239 
L 243.480642 261.640705 
L 243.79893 261.480816 
L 244.117219 261.544772 
L 244.753797 261.033127 
L 245.072086 261.193016 
L 245.390374 261.480816 
L 245.708663 261.065105 
L 246.663529 260.777305 
L 246.981818 261.065105 
L 247.618396 261.065105 
L 247.936684 261.193016 
L 248.254973 260.361593 
L 249.20984 259.114459 
L 249.528128 259.082482 
L 249.846417 258.602815 
L 250.164706 257.899303 
L 250.482995 258.155126 
L 250.801283 258.602815 
L 251.437861 258.730726 
L 251.75615 258.506881 
L 252.074439 258.826659 
L 252.392727 258.570837 
L 252.711016 258.762704 
L 253.029305 258.315015 
L 253.347594 258.698748 
L 253.665882 258.37897 
L 253.984171 258.538859 
L 254.30246 258.474904 
L 254.620749 258.826659 
L 254.939037 258.634793 
L 255.257326 258.187103 
L 255.575615 258.123148 
L 255.893904 258.66677 
L 256.212193 258.474904 
L 256.530481 258.698748 
L 256.84877 258.346992 
L 257.485348 259.242371 
L 257.803636 259.114459 
L 258.121925 259.274348 
L 258.440214 259.562149 
L 258.758503 259.40226 
L 259.076791 260.233682 
L 259.39508 259.466215 
L 259.713369 259.69006 
L 260.031658 259.466215 
L 260.349947 258.602815 
L 260.668235 258.283037 
L 260.986524 258.346992 
L 261.304813 257.547548 
L 261.623102 257.835348 
L 261.94139 257.067881 
L 262.577968 256.140525 
L 263.214545 256.140525 
L 263.851123 254.157901 
L 264.487701 253.262523 
L 264.805989 253.038679 
L 265.124278 253.134612 
L 265.442567 252.495056 
L 266.079144 250.1287 
L 266.397433 249.585077 
L 266.715722 249.649033 
L 267.034011 248.689699 
L 267.352299 248.625743 
L 267.670588 249.265299 
L 267.988877 252.559012 
L 268.307166 251.887478 
L 268.943743 248.881566 
L 269.580321 247.538498 
L 269.89861 244.660497 
L 270.216898 238.96845 
L 270.535187 236.058471 
L 271.171765 233.532225 
L 271.490053 233.372336 
L 271.808342 231.613557 
L 272.126631 232.956625 
L 272.44492 231.293779 
L 273.399786 228.415778 
L 273.718075 225.473821 
L 274.036364 227.008755 
L 274.354652 225.665688 
L 274.672941 226.625022 
L 274.99123 228.767534 
L 275.309519 228.415778 
L 275.627807 228.415778 
L 275.946096 230.046645 
L 276.264385 228.767534 
L 276.582674 229.439067 
L 276.900963 228.735556 
L 277.219251 228.319845 
L 277.855829 229.69489 
L 278.174118 229.279178 
L 278.492406 230.494334 
L 278.810695 231.229824 
L 279.447273 233.180469 
L 279.765561 233.30838 
L 280.08385 234.33167 
L 280.402139 234.459581 
L 280.720428 234.90727 
L 281.038717 235.163092 
L 281.357005 235.930559 
L 281.675294 234.971226 
L 282.311872 236.570115 
L 282.63016 238.009116 
L 282.948449 238.23296 
L 283.266738 237.433516 
L 283.585027 237.529449 
L 284.221604 240.087672 
L 284.539893 239.959761 
L 284.858182 242.86974 
L 285.494759 242.29414 
L 285.813048 241.750518 
L 286.131337 242.677874 
L 286.449626 242.102273 
L 286.767914 238.23296 
L 287.086203 238.105049 
L 287.404492 237.785271 
L 287.722781 237.241649 
L 288.04107 234.107825 
L 288.359358 229.215223 
L 288.677647 226.401177 
L 288.995936 231.165868 
L 289.314225 225.313932 
L 289.632513 223.075486 
L 289.950802 221.764397 
L 290.58738 214.569393 
L 290.905668 211.307659 
L 291.223957 205.040011 
L 291.542246 202.993432 
L 292.178824 204.080677 
L 292.815401 196.50194 
L 293.770267 178.594376 
L 294.088556 177.155375 
L 294.725134 171.591239 
L 295.361711 158.096611 
L 295.68 156.337832 
L 295.998289 157.776833 
L 296.316578 156.721566 
L 296.634866 150.869629 
L 296.953155 153.747631 
L 297.908021 132.738221 
L 298.22631 135.3604 
L 298.544599 125.79904 
L 298.862888 126.310684 
L 299.181176 115.406257 
L 299.499465 119.307548 
L 299.817754 125.031573 
L 300.136043 122.31346 
L 300.454332 122.60126 
L 300.77262 127.397929 
L 301.090909 124.392017 
L 301.409198 123.976305 
L 301.727487 128.900885 
L 302.045775 129.444508 
L 302.364064 134.528977 
L 302.682353 129.860219 
L 303.000642 129.348575 
L 303.637219 139.165757 
L 303.955508 141.212336 
L 304.273797 146.80845 
L 304.592086 148.311406 
L 304.910374 152.084786 
L 305.228663 154.163342 
L 305.546952 153.140053 
L 305.865241 156.018054 
L 306.183529 156.305854 
L 306.820107 149.430629 
L 307.138396 141.755958 
L 307.456684 141.468158 
L 307.774973 139.549491 
L 308.411551 104.661718 
L 308.72984 96.603314 
L 309.366417 74.986326 
L 309.684706 72.268214 
L 310.321283 63.794099 
L 310.639572 60.72423 
L 310.957861 56.055473 
L 311.27615 55.383939 
L 311.594439 56.279317 
L 311.912727 55.959539 
L 312.231016 52.154182 
L 312.549305 56.758984 
L 312.867594 52.441982 
L 313.185882 55.639761 
L 313.504171 63.826076 
L 313.82246 65.265077 
L 314.140749 77.352683 
L 314.459037 77.896305 
L 314.777326 79.239373 
L 315.095615 95.132336 
L 315.732193 108.211253 
L 316.050481 120.266881 
L 316.36877 120.266881 
L 316.687059 124.519928 
L 317.005348 139.677402 
L 317.641925 151.349296 
L 317.960214 153.61972 
L 318.278503 157.872766 
L 318.596791 157.840788 
L 318.91508 157.457055 
L 319.869947 164.811947 
L 320.188235 170.535972 
L 320.506524 181.632266 
L 320.824813 181.664244 
L 321.143102 198.996208 
L 321.46139 185.469602 
L 321.779679 185.565535 
L 322.097968 187.548158 
L 322.416257 186.269046 
L 322.734545 177.539109 
L 323.052834 177.539109 
L 323.371123 164.716014 
L 323.689412 182.335778 
L 324.007701 190.042426 
L 324.325989 192.057027 
L 324.644278 196.949629 
L 324.962567 198.132808 
L 325.280856 198.132808 
L 325.917433 206.479012 
L 326.235722 207.726146 
L 326.554011 211.14777 
L 326.872299 211.083814 
L 327.190588 213.450171 
L 327.508877 213.450171 
L 327.827166 215.592683 
L 328.145455 215.464772 
L 329.100321 222.308019 
L 329.41861 222.084175 
L 330.055187 222.052197 
L 330.373476 227.424466 
L 331.010053 232.508935 
L 331.328342 233.915958 
L 331.646631 236.666049 
L 331.96492 236.666049 
L 332.283209 238.808561 
L 332.919786 241.206895 
L 333.238075 245.236097 
L 333.556364 244.564563 
L 333.874652 245.204119 
L 334.192941 244.020941 
L 334.51123 245.204119 
L 334.829519 244.948297 
L 335.147807 244.884341 
L 335.466096 238.584716 
L 335.784385 237.785271 
L 336.102674 236.154404 
L 336.420963 236.346271 
L 336.739251 239.416139 
L 337.05754 238.137027 
L 337.375829 233.852003 
L 337.694118 232.828713 
L 338.012406 230.206534 
L 338.330695 228.863467 
L 338.648984 228.223911 
L 338.967273 220.70913 
L 339.285561 218.854418 
L 339.60385 218.662551 
L 339.922139 225.985466 
L 340.240428 223.491198 
L 340.877005 226.880844 
L 341.195294 222.276042 
L 341.831872 209.229102 
L 342.15016 194.998984 
L 342.468449 196.310074 
L 342.786738 193.623939 
L 343.105027 188.315625 
L 343.423316 192.089005 
L 343.741604 191.321538 
L 344.059893 191.513405 
L 344.378182 190.905827 
L 345.014759 185.78938 
L 345.333048 186.748713 
L 345.651337 187.324314 
L 345.969626 185.05389 
L 346.287914 183.998623 
L 346.606203 182.111933 
L 346.924492 181.4404 
L 347.242781 190.106382 
L 347.56107 194.455362 
L 347.879358 179.84151 
L 348.197647 178.562398 
L 348.515936 178.114709 
L 348.834225 182.559622 
L 349.152513 180.768866 
L 349.789091 180.768866 
L 350.10738 178.178665 
L 350.425668 179.937443 
L 350.743957 184.894001 
L 351.062246 184.350379 
L 351.380535 187.740025 
L 351.698824 183.199178 
L 352.017112 183.199178 
L 352.335401 194.295473 
L 352.65369 196.150185 
L 352.971979 193.144272 
L 353.290267 192.760539 
L 353.926845 193.943717 
L 354.563422 193.847783 
L 355.2 209.804702 
L 355.836578 221.668464 
L 356.154866 222.244064 
L 356.473155 222.244064 
L 356.791444 230.078623 
L 357.109733 232.317069 
L 357.428021 233.212447 
L 358.064599 237.465493 
L 358.382888 238.936472 
L 358.701176 238.936472 
L 359.019465 239.576028 
L 360.29262 244.884341 
L 360.610909 245.076208 
L 360.929198 245.076208 
L 361.247487 246.515209 
L 362.202353 248.305965 
L 362.520642 248.52981 
L 363.157219 248.497832 
L 363.475508 249.009477 
L 363.793797 248.945521 
L 364.112086 247.698387 
L 364.430374 247.986187 
L 364.748663 247.634432 
L 365.066952 249.265299 
L 365.385241 249.265299 
L 365.703529 246.866965 
L 366.021818 247.122787 
L 366.340107 246.962898 
L 366.976684 246.291364 
L 367.613262 246.323342 
L 367.931551 246.994876 
L 368.24984 246.099498 
L 368.568128 246.834987 
L 368.886417 246.06752 
L 369.522995 246.163453 
L 369.841283 246.163453 
L 370.79615 242.677874 
L 371.432727 240.631295 
L 372.069305 240.631295 
L 373.660749 226.78491 
L 374.297326 226.78491 
L 374.615615 236.090448 
L 375.252193 217.22355 
L 375.88877 199.795653 
L 376.525348 199.795653 
L 376.843636 176.643731 
L 377.161925 182.399734 
L 377.480214 180.385133 
L 378.116791 191.129671 
L 378.753369 191.129671 
L 379.071658 194.487339 
L 379.389947 195.510629 
L 379.708235 200.531142 
L 380.026524 202.098054 
L 380.344813 204.432433 
L 380.98139 204.432433 
L 381.617968 213.705993 
L 381.936257 216.136305 
L 382.254545 219.813752 
L 382.572834 221.28473 
L 383.209412 221.28473 
L 383.527701 227.616333 
L 383.845989 236.857915 
L 384.164278 239.735917 
L 384.482567 240.247561 
L 384.800856 241.878429 
L 385.437433 241.878429 
L 385.755722 243.093585 
L 386.074011 239.000427 
L 386.710588 243.637207 
L 387.028877 245.268075 
L 387.665455 245.268075 
L 387.983743 246.707076 
L 388.302032 246.962898 
L 388.620321 247.602454 
L 388.93861 247.762343 
L 389.256898 247.50652 
L 389.893476 247.50652 
L 390.211765 248.018165 
L 390.530053 248.178054 
L 390.848342 248.114099 
L 391.48492 249.39321 
L 392.121497 249.39321 
L 392.439786 249.936833 
L 393.076364 251.951434 
L 393.394652 251.631656 
L 393.712941 251.759567 
L 394.349519 251.759567 
L 394.667807 252.207256 
L 394.986096 251.375833 
L 395.304385 250.928144 
L 395.622674 251.088033 
L 395.940963 250.544411 
L 396.57754 250.544411 
L 396.895829 248.945521 
L 397.214118 249.233321 
L 397.532406 248.593765 
L 397.850695 248.881566 
L 398.168984 248.753654 
L 398.487273 248.753654 
L 398.487273 248.753654 
" clip-path="url(#p6b6c8f3f57)" style="fill: none; stroke: #1f77b4; stroke-width: 1.5; stroke-linecap: square"/>
   </g>
   <g id="patch_3">
    <path d="M 57.6 276.48 
L 57.6 41.472 
" style="fill: none; stroke: #000000; stroke-width: 0.8; stroke-linejoin: miter; stroke-linecap: square"/>
   </g>
   <g id="patch_4">
    <path d="M 414.72 276.48 
L 414.72 41.472 
" style="fill: none; stroke: #000000; stroke-width: 0.8; stroke-linejoin: miter; stroke-linecap: square"/>
   </g>
   <g id="patch_5">
    <path d="M 57.6 276.48 
L 414.72 276.48 
" style="fill: none; stroke: #000000; stroke-width: 0.8; stroke-linejoin: miter; stroke-linecap: square"/>
   </g>
   <g id="patch_6">
    <path d="M 57.6 41.472 
L 414.72 41.472 
" style="fill: none; stroke: #000000; stroke-width: 0.8; stroke-linejoin: miter; stroke-linecap: square"/>
   </g>
  </g>
  <g id="text_17">
   <!-- Inzidenzverlauf SK Karlsruhe -->
   <g transform="translate(101.556563 20.589187) scale(0.18 -0.18)">
    <defs>
     <path id="DejaVuSans-76" d="M 191 3500 
L 800 3500 
L 1894 563 
L 2988 3500 
L 3597 3500 
L 2284 0 
L 1503 0 
L 191 3500 
z
" transform="scale(0.015625)"/>
     <path id="DejaVuSans-6c" d="M 603 4863 
L 1178 4863 
L 1178 0 
L 603 0 
L 603 4863 
z
" transform="scale(0.015625)"/>
     <path id="DejaVuSans-75" d="M 544 1381 
L 544 3500 
L 1119 3500 
L 1119 1403 
Q 1119 906 1312 657 
Q 1506 409 1894 409 
Q 2359 409 2629 706 
Q 2900 1003 2900 1516 
L 2900 3500 
L 3475 3500 
L 3475 0 
L 2900 0 
L 2900 538 
Q 2691 219 2414 64 
Q 2138 -91 1772 -91 
Q 1169 -91 856 284 
Q 544 659 544 1381 
z
M 1991 3584 
L 1991 3584 
z
" transform="scale(0.015625)"/>
     <path id="DejaVuSans-66" d="M 2375 4863 
L 2375 4384 
L 1825 4384 
Q 1516 4384 1395 4259 
Q 1275 4134 1275 3809 
L 1275 3500 
L 2222 3500 
L 2222 3053 
L 1275 3053 
L 1275 0 
L 697 0 
L 697 3053 
L 147 3053 
L 147 3500 
L 697 3500 
L 697 3744 
Q 697 4328 969 4595 
Q 1241 4863 1831 4863 
L 2375 4863 
z
" transform="scale(0.015625)"/>
     <path id="DejaVuSans-53" d="M 3425 4513 
L 3425 3897 
Q 3066 4069 2747 4153 
Q 2428 4238 2131 4238 
Q 1616 4238 1336 4038 
Q 1056 3838 1056 3469 
Q 1056 3159 1242 3001 
Q 1428 2844 1947 2747 
L 2328 2669 
Q 3034 2534 3370 2195 
Q 3706 1856 3706 1288 
Q 3706 609 3251 259 
Q 2797 -91 1919 -91 
Q 1588 -91 1214 -16 
Q 841 59 441 206 
L 441 856 
Q 825 641 1194 531 
Q 1563 422 1919 422 
Q 2459 422 2753 634 
Q 3047 847 3047 1241 
Q 3047 1584 2836 1778 
Q 2625 1972 2144 2069 
L 1759 2144 
Q 1053 2284 737 2584 
Q 422 2884 422 3419 
Q 422 4038 858 4394 
Q 1294 4750 2059 4750 
Q 2388 4750 2728 4690 
Q 3069 4631 3425 4513 
z
" transform="scale(0.015625)"/>
     <path id="DejaVuSans-4b" d="M 628 4666 
L 1259 4666 
L 1259 2694 
L 3353 4666 
L 4166 4666 
L 1850 2491 
L 4331 0 
L 3500 0 
L 1259 2247 
L 1259 0 
L 628 0 
L 628 4666 
z
" transform="scale(0.015625)"/>
     <path id="DejaVuSans-73" d="M 2834 3397 
L 2834 2853 
Q 2591 2978 2328 3040 
Q 2066 3103 1784 3103 
Q 1356 3103 1142 2972 
Q 928 2841 928 2578 
Q 928 2378 1081 2264 
Q 1234 2150 1697 2047 
L 1894 2003 
Q 2506 1872 2764 1633 
Q 3022 1394 3022 966 
Q 3022 478 2636 193 
Q 2250 -91 1575 -91 
Q 1294 -91 989 -36 
Q 684 19 347 128 
L 347 722 
Q 666 556 975 473 
Q 1284 391 1588 391 
Q 1994 391 2212 530 
Q 2431 669 2431 922 
Q 2431 1156 2273 1281 
Q 2116 1406 1581 1522 
L 1381 1569 
Q 847 1681 609 1914 
Q 372 2147 372 2553 
Q 372 3047 722 3315 
Q 1072 3584 1716 3584 
Q 2034 3584 2315 3537 
Q 2597 3491 2834 3397 
z
" transform="scale(0.015625)"/>
    </defs>
    <use xlink:href="#DejaVuSans-49"/>
    <use xlink:href="#DejaVuSans-6e" x="29.492188"/>
    <use xlink:href="#DejaVuSans-7a" x="92.871094"/>
    <use xlink:href="#DejaVuSans-69" x="145.361328"/>
    <use xlink:href="#DejaVuSans-64" x="173.144531"/>
    <use xlink:href="#DejaVuSans-65" x="236.621094"/>
    <use xlink:href="#DejaVuSans-6e" x="298.144531"/>
    <use xlink:href="#DejaVuSans-7a" x="361.523438"/>
    <use xlink:href="#DejaVuSans-76" x="414.013672"/>
    <use xlink:href="#DejaVuSans-65" x="473.193359"/>
    <use xlink:href="#DejaVuSans-72" x="534.716797"/>
    <use xlink:href="#DejaVuSans-6c" x="575.830078"/>
    <use xlink:href="#DejaVuSans-61" x="603.613281"/>
    <use xlink:href="#DejaVuSans-75" x="664.892578"/>
    <use xlink:href="#DejaVuSans-66" x="728.271484"/>
    <use xlink:href="#DejaVuSans-20" x="763.476562"/>
    <use xlink:href="#DejaVuSans-53" x="795.263672"/>
    <use xlink:href="#DejaVuSans-4b" x="858.740234"/>
    <use xlink:href="#DejaVuSans-20" x="924.316406"/>
    <use xlink:href="#DejaVuSans-4b" x="956.103516"/>
    <use xlink:href="#DejaVuSans-61" x="1019.929688"/>
    <use xlink:href="#DejaVuSans-72" x="1081.208984"/>
    <use xlink:href="#DejaVuSans-6c" x="1122.322266"/>
    <use xlink:href="#DejaVuSans-73" x="1150.105469"/>
    <use xlink:href="#DejaVuSans-72" x="1202.205078"/>
    <use xlink:href="#DejaVuSans-75" x="1243.318359"/>
    <use xlink:href="#DejaVuSans-68" x="1306.697266"/>
    <use xlink:href="#DejaVuSans-65" x="1370.076172"/>
   </g>
  </g>
 </g>
 <defs>
  <clipPath id="p6b6c8f3f57">
   <rect x="57.6" y="41.472" width="357.12" height="235.008"/>
  </clipPath>
 </defs>
</svg>
