<?xml version="1.0" encoding="utf-8" standalone="no"?>
<!DOCTYPE svg PUBLIC "-//W3C//DTD SVG 1.1//EN"
  "http://www.w3.org/Graphics/SVG/1.1/DTD/svg11.dtd">
<svg xmlns:xlink="http://www.w3.org/1999/xlink" width="460.8pt" height="345.6pt" viewBox="0 0 460.8 345.6" xmlns="http://www.w3.org/2000/svg" version="1.1">
 <metadata>
  <rdf:RDF xmlns:dc="http://purl.org/dc/elements/1.1/" xmlns:cc="http://creativecommons.org/ns#" xmlns:rdf="http://www.w3.org/1999/02/22-rdf-syntax-ns#">
   <cc:Work>
    <dc:type rdf:resource="http://purl.org/dc/dcmitype/StillImage"/>
    <dc:date>2022-08-12T09:22:21.302771</dc:date>
    <dc:format>image/svg+xml</dc:format>
    <dc:creator>
     <cc:Agent>
      <dc:title>Matplotlib v3.5.3, https://matplotlib.org/</dc:title>
     </cc:Agent>
    </dc:creator>
   </cc:Work>
  </rdf:RDF>
 </metadata>
 <defs>
  <style type="text/css">*{stroke-linejoin: round; stroke-linecap: butt}</style>
 </defs>
 <g id="figure_1">
  <g id="patch_1">
   <path d="M 0 345.6 
L 460.8 345.6 
L 460.8 0 
L 0 0 
z
" style="fill: #ffffff"/>
  </g>
  <g id="axes_1">
   <g id="patch_2">
    <path d="M 57.6 276.48 
L 414.72 276.48 
L 414.72 41.472 
L 57.6 41.472 
z
" style="fill: #ffffff"/>
   </g>
   <g id="matplotlib.axis_1">
    <g id="xtick_1">
     <g id="line2d_1">
      <path d="M 60.108308 276.48 
L 60.108308 41.472 
" clip-path="url(#p3815991e2d)" style="fill: none; stroke-dasharray: 2.96,1.28; stroke-dashoffset: 0; stroke: #808080; stroke-width: 0.8"/>
     </g>
     <g id="line2d_2">
      <defs>
       <path id="m71687612e9" d="M 0 0 
L 0 3.5 
" style="stroke: #000000; stroke-width: 0.8"/>
      </defs>
      <g>
       <use xlink:href="#m71687612e9" x="60.108308" y="276.48" style="stroke: #000000; stroke-width: 0.8"/>
      </g>
     </g>
     <g id="text_1">
      <!-- 25.01.2020 -->
      <g transform="translate(9.483097 318.688565)rotate(-30)scale(0.1 -0.1)">
       <defs>
        <path id="DejaVuSans-32" d="M 1228 531 
L 3431 531 
L 3431 0 
L 469 0 
L 469 531 
Q 828 903 1448 1529 
Q 2069 2156 2228 2338 
Q 2531 2678 2651 2914 
Q 2772 3150 2772 3378 
Q 2772 3750 2511 3984 
Q 2250 4219 1831 4219 
Q 1534 4219 1204 4116 
Q 875 4013 500 3803 
L 500 4441 
Q 881 4594 1212 4672 
Q 1544 4750 1819 4750 
Q 2544 4750 2975 4387 
Q 3406 4025 3406 3419 
Q 3406 3131 3298 2873 
Q 3191 2616 2906 2266 
Q 2828 2175 2409 1742 
Q 1991 1309 1228 531 
z
" transform="scale(0.015625)"/>
        <path id="DejaVuSans-35" d="M 691 4666 
L 3169 4666 
L 3169 4134 
L 1269 4134 
L 1269 2991 
Q 1406 3038 1543 3061 
Q 1681 3084 1819 3084 
Q 2600 3084 3056 2656 
Q 3513 2228 3513 1497 
Q 3513 744 3044 326 
Q 2575 -91 1722 -91 
Q 1428 -91 1123 -41 
Q 819 9 494 109 
L 494 744 
Q 775 591 1075 516 
Q 1375 441 1709 441 
Q 2250 441 2565 725 
Q 2881 1009 2881 1497 
Q 2881 1984 2565 2268 
Q 2250 2553 1709 2553 
Q 1456 2553 1204 2497 
Q 953 2441 691 2322 
L 691 4666 
z
" transform="scale(0.015625)"/>
        <path id="DejaVuSans-2e" d="M 684 794 
L 1344 794 
L 1344 0 
L 684 0 
L 684 794 
z
" transform="scale(0.015625)"/>
        <path id="DejaVuSans-30" d="M 2034 4250 
Q 1547 4250 1301 3770 
Q 1056 3291 1056 2328 
Q 1056 1369 1301 889 
Q 1547 409 2034 409 
Q 2525 409 2770 889 
Q 3016 1369 3016 2328 
Q 3016 3291 2770 3770 
Q 2525 4250 2034 4250 
z
M 2034 4750 
Q 2819 4750 3233 4129 
Q 3647 3509 3647 2328 
Q 3647 1150 3233 529 
Q 2819 -91 2034 -91 
Q 1250 -91 836 529 
Q 422 1150 422 2328 
Q 422 3509 836 4129 
Q 1250 4750 2034 4750 
z
" transform="scale(0.015625)"/>
        <path id="DejaVuSans-31" d="M 794 531 
L 1825 531 
L 1825 4091 
L 703 3866 
L 703 4441 
L 1819 4666 
L 2450 4666 
L 2450 531 
L 3481 531 
L 3481 0 
L 794 0 
L 794 531 
z
" transform="scale(0.015625)"/>
       </defs>
       <use xlink:href="#DejaVuSans-32"/>
       <use xlink:href="#DejaVuSans-35" x="63.623047"/>
       <use xlink:href="#DejaVuSans-2e" x="127.246094"/>
       <use xlink:href="#DejaVuSans-30" x="159.033203"/>
       <use xlink:href="#DejaVuSans-31" x="222.65625"/>
       <use xlink:href="#DejaVuSans-2e" x="286.279297"/>
       <use xlink:href="#DejaVuSans-32" x="318.066406"/>
       <use xlink:href="#DejaVuSans-30" x="381.689453"/>
       <use xlink:href="#DejaVuSans-32" x="445.3125"/>
       <use xlink:href="#DejaVuSans-30" x="508.935547"/>
      </g>
     </g>
    </g>
    <g id="xtick_2">
     <g id="line2d_3">
      <path d="M 96.140595 276.48 
L 96.140595 41.472 
" clip-path="url(#p3815991e2d)" style="fill: none; stroke-dasharray: 2.96,1.28; stroke-dashoffset: 0; stroke: #808080; stroke-width: 0.8"/>
     </g>
     <g id="line2d_4">
      <g>
       <use xlink:href="#m71687612e9" x="96.140595" y="276.48" style="stroke: #000000; stroke-width: 0.8"/>
      </g>
     </g>
     <g id="text_2">
      <!-- 03.05.2020 -->
      <g transform="translate(45.515384 318.688565)rotate(-30)scale(0.1 -0.1)">
       <defs>
        <path id="DejaVuSans-33" d="M 2597 2516 
Q 3050 2419 3304 2112 
Q 3559 1806 3559 1356 
Q 3559 666 3084 287 
Q 2609 -91 1734 -91 
Q 1441 -91 1130 -33 
Q 819 25 488 141 
L 488 750 
Q 750 597 1062 519 
Q 1375 441 1716 441 
Q 2309 441 2620 675 
Q 2931 909 2931 1356 
Q 2931 1769 2642 2001 
Q 2353 2234 1838 2234 
L 1294 2234 
L 1294 2753 
L 1863 2753 
Q 2328 2753 2575 2939 
Q 2822 3125 2822 3475 
Q 2822 3834 2567 4026 
Q 2313 4219 1838 4219 
Q 1578 4219 1281 4162 
Q 984 4106 628 3988 
L 628 4550 
Q 988 4650 1302 4700 
Q 1616 4750 1894 4750 
Q 2613 4750 3031 4423 
Q 3450 4097 3450 3541 
Q 3450 3153 3228 2886 
Q 3006 2619 2597 2516 
z
" transform="scale(0.015625)"/>
       </defs>
       <use xlink:href="#DejaVuSans-30"/>
       <use xlink:href="#DejaVuSans-33" x="63.623047"/>
       <use xlink:href="#DejaVuSans-2e" x="127.246094"/>
       <use xlink:href="#DejaVuSans-30" x="159.033203"/>
       <use xlink:href="#DejaVuSans-35" x="222.65625"/>
       <use xlink:href="#DejaVuSans-2e" x="286.279297"/>
       <use xlink:href="#DejaVuSans-32" x="318.066406"/>
       <use xlink:href="#DejaVuSans-30" x="381.689453"/>
       <use xlink:href="#DejaVuSans-32" x="445.3125"/>
       <use xlink:href="#DejaVuSans-30" x="508.935547"/>
      </g>
     </g>
    </g>
    <g id="xtick_3">
     <g id="line2d_5">
      <path d="M 132.172882 276.48 
L 132.172882 41.472 
" clip-path="url(#p3815991e2d)" style="fill: none; stroke-dasharray: 2.96,1.28; stroke-dashoffset: 0; stroke: #808080; stroke-width: 0.8"/>
     </g>
     <g id="line2d_6">
      <g>
       <use xlink:href="#m71687612e9" x="132.172882" y="276.48" style="stroke: #000000; stroke-width: 0.8"/>
      </g>
     </g>
     <g id="text_3">
      <!-- 10.08.2020 -->
      <g transform="translate(81.547671 318.688565)rotate(-30)scale(0.1 -0.1)">
       <defs>
        <path id="DejaVuSans-38" d="M 2034 2216 
Q 1584 2216 1326 1975 
Q 1069 1734 1069 1313 
Q 1069 891 1326 650 
Q 1584 409 2034 409 
Q 2484 409 2743 651 
Q 3003 894 3003 1313 
Q 3003 1734 2745 1975 
Q 2488 2216 2034 2216 
z
M 1403 2484 
Q 997 2584 770 2862 
Q 544 3141 544 3541 
Q 544 4100 942 4425 
Q 1341 4750 2034 4750 
Q 2731 4750 3128 4425 
Q 3525 4100 3525 3541 
Q 3525 3141 3298 2862 
Q 3072 2584 2669 2484 
Q 3125 2378 3379 2068 
Q 3634 1759 3634 1313 
Q 3634 634 3220 271 
Q 2806 -91 2034 -91 
Q 1263 -91 848 271 
Q 434 634 434 1313 
Q 434 1759 690 2068 
Q 947 2378 1403 2484 
z
M 1172 3481 
Q 1172 3119 1398 2916 
Q 1625 2713 2034 2713 
Q 2441 2713 2670 2916 
Q 2900 3119 2900 3481 
Q 2900 3844 2670 4047 
Q 2441 4250 2034 4250 
Q 1625 4250 1398 4047 
Q 1172 3844 1172 3481 
z
" transform="scale(0.015625)"/>
       </defs>
       <use xlink:href="#DejaVuSans-31"/>
       <use xlink:href="#DejaVuSans-30" x="63.623047"/>
       <use xlink:href="#DejaVuSans-2e" x="127.246094"/>
       <use xlink:href="#DejaVuSans-30" x="159.033203"/>
       <use xlink:href="#DejaVuSans-38" x="222.65625"/>
       <use xlink:href="#DejaVuSans-2e" x="286.279297"/>
       <use xlink:href="#DejaVuSans-32" x="318.066406"/>
       <use xlink:href="#DejaVuSans-30" x="381.689453"/>
       <use xlink:href="#DejaVuSans-32" x="445.3125"/>
       <use xlink:href="#DejaVuSans-30" x="508.935547"/>
      </g>
     </g>
    </g>
    <g id="xtick_4">
     <g id="line2d_7">
      <path d="M 168.205169 276.48 
L 168.205169 41.472 
" clip-path="url(#p3815991e2d)" style="fill: none; stroke-dasharray: 2.96,1.28; stroke-dashoffset: 0; stroke: #808080; stroke-width: 0.8"/>
     </g>
     <g id="line2d_8">
      <g>
       <use xlink:href="#m71687612e9" x="168.205169" y="276.48" style="stroke: #000000; stroke-width: 0.8"/>
      </g>
     </g>
     <g id="text_4">
      <!-- 17.11.2020 -->
      <g transform="translate(117.579958 318.688565)rotate(-30)scale(0.1 -0.1)">
       <defs>
        <path id="DejaVuSans-37" d="M 525 4666 
L 3525 4666 
L 3525 4397 
L 1831 0 
L 1172 0 
L 2766 4134 
L 525 4134 
L 525 4666 
z
" transform="scale(0.015625)"/>
       </defs>
       <use xlink:href="#DejaVuSans-31"/>
       <use xlink:href="#DejaVuSans-37" x="63.623047"/>
       <use xlink:href="#DejaVuSans-2e" x="127.246094"/>
       <use xlink:href="#DejaVuSans-31" x="159.033203"/>
       <use xlink:href="#DejaVuSans-31" x="222.65625"/>
       <use xlink:href="#DejaVuSans-2e" x="286.279297"/>
       <use xlink:href="#DejaVuSans-32" x="318.066406"/>
       <use xlink:href="#DejaVuSans-30" x="381.689453"/>
       <use xlink:href="#DejaVuSans-32" x="445.3125"/>
       <use xlink:href="#DejaVuSans-30" x="508.935547"/>
      </g>
     </g>
    </g>
    <g id="xtick_5">
     <g id="line2d_9">
      <path d="M 204.237456 276.48 
L 204.237456 41.472 
" clip-path="url(#p3815991e2d)" style="fill: none; stroke-dasharray: 2.96,1.28; stroke-dashoffset: 0; stroke: #808080; stroke-width: 0.8"/>
     </g>
     <g id="line2d_10">
      <g>
       <use xlink:href="#m71687612e9" x="204.237456" y="276.48" style="stroke: #000000; stroke-width: 0.8"/>
      </g>
     </g>
     <g id="text_5">
      <!-- 24.02.2021 -->
      <g transform="translate(153.612245 318.688565)rotate(-30)scale(0.1 -0.1)">
       <defs>
        <path id="DejaVuSans-34" d="M 2419 4116 
L 825 1625 
L 2419 1625 
L 2419 4116 
z
M 2253 4666 
L 3047 4666 
L 3047 1625 
L 3713 1625 
L 3713 1100 
L 3047 1100 
L 3047 0 
L 2419 0 
L 2419 1100 
L 313 1100 
L 313 1709 
L 2253 4666 
z
" transform="scale(0.015625)"/>
       </defs>
       <use xlink:href="#DejaVuSans-32"/>
       <use xlink:href="#DejaVuSans-34" x="63.623047"/>
       <use xlink:href="#DejaVuSans-2e" x="127.246094"/>
       <use xlink:href="#DejaVuSans-30" x="159.033203"/>
       <use xlink:href="#DejaVuSans-32" x="222.65625"/>
       <use xlink:href="#DejaVuSans-2e" x="286.279297"/>
       <use xlink:href="#DejaVuSans-32" x="318.066406"/>
       <use xlink:href="#DejaVuSans-30" x="381.689453"/>
       <use xlink:href="#DejaVuSans-32" x="445.3125"/>
       <use xlink:href="#DejaVuSans-31" x="508.935547"/>
      </g>
     </g>
    </g>
    <g id="xtick_6">
     <g id="line2d_11">
      <path d="M 240.269743 276.48 
L 240.269743 41.472 
" clip-path="url(#p3815991e2d)" style="fill: none; stroke-dasharray: 2.96,1.28; stroke-dashoffset: 0; stroke: #808080; stroke-width: 0.8"/>
     </g>
     <g id="line2d_12">
      <g>
       <use xlink:href="#m71687612e9" x="240.269743" y="276.48" style="stroke: #000000; stroke-width: 0.8"/>
      </g>
     </g>
     <g id="text_6">
      <!-- 03.06.2021 -->
      <g transform="translate(189.644532 318.688565)rotate(-30)scale(0.1 -0.1)">
       <defs>
        <path id="DejaVuSans-36" d="M 2113 2584 
Q 1688 2584 1439 2293 
Q 1191 2003 1191 1497 
Q 1191 994 1439 701 
Q 1688 409 2113 409 
Q 2538 409 2786 701 
Q 3034 994 3034 1497 
Q 3034 2003 2786 2293 
Q 2538 2584 2113 2584 
z
M 3366 4563 
L 3366 3988 
Q 3128 4100 2886 4159 
Q 2644 4219 2406 4219 
Q 1781 4219 1451 3797 
Q 1122 3375 1075 2522 
Q 1259 2794 1537 2939 
Q 1816 3084 2150 3084 
Q 2853 3084 3261 2657 
Q 3669 2231 3669 1497 
Q 3669 778 3244 343 
Q 2819 -91 2113 -91 
Q 1303 -91 875 529 
Q 447 1150 447 2328 
Q 447 3434 972 4092 
Q 1497 4750 2381 4750 
Q 2619 4750 2861 4703 
Q 3103 4656 3366 4563 
z
" transform="scale(0.015625)"/>
       </defs>
       <use xlink:href="#DejaVuSans-30"/>
       <use xlink:href="#DejaVuSans-33" x="63.623047"/>
       <use xlink:href="#DejaVuSans-2e" x="127.246094"/>
       <use xlink:href="#DejaVuSans-30" x="159.033203"/>
       <use xlink:href="#DejaVuSans-36" x="222.65625"/>
       <use xlink:href="#DejaVuSans-2e" x="286.279297"/>
       <use xlink:href="#DejaVuSans-32" x="318.066406"/>
       <use xlink:href="#DejaVuSans-30" x="381.689453"/>
       <use xlink:href="#DejaVuSans-32" x="445.3125"/>
       <use xlink:href="#DejaVuSans-31" x="508.935547"/>
      </g>
     </g>
    </g>
    <g id="xtick_7">
     <g id="line2d_13">
      <path d="M 276.30203 276.48 
L 276.30203 41.472 
" clip-path="url(#p3815991e2d)" style="fill: none; stroke-dasharray: 2.96,1.28; stroke-dashoffset: 0; stroke: #808080; stroke-width: 0.8"/>
     </g>
     <g id="line2d_14">
      <g>
       <use xlink:href="#m71687612e9" x="276.30203" y="276.48" style="stroke: #000000; stroke-width: 0.8"/>
      </g>
     </g>
     <g id="text_7">
      <!-- 10.09.2021 -->
      <g transform="translate(225.676819 318.688565)rotate(-30)scale(0.1 -0.1)">
       <defs>
        <path id="DejaVuSans-39" d="M 703 97 
L 703 672 
Q 941 559 1184 500 
Q 1428 441 1663 441 
Q 2288 441 2617 861 
Q 2947 1281 2994 2138 
Q 2813 1869 2534 1725 
Q 2256 1581 1919 1581 
Q 1219 1581 811 2004 
Q 403 2428 403 3163 
Q 403 3881 828 4315 
Q 1253 4750 1959 4750 
Q 2769 4750 3195 4129 
Q 3622 3509 3622 2328 
Q 3622 1225 3098 567 
Q 2575 -91 1691 -91 
Q 1453 -91 1209 -44 
Q 966 3 703 97 
z
M 1959 2075 
Q 2384 2075 2632 2365 
Q 2881 2656 2881 3163 
Q 2881 3666 2632 3958 
Q 2384 4250 1959 4250 
Q 1534 4250 1286 3958 
Q 1038 3666 1038 3163 
Q 1038 2656 1286 2365 
Q 1534 2075 1959 2075 
z
" transform="scale(0.015625)"/>
       </defs>
       <use xlink:href="#DejaVuSans-31"/>
       <use xlink:href="#DejaVuSans-30" x="63.623047"/>
       <use xlink:href="#DejaVuSans-2e" x="127.246094"/>
       <use xlink:href="#DejaVuSans-30" x="159.033203"/>
       <use xlink:href="#DejaVuSans-39" x="222.65625"/>
       <use xlink:href="#DejaVuSans-2e" x="286.279297"/>
       <use xlink:href="#DejaVuSans-32" x="318.066406"/>
       <use xlink:href="#DejaVuSans-30" x="381.689453"/>
       <use xlink:href="#DejaVuSans-32" x="445.3125"/>
       <use xlink:href="#DejaVuSans-31" x="508.935547"/>
      </g>
     </g>
    </g>
    <g id="xtick_8">
     <g id="line2d_15">
      <path d="M 312.334317 276.48 
L 312.334317 41.472 
" clip-path="url(#p3815991e2d)" style="fill: none; stroke-dasharray: 2.96,1.28; stroke-dashoffset: 0; stroke: #808080; stroke-width: 0.8"/>
     </g>
     <g id="line2d_16">
      <g>
       <use xlink:href="#m71687612e9" x="312.334317" y="276.48" style="stroke: #000000; stroke-width: 0.8"/>
      </g>
     </g>
     <g id="text_8">
      <!-- 18.12.2021 -->
      <g transform="translate(261.709106 318.688565)rotate(-30)scale(0.1 -0.1)">
       <use xlink:href="#DejaVuSans-31"/>
       <use xlink:href="#DejaVuSans-38" x="63.623047"/>
       <use xlink:href="#DejaVuSans-2e" x="127.246094"/>
       <use xlink:href="#DejaVuSans-31" x="159.033203"/>
       <use xlink:href="#DejaVuSans-32" x="222.65625"/>
       <use xlink:href="#DejaVuSans-2e" x="286.279297"/>
       <use xlink:href="#DejaVuSans-32" x="318.066406"/>
       <use xlink:href="#DejaVuSans-30" x="381.689453"/>
       <use xlink:href="#DejaVuSans-32" x="445.3125"/>
       <use xlink:href="#DejaVuSans-31" x="508.935547"/>
      </g>
     </g>
    </g>
    <g id="xtick_9">
     <g id="line2d_17">
      <path d="M 348.366604 276.48 
L 348.366604 41.472 
" clip-path="url(#p3815991e2d)" style="fill: none; stroke-dasharray: 2.96,1.28; stroke-dashoffset: 0; stroke: #808080; stroke-width: 0.8"/>
     </g>
     <g id="line2d_18">
      <g>
       <use xlink:href="#m71687612e9" x="348.366604" y="276.48" style="stroke: #000000; stroke-width: 0.8"/>
      </g>
     </g>
     <g id="text_9">
      <!-- 27.03.2022 -->
      <g transform="translate(297.741393 318.688565)rotate(-30)scale(0.1 -0.1)">
       <use xlink:href="#DejaVuSans-32"/>
       <use xlink:href="#DejaVuSans-37" x="63.623047"/>
       <use xlink:href="#DejaVuSans-2e" x="127.246094"/>
       <use xlink:href="#DejaVuSans-30" x="159.033203"/>
       <use xlink:href="#DejaVuSans-33" x="222.65625"/>
       <use xlink:href="#DejaVuSans-2e" x="286.279297"/>
       <use xlink:href="#DejaVuSans-32" x="318.066406"/>
       <use xlink:href="#DejaVuSans-30" x="381.689453"/>
       <use xlink:href="#DejaVuSans-32" x="445.3125"/>
       <use xlink:href="#DejaVuSans-32" x="508.935547"/>
      </g>
     </g>
    </g>
    <g id="xtick_10">
     <g id="line2d_19">
      <path d="M 384.398891 276.48 
L 384.398891 41.472 
" clip-path="url(#p3815991e2d)" style="fill: none; stroke-dasharray: 2.96,1.28; stroke-dashoffset: 0; stroke: #808080; stroke-width: 0.8"/>
     </g>
     <g id="line2d_20">
      <g>
       <use xlink:href="#m71687612e9" x="384.398891" y="276.48" style="stroke: #000000; stroke-width: 0.8"/>
      </g>
     </g>
     <g id="text_10">
      <!-- 04.07.2022 -->
      <g transform="translate(333.77368 318.688565)rotate(-30)scale(0.1 -0.1)">
       <use xlink:href="#DejaVuSans-30"/>
       <use xlink:href="#DejaVuSans-34" x="63.623047"/>
       <use xlink:href="#DejaVuSans-2e" x="127.246094"/>
       <use xlink:href="#DejaVuSans-30" x="159.033203"/>
       <use xlink:href="#DejaVuSans-37" x="222.65625"/>
       <use xlink:href="#DejaVuSans-2e" x="286.279297"/>
       <use xlink:href="#DejaVuSans-32" x="318.066406"/>
       <use xlink:href="#DejaVuSans-30" x="381.689453"/>
       <use xlink:href="#DejaVuSans-32" x="445.3125"/>
       <use xlink:href="#DejaVuSans-32" x="508.935547"/>
      </g>
     </g>
    </g>
   </g>
   <g id="matplotlib.axis_2">
    <g id="ytick_1">
     <g id="line2d_21">
      <path d="M 57.6 265.797818 
L 414.72 265.797818 
" clip-path="url(#p3815991e2d)" style="fill: none; stroke-dasharray: 2.96,1.28; stroke-dashoffset: 0; stroke: #808080; stroke-width: 0.8"/>
     </g>
     <g id="line2d_22">
      <defs>
       <path id="m412090adff" d="M 0 0 
L -3.5 0 
" style="stroke: #000000; stroke-width: 0.8"/>
      </defs>
      <g>
       <use xlink:href="#m412090adff" x="57.6" y="265.797818" style="stroke: #000000; stroke-width: 0.8"/>
      </g>
     </g>
     <g id="text_11">
      <!-- 0 -->
      <g transform="translate(44.2375 269.597037)scale(0.1 -0.1)">
       <use xlink:href="#DejaVuSans-30"/>
      </g>
     </g>
    </g>
    <g id="ytick_2">
     <g id="line2d_23">
      <path d="M 57.6 222.207055 
L 414.72 222.207055 
" clip-path="url(#p3815991e2d)" style="fill: none; stroke-dasharray: 2.96,1.28; stroke-dashoffset: 0; stroke: #808080; stroke-width: 0.8"/>
     </g>
     <g id="line2d_24">
      <g>
       <use xlink:href="#m412090adff" x="57.6" y="222.207055" style="stroke: #000000; stroke-width: 0.8"/>
      </g>
     </g>
     <g id="text_12">
      <!-- 500 -->
      <g transform="translate(31.5125 226.006273)scale(0.1 -0.1)">
       <use xlink:href="#DejaVuSans-35"/>
       <use xlink:href="#DejaVuSans-30" x="63.623047"/>
       <use xlink:href="#DejaVuSans-30" x="127.246094"/>
      </g>
     </g>
    </g>
    <g id="ytick_3">
     <g id="line2d_25">
      <path d="M 57.6 178.616291 
L 414.72 178.616291 
" clip-path="url(#p3815991e2d)" style="fill: none; stroke-dasharray: 2.96,1.28; stroke-dashoffset: 0; stroke: #808080; stroke-width: 0.8"/>
     </g>
     <g id="line2d_26">
      <g>
       <use xlink:href="#m412090adff" x="57.6" y="178.616291" style="stroke: #000000; stroke-width: 0.8"/>
      </g>
     </g>
     <g id="text_13">
      <!-- 1000 -->
      <g transform="translate(25.15 182.41551)scale(0.1 -0.1)">
       <use xlink:href="#DejaVuSans-31"/>
       <use xlink:href="#DejaVuSans-30" x="63.623047"/>
       <use xlink:href="#DejaVuSans-30" x="127.246094"/>
       <use xlink:href="#DejaVuSans-30" x="190.869141"/>
      </g>
     </g>
    </g>
    <g id="ytick_4">
     <g id="line2d_27">
      <path d="M 57.6 135.025527 
L 414.72 135.025527 
" clip-path="url(#p3815991e2d)" style="fill: none; stroke-dasharray: 2.96,1.28; stroke-dashoffset: 0; stroke: #808080; stroke-width: 0.8"/>
     </g>
     <g id="line2d_28">
      <g>
       <use xlink:href="#m412090adff" x="57.6" y="135.025527" style="stroke: #000000; stroke-width: 0.8"/>
      </g>
     </g>
     <g id="text_14">
      <!-- 1500 -->
      <g transform="translate(25.15 138.824746)scale(0.1 -0.1)">
       <use xlink:href="#DejaVuSans-31"/>
       <use xlink:href="#DejaVuSans-35" x="63.623047"/>
       <use xlink:href="#DejaVuSans-30" x="127.246094"/>
       <use xlink:href="#DejaVuSans-30" x="190.869141"/>
      </g>
     </g>
    </g>
    <g id="ytick_5">
     <g id="line2d_29">
      <path d="M 57.6 91.434764 
L 414.72 91.434764 
" clip-path="url(#p3815991e2d)" style="fill: none; stroke-dasharray: 2.96,1.28; stroke-dashoffset: 0; stroke: #808080; stroke-width: 0.8"/>
     </g>
     <g id="line2d_30">
      <g>
       <use xlink:href="#m412090adff" x="57.6" y="91.434764" style="stroke: #000000; stroke-width: 0.8"/>
      </g>
     </g>
     <g id="text_15">
      <!-- 2000 -->
      <g transform="translate(25.15 95.233982)scale(0.1 -0.1)">
       <use xlink:href="#DejaVuSans-32"/>
       <use xlink:href="#DejaVuSans-30" x="63.623047"/>
       <use xlink:href="#DejaVuSans-30" x="127.246094"/>
       <use xlink:href="#DejaVuSans-30" x="190.869141"/>
      </g>
     </g>
    </g>
    <g id="ytick_6">
     <g id="line2d_31">
      <path d="M 57.6 47.844 
L 414.72 47.844 
" clip-path="url(#p3815991e2d)" style="fill: none; stroke-dasharray: 2.96,1.28; stroke-dashoffset: 0; stroke: #808080; stroke-width: 0.8"/>
     </g>
     <g id="line2d_32">
      <g>
       <use xlink:href="#m412090adff" x="57.6" y="47.844" style="stroke: #000000; stroke-width: 0.8"/>
      </g>
     </g>
     <g id="text_16">
      <!-- 2500 -->
      <g transform="translate(25.15 51.643219)scale(0.1 -0.1)">
       <use xlink:href="#DejaVuSans-32"/>
       <use xlink:href="#DejaVuSans-35" x="63.623047"/>
       <use xlink:href="#DejaVuSans-30" x="127.246094"/>
       <use xlink:href="#DejaVuSans-30" x="190.869141"/>
      </g>
     </g>
    </g>
    <g id="text_17">
     <!-- Inzidenz pro 7 Tage pro 100.000 Einwohner -->
     <g transform="translate(19.070312 267.301)rotate(-90)scale(0.1 -0.1)">
      <defs>
       <path id="DejaVuSans-49" d="M 628 4666 
L 1259 4666 
L 1259 0 
L 628 0 
L 628 4666 
z
" transform="scale(0.015625)"/>
       <path id="DejaVuSans-6e" d="M 3513 2113 
L 3513 0 
L 2938 0 
L 2938 2094 
Q 2938 2591 2744 2837 
Q 2550 3084 2163 3084 
Q 1697 3084 1428 2787 
Q 1159 2491 1159 1978 
L 1159 0 
L 581 0 
L 581 3500 
L 1159 3500 
L 1159 2956 
Q 1366 3272 1645 3428 
Q 1925 3584 2291 3584 
Q 2894 3584 3203 3211 
Q 3513 2838 3513 2113 
z
" transform="scale(0.015625)"/>
       <path id="DejaVuSans-7a" d="M 353 3500 
L 3084 3500 
L 3084 2975 
L 922 459 
L 3084 459 
L 3084 0 
L 275 0 
L 275 525 
L 2438 3041 
L 353 3041 
L 353 3500 
z
" transform="scale(0.015625)"/>
       <path id="DejaVuSans-69" d="M 603 3500 
L 1178 3500 
L 1178 0 
L 603 0 
L 603 3500 
z
M 603 4863 
L 1178 4863 
L 1178 4134 
L 603 4134 
L 603 4863 
z
" transform="scale(0.015625)"/>
       <path id="DejaVuSans-64" d="M 2906 2969 
L 2906 4863 
L 3481 4863 
L 3481 0 
L 2906 0 
L 2906 525 
Q 2725 213 2448 61 
Q 2172 -91 1784 -91 
Q 1150 -91 751 415 
Q 353 922 353 1747 
Q 353 2572 751 3078 
Q 1150 3584 1784 3584 
Q 2172 3584 2448 3432 
Q 2725 3281 2906 2969 
z
M 947 1747 
Q 947 1113 1208 752 
Q 1469 391 1925 391 
Q 2381 391 2643 752 
Q 2906 1113 2906 1747 
Q 2906 2381 2643 2742 
Q 2381 3103 1925 3103 
Q 1469 3103 1208 2742 
Q 947 2381 947 1747 
z
" transform="scale(0.015625)"/>
       <path id="DejaVuSans-65" d="M 3597 1894 
L 3597 1613 
L 953 1613 
Q 991 1019 1311 708 
Q 1631 397 2203 397 
Q 2534 397 2845 478 
Q 3156 559 3463 722 
L 3463 178 
Q 3153 47 2828 -22 
Q 2503 -91 2169 -91 
Q 1331 -91 842 396 
Q 353 884 353 1716 
Q 353 2575 817 3079 
Q 1281 3584 2069 3584 
Q 2775 3584 3186 3129 
Q 3597 2675 3597 1894 
z
M 3022 2063 
Q 3016 2534 2758 2815 
Q 2500 3097 2075 3097 
Q 1594 3097 1305 2825 
Q 1016 2553 972 2059 
L 3022 2063 
z
" transform="scale(0.015625)"/>
       <path id="DejaVuSans-20" transform="scale(0.015625)"/>
       <path id="DejaVuSans-70" d="M 1159 525 
L 1159 -1331 
L 581 -1331 
L 581 3500 
L 1159 3500 
L 1159 2969 
Q 1341 3281 1617 3432 
Q 1894 3584 2278 3584 
Q 2916 3584 3314 3078 
Q 3713 2572 3713 1747 
Q 3713 922 3314 415 
Q 2916 -91 2278 -91 
Q 1894 -91 1617 61 
Q 1341 213 1159 525 
z
M 3116 1747 
Q 3116 2381 2855 2742 
Q 2594 3103 2138 3103 
Q 1681 3103 1420 2742 
Q 1159 2381 1159 1747 
Q 1159 1113 1420 752 
Q 1681 391 2138 391 
Q 2594 391 2855 752 
Q 3116 1113 3116 1747 
z
" transform="scale(0.015625)"/>
       <path id="DejaVuSans-72" d="M 2631 2963 
Q 2534 3019 2420 3045 
Q 2306 3072 2169 3072 
Q 1681 3072 1420 2755 
Q 1159 2438 1159 1844 
L 1159 0 
L 581 0 
L 581 3500 
L 1159 3500 
L 1159 2956 
Q 1341 3275 1631 3429 
Q 1922 3584 2338 3584 
Q 2397 3584 2469 3576 
Q 2541 3569 2628 3553 
L 2631 2963 
z
" transform="scale(0.015625)"/>
       <path id="DejaVuSans-6f" d="M 1959 3097 
Q 1497 3097 1228 2736 
Q 959 2375 959 1747 
Q 959 1119 1226 758 
Q 1494 397 1959 397 
Q 2419 397 2687 759 
Q 2956 1122 2956 1747 
Q 2956 2369 2687 2733 
Q 2419 3097 1959 3097 
z
M 1959 3584 
Q 2709 3584 3137 3096 
Q 3566 2609 3566 1747 
Q 3566 888 3137 398 
Q 2709 -91 1959 -91 
Q 1206 -91 779 398 
Q 353 888 353 1747 
Q 353 2609 779 3096 
Q 1206 3584 1959 3584 
z
" transform="scale(0.015625)"/>
       <path id="DejaVuSans-54" d="M -19 4666 
L 3928 4666 
L 3928 4134 
L 2272 4134 
L 2272 0 
L 1638 0 
L 1638 4134 
L -19 4134 
L -19 4666 
z
" transform="scale(0.015625)"/>
       <path id="DejaVuSans-61" d="M 2194 1759 
Q 1497 1759 1228 1600 
Q 959 1441 959 1056 
Q 959 750 1161 570 
Q 1363 391 1709 391 
Q 2188 391 2477 730 
Q 2766 1069 2766 1631 
L 2766 1759 
L 2194 1759 
z
M 3341 1997 
L 3341 0 
L 2766 0 
L 2766 531 
Q 2569 213 2275 61 
Q 1981 -91 1556 -91 
Q 1019 -91 701 211 
Q 384 513 384 1019 
Q 384 1609 779 1909 
Q 1175 2209 1959 2209 
L 2766 2209 
L 2766 2266 
Q 2766 2663 2505 2880 
Q 2244 3097 1772 3097 
Q 1472 3097 1187 3025 
Q 903 2953 641 2809 
L 641 3341 
Q 956 3463 1253 3523 
Q 1550 3584 1831 3584 
Q 2591 3584 2966 3190 
Q 3341 2797 3341 1997 
z
" transform="scale(0.015625)"/>
       <path id="DejaVuSans-67" d="M 2906 1791 
Q 2906 2416 2648 2759 
Q 2391 3103 1925 3103 
Q 1463 3103 1205 2759 
Q 947 2416 947 1791 
Q 947 1169 1205 825 
Q 1463 481 1925 481 
Q 2391 481 2648 825 
Q 2906 1169 2906 1791 
z
M 3481 434 
Q 3481 -459 3084 -895 
Q 2688 -1331 1869 -1331 
Q 1566 -1331 1297 -1286 
Q 1028 -1241 775 -1147 
L 775 -588 
Q 1028 -725 1275 -790 
Q 1522 -856 1778 -856 
Q 2344 -856 2625 -561 
Q 2906 -266 2906 331 
L 2906 616 
Q 2728 306 2450 153 
Q 2172 0 1784 0 
Q 1141 0 747 490 
Q 353 981 353 1791 
Q 353 2603 747 3093 
Q 1141 3584 1784 3584 
Q 2172 3584 2450 3431 
Q 2728 3278 2906 2969 
L 2906 3500 
L 3481 3500 
L 3481 434 
z
" transform="scale(0.015625)"/>
       <path id="DejaVuSans-45" d="M 628 4666 
L 3578 4666 
L 3578 4134 
L 1259 4134 
L 1259 2753 
L 3481 2753 
L 3481 2222 
L 1259 2222 
L 1259 531 
L 3634 531 
L 3634 0 
L 628 0 
L 628 4666 
z
" transform="scale(0.015625)"/>
       <path id="DejaVuSans-77" d="M 269 3500 
L 844 3500 
L 1563 769 
L 2278 3500 
L 2956 3500 
L 3675 769 
L 4391 3500 
L 4966 3500 
L 4050 0 
L 3372 0 
L 2619 2869 
L 1863 0 
L 1184 0 
L 269 3500 
z
" transform="scale(0.015625)"/>
       <path id="DejaVuSans-68" d="M 3513 2113 
L 3513 0 
L 2938 0 
L 2938 2094 
Q 2938 2591 2744 2837 
Q 2550 3084 2163 3084 
Q 1697 3084 1428 2787 
Q 1159 2491 1159 1978 
L 1159 0 
L 581 0 
L 581 4863 
L 1159 4863 
L 1159 2956 
Q 1366 3272 1645 3428 
Q 1925 3584 2291 3584 
Q 2894 3584 3203 3211 
Q 3513 2838 3513 2113 
z
" transform="scale(0.015625)"/>
      </defs>
      <use xlink:href="#DejaVuSans-49"/>
      <use xlink:href="#DejaVuSans-6e" x="29.492188"/>
      <use xlink:href="#DejaVuSans-7a" x="92.871094"/>
      <use xlink:href="#DejaVuSans-69" x="145.361328"/>
      <use xlink:href="#DejaVuSans-64" x="173.144531"/>
      <use xlink:href="#DejaVuSans-65" x="236.621094"/>
      <use xlink:href="#DejaVuSans-6e" x="298.144531"/>
      <use xlink:href="#DejaVuSans-7a" x="361.523438"/>
      <use xlink:href="#DejaVuSans-20" x="414.013672"/>
      <use xlink:href="#DejaVuSans-70" x="445.800781"/>
      <use xlink:href="#DejaVuSans-72" x="509.277344"/>
      <use xlink:href="#DejaVuSans-6f" x="548.140625"/>
      <use xlink:href="#DejaVuSans-20" x="609.322266"/>
      <use xlink:href="#DejaVuSans-37" x="641.109375"/>
      <use xlink:href="#DejaVuSans-20" x="704.732422"/>
      <use xlink:href="#DejaVuSans-54" x="736.519531"/>
      <use xlink:href="#DejaVuSans-61" x="781.103516"/>
      <use xlink:href="#DejaVuSans-67" x="842.382812"/>
      <use xlink:href="#DejaVuSans-65" x="905.859375"/>
      <use xlink:href="#DejaVuSans-20" x="967.382812"/>
      <use xlink:href="#DejaVuSans-70" x="999.169922"/>
      <use xlink:href="#DejaVuSans-72" x="1062.646484"/>
      <use xlink:href="#DejaVuSans-6f" x="1101.509766"/>
      <use xlink:href="#DejaVuSans-20" x="1162.691406"/>
      <use xlink:href="#DejaVuSans-31" x="1194.478516"/>
      <use xlink:href="#DejaVuSans-30" x="1258.101562"/>
      <use xlink:href="#DejaVuSans-30" x="1321.724609"/>
      <use xlink:href="#DejaVuSans-2e" x="1385.347656"/>
      <use xlink:href="#DejaVuSans-30" x="1417.134766"/>
      <use xlink:href="#DejaVuSans-30" x="1480.757812"/>
      <use xlink:href="#DejaVuSans-30" x="1544.380859"/>
      <use xlink:href="#DejaVuSans-20" x="1608.003906"/>
      <use xlink:href="#DejaVuSans-45" x="1639.791016"/>
      <use xlink:href="#DejaVuSans-69" x="1702.974609"/>
      <use xlink:href="#DejaVuSans-6e" x="1730.757812"/>
      <use xlink:href="#DejaVuSans-77" x="1794.136719"/>
      <use xlink:href="#DejaVuSans-6f" x="1875.923828"/>
      <use xlink:href="#DejaVuSans-68" x="1937.105469"/>
      <use xlink:href="#DejaVuSans-6e" x="2000.484375"/>
      <use xlink:href="#DejaVuSans-65" x="2063.863281"/>
      <use xlink:href="#DejaVuSans-72" x="2125.386719"/>
     </g>
    </g>
   </g>
   <g id="line2d_33">
    <path d="M 73.832727 265.797818 
L 76.744427 265.797818 
L 77.10839 265.601455 
L 78.56424 265.601455 
L 78.928202 265.012364 
L 79.292165 265.012364 
L 79.656127 265.208727 
L 80.02009 265.012364 
L 80.384052 265.012364 
L 80.748015 264.816 
L 81.111977 264.816 
L 81.47594 265.012364 
L 82.567827 263.834182 
L 83.295752 261.281455 
L 83.659715 261.085091 
L 84.023677 261.085091 
L 84.38764 260.496 
L 85.115565 260.103273 
L 85.479527 260.103273 
L 85.84349 260.692364 
L 86.207452 260.103273 
L 86.571415 260.103273 
L 86.935377 260.496 
L 87.663302 260.496 
L 88.027265 261.870545 
L 88.391227 261.477818 
L 88.75519 262.066909 
L 89.483115 262.459636 
L 89.847077 261.870545 
L 90.21104 262.066909 
L 90.575002 261.085091 
L 90.938965 262.263273 
L 91.66689 262.656 
L 92.030852 263.048727 
L 93.12274 264.619636 
L 94.214627 264.619636 
L 94.578589 264.030545 
L 94.942552 264.423273 
L 95.306514 264.423273 
L 95.670477 264.816 
L 96.762364 264.816 
L 97.126327 265.405091 
L 97.854252 265.797818 
L 100.038027 265.797818 
L 100.401989 265.405091 
L 101.857839 265.405091 
L 102.221802 265.208727 
L 102.585764 265.208727 
L 102.949727 265.601455 
L 103.313689 265.601455 
L 103.677652 265.208727 
L 104.405577 265.208727 
L 104.769539 265.405091 
L 105.861427 265.405091 
L 106.225389 265.797818 
L 124.787477 265.797818 
L 125.151439 265.601455 
L 125.879364 265.601455 
L 126.243327 265.405091 
L 127.335214 265.405091 
L 127.699177 265.601455 
L 128.427102 265.601455 
L 128.791064 265.797818 
L 130.974839 265.797818 
L 131.338801 265.601455 
L 132.794651 265.601455 
L 133.158614 265.405091 
L 134.250501 265.405091 
L 134.614464 265.012364 
L 134.978426 265.012364 
L 135.342389 264.816 
L 135.706351 265.012364 
L 136.070314 264.816 
L 136.434276 264.816 
L 136.798239 264.226909 
L 137.162201 264.423273 
L 137.526164 263.834182 
L 137.890126 263.834182 
L 138.254089 263.637818 
L 138.982014 264.030545 
L 139.345976 264.423273 
L 139.709939 264.619636 
L 140.073901 265.208727 
L 140.437864 265.208727 
L 141.165789 264.816 
L 141.529751 264.816 
L 141.893714 264.423273 
L 142.257676 264.423273 
L 142.621639 264.226909 
L 142.985601 262.066909 
L 143.349564 262.263273 
L 143.713526 262.066909 
L 144.077489 258.532364 
L 144.441451 259.121455 
L 145.169376 259.121455 
L 145.533339 260.888727 
L 146.261264 259.906909 
L 146.625226 263.245091 
L 146.989189 263.245091 
L 147.717114 262.852364 
L 148.445039 263.637818 
L 148.809001 264.226909 
L 149.172964 264.423273 
L 149.536926 264.226909 
L 150.264851 264.619636 
L 150.992776 264.619636 
L 151.356739 264.423273 
L 151.720701 264.030545 
L 152.084664 264.226909 
L 152.448626 264.226909 
L 152.812589 264.030545 
L 153.176551 263.441455 
L 153.904476 263.834182 
L 154.268439 263.441455 
L 154.632401 263.245091 
L 154.996364 263.245091 
L 155.360326 263.637818 
L 155.724289 263.834182 
L 156.088251 263.441455 
L 156.452214 263.637818 
L 156.816176 263.245091 
L 157.180139 262.656 
L 157.908064 262.656 
L 158.272026 261.870545 
L 158.635989 260.496 
L 158.999951 256.568727 
L 159.363914 256.765091 
L 159.727876 256.176 
L 160.091839 254.605091 
L 160.455801 254.408727 
L 160.819764 253.426909 
L 161.183726 247.732364 
L 161.547689 248.714182 
L 161.911651 246.161455 
L 163.003539 244.394182 
L 163.367501 244.983273 
L 163.731464 248.910545 
L 164.459389 251.463273 
L 165.187313 251.463273 
L 165.551276 250.874182 
L 165.915238 250.874182 
L 166.279201 250.677818 
L 167.371088 246.554182 
L 167.735051 248.125091 
L 168.099013 240.663273 
L 168.462976 238.306909 
L 168.826938 236.932364 
L 169.190901 237.325091 
L 169.554863 235.754182 
L 169.918826 238.110545 
L 170.282788 236.539636 
L 170.646751 236.736 
L 171.010713 239.288727 
L 171.374676 239.681455 
L 172.102601 242.823273 
L 172.466563 243.608727 
L 172.830526 245.572364 
L 173.194488 253.034182 
L 173.558451 249.499636 
L 173.922413 251.659636 
L 174.286376 248.321455 
L 174.650338 248.125091 
L 175.014301 246.161455 
L 175.378263 246.357818 
L 175.742226 245.376 
L 176.470151 244.394182 
L 176.834113 244.786909 
L 177.562038 244.394182 
L 177.926001 243.019636 
L 178.289963 244.394182 
L 178.653926 246.946909 
L 179.017888 247.143273 
L 179.381851 248.910545 
L 179.745813 249.106909 
L 180.109776 250.677818 
L 180.473738 251.070545 
L 180.837701 250.677818 
L 181.201663 249.499636 
L 181.565626 249.303273 
L 181.929588 249.696 
L 182.293551 253.034182 
L 183.021476 254.801455 
L 183.385438 255.390545 
L 183.749401 258.336 
L 184.113363 257.746909 
L 184.841288 257.746909 
L 185.205251 257.943273 
L 185.569213 256.961455 
L 185.933176 257.157818 
L 186.297138 255.783273 
L 186.661101 258.139636 
L 187.025063 256.176 
L 187.389026 250.677818 
L 187.752988 249.303273 
L 188.116951 248.714182 
L 188.480913 248.714182 
L 188.844876 247.928727 
L 189.208838 247.928727 
L 189.572801 249.892364 
L 189.936763 254.016 
L 190.300726 254.212364 
L 190.664688 254.997818 
L 191.028651 255.390545 
L 191.392613 258.139636 
L 191.756576 259.121455 
L 192.120538 258.532364 
L 192.484501 258.925091 
L 193.212426 259.906909 
L 193.576388 259.710545 
L 193.940351 259.121455 
L 194.304313 258.925091 
L 194.668276 260.496 
L 195.032238 261.085091 
L 195.396201 261.085091 
L 195.760163 261.674182 
L 196.124126 261.085091 
L 196.852051 260.692364 
L 197.216013 261.085091 
L 197.579976 261.281455 
L 197.943938 260.692364 
L 198.307901 260.496 
L 199.035826 261.870545 
L 199.399788 260.496 
L 199.763751 260.299636 
L 200.127713 259.514182 
L 200.491675 260.496 
L 200.855638 260.692364 
L 201.2196 259.710545 
L 201.583563 260.692364 
L 201.947525 262.066909 
L 202.311488 261.674182 
L 202.67545 262.656 
L 203.039413 262.852364 
L 203.403375 262.852364 
L 203.767338 263.834182 
L 204.1313 263.637818 
L 204.859225 265.208727 
L 205.223188 265.405091 
L 205.58715 265.012364 
L 205.951113 265.012364 
L 206.315075 264.619636 
L 206.679038 264.030545 
L 207.043 262.263273 
L 207.406963 261.477818 
L 207.770925 259.710545 
L 208.49885 259.710545 
L 208.862813 260.103273 
L 209.226775 258.532364 
L 209.590738 258.925091 
L 209.9547 258.728727 
L 210.318663 259.710545 
L 210.682625 259.906909 
L 211.046588 259.710545 
L 211.41055 259.317818 
L 211.774513 258.139636 
L 212.138475 257.746909 
L 212.502438 256.765091 
L 213.230363 253.623273 
L 213.958288 254.016 
L 214.686213 250.285091 
L 215.050175 249.696 
L 215.414138 249.892364 
L 216.142063 248.910545 
L 216.506025 247.536 
L 216.869988 247.732364 
L 217.23395 247.536 
L 217.597913 245.768727 
L 217.961875 241.448727 
L 218.325838 243.412364 
L 218.6898 243.412364 
L 219.053763 244.197818 
L 219.417725 246.750545 
L 219.781688 246.357818 
L 220.14565 246.554182 
L 220.509613 246.554182 
L 220.873575 246.161455 
L 221.237538 243.608727 
L 221.6015 242.823273 
L 221.965463 239.681455 
L 222.329425 237.521455 
L 222.693388 237.325091 
L 223.05735 241.448727 
L 223.421313 239.877818 
L 223.785275 242.234182 
L 224.5132 242.626909 
L 225.241125 248.125091 
L 225.605088 248.125091 
L 225.96905 250.088727 
L 226.333013 250.285091 
L 227.060938 252.837818 
L 227.4249 252.445091 
L 227.788863 252.837818 
L 228.152825 251.659636 
L 228.516788 251.070545 
L 228.88075 251.266909 
L 229.244713 250.874182 
L 229.608675 250.677818 
L 229.972638 252.837818 
L 230.3366 252.052364 
L 230.700563 251.856 
L 231.064525 251.463273 
L 231.428488 251.266909 
L 231.79245 251.463273 
L 232.520375 253.034182 
L 232.884338 254.408727 
L 233.2483 257.550545 
L 233.612263 258.336 
L 233.976225 257.157818 
L 234.340188 257.354182 
L 234.70415 259.710545 
L 235.068113 256.176 
L 235.432075 255.586909 
L 235.796038 256.176 
L 236.16 254.997818 
L 236.523962 256.372364 
L 236.887925 255.390545 
L 237.251887 256.961455 
L 237.61585 259.317818 
L 237.979812 259.906909 
L 238.343775 259.710545 
L 238.707737 261.281455 
L 239.0717 261.477818 
L 239.435662 262.263273 
L 239.799625 261.870545 
L 240.163587 263.637818 
L 240.52755 264.226909 
L 240.891512 264.226909 
L 241.255475 263.637818 
L 241.619437 263.637818 
L 241.9834 263.245091 
L 242.347362 263.245091 
L 242.711325 263.441455 
L 243.075287 263.834182 
L 243.43925 263.637818 
L 243.803212 264.030545 
L 244.167175 264.030545 
L 244.531137 264.619636 
L 244.8951 264.619636 
L 245.259062 264.816 
L 245.623025 264.423273 
L 246.35095 264.816 
L 247.078875 264.816 
L 247.442837 265.208727 
L 247.8068 265.405091 
L 248.170762 265.405091 
L 248.898687 265.797818 
L 251.082462 265.797818 
L 251.810387 265.405091 
L 253.6302 265.405091 
L 254.358125 265.797818 
L 254.722087 265.601455 
L 255.08605 265.601455 
L 255.450012 265.208727 
L 256.177937 264.816 
L 256.905862 264.816 
L 257.269825 256.765091 
L 258.725675 256.765091 
L 259.089637 256.568727 
L 259.4536 256.568727 
L 259.817562 264.619636 
L 260.181525 264.226909 
L 260.90945 264.619636 
L 261.273412 264.619636 
L 262.001337 263.834182 
L 262.729262 264.226909 
L 263.093225 263.441455 
L 263.82115 263.048727 
L 264.549075 263.834182 
L 264.913037 263.834182 
L 265.277 263.048727 
L 265.640962 263.441455 
L 266.004925 263.441455 
L 266.368887 263.834182 
L 266.73285 264.030545 
L 267.096812 264.030545 
L 267.460775 263.834182 
L 268.552662 262.263273 
L 268.916625 261.870545 
L 269.280587 260.888727 
L 269.64455 260.299636 
L 270.008512 260.496 
L 270.372475 261.085091 
L 270.736437 260.692364 
L 271.1004 259.710545 
L 271.464362 259.317818 
L 271.828325 259.317818 
L 272.556249 257.157818 
L 272.920212 256.372364 
L 273.648137 253.819636 
L 274.012099 251.659636 
L 274.376062 250.874182 
L 275.467949 253.230545 
L 275.831912 253.426909 
L 276.195874 254.212364 
L 276.559837 255.979636 
L 276.923799 256.176 
L 277.287762 256.568727 
L 277.651724 256.568727 
L 278.015687 255.979636 
L 278.379649 256.765091 
L 279.107574 257.157818 
L 279.471537 256.568727 
L 280.563424 256.568727 
L 280.927387 255.586909 
L 281.291349 255.783273 
L 281.655312 256.372364 
L 282.019274 257.943273 
L 282.747199 257.943273 
L 283.839087 262.656 
L 284.203049 262.263273 
L 284.567012 261.477818 
L 284.930974 261.870545 
L 285.294937 262.066909 
L 285.658899 261.870545 
L 286.022862 262.066909 
L 286.386824 262.066909 
L 287.114749 263.441455 
L 287.842674 263.441455 
L 288.206637 262.656 
L 288.570599 261.085091 
L 288.934562 260.888727 
L 289.298524 260.888727 
L 290.026449 259.906909 
L 290.390412 259.906909 
L 290.754374 260.496 
L 291.118337 260.692364 
L 291.846262 254.997818 
L 292.210224 253.426909 
L 292.938149 251.856 
L 293.666074 243.608727 
L 294.030037 242.626909 
L 294.393999 240.663273 
L 294.757962 240.663273 
L 295.121924 240.466909 
L 295.485887 241.056 
L 295.849849 244.394182 
L 296.213812 244.786909 
L 296.577774 239.092364 
L 296.941737 238.110545 
L 297.669662 233.594182 
L 298.033624 233.201455 
L 298.397587 230.845091 
L 298.761549 227.703273 
L 299.125512 227.703273 
L 299.489474 226.917818 
L 299.853437 226.917818 
L 300.217399 224.757818 
L 300.581362 224.954182 
L 301.309287 216.903273 
L 301.673249 213.172364 
L 302.401174 198.837818 
L 302.765137 201.390545 
L 303.129099 198.837818 
L 303.857024 191.179636 
L 304.220987 193.732364 
L 304.584949 192.357818 
L 304.948912 199.034182 
L 305.312874 196.677818 
L 305.676837 198.052364 
L 306.040799 200.212364 
L 306.404762 196.874182 
L 306.768724 196.088727 
L 307.132687 206.103273 
L 307.496649 203.943273 
L 308.224574 205.121455 
L 308.588536 207.674182 
L 308.952499 211.405091 
L 309.316461 218.081455 
L 309.680424 219.063273 
L 310.044386 221.026909 
L 310.408349 225.150545 
L 310.772311 225.936 
L 311.136274 224.757818 
L 311.500236 231.041455 
L 311.864199 233.201455 
L 312.228161 233.397818 
L 312.592124 234.576 
L 312.956086 233.594182 
L 313.320049 233.201455 
L 313.684011 238.503273 
L 314.047974 242.037818 
L 314.411936 242.037818 
L 314.775899 244.001455 
L 315.139861 248.910545 
L 315.503824 249.303273 
L 315.867786 248.125091 
L 316.231749 246.554182 
L 316.595711 248.714182 
L 316.959674 246.161455 
L 317.323636 246.554182 
L 317.687599 245.572364 
L 318.051561 245.768727 
L 318.415524 244.983273 
L 318.779486 248.125091 
L 319.143449 244.983273 
L 319.507411 247.339636 
L 319.871374 246.161455 
L 320.235336 243.216 
L 320.599299 238.699636 
L 320.963261 237.521455 
L 321.327224 230.648727 
L 321.691186 228.292364 
L 322.055149 215.332364 
L 322.419111 213.172364 
L 322.783074 211.797818 
L 323.147036 213.957818 
L 323.510999 215.332364 
L 323.874961 211.601455 
L 324.238924 194.910545 
L 324.602886 197.856 
L 324.966849 183.128727 
L 325.330811 175.470545 
L 326.058736 167.616 
L 326.422699 167.419636 
L 326.786661 161.136 
L 327.150624 150.336 
L 327.878549 156.423273 
L 328.242511 144.248727 
L 328.970436 133.841455 
L 329.334399 131.681455 
L 329.698361 117.346909 
L 330.062324 112.437818 
L 330.426286 99.281455 
L 330.790249 107.332364 
L 331.154211 97.514182 
L 331.882136 106.939636 
L 332.246099 118.721455 
L 332.610061 109.688727 
L 332.974024 119.506909 
L 334.065911 104.976 
L 334.429874 104.583273 
L 334.793836 95.550545 
L 335.157799 98.888727 
L 335.885724 107.528727 
L 336.249686 99.281455 
L 336.613649 93.783273 
L 336.977611 77.092364 
L 337.341574 95.157818 
L 337.705536 101.834182 
L 338.069499 93.783273 
L 338.433461 95.157818 
L 338.797424 114.401455 
L 339.161386 114.990545 
L 339.525349 134.234182 
L 339.889311 136.197818 
L 341.345161 160.743273 
L 341.709124 160.546909 
L 342.437049 126.379636 
L 342.801011 118.132364 
L 343.528936 108.314182 
L 343.892898 85.143273 
L 344.256861 86.517818 
L 344.620823 82.786909 
L 344.984786 66.488727 
L 345.712711 60.008727 
L 346.076673 64.132364 
L 346.440636 73.165091 
L 346.804598 52.154182 
L 347.168561 54.117818 
L 347.532523 70.808727 
L 347.896486 75.914182 
L 348.260448 71.005091 
L 348.624411 68.845091 
L 348.988373 70.612364 
L 349.352336 94.765091 
L 349.716298 103.208727 
L 350.444223 111.063273 
L 350.808186 117.543273 
L 351.536111 132.270545 
L 351.900073 122.648727 
L 352.264036 147.390545 
L 353.355923 163.296 
L 353.719886 163.492364 
L 354.083848 163.885091 
L 354.447811 175.274182 
L 354.811773 174.292364 
L 355.175736 179.201455 
L 355.539698 190.197818 
L 355.903661 195.892364 
L 356.267623 195.892364 
L 356.631586 209.441455 
L 356.995548 206.888727 
L 357.359511 205.514182 
L 357.723473 210.423273 
L 358.087436 203.746909 
L 358.451398 206.496 
L 358.815361 206.496 
L 359.179323 197.463273 
L 359.907248 212.386909 
L 360.271211 217.885091 
L 360.999136 224.365091 
L 361.363098 224.365091 
L 361.727061 219.456 
L 362.091023 225.150545 
L 362.454986 222.597818 
L 362.818948 222.597818 
L 363.182911 220.045091 
L 363.910836 220.045091 
L 364.274798 223.776 
L 364.638761 216.706909 
L 365.002723 223.972364 
L 365.730648 220.437818 
L 366.458573 220.437818 
L 366.822536 219.652364 
L 367.186498 226.721455 
L 367.550461 224.757818 
L 368.278386 235.754182 
L 369.006311 235.754182 
L 369.734236 242.430545 
L 370.098198 244.394182 
L 370.462161 248.714182 
L 370.826123 246.750545 
L 371.554048 246.750545 
L 371.918011 247.339636 
L 372.281973 245.965091 
L 372.645936 245.965091 
L 373.009898 239.288727 
L 373.373861 242.430545 
L 373.737823 242.234182 
L 374.101786 242.234182 
L 374.465748 249.499636 
L 375.193673 258.728727 
L 375.557636 240.663273 
L 375.921598 235.361455 
L 376.285561 235.557818 
L 376.649523 235.557818 
L 377.013486 222.597818 
L 377.377448 218.081455 
L 377.741411 211.012364 
L 378.105373 235.754182 
L 378.469336 232.023273 
L 379.19726 232.023273 
L 379.561223 235.165091 
L 379.925185 228.685091 
L 380.289148 229.077818 
L 380.65311 222.205091 
L 381.017073 227.506909 
L 381.744998 227.506909 
L 382.10896 223.579636 
L 382.472923 227.899636 
L 382.836885 223.579636 
L 383.200848 216.314182 
L 384.292735 216.314182 
L 384.656698 217.885091 
L 385.02066 214.350545 
L 385.384623 209.245091 
L 385.748585 209.441455 
L 386.112548 205.710545 
L 386.840473 205.710545 
L 387.204435 201.979636 
L 387.568398 200.408727 
L 387.93236 196.677818 
L 388.296323 203.746909 
L 388.660285 206.299636 
L 389.38821 206.299636 
L 389.752173 206.692364 
L 390.116135 205.710545 
L 390.480098 209.245091 
L 391.208023 202.568727 
L 391.935948 202.568727 
L 392.29991 203.943273 
L 392.663873 194.714182 
L 393.391798 157.012364 
L 393.75576 149.943273 
L 394.483685 149.943273 
L 394.847648 135.412364 
L 395.21161 130.110545 
L 395.939535 170.168727 
L 396.303498 177.826909 
L 396.66746 177.630545 
L 397.031423 177.630545 
L 397.759348 214.743273 
L 398.12331 218.474182 
L 398.487273 224.757818 
L 398.487273 224.757818 
" clip-path="url(#p3815991e2d)" style="fill: none; stroke: #1f77b4; stroke-width: 1.5; stroke-linecap: square"/>
   </g>
   <g id="patch_3">
    <path d="M 57.6 276.48 
L 57.6 41.472 
" style="fill: none; stroke: #000000; stroke-width: 0.8; stroke-linejoin: miter; stroke-linecap: square"/>
   </g>
   <g id="patch_4">
    <path d="M 414.72 276.48 
L 414.72 41.472 
" style="fill: none; stroke: #000000; stroke-width: 0.8; stroke-linejoin: miter; stroke-linecap: square"/>
   </g>
   <g id="patch_5">
    <path d="M 57.6 276.48 
L 414.72 276.48 
" style="fill: none; stroke: #000000; stroke-width: 0.8; stroke-linejoin: miter; stroke-linecap: square"/>
   </g>
   <g id="patch_6">
    <path d="M 57.6 41.472 
L 414.72 41.472 
" style="fill: none; stroke: #000000; stroke-width: 0.8; stroke-linejoin: miter; stroke-linecap: square"/>
   </g>
  </g>
  <g id="text_18">
   <!-- Inzidenzverlauf SK Kaufbeuren -->
   <g transform="translate(92.524219 20.589187)scale(0.18 -0.18)">
    <defs>
     <path id="DejaVuSans-76" d="M 191 3500 
L 800 3500 
L 1894 563 
L 2988 3500 
L 3597 3500 
L 2284 0 
L 1503 0 
L 191 3500 
z
" transform="scale(0.015625)"/>
     <path id="DejaVuSans-6c" d="M 603 4863 
L 1178 4863 
L 1178 0 
L 603 0 
L 603 4863 
z
" transform="scale(0.015625)"/>
     <path id="DejaVuSans-75" d="M 544 1381 
L 544 3500 
L 1119 3500 
L 1119 1403 
Q 1119 906 1312 657 
Q 1506 409 1894 409 
Q 2359 409 2629 706 
Q 2900 1003 2900 1516 
L 2900 3500 
L 3475 3500 
L 3475 0 
L 2900 0 
L 2900 538 
Q 2691 219 2414 64 
Q 2138 -91 1772 -91 
Q 1169 -91 856 284 
Q 544 659 544 1381 
z
M 1991 3584 
L 1991 3584 
z
" transform="scale(0.015625)"/>
     <path id="DejaVuSans-66" d="M 2375 4863 
L 2375 4384 
L 1825 4384 
Q 1516 4384 1395 4259 
Q 1275 4134 1275 3809 
L 1275 3500 
L 2222 3500 
L 2222 3053 
L 1275 3053 
L 1275 0 
L 697 0 
L 697 3053 
L 147 3053 
L 147 3500 
L 697 3500 
L 697 3744 
Q 697 4328 969 4595 
Q 1241 4863 1831 4863 
L 2375 4863 
z
" transform="scale(0.015625)"/>
     <path id="DejaVuSans-53" d="M 3425 4513 
L 3425 3897 
Q 3066 4069 2747 4153 
Q 2428 4238 2131 4238 
Q 1616 4238 1336 4038 
Q 1056 3838 1056 3469 
Q 1056 3159 1242 3001 
Q 1428 2844 1947 2747 
L 2328 2669 
Q 3034 2534 3370 2195 
Q 3706 1856 3706 1288 
Q 3706 609 3251 259 
Q 2797 -91 1919 -91 
Q 1588 -91 1214 -16 
Q 841 59 441 206 
L 441 856 
Q 825 641 1194 531 
Q 1563 422 1919 422 
Q 2459 422 2753 634 
Q 3047 847 3047 1241 
Q 3047 1584 2836 1778 
Q 2625 1972 2144 2069 
L 1759 2144 
Q 1053 2284 737 2584 
Q 422 2884 422 3419 
Q 422 4038 858 4394 
Q 1294 4750 2059 4750 
Q 2388 4750 2728 4690 
Q 3069 4631 3425 4513 
z
" transform="scale(0.015625)"/>
     <path id="DejaVuSans-4b" d="M 628 4666 
L 1259 4666 
L 1259 2694 
L 3353 4666 
L 4166 4666 
L 1850 2491 
L 4331 0 
L 3500 0 
L 1259 2247 
L 1259 0 
L 628 0 
L 628 4666 
z
" transform="scale(0.015625)"/>
     <path id="DejaVuSans-62" d="M 3116 1747 
Q 3116 2381 2855 2742 
Q 2594 3103 2138 3103 
Q 1681 3103 1420 2742 
Q 1159 2381 1159 1747 
Q 1159 1113 1420 752 
Q 1681 391 2138 391 
Q 2594 391 2855 752 
Q 3116 1113 3116 1747 
z
M 1159 2969 
Q 1341 3281 1617 3432 
Q 1894 3584 2278 3584 
Q 2916 3584 3314 3078 
Q 3713 2572 3713 1747 
Q 3713 922 3314 415 
Q 2916 -91 2278 -91 
Q 1894 -91 1617 61 
Q 1341 213 1159 525 
L 1159 0 
L 581 0 
L 581 4863 
L 1159 4863 
L 1159 2969 
z
" transform="scale(0.015625)"/>
    </defs>
    <use xlink:href="#DejaVuSans-49"/>
    <use xlink:href="#DejaVuSans-6e" x="29.492188"/>
    <use xlink:href="#DejaVuSans-7a" x="92.871094"/>
    <use xlink:href="#DejaVuSans-69" x="145.361328"/>
    <use xlink:href="#DejaVuSans-64" x="173.144531"/>
    <use xlink:href="#DejaVuSans-65" x="236.621094"/>
    <use xlink:href="#DejaVuSans-6e" x="298.144531"/>
    <use xlink:href="#DejaVuSans-7a" x="361.523438"/>
    <use xlink:href="#DejaVuSans-76" x="414.013672"/>
    <use xlink:href="#DejaVuSans-65" x="473.193359"/>
    <use xlink:href="#DejaVuSans-72" x="534.716797"/>
    <use xlink:href="#DejaVuSans-6c" x="575.830078"/>
    <use xlink:href="#DejaVuSans-61" x="603.613281"/>
    <use xlink:href="#DejaVuSans-75" x="664.892578"/>
    <use xlink:href="#DejaVuSans-66" x="728.271484"/>
    <use xlink:href="#DejaVuSans-20" x="763.476562"/>
    <use xlink:href="#DejaVuSans-53" x="795.263672"/>
    <use xlink:href="#DejaVuSans-4b" x="858.740234"/>
    <use xlink:href="#DejaVuSans-20" x="924.316406"/>
    <use xlink:href="#DejaVuSans-4b" x="956.103516"/>
    <use xlink:href="#DejaVuSans-61" x="1019.929688"/>
    <use xlink:href="#DejaVuSans-75" x="1081.208984"/>
    <use xlink:href="#DejaVuSans-66" x="1144.587891"/>
    <use xlink:href="#DejaVuSans-62" x="1179.792969"/>
    <use xlink:href="#DejaVuSans-65" x="1243.269531"/>
    <use xlink:href="#DejaVuSans-75" x="1304.792969"/>
    <use xlink:href="#DejaVuSans-72" x="1368.171875"/>
    <use xlink:href="#DejaVuSans-65" x="1407.035156"/>
    <use xlink:href="#DejaVuSans-6e" x="1468.558594"/>
   </g>
  </g>
 </g>
 <defs>
  <clipPath id="p3815991e2d">
   <rect x="57.6" y="41.472" width="357.12" height="235.008"/>
  </clipPath>
 </defs>
</svg>
