<?xml version="1.0" encoding="utf-8" standalone="no"?>
<!DOCTYPE svg PUBLIC "-//W3C//DTD SVG 1.1//EN"
  "http://www.w3.org/Graphics/SVG/1.1/DTD/svg11.dtd">
<svg xmlns:xlink="http://www.w3.org/1999/xlink" width="460.8pt" height="345.6pt" viewBox="0 0 460.8 345.6" xmlns="http://www.w3.org/2000/svg" version="1.1">
 <metadata>
  <rdf:RDF xmlns:dc="http://purl.org/dc/elements/1.1/" xmlns:cc="http://creativecommons.org/ns#" xmlns:rdf="http://www.w3.org/1999/02/22-rdf-syntax-ns#">
   <cc:Work>
    <dc:type rdf:resource="http://purl.org/dc/dcmitype/StillImage"/>
    <dc:date>2022-03-21T09:20:57.012317</dc:date>
    <dc:format>image/svg+xml</dc:format>
    <dc:creator>
     <cc:Agent>
      <dc:title>Matplotlib v3.5.1, https://matplotlib.org/</dc:title>
     </cc:Agent>
    </dc:creator>
   </cc:Work>
  </rdf:RDF>
 </metadata>
 <defs>
  <style type="text/css">*{stroke-linejoin: round; stroke-linecap: butt}</style>
 </defs>
 <g id="figure_1">
  <g id="patch_1">
   <path d="M 0 345.6 
L 460.8 345.6 
L 460.8 0 
L 0 0 
z
" style="fill: #ffffff"/>
  </g>
  <g id="axes_1">
   <g id="patch_2">
    <path d="M 57.6 276.48 
L 414.72 276.48 
L 414.72 41.472 
L 57.6 41.472 
z
" style="fill: #ffffff"/>
   </g>
   <g id="matplotlib.axis_1">
    <g id="xtick_1">
     <g id="line2d_1">
      <path d="M 60.070355 276.48 
L 60.070355 41.472 
" clip-path="url(#p7506094748)" style="fill: none; stroke-dasharray: 2.96,1.28; stroke-dashoffset: 0; stroke: #808080; stroke-width: 0.8"/>
     </g>
     <g id="line2d_2">
      <defs>
       <path id="mc1ce4d298e" d="M 0 0 
L 0 3.5 
" style="stroke: #000000; stroke-width: 0.8"/>
      </defs>
      <g>
       <use xlink:href="#mc1ce4d298e" x="60.070355" y="276.48" style="stroke: #000000; stroke-width: 0.8"/>
      </g>
     </g>
     <g id="text_1">
      <!-- 31.01.2020 -->
      <g transform="translate(9.445144 318.688565)rotate(-30)scale(0.1 -0.1)">
       <defs>
        <path id="DejaVuSans-33" d="M 2597 2516 
Q 3050 2419 3304 2112 
Q 3559 1806 3559 1356 
Q 3559 666 3084 287 
Q 2609 -91 1734 -91 
Q 1441 -91 1130 -33 
Q 819 25 488 141 
L 488 750 
Q 750 597 1062 519 
Q 1375 441 1716 441 
Q 2309 441 2620 675 
Q 2931 909 2931 1356 
Q 2931 1769 2642 2001 
Q 2353 2234 1838 2234 
L 1294 2234 
L 1294 2753 
L 1863 2753 
Q 2328 2753 2575 2939 
Q 2822 3125 2822 3475 
Q 2822 3834 2567 4026 
Q 2313 4219 1838 4219 
Q 1578 4219 1281 4162 
Q 984 4106 628 3988 
L 628 4550 
Q 988 4650 1302 4700 
Q 1616 4750 1894 4750 
Q 2613 4750 3031 4423 
Q 3450 4097 3450 3541 
Q 3450 3153 3228 2886 
Q 3006 2619 2597 2516 
z
" transform="scale(0.015625)"/>
        <path id="DejaVuSans-31" d="M 794 531 
L 1825 531 
L 1825 4091 
L 703 3866 
L 703 4441 
L 1819 4666 
L 2450 4666 
L 2450 531 
L 3481 531 
L 3481 0 
L 794 0 
L 794 531 
z
" transform="scale(0.015625)"/>
        <path id="DejaVuSans-2e" d="M 684 794 
L 1344 794 
L 1344 0 
L 684 0 
L 684 794 
z
" transform="scale(0.015625)"/>
        <path id="DejaVuSans-30" d="M 2034 4250 
Q 1547 4250 1301 3770 
Q 1056 3291 1056 2328 
Q 1056 1369 1301 889 
Q 1547 409 2034 409 
Q 2525 409 2770 889 
Q 3016 1369 3016 2328 
Q 3016 3291 2770 3770 
Q 2525 4250 2034 4250 
z
M 2034 4750 
Q 2819 4750 3233 4129 
Q 3647 3509 3647 2328 
Q 3647 1150 3233 529 
Q 2819 -91 2034 -91 
Q 1250 -91 836 529 
Q 422 1150 422 2328 
Q 422 3509 836 4129 
Q 1250 4750 2034 4750 
z
" transform="scale(0.015625)"/>
        <path id="DejaVuSans-32" d="M 1228 531 
L 3431 531 
L 3431 0 
L 469 0 
L 469 531 
Q 828 903 1448 1529 
Q 2069 2156 2228 2338 
Q 2531 2678 2651 2914 
Q 2772 3150 2772 3378 
Q 2772 3750 2511 3984 
Q 2250 4219 1831 4219 
Q 1534 4219 1204 4116 
Q 875 4013 500 3803 
L 500 4441 
Q 881 4594 1212 4672 
Q 1544 4750 1819 4750 
Q 2544 4750 2975 4387 
Q 3406 4025 3406 3419 
Q 3406 3131 3298 2873 
Q 3191 2616 2906 2266 
Q 2828 2175 2409 1742 
Q 1991 1309 1228 531 
z
" transform="scale(0.015625)"/>
       </defs>
       <use xlink:href="#DejaVuSans-33"/>
       <use xlink:href="#DejaVuSans-31" x="63.623047"/>
       <use xlink:href="#DejaVuSans-2e" x="127.246094"/>
       <use xlink:href="#DejaVuSans-30" x="159.033203"/>
       <use xlink:href="#DejaVuSans-31" x="222.65625"/>
       <use xlink:href="#DejaVuSans-2e" x="286.279297"/>
       <use xlink:href="#DejaVuSans-32" x="318.066406"/>
       <use xlink:href="#DejaVuSans-30" x="381.689453"/>
       <use xlink:href="#DejaVuSans-32" x="445.3125"/>
       <use xlink:href="#DejaVuSans-30" x="508.935547"/>
      </g>
     </g>
    </g>
    <g id="xtick_2">
     <g id="line2d_3">
      <path d="M 96.094857 276.48 
L 96.094857 41.472 
" clip-path="url(#p7506094748)" style="fill: none; stroke-dasharray: 2.96,1.28; stroke-dashoffset: 0; stroke: #808080; stroke-width: 0.8"/>
     </g>
     <g id="line2d_4">
      <g>
       <use xlink:href="#mc1ce4d298e" x="96.094857" y="276.48" style="stroke: #000000; stroke-width: 0.8"/>
      </g>
     </g>
     <g id="text_2">
      <!-- 23.04.2020 -->
      <g transform="translate(45.469646 318.688565)rotate(-30)scale(0.1 -0.1)">
       <defs>
        <path id="DejaVuSans-34" d="M 2419 4116 
L 825 1625 
L 2419 1625 
L 2419 4116 
z
M 2253 4666 
L 3047 4666 
L 3047 1625 
L 3713 1625 
L 3713 1100 
L 3047 1100 
L 3047 0 
L 2419 0 
L 2419 1100 
L 313 1100 
L 313 1709 
L 2253 4666 
z
" transform="scale(0.015625)"/>
       </defs>
       <use xlink:href="#DejaVuSans-32"/>
       <use xlink:href="#DejaVuSans-33" x="63.623047"/>
       <use xlink:href="#DejaVuSans-2e" x="127.246094"/>
       <use xlink:href="#DejaVuSans-30" x="159.033203"/>
       <use xlink:href="#DejaVuSans-34" x="222.65625"/>
       <use xlink:href="#DejaVuSans-2e" x="286.279297"/>
       <use xlink:href="#DejaVuSans-32" x="318.066406"/>
       <use xlink:href="#DejaVuSans-30" x="381.689453"/>
       <use xlink:href="#DejaVuSans-32" x="445.3125"/>
       <use xlink:href="#DejaVuSans-30" x="508.935547"/>
      </g>
     </g>
    </g>
    <g id="xtick_3">
     <g id="line2d_5">
      <path d="M 132.119358 276.48 
L 132.119358 41.472 
" clip-path="url(#p7506094748)" style="fill: none; stroke-dasharray: 2.96,1.28; stroke-dashoffset: 0; stroke: #808080; stroke-width: 0.8"/>
     </g>
     <g id="line2d_6">
      <g>
       <use xlink:href="#mc1ce4d298e" x="132.119358" y="276.48" style="stroke: #000000; stroke-width: 0.8"/>
      </g>
     </g>
     <g id="text_3">
      <!-- 15.07.2020 -->
      <g transform="translate(81.494148 318.688565)rotate(-30)scale(0.1 -0.1)">
       <defs>
        <path id="DejaVuSans-35" d="M 691 4666 
L 3169 4666 
L 3169 4134 
L 1269 4134 
L 1269 2991 
Q 1406 3038 1543 3061 
Q 1681 3084 1819 3084 
Q 2600 3084 3056 2656 
Q 3513 2228 3513 1497 
Q 3513 744 3044 326 
Q 2575 -91 1722 -91 
Q 1428 -91 1123 -41 
Q 819 9 494 109 
L 494 744 
Q 775 591 1075 516 
Q 1375 441 1709 441 
Q 2250 441 2565 725 
Q 2881 1009 2881 1497 
Q 2881 1984 2565 2268 
Q 2250 2553 1709 2553 
Q 1456 2553 1204 2497 
Q 953 2441 691 2322 
L 691 4666 
z
" transform="scale(0.015625)"/>
        <path id="DejaVuSans-37" d="M 525 4666 
L 3525 4666 
L 3525 4397 
L 1831 0 
L 1172 0 
L 2766 4134 
L 525 4134 
L 525 4666 
z
" transform="scale(0.015625)"/>
       </defs>
       <use xlink:href="#DejaVuSans-31"/>
       <use xlink:href="#DejaVuSans-35" x="63.623047"/>
       <use xlink:href="#DejaVuSans-2e" x="127.246094"/>
       <use xlink:href="#DejaVuSans-30" x="159.033203"/>
       <use xlink:href="#DejaVuSans-37" x="222.65625"/>
       <use xlink:href="#DejaVuSans-2e" x="286.279297"/>
       <use xlink:href="#DejaVuSans-32" x="318.066406"/>
       <use xlink:href="#DejaVuSans-30" x="381.689453"/>
       <use xlink:href="#DejaVuSans-32" x="445.3125"/>
       <use xlink:href="#DejaVuSans-30" x="508.935547"/>
      </g>
     </g>
    </g>
    <g id="xtick_4">
     <g id="line2d_7">
      <path d="M 168.14386 276.48 
L 168.14386 41.472 
" clip-path="url(#p7506094748)" style="fill: none; stroke-dasharray: 2.96,1.28; stroke-dashoffset: 0; stroke: #808080; stroke-width: 0.8"/>
     </g>
     <g id="line2d_8">
      <g>
       <use xlink:href="#mc1ce4d298e" x="168.14386" y="276.48" style="stroke: #000000; stroke-width: 0.8"/>
      </g>
     </g>
     <g id="text_4">
      <!-- 06.10.2020 -->
      <g transform="translate(117.518649 318.688565)rotate(-30)scale(0.1 -0.1)">
       <defs>
        <path id="DejaVuSans-36" d="M 2113 2584 
Q 1688 2584 1439 2293 
Q 1191 2003 1191 1497 
Q 1191 994 1439 701 
Q 1688 409 2113 409 
Q 2538 409 2786 701 
Q 3034 994 3034 1497 
Q 3034 2003 2786 2293 
Q 2538 2584 2113 2584 
z
M 3366 4563 
L 3366 3988 
Q 3128 4100 2886 4159 
Q 2644 4219 2406 4219 
Q 1781 4219 1451 3797 
Q 1122 3375 1075 2522 
Q 1259 2794 1537 2939 
Q 1816 3084 2150 3084 
Q 2853 3084 3261 2657 
Q 3669 2231 3669 1497 
Q 3669 778 3244 343 
Q 2819 -91 2113 -91 
Q 1303 -91 875 529 
Q 447 1150 447 2328 
Q 447 3434 972 4092 
Q 1497 4750 2381 4750 
Q 2619 4750 2861 4703 
Q 3103 4656 3366 4563 
z
" transform="scale(0.015625)"/>
       </defs>
       <use xlink:href="#DejaVuSans-30"/>
       <use xlink:href="#DejaVuSans-36" x="63.623047"/>
       <use xlink:href="#DejaVuSans-2e" x="127.246094"/>
       <use xlink:href="#DejaVuSans-31" x="159.033203"/>
       <use xlink:href="#DejaVuSans-30" x="222.65625"/>
       <use xlink:href="#DejaVuSans-2e" x="286.279297"/>
       <use xlink:href="#DejaVuSans-32" x="318.066406"/>
       <use xlink:href="#DejaVuSans-30" x="381.689453"/>
       <use xlink:href="#DejaVuSans-32" x="445.3125"/>
       <use xlink:href="#DejaVuSans-30" x="508.935547"/>
      </g>
     </g>
    </g>
    <g id="xtick_5">
     <g id="line2d_9">
      <path d="M 204.168362 276.48 
L 204.168362 41.472 
" clip-path="url(#p7506094748)" style="fill: none; stroke-dasharray: 2.96,1.28; stroke-dashoffset: 0; stroke: #808080; stroke-width: 0.8"/>
     </g>
     <g id="line2d_10">
      <g>
       <use xlink:href="#mc1ce4d298e" x="204.168362" y="276.48" style="stroke: #000000; stroke-width: 0.8"/>
      </g>
     </g>
     <g id="text_5">
      <!-- 28.12.2020 -->
      <g transform="translate(153.543151 318.688565)rotate(-30)scale(0.1 -0.1)">
       <defs>
        <path id="DejaVuSans-38" d="M 2034 2216 
Q 1584 2216 1326 1975 
Q 1069 1734 1069 1313 
Q 1069 891 1326 650 
Q 1584 409 2034 409 
Q 2484 409 2743 651 
Q 3003 894 3003 1313 
Q 3003 1734 2745 1975 
Q 2488 2216 2034 2216 
z
M 1403 2484 
Q 997 2584 770 2862 
Q 544 3141 544 3541 
Q 544 4100 942 4425 
Q 1341 4750 2034 4750 
Q 2731 4750 3128 4425 
Q 3525 4100 3525 3541 
Q 3525 3141 3298 2862 
Q 3072 2584 2669 2484 
Q 3125 2378 3379 2068 
Q 3634 1759 3634 1313 
Q 3634 634 3220 271 
Q 2806 -91 2034 -91 
Q 1263 -91 848 271 
Q 434 634 434 1313 
Q 434 1759 690 2068 
Q 947 2378 1403 2484 
z
M 1172 3481 
Q 1172 3119 1398 2916 
Q 1625 2713 2034 2713 
Q 2441 2713 2670 2916 
Q 2900 3119 2900 3481 
Q 2900 3844 2670 4047 
Q 2441 4250 2034 4250 
Q 1625 4250 1398 4047 
Q 1172 3844 1172 3481 
z
" transform="scale(0.015625)"/>
       </defs>
       <use xlink:href="#DejaVuSans-32"/>
       <use xlink:href="#DejaVuSans-38" x="63.623047"/>
       <use xlink:href="#DejaVuSans-2e" x="127.246094"/>
       <use xlink:href="#DejaVuSans-31" x="159.033203"/>
       <use xlink:href="#DejaVuSans-32" x="222.65625"/>
       <use xlink:href="#DejaVuSans-2e" x="286.279297"/>
       <use xlink:href="#DejaVuSans-32" x="318.066406"/>
       <use xlink:href="#DejaVuSans-30" x="381.689453"/>
       <use xlink:href="#DejaVuSans-32" x="445.3125"/>
       <use xlink:href="#DejaVuSans-30" x="508.935547"/>
      </g>
     </g>
    </g>
    <g id="xtick_6">
     <g id="line2d_11">
      <path d="M 240.192863 276.48 
L 240.192863 41.472 
" clip-path="url(#p7506094748)" style="fill: none; stroke-dasharray: 2.96,1.28; stroke-dashoffset: 0; stroke: #808080; stroke-width: 0.8"/>
     </g>
     <g id="line2d_12">
      <g>
       <use xlink:href="#mc1ce4d298e" x="240.192863" y="276.48" style="stroke: #000000; stroke-width: 0.8"/>
      </g>
     </g>
     <g id="text_6">
      <!-- 21.03.2021 -->
      <g transform="translate(189.567653 318.688565)rotate(-30)scale(0.1 -0.1)">
       <use xlink:href="#DejaVuSans-32"/>
       <use xlink:href="#DejaVuSans-31" x="63.623047"/>
       <use xlink:href="#DejaVuSans-2e" x="127.246094"/>
       <use xlink:href="#DejaVuSans-30" x="159.033203"/>
       <use xlink:href="#DejaVuSans-33" x="222.65625"/>
       <use xlink:href="#DejaVuSans-2e" x="286.279297"/>
       <use xlink:href="#DejaVuSans-32" x="318.066406"/>
       <use xlink:href="#DejaVuSans-30" x="381.689453"/>
       <use xlink:href="#DejaVuSans-32" x="445.3125"/>
       <use xlink:href="#DejaVuSans-31" x="508.935547"/>
      </g>
     </g>
    </g>
    <g id="xtick_7">
     <g id="line2d_13">
      <path d="M 276.217365 276.48 
L 276.217365 41.472 
" clip-path="url(#p7506094748)" style="fill: none; stroke-dasharray: 2.96,1.28; stroke-dashoffset: 0; stroke: #808080; stroke-width: 0.8"/>
     </g>
     <g id="line2d_14">
      <g>
       <use xlink:href="#mc1ce4d298e" x="276.217365" y="276.48" style="stroke: #000000; stroke-width: 0.8"/>
      </g>
     </g>
     <g id="text_7">
      <!-- 12.06.2021 -->
      <g transform="translate(225.592154 318.688565)rotate(-30)scale(0.1 -0.1)">
       <use xlink:href="#DejaVuSans-31"/>
       <use xlink:href="#DejaVuSans-32" x="63.623047"/>
       <use xlink:href="#DejaVuSans-2e" x="127.246094"/>
       <use xlink:href="#DejaVuSans-30" x="159.033203"/>
       <use xlink:href="#DejaVuSans-36" x="222.65625"/>
       <use xlink:href="#DejaVuSans-2e" x="286.279297"/>
       <use xlink:href="#DejaVuSans-32" x="318.066406"/>
       <use xlink:href="#DejaVuSans-30" x="381.689453"/>
       <use xlink:href="#DejaVuSans-32" x="445.3125"/>
       <use xlink:href="#DejaVuSans-31" x="508.935547"/>
      </g>
     </g>
    </g>
    <g id="xtick_8">
     <g id="line2d_15">
      <path d="M 312.241867 276.48 
L 312.241867 41.472 
" clip-path="url(#p7506094748)" style="fill: none; stroke-dasharray: 2.96,1.28; stroke-dashoffset: 0; stroke: #808080; stroke-width: 0.8"/>
     </g>
     <g id="line2d_16">
      <g>
       <use xlink:href="#mc1ce4d298e" x="312.241867" y="276.48" style="stroke: #000000; stroke-width: 0.8"/>
      </g>
     </g>
     <g id="text_8">
      <!-- 03.09.2021 -->
      <g transform="translate(261.616656 318.688565)rotate(-30)scale(0.1 -0.1)">
       <defs>
        <path id="DejaVuSans-39" d="M 703 97 
L 703 672 
Q 941 559 1184 500 
Q 1428 441 1663 441 
Q 2288 441 2617 861 
Q 2947 1281 2994 2138 
Q 2813 1869 2534 1725 
Q 2256 1581 1919 1581 
Q 1219 1581 811 2004 
Q 403 2428 403 3163 
Q 403 3881 828 4315 
Q 1253 4750 1959 4750 
Q 2769 4750 3195 4129 
Q 3622 3509 3622 2328 
Q 3622 1225 3098 567 
Q 2575 -91 1691 -91 
Q 1453 -91 1209 -44 
Q 966 3 703 97 
z
M 1959 2075 
Q 2384 2075 2632 2365 
Q 2881 2656 2881 3163 
Q 2881 3666 2632 3958 
Q 2384 4250 1959 4250 
Q 1534 4250 1286 3958 
Q 1038 3666 1038 3163 
Q 1038 2656 1286 2365 
Q 1534 2075 1959 2075 
z
" transform="scale(0.015625)"/>
       </defs>
       <use xlink:href="#DejaVuSans-30"/>
       <use xlink:href="#DejaVuSans-33" x="63.623047"/>
       <use xlink:href="#DejaVuSans-2e" x="127.246094"/>
       <use xlink:href="#DejaVuSans-30" x="159.033203"/>
       <use xlink:href="#DejaVuSans-39" x="222.65625"/>
       <use xlink:href="#DejaVuSans-2e" x="286.279297"/>
       <use xlink:href="#DejaVuSans-32" x="318.066406"/>
       <use xlink:href="#DejaVuSans-30" x="381.689453"/>
       <use xlink:href="#DejaVuSans-32" x="445.3125"/>
       <use xlink:href="#DejaVuSans-31" x="508.935547"/>
      </g>
     </g>
    </g>
    <g id="xtick_9">
     <g id="line2d_17">
      <path d="M 348.266368 276.48 
L 348.266368 41.472 
" clip-path="url(#p7506094748)" style="fill: none; stroke-dasharray: 2.96,1.28; stroke-dashoffset: 0; stroke: #808080; stroke-width: 0.8"/>
     </g>
     <g id="line2d_18">
      <g>
       <use xlink:href="#mc1ce4d298e" x="348.266368" y="276.48" style="stroke: #000000; stroke-width: 0.8"/>
      </g>
     </g>
     <g id="text_9">
      <!-- 25.11.2021 -->
      <g transform="translate(297.641158 318.688565)rotate(-30)scale(0.1 -0.1)">
       <use xlink:href="#DejaVuSans-32"/>
       <use xlink:href="#DejaVuSans-35" x="63.623047"/>
       <use xlink:href="#DejaVuSans-2e" x="127.246094"/>
       <use xlink:href="#DejaVuSans-31" x="159.033203"/>
       <use xlink:href="#DejaVuSans-31" x="222.65625"/>
       <use xlink:href="#DejaVuSans-2e" x="286.279297"/>
       <use xlink:href="#DejaVuSans-32" x="318.066406"/>
       <use xlink:href="#DejaVuSans-30" x="381.689453"/>
       <use xlink:href="#DejaVuSans-32" x="445.3125"/>
       <use xlink:href="#DejaVuSans-31" x="508.935547"/>
      </g>
     </g>
    </g>
    <g id="xtick_10">
     <g id="line2d_19">
      <path d="M 384.29087 276.48 
L 384.29087 41.472 
" clip-path="url(#p7506094748)" style="fill: none; stroke-dasharray: 2.96,1.28; stroke-dashoffset: 0; stroke: #808080; stroke-width: 0.8"/>
     </g>
     <g id="line2d_20">
      <g>
       <use xlink:href="#mc1ce4d298e" x="384.29087" y="276.48" style="stroke: #000000; stroke-width: 0.8"/>
      </g>
     </g>
     <g id="text_10">
      <!-- 16.02.2022 -->
      <g transform="translate(333.665659 318.688565)rotate(-30)scale(0.1 -0.1)">
       <use xlink:href="#DejaVuSans-31"/>
       <use xlink:href="#DejaVuSans-36" x="63.623047"/>
       <use xlink:href="#DejaVuSans-2e" x="127.246094"/>
       <use xlink:href="#DejaVuSans-30" x="159.033203"/>
       <use xlink:href="#DejaVuSans-32" x="222.65625"/>
       <use xlink:href="#DejaVuSans-2e" x="286.279297"/>
       <use xlink:href="#DejaVuSans-32" x="318.066406"/>
       <use xlink:href="#DejaVuSans-30" x="381.689453"/>
       <use xlink:href="#DejaVuSans-32" x="445.3125"/>
       <use xlink:href="#DejaVuSans-32" x="508.935547"/>
      </g>
     </g>
    </g>
   </g>
   <g id="matplotlib.axis_2">
    <g id="ytick_1">
     <g id="line2d_21">
      <path d="M 57.6 265.797818 
L 414.72 265.797818 
" clip-path="url(#p7506094748)" style="fill: none; stroke-dasharray: 2.96,1.28; stroke-dashoffset: 0; stroke: #808080; stroke-width: 0.8"/>
     </g>
     <g id="line2d_22">
      <defs>
       <path id="m0f30fc2e7d" d="M 0 0 
L -3.5 0 
" style="stroke: #000000; stroke-width: 0.8"/>
      </defs>
      <g>
       <use xlink:href="#m0f30fc2e7d" x="57.6" y="265.797818" style="stroke: #000000; stroke-width: 0.8"/>
      </g>
     </g>
     <g id="text_11">
      <!-- 0 -->
      <g transform="translate(44.2375 269.597037)scale(0.1 -0.1)">
       <use xlink:href="#DejaVuSans-30"/>
      </g>
     </g>
    </g>
    <g id="ytick_2">
     <g id="line2d_23">
      <path d="M 57.6 213.960742 
L 414.72 213.960742 
" clip-path="url(#p7506094748)" style="fill: none; stroke-dasharray: 2.96,1.28; stroke-dashoffset: 0; stroke: #808080; stroke-width: 0.8"/>
     </g>
     <g id="line2d_24">
      <g>
       <use xlink:href="#m0f30fc2e7d" x="57.6" y="213.960742" style="stroke: #000000; stroke-width: 0.8"/>
      </g>
     </g>
     <g id="text_12">
      <!-- 500 -->
      <g transform="translate(31.5125 217.759961)scale(0.1 -0.1)">
       <use xlink:href="#DejaVuSans-35"/>
       <use xlink:href="#DejaVuSans-30" x="63.623047"/>
       <use xlink:href="#DejaVuSans-30" x="127.246094"/>
      </g>
     </g>
    </g>
    <g id="ytick_3">
     <g id="line2d_25">
      <path d="M 57.6 162.123666 
L 414.72 162.123666 
" clip-path="url(#p7506094748)" style="fill: none; stroke-dasharray: 2.96,1.28; stroke-dashoffset: 0; stroke: #808080; stroke-width: 0.8"/>
     </g>
     <g id="line2d_26">
      <g>
       <use xlink:href="#m0f30fc2e7d" x="57.6" y="162.123666" style="stroke: #000000; stroke-width: 0.8"/>
      </g>
     </g>
     <g id="text_13">
      <!-- 1000 -->
      <g transform="translate(25.15 165.922885)scale(0.1 -0.1)">
       <use xlink:href="#DejaVuSans-31"/>
       <use xlink:href="#DejaVuSans-30" x="63.623047"/>
       <use xlink:href="#DejaVuSans-30" x="127.246094"/>
       <use xlink:href="#DejaVuSans-30" x="190.869141"/>
      </g>
     </g>
    </g>
    <g id="ytick_4">
     <g id="line2d_27">
      <path d="M 57.6 110.28659 
L 414.72 110.28659 
" clip-path="url(#p7506094748)" style="fill: none; stroke-dasharray: 2.96,1.28; stroke-dashoffset: 0; stroke: #808080; stroke-width: 0.8"/>
     </g>
     <g id="line2d_28">
      <g>
       <use xlink:href="#m0f30fc2e7d" x="57.6" y="110.28659" style="stroke: #000000; stroke-width: 0.8"/>
      </g>
     </g>
     <g id="text_14">
      <!-- 1500 -->
      <g transform="translate(25.15 114.085809)scale(0.1 -0.1)">
       <use xlink:href="#DejaVuSans-31"/>
       <use xlink:href="#DejaVuSans-35" x="63.623047"/>
       <use xlink:href="#DejaVuSans-30" x="127.246094"/>
       <use xlink:href="#DejaVuSans-30" x="190.869141"/>
      </g>
     </g>
    </g>
    <g id="ytick_5">
     <g id="line2d_29">
      <path d="M 57.6 58.449514 
L 414.72 58.449514 
" clip-path="url(#p7506094748)" style="fill: none; stroke-dasharray: 2.96,1.28; stroke-dashoffset: 0; stroke: #808080; stroke-width: 0.8"/>
     </g>
     <g id="line2d_30">
      <g>
       <use xlink:href="#m0f30fc2e7d" x="57.6" y="58.449514" style="stroke: #000000; stroke-width: 0.8"/>
      </g>
     </g>
     <g id="text_15">
      <!-- 2000 -->
      <g transform="translate(25.15 62.248733)scale(0.1 -0.1)">
       <use xlink:href="#DejaVuSans-32"/>
       <use xlink:href="#DejaVuSans-30" x="63.623047"/>
       <use xlink:href="#DejaVuSans-30" x="127.246094"/>
       <use xlink:href="#DejaVuSans-30" x="190.869141"/>
      </g>
     </g>
    </g>
    <g id="text_16">
     <!-- Inzidenz pro 7 Tage pro 100.000 Einwohner -->
     <g transform="translate(19.070312 267.301)rotate(-90)scale(0.1 -0.1)">
      <defs>
       <path id="DejaVuSans-49" d="M 628 4666 
L 1259 4666 
L 1259 0 
L 628 0 
L 628 4666 
z
" transform="scale(0.015625)"/>
       <path id="DejaVuSans-6e" d="M 3513 2113 
L 3513 0 
L 2938 0 
L 2938 2094 
Q 2938 2591 2744 2837 
Q 2550 3084 2163 3084 
Q 1697 3084 1428 2787 
Q 1159 2491 1159 1978 
L 1159 0 
L 581 0 
L 581 3500 
L 1159 3500 
L 1159 2956 
Q 1366 3272 1645 3428 
Q 1925 3584 2291 3584 
Q 2894 3584 3203 3211 
Q 3513 2838 3513 2113 
z
" transform="scale(0.015625)"/>
       <path id="DejaVuSans-7a" d="M 353 3500 
L 3084 3500 
L 3084 2975 
L 922 459 
L 3084 459 
L 3084 0 
L 275 0 
L 275 525 
L 2438 3041 
L 353 3041 
L 353 3500 
z
" transform="scale(0.015625)"/>
       <path id="DejaVuSans-69" d="M 603 3500 
L 1178 3500 
L 1178 0 
L 603 0 
L 603 3500 
z
M 603 4863 
L 1178 4863 
L 1178 4134 
L 603 4134 
L 603 4863 
z
" transform="scale(0.015625)"/>
       <path id="DejaVuSans-64" d="M 2906 2969 
L 2906 4863 
L 3481 4863 
L 3481 0 
L 2906 0 
L 2906 525 
Q 2725 213 2448 61 
Q 2172 -91 1784 -91 
Q 1150 -91 751 415 
Q 353 922 353 1747 
Q 353 2572 751 3078 
Q 1150 3584 1784 3584 
Q 2172 3584 2448 3432 
Q 2725 3281 2906 2969 
z
M 947 1747 
Q 947 1113 1208 752 
Q 1469 391 1925 391 
Q 2381 391 2643 752 
Q 2906 1113 2906 1747 
Q 2906 2381 2643 2742 
Q 2381 3103 1925 3103 
Q 1469 3103 1208 2742 
Q 947 2381 947 1747 
z
" transform="scale(0.015625)"/>
       <path id="DejaVuSans-65" d="M 3597 1894 
L 3597 1613 
L 953 1613 
Q 991 1019 1311 708 
Q 1631 397 2203 397 
Q 2534 397 2845 478 
Q 3156 559 3463 722 
L 3463 178 
Q 3153 47 2828 -22 
Q 2503 -91 2169 -91 
Q 1331 -91 842 396 
Q 353 884 353 1716 
Q 353 2575 817 3079 
Q 1281 3584 2069 3584 
Q 2775 3584 3186 3129 
Q 3597 2675 3597 1894 
z
M 3022 2063 
Q 3016 2534 2758 2815 
Q 2500 3097 2075 3097 
Q 1594 3097 1305 2825 
Q 1016 2553 972 2059 
L 3022 2063 
z
" transform="scale(0.015625)"/>
       <path id="DejaVuSans-20" transform="scale(0.015625)"/>
       <path id="DejaVuSans-70" d="M 1159 525 
L 1159 -1331 
L 581 -1331 
L 581 3500 
L 1159 3500 
L 1159 2969 
Q 1341 3281 1617 3432 
Q 1894 3584 2278 3584 
Q 2916 3584 3314 3078 
Q 3713 2572 3713 1747 
Q 3713 922 3314 415 
Q 2916 -91 2278 -91 
Q 1894 -91 1617 61 
Q 1341 213 1159 525 
z
M 3116 1747 
Q 3116 2381 2855 2742 
Q 2594 3103 2138 3103 
Q 1681 3103 1420 2742 
Q 1159 2381 1159 1747 
Q 1159 1113 1420 752 
Q 1681 391 2138 391 
Q 2594 391 2855 752 
Q 3116 1113 3116 1747 
z
" transform="scale(0.015625)"/>
       <path id="DejaVuSans-72" d="M 2631 2963 
Q 2534 3019 2420 3045 
Q 2306 3072 2169 3072 
Q 1681 3072 1420 2755 
Q 1159 2438 1159 1844 
L 1159 0 
L 581 0 
L 581 3500 
L 1159 3500 
L 1159 2956 
Q 1341 3275 1631 3429 
Q 1922 3584 2338 3584 
Q 2397 3584 2469 3576 
Q 2541 3569 2628 3553 
L 2631 2963 
z
" transform="scale(0.015625)"/>
       <path id="DejaVuSans-6f" d="M 1959 3097 
Q 1497 3097 1228 2736 
Q 959 2375 959 1747 
Q 959 1119 1226 758 
Q 1494 397 1959 397 
Q 2419 397 2687 759 
Q 2956 1122 2956 1747 
Q 2956 2369 2687 2733 
Q 2419 3097 1959 3097 
z
M 1959 3584 
Q 2709 3584 3137 3096 
Q 3566 2609 3566 1747 
Q 3566 888 3137 398 
Q 2709 -91 1959 -91 
Q 1206 -91 779 398 
Q 353 888 353 1747 
Q 353 2609 779 3096 
Q 1206 3584 1959 3584 
z
" transform="scale(0.015625)"/>
       <path id="DejaVuSans-54" d="M -19 4666 
L 3928 4666 
L 3928 4134 
L 2272 4134 
L 2272 0 
L 1638 0 
L 1638 4134 
L -19 4134 
L -19 4666 
z
" transform="scale(0.015625)"/>
       <path id="DejaVuSans-61" d="M 2194 1759 
Q 1497 1759 1228 1600 
Q 959 1441 959 1056 
Q 959 750 1161 570 
Q 1363 391 1709 391 
Q 2188 391 2477 730 
Q 2766 1069 2766 1631 
L 2766 1759 
L 2194 1759 
z
M 3341 1997 
L 3341 0 
L 2766 0 
L 2766 531 
Q 2569 213 2275 61 
Q 1981 -91 1556 -91 
Q 1019 -91 701 211 
Q 384 513 384 1019 
Q 384 1609 779 1909 
Q 1175 2209 1959 2209 
L 2766 2209 
L 2766 2266 
Q 2766 2663 2505 2880 
Q 2244 3097 1772 3097 
Q 1472 3097 1187 3025 
Q 903 2953 641 2809 
L 641 3341 
Q 956 3463 1253 3523 
Q 1550 3584 1831 3584 
Q 2591 3584 2966 3190 
Q 3341 2797 3341 1997 
z
" transform="scale(0.015625)"/>
       <path id="DejaVuSans-67" d="M 2906 1791 
Q 2906 2416 2648 2759 
Q 2391 3103 1925 3103 
Q 1463 3103 1205 2759 
Q 947 2416 947 1791 
Q 947 1169 1205 825 
Q 1463 481 1925 481 
Q 2391 481 2648 825 
Q 2906 1169 2906 1791 
z
M 3481 434 
Q 3481 -459 3084 -895 
Q 2688 -1331 1869 -1331 
Q 1566 -1331 1297 -1286 
Q 1028 -1241 775 -1147 
L 775 -588 
Q 1028 -725 1275 -790 
Q 1522 -856 1778 -856 
Q 2344 -856 2625 -561 
Q 2906 -266 2906 331 
L 2906 616 
Q 2728 306 2450 153 
Q 2172 0 1784 0 
Q 1141 0 747 490 
Q 353 981 353 1791 
Q 353 2603 747 3093 
Q 1141 3584 1784 3584 
Q 2172 3584 2450 3431 
Q 2728 3278 2906 2969 
L 2906 3500 
L 3481 3500 
L 3481 434 
z
" transform="scale(0.015625)"/>
       <path id="DejaVuSans-45" d="M 628 4666 
L 3578 4666 
L 3578 4134 
L 1259 4134 
L 1259 2753 
L 3481 2753 
L 3481 2222 
L 1259 2222 
L 1259 531 
L 3634 531 
L 3634 0 
L 628 0 
L 628 4666 
z
" transform="scale(0.015625)"/>
       <path id="DejaVuSans-77" d="M 269 3500 
L 844 3500 
L 1563 769 
L 2278 3500 
L 2956 3500 
L 3675 769 
L 4391 3500 
L 4966 3500 
L 4050 0 
L 3372 0 
L 2619 2869 
L 1863 0 
L 1184 0 
L 269 3500 
z
" transform="scale(0.015625)"/>
       <path id="DejaVuSans-68" d="M 3513 2113 
L 3513 0 
L 2938 0 
L 2938 2094 
Q 2938 2591 2744 2837 
Q 2550 3084 2163 3084 
Q 1697 3084 1428 2787 
Q 1159 2491 1159 1978 
L 1159 0 
L 581 0 
L 581 4863 
L 1159 4863 
L 1159 2956 
Q 1366 3272 1645 3428 
Q 1925 3584 2291 3584 
Q 2894 3584 3203 3211 
Q 3513 2838 3513 2113 
z
" transform="scale(0.015625)"/>
      </defs>
      <use xlink:href="#DejaVuSans-49"/>
      <use xlink:href="#DejaVuSans-6e" x="29.492188"/>
      <use xlink:href="#DejaVuSans-7a" x="92.871094"/>
      <use xlink:href="#DejaVuSans-69" x="145.361328"/>
      <use xlink:href="#DejaVuSans-64" x="173.144531"/>
      <use xlink:href="#DejaVuSans-65" x="236.621094"/>
      <use xlink:href="#DejaVuSans-6e" x="298.144531"/>
      <use xlink:href="#DejaVuSans-7a" x="361.523438"/>
      <use xlink:href="#DejaVuSans-20" x="414.013672"/>
      <use xlink:href="#DejaVuSans-70" x="445.800781"/>
      <use xlink:href="#DejaVuSans-72" x="509.277344"/>
      <use xlink:href="#DejaVuSans-6f" x="548.140625"/>
      <use xlink:href="#DejaVuSans-20" x="609.322266"/>
      <use xlink:href="#DejaVuSans-37" x="641.109375"/>
      <use xlink:href="#DejaVuSans-20" x="704.732422"/>
      <use xlink:href="#DejaVuSans-54" x="736.519531"/>
      <use xlink:href="#DejaVuSans-61" x="781.103516"/>
      <use xlink:href="#DejaVuSans-67" x="842.382812"/>
      <use xlink:href="#DejaVuSans-65" x="905.859375"/>
      <use xlink:href="#DejaVuSans-20" x="967.382812"/>
      <use xlink:href="#DejaVuSans-70" x="999.169922"/>
      <use xlink:href="#DejaVuSans-72" x="1062.646484"/>
      <use xlink:href="#DejaVuSans-6f" x="1101.509766"/>
      <use xlink:href="#DejaVuSans-20" x="1162.691406"/>
      <use xlink:href="#DejaVuSans-31" x="1194.478516"/>
      <use xlink:href="#DejaVuSans-30" x="1258.101562"/>
      <use xlink:href="#DejaVuSans-30" x="1321.724609"/>
      <use xlink:href="#DejaVuSans-2e" x="1385.347656"/>
      <use xlink:href="#DejaVuSans-30" x="1417.134766"/>
      <use xlink:href="#DejaVuSans-30" x="1480.757812"/>
      <use xlink:href="#DejaVuSans-30" x="1544.380859"/>
      <use xlink:href="#DejaVuSans-20" x="1608.003906"/>
      <use xlink:href="#DejaVuSans-45" x="1639.791016"/>
      <use xlink:href="#DejaVuSans-69" x="1702.974609"/>
      <use xlink:href="#DejaVuSans-6e" x="1730.757812"/>
      <use xlink:href="#DejaVuSans-77" x="1794.136719"/>
      <use xlink:href="#DejaVuSans-6f" x="1875.923828"/>
      <use xlink:href="#DejaVuSans-68" x="1937.105469"/>
      <use xlink:href="#DejaVuSans-6e" x="2000.484375"/>
      <use xlink:href="#DejaVuSans-65" x="2063.863281"/>
      <use xlink:href="#DejaVuSans-72" x="2125.386719"/>
     </g>
    </g>
   </g>
   <g id="line2d_31">
    <path d="M 73.832727 265.797818 
L 77.738999 265.734498 
L 78.173029 265.481215 
L 78.607059 265.481215 
L 79.041089 265.101292 
L 79.475119 265.101292 
L 80.343179 264.594727 
L 80.77721 264.088163 
L 81.21124 264.024842 
L 81.64527 263.708239 
L 82.0793 263.898201 
L 82.51333 263.898201 
L 82.94736 263.708239 
L 83.38139 263.77156 
L 84.249451 263.454957 
L 84.683481 263.328316 
L 85.117511 262.69511 
L 85.985571 262.378507 
L 86.419601 261.68198 
L 86.853632 261.935263 
L 87.287662 261.808622 
L 87.721692 261.871942 
L 88.155722 262.505148 
L 88.589752 262.631789 
L 89.023782 263.011713 
L 89.457812 263.77156 
L 89.891842 264.024842 
L 90.325873 264.531407 
L 90.759903 264.784689 
L 91.627963 264.784689 
L 92.061993 264.974651 
L 92.496023 265.037971 
L 92.930053 264.531407 
L 93.798114 264.088163 
L 94.666174 264.151483 
L 95.100204 264.151483 
L 95.534234 264.278124 
L 95.968264 264.91133 
L 96.402295 264.91133 
L 96.836325 265.291254 
L 97.704385 265.354574 
L 98.138415 265.354574 
L 98.572445 265.164612 
L 101.176626 265.101292 
L 101.610656 265.037971 
L 102.044686 264.848009 
L 102.912747 264.91133 
L 104.214837 264.784689 
L 104.648867 264.91133 
L 105.516928 265.291254 
L 105.950958 265.164612 
L 107.687078 265.354574 
L 108.121108 265.037971 
L 109.857229 265.291254 
L 110.291259 265.037971 
L 110.725289 265.101292 
L 111.159319 265.417895 
L 112.89544 265.417895 
L 113.32947 265.734498 
L 114.631561 265.607856 
L 115.499621 265.671177 
L 116.801711 265.607856 
L 117.235741 265.481215 
L 118.103802 265.544536 
L 119.839922 265.544536 
L 120.273952 265.671177 
L 120.707982 265.671177 
L 121.142013 265.544536 
L 122.444103 265.544536 
L 122.878133 265.671177 
L 125.916344 265.607856 
L 127.218435 265.481215 
L 128.086495 265.544536 
L 128.954555 265.481215 
L 129.822615 265.417895 
L 130.690676 264.974651 
L 131.124706 264.974651 
L 131.558736 265.101292 
L 131.992766 264.91133 
L 132.426796 264.848009 
L 132.860826 264.91133 
L 133.728887 265.291254 
L 135.465007 265.101292 
L 135.899037 265.164612 
L 136.767098 264.721368 
L 137.201128 264.784689 
L 137.635158 264.531407 
L 138.069188 264.658048 
L 138.503218 264.658048 
L 138.937248 264.278124 
L 139.371279 264.594727 
L 139.805309 264.721368 
L 140.239339 264.531407 
L 141.541429 264.721368 
L 141.975459 264.974651 
L 142.40949 264.848009 
L 143.71158 264.784689 
L 144.57964 264.404765 
L 145.447701 263.581598 
L 146.315761 263.708239 
L 147.617851 263.454957 
L 148.051881 263.581598 
L 149.353972 263.644918 
L 149.788002 263.77156 
L 150.656062 264.151483 
L 151.090092 264.278124 
L 151.524123 264.848009 
L 152.392183 264.848009 
L 152.826213 264.214804 
L 153.260243 264.024842 
L 154.128303 264.404765 
L 154.562333 263.77156 
L 154.996364 263.644918 
L 155.430394 263.644918 
L 155.864424 264.531407 
L 156.298454 264.658048 
L 157.166514 263.77156 
L 157.600544 264.088163 
L 158.034575 263.708239 
L 158.468605 263.708239 
L 158.902635 263.201674 
L 159.336665 262.948392 
L 160.204725 263.328316 
L 161.506816 263.264995 
L 162.374876 263.961521 
L 162.808906 263.518277 
L 163.242936 263.644918 
L 163.676966 263.518277 
L 164.110997 263.83488 
L 164.545027 263.328316 
L 165.413087 262.69511 
L 166.281147 261.998583 
L 166.715177 261.935263 
L 167.149208 261.68198 
L 167.583238 261.808622 
L 168.017268 262.061904 
L 168.451298 261.745301 
L 168.885328 261.808622 
L 169.319358 261.238736 
L 169.753388 260.478889 
L 170.187419 260.668851 
L 170.621449 261.112095 
L 171.055479 259.339119 
L 171.489509 258.769234 
L 171.923539 257.946066 
L 172.791599 258.705913 
L 173.22563 257.31286 
L 173.65966 256.616334 
L 174.09369 257.122899 
L 174.52772 256.996258 
L 174.96175 257.882746 
L 175.39578 256.299731 
L 175.82981 255.666525 
L 176.263841 256.109769 
L 176.697871 255.286602 
L 177.131901 255.09664 
L 177.565931 253.703587 
L 177.999961 252.690458 
L 178.433991 251.360726 
L 178.868021 249.081185 
L 179.302052 248.701262 
L 179.736082 249.714391 
L 180.170112 247.181568 
L 180.604142 246.611682 
L 181.038172 245.28195 
L 181.472202 246.485041 
L 181.906232 248.447979 
L 182.340263 249.397788 
L 182.774293 248.321338 
L 183.208323 249.714391 
L 184.076383 250.094314 
L 184.510413 248.701262 
L 184.944443 248.637941 
L 185.378474 246.991606 
L 185.812504 247.181568 
L 186.680564 249.841032 
L 187.114594 250.347597 
L 187.548624 251.424047 
L 187.982654 250.6642 
L 188.416684 252.183894 
L 188.850715 251.614008 
L 189.284745 250.347597 
L 189.718775 248.131376 
L 190.152805 246.864965 
L 190.586835 247.688132 
L 191.020865 247.43485 
L 191.454895 246.738324 
L 192.322956 247.941415 
L 192.756986 249.967673 
L 193.191016 250.474238 
L 193.625046 250.284276 
L 194.059076 250.410917 
L 194.493106 249.207826 
L 195.361167 248.068056 
L 195.795197 246.928285 
L 196.229227 246.991606 
L 196.663257 246.864965 
L 197.097287 246.991606 
L 197.531317 247.751453 
L 197.965348 247.181568 
L 198.399378 247.054927 
L 198.833408 248.194697 
L 199.267438 248.321338 
L 199.701468 248.321338 
L 200.135498 247.941415 
L 200.569528 247.118247 
L 201.003559 246.041797 
L 201.437589 246.485041 
L 201.871619 247.43485 
L 202.305649 247.814774 
L 203.173709 250.854161 
L 203.607739 251.993932 
L 204.04177 255.09664 
L 204.4758 255.666525 
L 204.90983 254.653396 
L 205.34386 255.729846 
L 205.77789 255.349923 
L 206.21192 255.539884 
L 206.64595 256.489693 
L 207.079981 255.223281 
L 207.948041 255.03332 
L 209.250131 250.6642 
L 209.684161 249.65107 
L 210.118192 250.72752 
L 210.552222 251.170764 
L 210.986252 251.107444 
L 211.854312 251.930611 
L 212.288342 253.070382 
L 212.722372 253.070382 
L 213.156403 252.627138 
L 214.024463 253.133702 
L 214.458493 253.640267 
L 214.892523 254.400114 
L 215.326553 253.513626 
L 215.760583 253.133702 
L 216.194614 253.450305 
L 216.628644 253.576946 
L 217.062674 254.02019 
L 217.496704 253.893549 
L 217.930734 254.146831 
L 218.364764 255.09664 
L 218.798794 256.426372 
L 219.232825 255.413243 
L 219.666855 255.793167 
L 220.100885 256.363052 
L 220.534915 257.502822 
L 220.968945 257.31286 
L 221.402975 257.376181 
L 221.837005 257.122899 
L 222.271035 258.072707 
L 222.705066 258.136028 
L 223.139096 258.072707 
L 223.573126 257.692784 
L 224.007156 258.515952 
L 224.441186 258.32599 
L 224.875216 258.515952 
L 225.309246 258.136028 
L 225.743277 258.072707 
L 226.177307 258.579272 
L 226.611337 259.339119 
L 227.045367 258.769234 
L 227.479397 258.769234 
L 227.913427 258.136028 
L 228.781488 258.705913 
L 229.215518 258.515952 
L 229.649548 258.136028 
L 230.083578 258.642593 
L 230.517608 258.38931 
L 230.951638 258.38931 
L 231.819699 258.705913 
L 232.253729 258.832554 
L 232.687759 259.46576 
L 233.121789 259.655722 
L 233.555819 260.162287 
L 234.423879 259.909004 
L 234.85791 259.972325 
L 235.29194 259.592401 
L 235.72597 258.959196 
L 236.59403 258.642593 
L 237.02806 258.32599 
L 237.46209 257.186219 
L 237.896121 257.31286 
L 238.330151 257.24954 
L 238.764181 256.489693 
L 239.198211 256.17309 
L 240.066271 254.716717 
L 240.500301 255.03332 
L 240.934332 254.716717 
L 241.368362 254.590076 
L 241.802392 254.590076 
L 242.236422 254.716717 
L 242.670452 254.653396 
L 243.104482 255.223281 
L 243.538512 254.590076 
L 244.406573 252.690458 
L 244.840603 253.450305 
L 245.274633 252.94374 
L 246.142693 252.627138 
L 247.444784 254.843358 
L 247.878814 255.03332 
L 248.312844 255.476564 
L 249.180904 255.03332 
L 249.614934 254.146831 
L 250.048965 251.297405 
L 250.482995 250.157635 
L 251.785085 244.078859 
L 252.219115 241.98928 
L 252.653145 239.329816 
L 253.087175 239.393136 
L 253.521206 239.329816 
L 253.955236 239.83638 
L 254.823296 239.203175 
L 255.257326 239.203175 
L 255.691356 239.709739 
L 256.125386 238.443328 
L 256.559417 239.899701 
L 256.993447 239.393136 
L 257.427477 240.976151 
L 257.861507 241.609357 
L 258.295537 240.786189 
L 258.729567 243.825577 
L 259.163597 244.648745 
L 259.597628 241.419395 
L 260.465688 239.013213 
L 260.899718 239.013213 
L 261.333748 241.102792 
L 261.767778 239.393136 
L 262.201808 240.406266 
L 263.069869 244.522103 
L 263.503899 246.29508 
L 263.937929 247.561491 
L 264.805989 252.437176 
L 265.240019 253.450305 
L 265.67405 253.703587 
L 267.41017 255.476564 
L 267.8442 255.603205 
L 268.27823 257.31286 
L 268.712261 258.452631 
L 269.146291 259.212478 
L 270.014351 260.985454 
L 270.448381 261.048775 
L 270.882411 260.985454 
L 271.316441 260.795492 
L 271.750472 260.478889 
L 272.184502 260.54221 
L 272.618532 261.112095 
L 273.052562 261.112095 
L 273.486592 260.858813 
L 273.920622 261.428698 
L 274.354652 261.365378 
L 275.222713 262.378507 
L 275.656743 261.998583 
L 276.524803 262.948392 
L 276.958833 262.885072 
L 277.392863 263.011713 
L 278.260924 264.214804 
L 278.694954 264.721368 
L 279.128984 264.91133 
L 279.563014 264.974651 
L 279.997044 264.848009 
L 280.431074 265.101292 
L 280.865105 265.101292 
L 281.299135 264.784689 
L 282.167195 264.848009 
L 282.601225 264.784689 
L 283.035255 264.974651 
L 283.903316 265.037971 
L 284.337346 265.481215 
L 286.073466 265.544536 
L 286.507496 265.227933 
L 287.809587 265.291254 
L 288.243617 265.417895 
L 288.677647 265.164612 
L 289.111677 265.164612 
L 289.545707 265.354574 
L 289.979737 265.227933 
L 290.413768 264.531407 
L 291.281828 264.088163 
L 291.715858 264.214804 
L 293.017948 263.83488 
L 293.451979 263.961521 
L 293.886009 263.961521 
L 295.188099 263.201674 
L 295.622129 263.391636 
L 296.056159 263.201674 
L 296.92422 262.69511 
L 297.35825 262.821751 
L 297.79228 262.75843 
L 298.22631 262.885072 
L 298.66034 262.378507 
L 299.09437 262.251866 
L 299.528401 262.75843 
L 299.962431 261.175416 
L 300.396461 260.795492 
L 300.830491 260.732172 
L 301.264521 260.225607 
L 301.698551 259.529081 
L 302.566612 258.959196 
L 303.000642 259.339119 
L 303.434672 258.262669 
L 304.302732 257.946066 
L 304.736762 257.566143 
L 305.170792 255.729846 
L 306.038853 249.777711 
L 306.472883 248.447979 
L 306.906913 245.915156 
L 307.340943 244.2055 
L 307.774973 244.395462 
L 308.209003 241.735998 
L 308.643034 243.382333 
L 309.077064 242.242562 
L 309.511094 241.609357 
L 309.945124 242.622486 
L 310.379154 243.319012 
L 310.813184 243.382333 
L 311.247214 245.978477 
L 311.681245 241.609357 
L 312.115275 242.495845 
L 312.549305 241.799318 
L 312.983335 240.596227 
L 313.417365 240.786189 
L 313.851395 240.786189 
L 314.285425 240.279625 
L 315.153486 246.105118 
L 315.587516 246.864965 
L 316.021546 248.258018 
L 316.455576 248.5113 
L 316.889606 249.207826 
L 317.323636 249.461109 
L 317.757667 250.347597 
L 318.191697 250.220956 
L 318.625727 251.234085 
L 319.059757 251.550688 
L 319.493787 251.614008 
L 319.927817 250.600879 
L 320.795877 253.95687 
L 321.229908 254.653396 
L 321.663938 256.109769 
L 322.097968 256.932937 
L 322.531998 257.376181 
L 322.966028 258.452631 
L 323.400058 258.009387 
L 323.834088 257.882746 
L 324.268119 258.579272 
L 325.570209 259.845684 
L 326.004239 259.909004 
L 326.438269 260.54221 
L 326.872299 260.858813 
L 327.30633 260.858813 
L 327.74036 261.175416 
L 328.60842 261.365378 
L 329.47648 261.428698 
L 329.91051 261.555339 
L 330.344541 261.492019 
L 330.778571 260.478889 
L 331.646631 260.668851 
L 332.080661 260.478889 
L 332.514691 260.035645 
L 332.948721 259.40244 
L 333.382752 257.692784 
L 333.816782 257.502822 
L 334.684842 255.286602 
L 335.118872 255.223281 
L 335.552902 254.653396 
L 335.986932 250.347597 
L 336.420963 247.941415 
L 336.854993 247.371529 
L 337.289023 245.915156 
L 337.723053 246.675003 
L 338.157083 246.801644 
L 338.591113 248.131376 
L 339.025143 249.904353 
L 339.459174 249.397788 
L 339.893204 247.498171 
L 340.761264 245.091989 
L 341.195294 244.902027 
L 341.629324 241.419395 
L 342.063354 239.77306 
L 342.497385 240.216304 
L 342.931415 239.456457 
L 343.365445 242.369204 
L 344.233505 237.746801 
L 344.667535 238.380007 
L 345.101565 236.48039 
L 345.535596 235.593902 
L 345.969626 233.567643 
L 346.403656 230.654896 
L 346.837686 228.945241 
L 347.271716 228.945241 
L 348.139776 224.639441 
L 348.573807 224.132877 
L 349.007837 225.779212 
L 349.441867 224.386159 
L 349.875897 227.172264 
L 350.309927 227.932111 
L 350.743957 227.045623 
L 351.177987 231.731346 
L 351.612018 232.11127 
L 352.046048 229.135202 
L 352.480078 231.161461 
L 352.914108 228.88192 
L 353.348138 229.768408 
L 353.782168 232.237911 
L 354.216198 230.338293 
L 354.650228 232.11127 
L 355.084259 234.454131 
L 355.518289 235.46726 
L 355.952319 236.923634 
L 356.386349 237.050275 
L 356.820379 235.973825 
L 357.254409 236.54371 
L 357.688439 238.759931 
L 358.12247 239.203175 
L 358.5565 238.126725 
L 358.99053 240.469586 
L 359.42456 239.456457 
L 359.85859 240.469586 
L 360.29262 242.495845 
L 360.72665 239.519778 
L 361.160681 241.799318 
L 361.594711 243.255692 
L 362.028741 243.698936 
L 362.896801 245.28195 
L 363.330831 244.395462 
L 363.764861 248.004735 
L 364.198892 239.899701 
L 364.632922 241.672677 
L 365.066952 238.126725 
L 365.500982 238.380007 
L 365.935012 235.277299 
L 366.803072 218.940589 
L 367.237103 221.283451 
L 367.671133 211.595402 
L 368.105163 214.064904 
L 368.539193 212.48189 
L 368.973223 203.933612 
L 369.407253 204.8201 
L 369.841283 193.612357 
L 370.709344 188.989955 
L 371.143374 184.430873 
L 371.577404 175.819274 
L 372.445464 167.207675 
L 372.879494 167.397637 
L 373.313525 155.430048 
L 373.747555 161.698785 
L 374.181585 158.342794 
L 375.049645 135.357424 
L 375.483675 132.76128 
L 375.917705 123.073231 
L 376.351736 127.948916 
L 376.785766 111.548886 
L 377.219796 100.467784 
L 377.653826 98.631487 
L 378.087856 107.749651 
L 378.521886 107.876292 
L 378.955916 114.145029 
L 379.389947 116.804494 
L 380.258007 139.916505 
L 380.692037 141.309558 
L 381.560097 129.215327 
L 381.994127 135.674027 
L 382.428158 129.911854 
L 382.862188 107.496369 
L 383.296218 102.810646 
L 383.730248 105.026866 
L 384.164278 110.155833 
L 384.598308 113.511824 
L 385.032338 109.269345 
L 385.900399 148.338143 
L 386.768459 152.200698 
L 387.202489 151.884095 
L 387.636519 145.741999 
L 388.070549 148.844707 
L 388.504579 122.060102 
L 389.37264 125.985978 
L 389.80667 132.254715 
L 390.2407 136.687156 
L 390.67473 138.396812 
L 391.10876 129.215327 
L 391.54279 129.53193 
L 392.410851 109.395986 
L 392.844881 94.51565 
L 393.278911 71.340318 
L 393.712941 78.748825 
L 394.146971 62.222154 
L 394.581001 52.154182 
L 395.449062 67.921006 
L 395.883092 62.728719 
L 396.317122 66.907877 
L 396.751152 55.636814 
L 397.619212 74.696308 
L 398.053243 75.456155 
L 398.487273 75.709438 
L 398.487273 75.709438 
" clip-path="url(#p7506094748)" style="fill: none; stroke: #1f77b4; stroke-width: 1.5; stroke-linecap: square"/>
   </g>
   <g id="patch_3">
    <path d="M 57.6 276.48 
L 57.6 41.472 
" style="fill: none; stroke: #000000; stroke-width: 0.8; stroke-linejoin: miter; stroke-linecap: square"/>
   </g>
   <g id="patch_4">
    <path d="M 414.72 276.48 
L 414.72 41.472 
" style="fill: none; stroke: #000000; stroke-width: 0.8; stroke-linejoin: miter; stroke-linecap: square"/>
   </g>
   <g id="patch_5">
    <path d="M 57.6 276.48 
L 414.72 276.48 
" style="fill: none; stroke: #000000; stroke-width: 0.8; stroke-linejoin: miter; stroke-linecap: square"/>
   </g>
   <g id="patch_6">
    <path d="M 57.6 41.472 
L 414.72 41.472 
" style="fill: none; stroke: #000000; stroke-width: 0.8; stroke-linejoin: miter; stroke-linecap: square"/>
   </g>
  </g>
  <g id="text_17">
   <!-- Inzidenzverlauf SK Leverkusen -->
   <g transform="translate(92.826563 20.589187)scale(0.18 -0.18)">
    <defs>
     <path id="DejaVuSans-76" d="M 191 3500 
L 800 3500 
L 1894 563 
L 2988 3500 
L 3597 3500 
L 2284 0 
L 1503 0 
L 191 3500 
z
" transform="scale(0.015625)"/>
     <path id="DejaVuSans-6c" d="M 603 4863 
L 1178 4863 
L 1178 0 
L 603 0 
L 603 4863 
z
" transform="scale(0.015625)"/>
     <path id="DejaVuSans-75" d="M 544 1381 
L 544 3500 
L 1119 3500 
L 1119 1403 
Q 1119 906 1312 657 
Q 1506 409 1894 409 
Q 2359 409 2629 706 
Q 2900 1003 2900 1516 
L 2900 3500 
L 3475 3500 
L 3475 0 
L 2900 0 
L 2900 538 
Q 2691 219 2414 64 
Q 2138 -91 1772 -91 
Q 1169 -91 856 284 
Q 544 659 544 1381 
z
M 1991 3584 
L 1991 3584 
z
" transform="scale(0.015625)"/>
     <path id="DejaVuSans-66" d="M 2375 4863 
L 2375 4384 
L 1825 4384 
Q 1516 4384 1395 4259 
Q 1275 4134 1275 3809 
L 1275 3500 
L 2222 3500 
L 2222 3053 
L 1275 3053 
L 1275 0 
L 697 0 
L 697 3053 
L 147 3053 
L 147 3500 
L 697 3500 
L 697 3744 
Q 697 4328 969 4595 
Q 1241 4863 1831 4863 
L 2375 4863 
z
" transform="scale(0.015625)"/>
     <path id="DejaVuSans-53" d="M 3425 4513 
L 3425 3897 
Q 3066 4069 2747 4153 
Q 2428 4238 2131 4238 
Q 1616 4238 1336 4038 
Q 1056 3838 1056 3469 
Q 1056 3159 1242 3001 
Q 1428 2844 1947 2747 
L 2328 2669 
Q 3034 2534 3370 2195 
Q 3706 1856 3706 1288 
Q 3706 609 3251 259 
Q 2797 -91 1919 -91 
Q 1588 -91 1214 -16 
Q 841 59 441 206 
L 441 856 
Q 825 641 1194 531 
Q 1563 422 1919 422 
Q 2459 422 2753 634 
Q 3047 847 3047 1241 
Q 3047 1584 2836 1778 
Q 2625 1972 2144 2069 
L 1759 2144 
Q 1053 2284 737 2584 
Q 422 2884 422 3419 
Q 422 4038 858 4394 
Q 1294 4750 2059 4750 
Q 2388 4750 2728 4690 
Q 3069 4631 3425 4513 
z
" transform="scale(0.015625)"/>
     <path id="DejaVuSans-4b" d="M 628 4666 
L 1259 4666 
L 1259 2694 
L 3353 4666 
L 4166 4666 
L 1850 2491 
L 4331 0 
L 3500 0 
L 1259 2247 
L 1259 0 
L 628 0 
L 628 4666 
z
" transform="scale(0.015625)"/>
     <path id="DejaVuSans-4c" d="M 628 4666 
L 1259 4666 
L 1259 531 
L 3531 531 
L 3531 0 
L 628 0 
L 628 4666 
z
" transform="scale(0.015625)"/>
     <path id="DejaVuSans-6b" d="M 581 4863 
L 1159 4863 
L 1159 1991 
L 2875 3500 
L 3609 3500 
L 1753 1863 
L 3688 0 
L 2938 0 
L 1159 1709 
L 1159 0 
L 581 0 
L 581 4863 
z
" transform="scale(0.015625)"/>
     <path id="DejaVuSans-73" d="M 2834 3397 
L 2834 2853 
Q 2591 2978 2328 3040 
Q 2066 3103 1784 3103 
Q 1356 3103 1142 2972 
Q 928 2841 928 2578 
Q 928 2378 1081 2264 
Q 1234 2150 1697 2047 
L 1894 2003 
Q 2506 1872 2764 1633 
Q 3022 1394 3022 966 
Q 3022 478 2636 193 
Q 2250 -91 1575 -91 
Q 1294 -91 989 -36 
Q 684 19 347 128 
L 347 722 
Q 666 556 975 473 
Q 1284 391 1588 391 
Q 1994 391 2212 530 
Q 2431 669 2431 922 
Q 2431 1156 2273 1281 
Q 2116 1406 1581 1522 
L 1381 1569 
Q 847 1681 609 1914 
Q 372 2147 372 2553 
Q 372 3047 722 3315 
Q 1072 3584 1716 3584 
Q 2034 3584 2315 3537 
Q 2597 3491 2834 3397 
z
" transform="scale(0.015625)"/>
    </defs>
    <use xlink:href="#DejaVuSans-49"/>
    <use xlink:href="#DejaVuSans-6e" x="29.492188"/>
    <use xlink:href="#DejaVuSans-7a" x="92.871094"/>
    <use xlink:href="#DejaVuSans-69" x="145.361328"/>
    <use xlink:href="#DejaVuSans-64" x="173.144531"/>
    <use xlink:href="#DejaVuSans-65" x="236.621094"/>
    <use xlink:href="#DejaVuSans-6e" x="298.144531"/>
    <use xlink:href="#DejaVuSans-7a" x="361.523438"/>
    <use xlink:href="#DejaVuSans-76" x="414.013672"/>
    <use xlink:href="#DejaVuSans-65" x="473.193359"/>
    <use xlink:href="#DejaVuSans-72" x="534.716797"/>
    <use xlink:href="#DejaVuSans-6c" x="575.830078"/>
    <use xlink:href="#DejaVuSans-61" x="603.613281"/>
    <use xlink:href="#DejaVuSans-75" x="664.892578"/>
    <use xlink:href="#DejaVuSans-66" x="728.271484"/>
    <use xlink:href="#DejaVuSans-20" x="763.476562"/>
    <use xlink:href="#DejaVuSans-53" x="795.263672"/>
    <use xlink:href="#DejaVuSans-4b" x="858.740234"/>
    <use xlink:href="#DejaVuSans-20" x="924.316406"/>
    <use xlink:href="#DejaVuSans-4c" x="956.103516"/>
    <use xlink:href="#DejaVuSans-65" x="1010.066406"/>
    <use xlink:href="#DejaVuSans-76" x="1071.589844"/>
    <use xlink:href="#DejaVuSans-65" x="1130.769531"/>
    <use xlink:href="#DejaVuSans-72" x="1192.292969"/>
    <use xlink:href="#DejaVuSans-6b" x="1233.40625"/>
    <use xlink:href="#DejaVuSans-75" x="1288.191406"/>
    <use xlink:href="#DejaVuSans-73" x="1351.570312"/>
    <use xlink:href="#DejaVuSans-65" x="1403.669922"/>
    <use xlink:href="#DejaVuSans-6e" x="1465.193359"/>
   </g>
  </g>
 </g>
 <defs>
  <clipPath id="p7506094748">
   <rect x="57.6" y="41.472" width="357.12" height="235.008"/>
  </clipPath>
 </defs>
</svg>
