<?xml version="1.0" encoding="utf-8" standalone="no"?>
<!DOCTYPE svg PUBLIC "-//W3C//DTD SVG 1.1//EN"
  "http://www.w3.org/Graphics/SVG/1.1/DTD/svg11.dtd">
<svg xmlns:xlink="http://www.w3.org/1999/xlink" width="460.8pt" height="345.6pt" viewBox="0 0 460.8 345.6" xmlns="http://www.w3.org/2000/svg" version="1.1">
 <metadata>
  <rdf:RDF xmlns:dc="http://purl.org/dc/elements/1.1/" xmlns:cc="http://creativecommons.org/ns#" xmlns:rdf="http://www.w3.org/1999/02/22-rdf-syntax-ns#">
   <cc:Work>
    <dc:type rdf:resource="http://purl.org/dc/dcmitype/StillImage"/>
    <dc:date>2022-12-26T09:19:06.569124</dc:date>
    <dc:format>image/svg+xml</dc:format>
    <dc:creator>
     <cc:Agent>
      <dc:title>Matplotlib v3.6.2, https://matplotlib.org/</dc:title>
     </cc:Agent>
    </dc:creator>
   </cc:Work>
  </rdf:RDF>
 </metadata>
 <defs>
  <style type="text/css">*{stroke-linejoin: round; stroke-linecap: butt}</style>
 </defs>
 <g id="figure_1">
  <g id="patch_1">
   <path d="M 0 345.6 
L 460.8 345.6 
L 460.8 0 
L 0 0 
z
" style="fill: #ffffff"/>
  </g>
  <g id="axes_1">
   <g id="patch_2">
    <path d="M 57.6 276.48 
L 414.72 276.48 
L 414.72 41.472 
L 57.6 41.472 
z
" style="fill: #ffffff"/>
   </g>
   <g id="matplotlib.axis_1">
    <g id="xtick_1">
     <g id="line2d_1">
      <path d="M 60.660743 276.48 
L 60.660743 41.472 
" clip-path="url(#p18ea6587e6)" style="fill: none; stroke-dasharray: 2.96,1.28; stroke-dashoffset: 0; stroke: #808080; stroke-width: 0.8"/>
     </g>
     <g id="line2d_2">
      <defs>
       <path id="m58f359e96c" d="M 0 0 
L 0 3.5 
" style="stroke: #000000; stroke-width: 0.8"/>
      </defs>
      <g>
       <use xlink:href="#m58f359e96c" x="60.660743" y="276.48" style="stroke: #000000; stroke-width: 0.8"/>
      </g>
     </g>
     <g id="text_1">
      <!-- 21.01.2020 -->
      <g transform="translate(10.035532 318.688565) rotate(-30) scale(0.1 -0.1)">
       <defs>
        <path id="DejaVuSans-32" d="M 1228 531 
L 3431 531 
L 3431 0 
L 469 0 
L 469 531 
Q 828 903 1448 1529 
Q 2069 2156 2228 2338 
Q 2531 2678 2651 2914 
Q 2772 3150 2772 3378 
Q 2772 3750 2511 3984 
Q 2250 4219 1831 4219 
Q 1534 4219 1204 4116 
Q 875 4013 500 3803 
L 500 4441 
Q 881 4594 1212 4672 
Q 1544 4750 1819 4750 
Q 2544 4750 2975 4387 
Q 3406 4025 3406 3419 
Q 3406 3131 3298 2873 
Q 3191 2616 2906 2266 
Q 2828 2175 2409 1742 
Q 1991 1309 1228 531 
z
" transform="scale(0.015625)"/>
        <path id="DejaVuSans-31" d="M 794 531 
L 1825 531 
L 1825 4091 
L 703 3866 
L 703 4441 
L 1819 4666 
L 2450 4666 
L 2450 531 
L 3481 531 
L 3481 0 
L 794 0 
L 794 531 
z
" transform="scale(0.015625)"/>
        <path id="DejaVuSans-2e" d="M 684 794 
L 1344 794 
L 1344 0 
L 684 0 
L 684 794 
z
" transform="scale(0.015625)"/>
        <path id="DejaVuSans-30" d="M 2034 4250 
Q 1547 4250 1301 3770 
Q 1056 3291 1056 2328 
Q 1056 1369 1301 889 
Q 1547 409 2034 409 
Q 2525 409 2770 889 
Q 3016 1369 3016 2328 
Q 3016 3291 2770 3770 
Q 2525 4250 2034 4250 
z
M 2034 4750 
Q 2819 4750 3233 4129 
Q 3647 3509 3647 2328 
Q 3647 1150 3233 529 
Q 2819 -91 2034 -91 
Q 1250 -91 836 529 
Q 422 1150 422 2328 
Q 422 3509 836 4129 
Q 1250 4750 2034 4750 
z
" transform="scale(0.015625)"/>
       </defs>
       <use xlink:href="#DejaVuSans-32"/>
       <use xlink:href="#DejaVuSans-31" x="63.623047"/>
       <use xlink:href="#DejaVuSans-2e" x="127.246094"/>
       <use xlink:href="#DejaVuSans-30" x="159.033203"/>
       <use xlink:href="#DejaVuSans-31" x="222.65625"/>
       <use xlink:href="#DejaVuSans-2e" x="286.279297"/>
       <use xlink:href="#DejaVuSans-32" x="318.066406"/>
       <use xlink:href="#DejaVuSans-30" x="381.689453"/>
       <use xlink:href="#DejaVuSans-32" x="445.3125"/>
       <use xlink:href="#DejaVuSans-30" x="508.935547"/>
      </g>
     </g>
    </g>
    <g id="xtick_2">
     <g id="line2d_3">
      <path d="M 96.66329 276.48 
L 96.66329 41.472 
" clip-path="url(#p18ea6587e6)" style="fill: none; stroke-dasharray: 2.96,1.28; stroke-dashoffset: 0; stroke: #808080; stroke-width: 0.8"/>
     </g>
     <g id="line2d_4">
      <g>
       <use xlink:href="#m58f359e96c" x="96.66329" y="276.48" style="stroke: #000000; stroke-width: 0.8"/>
      </g>
     </g>
     <g id="text_2">
      <!-- 14.05.2020 -->
      <g transform="translate(46.038079 318.688565) rotate(-30) scale(0.1 -0.1)">
       <defs>
        <path id="DejaVuSans-34" d="M 2419 4116 
L 825 1625 
L 2419 1625 
L 2419 4116 
z
M 2253 4666 
L 3047 4666 
L 3047 1625 
L 3713 1625 
L 3713 1100 
L 3047 1100 
L 3047 0 
L 2419 0 
L 2419 1100 
L 313 1100 
L 313 1709 
L 2253 4666 
z
" transform="scale(0.015625)"/>
        <path id="DejaVuSans-35" d="M 691 4666 
L 3169 4666 
L 3169 4134 
L 1269 4134 
L 1269 2991 
Q 1406 3038 1543 3061 
Q 1681 3084 1819 3084 
Q 2600 3084 3056 2656 
Q 3513 2228 3513 1497 
Q 3513 744 3044 326 
Q 2575 -91 1722 -91 
Q 1428 -91 1123 -41 
Q 819 9 494 109 
L 494 744 
Q 775 591 1075 516 
Q 1375 441 1709 441 
Q 2250 441 2565 725 
Q 2881 1009 2881 1497 
Q 2881 1984 2565 2268 
Q 2250 2553 1709 2553 
Q 1456 2553 1204 2497 
Q 953 2441 691 2322 
L 691 4666 
z
" transform="scale(0.015625)"/>
       </defs>
       <use xlink:href="#DejaVuSans-31"/>
       <use xlink:href="#DejaVuSans-34" x="63.623047"/>
       <use xlink:href="#DejaVuSans-2e" x="127.246094"/>
       <use xlink:href="#DejaVuSans-30" x="159.033203"/>
       <use xlink:href="#DejaVuSans-35" x="222.65625"/>
       <use xlink:href="#DejaVuSans-2e" x="286.279297"/>
       <use xlink:href="#DejaVuSans-32" x="318.066406"/>
       <use xlink:href="#DejaVuSans-30" x="381.689453"/>
       <use xlink:href="#DejaVuSans-32" x="445.3125"/>
       <use xlink:href="#DejaVuSans-30" x="508.935547"/>
      </g>
     </g>
    </g>
    <g id="xtick_3">
     <g id="line2d_5">
      <path d="M 132.665837 276.48 
L 132.665837 41.472 
" clip-path="url(#p18ea6587e6)" style="fill: none; stroke-dasharray: 2.96,1.28; stroke-dashoffset: 0; stroke: #808080; stroke-width: 0.8"/>
     </g>
     <g id="line2d_6">
      <g>
       <use xlink:href="#m58f359e96c" x="132.665837" y="276.48" style="stroke: #000000; stroke-width: 0.8"/>
      </g>
     </g>
     <g id="text_3">
      <!-- 05.09.2020 -->
      <g transform="translate(82.040626 318.688565) rotate(-30) scale(0.1 -0.1)">
       <defs>
        <path id="DejaVuSans-39" d="M 703 97 
L 703 672 
Q 941 559 1184 500 
Q 1428 441 1663 441 
Q 2288 441 2617 861 
Q 2947 1281 2994 2138 
Q 2813 1869 2534 1725 
Q 2256 1581 1919 1581 
Q 1219 1581 811 2004 
Q 403 2428 403 3163 
Q 403 3881 828 4315 
Q 1253 4750 1959 4750 
Q 2769 4750 3195 4129 
Q 3622 3509 3622 2328 
Q 3622 1225 3098 567 
Q 2575 -91 1691 -91 
Q 1453 -91 1209 -44 
Q 966 3 703 97 
z
M 1959 2075 
Q 2384 2075 2632 2365 
Q 2881 2656 2881 3163 
Q 2881 3666 2632 3958 
Q 2384 4250 1959 4250 
Q 1534 4250 1286 3958 
Q 1038 3666 1038 3163 
Q 1038 2656 1286 2365 
Q 1534 2075 1959 2075 
z
" transform="scale(0.015625)"/>
       </defs>
       <use xlink:href="#DejaVuSans-30"/>
       <use xlink:href="#DejaVuSans-35" x="63.623047"/>
       <use xlink:href="#DejaVuSans-2e" x="127.246094"/>
       <use xlink:href="#DejaVuSans-30" x="159.033203"/>
       <use xlink:href="#DejaVuSans-39" x="222.65625"/>
       <use xlink:href="#DejaVuSans-2e" x="286.279297"/>
       <use xlink:href="#DejaVuSans-32" x="318.066406"/>
       <use xlink:href="#DejaVuSans-30" x="381.689453"/>
       <use xlink:href="#DejaVuSans-32" x="445.3125"/>
       <use xlink:href="#DejaVuSans-30" x="508.935547"/>
      </g>
     </g>
    </g>
    <g id="xtick_4">
     <g id="line2d_7">
      <path d="M 168.668383 276.48 
L 168.668383 41.472 
" clip-path="url(#p18ea6587e6)" style="fill: none; stroke-dasharray: 2.96,1.28; stroke-dashoffset: 0; stroke: #808080; stroke-width: 0.8"/>
     </g>
     <g id="line2d_8">
      <g>
       <use xlink:href="#m58f359e96c" x="168.668383" y="276.48" style="stroke: #000000; stroke-width: 0.8"/>
      </g>
     </g>
     <g id="text_4">
      <!-- 28.12.2020 -->
      <g transform="translate(118.043173 318.688565) rotate(-30) scale(0.1 -0.1)">
       <defs>
        <path id="DejaVuSans-38" d="M 2034 2216 
Q 1584 2216 1326 1975 
Q 1069 1734 1069 1313 
Q 1069 891 1326 650 
Q 1584 409 2034 409 
Q 2484 409 2743 651 
Q 3003 894 3003 1313 
Q 3003 1734 2745 1975 
Q 2488 2216 2034 2216 
z
M 1403 2484 
Q 997 2584 770 2862 
Q 544 3141 544 3541 
Q 544 4100 942 4425 
Q 1341 4750 2034 4750 
Q 2731 4750 3128 4425 
Q 3525 4100 3525 3541 
Q 3525 3141 3298 2862 
Q 3072 2584 2669 2484 
Q 3125 2378 3379 2068 
Q 3634 1759 3634 1313 
Q 3634 634 3220 271 
Q 2806 -91 2034 -91 
Q 1263 -91 848 271 
Q 434 634 434 1313 
Q 434 1759 690 2068 
Q 947 2378 1403 2484 
z
M 1172 3481 
Q 1172 3119 1398 2916 
Q 1625 2713 2034 2713 
Q 2441 2713 2670 2916 
Q 2900 3119 2900 3481 
Q 2900 3844 2670 4047 
Q 2441 4250 2034 4250 
Q 1625 4250 1398 4047 
Q 1172 3844 1172 3481 
z
" transform="scale(0.015625)"/>
       </defs>
       <use xlink:href="#DejaVuSans-32"/>
       <use xlink:href="#DejaVuSans-38" x="63.623047"/>
       <use xlink:href="#DejaVuSans-2e" x="127.246094"/>
       <use xlink:href="#DejaVuSans-31" x="159.033203"/>
       <use xlink:href="#DejaVuSans-32" x="222.65625"/>
       <use xlink:href="#DejaVuSans-2e" x="286.279297"/>
       <use xlink:href="#DejaVuSans-32" x="318.066406"/>
       <use xlink:href="#DejaVuSans-30" x="381.689453"/>
       <use xlink:href="#DejaVuSans-32" x="445.3125"/>
       <use xlink:href="#DejaVuSans-30" x="508.935547"/>
      </g>
     </g>
    </g>
    <g id="xtick_5">
     <g id="line2d_9">
      <path d="M 204.67093 276.48 
L 204.67093 41.472 
" clip-path="url(#p18ea6587e6)" style="fill: none; stroke-dasharray: 2.96,1.28; stroke-dashoffset: 0; stroke: #808080; stroke-width: 0.8"/>
     </g>
     <g id="line2d_10">
      <g>
       <use xlink:href="#m58f359e96c" x="204.67093" y="276.48" style="stroke: #000000; stroke-width: 0.8"/>
      </g>
     </g>
     <g id="text_5">
      <!-- 21.04.2021 -->
      <g transform="translate(154.04572 318.688565) rotate(-30) scale(0.1 -0.1)">
       <use xlink:href="#DejaVuSans-32"/>
       <use xlink:href="#DejaVuSans-31" x="63.623047"/>
       <use xlink:href="#DejaVuSans-2e" x="127.246094"/>
       <use xlink:href="#DejaVuSans-30" x="159.033203"/>
       <use xlink:href="#DejaVuSans-34" x="222.65625"/>
       <use xlink:href="#DejaVuSans-2e" x="286.279297"/>
       <use xlink:href="#DejaVuSans-32" x="318.066406"/>
       <use xlink:href="#DejaVuSans-30" x="381.689453"/>
       <use xlink:href="#DejaVuSans-32" x="445.3125"/>
       <use xlink:href="#DejaVuSans-31" x="508.935547"/>
      </g>
     </g>
    </g>
    <g id="xtick_6">
     <g id="line2d_11">
      <path d="M 240.673477 276.48 
L 240.673477 41.472 
" clip-path="url(#p18ea6587e6)" style="fill: none; stroke-dasharray: 2.96,1.28; stroke-dashoffset: 0; stroke: #808080; stroke-width: 0.8"/>
     </g>
     <g id="line2d_12">
      <g>
       <use xlink:href="#m58f359e96c" x="240.673477" y="276.48" style="stroke: #000000; stroke-width: 0.8"/>
      </g>
     </g>
     <g id="text_6">
      <!-- 13.08.2021 -->
      <g transform="translate(190.048266 318.688565) rotate(-30) scale(0.1 -0.1)">
       <defs>
        <path id="DejaVuSans-33" d="M 2597 2516 
Q 3050 2419 3304 2112 
Q 3559 1806 3559 1356 
Q 3559 666 3084 287 
Q 2609 -91 1734 -91 
Q 1441 -91 1130 -33 
Q 819 25 488 141 
L 488 750 
Q 750 597 1062 519 
Q 1375 441 1716 441 
Q 2309 441 2620 675 
Q 2931 909 2931 1356 
Q 2931 1769 2642 2001 
Q 2353 2234 1838 2234 
L 1294 2234 
L 1294 2753 
L 1863 2753 
Q 2328 2753 2575 2939 
Q 2822 3125 2822 3475 
Q 2822 3834 2567 4026 
Q 2313 4219 1838 4219 
Q 1578 4219 1281 4162 
Q 984 4106 628 3988 
L 628 4550 
Q 988 4650 1302 4700 
Q 1616 4750 1894 4750 
Q 2613 4750 3031 4423 
Q 3450 4097 3450 3541 
Q 3450 3153 3228 2886 
Q 3006 2619 2597 2516 
z
" transform="scale(0.015625)"/>
       </defs>
       <use xlink:href="#DejaVuSans-31"/>
       <use xlink:href="#DejaVuSans-33" x="63.623047"/>
       <use xlink:href="#DejaVuSans-2e" x="127.246094"/>
       <use xlink:href="#DejaVuSans-30" x="159.033203"/>
       <use xlink:href="#DejaVuSans-38" x="222.65625"/>
       <use xlink:href="#DejaVuSans-2e" x="286.279297"/>
       <use xlink:href="#DejaVuSans-32" x="318.066406"/>
       <use xlink:href="#DejaVuSans-30" x="381.689453"/>
       <use xlink:href="#DejaVuSans-32" x="445.3125"/>
       <use xlink:href="#DejaVuSans-31" x="508.935547"/>
      </g>
     </g>
    </g>
    <g id="xtick_7">
     <g id="line2d_13">
      <path d="M 276.676024 276.48 
L 276.676024 41.472 
" clip-path="url(#p18ea6587e6)" style="fill: none; stroke-dasharray: 2.96,1.28; stroke-dashoffset: 0; stroke: #808080; stroke-width: 0.8"/>
     </g>
     <g id="line2d_14">
      <g>
       <use xlink:href="#m58f359e96c" x="276.676024" y="276.48" style="stroke: #000000; stroke-width: 0.8"/>
      </g>
     </g>
     <g id="text_7">
      <!-- 05.12.2021 -->
      <g transform="translate(226.050813 318.688565) rotate(-30) scale(0.1 -0.1)">
       <use xlink:href="#DejaVuSans-30"/>
       <use xlink:href="#DejaVuSans-35" x="63.623047"/>
       <use xlink:href="#DejaVuSans-2e" x="127.246094"/>
       <use xlink:href="#DejaVuSans-31" x="159.033203"/>
       <use xlink:href="#DejaVuSans-32" x="222.65625"/>
       <use xlink:href="#DejaVuSans-2e" x="286.279297"/>
       <use xlink:href="#DejaVuSans-32" x="318.066406"/>
       <use xlink:href="#DejaVuSans-30" x="381.689453"/>
       <use xlink:href="#DejaVuSans-32" x="445.3125"/>
       <use xlink:href="#DejaVuSans-31" x="508.935547"/>
      </g>
     </g>
    </g>
    <g id="xtick_8">
     <g id="line2d_15">
      <path d="M 312.678571 276.48 
L 312.678571 41.472 
" clip-path="url(#p18ea6587e6)" style="fill: none; stroke-dasharray: 2.96,1.28; stroke-dashoffset: 0; stroke: #808080; stroke-width: 0.8"/>
     </g>
     <g id="line2d_16">
      <g>
       <use xlink:href="#m58f359e96c" x="312.678571" y="276.48" style="stroke: #000000; stroke-width: 0.8"/>
      </g>
     </g>
     <g id="text_8">
      <!-- 29.03.2022 -->
      <g transform="translate(262.05336 318.688565) rotate(-30) scale(0.1 -0.1)">
       <use xlink:href="#DejaVuSans-32"/>
       <use xlink:href="#DejaVuSans-39" x="63.623047"/>
       <use xlink:href="#DejaVuSans-2e" x="127.246094"/>
       <use xlink:href="#DejaVuSans-30" x="159.033203"/>
       <use xlink:href="#DejaVuSans-33" x="222.65625"/>
       <use xlink:href="#DejaVuSans-2e" x="286.279297"/>
       <use xlink:href="#DejaVuSans-32" x="318.066406"/>
       <use xlink:href="#DejaVuSans-30" x="381.689453"/>
       <use xlink:href="#DejaVuSans-32" x="445.3125"/>
       <use xlink:href="#DejaVuSans-32" x="508.935547"/>
      </g>
     </g>
    </g>
    <g id="xtick_9">
     <g id="line2d_17">
      <path d="M 348.681118 276.48 
L 348.681118 41.472 
" clip-path="url(#p18ea6587e6)" style="fill: none; stroke-dasharray: 2.96,1.28; stroke-dashoffset: 0; stroke: #808080; stroke-width: 0.8"/>
     </g>
     <g id="line2d_18">
      <g>
       <use xlink:href="#m58f359e96c" x="348.681118" y="276.48" style="stroke: #000000; stroke-width: 0.8"/>
      </g>
     </g>
     <g id="text_9">
      <!-- 21.07.2022 -->
      <g transform="translate(298.055907 318.688565) rotate(-30) scale(0.1 -0.1)">
       <defs>
        <path id="DejaVuSans-37" d="M 525 4666 
L 3525 4666 
L 3525 4397 
L 1831 0 
L 1172 0 
L 2766 4134 
L 525 4134 
L 525 4666 
z
" transform="scale(0.015625)"/>
       </defs>
       <use xlink:href="#DejaVuSans-32"/>
       <use xlink:href="#DejaVuSans-31" x="63.623047"/>
       <use xlink:href="#DejaVuSans-2e" x="127.246094"/>
       <use xlink:href="#DejaVuSans-30" x="159.033203"/>
       <use xlink:href="#DejaVuSans-37" x="222.65625"/>
       <use xlink:href="#DejaVuSans-2e" x="286.279297"/>
       <use xlink:href="#DejaVuSans-32" x="318.066406"/>
       <use xlink:href="#DejaVuSans-30" x="381.689453"/>
       <use xlink:href="#DejaVuSans-32" x="445.3125"/>
       <use xlink:href="#DejaVuSans-32" x="508.935547"/>
      </g>
     </g>
    </g>
    <g id="xtick_10">
     <g id="line2d_19">
      <path d="M 384.683665 276.48 
L 384.683665 41.472 
" clip-path="url(#p18ea6587e6)" style="fill: none; stroke-dasharray: 2.96,1.28; stroke-dashoffset: 0; stroke: #808080; stroke-width: 0.8"/>
     </g>
     <g id="line2d_20">
      <g>
       <use xlink:href="#m58f359e96c" x="384.683665" y="276.48" style="stroke: #000000; stroke-width: 0.8"/>
      </g>
     </g>
     <g id="text_10">
      <!-- 12.11.2022 -->
      <g transform="translate(334.058454 318.688565) rotate(-30) scale(0.1 -0.1)">
       <use xlink:href="#DejaVuSans-31"/>
       <use xlink:href="#DejaVuSans-32" x="63.623047"/>
       <use xlink:href="#DejaVuSans-2e" x="127.246094"/>
       <use xlink:href="#DejaVuSans-31" x="159.033203"/>
       <use xlink:href="#DejaVuSans-31" x="222.65625"/>
       <use xlink:href="#DejaVuSans-2e" x="286.279297"/>
       <use xlink:href="#DejaVuSans-32" x="318.066406"/>
       <use xlink:href="#DejaVuSans-30" x="381.689453"/>
       <use xlink:href="#DejaVuSans-32" x="445.3125"/>
       <use xlink:href="#DejaVuSans-32" x="508.935547"/>
      </g>
     </g>
    </g>
   </g>
   <g id="matplotlib.axis_2">
    <g id="ytick_1">
     <g id="line2d_21">
      <path d="M 57.6 265.797818 
L 414.72 265.797818 
" clip-path="url(#p18ea6587e6)" style="fill: none; stroke-dasharray: 2.96,1.28; stroke-dashoffset: 0; stroke: #808080; stroke-width: 0.8"/>
     </g>
     <g id="line2d_22">
      <defs>
       <path id="mea4b5278e0" d="M 0 0 
L -3.5 0 
" style="stroke: #000000; stroke-width: 0.8"/>
      </defs>
      <g>
       <use xlink:href="#mea4b5278e0" x="57.6" y="265.797818" style="stroke: #000000; stroke-width: 0.8"/>
      </g>
     </g>
     <g id="text_11">
      <!-- 0 -->
      <g transform="translate(44.2375 269.597037) scale(0.1 -0.1)">
       <use xlink:href="#DejaVuSans-30"/>
      </g>
     </g>
    </g>
    <g id="ytick_2">
     <g id="line2d_23">
      <path d="M 57.6 226.736831 
L 414.72 226.736831 
" clip-path="url(#p18ea6587e6)" style="fill: none; stroke-dasharray: 2.96,1.28; stroke-dashoffset: 0; stroke: #808080; stroke-width: 0.8"/>
     </g>
     <g id="line2d_24">
      <g>
       <use xlink:href="#mea4b5278e0" x="57.6" y="226.736831" style="stroke: #000000; stroke-width: 0.8"/>
      </g>
     </g>
     <g id="text_12">
      <!-- 500 -->
      <g transform="translate(31.5125 230.53605) scale(0.1 -0.1)">
       <use xlink:href="#DejaVuSans-35"/>
       <use xlink:href="#DejaVuSans-30" x="63.623047"/>
       <use xlink:href="#DejaVuSans-30" x="127.246094"/>
      </g>
     </g>
    </g>
    <g id="ytick_3">
     <g id="line2d_25">
      <path d="M 57.6 187.675844 
L 414.72 187.675844 
" clip-path="url(#p18ea6587e6)" style="fill: none; stroke-dasharray: 2.96,1.28; stroke-dashoffset: 0; stroke: #808080; stroke-width: 0.8"/>
     </g>
     <g id="line2d_26">
      <g>
       <use xlink:href="#mea4b5278e0" x="57.6" y="187.675844" style="stroke: #000000; stroke-width: 0.8"/>
      </g>
     </g>
     <g id="text_13">
      <!-- 1000 -->
      <g transform="translate(25.15 191.475063) scale(0.1 -0.1)">
       <use xlink:href="#DejaVuSans-31"/>
       <use xlink:href="#DejaVuSans-30" x="63.623047"/>
       <use xlink:href="#DejaVuSans-30" x="127.246094"/>
       <use xlink:href="#DejaVuSans-30" x="190.869141"/>
      </g>
     </g>
    </g>
    <g id="ytick_4">
     <g id="line2d_27">
      <path d="M 57.6 148.614857 
L 414.72 148.614857 
" clip-path="url(#p18ea6587e6)" style="fill: none; stroke-dasharray: 2.96,1.28; stroke-dashoffset: 0; stroke: #808080; stroke-width: 0.8"/>
     </g>
     <g id="line2d_28">
      <g>
       <use xlink:href="#mea4b5278e0" x="57.6" y="148.614857" style="stroke: #000000; stroke-width: 0.8"/>
      </g>
     </g>
     <g id="text_14">
      <!-- 1500 -->
      <g transform="translate(25.15 152.414075) scale(0.1 -0.1)">
       <use xlink:href="#DejaVuSans-31"/>
       <use xlink:href="#DejaVuSans-35" x="63.623047"/>
       <use xlink:href="#DejaVuSans-30" x="127.246094"/>
       <use xlink:href="#DejaVuSans-30" x="190.869141"/>
      </g>
     </g>
    </g>
    <g id="ytick_5">
     <g id="line2d_29">
      <path d="M 57.6 109.553869 
L 414.72 109.553869 
" clip-path="url(#p18ea6587e6)" style="fill: none; stroke-dasharray: 2.96,1.28; stroke-dashoffset: 0; stroke: #808080; stroke-width: 0.8"/>
     </g>
     <g id="line2d_30">
      <g>
       <use xlink:href="#mea4b5278e0" x="57.6" y="109.553869" style="stroke: #000000; stroke-width: 0.8"/>
      </g>
     </g>
     <g id="text_15">
      <!-- 2000 -->
      <g transform="translate(25.15 113.353088) scale(0.1 -0.1)">
       <use xlink:href="#DejaVuSans-32"/>
       <use xlink:href="#DejaVuSans-30" x="63.623047"/>
       <use xlink:href="#DejaVuSans-30" x="127.246094"/>
       <use xlink:href="#DejaVuSans-30" x="190.869141"/>
      </g>
     </g>
    </g>
    <g id="ytick_6">
     <g id="line2d_31">
      <path d="M 57.6 70.492882 
L 414.72 70.492882 
" clip-path="url(#p18ea6587e6)" style="fill: none; stroke-dasharray: 2.96,1.28; stroke-dashoffset: 0; stroke: #808080; stroke-width: 0.8"/>
     </g>
     <g id="line2d_32">
      <g>
       <use xlink:href="#mea4b5278e0" x="57.6" y="70.492882" style="stroke: #000000; stroke-width: 0.8"/>
      </g>
     </g>
     <g id="text_16">
      <!-- 2500 -->
      <g transform="translate(25.15 74.292101) scale(0.1 -0.1)">
       <use xlink:href="#DejaVuSans-32"/>
       <use xlink:href="#DejaVuSans-35" x="63.623047"/>
       <use xlink:href="#DejaVuSans-30" x="127.246094"/>
       <use xlink:href="#DejaVuSans-30" x="190.869141"/>
      </g>
     </g>
    </g>
    <g id="text_17">
     <!-- Inzidenz pro 7 Tage pro 100.000 Einwohner -->
     <g transform="translate(19.070312 267.301) rotate(-90) scale(0.1 -0.1)">
      <defs>
       <path id="DejaVuSans-49" d="M 628 4666 
L 1259 4666 
L 1259 0 
L 628 0 
L 628 4666 
z
" transform="scale(0.015625)"/>
       <path id="DejaVuSans-6e" d="M 3513 2113 
L 3513 0 
L 2938 0 
L 2938 2094 
Q 2938 2591 2744 2837 
Q 2550 3084 2163 3084 
Q 1697 3084 1428 2787 
Q 1159 2491 1159 1978 
L 1159 0 
L 581 0 
L 581 3500 
L 1159 3500 
L 1159 2956 
Q 1366 3272 1645 3428 
Q 1925 3584 2291 3584 
Q 2894 3584 3203 3211 
Q 3513 2838 3513 2113 
z
" transform="scale(0.015625)"/>
       <path id="DejaVuSans-7a" d="M 353 3500 
L 3084 3500 
L 3084 2975 
L 922 459 
L 3084 459 
L 3084 0 
L 275 0 
L 275 525 
L 2438 3041 
L 353 3041 
L 353 3500 
z
" transform="scale(0.015625)"/>
       <path id="DejaVuSans-69" d="M 603 3500 
L 1178 3500 
L 1178 0 
L 603 0 
L 603 3500 
z
M 603 4863 
L 1178 4863 
L 1178 4134 
L 603 4134 
L 603 4863 
z
" transform="scale(0.015625)"/>
       <path id="DejaVuSans-64" d="M 2906 2969 
L 2906 4863 
L 3481 4863 
L 3481 0 
L 2906 0 
L 2906 525 
Q 2725 213 2448 61 
Q 2172 -91 1784 -91 
Q 1150 -91 751 415 
Q 353 922 353 1747 
Q 353 2572 751 3078 
Q 1150 3584 1784 3584 
Q 2172 3584 2448 3432 
Q 2725 3281 2906 2969 
z
M 947 1747 
Q 947 1113 1208 752 
Q 1469 391 1925 391 
Q 2381 391 2643 752 
Q 2906 1113 2906 1747 
Q 2906 2381 2643 2742 
Q 2381 3103 1925 3103 
Q 1469 3103 1208 2742 
Q 947 2381 947 1747 
z
" transform="scale(0.015625)"/>
       <path id="DejaVuSans-65" d="M 3597 1894 
L 3597 1613 
L 953 1613 
Q 991 1019 1311 708 
Q 1631 397 2203 397 
Q 2534 397 2845 478 
Q 3156 559 3463 722 
L 3463 178 
Q 3153 47 2828 -22 
Q 2503 -91 2169 -91 
Q 1331 -91 842 396 
Q 353 884 353 1716 
Q 353 2575 817 3079 
Q 1281 3584 2069 3584 
Q 2775 3584 3186 3129 
Q 3597 2675 3597 1894 
z
M 3022 2063 
Q 3016 2534 2758 2815 
Q 2500 3097 2075 3097 
Q 1594 3097 1305 2825 
Q 1016 2553 972 2059 
L 3022 2063 
z
" transform="scale(0.015625)"/>
       <path id="DejaVuSans-20" transform="scale(0.015625)"/>
       <path id="DejaVuSans-70" d="M 1159 525 
L 1159 -1331 
L 581 -1331 
L 581 3500 
L 1159 3500 
L 1159 2969 
Q 1341 3281 1617 3432 
Q 1894 3584 2278 3584 
Q 2916 3584 3314 3078 
Q 3713 2572 3713 1747 
Q 3713 922 3314 415 
Q 2916 -91 2278 -91 
Q 1894 -91 1617 61 
Q 1341 213 1159 525 
z
M 3116 1747 
Q 3116 2381 2855 2742 
Q 2594 3103 2138 3103 
Q 1681 3103 1420 2742 
Q 1159 2381 1159 1747 
Q 1159 1113 1420 752 
Q 1681 391 2138 391 
Q 2594 391 2855 752 
Q 3116 1113 3116 1747 
z
" transform="scale(0.015625)"/>
       <path id="DejaVuSans-72" d="M 2631 2963 
Q 2534 3019 2420 3045 
Q 2306 3072 2169 3072 
Q 1681 3072 1420 2755 
Q 1159 2438 1159 1844 
L 1159 0 
L 581 0 
L 581 3500 
L 1159 3500 
L 1159 2956 
Q 1341 3275 1631 3429 
Q 1922 3584 2338 3584 
Q 2397 3584 2469 3576 
Q 2541 3569 2628 3553 
L 2631 2963 
z
" transform="scale(0.015625)"/>
       <path id="DejaVuSans-6f" d="M 1959 3097 
Q 1497 3097 1228 2736 
Q 959 2375 959 1747 
Q 959 1119 1226 758 
Q 1494 397 1959 397 
Q 2419 397 2687 759 
Q 2956 1122 2956 1747 
Q 2956 2369 2687 2733 
Q 2419 3097 1959 3097 
z
M 1959 3584 
Q 2709 3584 3137 3096 
Q 3566 2609 3566 1747 
Q 3566 888 3137 398 
Q 2709 -91 1959 -91 
Q 1206 -91 779 398 
Q 353 888 353 1747 
Q 353 2609 779 3096 
Q 1206 3584 1959 3584 
z
" transform="scale(0.015625)"/>
       <path id="DejaVuSans-54" d="M -19 4666 
L 3928 4666 
L 3928 4134 
L 2272 4134 
L 2272 0 
L 1638 0 
L 1638 4134 
L -19 4134 
L -19 4666 
z
" transform="scale(0.015625)"/>
       <path id="DejaVuSans-61" d="M 2194 1759 
Q 1497 1759 1228 1600 
Q 959 1441 959 1056 
Q 959 750 1161 570 
Q 1363 391 1709 391 
Q 2188 391 2477 730 
Q 2766 1069 2766 1631 
L 2766 1759 
L 2194 1759 
z
M 3341 1997 
L 3341 0 
L 2766 0 
L 2766 531 
Q 2569 213 2275 61 
Q 1981 -91 1556 -91 
Q 1019 -91 701 211 
Q 384 513 384 1019 
Q 384 1609 779 1909 
Q 1175 2209 1959 2209 
L 2766 2209 
L 2766 2266 
Q 2766 2663 2505 2880 
Q 2244 3097 1772 3097 
Q 1472 3097 1187 3025 
Q 903 2953 641 2809 
L 641 3341 
Q 956 3463 1253 3523 
Q 1550 3584 1831 3584 
Q 2591 3584 2966 3190 
Q 3341 2797 3341 1997 
z
" transform="scale(0.015625)"/>
       <path id="DejaVuSans-67" d="M 2906 1791 
Q 2906 2416 2648 2759 
Q 2391 3103 1925 3103 
Q 1463 3103 1205 2759 
Q 947 2416 947 1791 
Q 947 1169 1205 825 
Q 1463 481 1925 481 
Q 2391 481 2648 825 
Q 2906 1169 2906 1791 
z
M 3481 434 
Q 3481 -459 3084 -895 
Q 2688 -1331 1869 -1331 
Q 1566 -1331 1297 -1286 
Q 1028 -1241 775 -1147 
L 775 -588 
Q 1028 -725 1275 -790 
Q 1522 -856 1778 -856 
Q 2344 -856 2625 -561 
Q 2906 -266 2906 331 
L 2906 616 
Q 2728 306 2450 153 
Q 2172 0 1784 0 
Q 1141 0 747 490 
Q 353 981 353 1791 
Q 353 2603 747 3093 
Q 1141 3584 1784 3584 
Q 2172 3584 2450 3431 
Q 2728 3278 2906 2969 
L 2906 3500 
L 3481 3500 
L 3481 434 
z
" transform="scale(0.015625)"/>
       <path id="DejaVuSans-45" d="M 628 4666 
L 3578 4666 
L 3578 4134 
L 1259 4134 
L 1259 2753 
L 3481 2753 
L 3481 2222 
L 1259 2222 
L 1259 531 
L 3634 531 
L 3634 0 
L 628 0 
L 628 4666 
z
" transform="scale(0.015625)"/>
       <path id="DejaVuSans-77" d="M 269 3500 
L 844 3500 
L 1563 769 
L 2278 3500 
L 2956 3500 
L 3675 769 
L 4391 3500 
L 4966 3500 
L 4050 0 
L 3372 0 
L 2619 2869 
L 1863 0 
L 1184 0 
L 269 3500 
z
" transform="scale(0.015625)"/>
       <path id="DejaVuSans-68" d="M 3513 2113 
L 3513 0 
L 2938 0 
L 2938 2094 
Q 2938 2591 2744 2837 
Q 2550 3084 2163 3084 
Q 1697 3084 1428 2787 
Q 1159 2491 1159 1978 
L 1159 0 
L 581 0 
L 581 4863 
L 1159 4863 
L 1159 2956 
Q 1366 3272 1645 3428 
Q 1925 3584 2291 3584 
Q 2894 3584 3203 3211 
Q 3513 2838 3513 2113 
z
" transform="scale(0.015625)"/>
      </defs>
      <use xlink:href="#DejaVuSans-49"/>
      <use xlink:href="#DejaVuSans-6e" x="29.492188"/>
      <use xlink:href="#DejaVuSans-7a" x="92.871094"/>
      <use xlink:href="#DejaVuSans-69" x="145.361328"/>
      <use xlink:href="#DejaVuSans-64" x="173.144531"/>
      <use xlink:href="#DejaVuSans-65" x="236.621094"/>
      <use xlink:href="#DejaVuSans-6e" x="298.144531"/>
      <use xlink:href="#DejaVuSans-7a" x="361.523438"/>
      <use xlink:href="#DejaVuSans-20" x="414.013672"/>
      <use xlink:href="#DejaVuSans-70" x="445.800781"/>
      <use xlink:href="#DejaVuSans-72" x="509.277344"/>
      <use xlink:href="#DejaVuSans-6f" x="548.140625"/>
      <use xlink:href="#DejaVuSans-20" x="609.322266"/>
      <use xlink:href="#DejaVuSans-37" x="641.109375"/>
      <use xlink:href="#DejaVuSans-20" x="704.732422"/>
      <use xlink:href="#DejaVuSans-54" x="736.519531"/>
      <use xlink:href="#DejaVuSans-61" x="781.103516"/>
      <use xlink:href="#DejaVuSans-67" x="842.382812"/>
      <use xlink:href="#DejaVuSans-65" x="905.859375"/>
      <use xlink:href="#DejaVuSans-20" x="967.382812"/>
      <use xlink:href="#DejaVuSans-70" x="999.169922"/>
      <use xlink:href="#DejaVuSans-72" x="1062.646484"/>
      <use xlink:href="#DejaVuSans-6f" x="1101.509766"/>
      <use xlink:href="#DejaVuSans-20" x="1162.691406"/>
      <use xlink:href="#DejaVuSans-31" x="1194.478516"/>
      <use xlink:href="#DejaVuSans-30" x="1258.101562"/>
      <use xlink:href="#DejaVuSans-30" x="1321.724609"/>
      <use xlink:href="#DejaVuSans-2e" x="1385.347656"/>
      <use xlink:href="#DejaVuSans-30" x="1417.134766"/>
      <use xlink:href="#DejaVuSans-30" x="1480.757812"/>
      <use xlink:href="#DejaVuSans-30" x="1544.380859"/>
      <use xlink:href="#DejaVuSans-20" x="1608.003906"/>
      <use xlink:href="#DejaVuSans-45" x="1639.791016"/>
      <use xlink:href="#DejaVuSans-69" x="1702.974609"/>
      <use xlink:href="#DejaVuSans-6e" x="1730.757812"/>
      <use xlink:href="#DejaVuSans-77" x="1794.136719"/>
      <use xlink:href="#DejaVuSans-6f" x="1875.923828"/>
      <use xlink:href="#DejaVuSans-68" x="1937.105469"/>
      <use xlink:href="#DejaVuSans-6e" x="2000.484375"/>
      <use xlink:href="#DejaVuSans-65" x="2063.863281"/>
      <use xlink:href="#DejaVuSans-72" x="2125.386719"/>
     </g>
    </g>
   </g>
   <g id="line2d_33">
    <path d="M 73.832727 265.797818 
L 76.675034 265.718793 
L 79.201528 264.572933 
L 79.51734 264.34903 
L 80.148964 264.309517 
L 80.464775 264.230492 
L 80.780587 264.270005 
L 81.412211 264.072443 
L 82.359646 264.03293 
L 82.99127 263.967076 
L 83.622894 264.177809 
L 83.938705 264.03293 
L 84.570329 264.059272 
L 85.201953 264.3622 
L 86.781012 265.033911 
L 89.623318 265.284157 
L 89.93913 265.270986 
L 90.254942 265.455377 
L 93.728872 265.560744 
L 94.360495 265.626598 
L 96.255366 265.573914 
L 100.045108 265.797818 
L 107.940403 265.705623 
L 109.203651 265.600256 
L 110.151086 265.66611 
L 111.098521 265.718793 
L 112.67758 265.679281 
L 126.5733 265.613427 
L 128.468171 265.402694 
L 131.942101 265.323669 
L 133.205348 265.205132 
L 133.836972 265.284157 
L 134.468596 265.323669 
L 136.679278 265.455377 
L 137.626714 265.310498 
L 138.258337 265.297328 
L 139.205773 265.218303 
L 141.100644 265.389523 
L 141.416456 265.191961 
L 142.679703 265.00757 
L 142.995515 265.020741 
L 143.311326 264.84952 
L 143.627138 264.994399 
L 145.837821 264.493908 
L 146.153633 264.665129 
L 146.469445 264.704641 
L 147.101068 264.19098 
L 147.732692 263.835368 
L 149.311751 263.400732 
L 149.943375 262.478775 
L 150.259186 262.360238 
L 150.89081 261.148524 
L 151.206622 261.438282 
L 151.522434 260.977303 
L 151.838245 261.174865 
L 152.469869 260.239738 
L 152.785681 260.700716 
L 153.417305 259.462661 
L 153.733116 259.317782 
L 154.048928 258.646071 
L 154.36474 259.093878 
L 154.680552 259.186074 
L 154.996364 258.132409 
L 155.312175 258.198263 
L 155.627987 259.014853 
L 155.943799 258.935829 
L 156.259611 259.212415 
L 156.575423 258.553875 
L 157.207046 259.054366 
L 157.522858 258.343142 
L 157.83867 258.040214 
L 158.154482 258.040214 
L 158.470294 257.236795 
L 158.786105 257.039233 
L 159.101917 256.117276 
L 159.417729 255.998739 
L 159.733541 256.525571 
L 160.049353 255.932885 
L 160.365164 256.038251 
L 160.680976 255.221661 
L 160.996788 254.826537 
L 161.3126 255.761664 
L 161.628412 255.103124 
L 161.944224 253.878239 
L 162.260035 253.970435 
L 162.575847 254.536779 
L 162.891659 255.708981 
L 163.207471 254.207509 
L 163.523283 253.72019 
L 163.839094 254.457755 
L 164.154906 256.130447 
L 164.78653 251.099199 
L 165.102342 249.426507 
L 165.418154 249.650411 
L 165.733965 248.017231 
L 166.049777 247.529911 
L 166.365589 243.697207 
L 166.681401 244.197697 
L 166.997213 244.23721 
L 167.313024 245.027458 
L 167.628836 245.106483 
L 167.944648 245.804535 
L 168.26046 244.145014 
L 168.892083 248.056743 
L 169.207895 248.754796 
L 169.523707 248.939187 
L 169.839519 248.386013 
L 170.155331 248.912846 
L 170.786954 251.046516 
L 171.102766 250.611879 
L 171.418578 247.951377 
L 171.73439 247.306007 
L 172.050202 249.624069 
L 172.366013 248.017231 
L 172.681825 248.912846 
L 172.997637 248.372842 
L 173.313449 246.19966 
L 173.629261 248.359672 
L 173.945073 248.873333 
L 174.260884 247.134787 
L 174.576696 248.17528 
L 174.892508 247.648448 
L 175.20832 249.373824 
L 175.524132 252.047497 
L 175.839943 251.652373 
L 176.155755 251.810423 
L 176.787379 253.206528 
L 177.103191 253.40409 
L 177.419002 253.443603 
L 177.734814 254.088972 
L 178.050626 255.327028 
L 178.366438 255.511419 
L 178.68225 256.907524 
L 179.313873 258.224605 
L 179.629685 258.422167 
L 179.945497 258.211434 
L 180.261309 258.922658 
L 180.577121 259.93681 
L 180.892932 259.77876 
L 181.208744 259.831443 
L 182.787803 261.240719 
L 183.103615 261.965114 
L 183.735239 262.109993 
L 184.682674 262.294384 
L 184.998486 262.5578 
L 185.314298 262.426092 
L 185.63011 262.584142 
L 186.577545 262.123163 
L 186.893357 261.675356 
L 187.524981 261.214378 
L 188.472416 261.425111 
L 188.788228 261.464623 
L 189.10404 261.675356 
L 189.419851 261.556819 
L 189.735663 261.820235 
L 190.051475 261.780722 
L 190.683099 261.89926 
L 191.314722 261.596331 
L 191.630534 261.649014 
L 191.946346 261.517306 
L 192.262158 261.201207 
L 192.57797 260.608521 
L 193.209593 260.806083 
L 193.525405 260.687546 
L 193.841217 260.252909 
L 194.157029 259.186074 
L 194.47284 258.869974 
L 194.788652 259.265099 
L 195.104464 258.567046 
L 195.420276 258.580217 
L 196.0519 257.592406 
L 196.367711 257.921676 
L 196.683523 257.868993 
L 196.999335 258.106068 
L 197.630959 257.184111 
L 198.578394 256.709962 
L 198.894206 257.671431 
L 199.210018 255.893372 
L 199.841641 257.144599 
L 200.157453 257.868993 
L 200.789077 256.894354 
L 201.104889 255.392882 
L 201.4207 256.499229 
L 201.736512 255.880202 
L 202.052324 254.800196 
L 202.368136 252.9036 
L 202.683948 253.259211 
L 202.999759 253.351407 
L 203.631383 253.772873 
L 203.947195 254.260193 
L 204.578819 255.616786 
L 204.89463 255.959226 
L 205.210442 255.919714 
L 205.526254 256.314838 
L 205.842066 255.959226 
L 206.473689 255.788006 
L 206.789501 255.814348 
L 207.421125 256.328009 
L 207.736937 256.051422 
L 208.052748 256.802158 
L 208.684372 256.67045 
L 209.315996 257.381673 
L 209.947619 258.264117 
L 210.263431 258.106068 
L 210.895055 258.711925 
L 211.210867 259.370465 
L 211.526678 259.515344 
L 212.158302 260.648033 
L 212.789926 260.990474 
L 213.105738 260.727058 
L 213.421549 261.267061 
L 213.737361 261.372428 
L 214.053173 261.056328 
L 214.368985 261.240719 
L 214.684797 261.25389 
L 215.000608 261.477794 
L 215.632232 262.821216 
L 216.263856 263.440244 
L 216.579667 263.453415 
L 216.895479 263.743173 
L 217.211291 263.70366 
L 217.527103 263.54561 
L 217.842915 263.571952 
L 218.79035 264.401713 
L 219.737786 264.546592 
L 220.053597 264.599275 
L 220.685221 264.902203 
L 221.632657 265.17879 
L 222.580092 265.16562 
L 224.159151 265.231474 
L 224.474963 265.376352 
L 229.21214 265.49489 
L 230.475387 265.442206 
L 231.107011 265.455377 
L 231.422823 265.323669 
L 231.738635 265.350011 
L 232.370258 265.205132 
L 233.317694 265.218303 
L 233.949317 265.310498 
L 234.580941 265.139278 
L 234.896753 265.16562 
L 236.16 264.572933 
L 237.107435 264.6783 
L 239.318118 264.533421 
L 239.63393 264.638787 
L 242.160424 263.967076 
L 244.055295 264.177809 
L 244.686919 264.006589 
L 245.002731 264.19098 
L 246.265978 263.993418 
L 246.897602 263.558781 
L 247.213414 263.229511 
L 247.529225 263.124145 
L 247.845037 262.676337 
L 248.160849 262.755362 
L 249.739908 262.096822 
L 250.05572 262.281213 
L 250.371532 262.162676 
L 251.003155 262.202188 
L 251.318967 261.938772 
L 251.950591 261.991455 
L 253.213838 262.439263 
L 253.52965 262.88707 
L 253.845462 263.018778 
L 254.161273 262.939753 
L 254.792897 263.110974 
L 255.108709 262.992437 
L 255.424521 262.570971 
L 255.740333 262.426092 
L 256.056144 261.991455 
L 256.687768 261.820235 
L 257.00358 261.635844 
L 257.635203 261.635844 
L 257.951015 261.451452 
L 258.266827 261.543648 
L 258.582639 261.122182 
L 258.898451 261.029987 
L 259.214262 261.08267 
L 259.845886 260.358276 
L 260.161698 260.029005 
L 260.793322 259.739248 
L 261.109133 259.423148 
L 261.424945 259.304611 
L 261.740757 259.475832 
L 262.056569 259.014853 
L 262.372381 258.764608 
L 262.688192 258.369484 
L 263.004004 258.158751 
L 263.635628 258.185093 
L 263.95144 258.237776 
L 264.267252 257.605577 
L 264.898875 255.748494 
L 265.214687 255.142637 
L 265.530499 254.154826 
L 265.846311 254.102143 
L 266.162122 253.535798 
L 266.477934 251.902618 
L 266.793746 249.400165 
L 267.42537 246.871371 
L 267.741181 246.291855 
L 268.372805 244.092331 
L 269.951864 230.579084 
L 270.267676 228.932734 
L 270.583488 229.051271 
L 270.8993 225.258079 
L 271.215111 229.815177 
L 271.846735 216.473152 
L 272.478359 210.07214 
L 272.79417 209.597991 
L 273.109982 207.635541 
L 273.425794 193.937903 
L 274.057418 200.655014 
L 274.37323 202.38039 
L 274.689041 204.737964 
L 275.004853 202.406731 
L 275.320665 201.221359 
L 275.636477 206.871634 
L 275.952289 207.688224 
L 276.2681 207.411637 
L 276.583912 208.913109 
L 276.899724 208.254569 
L 277.84716 213.443866 
L 278.162971 213.66777 
L 278.478783 215.261437 
L 278.794595 216.183394 
L 279.110407 219.001946 
L 279.426219 218.712188 
L 280.057842 222.17611 
L 280.689466 230.789817 
L 281.005278 231.277137 
L 281.321089 231.290308 
L 281.636901 231.553724 
L 282.268525 239.034741 
L 282.584337 238.876692 
L 282.900149 240.180601 
L 283.21596 243.26257 
L 283.531772 243.644523 
L 283.847584 244.605992 
L 284.163396 247.951377 
L 284.479208 248.609917 
L 284.795019 248.702113 
L 285.110831 248.109426 
L 285.426643 247.806498 
L 285.742455 247.911864 
L 286.058267 247.51674 
L 286.68989 239.166449 
L 287.005702 238.046931 
L 287.321514 237.572782 
L 287.637326 235.768382 
L 287.953138 235.610332 
L 288.268949 234.780571 
L 288.900573 237.322537 
L 289.216385 237.085462 
L 289.532197 234.780571 
L 289.848008 234.543497 
L 290.16382 231.777628 
L 290.479632 230.868842 
L 291.427068 214.629239 
L 292.058691 206.753097 
L 292.374503 208.043836 
L 293.006127 201.326725 
L 293.321938 192.344236 
L 293.63775 187.075914 
L 294.269374 180.622219 
L 294.585186 179.805629 
L 294.900998 180.069045 
L 295.216809 169.36118 
L 295.532621 169.20313 
L 296.164245 164.725057 
L 296.480057 163.30261 
L 297.11168 158.205508 
L 297.743304 150.342537 
L 298.059116 149.486435 
L 298.374927 143.045911 
L 298.690739 150.922052 
L 299.006551 150.447903 
L 299.322363 138.936619 
L 299.638175 143.599085 
L 299.953987 143.533231 
L 300.269798 144.099575 
L 300.58561 147.550326 
L 300.901422 144.033721 
L 301.217234 144.573724 
L 301.533046 146.127879 
L 301.848857 146.562516 
L 302.164669 148.59082 
L 302.480481 146.180562 
L 302.796293 148.709357 
L 303.112105 144.83714 
L 303.427917 143.585914 
L 303.743728 153.161089 
L 304.05954 150.092292 
L 304.375352 150.118633 
L 304.691164 149.24936 
L 305.322787 143.717622 
L 305.638599 149.486435 
L 306.270223 142.650787 
L 306.901846 114.149163 
L 307.217658 111.96281 
L 307.53347 100.135426 
L 307.849282 96.684675 
L 308.165094 89.88854 
L 308.480906 78.653843 
L 308.796717 71.870878 
L 309.112529 69.276229 
L 309.428341 56.974697 
L 309.744153 64.139615 
L 310.059965 52.154182 
L 310.375776 56.05274 
L 310.691588 57.1986 
L 311.0074 58.844951 
L 311.323212 52.483452 
L 311.954836 55.315175 
L 312.270647 64.455714 
L 312.586459 59.780078 
L 312.902271 61.163013 
L 313.218083 72.345027 
L 313.849706 111.699394 
L 314.165518 123.961414 
L 314.48133 126.002888 
L 314.797142 132.07463 
L 315.428765 157.454772 
L 315.744577 165.093839 
L 316.060389 167.319705 
L 316.376201 164.514324 
L 316.692013 166.187016 
L 317.007825 169.348009 
L 317.639448 178.870502 
L 317.95526 179.568554 
L 318.586884 186.52274 
L 318.902695 184.942243 
L 319.534319 210.296044 
L 319.850131 202.591122 
L 320.165943 202.630635 
L 320.481755 202.38039 
L 320.797566 202.762343 
L 321.113378 204.145278 
L 321.745002 187.378842 
L 322.060814 198.613539 
L 322.376625 203.157467 
L 323.324061 211.639466 
L 323.639873 211.336537 
L 323.955684 216.525835 
L 324.90312 224.981492 
L 325.218932 223.440508 
L 325.534744 222.597576 
L 326.166367 229.420053 
L 326.482179 230.486889 
L 327.113803 233.963981 
L 327.429614 234.75423 
L 327.745426 235.175695 
L 328.37705 239.851331 
L 328.692862 242.893787 
L 329.008674 243.907939 
L 329.640297 246.752833 
L 329.956109 247.687961 
L 330.587733 248.557234 
L 330.903544 249.782119 
L 331.219356 252.08701 
L 331.535168 251.863106 
L 332.166792 250.690904 
L 332.482603 251.296761 
L 332.798415 250.901637 
L 333.114227 249.676752 
L 333.430039 247.727473 
L 333.745851 247.279666 
L 334.377474 248.425526 
L 334.693286 252.021156 
L 335.009098 250.256268 
L 335.956533 240.628409 
L 336.272345 240.65475 
L 336.588157 239.49572 
L 336.903969 230.249814 
L 337.219781 229.736153 
L 337.535593 228.827367 
L 337.851404 229.0381 
L 338.167216 228.195168 
L 338.483028 228.195168 
L 338.79884 229.354199 
L 339.114652 231.105916 
L 339.430463 224.546855 
L 339.746275 223.572216 
L 340.062087 220.898542 
L 340.377899 219.923903 
L 341.009522 219.923903 
L 341.325334 216.512664 
L 341.641146 217.711207 
L 341.956958 213.891674 
L 342.27277 211.678978 
L 342.588582 211.073121 
L 343.220205 211.073121 
L 343.536017 209.716528 
L 343.851829 205.238454 
L 344.167641 206.47651 
L 344.483452 208.544327 
L 344.799264 206.542364 
L 345.430888 206.542364 
L 345.7467 205.844311 
L 346.062511 205.580895 
L 346.378323 203.908203 
L 347.009947 204.461377 
L 347.641571 204.461377 
L 347.957382 203.974057 
L 348.273194 205.673091 
L 348.589006 201.524287 
L 349.22063 203.644787 
L 349.852253 203.644787 
L 350.168065 202.051119 
L 350.483877 204.935526 
L 350.799689 213.865332 
L 351.115501 215.340462 
L 351.431312 217.75072 
L 352.062936 217.75072 
L 352.378748 224.204414 
L 353.010371 229.617615 
L 353.326183 231.356162 
L 353.641995 232.106898 
L 354.273619 232.106898 
L 354.58943 234.477643 
L 354.905242 235.228379 
L 355.221054 235.57082 
L 355.536866 236.914242 
L 355.852678 237.296195 
L 356.16849 237.296195 
L 356.484301 236.703509 
L 356.800113 237.414732 
L 357.115925 238.718642 
L 357.431737 239.258645 
L 357.747549 239.113766 
L 358.06336 240.667921 
L 358.379172 240.667921 
L 359.326608 242.340614 
L 359.64242 242.129881 
L 359.958231 241.655732 
L 360.274043 241.866465 
L 360.905667 241.866465 
L 361.53729 242.854275 
L 362.168914 244.974775 
L 362.484726 244.368918 
L 363.116349 244.368918 
L 363.432161 245.39624 
L 363.747973 247.292836 
L 364.063785 246.634296 
L 364.379597 247.595765 
L 365.01122 247.687961 
L 365.327032 247.687961 
L 365.642844 245.672827 
L 365.958656 246.094293 
L 366.274468 245.014287 
L 366.590279 244.434772 
L 367.537715 244.474284 
L 367.853527 243.170374 
L 368.169339 239.772306 
L 368.48515 240.378164 
L 368.800962 239.983039 
L 369.116774 240.760117 
L 369.748398 240.760117 
L 370.064209 242.60403 
L 370.380021 233.805932 
L 370.695833 232.291289 
L 371.011645 230.078594 
L 371.327457 226.667355 
L 371.95908 226.667355 
L 372.590704 236.795704 
L 372.906516 227.681507 
L 373.538139 217.079009 
L 374.169763 217.079009 
L 374.485575 205.725774 
L 374.801387 201.010626 
L 375.117198 207.964811 
L 375.43301 208.76823 
L 375.748822 212.429714 
L 376.380446 212.429714 
L 376.696258 212.218981 
L 377.012069 217.724378 
L 377.327881 217.539987 
L 377.959505 223.585386 
L 378.591128 223.585386 
L 378.90694 226.878088 
L 379.222752 227.470774 
L 379.854376 232.330801 
L 380.170187 233.476661 
L 380.801811 233.476661 
L 381.117623 241.747927 
L 381.433435 245.343557 
L 381.749247 243.499644 
L 382.065058 243.381107 
L 382.38087 244.197697 
L 383.012494 244.197697 
L 383.328306 239.890844 
L 383.644117 240.891825 
L 383.959929 246.331368 
L 384.275741 248.596746 
L 384.907365 248.478209 
L 385.223177 248.478209 
L 385.538988 249.32114 
L 385.8548 250.62505 
L 386.170612 253.298724 
L 386.486424 251.520665 
L 386.802236 250.493342 
L 387.433859 250.493342 
L 387.749671 250.085047 
L 388.381295 244.224039 
L 388.697106 244.658675 
L 389.012918 245.857219 
L 389.644542 245.857219 
L 389.960354 244.316234 
L 390.276166 244.698188 
L 390.591977 244.171356 
L 390.907789 243.934281 
L 391.539413 244.039647 
L 391.855225 242.893787 
L 392.171036 244.948433 
L 392.486848 245.22502 
L 392.80266 244.671846 
L 393.118472 245.778194 
L 393.434284 245.040629 
L 393.750096 245.040629 
L 394.065907 246.186489 
L 394.381719 245.106483 
L 394.697531 245.277703 
L 395.013343 246.186489 
L 395.329155 245.475265 
L 395.644966 246.384051 
L 396.27659 246.384051 
L 396.592402 246.054781 
L 397.855649 249.716265 
L 398.487273 249.716265 
L 398.487273 249.716265 
" clip-path="url(#p18ea6587e6)" style="fill: none; stroke: #1f77b4; stroke-width: 1.5; stroke-linecap: square"/>
   </g>
   <g id="patch_3">
    <path d="M 57.6 276.48 
L 57.6 41.472 
" style="fill: none; stroke: #000000; stroke-width: 0.8; stroke-linejoin: miter; stroke-linecap: square"/>
   </g>
   <g id="patch_4">
    <path d="M 414.72 276.48 
L 414.72 41.472 
" style="fill: none; stroke: #000000; stroke-width: 0.8; stroke-linejoin: miter; stroke-linecap: square"/>
   </g>
   <g id="patch_5">
    <path d="M 57.6 276.48 
L 414.72 276.48 
" style="fill: none; stroke: #000000; stroke-width: 0.8; stroke-linejoin: miter; stroke-linecap: square"/>
   </g>
   <g id="patch_6">
    <path d="M 57.6 41.472 
L 414.72 41.472 
" style="fill: none; stroke: #000000; stroke-width: 0.8; stroke-linejoin: miter; stroke-linecap: square"/>
   </g>
  </g>
  <g id="text_18">
   <!-- Inzidenzverlauf SK Leipzig -->
   <g transform="translate(112.80375 20.589187) scale(0.18 -0.18)">
    <defs>
     <path id="DejaVuSans-76" d="M 191 3500 
L 800 3500 
L 1894 563 
L 2988 3500 
L 3597 3500 
L 2284 0 
L 1503 0 
L 191 3500 
z
" transform="scale(0.015625)"/>
     <path id="DejaVuSans-6c" d="M 603 4863 
L 1178 4863 
L 1178 0 
L 603 0 
L 603 4863 
z
" transform="scale(0.015625)"/>
     <path id="DejaVuSans-75" d="M 544 1381 
L 544 3500 
L 1119 3500 
L 1119 1403 
Q 1119 906 1312 657 
Q 1506 409 1894 409 
Q 2359 409 2629 706 
Q 2900 1003 2900 1516 
L 2900 3500 
L 3475 3500 
L 3475 0 
L 2900 0 
L 2900 538 
Q 2691 219 2414 64 
Q 2138 -91 1772 -91 
Q 1169 -91 856 284 
Q 544 659 544 1381 
z
M 1991 3584 
L 1991 3584 
z
" transform="scale(0.015625)"/>
     <path id="DejaVuSans-66" d="M 2375 4863 
L 2375 4384 
L 1825 4384 
Q 1516 4384 1395 4259 
Q 1275 4134 1275 3809 
L 1275 3500 
L 2222 3500 
L 2222 3053 
L 1275 3053 
L 1275 0 
L 697 0 
L 697 3053 
L 147 3053 
L 147 3500 
L 697 3500 
L 697 3744 
Q 697 4328 969 4595 
Q 1241 4863 1831 4863 
L 2375 4863 
z
" transform="scale(0.015625)"/>
     <path id="DejaVuSans-53" d="M 3425 4513 
L 3425 3897 
Q 3066 4069 2747 4153 
Q 2428 4238 2131 4238 
Q 1616 4238 1336 4038 
Q 1056 3838 1056 3469 
Q 1056 3159 1242 3001 
Q 1428 2844 1947 2747 
L 2328 2669 
Q 3034 2534 3370 2195 
Q 3706 1856 3706 1288 
Q 3706 609 3251 259 
Q 2797 -91 1919 -91 
Q 1588 -91 1214 -16 
Q 841 59 441 206 
L 441 856 
Q 825 641 1194 531 
Q 1563 422 1919 422 
Q 2459 422 2753 634 
Q 3047 847 3047 1241 
Q 3047 1584 2836 1778 
Q 2625 1972 2144 2069 
L 1759 2144 
Q 1053 2284 737 2584 
Q 422 2884 422 3419 
Q 422 4038 858 4394 
Q 1294 4750 2059 4750 
Q 2388 4750 2728 4690 
Q 3069 4631 3425 4513 
z
" transform="scale(0.015625)"/>
     <path id="DejaVuSans-4b" d="M 628 4666 
L 1259 4666 
L 1259 2694 
L 3353 4666 
L 4166 4666 
L 1850 2491 
L 4331 0 
L 3500 0 
L 1259 2247 
L 1259 0 
L 628 0 
L 628 4666 
z
" transform="scale(0.015625)"/>
     <path id="DejaVuSans-4c" d="M 628 4666 
L 1259 4666 
L 1259 531 
L 3531 531 
L 3531 0 
L 628 0 
L 628 4666 
z
" transform="scale(0.015625)"/>
    </defs>
    <use xlink:href="#DejaVuSans-49"/>
    <use xlink:href="#DejaVuSans-6e" x="29.492188"/>
    <use xlink:href="#DejaVuSans-7a" x="92.871094"/>
    <use xlink:href="#DejaVuSans-69" x="145.361328"/>
    <use xlink:href="#DejaVuSans-64" x="173.144531"/>
    <use xlink:href="#DejaVuSans-65" x="236.621094"/>
    <use xlink:href="#DejaVuSans-6e" x="298.144531"/>
    <use xlink:href="#DejaVuSans-7a" x="361.523438"/>
    <use xlink:href="#DejaVuSans-76" x="414.013672"/>
    <use xlink:href="#DejaVuSans-65" x="473.193359"/>
    <use xlink:href="#DejaVuSans-72" x="534.716797"/>
    <use xlink:href="#DejaVuSans-6c" x="575.830078"/>
    <use xlink:href="#DejaVuSans-61" x="603.613281"/>
    <use xlink:href="#DejaVuSans-75" x="664.892578"/>
    <use xlink:href="#DejaVuSans-66" x="728.271484"/>
    <use xlink:href="#DejaVuSans-20" x="763.476562"/>
    <use xlink:href="#DejaVuSans-53" x="795.263672"/>
    <use xlink:href="#DejaVuSans-4b" x="858.740234"/>
    <use xlink:href="#DejaVuSans-20" x="924.316406"/>
    <use xlink:href="#DejaVuSans-4c" x="956.103516"/>
    <use xlink:href="#DejaVuSans-65" x="1010.066406"/>
    <use xlink:href="#DejaVuSans-69" x="1071.589844"/>
    <use xlink:href="#DejaVuSans-70" x="1099.373047"/>
    <use xlink:href="#DejaVuSans-7a" x="1162.849609"/>
    <use xlink:href="#DejaVuSans-69" x="1215.339844"/>
    <use xlink:href="#DejaVuSans-67" x="1243.123047"/>
   </g>
  </g>
 </g>
 <defs>
  <clipPath id="p18ea6587e6">
   <rect x="57.6" y="41.472" width="357.12" height="235.008"/>
  </clipPath>
 </defs>
</svg>
