<?xml version="1.0" encoding="utf-8" standalone="no"?>
<!DOCTYPE svg PUBLIC "-//W3C//DTD SVG 1.1//EN"
  "http://www.w3.org/Graphics/SVG/1.1/DTD/svg11.dtd">
<svg xmlns:xlink="http://www.w3.org/1999/xlink" width="460.8pt" height="345.6pt" viewBox="0 0 460.8 345.6" xmlns="http://www.w3.org/2000/svg" version="1.1">
 <metadata>
  <rdf:RDF xmlns:dc="http://purl.org/dc/elements/1.1/" xmlns:cc="http://creativecommons.org/ns#" xmlns:rdf="http://www.w3.org/1999/02/22-rdf-syntax-ns#">
   <cc:Work>
    <dc:type rdf:resource="http://purl.org/dc/dcmitype/StillImage"/>
    <dc:date>2022-04-17T09:21:04.393831</dc:date>
    <dc:format>image/svg+xml</dc:format>
    <dc:creator>
     <cc:Agent>
      <dc:title>Matplotlib v3.5.1, https://matplotlib.org/</dc:title>
     </cc:Agent>
    </dc:creator>
   </cc:Work>
  </rdf:RDF>
 </metadata>
 <defs>
  <style type="text/css">*{stroke-linejoin: round; stroke-linecap: butt}</style>
 </defs>
 <g id="figure_1">
  <g id="patch_1">
   <path d="M 0 345.6 
L 460.8 345.6 
L 460.8 0 
L 0 0 
z
" style="fill: #ffffff"/>
  </g>
  <g id="axes_1">
   <g id="patch_2">
    <path d="M 57.6 276.48 
L 414.72 276.48 
L 414.72 41.472 
L 57.6 41.472 
z
" style="fill: #ffffff"/>
   </g>
   <g id="matplotlib.axis_1">
    <g id="xtick_1">
     <g id="line2d_1">
      <path d="M 60.130909 276.48 
L 60.130909 41.472 
" clip-path="url(#pfe86564e60)" style="fill: none; stroke-dasharray: 2.96,1.28; stroke-dashoffset: 0; stroke: #808080; stroke-width: 0.8"/>
     </g>
     <g id="line2d_2">
      <defs>
       <path id="m68b404fca9" d="M 0 0 
L 0 3.5 
" style="stroke: #000000; stroke-width: 0.8"/>
      </defs>
      <g>
       <use xlink:href="#m68b404fca9" x="60.130909" y="276.48" style="stroke: #000000; stroke-width: 0.8"/>
      </g>
     </g>
     <g id="text_1">
      <!-- 30.01.2020 -->
      <g transform="translate(9.505698 318.688565)rotate(-30)scale(0.1 -0.1)">
       <defs>
        <path id="DejaVuSans-33" d="M 2597 2516 
Q 3050 2419 3304 2112 
Q 3559 1806 3559 1356 
Q 3559 666 3084 287 
Q 2609 -91 1734 -91 
Q 1441 -91 1130 -33 
Q 819 25 488 141 
L 488 750 
Q 750 597 1062 519 
Q 1375 441 1716 441 
Q 2309 441 2620 675 
Q 2931 909 2931 1356 
Q 2931 1769 2642 2001 
Q 2353 2234 1838 2234 
L 1294 2234 
L 1294 2753 
L 1863 2753 
Q 2328 2753 2575 2939 
Q 2822 3125 2822 3475 
Q 2822 3834 2567 4026 
Q 2313 4219 1838 4219 
Q 1578 4219 1281 4162 
Q 984 4106 628 3988 
L 628 4550 
Q 988 4650 1302 4700 
Q 1616 4750 1894 4750 
Q 2613 4750 3031 4423 
Q 3450 4097 3450 3541 
Q 3450 3153 3228 2886 
Q 3006 2619 2597 2516 
z
" transform="scale(0.015625)"/>
        <path id="DejaVuSans-30" d="M 2034 4250 
Q 1547 4250 1301 3770 
Q 1056 3291 1056 2328 
Q 1056 1369 1301 889 
Q 1547 409 2034 409 
Q 2525 409 2770 889 
Q 3016 1369 3016 2328 
Q 3016 3291 2770 3770 
Q 2525 4250 2034 4250 
z
M 2034 4750 
Q 2819 4750 3233 4129 
Q 3647 3509 3647 2328 
Q 3647 1150 3233 529 
Q 2819 -91 2034 -91 
Q 1250 -91 836 529 
Q 422 1150 422 2328 
Q 422 3509 836 4129 
Q 1250 4750 2034 4750 
z
" transform="scale(0.015625)"/>
        <path id="DejaVuSans-2e" d="M 684 794 
L 1344 794 
L 1344 0 
L 684 0 
L 684 794 
z
" transform="scale(0.015625)"/>
        <path id="DejaVuSans-31" d="M 794 531 
L 1825 531 
L 1825 4091 
L 703 3866 
L 703 4441 
L 1819 4666 
L 2450 4666 
L 2450 531 
L 3481 531 
L 3481 0 
L 794 0 
L 794 531 
z
" transform="scale(0.015625)"/>
        <path id="DejaVuSans-32" d="M 1228 531 
L 3431 531 
L 3431 0 
L 469 0 
L 469 531 
Q 828 903 1448 1529 
Q 2069 2156 2228 2338 
Q 2531 2678 2651 2914 
Q 2772 3150 2772 3378 
Q 2772 3750 2511 3984 
Q 2250 4219 1831 4219 
Q 1534 4219 1204 4116 
Q 875 4013 500 3803 
L 500 4441 
Q 881 4594 1212 4672 
Q 1544 4750 1819 4750 
Q 2544 4750 2975 4387 
Q 3406 4025 3406 3419 
Q 3406 3131 3298 2873 
Q 3191 2616 2906 2266 
Q 2828 2175 2409 1742 
Q 1991 1309 1228 531 
z
" transform="scale(0.015625)"/>
       </defs>
       <use xlink:href="#DejaVuSans-33"/>
       <use xlink:href="#DejaVuSans-30" x="63.623047"/>
       <use xlink:href="#DejaVuSans-2e" x="127.246094"/>
       <use xlink:href="#DejaVuSans-30" x="159.033203"/>
       <use xlink:href="#DejaVuSans-31" x="222.65625"/>
       <use xlink:href="#DejaVuSans-2e" x="286.279297"/>
       <use xlink:href="#DejaVuSans-32" x="318.066406"/>
       <use xlink:href="#DejaVuSans-30" x="381.689453"/>
       <use xlink:href="#DejaVuSans-32" x="445.3125"/>
       <use xlink:href="#DejaVuSans-30" x="508.935547"/>
      </g>
     </g>
    </g>
    <g id="xtick_2">
     <g id="line2d_3">
      <path d="M 96.157091 276.48 
L 96.157091 41.472 
" clip-path="url(#pfe86564e60)" style="fill: none; stroke-dasharray: 2.96,1.28; stroke-dashoffset: 0; stroke: #808080; stroke-width: 0.8"/>
     </g>
     <g id="line2d_4">
      <g>
       <use xlink:href="#m68b404fca9" x="96.157091" y="276.48" style="stroke: #000000; stroke-width: 0.8"/>
      </g>
     </g>
     <g id="text_2">
      <!-- 25.04.2020 -->
      <g transform="translate(45.53188 318.688565)rotate(-30)scale(0.1 -0.1)">
       <defs>
        <path id="DejaVuSans-35" d="M 691 4666 
L 3169 4666 
L 3169 4134 
L 1269 4134 
L 1269 2991 
Q 1406 3038 1543 3061 
Q 1681 3084 1819 3084 
Q 2600 3084 3056 2656 
Q 3513 2228 3513 1497 
Q 3513 744 3044 326 
Q 2575 -91 1722 -91 
Q 1428 -91 1123 -41 
Q 819 9 494 109 
L 494 744 
Q 775 591 1075 516 
Q 1375 441 1709 441 
Q 2250 441 2565 725 
Q 2881 1009 2881 1497 
Q 2881 1984 2565 2268 
Q 2250 2553 1709 2553 
Q 1456 2553 1204 2497 
Q 953 2441 691 2322 
L 691 4666 
z
" transform="scale(0.015625)"/>
        <path id="DejaVuSans-34" d="M 2419 4116 
L 825 1625 
L 2419 1625 
L 2419 4116 
z
M 2253 4666 
L 3047 4666 
L 3047 1625 
L 3713 1625 
L 3713 1100 
L 3047 1100 
L 3047 0 
L 2419 0 
L 2419 1100 
L 313 1100 
L 313 1709 
L 2253 4666 
z
" transform="scale(0.015625)"/>
       </defs>
       <use xlink:href="#DejaVuSans-32"/>
       <use xlink:href="#DejaVuSans-35" x="63.623047"/>
       <use xlink:href="#DejaVuSans-2e" x="127.246094"/>
       <use xlink:href="#DejaVuSans-30" x="159.033203"/>
       <use xlink:href="#DejaVuSans-34" x="222.65625"/>
       <use xlink:href="#DejaVuSans-2e" x="286.279297"/>
       <use xlink:href="#DejaVuSans-32" x="318.066406"/>
       <use xlink:href="#DejaVuSans-30" x="381.689453"/>
       <use xlink:href="#DejaVuSans-32" x="445.3125"/>
       <use xlink:href="#DejaVuSans-30" x="508.935547"/>
      </g>
     </g>
    </g>
    <g id="xtick_3">
     <g id="line2d_5">
      <path d="M 132.183273 276.48 
L 132.183273 41.472 
" clip-path="url(#pfe86564e60)" style="fill: none; stroke-dasharray: 2.96,1.28; stroke-dashoffset: 0; stroke: #808080; stroke-width: 0.8"/>
     </g>
     <g id="line2d_6">
      <g>
       <use xlink:href="#m68b404fca9" x="132.183273" y="276.48" style="stroke: #000000; stroke-width: 0.8"/>
      </g>
     </g>
     <g id="text_3">
      <!-- 20.07.2020 -->
      <g transform="translate(81.558062 318.688565)rotate(-30)scale(0.1 -0.1)">
       <defs>
        <path id="DejaVuSans-37" d="M 525 4666 
L 3525 4666 
L 3525 4397 
L 1831 0 
L 1172 0 
L 2766 4134 
L 525 4134 
L 525 4666 
z
" transform="scale(0.015625)"/>
       </defs>
       <use xlink:href="#DejaVuSans-32"/>
       <use xlink:href="#DejaVuSans-30" x="63.623047"/>
       <use xlink:href="#DejaVuSans-2e" x="127.246094"/>
       <use xlink:href="#DejaVuSans-30" x="159.033203"/>
       <use xlink:href="#DejaVuSans-37" x="222.65625"/>
       <use xlink:href="#DejaVuSans-2e" x="286.279297"/>
       <use xlink:href="#DejaVuSans-32" x="318.066406"/>
       <use xlink:href="#DejaVuSans-30" x="381.689453"/>
       <use xlink:href="#DejaVuSans-32" x="445.3125"/>
       <use xlink:href="#DejaVuSans-30" x="508.935547"/>
      </g>
     </g>
    </g>
    <g id="xtick_4">
     <g id="line2d_7">
      <path d="M 168.209455 276.48 
L 168.209455 41.472 
" clip-path="url(#pfe86564e60)" style="fill: none; stroke-dasharray: 2.96,1.28; stroke-dashoffset: 0; stroke: #808080; stroke-width: 0.8"/>
     </g>
     <g id="line2d_8">
      <g>
       <use xlink:href="#m68b404fca9" x="168.209455" y="276.48" style="stroke: #000000; stroke-width: 0.8"/>
      </g>
     </g>
     <g id="text_4">
      <!-- 14.10.2020 -->
      <g transform="translate(117.584244 318.688565)rotate(-30)scale(0.1 -0.1)">
       <use xlink:href="#DejaVuSans-31"/>
       <use xlink:href="#DejaVuSans-34" x="63.623047"/>
       <use xlink:href="#DejaVuSans-2e" x="127.246094"/>
       <use xlink:href="#DejaVuSans-31" x="159.033203"/>
       <use xlink:href="#DejaVuSans-30" x="222.65625"/>
       <use xlink:href="#DejaVuSans-2e" x="286.279297"/>
       <use xlink:href="#DejaVuSans-32" x="318.066406"/>
       <use xlink:href="#DejaVuSans-30" x="381.689453"/>
       <use xlink:href="#DejaVuSans-32" x="445.3125"/>
       <use xlink:href="#DejaVuSans-30" x="508.935547"/>
      </g>
     </g>
    </g>
    <g id="xtick_5">
     <g id="line2d_9">
      <path d="M 204.235636 276.48 
L 204.235636 41.472 
" clip-path="url(#pfe86564e60)" style="fill: none; stroke-dasharray: 2.96,1.28; stroke-dashoffset: 0; stroke: #808080; stroke-width: 0.8"/>
     </g>
     <g id="line2d_10">
      <g>
       <use xlink:href="#m68b404fca9" x="204.235636" y="276.48" style="stroke: #000000; stroke-width: 0.8"/>
      </g>
     </g>
     <g id="text_5">
      <!-- 08.01.2021 -->
      <g transform="translate(153.610426 318.688565)rotate(-30)scale(0.1 -0.1)">
       <defs>
        <path id="DejaVuSans-38" d="M 2034 2216 
Q 1584 2216 1326 1975 
Q 1069 1734 1069 1313 
Q 1069 891 1326 650 
Q 1584 409 2034 409 
Q 2484 409 2743 651 
Q 3003 894 3003 1313 
Q 3003 1734 2745 1975 
Q 2488 2216 2034 2216 
z
M 1403 2484 
Q 997 2584 770 2862 
Q 544 3141 544 3541 
Q 544 4100 942 4425 
Q 1341 4750 2034 4750 
Q 2731 4750 3128 4425 
Q 3525 4100 3525 3541 
Q 3525 3141 3298 2862 
Q 3072 2584 2669 2484 
Q 3125 2378 3379 2068 
Q 3634 1759 3634 1313 
Q 3634 634 3220 271 
Q 2806 -91 2034 -91 
Q 1263 -91 848 271 
Q 434 634 434 1313 
Q 434 1759 690 2068 
Q 947 2378 1403 2484 
z
M 1172 3481 
Q 1172 3119 1398 2916 
Q 1625 2713 2034 2713 
Q 2441 2713 2670 2916 
Q 2900 3119 2900 3481 
Q 2900 3844 2670 4047 
Q 2441 4250 2034 4250 
Q 1625 4250 1398 4047 
Q 1172 3844 1172 3481 
z
" transform="scale(0.015625)"/>
       </defs>
       <use xlink:href="#DejaVuSans-30"/>
       <use xlink:href="#DejaVuSans-38" x="63.623047"/>
       <use xlink:href="#DejaVuSans-2e" x="127.246094"/>
       <use xlink:href="#DejaVuSans-30" x="159.033203"/>
       <use xlink:href="#DejaVuSans-31" x="222.65625"/>
       <use xlink:href="#DejaVuSans-2e" x="286.279297"/>
       <use xlink:href="#DejaVuSans-32" x="318.066406"/>
       <use xlink:href="#DejaVuSans-30" x="381.689453"/>
       <use xlink:href="#DejaVuSans-32" x="445.3125"/>
       <use xlink:href="#DejaVuSans-31" x="508.935547"/>
      </g>
     </g>
    </g>
    <g id="xtick_6">
     <g id="line2d_11">
      <path d="M 240.261818 276.48 
L 240.261818 41.472 
" clip-path="url(#pfe86564e60)" style="fill: none; stroke-dasharray: 2.96,1.28; stroke-dashoffset: 0; stroke: #808080; stroke-width: 0.8"/>
     </g>
     <g id="line2d_12">
      <g>
       <use xlink:href="#m68b404fca9" x="240.261818" y="276.48" style="stroke: #000000; stroke-width: 0.8"/>
      </g>
     </g>
     <g id="text_6">
      <!-- 04.04.2021 -->
      <g transform="translate(189.636607 318.688565)rotate(-30)scale(0.1 -0.1)">
       <use xlink:href="#DejaVuSans-30"/>
       <use xlink:href="#DejaVuSans-34" x="63.623047"/>
       <use xlink:href="#DejaVuSans-2e" x="127.246094"/>
       <use xlink:href="#DejaVuSans-30" x="159.033203"/>
       <use xlink:href="#DejaVuSans-34" x="222.65625"/>
       <use xlink:href="#DejaVuSans-2e" x="286.279297"/>
       <use xlink:href="#DejaVuSans-32" x="318.066406"/>
       <use xlink:href="#DejaVuSans-30" x="381.689453"/>
       <use xlink:href="#DejaVuSans-32" x="445.3125"/>
       <use xlink:href="#DejaVuSans-31" x="508.935547"/>
      </g>
     </g>
    </g>
    <g id="xtick_7">
     <g id="line2d_13">
      <path d="M 276.288 276.48 
L 276.288 41.472 
" clip-path="url(#pfe86564e60)" style="fill: none; stroke-dasharray: 2.96,1.28; stroke-dashoffset: 0; stroke: #808080; stroke-width: 0.8"/>
     </g>
     <g id="line2d_14">
      <g>
       <use xlink:href="#m68b404fca9" x="276.288" y="276.48" style="stroke: #000000; stroke-width: 0.8"/>
      </g>
     </g>
     <g id="text_7">
      <!-- 29.06.2021 -->
      <g transform="translate(225.662789 318.688565)rotate(-30)scale(0.1 -0.1)">
       <defs>
        <path id="DejaVuSans-39" d="M 703 97 
L 703 672 
Q 941 559 1184 500 
Q 1428 441 1663 441 
Q 2288 441 2617 861 
Q 2947 1281 2994 2138 
Q 2813 1869 2534 1725 
Q 2256 1581 1919 1581 
Q 1219 1581 811 2004 
Q 403 2428 403 3163 
Q 403 3881 828 4315 
Q 1253 4750 1959 4750 
Q 2769 4750 3195 4129 
Q 3622 3509 3622 2328 
Q 3622 1225 3098 567 
Q 2575 -91 1691 -91 
Q 1453 -91 1209 -44 
Q 966 3 703 97 
z
M 1959 2075 
Q 2384 2075 2632 2365 
Q 2881 2656 2881 3163 
Q 2881 3666 2632 3958 
Q 2384 4250 1959 4250 
Q 1534 4250 1286 3958 
Q 1038 3666 1038 3163 
Q 1038 2656 1286 2365 
Q 1534 2075 1959 2075 
z
" transform="scale(0.015625)"/>
        <path id="DejaVuSans-36" d="M 2113 2584 
Q 1688 2584 1439 2293 
Q 1191 2003 1191 1497 
Q 1191 994 1439 701 
Q 1688 409 2113 409 
Q 2538 409 2786 701 
Q 3034 994 3034 1497 
Q 3034 2003 2786 2293 
Q 2538 2584 2113 2584 
z
M 3366 4563 
L 3366 3988 
Q 3128 4100 2886 4159 
Q 2644 4219 2406 4219 
Q 1781 4219 1451 3797 
Q 1122 3375 1075 2522 
Q 1259 2794 1537 2939 
Q 1816 3084 2150 3084 
Q 2853 3084 3261 2657 
Q 3669 2231 3669 1497 
Q 3669 778 3244 343 
Q 2819 -91 2113 -91 
Q 1303 -91 875 529 
Q 447 1150 447 2328 
Q 447 3434 972 4092 
Q 1497 4750 2381 4750 
Q 2619 4750 2861 4703 
Q 3103 4656 3366 4563 
z
" transform="scale(0.015625)"/>
       </defs>
       <use xlink:href="#DejaVuSans-32"/>
       <use xlink:href="#DejaVuSans-39" x="63.623047"/>
       <use xlink:href="#DejaVuSans-2e" x="127.246094"/>
       <use xlink:href="#DejaVuSans-30" x="159.033203"/>
       <use xlink:href="#DejaVuSans-36" x="222.65625"/>
       <use xlink:href="#DejaVuSans-2e" x="286.279297"/>
       <use xlink:href="#DejaVuSans-32" x="318.066406"/>
       <use xlink:href="#DejaVuSans-30" x="381.689453"/>
       <use xlink:href="#DejaVuSans-32" x="445.3125"/>
       <use xlink:href="#DejaVuSans-31" x="508.935547"/>
      </g>
     </g>
    </g>
    <g id="xtick_8">
     <g id="line2d_15">
      <path d="M 312.314182 276.48 
L 312.314182 41.472 
" clip-path="url(#pfe86564e60)" style="fill: none; stroke-dasharray: 2.96,1.28; stroke-dashoffset: 0; stroke: #808080; stroke-width: 0.8"/>
     </g>
     <g id="line2d_16">
      <g>
       <use xlink:href="#m68b404fca9" x="312.314182" y="276.48" style="stroke: #000000; stroke-width: 0.8"/>
      </g>
     </g>
     <g id="text_8">
      <!-- 23.09.2021 -->
      <g transform="translate(261.688971 318.688565)rotate(-30)scale(0.1 -0.1)">
       <use xlink:href="#DejaVuSans-32"/>
       <use xlink:href="#DejaVuSans-33" x="63.623047"/>
       <use xlink:href="#DejaVuSans-2e" x="127.246094"/>
       <use xlink:href="#DejaVuSans-30" x="159.033203"/>
       <use xlink:href="#DejaVuSans-39" x="222.65625"/>
       <use xlink:href="#DejaVuSans-2e" x="286.279297"/>
       <use xlink:href="#DejaVuSans-32" x="318.066406"/>
       <use xlink:href="#DejaVuSans-30" x="381.689453"/>
       <use xlink:href="#DejaVuSans-32" x="445.3125"/>
       <use xlink:href="#DejaVuSans-31" x="508.935547"/>
      </g>
     </g>
    </g>
    <g id="xtick_9">
     <g id="line2d_17">
      <path d="M 348.340364 276.48 
L 348.340364 41.472 
" clip-path="url(#pfe86564e60)" style="fill: none; stroke-dasharray: 2.96,1.28; stroke-dashoffset: 0; stroke: #808080; stroke-width: 0.8"/>
     </g>
     <g id="line2d_18">
      <g>
       <use xlink:href="#m68b404fca9" x="348.340364" y="276.48" style="stroke: #000000; stroke-width: 0.8"/>
      </g>
     </g>
     <g id="text_9">
      <!-- 18.12.2021 -->
      <g transform="translate(297.715153 318.688565)rotate(-30)scale(0.1 -0.1)">
       <use xlink:href="#DejaVuSans-31"/>
       <use xlink:href="#DejaVuSans-38" x="63.623047"/>
       <use xlink:href="#DejaVuSans-2e" x="127.246094"/>
       <use xlink:href="#DejaVuSans-31" x="159.033203"/>
       <use xlink:href="#DejaVuSans-32" x="222.65625"/>
       <use xlink:href="#DejaVuSans-2e" x="286.279297"/>
       <use xlink:href="#DejaVuSans-32" x="318.066406"/>
       <use xlink:href="#DejaVuSans-30" x="381.689453"/>
       <use xlink:href="#DejaVuSans-32" x="445.3125"/>
       <use xlink:href="#DejaVuSans-31" x="508.935547"/>
      </g>
     </g>
    </g>
    <g id="xtick_10">
     <g id="line2d_19">
      <path d="M 384.366545 276.48 
L 384.366545 41.472 
" clip-path="url(#pfe86564e60)" style="fill: none; stroke-dasharray: 2.96,1.28; stroke-dashoffset: 0; stroke: #808080; stroke-width: 0.8"/>
     </g>
     <g id="line2d_20">
      <g>
       <use xlink:href="#m68b404fca9" x="384.366545" y="276.48" style="stroke: #000000; stroke-width: 0.8"/>
      </g>
     </g>
     <g id="text_10">
      <!-- 14.03.2022 -->
      <g transform="translate(333.741335 318.688565)rotate(-30)scale(0.1 -0.1)">
       <use xlink:href="#DejaVuSans-31"/>
       <use xlink:href="#DejaVuSans-34" x="63.623047"/>
       <use xlink:href="#DejaVuSans-2e" x="127.246094"/>
       <use xlink:href="#DejaVuSans-30" x="159.033203"/>
       <use xlink:href="#DejaVuSans-33" x="222.65625"/>
       <use xlink:href="#DejaVuSans-2e" x="286.279297"/>
       <use xlink:href="#DejaVuSans-32" x="318.066406"/>
       <use xlink:href="#DejaVuSans-30" x="381.689453"/>
       <use xlink:href="#DejaVuSans-32" x="445.3125"/>
       <use xlink:href="#DejaVuSans-32" x="508.935547"/>
      </g>
     </g>
    </g>
   </g>
   <g id="matplotlib.axis_2">
    <g id="ytick_1">
     <g id="line2d_21">
      <path d="M 57.6 265.346957 
L 414.72 265.346957 
" clip-path="url(#pfe86564e60)" style="fill: none; stroke-dasharray: 2.96,1.28; stroke-dashoffset: 0; stroke: #808080; stroke-width: 0.8"/>
     </g>
     <g id="line2d_22">
      <defs>
       <path id="m0cc514ffe3" d="M 0 0 
L -3.5 0 
" style="stroke: #000000; stroke-width: 0.8"/>
      </defs>
      <g>
       <use xlink:href="#m0cc514ffe3" x="57.6" y="265.346957" style="stroke: #000000; stroke-width: 0.8"/>
      </g>
     </g>
     <g id="text_11">
      <!-- 0 -->
      <g transform="translate(44.2375 269.146176)scale(0.1 -0.1)">
       <use xlink:href="#DejaVuSans-30"/>
      </g>
     </g>
    </g>
    <g id="ytick_2">
     <g id="line2d_23">
      <path d="M 57.6 223.391134 
L 414.72 223.391134 
" clip-path="url(#pfe86564e60)" style="fill: none; stroke-dasharray: 2.96,1.28; stroke-dashoffset: 0; stroke: #808080; stroke-width: 0.8"/>
     </g>
     <g id="line2d_24">
      <g>
       <use xlink:href="#m0cc514ffe3" x="57.6" y="223.391134" style="stroke: #000000; stroke-width: 0.8"/>
      </g>
     </g>
     <g id="text_12">
      <!-- 500 -->
      <g transform="translate(31.5125 227.190353)scale(0.1 -0.1)">
       <use xlink:href="#DejaVuSans-35"/>
       <use xlink:href="#DejaVuSans-30" x="63.623047"/>
       <use xlink:href="#DejaVuSans-30" x="127.246094"/>
      </g>
     </g>
    </g>
    <g id="ytick_3">
     <g id="line2d_25">
      <path d="M 57.6 181.435311 
L 414.72 181.435311 
" clip-path="url(#pfe86564e60)" style="fill: none; stroke-dasharray: 2.96,1.28; stroke-dashoffset: 0; stroke: #808080; stroke-width: 0.8"/>
     </g>
     <g id="line2d_26">
      <g>
       <use xlink:href="#m0cc514ffe3" x="57.6" y="181.435311" style="stroke: #000000; stroke-width: 0.8"/>
      </g>
     </g>
     <g id="text_13">
      <!-- 1000 -->
      <g transform="translate(25.15 185.23453)scale(0.1 -0.1)">
       <use xlink:href="#DejaVuSans-31"/>
       <use xlink:href="#DejaVuSans-30" x="63.623047"/>
       <use xlink:href="#DejaVuSans-30" x="127.246094"/>
       <use xlink:href="#DejaVuSans-30" x="190.869141"/>
      </g>
     </g>
    </g>
    <g id="ytick_4">
     <g id="line2d_27">
      <path d="M 57.6 139.479488 
L 414.72 139.479488 
" clip-path="url(#pfe86564e60)" style="fill: none; stroke-dasharray: 2.96,1.28; stroke-dashoffset: 0; stroke: #808080; stroke-width: 0.8"/>
     </g>
     <g id="line2d_28">
      <g>
       <use xlink:href="#m0cc514ffe3" x="57.6" y="139.479488" style="stroke: #000000; stroke-width: 0.8"/>
      </g>
     </g>
     <g id="text_14">
      <!-- 1500 -->
      <g transform="translate(25.15 143.278707)scale(0.1 -0.1)">
       <use xlink:href="#DejaVuSans-31"/>
       <use xlink:href="#DejaVuSans-35" x="63.623047"/>
       <use xlink:href="#DejaVuSans-30" x="127.246094"/>
       <use xlink:href="#DejaVuSans-30" x="190.869141"/>
      </g>
     </g>
    </g>
    <g id="ytick_5">
     <g id="line2d_29">
      <path d="M 57.6 97.523666 
L 414.72 97.523666 
" clip-path="url(#pfe86564e60)" style="fill: none; stroke-dasharray: 2.96,1.28; stroke-dashoffset: 0; stroke: #808080; stroke-width: 0.8"/>
     </g>
     <g id="line2d_30">
      <g>
       <use xlink:href="#m0cc514ffe3" x="57.6" y="97.523666" style="stroke: #000000; stroke-width: 0.8"/>
      </g>
     </g>
     <g id="text_15">
      <!-- 2000 -->
      <g transform="translate(25.15 101.322884)scale(0.1 -0.1)">
       <use xlink:href="#DejaVuSans-32"/>
       <use xlink:href="#DejaVuSans-30" x="63.623047"/>
       <use xlink:href="#DejaVuSans-30" x="127.246094"/>
       <use xlink:href="#DejaVuSans-30" x="190.869141"/>
      </g>
     </g>
    </g>
    <g id="ytick_6">
     <g id="line2d_31">
      <path d="M 57.6 55.567843 
L 414.72 55.567843 
" clip-path="url(#pfe86564e60)" style="fill: none; stroke-dasharray: 2.96,1.28; stroke-dashoffset: 0; stroke: #808080; stroke-width: 0.8"/>
     </g>
     <g id="line2d_32">
      <g>
       <use xlink:href="#m0cc514ffe3" x="57.6" y="55.567843" style="stroke: #000000; stroke-width: 0.8"/>
      </g>
     </g>
     <g id="text_16">
      <!-- 2500 -->
      <g transform="translate(25.15 59.367061)scale(0.1 -0.1)">
       <use xlink:href="#DejaVuSans-32"/>
       <use xlink:href="#DejaVuSans-35" x="63.623047"/>
       <use xlink:href="#DejaVuSans-30" x="127.246094"/>
       <use xlink:href="#DejaVuSans-30" x="190.869141"/>
      </g>
     </g>
    </g>
    <g id="text_17">
     <!-- Inzidenz pro 7 Tage pro 100.000 Einwohner -->
     <g transform="translate(19.070312 267.301)rotate(-90)scale(0.1 -0.1)">
      <defs>
       <path id="DejaVuSans-49" d="M 628 4666 
L 1259 4666 
L 1259 0 
L 628 0 
L 628 4666 
z
" transform="scale(0.015625)"/>
       <path id="DejaVuSans-6e" d="M 3513 2113 
L 3513 0 
L 2938 0 
L 2938 2094 
Q 2938 2591 2744 2837 
Q 2550 3084 2163 3084 
Q 1697 3084 1428 2787 
Q 1159 2491 1159 1978 
L 1159 0 
L 581 0 
L 581 3500 
L 1159 3500 
L 1159 2956 
Q 1366 3272 1645 3428 
Q 1925 3584 2291 3584 
Q 2894 3584 3203 3211 
Q 3513 2838 3513 2113 
z
" transform="scale(0.015625)"/>
       <path id="DejaVuSans-7a" d="M 353 3500 
L 3084 3500 
L 3084 2975 
L 922 459 
L 3084 459 
L 3084 0 
L 275 0 
L 275 525 
L 2438 3041 
L 353 3041 
L 353 3500 
z
" transform="scale(0.015625)"/>
       <path id="DejaVuSans-69" d="M 603 3500 
L 1178 3500 
L 1178 0 
L 603 0 
L 603 3500 
z
M 603 4863 
L 1178 4863 
L 1178 4134 
L 603 4134 
L 603 4863 
z
" transform="scale(0.015625)"/>
       <path id="DejaVuSans-64" d="M 2906 2969 
L 2906 4863 
L 3481 4863 
L 3481 0 
L 2906 0 
L 2906 525 
Q 2725 213 2448 61 
Q 2172 -91 1784 -91 
Q 1150 -91 751 415 
Q 353 922 353 1747 
Q 353 2572 751 3078 
Q 1150 3584 1784 3584 
Q 2172 3584 2448 3432 
Q 2725 3281 2906 2969 
z
M 947 1747 
Q 947 1113 1208 752 
Q 1469 391 1925 391 
Q 2381 391 2643 752 
Q 2906 1113 2906 1747 
Q 2906 2381 2643 2742 
Q 2381 3103 1925 3103 
Q 1469 3103 1208 2742 
Q 947 2381 947 1747 
z
" transform="scale(0.015625)"/>
       <path id="DejaVuSans-65" d="M 3597 1894 
L 3597 1613 
L 953 1613 
Q 991 1019 1311 708 
Q 1631 397 2203 397 
Q 2534 397 2845 478 
Q 3156 559 3463 722 
L 3463 178 
Q 3153 47 2828 -22 
Q 2503 -91 2169 -91 
Q 1331 -91 842 396 
Q 353 884 353 1716 
Q 353 2575 817 3079 
Q 1281 3584 2069 3584 
Q 2775 3584 3186 3129 
Q 3597 2675 3597 1894 
z
M 3022 2063 
Q 3016 2534 2758 2815 
Q 2500 3097 2075 3097 
Q 1594 3097 1305 2825 
Q 1016 2553 972 2059 
L 3022 2063 
z
" transform="scale(0.015625)"/>
       <path id="DejaVuSans-20" transform="scale(0.015625)"/>
       <path id="DejaVuSans-70" d="M 1159 525 
L 1159 -1331 
L 581 -1331 
L 581 3500 
L 1159 3500 
L 1159 2969 
Q 1341 3281 1617 3432 
Q 1894 3584 2278 3584 
Q 2916 3584 3314 3078 
Q 3713 2572 3713 1747 
Q 3713 922 3314 415 
Q 2916 -91 2278 -91 
Q 1894 -91 1617 61 
Q 1341 213 1159 525 
z
M 3116 1747 
Q 3116 2381 2855 2742 
Q 2594 3103 2138 3103 
Q 1681 3103 1420 2742 
Q 1159 2381 1159 1747 
Q 1159 1113 1420 752 
Q 1681 391 2138 391 
Q 2594 391 2855 752 
Q 3116 1113 3116 1747 
z
" transform="scale(0.015625)"/>
       <path id="DejaVuSans-72" d="M 2631 2963 
Q 2534 3019 2420 3045 
Q 2306 3072 2169 3072 
Q 1681 3072 1420 2755 
Q 1159 2438 1159 1844 
L 1159 0 
L 581 0 
L 581 3500 
L 1159 3500 
L 1159 2956 
Q 1341 3275 1631 3429 
Q 1922 3584 2338 3584 
Q 2397 3584 2469 3576 
Q 2541 3569 2628 3553 
L 2631 2963 
z
" transform="scale(0.015625)"/>
       <path id="DejaVuSans-6f" d="M 1959 3097 
Q 1497 3097 1228 2736 
Q 959 2375 959 1747 
Q 959 1119 1226 758 
Q 1494 397 1959 397 
Q 2419 397 2687 759 
Q 2956 1122 2956 1747 
Q 2956 2369 2687 2733 
Q 2419 3097 1959 3097 
z
M 1959 3584 
Q 2709 3584 3137 3096 
Q 3566 2609 3566 1747 
Q 3566 888 3137 398 
Q 2709 -91 1959 -91 
Q 1206 -91 779 398 
Q 353 888 353 1747 
Q 353 2609 779 3096 
Q 1206 3584 1959 3584 
z
" transform="scale(0.015625)"/>
       <path id="DejaVuSans-54" d="M -19 4666 
L 3928 4666 
L 3928 4134 
L 2272 4134 
L 2272 0 
L 1638 0 
L 1638 4134 
L -19 4134 
L -19 4666 
z
" transform="scale(0.015625)"/>
       <path id="DejaVuSans-61" d="M 2194 1759 
Q 1497 1759 1228 1600 
Q 959 1441 959 1056 
Q 959 750 1161 570 
Q 1363 391 1709 391 
Q 2188 391 2477 730 
Q 2766 1069 2766 1631 
L 2766 1759 
L 2194 1759 
z
M 3341 1997 
L 3341 0 
L 2766 0 
L 2766 531 
Q 2569 213 2275 61 
Q 1981 -91 1556 -91 
Q 1019 -91 701 211 
Q 384 513 384 1019 
Q 384 1609 779 1909 
Q 1175 2209 1959 2209 
L 2766 2209 
L 2766 2266 
Q 2766 2663 2505 2880 
Q 2244 3097 1772 3097 
Q 1472 3097 1187 3025 
Q 903 2953 641 2809 
L 641 3341 
Q 956 3463 1253 3523 
Q 1550 3584 1831 3584 
Q 2591 3584 2966 3190 
Q 3341 2797 3341 1997 
z
" transform="scale(0.015625)"/>
       <path id="DejaVuSans-67" d="M 2906 1791 
Q 2906 2416 2648 2759 
Q 2391 3103 1925 3103 
Q 1463 3103 1205 2759 
Q 947 2416 947 1791 
Q 947 1169 1205 825 
Q 1463 481 1925 481 
Q 2391 481 2648 825 
Q 2906 1169 2906 1791 
z
M 3481 434 
Q 3481 -459 3084 -895 
Q 2688 -1331 1869 -1331 
Q 1566 -1331 1297 -1286 
Q 1028 -1241 775 -1147 
L 775 -588 
Q 1028 -725 1275 -790 
Q 1522 -856 1778 -856 
Q 2344 -856 2625 -561 
Q 2906 -266 2906 331 
L 2906 616 
Q 2728 306 2450 153 
Q 2172 0 1784 0 
Q 1141 0 747 490 
Q 353 981 353 1791 
Q 353 2603 747 3093 
Q 1141 3584 1784 3584 
Q 2172 3584 2450 3431 
Q 2728 3278 2906 2969 
L 2906 3500 
L 3481 3500 
L 3481 434 
z
" transform="scale(0.015625)"/>
       <path id="DejaVuSans-45" d="M 628 4666 
L 3578 4666 
L 3578 4134 
L 1259 4134 
L 1259 2753 
L 3481 2753 
L 3481 2222 
L 1259 2222 
L 1259 531 
L 3634 531 
L 3634 0 
L 628 0 
L 628 4666 
z
" transform="scale(0.015625)"/>
       <path id="DejaVuSans-77" d="M 269 3500 
L 844 3500 
L 1563 769 
L 2278 3500 
L 2956 3500 
L 3675 769 
L 4391 3500 
L 4966 3500 
L 4050 0 
L 3372 0 
L 2619 2869 
L 1863 0 
L 1184 0 
L 269 3500 
z
" transform="scale(0.015625)"/>
       <path id="DejaVuSans-68" d="M 3513 2113 
L 3513 0 
L 2938 0 
L 2938 2094 
Q 2938 2591 2744 2837 
Q 2550 3084 2163 3084 
Q 1697 3084 1428 2787 
Q 1159 2491 1159 1978 
L 1159 0 
L 581 0 
L 581 4863 
L 1159 4863 
L 1159 2956 
Q 1366 3272 1645 3428 
Q 1925 3584 2291 3584 
Q 2894 3584 3203 3211 
Q 3513 2838 3513 2113 
z
" transform="scale(0.015625)"/>
      </defs>
      <use xlink:href="#DejaVuSans-49"/>
      <use xlink:href="#DejaVuSans-6e" x="29.492188"/>
      <use xlink:href="#DejaVuSans-7a" x="92.871094"/>
      <use xlink:href="#DejaVuSans-69" x="145.361328"/>
      <use xlink:href="#DejaVuSans-64" x="173.144531"/>
      <use xlink:href="#DejaVuSans-65" x="236.621094"/>
      <use xlink:href="#DejaVuSans-6e" x="298.144531"/>
      <use xlink:href="#DejaVuSans-7a" x="361.523438"/>
      <use xlink:href="#DejaVuSans-20" x="414.013672"/>
      <use xlink:href="#DejaVuSans-70" x="445.800781"/>
      <use xlink:href="#DejaVuSans-72" x="509.277344"/>
      <use xlink:href="#DejaVuSans-6f" x="548.140625"/>
      <use xlink:href="#DejaVuSans-20" x="609.322266"/>
      <use xlink:href="#DejaVuSans-37" x="641.109375"/>
      <use xlink:href="#DejaVuSans-20" x="704.732422"/>
      <use xlink:href="#DejaVuSans-54" x="736.519531"/>
      <use xlink:href="#DejaVuSans-61" x="781.103516"/>
      <use xlink:href="#DejaVuSans-67" x="842.382812"/>
      <use xlink:href="#DejaVuSans-65" x="905.859375"/>
      <use xlink:href="#DejaVuSans-20" x="967.382812"/>
      <use xlink:href="#DejaVuSans-70" x="999.169922"/>
      <use xlink:href="#DejaVuSans-72" x="1062.646484"/>
      <use xlink:href="#DejaVuSans-6f" x="1101.509766"/>
      <use xlink:href="#DejaVuSans-20" x="1162.691406"/>
      <use xlink:href="#DejaVuSans-31" x="1194.478516"/>
      <use xlink:href="#DejaVuSans-30" x="1258.101562"/>
      <use xlink:href="#DejaVuSans-30" x="1321.724609"/>
      <use xlink:href="#DejaVuSans-2e" x="1385.347656"/>
      <use xlink:href="#DejaVuSans-30" x="1417.134766"/>
      <use xlink:href="#DejaVuSans-30" x="1480.757812"/>
      <use xlink:href="#DejaVuSans-30" x="1544.380859"/>
      <use xlink:href="#DejaVuSans-20" x="1608.003906"/>
      <use xlink:href="#DejaVuSans-45" x="1639.791016"/>
      <use xlink:href="#DejaVuSans-69" x="1702.974609"/>
      <use xlink:href="#DejaVuSans-6e" x="1730.757812"/>
      <use xlink:href="#DejaVuSans-77" x="1794.136719"/>
      <use xlink:href="#DejaVuSans-6f" x="1875.923828"/>
      <use xlink:href="#DejaVuSans-68" x="1937.105469"/>
      <use xlink:href="#DejaVuSans-6e" x="2000.484375"/>
      <use xlink:href="#DejaVuSans-65" x="2063.863281"/>
      <use xlink:href="#DejaVuSans-72" x="2125.386719"/>
     </g>
    </g>
   </g>
   <g id="line2d_33">
    <path d="M 73.832727 265.346957 
L 79.278545 265.282549 
L 83.886545 264.509644 
L 84.305455 264.316418 
L 84.724364 264.380827 
L 85.143273 264.316418 
L 85.562182 264.509644 
L 86.4 264.316418 
L 87.656727 264.638462 
L 88.913455 264.123192 
L 89.332364 264.316418 
L 89.751273 264.123192 
L 90.589091 264.058783 
L 91.426909 264.574053 
L 92.264727 264.638462 
L 92.683636 264.638462 
L 93.102545 264.380827 
L 93.521455 264.380827 
L 93.940364 264.25201 
L 94.359273 264.25201 
L 94.778182 264.509644 
L 95.197091 264.445236 
L 96.034909 264.767279 
L 96.453818 264.574053 
L 96.872727 264.70287 
L 97.291636 264.445236 
L 97.710545 263.994375 
L 98.129455 263.994375 
L 98.548364 263.73674 
L 99.386182 263.929966 
L 99.805091 263.73674 
L 100.224 263.994375 
L 100.642909 263.929966 
L 101.061818 263.73674 
L 101.480727 263.929966 
L 101.899636 263.865557 
L 102.318545 263.672331 
L 102.737455 263.801149 
L 103.156364 263.801149 
L 103.575273 263.929966 
L 103.994182 264.187601 
L 104.832 264.187601 
L 105.250909 264.574053 
L 105.669818 264.638462 
L 106.088727 264.509644 
L 106.507636 264.638462 
L 106.926545 264.380827 
L 107.764364 264.445236 
L 108.602182 264.380827 
L 109.44 264.70287 
L 109.858909 264.960505 
L 111.534545 265.153731 
L 113.210182 265.21814 
L 114.048 265.282549 
L 114.885818 265.21814 
L 116.142545 265.089323 
L 118.237091 265.153731 
L 118.656 264.960505 
L 119.074909 264.896096 
L 119.912727 264.445236 
L 120.750545 264.380827 
L 121.169455 264.25201 
L 121.588364 264.445236 
L 122.426182 264.25201 
L 122.845091 264.380827 
L 123.682909 264.380827 
L 124.101818 264.574053 
L 124.520727 264.058783 
L 124.939636 264.058783 
L 125.358545 264.380827 
L 126.196364 264.187601 
L 126.615273 264.25201 
L 127.034182 264.123192 
L 127.453091 264.638462 
L 127.872 264.70287 
L 128.290909 264.638462 
L 128.709818 264.831688 
L 129.128727 264.896096 
L 129.547636 264.638462 
L 129.966545 264.638462 
L 130.804364 264.380827 
L 132.061091 264.380827 
L 132.48 264.574053 
L 132.898909 264.445236 
L 133.736727 264.638462 
L 134.155636 264.638462 
L 134.574545 264.380827 
L 135.412364 264.445236 
L 135.831273 263.73674 
L 136.669091 263.479105 
L 137.088 262.319749 
L 137.925818 262.384157 
L 138.344727 261.997705 
L 138.763636 262.77061 
L 139.601455 262.963836 
L 140.020364 264.123192 
L 140.439273 263.543514 
L 140.858182 263.479105 
L 141.277091 263.543514 
L 141.696 263.479105 
L 142.952727 262.835018 
L 143.371636 262.963836 
L 144.209455 262.641792 
L 144.628364 262.641792 
L 145.047273 261.675662 
L 145.466182 261.031575 
L 145.885091 260.645123 
L 146.304 260.77394 
L 146.722909 260.580714 
L 147.141818 260.709531 
L 147.560727 260.451897 
L 148.398545 262.126523 
L 149.236364 263.22147 
L 150.493091 264.058783 
L 150.912 264.445236 
L 151.749818 263.994375 
L 152.168727 263.865557 
L 152.587636 263.994375 
L 153.844364 263.73674 
L 154.263273 264.058783 
L 154.682182 263.865557 
L 155.101091 263.994375 
L 155.938909 263.865557 
L 156.357818 263.929966 
L 156.776727 263.607923 
L 157.195636 263.672331 
L 157.614545 263.929966 
L 158.452364 264.123192 
L 158.871273 264.380827 
L 159.290182 264.187601 
L 159.709091 264.123192 
L 160.546909 263.607923 
L 160.965818 262.77061 
L 161.384727 262.706201 
L 161.803636 262.512975 
L 162.222545 262.448566 
L 162.641455 262.641792 
L 163.060364 262.448566 
L 163.479273 261.868888 
L 163.898182 262.319749 
L 164.317091 261.997705 
L 164.736 261.031575 
L 165.154909 260.645123 
L 165.573818 259.614584 
L 165.992727 259.421358 
L 166.411636 259.356949 
L 166.830545 258.584045 
L 167.668364 259.163723 
L 168.087273 258.068775 
L 168.506182 257.617914 
L 168.925091 256.200923 
L 169.344 255.428019 
L 169.762909 255.621245 
L 170.600727 254.590706 
L 171.019636 254.461888 
L 171.438545 254.526297 
L 172.276364 252.529627 
L 172.695273 250.146506 
L 173.114182 249.888871 
L 173.533091 248.085427 
L 173.952 247.570158 
L 174.370909 244.414132 
L 174.789818 243.576819 
L 175.208727 243.254775 
L 175.627636 244.02768 
L 176.046545 242.932732 
L 176.465455 243.705636 
L 176.884364 242.803915 
L 177.303273 243.448002 
L 177.722182 245.637897 
L 178.56 241.773376 
L 178.978909 241.708967 
L 179.397818 238.939393 
L 179.816727 238.166489 
L 180.235636 238.230897 
L 180.654545 234.946054 
L 181.073455 235.332506 
L 181.492364 239.519071 
L 181.911273 235.461324 
L 182.330182 237.200358 
L 182.749091 237.200358 
L 183.168 237.393584 
L 183.586909 237.908854 
L 184.005818 237.007132 
L 184.424727 233.65788 
L 184.843636 239.06821 
L 185.681455 241.322515 
L 186.100364 242.159828 
L 186.938182 243.190367 
L 187.357091 244.092088 
L 187.776 243.51241 
L 188.194909 241.902193 
L 188.613818 239.647889 
L 189.032727 238.037671 
L 189.870545 239.519071 
L 190.289455 239.261436 
L 190.708364 240.163158 
L 191.127273 241.837784 
L 191.546182 242.675097 
L 191.965091 242.54628 
L 192.384 242.224236 
L 192.802909 244.349723 
L 193.221818 244.800584 
L 193.640727 243.963271 
L 194.059636 244.220906 
L 194.478545 245.444671 
L 195.316364 246.668436 
L 195.735273 244.800584 
L 196.154182 244.864993 
L 196.573091 245.251445 
L 196.992 245.251445 
L 197.410909 243.963271 
L 197.829818 243.061549 
L 198.248727 244.156497 
L 198.667636 247.441341 
L 199.086545 249.760053 
L 199.505455 249.502419 
L 199.924364 251.048227 
L 200.343273 251.499088 
L 200.762182 252.851671 
L 201.181091 252.916079 
L 201.6 252.851671 
L 202.018909 253.044897 
L 202.437818 252.851671 
L 202.856727 251.43468 
L 203.275636 251.627906 
L 204.113455 253.109306 
L 204.532364 249.888871 
L 204.951273 248.407471 
L 205.370182 249.244784 
L 205.789091 249.631236 
L 206.208 250.661775 
L 206.626909 250.91941 
L 207.883636 249.244784 
L 208.302545 249.373601 
L 208.721455 249.309193 
L 209.140364 249.760053 
L 209.559273 250.661775 
L 209.978182 251.177045 
L 210.397091 253.495758 
L 210.816 254.977158 
L 211.234909 254.783932 
L 212.491636 257.746731 
L 212.910545 257.617914 
L 213.329455 258.648453 
L 213.748364 258.777271 
L 214.167273 259.034905 
L 214.586182 258.841679 
L 215.005091 258.970497 
L 215.424 258.970497 
L 215.842909 259.872218 
L 216.261818 259.936627 
L 216.680727 260.129853 
L 217.099636 259.936627 
L 217.518545 260.258671 
L 217.937455 260.323079 
L 218.356364 260.194262 
L 219.194182 259.228131 
L 219.613091 259.356949 
L 220.032 259.034905 
L 220.450909 258.970497 
L 220.869818 259.29254 
L 221.288727 259.163723 
L 222.126545 259.743401 
L 222.545455 259.356949 
L 222.964364 259.872218 
L 223.383273 259.678992 
L 223.802182 258.712862 
L 224.221091 258.648453 
L 224.64 258.390818 
L 225.058909 257.617914 
L 225.477818 257.167053 
L 226.315636 257.295871 
L 226.734545 256.780601 
L 227.991273 255.750062 
L 228.410182 255.878879 
L 229.248 255.556836 
L 229.666909 254.204253 
L 230.085818 253.624575 
L 230.504727 252.787262 
L 231.342545 249.888871 
L 231.761455 249.760053 
L 232.180364 249.43801 
L 232.599273 250.468549 
L 233.437091 248.085427 
L 233.856 248.729514 
L 234.693818 248.149836 
L 235.112727 248.021019 
L 235.531636 247.054888 
L 235.950545 247.248114 
L 236.369455 246.217575 
L 236.788364 245.573488 
L 237.207273 244.349723 
L 237.626182 244.607358 
L 238.045091 241.902193 
L 238.464 241.515741 
L 238.882909 240.485202 
L 239.301818 239.969932 
L 239.720727 239.905523 
L 240.139636 241.837784 
L 240.558545 240.871654 
L 240.977455 242.739506 
L 241.396364 245.187036 
L 241.815273 244.349723 
L 242.234182 245.702306 
L 242.653091 245.895532 
L 243.072 244.285315 
L 243.909818 244.929401 
L 244.328727 241.129289 
L 244.747636 242.417462 
L 245.166545 241.902193 
L 245.585455 241.708967 
L 246.004364 241.708967 
L 246.842182 239.390254 
L 247.261091 238.424123 
L 247.68 237.908854 
L 248.098909 238.359715 
L 248.517818 238.037671 
L 248.936727 239.003802 
L 249.355636 238.359715 
L 249.774545 238.166489 
L 250.193455 240.291976 
L 250.612364 240.871654 
L 251.031273 240.356384 
L 251.450182 240.871654 
L 251.869091 240.098749 
L 252.288 242.353054 
L 252.706909 243.319184 
L 253.125818 242.675097 
L 253.544727 243.319184 
L 253.963636 244.671767 
L 254.382545 245.637897 
L 254.801455 246.99048 
L 255.220364 247.376932 
L 255.639273 247.95661 
L 257.314909 255.299201 
L 257.733818 255.685653 
L 258.152727 255.878879 
L 258.990545 257.360279 
L 259.409455 257.167053 
L 259.828364 256.32974 
L 260.247273 256.007697 
L 260.666182 256.458558 
L 261.085091 256.394149 
L 261.504 256.909418 
L 261.922909 258.970497 
L 262.341818 257.81114 
L 262.760727 257.231462 
L 263.179636 258.584045 
L 264.017455 259.099314 
L 264.436364 258.906088 
L 264.855273 258.455227 
L 265.274182 260.451897 
L 266.530909 262.062114 
L 266.949818 261.997705 
L 267.368727 262.190931 
L 267.787636 262.706201 
L 268.206545 262.577384 
L 268.625455 263.479105 
L 269.044364 263.350288 
L 269.463273 263.543514 
L 270.301091 263.350288 
L 270.72 263.543514 
L 271.138909 263.994375 
L 271.557818 264.25201 
L 272.395636 264.316418 
L 273.233455 264.638462 
L 274.071273 264.831688 
L 274.490182 264.70287 
L 276.165818 264.638462 
L 276.584727 265.797818 
L 277.003636 264.896096 
L 277.422545 264.960505 
L 277.841455 265.604592 
L 278.260364 265.346957 
L 279.098182 265.346957 
L 279.517091 264.058783 
L 279.936 264.831688 
L 280.354909 264.896096 
L 280.773818 264.25201 
L 281.192727 264.445236 
L 281.611636 264.380827 
L 282.449455 264.574053 
L 282.868364 264.509644 
L 283.287273 263.73674 
L 283.706182 263.865557 
L 284.125091 263.73674 
L 284.544 263.801149 
L 284.962909 263.607923 
L 285.381818 264.25201 
L 285.800727 263.672331 
L 286.219636 263.994375 
L 286.638545 263.929966 
L 287.057455 263.994375 
L 287.476364 263.801149 
L 287.895273 263.350288 
L 288.314182 262.577384 
L 288.733091 263.22147 
L 289.152 263.543514 
L 289.989818 263.414697 
L 290.408727 263.543514 
L 290.827636 264.058783 
L 291.246545 263.414697 
L 291.665455 263.350288 
L 292.503273 262.963836 
L 292.922182 262.899427 
L 293.76 262.384157 
L 294.597818 260.065444 
L 295.016727 259.356949 
L 295.435636 258.906088 
L 295.854545 258.262001 
L 296.273455 258.519636 
L 296.692364 257.81114 
L 297.111273 258.133184 
L 297.949091 258.068775 
L 298.368 256.973827 
L 298.786909 257.231462 
L 299.624727 256.780601 
L 300.043636 256.32974 
L 300.462545 255.556836 
L 300.881455 254.333071 
L 301.300364 254.655114 
L 301.719273 254.204253 
L 302.138182 254.075436 
L 302.976 251.048227 
L 303.394909 248.278654 
L 303.813818 248.47188 
L 304.651636 243.51241 
L 305.070545 243.448002 
L 306.327273 244.542949 
L 306.746182 243.576819 
L 307.165091 244.349723 
L 307.584 246.732845 
L 308.002909 245.895532 
L 308.421818 245.573488 
L 308.840727 245.959941 
L 309.259636 247.698975 
L 309.678545 248.021019 
L 310.097455 248.600697 
L 310.516364 248.536288 
L 310.935273 249.43801 
L 311.354182 250.91941 
L 312.192 251.499088 
L 312.610909 251.88554 
L 313.029818 252.465219 
L 313.448727 252.271993 
L 313.867636 251.756723 
L 314.286545 250.468549 
L 314.705455 250.210914 
L 315.124364 250.661775 
L 315.543273 251.88554 
L 315.962182 251.627906 
L 316.8 252.336401 
L 317.218909 253.688984 
L 317.637818 253.688984 
L 318.056727 254.461888 
L 318.475636 253.495758 
L 318.894545 254.268662 
L 319.313455 254.075436 
L 319.732364 254.268662 
L 320.151273 254.977158 
L 320.570182 256.780601 
L 320.989091 256.651784 
L 321.408 257.360279 
L 321.826909 256.973827 
L 322.245818 257.424688 
L 322.664727 257.360279 
L 323.083636 256.973827 
L 323.502545 255.36361 
L 323.921455 254.590706 
L 324.340364 253.044897 
L 324.759273 253.36694 
L 325.178182 253.173714 
L 325.597091 253.238123 
L 326.434909 249.566827 
L 326.853818 248.214245 
L 327.272727 248.665106 
L 327.691636 246.797254 
L 328.110545 246.861662 
L 328.948364 246.797254 
L 329.367273 247.441341 
L 330.205091 244.736175 
L 330.624 244.414132 
L 331.042909 242.481871 
L 331.880727 241.580149 
L 332.299636 240.420793 
L 333.137455 239.969932 
L 333.556364 239.06821 
L 334.394182 236.942723 
L 334.813091 236.878315 
L 335.232 235.847776 
L 336.488727 237.651219 
L 336.907636 237.522402 
L 337.326545 237.200358 
L 338.164364 236.10541 
L 338.583273 235.13928 
L 339.002182 232.627341 
L 339.421091 231.017124 
L 339.84 233.593471 
L 340.258909 234.108741 
L 340.677818 232.562932 
L 341.096727 232.949384 
L 341.934545 235.590141 
L 342.353455 234.495193 
L 342.772364 230.308628 
L 343.191273 229.535724 
L 343.610182 227.217011 
L 344.029091 227.796689 
L 344.448 224.060985 
L 344.866909 223.28808 
L 345.285818 223.80335 
L 345.704727 227.152602 
L 346.123636 224.898298 
L 346.542545 226.444106 
L 346.961455 226.894967 
L 347.380364 229.986585 
L 348.218182 232.369706 
L 348.637091 232.112071 
L 349.474909 236.685089 
L 349.893818 237.973263 
L 350.312727 237.844445 
L 350.731636 237.200358 
L 351.150545 239.197028 
L 351.569455 239.776706 
L 351.988364 239.58348 
L 352.826182 238.037671 
L 353.664 237.13595 
L 354.082909 237.393584 
L 354.501818 239.132619 
L 354.920727 239.905523 
L 355.339636 237.007132 
L 355.758545 232.369706 
L 357.015273 221.742272 
L 357.434182 217.169255 
L 357.853091 213.94882 
L 358.272 213.562368 
L 358.690909 210.792794 
L 359.947636 198.233099 
L 360.366545 199.13482 
L 360.785455 201.002673 
L 361.204364 198.619551 
L 361.623273 197.782238 
L 362.042182 197.331377 
L 362.461091 188.700612 
L 363.298909 155.594544 
L 363.717818 149.475718 
L 364.974545 79.270242 
L 365.393455 68.836033 
L 365.812364 70.703886 
L 366.231273 81.395729 
L 366.650182 77.917659 
L 367.906909 64.713877 
L 368.325818 52.154182 
L 368.744727 57.500103 
L 369.163636 54.794938 
L 369.582545 57.242469 
L 370.001455 69.415712 
L 370.420364 77.466798 
L 370.839273 80.236372 
L 371.258182 95.694459 
L 371.677091 102.586189 
L 372.096 104.711676 
L 372.514909 105.355763 
L 372.933818 112.762762 
L 373.352727 122.681701 
L 373.771636 144.45184 
L 374.190545 152.116474 
L 374.609455 155.530135 
L 375.028364 155.530135 
L 375.447273 158.557343 
L 375.866182 172.276395 
L 376.285091 172.53403 
L 376.704 173.693386 
L 377.122909 180.198665 
L 377.541818 184.449638 
L 377.960727 183.483508 
L 378.379636 184.514047 
L 378.798545 182.452969 
L 379.217455 189.022656 
L 379.636364 193.595673 
L 380.055273 195.012664 
L 380.474182 192.693951 
L 380.893091 198.426325 
L 382.149818 189.087064 
L 382.987636 185.931038 
L 383.406545 183.097056 
L 383.825455 178.266404 
L 384.244364 175.239195 
L 384.663273 174.208656 
L 385.082182 171.05263 
L 385.501091 168.927143 
L 385.92 164.998213 
L 386.338909 163.774448 
L 386.757818 161.391326 
L 387.176727 165.577891 
L 387.595636 155.336909 
L 388.014545 156.238631 
L 388.852364 148.896039 
L 389.271273 148.187544 
L 389.690182 148.638405 
L 390.109091 147.801092 
L 390.528 157.655622 
L 390.946909 155.78777 
L 391.365818 157.075944 
L 391.784727 159.137022 
L 392.203636 163.452404 
L 392.622545 169.442413 
L 393.041455 170.150908 
L 393.460364 165.449074 
L 393.879273 173.693386 
L 394.298182 184.83609 
L 394.717091 190.375238 
L 395.136 191.727821 
L 395.554909 190.697282 
L 395.973818 187.863299 
L 396.392727 193.853308 
L 396.811636 197.782238 
L 397.230545 197.138151 
L 397.649455 200.809446 
L 398.068364 208.474081 
L 398.487273 211.630107 
L 398.487273 211.630107 
" clip-path="url(#pfe86564e60)" style="fill: none; stroke: #1f77b4; stroke-width: 1.5; stroke-linecap: square"/>
   </g>
   <g id="patch_3">
    <path d="M 57.6 276.48 
L 57.6 41.472 
" style="fill: none; stroke: #000000; stroke-width: 0.8; stroke-linejoin: miter; stroke-linecap: square"/>
   </g>
   <g id="patch_4">
    <path d="M 414.72 276.48 
L 414.72 41.472 
" style="fill: none; stroke: #000000; stroke-width: 0.8; stroke-linejoin: miter; stroke-linecap: square"/>
   </g>
   <g id="patch_5">
    <path d="M 57.6 276.48 
L 414.72 276.48 
" style="fill: none; stroke: #000000; stroke-width: 0.8; stroke-linejoin: miter; stroke-linecap: square"/>
   </g>
   <g id="patch_6">
    <path d="M 57.6 41.472 
L 414.72 41.472 
" style="fill: none; stroke: #000000; stroke-width: 0.8; stroke-linejoin: miter; stroke-linecap: square"/>
   </g>
  </g>
  <g id="text_18">
   <!-- Inzidenzverlauf SK Offenbach -->
   <g transform="translate(97.806094 20.589187)scale(0.18 -0.18)">
    <defs>
     <path id="DejaVuSans-76" d="M 191 3500 
L 800 3500 
L 1894 563 
L 2988 3500 
L 3597 3500 
L 2284 0 
L 1503 0 
L 191 3500 
z
" transform="scale(0.015625)"/>
     <path id="DejaVuSans-6c" d="M 603 4863 
L 1178 4863 
L 1178 0 
L 603 0 
L 603 4863 
z
" transform="scale(0.015625)"/>
     <path id="DejaVuSans-75" d="M 544 1381 
L 544 3500 
L 1119 3500 
L 1119 1403 
Q 1119 906 1312 657 
Q 1506 409 1894 409 
Q 2359 409 2629 706 
Q 2900 1003 2900 1516 
L 2900 3500 
L 3475 3500 
L 3475 0 
L 2900 0 
L 2900 538 
Q 2691 219 2414 64 
Q 2138 -91 1772 -91 
Q 1169 -91 856 284 
Q 544 659 544 1381 
z
M 1991 3584 
L 1991 3584 
z
" transform="scale(0.015625)"/>
     <path id="DejaVuSans-66" d="M 2375 4863 
L 2375 4384 
L 1825 4384 
Q 1516 4384 1395 4259 
Q 1275 4134 1275 3809 
L 1275 3500 
L 2222 3500 
L 2222 3053 
L 1275 3053 
L 1275 0 
L 697 0 
L 697 3053 
L 147 3053 
L 147 3500 
L 697 3500 
L 697 3744 
Q 697 4328 969 4595 
Q 1241 4863 1831 4863 
L 2375 4863 
z
" transform="scale(0.015625)"/>
     <path id="DejaVuSans-53" d="M 3425 4513 
L 3425 3897 
Q 3066 4069 2747 4153 
Q 2428 4238 2131 4238 
Q 1616 4238 1336 4038 
Q 1056 3838 1056 3469 
Q 1056 3159 1242 3001 
Q 1428 2844 1947 2747 
L 2328 2669 
Q 3034 2534 3370 2195 
Q 3706 1856 3706 1288 
Q 3706 609 3251 259 
Q 2797 -91 1919 -91 
Q 1588 -91 1214 -16 
Q 841 59 441 206 
L 441 856 
Q 825 641 1194 531 
Q 1563 422 1919 422 
Q 2459 422 2753 634 
Q 3047 847 3047 1241 
Q 3047 1584 2836 1778 
Q 2625 1972 2144 2069 
L 1759 2144 
Q 1053 2284 737 2584 
Q 422 2884 422 3419 
Q 422 4038 858 4394 
Q 1294 4750 2059 4750 
Q 2388 4750 2728 4690 
Q 3069 4631 3425 4513 
z
" transform="scale(0.015625)"/>
     <path id="DejaVuSans-4b" d="M 628 4666 
L 1259 4666 
L 1259 2694 
L 3353 4666 
L 4166 4666 
L 1850 2491 
L 4331 0 
L 3500 0 
L 1259 2247 
L 1259 0 
L 628 0 
L 628 4666 
z
" transform="scale(0.015625)"/>
     <path id="DejaVuSans-4f" d="M 2522 4238 
Q 1834 4238 1429 3725 
Q 1025 3213 1025 2328 
Q 1025 1447 1429 934 
Q 1834 422 2522 422 
Q 3209 422 3611 934 
Q 4013 1447 4013 2328 
Q 4013 3213 3611 3725 
Q 3209 4238 2522 4238 
z
M 2522 4750 
Q 3503 4750 4090 4092 
Q 4678 3434 4678 2328 
Q 4678 1225 4090 567 
Q 3503 -91 2522 -91 
Q 1538 -91 948 565 
Q 359 1222 359 2328 
Q 359 3434 948 4092 
Q 1538 4750 2522 4750 
z
" transform="scale(0.015625)"/>
     <path id="DejaVuSans-62" d="M 3116 1747 
Q 3116 2381 2855 2742 
Q 2594 3103 2138 3103 
Q 1681 3103 1420 2742 
Q 1159 2381 1159 1747 
Q 1159 1113 1420 752 
Q 1681 391 2138 391 
Q 2594 391 2855 752 
Q 3116 1113 3116 1747 
z
M 1159 2969 
Q 1341 3281 1617 3432 
Q 1894 3584 2278 3584 
Q 2916 3584 3314 3078 
Q 3713 2572 3713 1747 
Q 3713 922 3314 415 
Q 2916 -91 2278 -91 
Q 1894 -91 1617 61 
Q 1341 213 1159 525 
L 1159 0 
L 581 0 
L 581 4863 
L 1159 4863 
L 1159 2969 
z
" transform="scale(0.015625)"/>
     <path id="DejaVuSans-63" d="M 3122 3366 
L 3122 2828 
Q 2878 2963 2633 3030 
Q 2388 3097 2138 3097 
Q 1578 3097 1268 2742 
Q 959 2388 959 1747 
Q 959 1106 1268 751 
Q 1578 397 2138 397 
Q 2388 397 2633 464 
Q 2878 531 3122 666 
L 3122 134 
Q 2881 22 2623 -34 
Q 2366 -91 2075 -91 
Q 1284 -91 818 406 
Q 353 903 353 1747 
Q 353 2603 823 3093 
Q 1294 3584 2113 3584 
Q 2378 3584 2631 3529 
Q 2884 3475 3122 3366 
z
" transform="scale(0.015625)"/>
    </defs>
    <use xlink:href="#DejaVuSans-49"/>
    <use xlink:href="#DejaVuSans-6e" x="29.492188"/>
    <use xlink:href="#DejaVuSans-7a" x="92.871094"/>
    <use xlink:href="#DejaVuSans-69" x="145.361328"/>
    <use xlink:href="#DejaVuSans-64" x="173.144531"/>
    <use xlink:href="#DejaVuSans-65" x="236.621094"/>
    <use xlink:href="#DejaVuSans-6e" x="298.144531"/>
    <use xlink:href="#DejaVuSans-7a" x="361.523438"/>
    <use xlink:href="#DejaVuSans-76" x="414.013672"/>
    <use xlink:href="#DejaVuSans-65" x="473.193359"/>
    <use xlink:href="#DejaVuSans-72" x="534.716797"/>
    <use xlink:href="#DejaVuSans-6c" x="575.830078"/>
    <use xlink:href="#DejaVuSans-61" x="603.613281"/>
    <use xlink:href="#DejaVuSans-75" x="664.892578"/>
    <use xlink:href="#DejaVuSans-66" x="728.271484"/>
    <use xlink:href="#DejaVuSans-20" x="763.476562"/>
    <use xlink:href="#DejaVuSans-53" x="795.263672"/>
    <use xlink:href="#DejaVuSans-4b" x="858.740234"/>
    <use xlink:href="#DejaVuSans-20" x="924.316406"/>
    <use xlink:href="#DejaVuSans-4f" x="956.103516"/>
    <use xlink:href="#DejaVuSans-66" x="1034.814453"/>
    <use xlink:href="#DejaVuSans-66" x="1070.019531"/>
    <use xlink:href="#DejaVuSans-65" x="1105.224609"/>
    <use xlink:href="#DejaVuSans-6e" x="1166.748047"/>
    <use xlink:href="#DejaVuSans-62" x="1230.126953"/>
    <use xlink:href="#DejaVuSans-61" x="1293.603516"/>
    <use xlink:href="#DejaVuSans-63" x="1354.882812"/>
    <use xlink:href="#DejaVuSans-68" x="1409.863281"/>
   </g>
  </g>
 </g>
 <defs>
  <clipPath id="pfe86564e60">
   <rect x="57.6" y="41.472" width="357.12" height="235.008"/>
  </clipPath>
 </defs>
</svg>
