<?xml version="1.0" encoding="utf-8" standalone="no"?>
<!DOCTYPE svg PUBLIC "-//W3C//DTD SVG 1.1//EN"
  "http://www.w3.org/Graphics/SVG/1.1/DTD/svg11.dtd">
<svg xmlns:xlink="http://www.w3.org/1999/xlink" width="460.8pt" height="345.6pt" viewBox="0 0 460.8 345.6" xmlns="http://www.w3.org/2000/svg" version="1.1">
 <metadata>
  <rdf:RDF xmlns:dc="http://purl.org/dc/elements/1.1/" xmlns:cc="http://creativecommons.org/ns#" xmlns:rdf="http://www.w3.org/1999/02/22-rdf-syntax-ns#">
   <cc:Work>
    <dc:type rdf:resource="http://purl.org/dc/dcmitype/StillImage"/>
    <dc:date>2022-09-22T09:29:11.539156</dc:date>
    <dc:format>image/svg+xml</dc:format>
    <dc:creator>
     <cc:Agent>
      <dc:title>Matplotlib v3.6.0, https://matplotlib.org/</dc:title>
     </cc:Agent>
    </dc:creator>
   </cc:Work>
  </rdf:RDF>
 </metadata>
 <defs>
  <style type="text/css">*{stroke-linejoin: round; stroke-linecap: butt}</style>
 </defs>
 <g id="figure_1">
  <g id="patch_1">
   <path d="M 0 345.6 
L 460.8 345.6 
L 460.8 0 
L 0 0 
z
" style="fill: #ffffff"/>
  </g>
  <g id="axes_1">
   <g id="patch_2">
    <path d="M 57.6 276.48 
L 414.72 276.48 
L 414.72 41.472 
L 57.6 41.472 
z
" style="fill: #ffffff"/>
   </g>
   <g id="matplotlib.axis_1">
    <g id="xtick_1">
     <g id="line2d_1">
      <path d="M 58.275639 276.48 
L 58.275639 41.472 
" clip-path="url(#p4d72918201)" style="fill: none; stroke-dasharray: 2.96,1.28; stroke-dashoffset: 0; stroke: #808080; stroke-width: 0.8"/>
     </g>
     <g id="line2d_2">
      <defs>
       <path id="m9682191b87" d="M 0 0 
L 0 3.5 
" style="stroke: #000000; stroke-width: 0.8"/>
      </defs>
      <g>
       <use xlink:href="#m9682191b87" x="58.275639" y="276.48" style="stroke: #000000; stroke-width: 0.8"/>
      </g>
     </g>
     <g id="text_1">
      <!-- 18.01.2020 -->
      <g transform="translate(7.650428 318.688565) rotate(-30) scale(0.1 -0.1)">
       <defs>
        <path id="DejaVuSans-31" d="M 794 531 
L 1825 531 
L 1825 4091 
L 703 3866 
L 703 4441 
L 1819 4666 
L 2450 4666 
L 2450 531 
L 3481 531 
L 3481 0 
L 794 0 
L 794 531 
z
" transform="scale(0.015625)"/>
        <path id="DejaVuSans-38" d="M 2034 2216 
Q 1584 2216 1326 1975 
Q 1069 1734 1069 1313 
Q 1069 891 1326 650 
Q 1584 409 2034 409 
Q 2484 409 2743 651 
Q 3003 894 3003 1313 
Q 3003 1734 2745 1975 
Q 2488 2216 2034 2216 
z
M 1403 2484 
Q 997 2584 770 2862 
Q 544 3141 544 3541 
Q 544 4100 942 4425 
Q 1341 4750 2034 4750 
Q 2731 4750 3128 4425 
Q 3525 4100 3525 3541 
Q 3525 3141 3298 2862 
Q 3072 2584 2669 2484 
Q 3125 2378 3379 2068 
Q 3634 1759 3634 1313 
Q 3634 634 3220 271 
Q 2806 -91 2034 -91 
Q 1263 -91 848 271 
Q 434 634 434 1313 
Q 434 1759 690 2068 
Q 947 2378 1403 2484 
z
M 1172 3481 
Q 1172 3119 1398 2916 
Q 1625 2713 2034 2713 
Q 2441 2713 2670 2916 
Q 2900 3119 2900 3481 
Q 2900 3844 2670 4047 
Q 2441 4250 2034 4250 
Q 1625 4250 1398 4047 
Q 1172 3844 1172 3481 
z
" transform="scale(0.015625)"/>
        <path id="DejaVuSans-2e" d="M 684 794 
L 1344 794 
L 1344 0 
L 684 0 
L 684 794 
z
" transform="scale(0.015625)"/>
        <path id="DejaVuSans-30" d="M 2034 4250 
Q 1547 4250 1301 3770 
Q 1056 3291 1056 2328 
Q 1056 1369 1301 889 
Q 1547 409 2034 409 
Q 2525 409 2770 889 
Q 3016 1369 3016 2328 
Q 3016 3291 2770 3770 
Q 2525 4250 2034 4250 
z
M 2034 4750 
Q 2819 4750 3233 4129 
Q 3647 3509 3647 2328 
Q 3647 1150 3233 529 
Q 2819 -91 2034 -91 
Q 1250 -91 836 529 
Q 422 1150 422 2328 
Q 422 3509 836 4129 
Q 1250 4750 2034 4750 
z
" transform="scale(0.015625)"/>
        <path id="DejaVuSans-32" d="M 1228 531 
L 3431 531 
L 3431 0 
L 469 0 
L 469 531 
Q 828 903 1448 1529 
Q 2069 2156 2228 2338 
Q 2531 2678 2651 2914 
Q 2772 3150 2772 3378 
Q 2772 3750 2511 3984 
Q 2250 4219 1831 4219 
Q 1534 4219 1204 4116 
Q 875 4013 500 3803 
L 500 4441 
Q 881 4594 1212 4672 
Q 1544 4750 1819 4750 
Q 2544 4750 2975 4387 
Q 3406 4025 3406 3419 
Q 3406 3131 3298 2873 
Q 3191 2616 2906 2266 
Q 2828 2175 2409 1742 
Q 1991 1309 1228 531 
z
" transform="scale(0.015625)"/>
       </defs>
       <use xlink:href="#DejaVuSans-31"/>
       <use xlink:href="#DejaVuSans-38" x="63.623047"/>
       <use xlink:href="#DejaVuSans-2e" x="127.246094"/>
       <use xlink:href="#DejaVuSans-30" x="159.033203"/>
       <use xlink:href="#DejaVuSans-31" x="222.65625"/>
       <use xlink:href="#DejaVuSans-2e" x="286.279297"/>
       <use xlink:href="#DejaVuSans-32" x="318.066406"/>
       <use xlink:href="#DejaVuSans-30" x="381.689453"/>
       <use xlink:href="#DejaVuSans-32" x="445.3125"/>
       <use xlink:href="#DejaVuSans-30" x="508.935547"/>
      </g>
     </g>
    </g>
    <g id="xtick_2">
     <g id="line2d_3">
      <path d="M 94.116387 276.48 
L 94.116387 41.472 
" clip-path="url(#p4d72918201)" style="fill: none; stroke-dasharray: 2.96,1.28; stroke-dashoffset: 0; stroke: #808080; stroke-width: 0.8"/>
     </g>
     <g id="line2d_4">
      <g>
       <use xlink:href="#m9682191b87" x="94.116387" y="276.48" style="stroke: #000000; stroke-width: 0.8"/>
      </g>
     </g>
     <g id="text_2">
      <!-- 30.04.2020 -->
      <g transform="translate(43.491176 318.688565) rotate(-30) scale(0.1 -0.1)">
       <defs>
        <path id="DejaVuSans-33" d="M 2597 2516 
Q 3050 2419 3304 2112 
Q 3559 1806 3559 1356 
Q 3559 666 3084 287 
Q 2609 -91 1734 -91 
Q 1441 -91 1130 -33 
Q 819 25 488 141 
L 488 750 
Q 750 597 1062 519 
Q 1375 441 1716 441 
Q 2309 441 2620 675 
Q 2931 909 2931 1356 
Q 2931 1769 2642 2001 
Q 2353 2234 1838 2234 
L 1294 2234 
L 1294 2753 
L 1863 2753 
Q 2328 2753 2575 2939 
Q 2822 3125 2822 3475 
Q 2822 3834 2567 4026 
Q 2313 4219 1838 4219 
Q 1578 4219 1281 4162 
Q 984 4106 628 3988 
L 628 4550 
Q 988 4650 1302 4700 
Q 1616 4750 1894 4750 
Q 2613 4750 3031 4423 
Q 3450 4097 3450 3541 
Q 3450 3153 3228 2886 
Q 3006 2619 2597 2516 
z
" transform="scale(0.015625)"/>
        <path id="DejaVuSans-34" d="M 2419 4116 
L 825 1625 
L 2419 1625 
L 2419 4116 
z
M 2253 4666 
L 3047 4666 
L 3047 1625 
L 3713 1625 
L 3713 1100 
L 3047 1100 
L 3047 0 
L 2419 0 
L 2419 1100 
L 313 1100 
L 313 1709 
L 2253 4666 
z
" transform="scale(0.015625)"/>
       </defs>
       <use xlink:href="#DejaVuSans-33"/>
       <use xlink:href="#DejaVuSans-30" x="63.623047"/>
       <use xlink:href="#DejaVuSans-2e" x="127.246094"/>
       <use xlink:href="#DejaVuSans-30" x="159.033203"/>
       <use xlink:href="#DejaVuSans-34" x="222.65625"/>
       <use xlink:href="#DejaVuSans-2e" x="286.279297"/>
       <use xlink:href="#DejaVuSans-32" x="318.066406"/>
       <use xlink:href="#DejaVuSans-30" x="381.689453"/>
       <use xlink:href="#DejaVuSans-32" x="445.3125"/>
       <use xlink:href="#DejaVuSans-30" x="508.935547"/>
      </g>
     </g>
    </g>
    <g id="xtick_3">
     <g id="line2d_5">
      <path d="M 129.957135 276.48 
L 129.957135 41.472 
" clip-path="url(#p4d72918201)" style="fill: none; stroke-dasharray: 2.96,1.28; stroke-dashoffset: 0; stroke: #808080; stroke-width: 0.8"/>
     </g>
     <g id="line2d_6">
      <g>
       <use xlink:href="#m9682191b87" x="129.957135" y="276.48" style="stroke: #000000; stroke-width: 0.8"/>
      </g>
     </g>
     <g id="text_3">
      <!-- 11.08.2020 -->
      <g transform="translate(79.331925 318.688565) rotate(-30) scale(0.1 -0.1)">
       <use xlink:href="#DejaVuSans-31"/>
       <use xlink:href="#DejaVuSans-31" x="63.623047"/>
       <use xlink:href="#DejaVuSans-2e" x="127.246094"/>
       <use xlink:href="#DejaVuSans-30" x="159.033203"/>
       <use xlink:href="#DejaVuSans-38" x="222.65625"/>
       <use xlink:href="#DejaVuSans-2e" x="286.279297"/>
       <use xlink:href="#DejaVuSans-32" x="318.066406"/>
       <use xlink:href="#DejaVuSans-30" x="381.689453"/>
       <use xlink:href="#DejaVuSans-32" x="445.3125"/>
       <use xlink:href="#DejaVuSans-30" x="508.935547"/>
      </g>
     </g>
    </g>
    <g id="xtick_4">
     <g id="line2d_7">
      <path d="M 165.797884 276.48 
L 165.797884 41.472 
" clip-path="url(#p4d72918201)" style="fill: none; stroke-dasharray: 2.96,1.28; stroke-dashoffset: 0; stroke: #808080; stroke-width: 0.8"/>
     </g>
     <g id="line2d_8">
      <g>
       <use xlink:href="#m9682191b87" x="165.797884" y="276.48" style="stroke: #000000; stroke-width: 0.8"/>
      </g>
     </g>
     <g id="text_4">
      <!-- 22.11.2020 -->
      <g transform="translate(115.172673 318.688565) rotate(-30) scale(0.1 -0.1)">
       <use xlink:href="#DejaVuSans-32"/>
       <use xlink:href="#DejaVuSans-32" x="63.623047"/>
       <use xlink:href="#DejaVuSans-2e" x="127.246094"/>
       <use xlink:href="#DejaVuSans-31" x="159.033203"/>
       <use xlink:href="#DejaVuSans-31" x="222.65625"/>
       <use xlink:href="#DejaVuSans-2e" x="286.279297"/>
       <use xlink:href="#DejaVuSans-32" x="318.066406"/>
       <use xlink:href="#DejaVuSans-30" x="381.689453"/>
       <use xlink:href="#DejaVuSans-32" x="445.3125"/>
       <use xlink:href="#DejaVuSans-30" x="508.935547"/>
      </g>
     </g>
    </g>
    <g id="xtick_5">
     <g id="line2d_9">
      <path d="M 201.638632 276.48 
L 201.638632 41.472 
" clip-path="url(#p4d72918201)" style="fill: none; stroke-dasharray: 2.96,1.28; stroke-dashoffset: 0; stroke: #808080; stroke-width: 0.8"/>
     </g>
     <g id="line2d_10">
      <g>
       <use xlink:href="#m9682191b87" x="201.638632" y="276.48" style="stroke: #000000; stroke-width: 0.8"/>
      </g>
     </g>
     <g id="text_5">
      <!-- 05.03.2021 -->
      <g transform="translate(151.013421 318.688565) rotate(-30) scale(0.1 -0.1)">
       <defs>
        <path id="DejaVuSans-35" d="M 691 4666 
L 3169 4666 
L 3169 4134 
L 1269 4134 
L 1269 2991 
Q 1406 3038 1543 3061 
Q 1681 3084 1819 3084 
Q 2600 3084 3056 2656 
Q 3513 2228 3513 1497 
Q 3513 744 3044 326 
Q 2575 -91 1722 -91 
Q 1428 -91 1123 -41 
Q 819 9 494 109 
L 494 744 
Q 775 591 1075 516 
Q 1375 441 1709 441 
Q 2250 441 2565 725 
Q 2881 1009 2881 1497 
Q 2881 1984 2565 2268 
Q 2250 2553 1709 2553 
Q 1456 2553 1204 2497 
Q 953 2441 691 2322 
L 691 4666 
z
" transform="scale(0.015625)"/>
       </defs>
       <use xlink:href="#DejaVuSans-30"/>
       <use xlink:href="#DejaVuSans-35" x="63.623047"/>
       <use xlink:href="#DejaVuSans-2e" x="127.246094"/>
       <use xlink:href="#DejaVuSans-30" x="159.033203"/>
       <use xlink:href="#DejaVuSans-33" x="222.65625"/>
       <use xlink:href="#DejaVuSans-2e" x="286.279297"/>
       <use xlink:href="#DejaVuSans-32" x="318.066406"/>
       <use xlink:href="#DejaVuSans-30" x="381.689453"/>
       <use xlink:href="#DejaVuSans-32" x="445.3125"/>
       <use xlink:href="#DejaVuSans-31" x="508.935547"/>
      </g>
     </g>
    </g>
    <g id="xtick_6">
     <g id="line2d_11">
      <path d="M 237.47938 276.48 
L 237.47938 41.472 
" clip-path="url(#p4d72918201)" style="fill: none; stroke-dasharray: 2.96,1.28; stroke-dashoffset: 0; stroke: #808080; stroke-width: 0.8"/>
     </g>
     <g id="line2d_12">
      <g>
       <use xlink:href="#m9682191b87" x="237.47938" y="276.48" style="stroke: #000000; stroke-width: 0.8"/>
      </g>
     </g>
     <g id="text_6">
      <!-- 16.06.2021 -->
      <g transform="translate(186.85417 318.688565) rotate(-30) scale(0.1 -0.1)">
       <defs>
        <path id="DejaVuSans-36" d="M 2113 2584 
Q 1688 2584 1439 2293 
Q 1191 2003 1191 1497 
Q 1191 994 1439 701 
Q 1688 409 2113 409 
Q 2538 409 2786 701 
Q 3034 994 3034 1497 
Q 3034 2003 2786 2293 
Q 2538 2584 2113 2584 
z
M 3366 4563 
L 3366 3988 
Q 3128 4100 2886 4159 
Q 2644 4219 2406 4219 
Q 1781 4219 1451 3797 
Q 1122 3375 1075 2522 
Q 1259 2794 1537 2939 
Q 1816 3084 2150 3084 
Q 2853 3084 3261 2657 
Q 3669 2231 3669 1497 
Q 3669 778 3244 343 
Q 2819 -91 2113 -91 
Q 1303 -91 875 529 
Q 447 1150 447 2328 
Q 447 3434 972 4092 
Q 1497 4750 2381 4750 
Q 2619 4750 2861 4703 
Q 3103 4656 3366 4563 
z
" transform="scale(0.015625)"/>
       </defs>
       <use xlink:href="#DejaVuSans-31"/>
       <use xlink:href="#DejaVuSans-36" x="63.623047"/>
       <use xlink:href="#DejaVuSans-2e" x="127.246094"/>
       <use xlink:href="#DejaVuSans-30" x="159.033203"/>
       <use xlink:href="#DejaVuSans-36" x="222.65625"/>
       <use xlink:href="#DejaVuSans-2e" x="286.279297"/>
       <use xlink:href="#DejaVuSans-32" x="318.066406"/>
       <use xlink:href="#DejaVuSans-30" x="381.689453"/>
       <use xlink:href="#DejaVuSans-32" x="445.3125"/>
       <use xlink:href="#DejaVuSans-31" x="508.935547"/>
      </g>
     </g>
    </g>
    <g id="xtick_7">
     <g id="line2d_13">
      <path d="M 273.320129 276.48 
L 273.320129 41.472 
" clip-path="url(#p4d72918201)" style="fill: none; stroke-dasharray: 2.96,1.28; stroke-dashoffset: 0; stroke: #808080; stroke-width: 0.8"/>
     </g>
     <g id="line2d_14">
      <g>
       <use xlink:href="#m9682191b87" x="273.320129" y="276.48" style="stroke: #000000; stroke-width: 0.8"/>
      </g>
     </g>
     <g id="text_7">
      <!-- 27.09.2021 -->
      <g transform="translate(222.694918 318.688565) rotate(-30) scale(0.1 -0.1)">
       <defs>
        <path id="DejaVuSans-37" d="M 525 4666 
L 3525 4666 
L 3525 4397 
L 1831 0 
L 1172 0 
L 2766 4134 
L 525 4134 
L 525 4666 
z
" transform="scale(0.015625)"/>
        <path id="DejaVuSans-39" d="M 703 97 
L 703 672 
Q 941 559 1184 500 
Q 1428 441 1663 441 
Q 2288 441 2617 861 
Q 2947 1281 2994 2138 
Q 2813 1869 2534 1725 
Q 2256 1581 1919 1581 
Q 1219 1581 811 2004 
Q 403 2428 403 3163 
Q 403 3881 828 4315 
Q 1253 4750 1959 4750 
Q 2769 4750 3195 4129 
Q 3622 3509 3622 2328 
Q 3622 1225 3098 567 
Q 2575 -91 1691 -91 
Q 1453 -91 1209 -44 
Q 966 3 703 97 
z
M 1959 2075 
Q 2384 2075 2632 2365 
Q 2881 2656 2881 3163 
Q 2881 3666 2632 3958 
Q 2384 4250 1959 4250 
Q 1534 4250 1286 3958 
Q 1038 3666 1038 3163 
Q 1038 2656 1286 2365 
Q 1534 2075 1959 2075 
z
" transform="scale(0.015625)"/>
       </defs>
       <use xlink:href="#DejaVuSans-32"/>
       <use xlink:href="#DejaVuSans-37" x="63.623047"/>
       <use xlink:href="#DejaVuSans-2e" x="127.246094"/>
       <use xlink:href="#DejaVuSans-30" x="159.033203"/>
       <use xlink:href="#DejaVuSans-39" x="222.65625"/>
       <use xlink:href="#DejaVuSans-2e" x="286.279297"/>
       <use xlink:href="#DejaVuSans-32" x="318.066406"/>
       <use xlink:href="#DejaVuSans-30" x="381.689453"/>
       <use xlink:href="#DejaVuSans-32" x="445.3125"/>
       <use xlink:href="#DejaVuSans-31" x="508.935547"/>
      </g>
     </g>
    </g>
    <g id="xtick_8">
     <g id="line2d_15">
      <path d="M 309.160877 276.48 
L 309.160877 41.472 
" clip-path="url(#p4d72918201)" style="fill: none; stroke-dasharray: 2.96,1.28; stroke-dashoffset: 0; stroke: #808080; stroke-width: 0.8"/>
     </g>
     <g id="line2d_16">
      <g>
       <use xlink:href="#m9682191b87" x="309.160877" y="276.48" style="stroke: #000000; stroke-width: 0.8"/>
      </g>
     </g>
     <g id="text_8">
      <!-- 08.01.2022 -->
      <g transform="translate(258.535666 318.688565) rotate(-30) scale(0.1 -0.1)">
       <use xlink:href="#DejaVuSans-30"/>
       <use xlink:href="#DejaVuSans-38" x="63.623047"/>
       <use xlink:href="#DejaVuSans-2e" x="127.246094"/>
       <use xlink:href="#DejaVuSans-30" x="159.033203"/>
       <use xlink:href="#DejaVuSans-31" x="222.65625"/>
       <use xlink:href="#DejaVuSans-2e" x="286.279297"/>
       <use xlink:href="#DejaVuSans-32" x="318.066406"/>
       <use xlink:href="#DejaVuSans-30" x="381.689453"/>
       <use xlink:href="#DejaVuSans-32" x="445.3125"/>
       <use xlink:href="#DejaVuSans-32" x="508.935547"/>
      </g>
     </g>
    </g>
    <g id="xtick_9">
     <g id="line2d_17">
      <path d="M 345.001625 276.48 
L 345.001625 41.472 
" clip-path="url(#p4d72918201)" style="fill: none; stroke-dasharray: 2.96,1.28; stroke-dashoffset: 0; stroke: #808080; stroke-width: 0.8"/>
     </g>
     <g id="line2d_18">
      <g>
       <use xlink:href="#m9682191b87" x="345.001625" y="276.48" style="stroke: #000000; stroke-width: 0.8"/>
      </g>
     </g>
     <g id="text_9">
      <!-- 21.04.2022 -->
      <g transform="translate(294.376414 318.688565) rotate(-30) scale(0.1 -0.1)">
       <use xlink:href="#DejaVuSans-32"/>
       <use xlink:href="#DejaVuSans-31" x="63.623047"/>
       <use xlink:href="#DejaVuSans-2e" x="127.246094"/>
       <use xlink:href="#DejaVuSans-30" x="159.033203"/>
       <use xlink:href="#DejaVuSans-34" x="222.65625"/>
       <use xlink:href="#DejaVuSans-2e" x="286.279297"/>
       <use xlink:href="#DejaVuSans-32" x="318.066406"/>
       <use xlink:href="#DejaVuSans-30" x="381.689453"/>
       <use xlink:href="#DejaVuSans-32" x="445.3125"/>
       <use xlink:href="#DejaVuSans-32" x="508.935547"/>
      </g>
     </g>
    </g>
    <g id="xtick_10">
     <g id="line2d_19">
      <path d="M 380.842374 276.48 
L 380.842374 41.472 
" clip-path="url(#p4d72918201)" style="fill: none; stroke-dasharray: 2.96,1.28; stroke-dashoffset: 0; stroke: #808080; stroke-width: 0.8"/>
     </g>
     <g id="line2d_20">
      <g>
       <use xlink:href="#m9682191b87" x="380.842374" y="276.48" style="stroke: #000000; stroke-width: 0.8"/>
      </g>
     </g>
     <g id="text_10">
      <!-- 02.08.2022 -->
      <g transform="translate(330.217163 318.688565) rotate(-30) scale(0.1 -0.1)">
       <use xlink:href="#DejaVuSans-30"/>
       <use xlink:href="#DejaVuSans-32" x="63.623047"/>
       <use xlink:href="#DejaVuSans-2e" x="127.246094"/>
       <use xlink:href="#DejaVuSans-30" x="159.033203"/>
       <use xlink:href="#DejaVuSans-38" x="222.65625"/>
       <use xlink:href="#DejaVuSans-2e" x="286.279297"/>
       <use xlink:href="#DejaVuSans-32" x="318.066406"/>
       <use xlink:href="#DejaVuSans-30" x="381.689453"/>
       <use xlink:href="#DejaVuSans-32" x="445.3125"/>
       <use xlink:href="#DejaVuSans-32" x="508.935547"/>
      </g>
     </g>
    </g>
   </g>
   <g id="matplotlib.axis_2">
    <g id="ytick_1">
     <g id="line2d_21">
      <path d="M 57.6 265.058432 
L 414.72 265.058432 
" clip-path="url(#p4d72918201)" style="fill: none; stroke-dasharray: 2.96,1.28; stroke-dashoffset: 0; stroke: #808080; stroke-width: 0.8"/>
     </g>
     <g id="line2d_22">
      <defs>
       <path id="m25fd8a8599" d="M 0 0 
L -3.5 0 
" style="stroke: #000000; stroke-width: 0.8"/>
      </defs>
      <g>
       <use xlink:href="#m25fd8a8599" x="57.6" y="265.058432" style="stroke: #000000; stroke-width: 0.8"/>
      </g>
     </g>
     <g id="text_11">
      <!-- 0 -->
      <g transform="translate(44.2375 268.857651) scale(0.1 -0.1)">
       <use xlink:href="#DejaVuSans-30"/>
      </g>
     </g>
    </g>
    <g id="ytick_2">
     <g id="line2d_23">
      <path d="M 57.6 235.270127 
L 414.72 235.270127 
" clip-path="url(#p4d72918201)" style="fill: none; stroke-dasharray: 2.96,1.28; stroke-dashoffset: 0; stroke: #808080; stroke-width: 0.8"/>
     </g>
     <g id="line2d_24">
      <g>
       <use xlink:href="#m25fd8a8599" x="57.6" y="235.270127" style="stroke: #000000; stroke-width: 0.8"/>
      </g>
     </g>
     <g id="text_12">
      <!-- 500 -->
      <g transform="translate(31.5125 239.069346) scale(0.1 -0.1)">
       <use xlink:href="#DejaVuSans-35"/>
       <use xlink:href="#DejaVuSans-30" x="63.623047"/>
       <use xlink:href="#DejaVuSans-30" x="127.246094"/>
      </g>
     </g>
    </g>
    <g id="ytick_3">
     <g id="line2d_25">
      <path d="M 57.6 205.481822 
L 414.72 205.481822 
" clip-path="url(#p4d72918201)" style="fill: none; stroke-dasharray: 2.96,1.28; stroke-dashoffset: 0; stroke: #808080; stroke-width: 0.8"/>
     </g>
     <g id="line2d_26">
      <g>
       <use xlink:href="#m25fd8a8599" x="57.6" y="205.481822" style="stroke: #000000; stroke-width: 0.8"/>
      </g>
     </g>
     <g id="text_13">
      <!-- 1000 -->
      <g transform="translate(25.15 209.281041) scale(0.1 -0.1)">
       <use xlink:href="#DejaVuSans-31"/>
       <use xlink:href="#DejaVuSans-30" x="63.623047"/>
       <use xlink:href="#DejaVuSans-30" x="127.246094"/>
       <use xlink:href="#DejaVuSans-30" x="190.869141"/>
      </g>
     </g>
    </g>
    <g id="ytick_4">
     <g id="line2d_27">
      <path d="M 57.6 175.693517 
L 414.72 175.693517 
" clip-path="url(#p4d72918201)" style="fill: none; stroke-dasharray: 2.96,1.28; stroke-dashoffset: 0; stroke: #808080; stroke-width: 0.8"/>
     </g>
     <g id="line2d_28">
      <g>
       <use xlink:href="#m25fd8a8599" x="57.6" y="175.693517" style="stroke: #000000; stroke-width: 0.8"/>
      </g>
     </g>
     <g id="text_14">
      <!-- 1500 -->
      <g transform="translate(25.15 179.492736) scale(0.1 -0.1)">
       <use xlink:href="#DejaVuSans-31"/>
       <use xlink:href="#DejaVuSans-35" x="63.623047"/>
       <use xlink:href="#DejaVuSans-30" x="127.246094"/>
       <use xlink:href="#DejaVuSans-30" x="190.869141"/>
      </g>
     </g>
    </g>
    <g id="ytick_5">
     <g id="line2d_29">
      <path d="M 57.6 145.905212 
L 414.72 145.905212 
" clip-path="url(#p4d72918201)" style="fill: none; stroke-dasharray: 2.96,1.28; stroke-dashoffset: 0; stroke: #808080; stroke-width: 0.8"/>
     </g>
     <g id="line2d_30">
      <g>
       <use xlink:href="#m25fd8a8599" x="57.6" y="145.905212" style="stroke: #000000; stroke-width: 0.8"/>
      </g>
     </g>
     <g id="text_15">
      <!-- 2000 -->
      <g transform="translate(25.15 149.704431) scale(0.1 -0.1)">
       <use xlink:href="#DejaVuSans-32"/>
       <use xlink:href="#DejaVuSans-30" x="63.623047"/>
       <use xlink:href="#DejaVuSans-30" x="127.246094"/>
       <use xlink:href="#DejaVuSans-30" x="190.869141"/>
      </g>
     </g>
    </g>
    <g id="ytick_6">
     <g id="line2d_31">
      <path d="M 57.6 116.116907 
L 414.72 116.116907 
" clip-path="url(#p4d72918201)" style="fill: none; stroke-dasharray: 2.96,1.28; stroke-dashoffset: 0; stroke: #808080; stroke-width: 0.8"/>
     </g>
     <g id="line2d_32">
      <g>
       <use xlink:href="#m25fd8a8599" x="57.6" y="116.116907" style="stroke: #000000; stroke-width: 0.8"/>
      </g>
     </g>
     <g id="text_16">
      <!-- 2500 -->
      <g transform="translate(25.15 119.916126) scale(0.1 -0.1)">
       <use xlink:href="#DejaVuSans-32"/>
       <use xlink:href="#DejaVuSans-35" x="63.623047"/>
       <use xlink:href="#DejaVuSans-30" x="127.246094"/>
       <use xlink:href="#DejaVuSans-30" x="190.869141"/>
      </g>
     </g>
    </g>
    <g id="ytick_7">
     <g id="line2d_33">
      <path d="M 57.6 86.328602 
L 414.72 86.328602 
" clip-path="url(#p4d72918201)" style="fill: none; stroke-dasharray: 2.96,1.28; stroke-dashoffset: 0; stroke: #808080; stroke-width: 0.8"/>
     </g>
     <g id="line2d_34">
      <g>
       <use xlink:href="#m25fd8a8599" x="57.6" y="86.328602" style="stroke: #000000; stroke-width: 0.8"/>
      </g>
     </g>
     <g id="text_17">
      <!-- 3000 -->
      <g transform="translate(25.15 90.127821) scale(0.1 -0.1)">
       <use xlink:href="#DejaVuSans-33"/>
       <use xlink:href="#DejaVuSans-30" x="63.623047"/>
       <use xlink:href="#DejaVuSans-30" x="127.246094"/>
       <use xlink:href="#DejaVuSans-30" x="190.869141"/>
      </g>
     </g>
    </g>
    <g id="ytick_8">
     <g id="line2d_35">
      <path d="M 57.6 56.540297 
L 414.72 56.540297 
" clip-path="url(#p4d72918201)" style="fill: none; stroke-dasharray: 2.96,1.28; stroke-dashoffset: 0; stroke: #808080; stroke-width: 0.8"/>
     </g>
     <g id="line2d_36">
      <g>
       <use xlink:href="#m25fd8a8599" x="57.6" y="56.540297" style="stroke: #000000; stroke-width: 0.8"/>
      </g>
     </g>
     <g id="text_18">
      <!-- 3500 -->
      <g transform="translate(25.15 60.339516) scale(0.1 -0.1)">
       <use xlink:href="#DejaVuSans-33"/>
       <use xlink:href="#DejaVuSans-35" x="63.623047"/>
       <use xlink:href="#DejaVuSans-30" x="127.246094"/>
       <use xlink:href="#DejaVuSans-30" x="190.869141"/>
      </g>
     </g>
    </g>
    <g id="text_19">
     <!-- Inzidenz pro 7 Tage pro 100.000 Einwohner -->
     <g transform="translate(19.070312 267.301) rotate(-90) scale(0.1 -0.1)">
      <defs>
       <path id="DejaVuSans-49" d="M 628 4666 
L 1259 4666 
L 1259 0 
L 628 0 
L 628 4666 
z
" transform="scale(0.015625)"/>
       <path id="DejaVuSans-6e" d="M 3513 2113 
L 3513 0 
L 2938 0 
L 2938 2094 
Q 2938 2591 2744 2837 
Q 2550 3084 2163 3084 
Q 1697 3084 1428 2787 
Q 1159 2491 1159 1978 
L 1159 0 
L 581 0 
L 581 3500 
L 1159 3500 
L 1159 2956 
Q 1366 3272 1645 3428 
Q 1925 3584 2291 3584 
Q 2894 3584 3203 3211 
Q 3513 2838 3513 2113 
z
" transform="scale(0.015625)"/>
       <path id="DejaVuSans-7a" d="M 353 3500 
L 3084 3500 
L 3084 2975 
L 922 459 
L 3084 459 
L 3084 0 
L 275 0 
L 275 525 
L 2438 3041 
L 353 3041 
L 353 3500 
z
" transform="scale(0.015625)"/>
       <path id="DejaVuSans-69" d="M 603 3500 
L 1178 3500 
L 1178 0 
L 603 0 
L 603 3500 
z
M 603 4863 
L 1178 4863 
L 1178 4134 
L 603 4134 
L 603 4863 
z
" transform="scale(0.015625)"/>
       <path id="DejaVuSans-64" d="M 2906 2969 
L 2906 4863 
L 3481 4863 
L 3481 0 
L 2906 0 
L 2906 525 
Q 2725 213 2448 61 
Q 2172 -91 1784 -91 
Q 1150 -91 751 415 
Q 353 922 353 1747 
Q 353 2572 751 3078 
Q 1150 3584 1784 3584 
Q 2172 3584 2448 3432 
Q 2725 3281 2906 2969 
z
M 947 1747 
Q 947 1113 1208 752 
Q 1469 391 1925 391 
Q 2381 391 2643 752 
Q 2906 1113 2906 1747 
Q 2906 2381 2643 2742 
Q 2381 3103 1925 3103 
Q 1469 3103 1208 2742 
Q 947 2381 947 1747 
z
" transform="scale(0.015625)"/>
       <path id="DejaVuSans-65" d="M 3597 1894 
L 3597 1613 
L 953 1613 
Q 991 1019 1311 708 
Q 1631 397 2203 397 
Q 2534 397 2845 478 
Q 3156 559 3463 722 
L 3463 178 
Q 3153 47 2828 -22 
Q 2503 -91 2169 -91 
Q 1331 -91 842 396 
Q 353 884 353 1716 
Q 353 2575 817 3079 
Q 1281 3584 2069 3584 
Q 2775 3584 3186 3129 
Q 3597 2675 3597 1894 
z
M 3022 2063 
Q 3016 2534 2758 2815 
Q 2500 3097 2075 3097 
Q 1594 3097 1305 2825 
Q 1016 2553 972 2059 
L 3022 2063 
z
" transform="scale(0.015625)"/>
       <path id="DejaVuSans-20" transform="scale(0.015625)"/>
       <path id="DejaVuSans-70" d="M 1159 525 
L 1159 -1331 
L 581 -1331 
L 581 3500 
L 1159 3500 
L 1159 2969 
Q 1341 3281 1617 3432 
Q 1894 3584 2278 3584 
Q 2916 3584 3314 3078 
Q 3713 2572 3713 1747 
Q 3713 922 3314 415 
Q 2916 -91 2278 -91 
Q 1894 -91 1617 61 
Q 1341 213 1159 525 
z
M 3116 1747 
Q 3116 2381 2855 2742 
Q 2594 3103 2138 3103 
Q 1681 3103 1420 2742 
Q 1159 2381 1159 1747 
Q 1159 1113 1420 752 
Q 1681 391 2138 391 
Q 2594 391 2855 752 
Q 3116 1113 3116 1747 
z
" transform="scale(0.015625)"/>
       <path id="DejaVuSans-72" d="M 2631 2963 
Q 2534 3019 2420 3045 
Q 2306 3072 2169 3072 
Q 1681 3072 1420 2755 
Q 1159 2438 1159 1844 
L 1159 0 
L 581 0 
L 581 3500 
L 1159 3500 
L 1159 2956 
Q 1341 3275 1631 3429 
Q 1922 3584 2338 3584 
Q 2397 3584 2469 3576 
Q 2541 3569 2628 3553 
L 2631 2963 
z
" transform="scale(0.015625)"/>
       <path id="DejaVuSans-6f" d="M 1959 3097 
Q 1497 3097 1228 2736 
Q 959 2375 959 1747 
Q 959 1119 1226 758 
Q 1494 397 1959 397 
Q 2419 397 2687 759 
Q 2956 1122 2956 1747 
Q 2956 2369 2687 2733 
Q 2419 3097 1959 3097 
z
M 1959 3584 
Q 2709 3584 3137 3096 
Q 3566 2609 3566 1747 
Q 3566 888 3137 398 
Q 2709 -91 1959 -91 
Q 1206 -91 779 398 
Q 353 888 353 1747 
Q 353 2609 779 3096 
Q 1206 3584 1959 3584 
z
" transform="scale(0.015625)"/>
       <path id="DejaVuSans-54" d="M -19 4666 
L 3928 4666 
L 3928 4134 
L 2272 4134 
L 2272 0 
L 1638 0 
L 1638 4134 
L -19 4134 
L -19 4666 
z
" transform="scale(0.015625)"/>
       <path id="DejaVuSans-61" d="M 2194 1759 
Q 1497 1759 1228 1600 
Q 959 1441 959 1056 
Q 959 750 1161 570 
Q 1363 391 1709 391 
Q 2188 391 2477 730 
Q 2766 1069 2766 1631 
L 2766 1759 
L 2194 1759 
z
M 3341 1997 
L 3341 0 
L 2766 0 
L 2766 531 
Q 2569 213 2275 61 
Q 1981 -91 1556 -91 
Q 1019 -91 701 211 
Q 384 513 384 1019 
Q 384 1609 779 1909 
Q 1175 2209 1959 2209 
L 2766 2209 
L 2766 2266 
Q 2766 2663 2505 2880 
Q 2244 3097 1772 3097 
Q 1472 3097 1187 3025 
Q 903 2953 641 2809 
L 641 3341 
Q 956 3463 1253 3523 
Q 1550 3584 1831 3584 
Q 2591 3584 2966 3190 
Q 3341 2797 3341 1997 
z
" transform="scale(0.015625)"/>
       <path id="DejaVuSans-67" d="M 2906 1791 
Q 2906 2416 2648 2759 
Q 2391 3103 1925 3103 
Q 1463 3103 1205 2759 
Q 947 2416 947 1791 
Q 947 1169 1205 825 
Q 1463 481 1925 481 
Q 2391 481 2648 825 
Q 2906 1169 2906 1791 
z
M 3481 434 
Q 3481 -459 3084 -895 
Q 2688 -1331 1869 -1331 
Q 1566 -1331 1297 -1286 
Q 1028 -1241 775 -1147 
L 775 -588 
Q 1028 -725 1275 -790 
Q 1522 -856 1778 -856 
Q 2344 -856 2625 -561 
Q 2906 -266 2906 331 
L 2906 616 
Q 2728 306 2450 153 
Q 2172 0 1784 0 
Q 1141 0 747 490 
Q 353 981 353 1791 
Q 353 2603 747 3093 
Q 1141 3584 1784 3584 
Q 2172 3584 2450 3431 
Q 2728 3278 2906 2969 
L 2906 3500 
L 3481 3500 
L 3481 434 
z
" transform="scale(0.015625)"/>
       <path id="DejaVuSans-45" d="M 628 4666 
L 3578 4666 
L 3578 4134 
L 1259 4134 
L 1259 2753 
L 3481 2753 
L 3481 2222 
L 1259 2222 
L 1259 531 
L 3634 531 
L 3634 0 
L 628 0 
L 628 4666 
z
" transform="scale(0.015625)"/>
       <path id="DejaVuSans-77" d="M 269 3500 
L 844 3500 
L 1563 769 
L 2278 3500 
L 2956 3500 
L 3675 769 
L 4391 3500 
L 4966 3500 
L 4050 0 
L 3372 0 
L 2619 2869 
L 1863 0 
L 1184 0 
L 269 3500 
z
" transform="scale(0.015625)"/>
       <path id="DejaVuSans-68" d="M 3513 2113 
L 3513 0 
L 2938 0 
L 2938 2094 
Q 2938 2591 2744 2837 
Q 2550 3084 2163 3084 
Q 1697 3084 1428 2787 
Q 1159 2491 1159 1978 
L 1159 0 
L 581 0 
L 581 4863 
L 1159 4863 
L 1159 2956 
Q 1366 3272 1645 3428 
Q 1925 3584 2291 3584 
Q 2894 3584 3203 3211 
Q 3513 2838 3513 2113 
z
" transform="scale(0.015625)"/>
      </defs>
      <use xlink:href="#DejaVuSans-49"/>
      <use xlink:href="#DejaVuSans-6e" x="29.492188"/>
      <use xlink:href="#DejaVuSans-7a" x="92.871094"/>
      <use xlink:href="#DejaVuSans-69" x="145.361328"/>
      <use xlink:href="#DejaVuSans-64" x="173.144531"/>
      <use xlink:href="#DejaVuSans-65" x="236.621094"/>
      <use xlink:href="#DejaVuSans-6e" x="298.144531"/>
      <use xlink:href="#DejaVuSans-7a" x="361.523438"/>
      <use xlink:href="#DejaVuSans-20" x="414.013672"/>
      <use xlink:href="#DejaVuSans-70" x="445.800781"/>
      <use xlink:href="#DejaVuSans-72" x="509.277344"/>
      <use xlink:href="#DejaVuSans-6f" x="548.140625"/>
      <use xlink:href="#DejaVuSans-20" x="609.322266"/>
      <use xlink:href="#DejaVuSans-37" x="641.109375"/>
      <use xlink:href="#DejaVuSans-20" x="704.732422"/>
      <use xlink:href="#DejaVuSans-54" x="736.519531"/>
      <use xlink:href="#DejaVuSans-61" x="781.103516"/>
      <use xlink:href="#DejaVuSans-67" x="842.382812"/>
      <use xlink:href="#DejaVuSans-65" x="905.859375"/>
      <use xlink:href="#DejaVuSans-20" x="967.382812"/>
      <use xlink:href="#DejaVuSans-70" x="999.169922"/>
      <use xlink:href="#DejaVuSans-72" x="1062.646484"/>
      <use xlink:href="#DejaVuSans-6f" x="1101.509766"/>
      <use xlink:href="#DejaVuSans-20" x="1162.691406"/>
      <use xlink:href="#DejaVuSans-31" x="1194.478516"/>
      <use xlink:href="#DejaVuSans-30" x="1258.101562"/>
      <use xlink:href="#DejaVuSans-30" x="1321.724609"/>
      <use xlink:href="#DejaVuSans-2e" x="1385.347656"/>
      <use xlink:href="#DejaVuSans-30" x="1417.134766"/>
      <use xlink:href="#DejaVuSans-30" x="1480.757812"/>
      <use xlink:href="#DejaVuSans-30" x="1544.380859"/>
      <use xlink:href="#DejaVuSans-20" x="1608.003906"/>
      <use xlink:href="#DejaVuSans-45" x="1639.791016"/>
      <use xlink:href="#DejaVuSans-69" x="1702.974609"/>
      <use xlink:href="#DejaVuSans-6e" x="1730.757812"/>
      <use xlink:href="#DejaVuSans-77" x="1794.136719"/>
      <use xlink:href="#DejaVuSans-6f" x="1875.923828"/>
      <use xlink:href="#DejaVuSans-68" x="1937.105469"/>
      <use xlink:href="#DejaVuSans-6e" x="2000.484375"/>
      <use xlink:href="#DejaVuSans-65" x="2063.863281"/>
      <use xlink:href="#DejaVuSans-72" x="2125.386719"/>
     </g>
    </g>
   </g>
   <g id="line2d_37">
    <path d="M 73.832727 265.058432 
L 76.964443 265.019517 
L 77.66038 264.708197 
L 78.008348 264.474706 
L 78.356317 264.435791 
L 79.052254 264.007726 
L 79.748191 262.723529 
L 81.836001 261.672823 
L 82.18397 262.061973 
L 82.531938 261.789568 
L 82.879906 261.867398 
L 83.575843 262.139803 
L 84.619749 261.400417 
L 84.967717 261.361502 
L 85.663654 260.077306 
L 86.359591 259.999475 
L 86.707559 260.466456 
L 87.403496 260.972352 
L 87.751464 261.906313 
L 88.447401 262.918104 
L 89.143338 263.462915 
L 89.491307 263.229425 
L 89.839275 263.57966 
L 90.187243 263.424 
L 90.535212 263.540745 
L 90.88318 263.34617 
L 91.231149 263.462915 
L 91.579117 263.385085 
L 91.927086 263.57966 
L 92.275054 263.424 
L 92.623023 263.65749 
L 93.666928 263.774235 
L 94.362865 264.280131 
L 94.710833 264.513621 
L 95.40677 264.513621 
L 95.754738 264.046641 
L 96.102707 263.929896 
L 96.450675 263.618575 
L 96.798644 263.65749 
L 97.146612 263.462915 
L 97.842549 263.462915 
L 98.886454 264.202301 
L 99.234423 264.085556 
L 99.582391 264.241216 
L 100.278328 264.046641 
L 100.626296 264.124471 
L 100.974265 264.007726 
L 101.322233 262.606784 
L 101.670202 262.645699 
L 102.01817 262.567869 
L 102.366139 262.256548 
L 102.714107 260.466456 
L 103.062075 260.271881 
L 103.410044 260.427541 
L 103.758012 261.789568 
L 104.453949 261.789568 
L 104.801918 262.217633 
L 105.149886 264.007726 
L 105.497854 264.474706 
L 105.845823 264.319046 
L 106.54176 264.630367 
L 106.889728 264.357961 
L 108.977539 264.396876 
L 109.325507 264.824942 
L 111.413318 265.019517 
L 111.761286 265.797818 
L 112.457223 265.797818 
L 113.15316 265.603243 
L 113.849097 265.564328 
L 114.197065 264.786027 
L 114.545034 264.786027 
L 114.893002 264.669282 
L 115.588939 264.824942 
L 118.024718 264.319046 
L 119.068623 264.474706 
L 119.416592 264.474706 
L 119.76456 264.669282 
L 123.592213 265.058432 
L 125.680023 264.902772 
L 127.071897 264.941687 
L 127.767834 265.019517 
L 128.811739 265.058432 
L 129.855645 264.980602 
L 130.551581 264.824942 
L 131.247518 264.747112 
L 132.291424 264.552537 
L 132.98736 264.396876 
L 133.335329 264.435791 
L 134.031266 264.280131 
L 135.423139 264.513621 
L 135.771108 264.396876 
L 137.162982 264.669282 
L 137.51095 264.513621 
L 138.206887 264.630367 
L 139.250792 264.319046 
L 139.946729 264.124471 
L 140.294697 263.696405 
L 140.642666 263.462915 
L 140.990634 263.073765 
L 141.338603 262.879189 
L 141.686571 263.073765 
L 142.382508 262.918104 
L 142.730476 263.151595 
L 143.774382 263.229425 
L 144.12235 262.995934 
L 145.514224 263.696405 
L 145.862192 264.124471 
L 146.558129 264.435791 
L 146.906098 264.357961 
L 147.254066 264.163386 
L 147.950003 264.163386 
L 148.64594 263.65749 
L 149.341877 263.813151 
L 149.689845 263.65749 
L 150.037814 263.73532 
L 151.429687 262.840274 
L 152.125624 262.879189 
L 152.821561 262.373294 
L 153.169529 262.957019 
L 153.517498 262.373294 
L 154.213435 262.334379 
L 154.561403 262.139803 
L 154.909372 261.711738 
L 155.25734 261.828483 
L 155.605308 261.205842 
L 155.953277 261.750653 
L 156.649214 261.128012 
L 156.997182 260.232966 
L 157.693119 259.299004 
L 158.041087 258.754194 
L 158.737024 257.197592 
L 159.432961 256.613866 
L 160.128898 254.745943 
L 160.824835 251.204674 
L 161.520772 251.477079 
L 162.216709 250.932268 
L 162.564677 250.971183 
L 163.608582 252.722361 
L 163.956551 252.33321 
L 164.304519 252.138635 
L 164.652488 252.294295 
L 165.000456 251.204674 
L 165.348424 251.049013 
L 165.696393 252.17755 
L 166.39233 252.060805 
L 166.740298 251.710569 
L 167.088267 251.982975 
L 167.436235 252.683446 
L 167.784203 253.811982 
L 168.132172 254.123303 
L 168.48014 254.006557 
L 168.828109 253.695237 
L 169.176077 255.251839 
L 169.524046 255.368584 
L 169.872014 255.913395 
L 170.219982 255.446414 
L 170.567951 255.368584 
L 170.915919 255.679905 
L 171.263888 256.691696 
L 171.611856 254.473538 
L 172.307793 254.940519 
L 172.655761 254.784858 
L 173.00373 255.212924 
L 173.699667 254.006557 
L 174.047635 255.290754 
L 174.395604 255.602075 
L 175.09154 257.236507 
L 175.439509 257.275422 
L 175.787477 256.808441 
L 176.135446 257.353252 
L 176.483414 258.131553 
L 176.831383 258.131553 
L 177.875288 257.041931 
L 178.223256 257.975893 
L 178.571225 258.170468 
L 178.919193 258.170468 
L 179.267162 257.664572 
L 179.61513 257.936978 
L 180.311067 259.299004 
L 180.659035 259.41575 
L 181.354972 258.403958 
L 181.702941 259.532495 
L 182.050909 259.454665 
L 182.398878 259.688155 
L 183.094814 259.104429 
L 183.442783 259.57141 
L 183.790751 260.466456 
L 184.13872 259.96056 
L 184.486688 260.271881 
L 185.182625 260.388626 
L 185.530593 260.661031 
L 185.878562 260.777776 
L 186.22653 260.310796 
L 186.922467 261.050182 
L 187.270436 260.972352 
L 187.618404 261.439332 
L 187.966372 261.633908 
L 188.314341 261.517162 
L 188.662309 262.295463 
L 189.010278 262.606784 
L 189.358246 262.684614 
L 189.706215 262.995934 
L 190.054183 262.995934 
L 190.402151 262.879189 
L 191.098088 263.307255 
L 191.446057 263.385085 
L 191.794025 263.11268 
L 192.141994 263.073765 
L 193.185899 263.26834 
L 193.533867 263.50183 
L 193.881836 263.540745 
L 194.577773 264.007726 
L 194.925741 263.852066 
L 195.273709 263.852066 
L 195.621678 263.73532 
L 195.969646 263.774235 
L 197.36152 263.385085 
L 197.709488 263.11268 
L 198.057457 263.26834 
L 199.101362 261.906313 
L 199.449331 261.594993 
L 200.145267 261.517162 
L 200.841204 260.816692 
L 201.189173 261.361502 
L 201.88511 259.88273 
L 202.233078 259.610325 
L 202.929015 259.688155 
L 203.276983 259.41575 
L 203.624952 258.248298 
L 203.97292 258.170468 
L 204.320889 257.703487 
L 204.668857 256.769526 
L 205.016825 256.886271 
L 205.364794 256.341461 
L 205.712762 254.901604 
L 206.060731 254.590283 
L 206.408699 254.434623 
L 206.756668 254.940519 
L 207.104636 254.434623 
L 207.452605 253.656322 
L 207.800573 254.201133 
L 208.148541 255.018349 
L 208.49651 256.419291 
L 208.844478 255.485329 
L 209.192447 254.901604 
L 209.540415 255.913395 
L 209.888384 256.497121 
L 210.236352 256.302545 
L 210.58432 256.691696 
L 210.932289 255.135094 
L 211.628226 256.964101 
L 211.976194 256.964101 
L 212.324163 256.341461 
L 212.672131 256.613866 
L 213.020099 257.508912 
L 213.368068 257.625657 
L 214.064005 255.87448 
L 214.411973 254.707028 
L 214.759942 255.563159 
L 215.10791 255.135094 
L 215.455878 253.773067 
L 216.151815 253.228256 
L 216.499784 252.48887 
L 216.847752 252.5667 
L 217.543689 252.138635 
L 217.891657 250.620948 
L 218.587594 252.02189 
L 219.283531 254.162218 
L 219.6315 254.006557 
L 219.979468 254.590283 
L 220.327436 255.87448 
L 220.675405 256.03014 
L 221.023373 255.991225 
L 221.371342 256.341461 
L 221.71931 256.26363 
L 222.067279 256.497121 
L 222.415247 256.536036 
L 222.763215 257.586742 
L 223.111184 257.859148 
L 223.807121 258.715279 
L 224.155089 258.131553 
L 225.546963 257.859148 
L 225.894931 258.092638 
L 226.2429 258.598534 
L 226.590868 259.88273 
L 226.938837 259.921645 
L 227.286805 260.077306 
L 227.982742 261.089097 
L 228.33071 261.945228 
L 228.678679 261.906313 
L 229.722584 262.451124 
L 230.418521 263.65749 
L 231.114458 263.11268 
L 231.462426 263.229425 
L 231.810395 263.073765 
L 232.158363 263.073765 
L 232.506331 262.645699 
L 232.8543 262.528954 
L 233.550237 263.424 
L 234.594142 263.65749 
L 234.94211 263.424 
L 235.290079 263.34617 
L 237.029921 263.50183 
L 237.37789 264.163386 
L 237.725858 264.396876 
L 239.4657 264.708197 
L 239.813669 264.708197 
L 240.509605 264.824942 
L 241.901479 264.708197 
L 242.249448 264.786027 
L 242.945384 264.630367 
L 243.98929 264.474706 
L 244.685227 264.319046 
L 245.729132 264.280131 
L 246.0771 264.396876 
L 246.425069 264.357961 
L 246.773037 264.474706 
L 247.468974 264.357961 
L 248.164911 264.163386 
L 248.860848 263.968811 
L 249.208816 263.968811 
L 249.556785 263.73532 
L 250.948658 263.813151 
L 251.296627 263.852066 
L 251.992564 263.462915 
L 252.340532 263.57966 
L 252.6885 263.307255 
L 253.036469 263.50183 
L 253.384437 263.424 
L 253.732406 263.50183 
L 254.428343 264.007726 
L 254.776311 263.890981 
L 255.124279 264.124471 
L 255.472248 264.085556 
L 255.820216 263.462915 
L 256.864122 263.11268 
L 257.21209 262.840274 
L 257.560058 262.879189 
L 257.908027 262.684614 
L 258.603964 262.879189 
L 258.951932 262.762444 
L 259.647869 262.217633 
L 259.995837 261.439332 
L 261.387711 260.894522 
L 261.73568 259.999475 
L 262.083648 259.454665 
L 262.431616 259.72707 
L 262.779585 259.610325 
L 263.127553 259.065514 
L 263.475522 259.143344 
L 263.82349 259.065514 
L 264.519427 260.271881 
L 264.867395 259.610325 
L 265.215364 259.921645 
L 265.563332 260.505371 
L 265.911301 259.49358 
L 266.259269 259.49358 
L 266.607238 259.921645 
L 266.955206 259.688155 
L 267.303175 259.96056 
L 267.651143 258.948769 
L 267.999111 258.637449 
L 268.34708 259.104429 
L 269.043017 258.481788 
L 269.390985 257.898063 
L 269.738954 257.703487 
L 270.086922 258.598534 
L 270.782859 259.765985 
L 271.130827 258.987684 
L 271.478796 259.065514 
L 271.826764 259.96056 
L 272.174733 259.182259 
L 272.522701 259.33792 
L 272.870669 259.33792 
L 273.218638 259.182259 
L 273.566606 259.88273 
L 273.914575 260.077306 
L 274.262543 259.221174 
L 274.610512 260.349711 
L 275.306448 260.388626 
L 275.654417 260.116221 
L 276.002385 260.622116 
L 276.350354 260.232966 
L 276.698322 261.128012 
L 277.046291 261.283672 
L 277.394259 259.610325 
L 277.742227 259.843815 
L 278.090196 258.092638 
L 278.438164 257.508912 
L 278.786133 257.469997 
L 279.48207 254.901604 
L 279.830038 254.940519 
L 280.178006 252.994766 
L 280.525975 253.306086 
L 280.873943 253.228256 
L 281.221912 251.010098 
L 281.56988 249.842647 
L 282.613785 243.849729 
L 282.961754 243.343833 
L 283.309722 242.487702 
L 283.657691 242.487702 
L 284.353628 241.865061 
L 284.701596 242.604447 
L 285.049564 243.810814 
L 285.397533 243.927559 
L 285.745501 244.666945 
L 286.09347 246.534867 
L 286.441438 246.340292 
L 287.137375 242.915768 
L 287.485343 244.355624 
L 287.833312 242.682277 
L 289.225186 233.070259 
L 289.573154 233.420495 
L 289.921122 231.241252 
L 290.617059 231.708232 
L 291.312996 231.552572 
L 291.660965 234.626861 
L 292.008933 233.109174 
L 292.356901 232.447618 
L 292.70487 233.031344 
L 293.052838 234.043136 
L 293.400807 234.471201 
L 293.748775 235.521908 
L 294.096744 234.237711 
L 294.792681 235.638653 
L 295.140649 235.171672 
L 295.488617 235.599738 
L 296.184554 234.626861 
L 296.532523 235.210587 
L 296.880491 236.066718 
L 297.576428 238.868602 
L 298.272365 239.841478 
L 298.620333 239.724733 
L 298.968302 241.39808 
L 299.31627 242.448787 
L 299.664239 242.137466 
L 300.012207 243.071428 
L 300.360175 243.499493 
L 301.056112 244.70586 
L 301.404081 246.067887 
L 302.100018 246.962933 
L 302.447986 247.118593 
L 302.795954 246.962933 
L 303.491891 249.725902 
L 303.83986 251.632739 
L 304.187828 252.216465 
L 304.883765 254.629198 
L 305.92767 255.87448 
L 306.275639 254.979434 
L 306.623607 255.79665 
L 306.971576 255.135094 
L 307.319544 254.162218 
L 307.667512 253.773067 
L 308.015481 252.449955 
L 308.363449 249.842647 
L 308.711418 249.220006 
L 309.059386 245.250671 
L 310.103291 238.790772 
L 310.45126 234.860352 
L 311.147197 226.026635 
L 311.495165 225.715314 
L 312.53907 219.099756 
L 312.887039 220.850933 
L 313.235007 217.504238 
L 313.582976 212.562027 
L 313.930944 214.8191 
L 314.278913 209.020757 
L 314.626881 207.230665 
L 314.974849 196.217705 
L 315.322818 188.86276 
L 315.670786 185.632811 
L 316.018755 185.749556 
L 316.366723 184.231869 
L 316.714692 184.504274 
L 317.06266 178.005461 
L 317.410628 182.169371 
L 317.758597 181.780221 
L 318.106565 184.426444 
L 318.454534 182.519607 
L 318.802502 175.748387 
L 320.194376 194.894593 
L 320.542344 194.583273 
L 320.890313 195.906385 
L 321.238281 192.365115 
L 321.934218 175.475982 
L 322.282186 170.37811 
L 322.978123 148.585681 
L 323.326092 87.177729 
L 323.67406 95.34989 
L 324.022029 90.485508 
L 324.369997 88.26735 
L 324.717966 76.281514 
L 325.065934 57.174224 
L 325.413902 52.154182 
L 325.761871 98.385264 
L 326.109839 91.069234 
L 326.457808 99.397055 
L 327.849681 166.75901 
L 328.19765 188.045544 
L 328.545618 191.275493 
L 328.893587 193.376906 
L 329.241555 189.368656 
L 329.589524 192.71535 
L 329.937492 197.618647 
L 330.28546 195.984215 
L 330.633429 175.203577 
L 330.981397 167.459481 
L 331.677334 144.616346 
L 332.025303 140.919416 
L 332.721239 112.083362 
L 333.069208 108.892328 
L 333.765145 99.28031 
L 334.113113 103.093985 
L 334.461082 98.463094 
L 334.80905 98.774414 
L 335.157018 97.256727 
L 335.852955 116.013782 
L 336.200924 135.198903 
L 336.548892 139.868709 
L 336.896861 142.748423 
L 337.244829 156.329776 
L 337.592797 159.754301 
L 337.940766 139.246069 
L 338.288734 143.059744 
L 338.636703 138.662343 
L 338.984671 146.562098 
L 339.33264 158.66468 
L 339.680608 156.135201 
L 340.028576 165.007833 
L 340.376545 197.385156 
L 340.724513 198.124542 
L 341.072482 203.767225 
L 341.42045 199.758975 
L 341.768419 201.237747 
L 342.116387 206.102128 
L 342.464355 212.756602 
L 342.812324 215.091505 
L 343.160292 222.29079 
L 343.508261 223.146921 
L 343.856229 226.766021 
L 344.204198 226.571446 
L 344.552166 236.845019 
L 344.900134 233.77073 
L 345.596071 229.91814 
L 345.94404 230.968846 
L 346.292008 233.22592 
L 346.639977 231.708232 
L 346.987945 221.784894 
L 347.335913 225.793145 
L 347.683882 228.244793 
L 348.379819 229.334414 
L 348.727787 229.334414 
L 349.075756 230.346206 
L 349.423724 233.22592 
L 350.467629 231.435827 
L 350.815598 231.786063 
L 351.163566 231.708232 
L 351.511535 232.058468 
L 351.859503 232.097383 
L 352.903408 239.296668 
L 353.251377 240.619779 
L 353.599345 240.658694 
L 353.947314 241.359165 
L 354.295282 244.433455 
L 354.991219 247.702319 
L 355.339187 248.519535 
L 355.687156 248.753025 
L 356.035124 248.79194 
L 356.383093 249.064346 
L 356.731061 250.270712 
L 357.07903 249.803732 
L 357.426998 252.605615 
L 357.774966 251.554909 
L 358.122935 253.695237 
L 358.470903 253.695237 
L 359.16684 248.830855 
L 359.514809 246.729443 
L 359.862777 242.409872 
L 360.210745 241.08676 
L 360.906682 241.08676 
L 361.254651 245.484161 
L 361.602619 243.266003 
L 361.950588 239.491243 
L 362.298556 238.946432 
L 362.646524 240.9311 
L 363.342461 240.892185 
L 363.69043 233.498325 
L 364.038398 233.965306 
L 364.734335 243.927559 
L 365.082303 239.841478 
L 366.126209 240.036054 
L 366.474177 238.479452 
L 366.822146 235.911058 
L 367.170114 229.178754 
L 367.518082 231.474742 
L 368.214019 231.474742 
L 368.561988 229.373329 
L 368.909956 229.256584 
L 369.257925 228.205878 
L 369.605893 227.894557 
L 369.953861 226.999511 
L 370.649798 226.999511 
L 370.997767 226.766021 
L 372.041672 223.769562 
L 372.38964 223.302581 
L 373.085577 223.263666 
L 373.781514 224.859183 
L 374.129483 218.477115 
L 374.477451 216.336787 
L 374.825419 212.834432 
L 375.521356 212.873347 
L 375.869325 204.350951 
L 376.217293 202.483028 
L 376.565262 201.315577 
L 376.91323 200.654021 
L 377.261198 202.016048 
L 377.957135 201.977133 
L 378.305104 205.946468 
L 378.653072 207.230665 
L 379.349009 222.44645 
L 379.696977 226.260125 
L 380.392914 226.260125 
L 380.740883 232.369788 
L 381.43682 238.479452 
L 381.784788 237.778981 
L 382.132757 238.207046 
L 382.828693 238.245961 
L 383.176662 240.308459 
L 384.568536 246.028972 
L 385.264472 245.951142 
L 385.612441 251.049013 
L 385.960409 250.932268 
L 386.308378 250.504203 
L 386.656346 249.725902 
L 387.004315 250.115052 
L 387.700251 250.192882 
L 388.04822 246.106802 
L 388.744157 250.426373 
L 389.092125 251.905145 
L 389.788062 251.827314 
L 390.13603 251.788399 
L 390.483999 252.216465 
L 390.831967 252.25538 
L 391.179936 251.749484 
L 391.527904 252.216465 
L 392.571809 252.294295 
L 392.919778 252.878021 
L 393.267746 252.722361 
L 393.615715 253.228256 
L 393.963683 252.138635 
L 394.311652 251.905145 
L 395.007588 251.86623 
L 395.355557 251.165759 
L 395.703525 251.010098 
L 396.051494 249.920477 
L 396.747431 249.297836 
L 397.443367 249.336751 
L 398.139304 247.780149 
L 398.487273 249.220006 
L 398.487273 249.220006 
" clip-path="url(#p4d72918201)" style="fill: none; stroke: #1f77b4; stroke-width: 1.5; stroke-linecap: square"/>
   </g>
   <g id="patch_3">
    <path d="M 57.6 276.48 
L 57.6 41.472 
" style="fill: none; stroke: #000000; stroke-width: 0.8; stroke-linejoin: miter; stroke-linecap: square"/>
   </g>
   <g id="patch_4">
    <path d="M 414.72 276.48 
L 414.72 41.472 
" style="fill: none; stroke: #000000; stroke-width: 0.8; stroke-linejoin: miter; stroke-linecap: square"/>
   </g>
   <g id="patch_5">
    <path d="M 57.6 276.48 
L 414.72 276.48 
" style="fill: none; stroke: #000000; stroke-width: 0.8; stroke-linejoin: miter; stroke-linecap: square"/>
   </g>
   <g id="patch_6">
    <path d="M 57.6 41.472 
L 414.72 41.472 
" style="fill: none; stroke: #000000; stroke-width: 0.8; stroke-linejoin: miter; stroke-linecap: square"/>
   </g>
  </g>
  <g id="text_20">
   <!-- Inzidenzverlauf SK Regensburg -->
   <g transform="translate(90.646875 20.589187) scale(0.18 -0.18)">
    <defs>
     <path id="DejaVuSans-76" d="M 191 3500 
L 800 3500 
L 1894 563 
L 2988 3500 
L 3597 3500 
L 2284 0 
L 1503 0 
L 191 3500 
z
" transform="scale(0.015625)"/>
     <path id="DejaVuSans-6c" d="M 603 4863 
L 1178 4863 
L 1178 0 
L 603 0 
L 603 4863 
z
" transform="scale(0.015625)"/>
     <path id="DejaVuSans-75" d="M 544 1381 
L 544 3500 
L 1119 3500 
L 1119 1403 
Q 1119 906 1312 657 
Q 1506 409 1894 409 
Q 2359 409 2629 706 
Q 2900 1003 2900 1516 
L 2900 3500 
L 3475 3500 
L 3475 0 
L 2900 0 
L 2900 538 
Q 2691 219 2414 64 
Q 2138 -91 1772 -91 
Q 1169 -91 856 284 
Q 544 659 544 1381 
z
M 1991 3584 
L 1991 3584 
z
" transform="scale(0.015625)"/>
     <path id="DejaVuSans-66" d="M 2375 4863 
L 2375 4384 
L 1825 4384 
Q 1516 4384 1395 4259 
Q 1275 4134 1275 3809 
L 1275 3500 
L 2222 3500 
L 2222 3053 
L 1275 3053 
L 1275 0 
L 697 0 
L 697 3053 
L 147 3053 
L 147 3500 
L 697 3500 
L 697 3744 
Q 697 4328 969 4595 
Q 1241 4863 1831 4863 
L 2375 4863 
z
" transform="scale(0.015625)"/>
     <path id="DejaVuSans-53" d="M 3425 4513 
L 3425 3897 
Q 3066 4069 2747 4153 
Q 2428 4238 2131 4238 
Q 1616 4238 1336 4038 
Q 1056 3838 1056 3469 
Q 1056 3159 1242 3001 
Q 1428 2844 1947 2747 
L 2328 2669 
Q 3034 2534 3370 2195 
Q 3706 1856 3706 1288 
Q 3706 609 3251 259 
Q 2797 -91 1919 -91 
Q 1588 -91 1214 -16 
Q 841 59 441 206 
L 441 856 
Q 825 641 1194 531 
Q 1563 422 1919 422 
Q 2459 422 2753 634 
Q 3047 847 3047 1241 
Q 3047 1584 2836 1778 
Q 2625 1972 2144 2069 
L 1759 2144 
Q 1053 2284 737 2584 
Q 422 2884 422 3419 
Q 422 4038 858 4394 
Q 1294 4750 2059 4750 
Q 2388 4750 2728 4690 
Q 3069 4631 3425 4513 
z
" transform="scale(0.015625)"/>
     <path id="DejaVuSans-4b" d="M 628 4666 
L 1259 4666 
L 1259 2694 
L 3353 4666 
L 4166 4666 
L 1850 2491 
L 4331 0 
L 3500 0 
L 1259 2247 
L 1259 0 
L 628 0 
L 628 4666 
z
" transform="scale(0.015625)"/>
     <path id="DejaVuSans-52" d="M 2841 2188 
Q 3044 2119 3236 1894 
Q 3428 1669 3622 1275 
L 4263 0 
L 3584 0 
L 2988 1197 
Q 2756 1666 2539 1819 
Q 2322 1972 1947 1972 
L 1259 1972 
L 1259 0 
L 628 0 
L 628 4666 
L 2053 4666 
Q 2853 4666 3247 4331 
Q 3641 3997 3641 3322 
Q 3641 2881 3436 2590 
Q 3231 2300 2841 2188 
z
M 1259 4147 
L 1259 2491 
L 2053 2491 
Q 2509 2491 2742 2702 
Q 2975 2913 2975 3322 
Q 2975 3731 2742 3939 
Q 2509 4147 2053 4147 
L 1259 4147 
z
" transform="scale(0.015625)"/>
     <path id="DejaVuSans-73" d="M 2834 3397 
L 2834 2853 
Q 2591 2978 2328 3040 
Q 2066 3103 1784 3103 
Q 1356 3103 1142 2972 
Q 928 2841 928 2578 
Q 928 2378 1081 2264 
Q 1234 2150 1697 2047 
L 1894 2003 
Q 2506 1872 2764 1633 
Q 3022 1394 3022 966 
Q 3022 478 2636 193 
Q 2250 -91 1575 -91 
Q 1294 -91 989 -36 
Q 684 19 347 128 
L 347 722 
Q 666 556 975 473 
Q 1284 391 1588 391 
Q 1994 391 2212 530 
Q 2431 669 2431 922 
Q 2431 1156 2273 1281 
Q 2116 1406 1581 1522 
L 1381 1569 
Q 847 1681 609 1914 
Q 372 2147 372 2553 
Q 372 3047 722 3315 
Q 1072 3584 1716 3584 
Q 2034 3584 2315 3537 
Q 2597 3491 2834 3397 
z
" transform="scale(0.015625)"/>
     <path id="DejaVuSans-62" d="M 3116 1747 
Q 3116 2381 2855 2742 
Q 2594 3103 2138 3103 
Q 1681 3103 1420 2742 
Q 1159 2381 1159 1747 
Q 1159 1113 1420 752 
Q 1681 391 2138 391 
Q 2594 391 2855 752 
Q 3116 1113 3116 1747 
z
M 1159 2969 
Q 1341 3281 1617 3432 
Q 1894 3584 2278 3584 
Q 2916 3584 3314 3078 
Q 3713 2572 3713 1747 
Q 3713 922 3314 415 
Q 2916 -91 2278 -91 
Q 1894 -91 1617 61 
Q 1341 213 1159 525 
L 1159 0 
L 581 0 
L 581 4863 
L 1159 4863 
L 1159 2969 
z
" transform="scale(0.015625)"/>
    </defs>
    <use xlink:href="#DejaVuSans-49"/>
    <use xlink:href="#DejaVuSans-6e" x="29.492188"/>
    <use xlink:href="#DejaVuSans-7a" x="92.871094"/>
    <use xlink:href="#DejaVuSans-69" x="145.361328"/>
    <use xlink:href="#DejaVuSans-64" x="173.144531"/>
    <use xlink:href="#DejaVuSans-65" x="236.621094"/>
    <use xlink:href="#DejaVuSans-6e" x="298.144531"/>
    <use xlink:href="#DejaVuSans-7a" x="361.523438"/>
    <use xlink:href="#DejaVuSans-76" x="414.013672"/>
    <use xlink:href="#DejaVuSans-65" x="473.193359"/>
    <use xlink:href="#DejaVuSans-72" x="534.716797"/>
    <use xlink:href="#DejaVuSans-6c" x="575.830078"/>
    <use xlink:href="#DejaVuSans-61" x="603.613281"/>
    <use xlink:href="#DejaVuSans-75" x="664.892578"/>
    <use xlink:href="#DejaVuSans-66" x="728.271484"/>
    <use xlink:href="#DejaVuSans-20" x="763.476562"/>
    <use xlink:href="#DejaVuSans-53" x="795.263672"/>
    <use xlink:href="#DejaVuSans-4b" x="858.740234"/>
    <use xlink:href="#DejaVuSans-20" x="924.316406"/>
    <use xlink:href="#DejaVuSans-52" x="956.103516"/>
    <use xlink:href="#DejaVuSans-65" x="1021.085938"/>
    <use xlink:href="#DejaVuSans-67" x="1082.609375"/>
    <use xlink:href="#DejaVuSans-65" x="1146.085938"/>
    <use xlink:href="#DejaVuSans-6e" x="1207.609375"/>
    <use xlink:href="#DejaVuSans-73" x="1270.988281"/>
    <use xlink:href="#DejaVuSans-62" x="1323.087891"/>
    <use xlink:href="#DejaVuSans-75" x="1386.564453"/>
    <use xlink:href="#DejaVuSans-72" x="1449.943359"/>
    <use xlink:href="#DejaVuSans-67" x="1489.306641"/>
   </g>
  </g>
 </g>
 <defs>
  <clipPath id="p4d72918201">
   <rect x="57.6" y="41.472" width="357.12" height="235.008"/>
  </clipPath>
 </defs>
</svg>
