<?xml version="1.0" encoding="utf-8" standalone="no"?>
<!DOCTYPE svg PUBLIC "-//W3C//DTD SVG 1.1//EN"
  "http://www.w3.org/Graphics/SVG/1.1/DTD/svg11.dtd">
<svg xmlns:xlink="http://www.w3.org/1999/xlink" width="460.8pt" height="345.6pt" viewBox="0 0 460.8 345.6" xmlns="http://www.w3.org/2000/svg" version="1.1">
 <metadata>
  <rdf:RDF xmlns:dc="http://purl.org/dc/elements/1.1/" xmlns:cc="http://creativecommons.org/ns#" xmlns:rdf="http://www.w3.org/1999/02/22-rdf-syntax-ns#">
   <cc:Work>
    <dc:type rdf:resource="http://purl.org/dc/dcmitype/StillImage"/>
    <dc:date>2023-01-18T09:18:39.515456</dc:date>
    <dc:format>image/svg+xml</dc:format>
    <dc:creator>
     <cc:Agent>
      <dc:title>Matplotlib v3.6.3, https://matplotlib.org/</dc:title>
     </cc:Agent>
    </dc:creator>
   </cc:Work>
  </rdf:RDF>
 </metadata>
 <defs>
  <style type="text/css">*{stroke-linejoin: round; stroke-linecap: butt}</style>
 </defs>
 <g id="figure_1">
  <g id="patch_1">
   <path d="M 0 345.6 
L 460.8 345.6 
L 460.8 0 
L 0 0 
z
" style="fill: #ffffff"/>
  </g>
  <g id="axes_1">
   <g id="patch_2">
    <path d="M 57.6 276.48 
L 414.72 276.48 
L 414.72 41.472 
L 57.6 41.472 
z
" style="fill: #ffffff"/>
   </g>
   <g id="matplotlib.axis_1">
    <g id="xtick_1">
     <g id="line2d_1">
      <path d="M 58.477793 276.48 
L 58.477793 41.472 
" clip-path="url(#pcb93675dbc)" style="fill: none; stroke-dasharray: 2.96,1.28; stroke-dashoffset: 0; stroke: #808080; stroke-width: 0.8"/>
     </g>
     <g id="line2d_2">
      <defs>
       <path id="m6250545059" d="M 0 0 
L 0 3.5 
" style="stroke: #000000; stroke-width: 0.8"/>
      </defs>
      <g>
       <use xlink:href="#m6250545059" x="58.477793" y="276.48" style="stroke: #000000; stroke-width: 0.8"/>
      </g>
     </g>
     <g id="text_1">
      <!-- 13.01.2020 -->
      <g transform="translate(7.852582 318.688565) rotate(-30) scale(0.1 -0.1)">
       <defs>
        <path id="DejaVuSans-31" d="M 794 531 
L 1825 531 
L 1825 4091 
L 703 3866 
L 703 4441 
L 1819 4666 
L 2450 4666 
L 2450 531 
L 3481 531 
L 3481 0 
L 794 0 
L 794 531 
z
" transform="scale(0.015625)"/>
        <path id="DejaVuSans-33" d="M 2597 2516 
Q 3050 2419 3304 2112 
Q 3559 1806 3559 1356 
Q 3559 666 3084 287 
Q 2609 -91 1734 -91 
Q 1441 -91 1130 -33 
Q 819 25 488 141 
L 488 750 
Q 750 597 1062 519 
Q 1375 441 1716 441 
Q 2309 441 2620 675 
Q 2931 909 2931 1356 
Q 2931 1769 2642 2001 
Q 2353 2234 1838 2234 
L 1294 2234 
L 1294 2753 
L 1863 2753 
Q 2328 2753 2575 2939 
Q 2822 3125 2822 3475 
Q 2822 3834 2567 4026 
Q 2313 4219 1838 4219 
Q 1578 4219 1281 4162 
Q 984 4106 628 3988 
L 628 4550 
Q 988 4650 1302 4700 
Q 1616 4750 1894 4750 
Q 2613 4750 3031 4423 
Q 3450 4097 3450 3541 
Q 3450 3153 3228 2886 
Q 3006 2619 2597 2516 
z
" transform="scale(0.015625)"/>
        <path id="DejaVuSans-2e" d="M 684 794 
L 1344 794 
L 1344 0 
L 684 0 
L 684 794 
z
" transform="scale(0.015625)"/>
        <path id="DejaVuSans-30" d="M 2034 4250 
Q 1547 4250 1301 3770 
Q 1056 3291 1056 2328 
Q 1056 1369 1301 889 
Q 1547 409 2034 409 
Q 2525 409 2770 889 
Q 3016 1369 3016 2328 
Q 3016 3291 2770 3770 
Q 2525 4250 2034 4250 
z
M 2034 4750 
Q 2819 4750 3233 4129 
Q 3647 3509 3647 2328 
Q 3647 1150 3233 529 
Q 2819 -91 2034 -91 
Q 1250 -91 836 529 
Q 422 1150 422 2328 
Q 422 3509 836 4129 
Q 1250 4750 2034 4750 
z
" transform="scale(0.015625)"/>
        <path id="DejaVuSans-32" d="M 1228 531 
L 3431 531 
L 3431 0 
L 469 0 
L 469 531 
Q 828 903 1448 1529 
Q 2069 2156 2228 2338 
Q 2531 2678 2651 2914 
Q 2772 3150 2772 3378 
Q 2772 3750 2511 3984 
Q 2250 4219 1831 4219 
Q 1534 4219 1204 4116 
Q 875 4013 500 3803 
L 500 4441 
Q 881 4594 1212 4672 
Q 1544 4750 1819 4750 
Q 2544 4750 2975 4387 
Q 3406 4025 3406 3419 
Q 3406 3131 3298 2873 
Q 3191 2616 2906 2266 
Q 2828 2175 2409 1742 
Q 1991 1309 1228 531 
z
" transform="scale(0.015625)"/>
       </defs>
       <use xlink:href="#DejaVuSans-31"/>
       <use xlink:href="#DejaVuSans-33" x="63.623047"/>
       <use xlink:href="#DejaVuSans-2e" x="127.246094"/>
       <use xlink:href="#DejaVuSans-30" x="159.033203"/>
       <use xlink:href="#DejaVuSans-31" x="222.65625"/>
       <use xlink:href="#DejaVuSans-2e" x="286.279297"/>
       <use xlink:href="#DejaVuSans-32" x="318.066406"/>
       <use xlink:href="#DejaVuSans-30" x="381.689453"/>
       <use xlink:href="#DejaVuSans-32" x="445.3125"/>
       <use xlink:href="#DejaVuSans-30" x="508.935547"/>
      </g>
     </g>
    </g>
    <g id="xtick_2">
     <g id="line2d_3">
      <path d="M 94.310264 276.48 
L 94.310264 41.472 
" clip-path="url(#pcb93675dbc)" style="fill: none; stroke-dasharray: 2.96,1.28; stroke-dashoffset: 0; stroke: #808080; stroke-width: 0.8"/>
     </g>
     <g id="line2d_4">
      <g>
       <use xlink:href="#m6250545059" x="94.310264" y="276.48" style="stroke: #000000; stroke-width: 0.8"/>
      </g>
     </g>
     <g id="text_2">
      <!-- 08.05.2020 -->
      <g transform="translate(43.685053 318.688565) rotate(-30) scale(0.1 -0.1)">
       <defs>
        <path id="DejaVuSans-38" d="M 2034 2216 
Q 1584 2216 1326 1975 
Q 1069 1734 1069 1313 
Q 1069 891 1326 650 
Q 1584 409 2034 409 
Q 2484 409 2743 651 
Q 3003 894 3003 1313 
Q 3003 1734 2745 1975 
Q 2488 2216 2034 2216 
z
M 1403 2484 
Q 997 2584 770 2862 
Q 544 3141 544 3541 
Q 544 4100 942 4425 
Q 1341 4750 2034 4750 
Q 2731 4750 3128 4425 
Q 3525 4100 3525 3541 
Q 3525 3141 3298 2862 
Q 3072 2584 2669 2484 
Q 3125 2378 3379 2068 
Q 3634 1759 3634 1313 
Q 3634 634 3220 271 
Q 2806 -91 2034 -91 
Q 1263 -91 848 271 
Q 434 634 434 1313 
Q 434 1759 690 2068 
Q 947 2378 1403 2484 
z
M 1172 3481 
Q 1172 3119 1398 2916 
Q 1625 2713 2034 2713 
Q 2441 2713 2670 2916 
Q 2900 3119 2900 3481 
Q 2900 3844 2670 4047 
Q 2441 4250 2034 4250 
Q 1625 4250 1398 4047 
Q 1172 3844 1172 3481 
z
" transform="scale(0.015625)"/>
        <path id="DejaVuSans-35" d="M 691 4666 
L 3169 4666 
L 3169 4134 
L 1269 4134 
L 1269 2991 
Q 1406 3038 1543 3061 
Q 1681 3084 1819 3084 
Q 2600 3084 3056 2656 
Q 3513 2228 3513 1497 
Q 3513 744 3044 326 
Q 2575 -91 1722 -91 
Q 1428 -91 1123 -41 
Q 819 9 494 109 
L 494 744 
Q 775 591 1075 516 
Q 1375 441 1709 441 
Q 2250 441 2565 725 
Q 2881 1009 2881 1497 
Q 2881 1984 2565 2268 
Q 2250 2553 1709 2553 
Q 1456 2553 1204 2497 
Q 953 2441 691 2322 
L 691 4666 
z
" transform="scale(0.015625)"/>
       </defs>
       <use xlink:href="#DejaVuSans-30"/>
       <use xlink:href="#DejaVuSans-38" x="63.623047"/>
       <use xlink:href="#DejaVuSans-2e" x="127.246094"/>
       <use xlink:href="#DejaVuSans-30" x="159.033203"/>
       <use xlink:href="#DejaVuSans-35" x="222.65625"/>
       <use xlink:href="#DejaVuSans-2e" x="286.279297"/>
       <use xlink:href="#DejaVuSans-32" x="318.066406"/>
       <use xlink:href="#DejaVuSans-30" x="381.689453"/>
       <use xlink:href="#DejaVuSans-32" x="445.3125"/>
       <use xlink:href="#DejaVuSans-30" x="508.935547"/>
      </g>
     </g>
    </g>
    <g id="xtick_3">
     <g id="line2d_5">
      <path d="M 130.142735 276.48 
L 130.142735 41.472 
" clip-path="url(#pcb93675dbc)" style="fill: none; stroke-dasharray: 2.96,1.28; stroke-dashoffset: 0; stroke: #808080; stroke-width: 0.8"/>
     </g>
     <g id="line2d_6">
      <g>
       <use xlink:href="#m6250545059" x="130.142735" y="276.48" style="stroke: #000000; stroke-width: 0.8"/>
      </g>
     </g>
     <g id="text_3">
      <!-- 01.09.2020 -->
      <g transform="translate(79.517524 318.688565) rotate(-30) scale(0.1 -0.1)">
       <defs>
        <path id="DejaVuSans-39" d="M 703 97 
L 703 672 
Q 941 559 1184 500 
Q 1428 441 1663 441 
Q 2288 441 2617 861 
Q 2947 1281 2994 2138 
Q 2813 1869 2534 1725 
Q 2256 1581 1919 1581 
Q 1219 1581 811 2004 
Q 403 2428 403 3163 
Q 403 3881 828 4315 
Q 1253 4750 1959 4750 
Q 2769 4750 3195 4129 
Q 3622 3509 3622 2328 
Q 3622 1225 3098 567 
Q 2575 -91 1691 -91 
Q 1453 -91 1209 -44 
Q 966 3 703 97 
z
M 1959 2075 
Q 2384 2075 2632 2365 
Q 2881 2656 2881 3163 
Q 2881 3666 2632 3958 
Q 2384 4250 1959 4250 
Q 1534 4250 1286 3958 
Q 1038 3666 1038 3163 
Q 1038 2656 1286 2365 
Q 1534 2075 1959 2075 
z
" transform="scale(0.015625)"/>
       </defs>
       <use xlink:href="#DejaVuSans-30"/>
       <use xlink:href="#DejaVuSans-31" x="63.623047"/>
       <use xlink:href="#DejaVuSans-2e" x="127.246094"/>
       <use xlink:href="#DejaVuSans-30" x="159.033203"/>
       <use xlink:href="#DejaVuSans-39" x="222.65625"/>
       <use xlink:href="#DejaVuSans-2e" x="286.279297"/>
       <use xlink:href="#DejaVuSans-32" x="318.066406"/>
       <use xlink:href="#DejaVuSans-30" x="381.689453"/>
       <use xlink:href="#DejaVuSans-32" x="445.3125"/>
       <use xlink:href="#DejaVuSans-30" x="508.935547"/>
      </g>
     </g>
    </g>
    <g id="xtick_4">
     <g id="line2d_7">
      <path d="M 165.975206 276.48 
L 165.975206 41.472 
" clip-path="url(#pcb93675dbc)" style="fill: none; stroke-dasharray: 2.96,1.28; stroke-dashoffset: 0; stroke: #808080; stroke-width: 0.8"/>
     </g>
     <g id="line2d_8">
      <g>
       <use xlink:href="#m6250545059" x="165.975206" y="276.48" style="stroke: #000000; stroke-width: 0.8"/>
      </g>
     </g>
     <g id="text_4">
      <!-- 26.12.2020 -->
      <g transform="translate(115.349996 318.688565) rotate(-30) scale(0.1 -0.1)">
       <defs>
        <path id="DejaVuSans-36" d="M 2113 2584 
Q 1688 2584 1439 2293 
Q 1191 2003 1191 1497 
Q 1191 994 1439 701 
Q 1688 409 2113 409 
Q 2538 409 2786 701 
Q 3034 994 3034 1497 
Q 3034 2003 2786 2293 
Q 2538 2584 2113 2584 
z
M 3366 4563 
L 3366 3988 
Q 3128 4100 2886 4159 
Q 2644 4219 2406 4219 
Q 1781 4219 1451 3797 
Q 1122 3375 1075 2522 
Q 1259 2794 1537 2939 
Q 1816 3084 2150 3084 
Q 2853 3084 3261 2657 
Q 3669 2231 3669 1497 
Q 3669 778 3244 343 
Q 2819 -91 2113 -91 
Q 1303 -91 875 529 
Q 447 1150 447 2328 
Q 447 3434 972 4092 
Q 1497 4750 2381 4750 
Q 2619 4750 2861 4703 
Q 3103 4656 3366 4563 
z
" transform="scale(0.015625)"/>
       </defs>
       <use xlink:href="#DejaVuSans-32"/>
       <use xlink:href="#DejaVuSans-36" x="63.623047"/>
       <use xlink:href="#DejaVuSans-2e" x="127.246094"/>
       <use xlink:href="#DejaVuSans-31" x="159.033203"/>
       <use xlink:href="#DejaVuSans-32" x="222.65625"/>
       <use xlink:href="#DejaVuSans-2e" x="286.279297"/>
       <use xlink:href="#DejaVuSans-32" x="318.066406"/>
       <use xlink:href="#DejaVuSans-30" x="381.689453"/>
       <use xlink:href="#DejaVuSans-32" x="445.3125"/>
       <use xlink:href="#DejaVuSans-30" x="508.935547"/>
      </g>
     </g>
    </g>
    <g id="xtick_5">
     <g id="line2d_9">
      <path d="M 201.807678 276.48 
L 201.807678 41.472 
" clip-path="url(#pcb93675dbc)" style="fill: none; stroke-dasharray: 2.96,1.28; stroke-dashoffset: 0; stroke: #808080; stroke-width: 0.8"/>
     </g>
     <g id="line2d_10">
      <g>
       <use xlink:href="#m6250545059" x="201.807678" y="276.48" style="stroke: #000000; stroke-width: 0.8"/>
      </g>
     </g>
     <g id="text_5">
      <!-- 21.04.2021 -->
      <g transform="translate(151.182467 318.688565) rotate(-30) scale(0.1 -0.1)">
       <defs>
        <path id="DejaVuSans-34" d="M 2419 4116 
L 825 1625 
L 2419 1625 
L 2419 4116 
z
M 2253 4666 
L 3047 4666 
L 3047 1625 
L 3713 1625 
L 3713 1100 
L 3047 1100 
L 3047 0 
L 2419 0 
L 2419 1100 
L 313 1100 
L 313 1709 
L 2253 4666 
z
" transform="scale(0.015625)"/>
       </defs>
       <use xlink:href="#DejaVuSans-32"/>
       <use xlink:href="#DejaVuSans-31" x="63.623047"/>
       <use xlink:href="#DejaVuSans-2e" x="127.246094"/>
       <use xlink:href="#DejaVuSans-30" x="159.033203"/>
       <use xlink:href="#DejaVuSans-34" x="222.65625"/>
       <use xlink:href="#DejaVuSans-2e" x="286.279297"/>
       <use xlink:href="#DejaVuSans-32" x="318.066406"/>
       <use xlink:href="#DejaVuSans-30" x="381.689453"/>
       <use xlink:href="#DejaVuSans-32" x="445.3125"/>
       <use xlink:href="#DejaVuSans-31" x="508.935547"/>
      </g>
     </g>
    </g>
    <g id="xtick_6">
     <g id="line2d_11">
      <path d="M 237.640149 276.48 
L 237.640149 41.472 
" clip-path="url(#pcb93675dbc)" style="fill: none; stroke-dasharray: 2.96,1.28; stroke-dashoffset: 0; stroke: #808080; stroke-width: 0.8"/>
     </g>
     <g id="line2d_12">
      <g>
       <use xlink:href="#m6250545059" x="237.640149" y="276.48" style="stroke: #000000; stroke-width: 0.8"/>
      </g>
     </g>
     <g id="text_6">
      <!-- 15.08.2021 -->
      <g transform="translate(187.014938 318.688565) rotate(-30) scale(0.1 -0.1)">
       <use xlink:href="#DejaVuSans-31"/>
       <use xlink:href="#DejaVuSans-35" x="63.623047"/>
       <use xlink:href="#DejaVuSans-2e" x="127.246094"/>
       <use xlink:href="#DejaVuSans-30" x="159.033203"/>
       <use xlink:href="#DejaVuSans-38" x="222.65625"/>
       <use xlink:href="#DejaVuSans-2e" x="286.279297"/>
       <use xlink:href="#DejaVuSans-32" x="318.066406"/>
       <use xlink:href="#DejaVuSans-30" x="381.689453"/>
       <use xlink:href="#DejaVuSans-32" x="445.3125"/>
       <use xlink:href="#DejaVuSans-31" x="508.935547"/>
      </g>
     </g>
    </g>
    <g id="xtick_7">
     <g id="line2d_13">
      <path d="M 273.47262 276.48 
L 273.47262 41.472 
" clip-path="url(#pcb93675dbc)" style="fill: none; stroke-dasharray: 2.96,1.28; stroke-dashoffset: 0; stroke: #808080; stroke-width: 0.8"/>
     </g>
     <g id="line2d_14">
      <g>
       <use xlink:href="#m6250545059" x="273.47262" y="276.48" style="stroke: #000000; stroke-width: 0.8"/>
      </g>
     </g>
     <g id="text_7">
      <!-- 09.12.2021 -->
      <g transform="translate(222.847409 318.688565) rotate(-30) scale(0.1 -0.1)">
       <use xlink:href="#DejaVuSans-30"/>
       <use xlink:href="#DejaVuSans-39" x="63.623047"/>
       <use xlink:href="#DejaVuSans-2e" x="127.246094"/>
       <use xlink:href="#DejaVuSans-31" x="159.033203"/>
       <use xlink:href="#DejaVuSans-32" x="222.65625"/>
       <use xlink:href="#DejaVuSans-2e" x="286.279297"/>
       <use xlink:href="#DejaVuSans-32" x="318.066406"/>
       <use xlink:href="#DejaVuSans-30" x="381.689453"/>
       <use xlink:href="#DejaVuSans-32" x="445.3125"/>
       <use xlink:href="#DejaVuSans-31" x="508.935547"/>
      </g>
     </g>
    </g>
    <g id="xtick_8">
     <g id="line2d_15">
      <path d="M 309.305091 276.48 
L 309.305091 41.472 
" clip-path="url(#pcb93675dbc)" style="fill: none; stroke-dasharray: 2.96,1.28; stroke-dashoffset: 0; stroke: #808080; stroke-width: 0.8"/>
     </g>
     <g id="line2d_16">
      <g>
       <use xlink:href="#m6250545059" x="309.305091" y="276.48" style="stroke: #000000; stroke-width: 0.8"/>
      </g>
     </g>
     <g id="text_8">
      <!-- 04.04.2022 -->
      <g transform="translate(258.67988 318.688565) rotate(-30) scale(0.1 -0.1)">
       <use xlink:href="#DejaVuSans-30"/>
       <use xlink:href="#DejaVuSans-34" x="63.623047"/>
       <use xlink:href="#DejaVuSans-2e" x="127.246094"/>
       <use xlink:href="#DejaVuSans-30" x="159.033203"/>
       <use xlink:href="#DejaVuSans-34" x="222.65625"/>
       <use xlink:href="#DejaVuSans-2e" x="286.279297"/>
       <use xlink:href="#DejaVuSans-32" x="318.066406"/>
       <use xlink:href="#DejaVuSans-30" x="381.689453"/>
       <use xlink:href="#DejaVuSans-32" x="445.3125"/>
       <use xlink:href="#DejaVuSans-32" x="508.935547"/>
      </g>
     </g>
    </g>
    <g id="xtick_9">
     <g id="line2d_17">
      <path d="M 345.137562 276.48 
L 345.137562 41.472 
" clip-path="url(#pcb93675dbc)" style="fill: none; stroke-dasharray: 2.96,1.28; stroke-dashoffset: 0; stroke: #808080; stroke-width: 0.8"/>
     </g>
     <g id="line2d_18">
      <g>
       <use xlink:href="#m6250545059" x="345.137562" y="276.48" style="stroke: #000000; stroke-width: 0.8"/>
      </g>
     </g>
     <g id="text_9">
      <!-- 29.07.2022 -->
      <g transform="translate(294.512352 318.688565) rotate(-30) scale(0.1 -0.1)">
       <defs>
        <path id="DejaVuSans-37" d="M 525 4666 
L 3525 4666 
L 3525 4397 
L 1831 0 
L 1172 0 
L 2766 4134 
L 525 4134 
L 525 4666 
z
" transform="scale(0.015625)"/>
       </defs>
       <use xlink:href="#DejaVuSans-32"/>
       <use xlink:href="#DejaVuSans-39" x="63.623047"/>
       <use xlink:href="#DejaVuSans-2e" x="127.246094"/>
       <use xlink:href="#DejaVuSans-30" x="159.033203"/>
       <use xlink:href="#DejaVuSans-37" x="222.65625"/>
       <use xlink:href="#DejaVuSans-2e" x="286.279297"/>
       <use xlink:href="#DejaVuSans-32" x="318.066406"/>
       <use xlink:href="#DejaVuSans-30" x="381.689453"/>
       <use xlink:href="#DejaVuSans-32" x="445.3125"/>
       <use xlink:href="#DejaVuSans-32" x="508.935547"/>
      </g>
     </g>
    </g>
    <g id="xtick_10">
     <g id="line2d_19">
      <path d="M 380.970034 276.48 
L 380.970034 41.472 
" clip-path="url(#pcb93675dbc)" style="fill: none; stroke-dasharray: 2.96,1.28; stroke-dashoffset: 0; stroke: #808080; stroke-width: 0.8"/>
     </g>
     <g id="line2d_20">
      <g>
       <use xlink:href="#m6250545059" x="380.970034" y="276.48" style="stroke: #000000; stroke-width: 0.8"/>
      </g>
     </g>
     <g id="text_10">
      <!-- 22.11.2022 -->
      <g transform="translate(330.344823 318.688565) rotate(-30) scale(0.1 -0.1)">
       <use xlink:href="#DejaVuSans-32"/>
       <use xlink:href="#DejaVuSans-32" x="63.623047"/>
       <use xlink:href="#DejaVuSans-2e" x="127.246094"/>
       <use xlink:href="#DejaVuSans-31" x="159.033203"/>
       <use xlink:href="#DejaVuSans-31" x="222.65625"/>
       <use xlink:href="#DejaVuSans-2e" x="286.279297"/>
       <use xlink:href="#DejaVuSans-32" x="318.066406"/>
       <use xlink:href="#DejaVuSans-30" x="381.689453"/>
       <use xlink:href="#DejaVuSans-32" x="445.3125"/>
       <use xlink:href="#DejaVuSans-32" x="508.935547"/>
      </g>
     </g>
    </g>
   </g>
   <g id="matplotlib.axis_2">
    <g id="ytick_1">
     <g id="line2d_21">
      <path d="M 57.6 265.797818 
L 414.72 265.797818 
" clip-path="url(#pcb93675dbc)" style="fill: none; stroke-dasharray: 2.96,1.28; stroke-dashoffset: 0; stroke: #808080; stroke-width: 0.8"/>
     </g>
     <g id="line2d_22">
      <defs>
       <path id="md43930a226" d="M 0 0 
L -3.5 0 
" style="stroke: #000000; stroke-width: 0.8"/>
      </defs>
      <g>
       <use xlink:href="#md43930a226" x="57.6" y="265.797818" style="stroke: #000000; stroke-width: 0.8"/>
      </g>
     </g>
     <g id="text_11">
      <!-- 0 -->
      <g transform="translate(44.2375 269.597037) scale(0.1 -0.1)">
       <use xlink:href="#DejaVuSans-30"/>
      </g>
     </g>
    </g>
    <g id="ytick_2">
     <g id="line2d_23">
      <path d="M 57.6 217.986257 
L 414.72 217.986257 
" clip-path="url(#pcb93675dbc)" style="fill: none; stroke-dasharray: 2.96,1.28; stroke-dashoffset: 0; stroke: #808080; stroke-width: 0.8"/>
     </g>
     <g id="line2d_24">
      <g>
       <use xlink:href="#md43930a226" x="57.6" y="217.986257" style="stroke: #000000; stroke-width: 0.8"/>
      </g>
     </g>
     <g id="text_12">
      <!-- 500 -->
      <g transform="translate(31.5125 221.785476) scale(0.1 -0.1)">
       <use xlink:href="#DejaVuSans-35"/>
       <use xlink:href="#DejaVuSans-30" x="63.623047"/>
       <use xlink:href="#DejaVuSans-30" x="127.246094"/>
      </g>
     </g>
    </g>
    <g id="ytick_3">
     <g id="line2d_25">
      <path d="M 57.6 170.174697 
L 414.72 170.174697 
" clip-path="url(#pcb93675dbc)" style="fill: none; stroke-dasharray: 2.96,1.28; stroke-dashoffset: 0; stroke: #808080; stroke-width: 0.8"/>
     </g>
     <g id="line2d_26">
      <g>
       <use xlink:href="#md43930a226" x="57.6" y="170.174697" style="stroke: #000000; stroke-width: 0.8"/>
      </g>
     </g>
     <g id="text_13">
      <!-- 1000 -->
      <g transform="translate(25.15 173.973915) scale(0.1 -0.1)">
       <use xlink:href="#DejaVuSans-31"/>
       <use xlink:href="#DejaVuSans-30" x="63.623047"/>
       <use xlink:href="#DejaVuSans-30" x="127.246094"/>
       <use xlink:href="#DejaVuSans-30" x="190.869141"/>
      </g>
     </g>
    </g>
    <g id="ytick_4">
     <g id="line2d_27">
      <path d="M 57.6 122.363136 
L 414.72 122.363136 
" clip-path="url(#pcb93675dbc)" style="fill: none; stroke-dasharray: 2.96,1.28; stroke-dashoffset: 0; stroke: #808080; stroke-width: 0.8"/>
     </g>
     <g id="line2d_28">
      <g>
       <use xlink:href="#md43930a226" x="57.6" y="122.363136" style="stroke: #000000; stroke-width: 0.8"/>
      </g>
     </g>
     <g id="text_14">
      <!-- 1500 -->
      <g transform="translate(25.15 126.162355) scale(0.1 -0.1)">
       <use xlink:href="#DejaVuSans-31"/>
       <use xlink:href="#DejaVuSans-35" x="63.623047"/>
       <use xlink:href="#DejaVuSans-30" x="127.246094"/>
       <use xlink:href="#DejaVuSans-30" x="190.869141"/>
      </g>
     </g>
    </g>
    <g id="ytick_5">
     <g id="line2d_29">
      <path d="M 57.6 74.551575 
L 414.72 74.551575 
" clip-path="url(#pcb93675dbc)" style="fill: none; stroke-dasharray: 2.96,1.28; stroke-dashoffset: 0; stroke: #808080; stroke-width: 0.8"/>
     </g>
     <g id="line2d_30">
      <g>
       <use xlink:href="#md43930a226" x="57.6" y="74.551575" style="stroke: #000000; stroke-width: 0.8"/>
      </g>
     </g>
     <g id="text_15">
      <!-- 2000 -->
      <g transform="translate(25.15 78.350794) scale(0.1 -0.1)">
       <use xlink:href="#DejaVuSans-32"/>
       <use xlink:href="#DejaVuSans-30" x="63.623047"/>
       <use xlink:href="#DejaVuSans-30" x="127.246094"/>
       <use xlink:href="#DejaVuSans-30" x="190.869141"/>
      </g>
     </g>
    </g>
    <g id="text_16">
     <!-- Inzidenz pro 7 Tage pro 100.000 Einwohner -->
     <g transform="translate(19.070312 267.301) rotate(-90) scale(0.1 -0.1)">
      <defs>
       <path id="DejaVuSans-49" d="M 628 4666 
L 1259 4666 
L 1259 0 
L 628 0 
L 628 4666 
z
" transform="scale(0.015625)"/>
       <path id="DejaVuSans-6e" d="M 3513 2113 
L 3513 0 
L 2938 0 
L 2938 2094 
Q 2938 2591 2744 2837 
Q 2550 3084 2163 3084 
Q 1697 3084 1428 2787 
Q 1159 2491 1159 1978 
L 1159 0 
L 581 0 
L 581 3500 
L 1159 3500 
L 1159 2956 
Q 1366 3272 1645 3428 
Q 1925 3584 2291 3584 
Q 2894 3584 3203 3211 
Q 3513 2838 3513 2113 
z
" transform="scale(0.015625)"/>
       <path id="DejaVuSans-7a" d="M 353 3500 
L 3084 3500 
L 3084 2975 
L 922 459 
L 3084 459 
L 3084 0 
L 275 0 
L 275 525 
L 2438 3041 
L 353 3041 
L 353 3500 
z
" transform="scale(0.015625)"/>
       <path id="DejaVuSans-69" d="M 603 3500 
L 1178 3500 
L 1178 0 
L 603 0 
L 603 3500 
z
M 603 4863 
L 1178 4863 
L 1178 4134 
L 603 4134 
L 603 4863 
z
" transform="scale(0.015625)"/>
       <path id="DejaVuSans-64" d="M 2906 2969 
L 2906 4863 
L 3481 4863 
L 3481 0 
L 2906 0 
L 2906 525 
Q 2725 213 2448 61 
Q 2172 -91 1784 -91 
Q 1150 -91 751 415 
Q 353 922 353 1747 
Q 353 2572 751 3078 
Q 1150 3584 1784 3584 
Q 2172 3584 2448 3432 
Q 2725 3281 2906 2969 
z
M 947 1747 
Q 947 1113 1208 752 
Q 1469 391 1925 391 
Q 2381 391 2643 752 
Q 2906 1113 2906 1747 
Q 2906 2381 2643 2742 
Q 2381 3103 1925 3103 
Q 1469 3103 1208 2742 
Q 947 2381 947 1747 
z
" transform="scale(0.015625)"/>
       <path id="DejaVuSans-65" d="M 3597 1894 
L 3597 1613 
L 953 1613 
Q 991 1019 1311 708 
Q 1631 397 2203 397 
Q 2534 397 2845 478 
Q 3156 559 3463 722 
L 3463 178 
Q 3153 47 2828 -22 
Q 2503 -91 2169 -91 
Q 1331 -91 842 396 
Q 353 884 353 1716 
Q 353 2575 817 3079 
Q 1281 3584 2069 3584 
Q 2775 3584 3186 3129 
Q 3597 2675 3597 1894 
z
M 3022 2063 
Q 3016 2534 2758 2815 
Q 2500 3097 2075 3097 
Q 1594 3097 1305 2825 
Q 1016 2553 972 2059 
L 3022 2063 
z
" transform="scale(0.015625)"/>
       <path id="DejaVuSans-20" transform="scale(0.015625)"/>
       <path id="DejaVuSans-70" d="M 1159 525 
L 1159 -1331 
L 581 -1331 
L 581 3500 
L 1159 3500 
L 1159 2969 
Q 1341 3281 1617 3432 
Q 1894 3584 2278 3584 
Q 2916 3584 3314 3078 
Q 3713 2572 3713 1747 
Q 3713 922 3314 415 
Q 2916 -91 2278 -91 
Q 1894 -91 1617 61 
Q 1341 213 1159 525 
z
M 3116 1747 
Q 3116 2381 2855 2742 
Q 2594 3103 2138 3103 
Q 1681 3103 1420 2742 
Q 1159 2381 1159 1747 
Q 1159 1113 1420 752 
Q 1681 391 2138 391 
Q 2594 391 2855 752 
Q 3116 1113 3116 1747 
z
" transform="scale(0.015625)"/>
       <path id="DejaVuSans-72" d="M 2631 2963 
Q 2534 3019 2420 3045 
Q 2306 3072 2169 3072 
Q 1681 3072 1420 2755 
Q 1159 2438 1159 1844 
L 1159 0 
L 581 0 
L 581 3500 
L 1159 3500 
L 1159 2956 
Q 1341 3275 1631 3429 
Q 1922 3584 2338 3584 
Q 2397 3584 2469 3576 
Q 2541 3569 2628 3553 
L 2631 2963 
z
" transform="scale(0.015625)"/>
       <path id="DejaVuSans-6f" d="M 1959 3097 
Q 1497 3097 1228 2736 
Q 959 2375 959 1747 
Q 959 1119 1226 758 
Q 1494 397 1959 397 
Q 2419 397 2687 759 
Q 2956 1122 2956 1747 
Q 2956 2369 2687 2733 
Q 2419 3097 1959 3097 
z
M 1959 3584 
Q 2709 3584 3137 3096 
Q 3566 2609 3566 1747 
Q 3566 888 3137 398 
Q 2709 -91 1959 -91 
Q 1206 -91 779 398 
Q 353 888 353 1747 
Q 353 2609 779 3096 
Q 1206 3584 1959 3584 
z
" transform="scale(0.015625)"/>
       <path id="DejaVuSans-54" d="M -19 4666 
L 3928 4666 
L 3928 4134 
L 2272 4134 
L 2272 0 
L 1638 0 
L 1638 4134 
L -19 4134 
L -19 4666 
z
" transform="scale(0.015625)"/>
       <path id="DejaVuSans-61" d="M 2194 1759 
Q 1497 1759 1228 1600 
Q 959 1441 959 1056 
Q 959 750 1161 570 
Q 1363 391 1709 391 
Q 2188 391 2477 730 
Q 2766 1069 2766 1631 
L 2766 1759 
L 2194 1759 
z
M 3341 1997 
L 3341 0 
L 2766 0 
L 2766 531 
Q 2569 213 2275 61 
Q 1981 -91 1556 -91 
Q 1019 -91 701 211 
Q 384 513 384 1019 
Q 384 1609 779 1909 
Q 1175 2209 1959 2209 
L 2766 2209 
L 2766 2266 
Q 2766 2663 2505 2880 
Q 2244 3097 1772 3097 
Q 1472 3097 1187 3025 
Q 903 2953 641 2809 
L 641 3341 
Q 956 3463 1253 3523 
Q 1550 3584 1831 3584 
Q 2591 3584 2966 3190 
Q 3341 2797 3341 1997 
z
" transform="scale(0.015625)"/>
       <path id="DejaVuSans-67" d="M 2906 1791 
Q 2906 2416 2648 2759 
Q 2391 3103 1925 3103 
Q 1463 3103 1205 2759 
Q 947 2416 947 1791 
Q 947 1169 1205 825 
Q 1463 481 1925 481 
Q 2391 481 2648 825 
Q 2906 1169 2906 1791 
z
M 3481 434 
Q 3481 -459 3084 -895 
Q 2688 -1331 1869 -1331 
Q 1566 -1331 1297 -1286 
Q 1028 -1241 775 -1147 
L 775 -588 
Q 1028 -725 1275 -790 
Q 1522 -856 1778 -856 
Q 2344 -856 2625 -561 
Q 2906 -266 2906 331 
L 2906 616 
Q 2728 306 2450 153 
Q 2172 0 1784 0 
Q 1141 0 747 490 
Q 353 981 353 1791 
Q 353 2603 747 3093 
Q 1141 3584 1784 3584 
Q 2172 3584 2450 3431 
Q 2728 3278 2906 2969 
L 2906 3500 
L 3481 3500 
L 3481 434 
z
" transform="scale(0.015625)"/>
       <path id="DejaVuSans-45" d="M 628 4666 
L 3578 4666 
L 3578 4134 
L 1259 4134 
L 1259 2753 
L 3481 2753 
L 3481 2222 
L 1259 2222 
L 1259 531 
L 3634 531 
L 3634 0 
L 628 0 
L 628 4666 
z
" transform="scale(0.015625)"/>
       <path id="DejaVuSans-77" d="M 269 3500 
L 844 3500 
L 1563 769 
L 2278 3500 
L 2956 3500 
L 3675 769 
L 4391 3500 
L 4966 3500 
L 4050 0 
L 3372 0 
L 2619 2869 
L 1863 0 
L 1184 0 
L 269 3500 
z
" transform="scale(0.015625)"/>
       <path id="DejaVuSans-68" d="M 3513 2113 
L 3513 0 
L 2938 0 
L 2938 2094 
Q 2938 2591 2744 2837 
Q 2550 3084 2163 3084 
Q 1697 3084 1428 2787 
Q 1159 2491 1159 1978 
L 1159 0 
L 581 0 
L 581 4863 
L 1159 4863 
L 1159 2956 
Q 1366 3272 1645 3428 
Q 1925 3584 2291 3584 
Q 2894 3584 3203 3211 
Q 3513 2838 3513 2113 
z
" transform="scale(0.015625)"/>
      </defs>
      <use xlink:href="#DejaVuSans-49"/>
      <use xlink:href="#DejaVuSans-6e" x="29.492188"/>
      <use xlink:href="#DejaVuSans-7a" x="92.871094"/>
      <use xlink:href="#DejaVuSans-69" x="145.361328"/>
      <use xlink:href="#DejaVuSans-64" x="173.144531"/>
      <use xlink:href="#DejaVuSans-65" x="236.621094"/>
      <use xlink:href="#DejaVuSans-6e" x="298.144531"/>
      <use xlink:href="#DejaVuSans-7a" x="361.523438"/>
      <use xlink:href="#DejaVuSans-20" x="414.013672"/>
      <use xlink:href="#DejaVuSans-70" x="445.800781"/>
      <use xlink:href="#DejaVuSans-72" x="509.277344"/>
      <use xlink:href="#DejaVuSans-6f" x="548.140625"/>
      <use xlink:href="#DejaVuSans-20" x="609.322266"/>
      <use xlink:href="#DejaVuSans-37" x="641.109375"/>
      <use xlink:href="#DejaVuSans-20" x="704.732422"/>
      <use xlink:href="#DejaVuSans-54" x="736.519531"/>
      <use xlink:href="#DejaVuSans-61" x="781.103516"/>
      <use xlink:href="#DejaVuSans-67" x="842.382812"/>
      <use xlink:href="#DejaVuSans-65" x="905.859375"/>
      <use xlink:href="#DejaVuSans-20" x="967.382812"/>
      <use xlink:href="#DejaVuSans-70" x="999.169922"/>
      <use xlink:href="#DejaVuSans-72" x="1062.646484"/>
      <use xlink:href="#DejaVuSans-6f" x="1101.509766"/>
      <use xlink:href="#DejaVuSans-20" x="1162.691406"/>
      <use xlink:href="#DejaVuSans-31" x="1194.478516"/>
      <use xlink:href="#DejaVuSans-30" x="1258.101562"/>
      <use xlink:href="#DejaVuSans-30" x="1321.724609"/>
      <use xlink:href="#DejaVuSans-2e" x="1385.347656"/>
      <use xlink:href="#DejaVuSans-30" x="1417.134766"/>
      <use xlink:href="#DejaVuSans-30" x="1480.757812"/>
      <use xlink:href="#DejaVuSans-30" x="1544.380859"/>
      <use xlink:href="#DejaVuSans-20" x="1608.003906"/>
      <use xlink:href="#DejaVuSans-45" x="1639.791016"/>
      <use xlink:href="#DejaVuSans-69" x="1702.974609"/>
      <use xlink:href="#DejaVuSans-6e" x="1730.757812"/>
      <use xlink:href="#DejaVuSans-77" x="1794.136719"/>
      <use xlink:href="#DejaVuSans-6f" x="1875.923828"/>
      <use xlink:href="#DejaVuSans-68" x="1937.105469"/>
      <use xlink:href="#DejaVuSans-6e" x="2000.484375"/>
      <use xlink:href="#DejaVuSans-65" x="2063.863281"/>
      <use xlink:href="#DejaVuSans-72" x="2125.386719"/>
     </g>
    </g>
   </g>
   <g id="line2d_31">
    <path d="M 73.832727 265.797818 
L 75.06833 265.797818 
L 75.37723 265.546473 
L 75.995032 265.546473 
L 76.303932 265.4208 
L 76.921733 265.4208 
L 77.230634 265.295127 
L 77.539535 265.4208 
L 78.157336 265.4208 
L 78.466236 265.546473 
L 79.392938 265.546473 
L 79.701839 265.672145 
L 81.246342 265.672145 
L 81.555243 265.797818 
L 82.173044 265.797818 
L 82.481944 265.672145 
L 82.790845 265.672145 
L 83.408646 265.4208 
L 83.717547 265.043782 
L 84.026448 265.043782 
L 84.335348 264.918109 
L 84.644249 265.043782 
L 84.953149 264.918109 
L 85.570951 265.169455 
L 85.879851 265.546473 
L 86.188752 265.4208 
L 86.497652 265.546473 
L 87.424354 265.546473 
L 87.733255 265.4208 
L 88.042156 265.4208 
L 88.351056 265.546473 
L 88.968857 265.546473 
L 89.277758 265.672145 
L 89.586659 265.672145 
L 89.895559 265.797818 
L 90.51336 265.546473 
L 90.822261 265.546473 
L 91.748963 265.169455 
L 92.057864 265.169455 
L 92.675665 265.4208 
L 92.984565 265.4208 
L 93.602367 265.672145 
L 93.911267 265.672145 
L 94.837969 265.295127 
L 95.764671 265.295127 
L 97.000273 265.797818 
L 101.942683 265.797818 
L 102.251584 265.672145 
L 104.104987 265.672145 
L 104.413888 265.797818 
L 110.283 265.797818 
L 110.5919 265.672145 
L 112.445304 265.672145 
L 112.754205 265.797818 
L 119.858919 265.797818 
L 120.167819 265.546473 
L 120.47672 265.546473 
L 120.785621 265.169455 
L 122.639024 265.169455 
L 122.947925 265.546473 
L 124.183527 265.546473 
L 124.492428 265.797818 
L 127.272534 265.797818 
L 127.581434 265.672145 
L 127.890335 265.4208 
L 128.199235 265.4208 
L 128.508136 265.043782 
L 128.817037 264.289745 
L 129.434838 264.289745 
L 130.052639 264.541091 
L 130.36154 264.541091 
L 130.67044 264.918109 
L 130.979341 265.672145 
L 131.906043 265.672145 
L 132.214943 265.797818 
L 132.832745 265.797818 
L 133.141645 265.672145 
L 133.759446 265.672145 
L 134.068347 265.546473 
L 134.995049 264.918109 
L 135.921751 264.918109 
L 136.230651 265.043782 
L 136.539552 265.295127 
L 136.848453 265.295127 
L 137.157353 265.169455 
L 137.775154 265.169455 
L 138.084055 265.043782 
L 139.010757 265.043782 
L 139.319657 265.4208 
L 139.628558 265.4208 
L 139.937459 265.169455 
L 140.864161 265.169455 
L 141.173061 265.295127 
L 141.481962 265.169455 
L 141.790862 265.169455 
L 142.099763 265.4208 
L 143.026465 265.4208 
L 143.335365 265.295127 
L 143.644266 265.4208 
L 144.879869 265.4208 
L 145.80657 265.043782 
L 146.115471 264.666764 
L 146.733272 263.410036 
L 147.351073 263.410036 
L 147.659974 263.661382 
L 147.968875 263.284364 
L 148.277775 263.284364 
L 148.586676 263.410036 
L 148.895577 263.912727 
L 149.204477 263.661382 
L 149.513378 263.661382 
L 149.822278 263.158691 
L 150.44008 261.022255 
L 150.74898 261.022255 
L 151.057881 260.645236 
L 151.675682 261.022255 
L 151.984583 260.393891 
L 152.602384 261.776291 
L 153.220185 261.524945 
L 153.529086 261.524945 
L 153.837986 261.399273 
L 154.146887 262.404655 
L 154.455788 262.404655 
L 154.764688 261.650618 
L 155.073589 260.142545 
L 155.382489 259.639855 
L 155.69139 253.984582 
L 156.000291 253.104873 
L 156.309191 251.219782 
L 156.618092 250.2144 
L 156.926992 250.842764 
L 157.235893 252.602182 
L 157.544794 253.607564 
L 157.853694 259.262836 
L 159.089297 262.530327 
L 159.398197 262.656 
L 160.324899 261.650618 
L 161.869402 256.246691 
L 162.178303 256.246691 
L 162.487204 255.618327 
L 162.796104 251.848145 
L 163.105005 253.104873 
L 163.413905 249.963055 
L 163.722806 249.963055 
L 164.031707 250.2144 
L 164.649508 248.203636 
L 164.958408 252.853527 
L 165.267309 252.099491 
L 165.57621 255.492655 
L 165.88511 257.252073 
L 166.194011 256.749382 
L 166.502912 257.880436 
L 166.811812 258.383127 
L 167.120713 257.629091 
L 167.738514 258.5088 
L 168.047415 258.383127 
L 168.356315 259.8912 
L 168.665216 260.016873 
L 169.283017 261.2736 
L 169.591918 259.137164 
L 169.900818 259.765527 
L 170.209719 256.749382 
L 170.82752 256.372364 
L 171.136421 254.487273 
L 171.445321 254.612945 
L 171.754222 255.618327 
L 172.063123 253.858909 
L 172.372023 254.3616 
L 172.989824 253.733236 
L 173.298725 255.618327 
L 173.607626 255.366982 
L 173.916526 254.3616 
L 174.225427 255.366982 
L 174.534327 256.875055 
L 175.152129 257.1264 
L 175.461029 256.246691 
L 175.76993 255.995345 
L 176.078831 257.754764 
L 176.387731 258.131782 
L 176.696632 258.006109 
L 177.005532 257.754764 
L 177.314433 258.131782 
L 178.241135 260.519564 
L 178.550035 260.393891 
L 178.858936 261.650618 
L 179.167837 262.153309 
L 179.476737 262.278982 
L 179.785638 262.656 
L 180.094539 261.147927 
L 180.403439 258.131782 
L 180.71234 258.5088 
L 181.02124 257.880436 
L 181.330141 256.875055 
L 181.947942 256.121018 
L 182.256843 257.503418 
L 182.565743 259.639855 
L 182.874644 259.137164 
L 183.183545 257.252073 
L 183.492445 257.880436 
L 183.801346 257.880436 
L 184.110247 257.754764 
L 184.419147 257.503418 
L 184.728048 257.629091 
L 185.036948 255.869673 
L 185.345849 257.629091 
L 185.65475 256.749382 
L 185.96365 257.1264 
L 186.272551 257.252073 
L 186.581451 257.000727 
L 186.890352 258.131782 
L 187.199253 260.519564 
L 187.508153 260.770909 
L 187.817054 261.2736 
L 188.125955 260.393891 
L 188.434855 260.268218 
L 188.743756 260.645236 
L 189.361557 259.765527 
L 189.670458 257.000727 
L 189.979358 258.006109 
L 190.288259 258.5088 
L 190.90606 257.629091 
L 191.214961 255.241309 
L 191.523861 254.612945 
L 191.832762 255.366982 
L 192.141662 254.612945 
L 192.450563 254.989964 
L 193.068364 255.241309 
L 193.377265 257.000727 
L 193.686166 256.372364 
L 194.303967 257.754764 
L 194.612867 257.629091 
L 194.921768 257.629091 
L 195.230669 257.000727 
L 195.84847 257.880436 
L 196.15737 259.137164 
L 196.775172 258.5088 
L 197.084072 259.514182 
L 197.392973 259.765527 
L 197.701874 258.885818 
L 198.010774 259.262836 
L 198.319675 258.131782 
L 198.628575 257.880436 
L 198.937476 258.131782 
L 199.246377 256.875055 
L 199.555277 254.612945 
L 199.864178 254.738618 
L 200.173078 255.241309 
L 200.481979 256.246691 
L 200.79088 256.372364 
L 201.408681 255.492655 
L 201.717582 257.377745 
L 202.026482 257.1264 
L 202.953184 253.984582 
L 203.262085 254.487273 
L 203.570985 255.492655 
L 203.879886 254.989964 
L 204.188786 256.121018 
L 204.497687 256.623709 
L 204.806588 256.875055 
L 205.115488 257.754764 
L 205.424389 257.754764 
L 205.73329 258.006109 
L 206.04219 259.639855 
L 206.351091 259.388509 
L 206.659991 260.645236 
L 206.968892 261.2736 
L 207.277793 261.399273 
L 207.586693 261.2736 
L 207.895594 261.650618 
L 208.204494 261.650618 
L 208.513395 262.404655 
L 208.822296 262.027636 
L 209.440097 262.656 
L 209.748997 262.530327 
L 210.366799 263.410036 
L 210.675699 263.158691 
L 210.9846 263.284364 
L 211.602401 262.907345 
L 211.911302 263.158691 
L 212.220202 263.033018 
L 212.529103 263.033018 
L 212.838004 263.535709 
L 213.146904 263.158691 
L 213.455805 261.650618 
L 213.764705 262.027636 
L 214.073606 262.153309 
L 214.382507 262.027636 
L 215.000308 262.530327 
L 215.309209 263.033018 
L 215.618109 265.043782 
L 215.92701 265.169455 
L 218.089314 265.169455 
L 218.398215 265.043782 
L 219.016016 265.4208 
L 219.324917 265.4208 
L 219.633817 265.672145 
L 220.251618 265.672145 
L 220.560519 265.797818 
L 224.576227 265.797818 
L 224.885128 265.672145 
L 226.738531 265.672145 
L 227.047432 265.797818 
L 227.974134 265.043782 
L 228.591935 264.164073 
L 228.900836 263.912727 
L 229.209736 263.912727 
L 229.827537 263.410036 
L 230.136438 263.410036 
L 230.445339 263.535709 
L 231.06314 264.0384 
L 231.37204 264.0384 
L 231.680941 264.164073 
L 231.989842 264.164073 
L 232.298742 264.415418 
L 232.916544 264.164073 
L 233.843245 264.164073 
L 234.152146 264.0384 
L 234.461047 264.164073 
L 234.769947 264.0384 
L 235.078848 264.164073 
L 235.696649 263.284364 
L 236.00555 263.410036 
L 236.31445 263.661382 
L 236.623351 263.410036 
L 236.932252 264.0384 
L 237.241152 263.661382 
L 237.550053 263.787055 
L 237.858953 264.289745 
L 238.476755 263.033018 
L 238.785655 263.158691 
L 239.094556 262.781673 
L 239.403456 263.158691 
L 239.712357 263.033018 
L 240.021258 262.781673 
L 240.639059 263.410036 
L 240.94796 262.404655 
L 241.25686 262.530327 
L 241.565761 261.650618 
L 241.874661 261.524945 
L 242.183562 260.142545 
L 242.492463 260.142545 
L 242.801363 259.137164 
L 243.110264 259.639855 
L 243.419164 259.011491 
L 243.728065 259.514182 
L 244.036966 259.137164 
L 244.345866 260.645236 
L 244.963668 260.016873 
L 245.272568 258.257455 
L 245.581469 258.006109 
L 245.890369 256.749382 
L 246.508171 256.121018 
L 246.817071 255.366982 
L 247.125972 255.241309 
L 247.434872 256.372364 
L 247.743773 255.995345 
L 248.361574 257.880436 
L 248.670475 257.880436 
L 249.288276 259.639855 
L 249.597177 260.268218 
L 249.906077 260.393891 
L 250.214978 260.896582 
L 250.832779 261.2736 
L 251.14168 261.399273 
L 251.45058 261.776291 
L 251.759481 261.901964 
L 252.068382 262.781673 
L 252.377282 262.656 
L 252.686183 262.656 
L 252.995083 263.033018 
L 253.303984 263.158691 
L 253.921785 262.530327 
L 254.230686 262.781673 
L 254.539587 262.027636 
L 254.848487 261.901964 
L 255.157388 261.901964 
L 255.466288 261.776291 
L 255.775189 262.153309 
L 256.39299 261.901964 
L 256.701891 262.907345 
L 257.010791 262.781673 
L 257.319692 262.530327 
L 257.628593 262.027636 
L 257.937493 262.027636 
L 258.246394 262.530327 
L 259.173096 260.142545 
L 259.790897 259.8912 
L 260.408698 256.372364 
L 261.026499 256.623709 
L 261.3354 256.623709 
L 261.644301 256.749382 
L 261.953201 256.121018 
L 262.571003 258.257455 
L 262.879903 256.875055 
L 263.188804 257.1264 
L 263.497704 257.1264 
L 263.806605 257.377745 
L 264.115506 258.131782 
L 264.424406 258.383127 
L 264.733307 257.754764 
L 265.042207 257.503418 
L 265.351108 257.000727 
L 265.660009 257.000727 
L 265.968909 256.246691 
L 266.895611 251.471127 
L 267.204512 252.225164 
L 267.513412 249.586036 
L 267.822313 248.580655 
L 268.131214 248.077964 
L 268.440114 248.580655 
L 269.057915 251.848145 
L 269.366816 252.350836 
L 269.675717 253.858909 
L 269.984617 254.3616 
L 270.602418 256.372364 
L 270.911319 255.618327 
L 271.22022 253.858909 
L 271.52912 253.230545 
L 272.455822 249.083345 
L 272.764723 249.209018 
L 273.073623 249.711709 
L 273.382524 249.837382 
L 274.309226 251.973818 
L 274.618126 252.9792 
L 274.927027 248.706327 
L 275.235928 247.072582 
L 275.544828 247.575273 
L 275.853729 246.946909 
L 276.16263 248.706327 
L 276.47153 249.711709 
L 276.780431 250.088727 
L 277.089331 253.607564 
L 277.707133 256.749382 
L 278.016033 258.5088 
L 278.633834 259.514182 
L 278.942735 259.262836 
L 279.251636 259.388509 
L 279.560536 259.639855 
L 279.869437 256.372364 
L 280.178338 255.115636 
L 280.796139 251.722473 
L 281.105039 251.345455 
L 281.41394 248.203636 
L 281.722841 242.045673 
L 282.031741 241.165964 
L 282.340642 239.532218 
L 282.649542 236.641745 
L 283.576244 232.871564 
L 283.885145 233.122909 
L 284.194045 231.363491 
L 284.502946 227.593309 
L 284.811847 227.467636 
L 285.120747 226.7136 
L 285.429648 224.828509 
L 285.738549 225.456873 
L 286.047449 226.587927 
L 286.66525 217.288145 
L 286.974151 214.774691 
L 287.283052 210.250473 
L 287.591952 208.365382 
L 287.900853 205.097891 
L 288.209753 191.776582 
L 288.518654 189.514473 
L 288.827555 184.738909 
L 289.136455 177.701236 
L 289.445356 176.695855 
L 289.754257 172.045964 
L 290.063157 171.543273 
L 290.372058 167.773091 
L 290.680958 158.347636 
L 290.989859 154.703127 
L 291.60766 137.611636 
L 291.916561 135.4752 
L 292.225461 124.793018 
L 292.534362 125.295709 
L 292.843263 121.399855 
L 293.152163 122.153891 
L 293.769965 140.250764 
L 294.078865 148.419491 
L 294.696666 153.949091 
L 295.314468 169.783855 
L 295.623368 170.0352 
L 296.241169 173.051345 
L 296.55007 165.133964 
L 296.858971 172.548655 
L 297.167871 175.816145 
L 297.476772 173.302691 
L 297.785673 174.810764 
L 298.094573 175.187782 
L 298.403474 174.936436 
L 298.712374 179.963345 
L 299.021275 172.171636 
L 299.330176 169.029818 
L 299.639076 168.024436 
L 299.947977 164.002909 
L 300.256877 163.500218 
L 301.183579 150.807273 
L 301.49248 149.801891 
L 301.801381 140.753455 
L 302.110281 136.983273 
L 302.419182 136.606255 
L 302.728082 135.349527 
L 303.036983 135.977891 
L 303.345884 135.4752 
L 303.654784 130.699636 
L 303.963685 132.836073 
L 304.581486 121.274182 
L 304.890387 119.012073 
L 305.199287 107.073164 
L 305.508188 102.423273 
L 305.817088 90.358691 
L 306.125989 69.371345 
L 306.43489 72.387491 
L 306.74379 52.782545 
L 307.052691 52.154182 
L 307.361592 75.780655 
L 307.670492 73.141527 
L 307.979393 61.328291 
L 308.288293 68.617309 
L 308.597194 63.716073 
L 308.906095 78.168436 
L 309.214995 83.572364 
L 309.523896 77.037382 
L 309.832796 81.435927 
L 310.450598 111.9744 
L 310.759498 118.132364 
L 311.068399 117.755345 
L 311.3773 115.493236 
L 311.995101 125.547055 
L 312.304001 136.606255 
L 312.612902 137.988655 
L 312.921803 145.780364 
L 313.230703 157.216582 
L 313.539604 150.053236 
L 314.157405 166.390691 
L 314.466306 169.532509 
L 314.775206 152.189673 
L 315.084107 144.774982 
L 315.393008 142.512873 
L 315.701908 153.823418 
L 316.010809 146.785745 
L 316.62861 136.8576 
L 316.937511 159.855709 
L 317.246411 170.914909 
L 317.555312 172.171636 
L 317.864212 172.045964 
L 318.173113 174.308073 
L 318.482014 177.826909 
L 318.790914 189.137455 
L 319.099815 190.519855 
L 319.717616 195.798109 
L 320.026517 194.667055 
L 321.262119 209.245091 
L 321.57102 209.245091 
L 321.87992 210.501818 
L 322.188821 213.769309 
L 322.497722 209.119418 
L 322.806622 213.769309 
L 323.115523 214.900364 
L 323.733324 223.823127 
L 324.042225 224.200145 
L 324.351125 222.943418 
L 324.660026 229.227055 
L 324.968927 231.614836 
L 325.277827 231.991855 
L 325.586728 233.122909 
L 325.895628 232.620218 
L 326.204529 234.756655 
L 326.51343 234.630982 
L 326.82233 233.751273 
L 327.131231 233.751273 
L 327.440131 235.887709 
L 327.749032 234.128291 
L 328.057933 233.499927 
L 328.366833 232.117527 
L 328.675734 234.253964 
L 328.984635 235.259345 
L 329.293535 230.986473 
L 329.602436 224.325818 
L 329.911336 220.429964 
L 330.220237 220.932655 
L 330.529138 218.293527 
L 330.838038 216.911127 
L 331.146939 210.376145 
L 331.455839 207.988364 
L 331.76474 207.737018 
L 332.073641 208.993745 
L 332.382541 204.469527 
L 332.691442 205.474909 
L 333.000343 199.568291 
L 333.309243 196.803491 
L 333.618144 192.530618 
L 333.927044 192.656291 
L 334.235945 185.492945 
L 334.544846 180.968727 
L 334.853746 180.340364 
L 335.162647 180.340364 
L 335.471547 174.685091 
L 335.780448 176.821527 
L 336.089349 175.062109 
L 336.70715 184.990255 
L 337.016051 188.760436 
L 337.324951 189.765818 
L 337.633852 196.803491 
L 337.942752 199.316945 
L 338.869454 191.525236 
L 339.178355 184.236218 
L 339.487255 190.645527 
L 339.796156 190.645527 
L 340.105057 188.886109 
L 340.413957 189.640145 
L 340.722858 189.640145 
L 341.031758 195.044073 
L 341.64956 190.7712 
L 342.267361 186.498327 
L 342.885162 189.640145 
L 343.194063 183.356509 
L 343.502963 188.509091 
L 344.120765 193.913018 
L 344.429665 195.421091 
L 344.738566 199.316945 
L 345.665268 204.720873 
L 345.974168 201.579055 
L 346.283069 203.464145 
L 346.59197 207.485673 
L 346.90087 206.480291 
L 347.209771 208.7424 
L 347.518671 215.403055 
L 347.827572 215.277382 
L 348.136473 215.528727 
L 348.445373 217.916509 
L 349.063174 226.336582 
L 349.372075 227.467636 
L 349.680976 226.7136 
L 349.989876 227.593309 
L 350.298777 227.341964 
L 350.607678 228.598691 
L 350.916578 227.970327 
L 351.225479 228.096 
L 351.534379 228.724364 
L 351.84328 230.232436 
L 352.152181 230.986473 
L 352.461081 232.494545 
L 353.078882 237.144436 
L 353.387783 238.149818 
L 353.696684 239.909236 
L 354.005584 238.652509 
L 354.314485 238.275491 
L 354.932286 238.275491 
L 355.241187 239.1552 
L 355.550087 238.652509 
L 355.858988 238.652509 
L 356.167889 241.040291 
L 356.476789 240.788945 
L 356.78569 242.548364 
L 357.09459 242.799709 
L 357.403491 240.160582 
L 357.712392 242.925382 
L 358.330193 237.144436 
L 358.639094 237.395782 
L 358.947994 236.893091 
L 359.256895 234.128291 
L 359.565795 234.128291 
L 359.874696 230.986473 
L 360.183597 234.756655 
L 360.492497 235.008 
L 360.801398 234.002618 
L 361.110298 232.494545 
L 361.419199 235.133673 
L 362.037 237.144436 
L 362.345901 233.876945 
L 362.654801 234.630982 
L 362.963702 236.767418 
L 363.272603 238.024145 
L 364.199305 228.096 
L 364.508205 228.096 
L 364.817106 225.456873 
L 365.126006 219.927273 
L 365.434907 219.8016 
L 365.743808 222.063709 
L 366.052708 222.063709 
L 366.670509 207.234327 
L 366.97941 199.442618 
L 367.288311 202.710109 
L 367.906112 192.530618 
L 368.215013 181.848436 
L 368.523913 184.864582 
L 368.832814 185.744291 
L 369.141714 190.519855 
L 369.450615 183.8592 
L 369.759516 183.607855 
L 370.068416 183.8592 
L 370.377317 180.843055 
L 370.686217 180.340364 
L 370.995118 177.324218 
L 371.304019 176.444509 
L 371.92182 184.361891 
L 372.230721 183.607855 
L 373.157422 204.720873 
L 373.466323 210.376145 
L 374.084124 214.020655 
L 374.393025 218.544873 
L 374.701925 229.227055 
L 375.010826 225.3312 
L 375.319727 225.079855 
L 375.628627 225.708218 
L 375.937528 227.467636 
L 376.246429 226.839273 
L 376.555329 229.604073 
L 376.86423 225.205527 
L 377.482031 236.767418 
L 377.790932 236.893091 
L 378.099832 236.767418 
L 378.408733 237.270109 
L 378.717633 235.636364 
L 379.026534 238.526836 
L 379.335435 240.034909 
L 379.644335 239.909236 
L 380.262136 241.291636 
L 380.571037 240.914618 
L 380.879938 242.045673 
L 381.188838 240.034909 
L 381.497739 235.510691 
L 381.80664 232.871564 
L 382.11554 231.363491 
L 382.424441 225.708218 
L 382.733341 223.446109 
L 383.351143 217.665164 
L 383.968944 213.140945 
L 384.277844 212.638255 
L 384.586745 216.911127 
L 384.895646 216.911127 
L 385.204546 218.921891 
L 385.513447 217.916509 
L 385.822348 218.4192 
L 386.131248 219.298909 
L 386.440149 218.4192 
L 386.749049 215.780073 
L 387.05795 216.911127 
L 387.366851 216.408436 
L 387.675751 213.894982 
L 387.984652 214.020655 
L 388.293552 213.517964 
L 388.602453 212.386909 
L 388.911354 213.643636 
L 389.220254 213.517964 
L 389.529155 211.130182 
L 389.838056 213.894982 
L 390.146956 212.763927 
L 390.455857 212.135564 
L 390.764757 211.004509 
L 391.073658 211.381527 
L 391.382559 212.135564 
L 391.691459 216.911127 
L 392.00036 225.959564 
L 392.927062 238.149818 
L 393.544863 240.914618 
L 393.853764 241.291636 
L 394.162664 239.657891 
L 394.780465 246.569891 
L 395.089366 248.580655 
L 395.398267 248.957673 
L 395.707167 249.711709 
L 396.016068 240.160582 
L 396.324968 239.532218 
L 396.94277 240.663273 
L 397.25167 240.663273 
L 397.560571 242.422691 
L 397.869471 241.794327 
L 398.178372 251.722473 
L 398.487273 253.230545 
L 398.487273 253.230545 
" clip-path="url(#pcb93675dbc)" style="fill: none; stroke: #1f77b4; stroke-width: 1.5; stroke-linecap: square"/>
   </g>
   <g id="patch_3">
    <path d="M 57.6 276.48 
L 57.6 41.472 
" style="fill: none; stroke: #000000; stroke-width: 0.8; stroke-linejoin: miter; stroke-linecap: square"/>
   </g>
   <g id="patch_4">
    <path d="M 414.72 276.48 
L 414.72 41.472 
" style="fill: none; stroke: #000000; stroke-width: 0.8; stroke-linejoin: miter; stroke-linecap: square"/>
   </g>
   <g id="patch_5">
    <path d="M 57.6 276.48 
L 414.72 276.48 
" style="fill: none; stroke: #000000; stroke-width: 0.8; stroke-linejoin: miter; stroke-linecap: square"/>
   </g>
   <g id="patch_6">
    <path d="M 57.6 41.472 
L 414.72 41.472 
" style="fill: none; stroke: #000000; stroke-width: 0.8; stroke-linejoin: miter; stroke-linecap: square"/>
   </g>
  </g>
  <g id="text_17">
   <!-- Inzidenzverlauf SK Wilhelmshaven -->
   <g transform="translate(75.668906 20.589187) scale(0.18 -0.18)">
    <defs>
     <path id="DejaVuSans-76" d="M 191 3500 
L 800 3500 
L 1894 563 
L 2988 3500 
L 3597 3500 
L 2284 0 
L 1503 0 
L 191 3500 
z
" transform="scale(0.015625)"/>
     <path id="DejaVuSans-6c" d="M 603 4863 
L 1178 4863 
L 1178 0 
L 603 0 
L 603 4863 
z
" transform="scale(0.015625)"/>
     <path id="DejaVuSans-75" d="M 544 1381 
L 544 3500 
L 1119 3500 
L 1119 1403 
Q 1119 906 1312 657 
Q 1506 409 1894 409 
Q 2359 409 2629 706 
Q 2900 1003 2900 1516 
L 2900 3500 
L 3475 3500 
L 3475 0 
L 2900 0 
L 2900 538 
Q 2691 219 2414 64 
Q 2138 -91 1772 -91 
Q 1169 -91 856 284 
Q 544 659 544 1381 
z
M 1991 3584 
L 1991 3584 
z
" transform="scale(0.015625)"/>
     <path id="DejaVuSans-66" d="M 2375 4863 
L 2375 4384 
L 1825 4384 
Q 1516 4384 1395 4259 
Q 1275 4134 1275 3809 
L 1275 3500 
L 2222 3500 
L 2222 3053 
L 1275 3053 
L 1275 0 
L 697 0 
L 697 3053 
L 147 3053 
L 147 3500 
L 697 3500 
L 697 3744 
Q 697 4328 969 4595 
Q 1241 4863 1831 4863 
L 2375 4863 
z
" transform="scale(0.015625)"/>
     <path id="DejaVuSans-53" d="M 3425 4513 
L 3425 3897 
Q 3066 4069 2747 4153 
Q 2428 4238 2131 4238 
Q 1616 4238 1336 4038 
Q 1056 3838 1056 3469 
Q 1056 3159 1242 3001 
Q 1428 2844 1947 2747 
L 2328 2669 
Q 3034 2534 3370 2195 
Q 3706 1856 3706 1288 
Q 3706 609 3251 259 
Q 2797 -91 1919 -91 
Q 1588 -91 1214 -16 
Q 841 59 441 206 
L 441 856 
Q 825 641 1194 531 
Q 1563 422 1919 422 
Q 2459 422 2753 634 
Q 3047 847 3047 1241 
Q 3047 1584 2836 1778 
Q 2625 1972 2144 2069 
L 1759 2144 
Q 1053 2284 737 2584 
Q 422 2884 422 3419 
Q 422 4038 858 4394 
Q 1294 4750 2059 4750 
Q 2388 4750 2728 4690 
Q 3069 4631 3425 4513 
z
" transform="scale(0.015625)"/>
     <path id="DejaVuSans-4b" d="M 628 4666 
L 1259 4666 
L 1259 2694 
L 3353 4666 
L 4166 4666 
L 1850 2491 
L 4331 0 
L 3500 0 
L 1259 2247 
L 1259 0 
L 628 0 
L 628 4666 
z
" transform="scale(0.015625)"/>
     <path id="DejaVuSans-57" d="M 213 4666 
L 850 4666 
L 1831 722 
L 2809 4666 
L 3519 4666 
L 4500 722 
L 5478 4666 
L 6119 4666 
L 4947 0 
L 4153 0 
L 3169 4050 
L 2175 0 
L 1381 0 
L 213 4666 
z
" transform="scale(0.015625)"/>
     <path id="DejaVuSans-6d" d="M 3328 2828 
Q 3544 3216 3844 3400 
Q 4144 3584 4550 3584 
Q 5097 3584 5394 3201 
Q 5691 2819 5691 2113 
L 5691 0 
L 5113 0 
L 5113 2094 
Q 5113 2597 4934 2840 
Q 4756 3084 4391 3084 
Q 3944 3084 3684 2787 
Q 3425 2491 3425 1978 
L 3425 0 
L 2847 0 
L 2847 2094 
Q 2847 2600 2669 2842 
Q 2491 3084 2119 3084 
Q 1678 3084 1418 2786 
Q 1159 2488 1159 1978 
L 1159 0 
L 581 0 
L 581 3500 
L 1159 3500 
L 1159 2956 
Q 1356 3278 1631 3431 
Q 1906 3584 2284 3584 
Q 2666 3584 2933 3390 
Q 3200 3197 3328 2828 
z
" transform="scale(0.015625)"/>
     <path id="DejaVuSans-73" d="M 2834 3397 
L 2834 2853 
Q 2591 2978 2328 3040 
Q 2066 3103 1784 3103 
Q 1356 3103 1142 2972 
Q 928 2841 928 2578 
Q 928 2378 1081 2264 
Q 1234 2150 1697 2047 
L 1894 2003 
Q 2506 1872 2764 1633 
Q 3022 1394 3022 966 
Q 3022 478 2636 193 
Q 2250 -91 1575 -91 
Q 1294 -91 989 -36 
Q 684 19 347 128 
L 347 722 
Q 666 556 975 473 
Q 1284 391 1588 391 
Q 1994 391 2212 530 
Q 2431 669 2431 922 
Q 2431 1156 2273 1281 
Q 2116 1406 1581 1522 
L 1381 1569 
Q 847 1681 609 1914 
Q 372 2147 372 2553 
Q 372 3047 722 3315 
Q 1072 3584 1716 3584 
Q 2034 3584 2315 3537 
Q 2597 3491 2834 3397 
z
" transform="scale(0.015625)"/>
    </defs>
    <use xlink:href="#DejaVuSans-49"/>
    <use xlink:href="#DejaVuSans-6e" x="29.492188"/>
    <use xlink:href="#DejaVuSans-7a" x="92.871094"/>
    <use xlink:href="#DejaVuSans-69" x="145.361328"/>
    <use xlink:href="#DejaVuSans-64" x="173.144531"/>
    <use xlink:href="#DejaVuSans-65" x="236.621094"/>
    <use xlink:href="#DejaVuSans-6e" x="298.144531"/>
    <use xlink:href="#DejaVuSans-7a" x="361.523438"/>
    <use xlink:href="#DejaVuSans-76" x="414.013672"/>
    <use xlink:href="#DejaVuSans-65" x="473.193359"/>
    <use xlink:href="#DejaVuSans-72" x="534.716797"/>
    <use xlink:href="#DejaVuSans-6c" x="575.830078"/>
    <use xlink:href="#DejaVuSans-61" x="603.613281"/>
    <use xlink:href="#DejaVuSans-75" x="664.892578"/>
    <use xlink:href="#DejaVuSans-66" x="728.271484"/>
    <use xlink:href="#DejaVuSans-20" x="763.476562"/>
    <use xlink:href="#DejaVuSans-53" x="795.263672"/>
    <use xlink:href="#DejaVuSans-4b" x="858.740234"/>
    <use xlink:href="#DejaVuSans-20" x="924.316406"/>
    <use xlink:href="#DejaVuSans-57" x="956.103516"/>
    <use xlink:href="#DejaVuSans-69" x="1052.730469"/>
    <use xlink:href="#DejaVuSans-6c" x="1080.513672"/>
    <use xlink:href="#DejaVuSans-68" x="1108.296875"/>
    <use xlink:href="#DejaVuSans-65" x="1171.675781"/>
    <use xlink:href="#DejaVuSans-6c" x="1233.199219"/>
    <use xlink:href="#DejaVuSans-6d" x="1260.982422"/>
    <use xlink:href="#DejaVuSans-73" x="1358.394531"/>
    <use xlink:href="#DejaVuSans-68" x="1410.494141"/>
    <use xlink:href="#DejaVuSans-61" x="1473.873047"/>
    <use xlink:href="#DejaVuSans-76" x="1535.152344"/>
    <use xlink:href="#DejaVuSans-65" x="1594.332031"/>
    <use xlink:href="#DejaVuSans-6e" x="1655.855469"/>
   </g>
  </g>
 </g>
 <defs>
  <clipPath id="pcb93675dbc">
   <rect x="57.6" y="41.472" width="357.12" height="235.008"/>
  </clipPath>
 </defs>
</svg>
